<?xml version="1.0" encoding="UTF-8" standalone="no"?>
<!DOCTYPE svg PUBLIC "-//W3C//DTD SVG 1.1//EN"
 "http://www.w3.org/Graphics/SVG/1.1/DTD/svg11.dtd">
<!-- Generated by graphviz version 2.43.0 (0)
 -->
<!-- Title: top_node Pages: 1 -->
<svg width="270pt" height="332pt"
 viewBox="0.00 0.00 270.00 332.00" xmlns="http://www.w3.org/2000/svg" xmlns:xlink="http://www.w3.org/1999/xlink">

<svg id="main" version="1.1" xmlns="http://www.w3.org/2000/svg" xmlns:xlink="http://www.w3.org/1999/xlink" xml:space="preserve" onload="init(evt)">
<style type="text/css"><![CDATA[
.node, .edge {opacity: 0.7;}
.node.selected, .edge.selected {opacity: 1;}
.edge:hover path { stroke: red; }
.edge:hover polygon { stroke: red; fill: red; }
]]></style>
<script type="application/ecmascript" xlink:href="svg.min.js"/>
<svg id="graph" class="graph">
<g id="graph0" class="graph" transform="scale(1 1) rotate(0) translate(4 328)">
<title>top_node</title>
<!-- Node1 -->
<g id="Node000001" class="node">
<title>Node1</title>
<g id="a_Node000001"><a xlink:title=" ">
<polygon fill="#999999" stroke="#666666" points="262,-174 200,-174 200,-155 262,-155 262,-174"/>
<text text-anchor="middle" x="231" y="-162" font-family="Helvetica,sans-Serif" font-size="10.00">top_node</text>
</a>
</g>
</g>
<!-- Node2 -->
<g id="Node000002" class="node">
<title>Node2</title>
<g id="a_Node000002"><a xlink:href="classgraph__tops.html#aeeb26c4ab2ef88d0b3799205efc90efc" target="_top" xlink:title="Compiles the event into a graph.">
<polygon fill="white" stroke="#666666" points="154.5,-324 9.5,-324 9.5,-305 154.5,-305 154.5,-324"/>
<text text-anchor="middle" x="82" y="-312" font-family="Helvetica,sans-Serif" font-size="10.00">graph_tops::CompileEvent</text>
</a>
</g>
</g>
<!-- Node1&#45;&gt;Node2 -->
<g id="edge1_Node000001_Node000002" class="edge">
<title>Node1&#45;&gt;Node2</title>
<g id="a_edge1_Node000001_Node000002"><a xlink:title=" ">
<path fill="none" stroke="#63b8ff" d="M225.83,-184.13C218.56,-213.33 200.71,-267.84 164,-296.5 159.69,-299.87 154.87,-302.63 149.79,-304.9"/>
<polygon fill="#63b8ff" stroke="#63b8ff" points="229.26,-184.81 228.11,-174.28 222.45,-183.23 229.26,-184.81"/>
</a>
</g>
</g>
<!-- Node3 -->
<g id="Node000003" class="node">
<title>Node3</title>
<g id="a_Node000003"><a xlink:href="classgraph__children.html#af069fe630b6bbf6ffacca8243761e829" target="_top" xlink:title="Compiles the event into a graph.">
<polygon fill="white" stroke="#666666" points="163.5,-287 0.5,-287 0.5,-268 163.5,-268 163.5,-287"/>
<text text-anchor="middle" x="82" y="-275" font-family="Helvetica,sans-Serif" font-size="10.00">graph_children::CompileEvent</text>
</a>
</g>
</g>
<!-- Node1&#45;&gt;Node3 -->
<g id="edge2_Node000001_Node000003" class="edge">
<title>Node1&#45;&gt;Node3</title>
<g id="a_edge2_Node000001_Node000003"><a xlink:title=" ">
<path fill="none" stroke="#63b8ff" d="M221.87,-183.4C211.58,-204.98 191.81,-239.7 164,-258.5 158.26,-262.38 151.82,-265.48 145.15,-267.94"/>
<polygon fill="#63b8ff" stroke="#63b8ff" points="225.07,-184.81 226.03,-174.26 218.7,-181.91 225.07,-184.81"/>
</a>
</g>
</g>
<!-- Node4 -->
<g id="Node000004" class="node">
<title>Node4</title>
<g id="a_Node000004"><a xlink:href="classgraph__truthjets.html#ad64c5a15f0406d8a6c9705d50934b81f" target="_top" xlink:title="Compiles the event into a graph.">
<polygon fill="white" stroke="#666666" points="150.5,-249.5 13.5,-249.5 13.5,-219.5 150.5,-219.5 150.5,-249.5"/>
<text text-anchor="start" x="21.5" y="-237.5" font-family="Helvetica,sans-Serif" font-size="10.00">graph_truthjets::Compile</text>
<text text-anchor="middle" x="82" y="-226.5" font-family="Helvetica,sans-Serif" font-size="10.00">Event</text>
</a>
</g>
</g>
<!-- Node1&#45;&gt;Node4 -->
<g id="edge3_Node000001_Node000004" class="edge">
<title>Node1&#45;&gt;Node4</title>
<g id="a_edge3_Node000001_Node000004"><a xlink:title=" ">
<path fill="none" stroke="#63b8ff" d="M210.6,-180.52C197.96,-190.3 180.77,-202.43 164,-210.5 157.13,-213.81 149.7,-216.76 142.24,-219.37"/>
<polygon fill="#63b8ff" stroke="#63b8ff" points="212.9,-183.16 218.55,-174.21 208.54,-177.68 212.9,-183.16"/>
</a>
</g>
</g>
<!-- Node5 -->
<g id="Node000005" class="node">
<title>Node5</title>
<g id="a_Node000005"><a xlink:href="classgraph__truthjets__nonu.html#add03a6d564186c150f7c907737b77eeb" target="_top" xlink:title="Compiles the event into a graph.">
<polygon fill="white" stroke="#666666" points="142,-201.5 22,-201.5 22,-171.5 142,-171.5 142,-201.5"/>
<text text-anchor="start" x="30" y="-189.5" font-family="Helvetica,sans-Serif" font-size="10.00">graph_truthjets_nonu</text>
<text text-anchor="middle" x="82" y="-178.5" font-family="Helvetica,sans-Serif" font-size="10.00">::CompileEvent</text>
</a>
</g>
</g>
<!-- Node1&#45;&gt;Node5 -->
<g id="edge4_Node000001_Node000005" class="edge">
<title>Node1&#45;&gt;Node5</title>
<g id="a_edge4_Node000001_Node000005"><a xlink:title=" ">
<path fill="none" stroke="#63b8ff" d="M189.67,-170.54C175.02,-172.73 158.15,-175.25 142.21,-177.64"/>
<polygon fill="#63b8ff" stroke="#63b8ff" points="190.53,-173.95 199.9,-169.01 189.49,-167.02 190.53,-173.95"/>
</a>
</g>
</g>
<!-- Node6 -->
<g id="Node000006" class="node">
<title>Node6</title>
<g id="a_Node000006"><a xlink:href="classgraph__jets.html#a568114127973b28c968493e79ca67cd7" target="_top" xlink:title="Compiles the event into a graph.">
<polygon fill="white" stroke="#666666" points="153,-153 11,-153 11,-134 153,-134 153,-153"/>
<text text-anchor="middle" x="82" y="-141" font-family="Helvetica,sans-Serif" font-size="10.00">graph_jets::CompileEvent</text>
</a>
</g>
</g>
<!-- Node1&#45;&gt;Node6 -->
<g id="edge5_Node000001_Node000006" class="edge">
<title>Node1&#45;&gt;Node6</title>
<g id="a_edge5_Node000001_Node000006"><a xlink:title=" ">
<path fill="none" stroke="#63b8ff" d="M189.9,-158.77C177.49,-157 163.47,-155 149.77,-153.04"/>
<polygon fill="#63b8ff" stroke="#63b8ff" points="189.5,-162.25 199.9,-160.2 190.49,-155.32 189.5,-162.25"/>
</a>
</g>
</g>
<!-- Node7 -->
<g id="Node000007" class="node">
<title>Node7</title>
<g id="a_Node000007"><a xlink:href="classgraph__jets__nonu.html#a3d76d9b5885af9d1ef9c2a150acc1300" target="_top" xlink:title="Compiles the event into a graph.">
<polygon fill="white" stroke="#666666" points="153.5,-115.5 10.5,-115.5 10.5,-85.5 153.5,-85.5 153.5,-115.5"/>
<text text-anchor="start" x="18.5" y="-103.5" font-family="Helvetica,sans-Serif" font-size="10.00">graph_jets_nonu::Compile</text>
<text text-anchor="middle" x="82" y="-92.5" font-family="Helvetica,sans-Serif" font-size="10.00">Event</text>
</a>
</g>
</g>
<!-- Node1&#45;&gt;Node7 -->
<g id="edge6_Node000001_Node000007" class="edge">
<title>Node1&#45;&gt;Node7</title>
<g id="a_edge6_Node000001_Node000007"><a xlink:title=" ">
<path fill="none" stroke="#63b8ff" d="M207.35,-149.32C194.92,-141.46 179.03,-132.15 164,-125.5 155.79,-121.87 146.89,-118.55 138.1,-115.6"/>
<polygon fill="#63b8ff" stroke="#63b8ff" points="205.8,-152.49 216.1,-154.98 209.6,-146.61 205.8,-152.49"/>
</a>
</g>
</g>
<!-- Node8 -->
<g id="Node000008" class="node">
<title>Node8</title>
<g id="a_Node000008"><a xlink:href="classgraph__jets__detector__lep.html#a8da8c93bcdece302cb06b34e6b9db801" target="_top" xlink:title="Compiles the event into a graph.">
<polygon fill="white" stroke="#666666" points="138.5,-67.5 25.5,-67.5 25.5,-37.5 138.5,-37.5 138.5,-67.5"/>
<text text-anchor="start" x="33.5" y="-55.5" font-family="Helvetica,sans-Serif" font-size="10.00">graph_jets_detector</text>
<text text-anchor="middle" x="82" y="-44.5" font-family="Helvetica,sans-Serif" font-size="10.00">_lep::CompileEvent</text>
</a>
</g>
</g>
<!-- Node1&#45;&gt;Node8 -->
<g id="edge7_Node000001_Node000008" class="edge">
<title>Node1&#45;&gt;Node8</title>
<g id="a_edge7_Node000001_Node000008"><a xlink:title=" ">
<path fill="none" stroke="#63b8ff" d="M220.74,-145.91C209.83,-125.89 189.89,-94.5 164,-76.5 156.41,-71.22 147.66,-67.09 138.76,-63.86"/>
<polygon fill="#63b8ff" stroke="#63b8ff" points="217.74,-147.72 225.47,-154.96 223.94,-144.48 217.74,-147.72"/>
</a>
</g>
</g>
<!-- Node9 -->
<g id="Node000009" class="node">
<title>Node9</title>
<g id="a_Node000009"><a xlink:href="classgraph__detector.html#a9524462481e7c9e42df5cf73f999737e" target="_top" xlink:title="Compiles the event into a graph.">
<polygon fill="white" stroke="#666666" points="164,-19 0,-19 0,0 164,0 164,-19"/>
<text text-anchor="middle" x="82" y="-7" font-family="Helvetica,sans-Serif" font-size="10.00">graph_detector::CompileEvent</text>
</a>
</g>
</g>
<!-- Node1&#45;&gt;Node9 -->
<g id="edge8_Node000001_Node000009" class="edge">
<title>Node1&#45;&gt;Node9</title>
<g id="a_edge8_Node000001_Node000009"><a xlink:title=" ">
<path fill="none" stroke="#63b8ff" d="M226.07,-144.78C219.05,-114.9 201.44,-58.45 164,-28.5 159.15,-24.62 153.64,-21.51 147.84,-19.01"/>
<polygon fill="#63b8ff" stroke="#63b8ff" points="222.71,-145.8 228.26,-154.83 229.55,-144.31 222.71,-145.8"/>
</a>
</g>
</g>
</g>
</svg>
</svg>

<style type='text/css'>
<![CDATA[
[data-mouse-over-selected='false'] { opacity: 0.7; }
[data-mouse-over-selected='true']  { opacity: 1.0; }
]]>
</style>
<script type="application/ecmascript"><![CDATA[
document.addEventListener('DOMContentLoaded', (event) => {
  highlightEdges();
  highlightAdjacentNodes();
});
]]></script>
</svg>
