<?xml version="1.0" encoding="UTF-8" standalone="no"?>
<!DOCTYPE svg PUBLIC "-//W3C//DTD SVG 1.1//EN"
 "http://www.w3.org/Graphics/SVG/1.1/DTD/svg11.dtd">
<!-- Generated by graphviz version 2.43.0 (0)
 -->
<!-- Title: res_node Pages: 1 -->
<svg width="269pt" height="332pt"
 viewBox="0.00 0.00 269.00 332.00" xmlns="http://www.w3.org/2000/svg" xmlns:xlink="http://www.w3.org/1999/xlink">
<g id="graph0" class="graph" transform="scale(1 1) rotate(0) translate(4 328)">
<title>res_node</title>
<!-- Node1 -->
<g id="Node000001" class="node">
<title>Node1</title>
<g id="a_Node000001"><a xlink:title=" ">
<polygon fill="#999999" stroke="#666666" points="261,-174 200,-174 200,-155 261,-155 261,-174"/>
<text text-anchor="middle" x="230.5" y="-162" font-family="Helvetica,sans-Serif" font-size="10.00">res_node</text>
</a>
</g>
</g>
<!-- Node2 -->
<g id="Node000002" class="node">
<title>Node2</title>
<g id="a_Node000002"><a xlink:href="classgraph__tops.html#aeeb26c4ab2ef88d0b3799205efc90efc" target="_top" xlink:title="Compiles the event into a graph.">
<polygon fill="white" stroke="#666666" points="154.5,-324 9.5,-324 9.5,-305 154.5,-305 154.5,-324"/>
<text text-anchor="middle" x="82" y="-312" font-family="Helvetica,sans-Serif" font-size="10.00">graph_tops::CompileEvent</text>
</a>
</g>
</g>
<!-- Node1&#45;&gt;Node2 -->
<g id="edge1_Node000001_Node000002" class="edge">
<title>Node1&#45;&gt;Node2</title>
<g id="a_edge1_Node000001_Node000002"><a xlink:title=" ">
<path fill="none" stroke="#63b8ff" d="M225.41,-184.12C218.25,-213.32 200.61,-267.83 164,-296.5 159.69,-299.88 154.88,-302.65 149.8,-304.92"/>
<polygon fill="#63b8ff" stroke="#63b8ff" points="228.84,-184.81 227.65,-174.28 222.02,-183.25 228.84,-184.81"/>
</a>
</g>
</g>
<!-- Node3 -->
<g id="Node000003" class="node">
<title>Node3</title>
<g id="a_Node000003"><a xlink:href="classgraph__children.html#af069fe630b6bbf6ffacca8243761e829" target="_top" xlink:title="Compiles the event into a graph.">
<polygon fill="white" stroke="#666666" points="163.5,-287 0.5,-287 0.5,-268 163.5,-268 163.5,-287"/>
<text text-anchor="middle" x="82" y="-275" font-family="Helvetica,sans-Serif" font-size="10.00">graph_children::CompileEvent</text>
</a>
</g>
</g>
<!-- Node1&#45;&gt;Node3 -->
<g id="edge2_Node000001_Node000003" class="edge">
<title>Node1&#45;&gt;Node3</title>
<g id="a_edge2_Node000001_Node000003"><a xlink:title=" ">
<path fill="none" stroke="#63b8ff" d="M221.46,-183.4C211.3,-204.98 191.7,-239.7 164,-258.5 158.26,-262.39 151.83,-265.5 145.16,-267.96"/>
<polygon fill="#63b8ff" stroke="#63b8ff" points="224.67,-184.81 225.58,-174.26 218.29,-181.94 224.67,-184.81"/>
</a>
</g>
</g>
<!-- Node4 -->
<g id="Node000004" class="node">
<title>Node4</title>
<g id="a_Node000004"><a xlink:href="classgraph__truthjets.html#ad64c5a15f0406d8a6c9705d50934b81f" target="_top" xlink:title="Compiles the event into a graph.">
<polygon fill="white" stroke="#666666" points="150.5,-249.5 13.5,-249.5 13.5,-219.5 150.5,-219.5 150.5,-249.5"/>
<text text-anchor="start" x="21.5" y="-237.5" font-family="Helvetica,sans-Serif" font-size="10.00">graph_truthjets::Compile</text>
<text text-anchor="middle" x="82" y="-226.5" font-family="Helvetica,sans-Serif" font-size="10.00">Event</text>
</a>
</g>
</g>
<!-- Node1&#45;&gt;Node4 -->
<g id="edge3_Node000001_Node000004" class="edge">
<title>Node1&#45;&gt;Node4</title>
<g id="a_edge3_Node000001_Node000004"><a xlink:title=" ">
<path fill="none" stroke="#63b8ff" d="M210.26,-180.53C197.73,-190.31 180.67,-202.44 164,-210.5 157.13,-213.82 149.71,-216.78 142.25,-219.39"/>
<polygon fill="#63b8ff" stroke="#63b8ff" points="212.53,-183.19 218.15,-174.21 208.16,-177.73 212.53,-183.19"/>
</a>
</g>
</g>
<!-- Node5 -->
<g id="Node000005" class="node">
<title>Node5</title>
<g id="a_Node000005"><a xlink:href="classgraph__truthjets__nonu.html#add03a6d564186c150f7c907737b77eeb" target="_top" xlink:title="Compiles the event into a graph.">
<polygon fill="white" stroke="#666666" points="142,-201.5 22,-201.5 22,-171.5 142,-171.5 142,-201.5"/>
<text text-anchor="start" x="30" y="-189.5" font-family="Helvetica,sans-Serif" font-size="10.00">graph_truthjets_nonu</text>
<text text-anchor="middle" x="82" y="-178.5" font-family="Helvetica,sans-Serif" font-size="10.00">::CompileEvent</text>
</a>
</g>
</g>
<!-- Node1&#45;&gt;Node5 -->
<g id="edge4_Node000001_Node000005" class="edge">
<title>Node1&#45;&gt;Node5</title>
<g id="a_edge4_Node000001_Node000005"><a xlink:title=" ">
<path fill="none" stroke="#63b8ff" d="M189.66,-170.48C175.06,-172.68 158.2,-175.21 142.26,-177.6"/>
<polygon fill="#63b8ff" stroke="#63b8ff" points="190.48,-173.9 199.85,-168.95 189.44,-166.98 190.48,-173.9"/>
</a>
</g>
</g>
<!-- Node6 -->
<g id="Node000006" class="node">
<title>Node6</title>
<g id="a_Node000006"><a xlink:href="classgraph__jets.html#a568114127973b28c968493e79ca67cd7" target="_top" xlink:title="Compiles the event into a graph.">
<polygon fill="white" stroke="#666666" points="153,-153 11,-153 11,-134 153,-134 153,-153"/>
<text text-anchor="middle" x="82" y="-141" font-family="Helvetica,sans-Serif" font-size="10.00">graph_jets::CompileEvent</text>
</a>
</g>
</g>
<!-- Node1&#45;&gt;Node6 -->
<g id="edge5_Node000001_Node000006" class="edge">
<title>Node1&#45;&gt;Node6</title>
<g id="a_edge5_Node000001_Node000006"><a xlink:title=" ">
<path fill="none" stroke="#63b8ff" d="M189.83,-158.81C177.39,-157.03 163.29,-155.01 149.52,-153.04"/>
<polygon fill="#63b8ff" stroke="#63b8ff" points="189.46,-162.3 199.85,-160.25 190.45,-155.37 189.46,-162.3"/>
</a>
</g>
</g>
<!-- Node7 -->
<g id="Node000007" class="node">
<title>Node7</title>
<g id="a_Node000007"><a xlink:href="classgraph__jets__nonu.html#a3d76d9b5885af9d1ef9c2a150acc1300" target="_top" xlink:title="Compiles the event into a graph.">
<polygon fill="white" stroke="#666666" points="153.5,-115.5 10.5,-115.5 10.5,-85.5 153.5,-85.5 153.5,-115.5"/>
<text text-anchor="start" x="18.5" y="-103.5" font-family="Helvetica,sans-Serif" font-size="10.00">graph_jets_nonu::Compile</text>
<text text-anchor="middle" x="82" y="-92.5" font-family="Helvetica,sans-Serif" font-size="10.00">Event</text>
</a>
</g>
</g>
<!-- Node1&#45;&gt;Node7 -->
<g id="edge6_Node000001_Node000007" class="edge">
<title>Node1&#45;&gt;Node7</title>
<g id="a_edge6_Node000001_Node000007"><a xlink:title=" ">
<path fill="none" stroke="#63b8ff" d="M206.79,-149.16C194.51,-141.33 178.84,-132.1 164,-125.5 155.8,-121.85 146.9,-118.53 138.11,-115.57"/>
<polygon fill="#63b8ff" stroke="#63b8ff" points="205.17,-152.28 215.46,-154.8 208.99,-146.41 205.17,-152.28"/>
</a>
</g>
</g>
<!-- Node8 -->
<g id="Node000008" class="node">
<title>Node8</title>
<g id="a_Node000008"><a xlink:href="classgraph__jets__detector__lep.html#a8da8c93bcdece302cb06b34e6b9db801" target="_top" xlink:title="Compiles the event into a graph.">
<polygon fill="white" stroke="#666666" points="138.5,-67.5 25.5,-67.5 25.5,-37.5 138.5,-37.5 138.5,-67.5"/>
<text text-anchor="start" x="33.5" y="-55.5" font-family="Helvetica,sans-Serif" font-size="10.00">graph_jets_detector</text>
<text text-anchor="middle" x="82" y="-44.5" font-family="Helvetica,sans-Serif" font-size="10.00">_lep::CompileEvent</text>
</a>
</g>
</g>
<!-- Node1&#45;&gt;Node8 -->
<g id="edge7_Node000001_Node000008" class="edge">
<title>Node1&#45;&gt;Node8</title>
<g id="a_edge7_Node000001_Node000008"><a xlink:title=" ">
<path fill="none" stroke="#63b8ff" d="M220.34,-145.9C209.55,-125.89 189.78,-94.5 164,-76.5 156.42,-71.21 147.67,-67.07 138.78,-63.84"/>
<polygon fill="#63b8ff" stroke="#63b8ff" points="217.32,-147.69 225.03,-154.96 223.54,-144.47 217.32,-147.69"/>
</a>
</g>
</g>
<!-- Node9 -->
<g id="Node000009" class="node">
<title>Node9</title>
<g id="a_Node000009"><a xlink:href="classgraph__detector.html#a9524462481e7c9e42df5cf73f999737e" target="_top" xlink:title="Compiles the event into a graph.">
<polygon fill="white" stroke="#666666" points="164,-19 0,-19 0,0 164,0 164,-19"/>
<text text-anchor="middle" x="82" y="-7" font-family="Helvetica,sans-Serif" font-size="10.00">graph_detector::CompileEvent</text>
</a>
</g>
</g>
<!-- Node1&#45;&gt;Node9 -->
<g id="edge8_Node000001_Node000009" class="edge">
<title>Node1&#45;&gt;Node9</title>
<g id="a_edge8_Node000001_Node000009"><a xlink:title=" ">
<path fill="none" stroke="#63b8ff" d="M225.65,-144.79C218.74,-114.91 201.34,-58.46 164,-28.5 159.27,-24.7 153.91,-21.64 148.26,-19.17"/>
<polygon fill="#63b8ff" stroke="#63b8ff" points="222.28,-145.78 227.8,-154.83 229.12,-144.32 222.28,-145.78"/>
</a>
</g>
</g>
</g>
</svg>
