<?xml version="1.0" encoding="UTF-8" standalone="no"?>
<!DOCTYPE svg PUBLIC "-//W3C//DTD SVG 1.1//EN"
 "http://www.w3.org/Graphics/SVG/1.1/DTD/svg11.dtd">
<!-- Generated by graphviz version 2.43.0 (0)
 -->
<!-- Title: res_edge Pages: 1 -->
<svg width="465pt" height="454pt"
 viewBox="0.00 0.00 465.00 453.50" xmlns="http://www.w3.org/2000/svg" xmlns:xlink="http://www.w3.org/1999/xlink">
<g id="graph0" class="graph" transform="scale(1 1) rotate(0) translate(4 449.5)">
<title>res_edge</title>
<!-- Node1 -->
<g id="Node000001" class="node">
<title>Node1</title>
<g id="a_Node000001"><a xlink:title=" ">
<polygon fill="#999999" stroke="#666666" points="457,-252.5 396,-252.5 396,-233.5 457,-233.5 457,-252.5"/>
<text text-anchor="middle" x="426.5" y="-240.5" font-family="Helvetica,sans-Serif" font-size="10.00">res_edge</text>
</a>
</g>
</g>
<!-- Node2 -->
<g id="Node000002" class="node">
<title>Node2</title>
<g id="a_Node000002"><a xlink:href="classgraph__tops.html#aeeb26c4ab2ef88d0b3799205efc90efc" target="_top" xlink:title="Compiles the event into a graph.">
<polygon fill="white" stroke="#666666" points="350.5,-445.5 205.5,-445.5 205.5,-426.5 350.5,-426.5 350.5,-445.5"/>
<text text-anchor="middle" x="278" y="-433.5" font-family="Helvetica,sans-Serif" font-size="10.00">graph_tops::CompileEvent</text>
</a>
</g>
</g>
<!-- Node1&#45;&gt;Node2 -->
<g id="edge1_Node000001_Node000002" class="edge">
<title>Node1&#45;&gt;Node2</title>
<g id="a_edge1_Node000001_Node000002"><a xlink:title=" ">
<path fill="none" stroke="#63b8ff" d="M424.04,-263.08C420.25,-299.7 406.83,-377.28 360,-418 356.2,-421.31 351.92,-424.05 347.36,-426.31"/>
<polygon fill="#63b8ff" stroke="#63b8ff" points="427.56,-263 424.96,-252.73 420.59,-262.38 427.56,-263"/>
</a>
</g>
</g>
<!-- Node3 -->
<g id="Node000003" class="node">
<title>Node3</title>
<g id="a_Node000003"><a xlink:href="classgraph__children.html#af069fe630b6bbf6ffacca8243761e829" target="_top" xlink:title="Compiles the event into a graph.">
<polygon fill="white" stroke="#666666" points="359.5,-408.5 196.5,-408.5 196.5,-389.5 359.5,-389.5 359.5,-408.5"/>
<text text-anchor="middle" x="278" y="-396.5" font-family="Helvetica,sans-Serif" font-size="10.00">graph_children::CompileEvent</text>
</a>
</g>
</g>
<!-- Node1&#45;&gt;Node3 -->
<g id="edge2_Node000001_Node000003" class="edge">
<title>Node1&#45;&gt;Node3</title>
<g id="a_edge2_Node000001_Node000003"><a xlink:title=" ">
<path fill="none" stroke="#63b8ff" d="M421.69,-262.85C414.84,-292.95 397.52,-349.81 360,-380 355.27,-383.8 349.92,-386.87 344.27,-389.34"/>
<polygon fill="#63b8ff" stroke="#63b8ff" points="425.18,-263.25 423.82,-252.74 418.33,-261.8 425.18,-263.25"/>
</a>
</g>
</g>
<!-- Node4 -->
<g id="Node000004" class="node">
<title>Node4</title>
<g id="a_Node000004"><a xlink:href="classgraph__truthjets.html#ad64c5a15f0406d8a6c9705d50934b81f" target="_top" xlink:title="Compiles the event into a graph.">
<polygon fill="white" stroke="#666666" points="346.5,-371 209.5,-371 209.5,-341 346.5,-341 346.5,-371"/>
<text text-anchor="start" x="217.5" y="-359" font-family="Helvetica,sans-Serif" font-size="10.00">graph_truthjets::Compile</text>
<text text-anchor="middle" x="278" y="-348" font-family="Helvetica,sans-Serif" font-size="10.00">Event</text>
</a>
</g>
</g>
<!-- Node1&#45;&gt;Node4 -->
<g id="edge3_Node000001_Node000004" class="edge">
<title>Node1&#45;&gt;Node4</title>
<g id="a_edge3_Node000001_Node000004"><a xlink:title=" ">
<path fill="none" stroke="#63b8ff" d="M416.4,-261.81C405.65,-282.05 385.92,-313.8 360,-332 355.08,-335.46 349.66,-338.42 344.02,-340.96"/>
<polygon fill="#63b8ff" stroke="#63b8ff" points="419.64,-263.15 421.06,-252.65 413.4,-259.97 419.64,-263.15"/>
</a>
</g>
</g>
<!-- Node5 -->
<g id="Node000005" class="node">
<title>Node5</title>
<g id="a_Node000005"><a xlink:href="classgraph__truthjets__nonu.html#add03a6d564186c150f7c907737b77eeb" target="_top" xlink:title="Compiles the event into a graph.">
<polygon fill="white" stroke="#666666" points="338,-323 218,-323 218,-293 338,-293 338,-323"/>
<text text-anchor="start" x="226" y="-311" font-family="Helvetica,sans-Serif" font-size="10.00">graph_truthjets_nonu</text>
<text text-anchor="middle" x="278" y="-300" font-family="Helvetica,sans-Serif" font-size="10.00">::CompileEvent</text>
</a>
</g>
</g>
<!-- Node1&#45;&gt;Node5 -->
<g id="edge4_Node000001_Node000005" class="edge">
<title>Node1&#45;&gt;Node5</title>
<g id="a_edge4_Node000001_Node000005"><a xlink:title=" ">
<path fill="none" stroke="#63b8ff" d="M404.24,-258.38C391.81,-266.83 375.55,-276.99 360,-284 352.65,-287.32 344.71,-290.32 336.79,-292.98"/>
<polygon fill="#63b8ff" stroke="#63b8ff" points="406.34,-261.18 412.55,-252.59 402.34,-255.43 406.34,-261.18"/>
</a>
</g>
</g>
<!-- Node6 -->
<g id="Node000006" class="node">
<title>Node6</title>
<g id="a_Node000006"><a xlink:href="classgraph__jets.html#a568114127973b28c968493e79ca67cd7" target="_top" xlink:title="Compiles the event into a graph.">
<polygon fill="white" stroke="#666666" points="349,-274.5 207,-274.5 207,-255.5 349,-255.5 349,-274.5"/>
<text text-anchor="middle" x="278" y="-262.5" font-family="Helvetica,sans-Serif" font-size="10.00">graph_jets::CompileEvent</text>
</a>
</g>
</g>
<!-- Node1&#45;&gt;Node6 -->
<g id="edge5_Node000001_Node000006" class="edge">
<title>Node1&#45;&gt;Node6</title>
<g id="a_edge5_Node000001_Node000006"><a xlink:title=" ">
<path fill="none" stroke="#63b8ff" d="M385.63,-248.99C372.32,-250.99 357.13,-253.27 342.48,-255.47"/>
<polygon fill="#63b8ff" stroke="#63b8ff" points="386.48,-252.4 395.85,-247.45 385.44,-245.48 386.48,-252.4"/>
</a>
</g>
</g>
<!-- Node7 -->
<g id="Node000007" class="node">
<title>Node7</title>
<g id="a_Node000007"><a xlink:href="classgraph__jets__nonu.html#a3d76d9b5885af9d1ef9c2a150acc1300" target="_top" xlink:title="Compiles the event into a graph.">
<polygon fill="white" stroke="#666666" points="349.5,-237 206.5,-237 206.5,-207 349.5,-207 349.5,-237"/>
<text text-anchor="start" x="214.5" y="-225" font-family="Helvetica,sans-Serif" font-size="10.00">graph_jets_nonu::Compile</text>
<text text-anchor="middle" x="278" y="-214" font-family="Helvetica,sans-Serif" font-size="10.00">Event</text>
</a>
</g>
</g>
<!-- Node1&#45;&gt;Node7 -->
<g id="edge6_Node000001_Node000007" class="edge">
<title>Node1&#45;&gt;Node7</title>
<g id="a_edge6_Node000001_Node000007"><a xlink:title=" ">
<path fill="none" stroke="#63b8ff" d="M385.64,-237.29C374.53,-235.69 362.11,-233.91 349.78,-232.15"/>
<polygon fill="#63b8ff" stroke="#63b8ff" points="385.46,-240.8 395.85,-238.75 386.45,-233.87 385.46,-240.8"/>
</a>
</g>
</g>
<!-- Node8 -->
<g id="Node000008" class="node">
<title>Node8</title>
<g id="a_Node000008"><a xlink:href="classgraph__jets__detector__lep.html#a8da8c93bcdece302cb06b34e6b9db801" target="_top" xlink:title="Compiles the event into a graph.">
<polygon fill="white" stroke="#666666" points="334.5,-189 221.5,-189 221.5,-159 334.5,-159 334.5,-189"/>
<text text-anchor="start" x="229.5" y="-177" font-family="Helvetica,sans-Serif" font-size="10.00">graph_jets_detector</text>
<text text-anchor="middle" x="278" y="-166" font-family="Helvetica,sans-Serif" font-size="10.00">_lep::CompileEvent</text>
</a>
</g>
</g>
<!-- Node1&#45;&gt;Node8 -->
<g id="edge7_Node000001_Node000008" class="edge">
<title>Node1&#45;&gt;Node8</title>
<g id="a_edge7_Node000001_Node000008"><a xlink:title=" ">
<path fill="none" stroke="#63b8ff" d="M405.75,-226.99C393.24,-217.49 376.39,-205.82 360,-198 352.06,-194.21 343.39,-190.88 334.77,-188"/>
<polygon fill="#63b8ff" stroke="#63b8ff" points="403.61,-229.76 413.65,-233.15 407.91,-224.24 403.61,-229.76"/>
</a>
</g>
</g>
<!-- Node9 -->
<g id="Node000009" class="node">
<title>Node9</title>
<g id="a_Node000009"><a xlink:href="classgraph__detector.html#a9524462481e7c9e42df5cf73f999737e" target="_top" xlink:title="Compiles the event into a graph.">
<polygon fill="white" stroke="#666666" points="360,-140.5 196,-140.5 196,-121.5 360,-121.5 360,-140.5"/>
<text text-anchor="middle" x="278" y="-128.5" font-family="Helvetica,sans-Serif" font-size="10.00">graph_detector::CompileEvent</text>
</a>
</g>
</g>
<!-- Node1&#45;&gt;Node9 -->
<g id="edge8_Node000001_Node000009" class="edge">
<title>Node1&#45;&gt;Node9</title>
<g id="a_edge8_Node000001_Node000009"><a xlink:title=" ">
<path fill="none" stroke="#63b8ff" d="M417.27,-224.01C407.01,-202.64 387.43,-168.52 360,-150 354.25,-146.12 347.81,-143.03 341.14,-140.56"/>
<polygon fill="#63b8ff" stroke="#63b8ff" points="414.2,-225.71 421.55,-233.35 420.57,-222.8 414.2,-225.71"/>
</a>
</g>
</g>
<!-- Node10 -->
<g id="Node000010" class="node">
<title>Node10</title>
<g id="a_Node000010"><a xlink:href="classgrift.html#a72f7575fbd1d744d4f9053e5b8b7ee38" target="_top" xlink:title="Virtual forward pass method for a single graph.">
<polygon fill="white" stroke="#666666" points="318,-85.5 238,-85.5 238,-66.5 318,-66.5 318,-85.5"/>
<text text-anchor="middle" x="278" y="-73.5" font-family="Helvetica,sans-Serif" font-size="10.00">grift::forward</text>
</a>
</g>
</g>
<!-- Node1&#45;&gt;Node10 -->
<g id="edge9_Node000001_Node000010" class="edge">
<title>Node1&#45;&gt;Node10</title>
<g id="a_edge9_Node000001_Node000010"><a xlink:title=" ">
<path fill="none" stroke="#63b8ff" d="M420.16,-223.4C411.68,-195.55 392.63,-144.41 360,-113 346.86,-100.35 328.62,-91.5 312.78,-85.64"/>
<polygon fill="#63b8ff" stroke="#63b8ff" points="416.85,-224.54 422.99,-233.17 423.57,-222.59 416.85,-224.54"/>
</a>
</g>
</g>
<!-- Node12 -->
<g id="Node000012" class="node">
<title>Node12</title>
<g id="a_Node000012"><a xlink:href="classrecursivegraphneuralnetwork.html#a4b09bc8de8d9ecd0b4ff1ffa94deea98" target="_top" xlink:title="Virtual forward pass method for a single graph.">
<polygon fill="white" stroke="#666666" points="358,-30 198,-30 198,0 358,0 358,-30"/>
<text text-anchor="start" x="206" y="-18" font-family="Helvetica,sans-Serif" font-size="10.00">recursivegraphneuralnetwork</text>
<text text-anchor="middle" x="278" y="-7" font-family="Helvetica,sans-Serif" font-size="10.00">::forward</text>
</a>
</g>
</g>
<!-- Node1&#45;&gt;Node12 -->
<g id="edge13_Node000001_Node000012" class="edge">
<title>Node1&#45;&gt;Node12</title>
<g id="a_edge13_Node000001_Node000012"><a xlink:title=" ">
<path fill="none" stroke="#63b8ff" d="M423.22,-222.98C418.09,-186.25 402.56,-107.36 360,-58 349.6,-45.94 334.97,-36.74 321,-30.01"/>
<polygon fill="#63b8ff" stroke="#63b8ff" points="419.8,-223.86 424.54,-233.33 426.75,-222.97 419.8,-223.86"/>
</a>
</g>
</g>
<!-- Node10&#45;&gt;Node10 -->
<g id="edge10_Node000010_Node000010" class="edge">
<title>Node10&#45;&gt;Node10</title>
<g id="a_edge10_Node000010_Node000010"><a xlink:title=" ">
<path fill="none" stroke="#63b8ff" d="M305.53,-94.69C304.03,-99.7 294.85,-103.5 278,-103.5 251.7,-103.5 244.09,-94.23 255.19,-85.58"/>
<polygon fill="#63b8ff" stroke="#63b8ff" points="308.52,-92.85 300.81,-85.58 302.3,-96.07 308.52,-92.85"/>
</a>
</g>
</g>
<!-- Node11 -->
<g id="Node000011" class="node">
<title>Node11</title>
<g id="a_Node000011"><a xlink:href="classgrift.html#ad610edcd0cab14b57197a846ab8a8caf" target="_top" xlink:title=" ">
<polygon fill="white" stroke="#666666" points="123,-85.5 37,-85.5 37,-66.5 123,-66.5 123,-85.5"/>
<text text-anchor="middle" x="80" y="-73.5" font-family="Helvetica,sans-Serif" font-size="10.00">grift::message</text>
</a>
</g>
</g>
<!-- Node10&#45;&gt;Node11 -->
<g id="edge11_Node000010_Node000011" class="edge">
<title>Node10&#45;&gt;Node11</title>
<g id="a_edge11_Node000010_Node000011"><a xlink:title=" ">
<path fill="none" stroke="#63b8ff" d="M227.7,-70.05C195.49,-68.89 153.86,-68.99 123.18,-70.34"/>
<polygon fill="#63b8ff" stroke="#63b8ff" points="227.67,-73.56 237.81,-70.47 227.96,-66.56 227.67,-73.56"/>
</a>
</g>
</g>
<!-- Node11&#45;&gt;Node10 -->
<g id="edge12_Node000011_Node000010" class="edge">
<title>Node11&#45;&gt;Node10</title>
<g id="a_edge12_Node000011_Node000010"><a xlink:title=" ">
<path fill="none" stroke="#63b8ff" d="M133.5,-82.06C166.31,-83.13 207.87,-82.96 237.81,-81.53"/>
<polygon fill="#63b8ff" stroke="#63b8ff" points="133.3,-78.55 123.18,-81.66 133.04,-85.54 133.3,-78.55"/>
</a>
</g>
</g>
<!-- Node12&#45;&gt;Node12 -->
<g id="edge14_Node000012_Node000012" class="edge">
<title>Node12&#45;&gt;Node12</title>
<g id="a_edge14_Node000012_Node000012"><a xlink:title=" ">
<path fill="none" stroke="#63b8ff" d="M303.91,-40.6C300.37,-44.97 291.73,-48 278,-48 254.88,-48 246.2,-39.41 251.98,-30.28"/>
<polygon fill="#63b8ff" stroke="#63b8ff" points="307.41,-40.31 304.02,-30.28 300.41,-40.24 307.41,-40.31"/>
</a>
</g>
</g>
<!-- Node13 -->
<g id="Node000013" class="node">
<title>Node13</title>
<g id="a_Node000013"><a xlink:href="classrecursivegraphneuralnetwork.html#a7c83216c5899b14dcc03ccf368209ee1" target="_top" xlink:title=" ">
<polygon fill="white" stroke="#666666" points="160,-30 0,-30 0,0 160,0 160,-30"/>
<text text-anchor="start" x="8" y="-18" font-family="Helvetica,sans-Serif" font-size="10.00">recursivegraphneuralnetwork</text>
<text text-anchor="middle" x="80" y="-7" font-family="Helvetica,sans-Serif" font-size="10.00">::message</text>
</a>
</g>
</g>
<!-- Node12&#45;&gt;Node13 -->
<g id="edge15_Node000012_Node000013" class="edge">
<title>Node12&#45;&gt;Node13</title>
<g id="a_edge15_Node000012_Node000013"><a xlink:title=" ">
<path fill="none" stroke="#63b8ff" d="M187.57,-8.27C178.42,-8.22 169.16,-8.25 160.13,-8.36"/>
<polygon fill="#63b8ff" stroke="#63b8ff" points="187.81,-11.78 197.84,-8.36 187.88,-4.78 187.81,-11.78"/>
</a>
</g>
</g>
<!-- Node13&#45;&gt;Node12 -->
<g id="edge16_Node000013_Node000012" class="edge">
<title>Node13&#45;&gt;Node12</title>
<g id="a_edge16_Node000013_Node000012"><a xlink:title=" ">
<path fill="none" stroke="#63b8ff" d="M170.41,-21.73C179.56,-21.78 188.81,-21.75 197.84,-21.64"/>
<polygon fill="#63b8ff" stroke="#63b8ff" points="170.16,-18.22 160.13,-21.64 170.1,-25.22 170.16,-18.22"/>
</a>
</g>
</g>
</g>
</svg>
