<?xml version="1.0" encoding="UTF-8" standalone="no"?>
<!DOCTYPE svg PUBLIC "-//W3C//DTD SVG 1.1//EN"
 "http://www.w3.org/Graphics/SVG/1.1/DTD/svg11.dtd">
<!-- Generated by graphviz version 2.43.0 (0)
 -->
<!-- Title: event_weight Pages: 1 -->
<svg width="291pt" height="492pt"
 viewBox="0.00 0.00 291.00 492.00" xmlns="http://www.w3.org/2000/svg" xmlns:xlink="http://www.w3.org/1999/xlink">
<g id="graph0" class="graph" transform="scale(1 1) rotate(0) translate(4 488)">
<title>event_weight</title>
<!-- Node1 -->
<g id="Node000001" class="node">
<title>Node1</title>
<g id="a_Node000001"><a xlink:title=" ">
<polygon fill="#999999" stroke="#666666" points="283,-246 200,-246 200,-227 283,-227 283,-246"/>
<text text-anchor="middle" x="241.5" y="-234" font-family="Helvetica,sans-Serif" font-size="10.00">event_weight</text>
</a>
</g>
</g>
<!-- Node2 -->
<g id="Node000002" class="node">
<title>Node2</title>
<g id="a_Node000002"><a xlink:href="classgraph__tops.html#aeeb26c4ab2ef88d0b3799205efc90efc" target="_top" xlink:title="Compiles the event into a graph.">
<polygon fill="white" stroke="#666666" points="154.5,-484 9.5,-484 9.5,-465 154.5,-465 154.5,-484"/>
<text text-anchor="middle" x="82" y="-472" font-family="Helvetica,sans-Serif" font-size="10.00">graph_tops::CompileEvent</text>
</a>
</g>
</g>
<!-- Node1&#45;&gt;Node2 -->
<g id="edge1_Node000001_Node000002" class="edge">
<title>Node1&#45;&gt;Node2</title>
<g id="a_edge1_Node000001_Node000002"><a xlink:title=" ">
<path fill="none" stroke="#63b8ff" d="M239.76,-256.28C237.02,-299.53 224.16,-402.94 164,-456.5 160.23,-459.85 155.98,-462.62 151.45,-464.91"/>
<polygon fill="#63b8ff" stroke="#63b8ff" points="243.26,-256.37 240.28,-246.2 236.27,-256.01 243.26,-256.37"/>
</a>
</g>
</g>
<!-- Node3 -->
<g id="Node000003" class="node">
<title>Node3</title>
<g id="a_Node000003"><a xlink:href="classgraph__children.html#af069fe630b6bbf6ffacca8243761e829" target="_top" xlink:title="Compiles the event into a graph.">
<polygon fill="white" stroke="#666666" points="163.5,-447 0.5,-447 0.5,-428 163.5,-428 163.5,-447"/>
<text text-anchor="middle" x="82" y="-435" font-family="Helvetica,sans-Serif" font-size="10.00">graph_children::CompileEvent</text>
</a>
</g>
</g>
<!-- Node1&#45;&gt;Node3 -->
<g id="edge2_Node000001_Node000003" class="edge">
<title>Node1&#45;&gt;Node3</title>
<g id="a_edge2_Node000001_Node000003"><a xlink:title=" ">
<path fill="none" stroke="#63b8ff" d="M238.06,-256.37C232.35,-294.01 214.53,-375.79 164,-418.5 159.48,-422.32 154.32,-425.41 148.86,-427.89"/>
<polygon fill="#63b8ff" stroke="#63b8ff" points="241.57,-256.58 239.47,-246.19 234.63,-255.62 241.57,-256.58"/>
</a>
</g>
</g>
<!-- Node4 -->
<g id="Node000004" class="node">
<title>Node4</title>
<g id="a_Node000004"><a xlink:href="classgraph__truthjets.html#ad64c5a15f0406d8a6c9705d50934b81f" target="_top" xlink:title="Compiles the event into a graph.">
<polygon fill="white" stroke="#666666" points="150.5,-409.5 13.5,-409.5 13.5,-379.5 150.5,-379.5 150.5,-409.5"/>
<text text-anchor="start" x="21.5" y="-397.5" font-family="Helvetica,sans-Serif" font-size="10.00">graph_truthjets::Compile</text>
<text text-anchor="middle" x="82" y="-386.5" font-family="Helvetica,sans-Serif" font-size="10.00">Event</text>
</a>
</g>
</g>
<!-- Node1&#45;&gt;Node4 -->
<g id="edge3_Node000001_Node000004" class="edge">
<title>Node1&#45;&gt;Node4</title>
<g id="a_edge3_Node000001_Node000004"><a xlink:title=" ">
<path fill="none" stroke="#63b8ff" d="M234.56,-256.13C224.7,-285.4 202.17,-340.26 164,-370.5 159.63,-373.96 154.78,-376.92 149.67,-379.46"/>
<polygon fill="#63b8ff" stroke="#63b8ff" points="238,-256.87 237.73,-246.28 231.34,-254.73 238,-256.87"/>
</a>
</g>
</g>
<!-- Node5 -->
<g id="Node000005" class="node">
<title>Node5</title>
<g id="a_Node000005"><a xlink:href="classgraph__truthjets__nonu.html#add03a6d564186c150f7c907737b77eeb" target="_top" xlink:title="Compiles the event into a graph.">
<polygon fill="white" stroke="#666666" points="142,-361.5 22,-361.5 22,-331.5 142,-331.5 142,-361.5"/>
<text text-anchor="start" x="30" y="-349.5" font-family="Helvetica,sans-Serif" font-size="10.00">graph_truthjets_nonu</text>
<text text-anchor="middle" x="82" y="-338.5" font-family="Helvetica,sans-Serif" font-size="10.00">::CompileEvent</text>
</a>
</g>
</g>
<!-- Node1&#45;&gt;Node5 -->
<g id="edge4_Node000001_Node000005" class="edge">
<title>Node1&#45;&gt;Node5</title>
<g id="a_edge4_Node000001_Node000005"><a xlink:title=" ">
<path fill="none" stroke="#63b8ff" d="M228.92,-254.67C215.57,-274.2 191.83,-304.82 164,-322.5 157.31,-326.75 149.85,-330.27 142.22,-333.19"/>
<polygon fill="#63b8ff" stroke="#63b8ff" points="232.01,-256.35 234.62,-246.08 226.18,-252.48 232.01,-256.35"/>
</a>
</g>
</g>
<!-- Node6 -->
<g id="Node000006" class="node">
<title>Node6</title>
<g id="a_Node000006"><a xlink:href="classgraph__jets.html#a568114127973b28c968493e79ca67cd7" target="_top" xlink:title="Compiles the event into a graph.">
<polygon fill="white" stroke="#666666" points="153,-313 11,-313 11,-294 153,-294 153,-313"/>
<text text-anchor="middle" x="82" y="-301" font-family="Helvetica,sans-Serif" font-size="10.00">graph_jets::CompileEvent</text>
</a>
</g>
</g>
<!-- Node1&#45;&gt;Node6 -->
<g id="edge5_Node000001_Node000006" class="edge">
<title>Node1&#45;&gt;Node6</title>
<g id="a_edge5_Node000001_Node000006"><a xlink:title=" ">
<path fill="none" stroke="#63b8ff" d="M219.81,-252.13C204.97,-262.65 184.13,-276.1 164,-284.5 154.94,-288.28 144.97,-291.4 135.23,-293.93"/>
<polygon fill="#63b8ff" stroke="#63b8ff" points="222.18,-254.73 228.21,-246.02 218.07,-249.07 222.18,-254.73"/>
</a>
</g>
</g>
<!-- Node7 -->
<g id="Node000007" class="node">
<title>Node7</title>
<g id="a_Node000007"><a xlink:href="classgraph__jets__nonu.html#a3d76d9b5885af9d1ef9c2a150acc1300" target="_top" xlink:title="Compiles the event into a graph.">
<polygon fill="white" stroke="#666666" points="153.5,-275.5 10.5,-275.5 10.5,-245.5 153.5,-245.5 153.5,-275.5"/>
<text text-anchor="start" x="18.5" y="-263.5" font-family="Helvetica,sans-Serif" font-size="10.00">graph_jets_nonu::Compile</text>
<text text-anchor="middle" x="82" y="-252.5" font-family="Helvetica,sans-Serif" font-size="10.00">Event</text>
</a>
</g>
</g>
<!-- Node1&#45;&gt;Node7 -->
<g id="edge6_Node000001_Node000007" class="edge">
<title>Node1&#45;&gt;Node7</title>
<g id="a_edge6_Node000001_Node000007"><a xlink:title=" ">
<path fill="none" stroke="#63b8ff" d="M190.03,-244.19C178.45,-245.95 165.93,-247.86 153.67,-249.73"/>
<polygon fill="#63b8ff" stroke="#63b8ff" points="190.58,-247.65 199.94,-242.68 189.53,-240.73 190.58,-247.65"/>
</a>
</g>
</g>
<!-- Node8 -->
<g id="Node000008" class="node">
<title>Node8</title>
<g id="a_Node000008"><a xlink:href="classgraph__jets__detector__lep.html#a8da8c93bcdece302cb06b34e6b9db801" target="_top" xlink:title="Compiles the event into a graph.">
<polygon fill="white" stroke="#666666" points="138.5,-227.5 25.5,-227.5 25.5,-197.5 138.5,-197.5 138.5,-227.5"/>
<text text-anchor="start" x="33.5" y="-215.5" font-family="Helvetica,sans-Serif" font-size="10.00">graph_jets_detector</text>
<text text-anchor="middle" x="82" y="-204.5" font-family="Helvetica,sans-Serif" font-size="10.00">_lep::CompileEvent</text>
</a>
</g>
</g>
<!-- Node1&#45;&gt;Node8 -->
<g id="edge7_Node000001_Node000008" class="edge">
<title>Node1&#45;&gt;Node8</title>
<g id="a_edge7_Node000001_Node000008"><a xlink:title=" ">
<path fill="none" stroke="#63b8ff" d="M190,-228.8C173.6,-226.31 155.31,-223.52 138.56,-220.97"/>
<polygon fill="#63b8ff" stroke="#63b8ff" points="189.53,-232.27 199.94,-230.32 190.58,-225.35 189.53,-232.27"/>
</a>
</g>
</g>
<!-- Node9 -->
<g id="Node000009" class="node">
<title>Node9</title>
<g id="a_Node000009"><a xlink:href="classgraph__detector.html#a9524462481e7c9e42df5cf73f999737e" target="_top" xlink:title="Compiles the event into a graph.">
<polygon fill="white" stroke="#666666" points="164,-179 0,-179 0,-160 164,-160 164,-179"/>
<text text-anchor="middle" x="82" y="-167" font-family="Helvetica,sans-Serif" font-size="10.00">graph_detector::CompileEvent</text>
</a>
</g>
</g>
<!-- Node1&#45;&gt;Node9 -->
<g id="edge8_Node000001_Node000009" class="edge">
<title>Node1&#45;&gt;Node9</title>
<g id="a_edge8_Node000001_Node000009"><a xlink:title=" ">
<path fill="none" stroke="#63b8ff" d="M219.81,-220.87C204.97,-210.35 184.13,-196.9 164,-188.5 154.94,-184.72 144.97,-181.6 135.23,-179.07"/>
<polygon fill="#63b8ff" stroke="#63b8ff" points="218.07,-223.93 228.21,-226.98 222.18,-218.27 218.07,-223.93"/>
</a>
</g>
</g>
<!-- Node10 -->
<g id="Node000010" class="node">
<title>Node10</title>
<g id="a_Node000010"><a xlink:href="classgraph__template.html#adb85f599e4b4fea182f9d26ca0b7f347" target="_top" xlink:title=" ">
<polygon fill="white" stroke="#666666" points="143,-141.5 21,-141.5 21,-111.5 143,-111.5 143,-141.5"/>
<text text-anchor="start" x="29" y="-129.5" font-family="Helvetica,sans-Serif" font-size="10.00">graph_template::data</text>
<text text-anchor="middle" x="82" y="-118.5" font-family="Helvetica,sans-Serif" font-size="10.00">_export</text>
</a>
</g>
</g>
<!-- Node1&#45;&gt;Node10 -->
<g id="edge9_Node000001_Node000010" class="edge">
<title>Node1&#45;&gt;Node10</title>
<g id="a_edge9_Node000001_Node000010"><a xlink:title=" ">
<path fill="none" stroke="#63b8ff" d="M228.63,-218.3C215.16,-199.04 191.46,-169.05 164,-151.5 157.55,-147.38 150.38,-143.9 143.05,-140.97"/>
<polygon fill="#63b8ff" stroke="#63b8ff" points="225.88,-220.48 234.39,-226.79 231.67,-216.55 225.88,-220.48"/>
</a>
</g>
</g>
<!-- Node11 -->
<g id="Node000011" class="node">
<title>Node11</title>
<g id="a_Node000011"><a xlink:href="classdataloader.html#a04c94d9be735c32b80b6599c6bd993b4" target="_top" xlink:title=" ">
<polygon fill="white" stroke="#666666" points="152.5,-93 11.5,-93 11.5,-74 152.5,-74 152.5,-93"/>
<text text-anchor="middle" x="82" y="-81" font-family="Helvetica,sans-Serif" font-size="10.00">dataloader::dump_graphs</text>
</a>
</g>
</g>
<!-- Node1&#45;&gt;Node11 -->
<g id="edge10_Node000001_Node000011" class="edge">
<title>Node1&#45;&gt;Node11</title>
<g id="a_edge10_Node000001_Node000011"><a xlink:title=" ">
<path fill="none" stroke="#63b8ff" d="M234.92,-217.02C225.41,-187.49 203.21,-131.77 164,-102.5 158.79,-98.61 152.91,-95.5 146.76,-93.02"/>
<polygon fill="#63b8ff" stroke="#63b8ff" points="231.68,-218.4 237.95,-226.94 238.37,-216.35 231.68,-218.4"/>
</a>
</g>
</g>
<!-- Node12 -->
<g id="Node000012" class="node">
<title>Node12</title>
<g id="a_Node000012"><a xlink:href="classio.html#a0436554bbb721689f800d2e3a82ee70a" target="_top" xlink:title="HDF5 member type creation for graph_hdf5_w struct.">
<polygon fill="white" stroke="#666666" points="118.5,-56 45.5,-56 45.5,-37 118.5,-37 118.5,-56"/>
<text text-anchor="middle" x="82" y="-44" font-family="Helvetica,sans-Serif" font-size="10.00">io::member</text>
</a>
</g>
</g>
<!-- Node1&#45;&gt;Node12 -->
<g id="edge11_Node000001_Node000012" class="edge">
<title>Node1&#45;&gt;Node12</title>
<g id="a_edge11_Node000001_Node000012"><a xlink:title=" ">
<path fill="none" stroke="#63b8ff" d="M237.5,-216.84C230.97,-181.01 211.97,-105.12 164,-65.5 151.41,-55.11 134.16,-50.19 118.81,-47.93"/>
<polygon fill="#63b8ff" stroke="#63b8ff" points="234.1,-217.69 239.21,-226.97 241,-216.53 234.1,-217.69"/>
</a>
</g>
</g>
<!-- Node13 -->
<g id="Node000013" class="node">
<title>Node13</title>
<g id="a_Node000013"><a xlink:href="classregions.html#a238dd04a8c824c8db401e41d36cd428b" target="_top" xlink:title="Alternative selection strategy method.">
<polygon fill="white" stroke="#666666" points="131.5,-19 32.5,-19 32.5,0 131.5,0 131.5,-19"/>
<text text-anchor="middle" x="82" y="-7" font-family="Helvetica,sans-Serif" font-size="10.00">regions::strategy</text>
</a>
</g>
</g>
<!-- Node1&#45;&gt;Node13 -->
<g id="edge12_Node000001_Node000013" class="edge">
<title>Node1&#45;&gt;Node13</title>
<g id="a_edge12_Node000001_Node000013"><a xlink:title=" ">
<path fill="none" stroke="#63b8ff" d="M239.25,-216.73C235.53,-175.25 220.89,-78.84 164,-28.5 155.02,-20.56 143.35,-15.77 131.68,-12.92"/>
<polygon fill="#63b8ff" stroke="#63b8ff" points="235.78,-217.19 240.04,-226.89 242.76,-216.65 235.78,-217.19"/>
</a>
</g>
</g>
</g>
</svg>
