<?xml version="1.0" encoding="UTF-8" standalone="no"?>
<!DOCTYPE svg PUBLIC "-//W3C//DTD SVG 1.1//EN"
 "http://www.w3.org/Graphics/SVG/1.1/DTD/svg11.dtd">
<!-- Generated by graphviz version 2.43.0 (0)
 -->
<!-- Title: num_leps Pages: 1 -->
<svg width="468pt" height="272pt"
 viewBox="0.00 0.00 468.00 271.50" xmlns="http://www.w3.org/2000/svg" xmlns:xlink="http://www.w3.org/1999/xlink">

<svg id="main" version="1.1" xmlns="http://www.w3.org/2000/svg" xmlns:xlink="http://www.w3.org/1999/xlink" xml:space="preserve" onload="init(evt)">
<style type="text/css"><![CDATA[
.node, .edge {opacity: 0.7;}
.node.selected, .edge.selected {opacity: 1;}
.edge:hover path { stroke: red; }
.edge:hover polygon { stroke: red; fill: red; }
]]></style>
<script type="application/ecmascript" xlink:href="svg.min.js"/>
<svg id="graph" class="graph">
<g id="graph0" class="graph" transform="scale(1 1) rotate(0) translate(4 267.5)">
<title>num_leps</title>
<!-- Node1 -->
<g id="Node000001" class="node">
<title>Node1</title>
<g id="a_Node000001"><a xlink:title=" ">
<polygon fill="#999999" stroke="#666666" points="460,-129 396,-129 396,-110 460,-110 460,-129"/>
<text text-anchor="middle" x="428" y="-117" font-family="Helvetica,sans-Serif" font-size="10.00">num_leps</text>
</a>
</g>
</g>
<!-- Node2 -->
<g id="Node000002" class="node">
<title>Node2</title>
<g id="a_Node000002"><a xlink:href="classgraph__jets__detector__lep.html#a8da8c93bcdece302cb06b34e6b9db801" target="_top" xlink:title="Compiles the event into a graph.">
<polygon fill="white" stroke="#666666" points="334.5,-263.5 221.5,-263.5 221.5,-233.5 334.5,-233.5 334.5,-263.5"/>
<text text-anchor="start" x="229.5" y="-251.5" font-family="Helvetica,sans-Serif" font-size="10.00">graph_jets_detector</text>
<text text-anchor="middle" x="278" y="-240.5" font-family="Helvetica,sans-Serif" font-size="10.00">_lep::CompileEvent</text>
</a>
</g>
</g>
<!-- Node1&#45;&gt;Node2 -->
<g id="edge1_Node000001_Node000002" class="edge">
<title>Node1&#45;&gt;Node2</title>
<g id="a_edge1_Node000001_Node000002"><a xlink:title=" ">
<path fill="none" stroke="#63b8ff" d="M419.77,-138.57C409.85,-162.2 389.79,-202.06 360,-224.5 352.5,-230.15 343.69,-234.47 334.69,-237.78"/>
<polygon fill="#63b8ff" stroke="#63b8ff" points="423.03,-139.84 423.51,-129.26 416.54,-137.24 423.03,-139.84"/>
</a>
</g>
</g>
<!-- Node3 -->
<g id="Node000003" class="node">
<title>Node3</title>
<g id="a_Node000003"><a xlink:href="classgraph__detector.html#a9524462481e7c9e42df5cf73f999737e" target="_top" xlink:title="Compiles the event into a graph.">
<polygon fill="white" stroke="#666666" points="360,-215 196,-215 196,-196 360,-196 360,-215"/>
<text text-anchor="middle" x="278" y="-203" font-family="Helvetica,sans-Serif" font-size="10.00">graph_detector::CompileEvent</text>
</a>
</g>
</g>
<!-- Node1&#45;&gt;Node3 -->
<g id="edge2_Node000001_Node000003" class="edge">
<title>Node1&#45;&gt;Node3</title>
<g id="a_edge2_Node000001_Node000003"><a xlink:title=" ">
<path fill="none" stroke="#63b8ff" d="M414.16,-137.45C401.99,-153.09 382.3,-175.15 360,-187.5 353.82,-190.92 347.05,-193.69 340.12,-195.93"/>
<polygon fill="#63b8ff" stroke="#63b8ff" points="417.21,-139.21 420.41,-129.11 411.61,-135.01 417.21,-139.21"/>
</a>
</g>
</g>
<!-- Node4 -->
<g id="Node000004" class="node">
<title>Node4</title>
<g id="a_Node000004"><a xlink:href="classgrift.html#a72f7575fbd1d744d4f9053e5b8b7ee38" target="_top" xlink:title="Virtual forward pass method for a single graph.">
<polygon fill="white" stroke="#666666" points="318,-160 238,-160 238,-141 318,-141 318,-160"/>
<text text-anchor="middle" x="278" y="-148" font-family="Helvetica,sans-Serif" font-size="10.00">grift::forward</text>
</a>
</g>
</g>
<!-- Node1&#45;&gt;Node4 -->
<g id="edge3_Node000001_Node000004" class="edge">
<title>Node1&#45;&gt;Node4</title>
<g id="a_edge3_Node000001_Node000004"><a xlink:title=" ">
<path fill="none" stroke="#63b8ff" d="M385.98,-128.09C364.8,-132.53 339.08,-137.92 318.17,-142.29"/>
<polygon fill="#63b8ff" stroke="#63b8ff" points="386.9,-131.47 395.97,-126 385.47,-124.62 386.9,-131.47"/>
</a>
</g>
</g>
<!-- Node6 -->
<g id="Node000006" class="node">
<title>Node6</title>
<g id="a_Node000006"><a xlink:href="classrecursivegraphneuralnetwork.html#a4b09bc8de8d9ecd0b4ff1ffa94deea98" target="_top" xlink:title="Virtual forward pass method for a single graph.">
<polygon fill="white" stroke="#666666" points="358,-104.5 198,-104.5 198,-74.5 358,-74.5 358,-104.5"/>
<text text-anchor="start" x="206" y="-92.5" font-family="Helvetica,sans-Serif" font-size="10.00">recursivegraphneuralnetwork</text>
<text text-anchor="middle" x="278" y="-81.5" font-family="Helvetica,sans-Serif" font-size="10.00">::forward</text>
</a>
</g>
</g>
<!-- Node1&#45;&gt;Node6 -->
<g id="edge7_Node000001_Node000006" class="edge">
<title>Node1&#45;&gt;Node6</title>
<g id="a_edge7_Node000001_Node000006"><a xlink:title=" ">
<path fill="none" stroke="#63b8ff" d="M386.13,-111.22C375.9,-109.14 364.59,-106.85 353.28,-104.56"/>
<polygon fill="#63b8ff" stroke="#63b8ff" points="385.48,-114.65 395.97,-113.21 386.87,-107.79 385.48,-114.65"/>
</a>
</g>
</g>
<!-- Node8 -->
<g id="Node000008" class="node">
<title>Node8</title>
<g id="a_Node000008"><a xlink:href="classcombinatorial.html#a6d222547e0dce9eea6ca128cdba5a01f" target="_top" xlink:title="The main selection method to override.">
<polygon fill="white" stroke="#666666" points="345,-56 211,-56 211,-37 345,-37 345,-56"/>
<text text-anchor="middle" x="278" y="-44" font-family="Helvetica,sans-Serif" font-size="10.00">combinatorial::selection</text>
</a>
</g>
</g>
<!-- Node1&#45;&gt;Node8 -->
<g id="edge11_Node000001_Node000008" class="edge">
<title>Node1&#45;&gt;Node8</title>
<g id="a_edge11_Node000001_Node000008"><a xlink:title=" ">
<path fill="none" stroke="#63b8ff" d="M410.51,-102.64C397.78,-90.57 379.16,-74.86 360,-65.5 352.08,-61.63 343.34,-58.53 334.61,-56.05"/>
<polygon fill="#63b8ff" stroke="#63b8ff" points="408.38,-105.45 417.97,-109.94 413.27,-100.44 408.38,-105.45"/>
</a>
</g>
</g>
<!-- Node9 -->
<g id="Node000009" class="node">
<title>Node9</title>
<g id="a_Node000009"><a xlink:href="classvalidation.html#a0b29bd038e3900496cc2de454fc52615" target="_top" xlink:title="The main selection method to override.">
<polygon fill="white" stroke="#666666" points="336,-19 220,-19 220,0 336,0 336,-19"/>
<text text-anchor="middle" x="278" y="-7" font-family="Helvetica,sans-Serif" font-size="10.00">validation::selection</text>
</a>
</g>
</g>
<!-- Node1&#45;&gt;Node9 -->
<g id="edge12_Node000001_Node000009" class="edge">
<title>Node1&#45;&gt;Node9</title>
<g id="a_edge12_Node000001_Node000009"><a xlink:title=" ">
<path fill="none" stroke="#63b8ff" d="M418.45,-100.65C407.84,-79.46 387.7,-45.65 360,-27.5 352.77,-22.76 344.48,-19.26 336.02,-16.67"/>
<polygon fill="#63b8ff" stroke="#63b8ff" points="415.42,-102.41 422.89,-109.92 421.73,-99.38 415.42,-102.41"/>
</a>
</g>
</g>
<!-- Node4&#45;&gt;Node4 -->
<g id="edge4_Node000004_Node000004" class="edge">
<title>Node4&#45;&gt;Node4</title>
<g id="a_edge4_Node000004_Node000004"><a xlink:title=" ">
<path fill="none" stroke="#63b8ff" d="M306,-168.82C304.83,-174.01 295.5,-178 278,-178 251.34,-178 243.63,-168.73 254.88,-160.08"/>
<polygon fill="#63b8ff" stroke="#63b8ff" points="309.05,-167.11 301.12,-160.08 302.94,-170.52 309.05,-167.11"/>
</a>
</g>
</g>
<!-- Node5 -->
<g id="Node000005" class="node">
<title>Node5</title>
<g id="a_Node000005"><a xlink:href="classgrift.html#ad610edcd0cab14b57197a846ab8a8caf" target="_top" xlink:title=" ">
<polygon fill="white" stroke="#666666" points="123,-160 37,-160 37,-141 123,-141 123,-160"/>
<text text-anchor="middle" x="80" y="-148" font-family="Helvetica,sans-Serif" font-size="10.00">grift::message</text>
</a>
</g>
</g>
<!-- Node4&#45;&gt;Node5 -->
<g id="edge5_Node000004_Node000005" class="edge">
<title>Node4&#45;&gt;Node5</title>
<g id="a_edge5_Node000004_Node000005"><a xlink:title=" ">
<path fill="none" stroke="#63b8ff" d="M227.7,-144.55C195.49,-143.39 153.86,-143.49 123.18,-144.84"/>
<polygon fill="#63b8ff" stroke="#63b8ff" points="227.67,-148.06 237.81,-144.97 227.96,-141.06 227.67,-148.06"/>
</a>
</g>
</g>
<!-- Node5&#45;&gt;Node4 -->
<g id="edge6_Node000005_Node000004" class="edge">
<title>Node5&#45;&gt;Node4</title>
<g id="a_edge6_Node000005_Node000004"><a xlink:title=" ">
<path fill="none" stroke="#63b8ff" d="M133.5,-156.56C166.31,-157.63 207.87,-157.46 237.81,-156.03"/>
<polygon fill="#63b8ff" stroke="#63b8ff" points="133.3,-153.05 123.18,-156.16 133.04,-160.04 133.3,-153.05"/>
</a>
</g>
</g>
<!-- Node6&#45;&gt;Node6 -->
<g id="edge8_Node000006_Node000006" class="edge">
<title>Node6&#45;&gt;Node6</title>
<g id="a_edge8_Node000006_Node000006"><a xlink:title=" ">
<path fill="none" stroke="#63b8ff" d="M304.26,-115.1C300.67,-119.47 291.92,-122.5 278,-122.5 254.56,-122.5 245.77,-113.91 251.63,-104.78"/>
<polygon fill="#63b8ff" stroke="#63b8ff" points="307.76,-114.81 304.37,-104.78 300.76,-114.74 307.76,-114.81"/>
</a>
</g>
</g>
<!-- Node7 -->
<g id="Node000007" class="node">
<title>Node7</title>
<g id="a_Node000007"><a xlink:href="classrecursivegraphneuralnetwork.html#a7c83216c5899b14dcc03ccf368209ee1" target="_top" xlink:title=" ">
<polygon fill="white" stroke="#666666" points="160,-104.5 0,-104.5 0,-74.5 160,-74.5 160,-104.5"/>
<text text-anchor="start" x="8" y="-92.5" font-family="Helvetica,sans-Serif" font-size="10.00">recursivegraphneuralnetwork</text>
<text text-anchor="middle" x="80" y="-81.5" font-family="Helvetica,sans-Serif" font-size="10.00">::message</text>
</a>
</g>
</g>
<!-- Node6&#45;&gt;Node7 -->
<g id="edge9_Node000006_Node000007" class="edge">
<title>Node6&#45;&gt;Node7</title>
<g id="a_edge9_Node000006_Node000007"><a xlink:title=" ">
<path fill="none" stroke="#63b8ff" d="M187.57,-82.77C178.42,-82.72 169.16,-82.75 160.13,-82.86"/>
<polygon fill="#63b8ff" stroke="#63b8ff" points="187.81,-86.28 197.84,-82.86 187.88,-79.28 187.81,-86.28"/>
</a>
</g>
</g>
<!-- Node7&#45;&gt;Node6 -->
<g id="edge10_Node000007_Node000006" class="edge">
<title>Node7&#45;&gt;Node6</title>
<g id="a_edge10_Node000007_Node000006"><a xlink:title=" ">
<path fill="none" stroke="#63b8ff" d="M170.41,-96.23C179.56,-96.28 188.81,-96.25 197.84,-96.14"/>
<polygon fill="#63b8ff" stroke="#63b8ff" points="170.16,-92.72 160.13,-96.14 170.1,-99.72 170.16,-92.72"/>
</a>
</g>
</g>
</g>
</svg>
</svg>

<style type='text/css'>
<![CDATA[
[data-mouse-over-selected='false'] { opacity: 0.7; }
[data-mouse-over-selected='true']  { opacity: 1.0; }
]]>
</style>
<script type="application/ecmascript"><![CDATA[
document.addEventListener('DOMContentLoaded', (event) => {
  highlightEdges();
  highlightAdjacentNodes();
});
]]></script>
</svg>
