<?xml version="1.0" encoding="UTF-8" standalone="no"?>
<!DOCTYPE svg PUBLIC "-//W3C//DTD SVG 1.1//EN"
 "http://www.w3.org/Graphics/SVG/1.1/DTD/svg11.dtd">
<!-- Generated by graphviz version 2.43.0 (0)
 -->
<!-- Title: num_jets Pages: 1 -->
<svg width="611pt" height="473pt"
 viewBox="0.00 0.00 611.00 472.50" xmlns="http://www.w3.org/2000/svg" xmlns:xlink="http://www.w3.org/1999/xlink">
<g id="graph0" class="graph" transform="scale(1 1) rotate(0) translate(4 468.5)">
<title>num_jets</title>
<!-- Node1 -->
<g id="Node000001" class="node">
<title>Node1</title>
<g id="a_Node000001"><a xlink:title=" ">
<polygon fill="#999999" stroke="#666666" points="603,-254.5 541,-254.5 541,-235.5 603,-235.5 603,-254.5"/>
<text text-anchor="middle" x="572" y="-242.5" font-family="Helvetica,sans-Serif" font-size="10.00">num_jets</text>
</a>
</g>
</g>
<!-- Node2 -->
<g id="Node000002" class="node">
<title>Node2</title>
<g id="a_Node000002"><a xlink:href="classgraph__jets.html#a568114127973b28c968493e79ca67cd7" target="_top" xlink:title="Compiles the event into a graph.">
<polygon fill="white" stroke="#666666" points="494,-464.5 352,-464.5 352,-445.5 494,-445.5 494,-464.5"/>
<text text-anchor="middle" x="423" y="-452.5" font-family="Helvetica,sans-Serif" font-size="10.00">graph_jets::CompileEvent</text>
</a>
</g>
</g>
<!-- Node1&#45;&gt;Node2 -->
<g id="edge1_Node000001_Node000002" class="edge">
<title>Node1&#45;&gt;Node2</title>
<g id="a_edge1_Node000001_Node000002"><a xlink:title=" ">
<path fill="none" stroke="#63b8ff" d="M570.18,-264.69C567.47,-303.54 555.73,-390.21 505,-436 500.82,-439.77 496.03,-442.84 490.92,-445.32"/>
<polygon fill="#63b8ff" stroke="#63b8ff" points="573.68,-264.86 570.75,-254.67 566.69,-264.46 573.68,-264.86"/>
</a>
</g>
</g>
<!-- Node3 -->
<g id="Node000003" class="node">
<title>Node3</title>
<g id="a_Node000003"><a xlink:href="classgraph__jets__nonu.html#a3d76d9b5885af9d1ef9c2a150acc1300" target="_top" xlink:title="Compiles the event into a graph.">
<polygon fill="white" stroke="#666666" points="494.5,-427 351.5,-427 351.5,-397 494.5,-397 494.5,-427"/>
<text text-anchor="start" x="359.5" y="-415" font-family="Helvetica,sans-Serif" font-size="10.00">graph_jets_nonu::Compile</text>
<text text-anchor="middle" x="423" y="-404" font-family="Helvetica,sans-Serif" font-size="10.00">Event</text>
</a>
</g>
</g>
<!-- Node1&#45;&gt;Node3 -->
<g id="edge2_Node000001_Node000003" class="edge">
<title>Node1&#45;&gt;Node3</title>
<g id="a_edge2_Node000001_Node000003"><a xlink:title=" ">
<path fill="none" stroke="#63b8ff" d="M567.34,-264.58C560.57,-295.38 543.12,-355.02 505,-388 501.01,-391.45 496.54,-394.41 491.8,-396.94"/>
<polygon fill="#63b8ff" stroke="#63b8ff" points="570.8,-265.14 569.38,-254.64 563.94,-263.74 570.8,-265.14"/>
</a>
</g>
</g>
<!-- Node4 -->
<g id="Node000004" class="node">
<title>Node4</title>
<g id="a_Node000004"><a xlink:href="classgraph__jets__detector__lep.html#a8da8c93bcdece302cb06b34e6b9db801" target="_top" xlink:title="Compiles the event into a graph.">
<polygon fill="white" stroke="#666666" points="479.5,-379 366.5,-379 366.5,-349 479.5,-349 479.5,-379"/>
<text text-anchor="start" x="374.5" y="-367" font-family="Helvetica,sans-Serif" font-size="10.00">graph_jets_detector</text>
<text text-anchor="middle" x="423" y="-356" font-family="Helvetica,sans-Serif" font-size="10.00">_lep::CompileEvent</text>
</a>
</g>
</g>
<!-- Node1&#45;&gt;Node4 -->
<g id="edge3_Node000001_Node000004" class="edge">
<title>Node1&#45;&gt;Node4</title>
<g id="a_edge3_Node000001_Node000004"><a xlink:title=" ">
<path fill="none" stroke="#63b8ff" d="M562.72,-263.82C552.3,-285.36 532.4,-320.2 505,-340 497.39,-345.5 488.53,-349.75 479.51,-353.03"/>
<polygon fill="#63b8ff" stroke="#63b8ff" points="565.92,-265.25 566.95,-254.7 559.57,-262.3 565.92,-265.25"/>
</a>
</g>
</g>
<!-- Node5 -->
<g id="Node000005" class="node">
<title>Node5</title>
<g id="a_Node000005"><a xlink:href="classgraph__detector.html#a9524462481e7c9e42df5cf73f999737e" target="_top" xlink:title="Compiles the event into a graph.">
<polygon fill="white" stroke="#666666" points="505,-330.5 341,-330.5 341,-311.5 505,-311.5 505,-330.5"/>
<text text-anchor="middle" x="423" y="-318.5" font-family="Helvetica,sans-Serif" font-size="10.00">graph_detector::CompileEvent</text>
</a>
</g>
</g>
<!-- Node1&#45;&gt;Node5 -->
<g id="edge4_Node000001_Node000005" class="edge">
<title>Node1&#45;&gt;Node5</title>
<g id="a_edge4_Node000001_Node000005"><a xlink:title=" ">
<path fill="none" stroke="#63b8ff" d="M553.65,-261.7C541.03,-273.05 523.07,-287.65 505,-297 493.28,-303.07 479.79,-307.84 467.22,-311.47"/>
<polygon fill="#63b8ff" stroke="#63b8ff" points="556.15,-264.16 561.12,-254.8 551.4,-259.02 556.15,-264.16"/>
</a>
</g>
</g>
<!-- Node6 -->
<g id="Node000006" class="node">
<title>Node6</title>
<g id="a_Node000006"><a xlink:href="classmatching.html#a6a20dfdb8f6fa5a23a6859d869040417" target="_top" xlink:title=" ">
<polygon fill="white" stroke="#666666" points="276.5,-216.5 173.5,-216.5 173.5,-197.5 276.5,-197.5 276.5,-216.5"/>
<text text-anchor="middle" x="225" y="-204.5" font-family="Helvetica,sans-Serif" font-size="10.00">matching::current</text>
</a>
</g>
</g>
<!-- Node1&#45;&gt;Node6 -->
<g id="edge5_Node000001_Node000006" class="edge">
<title>Node1&#45;&gt;Node6</title>
<g id="a_edge5_Node000001_Node000006"><a xlink:title=" ">
<path fill="none" stroke="#63b8ff" d="M530.62,-242.66C484.61,-239.77 407.22,-234.19 341,-226 319.81,-223.38 296.56,-219.69 276.54,-216.26"/>
<polygon fill="#63b8ff" stroke="#63b8ff" points="530.58,-246.17 540.78,-243.29 531.02,-239.18 530.58,-246.17"/>
</a>
</g>
</g>
<!-- Node8 -->
<g id="Node000008" class="node">
<title>Node8</title>
<g id="a_Node000008"><a xlink:href="classmatching.html#abc5f2130144ffdd25c3d8f7f933b23f2" target="_top" xlink:title=" ">
<polygon fill="white" stroke="#666666" points="471,-216.5 375,-216.5 375,-197.5 471,-197.5 471,-216.5"/>
<text text-anchor="middle" x="423" y="-204.5" font-family="Helvetica,sans-Serif" font-size="10.00">matching::dump</text>
</a>
</g>
</g>
<!-- Node1&#45;&gt;Node8 -->
<g id="edge7_Node000001_Node000008" class="edge">
<title>Node1&#45;&gt;Node8</title>
<g id="a_edge7_Node000001_Node000008"><a xlink:title=" ">
<path fill="none" stroke="#63b8ff" d="M530.93,-234.64C509.06,-228.99 482.18,-222.04 460.84,-216.52"/>
<polygon fill="#63b8ff" stroke="#63b8ff" points="530.34,-238.1 540.9,-237.22 532.09,-231.33 530.34,-238.1"/>
</a>
</g>
</g>
<!-- Node9 -->
<g id="Node000009" class="node">
<title>Node9</title>
<g id="a_Node000009"><a xlink:href="classmatching.html#a6925aacb40ca0e99f178d44959956fdb" target="_top" xlink:title=" ">
<polygon fill="white" stroke="#666666" points="292,-179.5 158,-179.5 158,-160.5 292,-160.5 292,-179.5"/>
<text text-anchor="middle" x="225" y="-167.5" font-family="Helvetica,sans-Serif" font-size="10.00">matching::experimental</text>
</a>
</g>
</g>
<!-- Node1&#45;&gt;Node9 -->
<g id="edge13_Node000001_Node000009" class="edge">
<title>Node1&#45;&gt;Node9</title>
<g id="a_edge13_Node000001_Node000009"><a xlink:title=" ">
<path fill="none" stroke="#63b8ff" d="M563.79,-225.82C554.21,-203.42 534.92,-167.45 505,-152 420.26,-108.23 301.23,-142.26 250.48,-160.44"/>
<polygon fill="#63b8ff" stroke="#63b8ff" points="560.64,-227.34 567.62,-235.31 567.13,-224.73 560.64,-227.34"/>
</a>
</g>
</g>
<!-- Node10 -->
<g id="Node000010" class="node">
<title>Node10</title>
<g id="a_Node000010"><a xlink:href="classmatching.html#a7c3eb589ac6ae85490aa698d73fe8b88" target="_top" xlink:title=" ">
<polygon fill="white" stroke="#666666" points="282.5,-253.5 167.5,-253.5 167.5,-234.5 282.5,-234.5 282.5,-253.5"/>
<text text-anchor="middle" x="225" y="-241.5" font-family="Helvetica,sans-Serif" font-size="10.00">matching::reference</text>
</a>
</g>
</g>
<!-- Node1&#45;&gt;Node10 -->
<g id="edge24_Node000001_Node000010" class="edge">
<title>Node1&#45;&gt;Node10</title>
<g id="a_edge24_Node000001_Node000010"><a xlink:title=" ">
<path fill="none" stroke="#63b8ff" d="M531.19,-254.84C522.6,-256.57 513.54,-258.1 505,-259 432.51,-266.6 413.74,-263.72 341,-259 321.91,-257.76 301.15,-255.38 282.6,-252.87"/>
<polygon fill="#63b8ff" stroke="#63b8ff" points="531.94,-258.26 540.98,-252.75 530.47,-251.42 531.94,-258.26"/>
</a>
</g>
</g>
<!-- Node11 -->
<g id="Node000011" class="node">
<title>Node11</title>
<g id="a_Node000011"><a xlink:href="classgrift.html#a72f7575fbd1d744d4f9053e5b8b7ee38" target="_top" xlink:title="Virtual forward pass method for a single graph.">
<polygon fill="white" stroke="#666666" points="463,-85.5 383,-85.5 383,-66.5 463,-66.5 463,-85.5"/>
<text text-anchor="middle" x="423" y="-73.5" font-family="Helvetica,sans-Serif" font-size="10.00">grift::forward</text>
</a>
</g>
</g>
<!-- Node1&#45;&gt;Node11 -->
<g id="edge14_Node000001_Node000011" class="edge">
<title>Node1&#45;&gt;Node11</title>
<g id="a_edge14_Node000001_Node000011"><a xlink:title=" ">
<path fill="none" stroke="#63b8ff" d="M565,-225.31C555.87,-198.19 536.21,-149.18 505,-118 490.21,-103.22 469.13,-92.52 452.19,-85.61"/>
<polygon fill="#63b8ff" stroke="#63b8ff" points="561.77,-226.72 568.17,-235.17 568.44,-224.58 561.77,-226.72"/>
</a>
</g>
</g>
<!-- Node13 -->
<g id="Node000013" class="node">
<title>Node13</title>
<g id="a_Node000013"><a xlink:href="classrecursivegraphneuralnetwork.html#a4b09bc8de8d9ecd0b4ff1ffa94deea98" target="_top" xlink:title="Virtual forward pass method for a single graph.">
<polygon fill="white" stroke="#666666" points="503,-30 343,-30 343,0 503,0 503,-30"/>
<text text-anchor="start" x="351" y="-18" font-family="Helvetica,sans-Serif" font-size="10.00">recursivegraphneuralnetwork</text>
<text text-anchor="middle" x="423" y="-7" font-family="Helvetica,sans-Serif" font-size="10.00">::forward</text>
</a>
</g>
</g>
<!-- Node1&#45;&gt;Node13 -->
<g id="edge18_Node000001_Node000013" class="edge">
<title>Node1&#45;&gt;Node13</title>
<g id="a_edge18_Node000001_Node000013"><a xlink:title=" ">
<path fill="none" stroke="#63b8ff" d="M568.79,-225.24C563.71,-188.33 548.17,-108.12 505,-58 494.61,-45.94 479.98,-36.74 466,-30"/>
<polygon fill="#63b8ff" stroke="#63b8ff" points="565.32,-225.74 570.04,-235.23 572.27,-224.87 565.32,-225.74"/>
</a>
</g>
</g>
<!-- Node15 -->
<g id="Node000015" class="node">
<title>Node15</title>
<g id="a_Node000015"><a xlink:href="classmatching.html#a04995b471b7aed459aeec59b3ea9a81b" target="_top" xlink:title=" ">
<polygon fill="white" stroke="#666666" points="482.5,-179.5 363.5,-179.5 363.5,-160.5 482.5,-160.5 482.5,-179.5"/>
<text text-anchor="middle" x="423" y="-167.5" font-family="Helvetica,sans-Serif" font-size="10.00">matching::match_obj</text>
</a>
</g>
</g>
<!-- Node1&#45;&gt;Node15 -->
<g id="edge22_Node000001_Node000015" class="edge">
<title>Node1&#45;&gt;Node15</title>
<g id="a_edge22_Node000001_Node000015"><a xlink:title=" ">
<path fill="none" stroke="#63b8ff" d="M555.27,-227.84C542.81,-215.26 524.33,-198.75 505,-189 497.39,-185.16 488.99,-182.09 480.56,-179.62"/>
<polygon fill="#63b8ff" stroke="#63b8ff" points="552.76,-230.28 562.21,-235.07 557.81,-225.43 552.76,-230.28"/>
</a>
</g>
</g>
<!-- Node7 -->
<g id="Node000007" class="node">
<title>Node7</title>
<g id="a_Node000007"><a xlink:href="classmatching.html#afbde71106947fe0f714151794c7f6259" target="_top" xlink:title="Alternative selection strategy method.">
<polygon fill="white" stroke="#666666" points="109,-216.5 0,-216.5 0,-197.5 109,-197.5 109,-216.5"/>
<text text-anchor="middle" x="54.5" y="-204.5" font-family="Helvetica,sans-Serif" font-size="10.00">matching::strategy</text>
</a>
</g>
</g>
<!-- Node6&#45;&gt;Node7 -->
<g id="edge6_Node000006_Node000007" class="edge">
<title>Node6&#45;&gt;Node7</title>
<g id="a_edge6_Node000006_Node000007"><a xlink:title=" ">
<path fill="none" stroke="#63b8ff" d="M163.25,-207C145.59,-207 126.44,-207 109.24,-207"/>
<polygon fill="#63b8ff" stroke="#63b8ff" points="163.44,-210.5 173.44,-207 163.44,-203.5 163.44,-210.5"/>
</a>
</g>
</g>
<!-- Node8&#45;&gt;Node6 -->
<g id="edge8_Node000008_Node000006" class="edge">
<title>Node8&#45;&gt;Node6</title>
<g id="a_edge8_Node000008_Node000006"><a xlink:title=" ">
<path fill="none" stroke="#63b8ff" d="M364.2,-207C336.47,-207 303.54,-207 276.78,-207"/>
<polygon fill="#63b8ff" stroke="#63b8ff" points="364.55,-210.5 374.55,-207 364.55,-203.5 364.55,-210.5"/>
</a>
</g>
</g>
<!-- Node8&#45;&gt;Node9 -->
<g id="edge9_Node000008_Node000009" class="edge">
<title>Node8&#45;&gt;Node9</title>
<g id="a_edge9_Node000008_Node000009"><a xlink:title=" ">
<path fill="none" stroke="#63b8ff" d="M364.53,-196.15C336.61,-190.88 303.36,-184.6 276.44,-179.52"/>
<polygon fill="#63b8ff" stroke="#63b8ff" points="364.08,-199.63 374.55,-198.04 365.38,-192.75 364.08,-199.63"/>
</a>
</g>
</g>
<!-- Node8&#45;&gt;Node10 -->
<g id="edge11_Node000008_Node000010" class="edge">
<title>Node8&#45;&gt;Node10</title>
<g id="a_edge11_Node000008_Node000010"><a xlink:title=" ">
<path fill="none" stroke="#63b8ff" d="M364.53,-217.85C336.61,-223.12 303.36,-229.4 276.44,-234.48"/>
<polygon fill="#63b8ff" stroke="#63b8ff" points="365.38,-221.25 374.55,-215.96 364.08,-214.37 365.38,-221.25"/>
</a>
</g>
</g>
<!-- Node9&#45;&gt;Node7 -->
<g id="edge10_Node000009_Node000007" class="edge">
<title>Node9&#45;&gt;Node7</title>
<g id="a_edge10_Node000009_Node000007"><a xlink:title=" ">
<path fill="none" stroke="#63b8ff" d="M170.63,-181.72C147.55,-186.79 120.89,-192.64 99.04,-197.44"/>
<polygon fill="#63b8ff" stroke="#63b8ff" points="171.59,-185.09 180.61,-179.53 170.09,-178.25 171.59,-185.09"/>
</a>
</g>
</g>
<!-- Node10&#45;&gt;Node7 -->
<g id="edge12_Node000010_Node000007" class="edge">
<title>Node10&#45;&gt;Node7</title>
<g id="a_edge12_Node000010_Node000007"><a xlink:title=" ">
<path fill="none" stroke="#63b8ff" d="M170.63,-232.28C147.55,-227.21 120.89,-221.36 99.04,-216.56"/>
<polygon fill="#63b8ff" stroke="#63b8ff" points="170.09,-235.75 180.61,-234.47 171.59,-228.91 170.09,-235.75"/>
</a>
</g>
</g>
<!-- Node11&#45;&gt;Node11 -->
<g id="edge15_Node000011_Node000011" class="edge">
<title>Node11&#45;&gt;Node11</title>
<g id="a_edge15_Node000011_Node000011"><a xlink:title=" ">
<path fill="none" stroke="#63b8ff" d="M450.53,-94.69C449.03,-99.7 439.85,-103.5 423,-103.5 396.7,-103.5 389.09,-94.23 400.19,-85.58"/>
<polygon fill="#63b8ff" stroke="#63b8ff" points="453.52,-92.85 445.81,-85.58 447.3,-96.07 453.52,-92.85"/>
</a>
</g>
</g>
<!-- Node12 -->
<g id="Node000012" class="node">
<title>Node12</title>
<g id="a_Node000012"><a xlink:href="classgrift.html#ad610edcd0cab14b57197a846ab8a8caf" target="_top" xlink:title=" ">
<polygon fill="white" stroke="#666666" points="268,-85.5 182,-85.5 182,-66.5 268,-66.5 268,-85.5"/>
<text text-anchor="middle" x="225" y="-73.5" font-family="Helvetica,sans-Serif" font-size="10.00">grift::message</text>
</a>
</g>
</g>
<!-- Node11&#45;&gt;Node12 -->
<g id="edge16_Node000011_Node000012" class="edge">
<title>Node11&#45;&gt;Node12</title>
<g id="a_edge16_Node000011_Node000012"><a xlink:title=" ">
<path fill="none" stroke="#63b8ff" d="M372.7,-70.05C340.49,-68.89 298.86,-68.99 268.18,-70.34"/>
<polygon fill="#63b8ff" stroke="#63b8ff" points="372.67,-73.56 382.81,-70.47 372.96,-66.56 372.67,-73.56"/>
</a>
</g>
</g>
<!-- Node12&#45;&gt;Node11 -->
<g id="edge17_Node000012_Node000011" class="edge">
<title>Node12&#45;&gt;Node11</title>
<g id="a_edge17_Node000012_Node000011"><a xlink:title=" ">
<path fill="none" stroke="#63b8ff" d="M278.5,-82.06C311.31,-83.13 352.87,-82.96 382.81,-81.53"/>
<polygon fill="#63b8ff" stroke="#63b8ff" points="278.3,-78.55 268.18,-81.66 278.04,-85.54 278.3,-78.55"/>
</a>
</g>
</g>
<!-- Node13&#45;&gt;Node13 -->
<g id="edge19_Node000013_Node000013" class="edge">
<title>Node13&#45;&gt;Node13</title>
<g id="a_edge19_Node000013_Node000013"><a xlink:title=" ">
<path fill="none" stroke="#63b8ff" d="M448.91,-40.6C445.37,-44.97 436.73,-48 423,-48 399.88,-48 391.2,-39.41 396.98,-30.28"/>
<polygon fill="#63b8ff" stroke="#63b8ff" points="452.41,-40.31 449.02,-30.28 445.41,-40.24 452.41,-40.31"/>
</a>
</g>
</g>
<!-- Node14 -->
<g id="Node000014" class="node">
<title>Node14</title>
<g id="a_Node000014"><a xlink:href="classrecursivegraphneuralnetwork.html#a7c83216c5899b14dcc03ccf368209ee1" target="_top" xlink:title=" ">
<polygon fill="white" stroke="#666666" points="305,-30 145,-30 145,0 305,0 305,-30"/>
<text text-anchor="start" x="153" y="-18" font-family="Helvetica,sans-Serif" font-size="10.00">recursivegraphneuralnetwork</text>
<text text-anchor="middle" x="225" y="-7" font-family="Helvetica,sans-Serif" font-size="10.00">::message</text>
</a>
</g>
</g>
<!-- Node13&#45;&gt;Node14 -->
<g id="edge20_Node000013_Node000014" class="edge">
<title>Node13&#45;&gt;Node14</title>
<g id="a_edge20_Node000013_Node000014"><a xlink:title=" ">
<path fill="none" stroke="#63b8ff" d="M332.57,-8.27C323.42,-8.22 314.16,-8.25 305.13,-8.36"/>
<polygon fill="#63b8ff" stroke="#63b8ff" points="332.81,-11.78 342.84,-8.36 332.88,-4.78 332.81,-11.78"/>
</a>
</g>
</g>
<!-- Node14&#45;&gt;Node13 -->
<g id="edge21_Node000014_Node000013" class="edge">
<title>Node14&#45;&gt;Node13</title>
<g id="a_edge21_Node000014_Node000013"><a xlink:title=" ">
<path fill="none" stroke="#63b8ff" d="M315.41,-21.73C324.56,-21.78 333.81,-21.75 342.84,-21.64"/>
<polygon fill="#63b8ff" stroke="#63b8ff" points="315.16,-18.22 305.13,-21.64 315.1,-25.22 315.16,-18.22"/>
</a>
</g>
</g>
<!-- Node15&#45;&gt;Node9 -->
<g id="edge23_Node000015_Node000009" class="edge">
<title>Node15&#45;&gt;Node9</title>
<g id="a_edge23_Node000015_Node000009"><a xlink:title=" ">
<path fill="none" stroke="#63b8ff" d="M353.26,-170C333.42,-170 311.82,-170 292.14,-170"/>
<polygon fill="#63b8ff" stroke="#63b8ff" points="353.46,-173.5 363.46,-170 353.46,-166.5 353.46,-173.5"/>
</a>
</g>
</g>
</g>
</svg>
