<?xml version="1.0" encoding="UTF-8" standalone="no"?>
<!DOCTYPE svg PUBLIC "-//W3C//DTD SVG 1.1//EN"
 "http://www.w3.org/Graphics/SVG/1.1/DTD/svg11.dtd">
<!-- Generated by graphviz version 2.43.0 (0)
 -->
<!-- Title: metrics::add_th1f_mass Pages: 1 -->
<svg width="610pt" height="156pt"
 viewBox="0.00 0.00 610.00 156.00" xmlns="http://www.w3.org/2000/svg" xmlns:xlink="http://www.w3.org/1999/xlink">
<g id="graph0" class="graph" transform="scale(1 1) rotate(0) translate(4 152)">
<title>metrics::add_th1f_mass</title>
<!-- Node1 -->
<g id="Node000001" class="node">
<title>Node1</title>
<g id="a_Node000001"><a xlink:title=" ">
<polygon fill="#999999" stroke="#666666" points="134,-89 0,-89 0,-70 134,-70 134,-89"/>
<text text-anchor="middle" x="67" y="-77" font-family="Helvetica,sans-Serif" font-size="10.00">metrics::add_th1f_mass</text>
</a>
</g>
</g>
<!-- Node2 -->
<g id="Node000002" class="node">
<title>Node2</title>
<g id="a_Node000002"><a xlink:href="namespacepyc_1_1graph.html#aa28a4253050413ec67a3313635a699ad" target="_top" xlink:title=" ">
<polygon fill="white" stroke="#666666" points="331,-111 170,-111 170,-92 331,-92 331,-111"/>
<text text-anchor="middle" x="250.5" y="-99" font-family="Helvetica,sans-Serif" font-size="10.00">pyc::graph::edge_aggregation</text>
</a>
</g>
</g>
<!-- Node1&#45;&gt;Node2 -->
<g id="edge1_Node000001_Node000002" class="edge">
<title>Node1&#45;&gt;Node2</title>
<g id="a_edge1_Node000001_Node000002"><a xlink:title=" ">
<path fill="none" stroke="#63b8ff" d="M134.04,-87.5C142.73,-88.56 151.75,-89.65 160.74,-90.74"/>
<polygon fill="#63b8ff" stroke="#63b8ff" points="160.51,-94.24 170.86,-91.97 161.35,-87.29 160.51,-94.24"/>
</a>
</g>
</g>
<!-- Node7 -->
<g id="Node000007" class="node">
<title>Node7</title>
<g id="a_Node000007"><a xlink:href="namespacepyc_1_1physics_1_1cartesian_1_1combined.html#adc80247c6622f7cb166a81fa45b7b51d" target="_top" xlink:title=" ">
<polygon fill="white" stroke="#666666" points="314.5,-73.5 186.5,-73.5 186.5,-43.5 314.5,-43.5 314.5,-73.5"/>
<text text-anchor="start" x="194.5" y="-61.5" font-family="Helvetica,sans-Serif" font-size="10.00">pyc::physics::cartesian</text>
<text text-anchor="middle" x="250.5" y="-50.5" font-family="Helvetica,sans-Serif" font-size="10.00">::combined::M</text>
</a>
</g>
</g>
<!-- Node1&#45;&gt;Node7 -->
<g id="edge6_Node000001_Node000007" class="edge">
<title>Node1&#45;&gt;Node7</title>
<g id="a_edge6_Node000001_Node000007"><a xlink:title=" ">
<path fill="none" stroke="#63b8ff" d="M134.04,-71.86C147.74,-70.27 162.26,-68.59 176.2,-66.98"/>
<polygon fill="#63b8ff" stroke="#63b8ff" points="176.7,-70.45 186.24,-65.82 175.9,-63.49 176.7,-70.45"/>
</a>
</g>
</g>
<!-- Node3 -->
<g id="Node000003" class="node">
<title>Node3</title>
<g id="a_Node000003"><a xlink:href="utils_8cxx.html#a123aed6d73594e07c6401a7a6c587808" target="_top" xlink:title=" ">
<polygon fill="white" stroke="#666666" points="473.5,-74 403.5,-74 403.5,-55 473.5,-55 473.5,-74"/>
<text text-anchor="middle" x="438.5" y="-62" font-family="Helvetica,sans-Serif" font-size="10.00">changedev</text>
</a>
</g>
</g>
<!-- Node2&#45;&gt;Node3 -->
<g id="edge2_Node000002_Node000003" class="edge">
<title>Node2&#45;&gt;Node3</title>
<g id="a_edge2_Node000002_Node000003"><a xlink:title=" ">
<path fill="none" stroke="#63b8ff" d="M299.4,-91.97C328.35,-86.21 365,-78.92 393.26,-73.3"/>
<polygon fill="#63b8ff" stroke="#63b8ff" points="394.14,-76.69 403.27,-71.31 392.78,-69.83 394.14,-76.69"/>
</a>
</g>
</g>
<!-- Node4 -->
<g id="Node000004" class="node">
<title>Node4</title>
<g id="a_Node000004"><a xlink:href="namespacegraph__.html#a7249186f32a05a8ff1601bff5deabdef" target="_top" xlink:title=" ">
<polygon fill="white" stroke="#666666" points="510,-148 367,-148 367,-129 510,-129 510,-148"/>
<text text-anchor="middle" x="438.5" y="-136" font-family="Helvetica,sans-Serif" font-size="10.00">graph_::edge_aggregation</text>
</a>
</g>
</g>
<!-- Node2&#45;&gt;Node4 -->
<g id="edge3_Node000002_Node000004" class="edge">
<title>Node2&#45;&gt;Node4</title>
<g id="a_edge3_Node000002_Node000004"><a xlink:title=" ">
<path fill="none" stroke="#63b8ff" d="M299.4,-111.03C323.82,-115.89 353.72,-121.83 379.44,-126.95"/>
<polygon fill="#63b8ff" stroke="#63b8ff" points="378.95,-130.42 389.44,-128.94 380.31,-123.56 378.95,-130.42"/>
</a>
</g>
</g>
<!-- Node6 -->
<g id="Node000006" class="node">
<title>Node6</title>
<g id="a_Node000006"><a xlink:href="namespacepyc.html#ab174cc51f6efef06bdb0ba47ec3fe3bf" target="_top" xlink:title=" ">
<polygon fill="white" stroke="#666666" points="485,-111 392,-111 392,-92 485,-92 485,-111"/>
<text text-anchor="middle" x="438.5" y="-99" font-family="Helvetica,sans-Serif" font-size="10.00">pyc::std_to_dict</text>
</a>
</g>
</g>
<!-- Node2&#45;&gt;Node6 -->
<g id="edge5_Node000002_Node000006" class="edge">
<title>Node2&#45;&gt;Node6</title>
<g id="a_edge5_Node000002_Node000006"><a xlink:title=" ">
<path fill="none" stroke="#63b8ff" d="M331.19,-101.5C348.18,-101.5 365.77,-101.5 381.63,-101.5"/>
<polygon fill="#63b8ff" stroke="#63b8ff" points="381.78,-105 391.78,-101.5 381.78,-98 381.78,-105"/>
</a>
</g>
</g>
<!-- Node5 -->
<g id="Node000005" class="node">
<title>Node5</title>
<g id="a_Node000005"><a xlink:href="utils_8cxx.html#a1652e53abd2299dd0f10e093948e4fa3" target="_top" xlink:title=" ">
<polygon fill="white" stroke="#666666" points="602,-148 546,-148 546,-129 602,-129 602,-148"/>
<text text-anchor="middle" x="574" y="-136" font-family="Helvetica,sans-Serif" font-size="10.00">MakeOp</text>
</a>
</g>
</g>
<!-- Node4&#45;&gt;Node5 -->
<g id="edge4_Node000004_Node000005" class="edge">
<title>Node4&#45;&gt;Node5</title>
<g id="a_edge4_Node000004_Node000005"><a xlink:title=" ">
<path fill="none" stroke="#63b8ff" d="M510.16,-138.5C519.03,-138.5 527.81,-138.5 535.87,-138.5"/>
<polygon fill="#63b8ff" stroke="#63b8ff" points="535.99,-142 545.99,-138.5 535.99,-135 535.99,-142"/>
</a>
</g>
</g>
<!-- Node7&#45;&gt;Node3 -->
<g id="edge7_Node000007_Node000003" class="edge">
<title>Node7&#45;&gt;Node3</title>
<g id="a_edge7_Node000007_Node000003"><a xlink:title=" ">
<path fill="none" stroke="#63b8ff" d="M314.73,-60.54C340.6,-61.37 369.91,-62.32 393.4,-63.08"/>
<polygon fill="#63b8ff" stroke="#63b8ff" points="393.31,-66.58 403.41,-63.4 393.53,-59.58 393.31,-66.58"/>
</a>
</g>
</g>
<!-- Node8 -->
<g id="Node000008" class="node">
<title>Node8</title>
<g id="a_Node000008"><a xlink:href="namespacephysics__.html#a64e8e583c57246f52851c0bff4137ebc" target="_top" xlink:title="Computes the invariant mass.">
<polygon fill="white" stroke="#666666" points="475.5,-19 401.5,-19 401.5,0 475.5,0 475.5,-19"/>
<text text-anchor="middle" x="438.5" y="-7" font-family="Helvetica,sans-Serif" font-size="10.00">physics_::M</text>
</a>
</g>
</g>
<!-- Node7&#45;&gt;Node8 -->
<g id="edge8_Node000007_Node000008" class="edge">
<title>Node7&#45;&gt;Node8</title>
<g id="a_edge8_Node000007_Node000008"><a xlink:title=" ">
<path fill="none" stroke="#63b8ff" d="M308.57,-43.47C335.13,-36.47 366.31,-28.25 391.36,-21.66"/>
<polygon fill="#63b8ff" stroke="#63b8ff" points="392.55,-24.96 401.33,-19.03 390.77,-18.19 392.55,-24.96"/>
</a>
</g>
</g>
<!-- Node8&#45;&gt;Node8 -->
<g id="edge10_Node000008_Node000008" class="edge">
<title>Node8&#45;&gt;Node8</title>
<g id="a_edge10_Node000008_Node000008"><a xlink:title=" ">
<path fill="none" stroke="#63b8ff" d="M417.85,-19.08C407.8,-27.73 414.68,-37 438.5,-37 453.76,-37 462.07,-33.2 463.43,-28.19"/>
<polygon fill="#63b8ff" stroke="#63b8ff" points="466.57,-26.65 459.15,-19.08 460.23,-29.62 466.57,-26.65"/>
</a>
</g>
</g>
<!-- Node9 -->
<g id="Node000009" class="node">
<title>Node9</title>
<g id="a_Node000009"><a xlink:href="utils_8cxx.html#a9c1cdc6384bce6bdc92ca917b3f656bf" target="_top" xlink:title=" ">
<polygon fill="white" stroke="#666666" points="599,-19 549,-19 549,0 599,0 599,-19"/>
<text text-anchor="middle" x="574" y="-7" font-family="Helvetica,sans-Serif" font-size="10.00">format</text>
</a>
</g>
</g>
<!-- Node8&#45;&gt;Node9 -->
<g id="edge9_Node000008_Node000009" class="edge">
<title>Node8&#45;&gt;Node9</title>
<g id="a_edge9_Node000008_Node000009"><a xlink:title=" ">
<path fill="none" stroke="#63b8ff" d="M475.63,-9.5C495.17,-9.5 519.19,-9.5 538.48,-9.5"/>
<polygon fill="#63b8ff" stroke="#63b8ff" points="538.66,-13 548.66,-9.5 538.66,-6 538.66,-13"/>
</a>
</g>
</g>
</g>
</svg>
