<?xml version="1.0" encoding="UTF-8" standalone="no"?>
<!DOCTYPE svg PUBLIC "-//W3C//DTD SVG 1.1//EN"
 "http://www.w3.org/Graphics/SVG/1.1/DTD/svg11.dtd">
<!-- Generated by graphviz version 2.43.0 (0)
 -->
<!-- Title: analysis::add_content Pages: 1 -->
<svg width="718pt" height="46pt"
 viewBox="0.00 0.00 718.00 46.00" xmlns="http://www.w3.org/2000/svg" xmlns:xlink="http://www.w3.org/1999/xlink">
<g id="graph0" class="graph" transform="scale(1 1) rotate(0) translate(4 42)">
<title>analysis::add_content</title>
<!-- Node1 -->
<g id="Node000001" class="node">
<title>Node1</title>
<g id="a_Node000001"><a xlink:title="Static helper method to add content (features) to a data map from various sources.">
<polygon fill="#999999" stroke="#666666" points="710,-38 587,-38 587,-19 710,-19 710,-38"/>
<text text-anchor="middle" x="648.5" y="-26" font-family="Helvetica,sans-Serif" font-size="10.00">analysis::add_content</text>
</a>
</g>
</g>
<!-- Node2 -->
<g id="Node000002" class="node">
<title>Node2</title>
<g id="a_Node000002"><a xlink:href="classanalysis.html#a7b98125c72486407d782b2bc2ea67389" target="_top" xlink:title="Sets up the environment for model inference (prediction).">
<polygon fill="white" stroke="#666666" points="405,-38 267,-38 267,-19 405,-19 405,-38"/>
<text text-anchor="middle" x="336" y="-26" font-family="Helvetica,sans-Serif" font-size="10.00">analysis::build_inference</text>
</a>
</g>
</g>
<!-- Node1&#45;&gt;Node2 -->
<g id="edge1_Node000001_Node000002" class="edge">
<title>Node1&#45;&gt;Node2</title>
<g id="a_edge1_Node000001_Node000002"><a xlink:title=" ">
<path fill="none" stroke="#63b8ff" d="M576.84,-28.5C525.32,-28.5 455.9,-28.5 405.01,-28.5"/>
<polygon fill="#63b8ff" stroke="#63b8ff" points="576.9,-32 586.9,-28.5 576.9,-25 576.9,-32"/>
</a>
</g>
</g>
<!-- Node5 -->
<g id="Node000005" class="node">
<title>Node5</title>
<g id="a_Node000005"><a xlink:href="classanalysis.html#a8a8e07da99928e764601ff8c56edc1df" target="_top" xlink:title="Static method to execute a model (training or inference) on a set of data.">
<polygon fill="white" stroke="#666666" points="551,-19 441,-19 441,0 551,0 551,-19"/>
<text text-anchor="middle" x="496" y="-7" font-family="Helvetica,sans-Serif" font-size="10.00">analysis::execution</text>
</a>
</g>
</g>
<!-- Node1&#45;&gt;Node5 -->
<g id="edge5_Node000001_Node000005" class="edge">
<title>Node1&#45;&gt;Node5</title>
<g id="a_edge5_Node000001_Node000005"><a xlink:title=" ">
<path fill="none" stroke="#63b8ff" d="M576.72,-19.56C568.15,-18.48 559.5,-17.39 551.21,-16.34"/>
<polygon fill="#63b8ff" stroke="#63b8ff" points="576.36,-23.05 586.72,-20.83 577.24,-16.1 576.36,-23.05"/>
</a>
</g>
</g>
<!-- Node3 -->
<g id="Node000003" class="node">
<title>Node3</title>
<g id="a_Node000003"><a xlink:href="classanalysis.html#a401745bb4bcae03160ffa0b5df2887e7" target="_top" xlink:title="Starts the analysis execution.">
<polygon fill="white" stroke="#666666" points="231,-38 145,-38 145,-19 231,-19 231,-38"/>
<text text-anchor="middle" x="188" y="-26" font-family="Helvetica,sans-Serif" font-size="10.00">analysis::start</text>
</a>
</g>
</g>
<!-- Node2&#45;&gt;Node3 -->
<g id="edge2_Node000002_Node000003" class="edge">
<title>Node2&#45;&gt;Node3</title>
<g id="a_edge2_Node000002_Node000003"><a xlink:title=" ">
<path fill="none" stroke="#63b8ff" d="M256.42,-28.5C247.68,-28.5 239.05,-28.5 231.02,-28.5"/>
<polygon fill="#63b8ff" stroke="#63b8ff" points="256.7,-32 266.7,-28.5 256.7,-25 256.7,-32"/>
</a>
</g>
</g>
<!-- Node4 -->
<g id="Node000004" class="node">
<title>Node4</title>
<g id="a_Node000004"><a xlink:href="classanalysis.html#aa5f5f1de2fe05c9fb8c5c0fffbf7b938" target="_top" xlink:title="Fetches tags, possibly related to data versions, processing stages, or k&#45;folds.">
<polygon fill="white" stroke="#666666" points="109,-38 0,-38 0,-19 109,-19 109,-38"/>
<text text-anchor="middle" x="54.5" y="-26" font-family="Helvetica,sans-Serif" font-size="10.00">analysis::fetchtags</text>
</a>
</g>
</g>
<!-- Node3&#45;&gt;Node4 -->
<g id="edge3_Node000003_Node000004" class="edge">
<title>Node3&#45;&gt;Node4</title>
<g id="a_edge3_Node000003_Node000004"><a xlink:title=" ">
<path fill="none" stroke="#63b8ff" d="M134.4,-21.87C126.14,-21.72 117.59,-21.71 109.3,-21.85"/>
<polygon fill="#63b8ff" stroke="#63b8ff" points="134.58,-25.38 144.67,-22.15 134.77,-18.38 134.58,-25.38"/>
</a>
</g>
</g>
<!-- Node4&#45;&gt;Node3 -->
<g id="edge4_Node000004_Node000003" class="edge">
<title>Node4&#45;&gt;Node3</title>
<g id="a_edge4_Node000004_Node000003"><a xlink:title=" ">
<path fill="none" stroke="#63b8ff" d="M119.34,-35.25C127.93,-35.27 136.57,-35.14 144.67,-34.85"/>
<polygon fill="#63b8ff" stroke="#63b8ff" points="119.34,-31.75 109.3,-35.15 119.27,-38.75 119.34,-31.75"/>
</a>
</g>
</g>
<!-- Node5&#45;&gt;Node2 -->
<g id="edge6_Node000005_Node000002" class="edge">
<title>Node5&#45;&gt;Node2</title>
<g id="a_edge6_Node000005_Node000002"><a xlink:title=" ">
<path fill="none" stroke="#63b8ff" d="M430.55,-17.25C422.18,-18.26 413.58,-19.29 405.15,-20.3"/>
<polygon fill="#63b8ff" stroke="#63b8ff" points="431.11,-20.71 440.63,-16.04 430.28,-13.76 431.11,-20.71"/>
</a>
</g>
</g>
</g>
</svg>
