<?xml version="1.0" encoding="UTF-8" standalone="no"?>
<!DOCTYPE svg PUBLIC "-//W3C//DTD SVG 1.1//EN"
 "http://www.w3.org/Graphics/SVG/1.1/DTD/svg11.dtd">
<!-- Generated by graphviz version 2.43.0 (0)
 -->
<!-- Title: io::file_info Pages: 1 -->
<svg width="691pt" height="76pt"
 viewBox="0.00 0.00 691.00 75.50" xmlns="http://www.w3.org/2000/svg" xmlns:xlink="http://www.w3.org/1999/xlink">
<g id="graph0" class="graph" transform="scale(1 1) rotate(0) translate(4 71.5)">
<title>io::file_info</title>
<!-- Node1 -->
<g id="Node000001" class="node">
<title>Node1</title>
<g id="a_Node000001"><a xlink:title="Static callback function for H5Literate, used to iterate over objects in an HDF5 file.">
<polygon fill="#999999" stroke="#666666" points="683,-45.5 612,-45.5 612,-26.5 683,-26.5 683,-45.5"/>
<text text-anchor="middle" x="647.5" y="-33.5" font-family="Helvetica,sans-Serif" font-size="10.00">io::file_info</text>
</a>
</g>
</g>
<!-- Node2 -->
<g id="Node000002" class="node">
<title>Node2</title>
<g id="a_Node000002"><a xlink:href="classio.html#ac572af35ee4e5a6dc17a35a1d8eb4561" target="_top" xlink:title="Retrieves the names of datasets available in the currently open HDF5 file.">
<polygon fill="white" stroke="#666666" points="576,-45.5 469,-45.5 469,-26.5 576,-26.5 576,-45.5"/>
<text text-anchor="middle" x="522.5" y="-33.5" font-family="Helvetica,sans-Serif" font-size="10.00">io::dataset_names</text>
</a>
</g>
</g>
<!-- Node1&#45;&gt;Node2 -->
<g id="edge1_Node000001_Node000002" class="edge">
<title>Node1&#45;&gt;Node2</title>
<g id="a_edge1_Node000001_Node000002"><a xlink:title=" ">
<path fill="none" stroke="#63b8ff" d="M601.7,-36C593.42,-36 584.7,-36 576.21,-36"/>
<polygon fill="#63b8ff" stroke="#63b8ff" points="601.91,-39.5 611.91,-36 601.91,-32.5 601.91,-39.5"/>
</a>
</g>
</g>
<!-- Node3 -->
<g id="Node000003" class="node">
<title>Node3</title>
<g id="a_Node000003"><a xlink:href="classdataloader.html#a52b546c96dec81d3860fb7e6268b097a" target="_top" xlink:title=" ">
<polygon fill="white" stroke="#666666" points="433,-51 323,-51 323,-21 433,-21 433,-51"/>
<text text-anchor="start" x="331" y="-39" font-family="Helvetica,sans-Serif" font-size="10.00">dataloader::restore</text>
<text text-anchor="middle" x="378" y="-28" font-family="Helvetica,sans-Serif" font-size="10.00">_graphs_</text>
</a>
</g>
</g>
<!-- Node2&#45;&gt;Node3 -->
<g id="edge2_Node000002_Node000003" class="edge">
<title>Node2&#45;&gt;Node3</title>
<g id="a_edge2_Node000002_Node000003"><a xlink:title=" ">
<path fill="none" stroke="#63b8ff" d="M458.66,-36C450.22,-36 441.62,-36 433.35,-36"/>
<polygon fill="#63b8ff" stroke="#63b8ff" points="458.84,-39.5 468.84,-36 458.84,-32.5 458.84,-39.5"/>
</a>
</g>
</g>
<!-- Node4 -->
<g id="Node000004" class="node">
<title>Node4</title>
<g id="a_Node000004"><a xlink:href="classdataloader.html#a04c94d9be735c32b80b6599c6bd993b4" target="_top" xlink:title=" ">
<polygon fill="white" stroke="#666666" points="287,-67.5 146,-67.5 146,-48.5 287,-48.5 287,-67.5"/>
<text text-anchor="middle" x="216.5" y="-55.5" font-family="Helvetica,sans-Serif" font-size="10.00">dataloader::dump_graphs</text>
</a>
</g>
</g>
<!-- Node3&#45;&gt;Node4 -->
<g id="edge3_Node000003_Node000004" class="edge">
<title>Node3&#45;&gt;Node4</title>
<g id="a_edge3_Node000003_Node000004"><a xlink:title=" ">
<path fill="none" stroke="#63b8ff" d="M312.65,-44.88C304.09,-46.06 295.28,-47.27 286.65,-48.46"/>
<polygon fill="#63b8ff" stroke="#63b8ff" points="313.13,-48.34 322.56,-43.51 312.17,-41.41 313.13,-48.34"/>
</a>
</g>
</g>
<!-- Node5 -->
<g id="Node000005" class="node">
<title>Node5</title>
<g id="a_Node000005"><a xlink:href="classdataloader.html#aed6ec872879a44ecfa9ae1c2188690a8" target="_top" xlink:title=" ">
<polygon fill="white" stroke="#666666" points="271.5,-30 161.5,-30 161.5,0 271.5,0 271.5,-30"/>
<text text-anchor="start" x="169.5" y="-18" font-family="Helvetica,sans-Serif" font-size="10.00">dataloader::restore</text>
<text text-anchor="middle" x="216.5" y="-7" font-family="Helvetica,sans-Serif" font-size="10.00">_graphs</text>
</a>
</g>
</g>
<!-- Node3&#45;&gt;Node5 -->
<g id="edge4_Node000003_Node000005" class="edge">
<title>Node3&#45;&gt;Node5</title>
<g id="a_edge4_Node000003_Node000005"><a xlink:title=" ">
<path fill="none" stroke="#63b8ff" d="M312.38,-27.49C298.88,-25.71 284.78,-23.86 271.7,-22.14"/>
<polygon fill="#63b8ff" stroke="#63b8ff" points="312.18,-31 322.56,-28.83 313.1,-24.06 312.18,-31"/>
</a>
</g>
</g>
<!-- Node6 -->
<g id="Node000006" class="node">
<title>Node6</title>
<g id="a_Node000006"><a xlink:href="classdataloader.html#ae3bba702555507d8b6e5567c34d19142" target="_top" xlink:title=" ">
<polygon fill="white" stroke="#666666" points="110,-30 0,-30 0,0 110,0 110,-30"/>
<text text-anchor="start" x="8" y="-18" font-family="Helvetica,sans-Serif" font-size="10.00">dataloader::restore</text>
<text text-anchor="middle" x="55" y="-7" font-family="Helvetica,sans-Serif" font-size="10.00">_graphs</text>
</a>
</g>
</g>
<!-- Node5&#45;&gt;Node6 -->
<g id="edge5_Node000005_Node000006" class="edge">
<title>Node5&#45;&gt;Node6</title>
<g id="a_edge5_Node000005_Node000006"><a xlink:title=" ">
<path fill="none" stroke="#63b8ff" d="M150.88,-15C137.38,-15 123.28,-15 110.2,-15"/>
<polygon fill="#63b8ff" stroke="#63b8ff" points="151.06,-18.5 161.06,-15 151.06,-11.5 151.06,-18.5"/>
</a>
</g>
</g>
</g>
</svg>
