<?xml version="1.0" encoding="UTF-8" standalone="no"?>
<!DOCTYPE svg PUBLIC "-//W3C//DTD SVG 1.1//EN"
 "http://www.w3.org/Graphics/SVG/1.1/DTD/svg11.dtd">
<!-- Generated by graphviz version 2.43.0 (0)
 -->
<!-- Title: electron::electron Pages: 1 -->
<svg width="235pt" height="64pt"
 viewBox="0.00 0.00 235.00 64.00" xmlns="http://www.w3.org/2000/svg" xmlns:xlink="http://www.w3.org/1999/xlink">
<g id="graph0" class="graph" transform="scale(1 1) rotate(0) translate(4 60)">
<title>electron::electron</title>
<!-- Node1 -->
<g id="Node000001" class="node">
<title>Node1</title>
<g id="a_Node000001"><a xlink:title=" ">
<polygon fill="#999999" stroke="#666666" points="227,-37 125,-37 125,-18 227,-18 227,-37"/>
<text text-anchor="middle" x="176" y="-25" font-family="Helvetica,sans-Serif" font-size="10.00">electron::electron</text>
</a>
</g>
</g>
<!-- Node2 -->
<g id="Node000002" class="node">
<title>Node2</title>
<g id="a_Node000002"><a xlink:href="classelectron.html#a0c42ede122af63a3ba35b457379ea605" target="_top" xlink:title="Builds the particle from event data.">
<polygon fill="white" stroke="#666666" points="87.5,-56 1.5,-56 1.5,-37 87.5,-37 87.5,-56"/>
<text text-anchor="middle" x="44.5" y="-44" font-family="Helvetica,sans-Serif" font-size="10.00">electron::build</text>
</a>
</g>
</g>
<!-- Node1&#45;&gt;Node2 -->
<g id="edge1_Node000001_Node000002" class="edge">
<title>Node1&#45;&gt;Node2</title>
<g id="a_edge1_Node000001_Node000002"><a xlink:title=" ">
<path fill="none" stroke="#63b8ff" d="M114.76,-36.34C105.68,-37.67 96.47,-39.02 87.87,-40.28"/>
<polygon fill="#63b8ff" stroke="#63b8ff" points="115.55,-39.76 124.93,-34.85 114.53,-32.83 115.55,-39.76"/>
</a>
</g>
</g>
<!-- Node3 -->
<g id="Node000003" class="node">
<title>Node3</title>
<g id="a_Node000003"><a xlink:href="classelectron.html#a1af9d73368ca91925ccb16fbccc6d199" target="_top" xlink:title="Creates a clone of this particle.">
<polygon fill="white" stroke="#666666" points="89,-19 0,-19 0,0 89,0 89,-19"/>
<text text-anchor="middle" x="44.5" y="-7" font-family="Helvetica,sans-Serif" font-size="10.00">electron::clone</text>
</a>
</g>
</g>
<!-- Node1&#45;&gt;Node3 -->
<g id="edge2_Node000001_Node000003" class="edge">
<title>Node1&#45;&gt;Node3</title>
<g id="a_edge2_Node000001_Node000003"><a xlink:title=" ">
<path fill="none" stroke="#63b8ff" d="M114.84,-19.14C106.16,-17.93 97.38,-16.71 89.11,-15.56"/>
<polygon fill="#63b8ff" stroke="#63b8ff" points="114.55,-22.63 124.93,-20.54 115.51,-15.7 114.55,-22.63"/>
</a>
</g>
</g>
</g>
</svg>
