<?xml version="1.0" encoding="UTF-8" standalone="no"?>
<!DOCTYPE svg PUBLIC "-//W3C//DTD SVG 1.1//EN"
 "http://www.w3.org/Graphics/SVG/1.1/DTD/svg11.dtd">
<!-- Generated by graphviz version 2.43.0 (0)
 -->
<!-- Title: parton::parton Pages: 1 -->
<svg width="210pt" height="64pt"
 viewBox="0.00 0.00 210.00 64.00" xmlns="http://www.w3.org/2000/svg" xmlns:xlink="http://www.w3.org/1999/xlink">
<g id="graph0" class="graph" transform="scale(1 1) rotate(0) translate(4 60)">
<title>parton::parton</title>
<!-- Node1 -->
<g id="Node000001" class="node">
<title>Node1</title>
<g id="a_Node000001"><a xlink:title=" ">
<polygon fill="#999999" stroke="#666666" points="202,-37 116,-37 116,-18 202,-18 202,-37"/>
<text text-anchor="middle" x="159" y="-25" font-family="Helvetica,sans-Serif" font-size="10.00">parton::parton</text>
</a>
</g>
</g>
<!-- Node2 -->
<g id="Node000002" class="node">
<title>Node2</title>
<g id="a_Node000002"><a xlink:href="classparton.html#ab5267a5b57180a97dbc7608ba8dec22c" target="_top" xlink:title="Builds the particle from event data.">
<polygon fill="white" stroke="#666666" points="79,-56 1,-56 1,-37 79,-37 79,-56"/>
<text text-anchor="middle" x="40" y="-44" font-family="Helvetica,sans-Serif" font-size="10.00">parton::build</text>
</a>
</g>
</g>
<!-- Node1&#45;&gt;Node2 -->
<g id="edge1_Node000001_Node000002" class="edge">
<title>Node1&#45;&gt;Node2</title>
<g id="a_edge1_Node000001_Node000002"><a xlink:title=" ">
<path fill="none" stroke="#63b8ff" d="M105.81,-35.97C96.89,-37.42 87.77,-38.91 79.29,-40.28"/>
<polygon fill="#63b8ff" stroke="#63b8ff" points="106.45,-39.42 115.76,-34.36 105.33,-32.51 106.45,-39.42"/>
</a>
</g>
</g>
<!-- Node3 -->
<g id="Node000003" class="node">
<title>Node3</title>
<g id="a_Node000003"><a xlink:href="classparton.html#a960f9f2386b34406addeb735cc87c079" target="_top" xlink:title="Creates a clone of this particle.">
<polygon fill="white" stroke="#666666" points="80,-19 0,-19 0,0 80,0 80,-19"/>
<text text-anchor="middle" x="40" y="-7" font-family="Helvetica,sans-Serif" font-size="10.00">parton::clone</text>
</a>
</g>
</g>
<!-- Node1&#45;&gt;Node3 -->
<g id="edge2_Node000001_Node000003" class="edge">
<title>Node1&#45;&gt;Node3</title>
<g id="a_edge2_Node000001_Node000003"><a xlink:title=" ">
<path fill="none" stroke="#63b8ff" d="M105.75,-19.46C97.12,-18.13 88.3,-16.78 80.06,-15.51"/>
<polygon fill="#63b8ff" stroke="#63b8ff" points="105.34,-22.94 115.76,-21 106.41,-16.02 105.34,-22.94"/>
</a>
</g>
</g>
</g>
</svg>
