<?xml version="1.0" encoding="UTF-8" standalone="no"?>
<!DOCTYPE svg PUBLIC "-//W3C//DTD SVG 1.1//EN"
 "http://www.w3.org/Graphics/SVG/1.1/DTD/svg11.dtd">
<!-- Generated by graphviz version 2.43.0 (0)
 -->
<!-- Title: matching::reference Pages: 1 -->
<svg width="442pt" height="151pt"
 viewBox="0.00 0.00 442.00 150.50" xmlns="http://www.w3.org/2000/svg" xmlns:xlink="http://www.w3.org/1999/xlink">
<g id="graph0" class="graph" transform="scale(1 1) rotate(0) translate(4 146.5)">
<title>matching::reference</title>
<!-- Node1 -->
<g id="Node000001" class="node">
<title>Node1</title>
<g id="a_Node000001"><a xlink:title=" ">
<polygon fill="#999999" stroke="#666666" points="115,-85.5 0,-85.5 0,-66.5 115,-66.5 115,-85.5"/>
<text text-anchor="middle" x="57.5" y="-73.5" font-family="Helvetica,sans-Serif" font-size="10.00">matching::reference</text>
</a>
</g>
</g>
<!-- Node2 -->
<g id="Node000002" class="node">
<title>Node2</title>
<g id="a_Node000002"><a xlink:href="classmatching.html#abc5f2130144ffdd25c3d8f7f933b23f2" target="_top" xlink:title=" ">
<polygon fill="white" stroke="#666666" points="254,-104.5 158,-104.5 158,-85.5 254,-85.5 254,-104.5"/>
<text text-anchor="middle" x="206" y="-92.5" font-family="Helvetica,sans-Serif" font-size="10.00">matching::dump</text>
</a>
</g>
</g>
<!-- Node1&#45;&gt;Node2 -->
<g id="edge1_Node000001_Node000002" class="edge">
<title>Node1&#45;&gt;Node2</title>
<g id="a_edge1_Node000001_Node000002"><a xlink:title=" ">
<path fill="none" stroke="#63b8ff" d="M115.14,-83.35C125.76,-84.72 136.87,-86.16 147.51,-87.54"/>
<polygon fill="#63b8ff" stroke="#63b8ff" points="147.17,-91.03 157.54,-88.84 148.07,-84.09 147.17,-91.03"/>
</a>
</g>
</g>
<!-- Node4 -->
<g id="Node000004" class="node">
<title>Node4</title>
<g id="a_Node000004"><a xlink:href="bsm__4tops_2include_2bsm__4tops_2graph__features_8h.html#ae8e5a8c9e20c373fc6c4566c25f8a5e9" target="_top" xlink:title=" ">
<polygon fill="white" stroke="#666666" points="396.5,-142.5 334.5,-142.5 334.5,-123.5 396.5,-123.5 396.5,-142.5"/>
<text text-anchor="middle" x="365.5" y="-130.5" font-family="Helvetica,sans-Serif" font-size="10.00">num_jets</text>
</a>
</g>
</g>
<!-- Node1&#45;&gt;Node4 -->
<g id="edge7_Node000001_Node000004" class="edge">
<title>Node1&#45;&gt;Node4</title>
<g id="a_edge7_Node000001_Node000004"><a xlink:title=" ">
<path fill="none" stroke="#63b8ff" d="M77.07,-85.58C95.36,-94.55 124.35,-107.5 151,-114 210.12,-128.42 280.82,-132.17 324.19,-133"/>
<polygon fill="#63b8ff" stroke="#63b8ff" points="324.28,-136.5 334.33,-133.15 324.39,-129.5 324.28,-136.5"/>
</a>
</g>
</g>
<!-- Node7 -->
<g id="Node000007" class="node">
<title>Node7</title>
<g id="a_Node000007"><a xlink:href="merge__cast_8h.html#a205af11d07be8d10770e7392817fc5c3" target="_top" xlink:title=" ">
<polygon fill="white" stroke="#666666" points="243.5,-67.5 168.5,-67.5 168.5,-48.5 243.5,-48.5 243.5,-67.5"/>
<text text-anchor="middle" x="206" y="-55.5" font-family="Helvetica,sans-Serif" font-size="10.00">merge_data</text>
</a>
</g>
</g>
<!-- Node1&#45;&gt;Node7 -->
<g id="edge6_Node000001_Node000007" class="edge">
<title>Node1&#45;&gt;Node7</title>
<g id="a_edge6_Node000001_Node000007"><a xlink:title=" ">
<path fill="none" stroke="#63b8ff" d="M115.14,-69.04C129.38,-67.29 144.51,-65.43 158.21,-63.75"/>
<polygon fill="#63b8ff" stroke="#63b8ff" points="158.88,-67.19 168.38,-62.5 158.02,-60.25 158.88,-67.19"/>
</a>
</g>
</g>
<!-- Node8 -->
<g id="Node000008" class="node">
<title>Node8</title>
<g id="a_Node000008"><a xlink:href="classselection__template.html#acfb4c50041c70205e08f6ccb4a850979" target="_top" xlink:title="Converts a map to a vector.">
<polygon fill="white" stroke="#666666" points="261,-30 151,-30 151,0 261,0 261,-30"/>
<text text-anchor="start" x="159" y="-18" font-family="Helvetica,sans-Serif" font-size="10.00">selection_template</text>
<text text-anchor="middle" x="206" y="-7" font-family="Helvetica,sans-Serif" font-size="10.00">::vectorize</text>
</a>
</g>
</g>
<!-- Node1&#45;&gt;Node8 -->
<g id="edge8_Node000001_Node000008" class="edge">
<title>Node1&#45;&gt;Node8</title>
<g id="a_edge8_Node000001_Node000008"><a xlink:title=" ">
<path fill="none" stroke="#63b8ff" d="M81.39,-66.47C102.25,-57.78 133.66,-44.7 159.6,-33.9"/>
<polygon fill="#63b8ff" stroke="#63b8ff" points="160.99,-37.11 168.88,-30.04 158.3,-30.65 160.99,-37.11"/>
</a>
</g>
</g>
<!-- Node3 -->
<g id="Node000003" class="node">
<title>Node3</title>
<g id="a_Node000003"><a xlink:href="classmatching.html#a5dd2ca818ce1ff894af645f4d15f4c01" target="_top" xlink:title=" ">
<polygon fill="white" stroke="#666666" points="423.5,-105.5 307.5,-105.5 307.5,-86.5 423.5,-86.5 423.5,-105.5"/>
<text text-anchor="middle" x="365.5" y="-93.5" font-family="Helvetica,sans-Serif" font-size="10.00">matching::get_pdgid</text>
</a>
</g>
</g>
<!-- Node2&#45;&gt;Node3 -->
<g id="edge2_Node000002_Node000003" class="edge">
<title>Node2&#45;&gt;Node3</title>
<g id="a_edge2_Node000002_Node000003"><a xlink:title=" ">
<path fill="none" stroke="#63b8ff" d="M254.26,-95.3C267.67,-95.39 282.55,-95.48 296.92,-95.57"/>
<polygon fill="#63b8ff" stroke="#63b8ff" points="297.24,-99.07 307.26,-95.64 297.29,-92.07 297.24,-99.07"/>
</a>
</g>
</g>
<!-- Node2&#45;&gt;Node4 -->
<g id="edge3_Node000002_Node000004" class="edge">
<title>Node2&#45;&gt;Node4</title>
<g id="a_edge3_Node000002_Node000004"><a xlink:title=" ">
<path fill="none" stroke="#63b8ff" d="M246.74,-104.59C270.51,-110.32 300.61,-117.58 324.43,-123.33"/>
<polygon fill="#63b8ff" stroke="#63b8ff" points="323.67,-126.75 334.21,-125.69 325.31,-119.95 323.67,-126.75"/>
</a>
</g>
</g>
<!-- Node5 -->
<g id="Node000005" class="node">
<title>Node5</title>
<g id="a_Node000005"><a xlink:href="bsm__4tops_2include_2bsm__4tops_2graph__features_8h.html#ab67addeed0cfbc8b4e8ce19cd2e98cb4" target="_top" xlink:title=" ">
<polygon fill="white" stroke="#666666" points="398,-68.5 333,-68.5 333,-49.5 398,-49.5 398,-68.5"/>
<text text-anchor="middle" x="365.5" y="-56.5" font-family="Helvetica,sans-Serif" font-size="10.00">num_tops</text>
</a>
</g>
</g>
<!-- Node2&#45;&gt;Node5 -->
<g id="edge4_Node000002_Node000005" class="edge">
<title>Node2&#45;&gt;Node5</title>
<g id="a_edge4_Node000002_Node000005"><a xlink:title=" ">
<path fill="none" stroke="#63b8ff" d="M248.79,-85.45C271.66,-80.22 299.89,-73.77 322.75,-68.54"/>
<polygon fill="#63b8ff" stroke="#63b8ff" points="323.54,-71.95 332.51,-66.31 321.98,-65.13 323.54,-71.95"/>
</a>
</g>
</g>
<!-- Node6 -->
<g id="Node000006" class="node">
<title>Node6</title>
<g id="a_Node000006"><a xlink:href="classselection__template.html#a84df199f6022f2a5d27979d43de51547" target="_top" xlink:title="Sums particles into a combined particle.">
<polygon fill="white" stroke="#666666" points="434,-31.5 297,-31.5 297,-12.5 434,-12.5 434,-31.5"/>
<text text-anchor="middle" x="365.5" y="-19.5" font-family="Helvetica,sans-Serif" font-size="10.00">selection_template::sum</text>
</a>
</g>
</g>
<!-- Node2&#45;&gt;Node6 -->
<g id="edge5_Node000002_Node000006" class="edge">
<title>Node2&#45;&gt;Node6</title>
<g id="a_edge5_Node000002_Node000006"><a xlink:title=" ">
<path fill="none" stroke="#63b8ff" d="M243.48,-85.42C249.56,-83.11 255.62,-80.33 261,-77 280.25,-65.1 277.48,-52.44 297,-41 300.83,-38.76 304.93,-36.77 309.15,-35.01"/>
<polygon fill="#63b8ff" stroke="#63b8ff" points="310.39,-38.28 318.54,-31.5 307.94,-31.73 310.39,-38.28"/>
</a>
</g>
</g>
</g>
</svg>
