<?xml version="1.0" encoding="UTF-8" standalone="no"?>
<!DOCTYPE svg PUBLIC "-//W3C//DTD SVG 1.1//EN"
 "http://www.w3.org/Graphics/SVG/1.1/DTD/svg11.dtd">
<!-- Generated by graphviz version 2.43.0 (0)
 -->
<!-- Title: metric_template::clone Pages: 1 -->
<!--zoomable 370 -->

<svg id="main" version="1.1" xmlns="http://www.w3.org/2000/svg" xmlns:xlink="http://www.w3.org/1999/xlink" xml:space="preserve" onload="init(evt)">
<style type="text/css"><![CDATA[
.node, .edge {opacity: 0.7;}
.node.selected, .edge.selected {opacity: 1;}
.edge:hover path { stroke: red; }
.edge:hover polygon { stroke: red; fill: red; }
]]></style>

<defs>
  <circle id="rim" cx="0" cy="0" r="7"/>
  <circle id="rim2" cx="0" cy="0" r="3.5"/>
  <g id="zoomPlus">
    <use xlink:href="#rim" fill="#404040"><set attributeName="fill" to="#808080" begin="zoomplus.mouseover" end="zoomplus.mouseout"/></use>
    <path d="M-4,0h8M0,-4v8" fill="none" stroke="white" stroke-width="1.5" pointer-events="none"/>
  </g>
  <g id="zoomMin">
    <use xlink:href="#rim" fill="#404040"><set attributeName="fill" to="#808080" begin="zoomminus.mouseover" end="zoomminus.mouseout"/></use>
    <path d="M-4,0h8" fill="none" stroke="white" stroke-width="1.5" pointer-events="none"/>
  </g>
  <g id="arrowUp" transform="translate(30 24)">
    <use xlink:href="#rim"/>
    <path pointer-events="none" fill="none" stroke="white" stroke-width="1.5" d="M0,-3.0v7 M-2.5,-0.5L0,-3.0L2.5,-0.5"/>
  </g>
  <g id="arrowRight" transform="rotate(90) translate(36 -43)">
    <use xlink:href="#rim"/>
    <path pointer-events="none" fill="none" stroke="white" stroke-width="1.5" d="M0,-3.0v7 M-2.5,-0.5L0,-3.0L2.5,-0.5"/>
  </g>
  <g id="arrowDown" transform="rotate(180) translate(-30 -48)">
    <use xlink:href="#rim"/>
    <path pointer-events="none" fill="none" stroke="white" stroke-width="1.5" d="M0,-3.0v7 M-2.5,-0.5L0,-3.0L2.5,-0.5"/>
  </g>
  <g id="arrowLeft" transform="rotate(270) translate(-36 17)">
    <use xlink:href="#rim"/>
    <path pointer-events="none" fill="none" stroke="white" stroke-width="1.5" d="M0,-3.0v7 M-2.5,-0.5L0,-3.0L2.5,-0.5"/>
  </g>
  <g id="resetDef">
    <use xlink:href="#rim2" fill="#404040"><set attributeName="fill" to="#808080" begin="reset.mouseover" end="reset.mouseout"/></use>
  </g>
</defs>
<script type="application/ecmascript">
var viewWidth = 656;
var viewHeight = 370;
var sectionId = 'dynsection-5';
</script>
<script type="application/ecmascript" xlink:href="svg.min.js"/>
<svg id="graph" class="graph">
<g id="viewport">
<title>metric_template::clone</title>
<!-- Node1 -->
<g id="Node000001" class="node">
<title>Node1</title>
<g id="a_Node000001"><a xlink:title=" ">
<polygon fill="#999999" stroke="#666666" points="130,-190.5 0,-190.5 0,-171.5 130,-171.5 130,-190.5"/>
<text text-anchor="middle" x="65" y="-178.5" font-family="Helvetica,sans-Serif" font-size="10.00">metric_template::clone</text>
</a>
</g>
</g>
<!-- Node2 -->
<g id="Node000002" class="node">
<title>Node2</title>
<g id="a_Node000002"><a xlink:href="classmetric__template.html#a4f076b39d712cc1ed944d25328bcc271" target="_top" xlink:title=" ">
<polygon fill="white" stroke="#666666" points="301,-196 166,-196 166,-166 301,-166 301,-196"/>
<text text-anchor="start" x="174" y="-184" font-family="Helvetica,sans-Serif" font-size="10.00">metric_template::metric</text>
<text text-anchor="middle" x="233.5" y="-173" font-family="Helvetica,sans-Serif" font-size="10.00">_template</text>
</a>
</g>
</g>
<!-- Node1&#45;&gt;Node2 -->
<g id="edge1_Node000001_Node000002" class="edge">
<title>Node1&#45;&gt;Node2</title>
<g id="a_edge1_Node000001_Node000002"><a xlink:title=" ">
<path fill="none" stroke="#63b8ff" d="M130.37,-181C138.64,-181 147.16,-181 155.6,-181"/>
<polygon fill="#63b8ff" stroke="#63b8ff" points="155.82,-184.5 165.82,-181 155.82,-177.5 155.82,-184.5"/>
</a>
</g>
</g>
<!-- Node3 -->
<g id="Node000003" class="node">
<title>Node3</title>
<g id="a_Node000003"><a xlink:href="classmetric__template.html#a0c0752bec56d2ed585edb6292f77487f" target="_top" xlink:title=" ">
<polygon fill="white" stroke="#666666" points="489,-361.5 337,-361.5 337,-342.5 489,-342.5 489,-361.5"/>
<text text-anchor="middle" x="413" y="-349.5" font-family="Helvetica,sans-Serif" font-size="10.00">metric_template::get_name</text>
</a>
</g>
</g>
<!-- Node2&#45;&gt;Node3 -->
<g id="edge2_Node000002_Node000003" class="edge">
<title>Node2&#45;&gt;Node3</title>
<g id="a_edge2_Node000002_Node000003"><a xlink:title=" ">
<path fill="none" stroke="#63b8ff" d="M240.34,-196.22C253,-227.08 285.97,-297.12 337,-333 339.75,-334.93 342.67,-336.67 345.72,-338.23"/>
<polygon fill="#63b8ff" stroke="#63b8ff" points="344.58,-341.55 355.14,-342.4 347.41,-335.15 344.58,-341.55"/>
</a>
</g>
</g>
<!-- Node4 -->
<g id="Node000004" class="node">
<title>Node4</title>
<g id="a_Node000004"><a xlink:href="classmetric__template.html#a8dd368a685f0ab138ae020ed9ef1b214" target="_top" xlink:title=" ">
<polygon fill="white" stroke="#666666" points="472.5,-324 353.5,-324 353.5,-294 472.5,-294 472.5,-324"/>
<text text-anchor="start" x="361.5" y="-312" font-family="Helvetica,sans-Serif" font-size="10.00">metric_template::get</text>
<text text-anchor="middle" x="413" y="-301" font-family="Helvetica,sans-Serif" font-size="10.00">_run_name</text>
</a>
</g>
</g>
<!-- Node2&#45;&gt;Node4 -->
<g id="edge3_Node000002_Node000004" class="edge">
<title>Node2&#45;&gt;Node4</title>
<g id="a_edge3_Node000002_Node000004"><a xlink:title=" ">
<path fill="none" stroke="#63b8ff" d="M245.67,-196.36C262.86,-218.93 297.91,-260.97 337,-285 339.65,-286.63 342.42,-288.16 345.28,-289.59"/>
<polygon fill="#63b8ff" stroke="#63b8ff" points="344.05,-292.88 354.6,-293.86 346.96,-286.52 344.05,-292.88"/>
</a>
</g>
</g>
<!-- Node5 -->
<g id="Node000005" class="node">
<title>Node5</title>
<g id="a_Node000005"><a xlink:href="classmetric__template.html#a955eb7a68c413fdcff1d6c5bdba4c5ac" target="_top" xlink:title=" ">
<polygon fill="white" stroke="#666666" points="472.5,-276 353.5,-276 353.5,-246 472.5,-246 472.5,-276"/>
<text text-anchor="start" x="361.5" y="-264" font-family="Helvetica,sans-Serif" font-size="10.00">metric_template::get</text>
<text text-anchor="middle" x="413" y="-253" font-family="Helvetica,sans-Serif" font-size="10.00">_variables</text>
</a>
</g>
</g>
<!-- Node2&#45;&gt;Node5 -->
<g id="edge4_Node000002_Node000005" class="edge">
<title>Node2&#45;&gt;Node5</title>
<g id="a_edge4_Node000002_Node000005"><a xlink:title=" ">
<path fill="none" stroke="#63b8ff" d="M259.11,-196.18C279.47,-208.31 309.42,-225.18 337,-237 341.4,-238.89 346,-240.71 350.67,-242.44"/>
<polygon fill="#63b8ff" stroke="#63b8ff" points="349.69,-245.81 360.29,-245.88 352.05,-239.22 349.69,-245.81"/>
</a>
</g>
</g>
<!-- Node7 -->
<g id="Node000007" class="node">
<title>Node7</title>
<g id="a_Node000007"><a xlink:href="classcproperty.html#a31b26b5ffb20bbf8d8ee38e0755a9819" target="_top" xlink:title="Sets the getter callback function.">
<polygon fill="white" stroke="#666666" points="472,-227.5 354,-227.5 354,-208.5 472,-208.5 472,-227.5"/>
<text text-anchor="middle" x="413" y="-215.5" font-family="Helvetica,sans-Serif" font-size="10.00">cproperty::set_getter</text>
</a>
</g>
</g>
<!-- Node2&#45;&gt;Node7 -->
<g id="edge6_Node000002_Node000007" class="edge">
<title>Node2&#45;&gt;Node7</title>
<g id="a_edge6_Node000002_Node000007"><a xlink:title=" ">
<path fill="none" stroke="#63b8ff" d="M301.1,-194.88C319.27,-198.67 338.77,-202.74 356.27,-206.38"/>
<polygon fill="#63b8ff" stroke="#63b8ff" points="355.81,-209.86 366.32,-208.48 357.24,-203.01 355.81,-209.86"/>
</a>
</g>
</g>
<!-- Node8 -->
<g id="Node000008" class="node">
<title>Node8</title>
<g id="a_Node000008"><a xlink:href="classmetric__template.html#a85d83f331257a2bcbaca37f1eb4b5d5c" target="_top" xlink:title=" ">
<polygon fill="white" stroke="#666666" points="489,-190.5 337,-190.5 337,-171.5 489,-171.5 489,-190.5"/>
<text text-anchor="middle" x="413" y="-178.5" font-family="Helvetica,sans-Serif" font-size="10.00">metric_template::set_name</text>
</a>
</g>
</g>
<!-- Node2&#45;&gt;Node8 -->
<g id="edge7_Node000002_Node000008" class="edge">
<title>Node2&#45;&gt;Node8</title>
<g id="a_edge7_Node000002_Node000008"><a xlink:title=" ">
<path fill="none" stroke="#63b8ff" d="M301.1,-181C309.51,-181 318.21,-181 326.86,-181"/>
<polygon fill="#63b8ff" stroke="#63b8ff" points="326.98,-184.5 336.98,-181 326.98,-177.5 326.98,-184.5"/>
</a>
</g>
</g>
<!-- Node9 -->
<g id="Node000009" class="node">
<title>Node9</title>
<g id="a_Node000009"><a xlink:href="classcproperty.html#a41a70e8e01c9b1a20b94d2dbf1a6b214" target="_top" xlink:title="Sets the owning object for callback invocation.">
<polygon fill="white" stroke="#666666" points="472.5,-153.5 353.5,-153.5 353.5,-134.5 472.5,-134.5 472.5,-153.5"/>
<text text-anchor="middle" x="413" y="-141.5" font-family="Helvetica,sans-Serif" font-size="10.00">cproperty::set_object</text>
</a>
</g>
</g>
<!-- Node2&#45;&gt;Node9 -->
<g id="edge8_Node000002_Node000009" class="edge">
<title>Node2&#45;&gt;Node9</title>
<g id="a_edge8_Node000002_Node000009"><a xlink:title=" ">
<path fill="none" stroke="#63b8ff" d="M301.1,-167.12C319.27,-163.33 338.77,-159.26 356.27,-155.62"/>
<polygon fill="#63b8ff" stroke="#63b8ff" points="357.24,-158.99 366.32,-153.52 355.81,-152.14 357.24,-158.99"/>
</a>
</g>
</g>
<!-- Node10 -->
<g id="Node000010" class="node">
<title>Node10</title>
<g id="a_Node000010"><a xlink:href="classmetric__template.html#ad34828d0d75d5b0a656ef881620fbc7c" target="_top" xlink:title=" ">
<polygon fill="white" stroke="#666666" points="472.5,-116 353.5,-116 353.5,-86 472.5,-86 472.5,-116"/>
<text text-anchor="start" x="361.5" y="-104" font-family="Helvetica,sans-Serif" font-size="10.00">metric_template::set</text>
<text text-anchor="middle" x="413" y="-93" font-family="Helvetica,sans-Serif" font-size="10.00">_run_name</text>
</a>
</g>
</g>
<!-- Node2&#45;&gt;Node10 -->
<g id="edge9_Node000002_Node000010" class="edge">
<title>Node2&#45;&gt;Node10</title>
<g id="a_edge9_Node000002_Node000010"><a xlink:title=" ">
<path fill="none" stroke="#63b8ff" d="M259.6,-165.97C279.99,-154.15 309.74,-137.75 337,-126 342.12,-123.79 347.5,-121.66 352.94,-119.62"/>
<polygon fill="#63b8ff" stroke="#63b8ff" points="354.52,-122.77 362.73,-116.08 352.14,-116.19 354.52,-122.77"/>
</a>
</g>
</g>
<!-- Node14 -->
<g id="Node000014" class="node">
<title>Node14</title>
<g id="a_Node000014"><a xlink:href="classcproperty.html#af4583ba4cf4ebc53f870a2de8f110da7" target="_top" xlink:title="Sets the setter callback function.">
<polygon fill="white" stroke="#666666" points="471.5,-67.5 354.5,-67.5 354.5,-48.5 471.5,-48.5 471.5,-67.5"/>
<text text-anchor="middle" x="413" y="-55.5" font-family="Helvetica,sans-Serif" font-size="10.00">cproperty::set_setter</text>
</a>
</g>
</g>
<!-- Node2&#45;&gt;Node14 -->
<g id="edge14_Node000002_Node000014" class="edge">
<title>Node2&#45;&gt;Node14</title>
<g id="a_edge14_Node000002_Node000014"><a xlink:title=" ">
<path fill="none" stroke="#63b8ff" d="M245.21,-165.7C262.05,-142.83 296.97,-99.94 337,-77 340.91,-74.76 345.08,-72.78 349.38,-71.03"/>
<polygon fill="#63b8ff" stroke="#63b8ff" points="350.73,-74.27 358.94,-67.56 348.34,-67.69 350.73,-74.27"/>
</a>
</g>
</g>
<!-- Node15 -->
<g id="Node000015" class="node">
<title>Node15</title>
<g id="a_Node000015"><a xlink:href="classmetric__template.html#a5209be08253548a7a56bd2f08db31a8c" target="_top" xlink:title=" ">
<polygon fill="white" stroke="#666666" points="472.5,-30 353.5,-30 353.5,0 472.5,0 472.5,-30"/>
<text text-anchor="start" x="361.5" y="-18" font-family="Helvetica,sans-Serif" font-size="10.00">metric_template::set</text>
<text text-anchor="middle" x="413" y="-7" font-family="Helvetica,sans-Serif" font-size="10.00">_variables</text>
</a>
</g>
</g>
<!-- Node2&#45;&gt;Node15 -->
<g id="edge15_Node000002_Node000015" class="edge">
<title>Node2&#45;&gt;Node15</title>
<g id="a_edge15_Node000002_Node000015"><a xlink:title=" ">
<path fill="none" stroke="#63b8ff" d="M241.44,-165.69C255.36,-136.67 289.5,-73.46 337,-39 339.33,-37.31 341.79,-35.73 344.34,-34.26"/>
<polygon fill="#63b8ff" stroke="#63b8ff" points="345.98,-37.35 353.29,-29.67 342.79,-31.12 345.98,-37.35"/>
</a>
</g>
</g>
<!-- Node6 -->
<g id="Node000006" class="node">
<title>Node6</title>
<g id="a_Node000006"><a xlink:href="classmetric__template.html#abdaf01c257c4d00b3861432f34d10939" target="_top" xlink:title=" ">
<polygon fill="white" stroke="#666666" points="647.5,-225.5 525.5,-225.5 525.5,-206.5 647.5,-206.5 647.5,-225.5"/>
<text text-anchor="middle" x="586.5" y="-213.5" font-family="Helvetica,sans-Serif" font-size="10.00">metric_template::end</text>
</a>
</g>
</g>
<!-- Node5&#45;&gt;Node6 -->
<g id="edge5_Node000005_Node000006" class="edge">
<title>Node5&#45;&gt;Node6</title>
<g id="a_edge5_Node000005_Node000006"><a xlink:title=" ">
<path fill="none" stroke="#63b8ff" d="M471.58,-245.89C493.66,-240.1 518.54,-233.57 539.4,-228.1"/>
<polygon fill="#63b8ff" stroke="#63b8ff" points="540.51,-231.42 549.29,-225.5 538.73,-224.65 540.51,-231.42"/>
</a>
</g>
</g>
<!-- Node10&#45;&gt;Node6 -->
<g id="edge10_Node000010_Node000006" class="edge">
<title>Node10&#45;&gt;Node6</title>
<g id="a_edge10_Node000010_Node000006"><a xlink:title=" ">
<path fill="none" stroke="#63b8ff" d="M468.5,-116.06C475.61,-118.91 482.63,-122.21 489,-126 506.53,-136.42 546.34,-175.86 568.97,-198.93"/>
<polygon fill="#63b8ff" stroke="#63b8ff" points="566.7,-201.62 576.19,-206.33 571.71,-196.73 566.7,-201.62"/>
</a>
</g>
</g>
<!-- Node11 -->
<g id="Node000011" class="node">
<title>Node11</title>
<g id="a_Node000011"><a xlink:href="classtools.html#ad7229c72cee65da3605c4be82f9b42d4" target="_top" xlink:title="Checks if a string contains a specific substring.">
<polygon fill="white" stroke="#666666" points="635,-144.5 538,-144.5 538,-125.5 635,-125.5 635,-144.5"/>
<text text-anchor="middle" x="586.5" y="-132.5" font-family="Helvetica,sans-Serif" font-size="10.00">tools::has_string</text>
</a>
</g>
</g>
<!-- Node10&#45;&gt;Node11 -->
<g id="edge11_Node000010_Node000011" class="edge">
<title>Node10&#45;&gt;Node11</title>
<g id="a_edge11_Node000010_Node000011"><a xlink:title=" ">
<path fill="none" stroke="#63b8ff" d="M472.54,-112.61C490.31,-116.13 509.81,-119.99 527.53,-123.51"/>
<polygon fill="#63b8ff" stroke="#63b8ff" points="527.25,-127.02 537.74,-125.53 528.61,-120.15 527.25,-127.02"/>
</a>
</g>
</g>
<!-- Node12 -->
<g id="Node000012" class="node">
<title>Node12</title>
<g id="a_Node000012"><a xlink:href="classtools.html#a47d3d261edcb898daab56721e18d1e67" target="_top" xlink:title="Checks if a path refers to an existing file.">
<polygon fill="white" stroke="#666666" points="624,-107.5 549,-107.5 549,-88.5 624,-88.5 624,-107.5"/>
<text text-anchor="middle" x="586.5" y="-95.5" font-family="Helvetica,sans-Serif" font-size="10.00">tools::is_file</text>
</a>
</g>
</g>
<!-- Node10&#45;&gt;Node12 -->
<g id="edge12_Node000010_Node000012" class="edge">
<title>Node10&#45;&gt;Node12</title>
<g id="a_edge12_Node000010_Node000012"><a xlink:title=" ">
<path fill="none" stroke="#63b8ff" d="M472.54,-99.98C494.21,-99.6 518.46,-99.17 538.92,-98.81"/>
<polygon fill="#63b8ff" stroke="#63b8ff" points="539,-102.31 548.93,-98.64 538.88,-95.32 539,-102.31"/>
</a>
</g>
</g>
<!-- Node13 -->
<g id="Node000013" class="node">
<title>Node13</title>
<g id="a_Node000013"><a xlink:href="classtools.html#a352a6965f2f3c768f0f4ecd1f978fcc0" target="_top" xlink:title="Splits a string into a vector of substrings based on a delimiter.">
<polygon fill="white" stroke="#666666" points="620.5,-67.5 552.5,-67.5 552.5,-48.5 620.5,-48.5 620.5,-67.5"/>
<text text-anchor="middle" x="586.5" y="-55.5" font-family="Helvetica,sans-Serif" font-size="10.00">tools::split</text>
</a>
</g>
</g>
<!-- Node10&#45;&gt;Node13 -->
<g id="edge13_Node000010_Node000013" class="edge">
<title>Node10&#45;&gt;Node13</title>
<g id="a_edge13_Node000010_Node000013"><a xlink:title=" ">
<path fill="none" stroke="#63b8ff" d="M472.54,-86.32C495.39,-80.59 521.11,-74.14 542.24,-68.85"/>
<polygon fill="#63b8ff" stroke="#63b8ff" points="543.35,-72.18 552.2,-66.35 541.65,-65.39 543.35,-72.18"/>
</a>
</g>
</g>
<!-- Node15&#45;&gt;Node13 -->
<g id="edge17_Node000015_Node000013" class="edge">
<title>Node15&#45;&gt;Node13</title>
<g id="a_edge17_Node000015_Node000013"><a xlink:title=" ">
<path fill="none" stroke="#63b8ff" d="M472.54,-29.68C495.39,-35.41 521.11,-41.86 542.24,-47.15"/>
<polygon fill="#63b8ff" stroke="#63b8ff" points="541.65,-50.61 552.2,-49.65 543.35,-43.82 541.65,-50.61"/>
</a>
</g>
</g>
<!-- Node16 -->
<g id="Node000016" class="node">
<title>Node16</title>
<g id="a_Node000016"><a xlink:href="classmetric__template.html#a335a5dd4a86a24fd17e981a633cd4df3" target="_top" xlink:title=" ">
<polygon fill="white" stroke="#666666" points="648,-24.5 525,-24.5 525,-5.5 648,-5.5 648,-24.5"/>
<text text-anchor="middle" x="586.5" y="-12.5" font-family="Helvetica,sans-Serif" font-size="10.00">metric_template::size</text>
</a>
</g>
</g>
<!-- Node15&#45;&gt;Node16 -->
<g id="edge16_Node000015_Node000016" class="edge">
<title>Node15&#45;&gt;Node16</title>
<g id="a_edge16_Node000015_Node000016"><a xlink:title=" ">
<path fill="none" stroke="#63b8ff" d="M472.54,-15C486.13,-15 500.73,-15 514.78,-15"/>
<polygon fill="#63b8ff" stroke="#63b8ff" points="514.89,-18.5 524.89,-15 514.89,-11.5 514.89,-18.5"/>
</a>
</g>
</g>
</g>
</svg>

<g id="navigator" transform="translate(0 0)" fill="#404254">
  <rect fill="#f2f5e9" fill-opacity="0.5" stroke="#606060" stroke-width=".5" x="0" y="0" width="60" height="60"/>
  <use id="zoomplus" xlink:href="#zoomPlus" x="17" y="9" onmousedown="handleZoom(evt,'in')"/>
  <use id="zoomminus" xlink:href="#zoomMin" x="42" y="9" onmousedown="handleZoom(evt,'out')"/>
  <use id="reset" xlink:href="#resetDef" x="30" y="36" onmousedown="handleReset()"/>
   <use id="arrowup" xlink:href="#arrowUp" x="0" y="0" onmousedown="handlePan(0,-1)"/>
  <use id="arrowright" xlink:href="#arrowRight" x="0" y="0" onmousedown="handlePan(1,0)"/>
  <use id="arrowdown" xlink:href="#arrowDown" x="0" y="0" onmousedown="handlePan(0,1)"/>
  <use id="arrowleft" xlink:href="#arrowLeft" x="0" y="0" onmousedown="handlePan(-1,0)"/>
</g>
<svg viewBox="0 0 15 15" width="100%" height="30px" preserveAspectRatio="xMaxYMin meet">
 <g id="arrow_out" transform="scale(0.3 0.3)">
  <a xlink:href="classmetric__template_ad4020c5c29a7944e9cadd244fd11e952_cgraph_org.svg" target="_base">
   <rect id="button" ry="5" rx="5" y="6" x="6" height="38" width="38"
        fill="#f2f5e9" fill-opacity="0.5" stroke="#606060" stroke-width="1.0"/>
   <path id="arrow"
     d="M 11.500037,31.436501 C 11.940474,20.09759 22.043105,11.32322 32.158766,21.979434 L 37.068811,17.246167 C 37.068811,17.246167 37.088388,32 37.088388,32 L 22.160133,31.978069 C 22.160133,31.978069 26.997745,27.140456 26.997745,27.140456 C 18.528582,18.264221 13.291696,25.230495 11.500037,31.436501 z"
     style="fill:#404040;"/>
  </a>
 </g>
</svg>

<style type='text/css'>
<![CDATA[
[data-mouse-over-selected='false'] { opacity: 0.7; }
[data-mouse-over-selected='true']  { opacity: 1.0; }
]]>
</style>
<script type="application/ecmascript"><![CDATA[
document.addEventListener('DOMContentLoaded', (event) => {
  highlightEdges();
  highlightAdjacentNodes();
});
]]></script>
</svg>
