<?xml version="1.0" encoding="UTF-8" standalone="no"?>
<!DOCTYPE svg PUBLIC "-//W3C//DTD SVG 1.1//EN"
 "http://www.w3.org/Graphics/SVG/1.1/DTD/svg11.dtd">
<!-- Generated by graphviz version 2.43.0 (0)
 -->
<!-- Title: event_template::event_template Pages: 1 -->
<svg width="445pt" height="358pt"
 viewBox="0.00 0.00 445.00 358.00" xmlns="http://www.w3.org/2000/svg" xmlns:xlink="http://www.w3.org/1999/xlink">
<g id="graph0" class="graph" transform="scale(1 1) rotate(0) translate(4 354)">
<title>event_template::event_template</title>
<!-- Node1 -->
<g id="Node000001" class="node">
<title>Node1</title>
<g id="a_Node000001"><a xlink:title="Default constructor for event_template.">
<polygon fill="#999999" stroke="#666666" points="128,-190 0,-190 0,-160 128,-160 128,-190"/>
<text text-anchor="start" x="8" y="-178" font-family="Helvetica,sans-Serif" font-size="10.00">event_template::event</text>
<text text-anchor="middle" x="64" y="-167" font-family="Helvetica,sans-Serif" font-size="10.00">_template</text>
</a>
</g>
</g>
<!-- Node2 -->
<g id="Node000002" class="node">
<title>Node2</title>
<g id="a_Node000002"><a xlink:href="classevent__template.html#aedd843db4af78c774316cda822821f66" target="_top" xlink:title="Static getter for the leaves property.">
<polygon fill="white" stroke="#666666" points="296,-350 180,-350 180,-320 296,-320 296,-350"/>
<text text-anchor="start" x="188" y="-338" font-family="Helvetica,sans-Serif" font-size="10.00">event_template::get</text>
<text text-anchor="middle" x="238" y="-327" font-family="Helvetica,sans-Serif" font-size="10.00">_leaves</text>
</a>
</g>
</g>
<!-- Node1&#45;&gt;Node2 -->
<g id="edge1_Node000001_Node000002" class="edge">
<title>Node1&#45;&gt;Node2</title>
<g id="a_edge1_Node000001_Node000002"><a xlink:title=" ">
<path fill="none" stroke="#63b8ff" d="M71.97,-190.06C85.65,-217.99 118.68,-277.98 164,-311 166.12,-312.55 168.35,-314 170.66,-315.36"/>
<polygon fill="#63b8ff" stroke="#63b8ff" points="169.38,-318.64 179.86,-320.17 172.62,-312.44 169.38,-318.64"/>
</a>
</g>
</g>
<!-- Node3 -->
<g id="Node000003" class="node">
<title>Node3</title>
<g id="a_Node000003"><a xlink:href="classevent__template.html#a73a5b08c0f438f12e1c19326e863923e" target="_top" xlink:title="Static getter for the tree property.">
<polygon fill="white" stroke="#666666" points="308,-301.5 168,-301.5 168,-282.5 308,-282.5 308,-301.5"/>
<text text-anchor="middle" x="238" y="-289.5" font-family="Helvetica,sans-Serif" font-size="10.00">event_template::get_tree</text>
</a>
</g>
</g>
<!-- Node1&#45;&gt;Node3 -->
<g id="edge2_Node000001_Node000003" class="edge">
<title>Node1&#45;&gt;Node3</title>
<g id="a_edge2_Node000001_Node000003"><a xlink:title=" ">
<path fill="none" stroke="#63b8ff" d="M75.92,-190.31C92.43,-212.29 125.89,-252.5 164,-274 167.2,-275.81 170.58,-277.43 174.06,-278.9"/>
<polygon fill="#63b8ff" stroke="#63b8ff" points="172.87,-282.19 183.46,-282.41 175.32,-275.63 172.87,-282.19"/>
</a>
</g>
</g>
<!-- Node4 -->
<g id="Node000004" class="node">
<title>Node4</title>
<g id="a_Node000004"><a xlink:href="classcproperty.html#a31b26b5ffb20bbf8d8ee38e0755a9819" target="_top" xlink:title="Sets the getter callback function.">
<polygon fill="white" stroke="#666666" points="297,-264.5 179,-264.5 179,-245.5 297,-245.5 297,-264.5"/>
<text text-anchor="middle" x="238" y="-252.5" font-family="Helvetica,sans-Serif" font-size="10.00">cproperty::set_getter</text>
</a>
</g>
</g>
<!-- Node1&#45;&gt;Node4 -->
<g id="edge3_Node000001_Node000004" class="edge">
<title>Node1&#45;&gt;Node4</title>
<g id="a_edge3_Node000001_Node000004"><a xlink:title=" ">
<path fill="none" stroke="#63b8ff" d="M84.81,-190.07C104.09,-204.08 134.68,-224.58 164,-237 168.76,-239.02 173.8,-240.84 178.91,-242.48"/>
<polygon fill="#63b8ff" stroke="#63b8ff" points="178.19,-245.92 188.78,-245.42 180.19,-239.21 178.19,-245.92"/>
</a>
</g>
</g>
<!-- Node5 -->
<g id="Node000005" class="node">
<title>Node5</title>
<g id="a_Node000005"><a xlink:href="classevent__template.html#a9f5661b7516b43801913ab6fc897a80e" target="_top" xlink:title="Static setter for the hash property.">
<polygon fill="white" stroke="#666666" points="309.5,-227.5 166.5,-227.5 166.5,-208.5 309.5,-208.5 309.5,-227.5"/>
<text text-anchor="middle" x="238" y="-215.5" font-family="Helvetica,sans-Serif" font-size="10.00">event_template::set_hash</text>
</a>
</g>
</g>
<!-- Node1&#45;&gt;Node5 -->
<g id="edge4_Node000001_Node000005" class="edge">
<title>Node1&#45;&gt;Node5</title>
<g id="a_edge4_Node000001_Node000005"><a xlink:title=" ">
<path fill="none" stroke="#63b8ff" d="M125.16,-190.04C146.12,-195.28 169.35,-201.09 189.18,-206.04"/>
<polygon fill="#63b8ff" stroke="#63b8ff" points="188.36,-209.45 198.91,-208.48 190.06,-202.66 188.36,-209.45"/>
</a>
</g>
</g>
<!-- Node7 -->
<g id="Node000007" class="node">
<title>Node7</title>
<g id="a_Node000007"><a xlink:href="classevent__template.html#aa5e222a8244571e0b00fccc82c09ba8f" target="_top" xlink:title="Static setter for the index property.">
<polygon fill="white" stroke="#666666" points="295.5,-190 180.5,-190 180.5,-160 295.5,-160 295.5,-190"/>
<text text-anchor="start" x="188.5" y="-178" font-family="Helvetica,sans-Serif" font-size="10.00">event_template::set</text>
<text text-anchor="middle" x="238" y="-167" font-family="Helvetica,sans-Serif" font-size="10.00">_index</text>
</a>
</g>
</g>
<!-- Node1&#45;&gt;Node7 -->
<g id="edge6_Node000001_Node000007" class="edge">
<title>Node1&#45;&gt;Node7</title>
<g id="a_edge6_Node000001_Node000007"><a xlink:title=" ">
<path fill="none" stroke="#63b8ff" d="M128.07,-175C141.88,-175 156.54,-175 170.48,-175"/>
<polygon fill="#63b8ff" stroke="#63b8ff" points="170.48,-178.5 180.48,-175 170.48,-171.5 170.48,-178.5"/>
</a>
</g>
</g>
<!-- Node8 -->
<g id="Node000008" class="node">
<title>Node8</title>
<g id="a_Node000008"><a xlink:href="classevent__template.html#a73c3667c07093f1dabb388735370c34d" target="_top" xlink:title="Static setter for the name property.">
<polygon fill="white" stroke="#666666" points="312,-141.5 164,-141.5 164,-122.5 312,-122.5 312,-141.5"/>
<text text-anchor="middle" x="238" y="-129.5" font-family="Helvetica,sans-Serif" font-size="10.00">event_template::set_name</text>
</a>
</g>
</g>
<!-- Node1&#45;&gt;Node8 -->
<g id="edge7_Node000001_Node000008" class="edge">
<title>Node1&#45;&gt;Node8</title>
<g id="a_edge7_Node000001_Node000008"><a xlink:title=" ">
<path fill="none" stroke="#63b8ff" d="M125.16,-159.96C146.12,-154.72 169.35,-148.91 189.18,-143.96"/>
<polygon fill="#63b8ff" stroke="#63b8ff" points="190.06,-147.34 198.91,-141.52 188.36,-140.55 190.06,-147.34"/>
</a>
</g>
</g>
<!-- Node9 -->
<g id="Node000009" class="node">
<title>Node9</title>
<g id="a_Node000009"><a xlink:href="classcproperty.html#a41a70e8e01c9b1a20b94d2dbf1a6b214" target="_top" xlink:title="Sets the owning object for callback invocation.">
<polygon fill="white" stroke="#666666" points="297.5,-104.5 178.5,-104.5 178.5,-85.5 297.5,-85.5 297.5,-104.5"/>
<text text-anchor="middle" x="238" y="-92.5" font-family="Helvetica,sans-Serif" font-size="10.00">cproperty::set_object</text>
</a>
</g>
</g>
<!-- Node1&#45;&gt;Node9 -->
<g id="edge8_Node000001_Node000009" class="edge">
<title>Node1&#45;&gt;Node9</title>
<g id="a_edge8_Node000001_Node000009"><a xlink:title=" ">
<path fill="none" stroke="#63b8ff" d="M85.63,-159.74C105,-146.06 135.22,-126.28 164,-114 169.69,-111.57 175.77,-109.39 181.89,-107.45"/>
<polygon fill="#63b8ff" stroke="#63b8ff" points="182.92,-110.8 191.52,-104.6 180.93,-104.09 182.92,-110.8"/>
</a>
</g>
</g>
<!-- Node10 -->
<g id="Node000010" class="node">
<title>Node10</title>
<g id="a_Node000010"><a xlink:href="classcproperty.html#af4583ba4cf4ebc53f870a2de8f110da7" target="_top" xlink:title="Sets the setter callback function.">
<polygon fill="white" stroke="#666666" points="296.5,-67.5 179.5,-67.5 179.5,-48.5 296.5,-48.5 296.5,-67.5"/>
<text text-anchor="middle" x="238" y="-55.5" font-family="Helvetica,sans-Serif" font-size="10.00">cproperty::set_setter</text>
</a>
</g>
</g>
<!-- Node1&#45;&gt;Node10 -->
<g id="edge9_Node000001_Node000010" class="edge">
<title>Node1&#45;&gt;Node10</title>
<g id="a_edge9_Node000001_Node000010"><a xlink:title=" ">
<path fill="none" stroke="#63b8ff" d="M75.99,-159.91C92.59,-138.24 126.17,-98.53 164,-77 167.95,-74.75 172.17,-72.77 176.51,-71.01"/>
<polygon fill="#63b8ff" stroke="#63b8ff" points="177.94,-74.21 186.16,-67.52 175.56,-67.63 177.94,-74.21"/>
</a>
</g>
</g>
<!-- Node11 -->
<g id="Node000011" class="node">
<title>Node11</title>
<g id="a_Node000011"><a xlink:href="classevent__template.html#a71028d2c6f0b8eb23c84ff2fecf0132b" target="_top" xlink:title="Static setter for the weight property.">
<polygon fill="white" stroke="#666666" points="295.5,-30 180.5,-30 180.5,0 295.5,0 295.5,-30"/>
<text text-anchor="start" x="188.5" y="-18" font-family="Helvetica,sans-Serif" font-size="10.00">event_template::set</text>
<text text-anchor="middle" x="238" y="-7" font-family="Helvetica,sans-Serif" font-size="10.00">_weight</text>
</a>
</g>
</g>
<!-- Node1&#45;&gt;Node11 -->
<g id="edge10_Node000001_Node000011" class="edge">
<title>Node1&#45;&gt;Node11</title>
<g id="a_edge10_Node000001_Node000011"><a xlink:title=" ">
<path fill="none" stroke="#63b8ff" d="M72.26,-159.67C86.18,-131.85 119.28,-72.88 164,-40 166.51,-38.15 169.17,-36.44 171.92,-34.84"/>
<polygon fill="#63b8ff" stroke="#63b8ff" points="173.72,-37.85 181,-30.15 170.51,-31.63 173.72,-37.85"/>
</a>
</g>
</g>
<!-- Node6 -->
<g id="Node000006" class="node">
<title>Node6</title>
<g id="a_Node000006"><a xlink:href="classtools.html#afd037c109d75a9f119ec042e1ba922d9" target="_top" xlink:title="Converts a double value to a string with standard precision.">
<polygon fill="white" stroke="#666666" points="437,-227.5 348,-227.5 348,-208.5 437,-208.5 437,-227.5"/>
<text text-anchor="middle" x="392.5" y="-215.5" font-family="Helvetica,sans-Serif" font-size="10.00">tools::to_string</text>
</a>
</g>
</g>
<!-- Node5&#45;&gt;Node6 -->
<g id="edge5_Node000005_Node000006" class="edge">
<title>Node5&#45;&gt;Node6</title>
<g id="a_edge5_Node000005_Node000006"><a xlink:title=" ">
<path fill="none" stroke="#63b8ff" d="M309.89,-218C319.17,-218 328.56,-218 337.5,-218"/>
<polygon fill="#63b8ff" stroke="#63b8ff" points="337.75,-221.5 347.75,-218 337.75,-214.5 337.75,-221.5"/>
</a>
</g>
</g>
</g>
</svg>
