<?xml version="1.0" encoding="UTF-8" standalone="no"?>
<!DOCTYPE svg PUBLIC "-//W3C//DTD SVG 1.1//EN"
 "http://www.w3.org/Graphics/SVG/1.1/DTD/svg11.dtd">
<!-- Generated by graphviz version 2.43.0 (0)
 -->
<!-- Title: parton::build Pages: 1 -->
<svg width="353pt" height="38pt"
 viewBox="0.00 0.00 353.00 38.00" xmlns="http://www.w3.org/2000/svg" xmlns:xlink="http://www.w3.org/1999/xlink">
<g id="graph0" class="graph" transform="scale(1 1) rotate(0) translate(4 34)">
<title>parton::build</title>
<!-- Node1 -->
<g id="Node000001" class="node">
<title>Node1</title>
<g id="a_Node000001"><a xlink:title="Builds the particle from event data.">
<polygon fill="#999999" stroke="#666666" points="78,-24.5 0,-24.5 0,-5.5 78,-5.5 78,-24.5"/>
<text text-anchor="middle" x="39" y="-12.5" font-family="Helvetica,sans-Serif" font-size="10.00">parton::build</text>
</a>
</g>
</g>
<!-- Node2 -->
<g id="Node000002" class="node">
<title>Node2</title>
<g id="a_Node000002"><a xlink:href="classparton.html#ac50bb27fb65bb2548631d695f0f6b98a" target="_top" xlink:title=" ">
<polygon fill="white" stroke="#666666" points="200,-24.5 114,-24.5 114,-5.5 200,-5.5 200,-24.5"/>
<text text-anchor="middle" x="157" y="-12.5" font-family="Helvetica,sans-Serif" font-size="10.00">parton::parton</text>
</a>
</g>
</g>
<!-- Node1&#45;&gt;Node2 -->
<g id="edge1_Node000001_Node000002" class="edge">
<title>Node1&#45;&gt;Node2</title>
<g id="a_edge1_Node000001_Node000002"><a xlink:title=" ">
<path fill="none" stroke="#63b8ff" d="M78.3,-15C86.37,-15 95.02,-15 103.51,-15"/>
<polygon fill="#63b8ff" stroke="#63b8ff" points="103.73,-18.5 113.73,-15 103.73,-11.5 103.73,-18.5"/>
</a>
</g>
</g>
<!-- Node3 -->
<g id="Node000003" class="node">
<title>Node3</title>
<g id="a_Node000003"><a xlink:href="classparticle__template.html#a7fda73e06360bffd1bce45e7ba7370a5" target="_top" xlink:title="Adds a leaf (variable) to read for this particle.">
<polygon fill="white" stroke="#666666" points="345,-30 236,-30 236,0 345,0 345,-30"/>
<text text-anchor="start" x="244" y="-18" font-family="Helvetica,sans-Serif" font-size="10.00">particle_template::</text>
<text text-anchor="middle" x="290.5" y="-7" font-family="Helvetica,sans-Serif" font-size="10.00">add_leaf</text>
</a>
</g>
</g>
<!-- Node2&#45;&gt;Node3 -->
<g id="edge2_Node000002_Node000003" class="edge">
<title>Node2&#45;&gt;Node3</title>
<g id="a_edge2_Node000002_Node000003"><a xlink:title=" ">
<path fill="none" stroke="#63b8ff" d="M200.33,-15C208.43,-15 217.07,-15 225.66,-15"/>
<polygon fill="#63b8ff" stroke="#63b8ff" points="225.7,-18.5 235.7,-15 225.7,-11.5 225.7,-18.5"/>
</a>
</g>
</g>
</g>
</svg>
