<?xml version="1.0" encoding="UTF-8" standalone="no"?>
<!DOCTYPE svg PUBLIC "-//W3C//DTD SVG 1.1//EN"
 "http://www.w3.org/Graphics/SVG/1.1/DTD/svg11.dtd">
<!-- Generated by graphviz version 2.43.0 (0)
 -->
<!-- Title: graph_template::to_tensor Pages: 1 -->
<svg width="344pt" height="101pt"
 viewBox="0.00 0.00 344.00 101.00" xmlns="http://www.w3.org/2000/svg" xmlns:xlink="http://www.w3.org/1999/xlink">
<g id="graph0" class="graph" transform="scale(1 1) rotate(0) translate(4 97)">
<title>graph_template::to_tensor</title>
<!-- Node1 -->
<g id="Node000001" class="node">
<title>Node1</title>
<g id="a_Node000001"><a xlink:title=" ">
<polygon fill="#999999" stroke="#666666" points="110,-61.5 0,-61.5 0,-31.5 110,-31.5 110,-61.5"/>
<text text-anchor="start" x="8" y="-49.5" font-family="Helvetica,sans-Serif" font-size="10.00">graph_template::to</text>
<text text-anchor="middle" x="55" y="-38.5" font-family="Helvetica,sans-Serif" font-size="10.00">_tensor</text>
</a>
</g>
</g>
<!-- Node2 -->
<g id="Node000002" class="node">
<title>Node2</title>
<g id="a_Node000002"><a xlink:href="tensor__cast_8h.html#a27121e7e5aeb77bda0453dd6214cf7fb" target="_top" xlink:title=" ">
<polygon fill="white" stroke="#666666" points="223,-56 146,-56 146,-37 223,-37 223,-56"/>
<text text-anchor="middle" x="184.5" y="-44" font-family="Helvetica,sans-Serif" font-size="10.00">build_tensor</text>
</a>
</g>
</g>
<!-- Node1&#45;&gt;Node2 -->
<g id="edge1_Node000001_Node000002" class="edge">
<title>Node1&#45;&gt;Node2</title>
<g id="a_edge1_Node000001_Node000002"><a xlink:title=" ">
<path fill="none" stroke="#63b8ff" d="M110.07,-46.5C118.66,-46.5 127.49,-46.5 135.91,-46.5"/>
<polygon fill="#63b8ff" stroke="#63b8ff" points="135.95,-50 145.95,-46.5 135.95,-43 135.95,-50"/>
</a>
</g>
</g>
<!-- Node3 -->
<g id="Node000003" class="node">
<title>Node3</title>
<g id="a_Node000003"><a xlink:href="tensor__cast_8h.html#a49d70dbad1cfb3e27ebb8960cff818bb" target="_top" xlink:title=" ">
<polygon fill="white" stroke="#666666" points="336,-93 259,-93 259,-74 336,-74 336,-93"/>
<text text-anchor="middle" x="297.5" y="-81" font-family="Helvetica,sans-Serif" font-size="10.00">as_primitive</text>
</a>
</g>
</g>
<!-- Node2&#45;&gt;Node3 -->
<g id="edge2_Node000002_Node000003" class="edge">
<title>Node2&#45;&gt;Node3</title>
<g id="a_edge2_Node000002_Node000003"><a xlink:title=" ">
<path fill="none" stroke="#63b8ff" d="M214.09,-56.03C227.45,-60.48 243.55,-65.85 257.97,-70.66"/>
<polygon fill="#63b8ff" stroke="#63b8ff" points="257.03,-74.03 267.63,-73.88 259.25,-67.39 257.03,-74.03"/>
</a>
</g>
</g>
<!-- Node4 -->
<g id="Node000004" class="node">
<title>Node4</title>
<g id="a_Node000004"><a xlink:href="tensor__cast_8h.html#af735bf7b89e3864dbde7fe5def867d4d" target="_top" xlink:title=" ">
<polygon fill="white" stroke="#666666" points="331,-56 264,-56 264,-37 331,-37 331,-56"/>
<text text-anchor="middle" x="297.5" y="-44" font-family="Helvetica,sans-Serif" font-size="10.00">scout_dim</text>
</a>
</g>
</g>
<!-- Node2&#45;&gt;Node4 -->
<g id="edge3_Node000002_Node000004" class="edge">
<title>Node2&#45;&gt;Node4</title>
<g id="a_edge3_Node000002_Node000004"><a xlink:title=" ">
<path fill="none" stroke="#63b8ff" d="M223.08,-46.5C232.88,-46.5 243.52,-46.5 253.58,-46.5"/>
<polygon fill="#63b8ff" stroke="#63b8ff" points="253.79,-50 263.79,-46.5 253.79,-43 253.79,-50"/>
</a>
</g>
</g>
<!-- Node5 -->
<g id="Node000005" class="node">
<title>Node5</title>
<g id="a_Node000005"><a xlink:href="tensor__cast_8h.html#af14120999422d60b3d0aef376398fca6" target="_top" xlink:title=" ">
<polygon fill="white" stroke="#666666" points="327,-19 268,-19 268,0 327,0 327,-19"/>
<text text-anchor="middle" x="297.5" y="-7" font-family="Helvetica,sans-Serif" font-size="10.00">standard</text>
</a>
</g>
</g>
<!-- Node2&#45;&gt;Node5 -->
<g id="edge4_Node000002_Node000005" class="edge">
<title>Node2&#45;&gt;Node5</title>
<g id="a_edge4_Node000002_Node000005"><a xlink:title=" ">
<path fill="none" stroke="#63b8ff" d="M214.09,-36.97C227.45,-32.52 243.55,-27.15 257.97,-22.34"/>
<polygon fill="#63b8ff" stroke="#63b8ff" points="259.25,-25.61 267.63,-19.12 257.03,-18.97 259.25,-25.61"/>
</a>
</g>
</g>
</g>
</svg>
