<?xml version="1.0" encoding="UTF-8" standalone="no"?>
<!DOCTYPE svg PUBLIC "-//W3C//DTD SVG 1.1//EN"
 "http://www.w3.org/Graphics/SVG/1.1/DTD/svg11.dtd">
<!-- Generated by graphviz version 2.43.0 (0)
 -->
<!-- Title: metric_template::execute Pages: 1 -->
<!--zoomable 611 -->

<svg id="main" version="1.1" xmlns="http://www.w3.org/2000/svg" xmlns:xlink="http://www.w3.org/1999/xlink" xml:space="preserve" onload="init(evt)">
<style type="text/css"><![CDATA[
.node, .edge {opacity: 0.7;}
.node.selected, .edge.selected {opacity: 1;}
.edge:hover path { stroke: red; }
.edge:hover polygon { stroke: red; fill: red; }
]]></style>

<defs>
  <circle id="rim" cx="0" cy="0" r="7"/>
  <circle id="rim2" cx="0" cy="0" r="3.5"/>
  <g id="zoomPlus">
    <use xlink:href="#rim" fill="#404040"><set attributeName="fill" to="#808080" begin="zoomplus.mouseover" end="zoomplus.mouseout"/></use>
    <path d="M-4,0h8M0,-4v8" fill="none" stroke="white" stroke-width="1.5" pointer-events="none"/>
  </g>
  <g id="zoomMin">
    <use xlink:href="#rim" fill="#404040"><set attributeName="fill" to="#808080" begin="zoomminus.mouseover" end="zoomminus.mouseout"/></use>
    <path d="M-4,0h8" fill="none" stroke="white" stroke-width="1.5" pointer-events="none"/>
  </g>
  <g id="arrowUp" transform="translate(30 24)">
    <use xlink:href="#rim"/>
    <path pointer-events="none" fill="none" stroke="white" stroke-width="1.5" d="M0,-3.0v7 M-2.5,-0.5L0,-3.0L2.5,-0.5"/>
  </g>
  <g id="arrowRight" transform="rotate(90) translate(36 -43)">
    <use xlink:href="#rim"/>
    <path pointer-events="none" fill="none" stroke="white" stroke-width="1.5" d="M0,-3.0v7 M-2.5,-0.5L0,-3.0L2.5,-0.5"/>
  </g>
  <g id="arrowDown" transform="rotate(180) translate(-30 -48)">
    <use xlink:href="#rim"/>
    <path pointer-events="none" fill="none" stroke="white" stroke-width="1.5" d="M0,-3.0v7 M-2.5,-0.5L0,-3.0L2.5,-0.5"/>
  </g>
  <g id="arrowLeft" transform="rotate(270) translate(-36 17)">
    <use xlink:href="#rim"/>
    <path pointer-events="none" fill="none" stroke="white" stroke-width="1.5" d="M0,-3.0v7 M-2.5,-0.5L0,-3.0L2.5,-0.5"/>
  </g>
  <g id="resetDef">
    <use xlink:href="#rim2" fill="#404040"><set attributeName="fill" to="#808080" begin="reset.mouseover" end="reset.mouseout"/></use>
  </g>
</defs>
<script type="application/ecmascript">
var viewWidth = 838;
var viewHeight = 611;
var sectionId = 'dynsection-17';
</script>
<script type="application/ecmascript" xlink:href="svg.min.js"/>
<svg id="graph" class="graph">
<g id="viewport">
<title>metric_template::execute</title>
<!-- Node1 -->
<g id="Node000001" class="node">
<title>Node1</title>
<g id="a_Node000001"><a xlink:title=" ">
<polygon fill="#999999" stroke="#666666" points="142,-153.5 0,-153.5 0,-134.5 142,-134.5 142,-153.5"/>
<text text-anchor="middle" x="71" y="-141.5" font-family="Helvetica,sans-Serif" font-size="10.00">metric_template::execute</text>
</a>
</g>
</g>
<!-- Node2 -->
<g id="Node000002" class="node">
<title>Node2</title>
<g id="a_Node000002"><a xlink:href="classmetric__template.html#ad4020c5c29a7944e9cadd244fd11e952" target="_top" xlink:title=" ">
<polygon fill="white" stroke="#666666" points="310,-311.5 180,-311.5 180,-292.5 310,-292.5 310,-311.5"/>
<text text-anchor="middle" x="245" y="-299.5" font-family="Helvetica,sans-Serif" font-size="10.00">metric_template::clone</text>
</a>
</g>
</g>
<!-- Node1&#45;&gt;Node2 -->
<g id="edge1_Node000001_Node000002" class="edge">
<title>Node1&#45;&gt;Node2</title>
<g id="a_edge1_Node000001_Node000002"><a xlink:title=" ">
<path fill="none" stroke="#63b8ff" d="M82.5,-153.65C111,-179.82 190.04,-252.43 225.89,-285.37"/>
<polygon fill="#63b8ff" stroke="#63b8ff" points="223.9,-288.29 233.64,-292.48 228.64,-283.14 223.9,-288.29"/>
</a>
</g>
</g>
<!-- Node7 -->
<g id="Node000007" class="node">
<title>Node7</title>
<g id="a_Node000007"><a xlink:href="classmetric__template.html#abdaf01c257c4d00b3861432f34d10939" target="_top" xlink:title=" ">
<polygon fill="white" stroke="#666666" points="829.5,-292.5 707.5,-292.5 707.5,-273.5 829.5,-273.5 829.5,-292.5"/>
<text text-anchor="middle" x="768.5" y="-280.5" font-family="Helvetica,sans-Serif" font-size="10.00">metric_template::end</text>
</a>
</g>
</g>
<!-- Node1&#45;&gt;Node7 -->
<g id="edge27_Node000001_Node000007" class="edge">
<title>Node1&#45;&gt;Node7</title>
<g id="a_edge27_Node000001_Node000007"><a xlink:title=" ">
<path fill="none" stroke="#63b8ff" d="M140.66,-153.52C153.07,-155.11 165.91,-156.68 178,-158 287.32,-169.98 569.53,-158.61 671,-201 705.08,-215.24 735.99,-246.1 753.21,-265.64"/>
<polygon fill="#63b8ff" stroke="#63b8ff" points="750.56,-267.92 759.73,-273.24 755.87,-263.37 750.56,-267.92"/>
</a>
</g>
</g>
<!-- Node17 -->
<g id="Node000017" class="node">
<title>Node17</title>
<g id="a_Node000017"><a xlink:href="classmetric__template.html#a335a5dd4a86a24fd17e981a633cd4df3" target="_top" xlink:title=" ">
<polygon fill="white" stroke="#666666" points="830,-153.5 707,-153.5 707,-134.5 830,-134.5 830,-153.5"/>
<text text-anchor="middle" x="768.5" y="-141.5" font-family="Helvetica,sans-Serif" font-size="10.00">metric_template::size</text>
</a>
</g>
</g>
<!-- Node1&#45;&gt;Node17 -->
<g id="edge28_Node000001_Node000017" class="edge">
<title>Node1&#45;&gt;Node17</title>
<g id="a_edge28_Node000001_Node000017"><a xlink:title=" ">
<path fill="none" stroke="#63b8ff" d="M142.19,-144C275.31,-144 563.05,-144 696.66,-144"/>
<polygon fill="#63b8ff" stroke="#63b8ff" points="696.78,-147.5 706.78,-144 696.78,-140.5 696.78,-147.5"/>
</a>
</g>
</g>
<!-- Node18 -->
<g id="Node000018" class="node">
<title>Node18</title>
<g id="a_Node000018"><a xlink:href="classmetric__template.html#afa5cc34040676184af823bca74f316f8" target="_top" xlink:title=" ">
<polygon fill="white" stroke="#666666" points="669.5,-115.5 520.5,-115.5 520.5,-96.5 669.5,-96.5 669.5,-115.5"/>
<text text-anchor="middle" x="595" y="-103.5" font-family="Helvetica,sans-Serif" font-size="10.00">metric_template::construct</text>
</a>
</g>
</g>
<!-- Node1&#45;&gt;Node18 -->
<g id="edge19_Node000001_Node000018" class="edge">
<title>Node1&#45;&gt;Node18</title>
<g id="a_edge19_Node000001_Node000018"><a xlink:title=" ">
<path fill="none" stroke="#63b8ff" d="M138.35,-134.47C151.47,-132.81 165.16,-131.22 178,-130 292.88,-119.11 426.11,-112.48 510.22,-109.02"/>
<polygon fill="#63b8ff" stroke="#63b8ff" points="510.38,-112.52 520.23,-108.61 510.1,-105.52 510.38,-112.52"/>
</a>
</g>
</g>
<!-- Node20 -->
<g id="Node000020" class="node">
<title>Node20</title>
<g id="a_Node000020"><a xlink:href="classtools.html#aed9f3247b474a8fb1840860d51cde7ca" target="_top" xlink:title="Creates a directory path, including parent directories if needed.">
<polygon fill="white" stroke="#666666" points="467.5,-522.5 363.5,-522.5 363.5,-503.5 467.5,-503.5 467.5,-522.5"/>
<text text-anchor="middle" x="415.5" y="-510.5" font-family="Helvetica,sans-Serif" font-size="10.00">tools::create_path</text>
</a>
</g>
</g>
<!-- Node1&#45;&gt;Node20 -->
<g id="edge23_Node000001_Node000020" class="edge">
<title>Node1&#45;&gt;Node20</title>
<g id="a_edge23_Node000001_Node000020"><a xlink:title=" ">
<path fill="none" stroke="#63b8ff" d="M76.28,-153.52C89.04,-181.23 128.94,-263.4 178,-320 245.06,-397.36 345.59,-467.87 390.89,-497.82"/>
<polygon fill="#63b8ff" stroke="#63b8ff" points="389.15,-500.86 399.43,-503.42 392.99,-495.01 389.15,-500.86"/>
</a>
</g>
</g>
<!-- Node21 -->
<g id="Node000021" class="node">
<title>Node21</title>
<g id="a_Node000021"><a xlink:href="classmetric__template.html#a7c79f8e90e0acfe7797ce8a6cc778f63" target="_top" xlink:title=" ">
<polygon fill="white" stroke="#666666" points="312,-78 178,-78 178,-48 312,-48 312,-78"/>
<text text-anchor="start" x="186" y="-66" font-family="Helvetica,sans-Serif" font-size="10.00">metric_template::define</text>
<text text-anchor="middle" x="245" y="-55" font-family="Helvetica,sans-Serif" font-size="10.00">_metric</text>
</a>
</g>
</g>
<!-- Node1&#45;&gt;Node21 -->
<g id="edge25_Node000001_Node000021" class="edge">
<title>Node1&#45;&gt;Node21</title>
<g id="a_edge25_Node000001_Node000021"><a xlink:title=" ">
<path fill="none" stroke="#63b8ff" d="M91.03,-134.36C112.16,-123.74 147.33,-106.25 178,-92 184.87,-88.81 192.17,-85.51 199.33,-82.32"/>
<polygon fill="#63b8ff" stroke="#63b8ff" points="201.21,-85.32 208.94,-78.08 198.38,-78.92 201.21,-85.32"/>
</a>
</g>
</g>
<!-- Node22 -->
<g id="Node000022" class="node">
<title>Node22</title>
<g id="a_Node000022"><a xlink:href="classmetric__template.html#a0d9eaa5a83704589041d08b921c8d680" target="_top" xlink:title=" ">
<polygon fill="white" stroke="#666666" points="312,-30 178,-30 178,0 312,0 312,-30"/>
<text text-anchor="start" x="186" y="-18" font-family="Helvetica,sans-Serif" font-size="10.00">metric_template::define</text>
<text text-anchor="middle" x="245" y="-7" font-family="Helvetica,sans-Serif" font-size="10.00">_variables</text>
</a>
</g>
</g>
<!-- Node1&#45;&gt;Node22 -->
<g id="edge26_Node000001_Node000022" class="edge">
<title>Node1&#45;&gt;Node22</title>
<g id="a_edge26_Node000001_Node000022"><a xlink:title=" ">
<path fill="none" stroke="#63b8ff" d="M79.19,-134.5C94.96,-114.25 134.67,-66.45 178,-39 180.46,-37.44 183.04,-35.96 185.69,-34.56"/>
<polygon fill="#63b8ff" stroke="#63b8ff" points="187.43,-37.61 194.92,-30.12 184.39,-31.31 187.43,-37.61"/>
</a>
</g>
</g>
<!-- Node3 -->
<g id="Node000003" class="node">
<title>Node3</title>
<g id="a_Node000003"><a xlink:href="classmetric__template.html#a4f076b39d712cc1ed944d25328bcc271" target="_top" xlink:title=" ">
<polygon fill="white" stroke="#666666" points="483,-378 348,-378 348,-348 483,-348 483,-378"/>
<text text-anchor="start" x="356" y="-366" font-family="Helvetica,sans-Serif" font-size="10.00">metric_template::metric</text>
<text text-anchor="middle" x="415.5" y="-355" font-family="Helvetica,sans-Serif" font-size="10.00">_template</text>
</a>
</g>
</g>
<!-- Node2&#45;&gt;Node3 -->
<g id="edge2_Node000002_Node000003" class="edge">
<title>Node2&#45;&gt;Node3</title>
<g id="a_edge2_Node000002_Node000003"><a xlink:title=" ">
<path fill="none" stroke="#63b8ff" d="M272.33,-311.53C296.63,-320.33 333.4,-333.64 363.46,-344.52"/>
<polygon fill="#63b8ff" stroke="#63b8ff" points="362.36,-347.85 372.96,-347.96 364.75,-341.27 362.36,-347.85"/>
</a>
</g>
</g>
<!-- Node4 -->
<g id="Node000004" class="node">
<title>Node4</title>
<g id="a_Node000004"><a xlink:href="classmetric__template.html#a0c0752bec56d2ed585edb6292f77487f" target="_top" xlink:title=" ">
<polygon fill="white" stroke="#666666" points="671,-485.5 519,-485.5 519,-466.5 671,-466.5 671,-485.5"/>
<text text-anchor="middle" x="595" y="-473.5" font-family="Helvetica,sans-Serif" font-size="10.00">metric_template::get_name</text>
</a>
</g>
</g>
<!-- Node3&#45;&gt;Node4 -->
<g id="edge3_Node000003_Node000004" class="edge">
<title>Node3&#45;&gt;Node4</title>
<g id="a_edge3_Node000003_Node000004"><a xlink:title=" ">
<path fill="none" stroke="#63b8ff" d="M428.72,-378.17C446.4,-399.11 481.18,-436.58 519,-457 523.28,-459.31 527.85,-461.35 532.54,-463.14"/>
<polygon fill="#63b8ff" stroke="#63b8ff" points="531.7,-466.56 542.29,-466.5 533.98,-459.94 531.7,-466.56"/>
</a>
</g>
</g>
<!-- Node5 -->
<g id="Node000005" class="node">
<title>Node5</title>
<g id="a_Node000005"><a xlink:href="classmetric__template.html#a8dd368a685f0ab138ae020ed9ef1b214" target="_top" xlink:title=" ">
<polygon fill="white" stroke="#666666" points="654.5,-448 535.5,-448 535.5,-418 654.5,-418 654.5,-448"/>
<text text-anchor="start" x="543.5" y="-436" font-family="Helvetica,sans-Serif" font-size="10.00">metric_template::get</text>
<text text-anchor="middle" x="595" y="-425" font-family="Helvetica,sans-Serif" font-size="10.00">_run_name</text>
</a>
</g>
</g>
<!-- Node3&#45;&gt;Node5 -->
<g id="edge4_Node000003_Node000005" class="edge">
<title>Node3&#45;&gt;Node5</title>
<g id="a_edge4_Node000003_Node000005"><a xlink:title=" ">
<path fill="none" stroke="#63b8ff" d="M447.52,-378.01C467.65,-387.49 494.59,-399.65 519,-409 524.03,-410.93 529.28,-412.83 534.58,-414.66"/>
<polygon fill="#63b8ff" stroke="#63b8ff" points="533.51,-418 544.11,-417.9 535.76,-411.37 533.51,-418"/>
</a>
</g>
</g>
<!-- Node6 -->
<g id="Node000006" class="node">
<title>Node6</title>
<g id="a_Node000006"><a xlink:href="classmetric__template.html#a955eb7a68c413fdcff1d6c5bdba4c5ac" target="_top" xlink:title=" ">
<polygon fill="white" stroke="#666666" points="654.5,-400 535.5,-400 535.5,-370 654.5,-370 654.5,-400"/>
<text text-anchor="start" x="543.5" y="-388" font-family="Helvetica,sans-Serif" font-size="10.00">metric_template::get</text>
<text text-anchor="middle" x="595" y="-377" font-family="Helvetica,sans-Serif" font-size="10.00">_variables</text>
</a>
</g>
</g>
<!-- Node3&#45;&gt;Node6 -->
<g id="edge5_Node000003_Node000006" class="edge">
<title>Node3&#45;&gt;Node6</title>
<g id="a_edge5_Node000003_Node000006"><a xlink:title=" ">
<path fill="none" stroke="#63b8ff" d="M483.1,-371.25C496.95,-372.97 511.57,-374.78 525.49,-376.51"/>
<polygon fill="#63b8ff" stroke="#63b8ff" points="525.13,-379.99 535.49,-377.75 525.99,-373.04 525.13,-379.99"/>
</a>
</g>
</g>
<!-- Node8 -->
<g id="Node000008" class="node">
<title>Node8</title>
<g id="a_Node000008"><a xlink:href="classcproperty.html#a31b26b5ffb20bbf8d8ee38e0755a9819" target="_top" xlink:title="Sets the getter callback function.">
<polygon fill="white" stroke="#666666" points="654,-351.5 536,-351.5 536,-332.5 654,-332.5 654,-351.5"/>
<text text-anchor="middle" x="595" y="-339.5" font-family="Helvetica,sans-Serif" font-size="10.00">cproperty::set_getter</text>
</a>
</g>
</g>
<!-- Node3&#45;&gt;Node8 -->
<g id="edge7_Node000003_Node000008" class="edge">
<title>Node3&#45;&gt;Node8</title>
<g id="a_edge7_Node000003_Node000008"><a xlink:title=" ">
<path fill="none" stroke="#63b8ff" d="M483.1,-355.12C497.03,-353.47 511.74,-351.73 525.73,-350.08"/>
<polygon fill="#63b8ff" stroke="#63b8ff" points="526.25,-353.54 535.77,-348.89 525.43,-346.59 526.25,-353.54"/>
</a>
</g>
</g>
<!-- Node9 -->
<g id="Node000009" class="node">
<title>Node9</title>
<g id="a_Node000009"><a xlink:href="classmetric__template.html#a85d83f331257a2bcbaca37f1eb4b5d5c" target="_top" xlink:title=" ">
<polygon fill="white" stroke="#666666" points="671,-314.5 519,-314.5 519,-295.5 671,-295.5 671,-314.5"/>
<text text-anchor="middle" x="595" y="-302.5" font-family="Helvetica,sans-Serif" font-size="10.00">metric_template::set_name</text>
</a>
</g>
</g>
<!-- Node3&#45;&gt;Node9 -->
<g id="edge8_Node000003_Node000009" class="edge">
<title>Node3&#45;&gt;Node9</title>
<g id="a_edge8_Node000003_Node000009"><a xlink:title=" ">
<path fill="none" stroke="#63b8ff" d="M451.65,-347.91C471.24,-339.85 496.22,-330.14 519,-323 525.61,-320.93 532.61,-318.96 539.58,-317.13"/>
<polygon fill="#63b8ff" stroke="#63b8ff" points="540.87,-320.42 549.7,-314.57 539.15,-313.63 540.87,-320.42"/>
</a>
</g>
</g>
<!-- Node10 -->
<g id="Node000010" class="node">
<title>Node10</title>
<g id="a_Node000010"><a xlink:href="classcproperty.html#a41a70e8e01c9b1a20b94d2dbf1a6b214" target="_top" xlink:title="Sets the owning object for callback invocation.">
<polygon fill="white" stroke="#666666" points="654.5,-277.5 535.5,-277.5 535.5,-258.5 654.5,-258.5 654.5,-277.5"/>
<text text-anchor="middle" x="595" y="-265.5" font-family="Helvetica,sans-Serif" font-size="10.00">cproperty::set_object</text>
</a>
</g>
</g>
<!-- Node3&#45;&gt;Node10 -->
<g id="edge9_Node000003_Node000010" class="edge">
<title>Node3&#45;&gt;Node10</title>
<g id="a_edge9_Node000003_Node000010"><a xlink:title=" ">
<path fill="none" stroke="#63b8ff" d="M432.18,-347.92C451.2,-330.44 484.97,-302.02 519,-286 523.13,-284.05 527.5,-282.31 531.95,-280.74"/>
<polygon fill="#63b8ff" stroke="#63b8ff" points="533.35,-283.97 541.81,-277.6 531.22,-277.3 533.35,-283.97"/>
</a>
</g>
</g>
<!-- Node11 -->
<g id="Node000011" class="node">
<title>Node11</title>
<g id="a_Node000011"><a xlink:href="classmetric__template.html#ad34828d0d75d5b0a656ef881620fbc7c" target="_top" xlink:title=" ">
<polygon fill="white" stroke="#666666" points="654.5,-571 535.5,-571 535.5,-541 654.5,-541 654.5,-571"/>
<text text-anchor="start" x="543.5" y="-559" font-family="Helvetica,sans-Serif" font-size="10.00">metric_template::set</text>
<text text-anchor="middle" x="595" y="-548" font-family="Helvetica,sans-Serif" font-size="10.00">_run_name</text>
</a>
</g>
</g>
<!-- Node3&#45;&gt;Node11 -->
<g id="edge10_Node000003_Node000011" class="edge">
<title>Node3&#45;&gt;Node11</title>
<g id="a_edge10_Node000003_Node000011"><a xlink:title=" ">
<path fill="none" stroke="#63b8ff" d="M421.51,-378.12C433.18,-411.05 465.38,-489.72 519,-532 521.31,-533.83 523.77,-535.51 526.33,-537.07"/>
<polygon fill="#63b8ff" stroke="#63b8ff" points="524.9,-540.28 535.36,-541.91 528.2,-534.1 524.9,-540.28"/>
</a>
</g>
</g>
<!-- Node15 -->
<g id="Node000015" class="node">
<title>Node15</title>
<g id="a_Node000015"><a xlink:href="classcproperty.html#af4583ba4cf4ebc53f870a2de8f110da7" target="_top" xlink:title="Sets the setter callback function.">
<polygon fill="white" stroke="#666666" points="653.5,-522.5 536.5,-522.5 536.5,-503.5 653.5,-503.5 653.5,-522.5"/>
<text text-anchor="middle" x="595" y="-510.5" font-family="Helvetica,sans-Serif" font-size="10.00">cproperty::set_setter</text>
</a>
</g>
</g>
<!-- Node3&#45;&gt;Node15 -->
<g id="edge15_Node000003_Node000015" class="edge">
<title>Node3&#45;&gt;Node15</title>
<g id="a_edge15_Node000003_Node000015"><a xlink:title=" ">
<path fill="none" stroke="#63b8ff" d="M423.96,-378.4C438.3,-406.26 472.44,-464.95 519,-495 521.48,-496.6 524.09,-498.06 526.78,-499.39"/>
<polygon fill="#63b8ff" stroke="#63b8ff" points="525.66,-502.71 536.23,-503.42 528.41,-496.27 525.66,-502.71"/>
</a>
</g>
</g>
<!-- Node16 -->
<g id="Node000016" class="node">
<title>Node16</title>
<g id="a_Node000016"><a xlink:href="classmetric__template.html#a5209be08253548a7a56bd2f08db31a8c" target="_top" xlink:title=" ">
<polygon fill="white" stroke="#666666" points="654.5,-240 535.5,-240 535.5,-210 654.5,-210 654.5,-240"/>
<text text-anchor="start" x="543.5" y="-228" font-family="Helvetica,sans-Serif" font-size="10.00">metric_template::set</text>
<text text-anchor="middle" x="595" y="-217" font-family="Helvetica,sans-Serif" font-size="10.00">_variables</text>
</a>
</g>
</g>
<!-- Node3&#45;&gt;Node16 -->
<g id="edge16_Node000003_Node000016" class="edge">
<title>Node3&#45;&gt;Node16</title>
<g id="a_edge16_Node000003_Node000016"><a xlink:title=" ">
<path fill="none" stroke="#63b8ff" d="M426.24,-347.73C442.54,-323.37 477.66,-275.74 519,-249 521.56,-247.35 524.24,-245.8 527,-244.35"/>
<polygon fill="#63b8ff" stroke="#63b8ff" points="528.52,-247.5 536.05,-240.06 525.52,-241.18 528.52,-247.5"/>
</a>
</g>
</g>
<!-- Node6&#45;&gt;Node7 -->
<g id="edge6_Node000006_Node000007" class="edge">
<title>Node6&#45;&gt;Node7</title>
<g id="a_edge6_Node000006_Node000007"><a xlink:title=" ">
<path fill="none" stroke="#63b8ff" d="M649.04,-369.94C656.59,-367.05 664.13,-363.73 671,-360 701.54,-343.41 732.11,-316.94 750.42,-299.77"/>
<polygon fill="#63b8ff" stroke="#63b8ff" points="753.11,-302.03 757.92,-292.6 748.27,-296.97 753.11,-302.03"/>
</a>
</g>
</g>
<!-- Node11&#45;&gt;Node7 -->
<g id="edge11_Node000011_Node000007" class="edge">
<title>Node11&#45;&gt;Node7</title>
<g id="a_edge11_Node000011_Node000007"><a xlink:title=" ">
<path fill="none" stroke="#63b8ff" d="M654.62,-543.12C660.6,-540.15 666.22,-536.5 671,-532 739.29,-467.69 759.91,-349.51 765.56,-302.77"/>
<polygon fill="#63b8ff" stroke="#63b8ff" points="769.05,-303.06 766.67,-292.74 762.09,-302.29 769.05,-303.06"/>
</a>
</g>
</g>
<!-- Node12 -->
<g id="Node000012" class="node">
<title>Node12</title>
<g id="a_Node000012"><a xlink:href="classtools.html#ad7229c72cee65da3605c4be82f9b42d4" target="_top" xlink:title="Checks if a string contains a specific substring.">
<polygon fill="white" stroke="#666666" points="817,-528.5 720,-528.5 720,-509.5 817,-509.5 817,-528.5"/>
<text text-anchor="middle" x="768.5" y="-516.5" font-family="Helvetica,sans-Serif" font-size="10.00">tools::has_string</text>
</a>
</g>
</g>
<!-- Node11&#45;&gt;Node12 -->
<g id="edge12_Node000011_Node000012" class="edge">
<title>Node11&#45;&gt;Node12</title>
<g id="a_edge12_Node000011_Node000012"><a xlink:title=" ">
<path fill="none" stroke="#63b8ff" d="M654.54,-543.37C673.62,-539.25 694.71,-534.7 713.45,-530.66"/>
<polygon fill="#63b8ff" stroke="#63b8ff" points="714.26,-534.07 723.3,-528.54 712.79,-527.22 714.26,-534.07"/>
</a>
</g>
</g>
<!-- Node13 -->
<g id="Node000013" class="node">
<title>Node13</title>
<g id="a_Node000013"><a xlink:href="classtools.html#a47d3d261edcb898daab56721e18d1e67" target="_top" xlink:title="Checks if a path refers to an existing file.">
<polygon fill="white" stroke="#666666" points="806,-565.5 731,-565.5 731,-546.5 806,-546.5 806,-565.5"/>
<text text-anchor="middle" x="768.5" y="-553.5" font-family="Helvetica,sans-Serif" font-size="10.00">tools::is_file</text>
</a>
</g>
</g>
<!-- Node11&#45;&gt;Node13 -->
<g id="edge13_Node000011_Node000013" class="edge">
<title>Node11&#45;&gt;Node13</title>
<g id="a_edge13_Node000011_Node000013"><a xlink:title=" ">
<path fill="none" stroke="#63b8ff" d="M654.54,-556C676.21,-556 700.46,-556 720.92,-556"/>
<polygon fill="#63b8ff" stroke="#63b8ff" points="720.93,-559.5 730.93,-556 720.93,-552.5 720.93,-559.5"/>
</a>
</g>
</g>
<!-- Node14 -->
<g id="Node000014" class="node">
<title>Node14</title>
<g id="a_Node000014"><a xlink:href="classtools.html#a352a6965f2f3c768f0f4ecd1f978fcc0" target="_top" xlink:title="Splits a string into a vector of substrings based on a delimiter.">
<polygon fill="white" stroke="#666666" points="802.5,-602.5 734.5,-602.5 734.5,-583.5 802.5,-583.5 802.5,-602.5"/>
<text text-anchor="middle" x="768.5" y="-590.5" font-family="Helvetica,sans-Serif" font-size="10.00">tools::split</text>
</a>
</g>
</g>
<!-- Node11&#45;&gt;Node14 -->
<g id="edge14_Node000011_Node000014" class="edge">
<title>Node11&#45;&gt;Node14</title>
<g id="a_edge14_Node000011_Node000014"><a xlink:title=" ">
<path fill="none" stroke="#63b8ff" d="M654.54,-568.63C677.39,-573.56 703.11,-579.11 724.24,-583.67"/>
<polygon fill="#63b8ff" stroke="#63b8ff" points="723.69,-587.13 734.2,-585.82 725.17,-580.29 723.69,-587.13"/>
</a>
</g>
</g>
<!-- Node16&#45;&gt;Node14 -->
<g id="edge18_Node000016_Node000014" class="edge">
<title>Node16&#45;&gt;Node14</title>
<g id="a_edge18_Node000016_Node000014"><a xlink:title=" ">
<path fill="none" stroke="#63b8ff" d="M654.76,-236.14C660.95,-239.4 666.59,-243.6 671,-249 763.29,-361.84 613.56,-463.12 707,-575 711.58,-580.48 717.75,-584.34 724.4,-587.04"/>
<polygon fill="#63b8ff" stroke="#63b8ff" points="723.77,-590.52 734.36,-590.24 725.91,-583.85 723.77,-590.52"/>
</a>
</g>
</g>
<!-- Node16&#45;&gt;Node17 -->
<g id="edge17_Node000016_Node000017" class="edge">
<title>Node16&#45;&gt;Node17</title>
<g id="a_edge17_Node000016_Node000017"><a xlink:title=" ">
<path fill="none" stroke="#63b8ff" d="M627.86,-209.95C659.32,-195.09 707.07,-172.54 737.78,-158.04"/>
<polygon fill="#63b8ff" stroke="#63b8ff" points="739.56,-161.07 747.11,-153.63 736.57,-154.74 739.56,-161.07"/>
</a>
</g>
</g>
<!-- Node18&#45;&gt;Node7 -->
<g id="edge20_Node000018_Node000007" class="edge">
<title>Node18&#45;&gt;Node7</title>
<g id="a_edge20_Node000018_Node000007"><a xlink:title=" ">
<path fill="none" stroke="#63b8ff" d="M609.08,-115.65C624.54,-127.31 650.74,-147.89 671,-168 703.31,-200.07 736.46,-241.92 754.26,-265.27"/>
<polygon fill="#63b8ff" stroke="#63b8ff" points="751.47,-267.39 760.29,-273.25 757.05,-263.17 751.47,-267.39"/>
</a>
</g>
</g>
<!-- Node18&#45;&gt;Node17 -->
<g id="edge22_Node000018_Node000017" class="edge">
<title>Node18&#45;&gt;Node17</title>
<g id="a_edge22_Node000018_Node000017"><a xlink:title=" ">
<path fill="none" stroke="#63b8ff" d="M639.28,-115.59C662.11,-120.65 690.32,-126.9 714.46,-132.25"/>
<polygon fill="#63b8ff" stroke="#63b8ff" points="714.01,-135.73 724.53,-134.48 715.53,-128.9 714.01,-135.73"/>
</a>
</g>
</g>
<!-- Node19 -->
<g id="Node000019" class="node">
<title>Node19</title>
<g id="a_Node000019"><a xlink:href="metric_2cxx_2base_8cxx.html#a9d5b281373d6c58d7eca2aec10ca074c" target="_top" xlink:title=" ">
<polygon fill="white" stroke="#666666" points="817.5,-115.5 719.5,-115.5 719.5,-96.5 817.5,-96.5 817.5,-115.5"/>
<text text-anchor="middle" x="768.5" y="-103.5" font-family="Helvetica,sans-Serif" font-size="10.00">enums_to_string</text>
</a>
</g>
</g>
<!-- Node18&#45;&gt;Node19 -->
<g id="edge21_Node000018_Node000019" class="edge">
<title>Node18&#45;&gt;Node19</title>
<g id="a_edge21_Node000018_Node000019"><a xlink:title=" ">
<path fill="none" stroke="#63b8ff" d="M669.73,-106C682.78,-106 696.21,-106 708.77,-106"/>
<polygon fill="#63b8ff" stroke="#63b8ff" points="709.1,-109.5 719.1,-106 709.1,-102.5 709.1,-109.5"/>
</a>
</g>
</g>
<!-- Node20&#45;&gt;Node14 -->
<g id="edge24_Node000020_Node000014" class="edge">
<title>Node20&#45;&gt;Node14</title>
<g id="a_edge24_Node000020_Node000014"><a xlink:title=" ">
<path fill="none" stroke="#63b8ff" d="M426.87,-522.54C444.33,-537.92 481.41,-567.73 519,-580 588.01,-602.53 673.5,-601.09 724.1,-597.43"/>
<polygon fill="#63b8ff" stroke="#63b8ff" points="724.65,-600.9 734.34,-596.62 724.1,-593.92 724.65,-600.9"/>
</a>
</g>
</g>
</g>
</svg>

<g id="navigator" transform="translate(0 0)" fill="#404254">
  <rect fill="#f2f5e9" fill-opacity="0.5" stroke="#606060" stroke-width=".5" x="0" y="0" width="60" height="60"/>
  <use id="zoomplus" xlink:href="#zoomPlus" x="17" y="9" onmousedown="handleZoom(evt,'in')"/>
  <use id="zoomminus" xlink:href="#zoomMin" x="42" y="9" onmousedown="handleZoom(evt,'out')"/>
  <use id="reset" xlink:href="#resetDef" x="30" y="36" onmousedown="handleReset()"/>
   <use id="arrowup" xlink:href="#arrowUp" x="0" y="0" onmousedown="handlePan(0,-1)"/>
  <use id="arrowright" xlink:href="#arrowRight" x="0" y="0" onmousedown="handlePan(1,0)"/>
  <use id="arrowdown" xlink:href="#arrowDown" x="0" y="0" onmousedown="handlePan(0,1)"/>
  <use id="arrowleft" xlink:href="#arrowLeft" x="0" y="0" onmousedown="handlePan(-1,0)"/>
</g>
<svg viewBox="0 0 15 15" width="100%" height="30px" preserveAspectRatio="xMaxYMin meet">
 <g id="arrow_out" transform="scale(0.3 0.3)">
  <a xlink:href="classmetric__template_a422951eb9279ed05c885795ebeed0e5b_cgraph_org.svg" target="_base">
   <rect id="button" ry="5" rx="5" y="6" x="6" height="38" width="38"
        fill="#f2f5e9" fill-opacity="0.5" stroke="#606060" stroke-width="1.0"/>
   <path id="arrow"
     d="M 11.500037,31.436501 C 11.940474,20.09759 22.043105,11.32322 32.158766,21.979434 L 37.068811,17.246167 C 37.068811,17.246167 37.088388,32 37.088388,32 L 22.160133,31.978069 C 22.160133,31.978069 26.997745,27.140456 26.997745,27.140456 C 18.528582,18.264221 13.291696,25.230495 11.500037,31.436501 z"
     style="fill:#404040;"/>
  </a>
 </g>
</svg>

<style type='text/css'>
<![CDATA[
[data-mouse-over-selected='false'] { opacity: 0.7; }
[data-mouse-over-selected='true']  { opacity: 1.0; }
]]>
</style>
<script type="application/ecmascript"><![CDATA[
document.addEventListener('DOMContentLoaded', (event) => {
  highlightEdges();
  highlightAdjacentNodes();
});
]]></script>
</svg>
