<?xml version="1.0" encoding="UTF-8" standalone="no"?>
<!DOCTYPE svg PUBLIC "-//W3C//DTD SVG 1.1//EN"
 "http://www.w3.org/Graphics/SVG/1.1/DTD/svg11.dtd">
<!-- Generated by graphviz version 2.43.0 (0)
 -->
<!-- Title: combinatorial::merge Pages: 1 -->
<svg width="422pt" height="94pt"
 viewBox="0.00 0.00 422.00 93.50" xmlns="http://www.w3.org/2000/svg" xmlns:xlink="http://www.w3.org/1999/xlink">

<svg id="main" version="1.1" xmlns="http://www.w3.org/2000/svg" xmlns:xlink="http://www.w3.org/1999/xlink" xml:space="preserve" onload="init(evt)">
<style type="text/css"><![CDATA[
.node, .edge {opacity: 0.7;}
.node.selected, .edge.selected {opacity: 1;}
.edge:hover path { stroke: red; }
.edge:hover polygon { stroke: red; fill: red; }
]]></style>
<script type="application/ecmascript" xlink:href="svg.min.js"/>
<svg id="graph" class="graph">
<g id="graph0" class="graph" transform="scale(1 1) rotate(0) translate(4 89.5)">
<title>combinatorial::merge</title>
<!-- Node1 -->
<g id="Node000001" class="node">
<title>Node1</title>
<g id="a_Node000001"><a xlink:title="Merges results from another selection.">
<polygon fill="#999999" stroke="#666666" points="122,-54.5 0,-54.5 0,-35.5 122,-35.5 122,-54.5"/>
<text text-anchor="middle" x="61" y="-42.5" font-family="Helvetica,sans-Serif" font-size="10.00">combinatorial::merge</text>
</a>
</g>
</g>
<!-- Node2 -->
<g id="Node000002" class="node">
<title>Node2</title>
<g id="a_Node000002"><a xlink:href="merge__cast_8h.html#a205af11d07be8d10770e7392817fc5c3" target="_top" xlink:title=" ">
<polygon fill="white" stroke="#666666" points="250.5,-85.5 175.5,-85.5 175.5,-66.5 250.5,-66.5 250.5,-85.5"/>
<text text-anchor="middle" x="213" y="-73.5" font-family="Helvetica,sans-Serif" font-size="10.00">merge_data</text>
</a>
</g>
</g>
<!-- Node1&#45;&gt;Node2 -->
<g id="edge1_Node000001_Node000002" class="edge">
<title>Node1&#45;&gt;Node2</title>
<g id="a_edge1_Node000001_Node000002"><a xlink:title=" ">
<path fill="none" stroke="#63b8ff" d="M108.23,-54.55C126.39,-58.31 147.2,-62.61 165.39,-66.37"/>
<polygon fill="#63b8ff" stroke="#63b8ff" points="164.69,-69.8 175.2,-68.39 166.11,-62.94 164.69,-69.8"/>
</a>
</g>
</g>
<!-- Node3 -->
<g id="Node000003" class="node">
<title>Node3</title>
<g id="a_Node000003"><a xlink:href="classselection__template.html#ae5606e994231fae57abe42e4f0ec6202" target="_top" xlink:title="Writes a particle collection to output.">
<polygon fill="white" stroke="#666666" points="268,-30 158,-30 158,0 268,0 268,-30"/>
<text text-anchor="start" x="166" y="-18" font-family="Helvetica,sans-Serif" font-size="10.00">selection_template</text>
<text text-anchor="middle" x="213" y="-7" font-family="Helvetica,sans-Serif" font-size="10.00">::write</text>
</a>
</g>
</g>
<!-- Node1&#45;&gt;Node3 -->
<g id="edge2_Node000001_Node000003" class="edge">
<title>Node1&#45;&gt;Node3</title>
<g id="a_edge2_Node000001_Node000003"><a xlink:title=" ">
<path fill="none" stroke="#63b8ff" d="M109.87,-35.43C121.92,-33.02 135.04,-30.39 147.74,-27.85"/>
<polygon fill="#63b8ff" stroke="#63b8ff" points="148.69,-31.23 157.81,-25.84 147.31,-24.37 148.69,-31.23"/>
</a>
</g>
</g>
<!-- Node3&#45;&gt;Node3 -->
<g id="edge5_Node000003_Node000003" class="edge">
<title>Node3&#45;&gt;Node3</title>
<g id="a_edge5_Node000003_Node000003"><a xlink:title=" ">
<path fill="none" stroke="#63b8ff" d="M187.34,-30.28C181.63,-39.41 190.19,-48 213,-48 226.54,-48 235.06,-44.97 238.56,-40.6"/>
<polygon fill="#63b8ff" stroke="#63b8ff" points="242.06,-40.31 238.66,-30.28 235.06,-40.24 242.06,-40.31"/>
</a>
</g>
</g>
<!-- Node4 -->
<g id="Node000004" class="node">
<title>Node4</title>
<g id="a_Node000004"><a xlink:href="classselection__template.html#a81497ddb8a1a46c8d4e715cf9733ef61" target="_top" xlink:title="Switch board for dispatching particle attributes.">
<polygon fill="white" stroke="#666666" points="414,-30 304,-30 304,0 414,0 414,-30"/>
<text text-anchor="start" x="312" y="-18" font-family="Helvetica,sans-Serif" font-size="10.00">selection_template</text>
<text text-anchor="middle" x="359" y="-7" font-family="Helvetica,sans-Serif" font-size="10.00">::switch_board</text>
</a>
</g>
</g>
<!-- Node3&#45;&gt;Node4 -->
<g id="edge3_Node000003_Node000004" class="edge">
<title>Node3&#45;&gt;Node4</title>
<g id="a_edge3_Node000003_Node000004"><a xlink:title=" ">
<path fill="none" stroke="#63b8ff" d="M268.03,-15C276.31,-15 284.94,-15 293.42,-15"/>
<polygon fill="#63b8ff" stroke="#63b8ff" points="293.67,-18.5 303.67,-15 293.67,-11.5 293.67,-18.5"/>
</a>
</g>
</g>
<!-- Node4&#45;&gt;Node4 -->
<g id="edge4_Node000004_Node000004" class="edge">
<title>Node4&#45;&gt;Node4</title>
<g id="a_edge4_Node000004_Node000004"><a xlink:title=" ">
<path fill="none" stroke="#63b8ff" d="M333.34,-30.28C327.63,-39.41 336.19,-48 359,-48 372.54,-48 381.06,-44.97 384.56,-40.6"/>
<polygon fill="#63b8ff" stroke="#63b8ff" points="388.06,-40.31 384.66,-30.28 381.06,-40.24 388.06,-40.31"/>
</a>
</g>
</g>
</g>
</svg>
</svg>

<style type='text/css'>
<![CDATA[
[data-mouse-over-selected='false'] { opacity: 0.7; }
[data-mouse-over-selected='true']  { opacity: 1.0; }
]]>
</style>
<script type="application/ecmascript"><![CDATA[
document.addEventListener('DOMContentLoaded', (event) => {
  highlightEdges();
  highlightAdjacentNodes();
});
]]></script>
</svg>
