<?xml version="1.0" encoding="UTF-8" standalone="no"?>
<!DOCTYPE svg PUBLIC "-//W3C//DTD SVG 1.1//EN"
 "http://www.w3.org/Graphics/SVG/1.1/DTD/svg11.dtd">
<!-- Generated by graphviz version 2.43.0 (0)
 -->
<!-- Title: io::root_size Pages: 1 -->
<svg width="334pt" height="156pt"
 viewBox="0.00 0.00 334.00 156.00" xmlns="http://www.w3.org/2000/svg" xmlns:xlink="http://www.w3.org/1999/xlink">
<g id="graph0" class="graph" transform="scale(1 1) rotate(0) translate(4 152)">
<title>io::root_size</title>
<!-- Node1 -->
<g id="Node000001" class="node">
<title>Node1</title>
<g id="a_Node000001"><a xlink:title="Retrieves the sizes (number of entries) of TTrees in the open ROOT files.">
<polygon fill="#999999" stroke="#666666" points="76,-74 0,-74 0,-55 76,-55 76,-74"/>
<text text-anchor="middle" x="38" y="-62" font-family="Helvetica,sans-Serif" font-size="10.00">io::root_size</text>
</a>
</g>
</g>
<!-- Node2 -->
<g id="Node000002" class="node">
<title>Node2</title>
<g id="a_Node000002"><a xlink:href="classio.html#aacb050c4cb6c10038d6bf8edb7244a28" target="_top" xlink:title="Scans for keys (e.g., TTree names, TBranch names) in the open ROOT files.">
<polygon fill="white" stroke="#666666" points="194,-74 112,-74 112,-55 194,-55 194,-74"/>
<text text-anchor="middle" x="153" y="-62" font-family="Helvetica,sans-Serif" font-size="10.00">io::scan_keys</text>
</a>
</g>
</g>
<!-- Node1&#45;&gt;Node2 -->
<g id="edge1_Node000001_Node000002" class="edge">
<title>Node1&#45;&gt;Node2</title>
<g id="a_edge1_Node000001_Node000002"><a xlink:title=" ">
<path fill="none" stroke="#63b8ff" d="M76,-64.5C84.24,-64.5 93.1,-64.5 101.77,-64.5"/>
<polygon fill="#63b8ff" stroke="#63b8ff" points="101.8,-68 111.8,-64.5 101.8,-61 101.8,-68"/>
</a>
</g>
</g>
<!-- Node3 -->
<g id="Node000003" class="node">
<title>Node3</title>
<g id="a_Node000003"><a xlink:href="structs_2cxx_2base_8cxx.html#a4eee7b291ed2cdcd4e3c2496c603c48c" target="_top" xlink:title="Counts occurrences of a substring in a string.">
<polygon fill="white" stroke="#666666" points="300,-130 256,-130 256,-111 300,-111 300,-130"/>
<text text-anchor="middle" x="278" y="-118" font-family="Helvetica,sans-Serif" font-size="10.00">count</text>
</a>
</g>
</g>
<!-- Node2&#45;&gt;Node3 -->
<g id="edge2_Node000002_Node000003" class="edge">
<title>Node2&#45;&gt;Node3</title>
<g id="a_edge2_Node000002_Node000003"><a xlink:title=" ">
<path fill="none" stroke="#63b8ff" d="M171.88,-74.06C187.14,-82.07 209.75,-93.58 230,-102.5 235.2,-104.79 240.79,-107.08 246.23,-109.21"/>
<polygon fill="#63b8ff" stroke="#63b8ff" points="245.17,-112.56 255.76,-112.87 247.68,-106.02 245.17,-112.56"/>
</a>
</g>
</g>
<!-- Node4 -->
<g id="Node000004" class="node">
<title>Node4</title>
<g id="a_Node000004"><a xlink:href="classio.html#a65ca69ec5f12d0f3a463396bcff84d77" target="_top" xlink:title="Ends the current I/O session, closing any open files.">
<polygon fill="white" stroke="#666666" points="303,-93 253,-93 253,-74 303,-74 303,-93"/>
<text text-anchor="middle" x="278" y="-81" font-family="Helvetica,sans-Serif" font-size="10.00">io::end</text>
</a>
</g>
</g>
<!-- Node2&#45;&gt;Node4 -->
<g id="edge4_Node000002_Node000004" class="edge">
<title>Node2&#45;&gt;Node4</title>
<g id="a_edge4_Node000002_Node000004"><a xlink:title=" ">
<path fill="none" stroke="#63b8ff" d="M194.27,-70.72C209.99,-73.15 227.8,-75.9 242.87,-78.23"/>
<polygon fill="#63b8ff" stroke="#63b8ff" points="242.38,-81.69 252.8,-79.76 243.45,-74.78 242.38,-81.69"/>
</a>
</g>
</g>
<!-- Node5 -->
<g id="Node000005" class="node">
<title>Node5</title>
<g id="a_Node000005"><a xlink:href="classtools.html#a3d538da5310467c9321b27cd6a75b9af" target="_top" xlink:title="Checks if a string ends with a specific substring.">
<polygon fill="white" stroke="#666666" points="326,-56 230,-56 230,-37 326,-37 326,-56"/>
<text text-anchor="middle" x="278" y="-44" font-family="Helvetica,sans-Serif" font-size="10.00">tools::ends_with</text>
</a>
</g>
</g>
<!-- Node2&#45;&gt;Node5 -->
<g id="edge5_Node000002_Node000005" class="edge">
<title>Node2&#45;&gt;Node5</title>
<g id="a_edge5_Node000002_Node000005"><a xlink:title=" ">
<path fill="none" stroke="#63b8ff" d="M194.27,-58.61C202.43,-57.41 211.16,-56.14 219.77,-54.87"/>
<polygon fill="#63b8ff" stroke="#63b8ff" points="220.4,-58.32 229.79,-53.41 219.39,-51.39 220.4,-58.32"/>
</a>
</g>
</g>
<!-- Node6 -->
<g id="Node000006" class="node">
<title>Node6</title>
<g id="a_Node000006"><a xlink:href="classtools.html#a13633d4d63c55bcf537ff141e7605f13" target="_top" xlink:title="Checks if a vector of strings contains a specific string.">
<polygon fill="white" stroke="#666666" points="326,-19 230,-19 230,0 326,0 326,-19"/>
<text text-anchor="middle" x="278" y="-7" font-family="Helvetica,sans-Serif" font-size="10.00">tools::has_value</text>
</a>
</g>
</g>
<!-- Node2&#45;&gt;Node6 -->
<g id="edge6_Node000002_Node000006" class="edge">
<title>Node2&#45;&gt;Node6</title>
<g id="a_edge6_Node000002_Node000006"><a xlink:title=" ">
<path fill="none" stroke="#63b8ff" d="M173.54,-54.86C188.81,-47.42 210.61,-37 230,-28.5 234.19,-26.66 238.62,-24.78 243.02,-22.96"/>
<polygon fill="#63b8ff" stroke="#63b8ff" points="244.56,-26.11 252.49,-19.09 241.91,-19.63 244.56,-26.11"/>
</a>
</g>
</g>
<!-- Node3&#45;&gt;Node3 -->
<g id="edge3_Node000003_Node000003" class="edge">
<title>Node3&#45;&gt;Node3</title>
<g id="a_edge3_Node000003_Node000003"><a xlink:title=" ">
<path fill="none" stroke="#63b8ff" d="M258.89,-130.08C249.59,-138.73 255.96,-148 278,-148 291.77,-148 299.43,-144.38 300.96,-139.55"/>
<polygon fill="#63b8ff" stroke="#63b8ff" points="304.12,-138.03 297.11,-130.08 297.64,-140.66 304.12,-138.03"/>
</a>
</g>
</g>
</g>
</svg>
