<?xml version="1.0" encoding="UTF-8" standalone="no"?>
<!DOCTYPE svg PUBLIC "-//W3C//DTD SVG 1.1//EN"
 "http://www.w3.org/Graphics/SVG/1.1/DTD/svg11.dtd">
<!-- Generated by graphviz version 2.43.0 (0)
 -->
<!-- Title: selection_template::vectorize Pages: 1 -->
<!--zoomable 517 -->

<svg id="main" version="1.1" xmlns="http://www.w3.org/2000/svg" xmlns:xlink="http://www.w3.org/1999/xlink" xml:space="preserve" onload="init(evt)">
<style type="text/css"><![CDATA[
.node, .edge {opacity: 0.7;}
.node.selected, .edge.selected {opacity: 1;}
.edge:hover path { stroke: red; }
.edge:hover polygon { stroke: red; fill: red; }
]]></style>

<defs>
  <circle id="rim" cx="0" cy="0" r="7"/>
  <circle id="rim2" cx="0" cy="0" r="3.5"/>
  <g id="zoomPlus">
    <use xlink:href="#rim" fill="#404040"><set attributeName="fill" to="#808080" begin="zoomplus.mouseover" end="zoomplus.mouseout"/></use>
    <path d="M-4,0h8M0,-4v8" fill="none" stroke="white" stroke-width="1.5" pointer-events="none"/>
  </g>
  <g id="zoomMin">
    <use xlink:href="#rim" fill="#404040"><set attributeName="fill" to="#808080" begin="zoomminus.mouseover" end="zoomminus.mouseout"/></use>
    <path d="M-4,0h8" fill="none" stroke="white" stroke-width="1.5" pointer-events="none"/>
  </g>
  <g id="arrowUp" transform="translate(30 24)">
    <use xlink:href="#rim"/>
    <path pointer-events="none" fill="none" stroke="white" stroke-width="1.5" d="M0,-3.0v7 M-2.5,-0.5L0,-3.0L2.5,-0.5"/>
  </g>
  <g id="arrowRight" transform="rotate(90) translate(36 -43)">
    <use xlink:href="#rim"/>
    <path pointer-events="none" fill="none" stroke="white" stroke-width="1.5" d="M0,-3.0v7 M-2.5,-0.5L0,-3.0L2.5,-0.5"/>
  </g>
  <g id="arrowDown" transform="rotate(180) translate(-30 -48)">
    <use xlink:href="#rim"/>
    <path pointer-events="none" fill="none" stroke="white" stroke-width="1.5" d="M0,-3.0v7 M-2.5,-0.5L0,-3.0L2.5,-0.5"/>
  </g>
  <g id="arrowLeft" transform="rotate(270) translate(-36 17)">
    <use xlink:href="#rim"/>
    <path pointer-events="none" fill="none" stroke="white" stroke-width="1.5" d="M0,-3.0v7 M-2.5,-0.5L0,-3.0L2.5,-0.5"/>
  </g>
  <g id="resetDef">
    <use xlink:href="#rim2" fill="#404040"><set attributeName="fill" to="#808080" begin="reset.mouseover" end="reset.mouseout"/></use>
  </g>
</defs>
<script type="application/ecmascript">
var viewWidth = 606;
var viewHeight = 517;
var sectionId = 'dynsection-49';
</script>
<script type="application/ecmascript" xlink:href="svg.min.js"/>
<svg id="graph" class="graph">
<g id="viewport">
<title>selection_template::vectorize</title>
<!-- Node1 -->
<g id="Node000001" class="node">
<title>Node1</title>
<g id="a_Node000001"><a xlink:title="Converts a map to a vector.">
<polygon fill="#999999" stroke="#666666" points="598,-264.5 488,-264.5 488,-234.5 598,-234.5 598,-264.5"/>
<text text-anchor="start" x="496" y="-252.5" font-family="Helvetica,sans-Serif" font-size="10.00">selection_template</text>
<text text-anchor="middle" x="543" y="-241.5" font-family="Helvetica,sans-Serif" font-size="10.00">::vectorize</text>
</a>
</g>
</g>
<!-- Node2 -->
<g id="Node000002" class="node">
<title>Node2</title>
<g id="a_Node000002"><a xlink:href="classmatching.html#a6a20dfdb8f6fa5a23a6859d869040417" target="_top" xlink:title=" ">
<polygon fill="white" stroke="#666666" points="263.5,-505 160.5,-505 160.5,-486 263.5,-486 263.5,-505"/>
<text text-anchor="middle" x="212" y="-493" font-family="Helvetica,sans-Serif" font-size="10.00">matching::current</text>
</a>
</g>
</g>
<!-- Node1&#45;&gt;Node2 -->
<g id="edge1_Node000001_Node000002" class="edge">
<title>Node1&#45;&gt;Node2</title>
<g id="a_edge1_Node000001_Node000002"><a xlink:title=" ">
<path fill="none" stroke="#63b8ff" d="M540.11,-274.76C535.07,-322.43 516.86,-425.18 452,-473.5 397.7,-513.95 316.04,-511.91 263.63,-505.03"/>
<polygon fill="#63b8ff" stroke="#63b8ff" points="543.61,-274.96 541.07,-264.68 536.64,-274.31 543.61,-274.96"/>
</a>
</g>
</g>
<!-- Node4 -->
<g id="Node000004" class="node">
<title>Node4</title>
<g id="a_Node000004"><a xlink:href="classmatching.html#a6925aacb40ca0e99f178d44959956fdb" target="_top" xlink:title=" ">
<polygon fill="white" stroke="#666666" points="279,-449 145,-449 145,-430 279,-430 279,-449"/>
<text text-anchor="middle" x="212" y="-437" font-family="Helvetica,sans-Serif" font-size="10.00">matching::experimental</text>
</a>
</g>
</g>
<!-- Node1&#45;&gt;Node4 -->
<g id="edge3_Node000001_Node000004" class="edge">
<title>Node1&#45;&gt;Node4</title>
<g id="a_edge3_Node000001_Node000004"><a xlink:title=" ">
<path fill="none" stroke="#63b8ff" d="M539.19,-274.68C532.76,-318.89 512.49,-409.47 452,-448.5 385.01,-491.72 284.07,-465.05 237.78,-449.01"/>
<polygon fill="#63b8ff" stroke="#63b8ff" points="542.67,-275.12 540.52,-264.74 535.73,-274.19 542.67,-275.12"/>
</a>
</g>
</g>
<!-- Node5 -->
<g id="Node000005" class="node">
<title>Node5</title>
<g id="a_Node000005"><a xlink:href="classmatching.html#a04995b471b7aed459aeec59b3ea9a81b" target="_top" xlink:title=" ">
<polygon fill="white" stroke="#666666" points="443,-439 324,-439 324,-420 443,-420 443,-439"/>
<text text-anchor="middle" x="383.5" y="-427" font-family="Helvetica,sans-Serif" font-size="10.00">matching::match_obj</text>
</a>
</g>
</g>
<!-- Node1&#45;&gt;Node5 -->
<g id="edge5_Node000001_Node000005" class="edge">
<title>Node1&#45;&gt;Node5</title>
<g id="a_edge5_Node000001_Node000005"><a xlink:title=" ">
<path fill="none" stroke="#63b8ff" d="M533.86,-274.42C521.46,-308.63 494.67,-369.95 452,-405.5 444.45,-411.79 435.13,-416.48 425.86,-419.97"/>
<polygon fill="#63b8ff" stroke="#63b8ff" points="537.25,-275.32 537.25,-264.73 530.64,-273.01 537.25,-275.32"/>
</a>
</g>
</g>
<!-- Node6 -->
<g id="Node000006" class="node">
<title>Node6</title>
<g id="a_Node000006"><a xlink:href="classmatching.html#a7c3eb589ac6ae85490aa698d73fe8b88" target="_top" xlink:title=" ">
<polygon fill="white" stroke="#666666" points="269.5,-412 154.5,-412 154.5,-393 269.5,-393 269.5,-412"/>
<text text-anchor="middle" x="212" y="-400" font-family="Helvetica,sans-Serif" font-size="10.00">matching::reference</text>
</a>
</g>
</g>
<!-- Node1&#45;&gt;Node6 -->
<g id="edge7_Node000001_Node000006" class="edge">
<title>Node1&#45;&gt;Node6</title>
<g id="a_edge7_Node000001_Node000006"><a xlink:title=" ">
<path fill="none" stroke="#63b8ff" d="M531.47,-274.11C517.72,-302.95 490.76,-349.69 452,-372.5 396.32,-405.27 320.8,-409.42 269.66,-407.55"/>
<polygon fill="#63b8ff" stroke="#63b8ff" points="534.79,-275.27 535.78,-264.73 528.42,-272.35 534.79,-275.27"/>
</a>
</g>
</g>
<!-- Node7 -->
<g id="Node000007" class="node">
<title>Node7</title>
<g id="a_Node000007"><a xlink:href="classchildrenkinematics.html#a9dfe1425443601d0af03eab580722b76" target="_top" xlink:title="Alternative selection strategy method.">
<polygon fill="white" stroke="#666666" points="438.5,-363.5 328.5,-363.5 328.5,-333.5 438.5,-333.5 438.5,-363.5"/>
<text text-anchor="start" x="336.5" y="-351.5" font-family="Helvetica,sans-Serif" font-size="10.00">childrenkinematics</text>
<text text-anchor="middle" x="383.5" y="-340.5" font-family="Helvetica,sans-Serif" font-size="10.00">::strategy</text>
</a>
</g>
</g>
<!-- Node1&#45;&gt;Node7 -->
<g id="edge9_Node000001_Node000007" class="edge">
<title>Node1&#45;&gt;Node7</title>
<g id="a_edge9_Node000001_Node000007"><a xlink:title=" ">
<path fill="none" stroke="#63b8ff" d="M519.57,-271.57C502.26,-287.66 477.1,-309.08 452,-323.5 445.61,-327.17 438.58,-330.48 431.54,-333.4"/>
<polygon fill="#63b8ff" stroke="#63b8ff" points="522.08,-274.02 526.94,-264.6 517.27,-268.93 522.08,-274.02"/>
</a>
</g>
</g>
<!-- Node8 -->
<g id="Node000008" class="node">
<title>Node8</title>
<g id="a_Node000008"><a xlink:href="classdecaymodes.html#abfec366758f5b7885063a349cfcda394" target="_top" xlink:title="Alternative selection strategy method.">
<polygon fill="white" stroke="#666666" points="446,-315 321,-315 321,-296 446,-296 446,-315"/>
<text text-anchor="middle" x="383.5" y="-303" font-family="Helvetica,sans-Serif" font-size="10.00">decaymodes::strategy</text>
</a>
</g>
</g>
<!-- Node1&#45;&gt;Node8 -->
<g id="edge10_Node000001_Node000008" class="edge">
<title>Node1&#45;&gt;Node8</title>
<g id="a_edge10_Node000001_Node000008"><a xlink:title=" ">
<path fill="none" stroke="#63b8ff" d="M498.43,-268.6C483.81,-274.69 467.33,-281.21 452,-286.5 442.22,-289.87 431.49,-293.1 421.52,-295.91"/>
<polygon fill="#63b8ff" stroke="#63b8ff" points="499.88,-271.79 507.74,-264.68 497.17,-265.33 499.88,-271.79"/>
</a>
</g>
</g>
<!-- Node9 -->
<g id="Node000009" class="node">
<title>Node9</title>
<g id="a_Node000009"><a xlink:href="classtopjets.html#a72145e79c19febe5393d17220c980e2a" target="_top" xlink:title="Alternative selection strategy method.">
<polygon fill="white" stroke="#666666" points="432,-278 335,-278 335,-259 432,-259 432,-278"/>
<text text-anchor="middle" x="383.5" y="-266" font-family="Helvetica,sans-Serif" font-size="10.00">topjets::strategy</text>
</a>
</g>
</g>
<!-- Node1&#45;&gt;Node9 -->
<g id="edge11_Node000001_Node000009" class="edge">
<title>Node1&#45;&gt;Node9</title>
<g id="a_edge11_Node000001_Node000009"><a xlink:title=" ">
<path fill="none" stroke="#63b8ff" d="M477.46,-257.29C462.33,-259.11 446.47,-261.02 432.22,-262.74"/>
<polygon fill="#63b8ff" stroke="#63b8ff" points="478.29,-260.71 487.8,-256.04 477.45,-253.76 478.29,-260.71"/>
</a>
</g>
</g>
<!-- Node10 -->
<g id="Node000010" class="node">
<title>Node10</title>
<g id="a_Node000010"><a xlink:href="classtoptruthjets.html#a39c1afcec2800b351fc047fbfa4f009f" target="_top" xlink:title="Alternative selection strategy method.">
<polygon fill="white" stroke="#666666" points="443.5,-241 323.5,-241 323.5,-222 443.5,-222 443.5,-241"/>
<text text-anchor="middle" x="383.5" y="-229" font-family="Helvetica,sans-Serif" font-size="10.00">toptruthjets::strategy</text>
</a>
</g>
</g>
<!-- Node1&#45;&gt;Node10 -->
<g id="edge12_Node000001_Node000010" class="edge">
<title>Node1&#45;&gt;Node10</title>
<g id="a_edge12_Node000001_Node000010"><a xlink:title=" ">
<path fill="none" stroke="#63b8ff" d="M477.62,-242.14C466.38,-240.86 454.74,-239.53 443.65,-238.26"/>
<polygon fill="#63b8ff" stroke="#63b8ff" points="477.46,-245.65 487.8,-243.31 478.26,-238.69 477.46,-245.65"/>
</a>
</g>
</g>
<!-- Node11 -->
<g id="Node000011" class="node">
<title>Node11</title>
<g id="a_Node000011"><a xlink:href="classzprime.html#a36b1544f00cc1a4ed703ef304f923ea8" target="_top" xlink:title="Alternative selection strategy method.">
<polygon fill="white" stroke="#666666" points="432,-204 335,-204 335,-185 432,-185 432,-204"/>
<text text-anchor="middle" x="383.5" y="-192" font-family="Helvetica,sans-Serif" font-size="10.00">zprime::strategy</text>
</a>
</g>
</g>
<!-- Node1&#45;&gt;Node11 -->
<g id="edge13_Node000001_Node000011" class="edge">
<title>Node1&#45;&gt;Node11</title>
<g id="a_edge13_Node000001_Node000011"><a xlink:title=" ">
<path fill="none" stroke="#63b8ff" d="M498.85,-230.43C484.14,-224.29 467.5,-217.73 452,-212.5 442.92,-209.44 433.02,-206.55 423.66,-204.02"/>
<polygon fill="#63b8ff" stroke="#63b8ff" points="497.63,-233.72 508.2,-234.39 500.36,-227.27 497.63,-233.72"/>
</a>
</g>
</g>
<!-- Node12 -->
<g id="Node000012" class="node">
<title>Node12</title>
<g id="a_Node000012"><a xlink:href="classcombinatorial.html#a5cd8d199d3f8fe6c9f0b8e1c2e2f7bfd" target="_top" xlink:title="Alternative selection strategy method.">
<polygon fill="white" stroke="#666666" points="449,-167 318,-167 318,-148 449,-148 449,-167"/>
<text text-anchor="middle" x="383.5" y="-155" font-family="Helvetica,sans-Serif" font-size="10.00">combinatorial::strategy</text>
</a>
</g>
</g>
<!-- Node1&#45;&gt;Node12 -->
<g id="edge14_Node000001_Node000012" class="edge">
<title>Node1&#45;&gt;Node12</title>
<g id="a_edge14_Node000001_Node000012"><a xlink:title=" ">
<path fill="none" stroke="#63b8ff" d="M520.56,-227.32C503.44,-210.8 478.06,-188.88 452,-175.5 445.42,-172.12 438.14,-169.33 430.87,-167.04"/>
<polygon fill="#63b8ff" stroke="#63b8ff" points="518.25,-229.95 527.83,-234.48 523.16,-224.97 518.25,-229.95"/>
</a>
</g>
</g>
<!-- Node13 -->
<g id="Node000013" class="node">
<title>Node13</title>
<g id="a_Node000013"><a xlink:href="classvalidation.html#af388ba0e867008a75602581fdc2ed0f3" target="_top" xlink:title="Alternative selection strategy method.">
<polygon fill="white" stroke="#666666" points="439.5,-130 327.5,-130 327.5,-111 439.5,-111 439.5,-130"/>
<text text-anchor="middle" x="383.5" y="-118" font-family="Helvetica,sans-Serif" font-size="10.00">validation::strategy</text>
</a>
</g>
</g>
<!-- Node1&#45;&gt;Node13 -->
<g id="edge15_Node000001_Node000013" class="edge">
<title>Node1&#45;&gt;Node13</title>
<g id="a_edge15_Node000001_Node000013"><a xlink:title=" ">
<path fill="none" stroke="#63b8ff" d="M528.93,-225.73C513.73,-200.33 486.3,-160.73 452,-138.5 446.71,-135.07 440.78,-132.29 434.69,-130.04"/>
<polygon fill="#63b8ff" stroke="#63b8ff" points="525.91,-227.5 533.96,-234.38 531.96,-223.98 525.91,-227.5"/>
</a>
</g>
</g>
<!-- Node14 -->
<g id="Node000014" class="node">
<title>Node14</title>
<g id="a_Node000014"><a xlink:href="classselection__template.html#afa61f4f538c36ee7973c453f3898e778" target="_top" xlink:title="Sums particles from a map and returns the combined particle.">
<polygon fill="white" stroke="#666666" points="452,-93 315,-93 315,-74 452,-74 452,-93"/>
<text text-anchor="middle" x="383.5" y="-81" font-family="Helvetica,sans-Serif" font-size="10.00">selection_template::sum</text>
</a>
</g>
</g>
<!-- Node1&#45;&gt;Node14 -->
<g id="edge16_Node000001_Node000014" class="edge">
<title>Node1&#45;&gt;Node14</title>
<g id="a_edge16_Node000001_Node000014"><a xlink:title=" ">
<path fill="none" stroke="#63b8ff" d="M533.69,-224.87C521.24,-191.75 494.55,-133.34 452,-101.5 447.44,-98.08 442.27,-95.32 436.88,-93.07"/>
<polygon fill="#63b8ff" stroke="#63b8ff" points="530.4,-226.07 537.1,-234.28 536.99,-223.69 530.4,-226.07"/>
</a>
</g>
</g>
<!-- Node15 -->
<g id="Node000015" class="node">
<title>Node15</title>
<g id="a_Node000015"><a xlink:href="classcombinatorial.html#a48dc022790f1b182f51c9f20b3234b8d" target="_top" xlink:title=" ">
<polygon fill="white" stroke="#666666" points="444.5,-56 322.5,-56 322.5,-37 444.5,-37 444.5,-56"/>
<text text-anchor="middle" x="383.5" y="-44" font-family="Helvetica,sans-Serif" font-size="10.00">combinatorial::upcast</text>
</a>
</g>
</g>
<!-- Node1&#45;&gt;Node15 -->
<g id="edge17_Node000001_Node000015" class="edge">
<title>Node1&#45;&gt;Node15</title>
<g id="a_edge17_Node000001_Node000015"><a xlink:title=" ">
<path fill="none" stroke="#63b8ff" d="M536.84,-224.42C527.29,-184.45 503,-106.53 452,-64.5 447.88,-61.11 443.19,-58.35 438.23,-56.1"/>
<polygon fill="#63b8ff" stroke="#63b8ff" points="533.48,-225.43 539.11,-234.4 540.31,-223.88 533.48,-225.43"/>
</a>
</g>
</g>
<!-- Node16 -->
<g id="Node000016" class="node">
<title>Node16</title>
<g id="a_Node000016"><a xlink:href="classvalidation.html#ab69af03830ef30bea2edd3717a939792" target="_top" xlink:title=" ">
<polygon fill="white" stroke="#666666" points="435.5,-19 331.5,-19 331.5,0 435.5,0 435.5,-19"/>
<text text-anchor="middle" x="383.5" y="-7" font-family="Helvetica,sans-Serif" font-size="10.00">validation::upcast</text>
</a>
</g>
</g>
<!-- Node1&#45;&gt;Node16 -->
<g id="edge18_Node000001_Node000016" class="edge">
<title>Node1&#45;&gt;Node16</title>
<g id="a_edge18_Node000001_Node000016"><a xlink:title=" ">
<path fill="none" stroke="#63b8ff" d="M539.12,-224.46C532.48,-178.42 511.75,-80.24 452,-27.5 447.27,-23.33 441.68,-20.11 435.77,-17.62"/>
<polygon fill="#63b8ff" stroke="#63b8ff" points="535.67,-225.03 540.46,-234.47 542.61,-224.1 535.67,-225.03"/>
</a>
</g>
</g>
<!-- Node3 -->
<g id="Node000003" class="node">
<title>Node3</title>
<g id="a_Node000003"><a xlink:href="classmatching.html#afbde71106947fe0f714151794c7f6259" target="_top" xlink:title="Alternative selection strategy method.">
<polygon fill="white" stroke="#666666" points="109,-449 0,-449 0,-430 109,-430 109,-449"/>
<text text-anchor="middle" x="54.5" y="-437" font-family="Helvetica,sans-Serif" font-size="10.00">matching::strategy</text>
</a>
</g>
</g>
<!-- Node2&#45;&gt;Node3 -->
<g id="edge2_Node000002_Node000003" class="edge">
<title>Node2&#45;&gt;Node3</title>
<g id="a_edge2_Node000002_Node000003"><a xlink:title=" ">
<path fill="none" stroke="#63b8ff" d="M174.69,-482.42C146.26,-472.19 107.4,-458.19 81.88,-449"/>
<polygon fill="#63b8ff" stroke="#63b8ff" points="173.67,-485.78 184.27,-485.87 176.05,-479.19 173.67,-485.78"/>
</a>
</g>
</g>
<!-- Node4&#45;&gt;Node3 -->
<g id="edge4_Node000004_Node000003" class="edge">
<title>Node4&#45;&gt;Node3</title>
<g id="a_edge4_Node000004_Node000003"><a xlink:title=" ">
<path fill="none" stroke="#63b8ff" d="M134.51,-439.5C125.89,-439.5 117.24,-439.5 109,-439.5"/>
<polygon fill="#63b8ff" stroke="#63b8ff" points="134.6,-443 144.6,-439.5 134.6,-436 134.6,-443"/>
</a>
</g>
</g>
<!-- Node5&#45;&gt;Node4 -->
<g id="edge6_Node000005_Node000004" class="edge">
<title>Node5&#45;&gt;Node4</title>
<g id="a_edge6_Node000005_Node000004"><a xlink:title=" ">
<path fill="none" stroke="#63b8ff" d="M313.45,-433.57C302.16,-434.24 290.47,-434.93 279.25,-435.59"/>
<polygon fill="#63b8ff" stroke="#63b8ff" points="313.92,-437.05 323.69,-432.97 313.5,-430.06 313.92,-437.05"/>
</a>
</g>
</g>
<!-- Node6&#45;&gt;Node3 -->
<g id="edge8_Node000006_Node000003" class="edge">
<title>Node6&#45;&gt;Node3</title>
<g id="a_edge8_Node000006_Node000003"><a xlink:title=" ">
<path fill="none" stroke="#63b8ff" d="M161.17,-414.36C140.01,-419.39 115.66,-425.18 95.68,-429.94"/>
<polygon fill="#63b8ff" stroke="#63b8ff" points="162.04,-417.75 170.95,-412.03 160.42,-410.94 162.04,-417.75"/>
</a>
</g>
</g>
</g>
</svg>

<g id="navigator" transform="translate(0 0)" fill="#404254">
  <rect fill="#f2f5e9" fill-opacity="0.5" stroke="#606060" stroke-width=".5" x="0" y="0" width="60" height="60"/>
  <use id="zoomplus" xlink:href="#zoomPlus" x="17" y="9" onmousedown="handleZoom(evt,'in')"/>
  <use id="zoomminus" xlink:href="#zoomMin" x="42" y="9" onmousedown="handleZoom(evt,'out')"/>
  <use id="reset" xlink:href="#resetDef" x="30" y="36" onmousedown="handleReset()"/>
   <use id="arrowup" xlink:href="#arrowUp" x="0" y="0" onmousedown="handlePan(0,-1)"/>
  <use id="arrowright" xlink:href="#arrowRight" x="0" y="0" onmousedown="handlePan(1,0)"/>
  <use id="arrowdown" xlink:href="#arrowDown" x="0" y="0" onmousedown="handlePan(0,1)"/>
  <use id="arrowleft" xlink:href="#arrowLeft" x="0" y="0" onmousedown="handlePan(-1,0)"/>
</g>
<svg viewBox="0 0 15 15" width="100%" height="30px" preserveAspectRatio="xMaxYMin meet">
 <g id="arrow_out" transform="scale(0.3 0.3)">
  <a xlink:href="classselection__template_acfb4c50041c70205e08f6ccb4a850979_icgraph_org.svg" target="_base">
   <rect id="button" ry="5" rx="5" y="6" x="6" height="38" width="38"
        fill="#f2f5e9" fill-opacity="0.5" stroke="#606060" stroke-width="1.0"/>
   <path id="arrow"
     d="M 11.500037,31.436501 C 11.940474,20.09759 22.043105,11.32322 32.158766,21.979434 L 37.068811,17.246167 C 37.068811,17.246167 37.088388,32 37.088388,32 L 22.160133,31.978069 C 22.160133,31.978069 26.997745,27.140456 26.997745,27.140456 C 18.528582,18.264221 13.291696,25.230495 11.500037,31.436501 z"
     style="fill:#404040;"/>
  </a>
 </g>
</svg>

<style type='text/css'>
<![CDATA[
[data-mouse-over-selected='false'] { opacity: 0.7; }
[data-mouse-over-selected='true']  { opacity: 1.0; }
]]>
</style>
<script type="application/ecmascript"><![CDATA[
document.addEventListener('DOMContentLoaded', (event) => {
  highlightEdges();
  highlightAdjacentNodes();
});
]]></script>
</svg>
