<?xml version="1.0" encoding="UTF-8" standalone="no"?>
<!DOCTYPE svg PUBLIC "-//W3C//DTD SVG 1.1//EN"
 "http://www.w3.org/Graphics/SVG/1.1/DTD/svg11.dtd">
<!-- Generated by graphviz version 2.43.0 (0)
 -->
<!-- Title: analysis::check_cache Pages: 1 -->
<svg width="398pt" height="195pt"
 viewBox="0.00 0.00 398.00 195.00" xmlns="http://www.w3.org/2000/svg" xmlns:xlink="http://www.w3.org/1999/xlink">
<g id="graph0" class="graph" transform="scale(1 1) rotate(0) translate(4 191)">
<title>analysis::check_cache</title>
<!-- Node1 -->
<g id="Node000001" class="node">
<title>Node1</title>
<g id="a_Node000001"><a xlink:title="&lt; Private access specifier for the following members.">
<polygon fill="#999999" stroke="#666666" points="125,-95 0,-95 0,-76 125,-76 125,-95"/>
<text text-anchor="middle" x="62.5" y="-83" font-family="Helvetica,sans-Serif" font-size="10.00">analysis::check_cache</text>
</a>
</g>
</g>
<!-- Node2 -->
<g id="Node000002" class="node">
<title>Node2</title>
<g id="a_Node000002"><a xlink:href="structs_2cxx_2base_8cxx.html#a4eee7b291ed2cdcd4e3c2496c603c48c" target="_top" xlink:title="Counts occurrences of a substring in a string.">
<polygon fill="white" stroke="#666666" points="231.5,-169 187.5,-169 187.5,-150 231.5,-150 231.5,-169"/>
<text text-anchor="middle" x="209.5" y="-157" font-family="Helvetica,sans-Serif" font-size="10.00">count</text>
</a>
</g>
</g>
<!-- Node1&#45;&gt;Node2 -->
<g id="edge1_Node000001_Node000002" class="edge">
<title>Node1&#45;&gt;Node2</title>
<g id="a_edge1_Node000001_Node000002"><a xlink:title=" ">
<path fill="none" stroke="#63b8ff" d="M78.63,-95.2C97.46,-107.04 130.82,-127.23 161,-141.5 166.41,-144.06 172.3,-146.53 178.02,-148.77"/>
<polygon fill="#63b8ff" stroke="#63b8ff" points="176.8,-152.05 187.39,-152.32 179.28,-145.51 176.8,-152.05"/>
</a>
</g>
</g>
<!-- Node3 -->
<g id="Node000003" class="node">
<title>Node3</title>
<g id="a_Node000003"><a xlink:href="classtools.html#ad7229c72cee65da3605c4be82f9b42d4" target="_top" xlink:title="Checks if a string contains a specific substring.">
<polygon fill="white" stroke="#666666" points="258,-132 161,-132 161,-113 258,-113 258,-132"/>
<text text-anchor="middle" x="209.5" y="-120" font-family="Helvetica,sans-Serif" font-size="10.00">tools::has_string</text>
</a>
</g>
</g>
<!-- Node1&#45;&gt;Node3 -->
<g id="edge3_Node000001_Node000003" class="edge">
<title>Node1&#45;&gt;Node3</title>
<g id="a_edge3_Node000001_Node000003"><a xlink:title=" ">
<path fill="none" stroke="#63b8ff" d="M100.84,-95.03C119.21,-99.71 141.54,-105.41 161.1,-110.4"/>
<polygon fill="#63b8ff" stroke="#63b8ff" points="160.48,-113.86 171.03,-112.94 162.21,-107.08 160.48,-113.86"/>
</a>
</g>
</g>
<!-- Node4 -->
<g id="Node000004" class="node">
<title>Node4</title>
<g id="a_Node000004"><a xlink:href="classtools.html#a5ab0f2cc351dd97951358ebe19e9c18d" target="_top" xlink:title="Lists files in a directory, optionally filtered by extension.">
<polygon fill="white" stroke="#666666" points="237,-95 182,-95 182,-76 237,-76 237,-95"/>
<text text-anchor="middle" x="209.5" y="-83" font-family="Helvetica,sans-Serif" font-size="10.00">tools::ls</text>
</a>
</g>
</g>
<!-- Node1&#45;&gt;Node4 -->
<g id="edge4_Node000001_Node000004" class="edge">
<title>Node1&#45;&gt;Node4</title>
<g id="a_edge4_Node000001_Node000004"><a xlink:title=" ">
<path fill="none" stroke="#63b8ff" d="M125.41,-85.5C141.12,-85.5 157.5,-85.5 171.52,-85.5"/>
<polygon fill="#63b8ff" stroke="#63b8ff" points="171.74,-89 181.74,-85.5 171.74,-82 171.74,-89"/>
</a>
</g>
</g>
<!-- Node6 -->
<g id="Node000006" class="node">
<title>Node6</title>
<g id="a_Node000006"><a xlink:href="classtools.html#a352a6965f2f3c768f0f4ecd1f978fcc0" target="_top" xlink:title="Splits a string into a vector of substrings based on a delimiter.">
<polygon fill="white" stroke="#666666" points="376,-58 308,-58 308,-39 376,-39 376,-58"/>
<text text-anchor="middle" x="342" y="-46" font-family="Helvetica,sans-Serif" font-size="10.00">tools::split</text>
</a>
</g>
</g>
<!-- Node1&#45;&gt;Node6 -->
<g id="edge8_Node000001_Node000006" class="edge">
<title>Node1&#45;&gt;Node6</title>
<g id="a_edge8_Node000001_Node000006"><a xlink:title=" ">
<path fill="none" stroke="#63b8ff" d="M108.01,-75.92C124.58,-72.6 143.6,-69.06 161,-66.5 207.38,-59.68 260.87,-54.69 297.41,-51.72"/>
<polygon fill="#63b8ff" stroke="#63b8ff" points="298.02,-55.18 307.71,-50.9 297.46,-48.2 298.02,-55.18"/>
</a>
</g>
</g>
<!-- Node7 -->
<g id="Node000007" class="node">
<title>Node7</title>
<g id="a_Node000007"><a xlink:href="classtools.html#aeae88ebd7116d59008600f0723716dba" target="_top" xlink:title="Replaces all occurrences of a substring in a string.">
<polygon fill="white" stroke="#666666" points="251,-19 168,-19 168,0 251,0 251,-19"/>
<text text-anchor="middle" x="209.5" y="-7" font-family="Helvetica,sans-Serif" font-size="10.00">tools::replace</text>
</a>
</g>
</g>
<!-- Node1&#45;&gt;Node7 -->
<g id="edge7_Node000001_Node000007" class="edge">
<title>Node1&#45;&gt;Node7</title>
<g id="a_edge7_Node000001_Node000007"><a xlink:title=" ">
<path fill="none" stroke="#63b8ff" d="M81.05,-75.99C100.52,-65.47 132.91,-48.09 161,-33.5 167.03,-30.37 173.51,-27.06 179.69,-23.93"/>
<polygon fill="#63b8ff" stroke="#63b8ff" points="181.69,-26.84 189.04,-19.21 178.53,-20.59 181.69,-26.84"/>
</a>
</g>
</g>
<!-- Node2&#45;&gt;Node2 -->
<g id="edge2_Node000002_Node000002" class="edge">
<title>Node2&#45;&gt;Node2</title>
<g id="a_edge2_Node000002_Node000002"><a xlink:title=" ">
<path fill="none" stroke="#63b8ff" d="M189.15,-169.08C179.26,-177.73 186.04,-187 209.5,-187 224.53,-187 232.71,-183.2 234.05,-178.19"/>
<polygon fill="#63b8ff" stroke="#63b8ff" points="237.22,-176.69 229.85,-169.08 230.86,-179.63 237.22,-176.69"/>
</a>
</g>
</g>
<!-- Node5 -->
<g id="Node000005" class="node">
<title>Node5</title>
<g id="a_Node000005"><a xlink:href="classtools.html#a3d538da5310467c9321b27cd6a75b9af" target="_top" xlink:title="Checks if a string ends with a specific substring.">
<polygon fill="white" stroke="#666666" points="390,-95 294,-95 294,-76 390,-76 390,-95"/>
<text text-anchor="middle" x="342" y="-83" font-family="Helvetica,sans-Serif" font-size="10.00">tools::ends_with</text>
</a>
</g>
</g>
<!-- Node4&#45;&gt;Node5 -->
<g id="edge5_Node000004_Node000005" class="edge">
<title>Node4&#45;&gt;Node5</title>
<g id="a_edge5_Node000004_Node000005"><a xlink:title=" ">
<path fill="none" stroke="#63b8ff" d="M237.22,-85.5C250.75,-85.5 267.71,-85.5 283.98,-85.5"/>
<polygon fill="#63b8ff" stroke="#63b8ff" points="283.99,-89 293.99,-85.5 283.99,-82 283.99,-89"/>
</a>
</g>
</g>
<!-- Node4&#45;&gt;Node6 -->
<g id="edge6_Node000004_Node000006" class="edge">
<title>Node4&#45;&gt;Node6</title>
<g id="a_edge6_Node000004_Node000006"><a xlink:title=" ">
<path fill="none" stroke="#63b8ff" d="M237.22,-77.92C254.7,-72.97 277.93,-66.38 297.97,-60.7"/>
<polygon fill="#63b8ff" stroke="#63b8ff" points="299.15,-64 307.82,-57.91 297.24,-57.27 299.15,-64"/>
</a>
</g>
</g>
</g>
</svg>
