<?xml version="1.0" encoding="UTF-8" standalone="no"?>
<!DOCTYPE svg PUBLIC "-//W3C//DTD SVG 1.1//EN"
 "http://www.w3.org/Graphics/SVG/1.1/DTD/svg11.dtd">
<!-- Generated by graphviz version 2.43.0 (0)
 -->
<!-- Title: analysis::build_inference Pages: 1 -->
<svg width="451pt" height="94pt"
 viewBox="0.00 0.00 451.00 93.65" xmlns="http://www.w3.org/2000/svg" xmlns:xlink="http://www.w3.org/1999/xlink">
<g id="graph0" class="graph" transform="scale(1 1) rotate(0) translate(4 89.65)">
<title>analysis::build_inference</title>
<!-- Node1 -->
<g id="Node000001" class="node">
<title>Node1</title>
<g id="a_Node000001"><a xlink:title="Sets up the environment for model inference (prediction).">
<polygon fill="#999999" stroke="#666666" points="138,-51.84 0,-51.84 0,-32.84 138,-32.84 138,-51.84"/>
<text text-anchor="middle" x="69" y="-39.84" font-family="Helvetica,sans-Serif" font-size="10.00">analysis::build_inference</text>
</a>
</g>
</g>
<!-- Node2 -->
<g id="Node000002" class="node">
<title>Node2</title>
<g id="a_Node000002"><a xlink:href="classanalysis.html#a25047bd23730c36cde68661179257c9b" target="_top" xlink:title="Static helper method to add content (features) to a data map from various sources.">
<polygon fill="white" stroke="#666666" points="443,-79.84 320,-79.84 320,-60.84 443,-60.84 443,-79.84"/>
<text text-anchor="middle" x="381.5" y="-67.84" font-family="Helvetica,sans-Serif" font-size="10.00">analysis::add_content</text>
</a>
</g>
</g>
<!-- Node1&#45;&gt;Node2 -->
<g id="edge1_Node000001_Node000002" class="edge">
<title>Node1&#45;&gt;Node2</title>
<g id="a_edge1_Node000001_Node000002"><a xlink:title=" ">
<path fill="none" stroke="#63b8ff" d="M89.75,-51.93C110.25,-61.31 143.52,-74.95 174,-80.34 220.1,-88.5 272.84,-85.75 313.48,-81.09"/>
<polygon fill="#63b8ff" stroke="#63b8ff" points="314.03,-84.54 323.54,-79.87 313.19,-77.6 314.03,-84.54"/>
</a>
</g>
</g>
<!-- Node3 -->
<g id="Node000003" class="node">
<title>Node3</title>
<g id="a_Node000003"><a xlink:href="classtools.html#aed9f3247b474a8fb1840860d51cde7ca" target="_top" xlink:title="Creates a directory path, including parent directories if needed.">
<polygon fill="white" stroke="#666666" points="281,-33.84 177,-33.84 177,-14.84 281,-14.84 281,-33.84"/>
<text text-anchor="middle" x="229" y="-21.84" font-family="Helvetica,sans-Serif" font-size="10.00">tools::create_path</text>
</a>
</g>
</g>
<!-- Node1&#45;&gt;Node3 -->
<g id="edge2_Node000001_Node000003" class="edge">
<title>Node1&#45;&gt;Node3</title>
<g id="a_edge2_Node000001_Node000003"><a xlink:title=" ">
<path fill="none" stroke="#63b8ff" d="M138.38,-34.55C147.71,-33.49 157.25,-32.4 166.45,-31.35"/>
<polygon fill="#63b8ff" stroke="#63b8ff" points="167.13,-34.8 176.67,-30.19 166.33,-27.84 167.13,-34.8"/>
</a>
</g>
</g>
<!-- Node4 -->
<g id="Node000004" class="node">
<title>Node4</title>
<g id="a_Node000004"><a xlink:href="classtools.html#a352a6965f2f3c768f0f4ecd1f978fcc0" target="_top" xlink:title="Splits a string into a vector of substrings based on a delimiter.">
<polygon fill="white" stroke="#666666" points="415.5,-23.84 347.5,-23.84 347.5,-4.84 415.5,-4.84 415.5,-23.84"/>
<text text-anchor="middle" x="381.5" y="-11.84" font-family="Helvetica,sans-Serif" font-size="10.00">tools::split</text>
</a>
</g>
</g>
<!-- Node1&#45;&gt;Node4 -->
<g id="edge6_Node000001_Node000004" class="edge">
<title>Node1&#45;&gt;Node4</title>
<g id="a_edge6_Node000001_Node000004"><a xlink:title=" ">
<path fill="none" stroke="#63b8ff" d="M90.16,-32.83C110.71,-23.71 143.78,-10.56 174,-5.34 229.74,4.28 295.14,-1.36 337.16,-7.12"/>
<polygon fill="#63b8ff" stroke="#63b8ff" points="336.92,-10.62 347.32,-8.57 337.92,-3.69 336.92,-10.62"/>
</a>
</g>
</g>
<!-- Node5 -->
<g id="Node000005" class="node">
<title>Node5</title>
<g id="a_Node000005"><a xlink:href="classanalysis.html#a8a8e07da99928e764601ff8c56edc1df" target="_top" xlink:title="Static method to execute a model (training or inference) on a set of data.">
<polygon fill="white" stroke="#666666" points="284,-70.84 174,-70.84 174,-51.84 284,-51.84 284,-70.84"/>
<text text-anchor="middle" x="229" y="-58.84" font-family="Helvetica,sans-Serif" font-size="10.00">analysis::execution</text>
</a>
</g>
</g>
<!-- Node1&#45;&gt;Node5 -->
<g id="edge4_Node000001_Node000005" class="edge">
<title>Node1&#45;&gt;Node5</title>
<g id="a_edge4_Node000001_Node000005"><a xlink:title=" ">
<path fill="none" stroke="#63b8ff" d="M138.38,-50.57C146.8,-51.58 155.39,-52.61 163.74,-53.61"/>
<polygon fill="#63b8ff" stroke="#63b8ff" points="163.45,-57.1 173.79,-54.82 164.28,-50.15 163.45,-57.1"/>
</a>
</g>
</g>
<!-- Node3&#45;&gt;Node4 -->
<g id="edge3_Node000003_Node000004" class="edge">
<title>Node3&#45;&gt;Node4</title>
<g id="a_edge3_Node000003_Node000004"><a xlink:title=" ">
<path fill="none" stroke="#63b8ff" d="M281.37,-20.93C299.43,-19.73 319.52,-18.39 336.88,-17.24"/>
<polygon fill="#63b8ff" stroke="#63b8ff" points="337.54,-20.7 347.29,-16.55 337.08,-13.72 337.54,-20.7"/>
</a>
</g>
</g>
<!-- Node5&#45;&gt;Node2 -->
<g id="edge5_Node000005_Node000002" class="edge">
<title>Node5&#45;&gt;Node2</title>
<g id="a_edge5_Node000005_Node000002"><a xlink:title=" ">
<path fill="none" stroke="#63b8ff" d="M284.33,-64.59C292.62,-65.09 301.28,-65.6 309.86,-66.12"/>
<polygon fill="#63b8ff" stroke="#63b8ff" points="309.68,-69.61 319.87,-66.72 310.1,-62.63 309.68,-69.61"/>
</a>
</g>
</g>
</g>
</svg>
