<?xml version="1.0" encoding="UTF-8" standalone="no"?>
<!DOCTYPE svg PUBLIC "-//W3C//DTD SVG 1.1//EN"
 "http://www.w3.org/Graphics/SVG/1.1/DTD/svg11.dtd">
<!-- Generated by graphviz version 2.43.0 (0)
 -->
<!-- Title: accuracy_metric::define_metric Pages: 1 -->
<svg width="472pt" height="101pt"
 viewBox="0.00 0.00 472.00 101.00" xmlns="http://www.w3.org/2000/svg" xmlns:xlink="http://www.w3.org/1999/xlink">
<g id="graph0" class="graph" transform="scale(1 1) rotate(0) translate(4 97)">
<title>accuracy_metric::define_metric</title>
<!-- Node1 -->
<g id="Node000001" class="node">
<title>Node1</title>
<g id="a_Node000001"><a xlink:title=" ">
<polygon fill="#999999" stroke="#666666" points="133,-61.5 0,-61.5 0,-31.5 133,-31.5 133,-61.5"/>
<text text-anchor="start" x="8" y="-49.5" font-family="Helvetica,sans-Serif" font-size="10.00">accuracy_metric::define</text>
<text text-anchor="middle" x="66.5" y="-38.5" font-family="Helvetica,sans-Serif" font-size="10.00">_metric</text>
</a>
</g>
</g>
<!-- Node2 -->
<g id="Node000002" class="node">
<title>Node2</title>
<g id="a_Node000002"><a xlink:href="classaccuracy__metric.html#a92d1a978345aeb20733f4d0212129fda" target="_top" xlink:title=" ">
<polygon fill="white" stroke="#666666" points="295,-93 174,-93 174,-74 295,-74 295,-93"/>
<text text-anchor="middle" x="234.5" y="-81" font-family="Helvetica,sans-Serif" font-size="10.00">accuracy_metric::end</text>
</a>
</g>
</g>
<!-- Node1&#45;&gt;Node2 -->
<g id="edge1_Node000001_Node000002" class="edge">
<title>Node1&#45;&gt;Node2</title>
<g id="a_edge1_Node000001_Node000002"><a xlink:title=" ">
<path fill="none" stroke="#63b8ff" d="M133.11,-61.12C148.86,-64.64 165.5,-68.34 180.59,-71.71"/>
<polygon fill="#63b8ff" stroke="#63b8ff" points="180.25,-75.22 190.77,-73.98 181.77,-68.38 180.25,-75.22"/>
</a>
</g>
</g>
<!-- Node4 -->
<g id="Node000004" class="node">
<title>Node4</title>
<g id="a_Node000004"><a xlink:href="classaccuracy__metric.html#ad8b35afa20f2c8837be4279db06581bf" target="_top" xlink:title=" ">
<polygon fill="white" stroke="#666666" points="300,-56 169,-56 169,-37 300,-37 300,-56"/>
<text text-anchor="middle" x="234.5" y="-44" font-family="Helvetica,sans-Serif" font-size="10.00">accuracy_metric::event</text>
</a>
</g>
</g>
<!-- Node1&#45;&gt;Node4 -->
<g id="edge4_Node000001_Node000004" class="edge">
<title>Node1&#45;&gt;Node4</title>
<g id="a_edge4_Node000001_Node000004"><a xlink:title=" ">
<path fill="none" stroke="#63b8ff" d="M133.11,-46.5C141.58,-46.5 150.3,-46.5 158.9,-46.5"/>
<polygon fill="#63b8ff" stroke="#63b8ff" points="158.91,-50 168.91,-46.5 158.91,-43 158.91,-50"/>
</a>
</g>
</g>
<!-- Node5 -->
<g id="Node000005" class="node">
<title>Node5</title>
<g id="a_Node000005"><a xlink:href="classmetric__template.html#a335a5dd4a86a24fd17e981a633cd4df3" target="_top" xlink:title=" ">
<polygon fill="white" stroke="#666666" points="296,-19 173,-19 173,0 296,0 296,-19"/>
<text text-anchor="middle" x="234.5" y="-7" font-family="Helvetica,sans-Serif" font-size="10.00">metric_template::size</text>
</a>
</g>
</g>
<!-- Node1&#45;&gt;Node5 -->
<g id="edge6_Node000001_Node000005" class="edge">
<title>Node1&#45;&gt;Node5</title>
<g id="a_edge6_Node000001_Node000005"><a xlink:title=" ">
<path fill="none" stroke="#63b8ff" d="M133.11,-31.88C148.86,-28.36 165.5,-24.66 180.59,-21.29"/>
<polygon fill="#63b8ff" stroke="#63b8ff" points="181.77,-24.62 190.77,-19.02 180.25,-17.78 181.77,-24.62"/>
</a>
</g>
</g>
<!-- Node3 -->
<g id="Node000003" class="node">
<title>Node3</title>
<g id="a_Node000003"><a xlink:href="classmetric__template.html#a63bef91cbc8d4212598aa40f028ffa19" target="_top" xlink:title=" ">
<polygon fill="white" stroke="#666666" points="464,-74 336,-74 336,-55 464,-55 464,-74"/>
<text text-anchor="middle" x="400" y="-62" font-family="Helvetica,sans-Serif" font-size="10.00">metric_template::write</text>
</a>
</g>
</g>
<!-- Node2&#45;&gt;Node3 -->
<g id="edge2_Node000002_Node000003" class="edge">
<title>Node2&#45;&gt;Node3</title>
<g id="a_edge2_Node000002_Node000003"><a xlink:title=" ">
<path fill="none" stroke="#63b8ff" d="M295.45,-76.53C305.3,-75.39 315.59,-74.19 325.72,-73.02"/>
<polygon fill="#63b8ff" stroke="#63b8ff" points="326.23,-76.48 335.76,-71.85 325.42,-69.53 326.23,-76.48"/>
</a>
</g>
</g>
<!-- Node3&#45;&gt;Node3 -->
<g id="edge3_Node000003_Node000003" class="edge">
<title>Node3&#45;&gt;Node3</title>
<g id="a_edge3_Node000003_Node000003"><a xlink:title=" ">
<path fill="none" stroke="#63b8ff" d="M374.72,-74.08C362.43,-82.73 370.85,-92 400,-92 419.13,-92 429.33,-88.01 430.61,-82.82"/>
<polygon fill="#63b8ff" stroke="#63b8ff" points="433.48,-80.79 425.28,-74.08 427.5,-84.44 433.48,-80.79"/>
</a>
</g>
</g>
<!-- Node4&#45;&gt;Node3 -->
<g id="edge5_Node000004_Node000003" class="edge">
<title>Node4&#45;&gt;Node3</title>
<g id="a_edge5_Node000004_Node000003"><a xlink:title=" ">
<path fill="none" stroke="#63b8ff" d="M300.12,-53.61C308.59,-54.55 317.31,-55.51 325.91,-56.45"/>
<polygon fill="#63b8ff" stroke="#63b8ff" points="325.6,-59.94 335.92,-57.56 326.36,-52.98 325.6,-59.94"/>
</a>
</g>
</g>
</g>
</svg>
