<?xml version="1.0" encoding="UTF-8" standalone="no"?>
<!DOCTYPE svg PUBLIC "-//W3C//DTD SVG 1.1//EN"
 "http://www.w3.org/Graphics/SVG/1.1/DTD/svg11.dtd">
<!-- Generated by graphviz version 2.43.0 (0)
 -->
<!-- Title: tools::ends_with Pages: 1 -->
<svg width="709pt" height="349pt"
 viewBox="0.00 0.00 709.00 348.50" xmlns="http://www.w3.org/2000/svg" xmlns:xlink="http://www.w3.org/1999/xlink">
<g id="graph0" class="graph" transform="scale(1 1) rotate(0) translate(4 344.5)">
<title>tools::ends_with</title>
<!-- Node1 -->
<g id="Node000001" class="node">
<title>Node1</title>
<g id="a_Node000001"><a xlink:title="Checks if a string ends with a specific substring.">
<polygon fill="#999999" stroke="#666666" points="701,-212 605,-212 605,-193 701,-193 701,-212"/>
<text text-anchor="middle" x="653" y="-200" font-family="Helvetica,sans-Serif" font-size="10.00">tools::ends_with</text>
</a>
</g>
</g>
<!-- Node2 -->
<g id="Node000002" class="node">
<title>Node2</title>
<g id="a_Node000002"><a xlink:href="classplotting.html#ae528701faff0a6f14e970d3a920f6081" target="_top" xlink:title="Builds a complete path for output files based on configured settings.">
<polygon fill="white" stroke="#666666" points="554,-325 443,-325 443,-306 554,-306 554,-325"/>
<text text-anchor="middle" x="498.5" y="-313" font-family="Helvetica,sans-Serif" font-size="10.00">plotting::build_path</text>
</a>
</g>
</g>
<!-- Node1&#45;&gt;Node2 -->
<g id="edge1_Node000001_Node000002" class="edge">
<title>Node1&#45;&gt;Node2</title>
<g id="a_edge1_Node000001_Node000002"><a xlink:title=" ">
<path fill="none" stroke="#63b8ff" d="M639.47,-220.5C624.73,-240.45 598.49,-272.33 569,-291.5 559.58,-297.62 548.43,-302.37 537.84,-305.97"/>
<polygon fill="#63b8ff" stroke="#63b8ff" points="642.4,-222.42 645.41,-212.26 636.72,-218.33 642.4,-222.42"/>
</a>
</g>
</g>
<!-- Node3 -->
<g id="Node000003" class="node">
<title>Node3</title>
<g id="a_Node000003"><a xlink:href="classio.html#ad9ed4dbed35a168511c44b38f8e8269b" target="_top" xlink:title="Checks the validity or accessibility of ROOT file paths defined in settings or configurations.">
<polygon fill="white" stroke="#666666" points="382,-340.5 277,-340.5 277,-310.5 382,-310.5 382,-340.5"/>
<text text-anchor="start" x="285" y="-328.5" font-family="Helvetica,sans-Serif" font-size="10.00">io::check_root_file</text>
<text text-anchor="middle" x="329.5" y="-317.5" font-family="Helvetica,sans-Serif" font-size="10.00">_paths</text>
</a>
</g>
</g>
<!-- Node1&#45;&gt;Node3 -->
<g id="edge2_Node000001_Node000003" class="edge">
<title>Node1&#45;&gt;Node3</title>
<g id="a_edge2_Node000001_Node000003"><a xlink:title=" ">
<path fill="none" stroke="#63b8ff" d="M632.23,-218.54C616.07,-230.97 592.18,-247.82 569,-258.5 509.95,-285.7 490.58,-279.86 428,-297.5 413.08,-301.7 396.9,-306.33 382.09,-310.58"/>
<polygon fill="#63b8ff" stroke="#63b8ff" points="634.66,-221.09 640.36,-212.16 630.34,-215.58 634.66,-221.09"/>
</a>
</g>
</g>
<!-- Node4 -->
<g id="Node000004" class="node">
<title>Node4</title>
<g id="a_Node000004"><a xlink:href="classdataloader.html#a04c94d9be735c32b80b6599c6bd993b4" target="_top" xlink:title=" ">
<polygon fill="white" stroke="#666666" points="569,-249 428,-249 428,-230 569,-230 569,-249"/>
<text text-anchor="middle" x="498.5" y="-237" font-family="Helvetica,sans-Serif" font-size="10.00">dataloader::dump_graphs</text>
</a>
</g>
</g>
<!-- Node1&#45;&gt;Node4 -->
<g id="edge3_Node000001_Node000004" class="edge">
<title>Node1&#45;&gt;Node4</title>
<g id="a_edge3_Node000001_Node000004"><a xlink:title=" ">
<path fill="none" stroke="#63b8ff" d="M602.85,-214.43C582.16,-219.44 558.41,-225.21 538.9,-229.94"/>
<polygon fill="#63b8ff" stroke="#63b8ff" points="603.83,-217.79 612.73,-212.03 602.18,-210.98 603.83,-217.79"/>
</a>
</g>
</g>
<!-- Node5 -->
<g id="Node000005" class="node">
<title>Node5</title>
<g id="a_Node000005"><a xlink:href="classtools.html#a5ab0f2cc351dd97951358ebe19e9c18d" target="_top" xlink:title="Lists files in a directory, optionally filtered by extension.">
<polygon fill="white" stroke="#666666" points="526,-212 471,-212 471,-193 526,-193 526,-212"/>
<text text-anchor="middle" x="498.5" y="-200" font-family="Helvetica,sans-Serif" font-size="10.00">tools::ls</text>
</a>
</g>
</g>
<!-- Node1&#45;&gt;Node5 -->
<g id="edge4_Node000001_Node000005" class="edge">
<title>Node1&#45;&gt;Node5</title>
<g id="a_edge4_Node000001_Node000005"><a xlink:title=" ">
<path fill="none" stroke="#63b8ff" d="M594.35,-202.5C570.85,-202.5 544.84,-202.5 526.01,-202.5"/>
<polygon fill="#63b8ff" stroke="#63b8ff" points="594.58,-206 604.58,-202.5 594.58,-199 594.58,-206"/>
</a>
</g>
</g>
<!-- Node8 -->
<g id="Node000008" class="node">
<title>Node8</title>
<g id="a_Node000008"><a xlink:href="classanalysis.html#a401745bb4bcae03160ffa0b5df2887e7" target="_top" xlink:title="Starts the analysis execution.">
<polygon fill="white" stroke="#666666" points="231,-193 145,-193 145,-174 231,-174 231,-193"/>
<text text-anchor="middle" x="188" y="-181" font-family="Helvetica,sans-Serif" font-size="10.00">analysis::start</text>
</a>
</g>
</g>
<!-- Node1&#45;&gt;Node8 -->
<g id="edge19_Node000001_Node000008" class="edge">
<title>Node1&#45;&gt;Node8</title>
<g id="a_edge19_Node000001_Node000008"><a xlink:title=" ">
<path fill="none" stroke="#63b8ff" d="M620.57,-189.04C554.4,-162.54 396.2,-108.93 267,-141.5 242.24,-147.74 216.8,-163.55 201.96,-173.89"/>
<polygon fill="#63b8ff" stroke="#63b8ff" points="619.43,-192.35 630.01,-192.89 622.08,-185.87 619.43,-192.35"/>
</a>
</g>
</g>
<!-- Node12 -->
<g id="Node000012" class="node">
<title>Node12</title>
<g id="a_Node000012"><a xlink:href="classmeta.html#aaed15ab5be8f7a86c79373f24abfc952" target="_top" xlink:title="Parses a JSON string to extract metadata.">
<polygon fill="white" stroke="#666666" points="549,-93 448,-93 448,-74 549,-74 549,-93"/>
<text text-anchor="middle" x="498.5" y="-81" font-family="Helvetica,sans-Serif" font-size="10.00">meta::parse_json</text>
</a>
</g>
</g>
<!-- Node1&#45;&gt;Node12 -->
<g id="edge13_Node000001_Node000012" class="edge">
<title>Node1&#45;&gt;Node12</title>
<g id="a_edge13_Node000001_Node000012"><a xlink:title=" ">
<path fill="none" stroke="#63b8ff" d="M640.61,-184.53C626.31,-163.31 599.86,-128.28 569,-107.5 559.89,-101.37 549.06,-96.65 538.69,-93.08"/>
<polygon fill="#63b8ff" stroke="#63b8ff" points="637.73,-186.51 646.14,-192.95 643.58,-182.67 637.73,-186.51"/>
</a>
</g>
</g>
<!-- Node14 -->
<g id="Node000014" class="node">
<title>Node14</title>
<g id="a_Node000014"><a xlink:href="classio.html#aacb050c4cb6c10038d6bf8edb7244a28" target="_top" xlink:title="Scans for keys (e.g., TTree names, TBranch names) in the open ROOT files.">
<polygon fill="white" stroke="#666666" points="539.5,-56 457.5,-56 457.5,-37 539.5,-37 539.5,-56"/>
<text text-anchor="middle" x="498.5" y="-44" font-family="Helvetica,sans-Serif" font-size="10.00">io::scan_keys</text>
</a>
</g>
</g>
<!-- Node1&#45;&gt;Node14 -->
<g id="edge15_Node000001_Node000014" class="edge">
<title>Node1&#45;&gt;Node14</title>
<g id="a_edge15_Node000001_Node000014"><a xlink:title=" ">
<path fill="none" stroke="#63b8ff" d="M645.59,-183.14C634.71,-153.28 609.73,-96.23 569,-65.5 560.51,-59.1 550,-54.85 539.74,-52.03"/>
<polygon fill="#63b8ff" stroke="#63b8ff" points="642.37,-184.52 648.97,-192.81 648.98,-182.22 642.37,-184.52"/>
</a>
</g>
</g>
<!-- Node5&#45;&gt;Node3 -->
<g id="edge10_Node000005_Node000003" class="edge">
<title>Node5&#45;&gt;Node3</title>
<g id="a_edge10_Node000005_Node000003"><a xlink:title=" ">
<path fill="none" stroke="#63b8ff" d="M460.93,-206.29C449.35,-209.01 437.19,-213.64 428,-221.5 398.37,-246.84 420.26,-274.64 392,-301.5 388.43,-304.9 384.32,-307.83 379.96,-310.36"/>
<polygon fill="#63b8ff" stroke="#63b8ff" points="461.72,-209.7 470.86,-204.35 460.38,-202.83 461.72,-209.7"/>
</a>
</g>
</g>
<!-- Node6 -->
<g id="Node000006" class="node">
<title>Node6</title>
<g id="a_Node000006"><a xlink:href="classanalysis.html#a1391073bb18c75cdad4132e90992fcd3" target="_top" xlink:title="&lt; Public access specifier for the following members.">
<polygon fill="white" stroke="#666666" points="381.5,-292 277.5,-292 277.5,-273 381.5,-273 381.5,-292"/>
<text text-anchor="middle" x="329.5" y="-280" font-family="Helvetica,sans-Serif" font-size="10.00">analysis::analysis</text>
</a>
</g>
</g>
<!-- Node5&#45;&gt;Node6 -->
<g id="edge5_Node000005_Node000006" class="edge">
<title>Node5&#45;&gt;Node6</title>
<g id="a_edge5_Node000005_Node000006"><a xlink:title=" ">
<path fill="none" stroke="#63b8ff" d="M460.91,-208.12C449.75,-210.96 437.83,-215.19 428,-221.5 407.02,-234.96 412.86,-250.86 392,-264.5 386.79,-267.91 380.91,-270.69 374.91,-272.95"/>
<polygon fill="#63b8ff" stroke="#63b8ff" points="461.87,-211.49 470.87,-205.9 460.34,-204.66 461.87,-211.49"/>
</a>
</g>
</g>
<!-- Node7 -->
<g id="Node000007" class="node">
<title>Node7</title>
<g id="a_Node000007"><a xlink:href="classanalysis.html#a0cbe44c90dab45066bfe074e506c5d8d" target="_top" xlink:title="&lt; Private access specifier for the following members.">
<polygon fill="white" stroke="#666666" points="392,-255 267,-255 267,-236 392,-236 392,-255"/>
<text text-anchor="middle" x="329.5" y="-243" font-family="Helvetica,sans-Serif" font-size="10.00">analysis::check_cache</text>
</a>
</g>
</g>
<!-- Node5&#45;&gt;Node7 -->
<g id="edge6_Node000005_Node000007" class="edge">
<title>Node5&#45;&gt;Node7</title>
<g id="a_edge6_Node000005_Node000007"><a xlink:title=" ">
<path fill="none" stroke="#63b8ff" d="M460.96,-211.91C433.27,-219.04 395.35,-228.8 367.54,-235.96"/>
<polygon fill="#63b8ff" stroke="#63b8ff" points="461.86,-215.29 470.67,-209.41 460.11,-208.51 461.86,-215.29"/>
</a>
</g>
</g>
<!-- Node10 -->
<g id="Node000010" class="node">
<title>Node10</title>
<g id="a_Node000010"><a xlink:href="classdataloader.html#ae3bba702555507d8b6e5567c34d19142" target="_top" xlink:title=" ">
<polygon fill="white" stroke="#666666" points="384.5,-217.5 274.5,-217.5 274.5,-187.5 384.5,-187.5 384.5,-217.5"/>
<text text-anchor="start" x="282.5" y="-205.5" font-family="Helvetica,sans-Serif" font-size="10.00">dataloader::restore</text>
<text text-anchor="middle" x="329.5" y="-194.5" font-family="Helvetica,sans-Serif" font-size="10.00">_graphs</text>
</a>
</g>
</g>
<!-- Node5&#45;&gt;Node10 -->
<g id="edge11_Node000005_Node000010" class="edge">
<title>Node5&#45;&gt;Node10</title>
<g id="a_edge11_Node000005_Node000010"><a xlink:title=" ">
<path fill="none" stroke="#63b8ff" d="M460.6,-202.5C438.29,-202.5 409.45,-202.5 384.6,-202.5"/>
<polygon fill="#63b8ff" stroke="#63b8ff" points="460.67,-206 470.67,-202.5 460.67,-199 460.67,-206"/>
</a>
</g>
</g>
<!-- Node11 -->
<g id="Node000011" class="node">
<title>Node11</title>
<g id="a_Node000011"><a xlink:href="classio.html#a38cda1cf4b0ad6920e19780ad985d374" target="_top" xlink:title="Triggers the generation of a ROOT PCM (Precompiled Module) if needed for dictionary generation.">
<polygon fill="white" stroke="#666666" points="374.5,-169 284.5,-169 284.5,-150 374.5,-150 374.5,-169"/>
<text text-anchor="middle" x="329.5" y="-157" font-family="Helvetica,sans-Serif" font-size="10.00">io::trigger_pcm</text>
</a>
</g>
</g>
<!-- Node5&#45;&gt;Node11 -->
<g id="edge12_Node000005_Node000011" class="edge">
<title>Node5&#45;&gt;Node11</title>
<g id="a_edge12_Node000005_Node000011"><a xlink:title=" ">
<path fill="none" stroke="#63b8ff" d="M460.96,-193.09C433.27,-185.96 395.35,-176.2 367.54,-169.04"/>
<polygon fill="#63b8ff" stroke="#63b8ff" points="460.11,-196.49 470.67,-195.59 461.86,-189.71 460.11,-196.49"/>
</a>
</g>
</g>
<!-- Node7&#45;&gt;Node8 -->
<g id="edge7_Node000007_Node000008" class="edge">
<title>Node7&#45;&gt;Node8</title>
<g id="a_edge7_Node000007_Node000008"><a xlink:title=" ">
<path fill="none" stroke="#63b8ff" d="M283.73,-232.85C278.04,-230.9 272.34,-228.77 267,-226.5 244.23,-216.83 219.45,-202.45 204.07,-193.02"/>
<polygon fill="#63b8ff" stroke="#63b8ff" points="282.66,-236.18 293.25,-235.96 284.84,-229.53 282.66,-236.18"/>
</a>
</g>
</g>
<!-- Node9 -->
<g id="Node000009" class="node">
<title>Node9</title>
<g id="a_Node000009"><a xlink:href="classanalysis.html#aa5f5f1de2fe05c9fb8c5c0fffbf7b938" target="_top" xlink:title="Fetches tags, possibly related to data versions, processing stages, or k&#45;folds.">
<polygon fill="white" stroke="#666666" points="109,-193 0,-193 0,-174 109,-174 109,-193"/>
<text text-anchor="middle" x="54.5" y="-181" font-family="Helvetica,sans-Serif" font-size="10.00">analysis::fetchtags</text>
</a>
</g>
</g>
<!-- Node8&#45;&gt;Node9 -->
<g id="edge8_Node000008_Node000009" class="edge">
<title>Node8&#45;&gt;Node9</title>
<g id="a_edge8_Node000008_Node000009"><a xlink:title=" ">
<path fill="none" stroke="#63b8ff" d="M134.4,-176.87C126.14,-176.72 117.59,-176.71 109.3,-176.85"/>
<polygon fill="#63b8ff" stroke="#63b8ff" points="134.58,-180.38 144.67,-177.15 134.77,-173.38 134.58,-180.38"/>
</a>
</g>
</g>
<!-- Node9&#45;&gt;Node8 -->
<g id="edge9_Node000009_Node000008" class="edge">
<title>Node9&#45;&gt;Node8</title>
<g id="a_edge9_Node000009_Node000008"><a xlink:title=" ">
<path fill="none" stroke="#63b8ff" d="M119.34,-190.25C127.93,-190.27 136.57,-190.14 144.67,-189.85"/>
<polygon fill="#63b8ff" stroke="#63b8ff" points="119.34,-186.75 109.3,-190.15 119.27,-193.75 119.34,-186.75"/>
</a>
</g>
</g>
<!-- Node13 -->
<g id="Node000013" class="node">
<title>Node13</title>
<g id="a_Node000013"><a xlink:href="classmeta.html#ac20aa6b655d77e02eb08aabe78b6af7e" target="_top" xlink:title="Scans data from a generic ROOT object (e.g., TTree, TH1).">
<polygon fill="white" stroke="#666666" points="378.5,-93 280.5,-93 280.5,-74 378.5,-74 378.5,-93"/>
<text text-anchor="middle" x="329.5" y="-81" font-family="Helvetica,sans-Serif" font-size="10.00">meta::scan_data</text>
</a>
</g>
</g>
<!-- Node12&#45;&gt;Node13 -->
<g id="edge14_Node000012_Node000013" class="edge">
<title>Node12&#45;&gt;Node13</title>
<g id="a_edge14_Node000012_Node000013"><a xlink:title=" ">
<path fill="none" stroke="#63b8ff" d="M437.59,-83.5C418.2,-83.5 396.95,-83.5 378.53,-83.5"/>
<polygon fill="#63b8ff" stroke="#63b8ff" points="437.85,-87 447.85,-83.5 437.85,-80 437.85,-87"/>
</a>
</g>
</g>
<!-- Node15 -->
<g id="Node000015" class="node">
<title>Node15</title>
<g id="a_Node000015"><a xlink:href="classio.html#a65c36380ef79524e8235f792abe9625c" target="_top" xlink:title="Initializes ROOT file processing, potentially opening files specified in settings.">
<polygon fill="white" stroke="#666666" points="371,-56 288,-56 288,-37 371,-37 371,-56"/>
<text text-anchor="middle" x="329.5" y="-44" font-family="Helvetica,sans-Serif" font-size="10.00">io::root_begin</text>
</a>
</g>
</g>
<!-- Node14&#45;&gt;Node15 -->
<g id="edge16_Node000014_Node000015" class="edge">
<title>Node14&#45;&gt;Node15</title>
<g id="a_edge16_Node000014_Node000015"><a xlink:title=" ">
<path fill="none" stroke="#63b8ff" d="M447.35,-46.5C422.96,-46.5 394.02,-46.5 371.04,-46.5"/>
<polygon fill="#63b8ff" stroke="#63b8ff" points="447.5,-50 457.5,-46.5 447.5,-43 447.5,-50"/>
</a>
</g>
</g>
<!-- Node17 -->
<g id="Node000017" class="node">
<title>Node17</title>
<g id="a_Node000017"><a xlink:href="classio.html#a66a6d354d07e8aa4f9fdadc8f74a314b" target="_top" xlink:title="Retrieves the sizes (number of entries) of TTrees in the open ROOT files.">
<polygon fill="white" stroke="#666666" points="367.5,-19 291.5,-19 291.5,0 367.5,0 367.5,-19"/>
<text text-anchor="middle" x="329.5" y="-7" font-family="Helvetica,sans-Serif" font-size="10.00">io::root_size</text>
</a>
</g>
</g>
<!-- Node14&#45;&gt;Node17 -->
<g id="edge18_Node000014_Node000017" class="edge">
<title>Node14&#45;&gt;Node17</title>
<g id="a_edge18_Node000014_Node000017"><a xlink:title=" ">
<path fill="none" stroke="#63b8ff" d="M447.57,-35.44C421.9,-29.75 391.15,-22.94 367.6,-17.72"/>
<polygon fill="#63b8ff" stroke="#63b8ff" points="446.98,-38.89 457.5,-37.64 448.49,-32.06 446.98,-38.89"/>
</a>
</g>
</g>
<!-- Node16 -->
<g id="Node000016" class="node">
<title>Node16</title>
<g id="a_Node000016"><a xlink:href="classio.html#ae346e23a45d73c24f844827495912941" target="_top" xlink:title="Retrieves the data read from ROOT files, likely structured as a map of data_t objects.">
<polygon fill="white" stroke="#666666" points="225,-56 151,-56 151,-37 225,-37 225,-56"/>
<text text-anchor="middle" x="188" y="-44" font-family="Helvetica,sans-Serif" font-size="10.00">io::get_data</text>
</a>
</g>
</g>
<!-- Node15&#45;&gt;Node16 -->
<g id="edge17_Node000015_Node000016" class="edge">
<title>Node15&#45;&gt;Node16</title>
<g id="a_edge17_Node000015_Node000016"><a xlink:title=" ">
<path fill="none" stroke="#63b8ff" d="M277.77,-46.5C260.38,-46.5 241.27,-46.5 225.26,-46.5"/>
<polygon fill="#63b8ff" stroke="#63b8ff" points="277.78,-50 287.78,-46.5 277.78,-43 277.78,-50"/>
</a>
</g>
</g>
</g>
</svg>
