<?xml version="1.0" encoding="UTF-8" standalone="no"?>
<!DOCTYPE svg PUBLIC "-//W3C//DTD SVG 1.1//EN"
 "http://www.w3.org/Graphics/SVG/1.1/DTD/svg11.dtd">
<!-- Generated by graphviz version 2.43.0 (0)
 -->
<!-- Title: metric_template::size Pages: 1 -->
<!--zoomable 238 -->

<svg id="main" version="1.1" xmlns="http://www.w3.org/2000/svg" xmlns:xlink="http://www.w3.org/1999/xlink" xml:space="preserve" onload="init(evt)">
<style type="text/css"><![CDATA[
.node, .edge {opacity: 0.7;}
.node.selected, .edge.selected {opacity: 1;}
.edge:hover path { stroke: red; }
.edge:hover polygon { stroke: red; fill: red; }
]]></style>

<defs>
  <circle id="rim" cx="0" cy="0" r="7"/>
  <circle id="rim2" cx="0" cy="0" r="3.5"/>
  <g id="zoomPlus">
    <use xlink:href="#rim" fill="#404040"><set attributeName="fill" to="#808080" begin="zoomplus.mouseover" end="zoomplus.mouseout"/></use>
    <path d="M-4,0h8M0,-4v8" fill="none" stroke="white" stroke-width="1.5" pointer-events="none"/>
  </g>
  <g id="zoomMin">
    <use xlink:href="#rim" fill="#404040"><set attributeName="fill" to="#808080" begin="zoomminus.mouseover" end="zoomminus.mouseout"/></use>
    <path d="M-4,0h8" fill="none" stroke="white" stroke-width="1.5" pointer-events="none"/>
  </g>
  <g id="arrowUp" transform="translate(30 24)">
    <use xlink:href="#rim"/>
    <path pointer-events="none" fill="none" stroke="white" stroke-width="1.5" d="M0,-3.0v7 M-2.5,-0.5L0,-3.0L2.5,-0.5"/>
  </g>
  <g id="arrowRight" transform="rotate(90) translate(36 -43)">
    <use xlink:href="#rim"/>
    <path pointer-events="none" fill="none" stroke="white" stroke-width="1.5" d="M0,-3.0v7 M-2.5,-0.5L0,-3.0L2.5,-0.5"/>
  </g>
  <g id="arrowDown" transform="rotate(180) translate(-30 -48)">
    <use xlink:href="#rim"/>
    <path pointer-events="none" fill="none" stroke="white" stroke-width="1.5" d="M0,-3.0v7 M-2.5,-0.5L0,-3.0L2.5,-0.5"/>
  </g>
  <g id="arrowLeft" transform="rotate(270) translate(-36 17)">
    <use xlink:href="#rim"/>
    <path pointer-events="none" fill="none" stroke="white" stroke-width="1.5" d="M0,-3.0v7 M-2.5,-0.5L0,-3.0L2.5,-0.5"/>
  </g>
  <g id="resetDef">
    <use xlink:href="#rim2" fill="#404040"><set attributeName="fill" to="#808080" begin="reset.mouseover" end="reset.mouseout"/></use>
  </g>
</defs>
<script type="application/ecmascript">
var viewWidth = 847;
var viewHeight = 238;
var sectionId = 'dynsection-37';
</script>
<script type="application/ecmascript" xlink:href="svg.min.js"/>
<svg id="graph" class="graph">
<g id="viewport">
<title>metric_template::size</title>
<!-- Node1 -->
<g id="Node000001" class="node">
<title>Node1</title>
<g id="a_Node000001"><a xlink:title=" ">
<polygon fill="#999999" stroke="#666666" points="839,-131.5 716,-131.5 716,-112.5 839,-112.5 839,-131.5"/>
<text text-anchor="middle" x="777.5" y="-119.5" font-family="Helvetica,sans-Serif" font-size="10.00">metric_template::size</text>
</a>
</g>
</g>
<!-- Node2 -->
<g id="Node000002" class="node">
<title>Node2</title>
<g id="a_Node000002"><a xlink:href="classmetric__template.html#afa5cc34040676184af823bca74f316f8" target="_top" xlink:title=" ">
<polygon fill="white" stroke="#666666" points="493,-229.5 344,-229.5 344,-210.5 493,-210.5 493,-229.5"/>
<text text-anchor="middle" x="418.5" y="-217.5" font-family="Helvetica,sans-Serif" font-size="10.00">metric_template::construct</text>
</a>
</g>
</g>
<!-- Node1&#45;&gt;Node2 -->
<g id="edge1_Node000001_Node000002" class="edge">
<title>Node1&#45;&gt;Node2</title>
<g id="a_edge1_Node000001_Node000002"><a xlink:title=" ">
<path fill="none" stroke="#63b8ff" d="M760.53,-138.95C742.74,-156.59 712.22,-183.39 680,-196 620.05,-219.46 546.62,-224.3 493.02,-223.95"/>
<polygon fill="#63b8ff" stroke="#63b8ff" points="763.26,-141.16 767.77,-131.56 758.27,-136.25 763.26,-141.16"/>
</a>
</g>
</g>
<!-- Node3 -->
<g id="Node000003" class="node">
<title>Node3</title>
<g id="a_Node000003"><a xlink:href="classmetric__template.html#a422951eb9279ed05c885795ebeed0e5b" target="_top" xlink:title=" ">
<polygon fill="white" stroke="#666666" points="142,-191.5 0,-191.5 0,-172.5 142,-172.5 142,-191.5"/>
<text text-anchor="middle" x="71" y="-179.5" font-family="Helvetica,sans-Serif" font-size="10.00">metric_template::execute</text>
</a>
</g>
</g>
<!-- Node1&#45;&gt;Node3 -->
<g id="edge5_Node000001_Node000003" class="edge">
<title>Node1&#45;&gt;Node3</title>
<g id="a_edge5_Node000001_Node000003"><a xlink:title=" ">
<path fill="none" stroke="#63b8ff" d="M750.47,-136.19C731.53,-145.73 704.94,-157.51 680,-163 489.19,-204.97 256.64,-196.2 142.33,-188.11"/>
<polygon fill="#63b8ff" stroke="#63b8ff" points="752.09,-139.29 759.37,-131.59 748.87,-133.08 752.09,-139.29"/>
</a>
</g>
</g>
<!-- Node4 -->
<g id="Node000004" class="node">
<title>Node4</title>
<g id="a_Node000004"><a xlink:href="classmetric__template.html#a73b7deb3c69b3e7177183464c89dfc50" target="_top" xlink:title=" ">
<polygon fill="white" stroke="#666666" points="671.5,-153.5 537.5,-153.5 537.5,-134.5 671.5,-134.5 671.5,-153.5"/>
<text text-anchor="middle" x="604.5" y="-141.5" font-family="Helvetica,sans-Serif" font-size="10.00">metric_template::define</text>
</a>
</g>
</g>
<!-- Node1&#45;&gt;Node4 -->
<g id="edge3_Node000001_Node000004" class="edge">
<title>Node1&#45;&gt;Node4</title>
<g id="a_edge3_Node000001_Node000004"><a xlink:title=" ">
<path fill="none" stroke="#63b8ff" d="M705.53,-131.13C694.29,-132.58 682.71,-134.07 671.59,-135.5"/>
<polygon fill="#63b8ff" stroke="#63b8ff" points="706.26,-134.57 715.73,-129.82 705.37,-127.62 706.26,-134.57"/>
</a>
</g>
</g>
<!-- Node5 -->
<g id="Node000005" class="node">
<title>Node5</title>
<g id="a_Node000005"><a xlink:href="classaccuracy__metric.html#a6842a48f1db5613338dbe0d86fcf9b0b" target="_top" xlink:title=" ">
<polygon fill="white" stroke="#666666" points="671,-116 538,-116 538,-86 671,-86 671,-116"/>
<text text-anchor="start" x="546" y="-104" font-family="Helvetica,sans-Serif" font-size="10.00">accuracy_metric::define</text>
<text text-anchor="middle" x="604.5" y="-93" font-family="Helvetica,sans-Serif" font-size="10.00">_metric</text>
</a>
</g>
</g>
<!-- Node1&#45;&gt;Node5 -->
<g id="edge4_Node000001_Node000005" class="edge">
<title>Node1&#45;&gt;Node5</title>
<g id="a_edge4_Node000001_Node000005"><a xlink:title=" ">
<path fill="none" stroke="#63b8ff" d="M705.74,-113.31C694.24,-111.9 682.37,-110.44 671,-109.04"/>
<polygon fill="#63b8ff" stroke="#63b8ff" points="705.38,-116.79 715.73,-114.54 706.23,-109.84 705.38,-116.79"/>
</a>
</g>
</g>
<!-- Node6 -->
<g id="Node000006" class="node">
<title>Node6</title>
<g id="a_Node000006"><a xlink:href="classpagerank__metric.html#a35be98f6d50045c05287b8c9769d1fd3" target="_top" xlink:title=" ">
<polygon fill="white" stroke="#666666" points="680,-67.5 529,-67.5 529,-48.5 680,-48.5 680,-67.5"/>
<text text-anchor="middle" x="604.5" y="-55.5" font-family="Helvetica,sans-Serif" font-size="10.00">pagerank_metric::pagerank</text>
</a>
</g>
</g>
<!-- Node1&#45;&gt;Node6 -->
<g id="edge6_Node000001_Node000006" class="edge">
<title>Node1&#45;&gt;Node6</title>
<g id="a_edge6_Node000001_Node000006"><a xlink:title=" ">
<path fill="none" stroke="#63b8ff" d="M749.45,-107.72C730.41,-98.09 704.13,-85.62 680,-77 669.94,-73.41 658.9,-70.21 648.46,-67.5"/>
<polygon fill="#63b8ff" stroke="#63b8ff" points="747.93,-110.88 758.43,-112.33 751.13,-104.65 747.93,-110.88"/>
</a>
</g>
</g>
<!-- Node7 -->
<g id="Node000007" class="node">
<title>Node7</title>
<g id="a_Node000007"><a xlink:href="classmetric__template.html#a5209be08253548a7a56bd2f08db31a8c" target="_top" xlink:title=" ">
<polygon fill="white" stroke="#666666" points="664,-30 545,-30 545,0 664,0 664,-30"/>
<text text-anchor="start" x="553" y="-18" font-family="Helvetica,sans-Serif" font-size="10.00">metric_template::set</text>
<text text-anchor="middle" x="604.5" y="-7" font-family="Helvetica,sans-Serif" font-size="10.00">_variables</text>
</a>
</g>
</g>
<!-- Node1&#45;&gt;Node7 -->
<g id="edge7_Node000001_Node000007" class="edge">
<title>Node1&#45;&gt;Node7</title>
<g id="a_edge7_Node000001_Node000007"><a xlink:title=" ">
<path fill="none" stroke="#63b8ff" d="M760.81,-104.92C742.89,-86.34 711.9,-56.89 680,-39 673.96,-35.61 667.36,-32.62 660.68,-30"/>
<polygon fill="#63b8ff" stroke="#63b8ff" points="758.45,-107.53 767.87,-112.39 763.54,-102.72 758.45,-107.53"/>
</a>
</g>
</g>
<!-- Node2&#45;&gt;Node3 -->
<g id="edge2_Node000002_Node000003" class="edge">
<title>Node2&#45;&gt;Node3</title>
<g id="a_edge2_Node000002_Node000003"><a xlink:title=" ">
<path fill="none" stroke="#63b8ff" d="M333.58,-212.24C287.59,-207.83 229.61,-201.99 178,-196 166.2,-194.63 153.67,-193.07 141.52,-191.5"/>
<polygon fill="#63b8ff" stroke="#63b8ff" points="333.51,-215.75 343.8,-213.22 334.17,-208.78 333.51,-215.75"/>
</a>
</g>
</g>
<!-- Node8 -->
<g id="Node000008" class="node">
<title>Node8</title>
<g id="a_Node000008"><a xlink:href="classmetric__template.html#a4f076b39d712cc1ed944d25328bcc271" target="_top" xlink:title=" ">
<polygon fill="white" stroke="#666666" points="486,-92 351,-92 351,-62 486,-62 486,-92"/>
<text text-anchor="start" x="359" y="-80" font-family="Helvetica,sans-Serif" font-size="10.00">metric_template::metric</text>
<text text-anchor="middle" x="418.5" y="-69" font-family="Helvetica,sans-Serif" font-size="10.00">_template</text>
</a>
</g>
</g>
<!-- Node7&#45;&gt;Node8 -->
<g id="edge8_Node000007_Node000008" class="edge">
<title>Node7&#45;&gt;Node8</title>
<g id="a_edge8_Node000007_Node000008"><a xlink:title=" ">
<path fill="none" stroke="#63b8ff" d="M546.33,-33.27C540.47,-35.19 534.61,-37.12 529,-39 506.86,-46.41 482.31,-54.9 462.07,-61.98"/>
<polygon fill="#63b8ff" stroke="#63b8ff" points="547.73,-36.5 556.15,-30.08 545.56,-29.84 547.73,-36.5"/>
</a>
</g>
</g>
<!-- Node9 -->
<g id="Node000009" class="node">
<title>Node9</title>
<g id="a_Node000009"><a xlink:href="classmetric__template.html#ad4020c5c29a7944e9cadd244fd11e952" target="_top" xlink:title=" ">
<polygon fill="white" stroke="#666666" points="308,-151.5 178,-151.5 178,-132.5 308,-132.5 308,-151.5"/>
<text text-anchor="middle" x="243" y="-139.5" font-family="Helvetica,sans-Serif" font-size="10.00">metric_template::clone</text>
</a>
</g>
</g>
<!-- Node8&#45;&gt;Node9 -->
<g id="edge9_Node000008_Node000009" class="edge">
<title>Node8&#45;&gt;Node9</title>
<g id="a_edge9_Node000008_Node000009"><a xlink:title=" ">
<path fill="none" stroke="#63b8ff" d="M367.6,-95.7C335.53,-107.71 295.2,-122.82 269.51,-132.44"/>
<polygon fill="#63b8ff" stroke="#63b8ff" points="369.12,-98.86 377.26,-92.08 366.67,-92.31 369.12,-98.86"/>
</a>
</g>
</g>
<!-- Node9&#45;&gt;Node3 -->
<g id="edge11_Node000009_Node000003" class="edge">
<title>Node9&#45;&gt;Node3</title>
<g id="a_edge11_Node000009_Node000003"><a xlink:title=" ">
<path fill="none" stroke="#63b8ff" d="M191.51,-153.88C166.25,-159.82 136.09,-166.92 112.39,-172.5"/>
<polygon fill="#63b8ff" stroke="#63b8ff" points="192.35,-157.28 201.28,-151.58 190.74,-150.46 192.35,-157.28"/>
</a>
</g>
</g>
<!-- Node10 -->
<g id="Node000010" class="node">
<title>Node10</title>
<g id="a_Node000010"><a xlink:href="classmetric__template.html#a6df640366841f67134f080372ee9a0c5" target="_top" xlink:title=" ">
<polygon fill="white" stroke="#666666" points="136,-151.5 6,-151.5 6,-132.5 136,-132.5 136,-151.5"/>
<text text-anchor="middle" x="71" y="-139.5" font-family="Helvetica,sans-Serif" font-size="10.00">metric_template::clone</text>
</a>
</g>
</g>
<!-- Node9&#45;&gt;Node10 -->
<g id="edge10_Node000009_Node000010" class="edge">
<title>Node9&#45;&gt;Node10</title>
<g id="a_edge10_Node000009_Node000010"><a xlink:title=" ">
<path fill="none" stroke="#63b8ff" d="M167.71,-142C157.17,-142 146.4,-142 136.08,-142"/>
<polygon fill="#63b8ff" stroke="#63b8ff" points="167.73,-145.5 177.73,-142 167.73,-138.5 167.73,-145.5"/>
</a>
</g>
</g>
</g>
</svg>

<g id="navigator" transform="translate(0 0)" fill="#404254">
  <rect fill="#f2f5e9" fill-opacity="0.5" stroke="#606060" stroke-width=".5" x="0" y="0" width="60" height="60"/>
  <use id="zoomplus" xlink:href="#zoomPlus" x="17" y="9" onmousedown="handleZoom(evt,'in')"/>
  <use id="zoomminus" xlink:href="#zoomMin" x="42" y="9" onmousedown="handleZoom(evt,'out')"/>
  <use id="reset" xlink:href="#resetDef" x="30" y="36" onmousedown="handleReset()"/>
   <use id="arrowup" xlink:href="#arrowUp" x="0" y="0" onmousedown="handlePan(0,-1)"/>
  <use id="arrowright" xlink:href="#arrowRight" x="0" y="0" onmousedown="handlePan(1,0)"/>
  <use id="arrowdown" xlink:href="#arrowDown" x="0" y="0" onmousedown="handlePan(0,1)"/>
  <use id="arrowleft" xlink:href="#arrowLeft" x="0" y="0" onmousedown="handlePan(-1,0)"/>
</g>
<svg viewBox="0 0 15 15" width="100%" height="30px" preserveAspectRatio="xMaxYMin meet">
 <g id="arrow_out" transform="scale(0.3 0.3)">
  <a xlink:href="classmetric__template_a335a5dd4a86a24fd17e981a633cd4df3_icgraph_org.svg" target="_base">
   <rect id="button" ry="5" rx="5" y="6" x="6" height="38" width="38"
        fill="#f2f5e9" fill-opacity="0.5" stroke="#606060" stroke-width="1.0"/>
   <path id="arrow"
     d="M 11.500037,31.436501 C 11.940474,20.09759 22.043105,11.32322 32.158766,21.979434 L 37.068811,17.246167 C 37.068811,17.246167 37.088388,32 37.088388,32 L 22.160133,31.978069 C 22.160133,31.978069 26.997745,27.140456 26.997745,27.140456 C 18.528582,18.264221 13.291696,25.230495 11.500037,31.436501 z"
     style="fill:#404040;"/>
  </a>
 </g>
</svg>

<style type='text/css'>
<![CDATA[
[data-mouse-over-selected='false'] { opacity: 0.7; }
[data-mouse-over-selected='true']  { opacity: 1.0; }
]]>
</style>
<script type="application/ecmascript"><![CDATA[
document.addEventListener('DOMContentLoaded', (event) => {
  highlightEdges();
  highlightAdjacentNodes();
});
]]></script>
</svg>
