<?xml version="1.0" encoding="UTF-8" standalone="no"?>
<!DOCTYPE svg PUBLIC "-//W3C//DTD SVG 1.1//EN"
 "http://www.w3.org/Graphics/SVG/1.1/DTD/svg11.dtd">
<!-- Generated by graphviz version 2.43.0 (0)
 -->
<!-- Title: lossfx::to Pages: 1 -->
<!--zoomable 545 -->

<svg id="main" version="1.1" xmlns="http://www.w3.org/2000/svg" xmlns:xlink="http://www.w3.org/1999/xlink" xml:space="preserve" onload="init(evt)">
<style type="text/css"><![CDATA[
.node, .edge {opacity: 0.7;}
.node.selected, .edge.selected {opacity: 1;}
.edge:hover path { stroke: red; }
.edge:hover polygon { stroke: red; fill: red; }
]]></style>

<defs>
  <circle id="rim" cx="0" cy="0" r="7"/>
  <circle id="rim2" cx="0" cy="0" r="3.5"/>
  <g id="zoomPlus">
    <use xlink:href="#rim" fill="#404040"><set attributeName="fill" to="#808080" begin="zoomplus.mouseover" end="zoomplus.mouseout"/></use>
    <path d="M-4,0h8M0,-4v8" fill="none" stroke="white" stroke-width="1.5" pointer-events="none"/>
  </g>
  <g id="zoomMin">
    <use xlink:href="#rim" fill="#404040"><set attributeName="fill" to="#808080" begin="zoomminus.mouseover" end="zoomminus.mouseout"/></use>
    <path d="M-4,0h8" fill="none" stroke="white" stroke-width="1.5" pointer-events="none"/>
  </g>
  <g id="arrowUp" transform="translate(30 24)">
    <use xlink:href="#rim"/>
    <path pointer-events="none" fill="none" stroke="white" stroke-width="1.5" d="M0,-3.0v7 M-2.5,-0.5L0,-3.0L2.5,-0.5"/>
  </g>
  <g id="arrowRight" transform="rotate(90) translate(36 -43)">
    <use xlink:href="#rim"/>
    <path pointer-events="none" fill="none" stroke="white" stroke-width="1.5" d="M0,-3.0v7 M-2.5,-0.5L0,-3.0L2.5,-0.5"/>
  </g>
  <g id="arrowDown" transform="rotate(180) translate(-30 -48)">
    <use xlink:href="#rim"/>
    <path pointer-events="none" fill="none" stroke="white" stroke-width="1.5" d="M0,-3.0v7 M-2.5,-0.5L0,-3.0L2.5,-0.5"/>
  </g>
  <g id="arrowLeft" transform="rotate(270) translate(-36 17)">
    <use xlink:href="#rim"/>
    <path pointer-events="none" fill="none" stroke="white" stroke-width="1.5" d="M0,-3.0v7 M-2.5,-0.5L0,-3.0L2.5,-0.5"/>
  </g>
  <g id="resetDef">
    <use xlink:href="#rim2" fill="#404040"><set attributeName="fill" to="#808080" begin="reset.mouseover" end="reset.mouseout"/></use>
  </g>
</defs>
<script type="application/ecmascript">
var viewWidth = 305;
var viewHeight = 545;
var sectionId = 'dynsection-44';
</script>
<script type="application/ecmascript" xlink:href="svg.min.js"/>
<svg id="graph" class="graph">
<g id="viewport">
<title>lossfx::to</title>
<!-- Node1 -->
<g id="Node000001" class="node">
<title>Node1</title>
<g id="a_Node000001"><a xlink:title=" ">
<polygon fill="#999999" stroke="#666666" points="297,-278 235,-278 235,-259 297,-259 297,-278"/>
<text text-anchor="middle" x="266" y="-266" font-family="Helvetica,sans-Serif" font-size="10.00">lossfx::to</text>
</a>
</g>
</g>
<!-- Node1&#45;&gt;Node1 -->
<g id="edge17_Node000001_Node000001" class="edge">
<title>Node1&#45;&gt;Node1</title>
<g id="a_edge17_Node000001_Node000001"><a xlink:title=" ">
<path fill="none" stroke="#63b8ff" d="M286.74,-287.55C285.35,-292.38 278.44,-296 266,-296 246.09,-296 240.34,-286.73 248.74,-278.08"/>
<polygon fill="#63b8ff" stroke="#63b8ff" points="289.99,-286.26 283.26,-278.08 283.42,-288.68 289.99,-286.26"/>
</a>
</g>
</g>
<!-- Node2 -->
<g id="Node000002" class="node">
<title>Node2</title>
<g id="a_Node000002"><a xlink:href="classlossfx.html#a5a3c5b59645060ddbf22b4208c443da4" target="_top" xlink:title=" ">
<polygon fill="white" stroke="#666666" points="199,-537 107,-537 107,-518 199,-518 199,-537"/>
<text text-anchor="middle" x="153" y="-525" font-family="Helvetica,sans-Serif" font-size="10.00">lossfx::_fx_loss</text>
</a>
</g>
</g>
<!-- Node1&#45;&gt;Node2 -->
<g id="edge1_Node000001_Node000002" class="edge">
<title>Node1&#45;&gt;Node2</title>
<g id="a_edge1_Node000001_Node000002"><a xlink:title=" ">
<path fill="none" stroke="#63b8ff" d="M265.21,-288.39C264.6,-333.49 256.94,-444.6 199,-509.5 195.97,-512.89 192.22,-515.65 188.19,-517.9"/>
<polygon fill="#63b8ff" stroke="#63b8ff" points="268.71,-288.2 265.23,-278.19 261.71,-288.18 268.71,-288.2"/>
</a>
</g>
</g>
<!-- Node4 -->
<g id="Node000004" class="node">
<title>Node4</title>
<g id="a_Node000004"><a xlink:href="classlossfx.html#a69a625eb998a062525d5f1b64bb9abc4" target="_top" xlink:title=" ">
<polygon fill="white" stroke="#666666" points="199,-500 107,-500 107,-481 199,-481 199,-500"/>
<text text-anchor="middle" x="153" y="-488" font-family="Helvetica,sans-Serif" font-size="10.00">lossfx::_fx_loss</text>
</a>
</g>
</g>
<!-- Node1&#45;&gt;Node4 -->
<g id="edge3_Node000001_Node000004" class="edge">
<title>Node1&#45;&gt;Node4</title>
<g id="a_edge3_Node000001_Node000004"><a xlink:title=" ">
<path fill="none" stroke="#63b8ff" d="M264.04,-288.02C261.05,-327.84 248.84,-419.17 199,-472.5 195.9,-475.82 192.1,-478.54 188.04,-480.77"/>
<polygon fill="#63b8ff" stroke="#63b8ff" points="267.53,-288.22 264.67,-278.02 260.55,-287.78 267.53,-288.22"/>
</a>
</g>
</g>
<!-- Node5 -->
<g id="Node000005" class="node">
<title>Node5</title>
<g id="a_Node000005"><a xlink:href="classlossfx.html#af687262ac7d99a1aed689fdc22ae92f6" target="_top" xlink:title=" ">
<polygon fill="white" stroke="#666666" points="199,-463 107,-463 107,-444 199,-444 199,-463"/>
<text text-anchor="middle" x="153" y="-451" font-family="Helvetica,sans-Serif" font-size="10.00">lossfx::_fx_loss</text>
</a>
</g>
</g>
<!-- Node1&#45;&gt;Node5 -->
<g id="edge4_Node000001_Node000005" class="edge">
<title>Node1&#45;&gt;Node5</title>
<g id="a_edge4_Node000001_Node000005"><a xlink:title=" ">
<path fill="none" stroke="#63b8ff" d="M262.32,-288.43C256.68,-322.87 240.51,-393.82 199,-435.5 195.67,-438.84 191.65,-441.58 187.39,-443.82"/>
<polygon fill="#63b8ff" stroke="#63b8ff" points="265.82,-288.65 263.85,-278.25 258.9,-287.61 265.82,-288.65"/>
</a>
</g>
</g>
<!-- Node6 -->
<g id="Node000006" class="node">
<title>Node6</title>
<g id="a_Node000006"><a xlink:href="classlossfx.html#aa02bfeb76e2a68dd36a9d2925f2d32cc" target="_top" xlink:title=" ">
<polygon fill="white" stroke="#666666" points="199,-426 107,-426 107,-407 199,-407 199,-426"/>
<text text-anchor="middle" x="153" y="-414" font-family="Helvetica,sans-Serif" font-size="10.00">lossfx::_fx_loss</text>
</a>
</g>
</g>
<!-- Node1&#45;&gt;Node6 -->
<g id="edge5_Node000001_Node000006" class="edge">
<title>Node1&#45;&gt;Node6</title>
<g id="a_edge5_Node000001_Node000006"><a xlink:title=" ">
<path fill="none" stroke="#63b8ff" d="M259.91,-287.9C251.61,-315.92 232.64,-367.74 199,-398.5 195.27,-401.91 190.82,-404.71 186.19,-406.99"/>
<polygon fill="#63b8ff" stroke="#63b8ff" points="263.32,-288.67 262.65,-278.1 256.58,-286.78 263.32,-288.67"/>
</a>
</g>
</g>
<!-- Node7 -->
<g id="Node000007" class="node">
<title>Node7</title>
<g id="a_Node000007"><a xlink:href="classlossfx.html#a21af0ec515a7fbf427ddf981ade09423" target="_top" xlink:title=" ">
<polygon fill="white" stroke="#666666" points="199,-389 107,-389 107,-370 199,-370 199,-389"/>
<text text-anchor="middle" x="153" y="-377" font-family="Helvetica,sans-Serif" font-size="10.00">lossfx::_fx_loss</text>
</a>
</g>
</g>
<!-- Node1&#45;&gt;Node7 -->
<g id="edge6_Node000001_Node000007" class="edge">
<title>Node1&#45;&gt;Node7</title>
<g id="a_edge6_Node000001_Node000007"><a xlink:title=" ">
<path fill="none" stroke="#63b8ff" d="M255.98,-287.09C245.08,-307.81 224.93,-341.08 199,-361.5 194.77,-364.83 189.84,-367.62 184.83,-369.93"/>
<polygon fill="#63b8ff" stroke="#63b8ff" points="259.17,-288.54 260.57,-278.04 252.93,-285.38 259.17,-288.54"/>
</a>
</g>
</g>
<!-- Node8 -->
<g id="Node000008" class="node">
<title>Node8</title>
<g id="a_Node000008"><a xlink:href="classlossfx.html#a842c7af78750b162c6aa9360bade3470" target="_top" xlink:title=" ">
<polygon fill="white" stroke="#666666" points="199,-352 107,-352 107,-333 199,-333 199,-352"/>
<text text-anchor="middle" x="153" y="-340" font-family="Helvetica,sans-Serif" font-size="10.00">lossfx::_fx_loss</text>
</a>
</g>
</g>
<!-- Node1&#45;&gt;Node8 -->
<g id="edge7_Node000001_Node000008" class="edge">
<title>Node1&#45;&gt;Node8</title>
<g id="a_edge7_Node000001_Node000008"><a xlink:title=" ">
<path fill="none" stroke="#63b8ff" d="M248.02,-285.61C235.35,-297.67 217.16,-313.56 199,-324.5 193.81,-327.63 187.98,-330.42 182.28,-332.81"/>
<polygon fill="#63b8ff" stroke="#63b8ff" points="250.78,-287.81 255.5,-278.32 245.89,-282.8 250.78,-287.81"/>
</a>
</g>
</g>
<!-- Node9 -->
<g id="Node000009" class="node">
<title>Node9</title>
<g id="a_Node000009"><a xlink:href="classlossfx.html#ab6d6edc04d81882e0ef68b1250b0d8e9" target="_top" xlink:title=" ">
<polygon fill="white" stroke="#666666" points="199,-315 107,-315 107,-296 199,-296 199,-315"/>
<text text-anchor="middle" x="153" y="-303" font-family="Helvetica,sans-Serif" font-size="10.00">lossfx::_fx_loss</text>
</a>
</g>
</g>
<!-- Node1&#45;&gt;Node9 -->
<g id="edge8_Node000001_Node000009" class="edge">
<title>Node1&#45;&gt;Node9</title>
<g id="a_edge8_Node000001_Node000009"><a xlink:title=" ">
<path fill="none" stroke="#63b8ff" d="M226.78,-281.24C212.39,-286.04 196.27,-291.41 182.87,-295.88"/>
<polygon fill="#63b8ff" stroke="#63b8ff" points="228.03,-284.51 236.41,-278.03 225.82,-277.87 228.03,-284.51"/>
</a>
</g>
</g>
<!-- Node10 -->
<g id="Node000010" class="node">
<title>Node10</title>
<g id="a_Node000010"><a xlink:href="classlossfx.html#a650b2ac6d41d2c1b0f127cb10d512eee" target="_top" xlink:title=" ">
<polygon fill="white" stroke="#666666" points="199,-278 107,-278 107,-259 199,-259 199,-278"/>
<text text-anchor="middle" x="153" y="-266" font-family="Helvetica,sans-Serif" font-size="10.00">lossfx::_fx_loss</text>
</a>
</g>
</g>
<!-- Node1&#45;&gt;Node10 -->
<g id="edge9_Node000001_Node000010" class="edge">
<title>Node1&#45;&gt;Node10</title>
<g id="a_edge9_Node000001_Node000010"><a xlink:title=" ">
<path fill="none" stroke="#63b8ff" d="M224.74,-268.5C216.4,-268.5 207.57,-268.5 199.08,-268.5"/>
<polygon fill="#63b8ff" stroke="#63b8ff" points="224.96,-272 234.96,-268.5 224.96,-265 224.96,-272"/>
</a>
</g>
</g>
<!-- Node11 -->
<g id="Node000011" class="node">
<title>Node11</title>
<g id="a_Node000011"><a xlink:href="classlossfx.html#ad5e7aed7b55be27e4364db93cdbbe28f" target="_top" xlink:title=" ">
<polygon fill="white" stroke="#666666" points="199,-241 107,-241 107,-222 199,-222 199,-241"/>
<text text-anchor="middle" x="153" y="-229" font-family="Helvetica,sans-Serif" font-size="10.00">lossfx::_fx_loss</text>
</a>
</g>
</g>
<!-- Node1&#45;&gt;Node11 -->
<g id="edge10_Node000001_Node000011" class="edge">
<title>Node1&#45;&gt;Node11</title>
<g id="a_edge10_Node000001_Node000011"><a xlink:title=" ">
<path fill="none" stroke="#63b8ff" d="M226.78,-255.76C212.39,-250.96 196.27,-245.59 182.87,-241.12"/>
<polygon fill="#63b8ff" stroke="#63b8ff" points="225.82,-259.13 236.41,-258.97 228.03,-252.49 225.82,-259.13"/>
</a>
</g>
</g>
<!-- Node12 -->
<g id="Node000012" class="node">
<title>Node12</title>
<g id="a_Node000012"><a xlink:href="classlossfx.html#acad9701213595705f0eda32556daf4cc" target="_top" xlink:title=" ">
<polygon fill="white" stroke="#666666" points="199,-204 107,-204 107,-185 199,-185 199,-204"/>
<text text-anchor="middle" x="153" y="-192" font-family="Helvetica,sans-Serif" font-size="10.00">lossfx::_fx_loss</text>
</a>
</g>
</g>
<!-- Node1&#45;&gt;Node12 -->
<g id="edge11_Node000001_Node000012" class="edge">
<title>Node1&#45;&gt;Node12</title>
<g id="a_edge11_Node000001_Node000012"><a xlink:title=" ">
<path fill="none" stroke="#63b8ff" d="M247.91,-251.82C235.18,-240.04 216.97,-224.45 199,-213.5 193.21,-209.97 186.64,-206.79 180.35,-204.09"/>
<polygon fill="#63b8ff" stroke="#63b8ff" points="245.75,-254.6 255.42,-258.93 250.56,-249.52 245.75,-254.6"/>
</a>
</g>
</g>
<!-- Node13 -->
<g id="Node000013" class="node">
<title>Node13</title>
<g id="a_Node000013"><a xlink:href="classlossfx.html#a4aed2e4a95099472fe4f82b34058bde7" target="_top" xlink:title=" ">
<polygon fill="white" stroke="#666666" points="199,-167 107,-167 107,-148 199,-148 199,-167"/>
<text text-anchor="middle" x="153" y="-155" font-family="Helvetica,sans-Serif" font-size="10.00">lossfx::_fx_loss</text>
</a>
</g>
</g>
<!-- Node1&#45;&gt;Node13 -->
<g id="edge12_Node000001_Node000013" class="edge">
<title>Node1&#45;&gt;Node13</title>
<g id="a_edge12_Node000001_Node000013"><a xlink:title=" ">
<path fill="none" stroke="#63b8ff" d="M255.69,-249.88C244.64,-229.45 224.47,-196.85 199,-176.5 194.36,-172.8 188.9,-169.7 183.4,-167.15"/>
<polygon fill="#63b8ff" stroke="#63b8ff" points="252.63,-251.59 260.36,-258.83 258.83,-248.34 252.63,-251.59"/>
</a>
</g>
</g>
<!-- Node14 -->
<g id="Node000014" class="node">
<title>Node14</title>
<g id="a_Node000014"><a xlink:href="classlossfx.html#a37143dba84ab416ef2e2e78ae2fe3a29" target="_top" xlink:title=" ">
<polygon fill="white" stroke="#666666" points="199,-130 107,-130 107,-111 199,-111 199,-130"/>
<text text-anchor="middle" x="153" y="-118" font-family="Helvetica,sans-Serif" font-size="10.00">lossfx::_fx_loss</text>
</a>
</g>
</g>
<!-- Node1&#45;&gt;Node14 -->
<g id="edge13_Node000001_Node000014" class="edge">
<title>Node1&#45;&gt;Node14</title>
<g id="a_edge13_Node000001_Node000014"><a xlink:title=" ">
<path fill="none" stroke="#63b8ff" d="M259.66,-248.93C251.16,-221.13 232.03,-170.19 199,-139.5 194.9,-135.69 189.92,-132.58 184.79,-130.07"/>
<polygon fill="#63b8ff" stroke="#63b8ff" points="256.34,-250.05 262.5,-258.67 263.06,-248.09 256.34,-250.05"/>
</a>
</g>
</g>
<!-- Node15 -->
<g id="Node000015" class="node">
<title>Node15</title>
<g id="a_Node000015"><a xlink:href="classlossfx.html#aebdfc428d88e1684ae2849c078f72d57" target="_top" xlink:title=" ">
<polygon fill="white" stroke="#666666" points="199,-93 107,-93 107,-74 199,-74 199,-93"/>
<text text-anchor="middle" x="153" y="-81" font-family="Helvetica,sans-Serif" font-size="10.00">lossfx::_fx_loss</text>
</a>
</g>
</g>
<!-- Node1&#45;&gt;Node15 -->
<g id="edge14_Node000001_Node000015" class="edge">
<title>Node1&#45;&gt;Node15</title>
<g id="a_edge14_Node000001_Node000015"><a xlink:title=" ">
<path fill="none" stroke="#63b8ff" d="M262.2,-248.77C256.38,-214.66 239.94,-144.31 199,-102.5 195.32,-98.74 190.79,-95.69 186.02,-93.22"/>
<polygon fill="#63b8ff" stroke="#63b8ff" points="258.78,-249.52 263.79,-258.85 265.69,-248.43 258.78,-249.52"/>
</a>
</g>
</g>
<!-- Node16 -->
<g id="Node000016" class="node">
<title>Node16</title>
<g id="a_Node000016"><a xlink:href="classlossfx.html#acdc6ea18cbc56eb50054b9b1c072a645" target="_top" xlink:title=" ">
<polygon fill="white" stroke="#666666" points="199,-56 107,-56 107,-37 199,-37 199,-56"/>
<text text-anchor="middle" x="153" y="-44" font-family="Helvetica,sans-Serif" font-size="10.00">lossfx::_fx_loss</text>
</a>
</g>
</g>
<!-- Node1&#45;&gt;Node16 -->
<g id="edge15_Node000001_Node000016" class="edge">
<title>Node1&#45;&gt;Node16</title>
<g id="a_edge15_Node000001_Node000016"><a xlink:title=" ">
<path fill="none" stroke="#63b8ff" d="M263.88,-248.6C260.61,-208.83 247.93,-118.78 199,-65.5 195.44,-61.63 190.97,-58.52 186.23,-56.02"/>
<polygon fill="#63b8ff" stroke="#63b8ff" points="260.39,-248.89 264.58,-258.62 267.37,-248.4 260.39,-248.89"/>
</a>
</g>
</g>
<!-- Node17 -->
<g id="Node000017" class="node">
<title>Node17</title>
<g id="a_Node000017"><a xlink:href="classlossfx.html#a1d67ca12ba26d88cdd24c953eb44f64e" target="_top" xlink:title=" ">
<polygon fill="white" stroke="#666666" points="199,-19 107,-19 107,0 199,0 199,-19"/>
<text text-anchor="middle" x="153" y="-7" font-family="Helvetica,sans-Serif" font-size="10.00">lossfx::_fx_loss</text>
</a>
</g>
</g>
<!-- Node1&#45;&gt;Node17 -->
<g id="edge16_Node000001_Node000017" class="edge">
<title>Node1&#45;&gt;Node17</title>
<g id="a_edge16_Node000001_Node000017"><a xlink:title=" ">
<path fill="none" stroke="#63b8ff" d="M265.09,-248.77C264.26,-204.01 256.13,-93.66 199,-28.5 195.65,-24.67 191.39,-21.6 186.84,-19.13"/>
<polygon fill="#63b8ff" stroke="#63b8ff" points="261.59,-248.92 265.17,-258.89 268.59,-248.86 261.59,-248.92"/>
</a>
</g>
</g>
<!-- Node3 -->
<g id="Node000003" class="node">
<title>Node3</title>
<g id="a_Node000003"><a xlink:href="classlossfx.html#a56f4dbeac9098b7dbcb8dbc25851b025" target="_top" xlink:title=" ">
<polygon fill="white" stroke="#666666" points="71,-537 0,-537 0,-518 71,-518 71,-537"/>
<text text-anchor="middle" x="35.5" y="-525" font-family="Helvetica,sans-Serif" font-size="10.00">lossfx::loss</text>
</a>
</g>
</g>
<!-- Node2&#45;&gt;Node3 -->
<g id="edge2_Node000002_Node000003" class="edge">
<title>Node2&#45;&gt;Node3</title>
<g id="a_edge2_Node000002_Node000003"><a xlink:title=" ">
<path fill="none" stroke="#63b8ff" d="M96.64,-527.5C88.02,-527.5 79.32,-527.5 71.33,-527.5"/>
<polygon fill="#63b8ff" stroke="#63b8ff" points="96.68,-531 106.68,-527.5 96.68,-524 96.68,-531"/>
</a>
</g>
</g>
</g>
</svg>

<g id="navigator" transform="translate(0 0)" fill="#404254">
  <rect fill="#f2f5e9" fill-opacity="0.5" stroke="#606060" stroke-width=".5" x="0" y="0" width="60" height="60"/>
  <use id="zoomplus" xlink:href="#zoomPlus" x="17" y="9" onmousedown="handleZoom(evt,'in')"/>
  <use id="zoomminus" xlink:href="#zoomMin" x="42" y="9" onmousedown="handleZoom(evt,'out')"/>
  <use id="reset" xlink:href="#resetDef" x="30" y="36" onmousedown="handleReset()"/>
   <use id="arrowup" xlink:href="#arrowUp" x="0" y="0" onmousedown="handlePan(0,-1)"/>
  <use id="arrowright" xlink:href="#arrowRight" x="0" y="0" onmousedown="handlePan(1,0)"/>
  <use id="arrowdown" xlink:href="#arrowDown" x="0" y="0" onmousedown="handlePan(0,1)"/>
  <use id="arrowleft" xlink:href="#arrowLeft" x="0" y="0" onmousedown="handlePan(-1,0)"/>
</g>
<svg viewBox="0 0 15 15" width="100%" height="30px" preserveAspectRatio="xMaxYMin meet">
 <g id="arrow_out" transform="scale(0.3 0.3)">
  <a xlink:href="classlossfx_a14679b5f9d19ef11d23b39b38d519b71_icgraph_org.svg" target="_base">
   <rect id="button" ry="5" rx="5" y="6" x="6" height="38" width="38"
        fill="#f2f5e9" fill-opacity="0.5" stroke="#606060" stroke-width="1.0"/>
   <path id="arrow"
     d="M 11.500037,31.436501 C 11.940474,20.09759 22.043105,11.32322 32.158766,21.979434 L 37.068811,17.246167 C 37.068811,17.246167 37.088388,32 37.088388,32 L 22.160133,31.978069 C 22.160133,31.978069 26.997745,27.140456 26.997745,27.140456 C 18.528582,18.264221 13.291696,25.230495 11.500037,31.436501 z"
     style="fill:#404040;"/>
  </a>
 </g>
</svg>

<style type='text/css'>
<![CDATA[
[data-mouse-over-selected='false'] { opacity: 0.7; }
[data-mouse-over-selected='true']  { opacity: 1.0; }
]]>
</style>
<script type="application/ecmascript"><![CDATA[
document.addEventListener('DOMContentLoaded', (event) => {
  highlightEdges();
  highlightAdjacentNodes();
});
]]></script>
</svg>
