<?xml version="1.0" encoding="UTF-8" standalone="no"?>
<!DOCTYPE svg PUBLIC "-//W3C//DTD SVG 1.1//EN"
 "http://www.w3.org/Graphics/SVG/1.1/DTD/svg11.dtd">
<!-- Generated by graphviz version 2.43.0 (0)
 -->
<!-- Title: gnn_event::clone Pages: 1 -->
<svg width="447pt" height="76pt"
 viewBox="0.00 0.00 447.00 75.50" xmlns="http://www.w3.org/2000/svg" xmlns:xlink="http://www.w3.org/1999/xlink">
<g id="graph0" class="graph" transform="scale(1 1) rotate(0) translate(4 71.5)">
<title>gnn_event::clone</title>
<!-- Node1 -->
<g id="Node000001" class="node">
<title>Node1</title>
<g id="a_Node000001"><a xlink:title="Creates a new event template instance.">
<polygon fill="#999999" stroke="#666666" points="100,-45.5 0,-45.5 0,-26.5 100,-26.5 100,-45.5"/>
<text text-anchor="middle" x="50" y="-33.5" font-family="Helvetica,sans-Serif" font-size="10.00">gnn_event::clone</text>
</a>
</g>
</g>
<!-- Node2 -->
<g id="Node000002" class="node">
<title>Node2</title>
<g id="a_Node000002"><a xlink:href="classgnn__event.html#a3c9a7e52028ab3304bb23be24332009c" target="_top" xlink:title=" ">
<polygon fill="white" stroke="#666666" points="261,-45.5 136,-45.5 136,-26.5 261,-26.5 261,-45.5"/>
<text text-anchor="middle" x="198.5" y="-33.5" font-family="Helvetica,sans-Serif" font-size="10.00">gnn_event::gnn_event</text>
</a>
</g>
</g>
<!-- Node1&#45;&gt;Node2 -->
<g id="edge1_Node000001_Node000002" class="edge">
<title>Node1&#45;&gt;Node2</title>
<g id="a_edge1_Node000001_Node000002"><a xlink:title=" ">
<path fill="none" stroke="#63b8ff" d="M100.19,-36C108.43,-36 117.14,-36 125.81,-36"/>
<polygon fill="#63b8ff" stroke="#63b8ff" points="125.95,-39.5 135.95,-36 125.95,-32.5 125.95,-39.5"/>
</a>
</g>
</g>
<!-- Node3 -->
<g id="Node000003" class="node">
<title>Node3</title>
<g id="a_Node000003"><a xlink:href="classevent__template.html#af57dbc73f9bf6e8ba5126a07e4a327c4" target="_top" xlink:title="Adds a leaf (variable) to the event structure.">
<polygon fill="white" stroke="#666666" points="439,-67.5 297,-67.5 297,-48.5 439,-48.5 439,-67.5"/>
<text text-anchor="middle" x="368" y="-55.5" font-family="Helvetica,sans-Serif" font-size="10.00">event_template::add_leaf</text>
</a>
</g>
</g>
<!-- Node2&#45;&gt;Node3 -->
<g id="edge2_Node000002_Node000003" class="edge">
<title>Node2&#45;&gt;Node3</title>
<g id="a_edge2_Node000002_Node000003"><a xlink:title=" ">
<path fill="none" stroke="#63b8ff" d="M261.39,-44.13C269.7,-45.22 278.31,-46.35 286.88,-47.48"/>
<polygon fill="#63b8ff" stroke="#63b8ff" points="286.52,-50.96 296.89,-48.79 287.43,-44.02 286.52,-50.96"/>
</a>
</g>
</g>
<!-- Node4 -->
<g id="Node000004" class="node">
<title>Node4</title>
<g id="a_Node000004"><a xlink:href="classevent__template.html#a29bff91e130f4b01eefab555eb5fe9bb" target="_top" xlink:title="Registers a particle for tracking in this event.">
<polygon fill="white" stroke="#666666" points="436.5,-30 299.5,-30 299.5,0 436.5,0 436.5,-30"/>
<text text-anchor="start" x="307.5" y="-18" font-family="Helvetica,sans-Serif" font-size="10.00">event_template::register</text>
<text text-anchor="middle" x="368" y="-7" font-family="Helvetica,sans-Serif" font-size="10.00">_particle</text>
</a>
</g>
</g>
<!-- Node2&#45;&gt;Node4 -->
<g id="edge3_Node000002_Node000004" class="edge">
<title>Node2&#45;&gt;Node4</title>
<g id="a_edge3_Node000002_Node000004"><a xlink:title=" ">
<path fill="none" stroke="#63b8ff" d="M261.39,-28.24C270.5,-27.1 279.97,-25.91 289.34,-24.74"/>
<polygon fill="#63b8ff" stroke="#63b8ff" points="289.96,-28.19 299.45,-23.47 289.09,-21.24 289.96,-28.19"/>
</a>
</g>
</g>
</g>
</svg>
