<?xml version="1.0" encoding="UTF-8" standalone="no"?>
<!DOCTYPE svg PUBLIC "-//W3C//DTD SVG 1.1//EN"
 "http://www.w3.org/Graphics/SVG/1.1/DTD/svg11.dtd">
<!-- Generated by graphviz version 2.43.0 (0)
 -->
<!-- Title: truthjetparton::truthjetparton Pages: 1 -->
<svg width="318pt" height="64pt"
 viewBox="0.00 0.00 318.00 64.00" xmlns="http://www.w3.org/2000/svg" xmlns:xlink="http://www.w3.org/1999/xlink">
<g id="graph0" class="graph" transform="scale(1 1) rotate(0) translate(4 60)">
<title>truthjetparton::truthjetparton</title>
<!-- Node1 -->
<g id="Node000001" class="node">
<title>Node1</title>
<g id="a_Node000001"><a xlink:title=" ">
<polygon fill="#999999" stroke="#666666" points="310,-37 152,-37 152,-18 310,-18 310,-37"/>
<text text-anchor="middle" x="231" y="-25" font-family="Helvetica,sans-Serif" font-size="10.00">truthjetparton::truthjetparton</text>
</a>
</g>
</g>
<!-- Node2 -->
<g id="Node000002" class="node">
<title>Node2</title>
<g id="a_Node000002"><a xlink:href="classtruthjetparton.html#a167dd1e373ba7391b87378288559065a" target="_top" xlink:title="Builds the particle from event data.">
<polygon fill="white" stroke="#666666" points="115,-56 1,-56 1,-37 115,-37 115,-56"/>
<text text-anchor="middle" x="58" y="-44" font-family="Helvetica,sans-Serif" font-size="10.00">truthjetparton::build</text>
</a>
</g>
</g>
<!-- Node1&#45;&gt;Node2 -->
<g id="edge1_Node000001_Node000002" class="edge">
<title>Node1&#45;&gt;Node2</title>
<g id="a_edge1_Node000001_Node000002"><a xlink:title=" ">
<path fill="none" stroke="#63b8ff" d="M141.4,-37.34C132.45,-38.34 123.54,-39.33 115.07,-40.27"/>
<polygon fill="#63b8ff" stroke="#63b8ff" points="141.95,-40.8 151.51,-36.22 141.18,-33.85 141.95,-40.8"/>
</a>
</g>
</g>
<!-- Node3 -->
<g id="Node000003" class="node">
<title>Node3</title>
<g id="a_Node000003"><a xlink:href="classtruthjetparton.html#aa9bb1b12640e06b49a6f2d3166410ee1" target="_top" xlink:title="Creates a clone of this particle.">
<polygon fill="white" stroke="#666666" points="116,-19 0,-19 0,0 116,0 116,-19"/>
<text text-anchor="middle" x="58" y="-7" font-family="Helvetica,sans-Serif" font-size="10.00">truthjetparton::clone</text>
</a>
</g>
</g>
<!-- Node1&#45;&gt;Node3 -->
<g id="edge2_Node000001_Node000003" class="edge">
<title>Node1&#45;&gt;Node3</title>
<g id="a_edge2_Node000001_Node000003"><a xlink:title=" ">
<path fill="none" stroke="#63b8ff" d="M141.41,-18.17C132.81,-17.27 124.24,-16.37 116.07,-15.51"/>
<polygon fill="#63b8ff" stroke="#63b8ff" points="141.2,-21.67 151.51,-19.24 141.93,-14.71 141.2,-21.67"/>
</a>
</g>
</g>
</g>
</svg>
