<?xml version="1.0" encoding="UTF-8" standalone="no"?>
<!DOCTYPE svg PUBLIC "-//W3C//DTD SVG 1.1//EN"
 "http://www.w3.org/Graphics/SVG/1.1/DTD/svg11.dtd">
<!-- Generated by graphviz version 2.43.0 (0)
 -->
<!-- Title: matching::merge Pages: 1 -->
<svg width="400pt" height="56pt"
 viewBox="0.00 0.00 400.00 56.00" xmlns="http://www.w3.org/2000/svg" xmlns:xlink="http://www.w3.org/1999/xlink">
<g id="graph0" class="graph" transform="scale(1 1) rotate(0) translate(4 52)">
<title>matching::merge</title>
<!-- Node1 -->
<g id="Node000001" class="node">
<title>Node1</title>
<g id="a_Node000001"><a xlink:title="Merges results from another selection.">
<polygon fill="#999999" stroke="#666666" points="100,-24.5 0,-24.5 0,-5.5 100,-5.5 100,-24.5"/>
<text text-anchor="middle" x="50" y="-12.5" font-family="Helvetica,sans-Serif" font-size="10.00">matching::merge</text>
</a>
</g>
</g>
<!-- Node2 -->
<g id="Node000002" class="node">
<title>Node2</title>
<g id="a_Node000002"><a xlink:href="classselection__template.html#ae5606e994231fae57abe42e4f0ec6202" target="_top" xlink:title="Writes a particle collection to output.">
<polygon fill="white" stroke="#666666" points="246,-30 136,-30 136,0 246,0 246,-30"/>
<text text-anchor="start" x="144" y="-18" font-family="Helvetica,sans-Serif" font-size="10.00">selection_template</text>
<text text-anchor="middle" x="191" y="-7" font-family="Helvetica,sans-Serif" font-size="10.00">::write</text>
</a>
</g>
</g>
<!-- Node1&#45;&gt;Node2 -->
<g id="edge1_Node000001_Node000002" class="edge">
<title>Node1&#45;&gt;Node2</title>
<g id="a_edge1_Node000001_Node000002"><a xlink:title=" ">
<path fill="none" stroke="#63b8ff" d="M100.01,-15C108.32,-15 117.06,-15 125.7,-15"/>
<polygon fill="#63b8ff" stroke="#63b8ff" points="125.76,-18.5 135.76,-15 125.76,-11.5 125.76,-18.5"/>
</a>
</g>
</g>
<!-- Node2&#45;&gt;Node2 -->
<g id="edge4_Node000002_Node000002" class="edge">
<title>Node2&#45;&gt;Node2</title>
<g id="a_edge4_Node000002_Node000002"><a xlink:title=" ">
<path fill="none" stroke="#63b8ff" d="M166.39,-30.28C160.92,-39.41 169.12,-48 191,-48 203.99,-48 212.16,-44.97 215.51,-40.6"/>
<polygon fill="#63b8ff" stroke="#63b8ff" points="219.01,-40.31 215.61,-30.28 212.01,-40.24 219.01,-40.31"/>
</a>
</g>
</g>
<!-- Node3 -->
<g id="Node000003" class="node">
<title>Node3</title>
<g id="a_Node000003"><a xlink:href="classselection__template.html#a81497ddb8a1a46c8d4e715cf9733ef61" target="_top" xlink:title="Switch board for dispatching particle attributes.">
<polygon fill="white" stroke="#666666" points="392,-30 282,-30 282,0 392,0 392,-30"/>
<text text-anchor="start" x="290" y="-18" font-family="Helvetica,sans-Serif" font-size="10.00">selection_template</text>
<text text-anchor="middle" x="337" y="-7" font-family="Helvetica,sans-Serif" font-size="10.00">::switch_board</text>
</a>
</g>
</g>
<!-- Node2&#45;&gt;Node3 -->
<g id="edge2_Node000002_Node000003" class="edge">
<title>Node2&#45;&gt;Node3</title>
<g id="a_edge2_Node000002_Node000003"><a xlink:title=" ">
<path fill="none" stroke="#63b8ff" d="M246.03,-15C254.31,-15 262.94,-15 271.42,-15"/>
<polygon fill="#63b8ff" stroke="#63b8ff" points="271.67,-18.5 281.67,-15 271.67,-11.5 271.67,-18.5"/>
</a>
</g>
</g>
<!-- Node3&#45;&gt;Node3 -->
<g id="edge3_Node000003_Node000003" class="edge">
<title>Node3&#45;&gt;Node3</title>
<g id="a_edge3_Node000003_Node000003"><a xlink:title=" ">
<path fill="none" stroke="#63b8ff" d="M311.34,-30.28C305.63,-39.41 314.19,-48 337,-48 350.54,-48 359.06,-44.97 362.56,-40.6"/>
<polygon fill="#63b8ff" stroke="#63b8ff" points="366.06,-40.31 362.66,-30.28 359.06,-40.24 366.06,-40.31"/>
</a>
</g>
</g>
</g>
</svg>
