<?xml version="1.0" encoding="UTF-8" standalone="no"?>
<!DOCTYPE svg PUBLIC "-//W3C//DTD SVG 1.1//EN"
 "http://www.w3.org/Graphics/SVG/1.1/DTD/svg11.dtd">
<!-- Generated by graphviz version 2.43.0 (0)
 -->
<!-- Title: dataloader::restore_graphs_ Pages: 1 -->
<!--zoomable 288 -->

<svg id="main" version="1.1" xmlns="http://www.w3.org/2000/svg" xmlns:xlink="http://www.w3.org/1999/xlink" xml:space="preserve" onload="init(evt)">
<style type="text/css"><![CDATA[
.node, .edge {opacity: 0.7;}
.node.selected, .edge.selected {opacity: 1;}
.edge:hover path { stroke: red; }
.edge:hover polygon { stroke: red; fill: red; }
]]></style>

<defs>
  <circle id="rim" cx="0" cy="0" r="7"/>
  <circle id="rim2" cx="0" cy="0" r="3.5"/>
  <g id="zoomPlus">
    <use xlink:href="#rim" fill="#404040"><set attributeName="fill" to="#808080" begin="zoomplus.mouseover" end="zoomplus.mouseout"/></use>
    <path d="M-4,0h8M0,-4v8" fill="none" stroke="white" stroke-width="1.5" pointer-events="none"/>
  </g>
  <g id="zoomMin">
    <use xlink:href="#rim" fill="#404040"><set attributeName="fill" to="#808080" begin="zoomminus.mouseover" end="zoomminus.mouseout"/></use>
    <path d="M-4,0h8" fill="none" stroke="white" stroke-width="1.5" pointer-events="none"/>
  </g>
  <g id="arrowUp" transform="translate(30 24)">
    <use xlink:href="#rim"/>
    <path pointer-events="none" fill="none" stroke="white" stroke-width="1.5" d="M0,-3.0v7 M-2.5,-0.5L0,-3.0L2.5,-0.5"/>
  </g>
  <g id="arrowRight" transform="rotate(90) translate(36 -43)">
    <use xlink:href="#rim"/>
    <path pointer-events="none" fill="none" stroke="white" stroke-width="1.5" d="M0,-3.0v7 M-2.5,-0.5L0,-3.0L2.5,-0.5"/>
  </g>
  <g id="arrowDown" transform="rotate(180) translate(-30 -48)">
    <use xlink:href="#rim"/>
    <path pointer-events="none" fill="none" stroke="white" stroke-width="1.5" d="M0,-3.0v7 M-2.5,-0.5L0,-3.0L2.5,-0.5"/>
  </g>
  <g id="arrowLeft" transform="rotate(270) translate(-36 17)">
    <use xlink:href="#rim"/>
    <path pointer-events="none" fill="none" stroke="white" stroke-width="1.5" d="M0,-3.0v7 M-2.5,-0.5L0,-3.0L2.5,-0.5"/>
  </g>
  <g id="resetDef">
    <use xlink:href="#rim2" fill="#404040"><set attributeName="fill" to="#808080" begin="reset.mouseover" end="reset.mouseout"/></use>
  </g>
</defs>
<script type="application/ecmascript">
var viewWidth = 538;
var viewHeight = 288;
var sectionId = 'dynsection-34';
</script>
<script type="application/ecmascript" xlink:href="svg.min.js"/>
<svg id="graph" class="graph">
<g id="viewport">
<title>dataloader::restore_graphs_</title>
<!-- Node1 -->
<g id="Node000001" class="node">
<title>Node1</title>
<g id="a_Node000001"><a xlink:title=" ">
<polygon fill="#999999" stroke="#666666" points="110,-174.5 0,-174.5 0,-144.5 110,-144.5 110,-174.5"/>
<text text-anchor="start" x="8" y="-162.5" font-family="Helvetica,sans-Serif" font-size="10.00">dataloader::restore</text>
<text text-anchor="middle" x="55" y="-151.5" font-family="Helvetica,sans-Serif" font-size="10.00">_graphs_</text>
</a>
</g>
</g>
<!-- Node2 -->
<g id="Node000002" class="node">
<title>Node2</title>
<g id="a_Node000002"><a xlink:href="classio.html#ac572af35ee4e5a6dc17a35a1d8eb4561" target="_top" xlink:title="Retrieves the names of datasets available in the currently open HDF5 file.">
<polygon fill="white" stroke="#666666" points="269.5,-280 162.5,-280 162.5,-261 269.5,-261 269.5,-280"/>
<text text-anchor="middle" x="216" y="-268" font-family="Helvetica,sans-Serif" font-size="10.00">io::dataset_names</text>
</a>
</g>
</g>
<!-- Node1&#45;&gt;Node2 -->
<g id="edge1_Node000001_Node000002" class="edge">
<title>Node1&#45;&gt;Node2</title>
<g id="a_edge1_Node000001_Node000002"><a xlink:title=" ">
<path fill="none" stroke="#63b8ff" d="M66.36,-174.52C81.44,-195.25 111.46,-232.33 146,-252.5 149.03,-254.27 152.24,-255.87 155.54,-257.31"/>
<polygon fill="#63b8ff" stroke="#63b8ff" points="154.47,-260.65 165.06,-260.99 156.99,-254.12 154.47,-260.65"/>
</a>
</g>
</g>
<!-- Node4 -->
<g id="Node000004" class="node">
<title>Node4</title>
<g id="a_Node000004"><a xlink:href="classio.html#a65ca69ec5f12d0f3a463396bcff84d77" target="_top" xlink:title="Ends the current I/O session, closing any open files.">
<polygon fill="white" stroke="#666666" points="241,-243 191,-243 191,-224 241,-224 241,-243"/>
<text text-anchor="middle" x="216" y="-231" font-family="Helvetica,sans-Serif" font-size="10.00">io::end</text>
</a>
</g>
</g>
<!-- Node1&#45;&gt;Node4 -->
<g id="edge3_Node000001_Node000004" class="edge">
<title>Node1&#45;&gt;Node4</title>
<g id="a_edge3_Node000001_Node000004"><a xlink:title=" ">
<path fill="none" stroke="#63b8ff" d="M76.47,-174.75C94.1,-187.25 120.64,-204.6 146,-215.5 156.97,-220.22 169.47,-223.93 180.79,-226.74"/>
<polygon fill="#63b8ff" stroke="#63b8ff" points="180.25,-230.2 190.78,-229.05 181.83,-223.38 180.25,-230.2"/>
</a>
</g>
</g>
<!-- Node5 -->
<g id="Node000005" class="node">
<title>Node5</title>
<g id="a_Node000005"><a xlink:href="structgraph__hdf5__w.html#a5f54ea06f5abf106fac3209e6583a335" target="_top" xlink:title=" ">
<polygon fill="white" stroke="#666666" points="286,-206 146,-206 146,-187 286,-187 286,-206"/>
<text text-anchor="middle" x="216" y="-194" font-family="Helvetica,sans-Serif" font-size="10.00">graph_hdf5_w::flush_data</text>
</a>
</g>
</g>
<!-- Node1&#45;&gt;Node5 -->
<g id="edge4_Node000001_Node000005" class="edge">
<title>Node1&#45;&gt;Node5</title>
<g id="a_edge4_Node000001_Node000005"><a xlink:title=" ">
<path fill="none" stroke="#63b8ff" d="M110.27,-172.13C127.72,-176.19 146.98,-180.67 164.17,-184.67"/>
<polygon fill="#63b8ff" stroke="#63b8ff" points="163.49,-188.11 174.02,-186.96 165.07,-181.29 163.49,-188.11"/>
</a>
</g>
</g>
<!-- Node6 -->
<g id="Node000006" class="node">
<title>Node6</title>
<g id="a_Node000006"><a xlink:href="classtools.html#ad7229c72cee65da3605c4be82f9b42d4" target="_top" xlink:title="Checks if a string contains a specific substring.">
<polygon fill="white" stroke="#666666" points="264.5,-169 167.5,-169 167.5,-150 264.5,-150 264.5,-169"/>
<text text-anchor="middle" x="216" y="-157" font-family="Helvetica,sans-Serif" font-size="10.00">tools::has_string</text>
</a>
</g>
</g>
<!-- Node1&#45;&gt;Node6 -->
<g id="edge5_Node000001_Node000006" class="edge">
<title>Node1&#45;&gt;Node6</title>
<g id="a_edge5_Node000001_Node000006"><a xlink:title=" ">
<path fill="none" stroke="#63b8ff" d="M110.27,-159.5C125.33,-159.5 141.74,-159.5 157,-159.5"/>
<polygon fill="#63b8ff" stroke="#63b8ff" points="157.35,-163 167.35,-159.5 157.35,-156 157.35,-163"/>
</a>
</g>
</g>
<!-- Node7 -->
<g id="Node000007" class="node">
<title>Node7</title>
<g id="a_Node000007"><a xlink:href="gnn-particles_8h.html#a726f7868ebf1c63190c267427081d370" target="_top" xlink:title=" ">
<polygon fill="white" stroke="#666666" points="235,-132 197,-132 197,-113 235,-113 235,-132"/>
<text text-anchor="middle" x="216" y="-120" font-family="Helvetica,sans-Serif" font-size="10.00">read</text>
</a>
</g>
</g>
<!-- Node1&#45;&gt;Node7 -->
<g id="edge6_Node000001_Node000007" class="edge">
<title>Node1&#45;&gt;Node7</title>
<g id="a_edge6_Node000001_Node000007"><a xlink:title=" ">
<path fill="none" stroke="#63b8ff" d="M110.27,-146.87C135.98,-140.89 165.61,-133.99 186.78,-129.07"/>
<polygon fill="#63b8ff" stroke="#63b8ff" points="187.78,-132.43 196.72,-126.75 186.19,-125.61 187.78,-132.43"/>
</a>
</g>
</g>
<!-- Node8 -->
<g id="Node000008" class="node">
<title>Node8</title>
<g id="a_Node000008"><a xlink:href="classtools.html#a352a6965f2f3c768f0f4ecd1f978fcc0" target="_top" xlink:title="Splits a string into a vector of substrings based on a delimiter.">
<polygon fill="white" stroke="#666666" points="530,-75 462,-75 462,-56 530,-56 530,-75"/>
<text text-anchor="middle" x="496" y="-63" font-family="Helvetica,sans-Serif" font-size="10.00">tools::split</text>
</a>
</g>
</g>
<!-- Node1&#45;&gt;Node8 -->
<g id="edge7_Node000001_Node000008" class="edge">
<title>Node1&#45;&gt;Node8</title>
<g id="a_edge7_Node000001_Node000008"><a xlink:title=" ">
<path fill="none" stroke="#63b8ff" d="M75.11,-144.36C92.52,-131.45 119.49,-113.58 146,-104.5 201.55,-85.48 371.06,-73 451.61,-67.99"/>
<polygon fill="#63b8ff" stroke="#63b8ff" points="452.14,-71.47 461.9,-67.36 451.71,-64.48 452.14,-71.47"/>
</a>
</g>
</g>
<!-- Node9 -->
<g id="Node000009" class="node">
<title>Node9</title>
<g id="a_Node000009"><a xlink:href="classio.html#a228b6ce6f26848a9adfc0ccf3619a53e" target="_top" xlink:title="Starts an I/O session, opening a file for reading or writing.">
<polygon fill="white" stroke="#666666" points="243,-56 189,-56 189,-37 243,-37 243,-56"/>
<text text-anchor="middle" x="216" y="-44" font-family="Helvetica,sans-Serif" font-size="10.00">io::start</text>
</a>
</g>
</g>
<!-- Node1&#45;&gt;Node9 -->
<g id="edge8_Node000001_Node000009" class="edge">
<title>Node1&#45;&gt;Node9</title>
<g id="a_edge8_Node000001_Node000009"><a xlink:title=" ">
<path fill="none" stroke="#63b8ff" d="M67.8,-144.18C83.63,-124.57 113.55,-90.72 146,-70.5 156.05,-64.23 167.96,-59.35 179.02,-55.66"/>
<polygon fill="#63b8ff" stroke="#63b8ff" points="180.35,-58.92 188.87,-52.62 178.28,-52.23 180.35,-58.92"/>
</a>
</g>
</g>
<!-- Node3 -->
<g id="Node000003" class="node">
<title>Node3</title>
<g id="a_Node000003"><a xlink:href="classio.html#a0a188e43f5e4e5b8a3b1cefa677351c2" target="_top" xlink:title="Static callback function for H5Literate, used to iterate over objects in an HDF5 file.">
<polygon fill="white" stroke="#666666" points="409.5,-280 338.5,-280 338.5,-261 409.5,-261 409.5,-280"/>
<text text-anchor="middle" x="374" y="-268" font-family="Helvetica,sans-Serif" font-size="10.00">io::file_info</text>
</a>
</g>
</g>
<!-- Node2&#45;&gt;Node3 -->
<g id="edge2_Node000002_Node000003" class="edge">
<title>Node2&#45;&gt;Node3</title>
<g id="a_edge2_Node000002_Node000003"><a xlink:title=" ">
<path fill="none" stroke="#63b8ff" d="M269.81,-270.5C288.82,-270.5 310.06,-270.5 328.3,-270.5"/>
<polygon fill="#63b8ff" stroke="#63b8ff" points="328.38,-274 338.38,-270.5 328.38,-267 328.38,-274"/>
</a>
</g>
</g>
<!-- Node10 -->
<g id="Node000010" class="node">
<title>Node10</title>
<g id="a_Node000010"><a xlink:href="classtools.html#aed9f3247b474a8fb1840860d51cde7ca" target="_top" xlink:title="Creates a directory path, including parent directories if needed.">
<polygon fill="white" stroke="#666666" points="426,-56 322,-56 322,-37 426,-37 426,-56"/>
<text text-anchor="middle" x="374" y="-44" font-family="Helvetica,sans-Serif" font-size="10.00">tools::create_path</text>
</a>
</g>
</g>
<!-- Node9&#45;&gt;Node10 -->
<g id="edge9_Node000009_Node000010" class="edge">
<title>Node9&#45;&gt;Node10</title>
<g id="a_edge9_Node000009_Node000010"><a xlink:title=" ">
<path fill="none" stroke="#63b8ff" d="M243.11,-46.5C261.86,-46.5 287.92,-46.5 311.78,-46.5"/>
<polygon fill="#63b8ff" stroke="#63b8ff" points="311.85,-50 321.85,-46.5 311.85,-43 311.85,-50"/>
</a>
</g>
</g>
<!-- Node11 -->
<g id="Node000011" class="node">
<title>Node11</title>
<g id="a_Node000011"><a xlink:href="classtools.html#a47d3d261edcb898daab56721e18d1e67" target="_top" xlink:title="Checks if a path refers to an existing file.">
<polygon fill="white" stroke="#666666" points="411.5,-19 336.5,-19 336.5,0 411.5,0 411.5,-19"/>
<text text-anchor="middle" x="374" y="-7" font-family="Helvetica,sans-Serif" font-size="10.00">tools::is_file</text>
</a>
</g>
</g>
<!-- Node9&#45;&gt;Node11 -->
<g id="edge11_Node000009_Node000011" class="edge">
<title>Node9&#45;&gt;Node11</title>
<g id="a_edge11_Node000009_Node000011"><a xlink:title=" ">
<path fill="none" stroke="#63b8ff" d="M243.11,-40.31C265.82,-34.92 299.28,-26.99 326.54,-20.52"/>
<polygon fill="#63b8ff" stroke="#63b8ff" points="327.36,-23.92 336.28,-18.21 325.74,-17.11 327.36,-23.92"/>
</a>
</g>
</g>
<!-- Node10&#45;&gt;Node8 -->
<g id="edge10_Node000010_Node000008" class="edge">
<title>Node10&#45;&gt;Node8</title>
<g id="a_edge10_Node000010_Node000008"><a xlink:title=" ">
<path fill="none" stroke="#63b8ff" d="M426.24,-54.61C434.84,-55.98 443.69,-57.38 452.06,-58.7"/>
<polygon fill="#63b8ff" stroke="#63b8ff" points="451.56,-62.16 461.98,-60.27 452.65,-55.25 451.56,-62.16"/>
</a>
</g>
</g>
</g>
</svg>

<g id="navigator" transform="translate(0 0)" fill="#404254">
  <rect fill="#f2f5e9" fill-opacity="0.5" stroke="#606060" stroke-width=".5" x="0" y="0" width="60" height="60"/>
  <use id="zoomplus" xlink:href="#zoomPlus" x="17" y="9" onmousedown="handleZoom(evt,'in')"/>
  <use id="zoomminus" xlink:href="#zoomMin" x="42" y="9" onmousedown="handleZoom(evt,'out')"/>
  <use id="reset" xlink:href="#resetDef" x="30" y="36" onmousedown="handleReset()"/>
   <use id="arrowup" xlink:href="#arrowUp" x="0" y="0" onmousedown="handlePan(0,-1)"/>
  <use id="arrowright" xlink:href="#arrowRight" x="0" y="0" onmousedown="handlePan(1,0)"/>
  <use id="arrowdown" xlink:href="#arrowDown" x="0" y="0" onmousedown="handlePan(0,1)"/>
  <use id="arrowleft" xlink:href="#arrowLeft" x="0" y="0" onmousedown="handlePan(-1,0)"/>
</g>
<svg viewBox="0 0 15 15" width="100%" height="30px" preserveAspectRatio="xMaxYMin meet">
 <g id="arrow_out" transform="scale(0.3 0.3)">
  <a xlink:href="classdataloader_a52b546c96dec81d3860fb7e6268b097a_cgraph_org.svg" target="_base">
   <rect id="button" ry="5" rx="5" y="6" x="6" height="38" width="38"
        fill="#f2f5e9" fill-opacity="0.5" stroke="#606060" stroke-width="1.0"/>
   <path id="arrow"
     d="M 11.500037,31.436501 C 11.940474,20.09759 22.043105,11.32322 32.158766,21.979434 L 37.068811,17.246167 C 37.068811,17.246167 37.088388,32 37.088388,32 L 22.160133,31.978069 C 22.160133,31.978069 26.997745,27.140456 26.997745,27.140456 C 18.528582,18.264221 13.291696,25.230495 11.500037,31.436501 z"
     style="fill:#404040;"/>
  </a>
 </g>
</svg>

<style type='text/css'>
<![CDATA[
[data-mouse-over-selected='false'] { opacity: 0.7; }
[data-mouse-over-selected='true']  { opacity: 1.0; }
]]>
</style>
<script type="application/ecmascript"><![CDATA[
document.addEventListener('DOMContentLoaded', (event) => {
  highlightEdges();
  highlightAdjacentNodes();
});
]]></script>
</svg>
