<?xml version="1.0" encoding="UTF-8" standalone="no"?>
<!DOCTYPE svg PUBLIC "-//W3C//DTD SVG 1.1//EN"
 "http://www.w3.org/Graphics/SVG/1.1/DTD/svg11.dtd">
<!-- Generated by graphviz version 2.43.0 (0)
 -->
<!-- Title: dataloader::restore_graphs Pages: 1 -->
<!--zoomable 382 -->

<svg id="main" version="1.1" xmlns="http://www.w3.org/2000/svg" xmlns:xlink="http://www.w3.org/1999/xlink" xml:space="preserve" onload="init(evt)">
<style type="text/css"><![CDATA[
.node, .edge {opacity: 0.7;}
.node.selected, .edge.selected {opacity: 1;}
.edge:hover path { stroke: red; }
.edge:hover polygon { stroke: red; fill: red; }
]]></style>

<defs>
  <circle id="rim" cx="0" cy="0" r="7"/>
  <circle id="rim2" cx="0" cy="0" r="3.5"/>
  <g id="zoomPlus">
    <use xlink:href="#rim" fill="#404040"><set attributeName="fill" to="#808080" begin="zoomplus.mouseover" end="zoomplus.mouseout"/></use>
    <path d="M-4,0h8M0,-4v8" fill="none" stroke="white" stroke-width="1.5" pointer-events="none"/>
  </g>
  <g id="zoomMin">
    <use xlink:href="#rim" fill="#404040"><set attributeName="fill" to="#808080" begin="zoomminus.mouseover" end="zoomminus.mouseout"/></use>
    <path d="M-4,0h8" fill="none" stroke="white" stroke-width="1.5" pointer-events="none"/>
  </g>
  <g id="arrowUp" transform="translate(30 24)">
    <use xlink:href="#rim"/>
    <path pointer-events="none" fill="none" stroke="white" stroke-width="1.5" d="M0,-3.0v7 M-2.5,-0.5L0,-3.0L2.5,-0.5"/>
  </g>
  <g id="arrowRight" transform="rotate(90) translate(36 -43)">
    <use xlink:href="#rim"/>
    <path pointer-events="none" fill="none" stroke="white" stroke-width="1.5" d="M0,-3.0v7 M-2.5,-0.5L0,-3.0L2.5,-0.5"/>
  </g>
  <g id="arrowDown" transform="rotate(180) translate(-30 -48)">
    <use xlink:href="#rim"/>
    <path pointer-events="none" fill="none" stroke="white" stroke-width="1.5" d="M0,-3.0v7 M-2.5,-0.5L0,-3.0L2.5,-0.5"/>
  </g>
  <g id="arrowLeft" transform="rotate(270) translate(-36 17)">
    <use xlink:href="#rim"/>
    <path pointer-events="none" fill="none" stroke="white" stroke-width="1.5" d="M0,-3.0v7 M-2.5,-0.5L0,-3.0L2.5,-0.5"/>
  </g>
  <g id="resetDef">
    <use xlink:href="#rim2" fill="#404040"><set attributeName="fill" to="#808080" begin="reset.mouseover" end="reset.mouseout"/></use>
  </g>
</defs>
<script type="application/ecmascript">
var viewWidth = 857;
var viewHeight = 382;
var sectionId = 'dynsection-31';
</script>
<script type="application/ecmascript" xlink:href="svg.min.js"/>
<svg id="graph" class="graph">
<g id="viewport">
<title>dataloader::restore_graphs</title>
<!-- Node1 -->
<g id="Node000001" class="node">
<title>Node1</title>
<g id="a_Node000001"><a xlink:title=" ">
<polygon fill="#999999" stroke="#666666" points="110,-315.5 0,-315.5 0,-285.5 110,-285.5 110,-315.5"/>
<text text-anchor="start" x="8" y="-303.5" font-family="Helvetica,sans-Serif" font-size="10.00">dataloader::restore</text>
<text text-anchor="middle" x="55" y="-292.5" font-family="Helvetica,sans-Serif" font-size="10.00">_graphs</text>
</a>
</g>
</g>
<!-- Node2 -->
<g id="Node000002" class="node">
<title>Node2</title>
<g id="a_Node000002"><a xlink:href="classtools.html#a5ab0f2cc351dd97951358ebe19e9c18d" target="_top" xlink:title="Lists files in a directory, optionally filtered by extension.">
<polygon fill="white" stroke="#666666" points="228.5,-336 173.5,-336 173.5,-317 228.5,-317 228.5,-336"/>
<text text-anchor="middle" x="201" y="-324" font-family="Helvetica,sans-Serif" font-size="10.00">tools::ls</text>
</a>
</g>
</g>
<!-- Node1&#45;&gt;Node2 -->
<g id="edge1_Node000001_Node000002" class="edge">
<title>Node1&#45;&gt;Node2</title>
<g id="a_edge1_Node000001_Node000002"><a xlink:title=" ">
<path fill="none" stroke="#63b8ff" d="M110.03,-310.26C127.71,-313.45 146.93,-316.92 163.04,-319.83"/>
<polygon fill="#63b8ff" stroke="#63b8ff" points="162.68,-323.32 173.14,-321.65 163.92,-316.43 162.68,-323.32"/>
</a>
</g>
</g>
<!-- Node5 -->
<g id="Node000005" class="node">
<title>Node5</title>
<g id="a_Node000005"><a xlink:href="classdataloader.html#aed6ec872879a44ecfa9ae1c2188690a8" target="_top" xlink:title=" ">
<polygon fill="white" stroke="#666666" points="256,-290.5 146,-290.5 146,-260.5 256,-260.5 256,-290.5"/>
<text text-anchor="start" x="154" y="-278.5" font-family="Helvetica,sans-Serif" font-size="10.00">dataloader::restore</text>
<text text-anchor="middle" x="201" y="-267.5" font-family="Helvetica,sans-Serif" font-size="10.00">_graphs</text>
</a>
</g>
</g>
<!-- Node1&#45;&gt;Node5 -->
<g id="edge4_Node000001_Node000005" class="edge">
<title>Node1&#45;&gt;Node5</title>
<g id="a_edge4_Node000001_Node000005"><a xlink:title=" ">
<path fill="none" stroke="#63b8ff" d="M110.03,-291.12C118.4,-289.67 127.13,-288.15 135.7,-286.66"/>
<polygon fill="#63b8ff" stroke="#63b8ff" points="136.41,-290.09 145.67,-284.93 135.22,-283.19 136.41,-290.09"/>
</a>
</g>
</g>
<!-- Node3 -->
<g id="Node000003" class="node">
<title>Node3</title>
<g id="a_Node000003"><a xlink:href="classtools.html#a3d538da5310467c9321b27cd6a75b9af" target="_top" xlink:title="Checks if a string ends with a specific substring.">
<polygon fill="white" stroke="#666666" points="408.5,-374 312.5,-374 312.5,-355 408.5,-355 408.5,-374"/>
<text text-anchor="middle" x="360.5" y="-362" font-family="Helvetica,sans-Serif" font-size="10.00">tools::ends_with</text>
</a>
</g>
</g>
<!-- Node2&#45;&gt;Node3 -->
<g id="edge2_Node000002_Node000003" class="edge">
<title>Node2&#45;&gt;Node3</title>
<g id="a_edge2_Node000002_Node000003"><a xlink:title=" ">
<path fill="none" stroke="#63b8ff" d="M228.72,-332.95C250.9,-338.3 283.04,-346.05 309.91,-352.54"/>
<polygon fill="#63b8ff" stroke="#63b8ff" points="309.38,-356.01 319.92,-354.95 311.02,-349.2 309.38,-356.01"/>
</a>
</g>
</g>
<!-- Node4 -->
<g id="Node000004" class="node">
<title>Node4</title>
<g id="a_Node000004"><a xlink:href="classtools.html#a352a6965f2f3c768f0f4ecd1f978fcc0" target="_top" xlink:title="Splits a string into a vector of substrings based on a delimiter.">
<polygon fill="white" stroke="#666666" points="849,-242 781,-242 781,-223 849,-223 849,-242"/>
<text text-anchor="middle" x="815" y="-230" font-family="Helvetica,sans-Serif" font-size="10.00">tools::split</text>
</a>
</g>
</g>
<!-- Node2&#45;&gt;Node4 -->
<g id="edge3_Node000002_Node000004" class="edge">
<title>Node2&#45;&gt;Node4</title>
<g id="a_edge3_Node000002_Node000004"><a xlink:title=" ">
<path fill="none" stroke="#63b8ff" d="M228.83,-328.25C325.01,-334.11 651.8,-350.36 745,-307.5 771.01,-295.54 791.7,-268.74 803.41,-250.63"/>
<polygon fill="#63b8ff" stroke="#63b8ff" points="806.42,-252.43 808.7,-242.08 800.46,-248.75 806.42,-252.43"/>
</a>
</g>
</g>
<!-- Node6 -->
<g id="Node000006" class="node">
<title>Node6</title>
<g id="a_Node000006"><a xlink:href="classdataloader.html#a281bac1652b78652581bad461b1cc966" target="_top" xlink:title=" ">
<polygon fill="white" stroke="#666666" points="429,-285 292,-285 292,-266 429,-266 429,-285"/>
<text text-anchor="middle" x="360.5" y="-273" font-family="Helvetica,sans-Serif" font-size="10.00">dataloader::extract_data</text>
</a>
</g>
</g>
<!-- Node5&#45;&gt;Node6 -->
<g id="edge5_Node000005_Node000006" class="edge">
<title>Node5&#45;&gt;Node6</title>
<g id="a_edge5_Node000005_Node000006"><a xlink:title=" ">
<path fill="none" stroke="#63b8ff" d="M256.2,-275.5C264.45,-275.5 273.1,-275.5 281.74,-275.5"/>
<polygon fill="#63b8ff" stroke="#63b8ff" points="281.84,-279 291.84,-275.5 281.84,-272 281.84,-279"/>
</a>
</g>
</g>
<!-- Node9 -->
<g id="Node000009" class="node">
<title>Node9</title>
<g id="a_Node000009"><a xlink:href="classdataloader.html#a52b546c96dec81d3860fb7e6268b097a" target="_top" xlink:title=" ">
<polygon fill="white" stroke="#666666" points="415.5,-154.5 305.5,-154.5 305.5,-124.5 415.5,-124.5 415.5,-154.5"/>
<text text-anchor="start" x="313.5" y="-142.5" font-family="Helvetica,sans-Serif" font-size="10.00">dataloader::restore</text>
<text text-anchor="middle" x="360.5" y="-131.5" font-family="Helvetica,sans-Serif" font-size="10.00">_graphs_</text>
</a>
</g>
</g>
<!-- Node5&#45;&gt;Node9 -->
<g id="edge9_Node000005_Node000009" class="edge">
<title>Node5&#45;&gt;Node9</title>
<g id="a_edge9_Node000005_Node000009"><a xlink:title=" ">
<path fill="none" stroke="#63b8ff" d="M219.46,-260.43C247.37,-236.33 302.16,-189.02 334.31,-161.25"/>
<polygon fill="#63b8ff" stroke="#63b8ff" points="336.68,-163.83 341.96,-154.64 332.11,-158.53 336.68,-163.83"/>
</a>
</g>
</g>
<!-- Node7 -->
<g id="Node000007" class="node">
<title>Node7</title>
<g id="a_Node000007"><a xlink:href="classdataloader.html#a60ede9b5c2cacf28b6fd28524f21501f" target="_top" xlink:title=" ">
<polygon fill="white" stroke="#666666" points="599,-290.5 471,-290.5 471,-260.5 599,-260.5 599,-290.5"/>
<text text-anchor="start" x="479" y="-278.5" font-family="Helvetica,sans-Serif" font-size="10.00">dataloader::clean_data</text>
<text text-anchor="middle" x="535" y="-267.5" font-family="Helvetica,sans-Serif" font-size="10.00">_elements</text>
</a>
</g>
</g>
<!-- Node6&#45;&gt;Node7 -->
<g id="edge6_Node000006_Node000007" class="edge">
<title>Node6&#45;&gt;Node7</title>
<g id="a_edge6_Node000006_Node000007"><a xlink:title=" ">
<path fill="none" stroke="#63b8ff" d="M429.18,-275.5C439.45,-275.5 450.08,-275.5 460.46,-275.5"/>
<polygon fill="#63b8ff" stroke="#63b8ff" points="460.74,-279 470.74,-275.5 460.74,-272 460.74,-279"/>
</a>
</g>
</g>
<!-- Node8 -->
<g id="Node000008" class="node">
<title>Node8</title>
<g id="a_Node000008"><a xlink:href="structs_2cxx_2base_8cxx.html#a4eee7b291ed2cdcd4e3c2496c603c48c" target="_top" xlink:title="Counts occurrences of a substring in a string.">
<polygon fill="white" stroke="#666666" points="715,-280 671,-280 671,-261 715,-261 715,-280"/>
<text text-anchor="middle" x="693" y="-268" font-family="Helvetica,sans-Serif" font-size="10.00">count</text>
</a>
</g>
</g>
<!-- Node7&#45;&gt;Node8 -->
<g id="edge7_Node000007_Node000008" class="edge">
<title>Node7&#45;&gt;Node8</title>
<g id="a_edge7_Node000007_Node000008"><a xlink:title=" ">
<path fill="none" stroke="#63b8ff" d="M599,-273.48C620.15,-272.8 642.83,-272.08 660.49,-271.51"/>
<polygon fill="#63b8ff" stroke="#63b8ff" points="660.9,-275 670.79,-271.18 660.68,-268 660.9,-275"/>
</a>
</g>
</g>
<!-- Node8&#45;&gt;Node8 -->
<g id="edge8_Node000008_Node000008" class="edge">
<title>Node8&#45;&gt;Node8</title>
<g id="a_edge8_Node000008_Node000008"><a xlink:title=" ">
<path fill="none" stroke="#63b8ff" d="M674.2,-280.08C665.05,-288.73 671.32,-298 693,-298 706.55,-298 714.08,-294.38 715.59,-289.55"/>
<polygon fill="#63b8ff" stroke="#63b8ff" points="718.77,-288.07 711.8,-280.08 712.27,-290.67 718.77,-288.07"/>
</a>
</g>
</g>
<!-- Node9&#45;&gt;Node4 -->
<g id="edge16_Node000009_Node000004" class="edge">
<title>Node9&#45;&gt;Node4</title>
<g id="a_edge16_Node000009_Node000004"><a xlink:title=" ">
<path fill="none" stroke="#63b8ff" d="M376.7,-154.73C395.55,-172.51 429.57,-201.06 465,-213.5 569.62,-250.22 702.69,-244.2 770.3,-237.75"/>
<polygon fill="#63b8ff" stroke="#63b8ff" points="770.98,-241.2 780.58,-236.71 770.28,-234.23 770.98,-241.2"/>
</a>
</g>
</g>
<!-- Node10 -->
<g id="Node000010" class="node">
<title>Node10</title>
<g id="a_Node000010"><a xlink:href="classio.html#ac572af35ee4e5a6dc17a35a1d8eb4561" target="_top" xlink:title="Retrieves the names of datasets available in the currently open HDF5 file.">
<polygon fill="white" stroke="#666666" points="588.5,-204 481.5,-204 481.5,-185 588.5,-185 588.5,-204"/>
<text text-anchor="middle" x="535" y="-192" font-family="Helvetica,sans-Serif" font-size="10.00">io::dataset_names</text>
</a>
</g>
</g>
<!-- Node9&#45;&gt;Node10 -->
<g id="edge10_Node000009_Node000010" class="edge">
<title>Node9&#45;&gt;Node10</title>
<g id="a_edge10_Node000009_Node000010"><a xlink:title=" ">
<path fill="none" stroke="#63b8ff" d="M401.04,-154.56C420.21,-161.62 443.67,-169.92 465,-176.5 471.44,-178.49 478.26,-180.44 485,-182.29"/>
<polygon fill="#63b8ff" stroke="#63b8ff" points="484.22,-185.7 494.79,-184.91 486.03,-178.94 484.22,-185.7"/>
</a>
</g>
</g>
<!-- Node12 -->
<g id="Node000012" class="node">
<title>Node12</title>
<g id="a_Node000012"><a xlink:href="classio.html#a65ca69ec5f12d0f3a463396bcff84d77" target="_top" xlink:title="Ends the current I/O session, closing any open files.">
<polygon fill="white" stroke="#666666" points="560,-167 510,-167 510,-148 560,-148 560,-167"/>
<text text-anchor="middle" x="535" y="-155" font-family="Helvetica,sans-Serif" font-size="10.00">io::end</text>
</a>
</g>
</g>
<!-- Node9&#45;&gt;Node12 -->
<g id="edge12_Node000009_Node000012" class="edge">
<title>Node9&#45;&gt;Node12</title>
<g id="a_edge12_Node000009_Node000012"><a xlink:title=" ">
<path fill="none" stroke="#63b8ff" d="M415.61,-145.15C443.15,-148.02 475.79,-151.43 499.82,-153.93"/>
<polygon fill="#63b8ff" stroke="#63b8ff" points="499.57,-157.43 509.88,-154.98 500.3,-150.46 499.57,-157.43"/>
</a>
</g>
</g>
<!-- Node13 -->
<g id="Node000013" class="node">
<title>Node13</title>
<g id="a_Node000013"><a xlink:href="structgraph__hdf5__w.html#a5f54ea06f5abf106fac3209e6583a335" target="_top" xlink:title=" ">
<polygon fill="white" stroke="#666666" points="605,-130 465,-130 465,-111 605,-111 605,-130"/>
<text text-anchor="middle" x="535" y="-118" font-family="Helvetica,sans-Serif" font-size="10.00">graph_hdf5_w::flush_data</text>
</a>
</g>
</g>
<!-- Node9&#45;&gt;Node13 -->
<g id="edge13_Node000009_Node000013" class="edge">
<title>Node9&#45;&gt;Node13</title>
<g id="a_edge13_Node000009_Node000013"><a xlink:title=" ">
<path fill="none" stroke="#63b8ff" d="M415.61,-133.54C428.05,-132.17 441.53,-130.69 454.79,-129.22"/>
<polygon fill="#63b8ff" stroke="#63b8ff" points="455.3,-132.69 464.86,-128.12 454.54,-125.73 455.3,-132.69"/>
</a>
</g>
</g>
<!-- Node14 -->
<g id="Node000014" class="node">
<title>Node14</title>
<g id="a_Node000014"><a xlink:href="classtools.html#ad7229c72cee65da3605c4be82f9b42d4" target="_top" xlink:title="Checks if a string contains a specific substring.">
<polygon fill="white" stroke="#666666" points="583.5,-93 486.5,-93 486.5,-74 583.5,-74 583.5,-93"/>
<text text-anchor="middle" x="535" y="-81" font-family="Helvetica,sans-Serif" font-size="10.00">tools::has_string</text>
</a>
</g>
</g>
<!-- Node9&#45;&gt;Node14 -->
<g id="edge14_Node000009_Node000014" class="edge">
<title>Node9&#45;&gt;Node14</title>
<g id="a_edge14_Node000009_Node000014"><a xlink:title=" ">
<path fill="none" stroke="#63b8ff" d="M400.02,-124.35C419.37,-117 443.26,-108.31 465,-101.5 471.43,-99.49 478.24,-97.52 484.99,-95.66"/>
<polygon fill="#63b8ff" stroke="#63b8ff" points="486.02,-99.01 494.77,-93.03 484.2,-92.25 486.02,-99.01"/>
</a>
</g>
</g>
<!-- Node15 -->
<g id="Node000015" class="node">
<title>Node15</title>
<g id="a_Node000015"><a xlink:href="gnn-particles_8h.html#a726f7868ebf1c63190c267427081d370" target="_top" xlink:title=" ">
<polygon fill="white" stroke="#666666" points="554,-56 516,-56 516,-37 554,-37 554,-56"/>
<text text-anchor="middle" x="535" y="-44" font-family="Helvetica,sans-Serif" font-size="10.00">read</text>
</a>
</g>
</g>
<!-- Node9&#45;&gt;Node15 -->
<g id="edge15_Node000009_Node000015" class="edge">
<title>Node9&#45;&gt;Node15</title>
<g id="a_edge15_Node000009_Node000015"><a xlink:title=" ">
<path fill="none" stroke="#63b8ff" d="M378.18,-124.35C397.65,-107.42 431.49,-80.32 465,-64.5 477.77,-58.47 492.86,-54.24 505.66,-51.4"/>
<polygon fill="#63b8ff" stroke="#63b8ff" points="506.68,-54.77 515.78,-49.34 505.28,-47.91 506.68,-54.77"/>
</a>
</g>
</g>
<!-- Node16 -->
<g id="Node000016" class="node">
<title>Node16</title>
<g id="a_Node000016"><a xlink:href="classio.html#a228b6ce6f26848a9adfc0ccf3619a53e" target="_top" xlink:title="Starts an I/O session, opening a file for reading or writing.">
<polygon fill="white" stroke="#666666" points="562,-19 508,-19 508,0 562,0 562,-19"/>
<text text-anchor="middle" x="535" y="-7" font-family="Helvetica,sans-Serif" font-size="10.00">io::start</text>
</a>
</g>
</g>
<!-- Node9&#45;&gt;Node16 -->
<g id="edge17_Node000009_Node000016" class="edge">
<title>Node9&#45;&gt;Node16</title>
<g id="a_edge17_Node000009_Node000016"><a xlink:title=" ">
<path fill="none" stroke="#63b8ff" d="M371.27,-124.24C387.65,-99.96 422.99,-52.68 465,-27.5 474.92,-21.55 486.78,-17.55 497.86,-14.86"/>
<polygon fill="#63b8ff" stroke="#63b8ff" points="498.68,-18.27 507.72,-12.75 497.21,-11.42 498.68,-18.27"/>
</a>
</g>
</g>
<!-- Node11 -->
<g id="Node000011" class="node">
<title>Node11</title>
<g id="a_Node000011"><a xlink:href="classio.html#a0a188e43f5e4e5b8a3b1cefa677351c2" target="_top" xlink:title="Static callback function for H5Literate, used to iterate over objects in an HDF5 file.">
<polygon fill="white" stroke="#666666" points="728.5,-204 657.5,-204 657.5,-185 728.5,-185 728.5,-204"/>
<text text-anchor="middle" x="693" y="-192" font-family="Helvetica,sans-Serif" font-size="10.00">io::file_info</text>
</a>
</g>
</g>
<!-- Node10&#45;&gt;Node11 -->
<g id="edge11_Node000010_Node000011" class="edge">
<title>Node10&#45;&gt;Node11</title>
<g id="a_edge11_Node000010_Node000011"><a xlink:title=" ">
<path fill="none" stroke="#63b8ff" d="M588.81,-194.5C607.82,-194.5 629.06,-194.5 647.3,-194.5"/>
<polygon fill="#63b8ff" stroke="#63b8ff" points="647.38,-198 657.38,-194.5 647.38,-191 647.38,-198"/>
</a>
</g>
</g>
<!-- Node17 -->
<g id="Node000017" class="node">
<title>Node17</title>
<g id="a_Node000017"><a xlink:href="classtools.html#aed9f3247b474a8fb1840860d51cde7ca" target="_top" xlink:title="Creates a directory path, including parent directories if needed.">
<polygon fill="white" stroke="#666666" points="745,-112 641,-112 641,-93 745,-93 745,-112"/>
<text text-anchor="middle" x="693" y="-100" font-family="Helvetica,sans-Serif" font-size="10.00">tools::create_path</text>
</a>
</g>
</g>
<!-- Node16&#45;&gt;Node17 -->
<g id="edge18_Node000016_Node000017" class="edge">
<title>Node16&#45;&gt;Node17</title>
<g id="a_edge18_Node000016_Node000017"><a xlink:title=" ">
<path fill="none" stroke="#63b8ff" d="M562.26,-13.43C575.6,-16.14 591.74,-20.54 605,-27.5 633.38,-42.39 660.41,-68.14 676.6,-85.25"/>
<polygon fill="#63b8ff" stroke="#63b8ff" points="674.29,-87.9 683.64,-92.87 679.43,-83.15 674.29,-87.9"/>
</a>
</g>
</g>
<!-- Node18 -->
<g id="Node000018" class="node">
<title>Node18</title>
<g id="a_Node000018"><a xlink:href="classtools.html#a47d3d261edcb898daab56721e18d1e67" target="_top" xlink:title="Checks if a path refers to an existing file.">
<polygon fill="white" stroke="#666666" points="730.5,-19 655.5,-19 655.5,0 730.5,0 730.5,-19"/>
<text text-anchor="middle" x="693" y="-7" font-family="Helvetica,sans-Serif" font-size="10.00">tools::is_file</text>
</a>
</g>
</g>
<!-- Node16&#45;&gt;Node18 -->
<g id="edge20_Node000016_Node000018" class="edge">
<title>Node16&#45;&gt;Node18</title>
<g id="a_edge20_Node000016_Node000018"><a xlink:title=" ">
<path fill="none" stroke="#63b8ff" d="M562.11,-9.5C584.72,-9.5 617.98,-9.5 645.18,-9.5"/>
<polygon fill="#63b8ff" stroke="#63b8ff" points="645.28,-13 655.28,-9.5 645.28,-6 645.28,-13"/>
</a>
</g>
</g>
<!-- Node17&#45;&gt;Node4 -->
<g id="edge19_Node000017_Node000004" class="edge">
<title>Node17&#45;&gt;Node4</title>
<g id="a_edge19_Node000017_Node000004"><a xlink:title=" ">
<path fill="none" stroke="#63b8ff" d="M703.02,-112.27C723.27,-134.21 772.58,-187.63 798.1,-215.28"/>
<polygon fill="#63b8ff" stroke="#63b8ff" points="795.85,-217.99 805.2,-222.97 800.99,-213.25 795.85,-217.99"/>
</a>
</g>
</g>
</g>
</svg>

<g id="navigator" transform="translate(0 0)" fill="#404254">
  <rect fill="#f2f5e9" fill-opacity="0.5" stroke="#606060" stroke-width=".5" x="0" y="0" width="60" height="60"/>
  <use id="zoomplus" xlink:href="#zoomPlus" x="17" y="9" onmousedown="handleZoom(evt,'in')"/>
  <use id="zoomminus" xlink:href="#zoomMin" x="42" y="9" onmousedown="handleZoom(evt,'out')"/>
  <use id="reset" xlink:href="#resetDef" x="30" y="36" onmousedown="handleReset()"/>
   <use id="arrowup" xlink:href="#arrowUp" x="0" y="0" onmousedown="handlePan(0,-1)"/>
  <use id="arrowright" xlink:href="#arrowRight" x="0" y="0" onmousedown="handlePan(1,0)"/>
  <use id="arrowdown" xlink:href="#arrowDown" x="0" y="0" onmousedown="handlePan(0,1)"/>
  <use id="arrowleft" xlink:href="#arrowLeft" x="0" y="0" onmousedown="handlePan(-1,0)"/>
</g>
<svg viewBox="0 0 15 15" width="100%" height="30px" preserveAspectRatio="xMaxYMin meet">
 <g id="arrow_out" transform="scale(0.3 0.3)">
  <a xlink:href="classdataloader_ae3bba702555507d8b6e5567c34d19142_cgraph_org.svg" target="_base">
   <rect id="button" ry="5" rx="5" y="6" x="6" height="38" width="38"
        fill="#f2f5e9" fill-opacity="0.5" stroke="#606060" stroke-width="1.0"/>
   <path id="arrow"
     d="M 11.500037,31.436501 C 11.940474,20.09759 22.043105,11.32322 32.158766,21.979434 L 37.068811,17.246167 C 37.068811,17.246167 37.088388,32 37.088388,32 L 22.160133,31.978069 C 22.160133,31.978069 26.997745,27.140456 26.997745,27.140456 C 18.528582,18.264221 13.291696,25.230495 11.500037,31.436501 z"
     style="fill:#404040;"/>
  </a>
 </g>
</svg>

<style type='text/css'>
<![CDATA[
[data-mouse-over-selected='false'] { opacity: 0.7; }
[data-mouse-over-selected='true']  { opacity: 1.0; }
]]>
</style>
<script type="application/ecmascript"><![CDATA[
document.addEventListener('DOMContentLoaded', (event) => {
  highlightEdges();
  highlightAdjacentNodes();
});
]]></script>
</svg>
