<?xml version="1.0" encoding="UTF-8" standalone="no"?>
<!DOCTYPE svg PUBLIC "-//W3C//DTD SVG 1.1//EN"
 "http://www.w3.org/Graphics/SVG/1.1/DTD/svg11.dtd">
<!-- Generated by graphviz version 2.43.0 (0)
 -->
<!-- Title: zboson Pages: 1 -->
<svg width="132pt" height="1037pt"
 viewBox="0.00 0.00 132.00 1037.00" xmlns="http://www.w3.org/2000/svg" xmlns:xlink="http://www.w3.org/1999/xlink">
<g id="graph0" class="graph" transform="scale(1 1) rotate(0) translate(4 1033)">
<title>zboson</title>
<!-- Node1 -->
<g id="Node000001" class="node">
<title>Node1</title>
<g id="a_Node000001"><a xlink:title=" ">
<polygon fill="#999999" stroke="transparent" points="98,-94 26,-94 26,0 98,0 98,-94"/>
<text text-anchor="start" x="44.5" y="-82" font-family="Helvetica,sans-Serif" font-size="10.00">zboson</text>
<text text-anchor="start" x="60" y="-67" font-family="Helvetica,sans-Serif" font-size="10.00"> </text>
<text text-anchor="start" x="30" y="-52" font-family="Helvetica,sans-Serif" font-size="10.00">+</text>
<text text-anchor="start" x="43" y="-52" font-family="Helvetica,sans-Serif" font-size="10.00">zboson()</text>
<text text-anchor="start" x="30" y="-37" font-family="Helvetica,sans-Serif" font-size="10.00">+</text>
<text text-anchor="start" x="43" y="-37" font-family="Helvetica,sans-Serif" font-size="10.00">~zboson()</text>
<text text-anchor="start" x="30" y="-22" font-family="Helvetica,sans-Serif" font-size="10.00">+</text>
<text text-anchor="start" x="43" y="-22" font-family="Helvetica,sans-Serif" font-size="10.00">clone()</text>
<text text-anchor="start" x="30" y="-7" font-family="Helvetica,sans-Serif" font-size="10.00">+</text>
<text text-anchor="start" x="43" y="-7" font-family="Helvetica,sans-Serif" font-size="10.00">build()</text>
<polygon fill="#666666" stroke="#666666" points="26,-77 26,-77 98,-77 98,-77 26,-77"/>
<polygon fill="#666666" stroke="#666666" points="26,-62 26,-62 98,-62 98,-62 26,-62"/>
<polygon fill="none" stroke="#666666" points="26,0 26,-94 98,-94 98,0 26,0"/>
</a>
</g>
</g>
<!-- Node2 -->
<g id="Node000002" class="node">
<title>Node2</title>
<g id="a_Node000002"><a xlink:href="classparticle__template.html" target="_top" xlink:title="Base class for representing physics particles with four&#45;momentum and properties.">
<polygon fill="white" stroke="transparent" points="124,-644 0,-644 0,-130 124,-130 124,-644"/>
<text text-anchor="start" x="18.5" y="-632" font-family="Helvetica,sans-Serif" font-size="10.00">particle_template</text>
<text text-anchor="start" x="4" y="-617" font-family="Helvetica,sans-Serif" font-size="10.00">+</text>
<text text-anchor="start" x="17" y="-617" font-family="Helvetica,sans-Serif" font-size="10.00">e</text>
<text text-anchor="start" x="4" y="-602" font-family="Helvetica,sans-Serif" font-size="10.00">+</text>
<text text-anchor="start" x="17" y="-602" font-family="Helvetica,sans-Serif" font-size="10.00">mass</text>
<text text-anchor="start" x="4" y="-587" font-family="Helvetica,sans-Serif" font-size="10.00">+</text>
<text text-anchor="start" x="17" y="-587" font-family="Helvetica,sans-Serif" font-size="10.00">pt</text>
<text text-anchor="start" x="4" y="-572" font-family="Helvetica,sans-Serif" font-size="10.00">+</text>
<text text-anchor="start" x="17" y="-572" font-family="Helvetica,sans-Serif" font-size="10.00">eta</text>
<text text-anchor="start" x="4" y="-557" font-family="Helvetica,sans-Serif" font-size="10.00">+</text>
<text text-anchor="start" x="17" y="-557" font-family="Helvetica,sans-Serif" font-size="10.00">phi</text>
<text text-anchor="start" x="4" y="-542" font-family="Helvetica,sans-Serif" font-size="10.00">+</text>
<text text-anchor="start" x="17" y="-542" font-family="Helvetica,sans-Serif" font-size="10.00">px</text>
<text text-anchor="start" x="4" y="-527" font-family="Helvetica,sans-Serif" font-size="10.00">+</text>
<text text-anchor="start" x="17" y="-527" font-family="Helvetica,sans-Serif" font-size="10.00">py</text>
<text text-anchor="start" x="4" y="-512" font-family="Helvetica,sans-Serif" font-size="10.00">+</text>
<text text-anchor="start" x="17" y="-512" font-family="Helvetica,sans-Serif" font-size="10.00">pz</text>
<text text-anchor="start" x="4" y="-497" font-family="Helvetica,sans-Serif" font-size="10.00">+</text>
<text text-anchor="start" x="17" y="-497" font-family="Helvetica,sans-Serif" font-size="10.00">pdgid</text>
<text text-anchor="start" x="4" y="-482" font-family="Helvetica,sans-Serif" font-size="10.00">+</text>
<text text-anchor="start" x="17" y="-482" font-family="Helvetica,sans-Serif" font-size="10.00">symbol</text>
<text text-anchor="start" x="17" y="-467" font-family="Helvetica,sans-Serif" font-size="10.00">and 17 more...</text>
<text text-anchor="start" x="4" y="-452" font-family="Helvetica,sans-Serif" font-size="10.00">+</text>
<text text-anchor="start" x="17" y="-452" font-family="Helvetica,sans-Serif" font-size="10.00">particle_template()</text>
<text text-anchor="start" x="4" y="-437" font-family="Helvetica,sans-Serif" font-size="10.00">+</text>
<text text-anchor="start" x="17" y="-437" font-family="Helvetica,sans-Serif" font-size="10.00">~particle_template()</text>
<text text-anchor="start" x="4" y="-422" font-family="Helvetica,sans-Serif" font-size="10.00">+</text>
<text text-anchor="start" x="17" y="-422" font-family="Helvetica,sans-Serif" font-size="10.00">particle_template()</text>
<text text-anchor="start" x="4" y="-407" font-family="Helvetica,sans-Serif" font-size="10.00">+</text>
<text text-anchor="start" x="17" y="-407" font-family="Helvetica,sans-Serif" font-size="10.00">particle_template()</text>
<text text-anchor="start" x="4" y="-392" font-family="Helvetica,sans-Serif" font-size="10.00">+</text>
<text text-anchor="start" x="17" y="-392" font-family="Helvetica,sans-Serif" font-size="10.00">particle_template()</text>
<text text-anchor="start" x="4" y="-377" font-family="Helvetica,sans-Serif" font-size="10.00">+</text>
<text text-anchor="start" x="17" y="-377" font-family="Helvetica,sans-Serif" font-size="10.00">particle_template()</text>
<text text-anchor="start" x="4" y="-362" font-family="Helvetica,sans-Serif" font-size="10.00">+</text>
<text text-anchor="start" x="17" y="-362" font-family="Helvetica,sans-Serif" font-size="10.00">to_cartesian()</text>
<text text-anchor="start" x="4" y="-347" font-family="Helvetica,sans-Serif" font-size="10.00">+</text>
<text text-anchor="start" x="17" y="-347" font-family="Helvetica,sans-Serif" font-size="10.00">to_polar()</text>
<text text-anchor="start" x="4" y="-332" font-family="Helvetica,sans-Serif" font-size="10.00">+</text>
<text text-anchor="start" x="17" y="-332" font-family="Helvetica,sans-Serif" font-size="10.00">is()</text>
<text text-anchor="start" x="4" y="-317" font-family="Helvetica,sans-Serif" font-size="10.00">+</text>
<text text-anchor="start" x="17" y="-317" font-family="Helvetica,sans-Serif" font-size="10.00">DeltaR()</text>
<text text-anchor="start" x="17" y="-302" font-family="Helvetica,sans-Serif" font-size="10.00">and 11 more...</text>
<text text-anchor="start" x="4" y="-287" font-family="Helvetica,sans-Serif" font-size="10.00">+</text>
<text text-anchor="start" x="17" y="-287" font-family="Helvetica,sans-Serif" font-size="10.00">set_e()</text>
<text text-anchor="start" x="4" y="-272" font-family="Helvetica,sans-Serif" font-size="10.00">+</text>
<text text-anchor="start" x="17" y="-272" font-family="Helvetica,sans-Serif" font-size="10.00">get_e()</text>
<text text-anchor="start" x="4" y="-257" font-family="Helvetica,sans-Serif" font-size="10.00">+</text>
<text text-anchor="start" x="17" y="-257" font-family="Helvetica,sans-Serif" font-size="10.00">set_mass()</text>
<text text-anchor="start" x="4" y="-242" font-family="Helvetica,sans-Serif" font-size="10.00">+</text>
<text text-anchor="start" x="17" y="-242" font-family="Helvetica,sans-Serif" font-size="10.00">get_mass()</text>
<text text-anchor="start" x="4" y="-227" font-family="Helvetica,sans-Serif" font-size="10.00">+</text>
<text text-anchor="start" x="17" y="-227" font-family="Helvetica,sans-Serif" font-size="10.00">set_pt()</text>
<text text-anchor="start" x="4" y="-212" font-family="Helvetica,sans-Serif" font-size="10.00">+</text>
<text text-anchor="start" x="17" y="-212" font-family="Helvetica,sans-Serif" font-size="10.00">get_pt()</text>
<text text-anchor="start" x="4" y="-197" font-family="Helvetica,sans-Serif" font-size="10.00">+</text>
<text text-anchor="start" x="17" y="-197" font-family="Helvetica,sans-Serif" font-size="10.00">set_eta()</text>
<text text-anchor="start" x="4" y="-182" font-family="Helvetica,sans-Serif" font-size="10.00">+</text>
<text text-anchor="start" x="17" y="-182" font-family="Helvetica,sans-Serif" font-size="10.00">get_eta()</text>
<text text-anchor="start" x="4" y="-167" font-family="Helvetica,sans-Serif" font-size="10.00">+</text>
<text text-anchor="start" x="17" y="-167" font-family="Helvetica,sans-Serif" font-size="10.00">set_phi()</text>
<text text-anchor="start" x="4" y="-152" font-family="Helvetica,sans-Serif" font-size="10.00">+</text>
<text text-anchor="start" x="17" y="-152" font-family="Helvetica,sans-Serif" font-size="10.00">get_phi()</text>
<text text-anchor="start" x="17" y="-137" font-family="Helvetica,sans-Serif" font-size="10.00">and 26 more...</text>
<polygon fill="#666666" stroke="#666666" points="0,-627 0,-627 124,-627 124,-627 0,-627"/>
<polygon fill="#666666" stroke="#666666" points="0,-462 0,-462 15,-462 15,-462 0,-462"/>
<polygon fill="#666666" stroke="#666666" points="15,-462 15,-462 124,-462 124,-462 15,-462"/>
<polygon fill="none" stroke="#666666" points="0,-130 0,-644 124,-644 124,-130 0,-130"/>
</a>
</g>
</g>
<!-- Node2&#45;&gt;Node1 -->
<g id="edge1_Node000001_Node000002" class="edge">
<title>Node2&#45;&gt;Node1</title>
<g id="a_edge1_Node000001_Node000002"><a xlink:title=" ">
<path fill="none" stroke="#63b8ff" d="M62,-119.75C62,-110.67 62,-102.16 62,-94.4"/>
<polygon fill="none" stroke="#63b8ff" points="58.5,-119.82 62,-129.82 65.5,-119.82 58.5,-119.82"/>
</a>
</g>
</g>
<!-- Node3 -->
<g id="Node000003" class="node">
<title>Node3</title>
<g id="a_Node000003"><a xlink:href="classtools.html" target="_top" xlink:title="Provides a wide range of utility functions used throughout the framework.">
<polygon fill="white" stroke="transparent" points="111,-1029 13,-1029 13,-680 111,-680 111,-1029"/>
<text text-anchor="start" x="49.5" y="-1016.5" font-family="Helvetica,sans-Serif" font-size="10.00">tools</text>
<text text-anchor="start" x="60" y="-1001.5" font-family="Helvetica,sans-Serif" font-size="10.00"> </text>
<text text-anchor="start" x="17" y="-986.5" font-family="Helvetica,sans-Serif" font-size="10.00">+</text>
<text text-anchor="start" x="30" y="-986.5" font-family="Helvetica,sans-Serif" font-size="10.00">tools()</text>
<text text-anchor="start" x="17" y="-971.5" font-family="Helvetica,sans-Serif" font-size="10.00">+</text>
<text text-anchor="start" x="30" y="-971.5" font-family="Helvetica,sans-Serif" font-size="10.00">~tools()</text>
<text text-anchor="start" x="17" y="-956.5" font-family="Helvetica,sans-Serif" font-size="10.00">+</text>
<text text-anchor="start" x="30" y="-956.5" font-family="Helvetica,sans-Serif" font-size="10.00">split()</text>
<text text-anchor="start" x="17" y="-941.5" font-family="Helvetica,sans-Serif" font-size="10.00">+</text>
<text text-anchor="start" x="30" y="-941.5" font-family="Helvetica,sans-Serif" font-size="10.00">trim()</text>
<text text-anchor="start" x="17" y="-926.5" font-family="Helvetica,sans-Serif" font-size="10.00">+</text>
<text text-anchor="start" x="30" y="-926.5" font-family="Helvetica,sans-Serif" font-size="10.00">type_name()</text>
<text text-anchor="start" x="17" y="-911.5" font-family="Helvetica,sans-Serif" font-size="10.00">+</text>
<text text-anchor="start" x="30" y="-911.5" font-family="Helvetica,sans-Serif" font-size="10.00">sum()</text>
<text text-anchor="start" x="17" y="-896.5" font-family="Helvetica,sans-Serif" font-size="10.00">+</text>
<text text-anchor="start" x="30" y="-896.5" font-family="Helvetica,sans-Serif" font-size="10.00">create_path()</text>
<text text-anchor="start" x="17" y="-881.5" font-family="Helvetica,sans-Serif" font-size="10.00">+</text>
<text text-anchor="start" x="30" y="-881.5" font-family="Helvetica,sans-Serif" font-size="10.00">delete_path()</text>
<text text-anchor="start" x="17" y="-866.5" font-family="Helvetica,sans-Serif" font-size="10.00">+</text>
<text text-anchor="start" x="30" y="-866.5" font-family="Helvetica,sans-Serif" font-size="10.00">is_file()</text>
<text text-anchor="start" x="17" y="-851.5" font-family="Helvetica,sans-Serif" font-size="10.00">+</text>
<text text-anchor="start" x="30" y="-851.5" font-family="Helvetica,sans-Serif" font-size="10.00">rename()</text>
<text text-anchor="start" x="17" y="-836.5" font-family="Helvetica,sans-Serif" font-size="10.00">+</text>
<text text-anchor="start" x="30" y="-836.5" font-family="Helvetica,sans-Serif" font-size="10.00">absolute_path()</text>
<text text-anchor="start" x="17" y="-821.5" font-family="Helvetica,sans-Serif" font-size="10.00">+</text>
<text text-anchor="start" x="30" y="-821.5" font-family="Helvetica,sans-Serif" font-size="10.00">ls()</text>
<text text-anchor="start" x="17" y="-806.5" font-family="Helvetica,sans-Serif" font-size="10.00">+</text>
<text text-anchor="start" x="30" y="-806.5" font-family="Helvetica,sans-Serif" font-size="10.00">to_string()</text>
<text text-anchor="start" x="17" y="-791.5" font-family="Helvetica,sans-Serif" font-size="10.00">+</text>
<text text-anchor="start" x="30" y="-791.5" font-family="Helvetica,sans-Serif" font-size="10.00">to_string()</text>
<text text-anchor="start" x="17" y="-776.5" font-family="Helvetica,sans-Serif" font-size="10.00">+</text>
<text text-anchor="start" x="30" y="-776.5" font-family="Helvetica,sans-Serif" font-size="10.00">replace()</text>
<text text-anchor="start" x="17" y="-761.5" font-family="Helvetica,sans-Serif" font-size="10.00">+</text>
<text text-anchor="start" x="30" y="-761.5" font-family="Helvetica,sans-Serif" font-size="10.00">has_string()</text>
<text text-anchor="start" x="17" y="-746.5" font-family="Helvetica,sans-Serif" font-size="10.00">+</text>
<text text-anchor="start" x="30" y="-746.5" font-family="Helvetica,sans-Serif" font-size="10.00">ends_with()</text>
<text text-anchor="start" x="17" y="-731.5" font-family="Helvetica,sans-Serif" font-size="10.00">+</text>
<text text-anchor="start" x="30" y="-731.5" font-family="Helvetica,sans-Serif" font-size="10.00">has_value()</text>
<text text-anchor="start" x="17" y="-716.5" font-family="Helvetica,sans-Serif" font-size="10.00">+</text>
<text text-anchor="start" x="30" y="-716.5" font-family="Helvetica,sans-Serif" font-size="10.00">flush()</text>
<text text-anchor="start" x="17" y="-701.5" font-family="Helvetica,sans-Serif" font-size="10.00">+</text>
<text text-anchor="start" x="30" y="-701.5" font-family="Helvetica,sans-Serif" font-size="10.00">put()</text>
<text text-anchor="start" x="17" y="-686.5" font-family="Helvetica,sans-Serif" font-size="10.00">+</text>
<text text-anchor="start" x="30" y="-686.5" font-family="Helvetica,sans-Serif" font-size="10.00">extract()</text>
<polygon fill="#666666" stroke="#666666" points="13,-1011.5 13,-1011.5 111,-1011.5 111,-1011.5 13,-1011.5"/>
<polygon fill="#666666" stroke="#666666" points="13,-996.5 13,-996.5 111,-996.5 111,-996.5 13,-996.5"/>
<polygon fill="none" stroke="#666666" points="13,-680 13,-1029 111,-1029 111,-680 13,-680"/>
</a>
</g>
</g>
<!-- Node3&#45;&gt;Node2 -->
<g id="edge2_Node000002_Node000003" class="edge">
<title>Node3&#45;&gt;Node2</title>
<g id="a_edge2_Node000002_Node000003"><a xlink:title=" ">
<path fill="none" stroke="#63b8ff" d="M62,-669.59C62,-661.15 62,-652.62 62,-644.05"/>
<polygon fill="none" stroke="#63b8ff" points="58.5,-669.83 62,-679.83 65.5,-669.83 58.5,-669.83"/>
</a>
</g>
</g>
</g>
</svg>
