<?xml version="1.0" encoding="UTF-8" standalone="no"?>
<!DOCTYPE svg PUBLIC "-//W3C//DTD SVG 1.1//EN"
 "http://www.w3.org/Graphics/SVG/1.1/DTD/svg11.dtd">
<!-- Generated by graphviz version 2.43.0 (0)
 -->
<!-- Title: metrics::generic_painter Pages: 1 -->
<svg width="467pt" height="86pt"
 viewBox="0.00 0.00 467.00 86.00" xmlns="http://www.w3.org/2000/svg" xmlns:xlink="http://www.w3.org/1999/xlink">

<svg id="main" version="1.1" xmlns="http://www.w3.org/2000/svg" xmlns:xlink="http://www.w3.org/1999/xlink" xml:space="preserve" onload="init(evt)">
<style type="text/css"><![CDATA[
.node, .edge {opacity: 0.7;}
.node.selected, .edge.selected {opacity: 1;}
.edge:hover path { stroke: red; }
.edge:hover polygon { stroke: red; fill: red; }
]]></style>
<script type="application/ecmascript" xlink:href="svg.min.js"/>
<svg id="graph" class="graph">
<g id="graph0" class="graph" transform="scale(1 1) rotate(0) translate(4 82)">
<title>metrics::generic_painter</title>
<!-- Node1 -->
<g id="Node000001" class="node">
<title>Node1</title>
<g id="a_Node000001"><a xlink:title=" ">
<polygon fill="#999999" stroke="#666666" points="459,-48.5 324,-48.5 324,-29.5 459,-29.5 459,-48.5"/>
<text text-anchor="middle" x="391.5" y="-36.5" font-family="Helvetica,sans-Serif" font-size="10.00">metrics::generic_painter</text>
</a>
</g>
</g>
<!-- Node2 -->
<g id="Node000002" class="node">
<title>Node2</title>
<g id="a_Node000002"><a xlink:href="classmetrics.html#a2ed5da3a9b6c0e0e9b711afafaeed7ab" target="_top" xlink:title=" ">
<polygon fill="white" stroke="#666666" points="288,-78 152,-78 152,-48 288,-48 288,-78"/>
<text text-anchor="start" x="160" y="-66" font-family="Helvetica,sans-Serif" font-size="10.00">metrics::dump_accuracy</text>
<text text-anchor="middle" x="220" y="-55" font-family="Helvetica,sans-Serif" font-size="10.00">_plots</text>
</a>
</g>
</g>
<!-- Node1&#45;&gt;Node2 -->
<g id="edge1_Node000001_Node000002" class="edge">
<title>Node1&#45;&gt;Node2</title>
<g id="a_edge1_Node000001_Node000002"><a xlink:title=" ">
<path fill="none" stroke="#63b8ff" d="M313.96,-49.84C305.35,-51.06 296.63,-52.29 288.15,-53.49"/>
<polygon fill="#63b8ff" stroke="#63b8ff" points="314.59,-53.28 324,-48.42 313.6,-46.35 314.59,-53.28"/>
</a>
</g>
</g>
<!-- Node4 -->
<g id="Node000004" class="node">
<title>Node4</title>
<g id="a_Node000004"><a xlink:href="classmetrics.html#a85ac60407efe672dd1ba1c067a06afb2" target="_top" xlink:title=" ">
<polygon fill="white" stroke="#666666" points="276,-30 164,-30 164,0 276,0 276,-30"/>
<text text-anchor="start" x="172" y="-18" font-family="Helvetica,sans-Serif" font-size="10.00">metrics::dump_loss</text>
<text text-anchor="middle" x="220" y="-7" font-family="Helvetica,sans-Serif" font-size="10.00">_plots</text>
</a>
</g>
</g>
<!-- Node1&#45;&gt;Node4 -->
<g id="edge3_Node000001_Node000004" class="edge">
<title>Node1&#45;&gt;Node4</title>
<g id="a_edge3_Node000001_Node000004"><a xlink:title=" ">
<path fill="none" stroke="#63b8ff" d="M313.86,-28.15C301.13,-26.35 288.16,-24.51 276.1,-22.8"/>
<polygon fill="#63b8ff" stroke="#63b8ff" points="313.6,-31.65 324,-29.58 314.59,-24.72 313.6,-31.65"/>
</a>
</g>
</g>
<!-- Node3 -->
<g id="Node000003" class="node">
<title>Node3</title>
<g id="a_Node000003"><a xlink:href="classmetrics.html#a8a0b4107864ac5f548ed37a9a4a9372f" target="_top" xlink:title="Dumps all metric plots for a specific k&#45;fold.">
<polygon fill="white" stroke="#666666" points="116,-48.5 0,-48.5 0,-29.5 116,-29.5 116,-48.5"/>
<text text-anchor="middle" x="58" y="-36.5" font-family="Helvetica,sans-Serif" font-size="10.00">metrics::dump_plots</text>
</a>
</g>
</g>
<!-- Node2&#45;&gt;Node3 -->
<g id="edge2_Node000002_Node000003" class="edge">
<title>Node2&#45;&gt;Node3</title>
<g id="a_edge2_Node000002_Node000003"><a xlink:title=" ">
<path fill="none" stroke="#63b8ff" d="M141.6,-51.39C133.04,-50.11 124.44,-48.82 116.19,-47.58"/>
<polygon fill="#63b8ff" stroke="#63b8ff" points="141.2,-54.87 151.61,-52.89 142.24,-47.95 141.2,-54.87"/>
</a>
</g>
</g>
<!-- Node4&#45;&gt;Node3 -->
<g id="edge4_Node000004_Node000003" class="edge">
<title>Node4&#45;&gt;Node3</title>
<g id="a_edge4_Node000004_Node000003"><a xlink:title=" ">
<path fill="none" stroke="#63b8ff" d="M154,-24.75C141.43,-26.64 128.36,-28.6 116.07,-30.44"/>
<polygon fill="#63b8ff" stroke="#63b8ff" points="154.57,-28.2 163.94,-23.26 153.53,-21.28 154.57,-28.2"/>
</a>
</g>
</g>
</g>
</svg>
</svg>

<style type='text/css'>
<![CDATA[
[data-mouse-over-selected='false'] { opacity: 0.7; }
[data-mouse-over-selected='true']  { opacity: 1.0; }
]]>
</style>
<script type="application/ecmascript"><![CDATA[
document.addEventListener('DOMContentLoaded', (event) => {
  highlightEdges();
  highlightAdjacentNodes();
});
]]></script>
</svg>
