<?xml version="1.0" encoding="UTF-8" standalone="no"?>
<!DOCTYPE svg PUBLIC "-//W3C//DTD SVG 1.1//EN"
 "http://www.w3.org/Graphics/SVG/1.1/DTD/svg11.dtd">
<!-- Generated by graphviz version 2.43.0 (0)
 -->
<!-- Title: cproperty::set_object Pages: 1 -->
<!--zoomable 764 -->

<svg id="main" version="1.1" xmlns="http://www.w3.org/2000/svg" xmlns:xlink="http://www.w3.org/1999/xlink" xml:space="preserve" onload="init(evt)">
<style type="text/css"><![CDATA[
.node, .edge {opacity: 0.7;}
.node.selected, .edge.selected {opacity: 1;}
.edge:hover path { stroke: red; }
.edge:hover polygon { stroke: red; fill: red; }
]]></style>

<defs>
  <circle id="rim" cx="0" cy="0" r="7"/>
  <circle id="rim2" cx="0" cy="0" r="3.5"/>
  <g id="zoomPlus">
    <use xlink:href="#rim" fill="#404040"><set attributeName="fill" to="#808080" begin="zoomplus.mouseover" end="zoomplus.mouseout"/></use>
    <path d="M-4,0h8M0,-4v8" fill="none" stroke="white" stroke-width="1.5" pointer-events="none"/>
  </g>
  <g id="zoomMin">
    <use xlink:href="#rim" fill="#404040"><set attributeName="fill" to="#808080" begin="zoomminus.mouseover" end="zoomminus.mouseout"/></use>
    <path d="M-4,0h8" fill="none" stroke="white" stroke-width="1.5" pointer-events="none"/>
  </g>
  <g id="arrowUp" transform="translate(30 24)">
    <use xlink:href="#rim"/>
    <path pointer-events="none" fill="none" stroke="white" stroke-width="1.5" d="M0,-3.0v7 M-2.5,-0.5L0,-3.0L2.5,-0.5"/>
  </g>
  <g id="arrowRight" transform="rotate(90) translate(36 -43)">
    <use xlink:href="#rim"/>
    <path pointer-events="none" fill="none" stroke="white" stroke-width="1.5" d="M0,-3.0v7 M-2.5,-0.5L0,-3.0L2.5,-0.5"/>
  </g>
  <g id="arrowDown" transform="rotate(180) translate(-30 -48)">
    <use xlink:href="#rim"/>
    <path pointer-events="none" fill="none" stroke="white" stroke-width="1.5" d="M0,-3.0v7 M-2.5,-0.5L0,-3.0L2.5,-0.5"/>
  </g>
  <g id="arrowLeft" transform="rotate(270) translate(-36 17)">
    <use xlink:href="#rim"/>
    <path pointer-events="none" fill="none" stroke="white" stroke-width="1.5" d="M0,-3.0v7 M-2.5,-0.5L0,-3.0L2.5,-0.5"/>
  </g>
  <g id="resetDef">
    <use xlink:href="#rim2" fill="#404040"><set attributeName="fill" to="#808080" begin="reset.mouseover" end="reset.mouseout"/></use>
  </g>
</defs>
<script type="application/ecmascript">
var viewWidth = 650;
var viewHeight = 764;
var sectionId = 'dynsection-3';
</script>
<script type="application/ecmascript" xlink:href="svg.min.js"/>
<svg id="graph" class="graph">
<g id="viewport">
<title>cproperty::set_object</title>
<!-- Node1 -->
<g id="Node000001" class="node">
<title>Node1</title>
<g id="a_Node000001"><a xlink:title="Sets the owning object for callback invocation.">
<polygon fill="#999999" stroke="#666666" points="642,-392.5 523,-392.5 523,-373.5 642,-373.5 642,-392.5"/>
<text text-anchor="middle" x="582.5" y="-380.5" font-family="Helvetica,sans-Serif" font-size="10.00">cproperty::set_object</text>
</a>
</g>
</g>
<!-- Node2 -->
<g id="Node000002" class="node">
<title>Node2</title>
<g id="a_Node000002"><a xlink:href="classevent__template.html#a4fc169ae8c1412e8fba67ef35c9bb01a" target="_top" xlink:title="Default constructor for event_template.">
<polygon fill="white" stroke="#666666" points="479.5,-756 351.5,-756 351.5,-726 479.5,-726 479.5,-756"/>
<text text-anchor="start" x="359.5" y="-744" font-family="Helvetica,sans-Serif" font-size="10.00">event_template::event</text>
<text text-anchor="middle" x="415.5" y="-733" font-family="Helvetica,sans-Serif" font-size="10.00">_template</text>
</a>
</g>
</g>
<!-- Node1&#45;&gt;Node2 -->
<g id="edge1_Node000001_Node000002" class="edge">
<title>Node1&#45;&gt;Node2</title>
<g id="a_edge1_Node000001_Node000002"><a xlink:title=" ">
<path fill="none" stroke="#63b8ff" d="M581.88,-402.94C581.86,-459.95 573.93,-625.39 487,-717 483.71,-720.47 479.89,-723.44 475.78,-725.98"/>
<polygon fill="#63b8ff" stroke="#63b8ff" points="585.38,-402.73 581.79,-392.76 578.38,-402.79 585.38,-402.73"/>
</a>
</g>
</g>
<!-- Node4 -->
<g id="Node000004" class="node">
<title>Node4</title>
<g id="a_Node000004"><a xlink:href="classgraph__template.html#ad496a2818827b70a95f491889b71663a" target="_top" xlink:title="Default constructor.">
<polygon fill="white" stroke="#666666" points="479.5,-708 351.5,-708 351.5,-678 479.5,-678 479.5,-708"/>
<text text-anchor="start" x="359.5" y="-696" font-family="Helvetica,sans-Serif" font-size="10.00">graph_template::graph</text>
<text text-anchor="middle" x="415.5" y="-685" font-family="Helvetica,sans-Serif" font-size="10.00">_template</text>
</a>
</g>
</g>
<!-- Node1&#45;&gt;Node4 -->
<g id="edge3_Node000001_Node000004" class="edge">
<title>Node1&#45;&gt;Node4</title>
<g id="a_edge3_Node000001_Node000004"><a xlink:title=" ">
<path fill="none" stroke="#63b8ff" d="M580.77,-402.77C577.8,-454.02 562.8,-592.51 487,-669 483.63,-672.4 479.77,-675.31 475.61,-677.82"/>
<polygon fill="#63b8ff" stroke="#63b8ff" points="584.27,-402.86 581.26,-392.7 577.28,-402.52 584.27,-402.86"/>
</a>
</g>
</g>
<!-- Node7 -->
<g id="Node000007" class="node">
<title>Node7</title>
<g id="a_Node000007"><a xlink:href="classjet.html#ae5a7844bf8bad33084fc7514e0567c2d" target="_top" xlink:title=" ">
<polygon fill="white" stroke="#666666" points="439.5,-659.5 391.5,-659.5 391.5,-640.5 439.5,-640.5 439.5,-659.5"/>
<text text-anchor="middle" x="415.5" y="-647.5" font-family="Helvetica,sans-Serif" font-size="10.00">jet::jet</text>
</a>
</g>
</g>
<!-- Node1&#45;&gt;Node7 -->
<g id="edge6_Node000001_Node000007" class="edge">
<title>Node1&#45;&gt;Node7</title>
<g id="a_edge6_Node000001_Node000007"><a xlink:title=" ">
<path fill="none" stroke="#63b8ff" d="M580.01,-402.71C575.37,-449.8 556.93,-569.54 487,-632 474.09,-643.53 454.81,-647.87 439.67,-649.42"/>
<polygon fill="#63b8ff" stroke="#63b8ff" points="583.51,-402.89 580.9,-392.62 576.54,-402.27 583.51,-402.89"/>
</a>
</g>
</g>
<!-- Node10 -->
<g id="Node000010" class="node">
<title>Node10</title>
<g id="a_Node000010"><a xlink:href="classmeta.html#a63ad3379066eb6b7c8bf7a7ea9ee0783" target="_top" xlink:title="&lt; Public access specifier for the following members.">
<polygon fill="white" stroke="#666666" points="452.5,-622.5 378.5,-622.5 378.5,-603.5 452.5,-603.5 452.5,-622.5"/>
<text text-anchor="middle" x="415.5" y="-610.5" font-family="Helvetica,sans-Serif" font-size="10.00">meta::meta</text>
</a>
</g>
</g>
<!-- Node1&#45;&gt;Node10 -->
<g id="edge9_Node000001_Node000010" class="edge">
<title>Node1&#45;&gt;Node10</title>
<g id="a_edge9_Node000001_Node000010"><a xlink:title=" ">
<path fill="none" stroke="#63b8ff" d="M578.44,-402.73C570.89,-444.54 547.41,-542.45 487,-594 477.45,-602.15 464.75,-606.83 452.75,-609.52"/>
<polygon fill="#63b8ff" stroke="#63b8ff" points="581.91,-403.17 580.13,-392.72 575.01,-402 581.91,-403.17"/>
</a>
</g>
</g>
<!-- Node11 -->
<g id="Node000011" class="node">
<title>Node11</title>
<g id="a_Node000011"><a xlink:href="classmetric__template.html#a4f076b39d712cc1ed944d25328bcc271" target="_top" xlink:title=" ">
<polygon fill="white" stroke="#666666" points="483,-585 348,-585 348,-555 483,-555 483,-585"/>
<text text-anchor="start" x="356" y="-573" font-family="Helvetica,sans-Serif" font-size="10.00">metric_template::metric</text>
<text text-anchor="middle" x="415.5" y="-562" font-family="Helvetica,sans-Serif" font-size="10.00">_template</text>
</a>
</g>
</g>
<!-- Node1&#45;&gt;Node11 -->
<g id="edge10_Node000001_Node000011" class="edge">
<title>Node1&#45;&gt;Node11</title>
<g id="a_edge10_Node000001_Node000011"><a xlink:title=" ">
<path fill="none" stroke="#63b8ff" d="M575.38,-402.33C563.68,-436.27 534.93,-506.7 487,-546 482.8,-549.44 478.08,-552.4 473.13,-554.94"/>
<polygon fill="#63b8ff" stroke="#63b8ff" points="578.76,-403.27 578.59,-392.68 572.12,-401.07 578.76,-403.27"/>
</a>
</g>
</g>
<!-- Node15 -->
<g id="Node000015" class="node">
<title>Node15</title>
<g id="a_Node000015"><a xlink:href="classmodel__template.html#af47db8a6a8514fda6e3b714813c07f6d" target="_top" xlink:title="Constructor for the model_template class.">
<polygon fill="white" stroke="#666666" points="482.5,-537 348.5,-537 348.5,-507 482.5,-507 482.5,-537"/>
<text text-anchor="start" x="356.5" y="-525" font-family="Helvetica,sans-Serif" font-size="10.00">model_template::model</text>
<text text-anchor="middle" x="415.5" y="-514" font-family="Helvetica,sans-Serif" font-size="10.00">_template</text>
</a>
</g>
</g>
<!-- Node1&#45;&gt;Node15 -->
<g id="edge14_Node000001_Node000015" class="edge">
<title>Node1&#45;&gt;Node15</title>
<g id="a_edge14_Node000001_Node000015"><a xlink:title=" ">
<path fill="none" stroke="#63b8ff" d="M570.92,-401.47C555.54,-426.73 524.7,-471.9 487,-498 482.11,-501.39 476.7,-504.33 471.12,-506.88"/>
<polygon fill="#63b8ff" stroke="#63b8ff" points="574.11,-402.94 576.2,-392.55 568.09,-399.37 574.11,-402.94"/>
</a>
</g>
</g>
<!-- Node16 -->
<g id="Node000016" class="node">
<title>Node16</title>
<g id="a_Node000016"><a xlink:href="classparticle__template.html#ab527ed22f6d67969247a0be9dda0165f" target="_top" xlink:title="Default constructor.">
<polygon fill="white" stroke="#666666" points="470,-489 361,-489 361,-459 470,-459 470,-489"/>
<text text-anchor="start" x="369" y="-477" font-family="Helvetica,sans-Serif" font-size="10.00">particle_template::</text>
<text text-anchor="middle" x="415.5" y="-466" font-family="Helvetica,sans-Serif" font-size="10.00">particle_template</text>
</a>
</g>
</g>
<!-- Node1&#45;&gt;Node16 -->
<g id="edge15_Node000001_Node000016" class="edge">
<title>Node1&#45;&gt;Node16</title>
<g id="a_edge15_Node000001_Node000016"><a xlink:title=" ">
<path fill="none" stroke="#63b8ff" d="M562.13,-399.28C543.75,-414.09 514.86,-435.76 487,-450 480.55,-453.29 473.55,-456.3 466.55,-458.98"/>
<polygon fill="#63b8ff" stroke="#63b8ff" points="564.75,-401.66 570.27,-392.62 560.31,-396.25 564.75,-401.66"/>
</a>
</g>
</g>
<!-- Node19 -->
<g id="Node000019" class="node">
<title>Node19</title>
<g id="a_Node000019"><a xlink:href="classselection__template.html#a4562a7ab32d93b5f2ca8a232a244041c" target="_top" xlink:title="Default constructor.">
<polygon fill="white" stroke="#666666" points="473.5,-441 357.5,-441 357.5,-411 473.5,-411 473.5,-441"/>
<text text-anchor="start" x="365.5" y="-429" font-family="Helvetica,sans-Serif" font-size="10.00">selection_template</text>
<text text-anchor="middle" x="415.5" y="-418" font-family="Helvetica,sans-Serif" font-size="10.00">::selection_template</text>
</a>
</g>
</g>
<!-- Node1&#45;&gt;Node19 -->
<g id="edge18_Node000001_Node000019" class="edge">
<title>Node1&#45;&gt;Node19</title>
<g id="a_edge18_Node000001_Node000019"><a xlink:title=" ">
<path fill="none" stroke="#63b8ff" d="M534.97,-395.13C515.95,-400.08 493.76,-405.87 473.76,-411.08"/>
<polygon fill="#63b8ff" stroke="#63b8ff" points="536.09,-398.45 544.88,-392.54 534.32,-391.68 536.09,-398.45"/>
</a>
</g>
</g>
<!-- Node22 -->
<g id="Node000022" class="node">
<title>Node22</title>
<g id="a_Node000022"><a xlink:href="classtop__children.html#a0479039c51f146cc0886e1dec06c48d7" target="_top" xlink:title=" ">
<polygon fill="white" stroke="#666666" points="487,-392.5 344,-392.5 344,-373.5 487,-373.5 487,-392.5"/>
<text text-anchor="middle" x="415.5" y="-380.5" font-family="Helvetica,sans-Serif" font-size="10.00">top_children::top_children</text>
</a>
</g>
</g>
<!-- Node1&#45;&gt;Node22 -->
<g id="edge21_Node000001_Node000022" class="edge">
<title>Node1&#45;&gt;Node22</title>
<g id="a_edge21_Node000001_Node000022"><a xlink:title=" ">
<path fill="none" stroke="#63b8ff" d="M512.67,-383C504.22,-383 495.57,-383 487.09,-383"/>
<polygon fill="#63b8ff" stroke="#63b8ff" points="512.86,-386.5 522.86,-383 512.86,-379.5 512.86,-386.5"/>
</a>
</g>
</g>
<!-- Node25 -->
<g id="Node000025" class="node">
<title>Node25</title>
<g id="a_Node000025"><a xlink:href="classtruthjet.html#ad7c0e9521876a9e5d3a74dfbcd47fdee" target="_top" xlink:title=" ">
<polygon fill="white" stroke="#666666" points="463,-355.5 368,-355.5 368,-336.5 463,-336.5 463,-355.5"/>
<text text-anchor="middle" x="415.5" y="-343.5" font-family="Helvetica,sans-Serif" font-size="10.00">truthjet::truthjet</text>
</a>
</g>
</g>
<!-- Node1&#45;&gt;Node25 -->
<g id="edge24_Node000001_Node000025" class="edge">
<title>Node1&#45;&gt;Node25</title>
<g id="a_edge24_Node000001_Node000025"><a xlink:title=" ">
<path fill="none" stroke="#63b8ff" d="M529.23,-371.28C506.64,-366.21 480.53,-360.36 459.13,-355.56"/>
<polygon fill="#63b8ff" stroke="#63b8ff" points="528.48,-374.7 539.01,-373.47 530.02,-367.87 528.48,-374.7"/>
</a>
</g>
</g>
<!-- Node27 -->
<g id="Node000027" class="node">
<title>Node27</title>
<g id="a_Node000027"><a xlink:href="classgraph__template.html#aea3a1bee0125428e0c00dc0816e63d64" target="_top" xlink:title="Adds an edge&#45;level data feature.">
<polygon fill="white" stroke="#666666" points="474.5,-318 356.5,-318 356.5,-288 474.5,-288 474.5,-318"/>
<text text-anchor="start" x="364.5" y="-306" font-family="Helvetica,sans-Serif" font-size="10.00">graph_template::add</text>
<text text-anchor="middle" x="415.5" y="-295" font-family="Helvetica,sans-Serif" font-size="10.00">_edge_data_feature</text>
</a>
</g>
</g>
<!-- Node1&#45;&gt;Node27 -->
<g id="edge26_Node000001_Node000027" class="edge">
<title>Node1&#45;&gt;Node27</title>
<g id="a_edge26_Node000001_Node000027"><a xlink:title=" ">
<path fill="none" stroke="#63b8ff" d="M558.85,-367.77C540.15,-355.63 512.6,-338.79 487,-327 480.07,-323.81 472.59,-320.81 465.18,-318.09"/>
<polygon fill="#63b8ff" stroke="#63b8ff" points="557,-370.74 567.28,-373.3 560.84,-364.89 557,-370.74"/>
</a>
</g>
</g>
<!-- Node28 -->
<g id="Node000028" class="node">
<title>Node28</title>
<g id="a_Node000028"><a xlink:href="classgraph__template.html#aad0f9d28368afe4e7898dcc409ed10a1" target="_top" xlink:title="Adds an edge&#45;level truth feature.">
<polygon fill="white" stroke="#666666" points="474.5,-270 356.5,-270 356.5,-240 474.5,-240 474.5,-270"/>
<text text-anchor="start" x="364.5" y="-258" font-family="Helvetica,sans-Serif" font-size="10.00">graph_template::add</text>
<text text-anchor="middle" x="415.5" y="-247" font-family="Helvetica,sans-Serif" font-size="10.00">_edge_truth_feature</text>
</a>
</g>
</g>
<!-- Node1&#45;&gt;Node28 -->
<g id="edge27_Node000001_Node000028" class="edge">
<title>Node1&#45;&gt;Node28</title>
<g id="a_edge27_Node000001_Node000028"><a xlink:title=" ">
<path fill="none" stroke="#63b8ff" d="M569.56,-365C553.4,-341.97 522.5,-302.29 487,-279 481.81,-275.6 476.09,-272.62 470.22,-270.04"/>
<polygon fill="#63b8ff" stroke="#63b8ff" points="566.83,-367.21 575.37,-373.48 572.6,-363.26 566.83,-367.21"/>
</a>
</g>
</g>
<!-- Node29 -->
<g id="Node000029" class="node">
<title>Node29</title>
<g id="a_Node000029"><a xlink:href="classgraph__template.html#a1a49a06e30768be2815531f478dbb035" target="_top" xlink:title="Adds a graph&#45;level data feature.">
<polygon fill="white" stroke="#666666" points="474.5,-222 356.5,-222 356.5,-192 474.5,-192 474.5,-222"/>
<text text-anchor="start" x="364.5" y="-210" font-family="Helvetica,sans-Serif" font-size="10.00">graph_template::add</text>
<text text-anchor="middle" x="415.5" y="-199" font-family="Helvetica,sans-Serif" font-size="10.00">_graph_data_feature</text>
</a>
</g>
</g>
<!-- Node1&#45;&gt;Node29 -->
<g id="edge28_Node000001_Node000029" class="edge">
<title>Node1&#45;&gt;Node29</title>
<g id="a_edge28_Node000001_Node000029"><a xlink:title=" ">
<path fill="none" stroke="#63b8ff" d="M574.5,-363.64C561.91,-331.5 532.47,-267.12 487,-231 482.65,-227.54 477.77,-224.57 472.66,-222.01"/>
<polygon fill="#63b8ff" stroke="#63b8ff" points="571.31,-365.1 578.12,-373.21 577.85,-362.62 571.31,-365.1"/>
</a>
</g>
</g>
<!-- Node30 -->
<g id="Node000030" class="node">
<title>Node30</title>
<g id="a_Node000030"><a xlink:href="classgraph__template.html#aa76fa2728ad46132846ae09e9db93386" target="_top" xlink:title="Adds a graph&#45;level truth feature.">
<polygon fill="white" stroke="#666666" points="475,-174 356,-174 356,-144 475,-144 475,-174"/>
<text text-anchor="start" x="364" y="-162" font-family="Helvetica,sans-Serif" font-size="10.00">graph_template::add</text>
<text text-anchor="middle" x="415.5" y="-151" font-family="Helvetica,sans-Serif" font-size="10.00">_graph_truth_feature</text>
</a>
</g>
</g>
<!-- Node1&#45;&gt;Node30 -->
<g id="edge29_Node000001_Node000030" class="edge">
<title>Node1&#45;&gt;Node30</title>
<g id="a_edge29_Node000001_Node000030"><a xlink:title=" ">
<path fill="none" stroke="#63b8ff" d="M577.63,-363.51C568.74,-323.83 543.18,-233.15 487,-183 483.14,-179.56 478.77,-176.6 474.13,-174.07"/>
<polygon fill="#63b8ff" stroke="#63b8ff" points="574.24,-364.43 579.74,-373.48 581.09,-362.98 574.24,-364.43"/>
</a>
</g>
</g>
<!-- Node31 -->
<g id="Node000031" class="node">
<title>Node31</title>
<g id="a_Node000031"><a xlink:href="classgraph__template.html#aa9d58009001be66e52c75e95357860ac" target="_top" xlink:title="Adds a node&#45;level data feature.">
<polygon fill="white" stroke="#666666" points="474.5,-126 356.5,-126 356.5,-96 474.5,-96 474.5,-126"/>
<text text-anchor="start" x="364.5" y="-114" font-family="Helvetica,sans-Serif" font-size="10.00">graph_template::add</text>
<text text-anchor="middle" x="415.5" y="-103" font-family="Helvetica,sans-Serif" font-size="10.00">_node_data_feature</text>
</a>
</g>
</g>
<!-- Node1&#45;&gt;Node31 -->
<g id="edge30_Node000001_Node000031" class="edge">
<title>Node1&#45;&gt;Node31</title>
<g id="a_edge30_Node000001_Node000031"><a xlink:title=" ">
<path fill="none" stroke="#63b8ff" d="M579.63,-363.4C574.16,-317.04 554.09,-199.72 487,-135 483.37,-131.5 479.21,-128.51 474.77,-125.95"/>
<polygon fill="#63b8ff" stroke="#63b8ff" points="576.15,-363.78 580.7,-373.35 583.11,-363.03 576.15,-363.78"/>
</a>
</g>
</g>
<!-- Node32 -->
<g id="Node000032" class="node">
<title>Node32</title>
<g id="a_Node000032"><a xlink:href="classgraph__template.html#ad9f0102011d63e5571bb52e25c5d440e" target="_top" xlink:title="Adds a node&#45;level truth feature.">
<polygon fill="white" stroke="#666666" points="474.5,-78 356.5,-78 356.5,-48 474.5,-48 474.5,-78"/>
<text text-anchor="start" x="364.5" y="-66" font-family="Helvetica,sans-Serif" font-size="10.00">graph_template::add</text>
<text text-anchor="middle" x="415.5" y="-55" font-family="Helvetica,sans-Serif" font-size="10.00">_node_truth_feature</text>
</a>
</g>
</g>
<!-- Node1&#45;&gt;Node32 -->
<g id="edge31_Node000001_Node000032" class="edge">
<title>Node1&#45;&gt;Node32</title>
<g id="a_edge31_Node000001_Node000032"><a xlink:title=" ">
<path fill="none" stroke="#63b8ff" d="M581.03,-363.25C578.7,-310.8 565.14,-166.64 487,-87 483.38,-83.31 479.17,-80.18 474.64,-77.54"/>
<polygon fill="#63b8ff" stroke="#63b8ff" points="577.53,-363.38 581.38,-373.25 584.53,-363.13 577.53,-363.38"/>
</a>
</g>
</g>
<!-- Node33 -->
<g id="Node000033" class="node">
<title>Node33</title>
<g id="a_Node000033"><a xlink:href="structoptimizer__params__t.html#a0fb4c5916140e25724ec9e083c60a439" target="_top" xlink:title="Initializes property callbacks.">
<polygon fill="white" stroke="#666666" points="472.5,-30 358.5,-30 358.5,0 472.5,0 472.5,-30"/>
<text text-anchor="start" x="366.5" y="-18" font-family="Helvetica,sans-Serif" font-size="10.00">optimizer_params_t</text>
<text text-anchor="middle" x="415.5" y="-7" font-family="Helvetica,sans-Serif" font-size="10.00">::operator()</text>
</a>
</g>
</g>
<!-- Node1&#45;&gt;Node33 -->
<g id="edge32_Node000001_Node000033" class="edge">
<title>Node1&#45;&gt;Node33</title>
<g id="a_edge32_Node000001_Node000033"><a xlink:title=" ">
<path fill="none" stroke="#63b8ff" d="M582.08,-363.23C582.66,-305.27 576.37,-133.9 487,-39 482.92,-34.67 478.03,-31.12 472.76,-28.21"/>
<polygon fill="#63b8ff" stroke="#63b8ff" points="578.58,-363.19 581.89,-373.25 585.58,-363.32 578.58,-363.19"/>
</a>
</g>
</g>
<!-- Node3 -->
<g id="Node000003" class="node">
<title>Node3</title>
<g id="a_Node000003"><a xlink:href="classevent__template.html#a683c5ec2ccfa48483996ba3128b6a07a" target="_top" xlink:title="Creates a new event template instance.">
<polygon fill="white" stroke="#666666" points="306,-750.5 180,-750.5 180,-731.5 306,-731.5 306,-750.5"/>
<text text-anchor="middle" x="243" y="-738.5" font-family="Helvetica,sans-Serif" font-size="10.00">event_template::clone</text>
</a>
</g>
</g>
<!-- Node2&#45;&gt;Node3 -->
<g id="edge2_Node000002_Node000003" class="edge">
<title>Node2&#45;&gt;Node3</title>
<g id="a_edge2_Node000002_Node000003"><a xlink:title=" ">
<path fill="none" stroke="#63b8ff" d="M341.31,-741C329.61,-741 317.59,-741 306.18,-741"/>
<polygon fill="#63b8ff" stroke="#63b8ff" points="341.5,-744.5 351.5,-741 341.5,-737.5 341.5,-744.5"/>
</a>
</g>
</g>
<!-- Node5 -->
<g id="Node000005" class="node">
<title>Node5</title>
<g id="a_Node000005"><a xlink:href="classgraph__template.html#a010ead65c4f69b55b480f425e4f676e6" target="_top" xlink:title="Creates a clone of this graph template.">
<polygon fill="white" stroke="#666666" points="306,-702.5 180,-702.5 180,-683.5 306,-683.5 306,-702.5"/>
<text text-anchor="middle" x="243" y="-690.5" font-family="Helvetica,sans-Serif" font-size="10.00">graph_template::clone</text>
</a>
</g>
</g>
<!-- Node4&#45;&gt;Node5 -->
<g id="edge4_Node000004_Node000005" class="edge">
<title>Node4&#45;&gt;Node5</title>
<g id="a_edge4_Node000004_Node000005"><a xlink:title=" ">
<path fill="none" stroke="#63b8ff" d="M341.31,-693C329.61,-693 317.59,-693 306.18,-693"/>
<polygon fill="#63b8ff" stroke="#63b8ff" points="341.5,-696.5 351.5,-693 341.5,-689.5 341.5,-696.5"/>
</a>
</g>
</g>
<!-- Node6 -->
<g id="Node000006" class="node">
<title>Node6</title>
<g id="a_Node000006"><a xlink:href="classgraph__template.html#a9b26bf6100bf257849c43563d1b1bd70" target="_top" xlink:title=" ">
<polygon fill="white" stroke="#666666" points="133,-702.5 9,-702.5 9,-683.5 133,-683.5 133,-702.5"/>
<text text-anchor="middle" x="71" y="-690.5" font-family="Helvetica,sans-Serif" font-size="10.00">graph_template::build</text>
</a>
</g>
</g>
<!-- Node5&#45;&gt;Node6 -->
<g id="edge5_Node000005_Node000006" class="edge">
<title>Node5&#45;&gt;Node6</title>
<g id="a_edge5_Node000005_Node000006"><a xlink:title=" ">
<path fill="none" stroke="#63b8ff" d="M169.59,-693C157.47,-693 145,-693 133.19,-693"/>
<polygon fill="#63b8ff" stroke="#63b8ff" points="169.66,-696.5 179.66,-693 169.66,-689.5 169.66,-696.5"/>
</a>
</g>
</g>
<!-- Node8 -->
<g id="Node000008" class="node">
<title>Node8</title>
<g id="a_Node000008"><a xlink:href="classjet.html#ad202deb7d9e738435479b50f9603f028" target="_top" xlink:title="Builds the particle from event data.">
<polygon fill="white" stroke="#666666" points="272.5,-662.5 213.5,-662.5 213.5,-643.5 272.5,-643.5 272.5,-662.5"/>
<text text-anchor="middle" x="243" y="-650.5" font-family="Helvetica,sans-Serif" font-size="10.00">jet::build</text>
</a>
</g>
</g>
<!-- Node7&#45;&gt;Node8 -->
<g id="edge7_Node000007_Node000008" class="edge">
<title>Node7&#45;&gt;Node8</title>
<g id="a_edge7_Node000007_Node000008"><a xlink:title=" ">
<path fill="none" stroke="#63b8ff" d="M381.08,-650.59C349.52,-651.14 302.69,-651.97 272.75,-652.49"/>
<polygon fill="#63b8ff" stroke="#63b8ff" points="381.21,-654.09 391.15,-650.41 381.09,-647.09 381.21,-654.09"/>
</a>
</g>
</g>
<!-- Node9 -->
<g id="Node000009" class="node">
<title>Node9</title>
<g id="a_Node000009"><a xlink:href="classjet.html#a9b32b4a83c16ee51db8745e30ab1b31d" target="_top" xlink:title="Creates a clone of this particle.">
<polygon fill="white" stroke="#666666" points="274,-625.5 212,-625.5 212,-606.5 274,-606.5 274,-625.5"/>
<text text-anchor="middle" x="243" y="-613.5" font-family="Helvetica,sans-Serif" font-size="10.00">jet::clone</text>
</a>
</g>
</g>
<!-- Node7&#45;&gt;Node9 -->
<g id="edge8_Node000007_Node000009" class="edge">
<title>Node7&#45;&gt;Node9</title>
<g id="a_edge8_Node000007_Node000009"><a xlink:title=" ">
<path fill="none" stroke="#63b8ff" d="M381.24,-643.37C350.19,-637.18 304.27,-628.02 274.24,-622.03"/>
<polygon fill="#63b8ff" stroke="#63b8ff" points="380.66,-646.82 391.15,-645.34 382.03,-639.96 380.66,-646.82"/>
</a>
</g>
</g>
<!-- Node12 -->
<g id="Node000012" class="node">
<title>Node12</title>
<g id="a_Node000012"><a xlink:href="classmetric__template.html#ad4020c5c29a7944e9cadd244fd11e952" target="_top" xlink:title=" ">
<polygon fill="white" stroke="#666666" points="308,-579.5 178,-579.5 178,-560.5 308,-560.5 308,-579.5"/>
<text text-anchor="middle" x="243" y="-567.5" font-family="Helvetica,sans-Serif" font-size="10.00">metric_template::clone</text>
</a>
</g>
</g>
<!-- Node11&#45;&gt;Node12 -->
<g id="edge11_Node000011_Node000012" class="edge">
<title>Node11&#45;&gt;Node12</title>
<g id="a_edge11_Node000011_Node000012"><a xlink:title=" ">
<path fill="none" stroke="#63b8ff" d="M337.48,-570C327.69,-570 317.75,-570 308.19,-570"/>
<polygon fill="#63b8ff" stroke="#63b8ff" points="337.6,-573.5 347.6,-570 337.6,-566.5 337.6,-573.5"/>
</a>
</g>
</g>
<!-- Node13 -->
<g id="Node000013" class="node">
<title>Node13</title>
<g id="a_Node000013"><a xlink:href="classmetric__template.html#a6df640366841f67134f080372ee9a0c5" target="_top" xlink:title=" ">
<polygon fill="white" stroke="#666666" points="136,-597.5 6,-597.5 6,-578.5 136,-578.5 136,-597.5"/>
<text text-anchor="middle" x="71" y="-585.5" font-family="Helvetica,sans-Serif" font-size="10.00">metric_template::clone</text>
</a>
</g>
</g>
<!-- Node12&#45;&gt;Node13 -->
<g id="edge12_Node000012_Node000013" class="edge">
<title>Node12&#45;&gt;Node13</title>
<g id="a_edge12_Node000012_Node000013"><a xlink:title=" ">
<path fill="none" stroke="#63b8ff" d="M167.71,-577.87C157.17,-578.98 146.4,-580.12 136.08,-581.22"/>
<polygon fill="#63b8ff" stroke="#63b8ff" points="168.15,-581.34 177.73,-576.81 167.42,-574.38 168.15,-581.34"/>
</a>
</g>
</g>
<!-- Node14 -->
<g id="Node000014" class="node">
<title>Node14</title>
<g id="a_Node000014"><a xlink:href="classmetric__template.html#a422951eb9279ed05c885795ebeed0e5b" target="_top" xlink:title=" ">
<polygon fill="white" stroke="#666666" points="142,-560.5 0,-560.5 0,-541.5 142,-541.5 142,-560.5"/>
<text text-anchor="middle" x="71" y="-548.5" font-family="Helvetica,sans-Serif" font-size="10.00">metric_template::execute</text>
</a>
</g>
</g>
<!-- Node12&#45;&gt;Node14 -->
<g id="edge13_Node000012_Node000014" class="edge">
<title>Node12&#45;&gt;Node14</title>
<g id="a_edge13_Node000012_Node000014"><a xlink:title=" ">
<path fill="none" stroke="#63b8ff" d="M167.78,-561.71C159.23,-560.75 150.53,-559.78 142.04,-558.83"/>
<polygon fill="#63b8ff" stroke="#63b8ff" points="167.4,-565.18 177.73,-562.82 168.18,-558.23 167.4,-565.18"/>
</a>
</g>
</g>
<!-- Node17 -->
<g id="Node000017" class="node">
<title>Node17</title>
<g id="a_Node000017"><a xlink:href="classparticle__template.html#adf7b55df06b7621b0a6bc509f74d22ff" target="_top" xlink:title="Serializes particle data for storage.">
<polygon fill="white" stroke="#666666" points="297.5,-537 188.5,-537 188.5,-507 297.5,-507 297.5,-537"/>
<text text-anchor="start" x="196.5" y="-525" font-family="Helvetica,sans-Serif" font-size="10.00">particle_template::</text>
<text text-anchor="middle" x="243" y="-514" font-family="Helvetica,sans-Serif" font-size="10.00">__reduce__</text>
</a>
</g>
</g>
<!-- Node16&#45;&gt;Node17 -->
<g id="edge16_Node000016_Node000017" class="edge">
<title>Node16&#45;&gt;Node17</title>
<g id="a_edge16_Node000016_Node000017"><a xlink:title=" ">
<path fill="none" stroke="#63b8ff" d="M351.31,-491.79C333.55,-496.79 314.41,-502.18 297.29,-507"/>
<polygon fill="#63b8ff" stroke="#63b8ff" points="352.34,-495.13 361.02,-489.06 350.45,-488.4 352.34,-495.13"/>
</a>
</g>
</g>
<!-- Node18 -->
<g id="Node000018" class="node">
<title>Node18</title>
<g id="a_Node000018"><a xlink:href="classparticle__template.html#a6c492ed991c27a61acad61064fa89b3c" target="_top" xlink:title="Creates a clone of this particle.">
<polygon fill="white" stroke="#666666" points="297.5,-489 188.5,-489 188.5,-459 297.5,-459 297.5,-489"/>
<text text-anchor="start" x="196.5" y="-477" font-family="Helvetica,sans-Serif" font-size="10.00">particle_template::</text>
<text text-anchor="middle" x="243" y="-466" font-family="Helvetica,sans-Serif" font-size="10.00">clone</text>
</a>
</g>
</g>
<!-- Node16&#45;&gt;Node18 -->
<g id="edge17_Node000016_Node000018" class="edge">
<title>Node16&#45;&gt;Node18</title>
<g id="a_edge17_Node000016_Node000018"><a xlink:title=" ">
<path fill="none" stroke="#63b8ff" d="M350.47,-474C333.05,-474 314.37,-474 297.6,-474"/>
<polygon fill="#63b8ff" stroke="#63b8ff" points="350.55,-477.5 360.55,-474 350.55,-470.5 350.55,-477.5"/>
</a>
</g>
</g>
<!-- Node20 -->
<g id="Node000020" class="node">
<title>Node20</title>
<g id="a_Node000020"><a xlink:href="classselection__template.html#a094ce1eb2b6463f88a8ad5f7dfd8e4b6" target="_top" xlink:title="Creates a clone of this selection.">
<polygon fill="white" stroke="#666666" points="298,-441 188,-441 188,-411 298,-411 298,-441"/>
<text text-anchor="start" x="196" y="-429" font-family="Helvetica,sans-Serif" font-size="10.00">selection_template</text>
<text text-anchor="middle" x="243" y="-418" font-family="Helvetica,sans-Serif" font-size="10.00">::clone</text>
</a>
</g>
</g>
<!-- Node19&#45;&gt;Node20 -->
<g id="edge19_Node000019_Node000020" class="edge">
<title>Node19&#45;&gt;Node20</title>
<g id="a_edge19_Node000019_Node000020"><a xlink:title=" ">
<path fill="none" stroke="#63b8ff" d="M346.8,-426C330.67,-426 313.65,-426 298.21,-426"/>
<polygon fill="#63b8ff" stroke="#63b8ff" points="347.25,-429.5 357.25,-426 347.25,-422.5 347.25,-429.5"/>
</a>
</g>
</g>
<!-- Node21 -->
<g id="Node000021" class="node">
<title>Node21</title>
<g id="a_Node000021"><a xlink:href="classselection__template.html#ae24cee9f302d7509a7009daea0bf0616" target="_top" xlink:title="Builds the selection from an event.">
<polygon fill="white" stroke="#666666" points="126,-441 16,-441 16,-411 126,-411 126,-441"/>
<text text-anchor="start" x="24" y="-429" font-family="Helvetica,sans-Serif" font-size="10.00">selection_template</text>
<text text-anchor="middle" x="71" y="-418" font-family="Helvetica,sans-Serif" font-size="10.00">::build</text>
</a>
</g>
</g>
<!-- Node20&#45;&gt;Node21 -->
<g id="edge20_Node000020_Node000021" class="edge">
<title>Node20&#45;&gt;Node21</title>
<g id="a_edge20_Node000020_Node000021"><a xlink:title=" ">
<path fill="none" stroke="#63b8ff" d="M177.37,-426C160.44,-426 142.35,-426 126.03,-426"/>
<polygon fill="#63b8ff" stroke="#63b8ff" points="177.74,-429.5 187.74,-426 177.74,-422.5 177.74,-429.5"/>
</a>
</g>
</g>
<!-- Node23 -->
<g id="Node000023" class="node">
<title>Node23</title>
<g id="a_Node000023"><a xlink:href="classtop__children.html#ab3a800b533a310ac646c1eb794cfdcb3" target="_top" xlink:title="Builds the particle from event data.">
<polygon fill="white" stroke="#666666" points="296.5,-392.5 189.5,-392.5 189.5,-373.5 296.5,-373.5 296.5,-392.5"/>
<text text-anchor="middle" x="243" y="-380.5" font-family="Helvetica,sans-Serif" font-size="10.00">top_children::build</text>
</a>
</g>
</g>
<!-- Node22&#45;&gt;Node23 -->
<g id="edge22_Node000022_Node000023" class="edge">
<title>Node22&#45;&gt;Node23</title>
<g id="a_edge22_Node000022_Node000023"><a xlink:title=" ">
<path fill="none" stroke="#63b8ff" d="M333.65,-383C321.08,-383 308.39,-383 296.67,-383"/>
<polygon fill="#63b8ff" stroke="#63b8ff" points="333.67,-386.5 343.67,-383 333.67,-379.5 333.67,-386.5"/>
</a>
</g>
</g>
<!-- Node24 -->
<g id="Node000024" class="node">
<title>Node24</title>
<g id="a_Node000024"><a xlink:href="classtop__children.html#a12db70c4c4123244135aaf38e34a0187" target="_top" xlink:title="Creates a clone of this particle.">
<polygon fill="white" stroke="#666666" points="297.5,-355.5 188.5,-355.5 188.5,-336.5 297.5,-336.5 297.5,-355.5"/>
<text text-anchor="middle" x="243" y="-343.5" font-family="Helvetica,sans-Serif" font-size="10.00">top_children::clone</text>
</a>
</g>
</g>
<!-- Node22&#45;&gt;Node24 -->
<g id="edge23_Node000022_Node000024" class="edge">
<title>Node22&#45;&gt;Node24</title>
<g id="a_edge23_Node000022_Node000024"><a xlink:title=" ">
<path fill="none" stroke="#63b8ff" d="M360.81,-371.35C337.39,-366.27 310.26,-360.38 288.06,-355.56"/>
<polygon fill="#63b8ff" stroke="#63b8ff" points="360.08,-374.77 370.59,-373.47 361.56,-367.93 360.08,-374.77"/>
</a>
</g>
</g>
<!-- Node26 -->
<g id="Node000026" class="node">
<title>Node26</title>
<g id="a_Node000026"><a xlink:href="classtruthjet.html#a4f20e1e16ba3e64d085530b455250191" target="_top" xlink:title="Creates a clone of this particle.">
<polygon fill="white" stroke="#666666" points="285.5,-318.5 200.5,-318.5 200.5,-299.5 285.5,-299.5 285.5,-318.5"/>
<text text-anchor="middle" x="243" y="-306.5" font-family="Helvetica,sans-Serif" font-size="10.00">truthjet::clone</text>
</a>
</g>
</g>
<!-- Node25&#45;&gt;Node26 -->
<g id="edge25_Node000025_Node000026" class="edge">
<title>Node25&#45;&gt;Node26</title>
<g id="a_edge25_Node000025_Node000026"><a xlink:title=" ">
<path fill="none" stroke="#63b8ff" d="M360.82,-334.35C336.56,-329.09 308.33,-322.96 285.7,-318.05"/>
<polygon fill="#63b8ff" stroke="#63b8ff" points="360.08,-337.77 370.59,-336.47 361.56,-330.93 360.08,-337.77"/>
</a>
</g>
</g>
</g>
</svg>

<g id="navigator" transform="translate(0 0)" fill="#404254">
  <rect fill="#f2f5e9" fill-opacity="0.5" stroke="#606060" stroke-width=".5" x="0" y="0" width="60" height="60"/>
  <use id="zoomplus" xlink:href="#zoomPlus" x="17" y="9" onmousedown="handleZoom(evt,'in')"/>
  <use id="zoomminus" xlink:href="#zoomMin" x="42" y="9" onmousedown="handleZoom(evt,'out')"/>
  <use id="reset" xlink:href="#resetDef" x="30" y="36" onmousedown="handleReset()"/>
   <use id="arrowup" xlink:href="#arrowUp" x="0" y="0" onmousedown="handlePan(0,-1)"/>
  <use id="arrowright" xlink:href="#arrowRight" x="0" y="0" onmousedown="handlePan(1,0)"/>
  <use id="arrowdown" xlink:href="#arrowDown" x="0" y="0" onmousedown="handlePan(0,1)"/>
  <use id="arrowleft" xlink:href="#arrowLeft" x="0" y="0" onmousedown="handlePan(-1,0)"/>
</g>
<svg viewBox="0 0 15 15" width="100%" height="30px" preserveAspectRatio="xMaxYMin meet">
 <g id="arrow_out" transform="scale(0.3 0.3)">
  <a xlink:href="classcproperty_a41a70e8e01c9b1a20b94d2dbf1a6b214_icgraph_org.svg" target="_base">
   <rect id="button" ry="5" rx="5" y="6" x="6" height="38" width="38"
        fill="#f2f5e9" fill-opacity="0.5" stroke="#606060" stroke-width="1.0"/>
   <path id="arrow"
     d="M 11.500037,31.436501 C 11.940474,20.09759 22.043105,11.32322 32.158766,21.979434 L 37.068811,17.246167 C 37.068811,17.246167 37.088388,32 37.088388,32 L 22.160133,31.978069 C 22.160133,31.978069 26.997745,27.140456 26.997745,27.140456 C 18.528582,18.264221 13.291696,25.230495 11.500037,31.436501 z"
     style="fill:#404040;"/>
  </a>
 </g>
</svg>

<style type='text/css'>
<![CDATA[
[data-mouse-over-selected='false'] { opacity: 0.7; }
[data-mouse-over-selected='true']  { opacity: 1.0; }
]]>
</style>
<script type="application/ecmascript"><![CDATA[
document.addEventListener('DOMContentLoaded', (event) => {
  highlightEdges();
  highlightAdjacentNodes();
});
]]></script>
</svg>
