<?xml version="1.0" encoding="UTF-8" standalone="no"?>
<!DOCTYPE svg PUBLIC "-//W3C//DTD SVG 1.1//EN"
 "http://www.w3.org/Graphics/SVG/1.1/DTD/svg11.dtd">
<!-- Generated by graphviz version 2.43.0 (0)
 -->
<!-- Title: zboson::zboson Pages: 1 -->
<svg width="219pt" height="64pt"
 viewBox="0.00 0.00 219.00 64.00" xmlns="http://www.w3.org/2000/svg" xmlns:xlink="http://www.w3.org/1999/xlink">
<g id="graph0" class="graph" transform="scale(1 1) rotate(0) translate(4 60)">
<title>zboson::zboson</title>
<!-- Node1 -->
<g id="Node000001" class="node">
<title>Node1</title>
<g id="a_Node000001"><a xlink:title=" ">
<polygon fill="#999999" stroke="#666666" points="211,-37 119,-37 119,-18 211,-18 211,-37"/>
<text text-anchor="middle" x="165" y="-25" font-family="Helvetica,sans-Serif" font-size="10.00">zboson::zboson</text>
</a>
</g>
</g>
<!-- Node2 -->
<g id="Node000002" class="node">
<title>Node2</title>
<g id="a_Node000002"><a xlink:href="classzboson.html#abb2fddddc8fdc7dad562a716f70ca7a4" target="_top" xlink:title="Builds the particle from event data.">
<polygon fill="white" stroke="#666666" points="82,-56 1,-56 1,-37 82,-37 82,-56"/>
<text text-anchor="middle" x="41.5" y="-44" font-family="Helvetica,sans-Serif" font-size="10.00">zboson::build</text>
</a>
</g>
</g>
<!-- Node1&#45;&gt;Node2 -->
<g id="edge1_Node000001_Node000002" class="edge">
<title>Node1&#45;&gt;Node2</title>
<g id="a_edge1_Node000001_Node000002"><a xlink:title=" ">
<path fill="none" stroke="#63b8ff" d="M108.75,-36.14C99.8,-37.54 90.68,-38.97 82.18,-40.29"/>
<polygon fill="#63b8ff" stroke="#63b8ff" points="109.42,-39.58 118.76,-34.57 108.34,-32.66 109.42,-39.58"/>
</a>
</g>
</g>
<!-- Node3 -->
<g id="Node000003" class="node">
<title>Node3</title>
<g id="a_Node000003"><a xlink:href="classzboson.html#af18d0f0fd95ccfe3f12fd00ebb026498" target="_top" xlink:title="Creates a clone of this particle.">
<polygon fill="white" stroke="#666666" points="83,-19 0,-19 0,0 83,0 83,-19"/>
<text text-anchor="middle" x="41.5" y="-7" font-family="Helvetica,sans-Serif" font-size="10.00">zboson::clone</text>
</a>
</g>
</g>
<!-- Node1&#45;&gt;Node3 -->
<g id="edge2_Node000001_Node000003" class="edge">
<title>Node1&#45;&gt;Node3</title>
<g id="a_edge2_Node000001_Node000003"><a xlink:title=" ">
<path fill="none" stroke="#63b8ff" d="M108.82,-19.32C100.25,-18.06 91.54,-16.77 83.37,-15.55"/>
<polygon fill="#63b8ff" stroke="#63b8ff" points="108.35,-22.79 118.76,-20.8 109.38,-15.87 108.35,-22.79"/>
</a>
</g>
</g>
</g>
</svg>
