<?xml version="1.0" encoding="UTF-8" standalone="no"?>
<!DOCTYPE svg PUBLIC "-//W3C//DTD SVG 1.1//EN"
 "http://www.w3.org/Graphics/SVG/1.1/DTD/svg11.dtd">
<!-- Generated by graphviz version 2.43.0 (0)
 -->
<!-- Title: analysis::build_metric Pages: 1 -->
<!--zoomable 168 -->

<svg id="main" version="1.1" xmlns="http://www.w3.org/2000/svg" xmlns:xlink="http://www.w3.org/1999/xlink" xml:space="preserve" onload="init(evt)">
<style type="text/css"><![CDATA[
.node, .edge {opacity: 0.7;}
.node.selected, .edge.selected {opacity: 1;}
.edge:hover path { stroke: red; }
.edge:hover polygon { stroke: red; fill: red; }
]]></style>

<defs>
  <circle id="rim" cx="0" cy="0" r="7"/>
  <circle id="rim2" cx="0" cy="0" r="3.5"/>
  <g id="zoomPlus">
    <use xlink:href="#rim" fill="#404040"><set attributeName="fill" to="#808080" begin="zoomplus.mouseover" end="zoomplus.mouseout"/></use>
    <path d="M-4,0h8M0,-4v8" fill="none" stroke="white" stroke-width="1.5" pointer-events="none"/>
  </g>
  <g id="zoomMin">
    <use xlink:href="#rim" fill="#404040"><set attributeName="fill" to="#808080" begin="zoomminus.mouseover" end="zoomminus.mouseout"/></use>
    <path d="M-4,0h8" fill="none" stroke="white" stroke-width="1.5" pointer-events="none"/>
  </g>
  <g id="arrowUp" transform="translate(30 24)">
    <use xlink:href="#rim"/>
    <path pointer-events="none" fill="none" stroke="white" stroke-width="1.5" d="M0,-3.0v7 M-2.5,-0.5L0,-3.0L2.5,-0.5"/>
  </g>
  <g id="arrowRight" transform="rotate(90) translate(36 -43)">
    <use xlink:href="#rim"/>
    <path pointer-events="none" fill="none" stroke="white" stroke-width="1.5" d="M0,-3.0v7 M-2.5,-0.5L0,-3.0L2.5,-0.5"/>
  </g>
  <g id="arrowDown" transform="rotate(180) translate(-30 -48)">
    <use xlink:href="#rim"/>
    <path pointer-events="none" fill="none" stroke="white" stroke-width="1.5" d="M0,-3.0v7 M-2.5,-0.5L0,-3.0L2.5,-0.5"/>
  </g>
  <g id="arrowLeft" transform="rotate(270) translate(-36 17)">
    <use xlink:href="#rim"/>
    <path pointer-events="none" fill="none" stroke="white" stroke-width="1.5" d="M0,-3.0v7 M-2.5,-0.5L0,-3.0L2.5,-0.5"/>
  </g>
  <g id="resetDef">
    <use xlink:href="#rim2" fill="#404040"><set attributeName="fill" to="#808080" begin="reset.mouseover" end="reset.mouseout"/></use>
  </g>
</defs>
<script type="application/ecmascript">
var viewWidth = 557;
var viewHeight = 168;
var sectionId = 'dynsection-14';
</script>
<script type="application/ecmascript" xlink:href="svg.min.js"/>
<svg id="graph" class="graph">
<g id="viewport">
<title>analysis::build_metric</title>
<!-- Node1 -->
<g id="Node000001" class="node">
<title>Node1</title>
<g id="a_Node000001"><a xlink:title="Builds or calculates metrics for evaluating model performance.">
<polygon fill="#999999" stroke="#666666" points="124,-94.5 0,-94.5 0,-75.5 124,-75.5 124,-94.5"/>
<text text-anchor="middle" x="62" y="-82.5" font-family="Helvetica,sans-Serif" font-size="10.00">analysis::build_metric</text>
</a>
</g>
</g>
<!-- Node2 -->
<g id="Node000002" class="node">
<title>Node2</title>
<g id="a_Node000002"><a xlink:href="classanalysis.html#a929d006d8c02d16b6472d7625578aa21" target="_top" xlink:title="Builds or configures the data loader for training or evaluation.">
<polygon fill="white" stroke="#666666" points="305,-159.5 160,-159.5 160,-140.5 305,-140.5 305,-159.5"/>
<text text-anchor="middle" x="232.5" y="-147.5" font-family="Helvetica,sans-Serif" font-size="10.00">analysis::build_dataloader</text>
</a>
</g>
</g>
<!-- Node1&#45;&gt;Node2 -->
<g id="edge1_Node000001_Node000002" class="edge">
<title>Node1&#45;&gt;Node2</title>
<g id="a_edge1_Node000001_Node000002"><a xlink:title=" ">
<path fill="none" stroke="#63b8ff" d="M80.06,-94.59C99.08,-104.97 130.98,-121.44 160,-132 165.63,-134.05 171.58,-135.95 177.56,-137.68"/>
<polygon fill="#63b8ff" stroke="#63b8ff" points="177.02,-141.16 187.59,-140.45 178.88,-134.42 177.02,-141.16"/>
</a>
</g>
</g>
<!-- Node3 -->
<g id="Node000003" class="node">
<title>Node3</title>
<g id="a_Node000003"><a xlink:href="classanalysis.html#ab1e46d4a55389c9159584cc1c4f217a0" target="_top" xlink:title="Builds the project structure, possibly setting up directories or initial configurations.">
<polygon fill="white" stroke="#666666" points="295.5,-122.5 169.5,-122.5 169.5,-103.5 295.5,-103.5 295.5,-122.5"/>
<text text-anchor="middle" x="232.5" y="-110.5" font-family="Helvetica,sans-Serif" font-size="10.00">analysis::build_project</text>
</a>
</g>
</g>
<!-- Node1&#45;&gt;Node3 -->
<g id="edge2_Node000001_Node000003" class="edge">
<title>Node1&#45;&gt;Node3</title>
<g id="a_edge2_Node000001_Node000003"><a xlink:title=" ">
<path fill="none" stroke="#63b8ff" d="M120.52,-94.56C134.61,-96.9 149.83,-99.43 164.33,-101.84"/>
<polygon fill="#63b8ff" stroke="#63b8ff" points="163.8,-105.3 174.24,-103.49 164.95,-98.39 163.8,-105.3"/>
</a>
</g>
</g>
<!-- Node6 -->
<g id="Node000006" class="node">
<title>Node6</title>
<g id="a_Node000006"><a xlink:href="structs_2cxx_2base_8cxx.html#a4eee7b291ed2cdcd4e3c2496c603c48c" target="_top" xlink:title="Counts occurrences of a substring in a string.">
<polygon fill="white" stroke="#666666" points="254.5,-67.5 210.5,-67.5 210.5,-48.5 254.5,-48.5 254.5,-67.5"/>
<text text-anchor="middle" x="232.5" y="-55.5" font-family="Helvetica,sans-Serif" font-size="10.00">count</text>
</a>
</g>
</g>
<!-- Node1&#45;&gt;Node6 -->
<g id="edge5_Node000001_Node000006" class="edge">
<title>Node1&#45;&gt;Node6</title>
<g id="a_edge5_Node000001_Node000006"><a xlink:title=" ">
<path fill="none" stroke="#63b8ff" d="M122.41,-75.48C148.63,-71.28 178.37,-66.51 200.17,-63.02"/>
<polygon fill="#63b8ff" stroke="#63b8ff" points="200.86,-66.45 210.18,-61.42 199.76,-59.54 200.86,-66.45"/>
</a>
</g>
</g>
<!-- Node7 -->
<g id="Node000007" class="node">
<title>Node7</title>
<g id="a_Node000007"><a xlink:href="classanalysis.html#acf4137dd2ceda151a94d68b2ed199da8" target="_top" xlink:title="Static method to execute metric calculation.">
<polygon fill="white" stroke="#666666" points="287.5,-30 177.5,-30 177.5,0 287.5,0 287.5,-30"/>
<text text-anchor="start" x="185.5" y="-18" font-family="Helvetica,sans-Serif" font-size="10.00">analysis::execution</text>
<text text-anchor="middle" x="232.5" y="-7" font-family="Helvetica,sans-Serif" font-size="10.00">_metric</text>
</a>
</g>
</g>
<!-- Node1&#45;&gt;Node7 -->
<g id="edge7_Node000001_Node000007" class="edge">
<title>Node1&#45;&gt;Node7</title>
<g id="a_edge7_Node000001_Node000007"><a xlink:title=" ">
<path fill="none" stroke="#63b8ff" d="M82.08,-75.47C101.47,-65.95 132.48,-51.17 160,-40 165.39,-37.81 171.04,-35.64 176.72,-33.53"/>
<polygon fill="#63b8ff" stroke="#63b8ff" points="178.04,-36.78 186.24,-30.07 175.65,-30.2 178.04,-36.78"/>
</a>
</g>
</g>
<!-- Node4 -->
<g id="Node000004" class="node">
<title>Node4</title>
<g id="a_Node000004"><a xlink:href="classtools.html#aed9f3247b474a8fb1840860d51cde7ca" target="_top" xlink:title="Creates a directory path, including parent directories if needed.">
<polygon fill="white" stroke="#666666" points="445,-122.5 341,-122.5 341,-103.5 445,-103.5 445,-122.5"/>
<text text-anchor="middle" x="393" y="-110.5" font-family="Helvetica,sans-Serif" font-size="10.00">tools::create_path</text>
</a>
</g>
</g>
<!-- Node3&#45;&gt;Node4 -->
<g id="edge3_Node000003_Node000004" class="edge">
<title>Node3&#45;&gt;Node4</title>
<g id="a_edge3_Node000003_Node000004"><a xlink:title=" ">
<path fill="none" stroke="#63b8ff" d="M295.69,-113C307.18,-113 319.17,-113 330.63,-113"/>
<polygon fill="#63b8ff" stroke="#63b8ff" points="330.98,-116.5 340.98,-113 330.98,-109.5 330.98,-116.5"/>
</a>
</g>
</g>
<!-- Node5 -->
<g id="Node000005" class="node">
<title>Node5</title>
<g id="a_Node000005"><a xlink:href="classtools.html#a352a6965f2f3c768f0f4ecd1f978fcc0" target="_top" xlink:title="Splits a string into a vector of substrings based on a delimiter.">
<polygon fill="white" stroke="#666666" points="549,-122.5 481,-122.5 481,-103.5 549,-103.5 549,-122.5"/>
<text text-anchor="middle" x="515" y="-110.5" font-family="Helvetica,sans-Serif" font-size="10.00">tools::split</text>
</a>
</g>
</g>
<!-- Node4&#45;&gt;Node5 -->
<g id="edge4_Node000004_Node000005" class="edge">
<title>Node4&#45;&gt;Node5</title>
<g id="a_edge4_Node000004_Node000005"><a xlink:title=" ">
<path fill="none" stroke="#63b8ff" d="M445.24,-113C453.75,-113 462.5,-113 470.79,-113"/>
<polygon fill="#63b8ff" stroke="#63b8ff" points="470.98,-116.5 480.98,-113 470.98,-109.5 470.98,-116.5"/>
</a>
</g>
</g>
<!-- Node6&#45;&gt;Node6 -->
<g id="edge6_Node000006_Node000006" class="edge">
<title>Node6&#45;&gt;Node6</title>
<g id="a_edge6_Node000006_Node000006"><a xlink:title=" ">
<path fill="none" stroke="#63b8ff" d="M210.48,-65.88C194.85,-74.97 202.19,-85.5 232.5,-85.5 255.23,-85.5 265.05,-79.58 261.94,-72.78"/>
<polygon fill="#63b8ff" stroke="#63b8ff" points="264.23,-70.13 254.52,-65.88 259.46,-75.26 264.23,-70.13"/>
</a>
</g>
</g>
</g>
</svg>

<g id="navigator" transform="translate(0 0)" fill="#404254">
  <rect fill="#f2f5e9" fill-opacity="0.5" stroke="#606060" stroke-width=".5" x="0" y="0" width="60" height="60"/>
  <use id="zoomplus" xlink:href="#zoomPlus" x="17" y="9" onmousedown="handleZoom(evt,'in')"/>
  <use id="zoomminus" xlink:href="#zoomMin" x="42" y="9" onmousedown="handleZoom(evt,'out')"/>
  <use id="reset" xlink:href="#resetDef" x="30" y="36" onmousedown="handleReset()"/>
   <use id="arrowup" xlink:href="#arrowUp" x="0" y="0" onmousedown="handlePan(0,-1)"/>
  <use id="arrowright" xlink:href="#arrowRight" x="0" y="0" onmousedown="handlePan(1,0)"/>
  <use id="arrowdown" xlink:href="#arrowDown" x="0" y="0" onmousedown="handlePan(0,1)"/>
  <use id="arrowleft" xlink:href="#arrowLeft" x="0" y="0" onmousedown="handlePan(-1,0)"/>
</g>
<svg viewBox="0 0 15 15" width="100%" height="30px" preserveAspectRatio="xMaxYMin meet">
 <g id="arrow_out" transform="scale(0.3 0.3)">
  <a xlink:href="classanalysis_ad1bf7fde8eafef15d4dcedcba5ce51f7_cgraph_org.svg" target="_base">
   <rect id="button" ry="5" rx="5" y="6" x="6" height="38" width="38"
        fill="#f2f5e9" fill-opacity="0.5" stroke="#606060" stroke-width="1.0"/>
   <path id="arrow"
     d="M 11.500037,31.436501 C 11.940474,20.09759 22.043105,11.32322 32.158766,21.979434 L 37.068811,17.246167 C 37.068811,17.246167 37.088388,32 37.088388,32 L 22.160133,31.978069 C 22.160133,31.978069 26.997745,27.140456 26.997745,27.140456 C 18.528582,18.264221 13.291696,25.230495 11.500037,31.436501 z"
     style="fill:#404040;"/>
  </a>
 </g>
</svg>

<style type='text/css'>
<![CDATA[
[data-mouse-over-selected='false'] { opacity: 0.7; }
[data-mouse-over-selected='true']  { opacity: 1.0; }
]]>
</style>
<script type="application/ecmascript"><![CDATA[
document.addEventListener('DOMContentLoaded', (event) => {
  highlightEdges();
  highlightAdjacentNodes();
});
]]></script>
</svg>
