<?xml version="1.0" encoding="UTF-8" standalone="no"?>
<!DOCTYPE svg PUBLIC "-//W3C//DTD SVG 1.1//EN"
 "http://www.w3.org/Graphics/SVG/1.1/DTD/svg11.dtd">
<!-- Generated by graphviz version 2.43.0 (0)
 -->
<!-- Title: accuracy_metric::end Pages: 1 -->
<svg width="293pt" height="45pt"
 viewBox="0.00 0.00 293.00 45.00" xmlns="http://www.w3.org/2000/svg" xmlns:xlink="http://www.w3.org/1999/xlink">
<g id="graph0" class="graph" transform="scale(1 1) rotate(0) translate(4 41)">
<title>accuracy_metric::end</title>
<!-- Node1 -->
<g id="Node000001" class="node">
<title>Node1</title>
<g id="a_Node000001"><a xlink:title=" ">
<polygon fill="#999999" stroke="#666666" points="121,-19 0,-19 0,0 121,0 121,-19"/>
<text text-anchor="middle" x="60.5" y="-7" font-family="Helvetica,sans-Serif" font-size="10.00">accuracy_metric::end</text>
</a>
</g>
</g>
<!-- Node2 -->
<g id="Node000002" class="node">
<title>Node2</title>
<g id="a_Node000002"><a xlink:href="classmetric__template.html#a63bef91cbc8d4212598aa40f028ffa19" target="_top" xlink:title=" ">
<polygon fill="white" stroke="#666666" points="285,-19 157,-19 157,0 285,0 285,-19"/>
<text text-anchor="middle" x="221" y="-7" font-family="Helvetica,sans-Serif" font-size="10.00">metric_template::write</text>
</a>
</g>
</g>
<!-- Node1&#45;&gt;Node2 -->
<g id="edge1_Node000001_Node000002" class="edge">
<title>Node1&#45;&gt;Node2</title>
<g id="a_edge1_Node000001_Node000002"><a xlink:title=" ">
<path fill="none" stroke="#63b8ff" d="M121.42,-9.5C129.65,-9.5 138.17,-9.5 146.61,-9.5"/>
<polygon fill="#63b8ff" stroke="#63b8ff" points="146.82,-13 156.82,-9.5 146.82,-6 146.82,-13"/>
</a>
</g>
</g>
<!-- Node2&#45;&gt;Node2 -->
<g id="edge2_Node000002_Node000002" class="edge">
<title>Node2&#45;&gt;Node2</title>
<g id="a_edge2_Node000002_Node000002"><a xlink:title=" ">
<path fill="none" stroke="#63b8ff" d="M196.34,-19.08C184.34,-27.73 192.56,-37 221,-37 239.66,-37 249.62,-33.01 250.87,-27.82"/>
<polygon fill="#63b8ff" stroke="#63b8ff" points="253.79,-25.88 245.66,-19.08 247.77,-29.47 253.79,-25.88"/>
</a>
</g>
</g>
</g>
</svg>
