<?xml version="1.0" encoding="UTF-8" standalone="no"?>
<!DOCTYPE svg PUBLIC "-//W3C//DTD SVG 1.1//EN"
 "http://www.w3.org/Graphics/SVG/1.1/DTD/svg11.dtd">
<!-- Generated by graphviz version 2.43.0 (0)
 -->
<!-- Title: ssml_mc20::ssml_mc20 Pages: 1 -->
<svg width="320pt" height="76pt"
 viewBox="0.00 0.00 320.00 75.50" xmlns="http://www.w3.org/2000/svg" xmlns:xlink="http://www.w3.org/1999/xlink">
<g id="graph0" class="graph" transform="scale(1 1) rotate(0) translate(4 71.5)">
<title>ssml_mc20::ssml_mc20</title>
<!-- Node1 -->
<g id="Node000001" class="node">
<title>Node1</title>
<g id="a_Node000001"><a xlink:title=" ">
<polygon fill="#999999" stroke="#666666" points="134,-45.5 0,-45.5 0,-26.5 134,-26.5 134,-45.5"/>
<text text-anchor="middle" x="67" y="-33.5" font-family="Helvetica,sans-Serif" font-size="10.00">ssml_mc20::ssml_mc20</text>
</a>
</g>
</g>
<!-- Node2 -->
<g id="Node000002" class="node">
<title>Node2</title>
<g id="a_Node000002"><a xlink:href="classevent__template.html#af57dbc73f9bf6e8ba5126a07e4a327c4" target="_top" xlink:title="Adds a leaf (variable) to the event structure.">
<polygon fill="white" stroke="#666666" points="312,-67.5 170,-67.5 170,-48.5 312,-48.5 312,-67.5"/>
<text text-anchor="middle" x="241" y="-55.5" font-family="Helvetica,sans-Serif" font-size="10.00">event_template::add_leaf</text>
</a>
</g>
</g>
<!-- Node1&#45;&gt;Node2 -->
<g id="edge1_Node000001_Node000002" class="edge">
<title>Node1&#45;&gt;Node2</title>
<g id="a_edge1_Node000001_Node000002"><a xlink:title=" ">
<path fill="none" stroke="#63b8ff" d="M134.01,-44.44C142.45,-45.52 151.17,-46.64 159.8,-47.74"/>
<polygon fill="#63b8ff" stroke="#63b8ff" points="159.52,-51.23 169.89,-49.03 160.41,-44.29 159.52,-51.23"/>
</a>
</g>
</g>
<!-- Node3 -->
<g id="Node000003" class="node">
<title>Node3</title>
<g id="a_Node000003"><a xlink:href="classevent__template.html#a29bff91e130f4b01eefab555eb5fe9bb" target="_top" xlink:title="Registers a particle for tracking in this event.">
<polygon fill="white" stroke="#666666" points="309.5,-30 172.5,-30 172.5,0 309.5,0 309.5,-30"/>
<text text-anchor="start" x="180.5" y="-18" font-family="Helvetica,sans-Serif" font-size="10.00">event_template::register</text>
<text text-anchor="middle" x="241" y="-7" font-family="Helvetica,sans-Serif" font-size="10.00">_particle</text>
</a>
</g>
</g>
<!-- Node1&#45;&gt;Node3 -->
<g id="edge2_Node000001_Node000003" class="edge">
<title>Node1&#45;&gt;Node3</title>
<g id="a_edge2_Node000001_Node000003"><a xlink:title=" ">
<path fill="none" stroke="#63b8ff" d="M134.01,-27.94C143.26,-26.81 152.84,-25.64 162.29,-24.49"/>
<polygon fill="#63b8ff" stroke="#63b8ff" points="162.96,-27.93 172.46,-23.25 162.11,-20.98 162.96,-27.93"/>
</a>
</g>
</g>
</g>
</svg>
