<?xml version="1.0" encoding="UTF-8" standalone="no"?>
<!DOCTYPE svg PUBLIC "-//W3C//DTD SVG 1.1//EN"
 "http://www.w3.org/Graphics/SVG/1.1/DTD/svg11.dtd">
<!-- Generated by graphviz version 2.43.0 (0)
 -->
<!-- Title: topefficiency::strategy Pages: 1 -->
<svg width="454pt" height="82pt"
 viewBox="0.00 0.00 454.00 82.00" xmlns="http://www.w3.org/2000/svg" xmlns:xlink="http://www.w3.org/1999/xlink">
<g id="graph0" class="graph" transform="scale(1 1) rotate(0) translate(4 78)">
<title>topefficiency::strategy</title>
<!-- Node1 -->
<g id="Node000001" class="node">
<title>Node1</title>
<g id="a_Node000001"><a xlink:title="Alternative selection strategy method.">
<polygon fill="#999999" stroke="#666666" points="125,-55 0,-55 0,-36 125,-36 125,-55"/>
<text text-anchor="middle" x="62.5" y="-43" font-family="Helvetica,sans-Serif" font-size="10.00">topefficiency::strategy</text>
</a>
</g>
</g>
<!-- Node2 -->
<g id="Node000002" class="node">
<title>Node2</title>
<g id="a_Node000002"><a xlink:href="classtopefficiency.html#a86be8160dfeebf354752374ab5f4c83f" target="_top" xlink:title=" ">
<polygon fill="white" stroke="#666666" points="303,-74 161,-74 161,-55 303,-55 303,-74"/>
<text text-anchor="middle" x="232" y="-62" font-family="Helvetica,sans-Serif" font-size="10.00">topefficiency::decaymode</text>
</a>
</g>
</g>
<!-- Node1&#45;&gt;Node2 -->
<g id="edge1_Node000001_Node000002" class="edge">
<title>Node1&#45;&gt;Node2</title>
<g id="a_edge1_Node000001_Node000002"><a xlink:title=" ">
<path fill="none" stroke="#63b8ff" d="M125.39,-52.52C133.7,-53.46 142.31,-54.44 150.88,-55.41"/>
<polygon fill="#63b8ff" stroke="#63b8ff" points="150.56,-58.9 160.89,-56.55 151.34,-51.94 150.56,-58.9"/>
</a>
</g>
</g>
<!-- Node3 -->
<g id="Node000003" class="node">
<title>Node3</title>
<g id="a_Node000003"><a xlink:href="classtopefficiency.html#aae4a7f46ed0d168dd12f6ab5e9074a76" target="_top" xlink:title=" ">
<polygon fill="white" stroke="#666666" points="290,-37 174,-37 174,-18 290,-18 290,-37"/>
<text text-anchor="middle" x="232" y="-25" font-family="Helvetica,sans-Serif" font-size="10.00">topefficiency::region</text>
</a>
</g>
</g>
<!-- Node1&#45;&gt;Node3 -->
<g id="edge2_Node000001_Node000003" class="edge">
<title>Node1&#45;&gt;Node3</title>
<g id="a_edge2_Node000001_Node000003"><a xlink:title=" ">
<path fill="none" stroke="#63b8ff" d="M125.39,-38.85C137.9,-37.51 151.1,-36.09 163.77,-34.72"/>
<polygon fill="#63b8ff" stroke="#63b8ff" points="164.23,-38.2 173.8,-33.65 163.48,-31.24 164.23,-38.2"/>
</a>
</g>
</g>
<!-- Node4 -->
<g id="Node000004" class="node">
<title>Node4</title>
<g id="a_Node000004"><a xlink:href="classtopefficiency.html#ab34bde037c5ee04949cb645c20c7e774" target="_top" xlink:title=" ">
<polygon fill="white" stroke="#666666" points="446,-56 339,-56 339,-37 446,-37 446,-56"/>
<text text-anchor="middle" x="392.5" y="-44" font-family="Helvetica,sans-Serif" font-size="10.00">topefficiency::iters</text>
</a>
</g>
</g>
<!-- Node3&#45;&gt;Node4 -->
<g id="edge3_Node000003_Node000004" class="edge">
<title>Node3&#45;&gt;Node4</title>
<g id="a_edge3_Node000003_Node000004"><a xlink:title=" ">
<path fill="none" stroke="#63b8ff" d="M290.22,-34.36C302.75,-35.86 316.07,-37.46 328.79,-38.98"/>
<polygon fill="#63b8ff" stroke="#63b8ff" points="328.5,-42.47 338.85,-40.19 329.33,-35.52 328.5,-42.47"/>
</a>
</g>
</g>
<!-- Node5 -->
<g id="Node000005" class="node">
<title>Node5</title>
<g id="a_Node000005"><a xlink:href="classtools.html#afd037c109d75a9f119ec042e1ba922d9" target="_top" xlink:title="Converts a double value to a string with standard precision.">
<polygon fill="white" stroke="#666666" points="437,-19 348,-19 348,0 437,0 437,-19"/>
<text text-anchor="middle" x="392.5" y="-7" font-family="Helvetica,sans-Serif" font-size="10.00">tools::to_string</text>
</a>
</g>
</g>
<!-- Node3&#45;&gt;Node5 -->
<g id="edge4_Node000003_Node000005" class="edge">
<title>Node3&#45;&gt;Node5</title>
<g id="a_edge4_Node000003_Node000005"><a xlink:title=" ">
<path fill="none" stroke="#63b8ff" d="M290.22,-21C305.64,-19.25 322.27,-17.36 337.5,-15.63"/>
<polygon fill="#63b8ff" stroke="#63b8ff" points="338.25,-19.07 347.8,-14.46 337.46,-12.11 338.25,-19.07"/>
</a>
</g>
</g>
</g>
</svg>
