<?xml version="1.0" encoding="UTF-8" standalone="no"?>
<!DOCTYPE svg PUBLIC "-//W3C//DTD SVG 1.1//EN"
 "http://www.w3.org/Graphics/SVG/1.1/DTD/svg11.dtd">
<!-- Generated by graphviz version 2.43.0 (0)
 -->
<!-- Title: tools::sum Pages: 1 -->
<!--zoomable 369 -->

<svg id="main" version="1.1" xmlns="http://www.w3.org/2000/svg" xmlns:xlink="http://www.w3.org/1999/xlink" xml:space="preserve" onload="init(evt)">
<style type="text/css"><![CDATA[
.node, .edge {opacity: 0.7;}
.node.selected, .edge.selected {opacity: 1;}
.edge:hover path { stroke: red; }
.edge:hover polygon { stroke: red; fill: red; }
]]></style>

<defs>
  <circle id="rim" cx="0" cy="0" r="7"/>
  <circle id="rim2" cx="0" cy="0" r="3.5"/>
  <g id="zoomPlus">
    <use xlink:href="#rim" fill="#404040"><set attributeName="fill" to="#808080" begin="zoomplus.mouseover" end="zoomplus.mouseout"/></use>
    <path d="M-4,0h8M0,-4v8" fill="none" stroke="white" stroke-width="1.5" pointer-events="none"/>
  </g>
  <g id="zoomMin">
    <use xlink:href="#rim" fill="#404040"><set attributeName="fill" to="#808080" begin="zoomminus.mouseover" end="zoomminus.mouseout"/></use>
    <path d="M-4,0h8" fill="none" stroke="white" stroke-width="1.5" pointer-events="none"/>
  </g>
  <g id="arrowUp" transform="translate(30 24)">
    <use xlink:href="#rim"/>
    <path pointer-events="none" fill="none" stroke="white" stroke-width="1.5" d="M0,-3.0v7 M-2.5,-0.5L0,-3.0L2.5,-0.5"/>
  </g>
  <g id="arrowRight" transform="rotate(90) translate(36 -43)">
    <use xlink:href="#rim"/>
    <path pointer-events="none" fill="none" stroke="white" stroke-width="1.5" d="M0,-3.0v7 M-2.5,-0.5L0,-3.0L2.5,-0.5"/>
  </g>
  <g id="arrowDown" transform="rotate(180) translate(-30 -48)">
    <use xlink:href="#rim"/>
    <path pointer-events="none" fill="none" stroke="white" stroke-width="1.5" d="M0,-3.0v7 M-2.5,-0.5L0,-3.0L2.5,-0.5"/>
  </g>
  <g id="arrowLeft" transform="rotate(270) translate(-36 17)">
    <use xlink:href="#rim"/>
    <path pointer-events="none" fill="none" stroke="white" stroke-width="1.5" d="M0,-3.0v7 M-2.5,-0.5L0,-3.0L2.5,-0.5"/>
  </g>
  <g id="resetDef">
    <use xlink:href="#rim2" fill="#404040"><set attributeName="fill" to="#808080" begin="reset.mouseover" end="reset.mouseout"/></use>
  </g>
</defs>
<script type="application/ecmascript">
var viewWidth = 617;
var viewHeight = 369;
var sectionId = 'dynsection-39';
</script>
<script type="application/ecmascript" xlink:href="svg.min.js"/>
<svg id="graph" class="graph">
<g id="viewport">
<title>tools::sum</title>
<!-- Node1 -->
<g id="Node000001" class="node">
<title>Node1</title>
<g id="a_Node000001"><a xlink:title="Sums the elements of a vector.">
<polygon fill="#999999" stroke="#666666" points="609,-191 541,-191 541,-172 609,-172 609,-191"/>
<text text-anchor="middle" x="575" y="-179" font-family="Helvetica,sans-Serif" font-size="10.00">tools::sum</text>
</a>
</g>
</g>
<!-- Node2 -->
<g id="Node000002" class="node">
<title>Node2</title>
<g id="a_Node000002"><a xlink:href="classmetrics.html#a15f20f34714224f09f44cf520ca6f271" target="_top" xlink:title=" ">
<polygon fill="white" stroke="#666666" points="500.5,-361 349.5,-361 349.5,-342 500.5,-342 500.5,-361"/>
<text text-anchor="middle" x="425" y="-349" font-family="Helvetica,sans-Serif" font-size="10.00">metrics::add_th1f_accuracy</text>
</a>
</g>
</g>
<!-- Node1&#45;&gt;Node2 -->
<g id="edge1_Node000001_Node000002" class="edge">
<title>Node1&#45;&gt;Node2</title>
<g id="a_edge1_Node000001_Node000002"><a xlink:title=" ">
<path fill="none" stroke="#63b8ff" d="M570.73,-201.05C564.23,-233.48 546.59,-298.24 505,-332.5 500.32,-336.36 494.98,-339.45 489.34,-341.94"/>
<polygon fill="#63b8ff" stroke="#63b8ff" points="574.2,-201.5 572.58,-191.03 567.32,-200.22 574.2,-201.5"/>
</a>
</g>
</g>
<!-- Node4 -->
<g id="Node000004" class="node">
<title>Node4</title>
<g id="a_Node000004"><a xlink:href="classsampletracer.html#a30d25d5a298b3c5698aee99ede11ce79" target="_top" xlink:title="Compiles objects concurrently using multiple threads.">
<polygon fill="white" stroke="#666666" points="488,-323.5 362,-323.5 362,-293.5 488,-293.5 488,-323.5"/>
<text text-anchor="start" x="370" y="-311.5" font-family="Helvetica,sans-Serif" font-size="10.00">sampletracer::compile</text>
<text text-anchor="middle" x="425" y="-300.5" font-family="Helvetica,sans-Serif" font-size="10.00">_objects</text>
</a>
</g>
</g>
<!-- Node1&#45;&gt;Node4 -->
<g id="edge3_Node000001_Node000004" class="edge">
<title>Node1&#45;&gt;Node4</title>
<g id="a_edge3_Node000001_Node000004"><a xlink:title=" ">
<path fill="none" stroke="#63b8ff" d="M566.14,-200.49C555.59,-223.67 534.69,-262.5 505,-284.5 499.93,-288.26 494.27,-291.43 488.38,-294.11"/>
<polygon fill="#63b8ff" stroke="#63b8ff" points="569.47,-201.62 570.25,-191.06 563.05,-198.83 569.47,-201.62"/>
</a>
</g>
</g>
<!-- Node5 -->
<g id="Node000005" class="node">
<title>Node5</title>
<g id="a_Node000005"><a xlink:href="classparticle__template.html#a575d99bd23ac34125328e4d23518ff52" target="_top" xlink:title="Calculates the angular separation ΔR from another particle.">
<polygon fill="white" stroke="#666666" points="479.5,-275.5 370.5,-275.5 370.5,-245.5 479.5,-245.5 479.5,-275.5"/>
<text text-anchor="start" x="378.5" y="-263.5" font-family="Helvetica,sans-Serif" font-size="10.00">particle_template::</text>
<text text-anchor="middle" x="425" y="-252.5" font-family="Helvetica,sans-Serif" font-size="10.00">DeltaR</text>
</a>
</g>
</g>
<!-- Node1&#45;&gt;Node5 -->
<g id="edge4_Node000001_Node000005" class="edge">
<title>Node1&#45;&gt;Node5</title>
<g id="a_edge4_Node000001_Node000005"><a xlink:title=" ">
<path fill="none" stroke="#63b8ff" d="M556.71,-198.37C543.5,-210.47 524.31,-226.35 505,-236.5 497.13,-240.64 488.44,-244.17 479.79,-247.17"/>
<polygon fill="#63b8ff" stroke="#63b8ff" points="559.23,-200.82 564.12,-191.42 554.44,-195.71 559.23,-200.82"/>
</a>
</g>
</g>
<!-- Node6 -->
<g id="Node000006" class="node">
<title>Node6</title>
<g id="a_Node000006"><a xlink:href="classgraph__template.html#aa2bef51e5e00b49425c8ac93bcd1f315" target="_top" xlink:title="Reconstructs double neutrino momenta for di&#45;leptonic events.">
<polygon fill="white" stroke="#666666" points="491.5,-227.5 358.5,-227.5 358.5,-197.5 491.5,-197.5 491.5,-227.5"/>
<text text-anchor="start" x="366.5" y="-215.5" font-family="Helvetica,sans-Serif" font-size="10.00">graph_template::double</text>
<text text-anchor="middle" x="425" y="-204.5" font-family="Helvetica,sans-Serif" font-size="10.00">_neutrino</text>
</a>
</g>
</g>
<!-- Node1&#45;&gt;Node6 -->
<g id="edge5_Node000001_Node000006" class="edge">
<title>Node1&#45;&gt;Node6</title>
<g id="a_edge5_Node000001_Node000006"><a xlink:title=" ">
<path fill="none" stroke="#63b8ff" d="M530.82,-190.54C518.52,-193.12 504.84,-195.99 491.53,-198.77"/>
<polygon fill="#63b8ff" stroke="#63b8ff" points="531.72,-193.93 540.79,-188.46 530.28,-187.08 531.72,-193.93"/>
</a>
</g>
</g>
<!-- Node10 -->
<g id="Node000010" class="node">
<title>Node10</title>
<g id="a_Node000010"><a xlink:href="classgrift.html#a72f7575fbd1d744d4f9053e5b8b7ee38" target="_top" xlink:title="Virtual forward pass method for a single graph.">
<polygon fill="white" stroke="#666666" points="465,-161 385,-161 385,-142 465,-142 465,-161"/>
<text text-anchor="middle" x="425" y="-149" font-family="Helvetica,sans-Serif" font-size="10.00">grift::forward</text>
</a>
</g>
</g>
<!-- Node1&#45;&gt;Node10 -->
<g id="edge9_Node000001_Node000010" class="edge">
<title>Node1&#45;&gt;Node10</title>
<g id="a_edge9_Node000001_Node000010"><a xlink:title=" ">
<path fill="none" stroke="#63b8ff" d="M530.94,-172.77C510.15,-168.56 485.38,-163.54 465.14,-159.43"/>
<polygon fill="#63b8ff" stroke="#63b8ff" points="530.29,-176.21 540.79,-174.77 531.68,-169.35 530.29,-176.21"/>
</a>
</g>
</g>
<!-- Node11 -->
<g id="Node000011" class="node">
<title>Node11</title>
<g id="a_Node000011"><a xlink:href="classgrift.html#ad610edcd0cab14b57197a846ab8a8caf" target="_top" xlink:title=" ">
<polygon fill="white" stroke="#666666" points="270,-151 184,-151 184,-132 270,-132 270,-151"/>
<text text-anchor="middle" x="227" y="-139" font-family="Helvetica,sans-Serif" font-size="10.00">grift::message</text>
</a>
</g>
</g>
<!-- Node1&#45;&gt;Node11 -->
<g id="edge20_Node000001_Node000011" class="edge">
<title>Node1&#45;&gt;Node11</title>
<g id="a_edge20_Node000001_Node000011"><a xlink:title=" ">
<path fill="none" stroke="#63b8ff" d="M556.65,-164.89C543.6,-153.61 524.65,-139.66 505,-133.5 424.89,-108.38 325.29,-121.22 269.99,-131.95"/>
<polygon fill="#63b8ff" stroke="#63b8ff" points="554.55,-167.72 564.32,-171.81 559.24,-162.52 554.55,-167.72"/>
</a>
</g>
</g>
<!-- Node12 -->
<g id="Node000012" class="node">
<title>Node12</title>
<g id="a_Node000012"><a xlink:href="classrecursivegraphneuralnetwork.html#a4b09bc8de8d9ecd0b4ff1ffa94deea98" target="_top" xlink:title="Virtual forward pass method for a single graph.">
<polygon fill="white" stroke="#666666" points="505,-67.5 345,-67.5 345,-37.5 505,-37.5 505,-67.5"/>
<text text-anchor="start" x="353" y="-55.5" font-family="Helvetica,sans-Serif" font-size="10.00">recursivegraphneuralnetwork</text>
<text text-anchor="middle" x="425" y="-44.5" font-family="Helvetica,sans-Serif" font-size="10.00">::forward</text>
</a>
</g>
</g>
<!-- Node1&#45;&gt;Node12 -->
<g id="edge13_Node000001_Node000012" class="edge">
<title>Node1&#45;&gt;Node12</title>
<g id="a_edge13_Node000001_Node000012"><a xlink:title=" ">
<path fill="none" stroke="#63b8ff" d="M561.56,-163.43C548.77,-145.72 527.58,-118.68 505,-99.5 490.4,-87.1 472.13,-76 456.84,-67.71"/>
<polygon fill="#63b8ff" stroke="#63b8ff" points="558.81,-165.61 567.44,-171.75 564.52,-161.56 558.81,-165.61"/>
</a>
</g>
</g>
<!-- Node14 -->
<g id="Node000014" class="node">
<title>Node14</title>
<g id="a_Node000014"><a xlink:href="classmatching.html#a04995b471b7aed459aeec59b3ea9a81b" target="_top" xlink:title=" ">
<polygon fill="white" stroke="#666666" points="484.5,-19 365.5,-19 365.5,0 484.5,0 484.5,-19"/>
<text text-anchor="middle" x="425" y="-7" font-family="Helvetica,sans-Serif" font-size="10.00">matching::match_obj</text>
</a>
</g>
</g>
<!-- Node1&#45;&gt;Node14 -->
<g id="edge17_Node000001_Node000014" class="edge">
<title>Node1&#45;&gt;Node14</title>
<g id="a_edge17_Node000001_Node000014"><a xlink:title=" ">
<path fill="none" stroke="#63b8ff" d="M570.81,-161.7C564.43,-128.84 546.96,-63.24 505,-28.5 499.02,-23.55 491.97,-19.85 484.58,-17.09"/>
<polygon fill="#63b8ff" stroke="#63b8ff" points="567.42,-162.62 572.62,-171.85 574.31,-161.39 567.42,-162.62"/>
</a>
</g>
</g>
<!-- Node3 -->
<g id="Node000003" class="node">
<title>Node3</title>
<g id="a_Node000003"><a xlink:href="classmetrics.html#a24531660bf7917f489a6b67ceed12cdd" target="_top" xlink:title="Captures metrics from the current epoch.">
<polygon fill="white" stroke="#666666" points="275,-361 179,-361 179,-342 275,-342 275,-361"/>
<text text-anchor="middle" x="227" y="-349" font-family="Helvetica,sans-Serif" font-size="10.00">metrics::capture</text>
</a>
</g>
</g>
<!-- Node2&#45;&gt;Node3 -->
<g id="edge2_Node000002_Node000003" class="edge">
<title>Node2&#45;&gt;Node3</title>
<g id="a_edge2_Node000002_Node000003"><a xlink:title=" ">
<path fill="none" stroke="#63b8ff" d="M339.33,-351.5C317.37,-351.5 294.5,-351.5 275.24,-351.5"/>
<polygon fill="#63b8ff" stroke="#63b8ff" points="339.34,-355 349.34,-351.5 339.34,-348 339.34,-355"/>
</a>
</g>
</g>
<!-- Node7 -->
<g id="Node000007" class="node">
<title>Node7</title>
<g id="a_Node000007"><a xlink:href="classgraph__truthjets__nonu.html#add03a6d564186c150f7c907737b77eeb" target="_top" xlink:title="Compiles the event into a graph.">
<polygon fill="white" stroke="#666666" points="287,-284.5 167,-284.5 167,-254.5 287,-254.5 287,-284.5"/>
<text text-anchor="start" x="175" y="-272.5" font-family="Helvetica,sans-Serif" font-size="10.00">graph_truthjets_nonu</text>
<text text-anchor="middle" x="227" y="-261.5" font-family="Helvetica,sans-Serif" font-size="10.00">::CompileEvent</text>
</a>
</g>
</g>
<!-- Node6&#45;&gt;Node7 -->
<g id="edge6_Node000006_Node000007" class="edge">
<title>Node6&#45;&gt;Node7</title>
<g id="a_edge6_Node000006_Node000007"><a xlink:title=" ">
<path fill="none" stroke="#63b8ff" d="M362.64,-230.34C336.01,-238.09 305.15,-247.06 279.7,-254.46"/>
<polygon fill="#63b8ff" stroke="#63b8ff" points="363.62,-233.7 372.25,-227.55 361.67,-226.98 363.62,-233.7"/>
</a>
</g>
</g>
<!-- Node8 -->
<g id="Node000008" class="node">
<title>Node8</title>
<g id="a_Node000008"><a xlink:href="classgraph__jets__nonu.html#a3d76d9b5885af9d1ef9c2a150acc1300" target="_top" xlink:title="Compiles the event into a graph.">
<polygon fill="white" stroke="#666666" points="298.5,-236.5 155.5,-236.5 155.5,-206.5 298.5,-206.5 298.5,-236.5"/>
<text text-anchor="start" x="163.5" y="-224.5" font-family="Helvetica,sans-Serif" font-size="10.00">graph_jets_nonu::Compile</text>
<text text-anchor="middle" x="227" y="-213.5" font-family="Helvetica,sans-Serif" font-size="10.00">Event</text>
</a>
</g>
</g>
<!-- Node6&#45;&gt;Node8 -->
<g id="edge7_Node000006_Node000008" class="edge">
<title>Node6&#45;&gt;Node8</title>
<g id="a_edge7_Node000006_Node000008"><a xlink:title=" ">
<path fill="none" stroke="#63b8ff" d="M348.39,-215.97C331.99,-216.72 314.71,-217.52 298.52,-218.26"/>
<polygon fill="#63b8ff" stroke="#63b8ff" points="348.63,-219.46 358.46,-215.51 348.31,-212.47 348.63,-219.46"/>
</a>
</g>
</g>
<!-- Node9 -->
<g id="Node000009" class="node">
<title>Node9</title>
<g id="a_Node000009"><a xlink:href="classgraph__detector.html#a9524462481e7c9e42df5cf73f999737e" target="_top" xlink:title="Compiles the event into a graph.">
<polygon fill="white" stroke="#666666" points="309,-188 145,-188 145,-169 309,-169 309,-188"/>
<text text-anchor="middle" x="227" y="-176" font-family="Helvetica,sans-Serif" font-size="10.00">graph_detector::CompileEvent</text>
</a>
</g>
</g>
<!-- Node6&#45;&gt;Node9 -->
<g id="edge8_Node000006_Node000009" class="edge">
<title>Node6&#45;&gt;Node9</title>
<g id="a_edge8_Node000006_Node000009"><a xlink:title=" ">
<path fill="none" stroke="#63b8ff" d="M348.56,-199.41C326.74,-195.63 303.34,-191.57 283.01,-188.04"/>
<polygon fill="#63b8ff" stroke="#63b8ff" points="348.01,-202.87 358.46,-201.13 349.21,-195.97 348.01,-202.87"/>
</a>
</g>
</g>
<!-- Node10&#45;&gt;Node10 -->
<g id="edge10_Node000010_Node000010" class="edge">
<title>Node10&#45;&gt;Node10</title>
<g id="a_edge10_Node000010_Node000010"><a xlink:title=" ">
<path fill="none" stroke="#63b8ff" d="M453,-169.82C451.83,-175.01 442.5,-179 425,-179 398.34,-179 390.63,-169.73 401.88,-161.08"/>
<polygon fill="#63b8ff" stroke="#63b8ff" points="456.05,-168.11 448.12,-161.08 449.94,-171.52 456.05,-168.11"/>
</a>
</g>
</g>
<!-- Node10&#45;&gt;Node11 -->
<g id="edge11_Node000010_Node000011" class="edge">
<title>Node10&#45;&gt;Node11</title>
<g id="a_edge11_Node000010_Node000011"><a xlink:title=" ">
<path fill="none" stroke="#63b8ff" d="M374.7,-143.04C342.49,-140.24 300.86,-138.21 270.18,-137.99"/>
<polygon fill="#63b8ff" stroke="#63b8ff" points="374.53,-146.54 384.81,-143.97 375.17,-139.57 374.53,-146.54"/>
</a>
</g>
</g>
<!-- Node11&#45;&gt;Node10 -->
<g id="edge12_Node000011_Node000010" class="edge">
<title>Node11&#45;&gt;Node10</title>
<g id="a_edge12_Node000011_Node000010"><a xlink:title=" ">
<path fill="none" stroke="#63b8ff" d="M280.5,-150.24C313.31,-152.99 354.87,-154.93 384.81,-155.03"/>
<polygon fill="#63b8ff" stroke="#63b8ff" points="280.45,-146.72 270.18,-149.31 279.83,-153.69 280.45,-146.72"/>
</a>
</g>
</g>
<!-- Node12&#45;&gt;Node12 -->
<g id="edge14_Node000012_Node000012" class="edge">
<title>Node12&#45;&gt;Node12</title>
<g id="a_edge14_Node000012_Node000012"><a xlink:title=" ">
<path fill="none" stroke="#63b8ff" d="M451.26,-78.1C447.67,-82.47 438.92,-85.5 425,-85.5 401.56,-85.5 392.77,-76.91 398.63,-67.78"/>
<polygon fill="#63b8ff" stroke="#63b8ff" points="454.76,-77.81 451.37,-67.78 447.76,-77.74 454.76,-77.81"/>
</a>
</g>
</g>
<!-- Node13 -->
<g id="Node000013" class="node">
<title>Node13</title>
<g id="a_Node000013"><a xlink:href="classrecursivegraphneuralnetwork.html#a7c83216c5899b14dcc03ccf368209ee1" target="_top" xlink:title=" ">
<polygon fill="white" stroke="#666666" points="307,-67.5 147,-67.5 147,-37.5 307,-37.5 307,-67.5"/>
<text text-anchor="start" x="155" y="-55.5" font-family="Helvetica,sans-Serif" font-size="10.00">recursivegraphneuralnetwork</text>
<text text-anchor="middle" x="227" y="-44.5" font-family="Helvetica,sans-Serif" font-size="10.00">::message</text>
</a>
</g>
</g>
<!-- Node12&#45;&gt;Node13 -->
<g id="edge15_Node000012_Node000013" class="edge">
<title>Node12&#45;&gt;Node13</title>
<g id="a_edge15_Node000012_Node000013"><a xlink:title=" ">
<path fill="none" stroke="#63b8ff" d="M334.57,-45.77C325.42,-45.72 316.16,-45.75 307.13,-45.86"/>
<polygon fill="#63b8ff" stroke="#63b8ff" points="334.81,-49.28 344.84,-45.86 334.88,-42.28 334.81,-49.28"/>
</a>
</g>
</g>
<!-- Node13&#45;&gt;Node12 -->
<g id="edge16_Node000013_Node000012" class="edge">
<title>Node13&#45;&gt;Node12</title>
<g id="a_edge16_Node000013_Node000012"><a xlink:title=" ">
<path fill="none" stroke="#63b8ff" d="M317.41,-59.23C326.56,-59.28 335.81,-59.25 344.84,-59.14"/>
<polygon fill="#63b8ff" stroke="#63b8ff" points="317.16,-55.72 307.13,-59.14 317.1,-62.72 317.16,-55.72"/>
</a>
</g>
</g>
<!-- Node15 -->
<g id="Node000015" class="node">
<title>Node15</title>
<g id="a_Node000015"><a xlink:href="classmatching.html#a6925aacb40ca0e99f178d44959956fdb" target="_top" xlink:title=" ">
<polygon fill="white" stroke="#666666" points="294,-19 160,-19 160,0 294,0 294,-19"/>
<text text-anchor="middle" x="227" y="-7" font-family="Helvetica,sans-Serif" font-size="10.00">matching::experimental</text>
</a>
</g>
</g>
<!-- Node14&#45;&gt;Node15 -->
<g id="edge18_Node000014_Node000015" class="edge">
<title>Node14&#45;&gt;Node15</title>
<g id="a_edge18_Node000014_Node000015"><a xlink:title=" ">
<path fill="none" stroke="#63b8ff" d="M355.26,-9.5C335.42,-9.5 313.82,-9.5 294.14,-9.5"/>
<polygon fill="#63b8ff" stroke="#63b8ff" points="355.46,-13 365.46,-9.5 355.46,-6 355.46,-13"/>
</a>
</g>
</g>
<!-- Node16 -->
<g id="Node000016" class="node">
<title>Node16</title>
<g id="a_Node000016"><a xlink:href="classmatching.html#afbde71106947fe0f714151794c7f6259" target="_top" xlink:title="Alternative selection strategy method.">
<polygon fill="white" stroke="#666666" points="109,-19 0,-19 0,0 109,0 109,-19"/>
<text text-anchor="middle" x="54.5" y="-7" font-family="Helvetica,sans-Serif" font-size="10.00">matching::strategy</text>
</a>
</g>
</g>
<!-- Node15&#45;&gt;Node16 -->
<g id="edge19_Node000015_Node000016" class="edge">
<title>Node15&#45;&gt;Node16</title>
<g id="a_edge19_Node000015_Node000016"><a xlink:title=" ">
<path fill="none" stroke="#63b8ff" d="M149.29,-9.5C135.71,-9.5 121.84,-9.5 109.08,-9.5"/>
<polygon fill="#63b8ff" stroke="#63b8ff" points="149.59,-13 159.59,-9.5 149.59,-6 149.59,-13"/>
</a>
</g>
</g>
</g>
</svg>

<g id="navigator" transform="translate(0 0)" fill="#404254">
  <rect fill="#f2f5e9" fill-opacity="0.5" stroke="#606060" stroke-width=".5" x="0" y="0" width="60" height="60"/>
  <use id="zoomplus" xlink:href="#zoomPlus" x="17" y="9" onmousedown="handleZoom(evt,'in')"/>
  <use id="zoomminus" xlink:href="#zoomMin" x="42" y="9" onmousedown="handleZoom(evt,'out')"/>
  <use id="reset" xlink:href="#resetDef" x="30" y="36" onmousedown="handleReset()"/>
   <use id="arrowup" xlink:href="#arrowUp" x="0" y="0" onmousedown="handlePan(0,-1)"/>
  <use id="arrowright" xlink:href="#arrowRight" x="0" y="0" onmousedown="handlePan(1,0)"/>
  <use id="arrowdown" xlink:href="#arrowDown" x="0" y="0" onmousedown="handlePan(0,1)"/>
  <use id="arrowleft" xlink:href="#arrowLeft" x="0" y="0" onmousedown="handlePan(-1,0)"/>
</g>
<svg viewBox="0 0 15 15" width="100%" height="30px" preserveAspectRatio="xMaxYMin meet">
 <g id="arrow_out" transform="scale(0.3 0.3)">
  <a xlink:href="classtools_a7b784121d8b368a64995feddc7083469_icgraph_org.svg" target="_base">
   <rect id="button" ry="5" rx="5" y="6" x="6" height="38" width="38"
        fill="#f2f5e9" fill-opacity="0.5" stroke="#606060" stroke-width="1.0"/>
   <path id="arrow"
     d="M 11.500037,31.436501 C 11.940474,20.09759 22.043105,11.32322 32.158766,21.979434 L 37.068811,17.246167 C 37.068811,17.246167 37.088388,32 37.088388,32 L 22.160133,31.978069 C 22.160133,31.978069 26.997745,27.140456 26.997745,27.140456 C 18.528582,18.264221 13.291696,25.230495 11.500037,31.436501 z"
     style="fill:#404040;"/>
  </a>
 </g>
</svg>

<style type='text/css'>
<![CDATA[
[data-mouse-over-selected='false'] { opacity: 0.7; }
[data-mouse-over-selected='true']  { opacity: 1.0; }
]]>
</style>
<script type="application/ecmascript"><![CDATA[
document.addEventListener('DOMContentLoaded', (event) => {
  highlightEdges();
  highlightAdjacentNodes();
});
]]></script>
</svg>
