<?xml version="1.0" encoding="UTF-8" standalone="no"?>
<!DOCTYPE svg PUBLIC "-//W3C//DTD SVG 1.1//EN"
 "http://www.w3.org/Graphics/SVG/1.1/DTD/svg11.dtd">
<!-- Generated by graphviz version 2.43.0 (0)
 -->
<!-- Title: meta::get_events Pages: 1 -->
<svg width="287pt" height="64pt"
 viewBox="0.00 0.00 287.00 64.00" xmlns="http://www.w3.org/2000/svg" xmlns:xlink="http://www.w3.org/1999/xlink">
<g id="graph0" class="graph" transform="scale(1 1) rotate(0) translate(4 60)">
<title>meta::get_events</title>
<!-- Node1 -->
<g id="Node000001" class="node">
<title>Node1</title>
<g id="a_Node000001"><a xlink:title="Static getter for the events property.">
<polygon fill="#999999" stroke="#666666" points="279,-37 177,-37 177,-18 279,-18 279,-37"/>
<text text-anchor="middle" x="228" y="-25" font-family="Helvetica,sans-Serif" font-size="10.00">meta::get_events</text>
</a>
</g>
</g>
<!-- Node2 -->
<g id="Node000002" class="node">
<title>Node2</title>
<g id="a_Node000002"><a xlink:href="classmeta.html#a63ad3379066eb6b7c8bf7a7ea9ee0783" target="_top" xlink:title="&lt; Public access specifier for the following members.">
<polygon fill="white" stroke="#666666" points="107.5,-56 33.5,-56 33.5,-37 107.5,-37 107.5,-56"/>
<text text-anchor="middle" x="70.5" y="-44" font-family="Helvetica,sans-Serif" font-size="10.00">meta::meta</text>
</a>
</g>
</g>
<!-- Node1&#45;&gt;Node2 -->
<g id="edge1_Node000001_Node000002" class="edge">
<title>Node1&#45;&gt;Node2</title>
<g id="a_edge1_Node000001_Node000002"><a xlink:title=" ">
<path fill="none" stroke="#63b8ff" d="M166.97,-34.84C146.95,-37.28 125.29,-39.93 107.66,-42.08"/>
<polygon fill="#63b8ff" stroke="#63b8ff" points="167.44,-38.3 176.94,-33.62 166.59,-31.36 167.44,-38.3"/>
</a>
</g>
</g>
<!-- Node3 -->
<g id="Node000003" class="node">
<title>Node3</title>
<g id="a_Node000003"><a xlink:href="classsampletracer.html#ad7d52f2a227616505a89dd2ff3f9c843" target="_top" xlink:title=" ">
<polygon fill="white" stroke="#666666" points="141,-19 0,-19 0,0 141,0 141,-19"/>
<text text-anchor="middle" x="70.5" y="-7" font-family="Helvetica,sans-Serif" font-size="10.00">sampletracer::get_events</text>
</a>
</g>
</g>
<!-- Node1&#45;&gt;Node3 -->
<g id="edge2_Node000001_Node000003" class="edge">
<title>Node1&#45;&gt;Node3</title>
<g id="a_edge2_Node000001_Node000003"><a xlink:title=" ">
<path fill="none" stroke="#63b8ff" d="M166.81,-20.53C158.36,-19.55 149.61,-18.54 141.01,-17.55"/>
<polygon fill="#63b8ff" stroke="#63b8ff" points="166.61,-24.03 176.94,-21.71 167.41,-17.08 166.61,-24.03"/>
</a>
</g>
</g>
</g>
</svg>
