<?xml version="1.0" encoding="UTF-8" standalone="no"?>
<!DOCTYPE svg PUBLIC "-//W3C//DTD SVG 1.1//EN"
 "http://www.w3.org/Graphics/SVG/1.1/DTD/svg11.dtd">
<!-- Generated by graphviz version 2.43.0 (0)
 -->
<!-- Title: analysis::build_metric_folds Pages: 1 -->
<svg width="399pt" height="38pt"
 viewBox="0.00 0.00 399.00 38.00" xmlns="http://www.w3.org/2000/svg" xmlns:xlink="http://www.w3.org/1999/xlink">
<g id="graph0" class="graph" transform="scale(1 1) rotate(0) translate(4 34)">
<title>analysis::build_metric_folds</title>
<!-- Node1 -->
<g id="Node000001" class="node">
<title>Node1</title>
<g id="a_Node000001"><a xlink:title="Builds or calculates metrics across different data folds (e.g., for k&#45;fold cross&#45;validation).">
<polygon fill="#999999" stroke="#666666" points="391,-30 267,-30 267,0 391,0 391,-30"/>
<text text-anchor="start" x="275" y="-18" font-family="Helvetica,sans-Serif" font-size="10.00">analysis::build_metric</text>
<text text-anchor="middle" x="329" y="-7" font-family="Helvetica,sans-Serif" font-size="10.00">_folds</text>
</a>
</g>
</g>
<!-- Node2 -->
<g id="Node000002" class="node">
<title>Node2</title>
<g id="a_Node000002"><a xlink:href="classanalysis.html#a401745bb4bcae03160ffa0b5df2887e7" target="_top" xlink:title="Starts the analysis execution.">
<polygon fill="white" stroke="#666666" points="231,-24.5 145,-24.5 145,-5.5 231,-5.5 231,-24.5"/>
<text text-anchor="middle" x="188" y="-12.5" font-family="Helvetica,sans-Serif" font-size="10.00">analysis::start</text>
</a>
</g>
</g>
<!-- Node1&#45;&gt;Node2 -->
<g id="edge1_Node000001_Node000002" class="edge">
<title>Node1&#45;&gt;Node2</title>
<g id="a_edge1_Node000001_Node000002"><a xlink:title=" ">
<path fill="none" stroke="#63b8ff" d="M256.52,-15C247.9,-15 239.32,-15 231.31,-15"/>
<polygon fill="#63b8ff" stroke="#63b8ff" points="256.63,-18.5 266.63,-15 256.63,-11.5 256.63,-18.5"/>
</a>
</g>
</g>
<!-- Node3 -->
<g id="Node000003" class="node">
<title>Node3</title>
<g id="a_Node000003"><a xlink:href="classanalysis.html#aa5f5f1de2fe05c9fb8c5c0fffbf7b938" target="_top" xlink:title="Fetches tags, possibly related to data versions, processing stages, or k&#45;folds.">
<polygon fill="white" stroke="#666666" points="109,-24.5 0,-24.5 0,-5.5 109,-5.5 109,-24.5"/>
<text text-anchor="middle" x="54.5" y="-12.5" font-family="Helvetica,sans-Serif" font-size="10.00">analysis::fetchtags</text>
</a>
</g>
</g>
<!-- Node2&#45;&gt;Node3 -->
<g id="edge2_Node000002_Node000003" class="edge">
<title>Node2&#45;&gt;Node3</title>
<g id="a_edge2_Node000002_Node000003"><a xlink:title=" ">
<path fill="none" stroke="#63b8ff" d="M134.4,-8.37C126.14,-8.22 117.59,-8.21 109.3,-8.35"/>
<polygon fill="#63b8ff" stroke="#63b8ff" points="134.58,-11.88 144.67,-8.65 134.77,-4.88 134.58,-11.88"/>
</a>
</g>
</g>
<!-- Node3&#45;&gt;Node2 -->
<g id="edge3_Node000003_Node000002" class="edge">
<title>Node3&#45;&gt;Node2</title>
<g id="a_edge3_Node000003_Node000002"><a xlink:title=" ">
<path fill="none" stroke="#63b8ff" d="M119.34,-21.75C127.93,-21.77 136.57,-21.64 144.67,-21.35"/>
<polygon fill="#63b8ff" stroke="#63b8ff" points="119.34,-18.25 109.3,-21.65 119.27,-25.25 119.34,-18.25"/>
</a>
</g>
</g>
</g>
</svg>
