<?xml version="1.0" encoding="UTF-8" standalone="no"?>
<!DOCTYPE svg PUBLIC "-//W3C//DTD SVG 1.1//EN"
 "http://www.w3.org/Graphics/SVG/1.1/DTD/svg11.dtd">
<!-- Generated by graphviz version 2.43.0 (0)
 -->
<!-- Title: analysis::add_metric_template Pages: 1 -->
<svg width="358pt" height="51pt"
 viewBox="0.00 0.00 358.00 50.50" xmlns="http://www.w3.org/2000/svg" xmlns:xlink="http://www.w3.org/1999/xlink">
<g id="graph0" class="graph" transform="scale(1 1) rotate(0) translate(4 46.5)">
<title>analysis::add_metric_template</title>
<!-- Node1 -->
<g id="Node000001" class="node">
<title>Node1</title>
<g id="a_Node000001"><a xlink:title="Adds a metric template to the analysis, associating it with a model.">
<polygon fill="#999999" stroke="#666666" points="118,-30 0,-30 0,0 118,0 118,-30"/>
<text text-anchor="start" x="8" y="-18" font-family="Helvetica,sans-Serif" font-size="10.00">analysis::add_metric</text>
<text text-anchor="middle" x="59" y="-7" font-family="Helvetica,sans-Serif" font-size="10.00">_template</text>
</a>
</g>
</g>
<!-- Node2 -->
<g id="Node000002" class="node">
<title>Node2</title>
<g id="a_Node000002"><a xlink:href="classanalysis.html#a3cd3d6b2539ad3d5778cffabda174228" target="_top" xlink:title="Templated helper method to safely clone objects (e.g., event or graph templates).">
<polygon fill="white" stroke="#666666" points="270,-24.5 154,-24.5 154,-5.5 270,-5.5 270,-24.5"/>
<text text-anchor="middle" x="212" y="-12.5" font-family="Helvetica,sans-Serif" font-size="10.00">analysis::safe_clone</text>
</a>
</g>
</g>
<!-- Node1&#45;&gt;Node2 -->
<g id="edge1_Node000001_Node000002" class="edge">
<title>Node1&#45;&gt;Node2</title>
<g id="a_edge1_Node000001_Node000002"><a xlink:title=" ">
<path fill="none" stroke="#63b8ff" d="M118.38,-15C126.64,-15 135.19,-15 143.6,-15"/>
<polygon fill="#63b8ff" stroke="#63b8ff" points="143.77,-18.5 153.77,-15 143.77,-11.5 143.77,-18.5"/>
</a>
</g>
</g>
<!-- Node3 -->
<g id="Node000003" class="node">
<title>Node3</title>
<g id="a_Node000003"><a xlink:href="structs_2cxx_2base_8cxx.html#a4eee7b291ed2cdcd4e3c2496c603c48c" target="_top" xlink:title="Counts occurrences of a substring in a string.">
<polygon fill="white" stroke="#666666" points="350,-24.5 306,-24.5 306,-5.5 350,-5.5 350,-24.5"/>
<text text-anchor="middle" x="328" y="-12.5" font-family="Helvetica,sans-Serif" font-size="10.00">count</text>
</a>
</g>
</g>
<!-- Node2&#45;&gt;Node3 -->
<g id="edge2_Node000002_Node000003" class="edge">
<title>Node2&#45;&gt;Node3</title>
<g id="a_edge2_Node000002_Node000003"><a xlink:title=" ">
<path fill="none" stroke="#63b8ff" d="M270.33,-15C279.1,-15 287.86,-15 295.77,-15"/>
<polygon fill="#63b8ff" stroke="#63b8ff" points="295.97,-18.5 305.97,-15 295.97,-11.5 295.97,-18.5"/>
</a>
</g>
</g>
<!-- Node3&#45;&gt;Node3 -->
<g id="edge3_Node000003_Node000003" class="edge">
<title>Node3&#45;&gt;Node3</title>
<g id="a_edge3_Node000003_Node000003"><a xlink:title=" ">
<path fill="none" stroke="#63b8ff" d="M310.43,-24.58C301.88,-33.23 307.74,-42.5 328,-42.5 340.66,-42.5 347.7,-38.88 349.11,-34.05"/>
<polygon fill="#63b8ff" stroke="#63b8ff" points="352.35,-32.72 345.57,-24.58 345.79,-35.18 352.35,-32.72"/>
</a>
</g>
</g>
</g>
</svg>
