<?xml version="1.0" encoding="UTF-8" standalone="no"?>
<!DOCTYPE svg PUBLIC "-//W3C//DTD SVG 1.1//EN"
 "http://www.w3.org/Graphics/SVG/1.1/DTD/svg11.dtd">
<!-- Generated by graphviz version 2.43.0 (0)
 -->
<!-- Title: top_children::build Pages: 1 -->
<svg width="477pt" height="198pt"
 viewBox="0.00 0.00 477.00 197.50" xmlns="http://www.w3.org/2000/svg" xmlns:xlink="http://www.w3.org/1999/xlink">

<svg id="main" version="1.1" xmlns="http://www.w3.org/2000/svg" xmlns:xlink="http://www.w3.org/1999/xlink" xml:space="preserve" onload="init(evt)">
<style type="text/css"><![CDATA[
.node, .edge {opacity: 0.7;}
.node.selected, .edge.selected {opacity: 1;}
.edge:hover path { stroke: red; }
.edge:hover polygon { stroke: red; fill: red; }
]]></style>
<script type="application/ecmascript" xlink:href="svg.min.js"/>
<svg id="graph" class="graph">
<g id="graph0" class="graph" transform="scale(1 1) rotate(0) translate(4 193.5)">
<title>top_children::build</title>
<!-- Node1 -->
<g id="Node000001" class="node">
<title>Node1</title>
<g id="a_Node000001"><a xlink:title="Builds the particle from event data.">
<polygon fill="#999999" stroke="#666666" points="107,-93 0,-93 0,-74 107,-74 107,-93"/>
<text text-anchor="middle" x="53.5" y="-81" font-family="Helvetica,sans-Serif" font-size="10.00">top_children::build</text>
</a>
</g>
</g>
<!-- Node2 -->
<g id="Node000002" class="node">
<title>Node2</title>
<g id="a_Node000002"><a xlink:href="classtop__children.html#a0479039c51f146cc0886e1dec06c48d7" target="_top" xlink:title=" ">
<polygon fill="white" stroke="#666666" points="286,-93 143,-93 143,-74 286,-74 286,-93"/>
<text text-anchor="middle" x="214.5" y="-81" font-family="Helvetica,sans-Serif" font-size="10.00">top_children::top_children</text>
</a>
</g>
</g>
<!-- Node1&#45;&gt;Node2 -->
<g id="edge1_Node000001_Node000002" class="edge">
<title>Node1&#45;&gt;Node2</title>
<g id="a_edge1_Node000001_Node000002"><a xlink:title=" ">
<path fill="none" stroke="#63b8ff" d="M107,-83.5C115.26,-83.5 123.96,-83.5 132.68,-83.5"/>
<polygon fill="#63b8ff" stroke="#63b8ff" points="132.9,-87 142.9,-83.5 132.9,-80 132.9,-87"/>
</a>
</g>
</g>
<!-- Node3 -->
<g id="Node000003" class="node">
<title>Node3</title>
<g id="a_Node000003"><a xlink:href="classparticle__template.html#a7fda73e06360bffd1bce45e7ba7370a5" target="_top" xlink:title="Adds a leaf (variable) to read for this particle.">
<polygon fill="white" stroke="#666666" points="450,-189.5 341,-189.5 341,-159.5 450,-159.5 450,-189.5"/>
<text text-anchor="start" x="349" y="-177.5" font-family="Helvetica,sans-Serif" font-size="10.00">particle_template::</text>
<text text-anchor="middle" x="395.5" y="-166.5" font-family="Helvetica,sans-Serif" font-size="10.00">add_leaf</text>
</a>
</g>
</g>
<!-- Node2&#45;&gt;Node3 -->
<g id="edge2_Node000002_Node000003" class="edge">
<title>Node2&#45;&gt;Node3</title>
<g id="a_edge2_Node000002_Node000003"><a xlink:title=" ">
<path fill="none" stroke="#63b8ff" d="M228.36,-93.04C247.81,-107.13 286.24,-133.64 322,-150.5 325.85,-152.31 329.86,-154.05 333.95,-155.7"/>
<polygon fill="#63b8ff" stroke="#63b8ff" points="332.98,-159.07 343.57,-159.38 335.49,-152.54 332.98,-159.07"/>
</a>
</g>
</g>
<!-- Node4 -->
<g id="Node000004" class="node">
<title>Node4</title>
<g id="a_Node000004"><a xlink:href="classparticle__template.html#a83757e8eb32e382a8c0444ede5dda548" target="_top" xlink:title="Applies the particle type as a prefix to leaf names.">
<polygon fill="white" stroke="#666666" points="450,-141.5 341,-141.5 341,-111.5 450,-111.5 450,-141.5"/>
<text text-anchor="start" x="349" y="-129.5" font-family="Helvetica,sans-Serif" font-size="10.00">particle_template::</text>
<text text-anchor="middle" x="395.5" y="-118.5" font-family="Helvetica,sans-Serif" font-size="10.00">apply_type_prefix</text>
</a>
</g>
</g>
<!-- Node2&#45;&gt;Node4 -->
<g id="edge3_Node000002_Node000004" class="edge">
<title>Node2&#45;&gt;Node4</title>
<g id="a_edge3_Node000002_Node000004"><a xlink:title=" ">
<path fill="none" stroke="#63b8ff" d="M255.23,-93.04C277.5,-98.39 305.81,-105.2 331.08,-111.27"/>
<polygon fill="#63b8ff" stroke="#63b8ff" points="330.42,-114.71 340.96,-113.64 332.06,-107.9 330.42,-114.71"/>
</a>
</g>
</g>
<!-- Node5 -->
<g id="Node000005" class="node">
<title>Node5</title>
<g id="a_Node000005"><a xlink:href="classtop__children.html#aa7e6d839a6df11052aae8869468c12e0" target="_top" xlink:title=" ">
<polygon fill="white" stroke="#666666" points="469,-93 322,-93 322,-74 469,-74 469,-93"/>
<text text-anchor="middle" x="395.5" y="-81" font-family="Helvetica,sans-Serif" font-size="10.00">top_children::get_from_res</text>
</a>
</g>
</g>
<!-- Node2&#45;&gt;Node5 -->
<g id="edge4_Node000002_Node000005" class="edge">
<title>Node2&#45;&gt;Node5</title>
<g id="a_edge4_Node000002_Node000005"><a xlink:title=" ">
<path fill="none" stroke="#63b8ff" d="M286.25,-83.5C294.67,-83.5 303.33,-83.5 311.91,-83.5"/>
<polygon fill="#63b8ff" stroke="#63b8ff" points="311.92,-87 321.92,-83.5 311.92,-80 311.92,-87"/>
</a>
</g>
</g>
<!-- Node6 -->
<g id="Node000006" class="node">
<title>Node6</title>
<g id="a_Node000006"><a xlink:href="classcproperty.html#a31b26b5ffb20bbf8d8ee38e0755a9819" target="_top" xlink:title="Sets the getter callback function.">
<polygon fill="white" stroke="#666666" points="454.5,-56 336.5,-56 336.5,-37 454.5,-37 454.5,-56"/>
<text text-anchor="middle" x="395.5" y="-44" font-family="Helvetica,sans-Serif" font-size="10.00">cproperty::set_getter</text>
</a>
</g>
</g>
<!-- Node2&#45;&gt;Node6 -->
<g id="edge5_Node000002_Node000006" class="edge">
<title>Node2&#45;&gt;Node6</title>
<g id="a_edge5_Node000002_Node000006"><a xlink:title=" ">
<path fill="none" stroke="#63b8ff" d="M261.6,-73.97C285,-69.14 313.62,-63.22 338.3,-58.12"/>
<polygon fill="#63b8ff" stroke="#63b8ff" points="339.16,-61.51 348.25,-56.06 337.75,-54.66 339.16,-61.51"/>
</a>
</g>
</g>
<!-- Node7 -->
<g id="Node000007" class="node">
<title>Node7</title>
<g id="a_Node000007"><a xlink:href="classcproperty.html#a41a70e8e01c9b1a20b94d2dbf1a6b214" target="_top" xlink:title="Sets the owning object for callback invocation.">
<polygon fill="white" stroke="#666666" points="455,-19 336,-19 336,0 455,0 455,-19"/>
<text text-anchor="middle" x="395.5" y="-7" font-family="Helvetica,sans-Serif" font-size="10.00">cproperty::set_object</text>
</a>
</g>
</g>
<!-- Node2&#45;&gt;Node7 -->
<g id="edge6_Node000002_Node000007" class="edge">
<title>Node2&#45;&gt;Node7</title>
<g id="a_edge6_Node000002_Node000007"><a xlink:title=" ">
<path fill="none" stroke="#63b8ff" d="M231.23,-73.97C251.57,-61.98 288.39,-41.4 322,-28.5 328.37,-26.06 335.16,-23.82 341.95,-21.8"/>
<polygon fill="#63b8ff" stroke="#63b8ff" points="343.16,-25.1 351.83,-19.01 341.26,-18.36 343.16,-25.1"/>
</a>
</g>
</g>
</g>
</svg>
</svg>

<style type='text/css'>
<![CDATA[
[data-mouse-over-selected='false'] { opacity: 0.7; }
[data-mouse-over-selected='true']  { opacity: 1.0; }
]]>
</style>
<script type="application/ecmascript"><![CDATA[
document.addEventListener('DOMContentLoaded', (event) => {
  highlightEdges();
  highlightAdjacentNodes();
});
]]></script>
</svg>
