<?xml version="1.0" encoding="UTF-8" standalone="no"?>
<!DOCTYPE svg PUBLIC "-//W3C//DTD SVG 1.1//EN"
 "http://www.w3.org/Graphics/SVG/1.1/DTD/svg11.dtd">
<!-- Generated by graphviz version 2.43.0 (0)
 -->
<!-- Title: grift Pages: 1 -->
<svg width="262pt" height="1142pt"
 viewBox="0.00 0.00 262.00 1142.00" xmlns="http://www.w3.org/2000/svg" xmlns:xlink="http://www.w3.org/1999/xlink">
<g id="graph0" class="graph" transform="scale(1 1) rotate(0) translate(4 1138)">
<title>grift</title>
<!-- Node1 -->
<g id="Node000001" class="node">
<title>Node1</title>
<g id="a_Node000001"><a xlink:title=" ">
<polygon fill="#999999" stroke="transparent" points="160,-259 74,-259 74,0 160,0 160,-259"/>
<text text-anchor="start" x="107" y="-246.5" font-family="Helvetica,sans-Serif" font-size="10.00">grift</text>
<text text-anchor="start" x="78" y="-231.5" font-family="Helvetica,sans-Serif" font-size="10.00">+</text>
<text text-anchor="start" x="91" y="-231.5" font-family="Helvetica,sans-Serif" font-size="10.00">_hidden</text>
<text text-anchor="start" x="78" y="-216.5" font-family="Helvetica,sans-Serif" font-size="10.00">+</text>
<text text-anchor="start" x="91" y="-216.5" font-family="Helvetica,sans-Serif" font-size="10.00">_xrec</text>
<text text-anchor="start" x="78" y="-201.5" font-family="Helvetica,sans-Serif" font-size="10.00">+</text>
<text text-anchor="start" x="91" y="-201.5" font-family="Helvetica,sans-Serif" font-size="10.00">_xin</text>
<text text-anchor="start" x="78" y="-186.5" font-family="Helvetica,sans-Serif" font-size="10.00">+</text>
<text text-anchor="start" x="91" y="-186.5" font-family="Helvetica,sans-Serif" font-size="10.00">_xout</text>
<text text-anchor="start" x="78" y="-171.5" font-family="Helvetica,sans-Serif" font-size="10.00">+</text>
<text text-anchor="start" x="91" y="-171.5" font-family="Helvetica,sans-Serif" font-size="10.00">_xtop</text>
<text text-anchor="start" x="78" y="-156.5" font-family="Helvetica,sans-Serif" font-size="10.00">+</text>
<text text-anchor="start" x="91" y="-156.5" font-family="Helvetica,sans-Serif" font-size="10.00">drop_out</text>
<text text-anchor="start" x="78" y="-141.5" font-family="Helvetica,sans-Serif" font-size="10.00">+</text>
<text text-anchor="start" x="91" y="-141.5" font-family="Helvetica,sans-Serif" font-size="10.00">is_mc</text>
<text text-anchor="start" x="78" y="-126.5" font-family="Helvetica,sans-Serif" font-size="10.00">+</text>
<text text-anchor="start" x="91" y="-126.5" font-family="Helvetica,sans-Serif" font-size="10.00">init</text>
<text text-anchor="start" x="78" y="-111.5" font-family="Helvetica,sans-Serif" font-size="10.00">+</text>
<text text-anchor="start" x="91" y="-111.5" font-family="Helvetica,sans-Serif" font-size="10.00">pagerank</text>
<text text-anchor="start" x="78" y="-96.5" font-family="Helvetica,sans-Serif" font-size="10.00">+</text>
<text text-anchor="start" x="91" y="-96.5" font-family="Helvetica,sans-Serif" font-size="10.00">rnn_x</text>
<text text-anchor="start" x="91" y="-81.5" font-family="Helvetica,sans-Serif" font-size="10.00">and 9 more...</text>
<text text-anchor="start" x="78" y="-66.5" font-family="Helvetica,sans-Serif" font-size="10.00">+</text>
<text text-anchor="start" x="91" y="-66.5" font-family="Helvetica,sans-Serif" font-size="10.00">grift()</text>
<text text-anchor="start" x="78" y="-51.5" font-family="Helvetica,sans-Serif" font-size="10.00">+</text>
<text text-anchor="start" x="91" y="-51.5" font-family="Helvetica,sans-Serif" font-size="10.00">~grift()</text>
<text text-anchor="start" x="78" y="-36.5" font-family="Helvetica,sans-Serif" font-size="10.00">+</text>
<text text-anchor="start" x="91" y="-36.5" font-family="Helvetica,sans-Serif" font-size="10.00">clone()</text>
<text text-anchor="start" x="78" y="-21.5" font-family="Helvetica,sans-Serif" font-size="10.00">+</text>
<text text-anchor="start" x="91" y="-21.5" font-family="Helvetica,sans-Serif" font-size="10.00">forward()</text>
<text text-anchor="start" x="78" y="-6.5" font-family="Helvetica,sans-Serif" font-size="10.00">+</text>
<text text-anchor="start" x="91" y="-6.5" font-family="Helvetica,sans-Serif" font-size="10.00">message()</text>
<polygon fill="#666666" stroke="#666666" points="74,-241.5 74,-241.5 160,-241.5 160,-241.5 74,-241.5"/>
<polygon fill="#666666" stroke="#666666" points="74,-76.5 74,-76.5 89,-76.5 89,-76.5 74,-76.5"/>
<polygon fill="#666666" stroke="#666666" points="89,-76.5 89,-76.5 160,-76.5 160,-76.5 89,-76.5"/>
<polygon fill="none" stroke="#666666" points="74,0 74,-259 160,-259 160,0 74,0"/>
</a>
</g>
</g>
<!-- Node2 -->
<g id="Node000002" class="node">
<title>Node2</title>
<g id="a_Node000002"><a xlink:href="classmodel__template.html" target="_top" xlink:title="End of include guard for MODEL_TEMPLATE_H.">
<polygon fill="white" stroke="transparent" points="180.5,-749 53.5,-749 53.5,-295 180.5,-295 180.5,-749"/>
<text text-anchor="start" x="77" y="-737" font-family="Helvetica,sans-Serif" font-size="10.00">model_template</text>
<text text-anchor="start" x="58" y="-722" font-family="Helvetica,sans-Serif" font-size="10.00">+</text>
<text text-anchor="start" x="71" y="-722" font-family="Helvetica,sans-Serif" font-size="10.00">name</text>
<text text-anchor="start" x="58" y="-707" font-family="Helvetica,sans-Serif" font-size="10.00">+</text>
<text text-anchor="start" x="71" y="-707" font-family="Helvetica,sans-Serif" font-size="10.00">device</text>
<text text-anchor="start" x="58" y="-692" font-family="Helvetica,sans-Serif" font-size="10.00">+</text>
<text text-anchor="start" x="71" y="-692" font-family="Helvetica,sans-Serif" font-size="10.00">device_index</text>
<text text-anchor="start" x="58" y="-677" font-family="Helvetica,sans-Serif" font-size="10.00">+</text>
<text text-anchor="start" x="71" y="-677" font-family="Helvetica,sans-Serif" font-size="10.00">i_graph</text>
<text text-anchor="start" x="58" y="-662" font-family="Helvetica,sans-Serif" font-size="10.00">+</text>
<text text-anchor="start" x="71" y="-662" font-family="Helvetica,sans-Serif" font-size="10.00">i_node</text>
<text text-anchor="start" x="58" y="-647" font-family="Helvetica,sans-Serif" font-size="10.00">+</text>
<text text-anchor="start" x="71" y="-647" font-family="Helvetica,sans-Serif" font-size="10.00">i_edge</text>
<text text-anchor="start" x="58" y="-632" font-family="Helvetica,sans-Serif" font-size="10.00">+</text>
<text text-anchor="start" x="71" y="-632" font-family="Helvetica,sans-Serif" font-size="10.00">o_graph</text>
<text text-anchor="start" x="58" y="-617" font-family="Helvetica,sans-Serif" font-size="10.00">+</text>
<text text-anchor="start" x="71" y="-617" font-family="Helvetica,sans-Serif" font-size="10.00">o_node</text>
<text text-anchor="start" x="58" y="-602" font-family="Helvetica,sans-Serif" font-size="10.00">+</text>
<text text-anchor="start" x="71" y="-602" font-family="Helvetica,sans-Serif" font-size="10.00">o_edge</text>
<text text-anchor="start" x="58" y="-587" font-family="Helvetica,sans-Serif" font-size="10.00">+</text>
<text text-anchor="start" x="71" y="-587" font-family="Helvetica,sans-Serif" font-size="10.00">m_i_graph</text>
<text text-anchor="start" x="71" y="-572" font-family="Helvetica,sans-Serif" font-size="10.00">and 9 more...</text>
<text text-anchor="start" x="58" y="-557" font-family="Helvetica,sans-Serif" font-size="10.00">+</text>
<text text-anchor="start" x="71" y="-557" font-family="Helvetica,sans-Serif" font-size="10.00">model_template()</text>
<text text-anchor="start" x="58" y="-542" font-family="Helvetica,sans-Serif" font-size="10.00">+</text>
<text text-anchor="start" x="71" y="-542" font-family="Helvetica,sans-Serif" font-size="10.00">~model_template()</text>
<text text-anchor="start" x="58" y="-527" font-family="Helvetica,sans-Serif" font-size="10.00">+</text>
<text text-anchor="start" x="71" y="-527" font-family="Helvetica,sans-Serif" font-size="10.00">clone()</text>
<text text-anchor="start" x="58" y="-512" font-family="Helvetica,sans-Serif" font-size="10.00">+</text>
<text text-anchor="start" x="71" y="-512" font-family="Helvetica,sans-Serif" font-size="10.00">register_module()</text>
<text text-anchor="start" x="58" y="-497" font-family="Helvetica,sans-Serif" font-size="10.00">+</text>
<text text-anchor="start" x="71" y="-497" font-family="Helvetica,sans-Serif" font-size="10.00">register_module()</text>
<text text-anchor="start" x="58" y="-482" font-family="Helvetica,sans-Serif" font-size="10.00">+</text>
<text text-anchor="start" x="71" y="-482" font-family="Helvetica,sans-Serif" font-size="10.00">forward()</text>
<text text-anchor="start" x="58" y="-467" font-family="Helvetica,sans-Serif" font-size="10.00">+</text>
<text text-anchor="start" x="71" y="-467" font-family="Helvetica,sans-Serif" font-size="10.00">forward()</text>
<text text-anchor="start" x="58" y="-452" font-family="Helvetica,sans-Serif" font-size="10.00">+</text>
<text text-anchor="start" x="71" y="-452" font-family="Helvetica,sans-Serif" font-size="10.00">forward()</text>
<text text-anchor="start" x="58" y="-437" font-family="Helvetica,sans-Serif" font-size="10.00">+</text>
<text text-anchor="start" x="71" y="-437" font-family="Helvetica,sans-Serif" font-size="10.00">assign_features()</text>
<text text-anchor="start" x="58" y="-422" font-family="Helvetica,sans-Serif" font-size="10.00">+</text>
<text text-anchor="start" x="71" y="-422" font-family="Helvetica,sans-Serif" font-size="10.00">assign_features()</text>
<text text-anchor="start" x="58" y="-407" font-family="Helvetica,sans-Serif" font-size="10.00">+</text>
<text text-anchor="start" x="71" y="-407" font-family="Helvetica,sans-Serif" font-size="10.00">flush_outputs()</text>
<text text-anchor="start" x="58" y="-392" font-family="Helvetica,sans-Serif" font-size="10.00">+</text>
<text text-anchor="start" x="71" y="-392" font-family="Helvetica,sans-Serif" font-size="10.00">set_name()</text>
<text text-anchor="start" x="58" y="-377" font-family="Helvetica,sans-Serif" font-size="10.00">+</text>
<text text-anchor="start" x="71" y="-377" font-family="Helvetica,sans-Serif" font-size="10.00">get_name()</text>
<text text-anchor="start" x="58" y="-362" font-family="Helvetica,sans-Serif" font-size="10.00">+</text>
<text text-anchor="start" x="71" y="-362" font-family="Helvetica,sans-Serif" font-size="10.00">set_device()</text>
<text text-anchor="start" x="58" y="-347" font-family="Helvetica,sans-Serif" font-size="10.00">+</text>
<text text-anchor="start" x="71" y="-347" font-family="Helvetica,sans-Serif" font-size="10.00">set_dev_index()</text>
<text text-anchor="start" x="58" y="-332" font-family="Helvetica,sans-Serif" font-size="10.00">+</text>
<text text-anchor="start" x="71" y="-332" font-family="Helvetica,sans-Serif" font-size="10.00">get_dev_index()</text>
<text text-anchor="start" x="58" y="-317" font-family="Helvetica,sans-Serif" font-size="10.00">+</text>
<text text-anchor="start" x="71" y="-317" font-family="Helvetica,sans-Serif" font-size="10.00">set_input_features()</text>
<text text-anchor="start" x="58" y="-302" font-family="Helvetica,sans-Serif" font-size="10.00">+</text>
<text text-anchor="start" x="71" y="-302" font-family="Helvetica,sans-Serif" font-size="10.00">set_output_features()</text>
<polygon fill="#666666" stroke="#666666" points="54,-732 54,-732 181,-732 181,-732 54,-732"/>
<polygon fill="#666666" stroke="#666666" points="54,-567 54,-567 69,-567 69,-567 54,-567"/>
<polygon fill="#666666" stroke="#666666" points="69,-567 69,-567 181,-567 181,-567 69,-567"/>
<polygon fill="none" stroke="#666666" points="53.5,-295 53.5,-749 180.5,-749 180.5,-295 53.5,-295"/>
</a>
</g>
</g>
<!-- Node2&#45;&gt;Node1 -->
<g id="edge1_Node000001_Node000002" class="edge">
<title>Node2&#45;&gt;Node1</title>
<g id="a_edge1_Node000001_Node000002"><a xlink:title=" ">
<path fill="none" stroke="#63b8ff" d="M117,-284.77C117,-276.12 117,-267.58 117,-259.23"/>
<polygon fill="none" stroke="#63b8ff" points="113.5,-284.98 117,-294.98 120.5,-284.98 113.5,-284.98"/>
</a>
</g>
</g>
<!-- Node3 -->
<g id="Node000003" class="node">
<title>Node3</title>
<g id="a_Node000003"><a xlink:href="classtools.html" target="_top" xlink:title="Provides a wide range of utility functions used throughout the framework.">
<polygon fill="white" stroke="transparent" points="98,-1134 0,-1134 0,-785 98,-785 98,-1134"/>
<text text-anchor="start" x="36.5" y="-1121.5" font-family="Helvetica,sans-Serif" font-size="10.00">tools</text>
<text text-anchor="start" x="47" y="-1106.5" font-family="Helvetica,sans-Serif" font-size="10.00"> </text>
<text text-anchor="start" x="4" y="-1091.5" font-family="Helvetica,sans-Serif" font-size="10.00">+</text>
<text text-anchor="start" x="17" y="-1091.5" font-family="Helvetica,sans-Serif" font-size="10.00">tools()</text>
<text text-anchor="start" x="4" y="-1076.5" font-family="Helvetica,sans-Serif" font-size="10.00">+</text>
<text text-anchor="start" x="17" y="-1076.5" font-family="Helvetica,sans-Serif" font-size="10.00">~tools()</text>
<text text-anchor="start" x="4" y="-1061.5" font-family="Helvetica,sans-Serif" font-size="10.00">+</text>
<text text-anchor="start" x="17" y="-1061.5" font-family="Helvetica,sans-Serif" font-size="10.00">split()</text>
<text text-anchor="start" x="4" y="-1046.5" font-family="Helvetica,sans-Serif" font-size="10.00">+</text>
<text text-anchor="start" x="17" y="-1046.5" font-family="Helvetica,sans-Serif" font-size="10.00">trim()</text>
<text text-anchor="start" x="4" y="-1031.5" font-family="Helvetica,sans-Serif" font-size="10.00">+</text>
<text text-anchor="start" x="17" y="-1031.5" font-family="Helvetica,sans-Serif" font-size="10.00">type_name()</text>
<text text-anchor="start" x="4" y="-1016.5" font-family="Helvetica,sans-Serif" font-size="10.00">+</text>
<text text-anchor="start" x="17" y="-1016.5" font-family="Helvetica,sans-Serif" font-size="10.00">sum()</text>
<text text-anchor="start" x="4" y="-1001.5" font-family="Helvetica,sans-Serif" font-size="10.00">+</text>
<text text-anchor="start" x="17" y="-1001.5" font-family="Helvetica,sans-Serif" font-size="10.00">create_path()</text>
<text text-anchor="start" x="4" y="-986.5" font-family="Helvetica,sans-Serif" font-size="10.00">+</text>
<text text-anchor="start" x="17" y="-986.5" font-family="Helvetica,sans-Serif" font-size="10.00">delete_path()</text>
<text text-anchor="start" x="4" y="-971.5" font-family="Helvetica,sans-Serif" font-size="10.00">+</text>
<text text-anchor="start" x="17" y="-971.5" font-family="Helvetica,sans-Serif" font-size="10.00">is_file()</text>
<text text-anchor="start" x="4" y="-956.5" font-family="Helvetica,sans-Serif" font-size="10.00">+</text>
<text text-anchor="start" x="17" y="-956.5" font-family="Helvetica,sans-Serif" font-size="10.00">rename()</text>
<text text-anchor="start" x="4" y="-941.5" font-family="Helvetica,sans-Serif" font-size="10.00">+</text>
<text text-anchor="start" x="17" y="-941.5" font-family="Helvetica,sans-Serif" font-size="10.00">absolute_path()</text>
<text text-anchor="start" x="4" y="-926.5" font-family="Helvetica,sans-Serif" font-size="10.00">+</text>
<text text-anchor="start" x="17" y="-926.5" font-family="Helvetica,sans-Serif" font-size="10.00">ls()</text>
<text text-anchor="start" x="4" y="-911.5" font-family="Helvetica,sans-Serif" font-size="10.00">+</text>
<text text-anchor="start" x="17" y="-911.5" font-family="Helvetica,sans-Serif" font-size="10.00">to_string()</text>
<text text-anchor="start" x="4" y="-896.5" font-family="Helvetica,sans-Serif" font-size="10.00">+</text>
<text text-anchor="start" x="17" y="-896.5" font-family="Helvetica,sans-Serif" font-size="10.00">to_string()</text>
<text text-anchor="start" x="4" y="-881.5" font-family="Helvetica,sans-Serif" font-size="10.00">+</text>
<text text-anchor="start" x="17" y="-881.5" font-family="Helvetica,sans-Serif" font-size="10.00">replace()</text>
<text text-anchor="start" x="4" y="-866.5" font-family="Helvetica,sans-Serif" font-size="10.00">+</text>
<text text-anchor="start" x="17" y="-866.5" font-family="Helvetica,sans-Serif" font-size="10.00">has_string()</text>
<text text-anchor="start" x="4" y="-851.5" font-family="Helvetica,sans-Serif" font-size="10.00">+</text>
<text text-anchor="start" x="17" y="-851.5" font-family="Helvetica,sans-Serif" font-size="10.00">ends_with()</text>
<text text-anchor="start" x="4" y="-836.5" font-family="Helvetica,sans-Serif" font-size="10.00">+</text>
<text text-anchor="start" x="17" y="-836.5" font-family="Helvetica,sans-Serif" font-size="10.00">has_value()</text>
<text text-anchor="start" x="4" y="-821.5" font-family="Helvetica,sans-Serif" font-size="10.00">+</text>
<text text-anchor="start" x="17" y="-821.5" font-family="Helvetica,sans-Serif" font-size="10.00">flush()</text>
<text text-anchor="start" x="4" y="-806.5" font-family="Helvetica,sans-Serif" font-size="10.00">+</text>
<text text-anchor="start" x="17" y="-806.5" font-family="Helvetica,sans-Serif" font-size="10.00">put()</text>
<text text-anchor="start" x="4" y="-791.5" font-family="Helvetica,sans-Serif" font-size="10.00">+</text>
<text text-anchor="start" x="17" y="-791.5" font-family="Helvetica,sans-Serif" font-size="10.00">extract()</text>
<polygon fill="#666666" stroke="#666666" points="0,-1116.5 0,-1116.5 98,-1116.5 98,-1116.5 0,-1116.5"/>
<polygon fill="#666666" stroke="#666666" points="0,-1101.5 0,-1101.5 98,-1101.5 98,-1101.5 0,-1101.5"/>
<polygon fill="none" stroke="#666666" points="0,-785 0,-1134 98,-1134 98,-785 0,-785"/>
</a>
</g>
</g>
<!-- Node3&#45;&gt;Node2 -->
<g id="edge2_Node000002_Node000003" class="edge">
<title>Node3&#45;&gt;Node2</title>
<g id="a_edge2_Node000002_Node000003"><a xlink:title=" ">
<path fill="none" stroke="#63b8ff" d="M77.67,-774.87C79,-766.38 80.34,-757.81 81.68,-749.22"/>
<polygon fill="none" stroke="#63b8ff" points="74.2,-774.39 76.12,-784.81 81.12,-775.47 74.2,-774.39"/>
</a>
</g>
</g>
<!-- Node4 -->
<g id="Node000004" class="node">
<title>Node4</title>
<g id="a_Node000004"><a xlink:href="classnotification.html" target="_top" xlink:title="Provides logging and messaging functionality with various severity levels.">
<polygon fill="white" stroke="transparent" points="254,-1111.5 116,-1111.5 116,-807.5 254,-807.5 254,-1111.5"/>
<text text-anchor="start" x="157.5" y="-1099.5" font-family="Helvetica,sans-Serif" font-size="10.00">notification</text>
<text text-anchor="start" x="120" y="-1084.5" font-family="Helvetica,sans-Serif" font-size="10.00">#</text>
<text text-anchor="start" x="133" y="-1084.5" font-family="Helvetica,sans-Serif" font-size="10.00">prefix</text>
<text text-anchor="start" x="120" y="-1069.5" font-family="Helvetica,sans-Serif" font-size="10.00">#</text>
<text text-anchor="start" x="133" y="-1069.5" font-family="Helvetica,sans-Serif" font-size="10.00">debug_mode</text>
<text text-anchor="start" x="120" y="-1054.5" font-family="Helvetica,sans-Serif" font-size="10.00">#</text>
<text text-anchor="start" x="133" y="-1054.5" font-family="Helvetica,sans-Serif" font-size="10.00">suppress_warnings</text>
<text text-anchor="start" x="120" y="-1039.5" font-family="Helvetica,sans-Serif" font-size="10.00">#</text>
<text text-anchor="start" x="133" y="-1039.5" font-family="Helvetica,sans-Serif" font-size="10.00">suppress_info</text>
<text text-anchor="start" x="120" y="-1024.5" font-family="Helvetica,sans-Serif" font-size="10.00">+</text>
<text text-anchor="start" x="133" y="-1024.5" font-family="Helvetica,sans-Serif" font-size="10.00">notification()</text>
<text text-anchor="start" x="120" y="-1009.5" font-family="Helvetica,sans-Serif" font-size="10.00">+</text>
<text text-anchor="start" x="133" y="-1009.5" font-family="Helvetica,sans-Serif" font-size="10.00">~notification()</text>
<text text-anchor="start" x="120" y="-994.5" font-family="Helvetica,sans-Serif" font-size="10.00">+</text>
<text text-anchor="start" x="133" y="-994.5" font-family="Helvetica,sans-Serif" font-size="10.00">set_prefix()</text>
<text text-anchor="start" x="120" y="-979.5" font-family="Helvetica,sans-Serif" font-size="10.00">+</text>
<text text-anchor="start" x="133" y="-979.5" font-family="Helvetica,sans-Serif" font-size="10.00">get_prefix()</text>
<text text-anchor="start" x="120" y="-964.5" font-family="Helvetica,sans-Serif" font-size="10.00">+</text>
<text text-anchor="start" x="133" y="-964.5" font-family="Helvetica,sans-Serif" font-size="10.00">Info()</text>
<text text-anchor="start" x="120" y="-949.5" font-family="Helvetica,sans-Serif" font-size="10.00">+</text>
<text text-anchor="start" x="133" y="-949.5" font-family="Helvetica,sans-Serif" font-size="10.00">Warning()</text>
<text text-anchor="start" x="120" y="-934.5" font-family="Helvetica,sans-Serif" font-size="10.00">+</text>
<text text-anchor="start" x="133" y="-934.5" font-family="Helvetica,sans-Serif" font-size="10.00">Error()</text>
<text text-anchor="start" x="120" y="-919.5" font-family="Helvetica,sans-Serif" font-size="10.00">+</text>
<text text-anchor="start" x="133" y="-919.5" font-family="Helvetica,sans-Serif" font-size="10.00">Debug()</text>
<text text-anchor="start" x="120" y="-904.5" font-family="Helvetica,sans-Serif" font-size="10.00">+</text>
<text text-anchor="start" x="133" y="-904.5" font-family="Helvetica,sans-Serif" font-size="10.00">Message()</text>
<text text-anchor="start" x="120" y="-889.5" font-family="Helvetica,sans-Serif" font-size="10.00">+</text>
<text text-anchor="start" x="133" y="-889.5" font-family="Helvetica,sans-Serif" font-size="10.00">set_debug_mode()</text>
<text text-anchor="start" x="120" y="-874.5" font-family="Helvetica,sans-Serif" font-size="10.00">+</text>
<text text-anchor="start" x="133" y="-874.5" font-family="Helvetica,sans-Serif" font-size="10.00">get_debug_mode()</text>
<text text-anchor="start" x="120" y="-859.5" font-family="Helvetica,sans-Serif" font-size="10.00">+</text>
<text text-anchor="start" x="133" y="-859.5" font-family="Helvetica,sans-Serif" font-size="10.00">set_suppress_warning()</text>
<text text-anchor="start" x="120" y="-844.5" font-family="Helvetica,sans-Serif" font-size="10.00">+</text>
<text text-anchor="start" x="133" y="-844.5" font-family="Helvetica,sans-Serif" font-size="10.00">get_suppress_warning()</text>
<text text-anchor="start" x="120" y="-829.5" font-family="Helvetica,sans-Serif" font-size="10.00">+</text>
<text text-anchor="start" x="133" y="-829.5" font-family="Helvetica,sans-Serif" font-size="10.00">set_suppress_info()</text>
<text text-anchor="start" x="120" y="-814.5" font-family="Helvetica,sans-Serif" font-size="10.00">+</text>
<text text-anchor="start" x="133" y="-814.5" font-family="Helvetica,sans-Serif" font-size="10.00">get_suppress_info()</text>
<polygon fill="#666666" stroke="#666666" points="116,-1094.5 116,-1094.5 254,-1094.5 254,-1094.5 116,-1094.5"/>
<polygon fill="#666666" stroke="#666666" points="116,-1034.5 116,-1034.5 131,-1034.5 131,-1034.5 116,-1034.5"/>
<polygon fill="#666666" stroke="#666666" points="131,-1034.5 131,-1034.5 254,-1034.5 254,-1034.5 131,-1034.5"/>
<polygon fill="none" stroke="#666666" points="116,-807.5 116,-1111.5 254,-1111.5 254,-807.5 116,-807.5"/>
</a>
</g>
</g>
<!-- Node4&#45;&gt;Node2 -->
<g id="edge3_Node000002_Node000004" class="edge">
<title>Node4&#45;&gt;Node2</title>
<g id="a_edge3_Node000002_Node000004"><a xlink:title=" ">
<path fill="none" stroke="#63b8ff" d="M159.8,-797.14C157.35,-781.42 154.83,-765.28 152.3,-749.08"/>
<polygon fill="none" stroke="#63b8ff" points="156.41,-798.07 161.41,-807.41 163.32,-796.99 156.41,-798.07"/>
</a>
</g>
</g>
</g>
</svg>
