<?xml version="1.0" encoding="UTF-8" standalone="no"?>
<!DOCTYPE svg PUBLIC "-//W3C//DTD SVG 1.1//EN"
 "http://www.w3.org/Graphics/SVG/1.1/DTD/svg11.dtd">
<!-- Generated by graphviz version 2.43.0 (0)
 -->
<!-- Title: validation::merge Pages: 1 -->
<svg width="403pt" height="56pt"
 viewBox="0.00 0.00 403.00 56.00" xmlns="http://www.w3.org/2000/svg" xmlns:xlink="http://www.w3.org/1999/xlink">
<g id="graph0" class="graph" transform="scale(1 1) rotate(0) translate(4 52)">
<title>validation::merge</title>
<!-- Node1 -->
<g id="Node000001" class="node">
<title>Node1</title>
<g id="a_Node000001"><a xlink:title="Merges results from another selection.">
<polygon fill="#999999" stroke="#666666" points="103,-24.5 0,-24.5 0,-5.5 103,-5.5 103,-24.5"/>
<text text-anchor="middle" x="51.5" y="-12.5" font-family="Helvetica,sans-Serif" font-size="10.00">validation::merge</text>
</a>
</g>
</g>
<!-- Node2 -->
<g id="Node000002" class="node">
<title>Node2</title>
<g id="a_Node000002"><a xlink:href="classselection__template.html#ae5606e994231fae57abe42e4f0ec6202" target="_top" xlink:title="Writes a particle collection to output.">
<polygon fill="white" stroke="#666666" points="249,-30 139,-30 139,0 249,0 249,-30"/>
<text text-anchor="start" x="147" y="-18" font-family="Helvetica,sans-Serif" font-size="10.00">selection_template</text>
<text text-anchor="middle" x="194" y="-7" font-family="Helvetica,sans-Serif" font-size="10.00">::write</text>
</a>
</g>
</g>
<!-- Node1&#45;&gt;Node2 -->
<g id="edge1_Node000001_Node000002" class="edge">
<title>Node1&#45;&gt;Node2</title>
<g id="a_edge1_Node000001_Node000002"><a xlink:title=" ">
<path fill="none" stroke="#63b8ff" d="M103.22,-15C111.38,-15 119.92,-15 128.35,-15"/>
<polygon fill="#63b8ff" stroke="#63b8ff" points="128.55,-18.5 138.55,-15 128.55,-11.5 128.55,-18.5"/>
</a>
</g>
</g>
<!-- Node2&#45;&gt;Node2 -->
<g id="edge4_Node000002_Node000002" class="edge">
<title>Node2&#45;&gt;Node2</title>
<g id="a_edge4_Node000002_Node000002"><a xlink:title=" ">
<path fill="none" stroke="#63b8ff" d="M169.04,-30.28C163.49,-39.41 171.81,-48 194,-48 207.17,-48 215.46,-44.97 218.86,-40.6"/>
<polygon fill="#63b8ff" stroke="#63b8ff" points="222.36,-40.31 218.96,-30.28 215.36,-40.24 222.36,-40.31"/>
</a>
</g>
</g>
<!-- Node3 -->
<g id="Node000003" class="node">
<title>Node3</title>
<g id="a_Node000003"><a xlink:href="classselection__template.html#a81497ddb8a1a46c8d4e715cf9733ef61" target="_top" xlink:title="Switch board for dispatching particle attributes.">
<polygon fill="white" stroke="#666666" points="395,-30 285,-30 285,0 395,0 395,-30"/>
<text text-anchor="start" x="293" y="-18" font-family="Helvetica,sans-Serif" font-size="10.00">selection_template</text>
<text text-anchor="middle" x="340" y="-7" font-family="Helvetica,sans-Serif" font-size="10.00">::switch_board</text>
</a>
</g>
</g>
<!-- Node2&#45;&gt;Node3 -->
<g id="edge2_Node000002_Node000003" class="edge">
<title>Node2&#45;&gt;Node3</title>
<g id="a_edge2_Node000002_Node000003"><a xlink:title=" ">
<path fill="none" stroke="#63b8ff" d="M249.03,-15C257.31,-15 265.94,-15 274.42,-15"/>
<polygon fill="#63b8ff" stroke="#63b8ff" points="274.67,-18.5 284.67,-15 274.67,-11.5 274.67,-18.5"/>
</a>
</g>
</g>
<!-- Node3&#45;&gt;Node3 -->
<g id="edge3_Node000003_Node000003" class="edge">
<title>Node3&#45;&gt;Node3</title>
<g id="a_edge3_Node000003_Node000003"><a xlink:title=" ">
<path fill="none" stroke="#63b8ff" d="M314.34,-30.28C308.63,-39.41 317.19,-48 340,-48 353.54,-48 362.06,-44.97 365.56,-40.6"/>
<polygon fill="#63b8ff" stroke="#63b8ff" points="369.06,-40.31 365.66,-30.28 362.06,-40.24 369.06,-40.31"/>
</a>
</g>
</g>
</g>
</svg>
