<?xml version="1.0" encoding="UTF-8" standalone="no"?>
<!DOCTYPE svg PUBLIC "-//W3C//DTD SVG 1.1//EN"
 "http://www.w3.org/Graphics/SVG/1.1/DTD/svg11.dtd">
<!-- Generated by graphviz version 2.43.0 (0)
 -->
<!-- Title: io::H5Read Pages: 1 -->
<svg width="396pt" height="82pt"
 viewBox="0.00 0.00 396.00 82.00" xmlns="http://www.w3.org/2000/svg" xmlns:xlink="http://www.w3.org/1999/xlink">
<g id="graph0" class="graph" transform="scale(1 1) rotate(0) translate(4 78)">
<title>io::H5Read</title>
<!-- Node1 -->
<g id="Node000001" class="node">
<title>Node1</title>
<g id="a_Node000001"><a xlink:title="Generic HDF5 read operation for a vector of objects.">
<polygon fill="#999999" stroke="#666666" points="388,-55 318,-55 318,-36 388,-36 388,-55"/>
<text text-anchor="middle" x="353" y="-43" font-family="Helvetica,sans-Serif" font-size="10.00">io::H5Read</text>
</a>
</g>
</g>
<!-- Node2 -->
<g id="Node000002" class="node">
<title>Node2</title>
<g id="a_Node000002"><a xlink:href="classio.html#a169a51324caf1e4a293a8f3df9741593" target="_top" xlink:title="Templated method to read single event data object from HDF5.">
<polygon fill="white" stroke="#666666" points="282,-74 178,-74 178,-55 282,-55 282,-74"/>
<text text-anchor="middle" x="230" y="-62" font-family="Helvetica,sans-Serif" font-size="10.00">io::read_event_h5</text>
</a>
</g>
</g>
<!-- Node1&#45;&gt;Node2 -->
<g id="edge1_Node000001_Node000002" class="edge">
<title>Node1&#45;&gt;Node2</title>
<g id="a_edge1_Node000001_Node000002"><a xlink:title=" ">
<path fill="none" stroke="#63b8ff" d="M308.08,-52.4C299.74,-53.71 290.94,-55.09 282.4,-56.43"/>
<polygon fill="#63b8ff" stroke="#63b8ff" points="308.64,-55.85 317.97,-50.84 307.55,-48.94 308.64,-55.85"/>
</a>
</g>
</g>
<!-- Node3 -->
<g id="Node000003" class="node">
<title>Node3</title>
<g id="a_Node000003"><a xlink:href="classio.html#a4cdbdd389d60e2ba4759269123381e25" target="_top" xlink:title="Templated method to read event data (vector of objects) from HDF5.">
<polygon fill="white" stroke="#666666" points="282,-37 178,-37 178,-18 282,-18 282,-37"/>
<text text-anchor="middle" x="230" y="-25" font-family="Helvetica,sans-Serif" font-size="10.00">io::read_event_h5</text>
</a>
</g>
</g>
<!-- Node1&#45;&gt;Node3 -->
<g id="edge2_Node000001_Node000003" class="edge">
<title>Node1&#45;&gt;Node3</title>
<g id="a_edge2_Node000001_Node000003"><a xlink:title=" ">
<path fill="none" stroke="#63b8ff" d="M308.08,-38.97C299.74,-37.73 290.94,-36.42 282.4,-35.15"/>
<polygon fill="#63b8ff" stroke="#63b8ff" points="307.57,-42.43 317.97,-40.44 308.6,-35.5 307.57,-42.43"/>
</a>
</g>
</g>
<!-- Node4 -->
<g id="Node000004" class="node">
<title>Node4</title>
<g id="a_Node000004"><a xlink:href="classio.html#ae9363859101b007dedf420f10e437014" target="_top" xlink:title="Templated method to read a single object from a dataset.">
<polygon fill="white" stroke="#666666" points="142,-56 89,-56 89,-37 142,-37 142,-56"/>
<text text-anchor="middle" x="115.5" y="-44" font-family="Helvetica,sans-Serif" font-size="10.00">io::read</text>
</a>
</g>
</g>
<!-- Node3&#45;&gt;Node4 -->
<g id="edge3_Node000003_Node000004" class="edge">
<title>Node3&#45;&gt;Node4</title>
<g id="a_edge3_Node000003_Node000004"><a xlink:title=" ">
<path fill="none" stroke="#63b8ff" d="M167.59,-37.87C158.66,-39.38 149.92,-40.86 142.25,-42.15"/>
<polygon fill="#63b8ff" stroke="#63b8ff" points="168.41,-41.28 177.69,-36.17 167.24,-34.38 168.41,-41.28"/>
</a>
</g>
</g>
<!-- Node5 -->
<g id="Node000005" class="node">
<title>Node5</title>
<g id="a_Node000005"><a xlink:href="classio.html#a2a0214e493a7a2ef5e9507c0e6aa4e70" target="_top" xlink:title="Templated method to read a vector of objects from a dataset.">
<polygon fill="white" stroke="#666666" points="142,-19 89,-19 89,0 142,0 142,-19"/>
<text text-anchor="middle" x="115.5" y="-7" font-family="Helvetica,sans-Serif" font-size="10.00">io::read</text>
</a>
</g>
</g>
<!-- Node3&#45;&gt;Node5 -->
<g id="edge4_Node000003_Node000005" class="edge">
<title>Node3&#45;&gt;Node5</title>
<g id="a_edge4_Node000003_Node000005"><a xlink:title=" ">
<path fill="none" stroke="#63b8ff" d="M167.59,-17.67C158.66,-16.25 149.92,-14.85 142.25,-13.62"/>
<polygon fill="#63b8ff" stroke="#63b8ff" points="167.26,-21.17 177.69,-19.29 168.37,-14.25 167.26,-21.17"/>
</a>
</g>
</g>
<!-- Node6 -->
<g id="Node000006" class="node">
<title>Node6</title>
<g id="a_Node000006"><a xlink:href="classio.html#a4744173c6cc8c89a6145fbfb11c3831e" target="_top" xlink:title="Reads graph data in HDF5 format specifically for graph_hdf5_w struct.">
<polygon fill="white" stroke="#666666" points="53,-19 0,-19 0,0 53,0 53,-19"/>
<text text-anchor="middle" x="26.5" y="-7" font-family="Helvetica,sans-Serif" font-size="10.00">io::read</text>
</a>
</g>
</g>
<!-- Node5&#45;&gt;Node6 -->
<g id="edge5_Node000005_Node000006" class="edge">
<title>Node5&#45;&gt;Node6</title>
<g id="a_edge5_Node000005_Node000006"><a xlink:title=" ">
<path fill="none" stroke="#63b8ff" d="M78.74,-9.5C70.2,-9.5 61.24,-9.5 53.25,-9.5"/>
<polygon fill="#63b8ff" stroke="#63b8ff" points="78.87,-13 88.87,-9.5 78.87,-6 78.87,-13"/>
</a>
</g>
</g>
</g>
</svg>
