<?xml version="1.0" encoding="UTF-8" standalone="no"?>
<!DOCTYPE svg PUBLIC "-//W3C//DTD SVG 1.1//EN"
 "http://www.w3.org/Graphics/SVG/1.1/DTD/svg11.dtd">
<!-- Generated by graphviz version 2.43.0 (0)
 -->
<!-- Title: truthjet::get_from_res Pages: 1 -->
<svg width="383pt" height="27pt"
 viewBox="0.00 0.00 383.00 27.00" xmlns="http://www.w3.org/2000/svg" xmlns:xlink="http://www.w3.org/1999/xlink">
<g id="graph0" class="graph" transform="scale(1 1) rotate(0) translate(4 23)">
<title>truthjet::get_from_res</title>
<!-- Node1 -->
<g id="Node000001" class="node">
<title>Node1</title>
<g id="a_Node000001"><a xlink:title=" ">
<polygon fill="#999999" stroke="#666666" points="375,-19 252,-19 252,0 375,0 375,-19"/>
<text text-anchor="middle" x="313.5" y="-7" font-family="Helvetica,sans-Serif" font-size="10.00">truthjet::get_from_res</text>
</a>
</g>
</g>
<!-- Node2 -->
<g id="Node000002" class="node">
<title>Node2</title>
<g id="a_Node000002"><a xlink:href="classtruthjet.html#ad7c0e9521876a9e5d3a74dfbcd47fdee" target="_top" xlink:title=" ">
<polygon fill="white" stroke="#666666" points="216,-19 121,-19 121,0 216,0 216,-19"/>
<text text-anchor="middle" x="168.5" y="-7" font-family="Helvetica,sans-Serif" font-size="10.00">truthjet::truthjet</text>
</a>
</g>
</g>
<!-- Node1&#45;&gt;Node2 -->
<g id="edge1_Node000001_Node000002" class="edge">
<title>Node1&#45;&gt;Node2</title>
<g id="a_edge1_Node000001_Node000002"><a xlink:title=" ">
<path fill="none" stroke="#63b8ff" d="M241.77,-9.5C233.14,-9.5 224.51,-9.5 216.35,-9.5"/>
<polygon fill="#63b8ff" stroke="#63b8ff" points="241.86,-13 251.86,-9.5 241.86,-6 241.86,-13"/>
</a>
</g>
</g>
<!-- Node3 -->
<g id="Node000003" class="node">
<title>Node3</title>
<g id="a_Node000003"><a xlink:href="classtruthjet.html#a4f20e1e16ba3e64d085530b455250191" target="_top" xlink:title="Creates a clone of this particle.">
<polygon fill="white" stroke="#666666" points="85,-19 0,-19 0,0 85,0 85,-19"/>
<text text-anchor="middle" x="42.5" y="-7" font-family="Helvetica,sans-Serif" font-size="10.00">truthjet::clone</text>
</a>
</g>
</g>
<!-- Node2&#45;&gt;Node3 -->
<g id="edge2_Node000002_Node000003" class="edge">
<title>Node2&#45;&gt;Node3</title>
<g id="a_edge2_Node000002_Node000003"><a xlink:title=" ">
<path fill="none" stroke="#63b8ff" d="M110.97,-9.5C102.36,-9.5 93.61,-9.5 85.38,-9.5"/>
<polygon fill="#63b8ff" stroke="#63b8ff" points="110.97,-13 120.97,-9.5 110.97,-6 110.97,-13"/>
</a>
</g>
</g>
</g>
</svg>
