<?xml version="1.0" encoding="UTF-8" standalone="no"?>
<!DOCTYPE svg PUBLIC "-//W3C//DTD SVG 1.1//EN"
 "http://www.w3.org/Graphics/SVG/1.1/DTD/svg11.dtd">
<!-- Generated by graphviz version 2.43.0 (0)
 -->
<!-- Title: io::get_data Pages: 1 -->
<svg width="451pt" height="222pt"
 viewBox="0.00 0.00 451.00 222.00" xmlns="http://www.w3.org/2000/svg" xmlns:xlink="http://www.w3.org/1999/xlink">
<g id="graph0" class="graph" transform="scale(1 1) rotate(0) translate(4 218)">
<title>io::get_data</title>
<!-- Node1 -->
<g id="Node000001" class="node">
<title>Node1</title>
<g id="a_Node000001"><a xlink:title="Retrieves the data read from ROOT files, likely structured as a map of data_t objects.">
<polygon fill="#999999" stroke="#666666" points="74,-94 0,-94 0,-75 74,-75 74,-94"/>
<text text-anchor="middle" x="37" y="-82" font-family="Helvetica,sans-Serif" font-size="10.00">io::get_data</text>
</a>
</g>
</g>
<!-- Node2 -->
<g id="Node000002" class="node">
<title>Node2</title>
<g id="a_Node000002"><a xlink:href="classio.html#a65c36380ef79524e8235f792abe9625c" target="_top" xlink:title="Initializes ROOT file processing, potentially opening files specified in settings.">
<polygon fill="white" stroke="#666666" points="193,-94 110,-94 110,-75 193,-75 193,-94"/>
<text text-anchor="middle" x="151.5" y="-82" font-family="Helvetica,sans-Serif" font-size="10.00">io::root_begin</text>
</a>
</g>
</g>
<!-- Node1&#45;&gt;Node2 -->
<g id="edge1_Node000001_Node000002" class="edge">
<title>Node1&#45;&gt;Node2</title>
<g id="a_edge1_Node000001_Node000002"><a xlink:title=" ">
<path fill="none" stroke="#63b8ff" d="M74.21,-84.5C82.25,-84.5 90.92,-84.5 99.42,-84.5"/>
<polygon fill="#63b8ff" stroke="#63b8ff" points="99.67,-88 109.67,-84.5 99.67,-81 99.67,-88"/>
</a>
</g>
</g>
<!-- Node3 -->
<g id="Node000003" class="node">
<title>Node3</title>
<g id="a_Node000003"><a xlink:href="structs_2cxx_2base_8cxx.html#a4eee7b291ed2cdcd4e3c2496c603c48c" target="_top" xlink:title="Counts occurrences of a substring in a string.">
<polygon fill="white" stroke="#666666" points="417,-196 373,-196 373,-177 417,-177 417,-196"/>
<text text-anchor="middle" x="395" y="-184" font-family="Helvetica,sans-Serif" font-size="10.00">count</text>
</a>
</g>
</g>
<!-- Node2&#45;&gt;Node3 -->
<g id="edge2_Node000002_Node000003" class="edge">
<title>Node2&#45;&gt;Node3</title>
<g id="a_edge2_Node000002_Node000003"><a xlink:title=" ">
<path fill="none" stroke="#63b8ff" d="M163.04,-94.41C177.06,-107.08 203.09,-128.88 229,-141.5 273.03,-162.95 328.81,-175.44 362.93,-181.61"/>
<polygon fill="#63b8ff" stroke="#63b8ff" points="362.34,-185.06 372.79,-183.33 363.54,-178.16 362.34,-185.06"/>
</a>
</g>
</g>
<!-- Node4 -->
<g id="Node000004" class="node">
<title>Node4</title>
<g id="a_Node000004"><a xlink:href="classio.html#a65ca69ec5f12d0f3a463396bcff84d77" target="_top" xlink:title="Ends the current I/O session, closing any open files.">
<polygon fill="white" stroke="#666666" points="420,-85 370,-85 370,-66 420,-66 420,-85"/>
<text text-anchor="middle" x="395" y="-73" font-family="Helvetica,sans-Serif" font-size="10.00">io::end</text>
</a>
</g>
</g>
<!-- Node2&#45;&gt;Node4 -->
<g id="edge4_Node000002_Node000004" class="edge">
<title>Node2&#45;&gt;Node4</title>
<g id="a_edge4_Node000002_Node000004"><a xlink:title=" ">
<path fill="none" stroke="#63b8ff" d="M193.19,-82.98C239.89,-81.24 315.65,-78.42 359.55,-76.78"/>
<polygon fill="#63b8ff" stroke="#63b8ff" points="359.86,-80.27 369.72,-76.4 359.6,-73.28 359.86,-80.27"/>
</a>
</g>
</g>
<!-- Node5 -->
<g id="Node000005" class="node">
<title>Node5</title>
<g id="a_Node000005"><a xlink:href="classio.html#a1c994985d2405202c19fb391cc43a5de" target="_top" xlink:title="Finalizes ROOT file processing, closing any ROOT files opened by root_begin.">
<polygon fill="white" stroke="#666666" points="307,-56 233,-56 233,-37 307,-37 307,-56"/>
<text text-anchor="middle" x="270" y="-44" font-family="Helvetica,sans-Serif" font-size="10.00">io::root_end</text>
</a>
</g>
</g>
<!-- Node2&#45;&gt;Node5 -->
<g id="edge5_Node000002_Node000005" class="edge">
<title>Node2&#45;&gt;Node5</title>
<g id="a_edge5_Node000002_Node000005"><a xlink:title=" ">
<path fill="none" stroke="#63b8ff" d="M181.9,-74.91C196.39,-70.19 214.06,-64.42 229.69,-59.32"/>
<polygon fill="#63b8ff" stroke="#63b8ff" points="231.19,-62.51 239.61,-56.09 229.02,-55.86 231.19,-62.51"/>
</a>
</g>
</g>
<!-- Node7 -->
<g id="Node000007" class="node">
<title>Node7</title>
<g id="a_Node000007"><a xlink:href="classio.html#aacb050c4cb6c10038d6bf8edb7244a28" target="_top" xlink:title="Scans for keys (e.g., TTree names, TBranch names) in the open ROOT files.">
<polygon fill="white" stroke="#666666" points="311,-132 229,-132 229,-113 311,-113 311,-132"/>
<text text-anchor="middle" x="270" y="-120" font-family="Helvetica,sans-Serif" font-size="10.00">io::scan_keys</text>
</a>
</g>
</g>
<!-- Node2&#45;&gt;Node7 -->
<g id="edge8_Node000002_Node000007" class="edge">
<title>Node2&#45;&gt;Node7</title>
<g id="a_edge8_Node000002_Node000007"><a xlink:title=" ">
<path fill="none" stroke="#63b8ff" d="M181.9,-94.09C196.39,-98.81 214.06,-104.58 229.69,-109.68"/>
<polygon fill="#63b8ff" stroke="#63b8ff" points="229.02,-113.14 239.61,-112.91 231.19,-106.49 229.02,-113.14"/>
</a>
</g>
</g>
<!-- Node10 -->
<g id="Node000010" class="node">
<title>Node10</title>
<g id="a_Node000010"><a xlink:href="classtools.html#a352a6965f2f3c768f0f4ecd1f978fcc0" target="_top" xlink:title="Splits a string into a vector of substrings based on a delimiter.">
<polygon fill="white" stroke="#666666" points="304,-19 236,-19 236,0 304,0 304,-19"/>
<text text-anchor="middle" x="270" y="-7" font-family="Helvetica,sans-Serif" font-size="10.00">tools::split</text>
</a>
</g>
</g>
<!-- Node2&#45;&gt;Node10 -->
<g id="edge13_Node000002_Node000010" class="edge">
<title>Node2&#45;&gt;Node10</title>
<g id="a_edge13_Node000002_Node000010"><a xlink:title=" ">
<path fill="none" stroke="#63b8ff" d="M163.62,-74.99C178.05,-62.95 204.3,-42.02 229,-27.5 231.32,-26.14 233.76,-24.8 236.25,-23.52"/>
<polygon fill="#63b8ff" stroke="#63b8ff" points="237.83,-26.65 245.3,-19.14 234.78,-20.35 237.83,-26.65"/>
</a>
</g>
</g>
<!-- Node3&#45;&gt;Node3 -->
<g id="edge3_Node000003_Node000003" class="edge">
<title>Node3&#45;&gt;Node3</title>
<g id="a_edge3_Node000003_Node000003"><a xlink:title=" ">
<path fill="none" stroke="#63b8ff" d="M375.89,-196.08C366.59,-204.73 372.96,-214 395,-214 408.77,-214 416.43,-210.38 417.96,-205.55"/>
<polygon fill="#63b8ff" stroke="#63b8ff" points="421.12,-204.03 414.11,-196.08 414.64,-206.66 421.12,-204.03"/>
</a>
</g>
</g>
<!-- Node5&#45;&gt;Node4 -->
<g id="edge6_Node000005_Node000004" class="edge">
<title>Node5&#45;&gt;Node4</title>
<g id="a_edge6_Node000005_Node000004"><a xlink:title=" ">
<path fill="none" stroke="#63b8ff" d="M307.24,-55.04C323.75,-58.94 343.2,-63.52 359.49,-67.36"/>
<polygon fill="#63b8ff" stroke="#63b8ff" points="359.14,-70.88 369.68,-69.77 360.75,-64.06 359.14,-70.88"/>
</a>
</g>
</g>
<!-- Node6 -->
<g id="Node000006" class="node">
<title>Node6</title>
<g id="a_Node000006"><a xlink:href="classtools.html#abce97603aeadeaa04fa6c6ff6c721eda" target="_top" xlink:title="Empties a vector and all objects it points to.">
<polygon fill="white" stroke="#666666" points="430,-48 360,-48 360,-29 430,-29 430,-48"/>
<text text-anchor="middle" x="395" y="-36" font-family="Helvetica,sans-Serif" font-size="10.00">tools::flush</text>
</a>
</g>
</g>
<!-- Node5&#45;&gt;Node6 -->
<g id="edge7_Node000005_Node000006" class="edge">
<title>Node5&#45;&gt;Node6</title>
<g id="a_edge7_Node000005_Node000006"><a xlink:title=" ">
<path fill="none" stroke="#63b8ff" d="M307.24,-44.14C320.45,-43.28 335.55,-42.3 349.41,-41.4"/>
<polygon fill="#63b8ff" stroke="#63b8ff" points="349.96,-44.87 359.71,-40.73 349.5,-37.89 349.96,-44.87"/>
</a>
</g>
</g>
<!-- Node7&#45;&gt;Node3 -->
<g id="edge9_Node000007_Node000003" class="edge">
<title>Node7&#45;&gt;Node3</title>
<g id="a_edge9_Node000007_Node000003"><a xlink:title=" ">
<path fill="none" stroke="#63b8ff" d="M285.14,-132.11C300.08,-142.02 324.56,-157.52 347,-168.5 352.1,-171 357.64,-173.38 363.07,-175.56"/>
<polygon fill="#63b8ff" stroke="#63b8ff" points="362.01,-178.9 372.6,-179.22 364.52,-172.37 362.01,-178.9"/>
</a>
</g>
</g>
<!-- Node7&#45;&gt;Node4 -->
<g id="edge10_Node000007_Node000004" class="edge">
<title>Node7&#45;&gt;Node4</title>
<g id="a_edge10_Node000007_Node000004"><a xlink:title=" ">
<path fill="none" stroke="#63b8ff" d="M295.89,-112.99C314.47,-105.89 340.06,-96.11 360.45,-88.32"/>
<polygon fill="#63b8ff" stroke="#63b8ff" points="361.89,-91.52 369.98,-84.68 359.39,-84.98 361.89,-91.52"/>
</a>
</g>
</g>
<!-- Node8 -->
<g id="Node000008" class="node">
<title>Node8</title>
<g id="a_Node000008"><a xlink:href="classtools.html#a3d538da5310467c9321b27cd6a75b9af" target="_top" xlink:title="Checks if a string ends with a specific substring.">
<polygon fill="white" stroke="#666666" points="443,-159 347,-159 347,-140 443,-140 443,-159"/>
<text text-anchor="middle" x="395" y="-147" font-family="Helvetica,sans-Serif" font-size="10.00">tools::ends_with</text>
</a>
</g>
</g>
<!-- Node7&#45;&gt;Node8 -->
<g id="edge11_Node000007_Node000008" class="edge">
<title>Node7&#45;&gt;Node8</title>
<g id="a_edge11_Node000007_Node000008"><a xlink:title=" ">
<path fill="none" stroke="#63b8ff" d="M311.27,-131.34C320.73,-133.42 330.96,-135.66 340.88,-137.84"/>
<polygon fill="#63b8ff" stroke="#63b8ff" points="340.15,-141.26 350.67,-139.99 341.65,-134.43 340.15,-141.26"/>
</a>
</g>
</g>
<!-- Node9 -->
<g id="Node000009" class="node">
<title>Node9</title>
<g id="a_Node000009"><a xlink:href="classtools.html#a13633d4d63c55bcf537ff141e7605f13" target="_top" xlink:title="Checks if a vector of strings contains a specific string.">
<polygon fill="white" stroke="#666666" points="443,-122 347,-122 347,-103 443,-103 443,-122"/>
<text text-anchor="middle" x="395" y="-110" font-family="Helvetica,sans-Serif" font-size="10.00">tools::has_value</text>
</a>
</g>
</g>
<!-- Node7&#45;&gt;Node9 -->
<g id="edge12_Node000007_Node000009" class="edge">
<title>Node7&#45;&gt;Node9</title>
<g id="a_edge12_Node000007_Node000009"><a xlink:title=" ">
<path fill="none" stroke="#63b8ff" d="M311.27,-119.23C319.43,-118.56 328.16,-117.85 336.77,-117.15"/>
<polygon fill="#63b8ff" stroke="#63b8ff" points="337.11,-120.64 346.79,-116.34 336.54,-113.66 337.11,-120.64"/>
</a>
</g>
</g>
</g>
</svg>
