<?xml version="1.0" encoding="UTF-8" standalone="no"?>
<!DOCTYPE svg PUBLIC "-//W3C//DTD SVG 1.1//EN"
 "http://www.w3.org/Graphics/SVG/1.1/DTD/svg11.dtd">
<!-- Generated by graphviz version 2.43.0 (0)
 -->
<!-- Title: validation::strategy Pages: 1 -->
<svg width="1134pt" height="982pt"
 viewBox="0.00 0.00 1134.00 982.00" xmlns="http://www.w3.org/2000/svg" xmlns:xlink="http://www.w3.org/1999/xlink">
<g id="graph0" class="graph" transform="scale(1 1) rotate(0) translate(4 978)">
<title>validation::strategy</title>
<!-- Node1 -->
<g id="Node000001" class="node">
<title>Node1</title>
<g id="a_Node000001"><a xlink:title="Alternative selection strategy method.">
<polygon fill="#999999" stroke="#666666" points="112,-823 0,-823 0,-804 112,-804 112,-823"/>
<text text-anchor="middle" x="56" y="-811" font-family="Helvetica,sans-Serif" font-size="10.00">validation::strategy</text>
</a>
</g>
</g>
<!-- Node2 -->
<g id="Node000002" class="node">
<title>Node2</title>
<g id="a_Node000002"><a xlink:href="classvalidation.html#ab11c4dd22b98223965474a9078f629e9" target="_top" xlink:title=" ">
<polygon fill="white" stroke="#666666" points="285,-897 152,-897 152,-878 285,-878 285,-897"/>
<text text-anchor="middle" x="218.5" y="-885" font-family="Helvetica,sans-Serif" font-size="10.00">validation::build_packet</text>
</a>
</g>
</g>
<!-- Node1&#45;&gt;Node2 -->
<g id="edge1_Node000001_Node000002" class="edge">
<title>Node1&#45;&gt;Node2</title>
<g id="a_edge1_Node000001_Node000002"><a xlink:title=" ">
<path fill="none" stroke="#63b8ff" d="M69.89,-823.16C86.94,-835.53 118.3,-856.86 148,-869.5 152.68,-871.49 157.64,-873.31 162.66,-874.95"/>
<polygon fill="#63b8ff" stroke="#63b8ff" points="161.77,-878.34 172.35,-877.9 163.81,-871.64 161.77,-878.34"/>
</a>
</g>
</g>
<!-- Node3 -->
<g id="Node000003" class="node">
<title>Node3</title>
<g id="a_Node000003"><a xlink:href="merge__cast_8h.html#a205af11d07be8d10770e7392817fc5c3" target="_top" xlink:title=" ">
<polygon fill="white" stroke="#666666" points="256,-860 181,-860 181,-841 256,-841 256,-860"/>
<text text-anchor="middle" x="218.5" y="-848" font-family="Helvetica,sans-Serif" font-size="10.00">merge_data</text>
</a>
</g>
</g>
<!-- Node1&#45;&gt;Node3 -->
<g id="edge2_Node000001_Node000003" class="edge">
<title>Node1&#45;&gt;Node3</title>
<g id="a_edge2_Node000001_Node000003"><a xlink:title=" ">
<path fill="none" stroke="#63b8ff" d="M98.33,-823.03C120.58,-828.16 148.1,-834.5 171.08,-839.8"/>
<polygon fill="#63b8ff" stroke="#63b8ff" points="170.43,-843.24 180.96,-842.08 172,-836.42 170.43,-843.24"/>
</a>
</g>
</g>
<!-- Node4 -->
<g id="Node000004" class="node">
<title>Node4</title>
<g id="a_Node000004"><a xlink:href="classvalidation.html#aa436b348c281a3d676910cf7b7d575eb" target="_top" xlink:title=" ">
<polygon fill="white" stroke="#666666" points="289,-823 148,-823 148,-804 289,-804 289,-823"/>
<text text-anchor="middle" x="218.5" y="-811" font-family="Helvetica,sans-Serif" font-size="10.00">validation::reconstruction</text>
</a>
</g>
</g>
<!-- Node1&#45;&gt;Node4 -->
<g id="edge3_Node000001_Node000004" class="edge">
<title>Node1&#45;&gt;Node4</title>
<g id="a_edge3_Node000001_Node000004"><a xlink:title=" ">
<path fill="none" stroke="#63b8ff" d="M112.23,-813.5C120.51,-813.5 129.18,-813.5 137.85,-813.5"/>
<polygon fill="#63b8ff" stroke="#63b8ff" points="137.99,-817 147.99,-813.5 137.99,-810 137.99,-817"/>
</a>
</g>
</g>
<!-- Node40 -->
<g id="Node000040" class="node">
<title>Node40</title>
<g id="a_Node000040"><a xlink:href="classvalidation.html#aa4e1748ddaa534cfd26880d5cd2ae7a5" target="_top" xlink:title=" ">
<polygon fill="white" stroke="#666666" points="271,-785.5 166,-785.5 166,-755.5 271,-755.5 271,-785.5"/>
<text text-anchor="start" x="174" y="-773.5" font-family="Helvetica,sans-Serif" font-size="10.00">validation::update</text>
<text text-anchor="middle" x="218.5" y="-762.5" font-family="Helvetica,sans-Serif" font-size="10.00">_state</text>
</a>
</g>
</g>
<!-- Node1&#45;&gt;Node40 -->
<g id="edge55_Node000001_Node000040" class="edge">
<title>Node1&#45;&gt;Node40</title>
<g id="a_edge55_Node000001_Node000040"><a xlink:title=" ">
<path fill="none" stroke="#63b8ff" d="M92.62,-803.96C111.28,-798.96 134.66,-792.69 156.13,-786.94"/>
<polygon fill="#63b8ff" stroke="#63b8ff" points="157.08,-790.31 165.84,-784.34 155.27,-783.55 157.08,-790.31"/>
</a>
</g>
</g>
<!-- Node41 -->
<g id="Node000041" class="node">
<title>Node41</title>
<g id="a_Node000041"><a xlink:href="classselection__template.html#acfb4c50041c70205e08f6ccb4a850979" target="_top" xlink:title="Converts a map to a vector.">
<polygon fill="white" stroke="#666666" points="273.5,-737.5 163.5,-737.5 163.5,-707.5 273.5,-707.5 273.5,-737.5"/>
<text text-anchor="start" x="171.5" y="-725.5" font-family="Helvetica,sans-Serif" font-size="10.00">selection_template</text>
<text text-anchor="middle" x="218.5" y="-714.5" font-family="Helvetica,sans-Serif" font-size="10.00">::vectorize</text>
</a>
</g>
</g>
<!-- Node1&#45;&gt;Node41 -->
<g id="edge56_Node000001_Node000041" class="edge">
<title>Node1&#45;&gt;Node41</title>
<g id="a_edge56_Node000001_Node000041"><a xlink:title=" ">
<path fill="none" stroke="#63b8ff" d="M67.76,-803.87C84.09,-789.67 116.56,-763.01 148,-746.5 151.3,-744.77 154.76,-743.11 158.28,-741.55"/>
<polygon fill="#63b8ff" stroke="#63b8ff" points="159.85,-744.69 167.74,-737.62 157.16,-738.23 159.85,-744.69"/>
</a>
</g>
</g>
<!-- Node5 -->
<g id="Node000005" class="node">
<title>Node5</title>
<g id="a_Node000005"><a xlink:href="namespacepyc_1_1nusol.html#a9650527ae538fa27121bedfb79a1fbe6" target="_top" xlink:title=" ">
<polygon fill="white" stroke="#666666" points="443,-842 344,-842 344,-823 443,-823 443,-842"/>
<text text-anchor="middle" x="393.5" y="-830" font-family="Helvetica,sans-Serif" font-size="10.00">pyc::nusol::NuNu</text>
</a>
</g>
</g>
<!-- Node4&#45;&gt;Node5 -->
<g id="edge4_Node000004_Node000005" class="edge">
<title>Node4&#45;&gt;Node5</title>
<g id="a_edge4_Node000004_Node000005"><a xlink:title=" ">
<path fill="none" stroke="#63b8ff" d="M289.37,-821.17C304.08,-822.79 319.46,-824.48 333.72,-826.04"/>
<polygon fill="#63b8ff" stroke="#63b8ff" points="333.56,-829.55 343.88,-827.16 334.32,-822.59 333.56,-829.55"/>
</a>
</g>
</g>
<!-- Node39 -->
<g id="Node000039" class="node">
<title>Node39</title>
<g id="a_Node000039"><a xlink:href="classselection__template.html#a84df199f6022f2a5d27979d43de51547" target="_top" xlink:title="Sums particles into a combined particle.">
<polygon fill="white" stroke="#666666" points="462,-805 325,-805 325,-786 462,-786 462,-805"/>
<text text-anchor="middle" x="393.5" y="-793" font-family="Helvetica,sans-Serif" font-size="10.00">selection_template::sum</text>
</a>
</g>
</g>
<!-- Node4&#45;&gt;Node39 -->
<g id="edge54_Node000004_Node000039" class="edge">
<title>Node4&#45;&gt;Node39</title>
<g id="a_edge54_Node000004_Node000039"><a xlink:title=" ">
<path fill="none" stroke="#63b8ff" d="M289.37,-806.23C297.7,-805.36 306.25,-804.47 314.68,-803.6"/>
<polygon fill="#63b8ff" stroke="#63b8ff" points="315.31,-807.05 324.9,-802.53 314.59,-800.09 315.31,-807.05"/>
</a>
</g>
</g>
<!-- Node6 -->
<g id="Node000006" class="node">
<title>Node6</title>
<g id="a_Node000006"><a xlink:href="utils_8cxx.html#a123aed6d73594e07c6401a7a6c587808" target="_top" xlink:title=" ">
<polygon fill="white" stroke="#666666" points="579.5,-879 509.5,-879 509.5,-860 579.5,-860 579.5,-879"/>
<text text-anchor="middle" x="544.5" y="-867" font-family="Helvetica,sans-Serif" font-size="10.00">changedev</text>
</a>
</g>
</g>
<!-- Node5&#45;&gt;Node6 -->
<g id="edge5_Node000005_Node000006" class="edge">
<title>Node5&#45;&gt;Node6</title>
<g id="a_edge5_Node000005_Node000006"><a xlink:title=" ">
<path fill="none" stroke="#63b8ff" d="M432.87,-842.03C453.27,-847.09 478.43,-853.34 499.6,-858.6"/>
<polygon fill="#63b8ff" stroke="#63b8ff" points="498.78,-862 509.33,-861.01 500.46,-855.21 498.78,-862"/>
</a>
</g>
</g>
<!-- Node7 -->
<g id="Node000007" class="node">
<title>Node7</title>
<g id="a_Node000007"><a xlink:href="namespacenusol__.html#ac849ef3564c5ac968727dce36494fd0a" target="_top" xlink:title=" ">
<polygon fill="white" stroke="#666666" points="585,-842 504,-842 504,-823 585,-823 585,-842"/>
<text text-anchor="middle" x="544.5" y="-830" font-family="Helvetica,sans-Serif" font-size="10.00">nusol_::NuNu</text>
</a>
</g>
</g>
<!-- Node5&#45;&gt;Node7 -->
<g id="edge6_Node000005_Node000007" class="edge">
<title>Node5&#45;&gt;Node7</title>
<g id="a_edge6_Node000005_Node000007"><a xlink:title=" ">
<path fill="none" stroke="#63b8ff" d="M443.29,-832.5C459.3,-832.5 477.12,-832.5 493.24,-832.5"/>
<polygon fill="#63b8ff" stroke="#63b8ff" points="493.55,-836 503.55,-832.5 493.55,-829 493.55,-836"/>
</a>
</g>
</g>
<!-- Node38 -->
<g id="Node000038" class="node">
<title>Node38</title>
<g id="a_Node000038"><a xlink:href="namespacepyc.html#ab174cc51f6efef06bdb0ba47ec3fe3bf" target="_top" xlink:title=" ">
<polygon fill="white" stroke="#666666" points="591,-805 498,-805 498,-786 591,-786 591,-805"/>
<text text-anchor="middle" x="544.5" y="-793" font-family="Helvetica,sans-Serif" font-size="10.00">pyc::std_to_dict</text>
</a>
</g>
</g>
<!-- Node5&#45;&gt;Node38 -->
<g id="edge53_Node000005_Node000038" class="edge">
<title>Node5&#45;&gt;Node38</title>
<g id="a_edge53_Node000005_Node000038"><a xlink:title=" ">
<path fill="none" stroke="#63b8ff" d="M432.87,-822.97C451.83,-818.26 474.9,-812.53 495.06,-807.53"/>
<polygon fill="#63b8ff" stroke="#63b8ff" points="496.14,-810.87 505,-805.06 494.45,-804.07 496.14,-810.87"/>
</a>
</g>
</g>
<!-- Node8 -->
<g id="Node000008" class="node">
<title>Node8</title>
<g id="a_Node000008"><a xlink:href="nusol_2tensor_2nusol_8cxx.html#a8bbfd6699dae11189c40dfc0035fd99c" target="_top" xlink:title=" ">
<polygon fill="white" stroke="#666666" points="711,-974 655,-974 655,-955 711,-955 711,-974"/>
<text text-anchor="middle" x="683" y="-962" font-family="Helvetica,sans-Serif" font-size="10.00">_H_perp</text>
</a>
</g>
</g>
<!-- Node7&#45;&gt;Node8 -->
<g id="edge7_Node000007_Node000008" class="edge">
<title>Node7&#45;&gt;Node8</title>
<g id="a_edge7_Node000007_Node000008"><a xlink:title=" ">
<path fill="none" stroke="#63b8ff" d="M577.93,-842.12C582.74,-844.6 587.31,-847.69 591,-851.5 622.39,-883.96 594.35,-915.31 627,-946.5 632.08,-951.35 638.48,-954.89 645.11,-957.48"/>
<polygon fill="#63b8ff" stroke="#63b8ff" points="644.26,-960.88 654.85,-960.63 646.41,-954.22 644.26,-960.88"/>
</a>
</g>
</g>
<!-- Node9 -->
<g id="Node000009" class="node">
<title>Node9</title>
<g id="a_Node000009"><a xlink:href="nusol_2tensor_2nusol_8cxx.html#aa2f3034bed6ef5a865741a89972d44d8" target="_top" xlink:title=" ">
<polygon fill="white" stroke="#666666" points="703.5,-937 662.5,-937 662.5,-918 703.5,-918 703.5,-937"/>
<text text-anchor="middle" x="683" y="-925" font-family="Helvetica,sans-Serif" font-size="10.00">_met</text>
</a>
</g>
</g>
<!-- Node7&#45;&gt;Node9 -->
<g id="edge8_Node000007_Node000009" class="edge">
<title>Node7&#45;&gt;Node9</title>
<g id="a_edge8_Node000007_Node000009"><a xlink:title=" ">
<path fill="none" stroke="#63b8ff" d="M575.28,-842.04C580.83,-844.6 586.34,-847.73 591,-851.5 612.85,-869.18 605.29,-885.64 627,-903.5 634.62,-909.77 644.13,-914.69 653.1,-918.39"/>
<polygon fill="#63b8ff" stroke="#63b8ff" points="651.89,-921.68 662.49,-921.94 654.37,-915.13 651.89,-921.68"/>
</a>
</g>
</g>
<!-- Node10 -->
<g id="Node000010" class="node">
<title>Node10</title>
<g id="a_Node000010"><a xlink:href="nusol_2tensor_2nusol_8cxx.html#a154959ee15ff2420eef7a772682767b7" target="_top" xlink:title=" ">
<polygon fill="white" stroke="#666666" points="697.5,-823 668.5,-823 668.5,-804 697.5,-804 697.5,-823"/>
<text text-anchor="middle" x="683" y="-811" font-family="Helvetica,sans-Serif" font-size="10.00">_N</text>
</a>
</g>
</g>
<!-- Node7&#45;&gt;Node10 -->
<g id="edge9_Node000007_Node000010" class="edge">
<title>Node7&#45;&gt;Node10</title>
<g id="a_edge9_Node000007_Node000010"><a xlink:title=" ">
<path fill="none" stroke="#63b8ff" d="M585.35,-826.95C608.99,-823.66 638.15,-819.6 658.23,-816.81"/>
<polygon fill="#63b8ff" stroke="#63b8ff" points="658.93,-820.25 668.35,-815.4 657.96,-813.31 658.93,-820.25"/>
</a>
</g>
</g>
<!-- Node12 -->
<g id="Node000012" class="node">
<title>Node12</title>
<g id="a_Node000012"><a xlink:href="nusol_2tensor_2nusol_8cxx.html#a695a1b065a09564a65159bac242c506c" target="_top" xlink:title=" ">
<polygon fill="white" stroke="#666666" points="866.5,-861 819.5,-861 819.5,-842 866.5,-842 866.5,-861"/>
<text text-anchor="middle" x="843" y="-849" font-family="Helvetica,sans-Serif" font-size="10.00">Shape</text>
</a>
</g>
</g>
<!-- Node7&#45;&gt;Node12 -->
<g id="edge52_Node000007_Node000012" class="edge">
<title>Node7&#45;&gt;Node12</title>
<g id="a_edge52_Node000007_Node000012"><a xlink:title=" ">
<path fill="none" stroke="#63b8ff" d="M585.18,-835.04C644.21,-838.83 754.07,-845.87 808.98,-849.38"/>
<polygon fill="#63b8ff" stroke="#63b8ff" points="808.99,-852.89 819.19,-850.04 809.44,-845.91 808.99,-852.89"/>
</a>
</g>
</g>
<!-- Node13 -->
<g id="Node000013" class="node">
<title>Node13</title>
<g id="a_Node000013"><a xlink:href="utils_8cxx.html#a1652e53abd2299dd0f10e093948e4fa3" target="_top" xlink:title=" ">
<polygon fill="white" stroke="#666666" points="1021.5,-655 965.5,-655 965.5,-636 1021.5,-636 1021.5,-655"/>
<text text-anchor="middle" x="993.5" y="-643" font-family="Helvetica,sans-Serif" font-size="10.00">MakeOp</text>
</a>
</g>
</g>
<!-- Node7&#45;&gt;Node13 -->
<g id="edge40_Node000007_Node000013" class="edge">
<title>Node7&#45;&gt;Node13</title>
<g id="a_edge40_Node000007_Node000013"><a xlink:title=" ">
<path fill="none" stroke="#63b8ff" d="M576.2,-842C591.36,-846.38 610,-851.31 627,-854.5 751.25,-877.84 807.5,-943.09 911,-870.5 979.36,-822.56 990.62,-711.22 992.3,-665.58"/>
<polygon fill="#63b8ff" stroke="#63b8ff" points="995.8,-665.55 992.55,-655.46 988.8,-665.37 995.8,-665.55"/>
</a>
</g>
</g>
<!-- Node14 -->
<g id="Node000014" class="node">
<title>Node14</title>
<g id="a_Node000014"><a xlink:href="namespacenusol__.html#a526c0e4a558a1201624ea0b639bc747c" target="_top" xlink:title=" ">
<polygon fill="white" stroke="#666666" points="738,-431 628,-431 628,-412 738,-412 738,-431"/>
<text text-anchor="middle" x="683" y="-419" font-family="Helvetica,sans-Serif" font-size="10.00">nusol_::BaseMatrix</text>
</a>
</g>
</g>
<!-- Node7&#45;&gt;Node14 -->
<g id="edge13_Node000007_Node000014" class="edge">
<title>Node7&#45;&gt;Node14</title>
<g id="a_edge13_Node000007_Node000014"><a xlink:title=" ">
<path fill="none" stroke="#63b8ff" d="M580.64,-822.8C584.53,-820.58 588.12,-817.85 591,-814.5 616.1,-785.35 665.15,-516.73 678.55,-441.18"/>
<polygon fill="#63b8ff" stroke="#63b8ff" points="682.03,-441.59 680.32,-431.13 675.14,-440.37 682.03,-441.59"/>
</a>
</g>
</g>
<!-- Node24 -->
<g id="Node000024" class="node">
<title>Node24</title>
<g id="a_Node000024"><a xlink:href="namespacenusol__.html#a2cdd92aeb32c05137ebc7ef96c47a3da" target="_top" xlink:title=" ">
<polygon fill="white" stroke="#666666" points="739,-730 627,-730 627,-711 739,-711 739,-730"/>
<text text-anchor="middle" x="683" y="-718" font-family="Helvetica,sans-Serif" font-size="10.00">nusol_::Intersection</text>
</a>
</g>
</g>
<!-- Node7&#45;&gt;Node24 -->
<g id="edge32_Node000007_Node000024" class="edge">
<title>Node7&#45;&gt;Node24</title>
<g id="a_edge32_Node000007_Node000024"><a xlink:title=" ">
<path fill="none" stroke="#63b8ff" d="M575.3,-822.83C580.74,-820.48 586.2,-817.71 591,-814.5 623.06,-793.08 652.61,-758.73 668.89,-738.02"/>
<polygon fill="#63b8ff" stroke="#63b8ff" points="671.69,-740.12 675.02,-730.06 666.15,-735.85 671.69,-740.12"/>
</a>
</g>
</g>
<!-- Node30 -->
<g id="Node000030" class="node">
<title>Node30</title>
<g id="a_Node000030"><a xlink:href="nusol_2tensor_2nusol_8cxx.html#a28531a30b80ecbd780392279d8a8adf3" target="_top" xlink:title=" ">
<polygon fill="white" stroke="#666666" points="712,-148 654,-148 654,-129 712,-129 712,-148"/>
<text text-anchor="middle" x="683" y="-136" font-family="Helvetica,sans-Serif" font-size="10.00">Rotation</text>
</a>
</g>
</g>
<!-- Node7&#45;&gt;Node30 -->
<g id="edge41_Node000007_Node000030" class="edge">
<title>Node7&#45;&gt;Node30</title>
<g id="a_edge41_Node000007_Node000030"><a xlink:title=" ">
<path fill="none" stroke="#63b8ff" d="M581.54,-822.91C585.18,-820.67 588.46,-817.91 591,-814.5 645.93,-740.82 613.6,-493.42 627,-402.5 640.62,-310.04 666.44,-201.25 677.15,-157.82"/>
<polygon fill="#63b8ff" stroke="#63b8ff" points="680.58,-158.57 679.59,-148.02 673.78,-156.88 680.58,-158.57"/>
</a>
</g>
</g>
<!-- Node11 -->
<g id="Node000011" class="node">
<title>Node11</title>
<g id="a_Node000011"><a xlink:href="namespaceoperators__.html#aaf20282e41ff4961e01d222feb86bc47" target="_top" xlink:title="Computes the inverse of a matrix.">
<polygon fill="white" stroke="#666666" points="898,-824 788,-824 788,-805 898,-805 898,-824"/>
<text text-anchor="middle" x="843" y="-812" font-family="Helvetica,sans-Serif" font-size="10.00">operators_::Inverse</text>
</a>
</g>
</g>
<!-- Node10&#45;&gt;Node11 -->
<g id="edge10_Node000010_Node000011" class="edge">
<title>Node10&#45;&gt;Node11</title>
<g id="a_edge10_Node000010_Node000011"><a xlink:title=" ">
<path fill="none" stroke="#63b8ff" d="M697.75,-813.59C715.61,-813.7 748.03,-813.91 777.61,-814.09"/>
<polygon fill="#63b8ff" stroke="#63b8ff" points="777.91,-817.59 787.93,-814.16 777.95,-810.59 777.91,-817.59"/>
</a>
</g>
</g>
<!-- Node10&#45;&gt;Node12 -->
<g id="edge11_Node000010_Node000012" class="edge">
<title>Node10&#45;&gt;Node12</title>
<g id="a_edge11_Node000010_Node000012"><a xlink:title=" ">
<path fill="none" stroke="#63b8ff" d="M697.75,-816.81C722.44,-822.75 774.96,-835.38 809.34,-843.65"/>
<polygon fill="#63b8ff" stroke="#63b8ff" points="808.84,-847.13 819.38,-846.06 810.48,-840.32 808.84,-847.13"/>
</a>
</g>
</g>
<!-- Node12&#45;&gt;Node13 -->
<g id="edge12_Node000012_Node000013" class="edge">
<title>Node12&#45;&gt;Node13</title>
<g id="a_edge12_Node000012_Node000013"><a xlink:title=" ">
<path fill="none" stroke="#63b8ff" d="M866.51,-850.36C880.73,-848.55 898.69,-844.12 911,-833.5 963.23,-788.42 983.1,-703.75 989.66,-665.34"/>
<polygon fill="#63b8ff" stroke="#63b8ff" points="993.19,-665.43 991.29,-655 986.28,-664.34 993.19,-665.43"/>
</a>
</g>
</g>
<!-- Node14&#45;&gt;Node13 -->
<g id="edge27_Node000014_Node000013" class="edge">
<title>Node14&#45;&gt;Node13</title>
<g id="a_edge27_Node000014_Node000013"><a xlink:title=" ">
<path fill="none" stroke="#63b8ff" d="M692.88,-431.02C708.18,-446.87 741.12,-478.68 775,-496.5 830.65,-525.78 859.32,-499.67 911,-535.5 945.33,-559.3 970.94,-602.28 983.62,-626.88"/>
<polygon fill="#63b8ff" stroke="#63b8ff" points="980.52,-628.51 988.11,-635.9 986.79,-625.39 980.52,-628.51"/>
</a>
</g>
</g>
<!-- Node15 -->
<g id="Node000015" class="node">
<title>Node15</title>
<g id="a_Node000015"><a xlink:href="nusol_2tensor_2nusol_8cxx.html#ac73ce1484f270adbb1791bd876e80dfa" target="_top" xlink:title=" ">
<polygon fill="white" stroke="#666666" points="860,-487 826,-487 826,-468 860,-468 860,-487"/>
<text text-anchor="middle" x="843" y="-475" font-family="Helvetica,sans-Serif" font-size="10.00">_x0</text>
</a>
</g>
</g>
<!-- Node14&#45;&gt;Node15 -->
<g id="edge14_Node000014_Node000015" class="edge">
<title>Node14&#45;&gt;Node15</title>
<g id="a_edge14_Node000014_Node000015"><a xlink:title=" ">
<path fill="none" stroke="#63b8ff" d="M704.66,-431.06C722.91,-439.27 750.37,-451.09 775,-459.5 788.36,-464.06 803.53,-468.22 816.05,-471.39"/>
<polygon fill="#63b8ff" stroke="#63b8ff" points="815.3,-474.81 825.85,-473.8 816.97,-468.01 815.3,-474.81"/>
</a>
</g>
</g>
<!-- Node16 -->
<g id="Node000016" class="node">
<title>Node16</title>
<g id="a_Node000016"><a xlink:href="namespacephysics__.html#a3123f743b9c22850e7346d5f56a4441b" target="_top" xlink:title="Computes the beta factor.">
<polygon fill="white" stroke="#666666" points="1037,-261 950,-261 950,-242 1037,-242 1037,-261"/>
<text text-anchor="middle" x="993.5" y="-249" font-family="Helvetica,sans-Serif" font-size="10.00">physics_::Beta</text>
</a>
</g>
</g>
<!-- Node14&#45;&gt;Node16 -->
<g id="edge15_Node000014_Node000016" class="edge">
<title>Node14&#45;&gt;Node16</title>
<g id="a_edge15_Node000014_Node000016"><a xlink:title=" ">
<path fill="none" stroke="#63b8ff" d="M687.28,-411.94C696.53,-386.53 725.43,-317.14 775,-285.5 824.42,-253.96 892.71,-248.01 939.51,-248.31"/>
<polygon fill="#63b8ff" stroke="#63b8ff" points="939.68,-251.81 949.74,-248.47 939.8,-244.81 939.68,-251.81"/>
</a>
</g>
</g>
<!-- Node18 -->
<g id="Node000018" class="node">
<title>Node18</title>
<g id="a_Node000018"><a xlink:href="namespacephysics__.html#aace12d6d7317cd102e5059781d724151" target="_top" xlink:title="Computes the square of the beta factor.">
<polygon fill="white" stroke="#666666" points="1040,-392 947,-392 947,-373 1040,-373 1040,-392"/>
<text text-anchor="middle" x="993.5" y="-380" font-family="Helvetica,sans-Serif" font-size="10.00">physics_::Beta2</text>
</a>
</g>
</g>
<!-- Node14&#45;&gt;Node18 -->
<g id="edge18_Node000014_Node000018" class="edge">
<title>Node14&#45;&gt;Node18</title>
<g id="a_edge18_Node000014_Node000018"><a xlink:title=" ">
<path fill="none" stroke="#63b8ff" d="M738.09,-414.66C793.73,-407.63 879.99,-396.72 936.37,-389.6"/>
<polygon fill="#63b8ff" stroke="#63b8ff" points="937.05,-393.04 946.53,-388.31 936.17,-386.09 937.05,-393.04"/>
</a>
</g>
</g>
<!-- Node19 -->
<g id="Node000019" class="node">
<title>Node19</title>
<g id="a_Node000019"><a xlink:href="namespaceoperators__.html#af012532b8e034b7d6cb733360e14f8d7" target="_top" xlink:title="Computes the cosine of the angle between two vectors.">
<polygon fill="white" stroke="#666666" points="903,-374 783,-374 783,-355 903,-355 903,-374"/>
<text text-anchor="middle" x="843" y="-362" font-family="Helvetica,sans-Serif" font-size="10.00">operators_::CosTheta</text>
</a>
</g>
</g>
<!-- Node14&#45;&gt;Node19 -->
<g id="edge21_Node000014_Node000019" class="edge">
<title>Node14&#45;&gt;Node19</title>
<g id="a_edge21_Node000014_Node000019"><a xlink:title=" ">
<path fill="none" stroke="#63b8ff" d="M710.27,-411.94C728.44,-405.34 753.18,-396.36 775,-388.5 784.94,-384.92 795.71,-381.05 805.65,-377.49"/>
<polygon fill="#63b8ff" stroke="#63b8ff" points="807.02,-380.72 815.26,-374.05 804.66,-374.13 807.02,-380.72"/>
</a>
</g>
</g>
<!-- Node20 -->
<g id="Node000020" class="node">
<title>Node20</title>
<g id="a_Node000020"><a xlink:href="nusol_2tensor_2nusol_8cxx.html#a2df29a032d35ff73a0646b3c6f522ff1" target="_top" xlink:title=" ">
<polygon fill="white" stroke="#666666" points="878.5,-450 807.5,-450 807.5,-431 878.5,-431 878.5,-450"/>
<text text-anchor="middle" x="843" y="-438" font-family="Helvetica,sans-Serif" font-size="10.00">GetMasses</text>
</a>
</g>
</g>
<!-- Node14&#45;&gt;Node20 -->
<g id="edge22_Node000014_Node000020" class="edge">
<title>Node14&#45;&gt;Node20</title>
<g id="a_edge22_Node000014_Node000020"><a xlink:title=" ">
<path fill="none" stroke="#63b8ff" d="M738.37,-428.04C757.57,-430.35 778.91,-432.91 797.22,-435.12"/>
<polygon fill="#63b8ff" stroke="#63b8ff" points="796.98,-438.61 807.33,-436.33 797.82,-431.66 796.98,-438.61"/>
</a>
</g>
</g>
<!-- Node21 -->
<g id="Node000021" class="node">
<title>Node21</title>
<g id="a_Node000021"><a xlink:href="namespacephysics__.html#a7787594305d4a156c31be581401b0b0b" target="_top" xlink:title="Computes the square of the invariant mass.">
<polygon fill="white" stroke="#666666" points="1033.5,-316 953.5,-316 953.5,-297 1033.5,-297 1033.5,-316"/>
<text text-anchor="middle" x="993.5" y="-304" font-family="Helvetica,sans-Serif" font-size="10.00">physics_::M2</text>
</a>
</g>
</g>
<!-- Node14&#45;&gt;Node21 -->
<g id="edge24_Node000014_Node000021" class="edge">
<title>Node14&#45;&gt;Node21</title>
<g id="a_edge24_Node000014_Node000021"><a xlink:title=" ">
<path fill="none" stroke="#63b8ff" d="M688.17,-411.84C698.72,-388.78 728.98,-330.79 775,-308.5 828.08,-282.79 897.35,-287.71 943.3,-295.45"/>
<polygon fill="#63b8ff" stroke="#63b8ff" points="942.85,-298.93 953.31,-297.24 944.08,-292.04 942.85,-298.93"/>
</a>
</g>
</g>
<!-- Node22 -->
<g id="Node000022" class="node">
<title>Node22</title>
<g id="a_Node000022"><a xlink:href="namespacephysics__.html#ac12a78b1943348345b940e510930f420" target="_top" xlink:title="Computes the momentum magnitude.">
<polygon fill="white" stroke="#666666" points="1029,-206 958,-206 958,-187 1029,-187 1029,-206"/>
<text text-anchor="middle" x="993.5" y="-194" font-family="Helvetica,sans-Serif" font-size="10.00">physics_::P</text>
</a>
</g>
</g>
<!-- Node14&#45;&gt;Node22 -->
<g id="edge28_Node000014_Node000022" class="edge">
<title>Node14&#45;&gt;Node22</title>
<g id="a_edge28_Node000014_Node000022"><a xlink:title=" ">
<path fill="none" stroke="#63b8ff" d="M686.03,-411.64C692.75,-381.52 717.28,-290.07 775,-245.5 825.13,-206.79 900.03,-197.55 947.56,-195.91"/>
<polygon fill="#63b8ff" stroke="#63b8ff" points="947.94,-199.41 957.85,-195.67 947.77,-192.41 947.94,-199.41"/>
</a>
</g>
</g>
<!-- Node23 -->
<g id="Node000023" class="node">
<title>Node23</title>
<g id="a_Node000023"><a xlink:href="namespaceoperators__.html#a0335a4a853f7cff5faa4bc7bc68e3a8a" target="_top" xlink:title="Computes the sine of the angle between two vectors.">
<polygon fill="white" stroke="#666666" points="901.5,-563 784.5,-563 784.5,-544 901.5,-544 901.5,-563"/>
<text text-anchor="middle" x="843" y="-551" font-family="Helvetica,sans-Serif" font-size="10.00">operators_::SinTheta</text>
</a>
</g>
</g>
<!-- Node14&#45;&gt;Node23 -->
<g id="edge31_Node000014_Node000023" class="edge">
<title>Node14&#45;&gt;Node23</title>
<g id="a_edge31_Node000014_Node000023"><a xlink:title=" ">
<path fill="none" stroke="#63b8ff" d="M689.57,-431.04C702.17,-451.84 734.93,-501.66 775,-529.5 781.07,-533.72 787.96,-537.27 794.96,-540.25"/>
<polygon fill="#63b8ff" stroke="#63b8ff" points="793.91,-543.6 804.5,-543.95 796.44,-537.07 793.91,-543.6"/>
</a>
</g>
</g>
<!-- Node16&#45;&gt;Node16 -->
<g id="edge16_Node000016_Node000016" class="edge">
<title>Node16&#45;&gt;Node16</title>
<g id="a_edge16_Node000016_Node000016"><a xlink:title=" ">
<path fill="none" stroke="#63b8ff" d="M977.16,-261.08C969.21,-269.73 974.66,-279 993.5,-279 1005.27,-279 1011.82,-275.38 1013.13,-270.55"/>
<polygon fill="#63b8ff" stroke="#63b8ff" points="1016.43,-269.38 1009.84,-261.08 1009.81,-271.68 1016.43,-269.38"/>
</a>
</g>
</g>
<!-- Node17 -->
<g id="Node000017" class="node">
<title>Node17</title>
<g id="a_Node000017"><a xlink:href="utils_8cxx.html#a9c1cdc6384bce6bdc92ca917b3f656bf" target="_top" xlink:title=" ">
<polygon fill="white" stroke="#666666" points="1126,-288 1076,-288 1076,-269 1126,-269 1126,-288"/>
<text text-anchor="middle" x="1101" y="-276" font-family="Helvetica,sans-Serif" font-size="10.00">format</text>
</a>
</g>
</g>
<!-- Node16&#45;&gt;Node17 -->
<g id="edge17_Node000016_Node000017" class="edge">
<title>Node16&#45;&gt;Node17</title>
<g id="a_edge17_Node000016_Node000017"><a xlink:title=" ">
<path fill="none" stroke="#63b8ff" d="M1031.7,-261.02C1042.96,-263.9 1055.26,-267.05 1066.29,-269.87"/>
<polygon fill="#63b8ff" stroke="#63b8ff" points="1065.43,-273.26 1075.98,-272.35 1067.16,-266.48 1065.43,-273.26"/>
</a>
</g>
</g>
<!-- Node18&#45;&gt;Node17 -->
<g id="edge20_Node000018_Node000017" class="edge">
<title>Node18&#45;&gt;Node17</title>
<g id="a_edge20_Node000018_Node000017"><a xlink:title=" ">
<path fill="none" stroke="#63b8ff" d="M1005.99,-372.93C1015.36,-365.01 1028.82,-353.33 1040,-342.5 1055.62,-327.38 1072.47,-309.22 1084.33,-296.12"/>
<polygon fill="#63b8ff" stroke="#63b8ff" points="1087.26,-298.1 1091.34,-288.32 1082.05,-293.42 1087.26,-298.1"/>
</a>
</g>
</g>
<!-- Node18&#45;&gt;Node18 -->
<g id="edge19_Node000018_Node000018" class="edge">
<title>Node18&#45;&gt;Node18</title>
<g id="a_edge19_Node000018_Node000018"><a xlink:title=" ">
<path fill="none" stroke="#63b8ff" d="M977.16,-392.08C969.21,-400.73 974.66,-410 993.5,-410 1005.27,-410 1011.82,-406.38 1013.13,-401.55"/>
<polygon fill="#63b8ff" stroke="#63b8ff" points="1016.43,-400.38 1009.84,-392.08 1009.81,-402.68 1016.43,-400.38"/>
</a>
</g>
</g>
<!-- Node20&#45;&gt;Node13 -->
<g id="edge23_Node000020_Node000013" class="edge">
<title>Node20&#45;&gt;Node13</title>
<g id="a_edge23_Node000020_Node000013"><a xlink:title=" ">
<path fill="none" stroke="#63b8ff" d="M878.51,-444.3C889.91,-447.01 901.98,-451.63 911,-459.5 962.29,-504.22 982.57,-587.25 989.44,-625.39"/>
<polygon fill="#63b8ff" stroke="#63b8ff" points="986.06,-626.41 991.16,-635.7 992.97,-625.26 986.06,-626.41"/>
</a>
</g>
</g>
<!-- Node21&#45;&gt;Node17 -->
<g id="edge25_Node000021_Node000017" class="edge">
<title>Node21&#45;&gt;Node17</title>
<g id="a_edge25_Node000021_Node000017"><a xlink:title=" ">
<path fill="none" stroke="#63b8ff" d="M1030.51,-296.94C1041.94,-293.91 1054.53,-290.57 1065.82,-287.57"/>
<polygon fill="#63b8ff" stroke="#63b8ff" points="1066.99,-290.88 1075.76,-284.93 1065.19,-284.12 1066.99,-290.88"/>
</a>
</g>
</g>
<!-- Node21&#45;&gt;Node21 -->
<g id="edge26_Node000021_Node000021" class="edge">
<title>Node21&#45;&gt;Node21</title>
<g id="a_edge26_Node000021_Node000021"><a xlink:title=" ">
<path fill="none" stroke="#63b8ff" d="M977.16,-316.08C969.21,-324.73 974.66,-334 993.5,-334 1005.27,-334 1011.82,-330.38 1013.13,-325.55"/>
<polygon fill="#63b8ff" stroke="#63b8ff" points="1016.43,-324.38 1009.84,-316.08 1009.81,-326.68 1016.43,-324.38"/>
</a>
</g>
</g>
<!-- Node22&#45;&gt;Node17 -->
<g id="edge29_Node000022_Node000017" class="edge">
<title>Node22&#45;&gt;Node17</title>
<g id="a_edge29_Node000022_Node000017"><a xlink:title=" ">
<path fill="none" stroke="#63b8ff" d="M1007.02,-206.23C1024.86,-220.1 1057.83,-245.73 1079.34,-262.44"/>
<polygon fill="#63b8ff" stroke="#63b8ff" points="1077.46,-265.41 1087.5,-268.78 1081.75,-259.88 1077.46,-265.41"/>
</a>
</g>
</g>
<!-- Node22&#45;&gt;Node22 -->
<g id="edge30_Node000022_Node000022" class="edge">
<title>Node22&#45;&gt;Node22</title>
<g id="a_edge30_Node000022_Node000022"><a xlink:title=" ">
<path fill="none" stroke="#63b8ff" d="M977.16,-206.08C969.21,-214.73 974.66,-224 993.5,-224 1005.27,-224 1011.82,-220.38 1013.13,-215.55"/>
<polygon fill="#63b8ff" stroke="#63b8ff" points="1016.43,-214.38 1009.84,-206.08 1009.81,-216.68 1016.43,-214.38"/>
</a>
</g>
</g>
<!-- Node24&#45;&gt;Node11 -->
<g id="edge37_Node000024_Node000011" class="edge">
<title>Node24&#45;&gt;Node11</title>
<g id="a_edge37_Node000024_Node000011"><a xlink:title=" ">
<path fill="none" stroke="#63b8ff" d="M694.17,-730.07C710.24,-744.76 742.99,-773.02 775,-790.5 782.64,-794.67 791.15,-798.36 799.47,-801.53"/>
<polygon fill="#63b8ff" stroke="#63b8ff" points="798.49,-804.89 809.08,-804.99 800.86,-798.31 798.49,-804.89"/>
</a>
</g>
</g>
<!-- Node24&#45;&gt;Node13 -->
<g id="edge38_Node000024_Node000013" class="edge">
<title>Node24&#45;&gt;Node13</title>
<g id="a_edge38_Node000024_Node000013"><a xlink:title=" ">
<path fill="none" stroke="#63b8ff" d="M701.32,-730.08C740.82,-750.55 839.65,-793.82 911,-757.5 949.41,-737.95 973.98,-690.88 985.27,-664.41"/>
<polygon fill="#63b8ff" stroke="#63b8ff" points="988.54,-665.65 989.06,-655.07 982.06,-663.01 988.54,-665.65"/>
</a>
</g>
</g>
<!-- Node25 -->
<g id="Node000025" class="node">
<title>Node25</title>
<g id="a_Node000025"><a xlink:href="namespaceoperators__.html#a3d017da3c5169dfb4e1ca5da7cae0703" target="_top" xlink:title="Computes the cofactor matrix of a given matrix.">
<polygon fill="white" stroke="#666666" points="904,-748 782,-748 782,-729 904,-729 904,-748"/>
<text text-anchor="middle" x="843" y="-736" font-family="Helvetica,sans-Serif" font-size="10.00">operators_::CoFactors</text>
</a>
</g>
</g>
<!-- Node24&#45;&gt;Node25 -->
<g id="edge33_Node000024_Node000025" class="edge">
<title>Node24&#45;&gt;Node25</title>
<g id="a_edge33_Node000024_Node000025"><a xlink:title=" ">
<path fill="none" stroke="#63b8ff" d="M739.26,-726.8C749.82,-728 761.01,-729.27 771.96,-730.52"/>
<polygon fill="#63b8ff" stroke="#63b8ff" points="771.59,-734 781.93,-731.66 772.39,-727.05 771.59,-734"/>
</a>
</g>
</g>
<!-- Node26 -->
<g id="Node000026" class="node">
<title>Node26</title>
<g id="a_Node000026"><a xlink:href="namespaceoperators__.html#a123a2d44cfea06825875800ebf21ae0d" target="_top" xlink:title="Computes the determinant of a matrix.">
<polygon fill="white" stroke="#666666" points="911,-711 775,-711 775,-692 911,-692 911,-711"/>
<text text-anchor="middle" x="843" y="-699" font-family="Helvetica,sans-Serif" font-size="10.00">operators_::Determinant</text>
</a>
</g>
</g>
<!-- Node24&#45;&gt;Node26 -->
<g id="edge34_Node000024_Node000026" class="edge">
<title>Node24&#45;&gt;Node26</title>
<g id="a_edge34_Node000024_Node000026"><a xlink:title=" ">
<path fill="none" stroke="#63b8ff" d="M739.26,-713.85C747.51,-712.86 756.14,-711.82 764.75,-710.79"/>
<polygon fill="#63b8ff" stroke="#63b8ff" points="765.3,-714.25 774.81,-709.58 764.46,-707.3 765.3,-714.25"/>
</a>
</g>
</g>
<!-- Node27 -->
<g id="Node000027" class="node">
<title>Node27</title>
<g id="a_Node000027"><a xlink:href="nusol_2tensor_2nusol_8cxx.html#aae1454f2383ba884c21b646a772061b0" target="_top" xlink:title=" ">
<polygon fill="white" stroke="#666666" points="895,-674 791,-674 791,-655 895,-655 895,-674"/>
<text text-anchor="middle" x="843" y="-662" font-family="Helvetica,sans-Serif" font-size="10.00">HorizontalVertical</text>
</a>
</g>
</g>
<!-- Node24&#45;&gt;Node27 -->
<g id="edge35_Node000024_Node000027" class="edge">
<title>Node24&#45;&gt;Node27</title>
<g id="a_edge35_Node000024_Node000027"><a xlink:title=" ">
<path fill="none" stroke="#63b8ff" d="M705.81,-710.84C724.09,-702.94 750.97,-691.76 775,-683.5 781.61,-681.23 788.64,-679.01 795.58,-676.95"/>
<polygon fill="#63b8ff" stroke="#63b8ff" points="796.98,-680.18 805.61,-674.03 795.03,-673.46 796.98,-680.18"/>
</a>
</g>
</g>
<!-- Node28 -->
<g id="Node000028" class="node">
<title>Node28</title>
<g id="a_Node000028"><a xlink:href="nusol_2tensor_2nusol_8cxx.html#acf51fdc50b75894636c847810af38706" target="_top" xlink:title=" ">
<polygon fill="white" stroke="#666666" points="880,-637 806,-637 806,-618 880,-618 880,-637"/>
<text text-anchor="middle" x="843" y="-625" font-family="Helvetica,sans-Serif" font-size="10.00">Intersecting</text>
</a>
</g>
</g>
<!-- Node24&#45;&gt;Node28 -->
<g id="edge36_Node000024_Node000028" class="edge">
<title>Node24&#45;&gt;Node28</title>
<g id="a_edge36_Node000024_Node000028"><a xlink:title=" ">
<path fill="none" stroke="#63b8ff" d="M693.15,-710.85C708.59,-695.12 741.4,-663.97 775,-646.5 781.56,-643.09 788.82,-640.22 796.06,-637.83"/>
<polygon fill="#63b8ff" stroke="#63b8ff" points="797.29,-641.12 805.85,-634.87 795.27,-634.42 797.29,-641.12"/>
</a>
</g>
</g>
<!-- Node29 -->
<g id="Node000029" class="node">
<title>Node29</title>
<g id="a_Node000029"><a xlink:href="nusol_2tensor_2nusol_8cxx.html#af09f8e81392582428eefa4b074f3f098" target="_top" xlink:title=" ">
<polygon fill="white" stroke="#666666" points="869.5,-600 816.5,-600 816.5,-581 869.5,-581 869.5,-600"/>
<text text-anchor="middle" x="843" y="-588" font-family="Helvetica,sans-Serif" font-size="10.00">Parallel</text>
</a>
</g>
</g>
<!-- Node24&#45;&gt;Node29 -->
<g id="edge39_Node000024_Node000029" class="edge">
<title>Node24&#45;&gt;Node29</title>
<g id="a_edge39_Node000024_Node000029"><a xlink:title=" ">
<path fill="none" stroke="#63b8ff" d="M689.17,-710.81C701.22,-689.2 733.32,-636.82 775,-609.5 784.35,-603.37 795.68,-599.19 806.35,-596.35"/>
<polygon fill="#63b8ff" stroke="#63b8ff" points="807.35,-599.71 816.29,-594.02 805.75,-592.9 807.35,-599.71"/>
</a>
</g>
</g>
<!-- Node31 -->
<g id="Node000031" class="node">
<title>Node31</title>
<g id="a_Node000031"><a xlink:href="namespacetransform__.html#aa90019603231f23c1e857b5f5832b587" target="_top" xlink:title="Computes the azimuthal angle (Phi) from a momentum tensor.">
<polygon fill="white" stroke="#666666" points="888.5,-56 797.5,-56 797.5,-37 888.5,-37 888.5,-56"/>
<text text-anchor="middle" x="843" y="-44" font-family="Helvetica,sans-Serif" font-size="10.00">transform_::Phi</text>
</a>
</g>
</g>
<!-- Node30&#45;&gt;Node31 -->
<g id="edge42_Node000030_Node000031" class="edge">
<title>Node30&#45;&gt;Node31</title>
<g id="a_edge42_Node000030_Node000031"><a xlink:title=" ">
<path fill="none" stroke="#63b8ff" d="M698.97,-128.91C716.87,-117.54 747.83,-98.14 775,-82.5 787.73,-75.17 802.05,-67.41 814.18,-60.98"/>
<polygon fill="#63b8ff" stroke="#63b8ff" points="816.14,-63.9 823.35,-56.14 812.88,-57.71 816.14,-63.9"/>
</a>
</g>
</g>
<!-- Node33 -->
<g id="Node000033" class="node">
<title>Node33</title>
<g id="a_Node000033"><a xlink:href="nusol_2tensor_2nusol_8cxx.html#acf38ad4d8eeaff43568c7ef70cf2b815" target="_top" xlink:title=" ">
<polygon fill="white" stroke="#666666" points="861.5,-337 824.5,-337 824.5,-318 861.5,-318 861.5,-337"/>
<text text-anchor="middle" x="843" y="-325" font-family="Helvetica,sans-Serif" font-size="10.00">Pi_2</text>
</a>
</g>
</g>
<!-- Node30&#45;&gt;Node33 -->
<g id="edge45_Node000030_Node000033" class="edge">
<title>Node30&#45;&gt;Node33</title>
<g id="a_edge45_Node000030_Node000033"><a xlink:title=" ">
<path fill="none" stroke="#63b8ff" d="M692.05,-148.13C717.19,-178.2 794.49,-270.67 827.17,-309.76"/>
<polygon fill="#63b8ff" stroke="#63b8ff" points="824.68,-312.23 833.77,-317.66 830.05,-307.74 824.68,-312.23"/>
</a>
</g>
</g>
<!-- Node34 -->
<g id="Node000034" class="node">
<title>Node34</title>
<g id="a_Node000034"><a xlink:href="namespaceoperators__.html#a7ce1f1b4f84306a157386ac5fd54ea1a" target="_top" xlink:title="Computes the rotation matrix around the X&#45;axis.">
<polygon fill="white" stroke="#666666" points="886.5,-19 799.5,-19 799.5,0 886.5,0 886.5,-19"/>
<text text-anchor="middle" x="843" y="-7" font-family="Helvetica,sans-Serif" font-size="10.00">operators_::Rx</text>
</a>
</g>
</g>
<!-- Node30&#45;&gt;Node34 -->
<g id="edge47_Node000030_Node000034" class="edge">
<title>Node30&#45;&gt;Node34</title>
<g id="a_edge47_Node000030_Node000034"><a xlink:title=" ">
<path fill="none" stroke="#63b8ff" d="M689.15,-128.77C701.14,-107.08 733.13,-54.53 775,-27.5 779.55,-24.56 784.58,-22.1 789.76,-20.04"/>
<polygon fill="#63b8ff" stroke="#63b8ff" points="790.92,-23.34 799.21,-16.74 788.61,-16.73 790.92,-23.34"/>
</a>
</g>
</g>
<!-- Node35 -->
<g id="Node000035" class="node">
<title>Node35</title>
<g id="a_Node000035"><a xlink:href="namespaceoperators__.html#a7f4dbc7ab056202b3b43d621f6c8df50" target="_top" xlink:title="Computes the rotation matrix around the Y&#45;axis.">
<polygon fill="white" stroke="#666666" points="886.5,-148 799.5,-148 799.5,-129 886.5,-129 886.5,-148"/>
<text text-anchor="middle" x="843" y="-136" font-family="Helvetica,sans-Serif" font-size="10.00">operators_::Ry</text>
</a>
</g>
</g>
<!-- Node30&#45;&gt;Node35 -->
<g id="edge48_Node000030_Node000035" class="edge">
<title>Node30&#45;&gt;Node35</title>
<g id="a_edge48_Node000030_Node000035"><a xlink:title=" ">
<path fill="none" stroke="#63b8ff" d="M712.25,-138.5C733.64,-138.5 763.64,-138.5 789.41,-138.5"/>
<polygon fill="#63b8ff" stroke="#63b8ff" points="789.42,-142 799.42,-138.5 789.42,-135 789.42,-142"/>
</a>
</g>
</g>
<!-- Node36 -->
<g id="Node000036" class="node">
<title>Node36</title>
<g id="a_Node000036"><a xlink:href="namespaceoperators__.html#a38a28124e97111d3a1f2809ce2039769" target="_top" xlink:title="Computes the rotation matrix around the Z&#45;axis.">
<polygon fill="white" stroke="#666666" points="886,-111 800,-111 800,-92 886,-92 886,-111"/>
<text text-anchor="middle" x="843" y="-99" font-family="Helvetica,sans-Serif" font-size="10.00">operators_::Rz</text>
</a>
</g>
</g>
<!-- Node30&#45;&gt;Node36 -->
<g id="edge49_Node000030_Node000036" class="edge">
<title>Node30&#45;&gt;Node36</title>
<g id="a_edge49_Node000030_Node000036"><a xlink:title=" ">
<path fill="none" stroke="#63b8ff" d="M712.25,-131.89C734.21,-126.74 765.24,-119.48 791.45,-113.34"/>
<polygon fill="#63b8ff" stroke="#63b8ff" points="792.29,-116.74 801.23,-111.05 790.69,-109.92 792.29,-116.74"/>
</a>
</g>
</g>
<!-- Node37 -->
<g id="Node000037" class="node">
<title>Node37</title>
<g id="a_Node000037"><a xlink:href="namespacephysics__.html#a6d323b672a05eb19edce0b4d818bdb7f" target="_top" xlink:title="Computes the polar angle theta.">
<polygon fill="white" stroke="#666666" points="889,-185 797,-185 797,-166 889,-166 889,-185"/>
<text text-anchor="middle" x="843" y="-173" font-family="Helvetica,sans-Serif" font-size="10.00">physics_::Theta</text>
</a>
</g>
</g>
<!-- Node30&#45;&gt;Node37 -->
<g id="edge50_Node000030_Node000037" class="edge">
<title>Node30&#45;&gt;Node37</title>
<g id="a_edge50_Node000030_Node000037"><a xlink:title=" ">
<path fill="none" stroke="#63b8ff" d="M712.25,-145.11C734.21,-150.26 765.24,-157.52 791.45,-163.66"/>
<polygon fill="#63b8ff" stroke="#63b8ff" points="790.69,-167.08 801.23,-165.95 792.29,-160.26 790.69,-167.08"/>
</a>
</g>
</g>
<!-- Node31&#45;&gt;Node31 -->
<g id="edge44_Node000031_Node000031" class="edge">
<title>Node31&#45;&gt;Node31</title>
<g id="a_edge44_Node000031_Node000031"><a xlink:title=" ">
<path fill="none" stroke="#63b8ff" d="M819.88,-56.08C808.63,-64.73 816.34,-74 843,-74 860.5,-74 869.83,-70.01 871,-64.82"/>
<polygon fill="#63b8ff" stroke="#63b8ff" points="874.05,-63.11 866.12,-56.08 867.94,-66.52 874.05,-63.11"/>
</a>
</g>
</g>
<!-- Node32 -->
<g id="Node000032" class="node">
<title>Node32</title>
<g id="a_Node000032"><a xlink:href="utils_8cxx.html#aaec9ca2d20716add3c686abd989934d0" target="_top" xlink:title=" ">
<polygon fill="white" stroke="#666666" points="1010.5,-56 976.5,-56 976.5,-37 1010.5,-37 1010.5,-56"/>
<text text-anchor="middle" x="993.5" y="-44" font-family="Helvetica,sans-Serif" font-size="10.00">clip</text>
</a>
</g>
</g>
<!-- Node31&#45;&gt;Node32 -->
<g id="edge43_Node000031_Node000032" class="edge">
<title>Node31&#45;&gt;Node32</title>
<g id="a_edge43_Node000031_Node000032"><a xlink:title=" ">
<path fill="none" stroke="#63b8ff" d="M888.55,-46.5C913.99,-46.5 944.99,-46.5 966.48,-46.5"/>
<polygon fill="#63b8ff" stroke="#63b8ff" points="966.49,-50 976.49,-46.5 966.49,-43 966.49,-50"/>
</a>
</g>
</g>
<!-- Node33&#45;&gt;Node13 -->
<g id="edge46_Node000033_Node000013" class="edge">
<title>Node33&#45;&gt;Node13</title>
<g id="a_edge46_Node000033_Node000013"><a xlink:title=" ">
<path fill="none" stroke="#63b8ff" d="M861.77,-327.6C876.85,-328.65 898.04,-332.57 911,-345.5 951.57,-385.96 980.9,-565.66 989.73,-625.81"/>
<polygon fill="#63b8ff" stroke="#63b8ff" points="986.3,-626.48 991.18,-635.88 993.22,-625.48 986.3,-626.48"/>
</a>
</g>
</g>
<!-- Node37&#45;&gt;Node22 -->
<g id="edge51_Node000037_Node000022" class="edge">
<title>Node37&#45;&gt;Node22</title>
<g id="a_edge51_Node000037_Node000022"><a xlink:title=" ">
<path fill="none" stroke="#63b8ff" d="M889.36,-181.91C907.93,-184.54 929.35,-187.57 947.85,-190.19"/>
<polygon fill="#63b8ff" stroke="#63b8ff" points="947.39,-193.66 957.78,-191.59 948.37,-186.72 947.39,-193.66"/>
</a>
</g>
</g>
</g>
</svg>
