<?xml version="1.0" encoding="UTF-8" standalone="no"?>
<!DOCTYPE svg PUBLIC "-//W3C//DTD SVG 1.1//EN"
 "http://www.w3.org/Graphics/SVG/1.1/DTD/svg11.dtd">
<!-- Generated by graphviz version 2.43.0 (0)
 -->
<!-- Title: graph_template::define_topology Pages: 1 -->
<svg width="338pt" height="392pt"
 viewBox="0.00 0.00 338.00 391.50" xmlns="http://www.w3.org/2000/svg" xmlns:xlink="http://www.w3.org/1999/xlink">

<svg id="main" version="1.1" xmlns="http://www.w3.org/2000/svg" xmlns:xlink="http://www.w3.org/1999/xlink" xml:space="preserve" onload="init(evt)">
<style type="text/css"><![CDATA[
.node, .edge {opacity: 0.7;}
.node.selected, .edge.selected {opacity: 1;}
.edge:hover path { stroke: red; }
.edge:hover polygon { stroke: red; fill: red; }
]]></style>
<script type="application/ecmascript" xlink:href="svg.min.js"/>
<svg id="graph" class="graph">
<g id="graph0" class="graph" transform="scale(1 1) rotate(0) translate(4 387.5)">
<title>graph_template::define_topology</title>
<!-- Node1 -->
<g id="Node000001" class="node">
<title>Node1</title>
<g id="a_Node000001"><a xlink:title="Defines the edge topology between nodes.">
<polygon fill="#999999" stroke="#666666" points="330,-201.5 200,-201.5 200,-171.5 330,-171.5 330,-201.5"/>
<text text-anchor="start" x="208" y="-189.5" font-family="Helvetica,sans-Serif" font-size="10.00">graph_template::define</text>
<text text-anchor="middle" x="265" y="-178.5" font-family="Helvetica,sans-Serif" font-size="10.00">_topology</text>
</a>
</g>
</g>
<!-- Node2 -->
<g id="Node000002" class="node">
<title>Node2</title>
<g id="a_Node000002"><a xlink:href="classgraph__template.html#aea3a1bee0125428e0c00dc0816e63d64" target="_top" xlink:title="Adds an edge&#45;level data feature.">
<polygon fill="white" stroke="#666666" points="141,-383.5 23,-383.5 23,-353.5 141,-353.5 141,-383.5"/>
<text text-anchor="start" x="31" y="-371.5" font-family="Helvetica,sans-Serif" font-size="10.00">graph_template::add</text>
<text text-anchor="middle" x="82" y="-360.5" font-family="Helvetica,sans-Serif" font-size="10.00">_edge_data_feature</text>
</a>
</g>
</g>
<!-- Node1&#45;&gt;Node2 -->
<g id="edge1_Node000001_Node000002" class="edge">
<title>Node1&#45;&gt;Node2</title>
<g id="a_edge1_Node000001_Node000002"><a xlink:title=" ">
<path fill="none" stroke="#63b8ff" d="M254.95,-211.1C240.88,-245.96 210.43,-309.4 164,-344.5 157.21,-349.63 149.35,-353.67 141.23,-356.84"/>
<polygon fill="#63b8ff" stroke="#63b8ff" points="258.26,-212.25 258.64,-201.66 251.74,-209.7 258.26,-212.25"/>
</a>
</g>
</g>
<!-- Node3 -->
<g id="Node000003" class="node">
<title>Node3</title>
<g id="a_Node000003"><a xlink:href="classgraph__template.html#aad0f9d28368afe4e7898dcc409ed10a1" target="_top" xlink:title="Adds an edge&#45;level truth feature.">
<polygon fill="white" stroke="#666666" points="141,-335.5 23,-335.5 23,-305.5 141,-305.5 141,-335.5"/>
<text text-anchor="start" x="31" y="-323.5" font-family="Helvetica,sans-Serif" font-size="10.00">graph_template::add</text>
<text text-anchor="middle" x="82" y="-312.5" font-family="Helvetica,sans-Serif" font-size="10.00">_edge_truth_feature</text>
</a>
</g>
</g>
<!-- Node1&#45;&gt;Node3 -->
<g id="edge2_Node000001_Node000003" class="edge">
<title>Node1&#45;&gt;Node3</title>
<g id="a_edge2_Node000001_Node000003"><a xlink:title=" ">
<path fill="none" stroke="#63b8ff" d="M248.39,-210.25C230.76,-235.24 199.82,-274.02 164,-296.5 157.04,-300.87 149.25,-304.47 141.33,-307.44"/>
<polygon fill="#63b8ff" stroke="#63b8ff" points="251.47,-211.94 254.26,-201.72 245.71,-207.97 251.47,-211.94"/>
</a>
</g>
</g>
<!-- Node4 -->
<g id="Node000004" class="node">
<title>Node4</title>
<g id="a_Node000004"><a xlink:href="classgraph__children.html#af069fe630b6bbf6ffacca8243761e829" target="_top" xlink:title="Compiles the event into a graph.">
<polygon fill="white" stroke="#666666" points="163.5,-287 0.5,-287 0.5,-268 163.5,-268 163.5,-287"/>
<text text-anchor="middle" x="82" y="-275" font-family="Helvetica,sans-Serif" font-size="10.00">graph_children::CompileEvent</text>
</a>
</g>
</g>
<!-- Node1&#45;&gt;Node4 -->
<g id="edge3_Node000001_Node000004" class="edge">
<title>Node1&#45;&gt;Node4</title>
<g id="a_edge3_Node000001_Node000004"><a xlink:title=" ">
<path fill="none" stroke="#63b8ff" d="M239.58,-208.33C220.32,-224.44 192.11,-245.7 164,-258.5 155.59,-262.33 146.32,-265.43 137.15,-267.93"/>
<polygon fill="#63b8ff" stroke="#63b8ff" points="241.92,-210.93 247.25,-201.78 237.37,-205.61 241.92,-210.93"/>
</a>
</g>
</g>
<!-- Node5 -->
<g id="Node000005" class="node">
<title>Node5</title>
<g id="a_Node000005"><a xlink:href="classgraph__truthjets.html#ad64c5a15f0406d8a6c9705d50934b81f" target="_top" xlink:title="Compiles the event into a graph.">
<polygon fill="white" stroke="#666666" points="150.5,-249.5 13.5,-249.5 13.5,-219.5 150.5,-219.5 150.5,-249.5"/>
<text text-anchor="start" x="21.5" y="-237.5" font-family="Helvetica,sans-Serif" font-size="10.00">graph_truthjets::Compile</text>
<text text-anchor="middle" x="82" y="-226.5" font-family="Helvetica,sans-Serif" font-size="10.00">Event</text>
</a>
</g>
</g>
<!-- Node1&#45;&gt;Node5 -->
<g id="edge4_Node000001_Node000005" class="edge">
<title>Node1&#45;&gt;Node5</title>
<g id="a_edge4_Node000001_Node000005"><a xlink:title=" ">
<path fill="none" stroke="#63b8ff" d="M197.45,-204.15C178.44,-209.19 157.92,-214.63 139.57,-219.5"/>
<polygon fill="#63b8ff" stroke="#63b8ff" points="198.46,-207.5 207.23,-201.56 196.66,-200.74 198.46,-207.5"/>
</a>
</g>
</g>
<!-- Node6 -->
<g id="Node000006" class="node">
<title>Node6</title>
<g id="a_Node000006"><a xlink:href="classgraph__truthjets__nonu.html#add03a6d564186c150f7c907737b77eeb" target="_top" xlink:title="Compiles the event into a graph.">
<polygon fill="white" stroke="#666666" points="142,-201.5 22,-201.5 22,-171.5 142,-171.5 142,-201.5"/>
<text text-anchor="start" x="30" y="-189.5" font-family="Helvetica,sans-Serif" font-size="10.00">graph_truthjets_nonu</text>
<text text-anchor="middle" x="82" y="-178.5" font-family="Helvetica,sans-Serif" font-size="10.00">::CompileEvent</text>
</a>
</g>
</g>
<!-- Node1&#45;&gt;Node6 -->
<g id="edge5_Node000001_Node000006" class="edge">
<title>Node1&#45;&gt;Node6</title>
<g id="a_edge5_Node000001_Node000006"><a xlink:title=" ">
<path fill="none" stroke="#63b8ff" d="M189.65,-186.5C173.82,-186.5 157.31,-186.5 142.14,-186.5"/>
<polygon fill="#63b8ff" stroke="#63b8ff" points="189.93,-190 199.93,-186.5 189.93,-183 189.93,-190"/>
</a>
</g>
</g>
<!-- Node7 -->
<g id="Node000007" class="node">
<title>Node7</title>
<g id="a_Node000007"><a xlink:href="classgraph__jets.html#a568114127973b28c968493e79ca67cd7" target="_top" xlink:title="Compiles the event into a graph.">
<polygon fill="white" stroke="#666666" points="153,-153 11,-153 11,-134 153,-134 153,-153"/>
<text text-anchor="middle" x="82" y="-141" font-family="Helvetica,sans-Serif" font-size="10.00">graph_jets::CompileEvent</text>
</a>
</g>
</g>
<!-- Node1&#45;&gt;Node7 -->
<g id="edge6_Node000001_Node000007" class="edge">
<title>Node1&#45;&gt;Node7</title>
<g id="a_edge6_Node000001_Node000007"><a xlink:title=" ">
<path fill="none" stroke="#63b8ff" d="M191.59,-169.07C182.31,-166.85 172.93,-164.62 164,-162.5 150.93,-159.4 136.67,-156.04 123.8,-153.03"/>
<polygon fill="#63b8ff" stroke="#63b8ff" points="191.06,-172.55 201.6,-171.47 192.69,-165.74 191.06,-172.55"/>
</a>
</g>
</g>
<!-- Node8 -->
<g id="Node000008" class="node">
<title>Node8</title>
<g id="a_Node000008"><a xlink:href="classgraph__jets__nonu.html#a3d76d9b5885af9d1ef9c2a150acc1300" target="_top" xlink:title="Compiles the event into a graph.">
<polygon fill="white" stroke="#666666" points="153.5,-115.5 10.5,-115.5 10.5,-85.5 153.5,-85.5 153.5,-115.5"/>
<text text-anchor="start" x="18.5" y="-103.5" font-family="Helvetica,sans-Serif" font-size="10.00">graph_jets_nonu::Compile</text>
<text text-anchor="middle" x="82" y="-92.5" font-family="Helvetica,sans-Serif" font-size="10.00">Event</text>
</a>
</g>
</g>
<!-- Node1&#45;&gt;Node8 -->
<g id="edge7_Node000001_Node000008" class="edge">
<title>Node1&#45;&gt;Node8</title>
<g id="a_edge7_Node000001_Node000008"><a xlink:title=" ">
<path fill="none" stroke="#63b8ff" d="M234.24,-165.64C214.9,-152.78 188.76,-136.66 164,-125.5 155.95,-121.87 147.22,-118.57 138.58,-115.64"/>
<polygon fill="#63b8ff" stroke="#63b8ff" points="232.37,-168.6 242.62,-171.3 236.29,-162.8 232.37,-168.6"/>
</a>
</g>
</g>
<!-- Node9 -->
<g id="Node000009" class="node">
<title>Node9</title>
<g id="a_Node000009"><a xlink:href="classgraph__jets__detector__lep.html#a8da8c93bcdece302cb06b34e6b9db801" target="_top" xlink:title="Compiles the event into a graph.">
<polygon fill="white" stroke="#666666" points="138.5,-67.5 25.5,-67.5 25.5,-37.5 138.5,-37.5 138.5,-67.5"/>
<text text-anchor="start" x="33.5" y="-55.5" font-family="Helvetica,sans-Serif" font-size="10.00">graph_jets_detector</text>
<text text-anchor="middle" x="82" y="-44.5" font-family="Helvetica,sans-Serif" font-size="10.00">_lep::CompileEvent</text>
</a>
</g>
</g>
<!-- Node1&#45;&gt;Node9 -->
<g id="edge8_Node000001_Node000009" class="edge">
<title>Node1&#45;&gt;Node9</title>
<g id="a_edge8_Node000001_Node000009"><a xlink:title=" ">
<path fill="none" stroke="#63b8ff" d="M248.39,-162.75C230.76,-137.76 199.82,-98.98 164,-76.5 156.3,-71.67 147.58,-67.77 138.78,-64.63"/>
<polygon fill="#63b8ff" stroke="#63b8ff" points="245.71,-165.03 254.26,-171.28 251.47,-161.06 245.71,-165.03"/>
</a>
</g>
</g>
<!-- Node10 -->
<g id="Node000010" class="node">
<title>Node10</title>
<g id="a_Node000010"><a xlink:href="classgraph__detector.html#a9524462481e7c9e42df5cf73f999737e" target="_top" xlink:title="Compiles the event into a graph.">
<polygon fill="white" stroke="#666666" points="164,-19 0,-19 0,0 164,0 164,-19"/>
<text text-anchor="middle" x="82" y="-7" font-family="Helvetica,sans-Serif" font-size="10.00">graph_detector::CompileEvent</text>
</a>
</g>
</g>
<!-- Node1&#45;&gt;Node10 -->
<g id="edge9_Node000001_Node000010" class="edge">
<title>Node1&#45;&gt;Node10</title>
<g id="a_edge9_Node000001_Node000010"><a xlink:title=" ">
<path fill="none" stroke="#63b8ff" d="M255.22,-161.54C241.47,-126.23 211.42,-62.25 164,-28.5 158.59,-24.65 152.5,-21.57 146.17,-19.1"/>
<polygon fill="#63b8ff" stroke="#63b8ff" points="252.02,-162.97 258.82,-171.1 258.57,-160.51 252.02,-162.97"/>
</a>
</g>
</g>
</g>
</svg>
</svg>

<style type='text/css'>
<![CDATA[
[data-mouse-over-selected='false'] { opacity: 0.7; }
[data-mouse-over-selected='true']  { opacity: 1.0; }
]]>
</style>
<script type="application/ecmascript"><![CDATA[
document.addEventListener('DOMContentLoaded', (event) => {
  highlightEdges();
  highlightAdjacentNodes();
});
]]></script>
</svg>
