<?xml version="1.0" encoding="UTF-8" standalone="no"?>
<!DOCTYPE svg PUBLIC "-//W3C//DTD SVG 1.1//EN"
 "http://www.w3.org/Graphics/SVG/1.1/DTD/svg11.dtd">
<!-- Generated by graphviz version 2.43.0 (0)
 -->
<!-- Title: metric_template::write Pages: 1 -->
<svg width="472pt" height="64pt"
 viewBox="0.00 0.00 472.00 64.00" xmlns="http://www.w3.org/2000/svg" xmlns:xlink="http://www.w3.org/1999/xlink">

<svg id="main" version="1.1" xmlns="http://www.w3.org/2000/svg" xmlns:xlink="http://www.w3.org/1999/xlink" xml:space="preserve" onload="init(evt)">
<style type="text/css"><![CDATA[
.node, .edge {opacity: 0.7;}
.node.selected, .edge.selected {opacity: 1;}
.edge:hover path { stroke: red; }
.edge:hover polygon { stroke: red; fill: red; }
]]></style>
<script type="application/ecmascript" xlink:href="svg.min.js"/>
<svg id="graph" class="graph">
<g id="graph0" class="graph" transform="scale(1 1) rotate(0) translate(4 60)">
<title>metric_template::write</title>
<!-- Node1 -->
<g id="Node000001" class="node">
<title>Node1</title>
<g id="a_Node000001"><a xlink:title=" ">
<polygon fill="#999999" stroke="#666666" points="464,-37 336,-37 336,-18 464,-18 464,-37"/>
<text text-anchor="middle" x="400" y="-25" font-family="Helvetica,sans-Serif" font-size="10.00">metric_template::write</text>
</a>
</g>
</g>
<!-- Node1&#45;&gt;Node1 -->
<g id="edge5_Node000001_Node000001" class="edge">
<title>Node1&#45;&gt;Node1</title>
<g id="a_edge5_Node000001_Node000001"><a xlink:title=" ">
<path fill="none" stroke="#63b8ff" d="M430.61,-45.82C429.33,-51.01 419.13,-55 400,-55 370.85,-55 362.43,-45.73 374.72,-37.08"/>
<polygon fill="#63b8ff" stroke="#63b8ff" points="433.48,-43.79 425.28,-37.08 427.5,-47.44 433.48,-43.79"/>
</a>
</g>
</g>
<!-- Node2 -->
<g id="Node000002" class="node">
<title>Node2</title>
<g id="a_Node000002"><a xlink:href="classaccuracy__metric.html#a92d1a978345aeb20733f4d0212129fda" target="_top" xlink:title=" ">
<polygon fill="white" stroke="#666666" points="295,-56 174,-56 174,-37 295,-37 295,-56"/>
<text text-anchor="middle" x="234.5" y="-44" font-family="Helvetica,sans-Serif" font-size="10.00">accuracy_metric::end</text>
</a>
</g>
</g>
<!-- Node1&#45;&gt;Node2 -->
<g id="edge1_Node000001_Node000002" class="edge">
<title>Node1&#45;&gt;Node2</title>
<g id="a_edge1_Node000001_Node000002"><a xlink:title=" ">
<path fill="none" stroke="#63b8ff" d="M325.64,-36.03C315.41,-37.21 305,-38.42 295.06,-39.58"/>
<polygon fill="#63b8ff" stroke="#63b8ff" points="326.26,-39.48 335.79,-34.85 325.45,-32.52 326.26,-39.48"/>
</a>
</g>
</g>
<!-- Node4 -->
<g id="Node000004" class="node">
<title>Node4</title>
<g id="a_Node000004"><a xlink:href="classaccuracy__metric.html#ad8b35afa20f2c8837be4279db06581bf" target="_top" xlink:title=" ">
<polygon fill="white" stroke="#666666" points="300,-19 169,-19 169,0 300,0 300,-19"/>
<text text-anchor="middle" x="234.5" y="-7" font-family="Helvetica,sans-Serif" font-size="10.00">accuracy_metric::event</text>
</a>
</g>
</g>
<!-- Node1&#45;&gt;Node4 -->
<g id="edge3_Node000001_Node000004" class="edge">
<title>Node1&#45;&gt;Node4</title>
<g id="a_edge3_Node000001_Node000004"><a xlink:title=" ">
<path fill="none" stroke="#63b8ff" d="M325.83,-19.44C317.27,-18.5 308.59,-17.55 300.17,-16.62"/>
<polygon fill="#63b8ff" stroke="#63b8ff" points="325.46,-22.93 335.79,-20.54 326.23,-15.97 325.46,-22.93"/>
</a>
</g>
</g>
<!-- Node3 -->
<g id="Node000003" class="node">
<title>Node3</title>
<g id="a_Node000003"><a xlink:href="classaccuracy__metric.html#a6842a48f1db5613338dbe0d86fcf9b0b" target="_top" xlink:title=" ">
<polygon fill="white" stroke="#666666" points="133,-42.5 0,-42.5 0,-12.5 133,-12.5 133,-42.5"/>
<text text-anchor="start" x="8" y="-30.5" font-family="Helvetica,sans-Serif" font-size="10.00">accuracy_metric::define</text>
<text text-anchor="middle" x="66.5" y="-19.5" font-family="Helvetica,sans-Serif" font-size="10.00">_metric</text>
</a>
</g>
</g>
<!-- Node2&#45;&gt;Node3 -->
<g id="edge2_Node000002_Node000003" class="edge">
<title>Node2&#45;&gt;Node3</title>
<g id="a_edge2_Node000002_Node000003"><a xlink:title=" ">
<path fill="none" stroke="#63b8ff" d="M163.62,-38.5C153.55,-37.35 143.22,-36.17 133.24,-35.02"/>
<polygon fill="#63b8ff" stroke="#63b8ff" points="163.24,-41.98 173.57,-39.64 164.03,-35.03 163.24,-41.98"/>
</a>
</g>
</g>
<!-- Node4&#45;&gt;Node3 -->
<g id="edge4_Node000004_Node000003" class="edge">
<title>Node4&#45;&gt;Node3</title>
<g id="a_edge4_Node000004_Node000003"><a xlink:title=" ">
<path fill="none" stroke="#63b8ff" d="M158.84,-17.6C150.24,-18.53 141.53,-19.47 133.07,-20.39"/>
<polygon fill="#63b8ff" stroke="#63b8ff" points="159.28,-21.07 168.84,-16.51 158.53,-14.11 159.28,-21.07"/>
</a>
</g>
</g>
</g>
</svg>
</svg>

<style type='text/css'>
<![CDATA[
[data-mouse-over-selected='false'] { opacity: 0.7; }
[data-mouse-over-selected='true']  { opacity: 1.0; }
]]>
</style>
<script type="application/ecmascript"><![CDATA[
document.addEventListener('DOMContentLoaded', (event) => {
  highlightEdges();
  highlightAdjacentNodes();
});
]]></script>
</svg>
