<?xml version="1.0" encoding="UTF-8" standalone="no"?>
<!DOCTYPE svg PUBLIC "-//W3C//DTD SVG 1.1//EN"
 "http://www.w3.org/Graphics/SVG/1.1/DTD/svg11.dtd">
<!-- Generated by graphviz version 2.43.0 (0)
 -->
<!-- Title: dataloader::shuffle Pages: 1 -->
<svg width="328pt" height="187pt"
 viewBox="0.00 0.00 328.00 186.50" xmlns="http://www.w3.org/2000/svg" xmlns:xlink="http://www.w3.org/1999/xlink">

<svg id="main" version="1.1" xmlns="http://www.w3.org/2000/svg" xmlns:xlink="http://www.w3.org/1999/xlink" xml:space="preserve" onload="init(evt)">
<style type="text/css"><![CDATA[
.node, .edge {opacity: 0.7;}
.node.selected, .edge.selected {opacity: 1;}
.edge:hover path { stroke: red; }
.edge:hover polygon { stroke: red; fill: red; }
]]></style>
<script type="application/ecmascript" xlink:href="svg.min.js"/>
<svg id="graph" class="graph">
<g id="graph0" class="graph" transform="scale(1 1) rotate(0) translate(4 182.5)">
<title>dataloader::shuffle</title>
<!-- Node1 -->
<g id="Node000001" class="node">
<title>Node1</title>
<g id="a_Node000001"><a xlink:title=" ">
<polygon fill="#999999" stroke="#666666" points="320,-93 212,-93 212,-74 320,-74 320,-93"/>
<text text-anchor="middle" x="266" y="-81" font-family="Helvetica,sans-Serif" font-size="10.00">dataloader::shuffle</text>
</a>
</g>
</g>
<!-- Node2 -->
<g id="Node000002" class="node">
<title>Node2</title>
<g id="a_Node000002"><a xlink:href="classdataloader.html#a086338e3e9670d253041f54888995611" target="_top" xlink:title=" ">
<polygon fill="white" stroke="#666666" points="147.5,-178.5 28.5,-178.5 28.5,-148.5 147.5,-148.5 147.5,-178.5"/>
<text text-anchor="start" x="36.5" y="-166.5" font-family="Helvetica,sans-Serif" font-size="10.00">dataloader::generate</text>
<text text-anchor="middle" x="88" y="-155.5" font-family="Helvetica,sans-Serif" font-size="10.00">_test_set</text>
</a>
</g>
</g>
<!-- Node1&#45;&gt;Node2 -->
<g id="edge1_Node000001_Node000002" class="edge">
<title>Node1&#45;&gt;Node2</title>
<g id="a_edge1_Node000001_Node000002"><a xlink:title=" ">
<path fill="none" stroke="#63b8ff" d="M244.1,-99.13C226.66,-111.54 200.75,-128.58 176,-139.5 167.11,-143.42 157.43,-146.85 147.85,-149.8"/>
<polygon fill="#63b8ff" stroke="#63b8ff" points="246.36,-101.81 252.4,-93.11 242.25,-96.15 246.36,-101.81"/>
</a>
</g>
</g>
<!-- Node3 -->
<g id="Node000003" class="node">
<title>Node3</title>
<g id="a_Node000003"><a xlink:href="classdataloader.html#ae243f6005ad6f4e2600b44d7ee6d40ed" target="_top" xlink:title=" ">
<polygon fill="white" stroke="#666666" points="163,-130 13,-130 13,-111 163,-111 163,-130"/>
<text text-anchor="middle" x="88" y="-118" font-family="Helvetica,sans-Serif" font-size="10.00">dataloader::get_k_train_set</text>
</a>
</g>
</g>
<!-- Node1&#45;&gt;Node3 -->
<g id="edge2_Node000001_Node000003" class="edge">
<title>Node1&#45;&gt;Node3</title>
<g id="a_edge2_Node000001_Node000003"><a xlink:title=" ">
<path fill="none" stroke="#63b8ff" d="M210.75,-95.14C199.28,-97.58 187.24,-100.14 176,-102.5 162.87,-105.26 148.61,-108.22 135.52,-110.93"/>
<polygon fill="#63b8ff" stroke="#63b8ff" points="211.6,-98.54 220.65,-93.03 210.14,-91.69 211.6,-98.54"/>
</a>
</g>
</g>
<!-- Node4 -->
<g id="Node000004" class="node">
<title>Node4</title>
<g id="a_Node000004"><a xlink:href="classdataloader.html#a132ebd49d79e9339c2aa96ba9cfd6bc7" target="_top" xlink:title=" ">
<polygon fill="white" stroke="#666666" points="176,-93 0,-93 0,-74 176,-74 176,-93"/>
<text text-anchor="middle" x="88" y="-81" font-family="Helvetica,sans-Serif" font-size="10.00">dataloader::get_k_validation_set</text>
</a>
</g>
</g>
<!-- Node1&#45;&gt;Node4 -->
<g id="edge3_Node000001_Node000004" class="edge">
<title>Node1&#45;&gt;Node4</title>
<g id="a_edge3_Node000001_Node000004"><a xlink:title=" ">
<path fill="none" stroke="#63b8ff" d="M201.5,-83.5C193.29,-83.5 184.76,-83.5 176.25,-83.5"/>
<polygon fill="#63b8ff" stroke="#63b8ff" points="201.72,-87 211.72,-83.5 201.72,-80 201.72,-87"/>
</a>
</g>
</g>
<!-- Node5 -->
<g id="Node000005" class="node">
<title>Node5</title>
<g id="a_Node000005"><a xlink:href="classdataloader.html#a84bde8e6c6771e1f86cec2eb22a1e0b1" target="_top" xlink:title=" ">
<polygon fill="white" stroke="#666666" points="155,-56 21,-56 21,-37 155,-37 155,-56"/>
<text text-anchor="middle" x="88" y="-44" font-family="Helvetica,sans-Serif" font-size="10.00">dataloader::get_random</text>
</a>
</g>
</g>
<!-- Node1&#45;&gt;Node5 -->
<g id="edge4_Node000001_Node000005" class="edge">
<title>Node1&#45;&gt;Node5</title>
<g id="a_edge4_Node000001_Node000005"><a xlink:title=" ">
<path fill="none" stroke="#63b8ff" d="M209.57,-71.85C185.4,-66.77 157.4,-60.88 134.48,-56.06"/>
<polygon fill="#63b8ff" stroke="#63b8ff" points="209.17,-75.34 219.68,-73.97 210.61,-68.49 209.17,-75.34"/>
</a>
</g>
</g>
<!-- Node6 -->
<g id="Node000006" class="node">
<title>Node6</title>
<g id="a_Node000006"><a xlink:href="classdataloader.html#a7a0c887638c888df9b55cbdf45c816c9" target="_top" xlink:title=" ">
<polygon fill="white" stroke="#666666" points="155.5,-19 20.5,-19 20.5,0 155.5,0 155.5,-19"/>
<text text-anchor="middle" x="88" y="-7" font-family="Helvetica,sans-Serif" font-size="10.00">dataloader::get_test_set</text>
</a>
</g>
</g>
<!-- Node1&#45;&gt;Node6 -->
<g id="edge5_Node000001_Node000006" class="edge">
<title>Node1&#45;&gt;Node6</title>
<g id="a_edge5_Node000001_Node000006"><a xlink:title=" ">
<path fill="none" stroke="#63b8ff" d="M244.21,-67.82C226.83,-55.42 200.95,-38.59 176,-28.5 166.54,-24.67 156.18,-21.56 146,-19.04"/>
<polygon fill="#63b8ff" stroke="#63b8ff" points="242.33,-70.78 252.47,-73.83 246.45,-65.12 242.33,-70.78"/>
</a>
</g>
</g>
</g>
</svg>
</svg>

<style type='text/css'>
<![CDATA[
[data-mouse-over-selected='false'] { opacity: 0.7; }
[data-mouse-over-selected='true']  { opacity: 1.0; }
]]>
</style>
<script type="application/ecmascript"><![CDATA[
document.addEventListener('DOMContentLoaded', (event) => {
  highlightEdges();
  highlightAdjacentNodes();
});
]]></script>
</svg>
