<?xml version="1.0" encoding="UTF-8" standalone="no"?>
<!DOCTYPE svg PUBLIC "-//W3C//DTD SVG 1.1//EN"
 "http://www.w3.org/Graphics/SVG/1.1/DTD/svg11.dtd">
<!-- Generated by graphviz version 2.43.0 (0)
 -->
<!-- Title: io::~io Pages: 1 -->
<svg width="273pt" height="64pt"
 viewBox="0.00 0.00 273.00 64.00" xmlns="http://www.w3.org/2000/svg" xmlns:xlink="http://www.w3.org/1999/xlink">
<g id="graph0" class="graph" transform="scale(1 1) rotate(0) translate(4 60)">
<title>io::~io</title>
<!-- Node1 -->
<g id="Node000001" class="node">
<title>Node1</title>
<g id="a_Node000001"><a xlink:title="Destructor for the io class.">
<polygon fill="#999999" stroke="#666666" points="49,-38 0,-38 0,-19 49,-19 49,-38"/>
<text text-anchor="middle" x="24.5" y="-26" font-family="Helvetica,sans-Serif" font-size="10.00">io::~io</text>
</a>
</g>
</g>
<!-- Node2 -->
<g id="Node000002" class="node">
<title>Node2</title>
<g id="a_Node000002"><a xlink:href="classio.html#a65ca69ec5f12d0f3a463396bcff84d77" target="_top" xlink:title="Ends the current I/O session, closing any open files.">
<polygon fill="white" stroke="#666666" points="255,-56 205,-56 205,-37 255,-37 255,-56"/>
<text text-anchor="middle" x="230" y="-44" font-family="Helvetica,sans-Serif" font-size="10.00">io::end</text>
</a>
</g>
</g>
<!-- Node1&#45;&gt;Node2 -->
<g id="edge1_Node000001_Node000002" class="edge">
<title>Node1&#45;&gt;Node2</title>
<g id="a_edge1_Node000001_Node000002"><a xlink:title=" ">
<path fill="none" stroke="#63b8ff" d="M49.24,-30.6C85.12,-33.77 153.34,-39.81 194.64,-43.46"/>
<polygon fill="#63b8ff" stroke="#63b8ff" points="194.51,-46.96 204.78,-44.36 195.13,-39.99 194.51,-46.96"/>
</a>
</g>
</g>
<!-- Node3 -->
<g id="Node000003" class="node">
<title>Node3</title>
<g id="a_Node000003"><a xlink:href="classio.html#a1c994985d2405202c19fb391cc43a5de" target="_top" xlink:title="Finalizes ROOT file processing, closing any ROOT files opened by root_begin.">
<polygon fill="white" stroke="#666666" points="159,-19 85,-19 85,0 159,0 159,-19"/>
<text text-anchor="middle" x="122" y="-7" font-family="Helvetica,sans-Serif" font-size="10.00">io::root_end</text>
</a>
</g>
</g>
<!-- Node1&#45;&gt;Node3 -->
<g id="edge2_Node000001_Node000003" class="edge">
<title>Node1&#45;&gt;Node3</title>
<g id="a_edge2_Node000001_Node000003"><a xlink:title=" ">
<path fill="none" stroke="#63b8ff" d="M49.11,-23.8C56.89,-22.25 65.84,-20.47 74.72,-18.71"/>
<polygon fill="#63b8ff" stroke="#63b8ff" points="75.53,-22.12 84.65,-16.73 74.16,-15.25 75.53,-22.12"/>
</a>
</g>
</g>
<!-- Node3&#45;&gt;Node2 -->
<g id="edge3_Node000003_Node000002" class="edge">
<title>Node3&#45;&gt;Node2</title>
<g id="a_edge3_Node000003_Node000002"><a xlink:title=" ">
<path fill="none" stroke="#63b8ff" d="M150.3,-19.03C163.95,-23.8 180.61,-29.61 195.08,-34.66"/>
<polygon fill="#63b8ff" stroke="#63b8ff" points="194.09,-38.02 204.69,-38.01 196.4,-31.41 194.09,-38.02"/>
</a>
</g>
</g>
<!-- Node4 -->
<g id="Node000004" class="node">
<title>Node4</title>
<g id="a_Node000004"><a xlink:href="classtools.html#abce97603aeadeaa04fa6c6ff6c721eda" target="_top" xlink:title="Empties a vector and all objects it points to.">
<polygon fill="white" stroke="#666666" points="265,-19 195,-19 195,0 265,0 265,-19"/>
<text text-anchor="middle" x="230" y="-7" font-family="Helvetica,sans-Serif" font-size="10.00">tools::flush</text>
</a>
</g>
</g>
<!-- Node3&#45;&gt;Node4 -->
<g id="edge4_Node000003_Node000004" class="edge">
<title>Node3&#45;&gt;Node4</title>
<g id="a_edge4_Node000003_Node000004"><a xlink:title=" ">
<path fill="none" stroke="#63b8ff" d="M159.18,-9.5C167.37,-9.5 176.15,-9.5 184.63,-9.5"/>
<polygon fill="#63b8ff" stroke="#63b8ff" points="184.77,-13 194.77,-9.5 184.77,-6 184.77,-13"/>
</a>
</g>
</g>
</g>
</svg>
