<?xml version="1.0" encoding="UTF-8" standalone="no"?>
<!DOCTYPE svg PUBLIC "-//W3C//DTD SVG 1.1//EN"
 "http://www.w3.org/Graphics/SVG/1.1/DTD/svg11.dtd">
<!-- Generated by graphviz version 2.43.0 (0)
 -->
<!-- Title: meta::get_tags Pages: 1 -->
<svg width="309pt" height="27pt"
 viewBox="0.00 0.00 309.00 27.00" xmlns="http://www.w3.org/2000/svg" xmlns:xlink="http://www.w3.org/1999/xlink">
<g id="graph0" class="graph" transform="scale(1 1) rotate(0) translate(4 23)">
<title>meta::get_tags</title>
<!-- Node1 -->
<g id="Node000001" class="node">
<title>Node1</title>
<g id="a_Node000001"><a xlink:title="Retrieves tags based on a hash.">
<polygon fill="#999999" stroke="#666666" points="90,-19 0,-19 0,0 90,0 90,-19"/>
<text text-anchor="middle" x="45" y="-7" font-family="Helvetica,sans-Serif" font-size="10.00">meta::get_tags</text>
</a>
</g>
</g>
<!-- Node2 -->
<g id="Node000002" class="node">
<title>Node2</title>
<g id="a_Node000002"><a xlink:href="classmeta.html#a35d142708b4b66eeb857eb0c204e459b" target="_top" xlink:title="Generates a hash for a given filename.">
<polygon fill="white" stroke="#666666" points="197,-19 126,-19 126,0 197,0 197,-19"/>
<text text-anchor="middle" x="161.5" y="-7" font-family="Helvetica,sans-Serif" font-size="10.00">meta::hash</text>
</a>
</g>
</g>
<!-- Node1&#45;&gt;Node2 -->
<g id="edge1_Node000001_Node000002" class="edge">
<title>Node1&#45;&gt;Node2</title>
<g id="a_edge1_Node000001_Node000002"><a xlink:title=" ">
<path fill="none" stroke="#63b8ff" d="M90.27,-9.5C98.68,-9.5 107.49,-9.5 115.91,-9.5"/>
<polygon fill="#63b8ff" stroke="#63b8ff" points="115.94,-13 125.94,-9.5 115.94,-6 115.94,-13"/>
</a>
</g>
</g>
<!-- Node3 -->
<g id="Node000003" class="node">
<title>Node3</title>
<g id="a_Node000003"><a xlink:href="classtools.html#a352a6965f2f3c768f0f4ecd1f978fcc0" target="_top" xlink:title="Splits a string into a vector of substrings based on a delimiter.">
<polygon fill="white" stroke="#666666" points="301,-19 233,-19 233,0 301,0 301,-19"/>
<text text-anchor="middle" x="267" y="-7" font-family="Helvetica,sans-Serif" font-size="10.00">tools::split</text>
</a>
</g>
</g>
<!-- Node2&#45;&gt;Node3 -->
<g id="edge2_Node000002_Node000003" class="edge">
<title>Node2&#45;&gt;Node3</title>
<g id="a_edge2_Node000002_Node000003"><a xlink:title=" ">
<path fill="none" stroke="#63b8ff" d="M197.25,-9.5C205.44,-9.5 214.26,-9.5 222.76,-9.5"/>
<polygon fill="#63b8ff" stroke="#63b8ff" points="222.92,-13 232.92,-9.5 222.92,-6 222.92,-13"/>
</a>
</g>
</g>
</g>
</svg>
