<?xml version="1.0" encoding="UTF-8" standalone="no"?>
<!DOCTYPE svg PUBLIC "-//W3C//DTD SVG 1.1//EN"
 "http://www.w3.org/Graphics/SVG/1.1/DTD/svg11.dtd">
<!-- Generated by graphviz version 2.43.0 (0)
 -->
<!-- Title: lossfx::build_optimizer Pages: 1 -->
<svg width="294pt" height="249pt"
 viewBox="0.00 0.00 294.00 249.00" xmlns="http://www.w3.org/2000/svg" xmlns:xlink="http://www.w3.org/1999/xlink">
<g id="graph0" class="graph" transform="scale(1 1) rotate(0) translate(4 245)">
<title>lossfx::build_optimizer</title>
<!-- Node1 -->
<g id="Node000001" class="node">
<title>Node1</title>
<g id="a_Node000001"><a xlink:title=" ">
<polygon fill="#999999" stroke="#666666" points="128,-130 0,-130 0,-111 128,-111 128,-130"/>
<text text-anchor="middle" x="64" y="-118" font-family="Helvetica,sans-Serif" font-size="10.00">lossfx::build_optimizer</text>
</a>
</g>
</g>
<!-- Node2 -->
<g id="Node000002" class="node">
<title>Node2</title>
<g id="a_Node000002"><a xlink:href="classlossfx.html#a07ff248174aba99522c667988ac6ea88" target="_top" xlink:title=" ">
<polygon fill="white" stroke="#666666" points="285.5,-241 164.5,-241 164.5,-222 285.5,-222 285.5,-241"/>
<text text-anchor="middle" x="225" y="-229" font-family="Helvetica,sans-Serif" font-size="10.00">lossfx::build_adagrad</text>
</a>
</g>
</g>
<!-- Node1&#45;&gt;Node2 -->
<g id="edge1_Node000001_Node000002" class="edge">
<title>Node1&#45;&gt;Node2</title>
<g id="a_edge1_Node000001_Node000002"><a xlink:title=" ">
<path fill="none" stroke="#63b8ff" d="M72.63,-130.2C87.95,-149.03 124.36,-190.66 164,-213.5 167.01,-215.24 170.21,-216.82 173.49,-218.26"/>
<polygon fill="#63b8ff" stroke="#63b8ff" points="172.33,-221.56 182.92,-221.96 174.89,-215.05 172.33,-221.56"/>
</a>
</g>
</g>
<!-- Node3 -->
<g id="Node000003" class="node">
<title>Node3</title>
<g id="a_Node000003"><a xlink:href="classlossfx.html#aacba578f0f439b9346ac23d54dbbcf15" target="_top" xlink:title=" ">
<polygon fill="white" stroke="#666666" points="279.5,-204 170.5,-204 170.5,-185 279.5,-185 279.5,-204"/>
<text text-anchor="middle" x="225" y="-192" font-family="Helvetica,sans-Serif" font-size="10.00">lossfx::build_adam</text>
</a>
</g>
</g>
<!-- Node1&#45;&gt;Node3 -->
<g id="edge2_Node000001_Node000003" class="edge">
<title>Node1&#45;&gt;Node3</title>
<g id="a_edge2_Node000001_Node000003"><a xlink:title=" ">
<path fill="none" stroke="#63b8ff" d="M79.56,-130.12C98.41,-142.24 132.58,-163.1 164,-176.5 168.4,-178.37 173.05,-180.14 177.74,-181.77"/>
<polygon fill="#63b8ff" stroke="#63b8ff" points="176.77,-185.13 187.37,-184.93 178.96,-178.48 176.77,-185.13"/>
</a>
</g>
</g>
<!-- Node4 -->
<g id="Node000004" class="node">
<title>Node4</title>
<g id="a_Node000004"><a xlink:href="classlossfx.html#a325d4d01cb1010736fc2a21b781e192b" target="_top" xlink:title=" ">
<polygon fill="white" stroke="#666666" points="283.5,-167 166.5,-167 166.5,-148 283.5,-148 283.5,-167"/>
<text text-anchor="middle" x="225" y="-155" font-family="Helvetica,sans-Serif" font-size="10.00">lossfx::build_adamw</text>
</a>
</g>
</g>
<!-- Node1&#45;&gt;Node4 -->
<g id="edge3_Node000001_Node000004" class="edge">
<title>Node1&#45;&gt;Node4</title>
<g id="a_edge3_Node000001_Node000004"><a xlink:title=" ">
<path fill="none" stroke="#63b8ff" d="M105.95,-130.03C126.36,-134.78 151.25,-140.57 172.9,-145.61"/>
<polygon fill="#63b8ff" stroke="#63b8ff" points="172.38,-149.08 182.92,-147.94 173.97,-142.26 172.38,-149.08"/>
</a>
</g>
</g>
<!-- Node5 -->
<g id="Node000005" class="node">
<title>Node5</title>
<g id="a_Node000005"><a xlink:href="classlossfx.html#a5a00feb19bbe247285eadfbd66f2dcb3" target="_top" xlink:title=" ">
<polygon fill="white" stroke="#666666" points="277.5,-130 172.5,-130 172.5,-111 277.5,-111 277.5,-130"/>
<text text-anchor="middle" x="225" y="-118" font-family="Helvetica,sans-Serif" font-size="10.00">lossfx::build_lbfgs</text>
</a>
</g>
</g>
<!-- Node1&#45;&gt;Node5 -->
<g id="edge4_Node000001_Node000005" class="edge">
<title>Node1&#45;&gt;Node5</title>
<g id="a_edge4_Node000001_Node000005"><a xlink:title=" ">
<path fill="none" stroke="#63b8ff" d="M128.3,-120.5C139.44,-120.5 151.02,-120.5 162.12,-120.5"/>
<polygon fill="#63b8ff" stroke="#63b8ff" points="162.15,-124 172.15,-120.5 162.15,-117 162.15,-124"/>
</a>
</g>
</g>
<!-- Node6 -->
<g id="Node000006" class="node">
<title>Node6</title>
<g id="a_Node000006"><a xlink:href="classlossfx.html#a14a8ead313c89c9f668fe6287edb0eed" target="_top" xlink:title=" ">
<polygon fill="white" stroke="#666666" points="286,-93 164,-93 164,-74 286,-74 286,-93"/>
<text text-anchor="middle" x="225" y="-81" font-family="Helvetica,sans-Serif" font-size="10.00">lossfx::build_rmsprop</text>
</a>
</g>
</g>
<!-- Node1&#45;&gt;Node6 -->
<g id="edge5_Node000001_Node000006" class="edge">
<title>Node1&#45;&gt;Node6</title>
<g id="a_edge5_Node000001_Node000006"><a xlink:title=" ">
<path fill="none" stroke="#63b8ff" d="M105.95,-110.97C126.36,-106.22 151.25,-100.43 172.9,-95.39"/>
<polygon fill="#63b8ff" stroke="#63b8ff" points="173.97,-98.74 182.92,-93.06 172.38,-91.92 173.97,-98.74"/>
</a>
</g>
</g>
<!-- Node7 -->
<g id="Node000007" class="node">
<title>Node7</title>
<g id="a_Node000007"><a xlink:href="classlossfx.html#af24d08de685c3bdb88029a9a2d30dc8b" target="_top" xlink:title=" ">
<polygon fill="white" stroke="#666666" points="274,-56 176,-56 176,-37 274,-37 274,-56"/>
<text text-anchor="middle" x="225" y="-44" font-family="Helvetica,sans-Serif" font-size="10.00">lossfx::build_sgd</text>
</a>
</g>
</g>
<!-- Node1&#45;&gt;Node7 -->
<g id="edge6_Node000001_Node000007" class="edge">
<title>Node1&#45;&gt;Node7</title>
<g id="a_edge6_Node000001_Node000007"><a xlink:title=" ">
<path fill="none" stroke="#63b8ff" d="M79.95,-110.94C98.93,-99.11 132.94,-78.88 164,-65.5 169.08,-63.31 174.5,-61.24 179.92,-59.34"/>
<polygon fill="#63b8ff" stroke="#63b8ff" points="181.25,-62.59 189.61,-56.09 179.02,-55.95 181.25,-62.59"/>
</a>
</g>
</g>
<!-- Node8 -->
<g id="Node000008" class="node">
<title>Node8</title>
<g id="a_Node000008"><a xlink:href="classlossfx.html#a7c434ad6cf74c729de1fa85674e93e04" target="_top" xlink:title=" ">
<polygon fill="white" stroke="#666666" points="281.5,-19 168.5,-19 168.5,0 281.5,0 281.5,-19"/>
<text text-anchor="middle" x="225" y="-7" font-family="Helvetica,sans-Serif" font-size="10.00">lossfx::optim_string</text>
</a>
</g>
</g>
<!-- Node1&#45;&gt;Node8 -->
<g id="edge7_Node000001_Node000008" class="edge">
<title>Node1&#45;&gt;Node8</title>
<g id="a_edge7_Node000001_Node000008"><a xlink:title=" ">
<path fill="none" stroke="#63b8ff" d="M72.69,-110.96C88.1,-92.44 124.67,-51.42 164,-28.5 167.66,-26.36 171.6,-24.44 175.63,-22.71"/>
<polygon fill="#63b8ff" stroke="#63b8ff" points="177.09,-25.9 185.15,-19.03 174.56,-19.37 177.09,-25.9"/>
</a>
</g>
</g>
</g>
</svg>
