<?xml version="1.0" encoding="UTF-8" standalone="no"?>
<!DOCTYPE svg PUBLIC "-//W3C//DTD SVG 1.1//EN"
 "http://www.w3.org/Graphics/SVG/1.1/DTD/svg11.dtd">
<!-- Generated by graphviz version 2.43.0 (0)
 -->
<!-- Title: graph_truthjets::CompileEvent Pages: 1 -->
<!--zoomable 771 -->

<svg id="main" version="1.1" xmlns="http://www.w3.org/2000/svg" xmlns:xlink="http://www.w3.org/1999/xlink" xml:space="preserve" onload="init(evt)">
<style type="text/css"><![CDATA[
.node, .edge {opacity: 0.7;}
.node.selected, .edge.selected {opacity: 1;}
.edge:hover path { stroke: red; }
.edge:hover polygon { stroke: red; fill: red; }
]]></style>

<defs>
  <circle id="rim" cx="0" cy="0" r="7"/>
  <circle id="rim2" cx="0" cy="0" r="3.5"/>
  <g id="zoomPlus">
    <use xlink:href="#rim" fill="#404040"><set attributeName="fill" to="#808080" begin="zoomplus.mouseover" end="zoomplus.mouseout"/></use>
    <path d="M-4,0h8M0,-4v8" fill="none" stroke="white" stroke-width="1.5" pointer-events="none"/>
  </g>
  <g id="zoomMin">
    <use xlink:href="#rim" fill="#404040"><set attributeName="fill" to="#808080" begin="zoomminus.mouseover" end="zoomminus.mouseout"/></use>
    <path d="M-4,0h8" fill="none" stroke="white" stroke-width="1.5" pointer-events="none"/>
  </g>
  <g id="arrowUp" transform="translate(30 24)">
    <use xlink:href="#rim"/>
    <path pointer-events="none" fill="none" stroke="white" stroke-width="1.5" d="M0,-3.0v7 M-2.5,-0.5L0,-3.0L2.5,-0.5"/>
  </g>
  <g id="arrowRight" transform="rotate(90) translate(36 -43)">
    <use xlink:href="#rim"/>
    <path pointer-events="none" fill="none" stroke="white" stroke-width="1.5" d="M0,-3.0v7 M-2.5,-0.5L0,-3.0L2.5,-0.5"/>
  </g>
  <g id="arrowDown" transform="rotate(180) translate(-30 -48)">
    <use xlink:href="#rim"/>
    <path pointer-events="none" fill="none" stroke="white" stroke-width="1.5" d="M0,-3.0v7 M-2.5,-0.5L0,-3.0L2.5,-0.5"/>
  </g>
  <g id="arrowLeft" transform="rotate(270) translate(-36 17)">
    <use xlink:href="#rim"/>
    <path pointer-events="none" fill="none" stroke="white" stroke-width="1.5" d="M0,-3.0v7 M-2.5,-0.5L0,-3.0L2.5,-0.5"/>
  </g>
  <g id="resetDef">
    <use xlink:href="#rim2" fill="#404040"><set attributeName="fill" to="#808080" begin="reset.mouseover" end="reset.mouseout"/></use>
  </g>
</defs>
<script type="application/ecmascript">
var viewWidth = 683;
var viewHeight = 771;
var sectionId = 'dynsection-49';
</script>
<script type="application/ecmascript" xlink:href="svg.min.js"/>
<svg id="graph" class="graph">
<g id="viewport">
<title>graph_truthjets::CompileEvent</title>
<!-- Node1 -->
<g id="Node000001" class="node">
<title>Node1</title>
<g id="a_Node000001"><a xlink:title="Compiles the event into a graph.">
<polygon fill="#999999" stroke="#666666" points="137,-375.5 0,-375.5 0,-345.5 137,-345.5 137,-375.5"/>
<text text-anchor="start" x="8" y="-363.5" font-family="Helvetica,sans-Serif" font-size="10.00">graph_truthjets::Compile</text>
<text text-anchor="middle" x="68.5" y="-352.5" font-family="Helvetica,sans-Serif" font-size="10.00">Event</text>
</a>
</g>
</g>
<!-- Node2 -->
<g id="Node000002" class="node">
<title>Node2</title>
<g id="a_Node000002"><a xlink:href="classgraph__template.html#a18725eb3da8ab2866b415fed685465d1" target="_top" xlink:title="Defines which particles become graph nodes.">
<polygon fill="white" stroke="#666666" points="303,-762.5 173,-762.5 173,-732.5 303,-732.5 303,-762.5"/>
<text text-anchor="start" x="181" y="-750.5" font-family="Helvetica,sans-Serif" font-size="10.00">graph_template::define</text>
<text text-anchor="middle" x="238" y="-739.5" font-family="Helvetica,sans-Serif" font-size="10.00">_particle_nodes</text>
</a>
</g>
</g>
<!-- Node1&#45;&gt;Node2 -->
<g id="edge1_Node000001_Node000002" class="edge">
<title>Node1&#45;&gt;Node2</title>
<g id="a_edge1_Node000001_Node000002"><a xlink:title=" ">
<path fill="none" stroke="#63b8ff" d="M69.26,-375.55C69.23,-429.96 76.38,-618.72 173,-723.5 173.88,-724.46 174.81,-725.38 175.77,-726.26"/>
<polygon fill="#63b8ff" stroke="#63b8ff" points="173.69,-729.07 183.77,-732.34 177.92,-723.5 173.69,-729.07"/>
</a>
</g>
</g>
<!-- Node3 -->
<g id="Node000003" class="node">
<title>Node3</title>
<g id="a_Node000003"><a xlink:href="classgraph__template.html#af5d505282f6126e2fe5d2eab98507d40" target="_top" xlink:title="Defines the edge topology between nodes.">
<polygon fill="white" stroke="#666666" points="303,-714.5 173,-714.5 173,-684.5 303,-684.5 303,-714.5"/>
<text text-anchor="start" x="181" y="-702.5" font-family="Helvetica,sans-Serif" font-size="10.00">graph_template::define</text>
<text text-anchor="middle" x="238" y="-691.5" font-family="Helvetica,sans-Serif" font-size="10.00">_topology</text>
</a>
</g>
</g>
<!-- Node1&#45;&gt;Node3 -->
<g id="edge2_Node000001_Node000003" class="edge">
<title>Node1&#45;&gt;Node3</title>
<g id="a_edge2_Node000001_Node000003"><a xlink:title=" ">
<path fill="none" stroke="#63b8ff" d="M70.04,-375.63C72.62,-425.46 87.51,-586.41 173,-675.5 173.92,-676.46 174.89,-677.39 175.89,-678.28"/>
<polygon fill="#63b8ff" stroke="#63b8ff" points="174.09,-681.29 184.22,-684.39 178.23,-675.65 174.09,-681.29"/>
</a>
</g>
</g>
<!-- Node9 -->
<g id="Node000009" class="node">
<title>Node9</title>
<g id="a_Node000009"><a xlink:href="bsm__4tops_2include_2bsm__4tops_2graph__features_8h.html#a06342b1cfa1e60c002d2f1875c674ee8" target="_top" xlink:title=" ">
<polygon fill="white" stroke="#666666" points="281.5,-648 194.5,-648 194.5,-629 281.5,-629 281.5,-648"/>
<text text-anchor="middle" x="238" y="-636" font-family="Helvetica,sans-Serif" font-size="10.00">event_number</text>
</a>
</g>
</g>
<!-- Node1&#45;&gt;Node9 -->
<g id="edge8_Node000001_Node000009" class="edge">
<title>Node1&#45;&gt;Node9</title>
<g id="a_edge8_Node000001_Node000009"><a xlink:title=" ">
<path fill="none" stroke="#63b8ff" d="M70.94,-375.73C76.01,-420.38 97,-552.07 173,-620.5 176.47,-623.63 180.44,-626.21 184.67,-628.35"/>
<polygon fill="#63b8ff" stroke="#63b8ff" points="183.67,-631.73 194.25,-632.36 186.38,-625.27 183.67,-631.73"/>
</a>
</g>
</g>
<!-- Node10 -->
<g id="Node000010" class="node">
<title>Node10</title>
<g id="a_Node000010"><a xlink:href="bsm__4tops_2include_2bsm__4tops_2graph__features_8h.html#ac4429f2ee44f3a8d00eb820c7c69481d" target="_top" xlink:title=" ">
<polygon fill="white" stroke="#666666" points="279.5,-611 196.5,-611 196.5,-592 279.5,-592 279.5,-611"/>
<text text-anchor="middle" x="238" y="-599" font-family="Helvetica,sans-Serif" font-size="10.00">event_weight</text>
</a>
</g>
</g>
<!-- Node1&#45;&gt;Node10 -->
<g id="edge10_Node000001_Node000010" class="edge">
<title>Node1&#45;&gt;Node10</title>
<g id="a_edge10_Node000001_Node000010"><a xlink:title=" ">
<path fill="none" stroke="#63b8ff" d="M72.03,-375.59C79.57,-415.77 105.72,-526.23 173,-583.5 177.17,-587.05 182,-589.91 187.1,-592.2"/>
<polygon fill="#63b8ff" stroke="#63b8ff" points="185.89,-595.48 196.48,-595.75 188.37,-588.94 185.89,-595.48"/>
</a>
</g>
</g>
<!-- Node11 -->
<g id="Node000011" class="node">
<title>Node11</title>
<g id="a_Node000011"><a xlink:href="graph__template_8h.html#a69f5094a8d3c7a77c2eafc6257ede417" target="_top" xlink:title="Default topology function that connects all node pairs.">
<polygon fill="white" stroke="#666666" points="265,-574 211,-574 211,-555 265,-555 265,-574"/>
<text text-anchor="middle" x="238" y="-562" font-family="Helvetica,sans-Serif" font-size="10.00">fulltopo</text>
</a>
</g>
</g>
<!-- Node1&#45;&gt;Node11 -->
<g id="edge11_Node000001_Node000011" class="edge">
<title>Node1&#45;&gt;Node11</title>
<g id="a_edge11_Node000001_Node000011"><a xlink:title=" ">
<path fill="none" stroke="#63b8ff" d="M73.55,-375.66C83.85,-411.17 114.42,-500.23 173,-546.5 181,-552.82 191.1,-556.92 200.89,-559.58"/>
<polygon fill="#63b8ff" stroke="#63b8ff" points="200.36,-563.05 210.89,-561.87 201.92,-556.23 200.36,-563.05"/>
</a>
</g>
</g>
<!-- Node12 -->
<g id="Node000012" class="node">
<title>Node12</title>
<g id="a_Node000012"><a xlink:href="bsm__4tops_2include_2bsm__4tops_2node__features_8h.html#a3f3117b469cddb9e7a32cef78c5c085f" target="_top" xlink:title=" ">
<polygon fill="white" stroke="#666666" points="270,-537 206,-537 206,-518 270,-518 270,-537"/>
<text text-anchor="middle" x="238" y="-525" font-family="Helvetica,sans-Serif" font-size="10.00">is_bquark</text>
</a>
</g>
</g>
<!-- Node1&#45;&gt;Node12 -->
<g id="edge12_Node000001_Node000012" class="edge">
<title>Node1&#45;&gt;Node12</title>
<g id="a_edge12_Node000001_Node000012"><a xlink:title=" ">
<path fill="none" stroke="#63b8ff" d="M75.81,-375.78C89.11,-406.07 122.97,-473.87 173,-509.5 179.82,-514.36 187.91,-517.91 196,-520.5"/>
<polygon fill="#63b8ff" stroke="#63b8ff" points="195.22,-523.91 205.79,-523.21 197.09,-517.17 195.22,-523.91"/>
</a>
</g>
</g>
<!-- Node13 -->
<g id="Node000013" class="node">
<title>Node13</title>
<g id="a_Node000013"><a xlink:href="bsm__4tops_2include_2bsm__4tops_2node__features_8h.html#a05898150cc9167a4de297df624e6c15a" target="_top" xlink:title=" ">
<polygon fill="white" stroke="#666666" points="268.5,-500 207.5,-500 207.5,-481 268.5,-481 268.5,-500"/>
<text text-anchor="middle" x="238" y="-488" font-family="Helvetica,sans-Serif" font-size="10.00">is_lepton</text>
</a>
</g>
</g>
<!-- Node1&#45;&gt;Node13 -->
<g id="edge13_Node000001_Node000013" class="edge">
<title>Node1&#45;&gt;Node13</title>
<g id="a_edge13_Node000001_Node000013"><a xlink:title=" ">
<path fill="none" stroke="#63b8ff" d="M79.33,-375.66C95.78,-399.82 131.23,-446.92 173,-472.5 180.43,-477.05 189.04,-480.48 197.49,-483.06"/>
<polygon fill="#63b8ff" stroke="#63b8ff" points="196.69,-486.47 207.26,-485.71 198.52,-479.71 196.69,-486.47"/>
</a>
</g>
</g>
<!-- Node14 -->
<g id="Node000014" class="node">
<title>Node14</title>
<g id="a_Node000014"><a xlink:href="bsm__4tops_2include_2bsm__4tops_2node__features_8h.html#a5d7ab2a09038469b9f1d0bc6e701dea1" target="_top" xlink:title=" ">
<polygon fill="white" stroke="#666666" points="273.5,-463 202.5,-463 202.5,-444 273.5,-444 273.5,-463"/>
<text text-anchor="middle" x="238" y="-451" font-family="Helvetica,sans-Serif" font-size="10.00">is_neutrino</text>
</a>
</g>
</g>
<!-- Node1&#45;&gt;Node14 -->
<g id="edge14_Node000001_Node000014" class="edge">
<title>Node1&#45;&gt;Node14</title>
<g id="a_edge14_Node000001_Node000014"><a xlink:title=" ">
<path fill="none" stroke="#63b8ff" d="M86.23,-375.54C105.76,-392.36 139.64,-419.36 173,-435.5 179.14,-438.47 185.86,-441.03 192.56,-443.21"/>
<polygon fill="#63b8ff" stroke="#63b8ff" points="191.72,-446.61 202.3,-446.13 193.73,-439.91 191.72,-446.61"/>
</a>
</g>
</g>
<!-- Node15 -->
<g id="Node000015" class="node">
<title>Node15</title>
<g id="a_Node000015"><a xlink:href="bsm__4tops_2include_2bsm__4tops_2graph__features_8h.html#aa3877d6a2e8b77e08262de8b557b9845" target="_top" xlink:title=" ">
<polygon fill="white" stroke="#666666" points="273,-426 203,-426 203,-407 273,-407 273,-426"/>
<text text-anchor="middle" x="238" y="-414" font-family="Helvetica,sans-Serif" font-size="10.00">missing_et</text>
</a>
</g>
</g>
<!-- Node1&#45;&gt;Node15 -->
<g id="edge15_Node000001_Node000015" class="edge">
<title>Node1&#45;&gt;Node15</title>
<g id="a_edge15_Node000001_Node000015"><a xlink:title=" ">
<path fill="none" stroke="#63b8ff" d="M108.57,-375.66C127.84,-382.93 151.51,-391.54 173,-398.5 179.49,-400.6 186.4,-402.69 193.18,-404.67"/>
<polygon fill="#63b8ff" stroke="#63b8ff" points="192.4,-408.08 202.97,-407.46 194.32,-401.35 192.4,-408.08"/>
</a>
</g>
</g>
<!-- Node16 -->
<g id="Node000016" class="node">
<title>Node16</title>
<g id="a_Node000016"><a xlink:href="bsm__4tops_2include_2bsm__4tops_2graph__features_8h.html#af2c4c0d6c526b044cacd4b7a03274557" target="_top" xlink:title=" ">
<polygon fill="white" stroke="#666666" points="275.5,-389 200.5,-389 200.5,-370 275.5,-370 275.5,-389"/>
<text text-anchor="middle" x="238" y="-377" font-family="Helvetica,sans-Serif" font-size="10.00">missing_phi</text>
</a>
</g>
</g>
<!-- Node1&#45;&gt;Node16 -->
<g id="edge16_Node000001_Node000016" class="edge">
<title>Node1&#45;&gt;Node16</title>
<g id="a_edge16_Node000001_Node000016"><a xlink:title=" ">
<path fill="none" stroke="#63b8ff" d="M137.15,-368.17C154.87,-370.18 173.6,-372.31 189.99,-374.17"/>
<polygon fill="#63b8ff" stroke="#63b8ff" points="190.05,-377.7 200.38,-375.35 190.84,-370.74 190.05,-377.7"/>
</a>
</g>
</g>
<!-- Node17 -->
<g id="Node000017" class="node">
<title>Node17</title>
<g id="a_Node000017"><a xlink:href="bsm__4tops_2include_2bsm__4tops_2graph__features_8h.html#a1252cadaaea1ae85af27e0711b7cdf3c" target="_top" xlink:title=" ">
<polygon fill="white" stroke="#666666" points="292,-352 184,-352 184,-333 292,-333 292,-352"/>
<text text-anchor="middle" x="238" y="-340" font-family="Helvetica,sans-Serif" font-size="10.00">num_children_leps</text>
</a>
</g>
</g>
<!-- Node1&#45;&gt;Node17 -->
<g id="edge17_Node000001_Node000017" class="edge">
<title>Node1&#45;&gt;Node17</title>
<g id="a_edge17_Node000001_Node000017"><a xlink:title=" ">
<path fill="none" stroke="#63b8ff" d="M137.15,-353.23C149.15,-351.94 161.62,-350.6 173.51,-349.32"/>
<polygon fill="#63b8ff" stroke="#63b8ff" points="174.21,-352.77 183.78,-348.22 173.46,-345.81 174.21,-352.77"/>
</a>
</g>
</g>
<!-- Node18 -->
<g id="Node000018" class="node">
<title>Node18</title>
<g id="a_Node000018"><a xlink:href="bsm__4tops_2include_2bsm__4tops_2graph__features_8h.html#aad7321ef73eeb35377f5651c773d53c3" target="_top" xlink:title=" ">
<polygon fill="white" stroke="#666666" points="275,-315 201,-315 201,-296 275,-296 275,-315"/>
<text text-anchor="middle" x="238" y="-303" font-family="Helvetica,sans-Serif" font-size="10.00">num_lepton</text>
</a>
</g>
</g>
<!-- Node1&#45;&gt;Node18 -->
<g id="edge18_Node000001_Node000018" class="edge">
<title>Node1&#45;&gt;Node18</title>
<g id="a_edge18_Node000001_Node000018"><a xlink:title=" ">
<path fill="none" stroke="#63b8ff" d="M111.65,-345.34C130.37,-338.74 152.72,-331.03 173,-324.5 179.67,-322.35 186.76,-320.16 193.7,-318.06"/>
<polygon fill="#63b8ff" stroke="#63b8ff" points="195.11,-321.29 203.69,-315.07 193.11,-314.58 195.11,-321.29"/>
</a>
</g>
</g>
<!-- Node19 -->
<g id="Node000019" class="node">
<title>Node19</title>
<g id="a_Node000019"><a xlink:href="bsm__4tops_2include_2bsm__4tops_2graph__features_8h.html#afdc7570b9acc1f33266435b5901ff15f" target="_top" xlink:title=" ">
<polygon fill="white" stroke="#666666" points="280,-278 196,-278 196,-259 280,-259 280,-278"/>
<text text-anchor="middle" x="238" y="-266" font-family="Helvetica,sans-Serif" font-size="10.00">num_neutrino</text>
</a>
</g>
</g>
<!-- Node1&#45;&gt;Node19 -->
<g id="edge19_Node000001_Node000019" class="edge">
<title>Node1&#45;&gt;Node19</title>
<g id="a_edge19_Node000001_Node000019"><a xlink:title=" ">
<path fill="none" stroke="#63b8ff" d="M87.06,-345.39C106.79,-329.08 140.35,-303.33 173,-287.5 177.64,-285.25 182.6,-283.21 187.63,-281.37"/>
<polygon fill="#63b8ff" stroke="#63b8ff" points="188.97,-284.61 197.32,-278.09 186.72,-277.98 188.97,-284.61"/>
</a>
</g>
</g>
<!-- Node20 -->
<g id="Node000020" class="node">
<title>Node20</title>
<g id="a_Node000020"><a xlink:href="bsm__4tops_2include_2bsm__4tops_2graph__features_8h.html#ab67addeed0cfbc8b4e8ce19cd2e98cb4" target="_top" xlink:title=" ">
<polygon fill="white" stroke="#666666" points="270.5,-241 205.5,-241 205.5,-222 270.5,-222 270.5,-241"/>
<text text-anchor="middle" x="238" y="-229" font-family="Helvetica,sans-Serif" font-size="10.00">num_tops</text>
</a>
</g>
</g>
<!-- Node1&#45;&gt;Node20 -->
<g id="edge20_Node000001_Node000020" class="edge">
<title>Node1&#45;&gt;Node20</title>
<g id="a_edge20_Node000001_Node000020"><a xlink:title=" ">
<path fill="none" stroke="#63b8ff" d="M79.71,-345.3C96.43,-321.56 131.92,-275.81 173,-250.5 179.87,-246.27 187.73,-242.93 195.55,-240.32"/>
<polygon fill="#63b8ff" stroke="#63b8ff" points="196.76,-243.61 205.33,-237.38 194.75,-236.9 196.76,-243.61"/>
</a>
</g>
</g>
<!-- Node21 -->
<g id="Node000021" class="node">
<title>Node21</title>
<g id="a_Node000021"><a xlink:href="bsm__4tops_2include_2bsm__4tops_2graph__features_8h.html#af0949e7dccecf95a3c30978f6a4a37c3" target="_top" xlink:title=" ">
<polygon fill="white" stroke="#666666" points="280.5,-204 195.5,-204 195.5,-185 280.5,-185 280.5,-204"/>
<text text-anchor="middle" x="238" y="-192" font-family="Helvetica,sans-Serif" font-size="10.00">num_truthjets</text>
</a>
</g>
</g>
<!-- Node1&#45;&gt;Node21 -->
<g id="edge21_Node000001_Node000021" class="edge">
<title>Node1&#45;&gt;Node21</title>
<g id="a_edge21_Node000001_Node000021"><a xlink:title=" ">
<path fill="none" stroke="#63b8ff" d="M75.91,-345.49C89.39,-315.71 123.57,-249.01 173,-213.5 176.91,-210.69 181.24,-208.29 185.75,-206.24"/>
<polygon fill="#63b8ff" stroke="#63b8ff" points="187.16,-209.45 195.17,-202.52 184.59,-202.94 187.16,-209.45"/>
</a>
</g>
</g>
<!-- Node22 -->
<g id="Node000022" class="node">
<title>Node22</title>
<g id="a_Node000022"><a xlink:href="bsm__4tops_2include_2bsm__4tops_2edge__features_8h.html#a196518fb89ffbc60b3ca928dc80ac57d" target="_top" xlink:title=" ">
<polygon fill="white" stroke="#666666" points="268.5,-167 207.5,-167 207.5,-148 268.5,-148 268.5,-167"/>
<text text-anchor="middle" x="238" y="-155" font-family="Helvetica,sans-Serif" font-size="10.00">res_edge</text>
</a>
</g>
</g>
<!-- Node1&#45;&gt;Node22 -->
<g id="edge22_Node000001_Node000022" class="edge">
<title>Node1&#45;&gt;Node22</title>
<g id="a_edge22_Node000001_Node000022"><a xlink:title=" ">
<path fill="none" stroke="#63b8ff" d="M73.73,-345.3C84.3,-310.11 115.27,-222.56 173,-176.5 180.11,-170.83 188.87,-166.85 197.61,-164.05"/>
<polygon fill="#63b8ff" stroke="#63b8ff" points="198.65,-167.4 207.37,-161.38 196.8,-160.65 198.65,-167.4"/>
</a>
</g>
</g>
<!-- Node24 -->
<g id="Node000024" class="node">
<title>Node24</title>
<g id="a_Node000024"><a xlink:href="bsm__4tops_2include_2bsm__4tops_2node__features_8h.html#ab1c59b5f0c6a25f3a21b6ff62c95596a" target="_top" xlink:title=" ">
<polygon fill="white" stroke="#666666" points="268.5,-130 207.5,-130 207.5,-111 268.5,-111 268.5,-130"/>
<text text-anchor="middle" x="238" y="-118" font-family="Helvetica,sans-Serif" font-size="10.00">res_node</text>
</a>
</g>
</g>
<!-- Node1&#45;&gt;Node24 -->
<g id="edge24_Node000001_Node000024" class="edge">
<title>Node1&#45;&gt;Node24</title>
<g id="a_edge24_Node000001_Node000024"><a xlink:title=" ">
<path fill="none" stroke="#63b8ff" d="M72.18,-345.31C80.01,-305.37 106.69,-196.57 173,-139.5 179.96,-133.51 188.73,-129.41 197.54,-126.6"/>
<polygon fill="#63b8ff" stroke="#63b8ff" points="198.65,-129.93 207.4,-123.95 196.83,-123.17 198.65,-129.93"/>
</a>
</g>
</g>
<!-- Node25 -->
<g id="Node000025" class="node">
<title>Node25</title>
<g id="a_Node000025"><a xlink:href="bsm__4tops_2include_2bsm__4tops_2graph__features_8h.html#a50dd3e9329b3d7325cde2d4b8059cb60" target="_top" xlink:title=" ">
<polygon fill="white" stroke="#666666" points="277.5,-93 198.5,-93 198.5,-74 277.5,-74 277.5,-93"/>
<text text-anchor="middle" x="238" y="-81" font-family="Helvetica,sans-Serif" font-size="10.00">signal_event</text>
</a>
</g>
</g>
<!-- Node1&#45;&gt;Node25 -->
<g id="edge25_Node000001_Node000025" class="edge">
<title>Node1&#45;&gt;Node25</title>
<g id="a_edge25_Node000001_Node000025"><a xlink:title=" ">
<path fill="none" stroke="#63b8ff" d="M71.03,-345.43C76.33,-301.26 97.91,-170.92 173,-102.5 177.5,-98.4 182.85,-95.18 188.51,-92.66"/>
<polygon fill="#63b8ff" stroke="#63b8ff" points="190.08,-95.8 198.23,-89.03 187.64,-89.25 190.08,-95.8"/>
</a>
</g>
</g>
<!-- Node26 -->
<g id="Node000026" class="node">
<title>Node26</title>
<g id="a_Node000026"><a xlink:href="bsm__4tops_2include_2bsm__4tops_2edge__features_8h.html#af35cf309c4131ca516f825cf67635ceb" target="_top" xlink:title=" ">
<polygon fill="white" stroke="#666666" points="269,-56 207,-56 207,-37 269,-37 269,-56"/>
<text text-anchor="middle" x="238" y="-44" font-family="Helvetica,sans-Serif" font-size="10.00">top_edge</text>
</a>
</g>
</g>
<!-- Node1&#45;&gt;Node26 -->
<g id="edge26_Node000001_Node000026" class="edge">
<title>Node1&#45;&gt;Node26</title>
<g id="a_edge26_Node000001_Node000026"><a xlink:title=" ">
<path fill="none" stroke="#63b8ff" d="M70.11,-345.32C72.89,-296.8 88.3,-144.09 173,-64.5 179.66,-58.24 188.33,-54.13 197.12,-51.44"/>
<polygon fill="#63b8ff" stroke="#63b8ff" points="198.15,-54.79 207,-48.97 196.45,-48 198.15,-54.79"/>
</a>
</g>
</g>
<!-- Node28 -->
<g id="Node000028" class="node">
<title>Node28</title>
<g id="a_Node000028"><a xlink:href="bsm__4tops_2include_2bsm__4tops_2node__features_8h.html#ab2215efaacd3bffb7241a74646421796" target="_top" xlink:title=" ">
<polygon fill="white" stroke="#666666" points="269,-19 207,-19 207,0 269,0 269,-19"/>
<text text-anchor="middle" x="238" y="-7" font-family="Helvetica,sans-Serif" font-size="10.00">top_node</text>
</a>
</g>
</g>
<!-- Node1&#45;&gt;Node28 -->
<g id="edge28_Node000001_Node000028" class="edge">
<title>Node1&#45;&gt;Node28</title>
<g id="a_edge28_Node000001_Node000028"><a xlink:title=" ">
<path fill="none" stroke="#63b8ff" d="M69.43,-345.33C70.03,-293.07 79.29,-118.7 173,-27.5 179.55,-21.12 188.17,-16.97 196.96,-14.28"/>
<polygon fill="#63b8ff" stroke="#63b8ff" points="197.99,-17.63 206.85,-11.81 196.3,-10.83 197.99,-17.63"/>
</a>
</g>
</g>
<!-- Node4 -->
<g id="Node000004" class="node">
<title>Node4</title>
<g id="a_Node000004"><a xlink:href="classgraph__template.html#a255ec8fcf27b7352445397e5245cc9ef" target="_top" xlink:title=" ">
<polygon fill="white" stroke="#666666" points="449,-714.5 339,-714.5 339,-684.5 449,-684.5 449,-714.5"/>
<text text-anchor="start" x="347" y="-702.5" font-family="Helvetica,sans-Serif" font-size="10.00">graph_template::to</text>
<text text-anchor="middle" x="394" y="-691.5" font-family="Helvetica,sans-Serif" font-size="10.00">_tensor</text>
</a>
</g>
</g>
<!-- Node3&#45;&gt;Node4 -->
<g id="edge3_Node000003_Node000004" class="edge">
<title>Node3&#45;&gt;Node4</title>
<g id="a_edge3_Node000003_Node000004"><a xlink:title=" ">
<path fill="none" stroke="#63b8ff" d="M303.42,-699.5C311.74,-699.5 320.26,-699.5 328.58,-699.5"/>
<polygon fill="#63b8ff" stroke="#63b8ff" points="328.6,-703 338.6,-699.5 328.6,-696 328.6,-703"/>
</a>
</g>
</g>
<!-- Node5 -->
<g id="Node000005" class="node">
<title>Node5</title>
<g id="a_Node000005"><a xlink:href="tensor__cast_8h.html#a27121e7e5aeb77bda0453dd6214cf7fb" target="_top" xlink:title=" ">
<polygon fill="white" stroke="#666666" points="562,-709 485,-709 485,-690 562,-690 562,-709"/>
<text text-anchor="middle" x="523.5" y="-697" font-family="Helvetica,sans-Serif" font-size="10.00">build_tensor</text>
</a>
</g>
</g>
<!-- Node4&#45;&gt;Node5 -->
<g id="edge4_Node000004_Node000005" class="edge">
<title>Node4&#45;&gt;Node5</title>
<g id="a_edge4_Node000004_Node000005"><a xlink:title=" ">
<path fill="none" stroke="#63b8ff" d="M449.07,-699.5C457.66,-699.5 466.49,-699.5 474.91,-699.5"/>
<polygon fill="#63b8ff" stroke="#63b8ff" points="474.95,-703 484.95,-699.5 474.95,-696 474.95,-703"/>
</a>
</g>
</g>
<!-- Node6 -->
<g id="Node000006" class="node">
<title>Node6</title>
<g id="a_Node000006"><a xlink:href="tensor__cast_8h.html#a49d70dbad1cfb3e27ebb8960cff818bb" target="_top" xlink:title=" ">
<polygon fill="white" stroke="#666666" points="675,-746 598,-746 598,-727 675,-727 675,-746"/>
<text text-anchor="middle" x="636.5" y="-734" font-family="Helvetica,sans-Serif" font-size="10.00">as_primitive</text>
</a>
</g>
</g>
<!-- Node5&#45;&gt;Node6 -->
<g id="edge5_Node000005_Node000006" class="edge">
<title>Node5&#45;&gt;Node6</title>
<g id="a_edge5_Node000005_Node000006"><a xlink:title=" ">
<path fill="none" stroke="#63b8ff" d="M553.09,-709.03C566.45,-713.48 582.55,-718.85 596.97,-723.66"/>
<polygon fill="#63b8ff" stroke="#63b8ff" points="596.03,-727.03 606.63,-726.88 598.25,-720.39 596.03,-727.03"/>
</a>
</g>
</g>
<!-- Node7 -->
<g id="Node000007" class="node">
<title>Node7</title>
<g id="a_Node000007"><a xlink:href="tensor__cast_8h.html#af735bf7b89e3864dbde7fe5def867d4d" target="_top" xlink:title=" ">
<polygon fill="white" stroke="#666666" points="670,-709 603,-709 603,-690 670,-690 670,-709"/>
<text text-anchor="middle" x="636.5" y="-697" font-family="Helvetica,sans-Serif" font-size="10.00">scout_dim</text>
</a>
</g>
</g>
<!-- Node5&#45;&gt;Node7 -->
<g id="edge6_Node000005_Node000007" class="edge">
<title>Node5&#45;&gt;Node7</title>
<g id="a_edge6_Node000005_Node000007"><a xlink:title=" ">
<path fill="none" stroke="#63b8ff" d="M562.08,-699.5C571.88,-699.5 582.52,-699.5 592.58,-699.5"/>
<polygon fill="#63b8ff" stroke="#63b8ff" points="592.79,-703 602.79,-699.5 592.79,-696 592.79,-703"/>
</a>
</g>
</g>
<!-- Node8 -->
<g id="Node000008" class="node">
<title>Node8</title>
<g id="a_Node000008"><a xlink:href="tensor__cast_8h.html#af14120999422d60b3d0aef376398fca6" target="_top" xlink:title=" ">
<polygon fill="white" stroke="#666666" points="666,-672 607,-672 607,-653 666,-653 666,-672"/>
<text text-anchor="middle" x="636.5" y="-660" font-family="Helvetica,sans-Serif" font-size="10.00">standard</text>
</a>
</g>
</g>
<!-- Node5&#45;&gt;Node8 -->
<g id="edge7_Node000005_Node000008" class="edge">
<title>Node5&#45;&gt;Node8</title>
<g id="a_edge7_Node000005_Node000008"><a xlink:title=" ">
<path fill="none" stroke="#63b8ff" d="M553.09,-689.97C566.45,-685.52 582.55,-680.15 596.97,-675.34"/>
<polygon fill="#63b8ff" stroke="#63b8ff" points="598.25,-678.61 606.63,-672.12 596.03,-671.97 598.25,-678.61"/>
</a>
</g>
</g>
<!-- Node9&#45;&gt;Node9 -->
<g id="edge9_Node000009_Node000009" class="edge">
<title>Node9&#45;&gt;Node9</title>
<g id="a_edge9_Node000009_Node000009"><a xlink:title=" ">
<path fill="none" stroke="#63b8ff" d="M213.96,-648.08C202.26,-656.73 210.27,-666 238,-666 256.2,-666 265.9,-662.01 267.12,-656.82"/>
<polygon fill="#63b8ff" stroke="#63b8ff" points="270.09,-654.97 262.04,-648.08 264.04,-658.49 270.09,-654.97"/>
</a>
</g>
</g>
<!-- Node23 -->
<g id="Node000023" class="node">
<title>Node23</title>
<g id="a_Node000023"><a xlink:href="bsm__4tops_2include_2bsm__4tops_2edge__features_8h.html#a9addd2275949f0828310adb01cc761a3" target="_top" xlink:title=" ">
<polygon fill="white" stroke="#666666" points="432,-167 356,-167 356,-148 432,-148 432,-167"/>
<text text-anchor="middle" x="394" y="-155" font-family="Helvetica,sans-Serif" font-size="10.00">m_res_edge</text>
</a>
</g>
</g>
<!-- Node22&#45;&gt;Node23 -->
<g id="edge23_Node000022_Node000023" class="edge">
<title>Node22&#45;&gt;Node23</title>
<g id="a_edge23_Node000022_Node000023"><a xlink:title=" ">
<path fill="none" stroke="#63b8ff" d="M268.69,-157.5C290.51,-157.5 320.6,-157.5 345.71,-157.5"/>
<polygon fill="#63b8ff" stroke="#63b8ff" points="345.77,-161 355.77,-157.5 345.77,-154 345.77,-161"/>
</a>
</g>
</g>
<!-- Node27 -->
<g id="Node000027" class="node">
<title>Node27</title>
<g id="a_Node000027"><a xlink:href="bsm__4tops_2include_2bsm__4tops_2edge__features_8h.html#a28ada91c16a5975605583559f663b268" target="_top" xlink:title=" ">
<polygon fill="white" stroke="#666666" points="432.5,-56 355.5,-56 355.5,-37 432.5,-37 432.5,-56"/>
<text text-anchor="middle" x="394" y="-44" font-family="Helvetica,sans-Serif" font-size="10.00">m_top_edge</text>
</a>
</g>
</g>
<!-- Node26&#45;&gt;Node27 -->
<g id="edge27_Node000026_Node000027" class="edge">
<title>Node26&#45;&gt;Node27</title>
<g id="a_edge27_Node000026_Node000027"><a xlink:title=" ">
<path fill="none" stroke="#63b8ff" d="M269.06,-46.5C290.66,-46.5 320.22,-46.5 345.06,-46.5"/>
<polygon fill="#63b8ff" stroke="#63b8ff" points="345.38,-50 355.38,-46.5 345.38,-43 345.38,-50"/>
</a>
</g>
</g>
</g>
</svg>

<g id="navigator" transform="translate(0 0)" fill="#404254">
  <rect fill="#f2f5e9" fill-opacity="0.5" stroke="#606060" stroke-width=".5" x="0" y="0" width="60" height="60"/>
  <use id="zoomplus" xlink:href="#zoomPlus" x="17" y="9" onmousedown="handleZoom(evt,'in')"/>
  <use id="zoomminus" xlink:href="#zoomMin" x="42" y="9" onmousedown="handleZoom(evt,'out')"/>
  <use id="reset" xlink:href="#resetDef" x="30" y="36" onmousedown="handleReset()"/>
   <use id="arrowup" xlink:href="#arrowUp" x="0" y="0" onmousedown="handlePan(0,-1)"/>
  <use id="arrowright" xlink:href="#arrowRight" x="0" y="0" onmousedown="handlePan(1,0)"/>
  <use id="arrowdown" xlink:href="#arrowDown" x="0" y="0" onmousedown="handlePan(0,1)"/>
  <use id="arrowleft" xlink:href="#arrowLeft" x="0" y="0" onmousedown="handlePan(-1,0)"/>
</g>
<svg viewBox="0 0 15 15" width="100%" height="30px" preserveAspectRatio="xMaxYMin meet">
 <g id="arrow_out" transform="scale(0.3 0.3)">
  <a xlink:href="classgraph__truthjets_ad64c5a15f0406d8a6c9705d50934b81f_cgraph_org.svg" target="_base">
   <rect id="button" ry="5" rx="5" y="6" x="6" height="38" width="38"
        fill="#f2f5e9" fill-opacity="0.5" stroke="#606060" stroke-width="1.0"/>
   <path id="arrow"
     d="M 11.500037,31.436501 C 11.940474,20.09759 22.043105,11.32322 32.158766,21.979434 L 37.068811,17.246167 C 37.068811,17.246167 37.088388,32 37.088388,32 L 22.160133,31.978069 C 22.160133,31.978069 26.997745,27.140456 26.997745,27.140456 C 18.528582,18.264221 13.291696,25.230495 11.500037,31.436501 z"
     style="fill:#404040;"/>
  </a>
 </g>
</svg>

<style type='text/css'>
<![CDATA[
[data-mouse-over-selected='false'] { opacity: 0.7; }
[data-mouse-over-selected='true']  { opacity: 1.0; }
]]>
</style>
<script type="application/ecmascript"><![CDATA[
document.addEventListener('DOMContentLoaded', (event) => {
  highlightEdges();
  highlightAdjacentNodes();
});
]]></script>
</svg>
