<?xml version="1.0" encoding="UTF-8" standalone="no"?>
<!DOCTYPE svg PUBLIC "-//W3C//DTD SVG 1.1//EN"
 "http://www.w3.org/Graphics/SVG/1.1/DTD/svg11.dtd">
<!-- Generated by graphviz version 2.43.0 (0)
 -->
<!-- Title: metrics::capture Pages: 1 -->
<svg width="791pt" height="234pt"
 viewBox="0.00 0.00 791.00 234.00" xmlns="http://www.w3.org/2000/svg" xmlns:xlink="http://www.w3.org/1999/xlink">
<g id="graph0" class="graph" transform="scale(1 1) rotate(0) translate(4 230)">
<title>metrics::capture</title>
<!-- Node1 -->
<g id="Node000001" class="node">
<title>Node1</title>
<g id="a_Node000001"><a xlink:title="Captures metrics from the current epoch.">
<polygon fill="#999999" stroke="#666666" points="96,-158 0,-158 0,-139 96,-139 96,-158"/>
<text text-anchor="middle" x="48" y="-146" font-family="Helvetica,sans-Serif" font-size="10.00">metrics::capture</text>
</a>
</g>
</g>
<!-- Node2 -->
<g id="Node000002" class="node">
<title>Node2</title>
<g id="a_Node000002"><a xlink:href="classmetrics.html#a15f20f34714224f09f44cf520ca6f271" target="_top" xlink:title=" ">
<polygon fill="white" stroke="#666666" points="283,-215 132,-215 132,-196 283,-196 283,-215"/>
<text text-anchor="middle" x="207.5" y="-203" font-family="Helvetica,sans-Serif" font-size="10.00">metrics::add_th1f_accuracy</text>
</a>
</g>
</g>
<!-- Node1&#45;&gt;Node2 -->
<g id="edge1_Node000001_Node000002" class="edge">
<title>Node1&#45;&gt;Node2</title>
<g id="a_edge1_Node000001_Node000002"><a xlink:title=" ">
<path fill="none" stroke="#63b8ff" d="M67.39,-158.08C83.96,-166.43 109.14,-178.42 132,-186.5 138.92,-188.95 146.31,-191.22 153.64,-193.28"/>
<polygon fill="#63b8ff" stroke="#63b8ff" points="152.99,-196.73 163.56,-195.95 154.81,-189.97 152.99,-196.73"/>
</a>
</g>
</g>
<!-- Node4 -->
<g id="Node000004" class="node">
<title>Node4</title>
<g id="a_Node000004"><a xlink:href="classmetrics.html#afe3d20f0b957925248182a792411333b" target="_top" xlink:title=" ">
<polygon fill="white" stroke="#666666" points="271,-177 144,-177 144,-158 271,-158 271,-177"/>
<text text-anchor="middle" x="207.5" y="-165" font-family="Helvetica,sans-Serif" font-size="10.00">metrics::add_th1f_loss</text>
</a>
</g>
</g>
<!-- Node1&#45;&gt;Node4 -->
<g id="edge3_Node000001_Node000004" class="edge">
<title>Node1&#45;&gt;Node4</title>
<g id="a_edge3_Node000001_Node000004"><a xlink:title=" ">
<path fill="none" stroke="#63b8ff" d="M96.26,-154.2C108.05,-155.62 120.98,-157.18 133.7,-158.72"/>
<polygon fill="#63b8ff" stroke="#63b8ff" points="133.48,-162.22 143.83,-159.94 134.32,-155.27 133.48,-162.22"/>
</a>
</g>
</g>
<!-- Node5 -->
<g id="Node000005" class="node">
<title>Node5</title>
<g id="a_Node000005"><a xlink:href="classmetrics.html#adb34703cb499689522741aa2ceed61e3" target="_top" xlink:title=" ">
<polygon fill="white" stroke="#666666" points="274.5,-140 140.5,-140 140.5,-121 274.5,-121 274.5,-140"/>
<text text-anchor="middle" x="207.5" y="-128" font-family="Helvetica,sans-Serif" font-size="10.00">metrics::add_th1f_mass</text>
</a>
</g>
</g>
<!-- Node1&#45;&gt;Node5 -->
<g id="edge4_Node000001_Node000005" class="edge">
<title>Node1&#45;&gt;Node5</title>
<g id="a_edge4_Node000001_Node000005"><a xlink:title=" ">
<path fill="none" stroke="#63b8ff" d="M96.26,-143.1C106.98,-141.87 118.63,-140.54 130.22,-139.22"/>
<polygon fill="#63b8ff" stroke="#63b8ff" points="130.82,-142.67 140.35,-138.06 130.02,-135.72 130.82,-142.67"/>
</a>
</g>
</g>
<!-- Node14 -->
<g id="Node000014" class="node">
<title>Node14</title>
<g id="a_Node000014"><a xlink:href="namespacepyc_1_1transform_1_1combined.html#a04bb607bea9c08f7133e6bcebf230076" target="_top" xlink:title=" ">
<polygon fill="white" stroke="#666666" points="278.5,-99.5 136.5,-99.5 136.5,-69.5 278.5,-69.5 278.5,-99.5"/>
<text text-anchor="start" x="144.5" y="-87.5" font-family="Helvetica,sans-Serif" font-size="10.00">pyc::transform::combined</text>
<text text-anchor="middle" x="207.5" y="-76.5" font-family="Helvetica,sans-Serif" font-size="10.00">::PxPyPzE</text>
</a>
</g>
</g>
<!-- Node1&#45;&gt;Node14 -->
<g id="edge15_Node000001_Node000014" class="edge">
<title>Node1&#45;&gt;Node14</title>
<g id="a_edge15_Node000001_Node000014"><a xlink:title=" ">
<path fill="none" stroke="#63b8ff" d="M70.37,-138.88C87.06,-131.46 110.89,-121.04 132,-112.5 139.65,-109.41 147.78,-106.23 155.76,-103.18"/>
<polygon fill="#63b8ff" stroke="#63b8ff" points="157.26,-106.36 165.37,-99.54 154.78,-99.81 157.26,-106.36"/>
</a>
</g>
</g>
<!-- Node3 -->
<g id="Node000003" class="node">
<title>Node3</title>
<g id="a_Node000003"><a xlink:href="classtools.html#a7b784121d8b368a64995feddc7083469" target="_top" xlink:title="Sums the elements of a vector.">
<polygon fill="white" stroke="#666666" points="433.5,-217 365.5,-217 365.5,-198 433.5,-198 433.5,-217"/>
<text text-anchor="middle" x="399.5" y="-205" font-family="Helvetica,sans-Serif" font-size="10.00">tools::sum</text>
</a>
</g>
</g>
<!-- Node2&#45;&gt;Node3 -->
<g id="edge2_Node000002_Node000003" class="edge">
<title>Node2&#45;&gt;Node3</title>
<g id="a_edge2_Node000002_Node000003"><a xlink:title=" ">
<path fill="none" stroke="#63b8ff" d="M283.05,-206.28C307.53,-206.54 333.91,-206.82 355.27,-207.04"/>
<polygon fill="#63b8ff" stroke="#63b8ff" points="355.28,-210.55 365.32,-207.15 355.36,-203.55 355.28,-210.55"/>
</a>
</g>
</g>
<!-- Node6 -->
<g id="Node000006" class="node">
<title>Node6</title>
<g id="a_Node000006"><a xlink:href="namespacepyc_1_1graph.html#aa28a4253050413ec67a3313635a699ad" target="_top" xlink:title=" ">
<polygon fill="white" stroke="#666666" points="480,-180 319,-180 319,-161 480,-161 480,-180"/>
<text text-anchor="middle" x="399.5" y="-168" font-family="Helvetica,sans-Serif" font-size="10.00">pyc::graph::edge_aggregation</text>
</a>
</g>
</g>
<!-- Node5&#45;&gt;Node6 -->
<g id="edge5_Node000005_Node000006" class="edge">
<title>Node5&#45;&gt;Node6</title>
<g id="a_edge5_Node000005_Node000006"><a xlink:title=" ">
<path fill="none" stroke="#63b8ff" d="M254.01,-140.08C280.8,-145.72 314.88,-152.9 343.21,-158.86"/>
<polygon fill="#63b8ff" stroke="#63b8ff" points="342.86,-162.36 353.36,-161 344.3,-155.51 342.86,-162.36"/>
</a>
</g>
</g>
<!-- Node11 -->
<g id="Node000011" class="node">
<title>Node11</title>
<g id="a_Node000011"><a xlink:href="namespacepyc_1_1physics_1_1cartesian_1_1combined.html#adc80247c6622f7cb166a81fa45b7b51d" target="_top" xlink:title=" ">
<polygon fill="white" stroke="#666666" points="463.5,-142.5 335.5,-142.5 335.5,-112.5 463.5,-112.5 463.5,-142.5"/>
<text text-anchor="start" x="343.5" y="-130.5" font-family="Helvetica,sans-Serif" font-size="10.00">pyc::physics::cartesian</text>
<text text-anchor="middle" x="399.5" y="-119.5" font-family="Helvetica,sans-Serif" font-size="10.00">::combined::M</text>
</a>
</g>
</g>
<!-- Node5&#45;&gt;Node11 -->
<g id="edge10_Node000005_Node000011" class="edge">
<title>Node5&#45;&gt;Node11</title>
<g id="a_edge10_Node000005_Node000011"><a xlink:title=" ">
<path fill="none" stroke="#63b8ff" d="M274.69,-129.45C291.01,-129.2 308.58,-128.92 325.21,-128.66"/>
<polygon fill="#63b8ff" stroke="#63b8ff" points="325.48,-132.15 335.43,-128.5 325.37,-125.15 325.48,-132.15"/>
</a>
</g>
</g>
<!-- Node7 -->
<g id="Node000007" class="node">
<title>Node7</title>
<g id="a_Node000007"><a xlink:href="utils_8cxx.html#a123aed6d73594e07c6401a7a6c587808" target="_top" xlink:title=" ">
<polygon fill="white" stroke="#666666" points="622.5,-97 552.5,-97 552.5,-78 622.5,-78 622.5,-97"/>
<text text-anchor="middle" x="587.5" y="-85" font-family="Helvetica,sans-Serif" font-size="10.00">changedev</text>
</a>
</g>
</g>
<!-- Node6&#45;&gt;Node7 -->
<g id="edge6_Node000006_Node000007" class="edge">
<title>Node6&#45;&gt;Node7</title>
<g id="a_edge6_Node000006_Node000007"><a xlink:title=" ">
<path fill="none" stroke="#63b8ff" d="M460.03,-160.92C467.06,-158.46 473.89,-155.38 480,-151.5 501.63,-137.78 494.57,-120.53 516,-106.5 523.94,-101.3 533.28,-97.52 542.5,-94.76"/>
<polygon fill="#63b8ff" stroke="#63b8ff" points="543.62,-98.09 552.4,-92.17 541.84,-91.32 543.62,-98.09"/>
</a>
</g>
</g>
<!-- Node8 -->
<g id="Node000008" class="node">
<title>Node8</title>
<g id="a_Node000008"><a xlink:href="namespacegraph__.html#a7249186f32a05a8ff1601bff5deabdef" target="_top" xlink:title=" ">
<polygon fill="white" stroke="#666666" points="659,-226 516,-226 516,-207 659,-207 659,-226"/>
<text text-anchor="middle" x="587.5" y="-214" font-family="Helvetica,sans-Serif" font-size="10.00">graph_::edge_aggregation</text>
</a>
</g>
</g>
<!-- Node6&#45;&gt;Node8 -->
<g id="edge7_Node000006_Node000008" class="edge">
<title>Node6&#45;&gt;Node8</title>
<g id="a_edge7_Node000006_Node000008"><a xlink:title=" ">
<path fill="none" stroke="#63b8ff" d="M440.97,-180.06C453.49,-183.05 467.32,-186.38 480,-189.5 491.37,-192.3 516.35,-198.63 539.26,-204.46"/>
<polygon fill="#63b8ff" stroke="#63b8ff" points="538.68,-207.92 549.24,-207 540.41,-201.14 538.68,-207.92"/>
</a>
</g>
</g>
<!-- Node10 -->
<g id="Node000010" class="node">
<title>Node10</title>
<g id="a_Node000010"><a xlink:href="namespacepyc.html#ab174cc51f6efef06bdb0ba47ec3fe3bf" target="_top" xlink:title=" ">
<polygon fill="white" stroke="#666666" points="634,-189 541,-189 541,-170 634,-170 634,-189"/>
<text text-anchor="middle" x="587.5" y="-177" font-family="Helvetica,sans-Serif" font-size="10.00">pyc::std_to_dict</text>
</a>
</g>
</g>
<!-- Node6&#45;&gt;Node10 -->
<g id="edge9_Node000006_Node000010" class="edge">
<title>Node6&#45;&gt;Node10</title>
<g id="a_edge9_Node000006_Node000010"><a xlink:title=" ">
<path fill="none" stroke="#63b8ff" d="M480.19,-174.36C497.18,-175.18 514.77,-176.03 530.63,-176.8"/>
<polygon fill="#63b8ff" stroke="#63b8ff" points="530.63,-180.3 540.78,-177.29 530.97,-173.31 530.63,-180.3"/>
</a>
</g>
</g>
<!-- Node9 -->
<g id="Node000009" class="node">
<title>Node9</title>
<g id="a_Node000009"><a xlink:href="utils_8cxx.html#a1652e53abd2299dd0f10e093948e4fa3" target="_top" xlink:title=" ">
<polygon fill="white" stroke="#666666" points="767,-226 711,-226 711,-207 767,-207 767,-226"/>
<text text-anchor="middle" x="739" y="-214" font-family="Helvetica,sans-Serif" font-size="10.00">MakeOp</text>
</a>
</g>
</g>
<!-- Node8&#45;&gt;Node9 -->
<g id="edge8_Node000008_Node000009" class="edge">
<title>Node8&#45;&gt;Node9</title>
<g id="a_edge8_Node000008_Node000009"><a xlink:title=" ">
<path fill="none" stroke="#63b8ff" d="M659.31,-216.5C673.58,-216.5 688.04,-216.5 700.6,-216.5"/>
<polygon fill="#63b8ff" stroke="#63b8ff" points="700.67,-220 710.67,-216.5 700.67,-213 700.67,-220"/>
</a>
</g>
</g>
<!-- Node11&#45;&gt;Node7 -->
<g id="edge11_Node000011_Node000007" class="edge">
<title>Node11&#45;&gt;Node7</title>
<g id="a_edge11_Node000011_Node000007"><a xlink:title=" ">
<path fill="none" stroke="#63b8ff" d="M463.73,-113.9C489.6,-108.34 518.91,-102.04 542.4,-96.98"/>
<polygon fill="#63b8ff" stroke="#63b8ff" points="543.37,-100.35 552.41,-94.83 541.9,-93.51 543.37,-100.35"/>
</a>
</g>
</g>
<!-- Node12 -->
<g id="Node000012" class="node">
<title>Node12</title>
<g id="a_Node000012"><a xlink:href="namespacephysics__.html#a64e8e583c57246f52851c0bff4137ebc" target="_top" xlink:title="Computes the invariant mass.">
<polygon fill="white" stroke="#666666" points="624.5,-134 550.5,-134 550.5,-115 624.5,-115 624.5,-134"/>
<text text-anchor="middle" x="587.5" y="-122" font-family="Helvetica,sans-Serif" font-size="10.00">physics_::M</text>
</a>
</g>
</g>
<!-- Node11&#45;&gt;Node12 -->
<g id="edge12_Node000011_Node000012" class="edge">
<title>Node11&#45;&gt;Node12</title>
<g id="a_edge12_Node000011_Node000012"><a xlink:title=" ">
<path fill="none" stroke="#63b8ff" d="M463.73,-126.48C488.75,-126.08 516.99,-125.62 540.07,-125.25"/>
<polygon fill="#63b8ff" stroke="#63b8ff" points="540.34,-128.75 550.28,-125.08 540.23,-121.75 540.34,-128.75"/>
</a>
</g>
</g>
<!-- Node12&#45;&gt;Node12 -->
<g id="edge14_Node000012_Node000012" class="edge">
<title>Node12&#45;&gt;Node12</title>
<g id="a_edge14_Node000012_Node000012"><a xlink:title=" ">
<path fill="none" stroke="#63b8ff" d="M564.38,-134.08C553.13,-142.73 560.84,-152 587.5,-152 605,-152 614.33,-148.01 615.5,-142.82"/>
<polygon fill="#63b8ff" stroke="#63b8ff" points="618.55,-141.11 610.62,-134.08 612.44,-144.52 618.55,-141.11"/>
</a>
</g>
</g>
<!-- Node13 -->
<g id="Node000013" class="node">
<title>Node13</title>
<g id="a_Node000013"><a xlink:href="utils_8cxx.html#a9c1cdc6384bce6bdc92ca917b3f656bf" target="_top" xlink:title=" ">
<polygon fill="white" stroke="#666666" points="764,-134 714,-134 714,-115 764,-115 764,-134"/>
<text text-anchor="middle" x="739" y="-122" font-family="Helvetica,sans-Serif" font-size="10.00">format</text>
</a>
</g>
</g>
<!-- Node12&#45;&gt;Node13 -->
<g id="edge13_Node000012_Node000013" class="edge">
<title>Node12&#45;&gt;Node13</title>
<g id="a_edge13_Node000012_Node000013"><a xlink:title=" ">
<path fill="none" stroke="#63b8ff" d="M624.69,-124.5C648.67,-124.5 679.94,-124.5 703.56,-124.5"/>
<polygon fill="#63b8ff" stroke="#63b8ff" points="703.81,-128 713.81,-124.5 703.81,-121 703.81,-128"/>
</a>
</g>
</g>
<!-- Node14&#45;&gt;Node7 -->
<g id="edge16_Node000014_Node000007" class="edge">
<title>Node14&#45;&gt;Node7</title>
<g id="a_edge16_Node000014_Node000007"><a xlink:title=" ">
<path fill="none" stroke="#63b8ff" d="M278.71,-85.06C355.77,-85.67 477.13,-86.63 542.04,-87.15"/>
<polygon fill="#63b8ff" stroke="#63b8ff" points="542.31,-90.65 552.34,-87.23 542.37,-83.65 542.31,-90.65"/>
</a>
</g>
</g>
<!-- Node15 -->
<g id="Node000015" class="node">
<title>Node15</title>
<g id="a_Node000015"><a xlink:href="namespacetransform__.html#a87dc88421ea78ec3b9c73c86cc5ade19" target="_top" xlink:title="Computes the 4&#45;momentum (Px, Py, Pz, E).">
<polygon fill="white" stroke="#666666" points="458,-56 341,-56 341,-37 458,-37 458,-56"/>
<text text-anchor="middle" x="399.5" y="-44" font-family="Helvetica,sans-Serif" font-size="10.00">transform_::PxPyPzE</text>
</a>
</g>
</g>
<!-- Node14&#45;&gt;Node15 -->
<g id="edge17_Node000014_Node000015" class="edge">
<title>Node14&#45;&gt;Node15</title>
<g id="a_edge17_Node000014_Node000015"><a xlink:title=" ">
<path fill="none" stroke="#63b8ff" d="M278.71,-70.46C299.14,-66.37 321.22,-61.96 340.79,-58.04"/>
<polygon fill="#63b8ff" stroke="#63b8ff" points="341.66,-61.44 350.78,-56.04 340.28,-54.57 341.66,-61.44"/>
</a>
</g>
</g>
<!-- Node16 -->
<g id="Node000016" class="node">
<title>Node16</title>
<g id="a_Node000016"><a xlink:href="namespacetransform__.html#aa38819d479d31edd3f79b4f8e96ef8be" target="_top" xlink:title="Computes the 3&#45;momentum (Px, Py, Pz).">
<polygon fill="white" stroke="#666666" points="643,-56 532,-56 532,-37 643,-37 643,-56"/>
<text text-anchor="middle" x="587.5" y="-44" font-family="Helvetica,sans-Serif" font-size="10.00">transform_::PxPyPz</text>
</a>
</g>
</g>
<!-- Node15&#45;&gt;Node16 -->
<g id="edge18_Node000015_Node000016" class="edge">
<title>Node15&#45;&gt;Node16</title>
<g id="a_edge18_Node000015_Node000016"><a xlink:title=" ">
<path fill="none" stroke="#63b8ff" d="M458.08,-46.5C478.16,-46.5 500.83,-46.5 521.47,-46.5"/>
<polygon fill="#63b8ff" stroke="#63b8ff" points="521.74,-50 531.74,-46.5 521.74,-43 521.74,-50"/>
</a>
</g>
</g>
<!-- Node17 -->
<g id="Node000017" class="node">
<title>Node17</title>
<g id="a_Node000017"><a xlink:href="namespacetransform__.html#a4573dda96168ebbd38a408e64cc3d5ff" target="_top" xlink:title="Computes the x&#45;component of momentum (Px).">
<polygon fill="white" stroke="#666666" points="783,-19 695,-19 695,0 783,0 783,-19"/>
<text text-anchor="middle" x="739" y="-7" font-family="Helvetica,sans-Serif" font-size="10.00">transform_::Px</text>
</a>
</g>
</g>
<!-- Node16&#45;&gt;Node17 -->
<g id="edge19_Node000016_Node000017" class="edge">
<title>Node16&#45;&gt;Node17</title>
<g id="a_edge19_Node000016_Node000017"><a xlink:title=" ">
<path fill="none" stroke="#63b8ff" d="M627,-36.97C646.02,-32.26 669.17,-26.53 689.4,-21.53"/>
<polygon fill="#63b8ff" stroke="#63b8ff" points="690.5,-24.86 699.37,-19.06 688.82,-18.07 690.5,-24.86"/>
</a>
</g>
</g>
<!-- Node18 -->
<g id="Node000018" class="node">
<title>Node18</title>
<g id="a_Node000018"><a xlink:href="namespacetransform__.html#a51363ab29a6390a86a8ea75573a7a196" target="_top" xlink:title="Computes the y&#45;component of momentum (Py).">
<polygon fill="white" stroke="#666666" points="783,-93 695,-93 695,-74 783,-74 783,-93"/>
<text text-anchor="middle" x="739" y="-81" font-family="Helvetica,sans-Serif" font-size="10.00">transform_::Py</text>
</a>
</g>
</g>
<!-- Node16&#45;&gt;Node18 -->
<g id="edge20_Node000016_Node000018" class="edge">
<title>Node16&#45;&gt;Node18</title>
<g id="a_edge20_Node000016_Node000018"><a xlink:title=" ">
<path fill="none" stroke="#63b8ff" d="M627,-56.03C646.02,-60.74 669.17,-66.47 689.4,-71.47"/>
<polygon fill="#63b8ff" stroke="#63b8ff" points="688.82,-74.93 699.37,-73.94 690.5,-68.14 688.82,-74.93"/>
</a>
</g>
</g>
<!-- Node19 -->
<g id="Node000019" class="node">
<title>Node19</title>
<g id="a_Node000019"><a xlink:href="namespacetransform__.html#a28be39b0041a97b1667ccd1ff301f784" target="_top" xlink:title="Computes the z&#45;component of momentum (Pz).">
<polygon fill="white" stroke="#666666" points="782.5,-56 695.5,-56 695.5,-37 782.5,-37 782.5,-56"/>
<text text-anchor="middle" x="739" y="-44" font-family="Helvetica,sans-Serif" font-size="10.00">transform_::Pz</text>
</a>
</g>
</g>
<!-- Node16&#45;&gt;Node19 -->
<g id="edge21_Node000016_Node000019" class="edge">
<title>Node16&#45;&gt;Node19</title>
<g id="a_edge21_Node000016_Node000019"><a xlink:title=" ">
<path fill="none" stroke="#63b8ff" d="M643.32,-46.5C657,-46.5 671.64,-46.5 685.22,-46.5"/>
<polygon fill="#63b8ff" stroke="#63b8ff" points="685.36,-50 695.36,-46.5 685.36,-43 685.36,-50"/>
</a>
</g>
</g>
</g>
</svg>
