<?xml version="1.0" encoding="UTF-8" standalone="no"?>
<!DOCTYPE svg PUBLIC "-//W3C//DTD SVG 1.1//EN"
 "http://www.w3.org/Graphics/SVG/1.1/DTD/svg11.dtd">
<!-- Generated by graphviz version 2.43.0 (0)
 -->
<!-- Title: particle_template::get_mass Pages: 1 -->
<svg width="407pt" height="86pt"
 viewBox="0.00 0.00 407.00 86.00" xmlns="http://www.w3.org/2000/svg" xmlns:xlink="http://www.w3.org/1999/xlink">
<g id="graph0" class="graph" transform="scale(1 1) rotate(0) translate(4 82)">
<title>particle_template::get_mass</title>
<!-- Node1 -->
<g id="Node000001" class="node">
<title>Node1</title>
<g id="a_Node000001"><a xlink:title="Getter for mass.">
<polygon fill="#999999" stroke="#666666" points="399,-54 290,-54 290,-24 399,-24 399,-54"/>
<text text-anchor="start" x="298" y="-42" font-family="Helvetica,sans-Serif" font-size="10.00">particle_template::</text>
<text text-anchor="middle" x="344.5" y="-31" font-family="Helvetica,sans-Serif" font-size="10.00">get_mass</text>
</a>
</g>
</g>
<!-- Node2 -->
<g id="Node000002" class="node">
<title>Node2</title>
<g id="a_Node000002"><a xlink:href="classparticle__template.html#ab527ed22f6d67969247a0be9dda0165f" target="_top" xlink:title="Default constructor.">
<polygon fill="white" stroke="#666666" points="254,-54 145,-54 145,-24 254,-24 254,-54"/>
<text text-anchor="start" x="153" y="-42" font-family="Helvetica,sans-Serif" font-size="10.00">particle_template::</text>
<text text-anchor="middle" x="199.5" y="-31" font-family="Helvetica,sans-Serif" font-size="10.00">particle_template</text>
</a>
</g>
</g>
<!-- Node1&#45;&gt;Node2 -->
<g id="edge1_Node000001_Node000002" class="edge">
<title>Node1&#45;&gt;Node2</title>
<g id="a_edge1_Node000001_Node000002"><a xlink:title=" ">
<path fill="none" stroke="#63b8ff" d="M279.68,-39C271.25,-39 262.69,-39 254.46,-39"/>
<polygon fill="#63b8ff" stroke="#63b8ff" points="279.85,-42.5 289.85,-39 279.85,-35.5 279.85,-42.5"/>
</a>
</g>
</g>
<!-- Node3 -->
<g id="Node000003" class="node">
<title>Node3</title>
<g id="a_Node000003"><a xlink:href="classparticle__template.html#adf7b55df06b7621b0a6bc509f74d22ff" target="_top" xlink:title="Serializes particle data for storage.">
<polygon fill="white" stroke="#666666" points="109,-78 0,-78 0,-48 109,-48 109,-78"/>
<text text-anchor="start" x="8" y="-66" font-family="Helvetica,sans-Serif" font-size="10.00">particle_template::</text>
<text text-anchor="middle" x="54.5" y="-55" font-family="Helvetica,sans-Serif" font-size="10.00">__reduce__</text>
</a>
</g>
</g>
<!-- Node2&#45;&gt;Node3 -->
<g id="edge2_Node000002_Node000003" class="edge">
<title>Node2&#45;&gt;Node3</title>
<g id="a_edge2_Node000002_Node000003"><a xlink:title=" ">
<path fill="none" stroke="#63b8ff" d="M134.95,-49.67C126.44,-51.09 117.78,-52.55 109.46,-53.94"/>
<polygon fill="#63b8ff" stroke="#63b8ff" points="135.56,-53.11 144.85,-48 134.4,-46.21 135.56,-53.11"/>
</a>
</g>
</g>
<!-- Node4 -->
<g id="Node000004" class="node">
<title>Node4</title>
<g id="a_Node000004"><a xlink:href="classparticle__template.html#a6c492ed991c27a61acad61064fa89b3c" target="_top" xlink:title="Creates a clone of this particle.">
<polygon fill="white" stroke="#666666" points="109,-30 0,-30 0,0 109,0 109,-30"/>
<text text-anchor="start" x="8" y="-18" font-family="Helvetica,sans-Serif" font-size="10.00">particle_template::</text>
<text text-anchor="middle" x="54.5" y="-7" font-family="Helvetica,sans-Serif" font-size="10.00">clone</text>
</a>
</g>
</g>
<!-- Node2&#45;&gt;Node4 -->
<g id="edge3_Node000002_Node000004" class="edge">
<title>Node2&#45;&gt;Node4</title>
<g id="a_edge3_Node000002_Node000004"><a xlink:title=" ">
<path fill="none" stroke="#63b8ff" d="M134.95,-28.33C126.44,-26.91 117.78,-25.45 109.46,-24.06"/>
<polygon fill="#63b8ff" stroke="#63b8ff" points="134.4,-31.79 144.85,-30 135.56,-24.89 134.4,-31.79"/>
</a>
</g>
</g>
</g>
</svg>
