<?xml version="1.0" encoding="UTF-8" standalone="no"?>
<!DOCTYPE svg PUBLIC "-//W3C//DTD SVG 1.1//EN"
 "http://www.w3.org/Graphics/SVG/1.1/DTD/svg11.dtd">
<!-- Generated by graphviz version 2.43.0 (0)
 -->
<!-- Title: meta::parse_string Pages: 1 -->
<svg width="381pt" height="46pt"
 viewBox="0.00 0.00 381.00 46.00" xmlns="http://www.w3.org/2000/svg" xmlns:xlink="http://www.w3.org/1999/xlink">
<g id="graph0" class="graph" transform="scale(1 1) rotate(0) translate(4 42)">
<title>meta::parse_string</title>
<!-- Node1 -->
<g id="Node000001" class="node">
<title>Node1</title>
<g id="a_Node000001"><a xlink:title="Parses a string value from a TTree based on a key.">
<polygon fill="#999999" stroke="#666666" points="373,-38 265,-38 265,-19 373,-19 373,-38"/>
<text text-anchor="middle" x="319" y="-26" font-family="Helvetica,sans-Serif" font-size="10.00">meta::parse_string</text>
</a>
</g>
</g>
<!-- Node2 -->
<g id="Node000002" class="node">
<title>Node2</title>
<g id="a_Node000002"><a xlink:href="classmeta.html#ac20aa6b655d77e02eb08aabe78b6af7e" target="_top" xlink:title="Scans data from a generic ROOT object (e.g., TTree, TH1).">
<polygon fill="white" stroke="#666666" points="98,-38 0,-38 0,-19 98,-19 98,-38"/>
<text text-anchor="middle" x="49" y="-26" font-family="Helvetica,sans-Serif" font-size="10.00">meta::scan_data</text>
</a>
</g>
</g>
<!-- Node1&#45;&gt;Node2 -->
<g id="edge1_Node000001_Node000002" class="edge">
<title>Node1&#45;&gt;Node2</title>
<g id="a_edge1_Node000001_Node000002"><a xlink:title=" ">
<path fill="none" stroke="#63b8ff" d="M254.48,-28.5C206.58,-28.5 141.91,-28.5 98.22,-28.5"/>
<polygon fill="#63b8ff" stroke="#63b8ff" points="254.73,-32 264.73,-28.5 254.73,-25 254.73,-32"/>
</a>
</g>
</g>
<!-- Node3 -->
<g id="Node000003" class="node">
<title>Node3</title>
<g id="a_Node000003"><a xlink:href="classmeta.html#a24d8657dbb9d0d8903725ee01fe22c14" target="_top" xlink:title="Scans sum of weights (SoW) information from a ROOT object.">
<polygon fill="white" stroke="#666666" points="229,-19 134,-19 134,0 229,0 229,-19"/>
<text text-anchor="middle" x="181.5" y="-7" font-family="Helvetica,sans-Serif" font-size="10.00">meta::scan_sow</text>
</a>
</g>
</g>
<!-- Node1&#45;&gt;Node3 -->
<g id="edge2_Node000001_Node000003" class="edge">
<title>Node1&#45;&gt;Node3</title>
<g id="a_edge2_Node000001_Node000003"><a xlink:title=" ">
<path fill="none" stroke="#63b8ff" d="M254.84,-19.64C246.26,-18.44 237.58,-17.22 229.35,-16.07"/>
<polygon fill="#63b8ff" stroke="#63b8ff" points="254.45,-23.12 264.84,-21.05 255.42,-16.19 254.45,-23.12"/>
</a>
</g>
</g>
<!-- Node3&#45;&gt;Node2 -->
<g id="edge3_Node000003_Node000002" class="edge">
<title>Node3&#45;&gt;Node2</title>
<g id="a_edge3_Node000003_Node000002"><a xlink:title=" ">
<path fill="none" stroke="#63b8ff" d="M123.84,-17.75C115.29,-18.99 106.53,-20.27 98.18,-21.49"/>
<polygon fill="#63b8ff" stroke="#63b8ff" points="124.36,-21.21 133.76,-16.31 123.36,-14.28 124.36,-21.21"/>
</a>
</g>
</g>
</g>
</svg>
