<?xml version="1.0" encoding="UTF-8" standalone="no"?>
<!DOCTYPE svg PUBLIC "-//W3C//DTD SVG 1.1//EN"
 "http://www.w3.org/Graphics/SVG/1.1/DTD/svg11.dtd">
<!-- Generated by graphviz version 2.43.0 (0)
 -->
<!-- Title: io::write Pages: 1 -->
<svg width="433pt" height="64pt"
 viewBox="0.00 0.00 433.00 64.00" xmlns="http://www.w3.org/2000/svg" xmlns:xlink="http://www.w3.org/1999/xlink">
<g id="graph0" class="graph" transform="scale(1 1) rotate(0) translate(4 60)">
<title>io::write</title>
<!-- Node1 -->
<g id="Node000001" class="node">
<title>Node1</title>
<g id="a_Node000001"><a xlink:title="Templated method to write a vector of objects to a dataset.">
<polygon fill="#999999" stroke="#666666" points="56,-37 0,-37 0,-18 56,-18 56,-37"/>
<text text-anchor="middle" x="28" y="-25" font-family="Helvetica,sans-Serif" font-size="10.00">io::write</text>
</a>
</g>
</g>
<!-- Node2 -->
<g id="Node000002" class="node">
<title>Node2</title>
<g id="a_Node000002"><a xlink:href="classnotification.html#ab758dafbb449e142fb68e11c0470b5c9" target="_top" xlink:title="Outputs a warning message.">
<polygon fill="white" stroke="#666666" points="209,-56 92,-56 92,-37 209,-37 209,-56"/>
<text text-anchor="middle" x="150.5" y="-44" font-family="Helvetica,sans-Serif" font-size="10.00">notification::Warning</text>
</a>
</g>
</g>
<!-- Node1&#45;&gt;Node2 -->
<g id="edge1_Node000001_Node000002" class="edge">
<title>Node1&#45;&gt;Node2</title>
<g id="a_edge1_Node000001_Node000002"><a xlink:title=" ">
<path fill="none" stroke="#63b8ff" d="M56.04,-31.76C63.89,-33 72.83,-34.41 82,-35.86"/>
<polygon fill="#63b8ff" stroke="#63b8ff" points="81.57,-39.33 91.99,-37.43 82.66,-32.42 81.57,-39.33"/>
</a>
</g>
</g>
<!-- Node3 -->
<g id="Node000003" class="node">
<title>Node3</title>
<g id="a_Node000003"><a xlink:href="classio.html#a9ceaef5ce2a5f32905f1409a8c14ca20" target="_top" xlink:title="Templated method to write event data (vector of objects) to HDF5.">
<polygon fill="white" stroke="#666666" points="204,-19 97,-19 97,0 204,0 204,-19"/>
<text text-anchor="middle" x="150.5" y="-7" font-family="Helvetica,sans-Serif" font-size="10.00">io::write_event_h5</text>
</a>
</g>
</g>
<!-- Node1&#45;&gt;Node3 -->
<g id="edge2_Node000001_Node000003" class="edge">
<title>Node1&#45;&gt;Node3</title>
<g id="a_edge2_Node000001_Node000003"><a xlink:title=" ">
<path fill="none" stroke="#63b8ff" d="M56.04,-23.46C65.29,-22.08 76.05,-20.47 86.91,-18.85"/>
<polygon fill="#63b8ff" stroke="#63b8ff" points="87.5,-22.3 96.87,-17.36 86.47,-15.38 87.5,-22.3"/>
</a>
</g>
</g>
<!-- Node4 -->
<g id="Node000004" class="node">
<title>Node4</title>
<g id="a_Node000004"><a xlink:href="classio.html#a6fdc4311aa9426644ffffc6fa45a2bf3" target="_top" xlink:title="Generic HDF5 write operation for a vector of objects.">
<polygon fill="white" stroke="#666666" points="316,-19 245,-19 245,0 316,0 316,-19"/>
<text text-anchor="middle" x="280.5" y="-7" font-family="Helvetica,sans-Serif" font-size="10.00">io::H5Write</text>
</a>
</g>
</g>
<!-- Node3&#45;&gt;Node4 -->
<g id="edge3_Node000003_Node000004" class="edge">
<title>Node3&#45;&gt;Node4</title>
<g id="a_edge3_Node000003_Node000004"><a xlink:title=" ">
<path fill="none" stroke="#63b8ff" d="M204.3,-9.5C214.31,-9.5 224.71,-9.5 234.45,-9.5"/>
<polygon fill="#63b8ff" stroke="#63b8ff" points="234.73,-13 244.73,-9.5 234.73,-6 234.73,-13"/>
</a>
</g>
</g>
<!-- Node5 -->
<g id="Node000005" class="node">
<title>Node5</title>
<g id="a_Node000005"><a xlink:href="classio.html#a1b1fcdf426ced67387cc9579f8f0f3e2" target="_top" xlink:title="&lt; Private access specifier for the following members.">
<polygon fill="white" stroke="#666666" points="425,-19 352,-19 352,0 425,0 425,-19"/>
<text text-anchor="middle" x="388.5" y="-7" font-family="Helvetica,sans-Serif" font-size="10.00">io::member</text>
</a>
</g>
</g>
<!-- Node4&#45;&gt;Node5 -->
<g id="edge4_Node000004_Node000005" class="edge">
<title>Node4&#45;&gt;Node5</title>
<g id="a_edge4_Node000004_Node000005"><a xlink:title=" ">
<path fill="none" stroke="#63b8ff" d="M316.21,-9.5C324.36,-9.5 333.18,-9.5 341.74,-9.5"/>
<polygon fill="#63b8ff" stroke="#63b8ff" points="341.99,-13 351.99,-9.5 341.99,-6 341.99,-13"/>
</a>
</g>
</g>
</g>
</svg>
