<?xml version="1.0" encoding="UTF-8" standalone="no"?>
<!DOCTYPE svg PUBLIC "-//W3C//DTD SVG 1.1//EN"
 "http://www.w3.org/Graphics/SVG/1.1/DTD/svg11.dtd">
<!-- Generated by graphviz version 2.43.0 (0)
 -->
<!-- Title: top_children::clone Pages: 1 -->
<svg width="479pt" height="198pt"
 viewBox="0.00 0.00 479.00 197.50" xmlns="http://www.w3.org/2000/svg" xmlns:xlink="http://www.w3.org/1999/xlink">
<g id="graph0" class="graph" transform="scale(1 1) rotate(0) translate(4 193.5)">
<title>top_children::clone</title>
<!-- Node1 -->
<g id="Node000001" class="node">
<title>Node1</title>
<g id="a_Node000001"><a xlink:title="Creates a clone of this particle.">
<polygon fill="#999999" stroke="#666666" points="109,-93 0,-93 0,-74 109,-74 109,-93"/>
<text text-anchor="middle" x="54.5" y="-81" font-family="Helvetica,sans-Serif" font-size="10.00">top_children::clone</text>
</a>
</g>
</g>
<!-- Node2 -->
<g id="Node000002" class="node">
<title>Node2</title>
<g id="a_Node000002"><a xlink:href="classtop__children.html#a0479039c51f146cc0886e1dec06c48d7" target="_top" xlink:title=" ">
<polygon fill="white" stroke="#666666" points="288,-93 145,-93 145,-74 288,-74 288,-93"/>
<text text-anchor="middle" x="216.5" y="-81" font-family="Helvetica,sans-Serif" font-size="10.00">top_children::top_children</text>
</a>
</g>
</g>
<!-- Node1&#45;&gt;Node2 -->
<g id="edge1_Node000001_Node000002" class="edge">
<title>Node1&#45;&gt;Node2</title>
<g id="a_edge1_Node000001_Node000002"><a xlink:title=" ">
<path fill="none" stroke="#63b8ff" d="M109.22,-83.5C117.44,-83.5 126.08,-83.5 134.73,-83.5"/>
<polygon fill="#63b8ff" stroke="#63b8ff" points="134.87,-87 144.87,-83.5 134.87,-80 134.87,-87"/>
</a>
</g>
</g>
<!-- Node3 -->
<g id="Node000003" class="node">
<title>Node3</title>
<g id="a_Node000003"><a xlink:href="classparticle__template.html#a7fda73e06360bffd1bce45e7ba7370a5" target="_top" xlink:title="Adds a leaf (variable) to read for this particle.">
<polygon fill="white" stroke="#666666" points="452,-189.5 343,-189.5 343,-159.5 452,-159.5 452,-189.5"/>
<text text-anchor="start" x="351" y="-177.5" font-family="Helvetica,sans-Serif" font-size="10.00">particle_template::</text>
<text text-anchor="middle" x="397.5" y="-166.5" font-family="Helvetica,sans-Serif" font-size="10.00">add_leaf</text>
</a>
</g>
</g>
<!-- Node2&#45;&gt;Node3 -->
<g id="edge2_Node000002_Node000003" class="edge">
<title>Node2&#45;&gt;Node3</title>
<g id="a_edge2_Node000002_Node000003"><a xlink:title=" ">
<path fill="none" stroke="#63b8ff" d="M230.36,-93.04C249.81,-107.13 288.24,-133.64 324,-150.5 327.85,-152.31 331.86,-154.05 335.95,-155.7"/>
<polygon fill="#63b8ff" stroke="#63b8ff" points="334.98,-159.07 345.57,-159.38 337.49,-152.54 334.98,-159.07"/>
</a>
</g>
</g>
<!-- Node4 -->
<g id="Node000004" class="node">
<title>Node4</title>
<g id="a_Node000004"><a xlink:href="classparticle__template.html#a83757e8eb32e382a8c0444ede5dda548" target="_top" xlink:title="Applies the particle type as a prefix to leaf names.">
<polygon fill="white" stroke="#666666" points="452,-141.5 343,-141.5 343,-111.5 452,-111.5 452,-141.5"/>
<text text-anchor="start" x="351" y="-129.5" font-family="Helvetica,sans-Serif" font-size="10.00">particle_template::</text>
<text text-anchor="middle" x="397.5" y="-118.5" font-family="Helvetica,sans-Serif" font-size="10.00">apply_type_prefix</text>
</a>
</g>
</g>
<!-- Node2&#45;&gt;Node4 -->
<g id="edge3_Node000002_Node000004" class="edge">
<title>Node2&#45;&gt;Node4</title>
<g id="a_edge3_Node000002_Node000004"><a xlink:title=" ">
<path fill="none" stroke="#63b8ff" d="M257.23,-93.04C279.5,-98.39 307.81,-105.2 333.08,-111.27"/>
<polygon fill="#63b8ff" stroke="#63b8ff" points="332.42,-114.71 342.96,-113.64 334.06,-107.9 332.42,-114.71"/>
</a>
</g>
</g>
<!-- Node5 -->
<g id="Node000005" class="node">
<title>Node5</title>
<g id="a_Node000005"><a xlink:href="classtop__children.html#aa7e6d839a6df11052aae8869468c12e0" target="_top" xlink:title=" ">
<polygon fill="white" stroke="#666666" points="471,-93 324,-93 324,-74 471,-74 471,-93"/>
<text text-anchor="middle" x="397.5" y="-81" font-family="Helvetica,sans-Serif" font-size="10.00">top_children::get_from_res</text>
</a>
</g>
</g>
<!-- Node2&#45;&gt;Node5 -->
<g id="edge4_Node000002_Node000005" class="edge">
<title>Node2&#45;&gt;Node5</title>
<g id="a_edge4_Node000002_Node000005"><a xlink:title=" ">
<path fill="none" stroke="#63b8ff" d="M288.25,-83.5C296.67,-83.5 305.33,-83.5 313.91,-83.5"/>
<polygon fill="#63b8ff" stroke="#63b8ff" points="313.92,-87 323.92,-83.5 313.92,-80 313.92,-87"/>
</a>
</g>
</g>
<!-- Node6 -->
<g id="Node000006" class="node">
<title>Node6</title>
<g id="a_Node000006"><a xlink:href="classcproperty.html#a31b26b5ffb20bbf8d8ee38e0755a9819" target="_top" xlink:title="Sets the getter callback function.">
<polygon fill="white" stroke="#666666" points="456.5,-56 338.5,-56 338.5,-37 456.5,-37 456.5,-56"/>
<text text-anchor="middle" x="397.5" y="-44" font-family="Helvetica,sans-Serif" font-size="10.00">cproperty::set_getter</text>
</a>
</g>
</g>
<!-- Node2&#45;&gt;Node6 -->
<g id="edge5_Node000002_Node000006" class="edge">
<title>Node2&#45;&gt;Node6</title>
<g id="a_edge5_Node000002_Node000006"><a xlink:title=" ">
<path fill="none" stroke="#63b8ff" d="M263.6,-73.97C287,-69.14 315.62,-63.22 340.3,-58.12"/>
<polygon fill="#63b8ff" stroke="#63b8ff" points="341.16,-61.51 350.25,-56.06 339.75,-54.66 341.16,-61.51"/>
</a>
</g>
</g>
<!-- Node7 -->
<g id="Node000007" class="node">
<title>Node7</title>
<g id="a_Node000007"><a xlink:href="classcproperty.html#a41a70e8e01c9b1a20b94d2dbf1a6b214" target="_top" xlink:title="Sets the owning object for callback invocation.">
<polygon fill="white" stroke="#666666" points="457,-19 338,-19 338,0 457,0 457,-19"/>
<text text-anchor="middle" x="397.5" y="-7" font-family="Helvetica,sans-Serif" font-size="10.00">cproperty::set_object</text>
</a>
</g>
</g>
<!-- Node2&#45;&gt;Node7 -->
<g id="edge6_Node000002_Node000007" class="edge">
<title>Node2&#45;&gt;Node7</title>
<g id="a_edge6_Node000002_Node000007"><a xlink:title=" ">
<path fill="none" stroke="#63b8ff" d="M233.23,-73.97C253.57,-61.98 290.39,-41.4 324,-28.5 330.37,-26.06 337.16,-23.82 343.95,-21.8"/>
<polygon fill="#63b8ff" stroke="#63b8ff" points="345.16,-25.1 353.83,-19.01 343.26,-18.36 345.16,-25.1"/>
</a>
</g>
</g>
</g>
</svg>
