<?xml version="1.0" encoding="UTF-8" standalone="no"?>
<!DOCTYPE svg PUBLIC "-//W3C//DTD SVG 1.1//EN"
 "http://www.w3.org/Graphics/SVG/1.1/DTD/svg11.dtd">
<!-- Generated by graphviz version 2.43.0 (0)
 -->
<!-- Title: metrics::dump_loss_plots Pages: 1 -->
<svg width="535pt" height="82pt"
 viewBox="0.00 0.00 535.00 82.00" xmlns="http://www.w3.org/2000/svg" xmlns:xlink="http://www.w3.org/1999/xlink">
<g id="graph0" class="graph" transform="scale(1 1) rotate(0) translate(4 78)">
<title>metrics::dump_loss_plots</title>
<!-- Node1 -->
<g id="Node000001" class="node">
<title>Node1</title>
<g id="a_Node000001"><a xlink:title=" ">
<polygon fill="#999999" stroke="#666666" points="112,-60.5 0,-60.5 0,-30.5 112,-30.5 112,-60.5"/>
<text text-anchor="start" x="8" y="-48.5" font-family="Helvetica,sans-Serif" font-size="10.00">metrics::dump_loss</text>
<text text-anchor="middle" x="56" y="-37.5" font-family="Helvetica,sans-Serif" font-size="10.00">_plots</text>
</a>
</g>
</g>
<!-- Node2 -->
<g id="Node000002" class="node">
<title>Node2</title>
<g id="a_Node000002"><a xlink:href="classmetrics.html#a7162cd61c9bc558f153702b080607b9e" target="_top" xlink:title=" ">
<polygon fill="white" stroke="#666666" points="276.5,-74 154.5,-74 154.5,-55 276.5,-55 276.5,-74"/>
<text text-anchor="middle" x="215.5" y="-62" font-family="Helvetica,sans-Serif" font-size="10.00">metrics::build_graphs</text>
</a>
</g>
</g>
<!-- Node1&#45;&gt;Node2 -->
<g id="edge1_Node000001_Node000002" class="edge">
<title>Node1&#45;&gt;Node2</title>
<g id="a_edge1_Node000001_Node000002"><a xlink:title=" ">
<path fill="none" stroke="#63b8ff" d="M112.09,-52.15C122.44,-53.39 133.39,-54.72 144.14,-56.01"/>
<polygon fill="#63b8ff" stroke="#63b8ff" points="144,-59.52 154.35,-57.24 144.84,-52.57 144,-59.52"/>
</a>
</g>
</g>
<!-- Node3 -->
<g id="Node000003" class="node">
<title>Node3</title>
<g id="a_Node000003"><a xlink:href="classmetrics.html#a160fdefa51ba1fd2135307d3722acc1d" target="_top" xlink:title=" ">
<polygon fill="white" stroke="#666666" points="283,-37 148,-37 148,-18 283,-18 283,-37"/>
<text text-anchor="middle" x="215.5" y="-25" font-family="Helvetica,sans-Serif" font-size="10.00">metrics::generic_painter</text>
</a>
</g>
</g>
<!-- Node1&#45;&gt;Node3 -->
<g id="edge2_Node000001_Node000003" class="edge">
<title>Node1&#45;&gt;Node3</title>
<g id="a_edge2_Node000001_Node000003"><a xlink:title=" ">
<path fill="none" stroke="#63b8ff" d="M112.09,-39.2C120.37,-38.26 129.05,-37.27 137.69,-36.28"/>
<polygon fill="#63b8ff" stroke="#63b8ff" points="138.26,-39.74 147.8,-35.12 137.47,-32.78 138.26,-39.74"/>
</a>
</g>
</g>
<!-- Node4 -->
<g id="Node000004" class="node">
<title>Node4</title>
<g id="a_Node000004"><a xlink:href="classtools.html#aed9f3247b474a8fb1840860d51cde7ca" target="_top" xlink:title="Creates a directory path, including parent directories if needed.">
<polygon fill="white" stroke="#666666" points="423,-56 319,-56 319,-37 423,-37 423,-56"/>
<text text-anchor="middle" x="371" y="-44" font-family="Helvetica,sans-Serif" font-size="10.00">tools::create_path</text>
</a>
</g>
</g>
<!-- Node3&#45;&gt;Node4 -->
<g id="edge3_Node000003_Node000004" class="edge">
<title>Node3&#45;&gt;Node4</title>
<g id="a_edge3_Node000003_Node000004"><a xlink:title=" ">
<path fill="none" stroke="#63b8ff" d="M283.38,-35.78C291.77,-36.82 300.31,-37.87 308.61,-38.9"/>
<polygon fill="#63b8ff" stroke="#63b8ff" points="308.22,-42.38 318.58,-40.13 309.08,-35.43 308.22,-42.38"/>
</a>
</g>
</g>
<!-- Node6 -->
<g id="Node000006" class="node">
<title>Node6</title>
<g id="a_Node000006"><a xlink:href="classtools.html#ad7229c72cee65da3605c4be82f9b42d4" target="_top" xlink:title="Checks if a string contains a specific substring.">
<polygon fill="white" stroke="#666666" points="419.5,-19 322.5,-19 322.5,0 419.5,0 419.5,-19"/>
<text text-anchor="middle" x="371" y="-7" font-family="Helvetica,sans-Serif" font-size="10.00">tools::has_string</text>
</a>
</g>
</g>
<!-- Node3&#45;&gt;Node6 -->
<g id="edge5_Node000003_Node000006" class="edge">
<title>Node3&#45;&gt;Node6</title>
<g id="a_edge5_Node000003_Node000006"><a xlink:title=" ">
<path fill="none" stroke="#63b8ff" d="M283.38,-19.66C292.99,-18.53 302.81,-17.38 312.23,-16.27"/>
<polygon fill="#63b8ff" stroke="#63b8ff" points="312.73,-19.74 322.26,-15.1 311.92,-12.79 312.73,-19.74"/>
</a>
</g>
</g>
<!-- Node5 -->
<g id="Node000005" class="node">
<title>Node5</title>
<g id="a_Node000005"><a xlink:href="classtools.html#a352a6965f2f3c768f0f4ecd1f978fcc0" target="_top" xlink:title="Splits a string into a vector of substrings based on a delimiter.">
<polygon fill="white" stroke="#666666" points="527,-56 459,-56 459,-37 527,-37 527,-56"/>
<text text-anchor="middle" x="493" y="-44" font-family="Helvetica,sans-Serif" font-size="10.00">tools::split</text>
</a>
</g>
</g>
<!-- Node4&#45;&gt;Node5 -->
<g id="edge4_Node000004_Node000005" class="edge">
<title>Node4&#45;&gt;Node5</title>
<g id="a_edge4_Node000004_Node000005"><a xlink:title=" ">
<path fill="none" stroke="#63b8ff" d="M423.24,-46.5C431.75,-46.5 440.5,-46.5 448.79,-46.5"/>
<polygon fill="#63b8ff" stroke="#63b8ff" points="448.98,-50 458.98,-46.5 448.98,-43 448.98,-50"/>
</a>
</g>
</g>
</g>
</svg>
