<?xml version="1.0" encoding="UTF-8" standalone="no"?>
<!DOCTYPE svg PUBLIC "-//W3C//DTD SVG 1.1//EN"
 "http://www.w3.org/Graphics/SVG/1.1/DTD/svg11.dtd">
<!-- Generated by graphviz version 2.43.0 (0)
 -->
<!-- Title: graph_template::add_graph_truth_feature Pages: 1 -->
<svg width="654pt" height="144pt"
 viewBox="0.00 0.00 654.00 144.00" xmlns="http://www.w3.org/2000/svg" xmlns:xlink="http://www.w3.org/1999/xlink">
<g id="graph0" class="graph" transform="scale(1 1) rotate(0) translate(4 140)">
<title>graph_template::add_graph_truth_feature</title>
<!-- Node1 -->
<g id="Node000001" class="node">
<title>Node1</title>
<g id="a_Node000001"><a xlink:title="Adds a graph&#45;level truth feature.">
<polygon fill="#999999" stroke="#666666" points="119,-61.5 0,-61.5 0,-31.5 119,-31.5 119,-61.5"/>
<text text-anchor="start" x="8" y="-49.5" font-family="Helvetica,sans-Serif" font-size="10.00">graph_template::add</text>
<text text-anchor="middle" x="59.5" y="-38.5" font-family="Helvetica,sans-Serif" font-size="10.00">_graph_truth_feature</text>
</a>
</g>
</g>
<!-- Node2 -->
<g id="Node000002" class="node">
<title>Node2</title>
<g id="a_Node000002"><a xlink:href="classgraph__template.html#a185c7464be35c70cf3a51df81b744713" target="_top" xlink:title=" ">
<polygon fill="white" stroke="#666666" points="273.5,-104.5 155.5,-104.5 155.5,-74.5 273.5,-74.5 273.5,-104.5"/>
<text text-anchor="start" x="163.5" y="-92.5" font-family="Helvetica,sans-Serif" font-size="10.00">graph_template::add</text>
<text text-anchor="middle" x="214.5" y="-81.5" font-family="Helvetica,sans-Serif" font-size="10.00">_graph_feature</text>
</a>
</g>
</g>
<!-- Node1&#45;&gt;Node2 -->
<g id="edge1_Node000001_Node000002" class="edge">
<title>Node1&#45;&gt;Node2</title>
<g id="a_edge1_Node000001_Node000002"><a xlink:title=" ">
<path fill="none" stroke="#63b8ff" d="M114.01,-61.54C125.66,-64.81 138.09,-68.31 150.08,-71.68"/>
<polygon fill="#63b8ff" stroke="#63b8ff" points="149.44,-75.13 160.02,-74.47 151.34,-68.39 149.44,-75.13"/>
</a>
</g>
</g>
<!-- Node8 -->
<g id="Node000008" class="node">
<title>Node8</title>
<g id="a_Node000008"><a xlink:href="classcproperty.html#a31b26b5ffb20bbf8d8ee38e0755a9819" target="_top" xlink:title="Sets the getter callback function.">
<polygon fill="white" stroke="#666666" points="273.5,-56 155.5,-56 155.5,-37 273.5,-37 273.5,-56"/>
<text text-anchor="middle" x="214.5" y="-44" font-family="Helvetica,sans-Serif" font-size="10.00">cproperty::set_getter</text>
</a>
</g>
</g>
<!-- Node1&#45;&gt;Node8 -->
<g id="edge7_Node000001_Node000008" class="edge">
<title>Node1&#45;&gt;Node8</title>
<g id="a_edge7_Node000001_Node000008"><a xlink:title=" ">
<path fill="none" stroke="#63b8ff" d="M119.22,-46.5C127.76,-46.5 136.61,-46.5 145.32,-46.5"/>
<polygon fill="#63b8ff" stroke="#63b8ff" points="145.45,-50 155.45,-46.5 145.45,-43 145.45,-50"/>
</a>
</g>
</g>
<!-- Node9 -->
<g id="Node000009" class="node">
<title>Node9</title>
<g id="a_Node000009"><a xlink:href="classcproperty.html#a41a70e8e01c9b1a20b94d2dbf1a6b214" target="_top" xlink:title="Sets the owning object for callback invocation.">
<polygon fill="white" stroke="#666666" points="274,-19 155,-19 155,0 274,0 274,-19"/>
<text text-anchor="middle" x="214.5" y="-7" font-family="Helvetica,sans-Serif" font-size="10.00">cproperty::set_object</text>
</a>
</g>
</g>
<!-- Node1&#45;&gt;Node9 -->
<g id="edge8_Node000001_Node000009" class="edge">
<title>Node1&#45;&gt;Node9</title>
<g id="a_edge8_Node000001_Node000009"><a xlink:title=" ">
<path fill="none" stroke="#63b8ff" d="M119.22,-32.3C134,-28.73 149.72,-24.92 164,-21.47"/>
<polygon fill="#63b8ff" stroke="#63b8ff" points="165.21,-24.78 174.11,-19.03 163.57,-17.97 165.21,-24.78"/>
</a>
</g>
</g>
<!-- Node3 -->
<g id="Node000003" class="node">
<title>Node3</title>
<g id="a_Node000003"><a xlink:href="classgraph__template.html#a255ec8fcf27b7352445397e5245cc9ef" target="_top" xlink:title=" ">
<polygon fill="white" stroke="#666666" points="420,-104.5 310,-104.5 310,-74.5 420,-74.5 420,-104.5"/>
<text text-anchor="start" x="318" y="-92.5" font-family="Helvetica,sans-Serif" font-size="10.00">graph_template::to</text>
<text text-anchor="middle" x="365" y="-81.5" font-family="Helvetica,sans-Serif" font-size="10.00">_tensor</text>
</a>
</g>
</g>
<!-- Node2&#45;&gt;Node3 -->
<g id="edge2_Node000002_Node000003" class="edge">
<title>Node2&#45;&gt;Node3</title>
<g id="a_edge2_Node000002_Node000003"><a xlink:title=" ">
<path fill="none" stroke="#63b8ff" d="M273.76,-89.5C282.29,-89.5 291.11,-89.5 299.75,-89.5"/>
<polygon fill="#63b8ff" stroke="#63b8ff" points="299.78,-93 309.78,-89.5 299.78,-86 299.78,-93"/>
</a>
</g>
</g>
<!-- Node4 -->
<g id="Node000004" class="node">
<title>Node4</title>
<g id="a_Node000004"><a xlink:href="tensor__cast_8h.html#a27121e7e5aeb77bda0453dd6214cf7fb" target="_top" xlink:title=" ">
<polygon fill="white" stroke="#666666" points="533,-99 456,-99 456,-80 533,-80 533,-99"/>
<text text-anchor="middle" x="494.5" y="-87" font-family="Helvetica,sans-Serif" font-size="10.00">build_tensor</text>
</a>
</g>
</g>
<!-- Node3&#45;&gt;Node4 -->
<g id="edge3_Node000003_Node000004" class="edge">
<title>Node3&#45;&gt;Node4</title>
<g id="a_edge3_Node000003_Node000004"><a xlink:title=" ">
<path fill="none" stroke="#63b8ff" d="M420.07,-89.5C428.66,-89.5 437.49,-89.5 445.91,-89.5"/>
<polygon fill="#63b8ff" stroke="#63b8ff" points="445.95,-93 455.95,-89.5 445.95,-86 445.95,-93"/>
</a>
</g>
</g>
<!-- Node5 -->
<g id="Node000005" class="node">
<title>Node5</title>
<g id="a_Node000005"><a xlink:href="tensor__cast_8h.html#a49d70dbad1cfb3e27ebb8960cff818bb" target="_top" xlink:title=" ">
<polygon fill="white" stroke="#666666" points="646,-136 569,-136 569,-117 646,-117 646,-136"/>
<text text-anchor="middle" x="607.5" y="-124" font-family="Helvetica,sans-Serif" font-size="10.00">as_primitive</text>
</a>
</g>
</g>
<!-- Node4&#45;&gt;Node5 -->
<g id="edge4_Node000004_Node000005" class="edge">
<title>Node4&#45;&gt;Node5</title>
<g id="a_edge4_Node000004_Node000005"><a xlink:title=" ">
<path fill="none" stroke="#63b8ff" d="M524.09,-99.03C537.45,-103.48 553.55,-108.85 567.97,-113.66"/>
<polygon fill="#63b8ff" stroke="#63b8ff" points="567.03,-117.03 577.63,-116.88 569.25,-110.39 567.03,-117.03"/>
</a>
</g>
</g>
<!-- Node6 -->
<g id="Node000006" class="node">
<title>Node6</title>
<g id="a_Node000006"><a xlink:href="tensor__cast_8h.html#af735bf7b89e3864dbde7fe5def867d4d" target="_top" xlink:title=" ">
<polygon fill="white" stroke="#666666" points="641,-99 574,-99 574,-80 641,-80 641,-99"/>
<text text-anchor="middle" x="607.5" y="-87" font-family="Helvetica,sans-Serif" font-size="10.00">scout_dim</text>
</a>
</g>
</g>
<!-- Node4&#45;&gt;Node6 -->
<g id="edge5_Node000004_Node000006" class="edge">
<title>Node4&#45;&gt;Node6</title>
<g id="a_edge5_Node000004_Node000006"><a xlink:title=" ">
<path fill="none" stroke="#63b8ff" d="M533.08,-89.5C542.88,-89.5 553.52,-89.5 563.58,-89.5"/>
<polygon fill="#63b8ff" stroke="#63b8ff" points="563.79,-93 573.79,-89.5 563.79,-86 563.79,-93"/>
</a>
</g>
</g>
<!-- Node7 -->
<g id="Node000007" class="node">
<title>Node7</title>
<g id="a_Node000007"><a xlink:href="tensor__cast_8h.html#af14120999422d60b3d0aef376398fca6" target="_top" xlink:title=" ">
<polygon fill="white" stroke="#666666" points="637,-62 578,-62 578,-43 637,-43 637,-62"/>
<text text-anchor="middle" x="607.5" y="-50" font-family="Helvetica,sans-Serif" font-size="10.00">standard</text>
</a>
</g>
</g>
<!-- Node4&#45;&gt;Node7 -->
<g id="edge6_Node000004_Node000007" class="edge">
<title>Node4&#45;&gt;Node7</title>
<g id="a_edge6_Node000004_Node000007"><a xlink:title=" ">
<path fill="none" stroke="#63b8ff" d="M524.09,-79.97C537.45,-75.52 553.55,-70.15 567.97,-65.34"/>
<polygon fill="#63b8ff" stroke="#63b8ff" points="569.25,-68.61 577.63,-62.12 567.03,-61.97 569.25,-68.61"/>
</a>
</g>
</g>
</g>
</svg>
