<?xml version="1.0" encoding="UTF-8" standalone="no"?>
<!DOCTYPE svg PUBLIC "-//W3C//DTD SVG 1.1//EN"
 "http://www.w3.org/Graphics/SVG/1.1/DTD/svg11.dtd">
<!-- Generated by graphviz version 2.43.0 (0)
 -->
<!-- Title: metric_template::metric_template Pages: 1 -->
<svg width="490pt" height="370pt"
 viewBox="0.00 0.00 490.00 369.50" xmlns="http://www.w3.org/2000/svg" xmlns:xlink="http://www.w3.org/1999/xlink">

<svg id="main" version="1.1" xmlns="http://www.w3.org/2000/svg" xmlns:xlink="http://www.w3.org/1999/xlink" xml:space="preserve" onload="init(evt)">
<style type="text/css"><![CDATA[
.node, .edge {opacity: 0.7;}
.node.selected, .edge.selected {opacity: 1;}
.edge:hover path { stroke: red; }
.edge:hover polygon { stroke: red; fill: red; }
]]></style>
<script type="application/ecmascript" xlink:href="svg.min.js"/>
<svg id="graph" class="graph">
<g id="graph0" class="graph" transform="scale(1 1) rotate(0) translate(4 365.5)">
<title>metric_template::metric_template</title>
<!-- Node1 -->
<g id="Node000001" class="node">
<title>Node1</title>
<g id="a_Node000001"><a xlink:title=" ">
<polygon fill="#999999" stroke="#666666" points="135,-196 0,-196 0,-166 135,-166 135,-196"/>
<text text-anchor="start" x="8" y="-184" font-family="Helvetica,sans-Serif" font-size="10.00">metric_template::metric</text>
<text text-anchor="middle" x="67.5" y="-173" font-family="Helvetica,sans-Serif" font-size="10.00">_template</text>
</a>
</g>
</g>
<!-- Node2 -->
<g id="Node000002" class="node">
<title>Node2</title>
<g id="a_Node000002"><a xlink:href="classmetric__template.html#a0c0752bec56d2ed585edb6292f77487f" target="_top" xlink:title=" ">
<polygon fill="white" stroke="#666666" points="323,-361.5 171,-361.5 171,-342.5 323,-342.5 323,-361.5"/>
<text text-anchor="middle" x="247" y="-349.5" font-family="Helvetica,sans-Serif" font-size="10.00">metric_template::get_name</text>
</a>
</g>
</g>
<!-- Node1&#45;&gt;Node2 -->
<g id="edge1_Node000001_Node000002" class="edge">
<title>Node1&#45;&gt;Node2</title>
<g id="a_edge1_Node000001_Node000002"><a xlink:title=" ">
<path fill="none" stroke="#63b8ff" d="M74.34,-196.22C87,-227.08 119.97,-297.12 171,-333 173.75,-334.93 176.67,-336.67 179.72,-338.23"/>
<polygon fill="#63b8ff" stroke="#63b8ff" points="178.58,-341.55 189.14,-342.4 181.41,-335.15 178.58,-341.55"/>
</a>
</g>
</g>
<!-- Node3 -->
<g id="Node000003" class="node">
<title>Node3</title>
<g id="a_Node000003"><a xlink:href="classmetric__template.html#a8dd368a685f0ab138ae020ed9ef1b214" target="_top" xlink:title=" ">
<polygon fill="white" stroke="#666666" points="306.5,-324 187.5,-324 187.5,-294 306.5,-294 306.5,-324"/>
<text text-anchor="start" x="195.5" y="-312" font-family="Helvetica,sans-Serif" font-size="10.00">metric_template::get</text>
<text text-anchor="middle" x="247" y="-301" font-family="Helvetica,sans-Serif" font-size="10.00">_run_name</text>
</a>
</g>
</g>
<!-- Node1&#45;&gt;Node3 -->
<g id="edge2_Node000001_Node000003" class="edge">
<title>Node1&#45;&gt;Node3</title>
<g id="a_edge2_Node000001_Node000003"><a xlink:title=" ">
<path fill="none" stroke="#63b8ff" d="M79.67,-196.36C96.86,-218.93 131.91,-260.97 171,-285 173.65,-286.63 176.42,-288.16 179.28,-289.59"/>
<polygon fill="#63b8ff" stroke="#63b8ff" points="178.05,-292.88 188.6,-293.86 180.96,-286.52 178.05,-292.88"/>
</a>
</g>
</g>
<!-- Node4 -->
<g id="Node000004" class="node">
<title>Node4</title>
<g id="a_Node000004"><a xlink:href="classmetric__template.html#a955eb7a68c413fdcff1d6c5bdba4c5ac" target="_top" xlink:title=" ">
<polygon fill="white" stroke="#666666" points="306.5,-276 187.5,-276 187.5,-246 306.5,-246 306.5,-276"/>
<text text-anchor="start" x="195.5" y="-264" font-family="Helvetica,sans-Serif" font-size="10.00">metric_template::get</text>
<text text-anchor="middle" x="247" y="-253" font-family="Helvetica,sans-Serif" font-size="10.00">_variables</text>
</a>
</g>
</g>
<!-- Node1&#45;&gt;Node4 -->
<g id="edge3_Node000001_Node000004" class="edge">
<title>Node1&#45;&gt;Node4</title>
<g id="a_edge3_Node000001_Node000004"><a xlink:title=" ">
<path fill="none" stroke="#63b8ff" d="M93.11,-196.18C113.47,-208.31 143.42,-225.18 171,-237 175.4,-238.89 180,-240.71 184.67,-242.44"/>
<polygon fill="#63b8ff" stroke="#63b8ff" points="183.69,-245.81 194.29,-245.88 186.05,-239.22 183.69,-245.81"/>
</a>
</g>
</g>
<!-- Node6 -->
<g id="Node000006" class="node">
<title>Node6</title>
<g id="a_Node000006"><a xlink:href="classcproperty.html#a31b26b5ffb20bbf8d8ee38e0755a9819" target="_top" xlink:title="Sets the getter callback function.">
<polygon fill="white" stroke="#666666" points="306,-227.5 188,-227.5 188,-208.5 306,-208.5 306,-227.5"/>
<text text-anchor="middle" x="247" y="-215.5" font-family="Helvetica,sans-Serif" font-size="10.00">cproperty::set_getter</text>
</a>
</g>
</g>
<!-- Node1&#45;&gt;Node6 -->
<g id="edge5_Node000001_Node000006" class="edge">
<title>Node1&#45;&gt;Node6</title>
<g id="a_edge5_Node000001_Node000006"><a xlink:title=" ">
<path fill="none" stroke="#63b8ff" d="M135.1,-194.88C153.27,-198.67 172.77,-202.74 190.27,-206.38"/>
<polygon fill="#63b8ff" stroke="#63b8ff" points="189.81,-209.86 200.32,-208.48 191.24,-203.01 189.81,-209.86"/>
</a>
</g>
</g>
<!-- Node7 -->
<g id="Node000007" class="node">
<title>Node7</title>
<g id="a_Node000007"><a xlink:href="classmetric__template.html#a85d83f331257a2bcbaca37f1eb4b5d5c" target="_top" xlink:title=" ">
<polygon fill="white" stroke="#666666" points="323,-190.5 171,-190.5 171,-171.5 323,-171.5 323,-190.5"/>
<text text-anchor="middle" x="247" y="-178.5" font-family="Helvetica,sans-Serif" font-size="10.00">metric_template::set_name</text>
</a>
</g>
</g>
<!-- Node1&#45;&gt;Node7 -->
<g id="edge6_Node000001_Node000007" class="edge">
<title>Node1&#45;&gt;Node7</title>
<g id="a_edge6_Node000001_Node000007"><a xlink:title=" ">
<path fill="none" stroke="#63b8ff" d="M135.1,-181C143.51,-181 152.21,-181 160.86,-181"/>
<polygon fill="#63b8ff" stroke="#63b8ff" points="160.98,-184.5 170.98,-181 160.98,-177.5 160.98,-184.5"/>
</a>
</g>
</g>
<!-- Node8 -->
<g id="Node000008" class="node">
<title>Node8</title>
<g id="a_Node000008"><a xlink:href="classcproperty.html#a41a70e8e01c9b1a20b94d2dbf1a6b214" target="_top" xlink:title="Sets the owning object for callback invocation.">
<polygon fill="white" stroke="#666666" points="306.5,-153.5 187.5,-153.5 187.5,-134.5 306.5,-134.5 306.5,-153.5"/>
<text text-anchor="middle" x="247" y="-141.5" font-family="Helvetica,sans-Serif" font-size="10.00">cproperty::set_object</text>
</a>
</g>
</g>
<!-- Node1&#45;&gt;Node8 -->
<g id="edge7_Node000001_Node000008" class="edge">
<title>Node1&#45;&gt;Node8</title>
<g id="a_edge7_Node000001_Node000008"><a xlink:title=" ">
<path fill="none" stroke="#63b8ff" d="M135.1,-167.12C153.27,-163.33 172.77,-159.26 190.27,-155.62"/>
<polygon fill="#63b8ff" stroke="#63b8ff" points="191.24,-158.99 200.32,-153.52 189.81,-152.14 191.24,-158.99"/>
</a>
</g>
</g>
<!-- Node9 -->
<g id="Node000009" class="node">
<title>Node9</title>
<g id="a_Node000009"><a xlink:href="classmetric__template.html#ad34828d0d75d5b0a656ef881620fbc7c" target="_top" xlink:title=" ">
<polygon fill="white" stroke="#666666" points="306.5,-116 187.5,-116 187.5,-86 306.5,-86 306.5,-116"/>
<text text-anchor="start" x="195.5" y="-104" font-family="Helvetica,sans-Serif" font-size="10.00">metric_template::set</text>
<text text-anchor="middle" x="247" y="-93" font-family="Helvetica,sans-Serif" font-size="10.00">_run_name</text>
</a>
</g>
</g>
<!-- Node1&#45;&gt;Node9 -->
<g id="edge8_Node000001_Node000009" class="edge">
<title>Node1&#45;&gt;Node9</title>
<g id="a_edge8_Node000001_Node000009"><a xlink:title=" ">
<path fill="none" stroke="#63b8ff" d="M93.6,-165.97C113.99,-154.15 143.74,-137.75 171,-126 176.12,-123.79 181.5,-121.66 186.94,-119.62"/>
<polygon fill="#63b8ff" stroke="#63b8ff" points="188.52,-122.77 196.73,-116.08 186.14,-116.19 188.52,-122.77"/>
</a>
</g>
</g>
<!-- Node13 -->
<g id="Node000013" class="node">
<title>Node13</title>
<g id="a_Node000013"><a xlink:href="classcproperty.html#af4583ba4cf4ebc53f870a2de8f110da7" target="_top" xlink:title="Sets the setter callback function.">
<polygon fill="white" stroke="#666666" points="305.5,-67.5 188.5,-67.5 188.5,-48.5 305.5,-48.5 305.5,-67.5"/>
<text text-anchor="middle" x="247" y="-55.5" font-family="Helvetica,sans-Serif" font-size="10.00">cproperty::set_setter</text>
</a>
</g>
</g>
<!-- Node1&#45;&gt;Node13 -->
<g id="edge13_Node000001_Node000013" class="edge">
<title>Node1&#45;&gt;Node13</title>
<g id="a_edge13_Node000001_Node000013"><a xlink:title=" ">
<path fill="none" stroke="#63b8ff" d="M79.21,-165.7C96.05,-142.83 130.97,-99.94 171,-77 174.91,-74.76 179.08,-72.78 183.38,-71.03"/>
<polygon fill="#63b8ff" stroke="#63b8ff" points="184.73,-74.27 192.94,-67.56 182.34,-67.69 184.73,-74.27"/>
</a>
</g>
</g>
<!-- Node14 -->
<g id="Node000014" class="node">
<title>Node14</title>
<g id="a_Node000014"><a xlink:href="classmetric__template.html#a5209be08253548a7a56bd2f08db31a8c" target="_top" xlink:title=" ">
<polygon fill="white" stroke="#666666" points="306.5,-30 187.5,-30 187.5,0 306.5,0 306.5,-30"/>
<text text-anchor="start" x="195.5" y="-18" font-family="Helvetica,sans-Serif" font-size="10.00">metric_template::set</text>
<text text-anchor="middle" x="247" y="-7" font-family="Helvetica,sans-Serif" font-size="10.00">_variables</text>
</a>
</g>
</g>
<!-- Node1&#45;&gt;Node14 -->
<g id="edge14_Node000001_Node000014" class="edge">
<title>Node1&#45;&gt;Node14</title>
<g id="a_edge14_Node000001_Node000014"><a xlink:title=" ">
<path fill="none" stroke="#63b8ff" d="M75.44,-165.69C89.36,-136.67 123.5,-73.46 171,-39 173.33,-37.31 175.79,-35.73 178.34,-34.26"/>
<polygon fill="#63b8ff" stroke="#63b8ff" points="179.98,-37.35 187.29,-29.67 176.79,-31.12 179.98,-37.35"/>
</a>
</g>
</g>
<!-- Node5 -->
<g id="Node000005" class="node">
<title>Node5</title>
<g id="a_Node000005"><a xlink:href="classmetric__template.html#abdaf01c257c4d00b3861432f34d10939" target="_top" xlink:title=" ">
<polygon fill="white" stroke="#666666" points="481.5,-225.5 359.5,-225.5 359.5,-206.5 481.5,-206.5 481.5,-225.5"/>
<text text-anchor="middle" x="420.5" y="-213.5" font-family="Helvetica,sans-Serif" font-size="10.00">metric_template::end</text>
</a>
</g>
</g>
<!-- Node4&#45;&gt;Node5 -->
<g id="edge4_Node000004_Node000005" class="edge">
<title>Node4&#45;&gt;Node5</title>
<g id="a_edge4_Node000004_Node000005"><a xlink:title=" ">
<path fill="none" stroke="#63b8ff" d="M305.58,-245.89C327.66,-240.1 352.54,-233.57 373.4,-228.1"/>
<polygon fill="#63b8ff" stroke="#63b8ff" points="374.51,-231.42 383.29,-225.5 372.73,-224.65 374.51,-231.42"/>
</a>
</g>
</g>
<!-- Node9&#45;&gt;Node5 -->
<g id="edge9_Node000009_Node000005" class="edge">
<title>Node9&#45;&gt;Node5</title>
<g id="a_edge9_Node000009_Node000005"><a xlink:title=" ">
<path fill="none" stroke="#63b8ff" d="M302.5,-116.06C309.61,-118.91 316.63,-122.21 323,-126 340.53,-136.42 380.34,-175.86 402.97,-198.93"/>
<polygon fill="#63b8ff" stroke="#63b8ff" points="400.7,-201.62 410.19,-206.33 405.71,-196.73 400.7,-201.62"/>
</a>
</g>
</g>
<!-- Node10 -->
<g id="Node000010" class="node">
<title>Node10</title>
<g id="a_Node000010"><a xlink:href="classtools.html#ad7229c72cee65da3605c4be82f9b42d4" target="_top" xlink:title="Checks if a string contains a specific substring.">
<polygon fill="white" stroke="#666666" points="469,-144.5 372,-144.5 372,-125.5 469,-125.5 469,-144.5"/>
<text text-anchor="middle" x="420.5" y="-132.5" font-family="Helvetica,sans-Serif" font-size="10.00">tools::has_string</text>
</a>
</g>
</g>
<!-- Node9&#45;&gt;Node10 -->
<g id="edge10_Node000009_Node000010" class="edge">
<title>Node9&#45;&gt;Node10</title>
<g id="a_edge10_Node000009_Node000010"><a xlink:title=" ">
<path fill="none" stroke="#63b8ff" d="M306.54,-112.61C324.31,-116.13 343.81,-119.99 361.53,-123.51"/>
<polygon fill="#63b8ff" stroke="#63b8ff" points="361.25,-127.02 371.74,-125.53 362.61,-120.15 361.25,-127.02"/>
</a>
</g>
</g>
<!-- Node11 -->
<g id="Node000011" class="node">
<title>Node11</title>
<g id="a_Node000011"><a xlink:href="classtools.html#a47d3d261edcb898daab56721e18d1e67" target="_top" xlink:title="Checks if a path refers to an existing file.">
<polygon fill="white" stroke="#666666" points="458,-107.5 383,-107.5 383,-88.5 458,-88.5 458,-107.5"/>
<text text-anchor="middle" x="420.5" y="-95.5" font-family="Helvetica,sans-Serif" font-size="10.00">tools::is_file</text>
</a>
</g>
</g>
<!-- Node9&#45;&gt;Node11 -->
<g id="edge11_Node000009_Node000011" class="edge">
<title>Node9&#45;&gt;Node11</title>
<g id="a_edge11_Node000009_Node000011"><a xlink:title=" ">
<path fill="none" stroke="#63b8ff" d="M306.54,-99.98C328.21,-99.6 352.46,-99.17 372.92,-98.81"/>
<polygon fill="#63b8ff" stroke="#63b8ff" points="373,-102.31 382.93,-98.64 372.88,-95.32 373,-102.31"/>
</a>
</g>
</g>
<!-- Node12 -->
<g id="Node000012" class="node">
<title>Node12</title>
<g id="a_Node000012"><a xlink:href="classtools.html#a352a6965f2f3c768f0f4ecd1f978fcc0" target="_top" xlink:title="Splits a string into a vector of substrings based on a delimiter.">
<polygon fill="white" stroke="#666666" points="454.5,-67.5 386.5,-67.5 386.5,-48.5 454.5,-48.5 454.5,-67.5"/>
<text text-anchor="middle" x="420.5" y="-55.5" font-family="Helvetica,sans-Serif" font-size="10.00">tools::split</text>
</a>
</g>
</g>
<!-- Node9&#45;&gt;Node12 -->
<g id="edge12_Node000009_Node000012" class="edge">
<title>Node9&#45;&gt;Node12</title>
<g id="a_edge12_Node000009_Node000012"><a xlink:title=" ">
<path fill="none" stroke="#63b8ff" d="M306.54,-86.32C329.39,-80.59 355.11,-74.14 376.24,-68.85"/>
<polygon fill="#63b8ff" stroke="#63b8ff" points="377.35,-72.18 386.2,-66.35 375.65,-65.39 377.35,-72.18"/>
</a>
</g>
</g>
<!-- Node14&#45;&gt;Node12 -->
<g id="edge16_Node000014_Node000012" class="edge">
<title>Node14&#45;&gt;Node12</title>
<g id="a_edge16_Node000014_Node000012"><a xlink:title=" ">
<path fill="none" stroke="#63b8ff" d="M306.54,-29.68C329.39,-35.41 355.11,-41.86 376.24,-47.15"/>
<polygon fill="#63b8ff" stroke="#63b8ff" points="375.65,-50.61 386.2,-49.65 377.35,-43.82 375.65,-50.61"/>
</a>
</g>
</g>
<!-- Node15 -->
<g id="Node000015" class="node">
<title>Node15</title>
<g id="a_Node000015"><a xlink:href="classmetric__template.html#a335a5dd4a86a24fd17e981a633cd4df3" target="_top" xlink:title=" ">
<polygon fill="white" stroke="#666666" points="482,-24.5 359,-24.5 359,-5.5 482,-5.5 482,-24.5"/>
<text text-anchor="middle" x="420.5" y="-12.5" font-family="Helvetica,sans-Serif" font-size="10.00">metric_template::size</text>
</a>
</g>
</g>
<!-- Node14&#45;&gt;Node15 -->
<g id="edge15_Node000014_Node000015" class="edge">
<title>Node14&#45;&gt;Node15</title>
<g id="a_edge15_Node000014_Node000015"><a xlink:title=" ">
<path fill="none" stroke="#63b8ff" d="M306.54,-15C320.13,-15 334.73,-15 348.78,-15"/>
<polygon fill="#63b8ff" stroke="#63b8ff" points="348.89,-18.5 358.89,-15 348.89,-11.5 348.89,-18.5"/>
</a>
</g>
</g>
</g>
</svg>
</svg>

<style type='text/css'>
<![CDATA[
[data-mouse-over-selected='false'] { opacity: 0.7; }
[data-mouse-over-selected='true']  { opacity: 1.0; }
]]>
</style>
<script type="application/ecmascript"><![CDATA[
document.addEventListener('DOMContentLoaded', (event) => {
  highlightEdges();
  highlightAdjacentNodes();
});
]]></script>
</svg>
