<?xml version="1.0" encoding="UTF-8" standalone="no"?>
<!DOCTYPE svg PUBLIC "-//W3C//DTD SVG 1.1//EN"
 "http://www.w3.org/Graphics/SVG/1.1/DTD/svg11.dtd">
<!-- Generated by graphviz version 2.43.0 (0)
 -->
<!-- Title: particle_template::is Pages: 1 -->
<svg width="560pt" height="134pt"
 viewBox="0.00 0.00 560.00 134.00" xmlns="http://www.w3.org/2000/svg" xmlns:xlink="http://www.w3.org/1999/xlink">
<g id="graph0" class="graph" transform="scale(1 1) rotate(0) translate(4 130)">
<title>particle_template::is</title>
<!-- Node1 -->
<g id="Node000001" class="node">
<title>Node1</title>
<g id="a_Node000001"><a xlink:title="Checks if particle matches any of the given PDG IDs.">
<polygon fill="#999999" stroke="#666666" points="552,-72.5 435,-72.5 435,-53.5 552,-53.5 552,-72.5"/>
<text text-anchor="middle" x="493.5" y="-60.5" font-family="Helvetica,sans-Serif" font-size="10.00">particle_template::is</text>
</a>
</g>
</g>
<!-- Node2 -->
<g id="Node000002" class="node">
<title>Node2</title>
<g id="a_Node000002"><a xlink:href="classparticle__template.html#a2a3735ec76637317bb78cafb8759b258" target="_top" xlink:title="Getter for is_b.">
<polygon fill="white" stroke="#666666" points="399,-126 290,-126 290,-96 399,-96 399,-126"/>
<text text-anchor="start" x="298" y="-114" font-family="Helvetica,sans-Serif" font-size="10.00">particle_template::</text>
<text text-anchor="middle" x="344.5" y="-103" font-family="Helvetica,sans-Serif" font-size="10.00">get_isb</text>
</a>
</g>
</g>
<!-- Node1&#45;&gt;Node2 -->
<g id="edge1_Node000001_Node000002" class="edge">
<title>Node1&#45;&gt;Node2</title>
<g id="a_edge1_Node000001_Node000002"><a xlink:title=" ">
<path fill="none" stroke="#63b8ff" d="M453.56,-75.71C434.54,-81.92 411.53,-89.44 391.63,-95.94"/>
<polygon fill="#63b8ff" stroke="#63b8ff" points="454.69,-79.03 463.11,-72.6 452.51,-72.38 454.69,-79.03"/>
</a>
</g>
</g>
<!-- Node6 -->
<g id="Node000006" class="node">
<title>Node6</title>
<g id="a_Node000006"><a xlink:href="classparticle__template.html#a2d99515f664dbf8dab14061682e5bc6b" target="_top" xlink:title="Getter for is_lep.">
<polygon fill="white" stroke="#666666" points="399,-78 290,-78 290,-48 399,-48 399,-78"/>
<text text-anchor="start" x="298" y="-66" font-family="Helvetica,sans-Serif" font-size="10.00">particle_template::</text>
<text text-anchor="middle" x="344.5" y="-55" font-family="Helvetica,sans-Serif" font-size="10.00">get_islep</text>
</a>
</g>
</g>
<!-- Node1&#45;&gt;Node6 -->
<g id="edge5_Node000001_Node000006" class="edge">
<title>Node1&#45;&gt;Node6</title>
<g id="a_edge5_Node000001_Node000006"><a xlink:title=" ">
<path fill="none" stroke="#63b8ff" d="M424.81,-63C416.21,-63 407.51,-63 399.17,-63"/>
<polygon fill="#63b8ff" stroke="#63b8ff" points="424.82,-66.5 434.82,-63 424.82,-59.5 424.82,-66.5"/>
</a>
</g>
</g>
<!-- Node7 -->
<g id="Node000007" class="node">
<title>Node7</title>
<g id="a_Node000007"><a xlink:href="classparticle__template.html#a418dff4e2ee3f17d7a85a1e37c76b29f" target="_top" xlink:title="Getter for is_nu.">
<polygon fill="white" stroke="#666666" points="399,-30 290,-30 290,0 399,0 399,-30"/>
<text text-anchor="start" x="298" y="-18" font-family="Helvetica,sans-Serif" font-size="10.00">particle_template::</text>
<text text-anchor="middle" x="344.5" y="-7" font-family="Helvetica,sans-Serif" font-size="10.00">get_isnu</text>
</a>
</g>
</g>
<!-- Node1&#45;&gt;Node7 -->
<g id="edge7_Node000001_Node000007" class="edge">
<title>Node1&#45;&gt;Node7</title>
<g id="a_edge7_Node000001_Node000007"><a xlink:title=" ">
<path fill="none" stroke="#63b8ff" d="M453.56,-50.29C434.54,-44.08 411.53,-36.56 391.63,-30.06"/>
<polygon fill="#63b8ff" stroke="#63b8ff" points="452.51,-53.62 463.11,-53.4 454.69,-46.97 452.51,-53.62"/>
</a>
</g>
</g>
<!-- Node3 -->
<g id="Node000003" class="node">
<title>Node3</title>
<g id="a_Node000003"><a xlink:href="classparticle__template.html#ab527ed22f6d67969247a0be9dda0165f" target="_top" xlink:title="Default constructor.">
<polygon fill="white" stroke="#666666" points="254,-78 145,-78 145,-48 254,-48 254,-78"/>
<text text-anchor="start" x="153" y="-66" font-family="Helvetica,sans-Serif" font-size="10.00">particle_template::</text>
<text text-anchor="middle" x="199.5" y="-55" font-family="Helvetica,sans-Serif" font-size="10.00">particle_template</text>
</a>
</g>
</g>
<!-- Node2&#45;&gt;Node3 -->
<g id="edge2_Node000002_Node000003" class="edge">
<title>Node2&#45;&gt;Node3</title>
<g id="a_edge2_Node000002_Node000003"><a xlink:title=" ">
<path fill="none" stroke="#63b8ff" d="M288.85,-92.65C274.42,-87.81 259.03,-82.64 245.19,-78"/>
<polygon fill="#63b8ff" stroke="#63b8ff" points="288.05,-96.08 298.65,-95.94 290.28,-89.44 288.05,-96.08"/>
</a>
</g>
</g>
<!-- Node4 -->
<g id="Node000004" class="node">
<title>Node4</title>
<g id="a_Node000004"><a xlink:href="classparticle__template.html#adf7b55df06b7621b0a6bc509f74d22ff" target="_top" xlink:title="Serializes particle data for storage.">
<polygon fill="white" stroke="#666666" points="109,-102 0,-102 0,-72 109,-72 109,-102"/>
<text text-anchor="start" x="8" y="-90" font-family="Helvetica,sans-Serif" font-size="10.00">particle_template::</text>
<text text-anchor="middle" x="54.5" y="-79" font-family="Helvetica,sans-Serif" font-size="10.00">__reduce__</text>
</a>
</g>
</g>
<!-- Node3&#45;&gt;Node4 -->
<g id="edge3_Node000003_Node000004" class="edge">
<title>Node3&#45;&gt;Node4</title>
<g id="a_edge3_Node000003_Node000004"><a xlink:title=" ">
<path fill="none" stroke="#63b8ff" d="M134.95,-73.67C126.44,-75.09 117.78,-76.55 109.46,-77.94"/>
<polygon fill="#63b8ff" stroke="#63b8ff" points="135.56,-77.11 144.85,-72 134.4,-70.21 135.56,-77.11"/>
</a>
</g>
</g>
<!-- Node5 -->
<g id="Node000005" class="node">
<title>Node5</title>
<g id="a_Node000005"><a xlink:href="classparticle__template.html#a6c492ed991c27a61acad61064fa89b3c" target="_top" xlink:title="Creates a clone of this particle.">
<polygon fill="white" stroke="#666666" points="109,-54 0,-54 0,-24 109,-24 109,-54"/>
<text text-anchor="start" x="8" y="-42" font-family="Helvetica,sans-Serif" font-size="10.00">particle_template::</text>
<text text-anchor="middle" x="54.5" y="-31" font-family="Helvetica,sans-Serif" font-size="10.00">clone</text>
</a>
</g>
</g>
<!-- Node3&#45;&gt;Node5 -->
<g id="edge4_Node000003_Node000005" class="edge">
<title>Node3&#45;&gt;Node5</title>
<g id="a_edge4_Node000003_Node000005"><a xlink:title=" ">
<path fill="none" stroke="#63b8ff" d="M134.95,-52.33C126.44,-50.91 117.78,-49.45 109.46,-48.06"/>
<polygon fill="#63b8ff" stroke="#63b8ff" points="134.4,-55.79 144.85,-54 135.56,-48.89 134.4,-55.79"/>
</a>
</g>
</g>
<!-- Node6&#45;&gt;Node3 -->
<g id="edge6_Node000006_Node000003" class="edge">
<title>Node6&#45;&gt;Node3</title>
<g id="a_edge6_Node000006_Node000003"><a xlink:title=" ">
<path fill="none" stroke="#63b8ff" d="M279.68,-63C271.25,-63 262.69,-63 254.46,-63"/>
<polygon fill="#63b8ff" stroke="#63b8ff" points="279.85,-66.5 289.85,-63 279.85,-59.5 279.85,-66.5"/>
</a>
</g>
</g>
<!-- Node7&#45;&gt;Node3 -->
<g id="edge8_Node000007_Node000003" class="edge">
<title>Node7&#45;&gt;Node3</title>
<g id="a_edge8_Node000007_Node000003"><a xlink:title=" ">
<path fill="none" stroke="#63b8ff" d="M288.85,-33.35C274.42,-38.19 259.03,-43.36 245.19,-48"/>
<polygon fill="#63b8ff" stroke="#63b8ff" points="290.28,-36.56 298.65,-30.06 288.05,-29.92 290.28,-36.56"/>
</a>
</g>
</g>
</g>
</svg>
