<?xml version="1.0" encoding="UTF-8" standalone="no"?>
<!DOCTYPE svg PUBLIC "-//W3C//DTD SVG 1.1//EN"
 "http://www.w3.org/Graphics/SVG/1.1/DTD/svg11.dtd">
<!-- Generated by graphviz version 2.43.0 (0)
 -->
<!-- Title: parton::top_mass_contribution Pages: 1 -->
<svg width="346pt" height="161pt"
 viewBox="0.00 0.00 346.00 161.00" xmlns="http://www.w3.org/2000/svg" xmlns:xlink="http://www.w3.org/1999/xlink">
<g id="graph0" class="graph" transform="scale(1 1) rotate(0) translate(4 157)">
<title>parton::top_mass_contribution</title>
<!-- Node1 -->
<g id="Node000001" class="node">
<title>Node1</title>
<g id="a_Node000001"><a xlink:title=" ">
<polygon fill="#999999" stroke="#666666" points="165,-85.5 0,-85.5 0,-66.5 165,-66.5 165,-85.5"/>
<text text-anchor="middle" x="82.5" y="-73.5" font-family="Helvetica,sans-Serif" font-size="10.00">parton::top_mass_contribution</text>
</a>
</g>
</g>
<!-- Node2 -->
<g id="Node000002" class="node">
<title>Node2</title>
<g id="a_Node000002"><a xlink:href="classselection__template.html#a76e4fafd2338fada8d38912c6c803317" target="_top" xlink:title="Removes duplicate particles based on hash.">
<polygon fill="white" stroke="#666666" points="324.5,-153 214.5,-153 214.5,-123 324.5,-123 324.5,-153"/>
<text text-anchor="start" x="222.5" y="-141" font-family="Helvetica,sans-Serif" font-size="10.00">selection_template</text>
<text text-anchor="middle" x="269.5" y="-130" font-family="Helvetica,sans-Serif" font-size="10.00">::make_unique</text>
</a>
</g>
</g>
<!-- Node1&#45;&gt;Node2 -->
<g id="edge1_Node000001_Node000002" class="edge">
<title>Node1&#45;&gt;Node2</title>
<g id="a_edge1_Node000001_Node000002"><a xlink:title=" ">
<path fill="none" stroke="#63b8ff" d="M112,-85.55C139.03,-94.61 180.36,-108.46 213.76,-119.65"/>
<polygon fill="#63b8ff" stroke="#63b8ff" points="212.8,-123.03 223.4,-122.88 215.03,-116.39 212.8,-123.03"/>
</a>
</g>
</g>
<!-- Node3 -->
<g id="Node000003" class="node">
<title>Node3</title>
<g id="a_Node000003"><a xlink:href="classselection__template.html#a84df199f6022f2a5d27979d43de51547" target="_top" xlink:title="Sums particles into a combined particle.">
<polygon fill="white" stroke="#666666" points="338,-104.5 201,-104.5 201,-85.5 338,-85.5 338,-104.5"/>
<text text-anchor="middle" x="269.5" y="-92.5" font-family="Helvetica,sans-Serif" font-size="10.00">selection_template::sum</text>
</a>
</g>
</g>
<!-- Node1&#45;&gt;Node3 -->
<g id="edge2_Node000001_Node000003" class="edge">
<title>Node1&#45;&gt;Node3</title>
<g id="a_edge2_Node000001_Node000003"><a xlink:title=" ">
<path fill="none" stroke="#63b8ff" d="M165.18,-84.39C173.65,-85.26 182.23,-86.14 190.65,-87"/>
<polygon fill="#63b8ff" stroke="#63b8ff" points="190.52,-90.51 200.82,-88.05 191.23,-83.55 190.52,-90.51"/>
</a>
</g>
</g>
<!-- Node4 -->
<g id="Node000004" class="node">
<title>Node4</title>
<g id="a_Node000004"><a xlink:href="classtools.html#afd037c109d75a9f119ec042e1ba922d9" target="_top" xlink:title="Converts a double value to a string with standard precision.">
<polygon fill="white" stroke="#666666" points="314,-67.5 225,-67.5 225,-48.5 314,-48.5 314,-67.5"/>
<text text-anchor="middle" x="269.5" y="-55.5" font-family="Helvetica,sans-Serif" font-size="10.00">tools::to_string</text>
</a>
</g>
</g>
<!-- Node1&#45;&gt;Node4 -->
<g id="edge3_Node000001_Node000004" class="edge">
<title>Node1&#45;&gt;Node4</title>
<g id="a_edge3_Node000001_Node000004"><a xlink:title=" ">
<path fill="none" stroke="#63b8ff" d="M165.18,-68.05C181.86,-66.43 199,-64.76 214.42,-63.26"/>
<polygon fill="#63b8ff" stroke="#63b8ff" points="215.18,-66.7 224.79,-62.25 214.5,-59.74 215.18,-66.7"/>
</a>
</g>
</g>
<!-- Node5 -->
<g id="Node000005" class="node">
<title>Node5</title>
<g id="a_Node000005"><a xlink:href="classselection__template.html#a82f14833e404fbe0399a2a539eef75b1" target="_top" xlink:title="Upcasts particles from a map to a derived type.">
<polygon fill="white" stroke="#666666" points="324.5,-30 214.5,-30 214.5,0 324.5,0 324.5,-30"/>
<text text-anchor="start" x="222.5" y="-18" font-family="Helvetica,sans-Serif" font-size="10.00">selection_template</text>
<text text-anchor="middle" x="269.5" y="-7" font-family="Helvetica,sans-Serif" font-size="10.00">::upcast</text>
</a>
</g>
</g>
<!-- Node1&#45;&gt;Node5 -->
<g id="edge4_Node000001_Node000005" class="edge">
<title>Node1&#45;&gt;Node5</title>
<g id="a_edge4_Node000001_Node000005"><a xlink:title=" ">
<path fill="none" stroke="#63b8ff" d="M112.41,-66.47C139.32,-57.59 180.16,-44.13 213.32,-33.2"/>
<polygon fill="#63b8ff" stroke="#63b8ff" points="214.49,-36.5 222.89,-30.04 212.3,-29.85 214.49,-36.5"/>
</a>
</g>
</g>
</g>
</svg>
