<?xml version="1.0" encoding="UTF-8" standalone="no"?>
<!DOCTYPE svg PUBLIC "-//W3C//DTD SVG 1.1//EN"
 "http://www.w3.org/Graphics/SVG/1.1/DTD/svg11.dtd">
<!-- Generated by graphviz version 2.43.0 (0)
 -->
<!-- Title: io::member Pages: 1 -->
<svg width="512pt" height="195pt"
 viewBox="0.00 0.00 512.00 195.00" xmlns="http://www.w3.org/2000/svg" xmlns:xlink="http://www.w3.org/1999/xlink">
<g id="graph0" class="graph" transform="scale(1 1) rotate(0) translate(4 191)">
<title>io::member</title>
<!-- Node1 -->
<g id="Node000001" class="node">
<title>Node1</title>
<g id="a_Node000001"><a xlink:title="&lt; Private access specifier for the following members.">
<polygon fill="#999999" stroke="#666666" points="504,-112 431,-112 431,-93 504,-93 504,-112"/>
<text text-anchor="middle" x="467.5" y="-100" font-family="Helvetica,sans-Serif" font-size="10.00">io::member</text>
</a>
</g>
</g>
<!-- Node2 -->
<g id="Node000002" class="node">
<title>Node2</title>
<g id="a_Node000002"><a xlink:href="classio.html#a85958081a1bfdd553a3799657a553986" target="_top" xlink:title="Generic HDF5 read operation for a single object.">
<polygon fill="white" stroke="#666666" points="394.5,-187 324.5,-187 324.5,-168 394.5,-168 394.5,-187"/>
<text text-anchor="middle" x="359.5" y="-175" font-family="Helvetica,sans-Serif" font-size="10.00">io::H5Read</text>
</a>
</g>
</g>
<!-- Node1&#45;&gt;Node2 -->
<g id="edge1_Node000001_Node000002" class="edge">
<title>Node1&#45;&gt;Node2</title>
<g id="a_edge1_Node000001_Node000002"><a xlink:title=" ">
<path fill="none" stroke="#63b8ff" d="M447.96,-118.92C433.95,-130.91 413.95,-147.17 395,-159.5 390.47,-162.45 385.4,-165.31 380.58,-167.86"/>
<polygon fill="#63b8ff" stroke="#63b8ff" points="450.59,-121.27 455.85,-112.07 446,-115.98 450.59,-121.27"/>
</a>
</g>
</g>
<!-- Node3 -->
<g id="Node000003" class="node">
<title>Node3</title>
<g id="a_Node000003"><a xlink:href="classio.html#a9c5e08cc995a18eff996b3cfcda641eb" target="_top" xlink:title="Generic HDF5 read operation for a vector of objects.">
<polygon fill="white" stroke="#666666" points="394.5,-150 324.5,-150 324.5,-131 394.5,-131 394.5,-150"/>
<text text-anchor="middle" x="359.5" y="-138" font-family="Helvetica,sans-Serif" font-size="10.00">io::H5Read</text>
</a>
</g>
</g>
<!-- Node1&#45;&gt;Node3 -->
<g id="edge2_Node000001_Node000003" class="edge">
<title>Node1&#45;&gt;Node3</title>
<g id="a_edge2_Node000001_Node000003"><a xlink:title=" ">
<path fill="none" stroke="#63b8ff" d="M430.32,-115.47C416.19,-120.53 400.29,-126.23 387.24,-130.91"/>
<polygon fill="#63b8ff" stroke="#63b8ff" points="431.52,-118.76 439.75,-112.09 429.16,-112.17 431.52,-118.76"/>
</a>
</g>
</g>
<!-- Node8 -->
<g id="Node000008" class="node">
<title>Node8</title>
<g id="a_Node000008"><a xlink:href="classio.html#a4744173c6cc8c89a6145fbfb11c3831e" target="_top" xlink:title="Reads graph data in HDF5 format specifically for graph_hdf5_w struct.">
<polygon fill="white" stroke="#666666" points="53,-131 0,-131 0,-112 53,-112 53,-131"/>
<text text-anchor="middle" x="26.5" y="-119" font-family="Helvetica,sans-Serif" font-size="10.00">io::read</text>
</a>
</g>
</g>
<!-- Node1&#45;&gt;Node8 -->
<g id="edge14_Node000001_Node000008" class="edge">
<title>Node1&#45;&gt;Node8</title>
<g id="a_edge14_Node000001_Node000008"><a xlink:title=" ">
<path fill="none" stroke="#63b8ff" d="M420.85,-104.48C329.07,-108.45 124.85,-117.29 53.06,-120.39"/>
<polygon fill="#63b8ff" stroke="#63b8ff" points="421.11,-107.97 430.95,-104.04 420.8,-100.97 421.11,-107.97"/>
</a>
</g>
</g>
<!-- Node9 -->
<g id="Node000009" class="node">
<title>Node9</title>
<g id="a_Node000009"><a xlink:href="classio.html#aa8eb654ca32652fde83cdd0d3ef83968" target="_top" xlink:title="Generic HDF5 write operation for a single object.">
<polygon fill="white" stroke="#666666" points="395,-74 324,-74 324,-55 395,-55 395,-74"/>
<text text-anchor="middle" x="359.5" y="-62" font-family="Helvetica,sans-Serif" font-size="10.00">io::H5Write</text>
</a>
</g>
</g>
<!-- Node1&#45;&gt;Node9 -->
<g id="edge8_Node000001_Node000009" class="edge">
<title>Node1&#45;&gt;Node9</title>
<g id="a_edge8_Node000001_Node000009"><a xlink:title=" ">
<path fill="none" stroke="#63b8ff" d="M430.32,-89.53C416.19,-84.47 400.29,-78.77 387.24,-74.09"/>
<polygon fill="#63b8ff" stroke="#63b8ff" points="429.16,-92.83 439.75,-92.91 431.52,-86.24 429.16,-92.83"/>
</a>
</g>
</g>
<!-- Node10 -->
<g id="Node000010" class="node">
<title>Node10</title>
<g id="a_Node000010"><a xlink:href="classio.html#a6fdc4311aa9426644ffffc6fa45a2bf3" target="_top" xlink:title="Generic HDF5 write operation for a vector of objects.">
<polygon fill="white" stroke="#666666" points="395,-37 324,-37 324,-18 395,-18 395,-37"/>
<text text-anchor="middle" x="359.5" y="-25" font-family="Helvetica,sans-Serif" font-size="10.00">io::H5Write</text>
</a>
</g>
</g>
<!-- Node1&#45;&gt;Node10 -->
<g id="edge9_Node000001_Node000010" class="edge">
<title>Node1&#45;&gt;Node10</title>
<g id="a_edge9_Node000001_Node000010"><a xlink:title=" ">
<path fill="none" stroke="#63b8ff" d="M447.96,-86.08C433.95,-74.09 413.95,-57.83 395,-45.5 390.47,-42.55 385.4,-39.69 380.58,-37.14"/>
<polygon fill="#63b8ff" stroke="#63b8ff" points="446,-89.02 455.85,-92.93 450.59,-83.73 446,-89.02"/>
</a>
</g>
</g>
<!-- Node4 -->
<g id="Node000004" class="node">
<title>Node4</title>
<g id="a_Node000004"><a xlink:href="classio.html#a169a51324caf1e4a293a8f3df9741593" target="_top" xlink:title="Templated method to read single event data object from HDF5.">
<polygon fill="white" stroke="#666666" points="286.5,-187 182.5,-187 182.5,-168 286.5,-168 286.5,-187"/>
<text text-anchor="middle" x="234.5" y="-175" font-family="Helvetica,sans-Serif" font-size="10.00">io::read_event_h5</text>
</a>
</g>
</g>
<!-- Node3&#45;&gt;Node4 -->
<g id="edge3_Node000003_Node000004" class="edge">
<title>Node3&#45;&gt;Node4</title>
<g id="a_edge3_Node000003_Node000004"><a xlink:title=" ">
<path fill="none" stroke="#63b8ff" d="M317.07,-152.96C300.89,-157.83 282.63,-163.32 267.5,-167.88"/>
<polygon fill="#63b8ff" stroke="#63b8ff" points="318.26,-156.26 326.82,-150.03 316.24,-149.56 318.26,-156.26"/>
</a>
</g>
</g>
<!-- Node5 -->
<g id="Node000005" class="node">
<title>Node5</title>
<g id="a_Node000005"><a xlink:href="classio.html#a4cdbdd389d60e2ba4759269123381e25" target="_top" xlink:title="Templated method to read event data (vector of objects) from HDF5.">
<polygon fill="white" stroke="#666666" points="286.5,-150 182.5,-150 182.5,-131 286.5,-131 286.5,-150"/>
<text text-anchor="middle" x="234.5" y="-138" font-family="Helvetica,sans-Serif" font-size="10.00">io::read_event_h5</text>
</a>
</g>
</g>
<!-- Node3&#45;&gt;Node5 -->
<g id="edge4_Node000003_Node000005" class="edge">
<title>Node3&#45;&gt;Node5</title>
<g id="a_edge4_Node000003_Node000005"><a xlink:title=" ">
<path fill="none" stroke="#63b8ff" d="M314.06,-140.5C305.15,-140.5 295.72,-140.5 286.6,-140.5"/>
<polygon fill="#63b8ff" stroke="#63b8ff" points="314.24,-144 324.24,-140.5 314.24,-137 314.24,-144"/>
</a>
</g>
</g>
<!-- Node6 -->
<g id="Node000006" class="node">
<title>Node6</title>
<g id="a_Node000006"><a xlink:href="classio.html#ae9363859101b007dedf420f10e437014" target="_top" xlink:title="Templated method to read a single object from a dataset.">
<polygon fill="white" stroke="#666666" points="143.5,-187 90.5,-187 90.5,-168 143.5,-168 143.5,-187"/>
<text text-anchor="middle" x="117" y="-175" font-family="Helvetica,sans-Serif" font-size="10.00">io::read</text>
</a>
</g>
</g>
<!-- Node5&#45;&gt;Node6 -->
<g id="edge5_Node000005_Node000006" class="edge">
<title>Node5&#45;&gt;Node6</title>
<g id="a_edge5_Node000005_Node000006"><a xlink:title=" ">
<path fill="none" stroke="#63b8ff" d="M193.78,-153.22C177.21,-158.53 158.44,-164.55 143.72,-169.26"/>
<polygon fill="#63b8ff" stroke="#63b8ff" points="195.3,-156.41 203.76,-150.03 193.16,-149.75 195.3,-156.41"/>
</a>
</g>
</g>
<!-- Node7 -->
<g id="Node000007" class="node">
<title>Node7</title>
<g id="a_Node000007"><a xlink:href="classio.html#a2a0214e493a7a2ef5e9507c0e6aa4e70" target="_top" xlink:title="Templated method to read a vector of objects from a dataset.">
<polygon fill="white" stroke="#666666" points="143.5,-150 90.5,-150 90.5,-131 143.5,-131 143.5,-150"/>
<text text-anchor="middle" x="117" y="-138" font-family="Helvetica,sans-Serif" font-size="10.00">io::read</text>
</a>
</g>
</g>
<!-- Node5&#45;&gt;Node7 -->
<g id="edge6_Node000005_Node000007" class="edge">
<title>Node5&#45;&gt;Node7</title>
<g id="a_edge6_Node000005_Node000007"><a xlink:title=" ">
<path fill="none" stroke="#63b8ff" d="M172.09,-140.5C162.03,-140.5 152.11,-140.5 143.56,-140.5"/>
<polygon fill="#63b8ff" stroke="#63b8ff" points="172.17,-144 182.17,-140.5 172.17,-137 172.17,-144"/>
</a>
</g>
</g>
<!-- Node7&#45;&gt;Node8 -->
<g id="edge7_Node000007_Node000008" class="edge">
<title>Node7&#45;&gt;Node8</title>
<g id="a_edge7_Node000007_Node000008"><a xlink:title=" ">
<path fill="none" stroke="#63b8ff" d="M80.38,-132.85C71.23,-130.89 61.57,-128.81 53.04,-126.98"/>
<polygon fill="#63b8ff" stroke="#63b8ff" points="79.89,-136.33 90.4,-135 81.36,-129.48 79.89,-136.33"/>
</a>
</g>
</g>
<!-- Node11 -->
<g id="Node000011" class="node">
<title>Node11</title>
<g id="a_Node000011"><a xlink:href="classio.html#a6dadf1033346f6025a4047a17ddf0227" target="_top" xlink:title="Templated method to write single event data object to HDF5.">
<polygon fill="white" stroke="#666666" points="288,-74 181,-74 181,-55 288,-55 288,-74"/>
<text text-anchor="middle" x="234.5" y="-62" font-family="Helvetica,sans-Serif" font-size="10.00">io::write_event_h5</text>
</a>
</g>
</g>
<!-- Node10&#45;&gt;Node11 -->
<g id="edge10_Node000010_Node000011" class="edge">
<title>Node10&#45;&gt;Node11</title>
<g id="a_edge10_Node000010_Node000011"><a xlink:title=" ">
<path fill="none" stroke="#63b8ff" d="M317.07,-39.96C300.89,-44.83 282.63,-50.32 267.5,-54.88"/>
<polygon fill="#63b8ff" stroke="#63b8ff" points="318.26,-43.26 326.82,-37.03 316.24,-36.56 318.26,-43.26"/>
</a>
</g>
</g>
<!-- Node12 -->
<g id="Node000012" class="node">
<title>Node12</title>
<g id="a_Node000012"><a xlink:href="classio.html#a9ceaef5ce2a5f32905f1409a8c14ca20" target="_top" xlink:title="Templated method to write event data (vector of objects) to HDF5.">
<polygon fill="white" stroke="#666666" points="288,-37 181,-37 181,-18 288,-18 288,-37"/>
<text text-anchor="middle" x="234.5" y="-25" font-family="Helvetica,sans-Serif" font-size="10.00">io::write_event_h5</text>
</a>
</g>
</g>
<!-- Node10&#45;&gt;Node12 -->
<g id="edge11_Node000010_Node000012" class="edge">
<title>Node10&#45;&gt;Node12</title>
<g id="a_edge11_Node000010_Node000012"><a xlink:title=" ">
<path fill="none" stroke="#63b8ff" d="M313.7,-27.5C305.42,-27.5 296.7,-27.5 288.21,-27.5"/>
<polygon fill="#63b8ff" stroke="#63b8ff" points="313.91,-31 323.91,-27.5 313.91,-24 313.91,-31"/>
</a>
</g>
</g>
<!-- Node13 -->
<g id="Node000013" class="node">
<title>Node13</title>
<g id="a_Node000013"><a xlink:href="classio.html#acbb361e3301373cce246acf6208b60ea" target="_top" xlink:title="Templated method to write a single object to a dataset.">
<polygon fill="white" stroke="#666666" points="145,-56 89,-56 89,-37 145,-37 145,-56"/>
<text text-anchor="middle" x="117" y="-44" font-family="Helvetica,sans-Serif" font-size="10.00">io::write</text>
</a>
</g>
</g>
<!-- Node12&#45;&gt;Node13 -->
<g id="edge12_Node000012_Node000013" class="edge">
<title>Node12&#45;&gt;Node13</title>
<g id="a_edge12_Node000012_Node000013"><a xlink:title=" ">
<path fill="none" stroke="#63b8ff" d="M170.94,-37.79C161.84,-39.29 152.91,-40.76 145.05,-42.05"/>
<polygon fill="#63b8ff" stroke="#63b8ff" points="171.52,-41.24 180.82,-36.17 170.38,-34.34 171.52,-41.24"/>
</a>
</g>
</g>
<!-- Node14 -->
<g id="Node000014" class="node">
<title>Node14</title>
<g id="a_Node000014"><a xlink:href="classio.html#a39a32d23eeb4ae8f422bb416256fd9cd" target="_top" xlink:title="Templated method to write a vector of objects to a dataset.">
<polygon fill="white" stroke="#666666" points="145,-19 89,-19 89,0 145,0 145,-19"/>
<text text-anchor="middle" x="117" y="-7" font-family="Helvetica,sans-Serif" font-size="10.00">io::write</text>
</a>
</g>
</g>
<!-- Node12&#45;&gt;Node14 -->
<g id="edge13_Node000012_Node000014" class="edge">
<title>Node12&#45;&gt;Node14</title>
<g id="a_edge13_Node000012_Node000014"><a xlink:title=" ">
<path fill="none" stroke="#63b8ff" d="M170.94,-17.75C161.84,-16.33 152.91,-14.94 145.05,-13.72"/>
<polygon fill="#63b8ff" stroke="#63b8ff" points="170.4,-21.21 180.82,-19.29 171.48,-14.29 170.4,-21.21"/>
</a>
</g>
</g>
</g>
</svg>
