<?xml version="1.0" encoding="UTF-8" standalone="no"?>
<!DOCTYPE svg PUBLIC "-//W3C//DTD SVG 1.1//EN"
 "http://www.w3.org/Graphics/SVG/1.1/DTD/svg11.dtd">
<!-- Generated by graphviz version 2.43.0 (0)
 -->
<!-- Title: analysis::build_metric Pages: 1 -->
<svg width="557pt" height="168pt"
 viewBox="0.00 0.00 557.00 167.50" xmlns="http://www.w3.org/2000/svg" xmlns:xlink="http://www.w3.org/1999/xlink">
<g id="graph0" class="graph" transform="scale(1 1) rotate(0) translate(4 163.5)">
<title>analysis::build_metric</title>
<!-- Node1 -->
<g id="Node000001" class="node">
<title>Node1</title>
<g id="a_Node000001"><a xlink:title="Builds or calculates metrics for evaluating model performance.">
<polygon fill="#999999" stroke="#666666" points="124,-94.5 0,-94.5 0,-75.5 124,-75.5 124,-94.5"/>
<text text-anchor="middle" x="62" y="-82.5" font-family="Helvetica,sans-Serif" font-size="10.00">analysis::build_metric</text>
</a>
</g>
</g>
<!-- Node2 -->
<g id="Node000002" class="node">
<title>Node2</title>
<g id="a_Node000002"><a xlink:href="classanalysis.html#a929d006d8c02d16b6472d7625578aa21" target="_top" xlink:title="Builds or configures the data loader for training or evaluation.">
<polygon fill="white" stroke="#666666" points="305,-159.5 160,-159.5 160,-140.5 305,-140.5 305,-159.5"/>
<text text-anchor="middle" x="232.5" y="-147.5" font-family="Helvetica,sans-Serif" font-size="10.00">analysis::build_dataloader</text>
</a>
</g>
</g>
<!-- Node1&#45;&gt;Node2 -->
<g id="edge1_Node000001_Node000002" class="edge">
<title>Node1&#45;&gt;Node2</title>
<g id="a_edge1_Node000001_Node000002"><a xlink:title=" ">
<path fill="none" stroke="#63b8ff" d="M80.06,-94.59C99.08,-104.97 130.98,-121.44 160,-132 165.63,-134.05 171.58,-135.95 177.56,-137.68"/>
<polygon fill="#63b8ff" stroke="#63b8ff" points="177.02,-141.16 187.59,-140.45 178.88,-134.42 177.02,-141.16"/>
</a>
</g>
</g>
<!-- Node3 -->
<g id="Node000003" class="node">
<title>Node3</title>
<g id="a_Node000003"><a xlink:href="classanalysis.html#ab1e46d4a55389c9159584cc1c4f217a0" target="_top" xlink:title="Builds the project structure, possibly setting up directories or initial configurations.">
<polygon fill="white" stroke="#666666" points="295.5,-122.5 169.5,-122.5 169.5,-103.5 295.5,-103.5 295.5,-122.5"/>
<text text-anchor="middle" x="232.5" y="-110.5" font-family="Helvetica,sans-Serif" font-size="10.00">analysis::build_project</text>
</a>
</g>
</g>
<!-- Node1&#45;&gt;Node3 -->
<g id="edge2_Node000001_Node000003" class="edge">
<title>Node1&#45;&gt;Node3</title>
<g id="a_edge2_Node000001_Node000003"><a xlink:title=" ">
<path fill="none" stroke="#63b8ff" d="M120.52,-94.56C134.61,-96.9 149.83,-99.43 164.33,-101.84"/>
<polygon fill="#63b8ff" stroke="#63b8ff" points="163.8,-105.3 174.24,-103.49 164.95,-98.39 163.8,-105.3"/>
</a>
</g>
</g>
<!-- Node6 -->
<g id="Node000006" class="node">
<title>Node6</title>
<g id="a_Node000006"><a xlink:href="structs_2cxx_2base_8cxx.html#a4eee7b291ed2cdcd4e3c2496c603c48c" target="_top" xlink:title="Counts occurrences of a substring in a string.">
<polygon fill="white" stroke="#666666" points="254.5,-67.5 210.5,-67.5 210.5,-48.5 254.5,-48.5 254.5,-67.5"/>
<text text-anchor="middle" x="232.5" y="-55.5" font-family="Helvetica,sans-Serif" font-size="10.00">count</text>
</a>
</g>
</g>
<!-- Node1&#45;&gt;Node6 -->
<g id="edge5_Node000001_Node000006" class="edge">
<title>Node1&#45;&gt;Node6</title>
<g id="a_edge5_Node000001_Node000006"><a xlink:title=" ">
<path fill="none" stroke="#63b8ff" d="M122.41,-75.48C148.63,-71.28 178.37,-66.51 200.17,-63.02"/>
<polygon fill="#63b8ff" stroke="#63b8ff" points="200.86,-66.45 210.18,-61.42 199.76,-59.54 200.86,-66.45"/>
</a>
</g>
</g>
<!-- Node7 -->
<g id="Node000007" class="node">
<title>Node7</title>
<g id="a_Node000007"><a xlink:href="classanalysis.html#acf4137dd2ceda151a94d68b2ed199da8" target="_top" xlink:title="Static method to execute metric calculation.">
<polygon fill="white" stroke="#666666" points="287.5,-30 177.5,-30 177.5,0 287.5,0 287.5,-30"/>
<text text-anchor="start" x="185.5" y="-18" font-family="Helvetica,sans-Serif" font-size="10.00">analysis::execution</text>
<text text-anchor="middle" x="232.5" y="-7" font-family="Helvetica,sans-Serif" font-size="10.00">_metric</text>
</a>
</g>
</g>
<!-- Node1&#45;&gt;Node7 -->
<g id="edge7_Node000001_Node000007" class="edge">
<title>Node1&#45;&gt;Node7</title>
<g id="a_edge7_Node000001_Node000007"><a xlink:title=" ">
<path fill="none" stroke="#63b8ff" d="M82.08,-75.47C101.47,-65.95 132.48,-51.17 160,-40 165.39,-37.81 171.04,-35.64 176.72,-33.53"/>
<polygon fill="#63b8ff" stroke="#63b8ff" points="178.04,-36.78 186.24,-30.07 175.65,-30.2 178.04,-36.78"/>
</a>
</g>
</g>
<!-- Node4 -->
<g id="Node000004" class="node">
<title>Node4</title>
<g id="a_Node000004"><a xlink:href="classtools.html#aed9f3247b474a8fb1840860d51cde7ca" target="_top" xlink:title="Creates a directory path, including parent directories if needed.">
<polygon fill="white" stroke="#666666" points="445,-122.5 341,-122.5 341,-103.5 445,-103.5 445,-122.5"/>
<text text-anchor="middle" x="393" y="-110.5" font-family="Helvetica,sans-Serif" font-size="10.00">tools::create_path</text>
</a>
</g>
</g>
<!-- Node3&#45;&gt;Node4 -->
<g id="edge3_Node000003_Node000004" class="edge">
<title>Node3&#45;&gt;Node4</title>
<g id="a_edge3_Node000003_Node000004"><a xlink:title=" ">
<path fill="none" stroke="#63b8ff" d="M295.69,-113C307.18,-113 319.17,-113 330.63,-113"/>
<polygon fill="#63b8ff" stroke="#63b8ff" points="330.98,-116.5 340.98,-113 330.98,-109.5 330.98,-116.5"/>
</a>
</g>
</g>
<!-- Node5 -->
<g id="Node000005" class="node">
<title>Node5</title>
<g id="a_Node000005"><a xlink:href="classtools.html#a352a6965f2f3c768f0f4ecd1f978fcc0" target="_top" xlink:title="Splits a string into a vector of substrings based on a delimiter.">
<polygon fill="white" stroke="#666666" points="549,-122.5 481,-122.5 481,-103.5 549,-103.5 549,-122.5"/>
<text text-anchor="middle" x="515" y="-110.5" font-family="Helvetica,sans-Serif" font-size="10.00">tools::split</text>
</a>
</g>
</g>
<!-- Node4&#45;&gt;Node5 -->
<g id="edge4_Node000004_Node000005" class="edge">
<title>Node4&#45;&gt;Node5</title>
<g id="a_edge4_Node000004_Node000005"><a xlink:title=" ">
<path fill="none" stroke="#63b8ff" d="M445.24,-113C453.75,-113 462.5,-113 470.79,-113"/>
<polygon fill="#63b8ff" stroke="#63b8ff" points="470.98,-116.5 480.98,-113 470.98,-109.5 470.98,-116.5"/>
</a>
</g>
</g>
<!-- Node6&#45;&gt;Node6 -->
<g id="edge6_Node000006_Node000006" class="edge">
<title>Node6&#45;&gt;Node6</title>
<g id="a_edge6_Node000006_Node000006"><a xlink:title=" ">
<path fill="none" stroke="#63b8ff" d="M210.48,-65.88C194.85,-74.97 202.19,-85.5 232.5,-85.5 255.23,-85.5 265.05,-79.58 261.94,-72.78"/>
<polygon fill="#63b8ff" stroke="#63b8ff" points="264.23,-70.13 254.52,-65.88 259.46,-75.26 264.23,-70.13"/>
</a>
</g>
</g>
</g>
</svg>
