<?xml version="1.0" encoding="UTF-8" standalone="no"?>
<!DOCTYPE svg PUBLIC "-//W3C//DTD SVG 1.1//EN"
 "http://www.w3.org/Graphics/SVG/1.1/DTD/svg11.dtd">
<!-- Generated by graphviz version 2.43.0 (0)
 -->
<!-- Title: io::read Pages: 1 -->
<svg width="518pt" height="83pt"
 viewBox="0.00 0.00 518.00 83.00" xmlns="http://www.w3.org/2000/svg" xmlns:xlink="http://www.w3.org/1999/xlink">
<g id="graph0" class="graph" transform="scale(1 1) rotate(0) translate(4 79)">
<title>io::read</title>
<!-- Node1 -->
<g id="Node000001" class="node">
<title>Node1</title>
<g id="a_Node000001"><a xlink:title="Reads graph data in HDF5 format specifically for graph_hdf5_w struct.">
<polygon fill="#999999" stroke="#666666" points="53,-75 0,-75 0,-56 53,-56 53,-75"/>
<text text-anchor="middle" x="26.5" y="-63" font-family="Helvetica,sans-Serif" font-size="10.00">io::read</text>
</a>
</g>
</g>
<!-- Node2 -->
<g id="Node000002" class="node">
<title>Node2</title>
<g id="a_Node000002"><a xlink:href="classio.html#a1b1fcdf426ced67387cc9579f8f0f3e2" target="_top" xlink:title="&lt; Private access specifier for the following members.">
<polygon fill="white" stroke="#666666" points="510,-75 437,-75 437,-56 510,-56 510,-75"/>
<text text-anchor="middle" x="473.5" y="-63" font-family="Helvetica,sans-Serif" font-size="10.00">io::member</text>
</a>
</g>
</g>
<!-- Node1&#45;&gt;Node2 -->
<g id="edge1_Node000001_Node000002" class="edge">
<title>Node1&#45;&gt;Node2</title>
<g id="a_edge1_Node000001_Node000002"><a xlink:title=" ">
<path fill="none" stroke="#63b8ff" d="M53.02,-65.5C125.58,-65.5 333.76,-65.5 426.72,-65.5"/>
<polygon fill="#63b8ff" stroke="#63b8ff" points="426.94,-69 436.94,-65.5 426.94,-62 426.94,-69"/>
</a>
</g>
</g>
<!-- Node3 -->
<g id="Node000003" class="node">
<title>Node3</title>
<g id="a_Node000003"><a xlink:href="classio.html#a2a0214e493a7a2ef5e9507c0e6aa4e70" target="_top" xlink:title="Templated method to read a vector of objects from a dataset.">
<polygon fill="white" stroke="#666666" points="142,-56 89,-56 89,-37 142,-37 142,-56"/>
<text text-anchor="middle" x="115.5" y="-44" font-family="Helvetica,sans-Serif" font-size="10.00">io::read</text>
</a>
</g>
</g>
<!-- Node1&#45;&gt;Node3 -->
<g id="edge2_Node000001_Node000003" class="edge">
<title>Node1&#45;&gt;Node3</title>
<g id="a_edge2_Node000001_Node000003"><a xlink:title=" ">
<path fill="none" stroke="#63b8ff" d="M53.13,-59.9C61.2,-58.14 70.26,-56.16 78.9,-54.28"/>
<polygon fill="#63b8ff" stroke="#63b8ff" points="79.73,-57.68 88.75,-52.12 78.23,-50.84 79.73,-57.68"/>
</a>
</g>
</g>
<!-- Node4 -->
<g id="Node000004" class="node">
<title>Node4</title>
<g id="a_Node000004"><a xlink:href="classio.html#a4cdbdd389d60e2ba4759269123381e25" target="_top" xlink:title="Templated method to read event data (vector of objects) from HDF5.">
<polygon fill="white" stroke="#666666" points="288.5,-56 184.5,-56 184.5,-37 288.5,-37 288.5,-56"/>
<text text-anchor="middle" x="236.5" y="-44" font-family="Helvetica,sans-Serif" font-size="10.00">io::read_event_h5</text>
</a>
</g>
</g>
<!-- Node3&#45;&gt;Node4 -->
<g id="edge3_Node000003_Node000004" class="edge">
<title>Node3&#45;&gt;Node4</title>
<g id="a_edge3_Node000003_Node000004"><a xlink:title=" ">
<path fill="none" stroke="#63b8ff" d="M142.03,-46.5C151.44,-46.5 162.56,-46.5 173.78,-46.5"/>
<polygon fill="#63b8ff" stroke="#63b8ff" points="174.07,-50 184.07,-46.5 174.07,-43 174.07,-50"/>
</a>
</g>
</g>
<!-- Node6 -->
<g id="Node000006" class="node">
<title>Node6</title>
<g id="a_Node000006"><a xlink:href="classnotification.html#ab758dafbb449e142fb68e11c0470b5c9" target="_top" xlink:title="Outputs a warning message.">
<polygon fill="white" stroke="#666666" points="295,-19 178,-19 178,0 295,0 295,-19"/>
<text text-anchor="middle" x="236.5" y="-7" font-family="Helvetica,sans-Serif" font-size="10.00">notification::Warning</text>
</a>
</g>
</g>
<!-- Node3&#45;&gt;Node6 -->
<g id="edge6_Node000003_Node000006" class="edge">
<title>Node3&#45;&gt;Node6</title>
<g id="a_edge6_Node000003_Node000006"><a xlink:title=" ">
<path fill="none" stroke="#63b8ff" d="M142.03,-38.56C157.33,-33.81 177.13,-27.65 194.58,-22.22"/>
<polygon fill="#63b8ff" stroke="#63b8ff" points="196.01,-25.44 204.52,-19.13 193.93,-18.76 196.01,-25.44"/>
</a>
</g>
</g>
<!-- Node5 -->
<g id="Node000005" class="node">
<title>Node5</title>
<g id="a_Node000005"><a xlink:href="classio.html#a9c5e08cc995a18eff996b3cfcda641eb" target="_top" xlink:title="Generic HDF5 read operation for a vector of objects.">
<polygon fill="white" stroke="#666666" points="401,-56 331,-56 331,-37 401,-37 401,-56"/>
<text text-anchor="middle" x="366" y="-44" font-family="Helvetica,sans-Serif" font-size="10.00">io::H5Read</text>
</a>
</g>
</g>
<!-- Node4&#45;&gt;Node5 -->
<g id="edge4_Node000004_Node000005" class="edge">
<title>Node4&#45;&gt;Node5</title>
<g id="a_edge4_Node000004_Node000005"><a xlink:title=" ">
<path fill="none" stroke="#63b8ff" d="M288.62,-46.5C299.22,-46.5 310.31,-46.5 320.64,-46.5"/>
<polygon fill="#63b8ff" stroke="#63b8ff" points="320.68,-50 330.68,-46.5 320.68,-43 320.68,-50"/>
</a>
</g>
</g>
<!-- Node5&#45;&gt;Node2 -->
<g id="edge5_Node000005_Node000002" class="edge">
<title>Node5&#45;&gt;Node2</title>
<g id="a_edge5_Node000005_Node000002"><a xlink:title=" ">
<path fill="none" stroke="#63b8ff" d="M401.25,-52.67C409.47,-54.15 418.37,-55.75 427.01,-57.31"/>
<polygon fill="#63b8ff" stroke="#63b8ff" points="426.51,-60.77 436.97,-59.1 427.75,-53.88 426.51,-60.77"/>
</a>
</g>
</g>
</g>
</svg>
