<?xml version="1.0" encoding="UTF-8" standalone="no"?>
<!DOCTYPE svg PUBLIC "-//W3C//DTD SVG 1.1//EN"
 "http://www.w3.org/Graphics/SVG/1.1/DTD/svg11.dtd">
<!-- Generated by graphviz version 2.43.0 (0)
 -->
<!-- Title: graph_detector::CompileEvent Pages: 1 -->
<svg width="713pt" height="745pt"
 viewBox="0.00 0.00 713.00 744.50" xmlns="http://www.w3.org/2000/svg" xmlns:xlink="http://www.w3.org/1999/xlink">
<g id="graph0" class="graph" transform="scale(1 1) rotate(0) translate(4 740.5)">
<title>graph_detector::CompileEvent</title>
<!-- Node1 -->
<g id="Node000001" class="node">
<title>Node1</title>
<g id="a_Node000001"><a xlink:title="Compiles the event into a graph.">
<polygon fill="#999999" stroke="#666666" points="164,-352 0,-352 0,-333 164,-333 164,-352"/>
<text text-anchor="middle" x="82" y="-340" font-family="Helvetica,sans-Serif" font-size="10.00">graph_detector::CompileEvent</text>
</a>
</g>
</g>
<!-- Node2 -->
<g id="Node000002" class="node">
<title>Node2</title>
<g id="a_Node000002"><a xlink:href="classgraph__template.html#a18725eb3da8ab2866b415fed685465d1" target="_top" xlink:title="Defines which particles become graph nodes.">
<polygon fill="white" stroke="#666666" points="331.5,-736.5 201.5,-736.5 201.5,-706.5 331.5,-706.5 331.5,-736.5"/>
<text text-anchor="start" x="209.5" y="-724.5" font-family="Helvetica,sans-Serif" font-size="10.00">graph_template::define</text>
<text text-anchor="middle" x="266.5" y="-713.5" font-family="Helvetica,sans-Serif" font-size="10.00">_particle_nodes</text>
</a>
</g>
</g>
<!-- Node1&#45;&gt;Node2 -->
<g id="edge1_Node000001_Node000002" class="edge">
<title>Node1&#45;&gt;Node2</title>
<g id="a_edge1_Node000001_Node000002"><a xlink:title=" ">
<path fill="none" stroke="#63b8ff" d="M83.26,-352.24C85.03,-397.86 98.47,-592.57 200,-697.5 200.92,-698.45 201.89,-699.37 202.89,-700.25"/>
<polygon fill="#63b8ff" stroke="#63b8ff" points="201.04,-703.24 211.18,-706.32 205.17,-697.59 201.04,-703.24"/>
</a>
</g>
</g>
<!-- Node3 -->
<g id="Node000003" class="node">
<title>Node3</title>
<g id="a_Node000003"><a xlink:href="classgraph__template.html#af5d505282f6126e2fe5d2eab98507d40" target="_top" xlink:title="Defines the edge topology between nodes.">
<polygon fill="white" stroke="#666666" points="331.5,-688.5 201.5,-688.5 201.5,-658.5 331.5,-658.5 331.5,-688.5"/>
<text text-anchor="start" x="209.5" y="-676.5" font-family="Helvetica,sans-Serif" font-size="10.00">graph_template::define</text>
<text text-anchor="middle" x="266.5" y="-665.5" font-family="Helvetica,sans-Serif" font-size="10.00">_topology</text>
</a>
</g>
</g>
<!-- Node1&#45;&gt;Node3 -->
<g id="edge2_Node000001_Node000003" class="edge">
<title>Node1&#45;&gt;Node3</title>
<g id="a_edge2_Node000001_Node000003"><a xlink:title=" ">
<path fill="none" stroke="#63b8ff" d="M83.82,-352.03C87.88,-393.51 109.48,-560.14 200,-649.5 201.08,-650.56 202.21,-651.58 203.38,-652.55"/>
<polygon fill="#63b8ff" stroke="#63b8ff" points="201.46,-655.48 211.66,-658.34 205.47,-649.75 201.46,-655.48"/>
</a>
</g>
</g>
<!-- Node9 -->
<g id="Node000009" class="node">
<title>Node9</title>
<g id="a_Node000009"><a xlink:href="classgraph__template.html#aa2bef51e5e00b49425c8ac93bcd1f315" target="_top" xlink:title="Reconstructs double neutrino momenta for di&#45;leptonic events.">
<polygon fill="white" stroke="#666666" points="333,-640.5 200,-640.5 200,-610.5 333,-610.5 333,-640.5"/>
<text text-anchor="start" x="208" y="-628.5" font-family="Helvetica,sans-Serif" font-size="10.00">graph_template::double</text>
<text text-anchor="middle" x="266.5" y="-617.5" font-family="Helvetica,sans-Serif" font-size="10.00">_neutrino</text>
</a>
</g>
</g>
<!-- Node1&#45;&gt;Node9 -->
<g id="edge8_Node000001_Node000009" class="edge">
<title>Node1&#45;&gt;Node9</title>
<g id="a_edge8_Node000001_Node000009"><a xlink:title=" ">
<path fill="none" stroke="#63b8ff" d="M84.57,-352.04C91.23,-389.44 120.49,-527.6 200,-601.5 201.28,-602.69 202.63,-603.82 204.02,-604.9"/>
<polygon fill="#63b8ff" stroke="#63b8ff" points="202.24,-607.92 212.52,-610.49 206.09,-602.07 202.24,-607.92"/>
</a>
</g>
</g>
<!-- Node11 -->
<g id="Node000011" class="node">
<title>Node11</title>
<g id="a_Node000011"><a xlink:href="bsm__4tops_2include_2bsm__4tops_2graph__features_8h.html#a06342b1cfa1e60c002d2f1875c674ee8" target="_top" xlink:title=" ">
<polygon fill="white" stroke="#666666" points="310,-574 223,-574 223,-555 310,-555 310,-574"/>
<text text-anchor="middle" x="266.5" y="-562" font-family="Helvetica,sans-Serif" font-size="10.00">event_number</text>
</a>
</g>
</g>
<!-- Node1&#45;&gt;Node11 -->
<g id="edge10_Node000001_Node000011" class="edge">
<title>Node1&#45;&gt;Node11</title>
<g id="a_edge10_Node000001_Node000011"><a xlink:title=" ">
<path fill="none" stroke="#63b8ff" d="M85.7,-352.38C95.25,-385.39 130.61,-492.74 200,-546.5 204.03,-549.62 208.57,-552.21 213.34,-554.34"/>
<polygon fill="#63b8ff" stroke="#63b8ff" points="212.1,-557.62 222.69,-557.92 214.6,-551.08 212.1,-557.62"/>
</a>
</g>
</g>
<!-- Node12 -->
<g id="Node000012" class="node">
<title>Node12</title>
<g id="a_Node000012"><a xlink:href="bsm__4tops_2include_2bsm__4tops_2graph__features_8h.html#ac4429f2ee44f3a8d00eb820c7c69481d" target="_top" xlink:title=" ">
<polygon fill="white" stroke="#666666" points="308,-537 225,-537 225,-518 308,-518 308,-537"/>
<text text-anchor="middle" x="266.5" y="-525" font-family="Helvetica,sans-Serif" font-size="10.00">event_weight</text>
</a>
</g>
</g>
<!-- Node1&#45;&gt;Node12 -->
<g id="edge12_Node000001_Node000012" class="edge">
<title>Node1&#45;&gt;Node12</title>
<g id="a_edge12_Node000001_Node000012"><a xlink:title=" ">
<path fill="none" stroke="#63b8ff" d="M86.91,-352.18C99.05,-380.92 138.94,-466.47 200,-509.5 204.58,-512.73 209.71,-515.38 215.04,-517.55"/>
<polygon fill="#63b8ff" stroke="#63b8ff" points="214.16,-520.95 224.76,-520.98 216.49,-514.35 214.16,-520.95"/>
</a>
</g>
</g>
<!-- Node13 -->
<g id="Node000013" class="node">
<title>Node13</title>
<g id="a_Node000013"><a xlink:href="graph__template_8h.html#a69f5094a8d3c7a77c2eafc6257ede417" target="_top" xlink:title="Default topology function that connects all node pairs.">
<polygon fill="white" stroke="#666666" points="293.5,-500 239.5,-500 239.5,-481 293.5,-481 293.5,-500"/>
<text text-anchor="middle" x="266.5" y="-488" font-family="Helvetica,sans-Serif" font-size="10.00">fulltopo</text>
</a>
</g>
</g>
<!-- Node1&#45;&gt;Node13 -->
<g id="edge13_Node000001_Node000013" class="edge">
<title>Node1&#45;&gt;Node13</title>
<g id="a_edge13_Node000001_Node000013"><a xlink:title=" ">
<path fill="none" stroke="#63b8ff" d="M88.77,-352.03C103.87,-376.11 147.03,-439.8 200,-472.5 208.88,-477.98 219.45,-481.83 229.48,-484.51"/>
<polygon fill="#63b8ff" stroke="#63b8ff" points="228.71,-487.92 239.24,-486.82 230.32,-481.11 228.71,-487.92"/>
</a>
</g>
</g>
<!-- Node14 -->
<g id="Node000014" class="node">
<title>Node14</title>
<g id="a_Node000014"><a xlink:href="bsm__4tops_2include_2bsm__4tops_2node__features_8h.html#a3f3117b469cddb9e7a32cef78c5c085f" target="_top" xlink:title=" ">
<polygon fill="white" stroke="#666666" points="298.5,-463 234.5,-463 234.5,-444 298.5,-444 298.5,-463"/>
<text text-anchor="middle" x="266.5" y="-451" font-family="Helvetica,sans-Serif" font-size="10.00">is_bquark</text>
</a>
</g>
</g>
<!-- Node1&#45;&gt;Node14 -->
<g id="edge14_Node000001_Node000014" class="edge">
<title>Node1&#45;&gt;Node14</title>
<g id="a_edge14_Node000001_Node000014"><a xlink:title=" ">
<path fill="none" stroke="#63b8ff" d="M92.37,-352.21C111.07,-371.05 155.12,-412.71 200,-435.5 207.63,-439.38 216.2,-442.5 224.57,-444.99"/>
<polygon fill="#63b8ff" stroke="#63b8ff" points="223.65,-448.37 234.22,-447.63 225.5,-441.62 223.65,-448.37"/>
</a>
</g>
</g>
<!-- Node15 -->
<g id="Node000015" class="node">
<title>Node15</title>
<g id="a_Node000015"><a xlink:href="bsm__4tops_2include_2bsm__4tops_2node__features_8h.html#a05898150cc9167a4de297df624e6c15a" target="_top" xlink:title=" ">
<polygon fill="white" stroke="#666666" points="297,-426 236,-426 236,-407 297,-407 297,-426"/>
<text text-anchor="middle" x="266.5" y="-414" font-family="Helvetica,sans-Serif" font-size="10.00">is_lepton</text>
</a>
</g>
</g>
<!-- Node1&#45;&gt;Node15 -->
<g id="edge15_Node000001_Node000015" class="edge">
<title>Node1&#45;&gt;Node15</title>
<g id="a_edge15_Node000001_Node000015"><a xlink:title=" ">
<path fill="none" stroke="#63b8ff" d="M100.41,-352.05C122.9,-364.09 163.5,-384.87 200,-398.5 208.26,-401.58 217.28,-404.4 225.91,-406.84"/>
<polygon fill="#63b8ff" stroke="#63b8ff" points="225.23,-410.29 235.8,-409.54 227.07,-403.53 225.23,-410.29"/>
</a>
</g>
</g>
<!-- Node16 -->
<g id="Node000016" class="node">
<title>Node16</title>
<g id="a_Node000016"><a xlink:href="bsm__4tops_2include_2bsm__4tops_2graph__features_8h.html#aa3877d6a2e8b77e08262de8b557b9845" target="_top" xlink:title=" ">
<polygon fill="white" stroke="#666666" points="301.5,-389 231.5,-389 231.5,-370 301.5,-370 301.5,-389"/>
<text text-anchor="middle" x="266.5" y="-377" font-family="Helvetica,sans-Serif" font-size="10.00">missing_et</text>
</a>
</g>
</g>
<!-- Node1&#45;&gt;Node16 -->
<g id="edge16_Node000001_Node000016" class="edge">
<title>Node1&#45;&gt;Node16</title>
<g id="a_edge16_Node000001_Node000016"><a xlink:title=" ">
<path fill="none" stroke="#63b8ff" d="M130,-352.03C158.09,-357.72 193.57,-364.92 221.18,-370.51"/>
<polygon fill="#63b8ff" stroke="#63b8ff" points="220.84,-374.02 231.34,-372.57 222.24,-367.16 220.84,-374.02"/>
</a>
</g>
</g>
<!-- Node17 -->
<g id="Node000017" class="node">
<title>Node17</title>
<g id="a_Node000017"><a xlink:href="bsm__4tops_2include_2bsm__4tops_2graph__features_8h.html#af2c4c0d6c526b044cacd4b7a03274557" target="_top" xlink:title=" ">
<polygon fill="white" stroke="#666666" points="304,-352 229,-352 229,-333 304,-333 304,-352"/>
<text text-anchor="middle" x="266.5" y="-340" font-family="Helvetica,sans-Serif" font-size="10.00">missing_phi</text>
</a>
</g>
</g>
<!-- Node1&#45;&gt;Node17 -->
<g id="edge17_Node000001_Node000017" class="edge">
<title>Node1&#45;&gt;Node17</title>
<g id="a_edge17_Node000001_Node000017"><a xlink:title=" ">
<path fill="none" stroke="#63b8ff" d="M164.11,-342.5C182.87,-342.5 202.21,-342.5 218.91,-342.5"/>
<polygon fill="#63b8ff" stroke="#63b8ff" points="218.93,-346 228.93,-342.5 218.93,-339 218.93,-346"/>
</a>
</g>
</g>
<!-- Node18 -->
<g id="Node000018" class="node">
<title>Node18</title>
<g id="a_Node000018"><a xlink:href="bsm__4tops_2include_2bsm__4tops_2graph__features_8h.html#ae8e5a8c9e20c373fc6c4566c25f8a5e9" target="_top" xlink:title=" ">
<polygon fill="white" stroke="#666666" points="297.5,-315 235.5,-315 235.5,-296 297.5,-296 297.5,-315"/>
<text text-anchor="middle" x="266.5" y="-303" font-family="Helvetica,sans-Serif" font-size="10.00">num_jets</text>
</a>
</g>
</g>
<!-- Node1&#45;&gt;Node18 -->
<g id="edge18_Node000001_Node000018" class="edge">
<title>Node1&#45;&gt;Node18</title>
<g id="a_edge18_Node000001_Node000018"><a xlink:title=" ">
<path fill="none" stroke="#63b8ff" d="M130,-332.97C159.53,-326.98 197.23,-319.34 225.36,-313.64"/>
<polygon fill="#63b8ff" stroke="#63b8ff" points="226.15,-317.05 235.26,-311.63 224.76,-310.19 226.15,-317.05"/>
</a>
</g>
</g>
<!-- Node19 -->
<g id="Node000019" class="node">
<title>Node19</title>
<g id="a_Node000019"><a xlink:href="bsm__4tops_2include_2bsm__4tops_2graph__features_8h.html#a75c0e78e1f575a8475cf9d1958c47167" target="_top" xlink:title=" ">
<polygon fill="white" stroke="#666666" points="298.5,-278 234.5,-278 234.5,-259 298.5,-259 298.5,-278"/>
<text text-anchor="middle" x="266.5" y="-266" font-family="Helvetica,sans-Serif" font-size="10.00">num_leps</text>
</a>
</g>
</g>
<!-- Node1&#45;&gt;Node19 -->
<g id="edge19_Node000001_Node000019" class="edge">
<title>Node1&#45;&gt;Node19</title>
<g id="a_edge19_Node000001_Node000019"><a xlink:title=" ">
<path fill="none" stroke="#63b8ff" d="M101.25,-332.82C123.95,-321.04 164.09,-301.05 200,-287.5 207.8,-284.56 216.26,-281.8 224.43,-279.34"/>
<polygon fill="#63b8ff" stroke="#63b8ff" points="225.56,-282.66 234.18,-276.5 223.61,-275.93 225.56,-282.66"/>
</a>
</g>
</g>
<!-- Node20 -->
<g id="Node000020" class="node">
<title>Node20</title>
<g id="a_Node000020"><a xlink:href="bsm__4tops_2include_2bsm__4tops_2graph__features_8h.html#aad7321ef73eeb35377f5651c773d53c3" target="_top" xlink:title=" ">
<polygon fill="white" stroke="#666666" points="303.5,-241 229.5,-241 229.5,-222 303.5,-222 303.5,-241"/>
<text text-anchor="middle" x="266.5" y="-229" font-family="Helvetica,sans-Serif" font-size="10.00">num_lepton</text>
</a>
</g>
</g>
<!-- Node1&#45;&gt;Node20 -->
<g id="edge20_Node000001_Node000020" class="edge">
<title>Node1&#45;&gt;Node20</title>
<g id="a_edge20_Node000001_Node000020"><a xlink:title=" ">
<path fill="none" stroke="#63b8ff" d="M92.42,-332.95C111.21,-314.42 155.4,-273.4 200,-250.5 206.09,-247.38 212.76,-244.69 219.45,-242.41"/>
<polygon fill="#63b8ff" stroke="#63b8ff" points="220.7,-245.69 229.19,-239.36 218.6,-239.01 220.7,-245.69"/>
</a>
</g>
</g>
<!-- Node21 -->
<g id="Node000021" class="node">
<title>Node21</title>
<g id="a_Node000021"><a xlink:href="bsm__4tops_2include_2bsm__4tops_2graph__features_8h.html#ab67addeed0cfbc8b4e8ce19cd2e98cb4" target="_top" xlink:title=" ">
<polygon fill="white" stroke="#666666" points="299,-204 234,-204 234,-185 299,-185 299,-204"/>
<text text-anchor="middle" x="266.5" y="-192" font-family="Helvetica,sans-Serif" font-size="10.00">num_tops</text>
</a>
</g>
</g>
<!-- Node1&#45;&gt;Node21 -->
<g id="edge21_Node000001_Node000021" class="edge">
<title>Node1&#45;&gt;Node21</title>
<g id="a_edge21_Node000001_Node000021"><a xlink:title=" ">
<path fill="none" stroke="#63b8ff" d="M89.05,-332.74C104.45,-308.69 147.68,-246.17 200,-213.5 207.29,-208.95 215.71,-205.45 224.04,-202.77"/>
<polygon fill="#63b8ff" stroke="#63b8ff" points="225.05,-206.12 233.7,-199.99 223.12,-199.4 225.05,-206.12"/>
</a>
</g>
</g>
<!-- Node22 -->
<g id="Node000022" class="node">
<title>Node22</title>
<g id="a_Node000022"><a xlink:href="bsm__4tops_2include_2bsm__4tops_2edge__features_8h.html#a196518fb89ffbc60b3ca928dc80ac57d" target="_top" xlink:title=" ">
<polygon fill="white" stroke="#666666" points="297,-167 236,-167 236,-148 297,-148 297,-167"/>
<text text-anchor="middle" x="266.5" y="-155" font-family="Helvetica,sans-Serif" font-size="10.00">res_edge</text>
</a>
</g>
</g>
<!-- Node1&#45;&gt;Node22 -->
<g id="edge22_Node000001_Node000022" class="edge">
<title>Node1&#45;&gt;Node22</title>
<g id="a_edge22_Node000001_Node000022"><a xlink:title=" ">
<path fill="none" stroke="#63b8ff" d="M86.96,-332.92C99.22,-304.46 139.43,-219.7 200,-176.5 207.72,-171 217.01,-167.08 226.14,-164.29"/>
<polygon fill="#63b8ff" stroke="#63b8ff" points="227.14,-167.64 235.9,-161.69 225.34,-160.88 227.14,-167.64"/>
</a>
</g>
</g>
<!-- Node24 -->
<g id="Node000024" class="node">
<title>Node24</title>
<g id="a_Node000024"><a xlink:href="bsm__4tops_2include_2bsm__4tops_2node__features_8h.html#ab1c59b5f0c6a25f3a21b6ff62c95596a" target="_top" xlink:title=" ">
<polygon fill="white" stroke="#666666" points="297,-130 236,-130 236,-111 297,-111 297,-130"/>
<text text-anchor="middle" x="266.5" y="-118" font-family="Helvetica,sans-Serif" font-size="10.00">res_node</text>
</a>
</g>
</g>
<!-- Node1&#45;&gt;Node24 -->
<g id="edge24_Node000001_Node000024" class="edge">
<title>Node1&#45;&gt;Node24</title>
<g id="a_edge24_Node000001_Node000024"><a xlink:title=" ">
<path fill="none" stroke="#63b8ff" d="M85.75,-332.7C95.43,-299.97 131.19,-193.48 200,-139.5 207.53,-133.6 216.82,-129.53 226.03,-126.72"/>
<polygon fill="#63b8ff" stroke="#63b8ff" points="227.1,-130.06 235.89,-124.15 225.33,-123.29 227.1,-130.06"/>
</a>
</g>
</g>
<!-- Node25 -->
<g id="Node000025" class="node">
<title>Node25</title>
<g id="a_Node000025"><a xlink:href="bsm__4tops_2include_2bsm__4tops_2graph__features_8h.html#a50dd3e9329b3d7325cde2d4b8059cb60" target="_top" xlink:title=" ">
<polygon fill="white" stroke="#666666" points="306,-93 227,-93 227,-74 306,-74 306,-93"/>
<text text-anchor="middle" x="266.5" y="-81" font-family="Helvetica,sans-Serif" font-size="10.00">signal_event</text>
</a>
</g>
</g>
<!-- Node1&#45;&gt;Node25 -->
<g id="edge25_Node000001_Node000025" class="edge">
<title>Node1&#45;&gt;Node25</title>
<g id="a_edge25_Node000001_Node000025"><a xlink:title=" ">
<path fill="none" stroke="#63b8ff" d="M84.86,-332.51C92.21,-295.86 122.7,-167.58 200,-102.5 204.99,-98.3 210.87,-95.02 217.03,-92.47"/>
<polygon fill="#63b8ff" stroke="#63b8ff" points="218.56,-95.64 226.83,-89.03 216.24,-89.04 218.56,-95.64"/>
</a>
</g>
</g>
<!-- Node26 -->
<g id="Node000026" class="node">
<title>Node26</title>
<g id="a_Node000026"><a xlink:href="bsm__4tops_2include_2bsm__4tops_2edge__features_8h.html#af35cf309c4131ca516f825cf67635ceb" target="_top" xlink:title=" ">
<polygon fill="white" stroke="#666666" points="297.5,-56 235.5,-56 235.5,-37 297.5,-37 297.5,-56"/>
<text text-anchor="middle" x="266.5" y="-44" font-family="Helvetica,sans-Serif" font-size="10.00">top_edge</text>
</a>
</g>
</g>
<!-- Node1&#45;&gt;Node26 -->
<g id="edge26_Node000001_Node000026" class="edge">
<title>Node1&#45;&gt;Node26</title>
<g id="a_edge26_Node000001_Node000026"><a xlink:title=" ">
<path fill="none" stroke="#63b8ff" d="M84.05,-332.88C88.91,-293.24 112.82,-141.01 200,-64.5 207.16,-58.22 216.32,-54.11 225.51,-51.42"/>
<polygon fill="#63b8ff" stroke="#63b8ff" points="226.5,-54.78 235.4,-49.04 224.86,-47.98 226.5,-54.78"/>
</a>
</g>
</g>
<!-- Node28 -->
<g id="Node000028" class="node">
<title>Node28</title>
<g id="a_Node000028"><a xlink:href="bsm__4tops_2include_2bsm__4tops_2node__features_8h.html#ab2215efaacd3bffb7241a74646421796" target="_top" xlink:title=" ">
<polygon fill="white" stroke="#666666" points="297.5,-19 235.5,-19 235.5,0 297.5,0 297.5,-19"/>
<text text-anchor="middle" x="266.5" y="-7" font-family="Helvetica,sans-Serif" font-size="10.00">top_node</text>
</a>
</g>
</g>
<!-- Node1&#45;&gt;Node28 -->
<g id="edge28_Node000001_Node000028" class="edge">
<title>Node1&#45;&gt;Node28</title>
<g id="a_edge28_Node000001_Node000028"><a xlink:title=" ">
<path fill="none" stroke="#63b8ff" d="M83.53,-332.82C86.41,-289.96 103.86,-115.58 200,-27.5 207.02,-21.06 216.14,-16.9 225.32,-14.21"/>
<polygon fill="#63b8ff" stroke="#63b8ff" points="226.31,-17.57 235.22,-11.84 224.68,-10.76 226.31,-17.57"/>
</a>
</g>
</g>
<!-- Node4 -->
<g id="Node000004" class="node">
<title>Node4</title>
<g id="a_Node000004"><a xlink:href="classgraph__template.html#a255ec8fcf27b7352445397e5245cc9ef" target="_top" xlink:title=" ">
<polygon fill="white" stroke="#666666" points="479,-688.5 369,-688.5 369,-658.5 479,-658.5 479,-688.5"/>
<text text-anchor="start" x="377" y="-676.5" font-family="Helvetica,sans-Serif" font-size="10.00">graph_template::to</text>
<text text-anchor="middle" x="424" y="-665.5" font-family="Helvetica,sans-Serif" font-size="10.00">_tensor</text>
</a>
</g>
</g>
<!-- Node3&#45;&gt;Node4 -->
<g id="edge3_Node000003_Node000004" class="edge">
<title>Node3&#45;&gt;Node4</title>
<g id="a_edge3_Node000003_Node000004"><a xlink:title=" ">
<path fill="none" stroke="#63b8ff" d="M331.65,-673.5C340.64,-673.5 349.89,-673.5 358.88,-673.5"/>
<polygon fill="#63b8ff" stroke="#63b8ff" points="358.91,-677 368.91,-673.5 358.91,-670 358.91,-677"/>
</a>
</g>
</g>
<!-- Node5 -->
<g id="Node000005" class="node">
<title>Node5</title>
<g id="a_Node000005"><a xlink:href="tensor__cast_8h.html#a27121e7e5aeb77bda0453dd6214cf7fb" target="_top" xlink:title=" ">
<polygon fill="white" stroke="#666666" points="592,-683 515,-683 515,-664 592,-664 592,-683"/>
<text text-anchor="middle" x="553.5" y="-671" font-family="Helvetica,sans-Serif" font-size="10.00">build_tensor</text>
</a>
</g>
</g>
<!-- Node4&#45;&gt;Node5 -->
<g id="edge4_Node000004_Node000005" class="edge">
<title>Node4&#45;&gt;Node5</title>
<g id="a_edge4_Node000004_Node000005"><a xlink:title=" ">
<path fill="none" stroke="#63b8ff" d="M479.07,-673.5C487.66,-673.5 496.49,-673.5 504.91,-673.5"/>
<polygon fill="#63b8ff" stroke="#63b8ff" points="504.95,-677 514.95,-673.5 504.95,-670 504.95,-677"/>
</a>
</g>
</g>
<!-- Node6 -->
<g id="Node000006" class="node">
<title>Node6</title>
<g id="a_Node000006"><a xlink:href="tensor__cast_8h.html#a49d70dbad1cfb3e27ebb8960cff818bb" target="_top" xlink:title=" ">
<polygon fill="white" stroke="#666666" points="705,-720 628,-720 628,-701 705,-701 705,-720"/>
<text text-anchor="middle" x="666.5" y="-708" font-family="Helvetica,sans-Serif" font-size="10.00">as_primitive</text>
</a>
</g>
</g>
<!-- Node5&#45;&gt;Node6 -->
<g id="edge5_Node000005_Node000006" class="edge">
<title>Node5&#45;&gt;Node6</title>
<g id="a_edge5_Node000005_Node000006"><a xlink:title=" ">
<path fill="none" stroke="#63b8ff" d="M583.09,-683.03C596.45,-687.48 612.55,-692.85 626.97,-697.66"/>
<polygon fill="#63b8ff" stroke="#63b8ff" points="626.03,-701.03 636.63,-700.88 628.25,-694.39 626.03,-701.03"/>
</a>
</g>
</g>
<!-- Node7 -->
<g id="Node000007" class="node">
<title>Node7</title>
<g id="a_Node000007"><a xlink:href="tensor__cast_8h.html#af735bf7b89e3864dbde7fe5def867d4d" target="_top" xlink:title=" ">
<polygon fill="white" stroke="#666666" points="700,-683 633,-683 633,-664 700,-664 700,-683"/>
<text text-anchor="middle" x="666.5" y="-671" font-family="Helvetica,sans-Serif" font-size="10.00">scout_dim</text>
</a>
</g>
</g>
<!-- Node5&#45;&gt;Node7 -->
<g id="edge6_Node000005_Node000007" class="edge">
<title>Node5&#45;&gt;Node7</title>
<g id="a_edge6_Node000005_Node000007"><a xlink:title=" ">
<path fill="none" stroke="#63b8ff" d="M592.08,-673.5C601.88,-673.5 612.52,-673.5 622.58,-673.5"/>
<polygon fill="#63b8ff" stroke="#63b8ff" points="622.79,-677 632.79,-673.5 622.79,-670 622.79,-677"/>
</a>
</g>
</g>
<!-- Node8 -->
<g id="Node000008" class="node">
<title>Node8</title>
<g id="a_Node000008"><a xlink:href="tensor__cast_8h.html#af14120999422d60b3d0aef376398fca6" target="_top" xlink:title=" ">
<polygon fill="white" stroke="#666666" points="696,-646 637,-646 637,-627 696,-627 696,-646"/>
<text text-anchor="middle" x="666.5" y="-634" font-family="Helvetica,sans-Serif" font-size="10.00">standard</text>
</a>
</g>
</g>
<!-- Node5&#45;&gt;Node8 -->
<g id="edge7_Node000005_Node000008" class="edge">
<title>Node5&#45;&gt;Node8</title>
<g id="a_edge7_Node000005_Node000008"><a xlink:title=" ">
<path fill="none" stroke="#63b8ff" d="M583.09,-663.97C596.45,-659.52 612.55,-654.15 626.97,-649.34"/>
<polygon fill="#63b8ff" stroke="#63b8ff" points="628.25,-652.61 636.63,-646.12 626.03,-645.97 628.25,-652.61"/>
</a>
</g>
</g>
<!-- Node10 -->
<g id="Node000010" class="node">
<title>Node10</title>
<g id="a_Node000010"><a xlink:href="classtools.html#a7b784121d8b368a64995feddc7083469" target="_top" xlink:title="Sums the elements of a vector.">
<polygon fill="white" stroke="#666666" points="458,-635 390,-635 390,-616 458,-616 458,-635"/>
<text text-anchor="middle" x="424" y="-623" font-family="Helvetica,sans-Serif" font-size="10.00">tools::sum</text>
</a>
</g>
</g>
<!-- Node9&#45;&gt;Node10 -->
<g id="edge9_Node000009_Node000010" class="edge">
<title>Node9&#45;&gt;Node10</title>
<g id="a_edge9_Node000009_Node000010"><a xlink:title=" ">
<path fill="none" stroke="#63b8ff" d="M333.45,-625.5C349.03,-625.5 365.27,-625.5 379.56,-625.5"/>
<polygon fill="#63b8ff" stroke="#63b8ff" points="379.6,-629 389.6,-625.5 379.6,-622 379.6,-629"/>
</a>
</g>
</g>
<!-- Node11&#45;&gt;Node11 -->
<g id="edge11_Node000011_Node000011" class="edge">
<title>Node11&#45;&gt;Node11</title>
<g id="a_edge11_Node000011_Node000011"><a xlink:title=" ">
<path fill="none" stroke="#63b8ff" d="M242.46,-574.08C230.76,-582.73 238.77,-592 266.5,-592 284.7,-592 294.4,-588.01 295.62,-582.82"/>
<polygon fill="#63b8ff" stroke="#63b8ff" points="298.59,-580.97 290.54,-574.08 292.54,-584.49 298.59,-580.97"/>
</a>
</g>
</g>
<!-- Node23 -->
<g id="Node000023" class="node">
<title>Node23</title>
<g id="a_Node000023"><a xlink:href="bsm__4tops_2include_2bsm__4tops_2edge__features_8h.html#a9addd2275949f0828310adb01cc761a3" target="_top" xlink:title=" ">
<polygon fill="white" stroke="#666666" points="462,-167 386,-167 386,-148 462,-148 462,-167"/>
<text text-anchor="middle" x="424" y="-155" font-family="Helvetica,sans-Serif" font-size="10.00">m_res_edge</text>
</a>
</g>
</g>
<!-- Node22&#45;&gt;Node23 -->
<g id="edge23_Node000022_Node000023" class="edge">
<title>Node22&#45;&gt;Node23</title>
<g id="a_edge23_Node000022_Node000023"><a xlink:title=" ">
<path fill="none" stroke="#63b8ff" d="M297.11,-157.5C319.26,-157.5 350.01,-157.5 375.57,-157.5"/>
<polygon fill="#63b8ff" stroke="#63b8ff" points="375.8,-161 385.8,-157.5 375.8,-154 375.8,-161"/>
</a>
</g>
</g>
<!-- Node27 -->
<g id="Node000027" class="node">
<title>Node27</title>
<g id="a_Node000027"><a xlink:href="bsm__4tops_2include_2bsm__4tops_2edge__features_8h.html#a28ada91c16a5975605583559f663b268" target="_top" xlink:title=" ">
<polygon fill="white" stroke="#666666" points="462.5,-56 385.5,-56 385.5,-37 462.5,-37 462.5,-56"/>
<text text-anchor="middle" x="424" y="-44" font-family="Helvetica,sans-Serif" font-size="10.00">m_top_edge</text>
</a>
</g>
</g>
<!-- Node26&#45;&gt;Node27 -->
<g id="edge27_Node000026_Node000027" class="edge">
<title>Node26&#45;&gt;Node27</title>
<g id="a_edge27_Node000026_Node000027"><a xlink:title=" ">
<path fill="none" stroke="#63b8ff" d="M297.85,-46.5C319.84,-46.5 350,-46.5 375.2,-46.5"/>
<polygon fill="#63b8ff" stroke="#63b8ff" points="375.3,-50 385.3,-46.5 375.3,-43 375.3,-50"/>
</a>
</g>
</g>
</g>
</svg>
