<?xml version="1.0" encoding="UTF-8" standalone="no"?>
<!DOCTYPE svg PUBLIC "-//W3C//DTD SVG 1.1//EN"
 "http://www.w3.org/Graphics/SVG/1.1/DTD/svg11.dtd">
<!-- Generated by graphviz version 2.43.0 (0)
 -->
<!-- Title: bsm_4tops::CompileEvent Pages: 1 -->
<svg width="309pt" height="76pt"
 viewBox="0.00 0.00 309.00 75.50" xmlns="http://www.w3.org/2000/svg" xmlns:xlink="http://www.w3.org/1999/xlink">
<g id="graph0" class="graph" transform="scale(1 1) rotate(0) translate(4 71.5)">
<title>bsm_4tops::CompileEvent</title>
<!-- Node1 -->
<g id="Node000001" class="node">
<title>Node1</title>
<g id="a_Node000001"><a xlink:title=" ">
<polygon fill="#999999" stroke="#666666" points="144,-40 0,-40 0,-21 144,-21 144,-40"/>
<text text-anchor="middle" x="72" y="-28" font-family="Helvetica,sans-Serif" font-size="10.00">bsm_4tops::CompileEvent</text>
</a>
</g>
</g>
<!-- Node2 -->
<g id="Node000002" class="node">
<title>Node2</title>
<g id="a_Node000002"><a xlink:href="classbsm__4tops.html#a817b0bfcfe7399d3d644231a9c3606e3" target="_top" xlink:title=" ">
<polygon fill="white" stroke="#666666" points="296.5,-67.5 184.5,-67.5 184.5,-37.5 296.5,-37.5 296.5,-67.5"/>
<text text-anchor="start" x="192.5" y="-55.5" font-family="Helvetica,sans-Serif" font-size="10.00">bsm_4tops::sort_by</text>
<text text-anchor="middle" x="240.5" y="-44.5" font-family="Helvetica,sans-Serif" font-size="10.00">_index</text>
</a>
</g>
</g>
<!-- Node1&#45;&gt;Node2 -->
<g id="edge1_Node000001_Node000002" class="edge">
<title>Node1&#45;&gt;Node2</title>
<g id="a_edge1_Node000001_Node000002"><a xlink:title=" ">
<path fill="none" stroke="#63b8ff" d="M144.09,-39.89C154.07,-41.21 164.27,-42.56 174.13,-43.86"/>
<polygon fill="#63b8ff" stroke="#63b8ff" points="173.88,-47.36 184.25,-45.2 174.8,-40.42 173.88,-47.36"/>
</a>
</g>
</g>
<!-- Node3 -->
<g id="Node000003" class="node">
<title>Node3</title>
<g id="a_Node000003"><a xlink:href="classbsm__4tops.html#adc7c22f8952aa930ba71c493649379c6" target="_top" xlink:title=" ">
<polygon fill="white" stroke="#666666" points="301,-19 180,-19 180,0 301,0 301,-19"/>
<text text-anchor="middle" x="240.5" y="-7" font-family="Helvetica,sans-Serif" font-size="10.00">bsm_4tops::vectorize</text>
</a>
</g>
</g>
<!-- Node1&#45;&gt;Node3 -->
<g id="edge2_Node000001_Node000003" class="edge">
<title>Node1&#45;&gt;Node3</title>
<g id="a_edge2_Node000001_Node000003"><a xlink:title=" ">
<path fill="none" stroke="#63b8ff" d="M144.09,-21.53C152.67,-20.45 161.42,-19.35 169.98,-18.27"/>
<polygon fill="#63b8ff" stroke="#63b8ff" points="170.42,-21.74 179.9,-17.02 169.54,-14.8 170.42,-21.74"/>
</a>
</g>
</g>
</g>
</svg>
