<?xml version="1.0" encoding="UTF-8" standalone="no"?>
<!DOCTYPE svg PUBLIC "-//W3C//DTD SVG 1.1//EN"
 "http://www.w3.org/Graphics/SVG/1.1/DTD/svg11.dtd">
<!-- Generated by graphviz version 2.43.0 (0)
 -->
<!-- Title: analysis::start Pages: 1 -->
<svg width="758pt" height="756pt"
 viewBox="0.00 0.00 758.00 756.00" xmlns="http://www.w3.org/2000/svg" xmlns:xlink="http://www.w3.org/1999/xlink">
<g id="graph0" class="graph" transform="scale(1 1) rotate(0) translate(4 752)">
<title>analysis::start</title>
<!-- Node1 -->
<g id="Node000001" class="node">
<title>Node1</title>
<g id="a_Node000001"><a xlink:title="Starts the analysis execution.">
<polygon fill="#999999" stroke="#666666" points="86,-285 0,-285 0,-266 86,-266 86,-285"/>
<text text-anchor="middle" x="43" y="-273" font-family="Helvetica,sans-Serif" font-size="10.00">analysis::start</text>
</a>
</g>
</g>
<!-- Node2 -->
<g id="Node000002" class="node">
<title>Node2</title>
<g id="a_Node000002"><a xlink:href="classanalysis.html#a929d006d8c02d16b6472d7625578aa21" target="_top" xlink:title="Builds or configures the data loader for training or evaluation.">
<polygon fill="white" stroke="#666666" points="445,-494 300,-494 300,-475 445,-475 445,-494"/>
<text text-anchor="middle" x="372.5" y="-482" font-family="Helvetica,sans-Serif" font-size="10.00">analysis::build_dataloader</text>
</a>
</g>
</g>
<!-- Node1&#45;&gt;Node2 -->
<g id="edge1_Node000001_Node000002" class="edge">
<title>Node1&#45;&gt;Node2</title>
<g id="a_edge1_Node000001_Node000002"><a xlink:title=" ">
<path fill="none" stroke="#63b8ff" d="M44.76,-285.24C47.77,-316.73 61.9,-416.32 122,-460.5 175.45,-499.78 253.7,-500.8 308.27,-495.18"/>
<polygon fill="#63b8ff" stroke="#63b8ff" points="308.97,-498.63 318.51,-494.03 308.18,-491.67 308.97,-498.63"/>
</a>
</g>
</g>
<!-- Node3 -->
<g id="Node000003" class="node">
<title>Node3</title>
<g id="a_Node000003"><a xlink:href="classanalysis.html#a68b520bbdb4d591d7375f9ecd6532ce8" target="_top" xlink:title="Builds or processes event data based on the added event templates and samples.">
<polygon fill="white" stroke="#666666" points="255.5,-626 130.5,-626 130.5,-607 255.5,-607 255.5,-626"/>
<text text-anchor="middle" x="193" y="-614" font-family="Helvetica,sans-Serif" font-size="10.00">analysis::build_events</text>
</a>
</g>
</g>
<!-- Node1&#45;&gt;Node3 -->
<g id="edge2_Node000001_Node000003" class="edge">
<title>Node1&#45;&gt;Node3</title>
<g id="a_edge2_Node000001_Node000003"><a xlink:title=" ">
<path fill="none" stroke="#63b8ff" d="M44.02,-285.09C44.59,-324.76 51.45,-478.34 122,-573.5 131.16,-585.85 145.02,-595.43 158,-602.38"/>
<polygon fill="#63b8ff" stroke="#63b8ff" points="156.7,-605.64 167.21,-606.97 159.83,-599.38 156.7,-605.64"/>
</a>
</g>
</g>
<!-- Node6 -->
<g id="Node000006" class="node">
<title>Node6</title>
<g id="a_Node000006"><a xlink:href="classtools.html#a352a6965f2f3c768f0f4ecd1f978fcc0" target="_top" xlink:title="Splits a string into a vector of substrings based on a delimiter.">
<polygon fill="white" stroke="#666666" points="722.5,-352 654.5,-352 654.5,-333 722.5,-333 722.5,-352"/>
<text text-anchor="middle" x="688.5" y="-340" font-family="Helvetica,sans-Serif" font-size="10.00">tools::split</text>
</a>
</g>
</g>
<!-- Node1&#45;&gt;Node6 -->
<g id="edge43_Node000001_Node000006" class="edge">
<title>Node1&#45;&gt;Node6</title>
<g id="a_edge43_Node000001_Node000006"><a xlink:title=" ">
<path fill="none" stroke="#63b8ff" d="M59.12,-285.16C74.34,-294.31 98.81,-307.52 122,-313.5 311.47,-362.34 548.16,-352.77 644.11,-346.09"/>
<polygon fill="#63b8ff" stroke="#63b8ff" points="644.57,-349.56 654.3,-345.35 644.07,-342.58 644.57,-349.56"/>
</a>
</g>
</g>
<!-- Node7 -->
<g id="Node000007" class="node">
<title>Node7</title>
<g id="a_Node000007"><a xlink:href="classanalysis.html#a1c3e0d7bb80774d865586b18a1566704" target="_top" xlink:title="Builds graph representations of the event data based on the added graph templates.">
<polygon fill="white" stroke="#666666" points="255.5,-190 130.5,-190 130.5,-171 255.5,-171 255.5,-190"/>
<text text-anchor="middle" x="193" y="-178" font-family="Helvetica,sans-Serif" font-size="10.00">analysis::build_graphs</text>
</a>
</g>
</g>
<!-- Node1&#45;&gt;Node7 -->
<g id="edge6_Node000001_Node000007" class="edge">
<title>Node1&#45;&gt;Node7</title>
<g id="a_edge6_Node000001_Node000007"><a xlink:title=" ">
<path fill="none" stroke="#63b8ff" d="M52.16,-265.88C65.39,-250.83 93,-221.66 122,-204.5 129.31,-200.17 137.52,-196.48 145.66,-193.38"/>
<polygon fill="#63b8ff" stroke="#63b8ff" points="146.89,-196.66 155.15,-190.02 144.55,-190.06 146.89,-196.66"/>
</a>
</g>
</g>
<!-- Node8 -->
<g id="Node000008" class="node">
<title>Node8</title>
<g id="a_Node000008"><a xlink:href="classtools.html#aeae88ebd7116d59008600f0723716dba" target="_top" xlink:title="Replaces all occurrences of a substring in a string.">
<polygon fill="white" stroke="#666666" points="414,-202 331,-202 331,-183 414,-183 414,-202"/>
<text text-anchor="middle" x="372.5" y="-190" font-family="Helvetica,sans-Serif" font-size="10.00">tools::replace</text>
</a>
</g>
</g>
<!-- Node1&#45;&gt;Node8 -->
<g id="edge42_Node000001_Node000008" class="edge">
<title>Node1&#45;&gt;Node8</title>
<g id="a_edge42_Node000001_Node000008"><a xlink:title=" ">
<path fill="none" stroke="#63b8ff" d="M86.09,-271.51C131.24,-266.26 204.46,-254.95 264,-232.5 281.33,-225.97 282.9,-218.61 300,-211.5 306.69,-208.72 313.9,-206.24 321.07,-204.07"/>
<polygon fill="#63b8ff" stroke="#63b8ff" points="322.13,-207.41 330.79,-201.3 320.21,-200.68 322.13,-207.41"/>
</a>
</g>
</g>
<!-- Node9 -->
<g id="Node000009" class="node">
<title>Node9</title>
<g id="a_Node000009"><a xlink:href="classanalysis.html#a7b98125c72486407d782b2bc2ea67389" target="_top" xlink:title="Sets up the environment for model inference (prediction).">
<polygon fill="white" stroke="#666666" points="441.5,-719 303.5,-719 303.5,-700 441.5,-700 441.5,-719"/>
<text text-anchor="middle" x="372.5" y="-707" font-family="Helvetica,sans-Serif" font-size="10.00">analysis::build_inference</text>
</a>
</g>
</g>
<!-- Node1&#45;&gt;Node9 -->
<g id="edge9_Node000001_Node000009" class="edge">
<title>Node1&#45;&gt;Node9</title>
<g id="a_edge9_Node000001_Node000009"><a xlink:title=" ">
<path fill="none" stroke="#63b8ff" d="M44.8,-285.2C49.28,-337.09 72.75,-581.53 122,-635.5 165.29,-682.94 237.44,-700.51 293.04,-706.76"/>
<polygon fill="#63b8ff" stroke="#63b8ff" points="292.92,-710.27 303.22,-707.8 293.63,-703.3 292.92,-710.27"/>
</a>
</g>
</g>
<!-- Node11 -->
<g id="Node000011" class="node">
<title>Node11</title>
<g id="a_Node000011"><a xlink:href="classtools.html#aed9f3247b474a8fb1840860d51cde7ca" target="_top" xlink:title="Creates a directory path, including parent directories if needed.">
<polygon fill="white" stroke="#666666" points="588,-550 484,-550 484,-531 588,-531 588,-550"/>
<text text-anchor="middle" x="536" y="-538" font-family="Helvetica,sans-Serif" font-size="10.00">tools::create_path</text>
</a>
</g>
</g>
<!-- Node1&#45;&gt;Node11 -->
<g id="edge37_Node000001_Node000011" class="edge">
<title>Node1&#45;&gt;Node11</title>
<g id="a_edge37_Node000001_Node000011"><a xlink:title=" ">
<path fill="none" stroke="#63b8ff" d="M43.55,-285.02C42.33,-322.87 43.38,-463.7 122,-526.5 232.07,-614.42 416.25,-575.71 496.11,-552.89"/>
<polygon fill="#63b8ff" stroke="#63b8ff" points="497.16,-556.23 505.77,-550.06 495.19,-549.52 497.16,-556.23"/>
</a>
</g>
</g>
<!-- Node13 -->
<g id="Node000013" class="node">
<title>Node13</title>
<g id="a_Node000013"><a xlink:href="classanalysis.html#ad1bf7fde8eafef15d4dcedcba5ce51f7" target="_top" xlink:title="Builds or calculates metrics for evaluating model performance.">
<polygon fill="white" stroke="#666666" points="255,-451 131,-451 131,-432 255,-432 255,-451"/>
<text text-anchor="middle" x="193" y="-439" font-family="Helvetica,sans-Serif" font-size="10.00">analysis::build_metric</text>
</a>
</g>
</g>
<!-- Node1&#45;&gt;Node13 -->
<g id="edge16_Node000001_Node000013" class="edge">
<title>Node1&#45;&gt;Node13</title>
<g id="a_edge16_Node000001_Node000013"><a xlink:title=" ">
<path fill="none" stroke="#63b8ff" d="M52.81,-285.39C77.14,-312.67 145.44,-389.28 176.4,-424"/>
<polygon fill="#63b8ff" stroke="#63b8ff" points="174.15,-426.74 183.42,-431.87 179.37,-422.08 174.15,-426.74"/>
</a>
</g>
</g>
<!-- Node14 -->
<g id="Node000014" class="node">
<title>Node14</title>
<g id="a_Node000014"><a xlink:href="classanalysis.html#ab1e46d4a55389c9159584cc1c4f217a0" target="_top" xlink:title="Builds the project structure, possibly setting up directories or initial configurations.">
<polygon fill="white" stroke="#666666" points="435.5,-531 309.5,-531 309.5,-512 435.5,-512 435.5,-531"/>
<text text-anchor="middle" x="372.5" y="-519" font-family="Helvetica,sans-Serif" font-size="10.00">analysis::build_project</text>
</a>
</g>
</g>
<!-- Node1&#45;&gt;Node14 -->
<g id="edge27_Node000001_Node000014" class="edge">
<title>Node1&#45;&gt;Node14</title>
<g id="a_edge27_Node000001_Node000014"><a xlink:title=" ">
<path fill="none" stroke="#63b8ff" d="M44.14,-285.31C45.22,-320.13 53.95,-438.5 122,-492.5 172.14,-532.29 246.82,-535.98 301.4,-531.89"/>
<polygon fill="#63b8ff" stroke="#63b8ff" points="302.02,-535.35 311.69,-531.01 301.43,-528.38 302.02,-535.35"/>
</a>
</g>
</g>
<!-- Node17 -->
<g id="Node000017" class="node">
<title>Node17</title>
<g id="a_Node000017"><a xlink:href="classanalysis.html#ac4b2760bd5a08f9bd2b5553856dcbfff" target="_top" xlink:title="Builds or calculates metrics across different data folds (e.g., for k&#45;fold cross&#45;validation).">
<polygon fill="white" stroke="#666666" points="255,-152.5 131,-152.5 131,-122.5 255,-122.5 255,-152.5"/>
<text text-anchor="start" x="139" y="-140.5" font-family="Helvetica,sans-Serif" font-size="10.00">analysis::build_metric</text>
<text text-anchor="middle" x="193" y="-129.5" font-family="Helvetica,sans-Serif" font-size="10.00">_folds</text>
</a>
</g>
</g>
<!-- Node1&#45;&gt;Node17 -->
<g id="edge23_Node000001_Node000017" class="edge">
<title>Node1&#45;&gt;Node17</title>
<g id="a_edge23_Node000001_Node000017"><a xlink:title=" ">
<path fill="none" stroke="#63b8ff" d="M48.14,-265.81C57.85,-244.17 84.19,-191.54 122,-162.5 124.43,-160.63 127.01,-158.9 129.69,-157.29"/>
<polygon fill="#63b8ff" stroke="#63b8ff" points="131.38,-160.35 138.55,-152.55 128.08,-154.18 131.38,-160.35"/>
</a>
</g>
</g>
<!-- Node18 -->
<g id="Node000018" class="node">
<title>Node18</title>
<g id="a_Node000018"><a xlink:href="classanalysis.html#a9e329f763a57c75ca47bec379fab102e" target="_top" xlink:title="Sets up and configures machine learning model sessions for training or inference.">
<polygon fill="white" stroke="#666666" points="254.5,-104.5 131.5,-104.5 131.5,-74.5 254.5,-74.5 254.5,-104.5"/>
<text text-anchor="start" x="139.5" y="-92.5" font-family="Helvetica,sans-Serif" font-size="10.00">analysis::build_model</text>
<text text-anchor="middle" x="193" y="-81.5" font-family="Helvetica,sans-Serif" font-size="10.00">_session</text>
</a>
</g>
</g>
<!-- Node1&#45;&gt;Node18 -->
<g id="edge24_Node000001_Node000018" class="edge">
<title>Node1&#45;&gt;Node18</title>
<g id="a_edge24_Node000001_Node000018"><a xlink:title=" ">
<path fill="none" stroke="#63b8ff" d="M45.9,-265.9C51.9,-238.15 72.99,-157.03 122,-113.5 123.32,-112.33 124.7,-111.21 126.13,-110.15"/>
<polygon fill="#63b8ff" stroke="#63b8ff" points="128.24,-112.96 134.8,-104.64 124.48,-107.05 128.24,-112.96"/>
</a>
</g>
</g>
<!-- Node21 -->
<g id="Node000021" class="node">
<title>Node21</title>
<g id="a_Node000021"><a xlink:href="classanalysis.html#a12ac50912be5864fb354b7e0bd3341a3" target="_top" xlink:title="Builds or applies event selections based on the added selection templates.">
<polygon fill="white" stroke="#666666" points="264,-56 122,-56 122,-37 264,-37 264,-56"/>
<text text-anchor="middle" x="193" y="-44" font-family="Helvetica,sans-Serif" font-size="10.00">analysis::build_selections</text>
</a>
</g>
</g>
<!-- Node1&#45;&gt;Node21 -->
<g id="edge28_Node000001_Node000021" class="edge">
<title>Node1&#45;&gt;Node21</title>
<g id="a_edge28_Node000001_Node000021"><a xlink:title=" ">
<path fill="none" stroke="#63b8ff" d="M44.57,-265.87C47.09,-232.71 59.97,-122.15 122,-65.5 123.7,-63.95 125.51,-62.52 127.42,-61.21"/>
<polygon fill="#63b8ff" stroke="#63b8ff" points="129.31,-64.16 136.26,-56.16 125.84,-58.08 129.31,-64.16"/>
</a>
</g>
</g>
<!-- Node22 -->
<g id="Node000022" class="node">
<title>Node22</title>
<g id="a_Node000022"><a xlink:href="classanalysis.html#a0cbe44c90dab45066bfe074e506c5d8d" target="_top" xlink:title="&lt; Private access specifier for the following members.">
<polygon fill="white" stroke="#666666" points="255.5,-304 130.5,-304 130.5,-285 255.5,-285 255.5,-304"/>
<text text-anchor="middle" x="193" y="-292" font-family="Helvetica,sans-Serif" font-size="10.00">analysis::check_cache</text>
</a>
</g>
</g>
<!-- Node1&#45;&gt;Node22 -->
<g id="edge29_Node000001_Node000022" class="edge">
<title>Node1&#45;&gt;Node22</title>
<g id="a_edge29_Node000001_Node000022"><a xlink:title=" ">
<path fill="none" stroke="#63b8ff" d="M86.01,-280.89C96.66,-282.26 108.39,-283.77 120.06,-285.26"/>
<polygon fill="#63b8ff" stroke="#63b8ff" points="119.9,-288.77 130.26,-286.57 120.79,-281.83 119.9,-288.77"/>
</a>
</g>
</g>
<!-- Node25 -->
<g id="Node000025" class="node">
<title>Node25</title>
<g id="a_Node000025"><a xlink:href="classtools.html#a3d538da5310467c9321b27cd6a75b9af" target="_top" xlink:title="Checks if a string ends with a specific substring.">
<polygon fill="white" stroke="#666666" points="584,-183 488,-183 488,-164 584,-164 584,-183"/>
<text text-anchor="middle" x="536" y="-171" font-family="Helvetica,sans-Serif" font-size="10.00">tools::ends_with</text>
</a>
</g>
</g>
<!-- Node1&#45;&gt;Node25 -->
<g id="edge38_Node000001_Node000025" class="edge">
<title>Node1&#45;&gt;Node25</title>
<g id="a_edge38_Node000001_Node000025"><a xlink:title=" ">
<path fill="none" stroke="#63b8ff" d="M58.37,-265.99C73.59,-256.3 98.61,-241.47 122,-232.5 182.5,-209.31 204.78,-225.78 264,-199.5 281.81,-191.6 281.42,-180.36 300,-174.5 358.48,-156.05 429.3,-158.92 477.81,-164.44"/>
<polygon fill="#63b8ff" stroke="#63b8ff" points="477.46,-167.92 487.81,-165.65 478.31,-160.97 477.46,-167.92"/>
</a>
</g>
</g>
<!-- Node26 -->
<g id="Node000026" class="node">
<title>Node26</title>
<g id="a_Node000026"><a xlink:href="classanalysis.html#aa5f5f1de2fe05c9fb8c5c0fffbf7b938" target="_top" xlink:title="Fetches tags, possibly related to data versions, processing stages, or k&#45;folds.">
<polygon fill="white" stroke="#666666" points="247.5,-19 138.5,-19 138.5,0 247.5,0 247.5,-19"/>
<text text-anchor="middle" x="193" y="-7" font-family="Helvetica,sans-Serif" font-size="10.00">analysis::fetchtags</text>
</a>
</g>
</g>
<!-- Node1&#45;&gt;Node26 -->
<g id="edge39_Node000001_Node000026" class="edge">
<title>Node1&#45;&gt;Node26</title>
<g id="a_edge39_Node000001_Node000026"><a xlink:title=" ">
<path fill="none" stroke="#63b8ff" d="M43.91,-265.91C43.88,-227.61 48.15,-88.54 122,-18.5 124.18,-16.44 126.56,-14.6 129.08,-12.98"/>
<polygon fill="#63b8ff" stroke="#63b8ff" points="130.91,-15.97 138.16,-8.24 127.68,-9.76 130.91,-15.97"/>
</a>
</g>
</g>
<!-- Node4 -->
<g id="Node000004" class="node">
<title>Node4</title>
<g id="a_Node000004"><a xlink:href="classtools.html#a408b66ad73b7b4bb962634c14a55b619" target="_top" xlink:title="Converts a relative path to an absolute path.">
<polygon fill="white" stroke="#666666" points="430.5,-682 314.5,-682 314.5,-663 430.5,-663 430.5,-682"/>
<text text-anchor="middle" x="372.5" y="-670" font-family="Helvetica,sans-Serif" font-size="10.00">tools::absolute_path</text>
</a>
</g>
</g>
<!-- Node3&#45;&gt;Node4 -->
<g id="edge3_Node000003_Node000004" class="edge">
<title>Node3&#45;&gt;Node4</title>
<g id="a_edge3_Node000003_Node000004"><a xlink:title=" ">
<path fill="none" stroke="#63b8ff" d="M218.62,-626.1C239.95,-634.23 271.76,-645.91 300,-654.5 306.66,-656.53 313.73,-658.51 320.72,-660.37"/>
<polygon fill="#63b8ff" stroke="#63b8ff" points="320.29,-663.87 330.85,-663 322.05,-657.1 320.29,-663.87"/>
</a>
</g>
</g>
<!-- Node5 -->
<g id="Node000005" class="node">
<title>Node5</title>
<g id="a_Node000005"><a xlink:href="classio.html#a65ca69ec5f12d0f3a463396bcff84d77" target="_top" xlink:title="Ends the current I/O session, closing any open files.">
<polygon fill="white" stroke="#666666" points="397.5,-645 347.5,-645 347.5,-626 397.5,-626 397.5,-645"/>
<text text-anchor="middle" x="372.5" y="-633" font-family="Helvetica,sans-Serif" font-size="10.00">io::end</text>
</a>
</g>
</g>
<!-- Node3&#45;&gt;Node5 -->
<g id="edge4_Node000003_Node000005" class="edge">
<title>Node3&#45;&gt;Node5</title>
<g id="a_edge4_Node000003_Node000005"><a xlink:title=" ">
<path fill="none" stroke="#63b8ff" d="M255.58,-623.09C283.02,-626.03 314.29,-629.38 337.44,-631.85"/>
<polygon fill="#63b8ff" stroke="#63b8ff" points="337.14,-635.34 347.45,-632.93 337.88,-628.38 337.14,-635.34"/>
</a>
</g>
</g>
<!-- Node3&#45;&gt;Node6 -->
<g id="edge5_Node000003_Node000006" class="edge">
<title>Node3&#45;&gt;Node6</title>
<g id="a_edge5_Node000003_Node000006"><a xlink:title=" ">
<path fill="none" stroke="#63b8ff" d="M255.72,-614.91C353.9,-611.2 539.82,-599.03 591,-559.5 656,-509.3 678.27,-405.83 684.96,-362.39"/>
<polygon fill="#63b8ff" stroke="#63b8ff" points="688.45,-362.66 686.39,-352.27 681.52,-361.68 688.45,-362.66"/>
</a>
</g>
</g>
<!-- Node7&#45;&gt;Node6 -->
<g id="edge8_Node000007_Node000006" class="edge">
<title>Node7&#45;&gt;Node6</title>
<g id="a_edge8_Node000007_Node000006"><a xlink:title=" ">
<path fill="none" stroke="#63b8ff" d="M226.13,-170.87C246.97,-165.14 274.83,-158.43 300,-155.5 428.47,-140.56 480.55,-88.21 591,-155.5 652.18,-192.78 676.26,-282.67 684.17,-322.7"/>
<polygon fill="#63b8ff" stroke="#63b8ff" points="680.78,-323.59 686.03,-332.79 687.66,-322.32 680.78,-323.59"/>
</a>
</g>
</g>
<!-- Node7&#45;&gt;Node8 -->
<g id="edge7_Node000007_Node000008" class="edge">
<title>Node7&#45;&gt;Node8</title>
<g id="a_edge7_Node000007_Node000008"><a xlink:title=" ">
<path fill="none" stroke="#63b8ff" d="M255.58,-184.66C276.91,-186.11 300.56,-187.7 320.9,-189.08"/>
<polygon fill="#63b8ff" stroke="#63b8ff" points="320.69,-192.57 330.9,-189.76 321.16,-185.59 320.69,-192.57"/>
</a>
</g>
</g>
<!-- Node9&#45;&gt;Node6 -->
<g id="edge15_Node000009_Node000006" class="edge">
<title>Node9&#45;&gt;Node6</title>
<g id="a_edge15_Node000009_Node000006"><a xlink:title=" ">
<path fill="none" stroke="#63b8ff" d="M423.23,-699.97C472.83,-687.89 547.69,-662.2 591,-611.5 656.64,-534.67 678.92,-409.82 685.28,-361.99"/>
<polygon fill="#63b8ff" stroke="#63b8ff" points="688.76,-362.39 686.52,-352.04 681.81,-361.53 688.76,-362.39"/>
</a>
</g>
</g>
<!-- Node10 -->
<g id="Node000010" class="node">
<title>Node10</title>
<g id="a_Node000010"><a xlink:href="classanalysis.html#a25047bd23730c36cde68661179257c9b" target="_top" xlink:title="Static helper method to add content (features) to a data map from various sources.">
<polygon fill="white" stroke="#666666" points="750,-729 627,-729 627,-710 750,-710 750,-729"/>
<text text-anchor="middle" x="688.5" y="-717" font-family="Helvetica,sans-Serif" font-size="10.00">analysis::add_content</text>
</a>
</g>
</g>
<!-- Node9&#45;&gt;Node10 -->
<g id="edge10_Node000009_Node000010" class="edge">
<title>Node9&#45;&gt;Node10</title>
<g id="a_edge10_Node000009_Node000010"><a xlink:title=" ">
<path fill="none" stroke="#63b8ff" d="M441.63,-711.67C493.38,-713.32 564.32,-715.58 616.71,-717.25"/>
<polygon fill="#63b8ff" stroke="#63b8ff" points="616.82,-720.75 626.93,-717.57 617.05,-713.75 616.82,-720.75"/>
</a>
</g>
</g>
<!-- Node9&#45;&gt;Node11 -->
<g id="edge11_Node000009_Node000011" class="edge">
<title>Node9&#45;&gt;Node11</title>
<g id="a_edge11_Node000009_Node000011"><a xlink:title=" ">
<path fill="none" stroke="#63b8ff" d="M429.73,-699.98C435.17,-697.73 440.38,-694.94 445,-691.5 457.08,-682.51 504.03,-597.63 524.9,-559.22"/>
<polygon fill="#63b8ff" stroke="#63b8ff" points="528.14,-560.58 529.83,-550.13 521.99,-557.25 528.14,-560.58"/>
</a>
</g>
</g>
<!-- Node12 -->
<g id="Node000012" class="node">
<title>Node12</title>
<g id="a_Node000012"><a xlink:href="classanalysis.html#a8a8e07da99928e764601ff8c56edc1df" target="_top" xlink:title="Static method to execute a model (training or inference) on a set of data.">
<polygon fill="white" stroke="#666666" points="591,-748 481,-748 481,-729 591,-729 591,-748"/>
<text text-anchor="middle" x="536" y="-736" font-family="Helvetica,sans-Serif" font-size="10.00">analysis::execution</text>
</a>
</g>
</g>
<!-- Node9&#45;&gt;Node12 -->
<g id="edge13_Node000009_Node000012" class="edge">
<title>Node9&#45;&gt;Node12</title>
<g id="a_edge13_Node000009_Node000012"><a xlink:title=" ">
<path fill="none" stroke="#63b8ff" d="M426.83,-719.08C441.24,-721.66 456.97,-724.49 471.86,-727.16"/>
<polygon fill="#63b8ff" stroke="#63b8ff" points="471.54,-730.66 482,-728.98 472.78,-723.77 471.54,-730.66"/>
</a>
</g>
</g>
<!-- Node11&#45;&gt;Node6 -->
<g id="edge12_Node000011_Node000006" class="edge">
<title>Node11&#45;&gt;Node6</title>
<g id="a_edge12_Node000011_Node000006"><a xlink:title=" ">
<path fill="none" stroke="#63b8ff" d="M544.26,-530.95C567.89,-499.86 642.88,-401.2 673.88,-360.41"/>
<polygon fill="#63b8ff" stroke="#63b8ff" points="676.69,-362.5 679.96,-352.42 671.12,-358.26 676.69,-362.5"/>
</a>
</g>
</g>
<!-- Node12&#45;&gt;Node10 -->
<g id="edge14_Node000012_Node000010" class="edge">
<title>Node12&#45;&gt;Node10</title>
<g id="a_edge14_Node000012_Node000010"><a xlink:title=" ">
<path fill="none" stroke="#63b8ff" d="M591.33,-731.64C599.62,-730.59 608.28,-729.5 616.86,-728.42"/>
<polygon fill="#63b8ff" stroke="#63b8ff" points="617.39,-731.88 626.87,-727.15 616.51,-724.93 617.39,-731.88"/>
</a>
</g>
</g>
<!-- Node13&#45;&gt;Node2 -->
<g id="edge17_Node000013_Node000002" class="edge">
<title>Node13&#45;&gt;Node2</title>
<g id="a_edge17_Node000013_Node000002"><a xlink:title=" ">
<path fill="none" stroke="#63b8ff" d="M233.39,-451.04C259.59,-457.39 294.2,-465.77 322.22,-472.56"/>
<polygon fill="#63b8ff" stroke="#63b8ff" points="321.67,-476.03 332.22,-474.98 323.32,-469.23 321.67,-476.03"/>
</a>
</g>
</g>
<!-- Node13&#45;&gt;Node14 -->
<g id="edge18_Node000013_Node000014" class="edge">
<title>Node13&#45;&gt;Node14</title>
<g id="a_edge18_Node000013_Node000014"><a xlink:title=" ">
<path fill="none" stroke="#63b8ff" d="M207.41,-451.04C226.92,-464.5 264.67,-489.06 300,-503.5 305.04,-505.56 310.37,-507.43 315.77,-509.12"/>
<polygon fill="#63b8ff" stroke="#63b8ff" points="314.91,-512.51 325.49,-511.96 316.88,-505.8 314.91,-512.51"/>
</a>
</g>
</g>
<!-- Node15 -->
<g id="Node000015" class="node">
<title>Node15</title>
<g id="a_Node000015"><a xlink:href="structs_2cxx_2base_8cxx.html#a4eee7b291ed2cdcd4e3c2496c603c48c" target="_top" xlink:title="Counts occurrences of a substring in a string.">
<polygon fill="white" stroke="#666666" points="394.5,-390 350.5,-390 350.5,-371 394.5,-371 394.5,-390"/>
<text text-anchor="middle" x="372.5" y="-378" font-family="Helvetica,sans-Serif" font-size="10.00">count</text>
</a>
</g>
</g>
<!-- Node13&#45;&gt;Node15 -->
<g id="edge20_Node000013_Node000015" class="edge">
<title>Node13&#45;&gt;Node15</title>
<g id="a_edge20_Node000013_Node000015"><a xlink:title=" ">
<path fill="none" stroke="#63b8ff" d="M221.73,-431.97C253.99,-420.88 307.08,-402.64 340.62,-391.11"/>
<polygon fill="#63b8ff" stroke="#63b8ff" points="342.03,-394.33 350.35,-387.77 339.76,-387.71 342.03,-394.33"/>
</a>
</g>
</g>
<!-- Node16 -->
<g id="Node000016" class="node">
<title>Node16</title>
<g id="a_Node000016"><a xlink:href="classanalysis.html#acf4137dd2ceda151a94d68b2ed199da8" target="_top" xlink:title="Static method to execute metric calculation.">
<polygon fill="white" stroke="#666666" points="427.5,-456.5 317.5,-456.5 317.5,-426.5 427.5,-426.5 427.5,-456.5"/>
<text text-anchor="start" x="325.5" y="-444.5" font-family="Helvetica,sans-Serif" font-size="10.00">analysis::execution</text>
<text text-anchor="middle" x="372.5" y="-433.5" font-family="Helvetica,sans-Serif" font-size="10.00">_metric</text>
</a>
</g>
</g>
<!-- Node13&#45;&gt;Node16 -->
<g id="edge22_Node000013_Node000016" class="edge">
<title>Node13&#45;&gt;Node16</title>
<g id="a_edge22_Node000013_Node000016"><a xlink:title=" ">
<path fill="none" stroke="#63b8ff" d="M255.09,-441.5C271.86,-441.5 290.1,-441.5 307.06,-441.5"/>
<polygon fill="#63b8ff" stroke="#63b8ff" points="307.43,-445 317.43,-441.5 307.43,-438 307.43,-445"/>
</a>
</g>
</g>
<!-- Node14&#45;&gt;Node11 -->
<g id="edge19_Node000014_Node000011" class="edge">
<title>Node14&#45;&gt;Node11</title>
<g id="a_edge19_Node000014_Node000011"><a xlink:title=" ">
<path fill="none" stroke="#63b8ff" d="M435.94,-528.85C448.35,-530.31 461.38,-531.84 473.75,-533.29"/>
<polygon fill="#63b8ff" stroke="#63b8ff" points="473.62,-536.8 483.96,-534.5 474.44,-529.85 473.62,-536.8"/>
</a>
</g>
</g>
<!-- Node15&#45;&gt;Node15 -->
<g id="edge21_Node000015_Node000015" class="edge">
<title>Node15&#45;&gt;Node15</title>
<g id="a_edge21_Node000015_Node000015"><a xlink:title=" ">
<path fill="none" stroke="#63b8ff" d="M350.2,-388.38C334.38,-397.47 341.81,-408 372.5,-408 395.52,-408 405.45,-402.08 402.31,-395.28"/>
<polygon fill="#63b8ff" stroke="#63b8ff" points="404.53,-392.57 394.8,-388.38 399.79,-397.73 404.53,-392.57"/>
</a>
</g>
</g>
<!-- Node19 -->
<g id="Node000019" class="node">
<title>Node19</title>
<g id="a_Node000019"><a xlink:href="classanalysis.html#a1c8b808d255b490be4ea86df4d29cdf1" target="_top" xlink:title="Static method to initialize a training loop for an optimizer.">
<polygon fill="white" stroke="#666666" points="438,-88 307,-88 307,-69 438,-69 438,-88"/>
<text text-anchor="middle" x="372.5" y="-76" font-family="Helvetica,sans-Serif" font-size="10.00">analysis::initialize_loop</text>
</a>
</g>
</g>
<!-- Node18&#45;&gt;Node19 -->
<g id="edge25_Node000018_Node000019" class="edge">
<title>Node18&#45;&gt;Node19</title>
<g id="a_edge25_Node000018_Node000019"><a xlink:title=" ">
<path fill="none" stroke="#63b8ff" d="M254.59,-85.75C268.17,-84.9 282.72,-84 296.8,-83.13"/>
<polygon fill="#63b8ff" stroke="#63b8ff" points="297.18,-86.61 306.94,-82.5 296.74,-79.63 297.18,-86.61"/>
</a>
</g>
</g>
<!-- Node20 -->
<g id="Node000020" class="node">
<title>Node20</title>
<g id="a_Node000020"><a xlink:href="classtools.html#a47d3d261edcb898daab56721e18d1e67" target="_top" xlink:title="Checks if a path refers to an existing file.">
<polygon fill="white" stroke="#666666" points="573.5,-88 498.5,-88 498.5,-69 573.5,-69 573.5,-88"/>
<text text-anchor="middle" x="536" y="-76" font-family="Helvetica,sans-Serif" font-size="10.00">tools::is_file</text>
</a>
</g>
</g>
<!-- Node19&#45;&gt;Node20 -->
<g id="edge26_Node000019_Node000020" class="edge">
<title>Node19&#45;&gt;Node20</title>
<g id="a_edge26_Node000019_Node000020"><a xlink:title=" ">
<path fill="none" stroke="#63b8ff" d="M438.26,-78.5C454.8,-78.5 472.27,-78.5 487.75,-78.5"/>
<polygon fill="#63b8ff" stroke="#63b8ff" points="488.11,-82 498.11,-78.5 488.11,-75 488.11,-82"/>
</a>
</g>
</g>
<!-- Node22&#45;&gt;Node6 -->
<g id="edge36_Node000022_Node000006" class="edge">
<title>Node22&#45;&gt;Node6</title>
<g id="a_edge36_Node000022_Node000006"><a xlink:title=" ">
<path fill="none" stroke="#63b8ff" d="M255.66,-298.66C333.82,-304.18 472.63,-314.86 591,-328.5 608.41,-330.51 627.52,-333.18 644.1,-335.65"/>
<polygon fill="#63b8ff" stroke="#63b8ff" points="643.66,-339.12 654.07,-337.16 644.7,-332.2 643.66,-339.12"/>
</a>
</g>
</g>
<!-- Node22&#45;&gt;Node8 -->
<g id="edge35_Node000022_Node000008" class="edge">
<title>Node22&#45;&gt;Node8</title>
<g id="a_edge35_Node000022_Node000008"><a xlink:title=" ">
<path fill="none" stroke="#63b8ff" d="M237.13,-284.93C246.64,-281.45 256.19,-276.77 264,-270.5 287.95,-251.27 275.39,-229.88 300,-211.5 306.3,-206.8 313.67,-203.26 321.24,-200.6"/>
<polygon fill="#63b8ff" stroke="#63b8ff" points="322.32,-203.93 330.87,-197.67 320.28,-197.23 322.32,-203.93"/>
</a>
</g>
</g>
<!-- Node22&#45;&gt;Node15 -->
<g id="edge30_Node000022_Node000015" class="edge">
<title>Node22&#45;&gt;Node15</title>
<g id="a_edge30_Node000022_Node000015"><a xlink:title=" ">
<path fill="none" stroke="#63b8ff" d="M213.67,-304.03C244.99,-319.21 306.35,-348.94 342.65,-366.52"/>
<polygon fill="#63b8ff" stroke="#63b8ff" points="341.21,-369.71 351.74,-370.93 344.26,-363.42 341.21,-369.71"/>
</a>
</g>
</g>
<!-- Node23 -->
<g id="Node000023" class="node">
<title>Node23</title>
<g id="a_Node000023"><a xlink:href="classtools.html#ad7229c72cee65da3605c4be82f9b42d4" target="_top" xlink:title="Checks if a string contains a specific substring.">
<polygon fill="white" stroke="#666666" points="421,-276 324,-276 324,-257 421,-257 421,-276"/>
<text text-anchor="middle" x="372.5" y="-264" font-family="Helvetica,sans-Serif" font-size="10.00">tools::has_string</text>
</a>
</g>
</g>
<!-- Node22&#45;&gt;Node23 -->
<g id="edge31_Node000022_Node000023" class="edge">
<title>Node22&#45;&gt;Node23</title>
<g id="a_edge31_Node000022_Node000023"><a xlink:title=" ">
<path fill="none" stroke="#63b8ff" d="M254.59,-284.94C273.74,-281.92 294.85,-278.59 313.8,-275.6"/>
<polygon fill="#63b8ff" stroke="#63b8ff" points="314.45,-279.04 323.78,-274.03 313.36,-272.13 314.45,-279.04"/>
</a>
</g>
</g>
<!-- Node24 -->
<g id="Node000024" class="node">
<title>Node24</title>
<g id="a_Node000024"><a xlink:href="classtools.html#a5ab0f2cc351dd97951358ebe19e9c18d" target="_top" xlink:title="Lists files in a directory, optionally filtered by extension.">
<polygon fill="white" stroke="#666666" points="400,-239 345,-239 345,-220 400,-220 400,-239"/>
<text text-anchor="middle" x="372.5" y="-227" font-family="Helvetica,sans-Serif" font-size="10.00">tools::ls</text>
</a>
</g>
</g>
<!-- Node22&#45;&gt;Node24 -->
<g id="edge32_Node000022_Node000024" class="edge">
<title>Node22&#45;&gt;Node24</title>
<g id="a_edge32_Node000022_Node000024"><a xlink:title=" ">
<path fill="none" stroke="#63b8ff" d="M226.64,-284.95C238.62,-281.02 252.14,-276.07 264,-270.5 280.97,-262.52 282.76,-255.87 300,-248.5 310.94,-243.82 323.33,-240.04 334.68,-237.12"/>
<polygon fill="#63b8ff" stroke="#63b8ff" points="335.85,-240.44 344.74,-234.68 334.2,-233.64 335.85,-240.44"/>
</a>
</g>
</g>
<!-- Node24&#45;&gt;Node6 -->
<g id="edge34_Node000024_Node000006" class="edge">
<title>Node24&#45;&gt;Node6</title>
<g id="a_edge34_Node000024_Node000006"><a xlink:title=" ">
<path fill="none" stroke="#63b8ff" d="M400.02,-236.41C413.51,-239.96 430.15,-244.39 445,-248.5 510.08,-266.5 528.48,-265.01 591,-290.5 616.75,-301 644.53,-316.45 663.65,-327.78"/>
<polygon fill="#63b8ff" stroke="#63b8ff" points="661.91,-330.82 672.29,-332.97 665.52,-324.82 661.91,-330.82"/>
</a>
</g>
</g>
<!-- Node24&#45;&gt;Node25 -->
<g id="edge33_Node000024_Node000025" class="edge">
<title>Node24&#45;&gt;Node25</title>
<g id="a_edge33_Node000024_Node000025"><a xlink:title=" ">
<path fill="none" stroke="#63b8ff" d="M400.26,-223.79C413.81,-220.64 430.43,-216.38 445,-211.5 465.57,-204.61 488.05,-195.12 505.4,-187.35"/>
<polygon fill="#63b8ff" stroke="#63b8ff" points="507.31,-190.33 514.97,-183 504.41,-183.95 507.31,-190.33"/>
</a>
</g>
</g>
<!-- Node26&#45;&gt;Node1 -->
<g id="edge41_Node000026_Node000001" class="edge">
<title>Node26&#45;&gt;Node1</title>
<g id="a_edge41_Node000026_Node000001"><a xlink:title=" ">
<path fill="none" stroke="#63b8ff" d="M161.22,-19.01C147.66,-21.93 132.47,-26.57 122,-36.5 57.99,-97.2 46.26,-209.76 44.28,-255.61"/>
<polygon fill="#63b8ff" stroke="#63b8ff" points="40.78,-255.66 43.97,-265.76 47.78,-255.88 40.78,-255.66"/>
</a>
</g>
</g>
<!-- Node27 -->
<g id="Node000027" class="node">
<title>Node27</title>
<g id="a_Node000027"><a xlink:href="gnn-particles_8h.html#a726f7868ebf1c63190c267427081d370" target="_top" xlink:title=" ">
<polygon fill="white" stroke="#666666" points="391.5,-19 353.5,-19 353.5,0 391.5,0 391.5,-19"/>
<text text-anchor="middle" x="372.5" y="-7" font-family="Helvetica,sans-Serif" font-size="10.00">read</text>
</a>
</g>
</g>
<!-- Node26&#45;&gt;Node27 -->
<g id="edge40_Node000026_Node000027" class="edge">
<title>Node26&#45;&gt;Node27</title>
<g id="a_edge40_Node000026_Node000027"><a xlink:title=" ">
<path fill="none" stroke="#63b8ff" d="M247.74,-9.5C279.16,-9.5 317.57,-9.5 343.18,-9.5"/>
<polygon fill="#63b8ff" stroke="#63b8ff" points="343.32,-13 353.32,-9.5 343.32,-6 343.32,-13"/>
</a>
</g>
</g>
</g>
</svg>
