<?xml version="1.0" encoding="UTF-8" standalone="no"?>
<!DOCTYPE svg PUBLIC "-//W3C//DTD SVG 1.1//EN"
 "http://www.w3.org/Graphics/SVG/1.1/DTD/svg11.dtd">
<!-- Generated by graphviz version 2.43.0 (0)
 -->
<!-- Title: dataloader::restore_graphs Pages: 1 -->
<!--zoomable 349 -->

<svg id="main" version="1.1" xmlns="http://www.w3.org/2000/svg" xmlns:xlink="http://www.w3.org/1999/xlink" xml:space="preserve" onload="init(evt)">
<style type="text/css"><![CDATA[
.node, .edge {opacity: 0.7;}
.node.selected, .edge.selected {opacity: 1;}
.edge:hover path { stroke: red; }
.edge:hover polygon { stroke: red; fill: red; }
]]></style>

<defs>
  <circle id="rim" cx="0" cy="0" r="7"/>
  <circle id="rim2" cx="0" cy="0" r="3.5"/>
  <g id="zoomPlus">
    <use xlink:href="#rim" fill="#404040"><set attributeName="fill" to="#808080" begin="zoomplus.mouseover" end="zoomplus.mouseout"/></use>
    <path d="M-4,0h8M0,-4v8" fill="none" stroke="white" stroke-width="1.5" pointer-events="none"/>
  </g>
  <g id="zoomMin">
    <use xlink:href="#rim" fill="#404040"><set attributeName="fill" to="#808080" begin="zoomminus.mouseover" end="zoomminus.mouseout"/></use>
    <path d="M-4,0h8" fill="none" stroke="white" stroke-width="1.5" pointer-events="none"/>
  </g>
  <g id="arrowUp" transform="translate(30 24)">
    <use xlink:href="#rim"/>
    <path pointer-events="none" fill="none" stroke="white" stroke-width="1.5" d="M0,-3.0v7 M-2.5,-0.5L0,-3.0L2.5,-0.5"/>
  </g>
  <g id="arrowRight" transform="rotate(90) translate(36 -43)">
    <use xlink:href="#rim"/>
    <path pointer-events="none" fill="none" stroke="white" stroke-width="1.5" d="M0,-3.0v7 M-2.5,-0.5L0,-3.0L2.5,-0.5"/>
  </g>
  <g id="arrowDown" transform="rotate(180) translate(-30 -48)">
    <use xlink:href="#rim"/>
    <path pointer-events="none" fill="none" stroke="white" stroke-width="1.5" d="M0,-3.0v7 M-2.5,-0.5L0,-3.0L2.5,-0.5"/>
  </g>
  <g id="arrowLeft" transform="rotate(270) translate(-36 17)">
    <use xlink:href="#rim"/>
    <path pointer-events="none" fill="none" stroke="white" stroke-width="1.5" d="M0,-3.0v7 M-2.5,-0.5L0,-3.0L2.5,-0.5"/>
  </g>
  <g id="resetDef">
    <use xlink:href="#rim2" fill="#404040"><set attributeName="fill" to="#808080" begin="reset.mouseover" end="reset.mouseout"/></use>
  </g>
</defs>
<script type="application/ecmascript">
var viewWidth = 711;
var viewHeight = 349;
var sectionId = 'dynsection-32';
</script>
<script type="application/ecmascript" xlink:href="svg.min.js"/>
<svg id="graph" class="graph">
<g id="viewport">
<title>dataloader::restore_graphs</title>
<!-- Node1 -->
<g id="Node000001" class="node">
<title>Node1</title>
<g id="a_Node000001"><a xlink:title=" ">
<polygon fill="#999999" stroke="#666666" points="110,-213.5 0,-213.5 0,-183.5 110,-183.5 110,-213.5"/>
<text text-anchor="start" x="8" y="-201.5" font-family="Helvetica,sans-Serif" font-size="10.00">dataloader::restore</text>
<text text-anchor="middle" x="55" y="-190.5" font-family="Helvetica,sans-Serif" font-size="10.00">_graphs</text>
</a>
</g>
</g>
<!-- Node2 -->
<g id="Node000002" class="node">
<title>Node2</title>
<g id="a_Node000002"><a xlink:href="classdataloader.html#a281bac1652b78652581bad461b1cc966" target="_top" xlink:title=" ">
<polygon fill="white" stroke="#666666" points="283,-276 146,-276 146,-257 283,-257 283,-276"/>
<text text-anchor="middle" x="214.5" y="-264" font-family="Helvetica,sans-Serif" font-size="10.00">dataloader::extract_data</text>
</a>
</g>
</g>
<!-- Node1&#45;&gt;Node2 -->
<g id="edge1_Node000001_Node000002" class="edge">
<title>Node1&#45;&gt;Node2</title>
<g id="a_edge1_Node000001_Node000002"><a xlink:title=" ">
<path fill="none" stroke="#63b8ff" d="M90.95,-213.59C118.12,-225.32 155.47,-241.45 181.78,-252.8"/>
<polygon fill="#63b8ff" stroke="#63b8ff" points="180.71,-256.15 191.27,-256.9 183.48,-249.73 180.71,-256.15"/>
</a>
</g>
</g>
<!-- Node5 -->
<g id="Node000005" class="node">
<title>Node5</title>
<g id="a_Node000005"><a xlink:href="classdataloader.html#a52b546c96dec81d3860fb7e6268b097a" target="_top" xlink:title=" ">
<polygon fill="white" stroke="#666666" points="269.5,-192.5 159.5,-192.5 159.5,-162.5 269.5,-162.5 269.5,-192.5"/>
<text text-anchor="start" x="167.5" y="-180.5" font-family="Helvetica,sans-Serif" font-size="10.00">dataloader::restore</text>
<text text-anchor="middle" x="214.5" y="-169.5" font-family="Helvetica,sans-Serif" font-size="10.00">_graphs_</text>
</a>
</g>
</g>
<!-- Node1&#45;&gt;Node5 -->
<g id="edge5_Node000001_Node000005" class="edge">
<title>Node1&#45;&gt;Node5</title>
<g id="a_edge5_Node000001_Node000005"><a xlink:title=" ">
<path fill="none" stroke="#63b8ff" d="M110.2,-191.27C122.77,-189.6 136.27,-187.8 149.22,-186.07"/>
<polygon fill="#63b8ff" stroke="#63b8ff" points="150.01,-189.5 159.46,-184.7 149.09,-182.56 150.01,-189.5"/>
</a>
</g>
</g>
<!-- Node3 -->
<g id="Node000003" class="node">
<title>Node3</title>
<g id="a_Node000003"><a xlink:href="classdataloader.html#a60ede9b5c2cacf28b6fd28524f21501f" target="_top" xlink:title=" ">
<polygon fill="white" stroke="#666666" points="453,-328.5 325,-328.5 325,-298.5 453,-298.5 453,-328.5"/>
<text text-anchor="start" x="333" y="-316.5" font-family="Helvetica,sans-Serif" font-size="10.00">dataloader::clean_data</text>
<text text-anchor="middle" x="389" y="-305.5" font-family="Helvetica,sans-Serif" font-size="10.00">_elements</text>
</a>
</g>
</g>
<!-- Node2&#45;&gt;Node3 -->
<g id="edge2_Node000002_Node000003" class="edge">
<title>Node2&#45;&gt;Node3</title>
<g id="a_edge2_Node000002_Node000003"><a xlink:title=" ">
<path fill="none" stroke="#63b8ff" d="M250.41,-276.01C271.27,-281.69 298.42,-289.09 323.09,-295.82"/>
<polygon fill="#63b8ff" stroke="#63b8ff" points="322.2,-299.2 332.77,-298.45 324.04,-292.45 322.2,-299.2"/>
</a>
</g>
</g>
<!-- Node4 -->
<g id="Node000004" class="node">
<title>Node4</title>
<g id="a_Node000004"><a xlink:href="structs_2cxx_2base_8cxx.html#a4eee7b291ed2cdcd4e3c2496c603c48c" target="_top" xlink:title="Counts occurrences of a substring in a string.">
<polygon fill="white" stroke="#666666" points="569,-323 525,-323 525,-304 569,-304 569,-323"/>
<text text-anchor="middle" x="547" y="-311" font-family="Helvetica,sans-Serif" font-size="10.00">count</text>
</a>
</g>
</g>
<!-- Node3&#45;&gt;Node4 -->
<g id="edge3_Node000003_Node000004" class="edge">
<title>Node3&#45;&gt;Node4</title>
<g id="a_edge3_Node000003_Node000004"><a xlink:title=" ">
<path fill="none" stroke="#63b8ff" d="M453,-313.5C474.15,-313.5 496.83,-313.5 514.49,-313.5"/>
<polygon fill="#63b8ff" stroke="#63b8ff" points="514.79,-317 524.79,-313.5 514.79,-310 514.79,-317"/>
</a>
</g>
</g>
<!-- Node4&#45;&gt;Node4 -->
<g id="edge4_Node000004_Node000004" class="edge">
<title>Node4&#45;&gt;Node4</title>
<g id="a_edge4_Node000004_Node000004"><a xlink:title=" ">
<path fill="none" stroke="#63b8ff" d="M528.2,-323.08C519.05,-331.73 525.32,-341 547,-341 560.55,-341 568.08,-337.38 569.59,-332.55"/>
<polygon fill="#63b8ff" stroke="#63b8ff" points="572.77,-331.07 565.8,-323.08 566.27,-333.67 572.77,-331.07"/>
</a>
</g>
</g>
<!-- Node6 -->
<g id="Node000006" class="node">
<title>Node6</title>
<g id="a_Node000006"><a xlink:href="classio.html#ac572af35ee4e5a6dc17a35a1d8eb4561" target="_top" xlink:title="Retrieves the names of datasets available in the currently open HDF5 file.">
<polygon fill="white" stroke="#666666" points="442.5,-280 335.5,-280 335.5,-261 442.5,-261 442.5,-280"/>
<text text-anchor="middle" x="389" y="-268" font-family="Helvetica,sans-Serif" font-size="10.00">io::dataset_names</text>
</a>
</g>
</g>
<!-- Node5&#45;&gt;Node6 -->
<g id="edge6_Node000005_Node000006" class="edge">
<title>Node5&#45;&gt;Node6</title>
<g id="a_edge6_Node000005_Node000006"><a xlink:title=" ">
<path fill="none" stroke="#63b8ff" d="M232.18,-192.65C251.65,-209.58 285.49,-236.68 319,-252.5 323.08,-254.43 327.39,-256.17 331.79,-257.74"/>
<polygon fill="#63b8ff" stroke="#63b8ff" points="330.91,-261.13 341.51,-260.91 333.09,-254.48 330.91,-261.13"/>
</a>
</g>
</g>
<!-- Node8 -->
<g id="Node000008" class="node">
<title>Node8</title>
<g id="a_Node000008"><a xlink:href="classio.html#a65ca69ec5f12d0f3a463396bcff84d77" target="_top" xlink:title="Ends the current I/O session, closing any open files.">
<polygon fill="white" stroke="#666666" points="414,-243 364,-243 364,-224 414,-224 414,-243"/>
<text text-anchor="middle" x="389" y="-231" font-family="Helvetica,sans-Serif" font-size="10.00">io::end</text>
</a>
</g>
</g>
<!-- Node5&#45;&gt;Node8 -->
<g id="edge8_Node000005_Node000008" class="edge">
<title>Node5&#45;&gt;Node8</title>
<g id="a_edge8_Node000005_Node000008"><a xlink:title=" ">
<path fill="none" stroke="#63b8ff" d="M254.02,-192.65C273.37,-200 297.26,-208.69 319,-215.5 330.31,-219.04 342.8,-222.45 354.02,-225.33"/>
<polygon fill="#63b8ff" stroke="#63b8ff" points="353.34,-228.77 363.89,-227.82 355.05,-221.98 353.34,-228.77"/>
</a>
</g>
</g>
<!-- Node9 -->
<g id="Node000009" class="node">
<title>Node9</title>
<g id="a_Node000009"><a xlink:href="structgraph__hdf5__w.html#a5f54ea06f5abf106fac3209e6583a335" target="_top" xlink:title=" ">
<polygon fill="white" stroke="#666666" points="459,-206 319,-206 319,-187 459,-187 459,-206"/>
<text text-anchor="middle" x="389" y="-194" font-family="Helvetica,sans-Serif" font-size="10.00">graph_hdf5_w::flush_data</text>
</a>
</g>
</g>
<!-- Node5&#45;&gt;Node9 -->
<g id="edge9_Node000005_Node000009" class="edge">
<title>Node5&#45;&gt;Node9</title>
<g id="a_edge9_Node000005_Node000009"><a xlink:title=" ">
<path fill="none" stroke="#63b8ff" d="M269.61,-183.46C282.05,-184.83 295.53,-186.31 308.79,-187.78"/>
<polygon fill="#63b8ff" stroke="#63b8ff" points="308.54,-191.27 318.86,-188.88 309.3,-184.31 308.54,-191.27"/>
</a>
</g>
</g>
<!-- Node10 -->
<g id="Node000010" class="node">
<title>Node10</title>
<g id="a_Node000010"><a xlink:href="classtools.html#ad7229c72cee65da3605c4be82f9b42d4" target="_top" xlink:title="Checks if a string contains a specific substring.">
<polygon fill="white" stroke="#666666" points="437.5,-169 340.5,-169 340.5,-150 437.5,-150 437.5,-169"/>
<text text-anchor="middle" x="389" y="-157" font-family="Helvetica,sans-Serif" font-size="10.00">tools::has_string</text>
</a>
</g>
</g>
<!-- Node5&#45;&gt;Node10 -->
<g id="edge10_Node000005_Node000010" class="edge">
<title>Node5&#45;&gt;Node10</title>
<g id="a_edge10_Node000005_Node000010"><a xlink:title=" ">
<path fill="none" stroke="#63b8ff" d="M269.61,-171.85C288.96,-169.83 310.83,-167.55 330.46,-165.5"/>
<polygon fill="#63b8ff" stroke="#63b8ff" points="330.92,-168.98 340.5,-164.46 330.19,-162.01 330.92,-168.98"/>
</a>
</g>
</g>
<!-- Node11 -->
<g id="Node000011" class="node">
<title>Node11</title>
<g id="a_Node000011"><a xlink:href="gnn-particles_8h.html#a726f7868ebf1c63190c267427081d370" target="_top" xlink:title=" ">
<polygon fill="white" stroke="#666666" points="408,-132 370,-132 370,-113 408,-113 408,-132"/>
<text text-anchor="middle" x="389" y="-120" font-family="Helvetica,sans-Serif" font-size="10.00">read</text>
</a>
</g>
</g>
<!-- Node5&#45;&gt;Node11 -->
<g id="edge11_Node000005_Node000011" class="edge">
<title>Node5&#45;&gt;Node11</title>
<g id="a_edge11_Node000005_Node000011"><a xlink:title=" ">
<path fill="none" stroke="#63b8ff" d="M257.09,-162.33C275.9,-155.65 298.47,-147.89 319,-141.5 332.35,-137.35 347.29,-133.17 359.85,-129.8"/>
<polygon fill="#63b8ff" stroke="#63b8ff" points="360.98,-133.12 369.74,-127.17 359.18,-126.36 360.98,-133.12"/>
</a>
</g>
</g>
<!-- Node12 -->
<g id="Node000012" class="node">
<title>Node12</title>
<g id="a_Node000012"><a xlink:href="classtools.html#a352a6965f2f3c768f0f4ecd1f978fcc0" target="_top" xlink:title="Splits a string into a vector of substrings based on a delimiter.">
<polygon fill="white" stroke="#666666" points="703,-75 635,-75 635,-56 703,-56 703,-75"/>
<text text-anchor="middle" x="669" y="-63" font-family="Helvetica,sans-Serif" font-size="10.00">tools::split</text>
</a>
</g>
</g>
<!-- Node5&#45;&gt;Node12 -->
<g id="edge12_Node000005_Node000012" class="edge">
<title>Node5&#45;&gt;Node12</title>
<g id="a_edge12_Node000005_Node000012"><a xlink:title=" ">
<path fill="none" stroke="#63b8ff" d="M231.54,-162.2C250.68,-144.95 284.46,-117.61 319,-104.5 373.89,-83.66 543.73,-72.1 624.49,-67.66"/>
<polygon fill="#63b8ff" stroke="#63b8ff" points="625.01,-71.13 634.81,-67.1 624.64,-64.14 625.01,-71.13"/>
</a>
</g>
</g>
<!-- Node13 -->
<g id="Node000013" class="node">
<title>Node13</title>
<g id="a_Node000013"><a xlink:href="classio.html#a228b6ce6f26848a9adfc0ccf3619a53e" target="_top" xlink:title="Starts an I/O session, opening a file for reading or writing.">
<polygon fill="white" stroke="#666666" points="416,-56 362,-56 362,-37 416,-37 416,-56"/>
<text text-anchor="middle" x="389" y="-44" font-family="Helvetica,sans-Serif" font-size="10.00">io::start</text>
</a>
</g>
</g>
<!-- Node5&#45;&gt;Node13 -->
<g id="edge13_Node000005_Node000013" class="edge">
<title>Node5&#45;&gt;Node13</title>
<g id="a_edge13_Node000005_Node000013"><a xlink:title=" ">
<path fill="none" stroke="#63b8ff" d="M226.51,-162.19C243.77,-139.22 279.36,-95.82 319,-70.5 328.98,-64.12 340.87,-59.2 351.94,-55.53"/>
<polygon fill="#63b8ff" stroke="#63b8ff" points="353.27,-58.78 361.79,-52.5 351.21,-52.09 353.27,-58.78"/>
</a>
</g>
</g>
<!-- Node7 -->
<g id="Node000007" class="node">
<title>Node7</title>
<g id="a_Node000007"><a xlink:href="classio.html#a0a188e43f5e4e5b8a3b1cefa677351c2" target="_top" xlink:title="Static callback function for H5Literate, used to iterate over objects in an HDF5 file.">
<polygon fill="white" stroke="#666666" points="582.5,-280 511.5,-280 511.5,-261 582.5,-261 582.5,-280"/>
<text text-anchor="middle" x="547" y="-268" font-family="Helvetica,sans-Serif" font-size="10.00">io::file_info</text>
</a>
</g>
</g>
<!-- Node6&#45;&gt;Node7 -->
<g id="edge7_Node000006_Node000007" class="edge">
<title>Node6&#45;&gt;Node7</title>
<g id="a_edge7_Node000006_Node000007"><a xlink:title=" ">
<path fill="none" stroke="#63b8ff" d="M442.81,-270.5C461.82,-270.5 483.06,-270.5 501.3,-270.5"/>
<polygon fill="#63b8ff" stroke="#63b8ff" points="501.38,-274 511.38,-270.5 501.38,-267 501.38,-274"/>
</a>
</g>
</g>
<!-- Node14 -->
<g id="Node000014" class="node">
<title>Node14</title>
<g id="a_Node000014"><a xlink:href="classtools.html#aed9f3247b474a8fb1840860d51cde7ca" target="_top" xlink:title="Creates a directory path, including parent directories if needed.">
<polygon fill="white" stroke="#666666" points="599,-56 495,-56 495,-37 599,-37 599,-56"/>
<text text-anchor="middle" x="547" y="-44" font-family="Helvetica,sans-Serif" font-size="10.00">tools::create_path</text>
</a>
</g>
</g>
<!-- Node13&#45;&gt;Node14 -->
<g id="edge14_Node000013_Node000014" class="edge">
<title>Node13&#45;&gt;Node14</title>
<g id="a_edge14_Node000013_Node000014"><a xlink:title=" ">
<path fill="none" stroke="#63b8ff" d="M416.11,-46.5C434.86,-46.5 460.92,-46.5 484.78,-46.5"/>
<polygon fill="#63b8ff" stroke="#63b8ff" points="484.85,-50 494.85,-46.5 484.85,-43 484.85,-50"/>
</a>
</g>
</g>
<!-- Node15 -->
<g id="Node000015" class="node">
<title>Node15</title>
<g id="a_Node000015"><a xlink:href="classtools.html#a47d3d261edcb898daab56721e18d1e67" target="_top" xlink:title="Checks if a path refers to an existing file.">
<polygon fill="white" stroke="#666666" points="584.5,-19 509.5,-19 509.5,0 584.5,0 584.5,-19"/>
<text text-anchor="middle" x="547" y="-7" font-family="Helvetica,sans-Serif" font-size="10.00">tools::is_file</text>
</a>
</g>
</g>
<!-- Node13&#45;&gt;Node15 -->
<g id="edge16_Node000013_Node000015" class="edge">
<title>Node13&#45;&gt;Node15</title>
<g id="a_edge16_Node000013_Node000015"><a xlink:title=" ">
<path fill="none" stroke="#63b8ff" d="M416.11,-40.31C438.82,-34.92 472.28,-26.99 499.54,-20.52"/>
<polygon fill="#63b8ff" stroke="#63b8ff" points="500.36,-23.92 509.28,-18.21 498.74,-17.11 500.36,-23.92"/>
</a>
</g>
</g>
<!-- Node14&#45;&gt;Node12 -->
<g id="edge15_Node000014_Node000012" class="edge">
<title>Node14&#45;&gt;Node12</title>
<g id="a_edge15_Node000014_Node000012"><a xlink:title=" ">
<path fill="none" stroke="#63b8ff" d="M599.24,-54.61C607.84,-55.98 616.69,-57.38 625.06,-58.7"/>
<polygon fill="#63b8ff" stroke="#63b8ff" points="624.56,-62.16 634.98,-60.27 625.65,-55.25 624.56,-62.16"/>
</a>
</g>
</g>
</g>
</svg>

<g id="navigator" transform="translate(0 0)" fill="#404254">
  <rect fill="#f2f5e9" fill-opacity="0.5" stroke="#606060" stroke-width=".5" x="0" y="0" width="60" height="60"/>
  <use id="zoomplus" xlink:href="#zoomPlus" x="17" y="9" onmousedown="handleZoom(evt,'in')"/>
  <use id="zoomminus" xlink:href="#zoomMin" x="42" y="9" onmousedown="handleZoom(evt,'out')"/>
  <use id="reset" xlink:href="#resetDef" x="30" y="36" onmousedown="handleReset()"/>
   <use id="arrowup" xlink:href="#arrowUp" x="0" y="0" onmousedown="handlePan(0,-1)"/>
  <use id="arrowright" xlink:href="#arrowRight" x="0" y="0" onmousedown="handlePan(1,0)"/>
  <use id="arrowdown" xlink:href="#arrowDown" x="0" y="0" onmousedown="handlePan(0,1)"/>
  <use id="arrowleft" xlink:href="#arrowLeft" x="0" y="0" onmousedown="handlePan(-1,0)"/>
</g>
<svg viewBox="0 0 15 15" width="100%" height="30px" preserveAspectRatio="xMaxYMin meet">
 <g id="arrow_out" transform="scale(0.3 0.3)">
  <a xlink:href="classdataloader_aed6ec872879a44ecfa9ae1c2188690a8_cgraph_org.svg" target="_base">
   <rect id="button" ry="5" rx="5" y="6" x="6" height="38" width="38"
        fill="#f2f5e9" fill-opacity="0.5" stroke="#606060" stroke-width="1.0"/>
   <path id="arrow"
     d="M 11.500037,31.436501 C 11.940474,20.09759 22.043105,11.32322 32.158766,21.979434 L 37.068811,17.246167 C 37.068811,17.246167 37.088388,32 37.088388,32 L 22.160133,31.978069 C 22.160133,31.978069 26.997745,27.140456 26.997745,27.140456 C 18.528582,18.264221 13.291696,25.230495 11.500037,31.436501 z"
     style="fill:#404040;"/>
  </a>
 </g>
</svg>

<style type='text/css'>
<![CDATA[
[data-mouse-over-selected='false'] { opacity: 0.7; }
[data-mouse-over-selected='true']  { opacity: 1.0; }
]]>
</style>
<script type="application/ecmascript"><![CDATA[
document.addEventListener('DOMContentLoaded', (event) => {
  highlightEdges();
  highlightAdjacentNodes();
});
]]></script>
</svg>
