<?xml version="1.0" encoding="UTF-8" standalone="no"?>
<!DOCTYPE svg PUBLIC "-//W3C//DTD SVG 1.1//EN"
 "http://www.w3.org/Graphics/SVG/1.1/DTD/svg11.dtd">
<!-- Generated by graphviz version 2.43.0 (0)
 -->
<!-- Title: io::trigger_pcm Pages: 1 -->
<svg width="478pt" height="177pt"
 viewBox="0.00 0.00 478.00 177.00" xmlns="http://www.w3.org/2000/svg" xmlns:xlink="http://www.w3.org/1999/xlink">

<svg id="main" version="1.1" xmlns="http://www.w3.org/2000/svg" xmlns:xlink="http://www.w3.org/1999/xlink" xml:space="preserve" onload="init(evt)">
<style type="text/css"><![CDATA[
.node, .edge {opacity: 0.7;}
.node.selected, .edge.selected {opacity: 1;}
.edge:hover path { stroke: red; }
.edge:hover polygon { stroke: red; fill: red; }
]]></style>
<script type="application/ecmascript" xlink:href="svg.min.js"/>
<svg id="graph" class="graph">
<g id="graph0" class="graph" transform="scale(1 1) rotate(0) translate(4 173)">
<title>io::trigger_pcm</title>
<!-- Node1 -->
<g id="Node000001" class="node">
<title>Node1</title>
<g id="a_Node000001"><a xlink:title="Triggers the generation of a ROOT PCM (Precompiled Module) if needed for dictionary generation.">
<polygon fill="#999999" stroke="#666666" points="90,-94 0,-94 0,-75 90,-75 90,-94"/>
<text text-anchor="middle" x="45" y="-82" font-family="Helvetica,sans-Serif" font-size="10.00">io::trigger_pcm</text>
</a>
</g>
</g>
<!-- Node2 -->
<g id="Node000002" class="node">
<title>Node2</title>
<g id="a_Node000002"><a xlink:href="classtools.html#a408b66ad73b7b4bb962634c14a55b619" target="_top" xlink:title="Converts a relative path to an absolute path.">
<polygon fill="white" stroke="#666666" points="242,-169 126,-169 126,-150 242,-150 242,-169"/>
<text text-anchor="middle" x="184" y="-157" font-family="Helvetica,sans-Serif" font-size="10.00">tools::absolute_path</text>
</a>
</g>
</g>
<!-- Node1&#45;&gt;Node2 -->
<g id="edge1_Node000001_Node000002" class="edge">
<title>Node1&#45;&gt;Node2</title>
<g id="a_edge1_Node000001_Node000002"><a xlink:title=" ">
<path fill="none" stroke="#63b8ff" d="M56.94,-94.01C71.71,-106.44 99.29,-128.18 126,-141.5 129.56,-143.27 133.32,-144.92 137.16,-146.43"/>
<polygon fill="#63b8ff" stroke="#63b8ff" points="136.16,-149.79 146.75,-149.93 138.56,-143.22 136.16,-149.79"/>
</a>
</g>
</g>
<!-- Node3 -->
<g id="Node000003" class="node">
<title>Node3</title>
<g id="a_Node000003"><a xlink:href="structs_2cxx_2base_8cxx.html#aa67f17555eea254a2f080d4bfaa19262" target="_top" xlink:title="Builds all required dictionaries.">
<polygon fill="white" stroke="#666666" points="210.5,-132 157.5,-132 157.5,-113 210.5,-113 210.5,-132"/>
<text text-anchor="middle" x="184" y="-120" font-family="Helvetica,sans-Serif" font-size="10.00">buildAll</text>
</a>
</g>
</g>
<!-- Node1&#45;&gt;Node3 -->
<g id="edge2_Node000001_Node000003" class="edge">
<title>Node1&#45;&gt;Node3</title>
<g id="a_edge2_Node000001_Node000003"><a xlink:title=" ">
<path fill="none" stroke="#63b8ff" d="M80.57,-94.09C101.01,-99.76 126.83,-106.92 147.44,-112.64"/>
<polygon fill="#63b8ff" stroke="#63b8ff" points="146.52,-116.01 157.09,-115.31 148.39,-109.27 146.52,-116.01"/>
</a>
</g>
</g>
<!-- Node5 -->
<g id="Node000005" class="node">
<title>Node5</title>
<g id="a_Node000005"><a xlink:href="structs_2cxx_2base_8cxx.html#a25eaf56fcdb4b2d9583f6d55ee6bd9b7" target="_top" xlink:title="Builds a dictionary for the given type name.">
<polygon fill="white" stroke="#666666" points="470,-113 410,-113 410,-94 470,-94 470,-113"/>
<text text-anchor="middle" x="440" y="-101" font-family="Helvetica,sans-Serif" font-size="10.00">buildDict</text>
</a>
</g>
</g>
<!-- Node1&#45;&gt;Node5 -->
<g id="edge5_Node000001_Node000005" class="edge">
<title>Node1&#45;&gt;Node5</title>
<g id="a_edge5_Node000001_Node000005"><a xlink:title=" ">
<path fill="none" stroke="#63b8ff" d="M90.32,-86.64C167.62,-90.38 325.87,-98.03 399.58,-101.59"/>
<polygon fill="#63b8ff" stroke="#63b8ff" points="399.67,-105.1 409.83,-102.09 400.01,-98.11 399.67,-105.1"/>
</a>
</g>
</g>
<!-- Node6 -->
<g id="Node000006" class="node">
<title>Node6</title>
<g id="a_Node000006"><a xlink:href="classtools.html#aed9f3247b474a8fb1840860d51cde7ca" target="_top" xlink:title="Creates a directory path, including parent directories if needed.">
<polygon fill="white" stroke="#666666" points="236,-56 132,-56 132,-37 236,-37 236,-56"/>
<text text-anchor="middle" x="184" y="-44" font-family="Helvetica,sans-Serif" font-size="10.00">tools::create_path</text>
</a>
</g>
</g>
<!-- Node1&#45;&gt;Node6 -->
<g id="edge6_Node000001_Node000006" class="edge">
<title>Node1&#45;&gt;Node6</title>
<g id="a_edge6_Node000001_Node000006"><a xlink:title=" ">
<path fill="none" stroke="#63b8ff" d="M80.57,-74.91C98.18,-70.03 119.78,-64.04 138.6,-58.82"/>
<polygon fill="#63b8ff" stroke="#63b8ff" points="139.74,-62.13 148.44,-56.09 137.87,-55.39 139.74,-62.13"/>
</a>
</g>
</g>
<!-- Node8 -->
<g id="Node000008" class="node">
<title>Node8</title>
<g id="a_Node000008"><a xlink:href="classtools.html#a5ab0f2cc351dd97951358ebe19e9c18d" target="_top" xlink:title="Lists files in a directory, optionally filtered by extension.">
<polygon fill="white" stroke="#666666" points="211.5,-19 156.5,-19 156.5,0 211.5,0 211.5,-19"/>
<text text-anchor="middle" x="184" y="-7" font-family="Helvetica,sans-Serif" font-size="10.00">tools::ls</text>
</a>
</g>
</g>
<!-- Node1&#45;&gt;Node8 -->
<g id="edge8_Node000001_Node000008" class="edge">
<title>Node1&#45;&gt;Node8</title>
<g id="a_edge8_Node000001_Node000008"><a xlink:title=" ">
<path fill="none" stroke="#63b8ff" d="M56.94,-74.99C71.71,-62.56 99.29,-40.82 126,-27.5 132.36,-24.33 139.41,-21.56 146.31,-19.22"/>
<polygon fill="#63b8ff" stroke="#63b8ff" points="147.74,-22.43 156.22,-16.08 145.63,-15.76 147.74,-22.43"/>
</a>
</g>
</g>
<!-- Node4 -->
<g id="Node000004" class="node">
<title>Node4</title>
<g id="a_Node000004"><a xlink:href="structs_2cxx_2base_8cxx.html#a96c2f5b7a58cb27671db52cf01b24c35" target="_top" xlink:title="Builds a PCM file for the given type.">
<polygon fill="white" stroke="#666666" points="357,-132 295,-132 295,-113 357,-113 357,-132"/>
<text text-anchor="middle" x="326" y="-120" font-family="Helvetica,sans-Serif" font-size="10.00">buildPCM</text>
</a>
</g>
</g>
<!-- Node3&#45;&gt;Node4 -->
<g id="edge3_Node000003_Node000004" class="edge">
<title>Node3&#45;&gt;Node4</title>
<g id="a_edge3_Node000003_Node000004"><a xlink:title=" ">
<path fill="none" stroke="#63b8ff" d="M210.68,-122.5C231.38,-122.5 260.86,-122.5 284.7,-122.5"/>
<polygon fill="#63b8ff" stroke="#63b8ff" points="284.86,-126 294.86,-122.5 284.86,-119 284.86,-126"/>
</a>
</g>
</g>
<!-- Node4&#45;&gt;Node5 -->
<g id="edge4_Node000004_Node000005" class="edge">
<title>Node4&#45;&gt;Node5</title>
<g id="a_edge4_Node000004_Node000005"><a xlink:title=" ">
<path fill="none" stroke="#63b8ff" d="M357.01,-117.41C370.15,-115.18 385.75,-112.53 399.79,-110.15"/>
<polygon fill="#63b8ff" stroke="#63b8ff" points="400.4,-113.6 409.68,-108.47 399.23,-106.7 400.4,-113.6"/>
</a>
</g>
</g>
<!-- Node7 -->
<g id="Node000007" class="node">
<title>Node7</title>
<g id="a_Node000007"><a xlink:href="classtools.html#a352a6965f2f3c768f0f4ecd1f978fcc0" target="_top" xlink:title="Splits a string into a vector of substrings based on a delimiter.">
<polygon fill="white" stroke="#666666" points="360,-56 292,-56 292,-37 360,-37 360,-56"/>
<text text-anchor="middle" x="326" y="-44" font-family="Helvetica,sans-Serif" font-size="10.00">tools::split</text>
</a>
</g>
</g>
<!-- Node6&#45;&gt;Node7 -->
<g id="edge7_Node000006_Node000007" class="edge">
<title>Node6&#45;&gt;Node7</title>
<g id="a_edge7_Node000006_Node000007"><a xlink:title=" ">
<path fill="none" stroke="#63b8ff" d="M236.34,-46.5C251.28,-46.5 267.45,-46.5 281.84,-46.5"/>
<polygon fill="#63b8ff" stroke="#63b8ff" points="281.96,-50 291.96,-46.5 281.96,-43 281.96,-50"/>
</a>
</g>
</g>
<!-- Node8&#45;&gt;Node7 -->
<g id="edge10_Node000008_Node000007" class="edge">
<title>Node8&#45;&gt;Node7</title>
<g id="a_edge10_Node000008_Node000007"><a xlink:title=" ">
<path fill="none" stroke="#63b8ff" d="M211.66,-16.55C231.5,-21.79 258.98,-29.05 281.92,-35.11"/>
<polygon fill="#63b8ff" stroke="#63b8ff" points="281.2,-38.55 291.77,-37.72 282.99,-31.78 281.2,-38.55"/>
</a>
</g>
</g>
<!-- Node9 -->
<g id="Node000009" class="node">
<title>Node9</title>
<g id="a_Node000009"><a xlink:href="classtools.html#a3d538da5310467c9321b27cd6a75b9af" target="_top" xlink:title="Checks if a string ends with a specific substring.">
<polygon fill="white" stroke="#666666" points="374,-19 278,-19 278,0 374,0 374,-19"/>
<text text-anchor="middle" x="326" y="-7" font-family="Helvetica,sans-Serif" font-size="10.00">tools::ends_with</text>
</a>
</g>
</g>
<!-- Node8&#45;&gt;Node9 -->
<g id="edge9_Node000008_Node000009" class="edge">
<title>Node8&#45;&gt;Node9</title>
<g id="a_edge9_Node000008_Node000009"><a xlink:title=" ">
<path fill="none" stroke="#63b8ff" d="M211.66,-9.5C227.54,-9.5 248.32,-9.5 267.74,-9.5"/>
<polygon fill="#63b8ff" stroke="#63b8ff" points="267.75,-13 277.74,-9.5 267.74,-6 267.75,-13"/>
</a>
</g>
</g>
</g>
</svg>
</svg>

<style type='text/css'>
<![CDATA[
[data-mouse-over-selected='false'] { opacity: 0.7; }
[data-mouse-over-selected='true']  { opacity: 1.0; }
]]>
</style>
<script type="application/ecmascript"><![CDATA[
document.addEventListener('DOMContentLoaded', (event) => {
  highlightEdges();
  highlightAdjacentNodes();
});
]]></script>
</svg>
