<?xml version="1.0" encoding="UTF-8" standalone="no"?>
<!DOCTYPE svg PUBLIC "-//W3C//DTD SVG 1.1//EN"
 "http://www.w3.org/Graphics/SVG/1.1/DTD/svg11.dtd">
<!-- Generated by graphviz version 2.43.0 (0)
 -->
<!-- Title: gnn_event::CompileEvent Pages: 1 -->
<svg width="305pt" height="205pt"
 viewBox="0.00 0.00 305.00 205.00" xmlns="http://www.w3.org/2000/svg" xmlns:xlink="http://www.w3.org/1999/xlink">
<g id="graph0" class="graph" transform="scale(1 1) rotate(0) translate(4 201)">
<title>gnn_event::CompileEvent</title>
<!-- Node1 -->
<g id="Node000001" class="node">
<title>Node1</title>
<g id="a_Node000001"><a xlink:title=" ">
<polygon fill="#999999" stroke="#666666" points="142,-99 0,-99 0,-80 142,-80 142,-99"/>
<text text-anchor="middle" x="71" y="-87" font-family="Helvetica,sans-Serif" font-size="10.00">gnn_event::CompileEvent</text>
</a>
</g>
</g>
<!-- Node2 -->
<g id="Node000002" class="node">
<title>Node2</title>
<g id="a_Node000002"><a xlink:href="classtools.html#af0028ec6242448428f7c548b6e7cb714" target="_top" xlink:title="Constructor for the tools class.">
<polygon fill="white" stroke="#666666" points="273,-197 202,-197 202,-178 273,-178 273,-197"/>
<text text-anchor="middle" x="237.5" y="-185" font-family="Helvetica,sans-Serif" font-size="10.00">tools::tools</text>
</a>
</g>
</g>
<!-- Node1&#45;&gt;Node2 -->
<g id="edge1_Node000001_Node000002" class="edge">
<title>Node1&#45;&gt;Node2</title>
<g id="a_edge1_Node000001_Node000002"><a xlink:title=" ">
<path fill="none" stroke="#63b8ff" d="M82.29,-99.26C100.33,-115.88 139.4,-149.77 178,-169.5 182.55,-171.83 187.47,-173.92 192.44,-175.77"/>
<polygon fill="#63b8ff" stroke="#63b8ff" points="191.4,-179.12 201.99,-179.06 193.68,-172.5 191.4,-179.12"/>
</a>
</g>
</g>
<!-- Node3 -->
<g id="Node000003" class="node">
<title>Node3</title>
<g id="a_Node000003"><a xlink:href="structs_2cxx_2base_8cxx.html#a4eee7b291ed2cdcd4e3c2496c603c48c" target="_top" xlink:title="Counts occurrences of a substring in a string.">
<polygon fill="white" stroke="#666666" points="259.5,-142 215.5,-142 215.5,-123 259.5,-123 259.5,-142"/>
<text text-anchor="middle" x="237.5" y="-130" font-family="Helvetica,sans-Serif" font-size="10.00">count</text>
</a>
</g>
</g>
<!-- Node1&#45;&gt;Node3 -->
<g id="edge2_Node000001_Node000003" class="edge">
<title>Node1&#45;&gt;Node3</title>
<g id="a_edge2_Node000001_Node000003"><a xlink:title=" ">
<path fill="none" stroke="#63b8ff" d="M108.51,-99.04C137.55,-106.63 177.74,-117.14 205.3,-124.34"/>
<polygon fill="#63b8ff" stroke="#63b8ff" points="204.63,-127.79 215.19,-126.93 206.4,-121.01 204.63,-127.79"/>
</a>
</g>
</g>
<!-- Node4 -->
<g id="Node000004" class="node">
<title>Node4</title>
<g id="a_Node000004"><a xlink:href="classgnn__event.html#ac29ad1578f0fc8be5751c8333065d3ba" target="_top" xlink:title=" ">
<polygon fill="white" stroke="#666666" points="292.5,-104.5 182.5,-104.5 182.5,-74.5 292.5,-74.5 292.5,-104.5"/>
<text text-anchor="start" x="190.5" y="-92.5" font-family="Helvetica,sans-Serif" font-size="10.00">gnn_event::sort_by</text>
<text text-anchor="middle" x="237.5" y="-81.5" font-family="Helvetica,sans-Serif" font-size="10.00">_index</text>
</a>
</g>
</g>
<!-- Node1&#45;&gt;Node4 -->
<g id="edge4_Node000001_Node000004" class="edge">
<title>Node1&#45;&gt;Node4</title>
<g id="a_edge4_Node000001_Node000004"><a xlink:title=" ">
<path fill="none" stroke="#63b8ff" d="M142.24,-89.5C152.22,-89.5 162.44,-89.5 172.3,-89.5"/>
<polygon fill="#63b8ff" stroke="#63b8ff" points="172.42,-93 182.42,-89.5 172.42,-86 172.42,-93"/>
</a>
</g>
</g>
<!-- Node5 -->
<g id="Node000005" class="node">
<title>Node5</title>
<g id="a_Node000005"><a xlink:href="classgnn__event.html#abc9138d1f8997e74f0b3a9403716dffc" target="_top" xlink:title=" ">
<polygon fill="white" stroke="#666666" points="285,-56 190,-56 190,-37 285,-37 285,-56"/>
<text text-anchor="middle" x="237.5" y="-44" font-family="Helvetica,sans-Serif" font-size="10.00">gnn_event::sum</text>
</a>
</g>
</g>
<!-- Node1&#45;&gt;Node5 -->
<g id="edge5_Node000001_Node000005" class="edge">
<title>Node1&#45;&gt;Node5</title>
<g id="a_edge5_Node000001_Node000005"><a xlink:title=" ">
<path fill="none" stroke="#63b8ff" d="M108.51,-79.96C132.57,-73.67 164.3,-65.37 190.14,-58.62"/>
<polygon fill="#63b8ff" stroke="#63b8ff" points="191.3,-61.93 200.09,-56.02 189.53,-55.16 191.3,-61.93"/>
</a>
</g>
</g>
<!-- Node6 -->
<g id="Node000006" class="node">
<title>Node6</title>
<g id="a_Node000006"><a xlink:href="classgnn__event.html#af8c9947527b786e2118ee40e445a055c" target="_top" xlink:title=" ">
<polygon fill="white" stroke="#666666" points="297,-19 178,-19 178,0 297,0 297,-19"/>
<text text-anchor="middle" x="237.5" y="-7" font-family="Helvetica,sans-Serif" font-size="10.00">gnn_event::vectorize</text>
</a>
</g>
</g>
<!-- Node1&#45;&gt;Node6 -->
<g id="edge6_Node000001_Node000006" class="edge">
<title>Node1&#45;&gt;Node6</title>
<g id="a_edge6_Node000001_Node000006"><a xlink:title=" ">
<path fill="none" stroke="#63b8ff" d="M86.58,-79.8C106.55,-66.82 143.85,-43.67 178,-28.5 182.82,-26.36 187.95,-24.34 193.1,-22.47"/>
<polygon fill="#63b8ff" stroke="#63b8ff" points="194.63,-25.64 202.94,-19.07 192.35,-19.03 194.63,-25.64"/>
</a>
</g>
</g>
<!-- Node3&#45;&gt;Node3 -->
<g id="edge3_Node000003_Node000003" class="edge">
<title>Node3&#45;&gt;Node3</title>
<g id="a_edge3_Node000003_Node000003"><a xlink:title=" ">
<path fill="none" stroke="#63b8ff" d="M215.42,-139.96C198.2,-149.14 205.56,-160 237.5,-160 261.95,-160 272,-153.64 267.64,-146.53"/>
<polygon fill="#63b8ff" stroke="#63b8ff" points="269.54,-143.57 259.58,-139.96 265.12,-149 269.54,-143.57"/>
</a>
</g>
</g>
</g>
</svg>
