<?xml version="1.0" encoding="UTF-8" standalone="no"?>
<!DOCTYPE svg PUBLIC "-//W3C//DTD SVG 1.1//EN"
 "http://www.w3.org/Graphics/SVG/1.1/DTD/svg11.dtd">
<!-- Generated by graphviz version 2.43.0 (0)
 -->
<!-- Title: jetparton Pages: 1 -->
<svg width="132pt" height="1127pt"
 viewBox="0.00 0.00 132.00 1127.00" xmlns="http://www.w3.org/2000/svg" xmlns:xlink="http://www.w3.org/1999/xlink">
<g id="graph0" class="graph" transform="scale(1 1) rotate(0) translate(4 1123)">
<title>jetparton</title>
<!-- Node1 -->
<g id="Node000001" class="node">
<title>Node1</title>
<g id="a_Node000001"><a xlink:title=" ">
<polygon fill="#999999" stroke="transparent" points="119.5,-184 4.5,-184 4.5,0 119.5,0 119.5,-184"/>
<text text-anchor="start" x="40" y="-172" font-family="Helvetica,sans-Serif" font-size="10.00">jetparton</text>
<text text-anchor="start" x="9" y="-157" font-family="Helvetica,sans-Serif" font-size="10.00">+</text>
<text text-anchor="start" x="22" y="-157" font-family="Helvetica,sans-Serif" font-size="10.00">jet_index</text>
<text text-anchor="start" x="9" y="-142" font-family="Helvetica,sans-Serif" font-size="10.00">+</text>
<text text-anchor="start" x="22" y="-142" font-family="Helvetica,sans-Serif" font-size="10.00">topchild_index</text>
<text text-anchor="start" x="9" y="-127" font-family="Helvetica,sans-Serif" font-size="10.00">+</text>
<text text-anchor="start" x="22" y="-127" font-family="Helvetica,sans-Serif" font-size="10.00">jetparton()</text>
<text text-anchor="start" x="9" y="-112" font-family="Helvetica,sans-Serif" font-size="10.00">+</text>
<text text-anchor="start" x="22" y="-112" font-family="Helvetica,sans-Serif" font-size="10.00">~jetparton()</text>
<text text-anchor="start" x="9" y="-97" font-family="Helvetica,sans-Serif" font-size="10.00">+</text>
<text text-anchor="start" x="22" y="-97" font-family="Helvetica,sans-Serif" font-size="10.00">clone()</text>
<text text-anchor="start" x="9" y="-82" font-family="Helvetica,sans-Serif" font-size="10.00">+</text>
<text text-anchor="start" x="22" y="-82" font-family="Helvetica,sans-Serif" font-size="10.00">build()</text>
<text text-anchor="start" x="9" y="-67" font-family="Helvetica,sans-Serif" font-size="10.00">+</text>
<text text-anchor="start" x="22" y="-67" font-family="Helvetica,sans-Serif" font-size="10.00">particle_template()</text>
<text text-anchor="start" x="9" y="-52" font-family="Helvetica,sans-Serif" font-size="10.00">+</text>
<text text-anchor="start" x="22" y="-52" font-family="Helvetica,sans-Serif" font-size="10.00">particle_template()</text>
<text text-anchor="start" x="9" y="-37" font-family="Helvetica,sans-Serif" font-size="10.00">+</text>
<text text-anchor="start" x="22" y="-37" font-family="Helvetica,sans-Serif" font-size="10.00">particle_template()</text>
<text text-anchor="start" x="9" y="-22" font-family="Helvetica,sans-Serif" font-size="10.00">+</text>
<text text-anchor="start" x="22" y="-22" font-family="Helvetica,sans-Serif" font-size="10.00">particle_template()</text>
<text text-anchor="start" x="9" y="-7" font-family="Helvetica,sans-Serif" font-size="10.00">+</text>
<text text-anchor="start" x="22" y="-7" font-family="Helvetica,sans-Serif" font-size="10.00">particle_template()</text>
<polygon fill="#666666" stroke="#666666" points="5,-167 5,-167 120,-167 120,-167 5,-167"/>
<polygon fill="#666666" stroke="#666666" points="5,-137 5,-137 20,-137 20,-137 5,-137"/>
<polygon fill="#666666" stroke="#666666" points="20,-137 20,-137 120,-137 120,-137 20,-137"/>
<polygon fill="none" stroke="#666666" points="4.5,0 4.5,-184 119.5,-184 119.5,0 4.5,0"/>
</a>
</g>
</g>
<!-- Node2 -->
<g id="Node000002" class="node">
<title>Node2</title>
<g id="a_Node000002"><a xlink:href="classparticle__template.html" target="_top" xlink:title="Base class for representing physics particles with four&#45;momentum and properties.">
<polygon fill="white" stroke="transparent" points="124,-734 0,-734 0,-220 124,-220 124,-734"/>
<text text-anchor="start" x="18.5" y="-722" font-family="Helvetica,sans-Serif" font-size="10.00">particle_template</text>
<text text-anchor="start" x="4" y="-707" font-family="Helvetica,sans-Serif" font-size="10.00">+</text>
<text text-anchor="start" x="17" y="-707" font-family="Helvetica,sans-Serif" font-size="10.00">e</text>
<text text-anchor="start" x="4" y="-692" font-family="Helvetica,sans-Serif" font-size="10.00">+</text>
<text text-anchor="start" x="17" y="-692" font-family="Helvetica,sans-Serif" font-size="10.00">mass</text>
<text text-anchor="start" x="4" y="-677" font-family="Helvetica,sans-Serif" font-size="10.00">+</text>
<text text-anchor="start" x="17" y="-677" font-family="Helvetica,sans-Serif" font-size="10.00">pt</text>
<text text-anchor="start" x="4" y="-662" font-family="Helvetica,sans-Serif" font-size="10.00">+</text>
<text text-anchor="start" x="17" y="-662" font-family="Helvetica,sans-Serif" font-size="10.00">eta</text>
<text text-anchor="start" x="4" y="-647" font-family="Helvetica,sans-Serif" font-size="10.00">+</text>
<text text-anchor="start" x="17" y="-647" font-family="Helvetica,sans-Serif" font-size="10.00">phi</text>
<text text-anchor="start" x="4" y="-632" font-family="Helvetica,sans-Serif" font-size="10.00">+</text>
<text text-anchor="start" x="17" y="-632" font-family="Helvetica,sans-Serif" font-size="10.00">px</text>
<text text-anchor="start" x="4" y="-617" font-family="Helvetica,sans-Serif" font-size="10.00">+</text>
<text text-anchor="start" x="17" y="-617" font-family="Helvetica,sans-Serif" font-size="10.00">py</text>
<text text-anchor="start" x="4" y="-602" font-family="Helvetica,sans-Serif" font-size="10.00">+</text>
<text text-anchor="start" x="17" y="-602" font-family="Helvetica,sans-Serif" font-size="10.00">pz</text>
<text text-anchor="start" x="4" y="-587" font-family="Helvetica,sans-Serif" font-size="10.00">+</text>
<text text-anchor="start" x="17" y="-587" font-family="Helvetica,sans-Serif" font-size="10.00">pdgid</text>
<text text-anchor="start" x="4" y="-572" font-family="Helvetica,sans-Serif" font-size="10.00">+</text>
<text text-anchor="start" x="17" y="-572" font-family="Helvetica,sans-Serif" font-size="10.00">symbol</text>
<text text-anchor="start" x="17" y="-557" font-family="Helvetica,sans-Serif" font-size="10.00">and 17 more...</text>
<text text-anchor="start" x="4" y="-542" font-family="Helvetica,sans-Serif" font-size="10.00">+</text>
<text text-anchor="start" x="17" y="-542" font-family="Helvetica,sans-Serif" font-size="10.00">particle_template()</text>
<text text-anchor="start" x="4" y="-527" font-family="Helvetica,sans-Serif" font-size="10.00">+</text>
<text text-anchor="start" x="17" y="-527" font-family="Helvetica,sans-Serif" font-size="10.00">~particle_template()</text>
<text text-anchor="start" x="4" y="-512" font-family="Helvetica,sans-Serif" font-size="10.00">+</text>
<text text-anchor="start" x="17" y="-512" font-family="Helvetica,sans-Serif" font-size="10.00">particle_template()</text>
<text text-anchor="start" x="4" y="-497" font-family="Helvetica,sans-Serif" font-size="10.00">+</text>
<text text-anchor="start" x="17" y="-497" font-family="Helvetica,sans-Serif" font-size="10.00">particle_template()</text>
<text text-anchor="start" x="4" y="-482" font-family="Helvetica,sans-Serif" font-size="10.00">+</text>
<text text-anchor="start" x="17" y="-482" font-family="Helvetica,sans-Serif" font-size="10.00">particle_template()</text>
<text text-anchor="start" x="4" y="-467" font-family="Helvetica,sans-Serif" font-size="10.00">+</text>
<text text-anchor="start" x="17" y="-467" font-family="Helvetica,sans-Serif" font-size="10.00">particle_template()</text>
<text text-anchor="start" x="4" y="-452" font-family="Helvetica,sans-Serif" font-size="10.00">+</text>
<text text-anchor="start" x="17" y="-452" font-family="Helvetica,sans-Serif" font-size="10.00">to_cartesian()</text>
<text text-anchor="start" x="4" y="-437" font-family="Helvetica,sans-Serif" font-size="10.00">+</text>
<text text-anchor="start" x="17" y="-437" font-family="Helvetica,sans-Serif" font-size="10.00">to_polar()</text>
<text text-anchor="start" x="4" y="-422" font-family="Helvetica,sans-Serif" font-size="10.00">+</text>
<text text-anchor="start" x="17" y="-422" font-family="Helvetica,sans-Serif" font-size="10.00">is()</text>
<text text-anchor="start" x="4" y="-407" font-family="Helvetica,sans-Serif" font-size="10.00">+</text>
<text text-anchor="start" x="17" y="-407" font-family="Helvetica,sans-Serif" font-size="10.00">DeltaR()</text>
<text text-anchor="start" x="17" y="-392" font-family="Helvetica,sans-Serif" font-size="10.00">and 11 more...</text>
<text text-anchor="start" x="4" y="-377" font-family="Helvetica,sans-Serif" font-size="10.00">+</text>
<text text-anchor="start" x="17" y="-377" font-family="Helvetica,sans-Serif" font-size="10.00">set_e()</text>
<text text-anchor="start" x="4" y="-362" font-family="Helvetica,sans-Serif" font-size="10.00">+</text>
<text text-anchor="start" x="17" y="-362" font-family="Helvetica,sans-Serif" font-size="10.00">get_e()</text>
<text text-anchor="start" x="4" y="-347" font-family="Helvetica,sans-Serif" font-size="10.00">+</text>
<text text-anchor="start" x="17" y="-347" font-family="Helvetica,sans-Serif" font-size="10.00">set_mass()</text>
<text text-anchor="start" x="4" y="-332" font-family="Helvetica,sans-Serif" font-size="10.00">+</text>
<text text-anchor="start" x="17" y="-332" font-family="Helvetica,sans-Serif" font-size="10.00">get_mass()</text>
<text text-anchor="start" x="4" y="-317" font-family="Helvetica,sans-Serif" font-size="10.00">+</text>
<text text-anchor="start" x="17" y="-317" font-family="Helvetica,sans-Serif" font-size="10.00">set_pt()</text>
<text text-anchor="start" x="4" y="-302" font-family="Helvetica,sans-Serif" font-size="10.00">+</text>
<text text-anchor="start" x="17" y="-302" font-family="Helvetica,sans-Serif" font-size="10.00">get_pt()</text>
<text text-anchor="start" x="4" y="-287" font-family="Helvetica,sans-Serif" font-size="10.00">+</text>
<text text-anchor="start" x="17" y="-287" font-family="Helvetica,sans-Serif" font-size="10.00">set_eta()</text>
<text text-anchor="start" x="4" y="-272" font-family="Helvetica,sans-Serif" font-size="10.00">+</text>
<text text-anchor="start" x="17" y="-272" font-family="Helvetica,sans-Serif" font-size="10.00">get_eta()</text>
<text text-anchor="start" x="4" y="-257" font-family="Helvetica,sans-Serif" font-size="10.00">+</text>
<text text-anchor="start" x="17" y="-257" font-family="Helvetica,sans-Serif" font-size="10.00">set_phi()</text>
<text text-anchor="start" x="4" y="-242" font-family="Helvetica,sans-Serif" font-size="10.00">+</text>
<text text-anchor="start" x="17" y="-242" font-family="Helvetica,sans-Serif" font-size="10.00">get_phi()</text>
<text text-anchor="start" x="17" y="-227" font-family="Helvetica,sans-Serif" font-size="10.00">and 26 more...</text>
<polygon fill="#666666" stroke="#666666" points="0,-717 0,-717 124,-717 124,-717 0,-717"/>
<polygon fill="#666666" stroke="#666666" points="0,-552 0,-552 15,-552 15,-552 0,-552"/>
<polygon fill="#666666" stroke="#666666" points="15,-552 15,-552 124,-552 124,-552 15,-552"/>
<polygon fill="none" stroke="#666666" points="0,-220 0,-734 124,-734 124,-220 0,-220"/>
</a>
</g>
</g>
<!-- Node2&#45;&gt;Node1 -->
<g id="edge1_Node000001_Node000002" class="edge">
<title>Node2&#45;&gt;Node1</title>
<g id="a_edge1_Node000001_Node000002"><a xlink:title=" ">
<path fill="none" stroke="#63b8ff" d="M62,-209.47C62,-200.82 62,-192.41 62,-184.33"/>
<polygon fill="none" stroke="#63b8ff" points="58.5,-209.74 62,-219.74 65.5,-209.74 58.5,-209.74"/>
</a>
</g>
</g>
<!-- Node3 -->
<g id="Node000003" class="node">
<title>Node3</title>
<g id="a_Node000003"><a xlink:href="classtools.html" target="_top" xlink:title="Provides a wide range of utility functions used throughout the framework.">
<polygon fill="white" stroke="transparent" points="111,-1119 13,-1119 13,-770 111,-770 111,-1119"/>
<text text-anchor="start" x="49.5" y="-1106.5" font-family="Helvetica,sans-Serif" font-size="10.00">tools</text>
<text text-anchor="start" x="60" y="-1091.5" font-family="Helvetica,sans-Serif" font-size="10.00"> </text>
<text text-anchor="start" x="17" y="-1076.5" font-family="Helvetica,sans-Serif" font-size="10.00">+</text>
<text text-anchor="start" x="30" y="-1076.5" font-family="Helvetica,sans-Serif" font-size="10.00">tools()</text>
<text text-anchor="start" x="17" y="-1061.5" font-family="Helvetica,sans-Serif" font-size="10.00">+</text>
<text text-anchor="start" x="30" y="-1061.5" font-family="Helvetica,sans-Serif" font-size="10.00">~tools()</text>
<text text-anchor="start" x="17" y="-1046.5" font-family="Helvetica,sans-Serif" font-size="10.00">+</text>
<text text-anchor="start" x="30" y="-1046.5" font-family="Helvetica,sans-Serif" font-size="10.00">split()</text>
<text text-anchor="start" x="17" y="-1031.5" font-family="Helvetica,sans-Serif" font-size="10.00">+</text>
<text text-anchor="start" x="30" y="-1031.5" font-family="Helvetica,sans-Serif" font-size="10.00">trim()</text>
<text text-anchor="start" x="17" y="-1016.5" font-family="Helvetica,sans-Serif" font-size="10.00">+</text>
<text text-anchor="start" x="30" y="-1016.5" font-family="Helvetica,sans-Serif" font-size="10.00">type_name()</text>
<text text-anchor="start" x="17" y="-1001.5" font-family="Helvetica,sans-Serif" font-size="10.00">+</text>
<text text-anchor="start" x="30" y="-1001.5" font-family="Helvetica,sans-Serif" font-size="10.00">sum()</text>
<text text-anchor="start" x="17" y="-986.5" font-family="Helvetica,sans-Serif" font-size="10.00">+</text>
<text text-anchor="start" x="30" y="-986.5" font-family="Helvetica,sans-Serif" font-size="10.00">create_path()</text>
<text text-anchor="start" x="17" y="-971.5" font-family="Helvetica,sans-Serif" font-size="10.00">+</text>
<text text-anchor="start" x="30" y="-971.5" font-family="Helvetica,sans-Serif" font-size="10.00">delete_path()</text>
<text text-anchor="start" x="17" y="-956.5" font-family="Helvetica,sans-Serif" font-size="10.00">+</text>
<text text-anchor="start" x="30" y="-956.5" font-family="Helvetica,sans-Serif" font-size="10.00">is_file()</text>
<text text-anchor="start" x="17" y="-941.5" font-family="Helvetica,sans-Serif" font-size="10.00">+</text>
<text text-anchor="start" x="30" y="-941.5" font-family="Helvetica,sans-Serif" font-size="10.00">rename()</text>
<text text-anchor="start" x="17" y="-926.5" font-family="Helvetica,sans-Serif" font-size="10.00">+</text>
<text text-anchor="start" x="30" y="-926.5" font-family="Helvetica,sans-Serif" font-size="10.00">absolute_path()</text>
<text text-anchor="start" x="17" y="-911.5" font-family="Helvetica,sans-Serif" font-size="10.00">+</text>
<text text-anchor="start" x="30" y="-911.5" font-family="Helvetica,sans-Serif" font-size="10.00">ls()</text>
<text text-anchor="start" x="17" y="-896.5" font-family="Helvetica,sans-Serif" font-size="10.00">+</text>
<text text-anchor="start" x="30" y="-896.5" font-family="Helvetica,sans-Serif" font-size="10.00">to_string()</text>
<text text-anchor="start" x="17" y="-881.5" font-family="Helvetica,sans-Serif" font-size="10.00">+</text>
<text text-anchor="start" x="30" y="-881.5" font-family="Helvetica,sans-Serif" font-size="10.00">to_string()</text>
<text text-anchor="start" x="17" y="-866.5" font-family="Helvetica,sans-Serif" font-size="10.00">+</text>
<text text-anchor="start" x="30" y="-866.5" font-family="Helvetica,sans-Serif" font-size="10.00">replace()</text>
<text text-anchor="start" x="17" y="-851.5" font-family="Helvetica,sans-Serif" font-size="10.00">+</text>
<text text-anchor="start" x="30" y="-851.5" font-family="Helvetica,sans-Serif" font-size="10.00">has_string()</text>
<text text-anchor="start" x="17" y="-836.5" font-family="Helvetica,sans-Serif" font-size="10.00">+</text>
<text text-anchor="start" x="30" y="-836.5" font-family="Helvetica,sans-Serif" font-size="10.00">ends_with()</text>
<text text-anchor="start" x="17" y="-821.5" font-family="Helvetica,sans-Serif" font-size="10.00">+</text>
<text text-anchor="start" x="30" y="-821.5" font-family="Helvetica,sans-Serif" font-size="10.00">has_value()</text>
<text text-anchor="start" x="17" y="-806.5" font-family="Helvetica,sans-Serif" font-size="10.00">+</text>
<text text-anchor="start" x="30" y="-806.5" font-family="Helvetica,sans-Serif" font-size="10.00">flush()</text>
<text text-anchor="start" x="17" y="-791.5" font-family="Helvetica,sans-Serif" font-size="10.00">+</text>
<text text-anchor="start" x="30" y="-791.5" font-family="Helvetica,sans-Serif" font-size="10.00">put()</text>
<text text-anchor="start" x="17" y="-776.5" font-family="Helvetica,sans-Serif" font-size="10.00">+</text>
<text text-anchor="start" x="30" y="-776.5" font-family="Helvetica,sans-Serif" font-size="10.00">extract()</text>
<polygon fill="#666666" stroke="#666666" points="13,-1101.5 13,-1101.5 111,-1101.5 111,-1101.5 13,-1101.5"/>
<polygon fill="#666666" stroke="#666666" points="13,-1086.5 13,-1086.5 111,-1086.5 111,-1086.5 13,-1086.5"/>
<polygon fill="none" stroke="#666666" points="13,-770 13,-1119 111,-1119 111,-770 13,-770"/>
</a>
</g>
</g>
<!-- Node3&#45;&gt;Node2 -->
<g id="edge2_Node000002_Node000003" class="edge">
<title>Node3&#45;&gt;Node2</title>
<g id="a_edge2_Node000002_Node000003"><a xlink:title=" ">
<path fill="none" stroke="#63b8ff" d="M62,-759.59C62,-751.15 62,-742.62 62,-734.05"/>
<polygon fill="none" stroke="#63b8ff" points="58.5,-759.83 62,-769.83 65.5,-759.83 58.5,-759.83"/>
</a>
</g>
</g>
</g>
</svg>
