<?xml version="1.0" encoding="UTF-8" standalone="no"?>
<!DOCTYPE svg PUBLIC "-//W3C//DTD SVG 1.1//EN"
 "http://www.w3.org/Graphics/SVG/1.1/DTD/svg11.dtd">
<!-- Generated by graphviz version 2.43.0 (0)
 -->
<!-- Title: tools::has_value Pages: 1 -->
<svg width="451pt" height="64pt"
 viewBox="0.00 0.00 451.00 64.00" xmlns="http://www.w3.org/2000/svg" xmlns:xlink="http://www.w3.org/1999/xlink">
<g id="graph0" class="graph" transform="scale(1 1) rotate(0) translate(4 60)">
<title>tools::has_value</title>
<!-- Node1 -->
<g id="Node000001" class="node">
<title>Node1</title>
<g id="a_Node000001"><a xlink:title="Checks if a vector of strings contains a specific string.">
<polygon fill="#999999" stroke="#666666" points="443,-37 347,-37 347,-18 443,-18 443,-37"/>
<text text-anchor="middle" x="395" y="-25" font-family="Helvetica,sans-Serif" font-size="10.00">tools::has_value</text>
</a>
</g>
</g>
<!-- Node2 -->
<g id="Node000002" class="node">
<title>Node2</title>
<g id="a_Node000002"><a xlink:href="classio.html#aacb050c4cb6c10038d6bf8edb7244a28" target="_top" xlink:title="Scans for keys (e.g., TTree names, TBranch names) in the open ROOT files.">
<polygon fill="white" stroke="#666666" points="311,-37 229,-37 229,-18 311,-18 311,-37"/>
<text text-anchor="middle" x="270" y="-25" font-family="Helvetica,sans-Serif" font-size="10.00">io::scan_keys</text>
</a>
</g>
</g>
<!-- Node1&#45;&gt;Node2 -->
<g id="edge1_Node000001_Node000002" class="edge">
<title>Node1&#45;&gt;Node2</title>
<g id="a_edge1_Node000001_Node000002"><a xlink:title=" ">
<path fill="none" stroke="#63b8ff" d="M336.72,-27.5C328.05,-27.5 319.27,-27.5 311.07,-27.5"/>
<polygon fill="#63b8ff" stroke="#63b8ff" points="336.8,-31 346.8,-27.5 336.8,-24 336.8,-31"/>
</a>
</g>
</g>
<!-- Node3 -->
<g id="Node000003" class="node">
<title>Node3</title>
<g id="a_Node000003"><a xlink:href="classio.html#a65c36380ef79524e8235f792abe9625c" target="_top" xlink:title="Initializes ROOT file processing, potentially opening files specified in settings.">
<polygon fill="white" stroke="#666666" points="193,-56 110,-56 110,-37 193,-37 193,-56"/>
<text text-anchor="middle" x="151.5" y="-44" font-family="Helvetica,sans-Serif" font-size="10.00">io::root_begin</text>
</a>
</g>
</g>
<!-- Node2&#45;&gt;Node3 -->
<g id="edge2_Node000002_Node000003" class="edge">
<title>Node2&#45;&gt;Node3</title>
<g id="a_edge2_Node000002_Node000003"><a xlink:title=" ">
<path fill="none" stroke="#63b8ff" d="M218.93,-35.67C210.29,-37.07 201.41,-38.52 193.06,-39.88"/>
<polygon fill="#63b8ff" stroke="#63b8ff" points="219.6,-39.1 228.91,-34.04 218.47,-32.19 219.6,-39.1"/>
</a>
</g>
</g>
<!-- Node5 -->
<g id="Node000005" class="node">
<title>Node5</title>
<g id="a_Node000005"><a xlink:href="classio.html#a66a6d354d07e8aa4f9fdadc8f74a314b" target="_top" xlink:title="Retrieves the sizes (number of entries) of TTrees in the open ROOT files.">
<polygon fill="white" stroke="#666666" points="189.5,-19 113.5,-19 113.5,0 189.5,0 189.5,-19"/>
<text text-anchor="middle" x="151.5" y="-7" font-family="Helvetica,sans-Serif" font-size="10.00">io::root_size</text>
</a>
</g>
</g>
<!-- Node2&#45;&gt;Node5 -->
<g id="edge4_Node000002_Node000005" class="edge">
<title>Node2&#45;&gt;Node5</title>
<g id="a_edge4_Node000002_Node000005"><a xlink:title=" ">
<path fill="none" stroke="#63b8ff" d="M218.82,-19.75C208.99,-18.23 198.84,-16.66 189.53,-15.22"/>
<polygon fill="#63b8ff" stroke="#63b8ff" points="218.49,-23.24 228.91,-21.31 219.56,-16.32 218.49,-23.24"/>
</a>
</g>
</g>
<!-- Node4 -->
<g id="Node000004" class="node">
<title>Node4</title>
<g id="a_Node000004"><a xlink:href="classio.html#ae346e23a45d73c24f844827495912941" target="_top" xlink:title="Retrieves the data read from ROOT files, likely structured as a map of data_t objects.">
<polygon fill="white" stroke="#666666" points="74,-56 0,-56 0,-37 74,-37 74,-56"/>
<text text-anchor="middle" x="37" y="-44" font-family="Helvetica,sans-Serif" font-size="10.00">io::get_data</text>
</a>
</g>
</g>
<!-- Node3&#45;&gt;Node4 -->
<g id="edge3_Node000003_Node000004" class="edge">
<title>Node3&#45;&gt;Node4</title>
<g id="a_edge3_Node000003_Node000004"><a xlink:title=" ">
<path fill="none" stroke="#63b8ff" d="M99.82,-46.5C91.14,-46.5 82.28,-46.5 74.08,-46.5"/>
<polygon fill="#63b8ff" stroke="#63b8ff" points="99.88,-50 109.88,-46.5 99.88,-43 99.88,-50"/>
</a>
</g>
</g>
</g>
</svg>
