<?xml version="1.0" encoding="UTF-8" standalone="no"?>
<!DOCTYPE svg PUBLIC "-//W3C//DTD SVG 1.1//EN"
 "http://www.w3.org/Graphics/SVG/1.1/DTD/svg11.dtd">
<!-- Generated by graphviz version 2.43.0 (0)
 -->
<!-- Title: graph_jets_nonu::CompileEvent Pages: 1 -->
<!--zoomable 745 -->

<svg id="main" version="1.1" xmlns="http://www.w3.org/2000/svg" xmlns:xlink="http://www.w3.org/1999/xlink" xml:space="preserve" onload="init(evt)">
<style type="text/css"><![CDATA[
.node, .edge {opacity: 0.7;}
.node.selected, .edge.selected {opacity: 1;}
.edge:hover path { stroke: red; }
.edge:hover polygon { stroke: red; fill: red; }
]]></style>

<defs>
  <circle id="rim" cx="0" cy="0" r="7"/>
  <circle id="rim2" cx="0" cy="0" r="3.5"/>
  <g id="zoomPlus">
    <use xlink:href="#rim" fill="#404040"><set attributeName="fill" to="#808080" begin="zoomplus.mouseover" end="zoomplus.mouseout"/></use>
    <path d="M-4,0h8M0,-4v8" fill="none" stroke="white" stroke-width="1.5" pointer-events="none"/>
  </g>
  <g id="zoomMin">
    <use xlink:href="#rim" fill="#404040"><set attributeName="fill" to="#808080" begin="zoomminus.mouseover" end="zoomminus.mouseout"/></use>
    <path d="M-4,0h8" fill="none" stroke="white" stroke-width="1.5" pointer-events="none"/>
  </g>
  <g id="arrowUp" transform="translate(30 24)">
    <use xlink:href="#rim"/>
    <path pointer-events="none" fill="none" stroke="white" stroke-width="1.5" d="M0,-3.0v7 M-2.5,-0.5L0,-3.0L2.5,-0.5"/>
  </g>
  <g id="arrowRight" transform="rotate(90) translate(36 -43)">
    <use xlink:href="#rim"/>
    <path pointer-events="none" fill="none" stroke="white" stroke-width="1.5" d="M0,-3.0v7 M-2.5,-0.5L0,-3.0L2.5,-0.5"/>
  </g>
  <g id="arrowDown" transform="rotate(180) translate(-30 -48)">
    <use xlink:href="#rim"/>
    <path pointer-events="none" fill="none" stroke="white" stroke-width="1.5" d="M0,-3.0v7 M-2.5,-0.5L0,-3.0L2.5,-0.5"/>
  </g>
  <g id="arrowLeft" transform="rotate(270) translate(-36 17)">
    <use xlink:href="#rim"/>
    <path pointer-events="none" fill="none" stroke="white" stroke-width="1.5" d="M0,-3.0v7 M-2.5,-0.5L0,-3.0L2.5,-0.5"/>
  </g>
  <g id="resetDef">
    <use xlink:href="#rim2" fill="#404040"><set attributeName="fill" to="#808080" begin="reset.mouseover" end="reset.mouseout"/></use>
  </g>
</defs>
<script type="application/ecmascript">
var viewWidth = 692;
var viewHeight = 745;
var sectionId = 'dynsection-49';
</script>
<script type="application/ecmascript" xlink:href="svg.min.js"/>
<svg id="graph" class="graph">
<g id="viewport">
<title>graph_jets_nonu::CompileEvent</title>
<!-- Node1 -->
<g id="Node000001" class="node">
<title>Node1</title>
<g id="a_Node000001"><a xlink:title="Compiles the event into a graph.">
<polygon fill="#999999" stroke="#666666" points="143,-357.5 0,-357.5 0,-327.5 143,-327.5 143,-357.5"/>
<text text-anchor="start" x="8" y="-345.5" font-family="Helvetica,sans-Serif" font-size="10.00">graph_jets_nonu::Compile</text>
<text text-anchor="middle" x="71.5" y="-334.5" font-family="Helvetica,sans-Serif" font-size="10.00">Event</text>
</a>
</g>
</g>
<!-- Node2 -->
<g id="Node000002" class="node">
<title>Node2</title>
<g id="a_Node000002"><a xlink:href="classgraph__template.html#a18725eb3da8ab2866b415fed685465d1" target="_top" xlink:title="Defines which particles become graph nodes.">
<polygon fill="white" stroke="#666666" points="310.5,-736.5 180.5,-736.5 180.5,-706.5 310.5,-706.5 310.5,-736.5"/>
<text text-anchor="start" x="188.5" y="-724.5" font-family="Helvetica,sans-Serif" font-size="10.00">graph_template::define</text>
<text text-anchor="middle" x="245.5" y="-713.5" font-family="Helvetica,sans-Serif" font-size="10.00">_particle_nodes</text>
</a>
</g>
</g>
<!-- Node1&#45;&gt;Node2 -->
<g id="edge1_Node000001_Node000002" class="edge">
<title>Node1&#45;&gt;Node2</title>
<g id="a_edge1_Node000001_Node000002"><a xlink:title=" ">
<path fill="none" stroke="#63b8ff" d="M72.5,-357.63C73.31,-411.46 83.26,-595.86 179,-697.5 179.91,-698.47 180.86,-699.4 181.85,-700.29"/>
<polygon fill="#63b8ff" stroke="#63b8ff" points="179.97,-703.25 190.08,-706.41 184.15,-697.63 179.97,-703.25"/>
</a>
</g>
</g>
<!-- Node3 -->
<g id="Node000003" class="node">
<title>Node3</title>
<g id="a_Node000003"><a xlink:href="classgraph__template.html#af5d505282f6126e2fe5d2eab98507d40" target="_top" xlink:title="Defines the edge topology between nodes.">
<polygon fill="white" stroke="#666666" points="310.5,-688.5 180.5,-688.5 180.5,-658.5 310.5,-658.5 310.5,-688.5"/>
<text text-anchor="start" x="188.5" y="-676.5" font-family="Helvetica,sans-Serif" font-size="10.00">graph_template::define</text>
<text text-anchor="middle" x="245.5" y="-665.5" font-family="Helvetica,sans-Serif" font-size="10.00">_topology</text>
</a>
</g>
</g>
<!-- Node1&#45;&gt;Node3 -->
<g id="edge2_Node000001_Node000003" class="edge">
<title>Node1&#45;&gt;Node3</title>
<g id="a_edge2_Node000001_Node000003"><a xlink:title=" ">
<path fill="none" stroke="#63b8ff" d="M73.33,-357.63C76.81,-406.72 94.37,-563.4 179,-649.5 180.06,-650.58 181.17,-651.61 182.33,-652.6"/>
<polygon fill="#63b8ff" stroke="#63b8ff" points="180.38,-655.5 190.55,-658.45 184.44,-649.8 180.38,-655.5"/>
</a>
</g>
</g>
<!-- Node9 -->
<g id="Node000009" class="node">
<title>Node9</title>
<g id="a_Node000009"><a xlink:href="classgraph__template.html#aa2bef51e5e00b49425c8ac93bcd1f315" target="_top" xlink:title="Reconstructs double neutrino momenta for di&#45;leptonic events.">
<polygon fill="white" stroke="#666666" points="312,-640.5 179,-640.5 179,-610.5 312,-610.5 312,-640.5"/>
<text text-anchor="start" x="187" y="-628.5" font-family="Helvetica,sans-Serif" font-size="10.00">graph_template::double</text>
<text text-anchor="middle" x="245.5" y="-617.5" font-family="Helvetica,sans-Serif" font-size="10.00">_neutrino</text>
</a>
</g>
</g>
<!-- Node1&#45;&gt;Node9 -->
<g id="edge8_Node000001_Node000009" class="edge">
<title>Node1&#45;&gt;Node9</title>
<g id="a_edge8_Node000001_Node000009"><a xlink:title=" ">
<path fill="none" stroke="#63b8ff" d="M74.45,-357.73C80.89,-401.78 105.42,-530.72 179,-601.5 180.12,-602.58 181.29,-603.6 182.5,-604.59"/>
<polygon fill="#63b8ff" stroke="#63b8ff" points="180.84,-607.69 191.07,-610.43 184.79,-601.91 180.84,-607.69"/>
</a>
</g>
</g>
<!-- Node11 -->
<g id="Node000011" class="node">
<title>Node11</title>
<g id="a_Node000011"><a xlink:href="bsm__4tops_2include_2bsm__4tops_2graph__features_8h.html#a06342b1cfa1e60c002d2f1875c674ee8" target="_top" xlink:title=" ">
<polygon fill="white" stroke="#666666" points="289,-574 202,-574 202,-555 289,-555 289,-574"/>
<text text-anchor="middle" x="245.5" y="-562" font-family="Helvetica,sans-Serif" font-size="10.00">event_number</text>
</a>
</g>
</g>
<!-- Node1&#45;&gt;Node11 -->
<g id="edge10_Node000001_Node000011" class="edge">
<title>Node1&#45;&gt;Node11</title>
<g id="a_edge10_Node000001_Node000011"><a xlink:title=" ">
<path fill="none" stroke="#63b8ff" d="M75.98,-357.72C85.46,-395.68 115.41,-495.19 179,-546.5 183.03,-549.75 187.6,-552.41 192.41,-554.6"/>
<polygon fill="#63b8ff" stroke="#63b8ff" points="191.28,-557.91 201.87,-558.23 193.79,-551.38 191.28,-557.91"/>
</a>
</g>
</g>
<!-- Node12 -->
<g id="Node000012" class="node">
<title>Node12</title>
<g id="a_Node000012"><a xlink:href="bsm__4tops_2include_2bsm__4tops_2graph__features_8h.html#ac4429f2ee44f3a8d00eb820c7c69481d" target="_top" xlink:title=" ">
<polygon fill="white" stroke="#666666" points="287,-537 204,-537 204,-518 287,-518 287,-537"/>
<text text-anchor="middle" x="245.5" y="-525" font-family="Helvetica,sans-Serif" font-size="10.00">event_weight</text>
</a>
</g>
</g>
<!-- Node1&#45;&gt;Node12 -->
<g id="edge12_Node000001_Node000012" class="edge">
<title>Node1&#45;&gt;Node12</title>
<g id="a_edge12_Node000001_Node000012"><a xlink:title=" ">
<path fill="none" stroke="#63b8ff" d="M77.8,-357.61C90.12,-390.5 123.94,-468.87 179,-509.5 183.57,-512.87 188.73,-515.61 194.11,-517.83"/>
<polygon fill="#63b8ff" stroke="#63b8ff" points="193.34,-521.27 203.93,-521.31 195.67,-514.68 193.34,-521.27"/>
</a>
</g>
</g>
<!-- Node13 -->
<g id="Node000013" class="node">
<title>Node13</title>
<g id="a_Node000013"><a xlink:href="graph__template_8h.html#a69f5094a8d3c7a77c2eafc6257ede417" target="_top" xlink:title="Default topology function that connects all node pairs.">
<polygon fill="white" stroke="#666666" points="272.5,-500 218.5,-500 218.5,-481 272.5,-481 272.5,-500"/>
<text text-anchor="middle" x="245.5" y="-488" font-family="Helvetica,sans-Serif" font-size="10.00">fulltopo</text>
</a>
</g>
</g>
<!-- Node1&#45;&gt;Node13 -->
<g id="edge13_Node000001_Node000013" class="edge">
<title>Node1&#45;&gt;Node13</title>
<g id="a_edge13_Node000001_Node000013"><a xlink:title=" ">
<path fill="none" stroke="#63b8ff" d="M80.57,-357.51C95.99,-384.71 132.27,-442.13 179,-472.5 187.83,-478.24 198.46,-482.16 208.57,-484.84"/>
<polygon fill="#63b8ff" stroke="#63b8ff" points="207.88,-488.27 218.41,-487.12 209.46,-481.45 207.88,-488.27"/>
</a>
</g>
</g>
<!-- Node14 -->
<g id="Node000014" class="node">
<title>Node14</title>
<g id="a_Node000014"><a xlink:href="bsm__4tops_2include_2bsm__4tops_2node__features_8h.html#a3f3117b469cddb9e7a32cef78c5c085f" target="_top" xlink:title=" ">
<polygon fill="white" stroke="#666666" points="277.5,-463 213.5,-463 213.5,-444 277.5,-444 277.5,-463"/>
<text text-anchor="middle" x="245.5" y="-451" font-family="Helvetica,sans-Serif" font-size="10.00">is_bquark</text>
</a>
</g>
</g>
<!-- Node1&#45;&gt;Node14 -->
<g id="edge14_Node000001_Node000014" class="edge">
<title>Node1&#45;&gt;Node14</title>
<g id="a_edge14_Node000001_Node000014"><a xlink:title=" ">
<path fill="none" stroke="#63b8ff" d="M85.73,-357.73C104.47,-378.35 140.73,-414.94 179,-435.5 186.62,-439.59 195.24,-442.82 203.67,-445.33"/>
<polygon fill="#63b8ff" stroke="#63b8ff" points="202.85,-448.74 213.41,-447.98 204.68,-441.98 202.85,-448.74"/>
</a>
</g>
</g>
<!-- Node15 -->
<g id="Node000015" class="node">
<title>Node15</title>
<g id="a_Node000015"><a xlink:href="bsm__4tops_2include_2bsm__4tops_2node__features_8h.html#a05898150cc9167a4de297df624e6c15a" target="_top" xlink:title=" ">
<polygon fill="white" stroke="#666666" points="276,-426 215,-426 215,-407 276,-407 276,-426"/>
<text text-anchor="middle" x="245.5" y="-414" font-family="Helvetica,sans-Serif" font-size="10.00">is_lepton</text>
</a>
</g>
</g>
<!-- Node1&#45;&gt;Node15 -->
<g id="edge15_Node000001_Node000015" class="edge">
<title>Node1&#45;&gt;Node15</title>
<g id="a_edge15_Node000001_Node000015"><a xlink:title=" ">
<path fill="none" stroke="#63b8ff" d="M97.59,-357.68C118.72,-369.97 150.05,-387.07 179,-398.5 187.2,-401.74 196.19,-404.62 204.82,-407.08"/>
<polygon fill="#63b8ff" stroke="#63b8ff" points="204.14,-410.52 214.71,-409.76 205.98,-403.76 204.14,-410.52"/>
</a>
</g>
</g>
<!-- Node16 -->
<g id="Node000016" class="node">
<title>Node16</title>
<g id="a_Node000016"><a xlink:href="bsm__4tops_2include_2bsm__4tops_2graph__features_8h.html#aa3877d6a2e8b77e08262de8b557b9845" target="_top" xlink:title=" ">
<polygon fill="white" stroke="#666666" points="280.5,-389 210.5,-389 210.5,-370 280.5,-370 280.5,-389"/>
<text text-anchor="middle" x="245.5" y="-377" font-family="Helvetica,sans-Serif" font-size="10.00">missing_et</text>
</a>
</g>
</g>
<!-- Node1&#45;&gt;Node16 -->
<g id="edge16_Node000001_Node000016" class="edge">
<title>Node1&#45;&gt;Node16</title>
<g id="a_edge16_Node000001_Node000016"><a xlink:title=" ">
<path fill="none" stroke="#63b8ff" d="M142.46,-357.55C162.05,-361.76 182.8,-366.23 200.43,-370.02"/>
<polygon fill="#63b8ff" stroke="#63b8ff" points="199.9,-373.49 210.42,-372.17 201.38,-366.64 199.9,-373.49"/>
</a>
</g>
</g>
<!-- Node17 -->
<g id="Node000017" class="node">
<title>Node17</title>
<g id="a_Node000017"><a xlink:href="bsm__4tops_2include_2bsm__4tops_2graph__features_8h.html#af2c4c0d6c526b044cacd4b7a03274557" target="_top" xlink:title=" ">
<polygon fill="white" stroke="#666666" points="283,-352 208,-352 208,-333 283,-333 283,-352"/>
<text text-anchor="middle" x="245.5" y="-340" font-family="Helvetica,sans-Serif" font-size="10.00">missing_phi</text>
</a>
</g>
</g>
<!-- Node1&#45;&gt;Node17 -->
<g id="edge17_Node000001_Node000017" class="edge">
<title>Node1&#45;&gt;Node17</title>
<g id="a_edge17_Node000001_Node000017"><a xlink:title=" ">
<path fill="none" stroke="#63b8ff" d="M143.45,-342.5C161.69,-342.5 180.86,-342.5 197.54,-342.5"/>
<polygon fill="#63b8ff" stroke="#63b8ff" points="197.58,-346 207.58,-342.5 197.58,-339 197.58,-346"/>
</a>
</g>
</g>
<!-- Node18 -->
<g id="Node000018" class="node">
<title>Node18</title>
<g id="a_Node000018"><a xlink:href="bsm__4tops_2include_2bsm__4tops_2graph__features_8h.html#a1252cadaaea1ae85af27e0711b7cdf3c" target="_top" xlink:title=" ">
<polygon fill="white" stroke="#666666" points="299.5,-315 191.5,-315 191.5,-296 299.5,-296 299.5,-315"/>
<text text-anchor="middle" x="245.5" y="-303" font-family="Helvetica,sans-Serif" font-size="10.00">num_children_leps</text>
</a>
</g>
</g>
<!-- Node1&#45;&gt;Node18 -->
<g id="edge18_Node000001_Node000018" class="edge">
<title>Node1&#45;&gt;Node18</title>
<g id="a_edge18_Node000001_Node000018"><a xlink:title=" ">
<path fill="none" stroke="#63b8ff" d="M142.46,-327.45C158.33,-324.04 174.95,-320.46 190.07,-317.21"/>
<polygon fill="#63b8ff" stroke="#63b8ff" points="191.22,-320.54 200.26,-315.02 189.75,-313.7 191.22,-320.54"/>
</a>
</g>
</g>
<!-- Node19 -->
<g id="Node000019" class="node">
<title>Node19</title>
<g id="a_Node000019"><a xlink:href="bsm__4tops_2include_2bsm__4tops_2graph__features_8h.html#ae8e5a8c9e20c373fc6c4566c25f8a5e9" target="_top" xlink:title=" ">
<polygon fill="white" stroke="#666666" points="276.5,-278 214.5,-278 214.5,-259 276.5,-259 276.5,-278"/>
<text text-anchor="middle" x="245.5" y="-266" font-family="Helvetica,sans-Serif" font-size="10.00">num_jets</text>
</a>
</g>
</g>
<!-- Node1&#45;&gt;Node19 -->
<g id="edge19_Node000001_Node000019" class="edge">
<title>Node1&#45;&gt;Node19</title>
<g id="a_edge19_Node000001_Node000019"><a xlink:title=" ">
<path fill="none" stroke="#63b8ff" d="M98.1,-327.49C119.27,-315.51 150.39,-298.91 179,-287.5 187.14,-284.25 196.05,-281.29 204.61,-278.73"/>
<polygon fill="#63b8ff" stroke="#63b8ff" points="205.77,-282.04 214.42,-275.91 203.84,-275.31 205.77,-282.04"/>
</a>
</g>
</g>
<!-- Node20 -->
<g id="Node000020" class="node">
<title>Node20</title>
<g id="a_Node000020"><a xlink:href="bsm__4tops_2include_2bsm__4tops_2graph__features_8h.html#aad7321ef73eeb35377f5651c773d53c3" target="_top" xlink:title=" ">
<polygon fill="white" stroke="#666666" points="282.5,-241 208.5,-241 208.5,-222 282.5,-222 282.5,-241"/>
<text text-anchor="middle" x="245.5" y="-229" font-family="Helvetica,sans-Serif" font-size="10.00">num_lepton</text>
</a>
</g>
</g>
<!-- Node1&#45;&gt;Node20 -->
<g id="edge20_Node000001_Node000020" class="edge">
<title>Node1&#45;&gt;Node20</title>
<g id="a_edge20_Node000001_Node000020"><a xlink:title=" ">
<path fill="none" stroke="#63b8ff" d="M86.13,-327.17C105.04,-306.81 141.21,-271.02 179,-250.5 185.08,-247.2 191.8,-244.41 198.55,-242.08"/>
<polygon fill="#63b8ff" stroke="#63b8ff" points="199.9,-245.33 208.39,-238.98 197.8,-238.65 199.9,-245.33"/>
</a>
</g>
</g>
<!-- Node21 -->
<g id="Node000021" class="node">
<title>Node21</title>
<g id="a_Node000021"><a xlink:href="bsm__4tops_2include_2bsm__4tops_2graph__features_8h.html#ab67addeed0cfbc8b4e8ce19cd2e98cb4" target="_top" xlink:title=" ">
<polygon fill="white" stroke="#666666" points="278,-204 213,-204 213,-185 278,-185 278,-204"/>
<text text-anchor="middle" x="245.5" y="-192" font-family="Helvetica,sans-Serif" font-size="10.00">num_tops</text>
</a>
</g>
</g>
<!-- Node1&#45;&gt;Node21 -->
<g id="edge21_Node000001_Node000021" class="edge">
<title>Node1&#45;&gt;Node21</title>
<g id="a_edge21_Node000001_Node000021"><a xlink:title=" ">
<path fill="none" stroke="#63b8ff" d="M80.89,-327.24C96.56,-300.19 132.89,-243.81 179,-213.5 186.25,-208.73 194.72,-205.14 203.12,-202.43"/>
<polygon fill="#63b8ff" stroke="#63b8ff" points="204.21,-205.76 212.87,-199.65 202.29,-199.03 204.21,-205.76"/>
</a>
</g>
</g>
<!-- Node22 -->
<g id="Node000022" class="node">
<title>Node22</title>
<g id="a_Node000022"><a xlink:href="bsm__4tops_2include_2bsm__4tops_2edge__features_8h.html#a196518fb89ffbc60b3ca928dc80ac57d" target="_top" xlink:title=" ">
<polygon fill="white" stroke="#666666" points="276,-167 215,-167 215,-148 276,-148 276,-167"/>
<text text-anchor="middle" x="245.5" y="-155" font-family="Helvetica,sans-Serif" font-size="10.00">res_edge</text>
</a>
</g>
</g>
<!-- Node1&#45;&gt;Node22 -->
<g id="edge22_Node000001_Node000022" class="edge">
<title>Node1&#45;&gt;Node22</title>
<g id="a_edge22_Node000001_Node000022"><a xlink:title=" ">
<path fill="none" stroke="#63b8ff" d="M78.06,-327.04C90.68,-294.18 124.68,-217.06 179,-176.5 186.59,-170.83 195.84,-166.85 204.97,-164.05"/>
<polygon fill="#63b8ff" stroke="#63b8ff" points="205.97,-167.41 214.74,-161.46 204.18,-160.64 205.97,-167.41"/>
</a>
</g>
</g>
<!-- Node24 -->
<g id="Node000024" class="node">
<title>Node24</title>
<g id="a_Node000024"><a xlink:href="bsm__4tops_2include_2bsm__4tops_2node__features_8h.html#ab1c59b5f0c6a25f3a21b6ff62c95596a" target="_top" xlink:title=" ">
<polygon fill="white" stroke="#666666" points="276,-130 215,-130 215,-111 276,-111 276,-130"/>
<text text-anchor="middle" x="245.5" y="-118" font-family="Helvetica,sans-Serif" font-size="10.00">res_node</text>
</a>
</g>
</g>
<!-- Node1&#45;&gt;Node24 -->
<g id="edge24_Node000001_Node000024" class="edge">
<title>Node1&#45;&gt;Node24</title>
<g id="a_edge24_Node000001_Node000024"><a xlink:title=" ">
<path fill="none" stroke="#63b8ff" d="M76.04,-327.41C85.68,-289.76 115.97,-190.99 179,-139.5 186.41,-133.45 195.66,-129.32 204.86,-126.51"/>
<polygon fill="#63b8ff" stroke="#63b8ff" points="205.93,-129.85 214.73,-123.95 204.17,-123.08 205.93,-129.85"/>
</a>
</g>
</g>
<!-- Node25 -->
<g id="Node000025" class="node">
<title>Node25</title>
<g id="a_Node000025"><a xlink:href="bsm__4tops_2include_2bsm__4tops_2graph__features_8h.html#a50dd3e9329b3d7325cde2d4b8059cb60" target="_top" xlink:title=" ">
<polygon fill="white" stroke="#666666" points="285,-93 206,-93 206,-74 285,-74 285,-93"/>
<text text-anchor="middle" x="245.5" y="-81" font-family="Helvetica,sans-Serif" font-size="10.00">signal_event</text>
</a>
</g>
</g>
<!-- Node1&#45;&gt;Node25 -->
<g id="edge25_Node000001_Node000025" class="edge">
<title>Node1&#45;&gt;Node25</title>
<g id="a_edge25_Node000001_Node000025"><a xlink:title=" ">
<path fill="none" stroke="#63b8ff" d="M74.74,-327.23C81.79,-284.9 107.4,-165.01 179,-102.5 183.92,-98.21 189.75,-94.88 195.89,-92.31"/>
<polygon fill="#63b8ff" stroke="#63b8ff" points="197.41,-95.48 205.67,-88.85 195.08,-88.88 197.41,-95.48"/>
</a>
</g>
</g>
<!-- Node26 -->
<g id="Node000026" class="node">
<title>Node26</title>
<g id="a_Node000026"><a xlink:href="bsm__4tops_2include_2bsm__4tops_2edge__features_8h.html#af35cf309c4131ca516f825cf67635ceb" target="_top" xlink:title=" ">
<polygon fill="white" stroke="#666666" points="276.5,-56 214.5,-56 214.5,-37 276.5,-37 276.5,-56"/>
<text text-anchor="middle" x="245.5" y="-44" font-family="Helvetica,sans-Serif" font-size="10.00">top_edge</text>
</a>
</g>
</g>
<!-- Node1&#45;&gt;Node26 -->
<g id="edge26_Node000001_Node000026" class="edge">
<title>Node1&#45;&gt;Node26</title>
<g id="a_edge26_Node000001_Node000026"><a xlink:title=" ">
<path fill="none" stroke="#63b8ff" d="M73.66,-327.21C78.06,-280.45 97.83,-138.1 179,-64.5 186.06,-58.1 195.18,-53.95 204.37,-51.26"/>
<polygon fill="#63b8ff" stroke="#63b8ff" points="205.36,-54.62 214.26,-48.88 203.72,-47.82 205.36,-54.62"/>
</a>
</g>
</g>
<!-- Node28 -->
<g id="Node000028" class="node">
<title>Node28</title>
<g id="a_Node000028"><a xlink:href="bsm__4tops_2include_2bsm__4tops_2node__features_8h.html#ab2215efaacd3bffb7241a74646421796" target="_top" xlink:title=" ">
<polygon fill="white" stroke="#666666" points="276.5,-19 214.5,-19 214.5,0 276.5,0 276.5,-19"/>
<text text-anchor="middle" x="245.5" y="-7" font-family="Helvetica,sans-Serif" font-size="10.00">top_node</text>
</a>
</g>
</g>
<!-- Node1&#45;&gt;Node28 -->
<g id="edge28_Node000001_Node000028" class="edge">
<title>Node1&#45;&gt;Node28</title>
<g id="a_edge28_Node000001_Node000028"><a xlink:title=" ">
<path fill="none" stroke="#63b8ff" d="M72.87,-327.4C74.97,-276.97 88.74,-112.69 179,-27.5 185.99,-20.9 195.17,-16.68 204.44,-13.99"/>
<polygon fill="#63b8ff" stroke="#63b8ff" points="205.5,-17.34 214.43,-11.64 203.89,-10.52 205.5,-17.34"/>
</a>
</g>
</g>
<!-- Node4 -->
<g id="Node000004" class="node">
<title>Node4</title>
<g id="a_Node000004"><a xlink:href="classgraph__template.html#a255ec8fcf27b7352445397e5245cc9ef" target="_top" xlink:title=" ">
<polygon fill="white" stroke="#666666" points="458,-688.5 348,-688.5 348,-658.5 458,-658.5 458,-688.5"/>
<text text-anchor="start" x="356" y="-676.5" font-family="Helvetica,sans-Serif" font-size="10.00">graph_template::to</text>
<text text-anchor="middle" x="403" y="-665.5" font-family="Helvetica,sans-Serif" font-size="10.00">_tensor</text>
</a>
</g>
</g>
<!-- Node3&#45;&gt;Node4 -->
<g id="edge3_Node000003_Node000004" class="edge">
<title>Node3&#45;&gt;Node4</title>
<g id="a_edge3_Node000003_Node000004"><a xlink:title=" ">
<path fill="none" stroke="#63b8ff" d="M310.65,-673.5C319.64,-673.5 328.89,-673.5 337.88,-673.5"/>
<polygon fill="#63b8ff" stroke="#63b8ff" points="337.91,-677 347.91,-673.5 337.91,-670 337.91,-677"/>
</a>
</g>
</g>
<!-- Node5 -->
<g id="Node000005" class="node">
<title>Node5</title>
<g id="a_Node000005"><a xlink:href="tensor__cast_8h.html#a27121e7e5aeb77bda0453dd6214cf7fb" target="_top" xlink:title=" ">
<polygon fill="white" stroke="#666666" points="571,-683 494,-683 494,-664 571,-664 571,-683"/>
<text text-anchor="middle" x="532.5" y="-671" font-family="Helvetica,sans-Serif" font-size="10.00">build_tensor</text>
</a>
</g>
</g>
<!-- Node4&#45;&gt;Node5 -->
<g id="edge4_Node000004_Node000005" class="edge">
<title>Node4&#45;&gt;Node5</title>
<g id="a_edge4_Node000004_Node000005"><a xlink:title=" ">
<path fill="none" stroke="#63b8ff" d="M458.07,-673.5C466.66,-673.5 475.49,-673.5 483.91,-673.5"/>
<polygon fill="#63b8ff" stroke="#63b8ff" points="483.95,-677 493.95,-673.5 483.95,-670 483.95,-677"/>
</a>
</g>
</g>
<!-- Node6 -->
<g id="Node000006" class="node">
<title>Node6</title>
<g id="a_Node000006"><a xlink:href="tensor__cast_8h.html#a49d70dbad1cfb3e27ebb8960cff818bb" target="_top" xlink:title=" ">
<polygon fill="white" stroke="#666666" points="684,-720 607,-720 607,-701 684,-701 684,-720"/>
<text text-anchor="middle" x="645.5" y="-708" font-family="Helvetica,sans-Serif" font-size="10.00">as_primitive</text>
</a>
</g>
</g>
<!-- Node5&#45;&gt;Node6 -->
<g id="edge5_Node000005_Node000006" class="edge">
<title>Node5&#45;&gt;Node6</title>
<g id="a_edge5_Node000005_Node000006"><a xlink:title=" ">
<path fill="none" stroke="#63b8ff" d="M562.09,-683.03C575.45,-687.48 591.55,-692.85 605.97,-697.66"/>
<polygon fill="#63b8ff" stroke="#63b8ff" points="605.03,-701.03 615.63,-700.88 607.25,-694.39 605.03,-701.03"/>
</a>
</g>
</g>
<!-- Node7 -->
<g id="Node000007" class="node">
<title>Node7</title>
<g id="a_Node000007"><a xlink:href="tensor__cast_8h.html#af735bf7b89e3864dbde7fe5def867d4d" target="_top" xlink:title=" ">
<polygon fill="white" stroke="#666666" points="679,-683 612,-683 612,-664 679,-664 679,-683"/>
<text text-anchor="middle" x="645.5" y="-671" font-family="Helvetica,sans-Serif" font-size="10.00">scout_dim</text>
</a>
</g>
</g>
<!-- Node5&#45;&gt;Node7 -->
<g id="edge6_Node000005_Node000007" class="edge">
<title>Node5&#45;&gt;Node7</title>
<g id="a_edge6_Node000005_Node000007"><a xlink:title=" ">
<path fill="none" stroke="#63b8ff" d="M571.08,-673.5C580.88,-673.5 591.52,-673.5 601.58,-673.5"/>
<polygon fill="#63b8ff" stroke="#63b8ff" points="601.79,-677 611.79,-673.5 601.79,-670 601.79,-677"/>
</a>
</g>
</g>
<!-- Node8 -->
<g id="Node000008" class="node">
<title>Node8</title>
<g id="a_Node000008"><a xlink:href="tensor__cast_8h.html#af14120999422d60b3d0aef376398fca6" target="_top" xlink:title=" ">
<polygon fill="white" stroke="#666666" points="675,-646 616,-646 616,-627 675,-627 675,-646"/>
<text text-anchor="middle" x="645.5" y="-634" font-family="Helvetica,sans-Serif" font-size="10.00">standard</text>
</a>
</g>
</g>
<!-- Node5&#45;&gt;Node8 -->
<g id="edge7_Node000005_Node000008" class="edge">
<title>Node5&#45;&gt;Node8</title>
<g id="a_edge7_Node000005_Node000008"><a xlink:title=" ">
<path fill="none" stroke="#63b8ff" d="M562.09,-663.97C575.45,-659.52 591.55,-654.15 605.97,-649.34"/>
<polygon fill="#63b8ff" stroke="#63b8ff" points="607.25,-652.61 615.63,-646.12 605.03,-645.97 607.25,-652.61"/>
</a>
</g>
</g>
<!-- Node10 -->
<g id="Node000010" class="node">
<title>Node10</title>
<g id="a_Node000010"><a xlink:href="classtools.html#a7b784121d8b368a64995feddc7083469" target="_top" xlink:title="Sums the elements of a vector.">
<polygon fill="white" stroke="#666666" points="437,-635 369,-635 369,-616 437,-616 437,-635"/>
<text text-anchor="middle" x="403" y="-623" font-family="Helvetica,sans-Serif" font-size="10.00">tools::sum</text>
</a>
</g>
</g>
<!-- Node9&#45;&gt;Node10 -->
<g id="edge9_Node000009_Node000010" class="edge">
<title>Node9&#45;&gt;Node10</title>
<g id="a_edge9_Node000009_Node000010"><a xlink:title=" ">
<path fill="none" stroke="#63b8ff" d="M312.45,-625.5C328.03,-625.5 344.27,-625.5 358.56,-625.5"/>
<polygon fill="#63b8ff" stroke="#63b8ff" points="358.6,-629 368.6,-625.5 358.6,-622 358.6,-629"/>
</a>
</g>
</g>
<!-- Node11&#45;&gt;Node11 -->
<g id="edge11_Node000011_Node000011" class="edge">
<title>Node11&#45;&gt;Node11</title>
<g id="a_edge11_Node000011_Node000011"><a xlink:title=" ">
<path fill="none" stroke="#63b8ff" d="M221.46,-574.08C209.76,-582.73 217.77,-592 245.5,-592 263.7,-592 273.4,-588.01 274.62,-582.82"/>
<polygon fill="#63b8ff" stroke="#63b8ff" points="277.59,-580.97 269.54,-574.08 271.54,-584.49 277.59,-580.97"/>
</a>
</g>
</g>
<!-- Node23 -->
<g id="Node000023" class="node">
<title>Node23</title>
<g id="a_Node000023"><a xlink:href="bsm__4tops_2include_2bsm__4tops_2edge__features_8h.html#a9addd2275949f0828310adb01cc761a3" target="_top" xlink:title=" ">
<polygon fill="white" stroke="#666666" points="441,-167 365,-167 365,-148 441,-148 441,-167"/>
<text text-anchor="middle" x="403" y="-155" font-family="Helvetica,sans-Serif" font-size="10.00">m_res_edge</text>
</a>
</g>
</g>
<!-- Node22&#45;&gt;Node23 -->
<g id="edge23_Node000022_Node000023" class="edge">
<title>Node22&#45;&gt;Node23</title>
<g id="a_edge23_Node000022_Node000023"><a xlink:title=" ">
<path fill="none" stroke="#63b8ff" d="M276.11,-157.5C298.26,-157.5 329.01,-157.5 354.57,-157.5"/>
<polygon fill="#63b8ff" stroke="#63b8ff" points="354.8,-161 364.8,-157.5 354.8,-154 354.8,-161"/>
</a>
</g>
</g>
<!-- Node27 -->
<g id="Node000027" class="node">
<title>Node27</title>
<g id="a_Node000027"><a xlink:href="bsm__4tops_2include_2bsm__4tops_2edge__features_8h.html#a28ada91c16a5975605583559f663b268" target="_top" xlink:title=" ">
<polygon fill="white" stroke="#666666" points="441.5,-56 364.5,-56 364.5,-37 441.5,-37 441.5,-56"/>
<text text-anchor="middle" x="403" y="-44" font-family="Helvetica,sans-Serif" font-size="10.00">m_top_edge</text>
</a>
</g>
</g>
<!-- Node26&#45;&gt;Node27 -->
<g id="edge27_Node000026_Node000027" class="edge">
<title>Node26&#45;&gt;Node27</title>
<g id="a_edge27_Node000026_Node000027"><a xlink:title=" ">
<path fill="none" stroke="#63b8ff" d="M276.85,-46.5C298.84,-46.5 329,-46.5 354.2,-46.5"/>
<polygon fill="#63b8ff" stroke="#63b8ff" points="354.3,-50 364.3,-46.5 354.3,-43 354.3,-50"/>
</a>
</g>
</g>
</g>
</svg>

<g id="navigator" transform="translate(0 0)" fill="#404254">
  <rect fill="#f2f5e9" fill-opacity="0.5" stroke="#606060" stroke-width=".5" x="0" y="0" width="60" height="60"/>
  <use id="zoomplus" xlink:href="#zoomPlus" x="17" y="9" onmousedown="handleZoom(evt,'in')"/>
  <use id="zoomminus" xlink:href="#zoomMin" x="42" y="9" onmousedown="handleZoom(evt,'out')"/>
  <use id="reset" xlink:href="#resetDef" x="30" y="36" onmousedown="handleReset()"/>
   <use id="arrowup" xlink:href="#arrowUp" x="0" y="0" onmousedown="handlePan(0,-1)"/>
  <use id="arrowright" xlink:href="#arrowRight" x="0" y="0" onmousedown="handlePan(1,0)"/>
  <use id="arrowdown" xlink:href="#arrowDown" x="0" y="0" onmousedown="handlePan(0,1)"/>
  <use id="arrowleft" xlink:href="#arrowLeft" x="0" y="0" onmousedown="handlePan(-1,0)"/>
</g>
<svg viewBox="0 0 15 15" width="100%" height="30px" preserveAspectRatio="xMaxYMin meet">
 <g id="arrow_out" transform="scale(0.3 0.3)">
  <a xlink:href="classgraph__jets__nonu_a3d76d9b5885af9d1ef9c2a150acc1300_cgraph_org.svg" target="_base">
   <rect id="button" ry="5" rx="5" y="6" x="6" height="38" width="38"
        fill="#f2f5e9" fill-opacity="0.5" stroke="#606060" stroke-width="1.0"/>
   <path id="arrow"
     d="M 11.500037,31.436501 C 11.940474,20.09759 22.043105,11.32322 32.158766,21.979434 L 37.068811,17.246167 C 37.068811,17.246167 37.088388,32 37.088388,32 L 22.160133,31.978069 C 22.160133,31.978069 26.997745,27.140456 26.997745,27.140456 C 18.528582,18.264221 13.291696,25.230495 11.500037,31.436501 z"
     style="fill:#404040;"/>
  </a>
 </g>
</svg>

<style type='text/css'>
<![CDATA[
[data-mouse-over-selected='false'] { opacity: 0.7; }
[data-mouse-over-selected='true']  { opacity: 1.0; }
]]>
</style>
<script type="application/ecmascript"><![CDATA[
document.addEventListener('DOMContentLoaded', (event) => {
  highlightEdges();
  highlightAdjacentNodes();
});
]]></script>
</svg>
