<?xml version="1.0" encoding="UTF-8" standalone="no"?>
<!DOCTYPE svg PUBLIC "-//W3C//DTD SVG 1.1//EN"
 "http://www.w3.org/Graphics/SVG/1.1/DTD/svg11.dtd">
<!-- Generated by graphviz version 2.43.0 (0)
 -->
<!-- Title: analysis::analysis Pages: 1 -->
<svg width="492pt" height="177pt"
 viewBox="0.00 0.00 492.00 177.00" xmlns="http://www.w3.org/2000/svg" xmlns:xlink="http://www.w3.org/1999/xlink">
<g id="graph0" class="graph" transform="scale(1 1) rotate(0) translate(4 173)">
<title>analysis::analysis</title>
<!-- Node1 -->
<g id="Node000001" class="node">
<title>Node1</title>
<g id="a_Node000001"><a xlink:title="&lt; Public access specifier for the following members.">
<polygon fill="#999999" stroke="#666666" points="104,-94 0,-94 0,-75 104,-75 104,-94"/>
<text text-anchor="middle" x="52" y="-82" font-family="Helvetica,sans-Serif" font-size="10.00">analysis::analysis</text>
</a>
</g>
</g>
<!-- Node2 -->
<g id="Node000002" class="node">
<title>Node2</title>
<g id="a_Node000002"><a xlink:href="classtools.html#a408b66ad73b7b4bb962634c14a55b619" target="_top" xlink:title="Converts a relative path to an absolute path.">
<polygon fill="white" stroke="#666666" points="256,-169 140,-169 140,-150 256,-150 256,-169"/>
<text text-anchor="middle" x="198" y="-157" font-family="Helvetica,sans-Serif" font-size="10.00">tools::absolute_path</text>
</a>
</g>
</g>
<!-- Node1&#45;&gt;Node2 -->
<g id="edge1_Node000001_Node000002" class="edge">
<title>Node1&#45;&gt;Node2</title>
<g id="a_edge1_Node000001_Node000002"><a xlink:title=" ">
<path fill="none" stroke="#63b8ff" d="M65.32,-94.15C81.62,-106.54 111.61,-128.03 140,-141.5 143.8,-143.3 147.82,-144.98 151.9,-146.54"/>
<polygon fill="#63b8ff" stroke="#63b8ff" points="150.86,-149.88 161.45,-149.93 153.2,-143.29 150.86,-149.88"/>
</a>
</g>
</g>
<!-- Node3 -->
<g id="Node000003" class="node">
<title>Node3</title>
<g id="a_Node000003"><a xlink:href="structs_2cxx_2base_8cxx.html#aa67f17555eea254a2f080d4bfaa19262" target="_top" xlink:title="Builds all required dictionaries.">
<polygon fill="white" stroke="#666666" points="224.5,-132 171.5,-132 171.5,-113 224.5,-113 224.5,-132"/>
<text text-anchor="middle" x="198" y="-120" font-family="Helvetica,sans-Serif" font-size="10.00">buildAll</text>
</a>
</g>
</g>
<!-- Node1&#45;&gt;Node3 -->
<g id="edge2_Node000001_Node000003" class="edge">
<title>Node1&#45;&gt;Node3</title>
<g id="a_edge2_Node000001_Node000003"><a xlink:title=" ">
<path fill="none" stroke="#63b8ff" d="M89.34,-94.09C111.35,-99.9 139.3,-107.27 161.21,-113.06"/>
<polygon fill="#63b8ff" stroke="#63b8ff" points="160.56,-116.5 171.12,-115.67 162.34,-109.73 160.56,-116.5"/>
</a>
</g>
</g>
<!-- Node5 -->
<g id="Node000005" class="node">
<title>Node5</title>
<g id="a_Node000005"><a xlink:href="structs_2cxx_2base_8cxx.html#a25eaf56fcdb4b2d9583f6d55ee6bd9b7" target="_top" xlink:title="Builds a dictionary for the given type name.">
<polygon fill="white" stroke="#666666" points="484,-113 424,-113 424,-94 484,-94 484,-113"/>
<text text-anchor="middle" x="454" y="-101" font-family="Helvetica,sans-Serif" font-size="10.00">buildDict</text>
</a>
</g>
</g>
<!-- Node1&#45;&gt;Node5 -->
<g id="edge5_Node000001_Node000005" class="edge">
<title>Node1&#45;&gt;Node5</title>
<g id="a_edge5_Node000001_Node000005"><a xlink:title=" ">
<path fill="none" stroke="#63b8ff" d="M104.07,-86.93C184.97,-90.77 340.87,-98.17 413.71,-101.63"/>
<polygon fill="#63b8ff" stroke="#63b8ff" points="413.68,-105.14 423.83,-102.11 414.01,-98.14 413.68,-105.14"/>
</a>
</g>
</g>
<!-- Node6 -->
<g id="Node000006" class="node">
<title>Node6</title>
<g id="a_Node000006"><a xlink:href="classtools.html#aed9f3247b474a8fb1840860d51cde7ca" target="_top" xlink:title="Creates a directory path, including parent directories if needed.">
<polygon fill="white" stroke="#666666" points="250,-56 146,-56 146,-37 250,-37 250,-56"/>
<text text-anchor="middle" x="198" y="-44" font-family="Helvetica,sans-Serif" font-size="10.00">tools::create_path</text>
</a>
</g>
</g>
<!-- Node1&#45;&gt;Node6 -->
<g id="edge6_Node000001_Node000006" class="edge">
<title>Node1&#45;&gt;Node6</title>
<g id="a_edge6_Node000001_Node000006"><a xlink:title=" ">
<path fill="none" stroke="#63b8ff" d="M89.34,-74.91C108.08,-69.96 131.14,-63.88 151.11,-58.61"/>
<polygon fill="#63b8ff" stroke="#63b8ff" points="152.15,-61.96 160.92,-56.02 150.36,-55.19 152.15,-61.96"/>
</a>
</g>
</g>
<!-- Node8 -->
<g id="Node000008" class="node">
<title>Node8</title>
<g id="a_Node000008"><a xlink:href="classtools.html#a5ab0f2cc351dd97951358ebe19e9c18d" target="_top" xlink:title="Lists files in a directory, optionally filtered by extension.">
<polygon fill="white" stroke="#666666" points="225.5,-19 170.5,-19 170.5,0 225.5,0 225.5,-19"/>
<text text-anchor="middle" x="198" y="-7" font-family="Helvetica,sans-Serif" font-size="10.00">tools::ls</text>
</a>
</g>
</g>
<!-- Node1&#45;&gt;Node8 -->
<g id="edge8_Node000001_Node000008" class="edge">
<title>Node1&#45;&gt;Node8</title>
<g id="a_edge8_Node000001_Node000008"><a xlink:title=" ">
<path fill="none" stroke="#63b8ff" d="M65.32,-74.85C81.62,-62.46 111.61,-40.97 140,-27.5 146.43,-24.45 153.5,-21.75 160.4,-19.42"/>
<polygon fill="#63b8ff" stroke="#63b8ff" points="161.84,-22.63 170.32,-16.28 159.73,-15.96 161.84,-22.63"/>
</a>
</g>
</g>
<!-- Node4 -->
<g id="Node000004" class="node">
<title>Node4</title>
<g id="a_Node000004"><a xlink:href="structs_2cxx_2base_8cxx.html#a96c2f5b7a58cb27671db52cf01b24c35" target="_top" xlink:title="Builds a PCM file for the given type.">
<polygon fill="white" stroke="#666666" points="371,-132 309,-132 309,-113 371,-113 371,-132"/>
<text text-anchor="middle" x="340" y="-120" font-family="Helvetica,sans-Serif" font-size="10.00">buildPCM</text>
</a>
</g>
</g>
<!-- Node3&#45;&gt;Node4 -->
<g id="edge3_Node000003_Node000004" class="edge">
<title>Node3&#45;&gt;Node4</title>
<g id="a_edge3_Node000003_Node000004"><a xlink:title=" ">
<path fill="none" stroke="#63b8ff" d="M224.68,-122.5C245.38,-122.5 274.86,-122.5 298.7,-122.5"/>
<polygon fill="#63b8ff" stroke="#63b8ff" points="298.86,-126 308.86,-122.5 298.86,-119 298.86,-126"/>
</a>
</g>
</g>
<!-- Node4&#45;&gt;Node5 -->
<g id="edge4_Node000004_Node000005" class="edge">
<title>Node4&#45;&gt;Node5</title>
<g id="a_edge4_Node000004_Node000005"><a xlink:title=" ">
<path fill="none" stroke="#63b8ff" d="M371.01,-117.41C384.15,-115.18 399.75,-112.53 413.79,-110.15"/>
<polygon fill="#63b8ff" stroke="#63b8ff" points="414.4,-113.6 423.68,-108.47 413.23,-106.7 414.4,-113.6"/>
</a>
</g>
</g>
<!-- Node7 -->
<g id="Node000007" class="node">
<title>Node7</title>
<g id="a_Node000007"><a xlink:href="classtools.html#a352a6965f2f3c768f0f4ecd1f978fcc0" target="_top" xlink:title="Splits a string into a vector of substrings based on a delimiter.">
<polygon fill="white" stroke="#666666" points="374,-56 306,-56 306,-37 374,-37 374,-56"/>
<text text-anchor="middle" x="340" y="-44" font-family="Helvetica,sans-Serif" font-size="10.00">tools::split</text>
</a>
</g>
</g>
<!-- Node6&#45;&gt;Node7 -->
<g id="edge7_Node000006_Node000007" class="edge">
<title>Node6&#45;&gt;Node7</title>
<g id="a_edge7_Node000006_Node000007"><a xlink:title=" ">
<path fill="none" stroke="#63b8ff" d="M250.34,-46.5C265.28,-46.5 281.45,-46.5 295.84,-46.5"/>
<polygon fill="#63b8ff" stroke="#63b8ff" points="295.96,-50 305.96,-46.5 295.96,-43 295.96,-50"/>
</a>
</g>
</g>
<!-- Node8&#45;&gt;Node7 -->
<g id="edge10_Node000008_Node000007" class="edge">
<title>Node8&#45;&gt;Node7</title>
<g id="a_edge10_Node000008_Node000007"><a xlink:title=" ">
<path fill="none" stroke="#63b8ff" d="M225.66,-16.55C245.5,-21.79 272.98,-29.05 295.92,-35.11"/>
<polygon fill="#63b8ff" stroke="#63b8ff" points="295.2,-38.55 305.77,-37.72 296.99,-31.78 295.2,-38.55"/>
</a>
</g>
</g>
<!-- Node9 -->
<g id="Node000009" class="node">
<title>Node9</title>
<g id="a_Node000009"><a xlink:href="classtools.html#a3d538da5310467c9321b27cd6a75b9af" target="_top" xlink:title="Checks if a string ends with a specific substring.">
<polygon fill="white" stroke="#666666" points="388,-19 292,-19 292,0 388,0 388,-19"/>
<text text-anchor="middle" x="340" y="-7" font-family="Helvetica,sans-Serif" font-size="10.00">tools::ends_with</text>
</a>
</g>
</g>
<!-- Node8&#45;&gt;Node9 -->
<g id="edge9_Node000008_Node000009" class="edge">
<title>Node8&#45;&gt;Node9</title>
<g id="a_edge9_Node000008_Node000009"><a xlink:title=" ">
<path fill="none" stroke="#63b8ff" d="M225.66,-9.5C241.54,-9.5 262.32,-9.5 281.74,-9.5"/>
<polygon fill="#63b8ff" stroke="#63b8ff" points="281.75,-13 291.74,-9.5 281.74,-6 281.75,-13"/>
</a>
</g>
</g>
</g>
</svg>
