<?xml version="1.0" encoding="UTF-8" standalone="no"?>
<!DOCTYPE svg PUBLIC "-//W3C//DTD SVG 1.1//EN"
 "http://www.w3.org/Graphics/SVG/1.1/DTD/svg11.dtd">
<!-- Generated by graphviz version 2.43.0 (0)
 -->
<!-- Title: tools::flush Pages: 1 -->
<svg width="479pt" height="168pt"
 viewBox="0.00 0.00 479.00 168.00" xmlns="http://www.w3.org/2000/svg" xmlns:xlink="http://www.w3.org/1999/xlink">
<g id="graph0" class="graph" transform="scale(1 1) rotate(0) translate(4 164)">
<title>tools::flush</title>
<!-- Node1 -->
<g id="Node000001" class="node">
<title>Node1</title>
<g id="a_Node000001"><a xlink:title="Empties a vector and all objects it points to.">
<polygon fill="#999999" stroke="#666666" points="471,-101 401,-101 401,-82 471,-82 471,-101"/>
<text text-anchor="middle" x="436" y="-89" font-family="Helvetica,sans-Serif" font-size="10.00">tools::flush</text>
</a>
</g>
</g>
<!-- Node2 -->
<g id="Node000002" class="node">
<title>Node2</title>
<g id="a_Node000002"><a xlink:href="classanalysis.html#af5938086aabb68bf478a72b0593e4bb8" target="_top" xlink:title="Destructor for the analysis class.">
<polygon fill="white" stroke="#666666" points="353,-160 241,-160 241,-141 353,-141 353,-160"/>
<text text-anchor="middle" x="297" y="-148" font-family="Helvetica,sans-Serif" font-size="10.00">analysis::~analysis</text>
</a>
</g>
</g>
<!-- Node1&#45;&gt;Node2 -->
<g id="edge1_Node000001_Node000002" class="edge">
<title>Node1&#45;&gt;Node2</title>
<g id="a_edge1_Node000001_Node000002"><a xlink:title=" ">
<path fill="none" stroke="#63b8ff" d="M412.59,-106.71C399.23,-115.23 381.68,-125.52 365,-132.5 357.22,-135.75 348.69,-138.57 340.39,-140.95"/>
<polygon fill="#63b8ff" stroke="#63b8ff" points="414.64,-109.55 421.1,-101.15 410.82,-103.69 414.64,-109.55"/>
</a>
</g>
</g>
<!-- Node3 -->
<g id="Node000003" class="node">
<title>Node3</title>
<g id="a_Node000003"><a xlink:href="classdataloader.html#aa60a898ed2af2da010a0db8563a37e86" target="_top" xlink:title=" ">
<polygon fill="white" stroke="#666666" points="365,-123 229,-123 229,-104 365,-104 365,-123"/>
<text text-anchor="middle" x="297" y="-111" font-family="Helvetica,sans-Serif" font-size="10.00">dataloader::~dataloader</text>
</a>
</g>
</g>
<!-- Node1&#45;&gt;Node3 -->
<g id="edge2_Node000001_Node000003" class="edge">
<title>Node1&#45;&gt;Node3</title>
<g id="a_edge2_Node000001_Node000003"><a xlink:title=" ">
<path fill="none" stroke="#63b8ff" d="M390.86,-98.59C380.19,-100.3 368.6,-102.16 357.35,-103.97"/>
<polygon fill="#63b8ff" stroke="#63b8ff" points="391.46,-102.04 400.78,-96.99 390.35,-95.12 391.46,-102.04"/>
</a>
</g>
</g>
<!-- Node4 -->
<g id="Node000004" class="node">
<title>Node4</title>
<g id="a_Node000004"><a xlink:href="classsampletracer.html#a30d25d5a298b3c5698aee99ede11ce79" target="_top" xlink:title="Compiles objects concurrently using multiple threads.">
<polygon fill="white" stroke="#666666" points="360,-85.5 234,-85.5 234,-55.5 360,-55.5 360,-85.5"/>
<text text-anchor="start" x="242" y="-73.5" font-family="Helvetica,sans-Serif" font-size="10.00">sampletracer::compile</text>
<text text-anchor="middle" x="297" y="-62.5" font-family="Helvetica,sans-Serif" font-size="10.00">_objects</text>
</a>
</g>
</g>
<!-- Node1&#45;&gt;Node4 -->
<g id="edge3_Node000001_Node000004" class="edge">
<title>Node1&#45;&gt;Node4</title>
<g id="a_edge3_Node000001_Node000004"><a xlink:title=" ">
<path fill="none" stroke="#63b8ff" d="M390.86,-84.73C381.03,-83.23 370.44,-81.6 360.04,-80.01"/>
<polygon fill="#63b8ff" stroke="#63b8ff" points="390.37,-88.2 400.78,-86.25 391.43,-81.28 390.37,-88.2"/>
</a>
</g>
</g>
<!-- Node5 -->
<g id="Node000005" class="node">
<title>Node5</title>
<g id="a_Node000005"><a xlink:href="classio.html#a1c994985d2405202c19fb391cc43a5de" target="_top" xlink:title="Finalizes ROOT file processing, closing any ROOT files opened by root_begin.">
<polygon fill="white" stroke="#666666" points="334,-37 260,-37 260,-18 334,-18 334,-37"/>
<text text-anchor="middle" x="297" y="-25" font-family="Helvetica,sans-Serif" font-size="10.00">io::root_end</text>
</a>
</g>
</g>
<!-- Node1&#45;&gt;Node5 -->
<g id="edge4_Node000001_Node000005" class="edge">
<title>Node1&#45;&gt;Node5</title>
<g id="a_edge4_Node000001_Node000005"><a xlink:title=" ">
<path fill="none" stroke="#63b8ff" d="M414.15,-75.77C400.69,-66.22 382.5,-54.4 365,-46.5 355.3,-42.12 344.35,-38.51 334.16,-35.65"/>
<polygon fill="#63b8ff" stroke="#63b8ff" points="412.1,-78.6 422.25,-81.65 416.21,-72.94 412.1,-78.6"/>
</a>
</g>
</g>
<!-- Node6 -->
<g id="Node000006" class="node">
<title>Node6</title>
<g id="a_Node000006"><a xlink:href="classio.html#a4837676c45d56b2de96228e5fbea33ce" target="_top" xlink:title="Destructor for the io class.">
<polygon fill="white" stroke="#666666" points="176,-56 127,-56 127,-37 176,-37 176,-56"/>
<text text-anchor="middle" x="151.5" y="-44" font-family="Helvetica,sans-Serif" font-size="10.00">io::~io</text>
</a>
</g>
</g>
<!-- Node5&#45;&gt;Node6 -->
<g id="edge5_Node000005_Node000006" class="edge">
<title>Node5&#45;&gt;Node6</title>
<g id="a_edge5_Node000005_Node000006"><a xlink:title=" ">
<path fill="none" stroke="#63b8ff" d="M249.59,-33.64C225.06,-36.89 195.99,-40.74 176.1,-43.38"/>
<polygon fill="#63b8ff" stroke="#63b8ff" points="250.33,-37.08 259.79,-32.29 249.42,-30.14 250.33,-37.08"/>
</a>
</g>
</g>
<!-- Node7 -->
<g id="Node000007" class="node">
<title>Node7</title>
<g id="a_Node000007"><a xlink:href="classio.html#a65c36380ef79524e8235f792abe9625c" target="_top" xlink:title="Initializes ROOT file processing, potentially opening files specified in settings.">
<polygon fill="white" stroke="#666666" points="193,-19 110,-19 110,0 193,0 193,-19"/>
<text text-anchor="middle" x="151.5" y="-7" font-family="Helvetica,sans-Serif" font-size="10.00">io::root_begin</text>
</a>
</g>
</g>
<!-- Node5&#45;&gt;Node7 -->
<g id="edge6_Node000005_Node000007" class="edge">
<title>Node5&#45;&gt;Node7</title>
<g id="a_edge6_Node000005_Node000007"><a xlink:title=" ">
<path fill="none" stroke="#63b8ff" d="M249.66,-21.69C231.41,-19.4 210.64,-16.79 193,-14.58"/>
<polygon fill="#63b8ff" stroke="#63b8ff" points="249.43,-25.19 259.79,-22.96 250.3,-18.24 249.43,-25.19"/>
</a>
</g>
</g>
<!-- Node8 -->
<g id="Node000008" class="node">
<title>Node8</title>
<g id="a_Node000008"><a xlink:href="classio.html#ae346e23a45d73c24f844827495912941" target="_top" xlink:title="Retrieves the data read from ROOT files, likely structured as a map of data_t objects.">
<polygon fill="white" stroke="#666666" points="74,-19 0,-19 0,0 74,0 74,-19"/>
<text text-anchor="middle" x="37" y="-7" font-family="Helvetica,sans-Serif" font-size="10.00">io::get_data</text>
</a>
</g>
</g>
<!-- Node7&#45;&gt;Node8 -->
<g id="edge7_Node000007_Node000008" class="edge">
<title>Node7&#45;&gt;Node8</title>
<g id="a_edge7_Node000007_Node000008"><a xlink:title=" ">
<path fill="none" stroke="#63b8ff" d="M99.82,-9.5C91.14,-9.5 82.28,-9.5 74.08,-9.5"/>
<polygon fill="#63b8ff" stroke="#63b8ff" points="99.88,-13 109.88,-9.5 99.88,-6 99.88,-13"/>
</a>
</g>
</g>
</g>
</svg>
