<?xml version="1.0" encoding="UTF-8" standalone="no"?>
<!DOCTYPE svg PUBLIC "-//W3C//DTD SVG 1.1//EN"
 "http://www.w3.org/Graphics/SVG/1.1/DTD/svg11.dtd">
<!-- Generated by graphviz version 2.43.0 (0)
 -->
<!-- Title: meta::scan_data Pages: 1 -->
<!--zoomable 214 -->

<svg id="main" version="1.1" xmlns="http://www.w3.org/2000/svg" xmlns:xlink="http://www.w3.org/1999/xlink" xml:space="preserve" onload="init(evt)">
<style type="text/css"><![CDATA[
.node, .edge {opacity: 0.7;}
.node.selected, .edge.selected {opacity: 1;}
.edge:hover path { stroke: red; }
.edge:hover polygon { stroke: red; fill: red; }
]]></style>

<defs>
  <circle id="rim" cx="0" cy="0" r="7"/>
  <circle id="rim2" cx="0" cy="0" r="3.5"/>
  <g id="zoomPlus">
    <use xlink:href="#rim" fill="#404040"><set attributeName="fill" to="#808080" begin="zoomplus.mouseover" end="zoomplus.mouseout"/></use>
    <path d="M-4,0h8M0,-4v8" fill="none" stroke="white" stroke-width="1.5" pointer-events="none"/>
  </g>
  <g id="zoomMin">
    <use xlink:href="#rim" fill="#404040"><set attributeName="fill" to="#808080" begin="zoomminus.mouseover" end="zoomminus.mouseout"/></use>
    <path d="M-4,0h8" fill="none" stroke="white" stroke-width="1.5" pointer-events="none"/>
  </g>
  <g id="arrowUp" transform="translate(30 24)">
    <use xlink:href="#rim"/>
    <path pointer-events="none" fill="none" stroke="white" stroke-width="1.5" d="M0,-3.0v7 M-2.5,-0.5L0,-3.0L2.5,-0.5"/>
  </g>
  <g id="arrowRight" transform="rotate(90) translate(36 -43)">
    <use xlink:href="#rim"/>
    <path pointer-events="none" fill="none" stroke="white" stroke-width="1.5" d="M0,-3.0v7 M-2.5,-0.5L0,-3.0L2.5,-0.5"/>
  </g>
  <g id="arrowDown" transform="rotate(180) translate(-30 -48)">
    <use xlink:href="#rim"/>
    <path pointer-events="none" fill="none" stroke="white" stroke-width="1.5" d="M0,-3.0v7 M-2.5,-0.5L0,-3.0L2.5,-0.5"/>
  </g>
  <g id="arrowLeft" transform="rotate(270) translate(-36 17)">
    <use xlink:href="#rim"/>
    <path pointer-events="none" fill="none" stroke="white" stroke-width="1.5" d="M0,-3.0v7 M-2.5,-0.5L0,-3.0L2.5,-0.5"/>
  </g>
  <g id="resetDef">
    <use xlink:href="#rim2" fill="#404040"><set attributeName="fill" to="#808080" begin="reset.mouseover" end="reset.mouseout"/></use>
  </g>
</defs>
<script type="application/ecmascript">
var viewWidth = 520;
var viewHeight = 214;
var sectionId = 'dynsection-82';
</script>
<script type="application/ecmascript" xlink:href="svg.min.js"/>
<svg id="graph" class="graph">
<g id="viewport">
<title>meta::scan_data</title>
<!-- Node1 -->
<g id="Node000001" class="node">
<title>Node1</title>
<g id="a_Node000001"><a xlink:title="Scans data from a generic ROOT object (e.g., TTree, TH1).">
<polygon fill="#999999" stroke="#666666" points="98,-95 0,-95 0,-76 98,-76 98,-95"/>
<text text-anchor="middle" x="49" y="-83" font-family="Helvetica,sans-Serif" font-size="10.00">meta::scan_data</text>
</a>
</g>
</g>
<!-- Node2 -->
<g id="Node000002" class="node">
<title>Node2</title>
<g id="a_Node000002"><a xlink:href="classmeta.html#aaed15ab5be8f7a86c79373f24abfc952" target="_top" xlink:title="Parses a JSON string to extract metadata.">
<polygon fill="white" stroke="#666666" points="235,-151 134,-151 134,-132 235,-132 235,-151"/>
<text text-anchor="middle" x="184.5" y="-139" font-family="Helvetica,sans-Serif" font-size="10.00">meta::parse_json</text>
</a>
</g>
</g>
<!-- Node1&#45;&gt;Node2 -->
<g id="edge1_Node000001_Node000002" class="edge">
<title>Node1&#45;&gt;Node2</title>
<g id="a_edge1_Node000001_Node000002"><a xlink:title=" ">
<path fill="none" stroke="#63b8ff" d="M72.95,-95.13C94.57,-104.2 127.17,-117.87 151.38,-128.02"/>
<polygon fill="#63b8ff" stroke="#63b8ff" points="150.27,-131.36 160.85,-132 152.98,-124.9 150.27,-131.36"/>
</a>
</g>
</g>
<!-- Node8 -->
<g id="Node000008" class="node">
<title>Node8</title>
<g id="a_Node000008"><a xlink:href="classmeta.html#a4edf9b754591ddfde876090af1014dd4" target="_top" xlink:title="Parses a string value from a TTree based on a key.">
<polygon fill="white" stroke="#666666" points="379,-95 271,-95 271,-76 379,-76 379,-95"/>
<text text-anchor="middle" x="325" y="-83" font-family="Helvetica,sans-Serif" font-size="10.00">meta::parse_string</text>
</a>
</g>
</g>
<!-- Node1&#45;&gt;Node8 -->
<g id="edge7_Node000001_Node000008" class="edge">
<title>Node1&#45;&gt;Node8</title>
<g id="a_edge7_Node000001_Node000008"><a xlink:title=" ">
<path fill="none" stroke="#63b8ff" d="M98.04,-85.5C143.18,-85.5 211.01,-85.5 260.57,-85.5"/>
<polygon fill="#63b8ff" stroke="#63b8ff" points="260.86,-89 270.86,-85.5 260.86,-82 260.86,-89"/>
</a>
</g>
</g>
<!-- Node9 -->
<g id="Node000009" class="node">
<title>Node9</title>
<g id="a_Node000009"><a xlink:href="classmeta.html#a24d8657dbb9d0d8903725ee01fe22c14" target="_top" xlink:title="Scans sum of weights (SoW) information from a ROOT object.">
<polygon fill="white" stroke="#666666" points="232,-57 137,-57 137,-38 232,-38 232,-57"/>
<text text-anchor="middle" x="184.5" y="-45" font-family="Helvetica,sans-Serif" font-size="10.00">meta::scan_sow</text>
</a>
</g>
</g>
<!-- Node1&#45;&gt;Node9 -->
<g id="edge8_Node000001_Node000009" class="edge">
<title>Node1&#45;&gt;Node9</title>
<g id="a_edge8_Node000001_Node000009"><a xlink:title=" ">
<path fill="none" stroke="#63b8ff" d="M83.69,-75.91C100.76,-71.05 121.7,-65.09 139.98,-59.89"/>
<polygon fill="#63b8ff" stroke="#63b8ff" points="141.16,-63.19 149.82,-57.09 139.25,-56.46 141.16,-63.19"/>
</a>
</g>
</g>
<!-- Node3 -->
<g id="Node000003" class="node">
<title>Node3</title>
<g id="a_Node000003"><a xlink:href="classmeta.html#aac47e377d2bbda2fac5a8cfc5ada7243" target="_top" xlink:title="Internal method to compile or process metadata after parsing.">
<polygon fill="white" stroke="#666666" points="370.5,-206 279.5,-206 279.5,-187 370.5,-187 370.5,-206"/>
<text text-anchor="middle" x="325" y="-194" font-family="Helvetica,sans-Serif" font-size="10.00">meta::compiler</text>
</a>
</g>
</g>
<!-- Node2&#45;&gt;Node3 -->
<g id="edge2_Node000002_Node000003" class="edge">
<title>Node2&#45;&gt;Node3</title>
<g id="a_edge2_Node000002_Node000003"><a xlink:title=" ">
<path fill="none" stroke="#63b8ff" d="M206.39,-151.1C223.58,-158.87 248.66,-169.89 271,-178.5 275.47,-180.22 280.18,-181.95 284.88,-183.61"/>
<polygon fill="#63b8ff" stroke="#63b8ff" points="283.82,-186.95 294.41,-186.92 286.11,-180.34 283.82,-186.95"/>
</a>
</g>
</g>
<!-- Node6 -->
<g id="Node000006" class="node">
<title>Node6</title>
<g id="a_Node000006"><a xlink:href="classtools.html#a3d538da5310467c9321b27cd6a75b9af" target="_top" xlink:title="Checks if a string ends with a specific substring.">
<polygon fill="white" stroke="#666666" points="373,-169 277,-169 277,-150 373,-150 373,-169"/>
<text text-anchor="middle" x="325" y="-157" font-family="Helvetica,sans-Serif" font-size="10.00">tools::ends_with</text>
</a>
</g>
</g>
<!-- Node2&#45;&gt;Node6 -->
<g id="edge5_Node000002_Node000006" class="edge">
<title>Node2&#45;&gt;Node6</title>
<g id="a_edge5_Node000002_Node000006"><a xlink:title=" ">
<path fill="none" stroke="#63b8ff" d="M235.11,-147.95C245.24,-149.26 255.98,-150.66 266.36,-152.01"/>
<polygon fill="#63b8ff" stroke="#63b8ff" points="266.22,-155.52 276.59,-153.34 267.12,-148.58 266.22,-155.52"/>
</a>
</g>
</g>
<!-- Node7 -->
<g id="Node000007" class="node">
<title>Node7</title>
<g id="a_Node000007"><a xlink:href="classtools.html#aeae88ebd7116d59008600f0723716dba" target="_top" xlink:title="Replaces all occurrences of a substring in a string.">
<polygon fill="white" stroke="#666666" points="366.5,-132 283.5,-132 283.5,-113 366.5,-113 366.5,-132"/>
<text text-anchor="middle" x="325" y="-120" font-family="Helvetica,sans-Serif" font-size="10.00">tools::replace</text>
</a>
</g>
</g>
<!-- Node2&#45;&gt;Node7 -->
<g id="edge6_Node000002_Node000007" class="edge">
<title>Node2&#45;&gt;Node7</title>
<g id="a_edge6_Node000002_Node000007"><a xlink:title=" ">
<path fill="none" stroke="#63b8ff" d="M235.11,-134.69C247.48,-133 260.76,-131.18 273.19,-129.47"/>
<polygon fill="#63b8ff" stroke="#63b8ff" points="273.96,-132.9 283.39,-128.07 273.01,-125.96 273.96,-132.9"/>
</a>
</g>
</g>
<!-- Node4 -->
<g id="Node000004" class="node">
<title>Node4</title>
<g id="a_Node000004"><a xlink:href="classtools.html#ad7229c72cee65da3605c4be82f9b42d4" target="_top" xlink:title="Checks if a string contains a specific substring.">
<polygon fill="white" stroke="#666666" points="512,-113 415,-113 415,-94 512,-94 512,-113"/>
<text text-anchor="middle" x="463.5" y="-101" font-family="Helvetica,sans-Serif" font-size="10.00">tools::has_string</text>
</a>
</g>
</g>
<!-- Node3&#45;&gt;Node4 -->
<g id="edge3_Node000003_Node000004" class="edge">
<title>Node3&#45;&gt;Node4</title>
<g id="a_edge3_Node000003_Node000004"><a xlink:title=" ">
<path fill="none" stroke="#63b8ff" d="M360.82,-186.93C367.07,-184.59 373.38,-181.79 379,-178.5 405.88,-162.76 431.75,-137.44 447.39,-120.63"/>
<polygon fill="#63b8ff" stroke="#63b8ff" points="450.06,-122.9 454.2,-113.15 444.88,-118.19 450.06,-122.9"/>
</a>
</g>
</g>
<!-- Node5 -->
<g id="Node000005" class="node">
<title>Node5</title>
<g id="a_Node000005"><a xlink:href="classtools.html#a352a6965f2f3c768f0f4ecd1f978fcc0" target="_top" xlink:title="Splits a string into a vector of substrings based on a delimiter.">
<polygon fill="white" stroke="#666666" points="497.5,-206 429.5,-206 429.5,-187 497.5,-187 497.5,-206"/>
<text text-anchor="middle" x="463.5" y="-194" font-family="Helvetica,sans-Serif" font-size="10.00">tools::split</text>
</a>
</g>
</g>
<!-- Node3&#45;&gt;Node5 -->
<g id="edge4_Node000003_Node000005" class="edge">
<title>Node3&#45;&gt;Node5</title>
<g id="a_edge4_Node000003_Node000005"><a xlink:title=" ">
<path fill="none" stroke="#63b8ff" d="M370.7,-196.5C386.24,-196.5 403.63,-196.5 419.07,-196.5"/>
<polygon fill="#63b8ff" stroke="#63b8ff" points="419.4,-200 429.4,-196.5 419.4,-193 419.4,-200"/>
</a>
</g>
</g>
<!-- Node9&#45;&gt;Node4 -->
<g id="edge9_Node000009_Node000004" class="edge">
<title>Node9&#45;&gt;Node4</title>
<g id="a_edge9_Node000009_Node000004"><a xlink:title=" ">
<path fill="none" stroke="#63b8ff" d="M232.34,-48.37C271.97,-50.05 329.98,-54.72 379,-67.5 398.61,-72.61 419.55,-81.65 435.55,-89.39"/>
<polygon fill="#63b8ff" stroke="#63b8ff" points="434.31,-92.68 444.82,-93.99 437.42,-86.41 434.31,-92.68"/>
</a>
</g>
</g>
<!-- Node9&#45;&gt;Node8 -->
<g id="edge11_Node000009_Node000008" class="edge">
<title>Node9&#45;&gt;Node8</title>
<g id="a_edge11_Node000009_Node000008"><a xlink:title=" ">
<path fill="none" stroke="#63b8ff" d="M220.45,-57.09C238.33,-61.99 260.29,-68.02 279.38,-73.26"/>
<polygon fill="#63b8ff" stroke="#63b8ff" points="278.49,-76.64 289.06,-75.91 280.34,-69.89 278.49,-76.64"/>
</a>
</g>
</g>
<!-- Node10 -->
<g id="Node000010" class="node">
<title>Node10</title>
<g id="a_Node000010"><a xlink:href="classmeta.html#a6b915820e9720f8050c908857e2783c8" target="_top" xlink:title="Parses a float value from a TTree based on a key.">
<polygon fill="white" stroke="#666666" points="376,-19 274,-19 274,0 376,0 376,-19"/>
<text text-anchor="middle" x="325" y="-7" font-family="Helvetica,sans-Serif" font-size="10.00">meta::parse_float</text>
</a>
</g>
</g>
<!-- Node9&#45;&gt;Node10 -->
<g id="edge10_Node000009_Node000010" class="edge">
<title>Node9&#45;&gt;Node10</title>
<g id="a_edge10_Node000009_Node000010"><a xlink:title=" ">
<path fill="none" stroke="#63b8ff" d="M220.45,-37.91C238.33,-33.01 260.29,-26.98 279.38,-21.74"/>
<polygon fill="#63b8ff" stroke="#63b8ff" points="280.34,-25.11 289.06,-19.09 278.49,-18.36 280.34,-25.11"/>
</a>
</g>
</g>
</g>
</svg>

<g id="navigator" transform="translate(0 0)" fill="#404254">
  <rect fill="#f2f5e9" fill-opacity="0.5" stroke="#606060" stroke-width=".5" x="0" y="0" width="60" height="60"/>
  <use id="zoomplus" xlink:href="#zoomPlus" x="17" y="9" onmousedown="handleZoom(evt,'in')"/>
  <use id="zoomminus" xlink:href="#zoomMin" x="42" y="9" onmousedown="handleZoom(evt,'out')"/>
  <use id="reset" xlink:href="#resetDef" x="30" y="36" onmousedown="handleReset()"/>
   <use id="arrowup" xlink:href="#arrowUp" x="0" y="0" onmousedown="handlePan(0,-1)"/>
  <use id="arrowright" xlink:href="#arrowRight" x="0" y="0" onmousedown="handlePan(1,0)"/>
  <use id="arrowdown" xlink:href="#arrowDown" x="0" y="0" onmousedown="handlePan(0,1)"/>
  <use id="arrowleft" xlink:href="#arrowLeft" x="0" y="0" onmousedown="handlePan(-1,0)"/>
</g>
<svg viewBox="0 0 15 15" width="100%" height="30px" preserveAspectRatio="xMaxYMin meet">
 <g id="arrow_out" transform="scale(0.3 0.3)">
  <a xlink:href="classmeta_ac20aa6b655d77e02eb08aabe78b6af7e_cgraph_org.svg" target="_base">
   <rect id="button" ry="5" rx="5" y="6" x="6" height="38" width="38"
        fill="#f2f5e9" fill-opacity="0.5" stroke="#606060" stroke-width="1.0"/>
   <path id="arrow"
     d="M 11.500037,31.436501 C 11.940474,20.09759 22.043105,11.32322 32.158766,21.979434 L 37.068811,17.246167 C 37.068811,17.246167 37.088388,32 37.088388,32 L 22.160133,31.978069 C 22.160133,31.978069 26.997745,27.140456 26.997745,27.140456 C 18.528582,18.264221 13.291696,25.230495 11.500037,31.436501 z"
     style="fill:#404040;"/>
  </a>
 </g>
</svg>

<style type='text/css'>
<![CDATA[
[data-mouse-over-selected='false'] { opacity: 0.7; }
[data-mouse-over-selected='true']  { opacity: 1.0; }
]]>
</style>
<script type="application/ecmascript"><![CDATA[
document.addEventListener('DOMContentLoaded', (event) => {
  highlightEdges();
  highlightAdjacentNodes();
});
]]></script>
</svg>
