<?xml version="1.0" encoding="UTF-8" standalone="no"?>
<!DOCTYPE svg PUBLIC "-//W3C//DTD SVG 1.1//EN"
 "http://www.w3.org/Graphics/SVG/1.1/DTD/svg11.dtd">
<!-- Generated by graphviz version 2.43.0 (0)
 -->
<!-- Title: io::root_begin Pages: 1 -->
<svg width="341pt" height="222pt"
 viewBox="0.00 0.00 341.00 222.00" xmlns="http://www.w3.org/2000/svg" xmlns:xlink="http://www.w3.org/1999/xlink">

<svg id="main" version="1.1" xmlns="http://www.w3.org/2000/svg" xmlns:xlink="http://www.w3.org/1999/xlink" xml:space="preserve" onload="init(evt)">
<style type="text/css"><![CDATA[
.node, .edge {opacity: 0.7;}
.node.selected, .edge.selected {opacity: 1;}
.edge:hover path { stroke: red; }
.edge:hover polygon { stroke: red; fill: red; }
]]></style>
<script type="application/ecmascript" xlink:href="svg.min.js"/>
<svg id="graph" class="graph">
<g id="graph0" class="graph" transform="scale(1 1) rotate(0) translate(4 218)">
<title>io::root_begin</title>
<!-- Node1 -->
<g id="Node000001" class="node">
<title>Node1</title>
<g id="a_Node000001"><a xlink:title="Initializes ROOT file processing, potentially opening files specified in settings.">
<polygon fill="#999999" stroke="#666666" points="83,-94 0,-94 0,-75 83,-75 83,-94"/>
<text text-anchor="middle" x="41.5" y="-82" font-family="Helvetica,sans-Serif" font-size="10.00">io::root_begin</text>
</a>
</g>
</g>
<!-- Node2 -->
<g id="Node000002" class="node">
<title>Node2</title>
<g id="a_Node000002"><a xlink:href="structs_2cxx_2base_8cxx.html#a4eee7b291ed2cdcd4e3c2496c603c48c" target="_top" xlink:title="Counts occurrences of a substring in a string.">
<polygon fill="white" stroke="#666666" points="307,-196 263,-196 263,-177 307,-177 307,-196"/>
<text text-anchor="middle" x="285" y="-184" font-family="Helvetica,sans-Serif" font-size="10.00">count</text>
</a>
</g>
</g>
<!-- Node1&#45;&gt;Node2 -->
<g id="edge1_Node000001_Node000002" class="edge">
<title>Node1&#45;&gt;Node2</title>
<g id="a_edge1_Node000001_Node000002"><a xlink:title=" ">
<path fill="none" stroke="#63b8ff" d="M53.04,-94.41C67.06,-107.08 93.09,-128.88 119,-141.5 163.03,-162.95 218.81,-175.44 252.93,-181.61"/>
<polygon fill="#63b8ff" stroke="#63b8ff" points="252.34,-185.06 262.79,-183.33 253.54,-178.16 252.34,-185.06"/>
</a>
</g>
</g>
<!-- Node3 -->
<g id="Node000003" class="node">
<title>Node3</title>
<g id="a_Node000003"><a xlink:href="classio.html#a65ca69ec5f12d0f3a463396bcff84d77" target="_top" xlink:title="Ends the current I/O session, closing any open files.">
<polygon fill="white" stroke="#666666" points="310,-85 260,-85 260,-66 310,-66 310,-85"/>
<text text-anchor="middle" x="285" y="-73" font-family="Helvetica,sans-Serif" font-size="10.00">io::end</text>
</a>
</g>
</g>
<!-- Node1&#45;&gt;Node3 -->
<g id="edge3_Node000001_Node000003" class="edge">
<title>Node1&#45;&gt;Node3</title>
<g id="a_edge3_Node000001_Node000003"><a xlink:title=" ">
<path fill="none" stroke="#63b8ff" d="M83.19,-82.98C129.89,-81.24 205.65,-78.42 249.55,-76.78"/>
<polygon fill="#63b8ff" stroke="#63b8ff" points="249.86,-80.27 259.72,-76.4 249.6,-73.28 249.86,-80.27"/>
</a>
</g>
</g>
<!-- Node4 -->
<g id="Node000004" class="node">
<title>Node4</title>
<g id="a_Node000004"><a xlink:href="classio.html#a1c994985d2405202c19fb391cc43a5de" target="_top" xlink:title="Finalizes ROOT file processing, closing any ROOT files opened by root_begin.">
<polygon fill="white" stroke="#666666" points="197,-56 123,-56 123,-37 197,-37 197,-56"/>
<text text-anchor="middle" x="160" y="-44" font-family="Helvetica,sans-Serif" font-size="10.00">io::root_end</text>
</a>
</g>
</g>
<!-- Node1&#45;&gt;Node4 -->
<g id="edge4_Node000001_Node000004" class="edge">
<title>Node1&#45;&gt;Node4</title>
<g id="a_edge4_Node000001_Node000004"><a xlink:title=" ">
<path fill="none" stroke="#63b8ff" d="M71.9,-74.91C86.39,-70.19 104.06,-64.42 119.69,-59.32"/>
<polygon fill="#63b8ff" stroke="#63b8ff" points="121.19,-62.51 129.61,-56.09 119.02,-55.86 121.19,-62.51"/>
</a>
</g>
</g>
<!-- Node6 -->
<g id="Node000006" class="node">
<title>Node6</title>
<g id="a_Node000006"><a xlink:href="classio.html#aacb050c4cb6c10038d6bf8edb7244a28" target="_top" xlink:title="Scans for keys (e.g., TTree names, TBranch names) in the open ROOT files.">
<polygon fill="white" stroke="#666666" points="201,-132 119,-132 119,-113 201,-113 201,-132"/>
<text text-anchor="middle" x="160" y="-120" font-family="Helvetica,sans-Serif" font-size="10.00">io::scan_keys</text>
</a>
</g>
</g>
<!-- Node1&#45;&gt;Node6 -->
<g id="edge7_Node000001_Node000006" class="edge">
<title>Node1&#45;&gt;Node6</title>
<g id="a_edge7_Node000001_Node000006"><a xlink:title=" ">
<path fill="none" stroke="#63b8ff" d="M71.9,-94.09C86.39,-98.81 104.06,-104.58 119.69,-109.68"/>
<polygon fill="#63b8ff" stroke="#63b8ff" points="119.02,-113.14 129.61,-112.91 121.19,-106.49 119.02,-113.14"/>
</a>
</g>
</g>
<!-- Node9 -->
<g id="Node000009" class="node">
<title>Node9</title>
<g id="a_Node000009"><a xlink:href="classtools.html#a352a6965f2f3c768f0f4ecd1f978fcc0" target="_top" xlink:title="Splits a string into a vector of substrings based on a delimiter.">
<polygon fill="white" stroke="#666666" points="194,-19 126,-19 126,0 194,0 194,-19"/>
<text text-anchor="middle" x="160" y="-7" font-family="Helvetica,sans-Serif" font-size="10.00">tools::split</text>
</a>
</g>
</g>
<!-- Node1&#45;&gt;Node9 -->
<g id="edge12_Node000001_Node000009" class="edge">
<title>Node1&#45;&gt;Node9</title>
<g id="a_edge12_Node000001_Node000009"><a xlink:title=" ">
<path fill="none" stroke="#63b8ff" d="M53.62,-74.99C68.05,-62.95 94.3,-42.02 119,-27.5 121.32,-26.14 123.76,-24.8 126.25,-23.52"/>
<polygon fill="#63b8ff" stroke="#63b8ff" points="127.83,-26.65 135.3,-19.14 124.78,-20.35 127.83,-26.65"/>
</a>
</g>
</g>
<!-- Node2&#45;&gt;Node2 -->
<g id="edge2_Node000002_Node000002" class="edge">
<title>Node2&#45;&gt;Node2</title>
<g id="a_edge2_Node000002_Node000002"><a xlink:title=" ">
<path fill="none" stroke="#63b8ff" d="M265.89,-196.08C256.59,-204.73 262.96,-214 285,-214 298.77,-214 306.43,-210.38 307.96,-205.55"/>
<polygon fill="#63b8ff" stroke="#63b8ff" points="311.12,-204.03 304.11,-196.08 304.64,-206.66 311.12,-204.03"/>
</a>
</g>
</g>
<!-- Node4&#45;&gt;Node3 -->
<g id="edge5_Node000004_Node000003" class="edge">
<title>Node4&#45;&gt;Node3</title>
<g id="a_edge5_Node000004_Node000003"><a xlink:title=" ">
<path fill="none" stroke="#63b8ff" d="M197.24,-55.04C213.75,-58.94 233.2,-63.52 249.49,-67.36"/>
<polygon fill="#63b8ff" stroke="#63b8ff" points="249.14,-70.88 259.68,-69.77 250.75,-64.06 249.14,-70.88"/>
</a>
</g>
</g>
<!-- Node5 -->
<g id="Node000005" class="node">
<title>Node5</title>
<g id="a_Node000005"><a xlink:href="classtools.html#abce97603aeadeaa04fa6c6ff6c721eda" target="_top" xlink:title="Empties a vector and all objects it points to.">
<polygon fill="white" stroke="#666666" points="320,-48 250,-48 250,-29 320,-29 320,-48"/>
<text text-anchor="middle" x="285" y="-36" font-family="Helvetica,sans-Serif" font-size="10.00">tools::flush</text>
</a>
</g>
</g>
<!-- Node4&#45;&gt;Node5 -->
<g id="edge6_Node000004_Node000005" class="edge">
<title>Node4&#45;&gt;Node5</title>
<g id="a_edge6_Node000004_Node000005"><a xlink:title=" ">
<path fill="none" stroke="#63b8ff" d="M197.24,-44.14C210.45,-43.28 225.55,-42.3 239.41,-41.4"/>
<polygon fill="#63b8ff" stroke="#63b8ff" points="239.96,-44.87 249.71,-40.73 239.5,-37.89 239.96,-44.87"/>
</a>
</g>
</g>
<!-- Node6&#45;&gt;Node2 -->
<g id="edge8_Node000006_Node000002" class="edge">
<title>Node6&#45;&gt;Node2</title>
<g id="a_edge8_Node000006_Node000002"><a xlink:title=" ">
<path fill="none" stroke="#63b8ff" d="M175.14,-132.11C190.08,-142.02 214.56,-157.52 237,-168.5 242.1,-171 247.64,-173.38 253.07,-175.56"/>
<polygon fill="#63b8ff" stroke="#63b8ff" points="252.01,-178.9 262.6,-179.22 254.52,-172.37 252.01,-178.9"/>
</a>
</g>
</g>
<!-- Node6&#45;&gt;Node3 -->
<g id="edge9_Node000006_Node000003" class="edge">
<title>Node6&#45;&gt;Node3</title>
<g id="a_edge9_Node000006_Node000003"><a xlink:title=" ">
<path fill="none" stroke="#63b8ff" d="M185.89,-112.99C204.47,-105.89 230.06,-96.11 250.45,-88.32"/>
<polygon fill="#63b8ff" stroke="#63b8ff" points="251.89,-91.52 259.98,-84.68 249.39,-84.98 251.89,-91.52"/>
</a>
</g>
</g>
<!-- Node7 -->
<g id="Node000007" class="node">
<title>Node7</title>
<g id="a_Node000007"><a xlink:href="classtools.html#a3d538da5310467c9321b27cd6a75b9af" target="_top" xlink:title="Checks if a string ends with a specific substring.">
<polygon fill="white" stroke="#666666" points="333,-159 237,-159 237,-140 333,-140 333,-159"/>
<text text-anchor="middle" x="285" y="-147" font-family="Helvetica,sans-Serif" font-size="10.00">tools::ends_with</text>
</a>
</g>
</g>
<!-- Node6&#45;&gt;Node7 -->
<g id="edge10_Node000006_Node000007" class="edge">
<title>Node6&#45;&gt;Node7</title>
<g id="a_edge10_Node000006_Node000007"><a xlink:title=" ">
<path fill="none" stroke="#63b8ff" d="M201.27,-131.34C210.73,-133.42 220.96,-135.66 230.88,-137.84"/>
<polygon fill="#63b8ff" stroke="#63b8ff" points="230.15,-141.26 240.67,-139.99 231.65,-134.43 230.15,-141.26"/>
</a>
</g>
</g>
<!-- Node8 -->
<g id="Node000008" class="node">
<title>Node8</title>
<g id="a_Node000008"><a xlink:href="classtools.html#a13633d4d63c55bcf537ff141e7605f13" target="_top" xlink:title="Checks if a vector of strings contains a specific string.">
<polygon fill="white" stroke="#666666" points="333,-122 237,-122 237,-103 333,-103 333,-122"/>
<text text-anchor="middle" x="285" y="-110" font-family="Helvetica,sans-Serif" font-size="10.00">tools::has_value</text>
</a>
</g>
</g>
<!-- Node6&#45;&gt;Node8 -->
<g id="edge11_Node000006_Node000008" class="edge">
<title>Node6&#45;&gt;Node8</title>
<g id="a_edge11_Node000006_Node000008"><a xlink:title=" ">
<path fill="none" stroke="#63b8ff" d="M201.27,-119.23C209.43,-118.56 218.16,-117.85 226.77,-117.15"/>
<polygon fill="#63b8ff" stroke="#63b8ff" points="227.11,-120.64 236.79,-116.34 226.54,-113.66 227.11,-120.64"/>
</a>
</g>
</g>
</g>
</svg>
</svg>

<style type='text/css'>
<![CDATA[
[data-mouse-over-selected='false'] { opacity: 0.7; }
[data-mouse-over-selected='true']  { opacity: 1.0; }
]]>
</style>
<script type="application/ecmascript"><![CDATA[
document.addEventListener('DOMContentLoaded', (event) => {
  highlightEdges();
  highlightAdjacentNodes();
});
]]></script>
</svg>
