<?xml version="1.0" encoding="UTF-8" standalone="no"?>
<!DOCTYPE svg PUBLIC "-//W3C//DTD SVG 1.1//EN"
 "http://www.w3.org/Graphics/SVG/1.1/DTD/svg11.dtd">
<!-- Generated by graphviz version 2.43.0 (0)
 -->
<!-- Title: top_children::top_children Pages: 1 -->
<svg width="334pt" height="198pt"
 viewBox="0.00 0.00 334.00 197.50" xmlns="http://www.w3.org/2000/svg" xmlns:xlink="http://www.w3.org/1999/xlink">
<g id="graph0" class="graph" transform="scale(1 1) rotate(0) translate(4 193.5)">
<title>top_children::top_children</title>
<!-- Node1 -->
<g id="Node000001" class="node">
<title>Node1</title>
<g id="a_Node000001"><a xlink:title=" ">
<polygon fill="#999999" stroke="#666666" points="143,-93 0,-93 0,-74 143,-74 143,-93"/>
<text text-anchor="middle" x="71.5" y="-81" font-family="Helvetica,sans-Serif" font-size="10.00">top_children::top_children</text>
</a>
</g>
</g>
<!-- Node2 -->
<g id="Node000002" class="node">
<title>Node2</title>
<g id="a_Node000002"><a xlink:href="classparticle__template.html#a7fda73e06360bffd1bce45e7ba7370a5" target="_top" xlink:title="Adds a leaf (variable) to read for this particle.">
<polygon fill="white" stroke="#666666" points="307,-189.5 198,-189.5 198,-159.5 307,-159.5 307,-189.5"/>
<text text-anchor="start" x="206" y="-177.5" font-family="Helvetica,sans-Serif" font-size="10.00">particle_template::</text>
<text text-anchor="middle" x="252.5" y="-166.5" font-family="Helvetica,sans-Serif" font-size="10.00">add_leaf</text>
</a>
</g>
</g>
<!-- Node1&#45;&gt;Node2 -->
<g id="edge1_Node000001_Node000002" class="edge">
<title>Node1&#45;&gt;Node2</title>
<g id="a_edge1_Node000001_Node000002"><a xlink:title=" ">
<path fill="none" stroke="#63b8ff" d="M85.36,-93.04C104.81,-107.13 143.24,-133.64 179,-150.5 182.85,-152.31 186.86,-154.05 190.95,-155.7"/>
<polygon fill="#63b8ff" stroke="#63b8ff" points="189.98,-159.07 200.57,-159.38 192.49,-152.54 189.98,-159.07"/>
</a>
</g>
</g>
<!-- Node3 -->
<g id="Node000003" class="node">
<title>Node3</title>
<g id="a_Node000003"><a xlink:href="classparticle__template.html#a83757e8eb32e382a8c0444ede5dda548" target="_top" xlink:title="Applies the particle type as a prefix to leaf names.">
<polygon fill="white" stroke="#666666" points="307,-141.5 198,-141.5 198,-111.5 307,-111.5 307,-141.5"/>
<text text-anchor="start" x="206" y="-129.5" font-family="Helvetica,sans-Serif" font-size="10.00">particle_template::</text>
<text text-anchor="middle" x="252.5" y="-118.5" font-family="Helvetica,sans-Serif" font-size="10.00">apply_type_prefix</text>
</a>
</g>
</g>
<!-- Node1&#45;&gt;Node3 -->
<g id="edge2_Node000001_Node000003" class="edge">
<title>Node1&#45;&gt;Node3</title>
<g id="a_edge2_Node000001_Node000003"><a xlink:title=" ">
<path fill="none" stroke="#63b8ff" d="M112.23,-93.04C134.5,-98.39 162.81,-105.2 188.08,-111.27"/>
<polygon fill="#63b8ff" stroke="#63b8ff" points="187.42,-114.71 197.96,-113.64 189.06,-107.9 187.42,-114.71"/>
</a>
</g>
</g>
<!-- Node4 -->
<g id="Node000004" class="node">
<title>Node4</title>
<g id="a_Node000004"><a xlink:href="classtop__children.html#aa7e6d839a6df11052aae8869468c12e0" target="_top" xlink:title=" ">
<polygon fill="white" stroke="#666666" points="326,-93 179,-93 179,-74 326,-74 326,-93"/>
<text text-anchor="middle" x="252.5" y="-81" font-family="Helvetica,sans-Serif" font-size="10.00">top_children::get_from_res</text>
</a>
</g>
</g>
<!-- Node1&#45;&gt;Node4 -->
<g id="edge3_Node000001_Node000004" class="edge">
<title>Node1&#45;&gt;Node4</title>
<g id="a_edge3_Node000001_Node000004"><a xlink:title=" ">
<path fill="none" stroke="#63b8ff" d="M143.25,-83.5C151.67,-83.5 160.33,-83.5 168.91,-83.5"/>
<polygon fill="#63b8ff" stroke="#63b8ff" points="168.92,-87 178.92,-83.5 168.92,-80 168.92,-87"/>
</a>
</g>
</g>
<!-- Node5 -->
<g id="Node000005" class="node">
<title>Node5</title>
<g id="a_Node000005"><a xlink:href="classcproperty.html#a31b26b5ffb20bbf8d8ee38e0755a9819" target="_top" xlink:title="Sets the getter callback function.">
<polygon fill="white" stroke="#666666" points="311.5,-56 193.5,-56 193.5,-37 311.5,-37 311.5,-56"/>
<text text-anchor="middle" x="252.5" y="-44" font-family="Helvetica,sans-Serif" font-size="10.00">cproperty::set_getter</text>
</a>
</g>
</g>
<!-- Node1&#45;&gt;Node5 -->
<g id="edge4_Node000001_Node000005" class="edge">
<title>Node1&#45;&gt;Node5</title>
<g id="a_edge4_Node000001_Node000005"><a xlink:title=" ">
<path fill="none" stroke="#63b8ff" d="M118.6,-73.97C142,-69.14 170.62,-63.22 195.3,-58.12"/>
<polygon fill="#63b8ff" stroke="#63b8ff" points="196.16,-61.51 205.25,-56.06 194.75,-54.66 196.16,-61.51"/>
</a>
</g>
</g>
<!-- Node6 -->
<g id="Node000006" class="node">
<title>Node6</title>
<g id="a_Node000006"><a xlink:href="classcproperty.html#a41a70e8e01c9b1a20b94d2dbf1a6b214" target="_top" xlink:title="Sets the owning object for callback invocation.">
<polygon fill="white" stroke="#666666" points="312,-19 193,-19 193,0 312,0 312,-19"/>
<text text-anchor="middle" x="252.5" y="-7" font-family="Helvetica,sans-Serif" font-size="10.00">cproperty::set_object</text>
</a>
</g>
</g>
<!-- Node1&#45;&gt;Node6 -->
<g id="edge5_Node000001_Node000006" class="edge">
<title>Node1&#45;&gt;Node6</title>
<g id="a_edge5_Node000001_Node000006"><a xlink:title=" ">
<path fill="none" stroke="#63b8ff" d="M88.23,-73.97C108.57,-61.98 145.39,-41.4 179,-28.5 185.37,-26.06 192.16,-23.82 198.95,-21.8"/>
<polygon fill="#63b8ff" stroke="#63b8ff" points="200.16,-25.1 208.83,-19.01 198.26,-18.36 200.16,-25.1"/>
</a>
</g>
</g>
</g>
</svg>
