<?xml version="1.0" encoding="UTF-8" standalone="no"?>
<!DOCTYPE svg PUBLIC "-//W3C//DTD SVG 1.1//EN"
 "http://www.w3.org/Graphics/SVG/1.1/DTD/svg11.dtd">
<!-- Generated by graphviz version 2.43.0 (0)
 -->
<!-- Title: graph_jets::CompileEvent Pages: 1 -->
<!--zoomable 697 -->

<svg id="main" version="1.1" xmlns="http://www.w3.org/2000/svg" xmlns:xlink="http://www.w3.org/1999/xlink" xml:space="preserve" onload="init(evt)">
<style type="text/css"><![CDATA[
.node, .edge {opacity: 0.7;}
.node.selected, .edge.selected {opacity: 1;}
.edge:hover path { stroke: red; }
.edge:hover polygon { stroke: red; fill: red; }
]]></style>

<defs>
  <circle id="rim" cx="0" cy="0" r="7"/>
  <circle id="rim2" cx="0" cy="0" r="3.5"/>
  <g id="zoomPlus">
    <use xlink:href="#rim" fill="#404040"><set attributeName="fill" to="#808080" begin="zoomplus.mouseover" end="zoomplus.mouseout"/></use>
    <path d="M-4,0h8M0,-4v8" fill="none" stroke="white" stroke-width="1.5" pointer-events="none"/>
  </g>
  <g id="zoomMin">
    <use xlink:href="#rim" fill="#404040"><set attributeName="fill" to="#808080" begin="zoomminus.mouseover" end="zoomminus.mouseout"/></use>
    <path d="M-4,0h8" fill="none" stroke="white" stroke-width="1.5" pointer-events="none"/>
  </g>
  <g id="arrowUp" transform="translate(30 24)">
    <use xlink:href="#rim"/>
    <path pointer-events="none" fill="none" stroke="white" stroke-width="1.5" d="M0,-3.0v7 M-2.5,-0.5L0,-3.0L2.5,-0.5"/>
  </g>
  <g id="arrowRight" transform="rotate(90) translate(36 -43)">
    <use xlink:href="#rim"/>
    <path pointer-events="none" fill="none" stroke="white" stroke-width="1.5" d="M0,-3.0v7 M-2.5,-0.5L0,-3.0L2.5,-0.5"/>
  </g>
  <g id="arrowDown" transform="rotate(180) translate(-30 -48)">
    <use xlink:href="#rim"/>
    <path pointer-events="none" fill="none" stroke="white" stroke-width="1.5" d="M0,-3.0v7 M-2.5,-0.5L0,-3.0L2.5,-0.5"/>
  </g>
  <g id="arrowLeft" transform="rotate(270) translate(-36 17)">
    <use xlink:href="#rim"/>
    <path pointer-events="none" fill="none" stroke="white" stroke-width="1.5" d="M0,-3.0v7 M-2.5,-0.5L0,-3.0L2.5,-0.5"/>
  </g>
  <g id="resetDef">
    <use xlink:href="#rim2" fill="#404040"><set attributeName="fill" to="#808080" begin="reset.mouseover" end="reset.mouseout"/></use>
  </g>
</defs>
<script type="application/ecmascript">
var viewWidth = 688;
var viewHeight = 697;
var sectionId = 'dynsection-49';
</script>
<script type="application/ecmascript" xlink:href="svg.min.js"/>
<svg id="graph" class="graph">
<g id="viewport">
<title>graph_jets::CompileEvent</title>
<!-- Node1 -->
<g id="Node000001" class="node">
<title>Node1</title>
<g id="a_Node000001"><a xlink:title="Compiles the event into a graph.">
<polygon fill="#999999" stroke="#666666" points="142,-333 0,-333 0,-314 142,-314 142,-333"/>
<text text-anchor="middle" x="71" y="-321" font-family="Helvetica,sans-Serif" font-size="10.00">graph_jets::CompileEvent</text>
</a>
</g>
</g>
<!-- Node2 -->
<g id="Node000002" class="node">
<title>Node2</title>
<g id="a_Node000002"><a xlink:href="classgraph__template.html#a18725eb3da8ab2866b415fed685465d1" target="_top" xlink:title="Defines which particles become graph nodes.">
<polygon fill="white" stroke="#666666" points="308,-688.5 178,-688.5 178,-658.5 308,-658.5 308,-688.5"/>
<text text-anchor="start" x="186" y="-676.5" font-family="Helvetica,sans-Serif" font-size="10.00">graph_template::define</text>
<text text-anchor="middle" x="243" y="-665.5" font-family="Helvetica,sans-Serif" font-size="10.00">_particle_nodes</text>
</a>
</g>
</g>
<!-- Node1&#45;&gt;Node2 -->
<g id="edge1_Node000001_Node000002" class="edge">
<title>Node1&#45;&gt;Node2</title>
<g id="a_edge1_Node000001_Node000002"><a xlink:title=" ">
<path fill="none" stroke="#63b8ff" d="M72.25,-333.28C73.86,-376.61 86.06,-553.38 178,-649.5 178.92,-650.46 179.89,-651.39 180.89,-652.28"/>
<polygon fill="#63b8ff" stroke="#63b8ff" points="179.08,-655.29 189.21,-658.4 183.23,-649.65 179.08,-655.29"/>
</a>
</g>
</g>
<!-- Node3 -->
<g id="Node000003" class="node">
<title>Node3</title>
<g id="a_Node000003"><a xlink:href="classgraph__template.html#af5d505282f6126e2fe5d2eab98507d40" target="_top" xlink:title="Defines the edge topology between nodes.">
<polygon fill="white" stroke="#666666" points="308,-640.5 178,-640.5 178,-610.5 308,-610.5 308,-640.5"/>
<text text-anchor="start" x="186" y="-628.5" font-family="Helvetica,sans-Serif" font-size="10.00">graph_template::define</text>
<text text-anchor="middle" x="243" y="-617.5" font-family="Helvetica,sans-Serif" font-size="10.00">_topology</text>
</a>
</g>
</g>
<!-- Node1&#45;&gt;Node3 -->
<g id="edge2_Node000001_Node000003" class="edge">
<title>Node1&#45;&gt;Node3</title>
<g id="a_edge2_Node000001_Node000003"><a xlink:title=" ">
<path fill="none" stroke="#63b8ff" d="M72.86,-333.15C76.87,-372.31 97.06,-521 178,-601.5 179.08,-602.57 180.21,-603.6 181.38,-604.58"/>
<polygon fill="#63b8ff" stroke="#63b8ff" points="179.5,-607.53 189.7,-610.41 183.52,-601.8 179.5,-607.53"/>
</a>
</g>
</g>
<!-- Node9 -->
<g id="Node000009" class="node">
<title>Node9</title>
<g id="a_Node000009"><a xlink:href="bsm__4tops_2include_2bsm__4tops_2graph__features_8h.html#a06342b1cfa1e60c002d2f1875c674ee8" target="_top" xlink:title=" ">
<polygon fill="white" stroke="#666666" points="286.5,-574 199.5,-574 199.5,-555 286.5,-555 286.5,-574"/>
<text text-anchor="middle" x="243" y="-562" font-family="Helvetica,sans-Serif" font-size="10.00">event_number</text>
</a>
</g>
</g>
<!-- Node1&#45;&gt;Node9 -->
<g id="edge8_Node000001_Node000009" class="edge">
<title>Node1&#45;&gt;Node9</title>
<g id="a_edge8_Node000001_Node000009"><a xlink:title=" ">
<path fill="none" stroke="#63b8ff" d="M73.68,-333.27C80.17,-368 106.89,-486.53 178,-546.5 181.52,-549.47 185.5,-551.95 189.7,-554.02"/>
<polygon fill="#63b8ff" stroke="#63b8ff" points="188.61,-557.36 199.19,-557.94 191.28,-550.89 188.61,-557.36"/>
</a>
</g>
</g>
<!-- Node10 -->
<g id="Node000010" class="node">
<title>Node10</title>
<g id="a_Node000010"><a xlink:href="bsm__4tops_2include_2bsm__4tops_2graph__features_8h.html#ac4429f2ee44f3a8d00eb820c7c69481d" target="_top" xlink:title=" ">
<polygon fill="white" stroke="#666666" points="284.5,-537 201.5,-537 201.5,-518 284.5,-518 284.5,-537"/>
<text text-anchor="middle" x="243" y="-525" font-family="Helvetica,sans-Serif" font-size="10.00">event_weight</text>
</a>
</g>
</g>
<!-- Node1&#45;&gt;Node10 -->
<g id="edge10_Node000001_Node000010" class="edge">
<title>Node1&#45;&gt;Node10</title>
<g id="a_edge10_Node000001_Node000010"><a xlink:title=" ">
<path fill="none" stroke="#63b8ff" d="M74.69,-333.35C83.67,-364.36 115.63,-460.74 178,-509.5 182.16,-512.75 186.87,-515.41 191.8,-517.59"/>
<polygon fill="#63b8ff" stroke="#63b8ff" points="190.9,-520.99 201.49,-521.22 193.35,-514.44 190.9,-520.99"/>
</a>
</g>
</g>
<!-- Node11 -->
<g id="Node000011" class="node">
<title>Node11</title>
<g id="a_Node000011"><a xlink:href="graph__template_8h.html#a69f5094a8d3c7a77c2eafc6257ede417" target="_top" xlink:title="Default topology function that connects all node pairs.">
<polygon fill="white" stroke="#666666" points="270,-500 216,-500 216,-481 270,-481 270,-500"/>
<text text-anchor="middle" x="243" y="-488" font-family="Helvetica,sans-Serif" font-size="10.00">fulltopo</text>
</a>
</g>
</g>
<!-- Node1&#45;&gt;Node11 -->
<g id="edge11_Node000001_Node000011" class="edge">
<title>Node1&#45;&gt;Node11</title>
<g id="a_edge11_Node000001_Node000011"><a xlink:title=" ">
<path fill="none" stroke="#63b8ff" d="M76.09,-333.24C87.77,-359.88 124,-434.49 178,-472.5 186.27,-478.32 196.37,-482.26 206.08,-484.93"/>
<polygon fill="#63b8ff" stroke="#63b8ff" points="205.43,-488.38 215.97,-487.28 207.05,-481.57 205.43,-488.38"/>
</a>
</g>
</g>
<!-- Node12 -->
<g id="Node000012" class="node">
<title>Node12</title>
<g id="a_Node000012"><a xlink:href="bsm__4tops_2include_2bsm__4tops_2node__features_8h.html#a3f3117b469cddb9e7a32cef78c5c085f" target="_top" xlink:title=" ">
<polygon fill="white" stroke="#666666" points="275,-463 211,-463 211,-444 275,-444 275,-463"/>
<text text-anchor="middle" x="243" y="-451" font-family="Helvetica,sans-Serif" font-size="10.00">is_bquark</text>
</a>
</g>
</g>
<!-- Node1&#45;&gt;Node12 -->
<g id="edge12_Node000001_Node000012" class="edge">
<title>Node1&#45;&gt;Node12</title>
<g id="a_edge12_Node000001_Node000012"><a xlink:title=" ">
<path fill="none" stroke="#63b8ff" d="M78.42,-333.26C93.25,-355.03 132.17,-407.81 178,-435.5 185.09,-439.79 193.24,-443.08 201.3,-445.61"/>
<polygon fill="#63b8ff" stroke="#63b8ff" points="200.43,-449 211,-448.33 202.31,-442.26 200.43,-449"/>
</a>
</g>
</g>
<!-- Node13 -->
<g id="Node000013" class="node">
<title>Node13</title>
<g id="a_Node000013"><a xlink:href="bsm__4tops_2include_2bsm__4tops_2node__features_8h.html#a05898150cc9167a4de297df624e6c15a" target="_top" xlink:title=" ">
<polygon fill="white" stroke="#666666" points="273.5,-426 212.5,-426 212.5,-407 273.5,-407 273.5,-426"/>
<text text-anchor="middle" x="243" y="-414" font-family="Helvetica,sans-Serif" font-size="10.00">is_lepton</text>
</a>
</g>
</g>
<!-- Node1&#45;&gt;Node13 -->
<g id="edge13_Node000001_Node000013" class="edge">
<title>Node1&#45;&gt;Node13</title>
<g id="a_edge13_Node000001_Node000013"><a xlink:title=" ">
<path fill="none" stroke="#63b8ff" d="M82.95,-333.21C101.35,-349.04 140.15,-380.45 178,-398.5 185.63,-402.14 194.13,-405.17 202.38,-407.64"/>
<polygon fill="#63b8ff" stroke="#63b8ff" points="201.67,-411.07 212.24,-410.38 203.55,-404.33 201.67,-411.07"/>
</a>
</g>
</g>
<!-- Node14 -->
<g id="Node000014" class="node">
<title>Node14</title>
<g id="a_Node000014"><a xlink:href="bsm__4tops_2include_2bsm__4tops_2graph__features_8h.html#aa3877d6a2e8b77e08262de8b557b9845" target="_top" xlink:title=" ">
<polygon fill="white" stroke="#666666" points="278,-389 208,-389 208,-370 278,-370 278,-389"/>
<text text-anchor="middle" x="243" y="-377" font-family="Helvetica,sans-Serif" font-size="10.00">missing_et</text>
</a>
</g>
</g>
<!-- Node1&#45;&gt;Node14 -->
<g id="edge14_Node000001_Node000014" class="edge">
<title>Node1&#45;&gt;Node14</title>
<g id="a_edge14_Node000001_Node000014"><a xlink:title=" ">
<path fill="none" stroke="#63b8ff" d="M97.1,-333.06C118.48,-341.06 150.07,-352.58 178,-361.5 184.5,-363.58 191.41,-365.65 198.2,-367.62"/>
<polygon fill="#63b8ff" stroke="#63b8ff" points="197.41,-371.04 207.99,-370.41 199.33,-364.3 197.41,-371.04"/>
</a>
</g>
</g>
<!-- Node15 -->
<g id="Node000015" class="node">
<title>Node15</title>
<g id="a_Node000015"><a xlink:href="bsm__4tops_2include_2bsm__4tops_2graph__features_8h.html#af2c4c0d6c526b044cacd4b7a03274557" target="_top" xlink:title=" ">
<polygon fill="white" stroke="#666666" points="280.5,-352 205.5,-352 205.5,-333 280.5,-333 280.5,-352"/>
<text text-anchor="middle" x="243" y="-340" font-family="Helvetica,sans-Serif" font-size="10.00">missing_phi</text>
</a>
</g>
</g>
<!-- Node1&#45;&gt;Node15 -->
<g id="edge15_Node000001_Node000015" class="edge">
<title>Node1&#45;&gt;Node15</title>
<g id="a_edge15_Node000001_Node000015"><a xlink:title=" ">
<path fill="none" stroke="#63b8ff" d="M142.13,-331.34C159.83,-333.32 178.43,-335.39 194.71,-337.21"/>
<polygon fill="#63b8ff" stroke="#63b8ff" points="194.71,-340.74 205.04,-338.37 195.49,-333.78 194.71,-340.74"/>
</a>
</g>
</g>
<!-- Node16 -->
<g id="Node000016" class="node">
<title>Node16</title>
<g id="a_Node000016"><a xlink:href="bsm__4tops_2include_2bsm__4tops_2graph__features_8h.html#a1252cadaaea1ae85af27e0711b7cdf3c" target="_top" xlink:title=" ">
<polygon fill="white" stroke="#666666" points="297,-315 189,-315 189,-296 297,-296 297,-315"/>
<text text-anchor="middle" x="243" y="-303" font-family="Helvetica,sans-Serif" font-size="10.00">num_children_leps</text>
</a>
</g>
</g>
<!-- Node1&#45;&gt;Node16 -->
<g id="edge16_Node000001_Node000016" class="edge">
<title>Node1&#45;&gt;Node16</title>
<g id="a_edge16_Node000001_Node000016"><a xlink:title=" ">
<path fill="none" stroke="#63b8ff" d="M142.13,-316.07C154.22,-314.79 166.73,-313.47 178.64,-312.21"/>
<polygon fill="#63b8ff" stroke="#63b8ff" points="179.34,-315.65 188.92,-311.12 178.61,-308.69 179.34,-315.65"/>
</a>
</g>
</g>
<!-- Node17 -->
<g id="Node000017" class="node">
<title>Node17</title>
<g id="a_Node000017"><a xlink:href="bsm__4tops_2include_2bsm__4tops_2graph__features_8h.html#ae8e5a8c9e20c373fc6c4566c25f8a5e9" target="_top" xlink:title=" ">
<polygon fill="white" stroke="#666666" points="274,-278 212,-278 212,-259 274,-259 274,-278"/>
<text text-anchor="middle" x="243" y="-266" font-family="Helvetica,sans-Serif" font-size="10.00">num_jets</text>
</a>
</g>
</g>
<!-- Node1&#45;&gt;Node17 -->
<g id="edge17_Node000001_Node000017" class="edge">
<title>Node1&#45;&gt;Node17</title>
<g id="a_edge17_Node000001_Node000017"><a xlink:title=" ">
<path fill="none" stroke="#63b8ff" d="M99.36,-313.88C120.71,-306.46 151.15,-296.04 178,-287.5 185.85,-285 194.28,-282.43 202.36,-280.01"/>
<polygon fill="#63b8ff" stroke="#63b8ff" points="203.38,-283.35 211.97,-277.15 201.39,-276.64 203.38,-283.35"/>
</a>
</g>
</g>
<!-- Node18 -->
<g id="Node000018" class="node">
<title>Node18</title>
<g id="a_Node000018"><a xlink:href="bsm__4tops_2include_2bsm__4tops_2graph__features_8h.html#aad7321ef73eeb35377f5651c773d53c3" target="_top" xlink:title=" ">
<polygon fill="white" stroke="#666666" points="280,-241 206,-241 206,-222 280,-222 280,-241"/>
<text text-anchor="middle" x="243" y="-229" font-family="Helvetica,sans-Serif" font-size="10.00">num_lepton</text>
</a>
</g>
</g>
<!-- Node1&#45;&gt;Node18 -->
<g id="edge18_Node000001_Node000018" class="edge">
<title>Node1&#45;&gt;Node18</title>
<g id="a_edge18_Node000001_Node000018"><a xlink:title=" ">
<path fill="none" stroke="#63b8ff" d="M83.33,-313.88C101.96,-298.51 140.7,-268.33 178,-250.5 183.7,-247.78 189.87,-245.35 196.05,-243.22"/>
<polygon fill="#63b8ff" stroke="#63b8ff" points="197.26,-246.51 205.71,-240.12 195.12,-239.85 197.26,-246.51"/>
</a>
</g>
</g>
<!-- Node19 -->
<g id="Node000019" class="node">
<title>Node19</title>
<g id="a_Node000019"><a xlink:href="bsm__4tops_2include_2bsm__4tops_2graph__features_8h.html#ab67addeed0cfbc8b4e8ce19cd2e98cb4" target="_top" xlink:title=" ">
<polygon fill="white" stroke="#666666" points="275.5,-204 210.5,-204 210.5,-185 275.5,-185 275.5,-204"/>
<text text-anchor="middle" x="243" y="-192" font-family="Helvetica,sans-Serif" font-size="10.00">num_tops</text>
</a>
</g>
</g>
<!-- Node1&#45;&gt;Node19 -->
<g id="edge19_Node000001_Node000019" class="edge">
<title>Node1&#45;&gt;Node19</title>
<g id="a_edge19_Node000001_Node000019"><a xlink:title=" ">
<path fill="none" stroke="#63b8ff" d="M78.49,-313.97C93.47,-292.69 132.68,-241.05 178,-213.5 184.89,-209.31 192.77,-205.99 200.59,-203.38"/>
<polygon fill="#63b8ff" stroke="#63b8ff" points="201.8,-206.67 210.37,-200.45 199.79,-199.97 201.8,-206.67"/>
</a>
</g>
</g>
<!-- Node20 -->
<g id="Node000020" class="node">
<title>Node20</title>
<g id="a_Node000020"><a xlink:href="bsm__4tops_2include_2bsm__4tops_2edge__features_8h.html#a196518fb89ffbc60b3ca928dc80ac57d" target="_top" xlink:title=" ">
<polygon fill="white" stroke="#666666" points="273.5,-167 212.5,-167 212.5,-148 273.5,-148 273.5,-167"/>
<text text-anchor="middle" x="243" y="-155" font-family="Helvetica,sans-Serif" font-size="10.00">res_edge</text>
</a>
</g>
</g>
<!-- Node1&#45;&gt;Node20 -->
<g id="edge20_Node000001_Node000020" class="edge">
<title>Node1&#45;&gt;Node20</title>
<g id="a_edge20_Node000001_Node000020"><a xlink:title=" ">
<path fill="none" stroke="#63b8ff" d="M76.15,-313.93C88.01,-287.75 124.63,-214.38 178,-176.5 185.35,-171.28 194.13,-167.48 202.81,-164.72"/>
<polygon fill="#63b8ff" stroke="#63b8ff" points="203.78,-168.08 212.47,-162.02 201.9,-161.34 203.78,-168.08"/>
</a>
</g>
</g>
<!-- Node22 -->
<g id="Node000022" class="node">
<title>Node22</title>
<g id="a_Node000022"><a xlink:href="bsm__4tops_2include_2bsm__4tops_2node__features_8h.html#ab1c59b5f0c6a25f3a21b6ff62c95596a" target="_top" xlink:title=" ">
<polygon fill="white" stroke="#666666" points="273.5,-130 212.5,-130 212.5,-111 273.5,-111 273.5,-130"/>
<text text-anchor="middle" x="243" y="-118" font-family="Helvetica,sans-Serif" font-size="10.00">res_node</text>
</a>
</g>
</g>
<!-- Node1&#45;&gt;Node22 -->
<g id="edge22_Node000001_Node000022" class="edge">
<title>Node1&#45;&gt;Node22</title>
<g id="a_edge22_Node000001_Node000022"><a xlink:title=" ">
<path fill="none" stroke="#63b8ff" d="M74.75,-313.79C83.92,-283.23 116.37,-188.16 178,-139.5 185.14,-133.86 193.91,-129.9 202.65,-127.11"/>
<polygon fill="#63b8ff" stroke="#63b8ff" points="203.69,-130.45 212.41,-124.43 201.84,-123.7 203.69,-130.45"/>
</a>
</g>
</g>
<!-- Node23 -->
<g id="Node000023" class="node">
<title>Node23</title>
<g id="a_Node000023"><a xlink:href="bsm__4tops_2include_2bsm__4tops_2graph__features_8h.html#a50dd3e9329b3d7325cde2d4b8059cb60" target="_top" xlink:title=" ">
<polygon fill="white" stroke="#666666" points="282.5,-93 203.5,-93 203.5,-74 282.5,-74 282.5,-93"/>
<text text-anchor="middle" x="243" y="-81" font-family="Helvetica,sans-Serif" font-size="10.00">signal_event</text>
</a>
</g>
</g>
<!-- Node1&#45;&gt;Node23 -->
<g id="edge23_Node000001_Node000023" class="edge">
<title>Node1&#45;&gt;Node23</title>
<g id="a_edge23_Node000001_Node000023"><a xlink:title=" ">
<path fill="none" stroke="#63b8ff" d="M73.74,-313.85C80.43,-279.55 107.74,-162.42 178,-102.5 182.58,-98.6 187.93,-95.5 193.55,-93.03"/>
<polygon fill="#63b8ff" stroke="#63b8ff" points="195.02,-96.22 203.18,-89.46 192.59,-89.66 195.02,-96.22"/>
</a>
</g>
</g>
<!-- Node24 -->
<g id="Node000024" class="node">
<title>Node24</title>
<g id="a_Node000024"><a xlink:href="bsm__4tops_2include_2bsm__4tops_2edge__features_8h.html#af35cf309c4131ca516f825cf67635ceb" target="_top" xlink:title=" ">
<polygon fill="white" stroke="#666666" points="274,-56 212,-56 212,-37 274,-37 274,-56"/>
<text text-anchor="middle" x="243" y="-44" font-family="Helvetica,sans-Serif" font-size="10.00">top_edge</text>
</a>
</g>
</g>
<!-- Node1&#45;&gt;Node24 -->
<g id="edge24_Node000001_Node000024" class="edge">
<title>Node1&#45;&gt;Node24</title>
<g id="a_edge24_Node000001_Node000024"><a xlink:title=" ">
<path fill="none" stroke="#63b8ff" d="M72.97,-313.8C77.28,-275.79 98.23,-135.64 178,-64.5 184.76,-58.47 193.39,-54.45 202.11,-51.77"/>
<polygon fill="#63b8ff" stroke="#63b8ff" points="203.06,-55.13 211.89,-49.27 201.34,-48.35 203.06,-55.13"/>
</a>
</g>
</g>
<!-- Node26 -->
<g id="Node000026" class="node">
<title>Node26</title>
<g id="a_Node000026"><a xlink:href="bsm__4tops_2include_2bsm__4tops_2node__features_8h.html#ab2215efaacd3bffb7241a74646421796" target="_top" xlink:title=" ">
<polygon fill="white" stroke="#666666" points="274,-19 212,-19 212,0 274,0 274,-19"/>
<text text-anchor="middle" x="243" y="-7" font-family="Helvetica,sans-Serif" font-size="10.00">top_node</text>
</a>
</g>
</g>
<!-- Node1&#45;&gt;Node26 -->
<g id="edge26_Node000001_Node000026" class="edge">
<title>Node1&#45;&gt;Node26</title>
<g id="a_edge26_Node000001_Node000026"><a xlink:title=" ">
<path fill="none" stroke="#63b8ff" d="M72.41,-313.88C74.68,-272.78 89.18,-110.33 178,-27.5 184.62,-21.32 193.2,-17.24 201.91,-14.55"/>
<polygon fill="#63b8ff" stroke="#63b8ff" points="202.87,-17.92 211.7,-12.07 201.15,-11.13 202.87,-17.92"/>
</a>
</g>
</g>
<!-- Node4 -->
<g id="Node000004" class="node">
<title>Node4</title>
<g id="a_Node000004"><a xlink:href="classgraph__template.html#a255ec8fcf27b7352445397e5245cc9ef" target="_top" xlink:title=" ">
<polygon fill="white" stroke="#666666" points="454,-640.5 344,-640.5 344,-610.5 454,-610.5 454,-640.5"/>
<text text-anchor="start" x="352" y="-628.5" font-family="Helvetica,sans-Serif" font-size="10.00">graph_template::to</text>
<text text-anchor="middle" x="399" y="-617.5" font-family="Helvetica,sans-Serif" font-size="10.00">_tensor</text>
</a>
</g>
</g>
<!-- Node3&#45;&gt;Node4 -->
<g id="edge3_Node000003_Node000004" class="edge">
<title>Node3&#45;&gt;Node4</title>
<g id="a_edge3_Node000003_Node000004"><a xlink:title=" ">
<path fill="none" stroke="#63b8ff" d="M308.42,-625.5C316.74,-625.5 325.26,-625.5 333.58,-625.5"/>
<polygon fill="#63b8ff" stroke="#63b8ff" points="333.6,-629 343.6,-625.5 333.6,-622 333.6,-629"/>
</a>
</g>
</g>
<!-- Node5 -->
<g id="Node000005" class="node">
<title>Node5</title>
<g id="a_Node000005"><a xlink:href="tensor__cast_8h.html#a27121e7e5aeb77bda0453dd6214cf7fb" target="_top" xlink:title=" ">
<polygon fill="white" stroke="#666666" points="567,-635 490,-635 490,-616 567,-616 567,-635"/>
<text text-anchor="middle" x="528.5" y="-623" font-family="Helvetica,sans-Serif" font-size="10.00">build_tensor</text>
</a>
</g>
</g>
<!-- Node4&#45;&gt;Node5 -->
<g id="edge4_Node000004_Node000005" class="edge">
<title>Node4&#45;&gt;Node5</title>
<g id="a_edge4_Node000004_Node000005"><a xlink:title=" ">
<path fill="none" stroke="#63b8ff" d="M454.07,-625.5C462.66,-625.5 471.49,-625.5 479.91,-625.5"/>
<polygon fill="#63b8ff" stroke="#63b8ff" points="479.95,-629 489.95,-625.5 479.95,-622 479.95,-629"/>
</a>
</g>
</g>
<!-- Node6 -->
<g id="Node000006" class="node">
<title>Node6</title>
<g id="a_Node000006"><a xlink:href="tensor__cast_8h.html#a49d70dbad1cfb3e27ebb8960cff818bb" target="_top" xlink:title=" ">
<polygon fill="white" stroke="#666666" points="680,-672 603,-672 603,-653 680,-653 680,-672"/>
<text text-anchor="middle" x="641.5" y="-660" font-family="Helvetica,sans-Serif" font-size="10.00">as_primitive</text>
</a>
</g>
</g>
<!-- Node5&#45;&gt;Node6 -->
<g id="edge5_Node000005_Node000006" class="edge">
<title>Node5&#45;&gt;Node6</title>
<g id="a_edge5_Node000005_Node000006"><a xlink:title=" ">
<path fill="none" stroke="#63b8ff" d="M558.09,-635.03C571.45,-639.48 587.55,-644.85 601.97,-649.66"/>
<polygon fill="#63b8ff" stroke="#63b8ff" points="601.03,-653.03 611.63,-652.88 603.25,-646.39 601.03,-653.03"/>
</a>
</g>
</g>
<!-- Node7 -->
<g id="Node000007" class="node">
<title>Node7</title>
<g id="a_Node000007"><a xlink:href="tensor__cast_8h.html#af735bf7b89e3864dbde7fe5def867d4d" target="_top" xlink:title=" ">
<polygon fill="white" stroke="#666666" points="675,-635 608,-635 608,-616 675,-616 675,-635"/>
<text text-anchor="middle" x="641.5" y="-623" font-family="Helvetica,sans-Serif" font-size="10.00">scout_dim</text>
</a>
</g>
</g>
<!-- Node5&#45;&gt;Node7 -->
<g id="edge6_Node000005_Node000007" class="edge">
<title>Node5&#45;&gt;Node7</title>
<g id="a_edge6_Node000005_Node000007"><a xlink:title=" ">
<path fill="none" stroke="#63b8ff" d="M567.08,-625.5C576.88,-625.5 587.52,-625.5 597.58,-625.5"/>
<polygon fill="#63b8ff" stroke="#63b8ff" points="597.79,-629 607.79,-625.5 597.79,-622 597.79,-629"/>
</a>
</g>
</g>
<!-- Node8 -->
<g id="Node000008" class="node">
<title>Node8</title>
<g id="a_Node000008"><a xlink:href="tensor__cast_8h.html#af14120999422d60b3d0aef376398fca6" target="_top" xlink:title=" ">
<polygon fill="white" stroke="#666666" points="671,-598 612,-598 612,-579 671,-579 671,-598"/>
<text text-anchor="middle" x="641.5" y="-586" font-family="Helvetica,sans-Serif" font-size="10.00">standard</text>
</a>
</g>
</g>
<!-- Node5&#45;&gt;Node8 -->
<g id="edge7_Node000005_Node000008" class="edge">
<title>Node5&#45;&gt;Node8</title>
<g id="a_edge7_Node000005_Node000008"><a xlink:title=" ">
<path fill="none" stroke="#63b8ff" d="M558.09,-615.97C571.45,-611.52 587.55,-606.15 601.97,-601.34"/>
<polygon fill="#63b8ff" stroke="#63b8ff" points="603.25,-604.61 611.63,-598.12 601.03,-597.97 603.25,-604.61"/>
</a>
</g>
</g>
<!-- Node9&#45;&gt;Node9 -->
<g id="edge9_Node000009_Node000009" class="edge">
<title>Node9&#45;&gt;Node9</title>
<g id="a_edge9_Node000009_Node000009"><a xlink:title=" ">
<path fill="none" stroke="#63b8ff" d="M218.96,-574.08C207.26,-582.73 215.27,-592 243,-592 261.2,-592 270.9,-588.01 272.12,-582.82"/>
<polygon fill="#63b8ff" stroke="#63b8ff" points="275.09,-580.97 267.04,-574.08 269.04,-584.49 275.09,-580.97"/>
</a>
</g>
</g>
<!-- Node21 -->
<g id="Node000021" class="node">
<title>Node21</title>
<g id="a_Node000021"><a xlink:href="bsm__4tops_2include_2bsm__4tops_2edge__features_8h.html#a9addd2275949f0828310adb01cc761a3" target="_top" xlink:title=" ">
<polygon fill="white" stroke="#666666" points="437,-167 361,-167 361,-148 437,-148 437,-167"/>
<text text-anchor="middle" x="399" y="-155" font-family="Helvetica,sans-Serif" font-size="10.00">m_res_edge</text>
</a>
</g>
</g>
<!-- Node20&#45;&gt;Node21 -->
<g id="edge21_Node000020_Node000021" class="edge">
<title>Node20&#45;&gt;Node21</title>
<g id="a_edge21_Node000020_Node000021"><a xlink:title=" ">
<path fill="none" stroke="#63b8ff" d="M273.69,-157.5C295.51,-157.5 325.6,-157.5 350.71,-157.5"/>
<polygon fill="#63b8ff" stroke="#63b8ff" points="350.77,-161 360.77,-157.5 350.77,-154 350.77,-161"/>
</a>
</g>
</g>
<!-- Node25 -->
<g id="Node000025" class="node">
<title>Node25</title>
<g id="a_Node000025"><a xlink:href="bsm__4tops_2include_2bsm__4tops_2edge__features_8h.html#a28ada91c16a5975605583559f663b268" target="_top" xlink:title=" ">
<polygon fill="white" stroke="#666666" points="437.5,-56 360.5,-56 360.5,-37 437.5,-37 437.5,-56"/>
<text text-anchor="middle" x="399" y="-44" font-family="Helvetica,sans-Serif" font-size="10.00">m_top_edge</text>
</a>
</g>
</g>
<!-- Node24&#45;&gt;Node25 -->
<g id="edge25_Node000024_Node000025" class="edge">
<title>Node24&#45;&gt;Node25</title>
<g id="a_edge25_Node000024_Node000025"><a xlink:title=" ">
<path fill="none" stroke="#63b8ff" d="M274.06,-46.5C295.66,-46.5 325.22,-46.5 350.06,-46.5"/>
<polygon fill="#63b8ff" stroke="#63b8ff" points="350.38,-50 360.38,-46.5 350.38,-43 350.38,-50"/>
</a>
</g>
</g>
</g>
</svg>

<g id="navigator" transform="translate(0 0)" fill="#404254">
  <rect fill="#f2f5e9" fill-opacity="0.5" stroke="#606060" stroke-width=".5" x="0" y="0" width="60" height="60"/>
  <use id="zoomplus" xlink:href="#zoomPlus" x="17" y="9" onmousedown="handleZoom(evt,'in')"/>
  <use id="zoomminus" xlink:href="#zoomMin" x="42" y="9" onmousedown="handleZoom(evt,'out')"/>
  <use id="reset" xlink:href="#resetDef" x="30" y="36" onmousedown="handleReset()"/>
   <use id="arrowup" xlink:href="#arrowUp" x="0" y="0" onmousedown="handlePan(0,-1)"/>
  <use id="arrowright" xlink:href="#arrowRight" x="0" y="0" onmousedown="handlePan(1,0)"/>
  <use id="arrowdown" xlink:href="#arrowDown" x="0" y="0" onmousedown="handlePan(0,1)"/>
  <use id="arrowleft" xlink:href="#arrowLeft" x="0" y="0" onmousedown="handlePan(-1,0)"/>
</g>
<svg viewBox="0 0 15 15" width="100%" height="30px" preserveAspectRatio="xMaxYMin meet">
 <g id="arrow_out" transform="scale(0.3 0.3)">
  <a xlink:href="classgraph__jets_a568114127973b28c968493e79ca67cd7_cgraph_org.svg" target="_base">
   <rect id="button" ry="5" rx="5" y="6" x="6" height="38" width="38"
        fill="#f2f5e9" fill-opacity="0.5" stroke="#606060" stroke-width="1.0"/>
   <path id="arrow"
     d="M 11.500037,31.436501 C 11.940474,20.09759 22.043105,11.32322 32.158766,21.979434 L 37.068811,17.246167 C 37.068811,17.246167 37.088388,32 37.088388,32 L 22.160133,31.978069 C 22.160133,31.978069 26.997745,27.140456 26.997745,27.140456 C 18.528582,18.264221 13.291696,25.230495 11.500037,31.436501 z"
     style="fill:#404040;"/>
  </a>
 </g>
</svg>

<style type='text/css'>
<![CDATA[
[data-mouse-over-selected='false'] { opacity: 0.7; }
[data-mouse-over-selected='true']  { opacity: 1.0; }
]]>
</style>
<script type="application/ecmascript"><![CDATA[
document.addEventListener('DOMContentLoaded', (event) => {
  highlightEdges();
  highlightAdjacentNodes();
});
]]></script>
</svg>
