<?xml version="1.0" encoding="UTF-8" standalone="no"?>
<!DOCTYPE svg PUBLIC "-//W3C//DTD SVG 1.1//EN"
 "http://www.w3.org/Graphics/SVG/1.1/DTD/svg11.dtd">
<!-- Generated by graphviz version 2.43.0 (0)
 -->
<!-- Title: metrics::build_graphs Pages: 1 -->
<svg width="454pt" height="86pt"
 viewBox="0.00 0.00 454.00 86.00" xmlns="http://www.w3.org/2000/svg" xmlns:xlink="http://www.w3.org/1999/xlink">
<g id="graph0" class="graph" transform="scale(1 1) rotate(0) translate(4 82)">
<title>metrics::build_graphs</title>
<!-- Node1 -->
<g id="Node000001" class="node">
<title>Node1</title>
<g id="a_Node000001"><a xlink:title=" ">
<polygon fill="#999999" stroke="#666666" points="446,-48.5 324,-48.5 324,-29.5 446,-29.5 446,-48.5"/>
<text text-anchor="middle" x="385" y="-36.5" font-family="Helvetica,sans-Serif" font-size="10.00">metrics::build_graphs</text>
</a>
</g>
</g>
<!-- Node2 -->
<g id="Node000002" class="node">
<title>Node2</title>
<g id="a_Node000002"><a xlink:href="classmetrics.html#a2ed5da3a9b6c0e0e9b711afafaeed7ab" target="_top" xlink:title=" ">
<polygon fill="white" stroke="#666666" points="288,-78 152,-78 152,-48 288,-48 288,-78"/>
<text text-anchor="start" x="160" y="-66" font-family="Helvetica,sans-Serif" font-size="10.00">metrics::dump_accuracy</text>
<text text-anchor="middle" x="220" y="-55" font-family="Helvetica,sans-Serif" font-size="10.00">_plots</text>
</a>
</g>
</g>
<!-- Node1&#45;&gt;Node2 -->
<g id="edge1_Node000001_Node000002" class="edge">
<title>Node1&#45;&gt;Node2</title>
<g id="a_edge1_Node000001_Node000002"><a xlink:title=" ">
<path fill="none" stroke="#63b8ff" d="M313.85,-49.33C305.31,-50.59 296.61,-51.87 288.12,-53.12"/>
<polygon fill="#63b8ff" stroke="#63b8ff" points="314.38,-52.79 323.77,-47.87 313.36,-45.86 314.38,-52.79"/>
</a>
</g>
</g>
<!-- Node4 -->
<g id="Node000004" class="node">
<title>Node4</title>
<g id="a_Node000004"><a xlink:href="classmetrics.html#a85ac60407efe672dd1ba1c067a06afb2" target="_top" xlink:title=" ">
<polygon fill="white" stroke="#666666" points="276,-30 164,-30 164,0 276,0 276,-30"/>
<text text-anchor="start" x="172" y="-18" font-family="Helvetica,sans-Serif" font-size="10.00">metrics::dump_loss</text>
<text text-anchor="middle" x="220" y="-7" font-family="Helvetica,sans-Serif" font-size="10.00">_plots</text>
</a>
</g>
</g>
<!-- Node1&#45;&gt;Node4 -->
<g id="edge3_Node000001_Node000004" class="edge">
<title>Node1&#45;&gt;Node4</title>
<g id="a_edge3_Node000001_Node000004"><a xlink:title=" ">
<path fill="none" stroke="#63b8ff" d="M313.77,-28.66C301.18,-26.81 288.22,-24.9 276.13,-23.12"/>
<polygon fill="#63b8ff" stroke="#63b8ff" points="313.36,-32.14 323.77,-30.13 314.38,-25.21 313.36,-32.14"/>
</a>
</g>
</g>
<!-- Node3 -->
<g id="Node000003" class="node">
<title>Node3</title>
<g id="a_Node000003"><a xlink:href="classmetrics.html#a8a0b4107864ac5f548ed37a9a4a9372f" target="_top" xlink:title="Dumps all metric plots for a specific k&#45;fold.">
<polygon fill="white" stroke="#666666" points="116,-48.5 0,-48.5 0,-29.5 116,-29.5 116,-48.5"/>
<text text-anchor="middle" x="58" y="-36.5" font-family="Helvetica,sans-Serif" font-size="10.00">metrics::dump_plots</text>
</a>
</g>
</g>
<!-- Node2&#45;&gt;Node3 -->
<g id="edge2_Node000002_Node000003" class="edge">
<title>Node2&#45;&gt;Node3</title>
<g id="a_edge2_Node000002_Node000003"><a xlink:title=" ">
<path fill="none" stroke="#63b8ff" d="M141.6,-51.39C133.04,-50.11 124.44,-48.82 116.19,-47.58"/>
<polygon fill="#63b8ff" stroke="#63b8ff" points="141.2,-54.87 151.61,-52.89 142.24,-47.95 141.2,-54.87"/>
</a>
</g>
</g>
<!-- Node4&#45;&gt;Node3 -->
<g id="edge4_Node000004_Node000003" class="edge">
<title>Node4&#45;&gt;Node3</title>
<g id="a_edge4_Node000004_Node000003"><a xlink:title=" ">
<path fill="none" stroke="#63b8ff" d="M154,-24.75C141.43,-26.64 128.36,-28.6 116.07,-30.44"/>
<polygon fill="#63b8ff" stroke="#63b8ff" points="154.57,-28.2 163.94,-23.26 153.53,-21.28 154.57,-28.2"/>
</a>
</g>
</g>
</g>
</svg>
