<?xml version="1.0" encoding="UTF-8" standalone="no"?>
<!DOCTYPE svg PUBLIC "-//W3C//DTD SVG 1.1//EN"
 "http://www.w3.org/Graphics/SVG/1.1/DTD/svg11.dtd">
<!-- Generated by graphviz version 2.43.0 (0)
 -->
<!-- Title: graph_jets_detector_lep::CompileEvent Pages: 1 -->
<svg width="659pt" height="697pt"
 viewBox="0.00 0.00 659.00 696.50" xmlns="http://www.w3.org/2000/svg" xmlns:xlink="http://www.w3.org/1999/xlink">
<g id="graph0" class="graph" transform="scale(1 1) rotate(0) translate(4 692.5)">
<title>graph_jets_detector_lep::CompileEvent</title>
<!-- Node1 -->
<g id="Node000001" class="node">
<title>Node1</title>
<g id="a_Node000001"><a xlink:title="Compiles the event into a graph.">
<polygon fill="#999999" stroke="#666666" points="113,-338.5 0,-338.5 0,-308.5 113,-308.5 113,-338.5"/>
<text text-anchor="start" x="8" y="-326.5" font-family="Helvetica,sans-Serif" font-size="10.00">graph_jets_detector</text>
<text text-anchor="middle" x="56.5" y="-315.5" font-family="Helvetica,sans-Serif" font-size="10.00">_lep::CompileEvent</text>
</a>
</g>
</g>
<!-- Node2 -->
<g id="Node000002" class="node">
<title>Node2</title>
<g id="a_Node000002"><a xlink:href="classgraph__template.html#a18725eb3da8ab2866b415fed685465d1" target="_top" xlink:title="Defines which particles become graph nodes.">
<polygon fill="white" stroke="#666666" points="279,-688.5 149,-688.5 149,-658.5 279,-658.5 279,-688.5"/>
<text text-anchor="start" x="157" y="-676.5" font-family="Helvetica,sans-Serif" font-size="10.00">graph_template::define</text>
<text text-anchor="middle" x="214" y="-665.5" font-family="Helvetica,sans-Serif" font-size="10.00">_particle_nodes</text>
</a>
</g>
</g>
<!-- Node1&#45;&gt;Node2 -->
<g id="edge1_Node000001_Node000002" class="edge">
<title>Node1&#45;&gt;Node2</title>
<g id="a_edge1_Node000001_Node000002"><a xlink:title=" ">
<path fill="none" stroke="#63b8ff" d="M57.21,-338.74C57.08,-389.74 63.52,-556.41 149,-649.5 149.88,-650.46 150.8,-651.38 151.76,-652.26"/>
<polygon fill="#63b8ff" stroke="#63b8ff" points="149.68,-655.07 159.75,-658.35 153.92,-649.51 149.68,-655.07"/>
</a>
</g>
</g>
<!-- Node3 -->
<g id="Node000003" class="node">
<title>Node3</title>
<g id="a_Node000003"><a xlink:href="classgraph__template.html#af5d505282f6126e2fe5d2eab98507d40" target="_top" xlink:title="Defines the edge topology between nodes.">
<polygon fill="white" stroke="#666666" points="279,-640.5 149,-640.5 149,-610.5 279,-610.5 279,-640.5"/>
<text text-anchor="start" x="157" y="-628.5" font-family="Helvetica,sans-Serif" font-size="10.00">graph_template::define</text>
<text text-anchor="middle" x="214" y="-617.5" font-family="Helvetica,sans-Serif" font-size="10.00">_topology</text>
</a>
</g>
</g>
<!-- Node1&#45;&gt;Node3 -->
<g id="edge2_Node000001_Node000003" class="edge">
<title>Node1&#45;&gt;Node3</title>
<g id="a_edge2_Node000001_Node000003"><a xlink:title=" ">
<path fill="none" stroke="#63b8ff" d="M58.09,-338.75C60.67,-384.8 74.58,-523.98 149,-601.5 149.92,-602.46 150.89,-603.39 151.9,-604.28"/>
<polygon fill="#63b8ff" stroke="#63b8ff" points="150.09,-607.29 160.22,-610.39 154.23,-601.65 150.09,-607.29"/>
</a>
</g>
</g>
<!-- Node9 -->
<g id="Node000009" class="node">
<title>Node9</title>
<g id="a_Node000009"><a xlink:href="bsm__4tops_2include_2bsm__4tops_2graph__features_8h.html#a06342b1cfa1e60c002d2f1875c674ee8" target="_top" xlink:title=" ">
<polygon fill="white" stroke="#666666" points="257.5,-574 170.5,-574 170.5,-555 257.5,-555 257.5,-574"/>
<text text-anchor="middle" x="214" y="-562" font-family="Helvetica,sans-Serif" font-size="10.00">event_number</text>
</a>
</g>
</g>
<!-- Node1&#45;&gt;Node9 -->
<g id="edge8_Node000001_Node000009" class="edge">
<title>Node1&#45;&gt;Node9</title>
<g id="a_edge8_Node000001_Node000009"><a xlink:title=" ">
<path fill="none" stroke="#63b8ff" d="M59.16,-338.55C64.42,-378.64 84.32,-488.87 149,-546.5 152.58,-549.69 156.69,-552.32 161.05,-554.49"/>
<polygon fill="#63b8ff" stroke="#63b8ff" points="159.71,-557.72 170.29,-558.31 162.39,-551.25 159.71,-557.72"/>
</a>
</g>
</g>
<!-- Node10 -->
<g id="Node000010" class="node">
<title>Node10</title>
<g id="a_Node000010"><a xlink:href="bsm__4tops_2include_2bsm__4tops_2graph__features_8h.html#ac4429f2ee44f3a8d00eb820c7c69481d" target="_top" xlink:title=" ">
<polygon fill="white" stroke="#666666" points="255.5,-537 172.5,-537 172.5,-518 255.5,-518 255.5,-537"/>
<text text-anchor="middle" x="214" y="-525" font-family="Helvetica,sans-Serif" font-size="10.00">event_weight</text>
</a>
</g>
</g>
<!-- Node1&#45;&gt;Node10 -->
<g id="edge10_Node000001_Node000010" class="edge">
<title>Node1&#45;&gt;Node10</title>
<g id="a_edge10_Node000001_Node000010"><a xlink:title=" ">
<path fill="none" stroke="#63b8ff" d="M60.54,-338.63C68.45,-374.08 93.12,-463.01 149,-509.5 153.06,-512.87 157.7,-515.62 162.6,-517.85"/>
<polygon fill="#63b8ff" stroke="#63b8ff" points="161.65,-521.23 172.24,-521.53 164.15,-514.69 161.65,-521.23"/>
</a>
</g>
</g>
<!-- Node11 -->
<g id="Node000011" class="node">
<title>Node11</title>
<g id="a_Node000011"><a xlink:href="graph__template_8h.html#a69f5094a8d3c7a77c2eafc6257ede417" target="_top" xlink:title="Default topology function that connects all node pairs.">
<polygon fill="white" stroke="#666666" points="241,-500 187,-500 187,-481 241,-481 241,-500"/>
<text text-anchor="middle" x="214" y="-488" font-family="Helvetica,sans-Serif" font-size="10.00">fulltopo</text>
</a>
</g>
</g>
<!-- Node1&#45;&gt;Node11 -->
<g id="edge11_Node000001_Node000011" class="edge">
<title>Node1&#45;&gt;Node11</title>
<g id="a_edge11_Node000001_Node000011"><a xlink:title=" ">
<path fill="none" stroke="#63b8ff" d="M62.57,-338.77C73.4,-369.04 101.77,-436.81 149,-472.5 157.06,-478.59 167.1,-482.63 176.82,-485.29"/>
<polygon fill="#63b8ff" stroke="#63b8ff" points="176.2,-488.74 186.73,-487.61 177.79,-481.92 176.2,-488.74"/>
</a>
</g>
</g>
<!-- Node12 -->
<g id="Node000012" class="node">
<title>Node12</title>
<g id="a_Node000012"><a xlink:href="bsm__4tops_2include_2bsm__4tops_2node__features_8h.html#a3f3117b469cddb9e7a32cef78c5c085f" target="_top" xlink:title=" ">
<polygon fill="white" stroke="#666666" points="246,-463 182,-463 182,-444 246,-444 246,-463"/>
<text text-anchor="middle" x="214" y="-451" font-family="Helvetica,sans-Serif" font-size="10.00">is_bquark</text>
</a>
</g>
</g>
<!-- Node1&#45;&gt;Node12 -->
<g id="edge12_Node000001_Node000012" class="edge">
<title>Node1&#45;&gt;Node12</title>
<g id="a_edge12_Node000001_Node000012"><a xlink:title=" ">
<path fill="none" stroke="#63b8ff" d="M65.74,-338.69C79.66,-362.89 110.15,-410.04 149,-435.5 155.93,-440.04 164.01,-443.45 172.05,-446.01"/>
<polygon fill="#63b8ff" stroke="#63b8ff" points="171.18,-449.4 181.75,-448.72 173.06,-442.66 171.18,-449.4"/>
</a>
</g>
</g>
<!-- Node13 -->
<g id="Node000013" class="node">
<title>Node13</title>
<g id="a_Node000013"><a xlink:href="bsm__4tops_2include_2bsm__4tops_2node__features_8h.html#a05898150cc9167a4de297df624e6c15a" target="_top" xlink:title=" ">
<polygon fill="white" stroke="#666666" points="244.5,-426 183.5,-426 183.5,-407 244.5,-407 244.5,-426"/>
<text text-anchor="middle" x="214" y="-414" font-family="Helvetica,sans-Serif" font-size="10.00">is_lepton</text>
</a>
</g>
</g>
<!-- Node1&#45;&gt;Node13 -->
<g id="edge13_Node000001_Node000013" class="edge">
<title>Node1&#45;&gt;Node13</title>
<g id="a_edge13_Node000001_Node000013"><a xlink:title=" ">
<path fill="none" stroke="#63b8ff" d="M71.96,-338.64C88.91,-355.56 118.58,-382.65 149,-398.5 156.65,-402.49 165.29,-405.68 173.69,-408.2"/>
<polygon fill="#63b8ff" stroke="#63b8ff" points="172.79,-411.59 183.36,-410.87 174.65,-404.84 172.79,-411.59"/>
</a>
</g>
</g>
<!-- Node14 -->
<g id="Node000014" class="node">
<title>Node14</title>
<g id="a_Node000014"><a xlink:href="bsm__4tops_2include_2bsm__4tops_2graph__features_8h.html#aa3877d6a2e8b77e08262de8b557b9845" target="_top" xlink:title=" ">
<polygon fill="white" stroke="#666666" points="249,-389 179,-389 179,-370 249,-370 249,-389"/>
<text text-anchor="middle" x="214" y="-377" font-family="Helvetica,sans-Serif" font-size="10.00">missing_et</text>
</a>
</g>
</g>
<!-- Node1&#45;&gt;Node14 -->
<g id="edge14_Node000001_Node000014" class="edge">
<title>Node1&#45;&gt;Node14</title>
<g id="a_edge14_Node000001_Node000014"><a xlink:title=" ">
<path fill="none" stroke="#63b8ff" d="M91.02,-338.55C108.18,-345.96 129.5,-354.74 149,-361.5 155.45,-363.74 162.33,-365.9 169.1,-367.91"/>
<polygon fill="#63b8ff" stroke="#63b8ff" points="168.31,-371.32 178.89,-370.72 170.24,-364.59 168.31,-371.32"/>
</a>
</g>
</g>
<!-- Node15 -->
<g id="Node000015" class="node">
<title>Node15</title>
<g id="a_Node000015"><a xlink:href="bsm__4tops_2include_2bsm__4tops_2graph__features_8h.html#af2c4c0d6c526b044cacd4b7a03274557" target="_top" xlink:title=" ">
<polygon fill="white" stroke="#666666" points="251.5,-352 176.5,-352 176.5,-333 251.5,-333 251.5,-352"/>
<text text-anchor="middle" x="214" y="-340" font-family="Helvetica,sans-Serif" font-size="10.00">missing_phi</text>
</a>
</g>
</g>
<!-- Node1&#45;&gt;Node15 -->
<g id="edge15_Node000001_Node000015" class="edge">
<title>Node1&#45;&gt;Node15</title>
<g id="a_edge15_Node000001_Node000015"><a xlink:title=" ">
<path fill="none" stroke="#63b8ff" d="M113.2,-330.31C130.52,-332.42 149.43,-334.73 166.09,-336.77"/>
<polygon fill="#63b8ff" stroke="#63b8ff" points="165.79,-340.26 176.14,-338 166.63,-333.31 165.79,-340.26"/>
</a>
</g>
</g>
<!-- Node16 -->
<g id="Node000016" class="node">
<title>Node16</title>
<g id="a_Node000016"><a xlink:href="bsm__4tops_2include_2bsm__4tops_2graph__features_8h.html#ae8e5a8c9e20c373fc6c4566c25f8a5e9" target="_top" xlink:title=" ">
<polygon fill="white" stroke="#666666" points="245,-315 183,-315 183,-296 245,-296 245,-315"/>
<text text-anchor="middle" x="214" y="-303" font-family="Helvetica,sans-Serif" font-size="10.00">num_jets</text>
</a>
</g>
</g>
<!-- Node1&#45;&gt;Node16 -->
<g id="edge16_Node000001_Node000016" class="edge">
<title>Node1&#45;&gt;Node16</title>
<g id="a_edge16_Node000001_Node000016"><a xlink:title=" ">
<path fill="none" stroke="#63b8ff" d="M113.2,-317.05C132.96,-314.76 154.79,-312.24 172.99,-310.13"/>
<polygon fill="#63b8ff" stroke="#63b8ff" points="173.43,-313.6 182.96,-308.98 172.62,-306.65 173.43,-313.6"/>
</a>
</g>
</g>
<!-- Node17 -->
<g id="Node000017" class="node">
<title>Node17</title>
<g id="a_Node000017"><a xlink:href="bsm__4tops_2include_2bsm__4tops_2graph__features_8h.html#a75c0e78e1f575a8475cf9d1958c47167" target="_top" xlink:title=" ">
<polygon fill="white" stroke="#666666" points="246,-278 182,-278 182,-259 246,-259 246,-278"/>
<text text-anchor="middle" x="214" y="-266" font-family="Helvetica,sans-Serif" font-size="10.00">num_leps</text>
</a>
</g>
</g>
<!-- Node1&#45;&gt;Node17 -->
<g id="edge17_Node000001_Node000017" class="edge">
<title>Node1&#45;&gt;Node17</title>
<g id="a_edge17_Node000001_Node000017"><a xlink:title=" ">
<path fill="none" stroke="#63b8ff" d="M93.74,-308.41C110.44,-301.67 130.6,-293.84 149,-287.5 156.47,-284.93 164.51,-282.37 172.27,-280.02"/>
<polygon fill="#63b8ff" stroke="#63b8ff" points="173.32,-283.36 181.9,-277.15 171.32,-276.65 173.32,-283.36"/>
</a>
</g>
</g>
<!-- Node18 -->
<g id="Node000018" class="node">
<title>Node18</title>
<g id="a_Node000018"><a xlink:href="bsm__4tops_2include_2bsm__4tops_2graph__features_8h.html#aad7321ef73eeb35377f5651c773d53c3" target="_top" xlink:title=" ">
<polygon fill="white" stroke="#666666" points="251,-241 177,-241 177,-222 251,-222 251,-241"/>
<text text-anchor="middle" x="214" y="-229" font-family="Helvetica,sans-Serif" font-size="10.00">num_lepton</text>
</a>
</g>
</g>
<!-- Node1&#45;&gt;Node18 -->
<g id="edge18_Node000001_Node000018" class="edge">
<title>Node1&#45;&gt;Node18</title>
<g id="a_edge18_Node000001_Node000018"><a xlink:title=" ">
<path fill="none" stroke="#63b8ff" d="M72.7,-308.27C89.86,-291.85 119.27,-266.01 149,-250.5 154.66,-247.54 160.86,-244.98 167.09,-242.78"/>
<polygon fill="#63b8ff" stroke="#63b8ff" points="168.41,-246.03 176.84,-239.61 166.25,-239.37 168.41,-246.03"/>
</a>
</g>
</g>
<!-- Node19 -->
<g id="Node000019" class="node">
<title>Node19</title>
<g id="a_Node000019"><a xlink:href="bsm__4tops_2include_2bsm__4tops_2graph__features_8h.html#ab67addeed0cfbc8b4e8ce19cd2e98cb4" target="_top" xlink:title=" ">
<polygon fill="white" stroke="#666666" points="246.5,-204 181.5,-204 181.5,-185 246.5,-185 246.5,-204"/>
<text text-anchor="middle" x="214" y="-192" font-family="Helvetica,sans-Serif" font-size="10.00">num_tops</text>
</a>
</g>
</g>
<!-- Node1&#45;&gt;Node19 -->
<g id="edge19_Node000001_Node000019" class="edge">
<title>Node1&#45;&gt;Node19</title>
<g id="a_edge19_Node000001_Node000019"><a xlink:title=" ">
<path fill="none" stroke="#63b8ff" d="M66.09,-308.26C80.26,-284.48 110.84,-238.65 149,-213.5 155.88,-208.97 163.87,-205.48 171.83,-202.82"/>
<polygon fill="#63b8ff" stroke="#63b8ff" points="172.86,-206.17 181.45,-199.96 170.87,-199.46 172.86,-206.17"/>
</a>
</g>
</g>
<!-- Node20 -->
<g id="Node000020" class="node">
<title>Node20</title>
<g id="a_Node000020"><a xlink:href="bsm__4tops_2include_2bsm__4tops_2edge__features_8h.html#a196518fb89ffbc60b3ca928dc80ac57d" target="_top" xlink:title=" ">
<polygon fill="white" stroke="#666666" points="244.5,-167 183.5,-167 183.5,-148 244.5,-148 244.5,-167"/>
<text text-anchor="middle" x="214" y="-155" font-family="Helvetica,sans-Serif" font-size="10.00">res_edge</text>
</a>
</g>
</g>
<!-- Node1&#45;&gt;Node20 -->
<g id="edge20_Node000001_Node000020" class="edge">
<title>Node1&#45;&gt;Node20</title>
<g id="a_edge20_Node000001_Node000020"><a xlink:title=" ">
<path fill="none" stroke="#63b8ff" d="M62.67,-308.49C73.69,-278.73 102.38,-212.04 149,-176.5 156.17,-171.04 164.88,-167.14 173.55,-164.36"/>
<polygon fill="#63b8ff" stroke="#63b8ff" points="174.52,-167.72 183.22,-161.68 172.65,-160.98 174.52,-167.72"/>
</a>
</g>
</g>
<!-- Node22 -->
<g id="Node000022" class="node">
<title>Node22</title>
<g id="a_Node000022"><a xlink:href="bsm__4tops_2include_2bsm__4tops_2node__features_8h.html#ab1c59b5f0c6a25f3a21b6ff62c95596a" target="_top" xlink:title=" ">
<polygon fill="white" stroke="#666666" points="244.5,-130 183.5,-130 183.5,-111 244.5,-111 244.5,-130"/>
<text text-anchor="middle" x="214" y="-118" font-family="Helvetica,sans-Serif" font-size="10.00">res_node</text>
</a>
</g>
</g>
<!-- Node1&#45;&gt;Node22 -->
<g id="edge22_Node000001_Node000022" class="edge">
<title>Node1&#45;&gt;Node22</title>
<g id="a_edge22_Node000001_Node000022"><a xlink:title=" ">
<path fill="none" stroke="#63b8ff" d="M60.69,-308.32C68.88,-273.19 93.97,-185.75 149,-139.5 156.03,-133.59 164.83,-129.52 173.64,-126.72"/>
<polygon fill="#63b8ff" stroke="#63b8ff" points="174.75,-130.04 183.49,-124.06 172.93,-123.29 174.75,-130.04"/>
</a>
</g>
</g>
<!-- Node23 -->
<g id="Node000023" class="node">
<title>Node23</title>
<g id="a_Node000023"><a xlink:href="bsm__4tops_2include_2bsm__4tops_2graph__features_8h.html#a50dd3e9329b3d7325cde2d4b8059cb60" target="_top" xlink:title=" ">
<polygon fill="white" stroke="#666666" points="253.5,-93 174.5,-93 174.5,-74 253.5,-74 253.5,-93"/>
<text text-anchor="middle" x="214" y="-81" font-family="Helvetica,sans-Serif" font-size="10.00">signal_event</text>
</a>
</g>
</g>
<!-- Node1&#45;&gt;Node23 -->
<g id="edge23_Node000001_Node000023" class="edge">
<title>Node1&#45;&gt;Node23</title>
<g id="a_edge23_Node000001_Node000023"><a xlink:title=" ">
<path fill="none" stroke="#63b8ff" d="M59.29,-308.35C64.83,-268.5 85.3,-159.9 149,-102.5 153.52,-98.42 158.88,-95.22 164.55,-92.7"/>
<polygon fill="#63b8ff" stroke="#63b8ff" points="166.13,-95.85 174.28,-89.08 163.69,-89.29 166.13,-95.85"/>
</a>
</g>
</g>
<!-- Node24 -->
<g id="Node000024" class="node">
<title>Node24</title>
<g id="a_Node000024"><a xlink:href="bsm__4tops_2include_2bsm__4tops_2edge__features_8h.html#af35cf309c4131ca516f825cf67635ceb" target="_top" xlink:title=" ">
<polygon fill="white" stroke="#666666" points="245,-56 183,-56 183,-37 245,-37 245,-56"/>
<text text-anchor="middle" x="214" y="-44" font-family="Helvetica,sans-Serif" font-size="10.00">top_edge</text>
</a>
</g>
</g>
<!-- Node1&#45;&gt;Node24 -->
<g id="edge24_Node000001_Node000024" class="edge">
<title>Node1&#45;&gt;Node24</title>
<g id="a_edge24_Node000001_Node000024"><a xlink:title=" ">
<path fill="none" stroke="#63b8ff" d="M58.2,-308.37C61.09,-264.01 75.73,-133.12 149,-64.5 155.61,-58.31 164.18,-54.22 172.89,-51.53"/>
<polygon fill="#63b8ff" stroke="#63b8ff" points="173.85,-54.9 182.68,-49.05 172.13,-48.11 173.85,-54.9"/>
</a>
</g>
</g>
<!-- Node26 -->
<g id="Node000026" class="node">
<title>Node26</title>
<g id="a_Node000026"><a xlink:href="bsm__4tops_2include_2bsm__4tops_2node__features_8h.html#ab2215efaacd3bffb7241a74646421796" target="_top" xlink:title=" ">
<polygon fill="white" stroke="#666666" points="245,-19 183,-19 183,0 245,0 245,-19"/>
<text text-anchor="middle" x="214" y="-7" font-family="Helvetica,sans-Serif" font-size="10.00">top_node</text>
</a>
</g>
</g>
<!-- Node1&#45;&gt;Node26 -->
<g id="edge26_Node000001_Node000026" class="edge">
<title>Node1&#45;&gt;Node26</title>
<g id="a_edge26_Node000001_Node000026"><a xlink:title=" ">
<path fill="none" stroke="#63b8ff" d="M57.43,-308.36C58.05,-259.99 66.76,-107.65 149,-27.5 155.55,-21.12 164.17,-16.96 172.95,-14.27"/>
<polygon fill="#63b8ff" stroke="#63b8ff" points="173.98,-17.62 182.84,-11.8 172.29,-10.83 173.98,-17.62"/>
</a>
</g>
</g>
<!-- Node4 -->
<g id="Node000004" class="node">
<title>Node4</title>
<g id="a_Node000004"><a xlink:href="classgraph__template.html#a255ec8fcf27b7352445397e5245cc9ef" target="_top" xlink:title=" ">
<polygon fill="white" stroke="#666666" points="425,-640.5 315,-640.5 315,-610.5 425,-610.5 425,-640.5"/>
<text text-anchor="start" x="323" y="-628.5" font-family="Helvetica,sans-Serif" font-size="10.00">graph_template::to</text>
<text text-anchor="middle" x="370" y="-617.5" font-family="Helvetica,sans-Serif" font-size="10.00">_tensor</text>
</a>
</g>
</g>
<!-- Node3&#45;&gt;Node4 -->
<g id="edge3_Node000003_Node000004" class="edge">
<title>Node3&#45;&gt;Node4</title>
<g id="a_edge3_Node000003_Node000004"><a xlink:title=" ">
<path fill="none" stroke="#63b8ff" d="M279.42,-625.5C287.74,-625.5 296.26,-625.5 304.58,-625.5"/>
<polygon fill="#63b8ff" stroke="#63b8ff" points="304.6,-629 314.6,-625.5 304.6,-622 304.6,-629"/>
</a>
</g>
</g>
<!-- Node5 -->
<g id="Node000005" class="node">
<title>Node5</title>
<g id="a_Node000005"><a xlink:href="tensor__cast_8h.html#a27121e7e5aeb77bda0453dd6214cf7fb" target="_top" xlink:title=" ">
<polygon fill="white" stroke="#666666" points="538,-635 461,-635 461,-616 538,-616 538,-635"/>
<text text-anchor="middle" x="499.5" y="-623" font-family="Helvetica,sans-Serif" font-size="10.00">build_tensor</text>
</a>
</g>
</g>
<!-- Node4&#45;&gt;Node5 -->
<g id="edge4_Node000004_Node000005" class="edge">
<title>Node4&#45;&gt;Node5</title>
<g id="a_edge4_Node000004_Node000005"><a xlink:title=" ">
<path fill="none" stroke="#63b8ff" d="M425.07,-625.5C433.66,-625.5 442.49,-625.5 450.91,-625.5"/>
<polygon fill="#63b8ff" stroke="#63b8ff" points="450.95,-629 460.95,-625.5 450.95,-622 450.95,-629"/>
</a>
</g>
</g>
<!-- Node6 -->
<g id="Node000006" class="node">
<title>Node6</title>
<g id="a_Node000006"><a xlink:href="tensor__cast_8h.html#a49d70dbad1cfb3e27ebb8960cff818bb" target="_top" xlink:title=" ">
<polygon fill="white" stroke="#666666" points="651,-672 574,-672 574,-653 651,-653 651,-672"/>
<text text-anchor="middle" x="612.5" y="-660" font-family="Helvetica,sans-Serif" font-size="10.00">as_primitive</text>
</a>
</g>
</g>
<!-- Node5&#45;&gt;Node6 -->
<g id="edge5_Node000005_Node000006" class="edge">
<title>Node5&#45;&gt;Node6</title>
<g id="a_edge5_Node000005_Node000006"><a xlink:title=" ">
<path fill="none" stroke="#63b8ff" d="M529.09,-635.03C542.45,-639.48 558.55,-644.85 572.97,-649.66"/>
<polygon fill="#63b8ff" stroke="#63b8ff" points="572.03,-653.03 582.63,-652.88 574.25,-646.39 572.03,-653.03"/>
</a>
</g>
</g>
<!-- Node7 -->
<g id="Node000007" class="node">
<title>Node7</title>
<g id="a_Node000007"><a xlink:href="tensor__cast_8h.html#af735bf7b89e3864dbde7fe5def867d4d" target="_top" xlink:title=" ">
<polygon fill="white" stroke="#666666" points="646,-635 579,-635 579,-616 646,-616 646,-635"/>
<text text-anchor="middle" x="612.5" y="-623" font-family="Helvetica,sans-Serif" font-size="10.00">scout_dim</text>
</a>
</g>
</g>
<!-- Node5&#45;&gt;Node7 -->
<g id="edge6_Node000005_Node000007" class="edge">
<title>Node5&#45;&gt;Node7</title>
<g id="a_edge6_Node000005_Node000007"><a xlink:title=" ">
<path fill="none" stroke="#63b8ff" d="M538.08,-625.5C547.88,-625.5 558.52,-625.5 568.58,-625.5"/>
<polygon fill="#63b8ff" stroke="#63b8ff" points="568.79,-629 578.79,-625.5 568.79,-622 568.79,-629"/>
</a>
</g>
</g>
<!-- Node8 -->
<g id="Node000008" class="node">
<title>Node8</title>
<g id="a_Node000008"><a xlink:href="tensor__cast_8h.html#af14120999422d60b3d0aef376398fca6" target="_top" xlink:title=" ">
<polygon fill="white" stroke="#666666" points="642,-598 583,-598 583,-579 642,-579 642,-598"/>
<text text-anchor="middle" x="612.5" y="-586" font-family="Helvetica,sans-Serif" font-size="10.00">standard</text>
</a>
</g>
</g>
<!-- Node5&#45;&gt;Node8 -->
<g id="edge7_Node000005_Node000008" class="edge">
<title>Node5&#45;&gt;Node8</title>
<g id="a_edge7_Node000005_Node000008"><a xlink:title=" ">
<path fill="none" stroke="#63b8ff" d="M529.09,-615.97C542.45,-611.52 558.55,-606.15 572.97,-601.34"/>
<polygon fill="#63b8ff" stroke="#63b8ff" points="574.25,-604.61 582.63,-598.12 572.03,-597.97 574.25,-604.61"/>
</a>
</g>
</g>
<!-- Node9&#45;&gt;Node9 -->
<g id="edge9_Node000009_Node000009" class="edge">
<title>Node9&#45;&gt;Node9</title>
<g id="a_edge9_Node000009_Node000009"><a xlink:title=" ">
<path fill="none" stroke="#63b8ff" d="M189.96,-574.08C178.26,-582.73 186.27,-592 214,-592 232.2,-592 241.9,-588.01 243.12,-582.82"/>
<polygon fill="#63b8ff" stroke="#63b8ff" points="246.09,-580.97 238.04,-574.08 240.04,-584.49 246.09,-580.97"/>
</a>
</g>
</g>
<!-- Node21 -->
<g id="Node000021" class="node">
<title>Node21</title>
<g id="a_Node000021"><a xlink:href="bsm__4tops_2include_2bsm__4tops_2edge__features_8h.html#a9addd2275949f0828310adb01cc761a3" target="_top" xlink:title=" ">
<polygon fill="white" stroke="#666666" points="408,-167 332,-167 332,-148 408,-148 408,-167"/>
<text text-anchor="middle" x="370" y="-155" font-family="Helvetica,sans-Serif" font-size="10.00">m_res_edge</text>
</a>
</g>
</g>
<!-- Node20&#45;&gt;Node21 -->
<g id="edge21_Node000020_Node000021" class="edge">
<title>Node20&#45;&gt;Node21</title>
<g id="a_edge21_Node000020_Node000021"><a xlink:title=" ">
<path fill="none" stroke="#63b8ff" d="M244.69,-157.5C266.51,-157.5 296.6,-157.5 321.71,-157.5"/>
<polygon fill="#63b8ff" stroke="#63b8ff" points="321.77,-161 331.77,-157.5 321.77,-154 321.77,-161"/>
</a>
</g>
</g>
<!-- Node25 -->
<g id="Node000025" class="node">
<title>Node25</title>
<g id="a_Node000025"><a xlink:href="bsm__4tops_2include_2bsm__4tops_2edge__features_8h.html#a28ada91c16a5975605583559f663b268" target="_top" xlink:title=" ">
<polygon fill="white" stroke="#666666" points="408.5,-56 331.5,-56 331.5,-37 408.5,-37 408.5,-56"/>
<text text-anchor="middle" x="370" y="-44" font-family="Helvetica,sans-Serif" font-size="10.00">m_top_edge</text>
</a>
</g>
</g>
<!-- Node24&#45;&gt;Node25 -->
<g id="edge25_Node000024_Node000025" class="edge">
<title>Node24&#45;&gt;Node25</title>
<g id="a_edge25_Node000024_Node000025"><a xlink:title=" ">
<path fill="none" stroke="#63b8ff" d="M245.06,-46.5C266.66,-46.5 296.22,-46.5 321.06,-46.5"/>
<polygon fill="#63b8ff" stroke="#63b8ff" points="321.38,-50 331.38,-46.5 321.38,-43 321.38,-50"/>
</a>
</g>
</g>
</g>
</svg>
