<?xml version="1.0" encoding="UTF-8" standalone="no"?>
<!DOCTYPE svg PUBLIC "-//W3C//DTD SVG 1.1//EN"
 "http://www.w3.org/Graphics/SVG/1.1/DTD/svg11.dtd">
<!-- Generated by graphviz version 2.43.0 (0)
 -->
<!-- Title: ssml_mc20::CompileEvent Pages: 1 -->
<svg width="416pt" height="131pt"
 viewBox="0.00 0.00 416.18 131.00" xmlns="http://www.w3.org/2000/svg" xmlns:xlink="http://www.w3.org/1999/xlink">

<svg id="main" version="1.1" xmlns="http://www.w3.org/2000/svg" xmlns:xlink="http://www.w3.org/1999/xlink" xml:space="preserve" onload="init(evt)">
<style type="text/css"><![CDATA[
.node, .edge {opacity: 0.7;}
.node.selected, .edge.selected {opacity: 1;}
.edge:hover path { stroke: red; }
.edge:hover polygon { stroke: red; fill: red; }
]]></style>
<script type="application/ecmascript" xlink:href="svg.min.js"/>
<svg id="graph" class="graph">
<g id="graph0" class="graph" transform="scale(1 1) rotate(0) translate(4 127)">
<title>ssml_mc20::CompileEvent</title>
<!-- Node1 -->
<g id="Node000001" class="node">
<title>Node1</title>
<g id="a_Node000001"><a xlink:title=" ">
<polygon fill="#999999" stroke="#666666" points="146,-62 0,-62 0,-43 146,-43 146,-62"/>
<text text-anchor="middle" x="73" y="-50" font-family="Helvetica,sans-Serif" font-size="10.00">ssml_mc20::CompileEvent</text>
</a>
</g>
</g>
<!-- Node2 -->
<g id="Node000002" class="node">
<title>Node2</title>
<g id="a_Node000002"><a xlink:href="classssml__mc20.html#a895929ee61eda66accfedcaf9c7fa7a7" target="_top" xlink:title=" ">
<polygon fill="white" stroke="#666666" points="326,-105 182,-105 182,-86 326,-86 326,-105"/>
<text text-anchor="middle" x="254" y="-93" font-family="Helvetica,sans-Serif" font-size="10.00">ssml_mc20::match_object</text>
</a>
</g>
</g>
<!-- Node1&#45;&gt;Node2 -->
<g id="edge1_Node000001_Node000002" class="edge">
<title>Node1&#45;&gt;Node2</title>
<g id="a_edge1_Node000001_Node000002"><a xlink:title=" ">
<path fill="none" stroke="#63b8ff" d="M113.73,-62.04C140.14,-68.39 175.05,-76.77 203.3,-83.56"/>
<polygon fill="#63b8ff" stroke="#63b8ff" points="202.84,-87.05 213.39,-85.98 204.48,-80.24 202.84,-87.05"/>
</a>
</g>
</g>
<!-- Node4 -->
<g id="Node000004" class="node">
<title>Node4</title>
<g id="a_Node000004"><a xlink:href="classssml__mc20.html#a9fe37dd4db0fa9901128d49b9337f0fa" target="_top" xlink:title=" ">
<polygon fill="white" stroke="#666666" points="311,-67.5 197,-67.5 197,-37.5 311,-37.5 311,-67.5"/>
<text text-anchor="start" x="205" y="-55.5" font-family="Helvetica,sans-Serif" font-size="10.00">ssml_mc20::sort_by</text>
<text text-anchor="middle" x="254" y="-44.5" font-family="Helvetica,sans-Serif" font-size="10.00">_index</text>
</a>
</g>
</g>
<!-- Node1&#45;&gt;Node4 -->
<g id="edge4_Node000001_Node000004" class="edge">
<title>Node1&#45;&gt;Node4</title>
<g id="a_edge4_Node000001_Node000004"><a xlink:title=" ">
<path fill="none" stroke="#63b8ff" d="M146.03,-52.5C159.37,-52.5 173.25,-52.5 186.41,-52.5"/>
<polygon fill="#63b8ff" stroke="#63b8ff" points="186.8,-56 196.8,-52.5 186.8,-49 186.8,-56"/>
</a>
</g>
</g>
<!-- Node5 -->
<g id="Node000005" class="node">
<title>Node5</title>
<g id="a_Node000005"><a xlink:href="classssml__mc20.html#a297986522e928a459290d982ce75d69e" target="_top" xlink:title=" ">
<polygon fill="white" stroke="#666666" points="315.5,-19 192.5,-19 192.5,0 315.5,0 315.5,-19"/>
<text text-anchor="middle" x="254" y="-7" font-family="Helvetica,sans-Serif" font-size="10.00">ssml_mc20::vectorize</text>
</a>
</g>
</g>
<!-- Node1&#45;&gt;Node5 -->
<g id="edge5_Node000001_Node000005" class="edge">
<title>Node1&#45;&gt;Node5</title>
<g id="a_edge5_Node000001_Node000005"><a xlink:title=" ">
<path fill="none" stroke="#63b8ff" d="M113.73,-42.96C140.14,-36.61 175.05,-28.23 203.3,-21.44"/>
<polygon fill="#63b8ff" stroke="#63b8ff" points="204.48,-24.76 213.39,-19.02 202.84,-17.95 204.48,-24.76"/>
</a>
</g>
</g>
<!-- Node3 -->
<g id="Node000003" class="node">
<title>Node3</title>
<g id="a_Node000003"><a xlink:href="structs_2cxx_2base_8cxx.html#a4eee7b291ed2cdcd4e3c2496c603c48c" target="_top" xlink:title="Counts occurrences of a substring in a string.">
<polygon fill="white" stroke="#666666" points="406,-105 362,-105 362,-86 406,-86 406,-105"/>
<text text-anchor="middle" x="384" y="-93" font-family="Helvetica,sans-Serif" font-size="10.00">count</text>
</a>
</g>
</g>
<!-- Node2&#45;&gt;Node3 -->
<g id="edge2_Node000002_Node000003" class="edge">
<title>Node2&#45;&gt;Node3</title>
<g id="a_edge2_Node000002_Node000003"><a xlink:title=" ">
<path fill="none" stroke="#63b8ff" d="M326.11,-95.5C335.05,-95.5 343.81,-95.5 351.66,-95.5"/>
<polygon fill="#63b8ff" stroke="#63b8ff" points="351.75,-99 361.75,-95.5 351.75,-92 351.75,-99"/>
</a>
</g>
</g>
<!-- Node3&#45;&gt;Node3 -->
<g id="edge3_Node000003_Node000003" class="edge">
<title>Node3&#45;&gt;Node3</title>
<g id="a_edge3_Node000003_Node000003"><a xlink:title=" ">
<path fill="none" stroke="#63b8ff" d="M363.96,-105.08C354.22,-113.73 360.89,-123 384,-123 398.8,-123 406.86,-119.2 408.18,-114.19"/>
<polygon fill="#63b8ff" stroke="#63b8ff" points="411.36,-112.73 404.04,-105.08 404.99,-115.63 411.36,-112.73"/>
</a>
</g>
</g>
</g>
</svg>
</svg>

<style type='text/css'>
<![CDATA[
[data-mouse-over-selected='false'] { opacity: 0.7; }
[data-mouse-over-selected='true']  { opacity: 1.0; }
]]>
</style>
<script type="application/ecmascript"><![CDATA[
document.addEventListener('DOMContentLoaded', (event) => {
  highlightEdges();
  highlightAdjacentNodes();
});
]]></script>
</svg>
