<?xml version="1.0" encoding="UTF-8" standalone="no"?>
<!DOCTYPE svg PUBLIC "-//W3C//DTD SVG 1.1//EN"
 "http://www.w3.org/Graphics/SVG/1.1/DTD/svg11.dtd">
<!-- Generated by graphviz version 2.43.0 (0)
 -->
<!-- Title: meta::compiler Pages: 1 -->
<svg width="232pt" height="64pt"
 viewBox="0.00 0.00 232.00 64.00" xmlns="http://www.w3.org/2000/svg" xmlns:xlink="http://www.w3.org/1999/xlink">
<g id="graph0" class="graph" transform="scale(1 1) rotate(0) translate(4 60)">
<title>meta::compiler</title>
<!-- Node1 -->
<g id="Node000001" class="node">
<title>Node1</title>
<g id="a_Node000001"><a xlink:title="Internal method to compile or process metadata after parsing.">
<polygon fill="#999999" stroke="#666666" points="91,-37 0,-37 0,-18 91,-18 91,-37"/>
<text text-anchor="middle" x="45.5" y="-25" font-family="Helvetica,sans-Serif" font-size="10.00">meta::compiler</text>
</a>
</g>
</g>
<!-- Node2 -->
<g id="Node000002" class="node">
<title>Node2</title>
<g id="a_Node000002"><a xlink:href="classtools.html#ad7229c72cee65da3605c4be82f9b42d4" target="_top" xlink:title="Checks if a string contains a specific substring.">
<polygon fill="white" stroke="#666666" points="224,-56 127,-56 127,-37 224,-37 224,-56"/>
<text text-anchor="middle" x="175.5" y="-44" font-family="Helvetica,sans-Serif" font-size="10.00">tools::has_string</text>
</a>
</g>
</g>
<!-- Node1&#45;&gt;Node2 -->
<g id="edge1_Node000001_Node000002" class="edge">
<title>Node1&#45;&gt;Node2</title>
<g id="a_edge1_Node000001_Node000002"><a xlink:title=" ">
<path fill="none" stroke="#63b8ff" d="M91.27,-34.15C99.56,-35.38 108.32,-36.68 116.93,-37.95"/>
<polygon fill="#63b8ff" stroke="#63b8ff" points="116.52,-41.43 126.93,-39.44 117.55,-34.51 116.52,-41.43"/>
</a>
</g>
</g>
<!-- Node3 -->
<g id="Node000003" class="node">
<title>Node3</title>
<g id="a_Node000003"><a xlink:href="classtools.html#a352a6965f2f3c768f0f4ecd1f978fcc0" target="_top" xlink:title="Splits a string into a vector of substrings based on a delimiter.">
<polygon fill="white" stroke="#666666" points="209.5,-19 141.5,-19 141.5,0 209.5,0 209.5,-19"/>
<text text-anchor="middle" x="175.5" y="-7" font-family="Helvetica,sans-Serif" font-size="10.00">tools::split</text>
</a>
</g>
</g>
<!-- Node1&#45;&gt;Node3 -->
<g id="edge2_Node000001_Node000003" class="edge">
<title>Node1&#45;&gt;Node3</title>
<g id="a_edge2_Node000001_Node000003"><a xlink:title=" ">
<path fill="none" stroke="#63b8ff" d="M91.27,-21.2C104.24,-19.38 118.37,-17.39 131.25,-15.58"/>
<polygon fill="#63b8ff" stroke="#63b8ff" points="131.84,-19.03 141.26,-14.17 130.87,-12.1 131.84,-19.03"/>
</a>
</g>
</g>
</g>
</svg>
