<?xml version="1.0" encoding="UTF-8" standalone="no"?>
<!DOCTYPE svg PUBLIC "-//W3C//DTD SVG 1.1//EN"
 "http://www.w3.org/Graphics/SVG/1.1/DTD/svg11.dtd">
<!-- Generated by graphviz version 2.43.0 (0)
 -->
<!-- Title: metric_template::get_name Pages: 1 -->
<svg width="675pt" height="64pt"
 viewBox="0.00 0.00 675.00 64.00" xmlns="http://www.w3.org/2000/svg" xmlns:xlink="http://www.w3.org/1999/xlink">
<g id="graph0" class="graph" transform="scale(1 1) rotate(0) translate(4 60)">
<title>metric_template::get_name</title>
<!-- Node1 -->
<g id="Node000001" class="node">
<title>Node1</title>
<g id="a_Node000001"><a xlink:title=" ">
<polygon fill="#999999" stroke="#666666" points="667,-37 515,-37 515,-18 667,-18 667,-37"/>
<text text-anchor="middle" x="591" y="-25" font-family="Helvetica,sans-Serif" font-size="10.00">metric_template::get_name</text>
</a>
</g>
</g>
<!-- Node2 -->
<g id="Node000002" class="node">
<title>Node2</title>
<g id="a_Node000002"><a xlink:href="classmetric__template.html#a4f076b39d712cc1ed944d25328bcc271" target="_top" xlink:title=" ">
<polygon fill="white" stroke="#666666" points="479,-42.5 344,-42.5 344,-12.5 479,-12.5 479,-42.5"/>
<text text-anchor="start" x="352" y="-30.5" font-family="Helvetica,sans-Serif" font-size="10.00">metric_template::metric</text>
<text text-anchor="middle" x="411.5" y="-19.5" font-family="Helvetica,sans-Serif" font-size="10.00">_template</text>
</a>
</g>
</g>
<!-- Node1&#45;&gt;Node2 -->
<g id="edge1_Node000001_Node000002" class="edge">
<title>Node1&#45;&gt;Node2</title>
<g id="a_edge1_Node000001_Node000002"><a xlink:title=" ">
<path fill="none" stroke="#63b8ff" d="M504.86,-27.5C496.21,-27.5 487.51,-27.5 479.09,-27.5"/>
<polygon fill="#63b8ff" stroke="#63b8ff" points="504.98,-31 514.98,-27.5 504.98,-24 504.98,-31"/>
</a>
</g>
</g>
<!-- Node3 -->
<g id="Node000003" class="node">
<title>Node3</title>
<g id="a_Node000003"><a xlink:href="classmetric__template.html#ad4020c5c29a7944e9cadd244fd11e952" target="_top" xlink:title=" ">
<polygon fill="white" stroke="#666666" points="308,-37 178,-37 178,-18 308,-18 308,-37"/>
<text text-anchor="middle" x="243" y="-25" font-family="Helvetica,sans-Serif" font-size="10.00">metric_template::clone</text>
</a>
</g>
</g>
<!-- Node2&#45;&gt;Node3 -->
<g id="edge2_Node000002_Node000003" class="edge">
<title>Node2&#45;&gt;Node3</title>
<g id="a_edge2_Node000002_Node000003"><a xlink:title=" ">
<path fill="none" stroke="#63b8ff" d="M333.73,-27.5C325.15,-27.5 316.47,-27.5 308.07,-27.5"/>
<polygon fill="#63b8ff" stroke="#63b8ff" points="333.74,-31 343.74,-27.5 333.74,-24 333.74,-31"/>
</a>
</g>
</g>
<!-- Node4 -->
<g id="Node000004" class="node">
<title>Node4</title>
<g id="a_Node000004"><a xlink:href="classmetric__template.html#a6df640366841f67134f080372ee9a0c5" target="_top" xlink:title=" ">
<polygon fill="white" stroke="#666666" points="136,-56 6,-56 6,-37 136,-37 136,-56"/>
<text text-anchor="middle" x="71" y="-44" font-family="Helvetica,sans-Serif" font-size="10.00">metric_template::clone</text>
</a>
</g>
</g>
<!-- Node3&#45;&gt;Node4 -->
<g id="edge3_Node000003_Node000004" class="edge">
<title>Node3&#45;&gt;Node4</title>
<g id="a_edge3_Node000003_Node000004"><a xlink:title=" ">
<path fill="none" stroke="#63b8ff" d="M167.71,-35.8C157.17,-36.98 146.4,-38.18 136.08,-39.34"/>
<polygon fill="#63b8ff" stroke="#63b8ff" points="168.18,-39.27 177.73,-34.68 167.4,-32.32 168.18,-39.27"/>
</a>
</g>
</g>
<!-- Node5 -->
<g id="Node000005" class="node">
<title>Node5</title>
<g id="a_Node000005"><a xlink:href="classmetric__template.html#a422951eb9279ed05c885795ebeed0e5b" target="_top" xlink:title=" ">
<polygon fill="white" stroke="#666666" points="142,-19 0,-19 0,0 142,0 142,-19"/>
<text text-anchor="middle" x="71" y="-7" font-family="Helvetica,sans-Serif" font-size="10.00">metric_template::execute</text>
</a>
</g>
</g>
<!-- Node3&#45;&gt;Node5 -->
<g id="edge4_Node000003_Node000005" class="edge">
<title>Node3&#45;&gt;Node5</title>
<g id="a_edge4_Node000003_Node000005"><a xlink:title=" ">
<path fill="none" stroke="#63b8ff" d="M167.78,-19.64C159.23,-18.74 150.53,-17.82 142.04,-16.92"/>
<polygon fill="#63b8ff" stroke="#63b8ff" points="167.42,-23.12 177.73,-20.69 168.15,-16.16 167.42,-23.12"/>
</a>
</g>
</g>
</g>
</svg>
