<?xml version="1.0" encoding="UTF-8" standalone="no"?>
<!DOCTYPE svg PUBLIC "-//W3C//DTD SVG 1.1//EN"
 "http://www.w3.org/Graphics/SVG/1.1/DTD/svg11.dtd">
<!-- Generated by graphviz version 2.43.0 (0)
 -->
<!-- Title: optimizer Pages: 1 -->
<!--zoomable 607 -->

<svg id="main" version="1.1" xmlns="http://www.w3.org/2000/svg" xmlns:xlink="http://www.w3.org/1999/xlink" xml:space="preserve" onload="init(evt)">
<style type="text/css"><![CDATA[
.node, .edge {opacity: 0.7;}
.node.selected, .edge.selected {opacity: 1;}
.edge:hover path { stroke: red; }
.edge:hover polygon { stroke: red; fill: red; }
]]></style>

<defs>
  <circle id="rim" cx="0" cy="0" r="7"/>
  <circle id="rim2" cx="0" cy="0" r="3.5"/>
  <g id="zoomPlus">
    <use xlink:href="#rim" fill="#404040"><set attributeName="fill" to="#808080" begin="zoomplus.mouseover" end="zoomplus.mouseout"/></use>
    <path d="M-4,0h8M0,-4v8" fill="none" stroke="white" stroke-width="1.5" pointer-events="none"/>
  </g>
  <g id="zoomMin">
    <use xlink:href="#rim" fill="#404040"><set attributeName="fill" to="#808080" begin="zoomminus.mouseover" end="zoomminus.mouseout"/></use>
    <path d="M-4,0h8" fill="none" stroke="white" stroke-width="1.5" pointer-events="none"/>
  </g>
  <g id="arrowUp" transform="translate(30 24)">
    <use xlink:href="#rim"/>
    <path pointer-events="none" fill="none" stroke="white" stroke-width="1.5" d="M0,-3.0v7 M-2.5,-0.5L0,-3.0L2.5,-0.5"/>
  </g>
  <g id="arrowRight" transform="rotate(90) translate(36 -43)">
    <use xlink:href="#rim"/>
    <path pointer-events="none" fill="none" stroke="white" stroke-width="1.5" d="M0,-3.0v7 M-2.5,-0.5L0,-3.0L2.5,-0.5"/>
  </g>
  <g id="arrowDown" transform="rotate(180) translate(-30 -48)">
    <use xlink:href="#rim"/>
    <path pointer-events="none" fill="none" stroke="white" stroke-width="1.5" d="M0,-3.0v7 M-2.5,-0.5L0,-3.0L2.5,-0.5"/>
  </g>
  <g id="arrowLeft" transform="rotate(270) translate(-36 17)">
    <use xlink:href="#rim"/>
    <path pointer-events="none" fill="none" stroke="white" stroke-width="1.5" d="M0,-3.0v7 M-2.5,-0.5L0,-3.0L2.5,-0.5"/>
  </g>
  <g id="resetDef">
    <use xlink:href="#rim2" fill="#404040"><set attributeName="fill" to="#808080" begin="reset.mouseover" end="reset.mouseout"/></use>
  </g>
</defs>
<script type="application/ecmascript">
var viewWidth = 262;
var viewHeight = 607;
var sectionId = 'dynsection-0';
</script>
<script type="application/ecmascript" xlink:href="svg.min.js"/>
<svg id="graph" class="graph">
<g id="viewport">
<title>optimizer</title>
<!-- Node1 -->
<g id="Node000001" class="node">
<title>Node1</title>
<g id="a_Node000001"><a xlink:title=" ">
<polygon fill="#999999" stroke="transparent" points="189.5,-214 44.5,-214 44.5,0 189.5,0 189.5,-214"/>
<text text-anchor="start" x="94" y="-202" font-family="Helvetica,sans-Serif" font-size="10.00">optimizer</text>
<text text-anchor="start" x="49" y="-187" font-family="Helvetica,sans-Serif" font-size="10.00">+</text>
<text text-anchor="start" x="62" y="-187" font-family="Helvetica,sans-Serif" font-size="10.00">m_settings</text>
<text text-anchor="start" x="49" y="-172" font-family="Helvetica,sans-Serif" font-size="10.00">+</text>
<text text-anchor="start" x="62" y="-172" font-family="Helvetica,sans-Serif" font-size="10.00">kfold_sessions</text>
<text text-anchor="start" x="49" y="-157" font-family="Helvetica,sans-Serif" font-size="10.00">+</text>
<text text-anchor="start" x="62" y="-157" font-family="Helvetica,sans-Serif" font-size="10.00">reports</text>
<text text-anchor="start" x="49" y="-142" font-family="Helvetica,sans-Serif" font-size="10.00">+</text>
<text text-anchor="start" x="62" y="-142" font-family="Helvetica,sans-Serif" font-size="10.00">metric</text>
<text text-anchor="start" x="49" y="-127" font-family="Helvetica,sans-Serif" font-size="10.00">+</text>
<text text-anchor="start" x="62" y="-127" font-family="Helvetica,sans-Serif" font-size="10.00">loader</text>
<text text-anchor="start" x="49" y="-112" font-family="Helvetica,sans-Serif" font-size="10.00">+</text>
<text text-anchor="start" x="62" y="-112" font-family="Helvetica,sans-Serif" font-size="10.00">optimizer()</text>
<text text-anchor="start" x="49" y="-97" font-family="Helvetica,sans-Serif" font-size="10.00">+</text>
<text text-anchor="start" x="62" y="-97" font-family="Helvetica,sans-Serif" font-size="10.00">~optimizer()</text>
<text text-anchor="start" x="49" y="-82" font-family="Helvetica,sans-Serif" font-size="10.00">+</text>
<text text-anchor="start" x="62" y="-82" font-family="Helvetica,sans-Serif" font-size="10.00">import_dataloader()</text>
<text text-anchor="start" x="49" y="-67" font-family="Helvetica,sans-Serif" font-size="10.00">+</text>
<text text-anchor="start" x="62" y="-67" font-family="Helvetica,sans-Serif" font-size="10.00">import_model_sessions()</text>
<text text-anchor="start" x="49" y="-52" font-family="Helvetica,sans-Serif" font-size="10.00">+</text>
<text text-anchor="start" x="62" y="-52" font-family="Helvetica,sans-Serif" font-size="10.00">training_loop()</text>
<text text-anchor="start" x="49" y="-37" font-family="Helvetica,sans-Serif" font-size="10.00">+</text>
<text text-anchor="start" x="62" y="-37" font-family="Helvetica,sans-Serif" font-size="10.00">validation_loop()</text>
<text text-anchor="start" x="49" y="-22" font-family="Helvetica,sans-Serif" font-size="10.00">+</text>
<text text-anchor="start" x="62" y="-22" font-family="Helvetica,sans-Serif" font-size="10.00">evaluation_loop()</text>
<text text-anchor="start" x="49" y="-7" font-family="Helvetica,sans-Serif" font-size="10.00">+</text>
<text text-anchor="start" x="62" y="-7" font-family="Helvetica,sans-Serif" font-size="10.00">launch_model()</text>
<polygon fill="#666666" stroke="#666666" points="45,-197 45,-197 190,-197 190,-197 45,-197"/>
<polygon fill="#666666" stroke="#666666" points="45,-122 45,-122 60,-122 60,-122 45,-122"/>
<polygon fill="#666666" stroke="#666666" points="60,-122 60,-122 190,-122 190,-122 60,-122"/>
<polygon fill="none" stroke="#666666" points="44.5,0 44.5,-214 189.5,-214 189.5,0 44.5,0"/>
</a>
</g>
</g>
<!-- Node2 -->
<g id="Node000002" class="node">
<title>Node2</title>
<g id="a_Node000002"><a xlink:href="classtools.html" target="_top" xlink:title="Provides a wide range of utility functions used throughout the framework.">
<polygon fill="white" stroke="transparent" points="98,-599 0,-599 0,-250 98,-250 98,-599"/>
<text text-anchor="start" x="36.5" y="-586.5" font-family="Helvetica,sans-Serif" font-size="10.00">tools</text>
<text text-anchor="start" x="47" y="-571.5" font-family="Helvetica,sans-Serif" font-size="10.00"> </text>
<text text-anchor="start" x="4" y="-556.5" font-family="Helvetica,sans-Serif" font-size="10.00">+</text>
<text text-anchor="start" x="17" y="-556.5" font-family="Helvetica,sans-Serif" font-size="10.00">tools()</text>
<text text-anchor="start" x="4" y="-541.5" font-family="Helvetica,sans-Serif" font-size="10.00">+</text>
<text text-anchor="start" x="17" y="-541.5" font-family="Helvetica,sans-Serif" font-size="10.00">~tools()</text>
<text text-anchor="start" x="4" y="-526.5" font-family="Helvetica,sans-Serif" font-size="10.00">+</text>
<text text-anchor="start" x="17" y="-526.5" font-family="Helvetica,sans-Serif" font-size="10.00">split()</text>
<text text-anchor="start" x="4" y="-511.5" font-family="Helvetica,sans-Serif" font-size="10.00">+</text>
<text text-anchor="start" x="17" y="-511.5" font-family="Helvetica,sans-Serif" font-size="10.00">trim()</text>
<text text-anchor="start" x="4" y="-496.5" font-family="Helvetica,sans-Serif" font-size="10.00">+</text>
<text text-anchor="start" x="17" y="-496.5" font-family="Helvetica,sans-Serif" font-size="10.00">type_name()</text>
<text text-anchor="start" x="4" y="-481.5" font-family="Helvetica,sans-Serif" font-size="10.00">+</text>
<text text-anchor="start" x="17" y="-481.5" font-family="Helvetica,sans-Serif" font-size="10.00">sum()</text>
<text text-anchor="start" x="4" y="-466.5" font-family="Helvetica,sans-Serif" font-size="10.00">+</text>
<text text-anchor="start" x="17" y="-466.5" font-family="Helvetica,sans-Serif" font-size="10.00">create_path()</text>
<text text-anchor="start" x="4" y="-451.5" font-family="Helvetica,sans-Serif" font-size="10.00">+</text>
<text text-anchor="start" x="17" y="-451.5" font-family="Helvetica,sans-Serif" font-size="10.00">delete_path()</text>
<text text-anchor="start" x="4" y="-436.5" font-family="Helvetica,sans-Serif" font-size="10.00">+</text>
<text text-anchor="start" x="17" y="-436.5" font-family="Helvetica,sans-Serif" font-size="10.00">is_file()</text>
<text text-anchor="start" x="4" y="-421.5" font-family="Helvetica,sans-Serif" font-size="10.00">+</text>
<text text-anchor="start" x="17" y="-421.5" font-family="Helvetica,sans-Serif" font-size="10.00">rename()</text>
<text text-anchor="start" x="4" y="-406.5" font-family="Helvetica,sans-Serif" font-size="10.00">+</text>
<text text-anchor="start" x="17" y="-406.5" font-family="Helvetica,sans-Serif" font-size="10.00">absolute_path()</text>
<text text-anchor="start" x="4" y="-391.5" font-family="Helvetica,sans-Serif" font-size="10.00">+</text>
<text text-anchor="start" x="17" y="-391.5" font-family="Helvetica,sans-Serif" font-size="10.00">ls()</text>
<text text-anchor="start" x="4" y="-376.5" font-family="Helvetica,sans-Serif" font-size="10.00">+</text>
<text text-anchor="start" x="17" y="-376.5" font-family="Helvetica,sans-Serif" font-size="10.00">to_string()</text>
<text text-anchor="start" x="4" y="-361.5" font-family="Helvetica,sans-Serif" font-size="10.00">+</text>
<text text-anchor="start" x="17" y="-361.5" font-family="Helvetica,sans-Serif" font-size="10.00">to_string()</text>
<text text-anchor="start" x="4" y="-346.5" font-family="Helvetica,sans-Serif" font-size="10.00">+</text>
<text text-anchor="start" x="17" y="-346.5" font-family="Helvetica,sans-Serif" font-size="10.00">replace()</text>
<text text-anchor="start" x="4" y="-331.5" font-family="Helvetica,sans-Serif" font-size="10.00">+</text>
<text text-anchor="start" x="17" y="-331.5" font-family="Helvetica,sans-Serif" font-size="10.00">has_string()</text>
<text text-anchor="start" x="4" y="-316.5" font-family="Helvetica,sans-Serif" font-size="10.00">+</text>
<text text-anchor="start" x="17" y="-316.5" font-family="Helvetica,sans-Serif" font-size="10.00">ends_with()</text>
<text text-anchor="start" x="4" y="-301.5" font-family="Helvetica,sans-Serif" font-size="10.00">+</text>
<text text-anchor="start" x="17" y="-301.5" font-family="Helvetica,sans-Serif" font-size="10.00">has_value()</text>
<text text-anchor="start" x="4" y="-286.5" font-family="Helvetica,sans-Serif" font-size="10.00">+</text>
<text text-anchor="start" x="17" y="-286.5" font-family="Helvetica,sans-Serif" font-size="10.00">flush()</text>
<text text-anchor="start" x="4" y="-271.5" font-family="Helvetica,sans-Serif" font-size="10.00">+</text>
<text text-anchor="start" x="17" y="-271.5" font-family="Helvetica,sans-Serif" font-size="10.00">put()</text>
<text text-anchor="start" x="4" y="-256.5" font-family="Helvetica,sans-Serif" font-size="10.00">+</text>
<text text-anchor="start" x="17" y="-256.5" font-family="Helvetica,sans-Serif" font-size="10.00">extract()</text>
<polygon fill="#666666" stroke="#666666" points="0,-581.5 0,-581.5 98,-581.5 98,-581.5 0,-581.5"/>
<polygon fill="#666666" stroke="#666666" points="0,-566.5 0,-566.5 98,-566.5 98,-566.5 0,-566.5"/>
<polygon fill="none" stroke="#666666" points="0,-250 0,-599 98,-599 98,-250 0,-250"/>
</a>
</g>
</g>
<!-- Node2&#45;&gt;Node1 -->
<g id="edge1_Node000001_Node000002" class="edge">
<title>Node2&#45;&gt;Node1</title>
<g id="a_edge1_Node000001_Node000002"><a xlink:title=" ">
<path fill="none" stroke="#63b8ff" d="M88.6,-239.79C90.46,-231.14 92.3,-222.59 94.1,-214.26"/>
<polygon fill="none" stroke="#63b8ff" points="85.17,-239.09 86.48,-249.6 92.01,-240.56 85.17,-239.09"/>
</a>
</g>
</g>
<!-- Node3 -->
<g id="Node000003" class="node">
<title>Node3</title>
<g id="a_Node000003"><a xlink:href="classnotification.html" target="_top" xlink:title="Provides logging and messaging functionality with various severity levels.">
<polygon fill="white" stroke="transparent" points="254,-576.5 116,-576.5 116,-272.5 254,-272.5 254,-576.5"/>
<text text-anchor="start" x="157.5" y="-564.5" font-family="Helvetica,sans-Serif" font-size="10.00">notification</text>
<text text-anchor="start" x="120" y="-549.5" font-family="Helvetica,sans-Serif" font-size="10.00">#</text>
<text text-anchor="start" x="133" y="-549.5" font-family="Helvetica,sans-Serif" font-size="10.00">prefix</text>
<text text-anchor="start" x="120" y="-534.5" font-family="Helvetica,sans-Serif" font-size="10.00">#</text>
<text text-anchor="start" x="133" y="-534.5" font-family="Helvetica,sans-Serif" font-size="10.00">debug_mode</text>
<text text-anchor="start" x="120" y="-519.5" font-family="Helvetica,sans-Serif" font-size="10.00">#</text>
<text text-anchor="start" x="133" y="-519.5" font-family="Helvetica,sans-Serif" font-size="10.00">suppress_warnings</text>
<text text-anchor="start" x="120" y="-504.5" font-family="Helvetica,sans-Serif" font-size="10.00">#</text>
<text text-anchor="start" x="133" y="-504.5" font-family="Helvetica,sans-Serif" font-size="10.00">suppress_info</text>
<text text-anchor="start" x="120" y="-489.5" font-family="Helvetica,sans-Serif" font-size="10.00">+</text>
<text text-anchor="start" x="133" y="-489.5" font-family="Helvetica,sans-Serif" font-size="10.00">notification()</text>
<text text-anchor="start" x="120" y="-474.5" font-family="Helvetica,sans-Serif" font-size="10.00">+</text>
<text text-anchor="start" x="133" y="-474.5" font-family="Helvetica,sans-Serif" font-size="10.00">~notification()</text>
<text text-anchor="start" x="120" y="-459.5" font-family="Helvetica,sans-Serif" font-size="10.00">+</text>
<text text-anchor="start" x="133" y="-459.5" font-family="Helvetica,sans-Serif" font-size="10.00">set_prefix()</text>
<text text-anchor="start" x="120" y="-444.5" font-family="Helvetica,sans-Serif" font-size="10.00">+</text>
<text text-anchor="start" x="133" y="-444.5" font-family="Helvetica,sans-Serif" font-size="10.00">get_prefix()</text>
<text text-anchor="start" x="120" y="-429.5" font-family="Helvetica,sans-Serif" font-size="10.00">+</text>
<text text-anchor="start" x="133" y="-429.5" font-family="Helvetica,sans-Serif" font-size="10.00">Info()</text>
<text text-anchor="start" x="120" y="-414.5" font-family="Helvetica,sans-Serif" font-size="10.00">+</text>
<text text-anchor="start" x="133" y="-414.5" font-family="Helvetica,sans-Serif" font-size="10.00">Warning()</text>
<text text-anchor="start" x="120" y="-399.5" font-family="Helvetica,sans-Serif" font-size="10.00">+</text>
<text text-anchor="start" x="133" y="-399.5" font-family="Helvetica,sans-Serif" font-size="10.00">Error()</text>
<text text-anchor="start" x="120" y="-384.5" font-family="Helvetica,sans-Serif" font-size="10.00">+</text>
<text text-anchor="start" x="133" y="-384.5" font-family="Helvetica,sans-Serif" font-size="10.00">Debug()</text>
<text text-anchor="start" x="120" y="-369.5" font-family="Helvetica,sans-Serif" font-size="10.00">+</text>
<text text-anchor="start" x="133" y="-369.5" font-family="Helvetica,sans-Serif" font-size="10.00">Message()</text>
<text text-anchor="start" x="120" y="-354.5" font-family="Helvetica,sans-Serif" font-size="10.00">+</text>
<text text-anchor="start" x="133" y="-354.5" font-family="Helvetica,sans-Serif" font-size="10.00">set_debug_mode()</text>
<text text-anchor="start" x="120" y="-339.5" font-family="Helvetica,sans-Serif" font-size="10.00">+</text>
<text text-anchor="start" x="133" y="-339.5" font-family="Helvetica,sans-Serif" font-size="10.00">get_debug_mode()</text>
<text text-anchor="start" x="120" y="-324.5" font-family="Helvetica,sans-Serif" font-size="10.00">+</text>
<text text-anchor="start" x="133" y="-324.5" font-family="Helvetica,sans-Serif" font-size="10.00">set_suppress_warning()</text>
<text text-anchor="start" x="120" y="-309.5" font-family="Helvetica,sans-Serif" font-size="10.00">+</text>
<text text-anchor="start" x="133" y="-309.5" font-family="Helvetica,sans-Serif" font-size="10.00">get_suppress_warning()</text>
<text text-anchor="start" x="120" y="-294.5" font-family="Helvetica,sans-Serif" font-size="10.00">+</text>
<text text-anchor="start" x="133" y="-294.5" font-family="Helvetica,sans-Serif" font-size="10.00">set_suppress_info()</text>
<text text-anchor="start" x="120" y="-279.5" font-family="Helvetica,sans-Serif" font-size="10.00">+</text>
<text text-anchor="start" x="133" y="-279.5" font-family="Helvetica,sans-Serif" font-size="10.00">get_suppress_info()</text>
<polygon fill="#666666" stroke="#666666" points="116,-559.5 116,-559.5 254,-559.5 254,-559.5 116,-559.5"/>
<polygon fill="#666666" stroke="#666666" points="116,-499.5 116,-499.5 131,-499.5 131,-499.5 116,-499.5"/>
<polygon fill="#666666" stroke="#666666" points="131,-499.5 131,-499.5 254,-499.5 254,-499.5 131,-499.5"/>
<polygon fill="none" stroke="#666666" points="116,-272.5 116,-576.5 254,-576.5 254,-272.5 116,-272.5"/>
</a>
</g>
</g>
<!-- Node3&#45;&gt;Node1 -->
<g id="edge2_Node000001_Node000003" class="edge">
<title>Node3&#45;&gt;Node1</title>
<g id="a_edge2_Node000001_Node000003"><a xlink:title=" ">
<path fill="none" stroke="#63b8ff" d="M150.21,-262.1C146.71,-245.85 143.22,-229.66 139.89,-214.2"/>
<polygon fill="none" stroke="#63b8ff" points="146.87,-263.18 152.39,-272.22 153.71,-261.71 146.87,-263.18"/>
</a>
</g>
</g>
</g>
</svg>

<g id="navigator" transform="translate(0 0)" fill="#404254">
  <rect fill="#f2f5e9" fill-opacity="0.5" stroke="#606060" stroke-width=".5" x="0" y="0" width="60" height="60"/>
  <use id="zoomplus" xlink:href="#zoomPlus" x="17" y="9" onmousedown="handleZoom(evt,'in')"/>
  <use id="zoomminus" xlink:href="#zoomMin" x="42" y="9" onmousedown="handleZoom(evt,'out')"/>
  <use id="reset" xlink:href="#resetDef" x="30" y="36" onmousedown="handleReset()"/>
   <use id="arrowup" xlink:href="#arrowUp" x="0" y="0" onmousedown="handlePan(0,-1)"/>
  <use id="arrowright" xlink:href="#arrowRight" x="0" y="0" onmousedown="handlePan(1,0)"/>
  <use id="arrowdown" xlink:href="#arrowDown" x="0" y="0" onmousedown="handlePan(0,1)"/>
  <use id="arrowleft" xlink:href="#arrowLeft" x="0" y="0" onmousedown="handlePan(-1,0)"/>
</g>
<svg viewBox="0 0 15 15" width="100%" height="30px" preserveAspectRatio="xMaxYMin meet">
 <g id="arrow_out" transform="scale(0.3 0.3)">
  <a xlink:href="classoptimizer__inherit__graph_org.svg" target="_base">
   <rect id="button" ry="5" rx="5" y="6" x="6" height="38" width="38"
        fill="#f2f5e9" fill-opacity="0.5" stroke="#606060" stroke-width="1.0"/>
   <path id="arrow"
     d="M 11.500037,31.436501 C 11.940474,20.09759 22.043105,11.32322 32.158766,21.979434 L 37.068811,17.246167 C 37.068811,17.246167 37.088388,32 37.088388,32 L 22.160133,31.978069 C 22.160133,31.978069 26.997745,27.140456 26.997745,27.140456 C 18.528582,18.264221 13.291696,25.230495 11.500037,31.436501 z"
     style="fill:#404040;"/>
  </a>
 </g>
</svg>

<style type='text/css'>
<![CDATA[
[data-mouse-over-selected='false'] { opacity: 0.7; }
[data-mouse-over-selected='true']  { opacity: 1.0; }
]]>
</style>
<script type="application/ecmascript"><![CDATA[
document.addEventListener('DOMContentLoaded', (event) => {
  highlightEdges();
  highlightAdjacentNodes();
});
]]></script>
</svg>
