<?xml version="1.0" encoding="UTF-8" standalone="no"?>
<!DOCTYPE svg PUBLIC "-//W3C//DTD SVG 1.1//EN"
 "http://www.w3.org/Graphics/SVG/1.1/DTD/svg11.dtd">
<!-- Generated by graphviz version 2.43.0 (0)
 -->
<!-- Title: analysis::fetchtags Pages: 1 -->
<svg width="903pt" height="700pt"
 viewBox="0.00 0.00 903.00 700.37" xmlns="http://www.w3.org/2000/svg" xmlns:xlink="http://www.w3.org/1999/xlink">
<g id="graph0" class="graph" transform="scale(1 1) rotate(0) translate(4 696.37)">
<title>analysis::fetchtags</title>
<!-- Node1 -->
<g id="Node000001" class="node">
<title>Node1</title>
<g id="a_Node000001"><a xlink:title="Fetches tags, possibly related to data versions, processing stages, or k&#45;folds.">
<polygon fill="#999999" stroke="#666666" points="109,-324.37 0,-324.37 0,-305.37 109,-305.37 109,-324.37"/>
<text text-anchor="middle" x="54.5" y="-312.37" font-family="Helvetica,sans-Serif" font-size="10.00">analysis::fetchtags</text>
</a>
</g>
</g>
<!-- Node2 -->
<g id="Node000002" class="node">
<title>Node2</title>
<g id="a_Node000002"><a xlink:href="gnn-particles_8h.html#a726f7868ebf1c63190c267427081d370" target="_top" xlink:title=" ">
<polygon fill="white" stroke="#666666" points="207,-361.37 169,-361.37 169,-342.37 207,-342.37 207,-361.37"/>
<text text-anchor="middle" x="188" y="-349.37" font-family="Helvetica,sans-Serif" font-size="10.00">read</text>
</a>
</g>
</g>
<!-- Node1&#45;&gt;Node2 -->
<g id="edge1_Node000001_Node000002" class="edge">
<title>Node1&#45;&gt;Node2</title>
<g id="a_edge1_Node000001_Node000002"><a xlink:title=" ">
<path fill="none" stroke="#63b8ff" d="M89.36,-324.4C110.98,-330.48 138.66,-338.27 159.02,-344"/>
<polygon fill="#63b8ff" stroke="#63b8ff" points="158.08,-347.37 168.65,-346.71 159.97,-340.63 158.08,-347.37"/>
</a>
</g>
</g>
<!-- Node3 -->
<g id="Node000003" class="node">
<title>Node3</title>
<g id="a_Node000003"><a xlink:href="classanalysis.html#a401745bb4bcae03160ffa0b5df2887e7" target="_top" xlink:title="Starts the analysis execution.">
<polygon fill="white" stroke="#666666" points="231,-324.37 145,-324.37 145,-305.37 231,-305.37 231,-324.37"/>
<text text-anchor="middle" x="188" y="-312.37" font-family="Helvetica,sans-Serif" font-size="10.00">analysis::start</text>
</a>
</g>
</g>
<!-- Node1&#45;&gt;Node3 -->
<g id="edge2_Node000001_Node000003" class="edge">
<title>Node1&#45;&gt;Node3</title>
<g id="a_edge2_Node000001_Node000003"><a xlink:title=" ">
<path fill="none" stroke="#63b8ff" d="M109.37,-308.22C117.64,-308.08 126.18,-308.09 134.43,-308.25"/>
<polygon fill="#63b8ff" stroke="#63b8ff" points="134.6,-311.75 144.69,-308.52 134.78,-304.76 134.6,-311.75"/>
</a>
</g>
</g>
<!-- Node3&#45;&gt;Node1 -->
<g id="edge41_Node000003_Node000001" class="edge">
<title>Node3&#45;&gt;Node1</title>
<g id="a_edge41_Node000003_Node000001"><a xlink:title=" ">
<path fill="none" stroke="#63b8ff" d="M144.69,-321.23C136.6,-321.51 127.98,-321.64 119.39,-321.62"/>
<polygon fill="#63b8ff" stroke="#63b8ff" points="119.4,-318.12 109.37,-321.53 119.33,-325.12 119.4,-318.12"/>
</a>
</g>
</g>
<!-- Node4 -->
<g id="Node000004" class="node">
<title>Node4</title>
<g id="a_Node000004"><a xlink:href="classanalysis.html#a929d006d8c02d16b6472d7625578aa21" target="_top" xlink:title="Builds or configures the data loader for training or evaluation.">
<polygon fill="white" stroke="#666666" points="590,-108.37 445,-108.37 445,-89.37 590,-89.37 590,-108.37"/>
<text text-anchor="middle" x="517.5" y="-96.37" font-family="Helvetica,sans-Serif" font-size="10.00">analysis::build_dataloader</text>
</a>
</g>
</g>
<!-- Node3&#45;&gt;Node4 -->
<g id="edge3_Node000003_Node000004" class="edge">
<title>Node3&#45;&gt;Node4</title>
<g id="a_edge3_Node000003_Node000004"><a xlink:title=" ">
<path fill="none" stroke="#63b8ff" d="M192.34,-305.17C200.87,-281.86 225.73,-222.4 267,-191.87 319.62,-152.96 352.19,-185.38 409,-152.87 428.37,-141.79 425.58,-128.88 445,-117.87 448.94,-115.64 453.15,-113.66 457.49,-111.91"/>
<polygon fill="#63b8ff" stroke="#63b8ff" points="458.9,-115.12 467.11,-108.43 456.52,-108.54 458.9,-115.12"/>
</a>
</g>
</g>
<!-- Node5 -->
<g id="Node000005" class="node">
<title>Node5</title>
<g id="a_Node000005"><a xlink:href="classanalysis.html#a68b520bbdb4d591d7375f9ecd6532ce8" target="_top" xlink:title="Builds or processes event data based on the added event templates and samples.">
<polygon fill="white" stroke="#666666" points="400.5,-575.37 275.5,-575.37 275.5,-556.37 400.5,-556.37 400.5,-575.37"/>
<text text-anchor="middle" x="338" y="-563.37" font-family="Helvetica,sans-Serif" font-size="10.00">analysis::build_events</text>
</a>
</g>
</g>
<!-- Node3&#45;&gt;Node5 -->
<g id="edge4_Node000003_Node000005" class="edge">
<title>Node3&#45;&gt;Node5</title>
<g id="a_edge4_Node000003_Node000005"><a xlink:title=" ">
<path fill="none" stroke="#63b8ff" d="M221.2,-324.55C224.92,-326.78 228.33,-329.52 231,-332.87 287.23,-403.56 212.04,-461.2 267,-532.87 273.32,-541.11 282.19,-547.38 291.51,-552.12"/>
<polygon fill="#63b8ff" stroke="#63b8ff" points="290.35,-555.44 300.9,-556.37 293.23,-549.06 290.35,-555.44"/>
</a>
</g>
</g>
<!-- Node8 -->
<g id="Node000008" class="node">
<title>Node8</title>
<g id="a_Node000008"><a xlink:href="classtools.html#a352a6965f2f3c768f0f4ecd1f978fcc0" target="_top" xlink:title="Splits a string into a vector of substrings based on a delimiter.">
<polygon fill="white" stroke="#666666" points="867.5,-437.37 799.5,-437.37 799.5,-418.37 867.5,-418.37 867.5,-437.37"/>
<text text-anchor="middle" x="833.5" y="-425.37" font-family="Helvetica,sans-Serif" font-size="10.00">tools::split</text>
</a>
</g>
</g>
<!-- Node3&#45;&gt;Node8 -->
<g id="edge43_Node000003_Node000008" class="edge">
<title>Node3&#45;&gt;Node8</title>
<g id="a_edge43_Node000003_Node000008"><a xlink:title=" ">
<path fill="none" stroke="#63b8ff" d="M190.28,-305.19C196.33,-261.04 223.59,-79.65 267,-46.87 381.58,39.61 449.75,-15.23 590,-45.87 659.75,-61.12 688.98,-59.15 736,-112.87 814.26,-202.3 829.05,-354.04 831.85,-408.06"/>
<polygon fill="#63b8ff" stroke="#63b8ff" points="828.36,-408.47 832.29,-418.31 835.36,-408.16 828.36,-408.47"/>
</a>
</g>
</g>
<!-- Node9 -->
<g id="Node000009" class="node">
<title>Node9</title>
<g id="a_Node000009"><a xlink:href="classanalysis.html#a1c3e0d7bb80774d865586b18a1566704" target="_top" xlink:title="Builds graph representations of the event data based on the added graph templates.">
<polygon fill="white" stroke="#666666" points="400.5,-419.37 275.5,-419.37 275.5,-400.37 400.5,-400.37 400.5,-419.37"/>
<text text-anchor="middle" x="338" y="-407.37" font-family="Helvetica,sans-Serif" font-size="10.00">analysis::build_graphs</text>
</a>
</g>
</g>
<!-- Node3&#45;&gt;Node9 -->
<g id="edge8_Node000003_Node000009" class="edge">
<title>Node3&#45;&gt;Node9</title>
<g id="a_edge8_Node000003_Node000009"><a xlink:title=" ">
<path fill="none" stroke="#63b8ff" d="M217.39,-324.4C222.21,-326.73 226.96,-329.54 231,-332.87 252.97,-350.99 244.37,-368.59 267,-385.87 272.49,-390.07 278.76,-393.56 285.24,-396.45"/>
<polygon fill="#63b8ff" stroke="#63b8ff" points="284.23,-399.82 294.82,-400.29 286.83,-393.32 284.23,-399.82"/>
</a>
</g>
</g>
<!-- Node10 -->
<g id="Node000010" class="node">
<title>Node10</title>
<g id="a_Node000010"><a xlink:href="classtools.html#aeae88ebd7116d59008600f0723716dba" target="_top" xlink:title="Replaces all occurrences of a substring in a string.">
<polygon fill="white" stroke="#666666" points="559,-399.37 476,-399.37 476,-380.37 559,-380.37 559,-399.37"/>
<text text-anchor="middle" x="517.5" y="-387.37" font-family="Helvetica,sans-Serif" font-size="10.00">tools::replace</text>
</a>
</g>
</g>
<!-- Node3&#45;&gt;Node10 -->
<g id="edge42_Node000003_Node000010" class="edge">
<title>Node3&#45;&gt;Node10</title>
<g id="a_edge42_Node000003_Node000010"><a xlink:title=" ">
<path fill="none" stroke="#63b8ff" d="M211.51,-324.41C230.51,-332.35 256.28,-342.83 267,-345.87 334.5,-365.02 414.75,-377.39 465.65,-384"/>
<polygon fill="#63b8ff" stroke="#63b8ff" points="465.38,-387.49 475.74,-385.28 466.26,-380.54 465.38,-387.49"/>
</a>
</g>
</g>
<!-- Node11 -->
<g id="Node000011" class="node">
<title>Node11</title>
<g id="a_Node000011"><a xlink:href="classanalysis.html#a7b98125c72486407d782b2bc2ea67389" target="_top" xlink:title="Sets up the environment for model inference (prediction).">
<polygon fill="white" stroke="#666666" points="586.5,-663.37 448.5,-663.37 448.5,-644.37 586.5,-644.37 586.5,-663.37"/>
<text text-anchor="middle" x="517.5" y="-651.37" font-family="Helvetica,sans-Serif" font-size="10.00">analysis::build_inference</text>
</a>
</g>
</g>
<!-- Node3&#45;&gt;Node11 -->
<g id="edge11_Node000003_Node000011" class="edge">
<title>Node3&#45;&gt;Node11</title>
<g id="a_edge11_Node000003_Node000011"><a xlink:title=" ">
<path fill="none" stroke="#63b8ff" d="M221.31,-324.46C225.02,-326.71 228.39,-329.48 231,-332.87 299.58,-422.31 192.93,-498.93 267,-583.87 309.24,-632.32 382.03,-648.49 438.13,-653.33"/>
<polygon fill="#63b8ff" stroke="#63b8ff" points="438.16,-656.84 448.39,-654.1 438.69,-649.86 438.16,-656.84"/>
</a>
</g>
</g>
<!-- Node13 -->
<g id="Node000013" class="node">
<title>Node13</title>
<g id="a_Node000013"><a xlink:href="classtools.html#aed9f3247b474a8fb1840860d51cde7ca" target="_top" xlink:title="Creates a directory path, including parent directories if needed.">
<polygon fill="white" stroke="#666666" points="733,-475.37 629,-475.37 629,-456.37 733,-456.37 733,-475.37"/>
<text text-anchor="middle" x="681" y="-463.37" font-family="Helvetica,sans-Serif" font-size="10.00">tools::create_path</text>
</a>
</g>
</g>
<!-- Node3&#45;&gt;Node13 -->
<g id="edge39_Node000003_Node000013" class="edge">
<title>Node3&#45;&gt;Node13</title>
<g id="a_edge39_Node000003_Node000013"><a xlink:title=" ">
<path fill="none" stroke="#63b8ff" d="M219.8,-324.56C223.92,-326.81 227.82,-329.55 231,-332.87 262.24,-365.48 231.06,-400.54 267,-427.87 320.75,-468.75 517.43,-470.13 618.75,-467.94"/>
<polygon fill="#63b8ff" stroke="#63b8ff" points="618.93,-471.44 628.84,-467.71 618.76,-464.44 618.93,-471.44"/>
</a>
</g>
</g>
<!-- Node15 -->
<g id="Node000015" class="node">
<title>Node15</title>
<g id="a_Node000015"><a xlink:href="classanalysis.html#ad1bf7fde8eafef15d4dcedcba5ce51f7" target="_top" xlink:title="Builds or calculates metrics for evaluating model performance.">
<polygon fill="white" stroke="#666666" points="400,-268.37 276,-268.37 276,-249.37 400,-249.37 400,-268.37"/>
<text text-anchor="middle" x="338" y="-256.37" font-family="Helvetica,sans-Serif" font-size="10.00">analysis::build_metric</text>
</a>
</g>
</g>
<!-- Node3&#45;&gt;Node15 -->
<g id="edge18_Node000003_Node000015" class="edge">
<title>Node3&#45;&gt;Node15</title>
<g id="a_edge18_Node000003_Node000015"><a xlink:title=" ">
<path fill="none" stroke="#63b8ff" d="M206.22,-305.23C221.73,-296.85 245.37,-284.83 267,-276.87 272.51,-274.85 278.34,-272.96 284.19,-271.23"/>
<polygon fill="#63b8ff" stroke="#63b8ff" points="285.33,-274.55 294.01,-268.47 283.43,-267.81 285.33,-274.55"/>
</a>
</g>
</g>
<!-- Node16 -->
<g id="Node000016" class="node">
<title>Node16</title>
<g id="a_Node000016"><a xlink:href="classanalysis.html#ab1e46d4a55389c9159584cc1c4f217a0" target="_top" xlink:title="Builds the project structure, possibly setting up directories or initial configurations.">
<polygon fill="white" stroke="#666666" points="580.5,-362.37 454.5,-362.37 454.5,-343.37 580.5,-343.37 580.5,-362.37"/>
<text text-anchor="middle" x="517.5" y="-350.37" font-family="Helvetica,sans-Serif" font-size="10.00">analysis::build_project</text>
</a>
</g>
</g>
<!-- Node3&#45;&gt;Node16 -->
<g id="edge29_Node000003_Node000016" class="edge">
<title>Node3&#45;&gt;Node16</title>
<g id="a_edge29_Node000003_Node000016"><a xlink:title=" ">
<path fill="none" stroke="#63b8ff" d="M231.14,-319.76C284.93,-326.01 378.82,-336.9 444.15,-344.48"/>
<polygon fill="#63b8ff" stroke="#63b8ff" points="444.05,-347.99 454.38,-345.67 444.85,-341.04 444.05,-347.99"/>
</a>
</g>
</g>
<!-- Node19 -->
<g id="Node000019" class="node">
<title>Node19</title>
<g id="a_Node000019"><a xlink:href="classanalysis.html#ac4b2760bd5a08f9bd2b5553856dcbfff" target="_top" xlink:title="Builds or calculates metrics across different data folds (e.g., for k&#45;fold cross&#45;validation).">
<polygon fill="white" stroke="#666666" points="400,-230.87 276,-230.87 276,-200.87 400,-200.87 400,-230.87"/>
<text text-anchor="start" x="284" y="-218.87" font-family="Helvetica,sans-Serif" font-size="10.00">analysis::build_metric</text>
<text text-anchor="middle" x="338" y="-207.87" font-family="Helvetica,sans-Serif" font-size="10.00">_folds</text>
</a>
</g>
</g>
<!-- Node3&#45;&gt;Node19 -->
<g id="edge25_Node000003_Node000019" class="edge">
<title>Node3&#45;&gt;Node19</title>
<g id="a_edge25_Node000003_Node000019"><a xlink:title=" ">
<path fill="none" stroke="#63b8ff" d="M196.62,-305.2C209.51,-289.42 237.18,-258.08 267,-239.87 269.66,-238.25 272.44,-236.72 275.29,-235.28"/>
<polygon fill="#63b8ff" stroke="#63b8ff" points="277,-238.35 284.62,-230.98 274.07,-231.99 277,-238.35"/>
</a>
</g>
</g>
<!-- Node20 -->
<g id="Node000020" class="node">
<title>Node20</title>
<g id="a_Node000020"><a xlink:href="classanalysis.html#a9e329f763a57c75ca47bec379fab102e" target="_top" xlink:title="Sets up and configures machine learning model sessions for training or inference.">
<polygon fill="white" stroke="#666666" points="399.5,-523.87 276.5,-523.87 276.5,-493.87 399.5,-493.87 399.5,-523.87"/>
<text text-anchor="start" x="284.5" y="-511.87" font-family="Helvetica,sans-Serif" font-size="10.00">analysis::build_model</text>
<text text-anchor="middle" x="338" y="-500.87" font-family="Helvetica,sans-Serif" font-size="10.00">_session</text>
</a>
</g>
</g>
<!-- Node3&#45;&gt;Node20 -->
<g id="edge26_Node000003_Node000020" class="edge">
<title>Node3&#45;&gt;Node20</title>
<g id="a_edge26_Node000003_Node000020"><a xlink:title=" ">
<path fill="none" stroke="#63b8ff" d="M220.59,-324.46C224.5,-326.72 228.13,-329.49 231,-332.87 274.49,-384.19 223.2,-428.83 267,-479.87 269.67,-482.99 272.73,-485.77 276.04,-488.26"/>
<polygon fill="#63b8ff" stroke="#63b8ff" points="274.42,-491.38 284.72,-493.86 278.21,-485.5 274.42,-491.38"/>
</a>
</g>
</g>
<!-- Node23 -->
<g id="Node000023" class="node">
<title>Node23</title>
<g id="a_Node000023"><a xlink:href="classanalysis.html#a12ac50912be5864fb354b7e0bd3341a3" target="_top" xlink:title="Builds or applies event selections based on the added selection templates.">
<polygon fill="white" stroke="#666666" points="409,-144.37 267,-144.37 267,-125.37 409,-125.37 409,-144.37"/>
<text text-anchor="middle" x="338" y="-132.37" font-family="Helvetica,sans-Serif" font-size="10.00">analysis::build_selections</text>
</a>
</g>
</g>
<!-- Node3&#45;&gt;Node23 -->
<g id="edge30_Node000003_Node000023" class="edge">
<title>Node3&#45;&gt;Node23</title>
<g id="a_edge30_Node000003_Node000023"><a xlink:title=" ">
<path fill="none" stroke="#63b8ff" d="M191.11,-305.24C197.52,-278.15 219.37,-200.54 267,-158.87 271.76,-154.71 277.28,-151.26 283.08,-148.41"/>
<polygon fill="#63b8ff" stroke="#63b8ff" points="284.59,-151.57 292.38,-144.39 281.81,-145.14 284.59,-151.57"/>
</a>
</g>
</g>
<!-- Node24 -->
<g id="Node000024" class="node">
<title>Node24</title>
<g id="a_Node000024"><a xlink:href="classanalysis.html#a0cbe44c90dab45066bfe074e506c5d8d" target="_top" xlink:title="&lt; Private access specifier for the following members.">
<polygon fill="white" stroke="#666666" points="400.5,-305.37 275.5,-305.37 275.5,-286.37 400.5,-286.37 400.5,-305.37"/>
<text text-anchor="middle" x="338" y="-293.37" font-family="Helvetica,sans-Serif" font-size="10.00">analysis::check_cache</text>
</a>
</g>
</g>
<!-- Node3&#45;&gt;Node24 -->
<g id="edge31_Node000003_Node000024" class="edge">
<title>Node3&#45;&gt;Node24</title>
<g id="a_edge31_Node000003_Node000024"><a xlink:title=" ">
<path fill="none" stroke="#63b8ff" d="M231.01,-309.48C241.66,-308.11 253.39,-306.61 265.06,-305.11"/>
<polygon fill="#63b8ff" stroke="#63b8ff" points="265.79,-308.55 275.26,-303.8 264.9,-301.6 265.79,-308.55"/>
</a>
</g>
</g>
<!-- Node27 -->
<g id="Node000027" class="node">
<title>Node27</title>
<g id="a_Node000027"><a xlink:href="classtools.html#a3d538da5310467c9321b27cd6a75b9af" target="_top" xlink:title="Checks if a string ends with a specific substring.">
<polygon fill="white" stroke="#666666" points="729,-141.37 633,-141.37 633,-122.37 729,-122.37 729,-141.37"/>
<text text-anchor="middle" x="681" y="-129.37" font-family="Helvetica,sans-Serif" font-size="10.00">tools::ends_with</text>
</a>
</g>
</g>
<!-- Node3&#45;&gt;Node27 -->
<g id="edge40_Node000003_Node000027" class="edge">
<title>Node3&#45;&gt;Node27</title>
<g id="a_edge40_Node000003_Node000027"><a xlink:title=" ">
<path fill="none" stroke="#63b8ff" d="M189.66,-305.14C192.41,-272.67 205.9,-167.17 267,-115.87 377.63,-23 450.48,-42.47 590,-79.87 616.12,-86.88 642.51,-103.51 659.89,-116.09"/>
<polygon fill="#63b8ff" stroke="#63b8ff" points="658.01,-119.05 668.11,-122.22 662.19,-113.44 658.01,-119.05"/>
</a>
</g>
</g>
<!-- Node6 -->
<g id="Node000006" class="node">
<title>Node6</title>
<g id="a_Node000006"><a xlink:href="classtools.html#a408b66ad73b7b4bb962634c14a55b619" target="_top" xlink:title="Converts a relative path to an absolute path.">
<polygon fill="white" stroke="#666666" points="575.5,-589.37 459.5,-589.37 459.5,-570.37 575.5,-570.37 575.5,-589.37"/>
<text text-anchor="middle" x="517.5" y="-577.37" font-family="Helvetica,sans-Serif" font-size="10.00">tools::absolute_path</text>
</a>
</g>
</g>
<!-- Node5&#45;&gt;Node6 -->
<g id="edge5_Node000005_Node000006" class="edge">
<title>Node5&#45;&gt;Node6</title>
<g id="a_edge5_Node000005_Node000006"><a xlink:title=" ">
<path fill="none" stroke="#63b8ff" d="M400.58,-570.73C416.27,-571.97 433.21,-573.31 449.17,-574.56"/>
<polygon fill="#63b8ff" stroke="#63b8ff" points="449.25,-578.08 459.49,-575.38 449.8,-571.1 449.25,-578.08"/>
</a>
</g>
</g>
<!-- Node7 -->
<g id="Node000007" class="node">
<title>Node7</title>
<g id="a_Node000007"><a xlink:href="classio.html#a65ca69ec5f12d0f3a463396bcff84d77" target="_top" xlink:title="Ends the current I/O session, closing any open files.">
<polygon fill="white" stroke="#666666" points="542.5,-626.37 492.5,-626.37 492.5,-607.37 542.5,-607.37 542.5,-626.37"/>
<text text-anchor="middle" x="517.5" y="-614.37" font-family="Helvetica,sans-Serif" font-size="10.00">io::end</text>
</a>
</g>
</g>
<!-- Node5&#45;&gt;Node7 -->
<g id="edge6_Node000005_Node000007" class="edge">
<title>Node5&#45;&gt;Node7</title>
<g id="a_edge6_Node000005_Node000007"><a xlink:title=" ">
<path fill="none" stroke="#63b8ff" d="M369.54,-575.39C390.67,-581.9 419.48,-590.63 445,-597.87 457.14,-601.32 470.49,-604.92 482.33,-608.04"/>
<polygon fill="#63b8ff" stroke="#63b8ff" points="481.72,-611.5 492.29,-610.66 483.5,-604.73 481.72,-611.5"/>
</a>
</g>
</g>
<!-- Node5&#45;&gt;Node8 -->
<g id="edge7_Node000005_Node000008" class="edge">
<title>Node5&#45;&gt;Node8</title>
<g id="a_edge7_Node000005_Node000008"><a xlink:title=" ">
<path fill="none" stroke="#63b8ff" d="M400.67,-561.25C504.64,-553.14 706.41,-535.85 736,-521.87 772.62,-504.58 803.84,-467.68 820.22,-445.61"/>
<polygon fill="#63b8ff" stroke="#63b8ff" points="823.12,-447.58 826.12,-437.42 817.44,-443.48 823.12,-447.58"/>
</a>
</g>
</g>
<!-- Node9&#45;&gt;Node8 -->
<g id="edge10_Node000009_Node000008" class="edge">
<title>Node9&#45;&gt;Node8</title>
<g id="a_edge10_Node000009_Node000008"><a xlink:title=" ">
<path fill="none" stroke="#63b8ff" d="M400.5,-412.12C501.81,-415.81 701.27,-423.09 789.17,-426.29"/>
<polygon fill="#63b8ff" stroke="#63b8ff" points="789.2,-429.8 799.32,-426.66 789.45,-422.8 789.2,-429.8"/>
</a>
</g>
</g>
<!-- Node9&#45;&gt;Node10 -->
<g id="edge9_Node000009_Node000010" class="edge">
<title>Node9&#45;&gt;Node10</title>
<g id="a_edge9_Node000009_Node000010"><a xlink:title=" ">
<path fill="none" stroke="#63b8ff" d="M400.58,-402.94C421.91,-400.53 445.56,-397.87 465.9,-395.58"/>
<polygon fill="#63b8ff" stroke="#63b8ff" points="466.36,-399.05 475.9,-394.45 465.57,-392.09 466.36,-399.05"/>
</a>
</g>
</g>
<!-- Node11&#45;&gt;Node8 -->
<g id="edge17_Node000011_Node000008" class="edge">
<title>Node11&#45;&gt;Node8</title>
<g id="a_edge17_Node000011_Node000008"><a xlink:title=" ">
<path fill="none" stroke="#63b8ff" d="M561,-644.35C570.68,-641.7 580.81,-638.52 590,-634.87 658.57,-607.66 680.07,-603.99 736,-555.87 773.96,-523.22 806.22,-473.25 822.05,-446.42"/>
<polygon fill="#63b8ff" stroke="#63b8ff" points="825.14,-448.07 827.12,-437.66 819.08,-444.57 825.14,-448.07"/>
</a>
</g>
</g>
<!-- Node12 -->
<g id="Node000012" class="node">
<title>Node12</title>
<g id="a_Node000012"><a xlink:href="classanalysis.html#a25047bd23730c36cde68661179257c9b" target="_top" xlink:title="Static helper method to add content (features) to a data map from various sources.">
<polygon fill="white" stroke="#666666" points="895,-673.37 772,-673.37 772,-654.37 895,-654.37 895,-673.37"/>
<text text-anchor="middle" x="833.5" y="-661.37" font-family="Helvetica,sans-Serif" font-size="10.00">analysis::add_content</text>
</a>
</g>
</g>
<!-- Node11&#45;&gt;Node12 -->
<g id="edge12_Node000011_Node000012" class="edge">
<title>Node11&#45;&gt;Node12</title>
<g id="a_edge12_Node000011_Node000012"><a xlink:title=" ">
<path fill="none" stroke="#63b8ff" d="M586.63,-656.04C638.38,-657.69 709.32,-659.95 761.71,-661.62"/>
<polygon fill="#63b8ff" stroke="#63b8ff" points="761.82,-665.13 771.93,-661.95 762.05,-658.13 761.82,-665.13"/>
</a>
</g>
</g>
<!-- Node11&#45;&gt;Node13 -->
<g id="edge13_Node000011_Node000013" class="edge">
<title>Node11&#45;&gt;Node13</title>
<g id="a_edge13_Node000011_Node000013"><a xlink:title=" ">
<path fill="none" stroke="#63b8ff" d="M576.96,-644.33C581.78,-641.84 586.23,-638.74 590,-634.87 637.89,-585.81 580.08,-535.78 626,-484.87 627.21,-483.53 628.53,-482.28 629.92,-481.12"/>
<polygon fill="#63b8ff" stroke="#63b8ff" points="632.21,-483.81 638.64,-475.39 628.36,-477.96 632.21,-483.81"/>
</a>
</g>
</g>
<!-- Node14 -->
<g id="Node000014" class="node">
<title>Node14</title>
<g id="a_Node000014"><a xlink:href="classanalysis.html#a8a8e07da99928e764601ff8c56edc1df" target="_top" xlink:title="Static method to execute a model (training or inference) on a set of data.">
<polygon fill="white" stroke="#666666" points="736,-692.37 626,-692.37 626,-673.37 736,-673.37 736,-692.37"/>
<text text-anchor="middle" x="681" y="-680.37" font-family="Helvetica,sans-Serif" font-size="10.00">analysis::execution</text>
</a>
</g>
</g>
<!-- Node11&#45;&gt;Node14 -->
<g id="edge15_Node000011_Node000014" class="edge">
<title>Node11&#45;&gt;Node14</title>
<g id="a_edge15_Node000011_Node000014"><a xlink:title=" ">
<path fill="none" stroke="#63b8ff" d="M571.83,-663.45C586.24,-666.04 601.97,-668.86 616.86,-671.54"/>
<polygon fill="#63b8ff" stroke="#63b8ff" points="616.54,-675.04 627,-673.36 617.78,-668.15 616.54,-675.04"/>
</a>
</g>
</g>
<!-- Node13&#45;&gt;Node8 -->
<g id="edge14_Node000013_Node000008" class="edge">
<title>Node13&#45;&gt;Node8</title>
<g id="a_edge14_Node000013_Node000008"><a xlink:title=" ">
<path fill="none" stroke="#63b8ff" d="M719.98,-456.29C741.12,-450.95 767.52,-444.28 789.43,-438.75"/>
<polygon fill="#63b8ff" stroke="#63b8ff" points="790.31,-442.14 799.15,-436.3 788.59,-435.35 790.31,-442.14"/>
</a>
</g>
</g>
<!-- Node14&#45;&gt;Node12 -->
<g id="edge16_Node000014_Node000012" class="edge">
<title>Node14&#45;&gt;Node12</title>
<g id="a_edge16_Node000014_Node000012"><a xlink:title=" ">
<path fill="none" stroke="#63b8ff" d="M736.33,-676.02C744.62,-674.97 753.28,-673.88 761.86,-672.79"/>
<polygon fill="#63b8ff" stroke="#63b8ff" points="762.39,-676.25 771.87,-671.53 761.51,-669.31 762.39,-676.25"/>
</a>
</g>
</g>
<!-- Node15&#45;&gt;Node4 -->
<g id="edge19_Node000015_Node000004" class="edge">
<title>Node15&#45;&gt;Node4</title>
<g id="a_edge19_Node000015_Node000004"><a xlink:title=" ">
<path fill="none" stroke="#63b8ff" d="M395.36,-249.34C400.37,-246.85 405.04,-243.75 409,-239.87 449.41,-200.34 404.48,-157.3 445,-117.87 446.48,-116.43 448.07,-115.09 449.72,-113.85"/>
<polygon fill="#63b8ff" stroke="#63b8ff" points="451.88,-116.64 458.59,-108.45 448.23,-110.66 451.88,-116.64"/>
</a>
</g>
</g>
<!-- Node15&#45;&gt;Node16 -->
<g id="edge20_Node000015_Node000016" class="edge">
<title>Node15&#45;&gt;Node16</title>
<g id="a_edge20_Node000015_Node000016"><a xlink:title=" ">
<path fill="none" stroke="#63b8ff" d="M393.61,-268.48C399.09,-270.72 404.33,-273.48 409,-276.87 433.22,-294.52 420.85,-316.14 445,-333.87 447.64,-335.81 450.46,-337.56 453.41,-339.12"/>
<polygon fill="#63b8ff" stroke="#63b8ff" points="451.99,-342.32 462.54,-343.3 454.9,-335.95 451.99,-342.32"/>
</a>
</g>
</g>
<!-- Node17 -->
<g id="Node000017" class="node">
<title>Node17</title>
<g id="a_Node000017"><a xlink:href="structs_2cxx_2base_8cxx.html#a4eee7b291ed2cdcd4e3c2496c603c48c" target="_top" xlink:title="Counts occurrences of a substring in a string.">
<polygon fill="white" stroke="#666666" points="539.5,-194.37 495.5,-194.37 495.5,-175.37 539.5,-175.37 539.5,-194.37"/>
<text text-anchor="middle" x="517.5" y="-182.37" font-family="Helvetica,sans-Serif" font-size="10.00">count</text>
</a>
</g>
</g>
<!-- Node15&#45;&gt;Node17 -->
<g id="edge22_Node000015_Node000017" class="edge">
<title>Node15&#45;&gt;Node17</title>
<g id="a_edge22_Node000015_Node000017"><a xlink:title=" ">
<path fill="none" stroke="#63b8ff" d="M380.21,-249.31C389.79,-246.65 399.86,-243.48 409,-239.87 425.83,-233.24 428.92,-229.17 445,-220.87 459.21,-213.55 475.1,-205.53 488.27,-198.93"/>
<polygon fill="#63b8ff" stroke="#63b8ff" points="489.95,-202 497.33,-194.4 486.82,-195.74 489.95,-202"/>
</a>
</g>
</g>
<!-- Node18 -->
<g id="Node000018" class="node">
<title>Node18</title>
<g id="a_Node000018"><a xlink:href="classanalysis.html#acf4137dd2ceda151a94d68b2ed199da8" target="_top" xlink:title="Static method to execute metric calculation.">
<polygon fill="white" stroke="#666666" points="572.5,-156.87 462.5,-156.87 462.5,-126.87 572.5,-126.87 572.5,-156.87"/>
<text text-anchor="start" x="470.5" y="-144.87" font-family="Helvetica,sans-Serif" font-size="10.00">analysis::execution</text>
<text text-anchor="middle" x="517.5" y="-133.87" font-family="Helvetica,sans-Serif" font-size="10.00">_metric</text>
</a>
</g>
</g>
<!-- Node15&#45;&gt;Node18 -->
<g id="edge24_Node000015_Node000018" class="edge">
<title>Node15&#45;&gt;Node18</title>
<g id="a_edge24_Node000015_Node000018"><a xlink:title=" ">
<path fill="none" stroke="#63b8ff" d="M393.32,-249.26C398.97,-246.81 404.34,-243.73 409,-239.87 437.17,-216.55 417.53,-190.02 445,-165.87 447.64,-163.56 450.51,-161.46 453.53,-159.57"/>
<polygon fill="#63b8ff" stroke="#63b8ff" points="455.28,-162.6 462.4,-154.74 451.94,-156.45 455.28,-162.6"/>
</a>
</g>
</g>
<!-- Node16&#45;&gt;Node13 -->
<g id="edge21_Node000016_Node000013" class="edge">
<title>Node16&#45;&gt;Node13</title>
<g id="a_edge21_Node000016_Node000013"><a xlink:title=" ">
<path fill="none" stroke="#63b8ff" d="M571.03,-362.42C577.65,-364.67 584.14,-367.45 590,-370.87 623.63,-390.56 652.59,-426.5 668.05,-448.09"/>
<polygon fill="#63b8ff" stroke="#63b8ff" points="665.23,-450.17 673.82,-456.37 670.97,-446.17 665.23,-450.17"/>
</a>
</g>
</g>
<!-- Node17&#45;&gt;Node17 -->
<g id="edge23_Node000017_Node000017" class="edge">
<title>Node17&#45;&gt;Node17</title>
<g id="a_edge23_Node000017_Node000017"><a xlink:title=" ">
<path fill="none" stroke="#63b8ff" d="M495.2,-192.76C479.38,-201.85 486.81,-212.37 517.5,-212.37 540.52,-212.37 550.45,-206.45 547.31,-199.66"/>
<polygon fill="#63b8ff" stroke="#63b8ff" points="549.53,-196.95 539.8,-192.76 544.79,-202.1 549.53,-196.95"/>
</a>
</g>
</g>
<!-- Node21 -->
<g id="Node000021" class="node">
<title>Node21</title>
<g id="a_Node000021"><a xlink:href="classanalysis.html#a1c8b808d255b490be4ea86df4d29cdf1" target="_top" xlink:title="Static method to initialize a training loop for an optimizer.">
<polygon fill="white" stroke="#666666" points="583,-513.37 452,-513.37 452,-494.37 583,-494.37 583,-513.37"/>
<text text-anchor="middle" x="517.5" y="-501.37" font-family="Helvetica,sans-Serif" font-size="10.00">analysis::initialize_loop</text>
</a>
</g>
</g>
<!-- Node20&#45;&gt;Node21 -->
<g id="edge27_Node000020_Node000021" class="edge">
<title>Node20&#45;&gt;Node21</title>
<g id="a_edge27_Node000020_Node000021"><a xlink:title=" ">
<path fill="none" stroke="#63b8ff" d="M399.59,-507.17C413.17,-506.79 427.72,-506.38 441.8,-505.98"/>
<polygon fill="#63b8ff" stroke="#63b8ff" points="442.04,-509.47 451.94,-505.69 441.85,-502.48 442.04,-509.47"/>
</a>
</g>
</g>
<!-- Node22 -->
<g id="Node000022" class="node">
<title>Node22</title>
<g id="a_Node000022"><a xlink:href="classtools.html#a47d3d261edcb898daab56721e18d1e67" target="_top" xlink:title="Checks if a path refers to an existing file.">
<polygon fill="white" stroke="#666666" points="718.5,-513.37 643.5,-513.37 643.5,-494.37 718.5,-494.37 718.5,-513.37"/>
<text text-anchor="middle" x="681" y="-501.37" font-family="Helvetica,sans-Serif" font-size="10.00">tools::is_file</text>
</a>
</g>
</g>
<!-- Node21&#45;&gt;Node22 -->
<g id="edge28_Node000021_Node000022" class="edge">
<title>Node21&#45;&gt;Node22</title>
<g id="a_edge28_Node000021_Node000022"><a xlink:title=" ">
<path fill="none" stroke="#63b8ff" d="M583.26,-503.87C599.8,-503.87 617.27,-503.87 632.75,-503.87"/>
<polygon fill="#63b8ff" stroke="#63b8ff" points="633.11,-507.38 643.11,-503.87 633.11,-500.38 633.11,-507.38"/>
</a>
</g>
</g>
<!-- Node24&#45;&gt;Node8 -->
<g id="edge38_Node000024_Node000008" class="edge">
<title>Node24&#45;&gt;Node8</title>
<g id="a_edge38_Node000024_Node000008"><a xlink:title=" ">
<path fill="none" stroke="#63b8ff" d="M400.66,-287.87C452.13,-283.13 526.98,-280.81 590,-296.87 679.45,-319.68 771.79,-382.5 811.87,-412.08"/>
<polygon fill="#63b8ff" stroke="#63b8ff" points="809.94,-415.01 820.05,-418.19 814.13,-409.4 809.94,-415.01"/>
</a>
</g>
</g>
<!-- Node24&#45;&gt;Node10 -->
<g id="edge37_Node000024_Node000010" class="edge">
<title>Node24&#45;&gt;Node10</title>
<g id="a_edge37_Node000024_Node000010"><a xlink:title=" ">
<path fill="none" stroke="#63b8ff" d="M349.63,-305.39C367.86,-321.22 406.82,-353 445,-370.87 451.64,-373.98 458.87,-376.65 466.1,-378.91"/>
<polygon fill="#63b8ff" stroke="#63b8ff" points="465.32,-382.33 475.9,-381.76 467.28,-375.61 465.32,-382.33"/>
</a>
</g>
</g>
<!-- Node24&#45;&gt;Node17 -->
<g id="edge32_Node000024_Node000017" class="edge">
<title>Node24&#45;&gt;Node17</title>
<g id="a_edge32_Node000024_Node000017"><a xlink:title=" ">
<path fill="none" stroke="#63b8ff" d="M391.45,-286.28C397.69,-283.83 403.72,-280.74 409,-276.87 432.87,-259.39 423.01,-240.67 445,-220.87 456.8,-210.25 472.31,-201.94 485.87,-195.99"/>
<polygon fill="#63b8ff" stroke="#63b8ff" points="487.42,-199.14 495.32,-192.08 484.74,-192.67 487.42,-199.14"/>
</a>
</g>
</g>
<!-- Node25 -->
<g id="Node000025" class="node">
<title>Node25</title>
<g id="a_Node000025"><a xlink:href="classtools.html#ad7229c72cee65da3605c4be82f9b42d4" target="_top" xlink:title="Checks if a string contains a specific substring.">
<polygon fill="white" stroke="#666666" points="566,-325.37 469,-325.37 469,-306.37 566,-306.37 566,-325.37"/>
<text text-anchor="middle" x="517.5" y="-313.37" font-family="Helvetica,sans-Serif" font-size="10.00">tools::has_string</text>
</a>
</g>
</g>
<!-- Node24&#45;&gt;Node25 -->
<g id="edge33_Node000024_Node000025" class="edge">
<title>Node24&#45;&gt;Node25</title>
<g id="a_edge33_Node000024_Node000025"><a xlink:title=" ">
<path fill="none" stroke="#63b8ff" d="M400.58,-302.81C419.42,-304.94 440.07,-307.26 458.65,-309.36"/>
<polygon fill="#63b8ff" stroke="#63b8ff" points="458.41,-312.85 468.74,-310.49 459.19,-305.9 458.41,-312.85"/>
</a>
</g>
</g>
<!-- Node26 -->
<g id="Node000026" class="node">
<title>Node26</title>
<g id="a_Node000026"><a xlink:href="classtools.html#a5ab0f2cc351dd97951358ebe19e9c18d" target="_top" xlink:title="Lists files in a directory, optionally filtered by extension.">
<polygon fill="white" stroke="#666666" points="545,-249.37 490,-249.37 490,-230.37 545,-230.37 545,-249.37"/>
<text text-anchor="middle" x="517.5" y="-237.37" font-family="Helvetica,sans-Serif" font-size="10.00">tools::ls</text>
</a>
</g>
</g>
<!-- Node24&#45;&gt;Node26 -->
<g id="edge34_Node000024_Node000026" class="edge">
<title>Node24&#45;&gt;Node26</title>
<g id="a_edge34_Node000024_Node000026"><a xlink:title=" ">
<path fill="none" stroke="#63b8ff" d="M376.58,-286.28C387.12,-283.42 398.55,-280.17 409,-276.87 425.22,-271.75 428.94,-269.47 445,-263.87 456.48,-259.88 469.03,-255.62 480.37,-251.83"/>
<polygon fill="#63b8ff" stroke="#63b8ff" points="481.59,-255.11 489.97,-248.62 479.37,-248.47 481.59,-255.11"/>
</a>
</g>
</g>
<!-- Node26&#45;&gt;Node8 -->
<g id="edge36_Node000026_Node000008" class="edge">
<title>Node26&#45;&gt;Node8</title>
<g id="a_edge36_Node000026_Node000008"><a xlink:title=" ">
<path fill="none" stroke="#63b8ff" d="M545.09,-235.67C588.74,-230.21 676.68,-225.48 736,-263.87 789.03,-298.2 816.68,-372.75 827.28,-408.28"/>
<polygon fill="#63b8ff" stroke="#63b8ff" points="823.93,-409.3 830.03,-417.96 830.66,-407.39 823.93,-409.3"/>
</a>
</g>
</g>
<!-- Node26&#45;&gt;Node27 -->
<g id="edge35_Node000026_Node000027" class="edge">
<title>Node26&#45;&gt;Node27</title>
<g id="a_edge35_Node000026_Node000027"><a xlink:title=" ">
<path fill="none" stroke="#63b8ff" d="M545.24,-236.17C559.25,-233.41 576.29,-228.72 590,-220.87 622.06,-202.53 650.83,-169.89 666.8,-149.65"/>
<polygon fill="#63b8ff" stroke="#63b8ff" points="669.7,-151.63 673.02,-141.56 664.15,-147.36 669.7,-151.63"/>
</a>
</g>
</g>
</g>
</svg>
