<?xml version="1.0" encoding="UTF-8" standalone="no"?>
<!DOCTYPE svg PUBLIC "-//W3C//DTD SVG 1.1//EN"
 "http://www.w3.org/Graphics/SVG/1.1/DTD/svg11.dtd">
<!-- Generated by graphviz version 2.43.0 (0)
 -->
<!-- Title: bsc_t::flush_buffer Pages: 1 -->
<svg width="388pt" height="175pt"
 viewBox="0.00 0.00 388.00 175.00" xmlns="http://www.w3.org/2000/svg" xmlns:xlink="http://www.w3.org/1999/xlink">
<g id="graph0" class="graph" transform="scale(1 1) rotate(0) translate(4 171)">
<title>bsc_t::flush_buffer</title>
<!-- Node1 -->
<g id="Node000001" class="node">
<title>Node1</title>
<g id="a_Node000001"><a xlink:title="Clears the internal buffer.">
<polygon fill="#999999" stroke="#666666" points="380,-93 275,-93 275,-74 380,-74 380,-93"/>
<text text-anchor="middle" x="327.5" y="-81" font-family="Helvetica,sans-Serif" font-size="10.00">bsc_t::flush_buffer</text>
</a>
</g>
</g>
<!-- Node1&#45;&gt;Node1 -->
<g id="edge4_Node000001_Node000001" class="edge">
<title>Node1&#45;&gt;Node1</title>
<g id="a_edge4_Node000001_Node000001"><a xlink:title=" ">
<path fill="none" stroke="#63b8ff" d="M355.87,-101.82C354.69,-107.01 345.23,-111 327.5,-111 300.48,-111 292.68,-101.73 304.07,-93.08"/>
<polygon fill="#63b8ff" stroke="#63b8ff" points="358.9,-100.06 350.93,-93.08 352.81,-103.51 358.9,-100.06"/>
</a>
</g>
</g>
<!-- Node2 -->
<g id="Node000002" class="node">
<title>Node2</title>
<g id="a_Node000002"><a xlink:href="structdata__t.html#af32e86059434e10bdac3be4d4a4ad01a" target="_top" xlink:title=" ">
<polygon fill="white" stroke="#666666" points="221,-167 129,-167 129,-148 221,-148 221,-167"/>
<text text-anchor="middle" x="175" y="-155" font-family="Helvetica,sans-Serif" font-size="10.00">data_t::~data_t</text>
</a>
</g>
</g>
<!-- Node1&#45;&gt;Node2 -->
<g id="edge1_Node000001_Node000002" class="edge">
<title>Node1&#45;&gt;Node2</title>
<g id="a_edge1_Node000001_Node000002"><a xlink:title=" ">
<path fill="none" stroke="#63b8ff" d="M305.97,-99.09C288.83,-111.48 263.36,-128.51 239,-139.5 231.74,-142.77 223.74,-145.6 215.95,-147.99"/>
<polygon fill="#63b8ff" stroke="#63b8ff" points="308.15,-101.83 314.12,-93.08 304,-96.2 308.15,-101.83"/>
</a>
</g>
</g>
<!-- Node3 -->
<g id="Node000003" class="node">
<title>Node3</title>
<g id="a_Node000003"><a xlink:href="structvariable__t.html#a3ae26cbb367f83db713ce8cb8b99b7a4" target="_top" xlink:title=" ">
<polygon fill="white" stroke="#666666" points="239,-130 111,-130 111,-111 239,-111 239,-130"/>
<text text-anchor="middle" x="175" y="-118" font-family="Helvetica,sans-Serif" font-size="10.00">variable_t::~variable_t</text>
</a>
</g>
</g>
<!-- Node1&#45;&gt;Node3 -->
<g id="edge2_Node000001_Node000003" class="edge">
<title>Node1&#45;&gt;Node3</title>
<g id="a_edge2_Node000001_Node000003"><a xlink:title=" ">
<path fill="none" stroke="#63b8ff" d="M277.99,-95.43C257.58,-100.44 234.14,-106.21 214.89,-110.94"/>
<polygon fill="#63b8ff" stroke="#63b8ff" points="278.87,-98.81 287.74,-93.03 277.2,-92.02 278.87,-98.81"/>
</a>
</g>
</g>
<!-- Node4 -->
<g id="Node000004" class="node">
<title>Node4</title>
<g id="a_Node000004"><a xlink:href="structdata__t.html#a477bcdc3c7a3d316af645c419b4cae8f" target="_top" xlink:title=" ">
<polygon fill="white" stroke="#666666" points="213.5,-93 136.5,-93 136.5,-74 213.5,-74 213.5,-93"/>
<text text-anchor="middle" x="175" y="-81" font-family="Helvetica,sans-Serif" font-size="10.00">data_t::flush</text>
</a>
</g>
</g>
<!-- Node1&#45;&gt;Node4 -->
<g id="edge3_Node000001_Node000004" class="edge">
<title>Node1&#45;&gt;Node4</title>
<g id="a_edge3_Node000001_Node000004"><a xlink:title=" ">
<path fill="none" stroke="#63b8ff" d="M264.66,-83.5C247.35,-83.5 229.07,-83.5 213.63,-83.5"/>
<polygon fill="#63b8ff" stroke="#63b8ff" points="264.71,-87 274.71,-83.5 264.71,-80 264.71,-87"/>
</a>
</g>
</g>
<!-- Node5 -->
<g id="Node000005" class="node">
<title>Node5</title>
<g id="a_Node000005"><a xlink:href="structdata__t.html#a1e32c6e18a54f7e31f6491ec52deaeff" target="_top" xlink:title=" ">
<polygon fill="white" stroke="#666666" points="222.5,-56 127.5,-56 127.5,-37 222.5,-37 222.5,-56"/>
<text text-anchor="middle" x="175" y="-44" font-family="Helvetica,sans-Serif" font-size="10.00">data_t::initialize</text>
</a>
</g>
</g>
<!-- Node1&#45;&gt;Node5 -->
<g id="edge5_Node000001_Node000005" class="edge">
<title>Node1&#45;&gt;Node5</title>
<g id="a_edge5_Node000001_Node000005"><a xlink:title=" ">
<path fill="none" stroke="#63b8ff" d="M277.99,-71.57C257.58,-66.56 234.14,-60.79 214.89,-56.06"/>
<polygon fill="#63b8ff" stroke="#63b8ff" points="277.2,-74.98 287.74,-73.97 278.87,-68.19 277.2,-74.98"/>
</a>
</g>
</g>
<!-- Node7 -->
<g id="Node000007" class="node">
<title>Node7</title>
<g id="a_Node000007"><a xlink:href="structvariable__t.html#abb328168f0e26f52e6d164f6e6aed831" target="_top" xlink:title=" ">
<polygon fill="white" stroke="#666666" points="229.5,-19 120.5,-19 120.5,0 229.5,0 229.5,-19"/>
<text text-anchor="middle" x="175" y="-7" font-family="Helvetica,sans-Serif" font-size="10.00">variable_t::process</text>
</a>
</g>
</g>
<!-- Node1&#45;&gt;Node7 -->
<g id="edge7_Node000001_Node000007" class="edge">
<title>Node1&#45;&gt;Node7</title>
<g id="a_edge7_Node000001_Node000007"><a xlink:title=" ">
<path fill="none" stroke="#63b8ff" d="M305.59,-68.1C288.4,-56.01 263.06,-39.45 239,-28.5 230.99,-24.86 222.1,-21.69 213.59,-19.03"/>
<polygon fill="#63b8ff" stroke="#63b8ff" points="303.61,-70.99 313.78,-73.96 307.68,-65.29 303.61,-70.99"/>
</a>
</g>
</g>
<!-- Node6 -->
<g id="Node000006" class="node">
<title>Node6</title>
<g id="a_Node000006"><a xlink:href="structdata__t.html#ac443d1828779a2aaf4be06b575567a9e" target="_top" xlink:title=" ">
<polygon fill="white" stroke="#666666" points="75,-56 0,-56 0,-37 75,-37 75,-56"/>
<text text-anchor="middle" x="37.5" y="-44" font-family="Helvetica,sans-Serif" font-size="10.00">data_t::next</text>
</a>
</g>
</g>
<!-- Node5&#45;&gt;Node6 -->
<g id="edge6_Node000005_Node000006" class="edge">
<title>Node5&#45;&gt;Node6</title>
<g id="a_edge6_Node000005_Node000006"><a xlink:title=" ">
<path fill="none" stroke="#63b8ff" d="M117.22,-46.5C103.08,-46.5 88.28,-46.5 75.38,-46.5"/>
<polygon fill="#63b8ff" stroke="#63b8ff" points="117.37,-50 127.37,-46.5 117.37,-43 117.37,-50"/>
</a>
</g>
</g>
</g>
</svg>
