<?xml version="1.0" encoding="UTF-8" standalone="no"?>
<!DOCTYPE svg PUBLIC "-//W3C//DTD SVG 1.1//EN"
 "http://www.w3.org/Graphics/SVG/1.1/DTD/svg11.dtd">
<!-- Generated by graphviz version 2.43.0 (0)
 -->
<!-- Title: io::root_end Pages: 1 -->
<svg width="188pt" height="64pt"
 viewBox="0.00 0.00 188.00 64.00" xmlns="http://www.w3.org/2000/svg" xmlns:xlink="http://www.w3.org/1999/xlink">
<g id="graph0" class="graph" transform="scale(1 1) rotate(0) translate(4 60)">
<title>io::root_end</title>
<!-- Node1 -->
<g id="Node000001" class="node">
<title>Node1</title>
<g id="a_Node000001"><a xlink:title="Finalizes ROOT file processing, closing any ROOT files opened by root_begin.">
<polygon fill="#999999" stroke="#666666" points="74,-37 0,-37 0,-18 74,-18 74,-37"/>
<text text-anchor="middle" x="37" y="-25" font-family="Helvetica,sans-Serif" font-size="10.00">io::root_end</text>
</a>
</g>
</g>
<!-- Node2 -->
<g id="Node000002" class="node">
<title>Node2</title>
<g id="a_Node000002"><a xlink:href="classio.html#a65ca69ec5f12d0f3a463396bcff84d77" target="_top" xlink:title="Ends the current I/O session, closing any open files.">
<polygon fill="white" stroke="#666666" points="170,-56 120,-56 120,-37 170,-37 170,-56"/>
<text text-anchor="middle" x="145" y="-44" font-family="Helvetica,sans-Serif" font-size="10.00">io::end</text>
</a>
</g>
</g>
<!-- Node1&#45;&gt;Node2 -->
<g id="edge1_Node000001_Node000002" class="edge">
<title>Node1&#45;&gt;Node2</title>
<g id="a_edge1_Node000001_Node000002"><a xlink:title=" ">
<path fill="none" stroke="#63b8ff" d="M74.18,-33.99C85.75,-36.06 98.52,-38.35 109.93,-40.39"/>
<polygon fill="#63b8ff" stroke="#63b8ff" points="109.5,-43.87 119.97,-42.19 110.74,-36.98 109.5,-43.87"/>
</a>
</g>
</g>
<!-- Node3 -->
<g id="Node000003" class="node">
<title>Node3</title>
<g id="a_Node000003"><a xlink:href="classtools.html#abce97603aeadeaa04fa6c6ff6c721eda" target="_top" xlink:title="Empties a vector and all objects it points to.">
<polygon fill="white" stroke="#666666" points="180,-19 110,-19 110,0 180,0 180,-19"/>
<text text-anchor="middle" x="145" y="-7" font-family="Helvetica,sans-Serif" font-size="10.00">tools::flush</text>
</a>
</g>
</g>
<!-- Node1&#45;&gt;Node3 -->
<g id="edge2_Node000001_Node000003" class="edge">
<title>Node1&#45;&gt;Node3</title>
<g id="a_edge2_Node000001_Node000003"><a xlink:title=" ">
<path fill="none" stroke="#63b8ff" d="M74.18,-21.36C82.37,-19.97 91.15,-18.47 99.63,-17.03"/>
<polygon fill="#63b8ff" stroke="#63b8ff" points="100.49,-20.44 109.77,-15.31 99.32,-13.54 100.49,-20.44"/>
</a>
</g>
</g>
</g>
</svg>
