<?xml version="1.0" encoding="UTF-8" standalone="no"?>
<!DOCTYPE svg PUBLIC "-//W3C//DTD SVG 1.1//EN"
 "http://www.w3.org/Graphics/SVG/1.1/DTD/svg11.dtd">
<!-- Generated by graphviz version 2.43.0 (0)
 -->
<!-- Title: combinatorial::strategy Pages: 1 -->
<!--zoomable 209 -->

<svg id="main" version="1.1" xmlns="http://www.w3.org/2000/svg" xmlns:xlink="http://www.w3.org/1999/xlink" xml:space="preserve" onload="init(evt)">
<style type="text/css"><![CDATA[
.node, .edge {opacity: 0.7;}
.node.selected, .edge.selected {opacity: 1;}
.edge:hover path { stroke: red; }
.edge:hover polygon { stroke: red; fill: red; }
]]></style>

<defs>
  <circle id="rim" cx="0" cy="0" r="7"/>
  <circle id="rim2" cx="0" cy="0" r="3.5"/>
  <g id="zoomPlus">
    <use xlink:href="#rim" fill="#404040"><set attributeName="fill" to="#808080" begin="zoomplus.mouseover" end="zoomplus.mouseout"/></use>
    <path d="M-4,0h8M0,-4v8" fill="none" stroke="white" stroke-width="1.5" pointer-events="none"/>
  </g>
  <g id="zoomMin">
    <use xlink:href="#rim" fill="#404040"><set attributeName="fill" to="#808080" begin="zoomminus.mouseover" end="zoomminus.mouseout"/></use>
    <path d="M-4,0h8" fill="none" stroke="white" stroke-width="1.5" pointer-events="none"/>
  </g>
  <g id="arrowUp" transform="translate(30 24)">
    <use xlink:href="#rim"/>
    <path pointer-events="none" fill="none" stroke="white" stroke-width="1.5" d="M0,-3.0v7 M-2.5,-0.5L0,-3.0L2.5,-0.5"/>
  </g>
  <g id="arrowRight" transform="rotate(90) translate(36 -43)">
    <use xlink:href="#rim"/>
    <path pointer-events="none" fill="none" stroke="white" stroke-width="1.5" d="M0,-3.0v7 M-2.5,-0.5L0,-3.0L2.5,-0.5"/>
  </g>
  <g id="arrowDown" transform="rotate(180) translate(-30 -48)">
    <use xlink:href="#rim"/>
    <path pointer-events="none" fill="none" stroke="white" stroke-width="1.5" d="M0,-3.0v7 M-2.5,-0.5L0,-3.0L2.5,-0.5"/>
  </g>
  <g id="arrowLeft" transform="rotate(270) translate(-36 17)">
    <use xlink:href="#rim"/>
    <path pointer-events="none" fill="none" stroke="white" stroke-width="1.5" d="M0,-3.0v7 M-2.5,-0.5L0,-3.0L2.5,-0.5"/>
  </g>
  <g id="resetDef">
    <use xlink:href="#rim2" fill="#404040"><set attributeName="fill" to="#808080" begin="reset.mouseover" end="reset.mouseout"/></use>
  </g>
</defs>
<script type="application/ecmascript">
var viewWidth = 640;
var viewHeight = 209;
var sectionId = 'dynsection-43';
</script>
<script type="application/ecmascript" xlink:href="svg.min.js"/>
<svg id="graph" class="graph">
<g id="viewport">
<title>combinatorial::strategy</title>
<!-- Node1 -->
<g id="Node000001" class="node">
<title>Node1</title>
<g id="a_Node000001"><a xlink:title="Alternative selection strategy method.">
<polygon fill="#999999" stroke="#666666" points="131,-115.5 0,-115.5 0,-96.5 131,-96.5 131,-115.5"/>
<text text-anchor="middle" x="65.5" y="-103.5" font-family="Helvetica,sans-Serif" font-size="10.00">combinatorial::strategy</text>
</a>
</g>
</g>
<!-- Node2 -->
<g id="Node000002" class="node">
<title>Node2</title>
<g id="a_Node000002"><a xlink:href="classcombinatorial.html#abfc631f135905b89a84996815ff817f6" target="_top" xlink:title=" ">
<polygon fill="white" stroke="#666666" points="304,-201 190,-201 190,-171 304,-171 304,-201"/>
<text text-anchor="start" x="198" y="-189" font-family="Helvetica,sans-Serif" font-size="10.00">combinatorial::build</text>
<text text-anchor="middle" x="247" y="-178" font-family="Helvetica,sans-Serif" font-size="10.00">_packet</text>
</a>
</g>
</g>
<!-- Node1&#45;&gt;Node2 -->
<g id="edge1_Node000001_Node000002" class="edge">
<title>Node1&#45;&gt;Node2</title>
<g id="a_edge1_Node000001_Node000002"><a xlink:title=" ">
<path fill="none" stroke="#63b8ff" d="M81.31,-115.58C100.48,-127.67 135.2,-148.49 167,-162 171.66,-163.98 176.54,-165.87 181.49,-167.66"/>
<polygon fill="#63b8ff" stroke="#63b8ff" points="180.47,-171.01 191.06,-170.97 182.75,-164.39 180.47,-171.01"/>
</a>
</g>
</g>
<!-- Node3 -->
<g id="Node000003" class="node">
<title>Node3</title>
<g id="a_Node000003"><a xlink:href="merge__cast_8h.html#a205af11d07be8d10770e7392817fc5c3" target="_top" xlink:title=" ">
<polygon fill="white" stroke="#666666" points="284.5,-152.5 209.5,-152.5 209.5,-133.5 284.5,-133.5 284.5,-152.5"/>
<text text-anchor="middle" x="247" y="-140.5" font-family="Helvetica,sans-Serif" font-size="10.00">merge_data</text>
</a>
</g>
</g>
<!-- Node1&#45;&gt;Node3 -->
<g id="edge2_Node000001_Node000003" class="edge">
<title>Node1&#45;&gt;Node3</title>
<g id="a_edge2_Node000001_Node000003"><a xlink:title=" ">
<path fill="none" stroke="#63b8ff" d="M112.73,-115.53C139.35,-121.02 172.7,-127.89 199.39,-133.39"/>
<polygon fill="#63b8ff" stroke="#63b8ff" points="198.76,-136.84 209.26,-135.43 200.17,-129.98 198.76,-136.84"/>
</a>
</g>
</g>
<!-- Node4 -->
<g id="Node000004" class="node">
<title>Node4</title>
<g id="a_Node000004"><a xlink:href="classcombinatorial.html#a4f90aaf04154a0d1ca9d59e1ccb2c54e" target="_top" xlink:title=" ">
<polygon fill="white" stroke="#666666" points="327,-115.5 167,-115.5 167,-96.5 327,-96.5 327,-115.5"/>
<text text-anchor="middle" x="247" y="-103.5" font-family="Helvetica,sans-Serif" font-size="10.00">combinatorial::reconstruction</text>
</a>
</g>
</g>
<!-- Node1&#45;&gt;Node4 -->
<g id="edge3_Node000001_Node000004" class="edge">
<title>Node1&#45;&gt;Node4</title>
<g id="a_edge3_Node000001_Node000004"><a xlink:title=" ">
<path fill="none" stroke="#63b8ff" d="M131.05,-106C139.36,-106 147.98,-106 156.6,-106"/>
<polygon fill="#63b8ff" stroke="#63b8ff" points="156.69,-109.5 166.69,-106 156.69,-102.5 156.69,-109.5"/>
</a>
</g>
</g>
<!-- Node11 -->
<g id="Node000011" class="node">
<title>Node11</title>
<g id="a_Node000011"><a xlink:href="classcombinatorial.html#adb51dd4e96b0c4596711f5466571e091" target="_top" xlink:title=" ">
<polygon fill="white" stroke="#666666" points="309,-78 185,-78 185,-48 309,-48 309,-78"/>
<text text-anchor="start" x="193" y="-66" font-family="Helvetica,sans-Serif" font-size="10.00">combinatorial::update</text>
<text text-anchor="middle" x="247" y="-55" font-family="Helvetica,sans-Serif" font-size="10.00">_state</text>
</a>
</g>
</g>
<!-- Node1&#45;&gt;Node11 -->
<g id="edge10_Node000001_Node000011" class="edge">
<title>Node1&#45;&gt;Node11</title>
<g id="a_edge10_Node000001_Node000011"><a xlink:title=" ">
<path fill="none" stroke="#63b8ff" d="M106.34,-96.46C126.49,-91.63 151.57,-85.62 174.89,-80.04"/>
<polygon fill="#63b8ff" stroke="#63b8ff" points="175.85,-83.4 184.76,-77.67 174.22,-76.6 175.85,-83.4"/>
</a>
</g>
</g>
<!-- Node12 -->
<g id="Node000012" class="node">
<title>Node12</title>
<g id="a_Node000012"><a xlink:href="classselection__template.html#acfb4c50041c70205e08f6ccb4a850979" target="_top" xlink:title="Converts a map to a vector.">
<polygon fill="white" stroke="#666666" points="302,-30 192,-30 192,0 302,0 302,-30"/>
<text text-anchor="start" x="200" y="-18" font-family="Helvetica,sans-Serif" font-size="10.00">selection_template</text>
<text text-anchor="middle" x="247" y="-7" font-family="Helvetica,sans-Serif" font-size="10.00">::vectorize</text>
</a>
</g>
</g>
<!-- Node1&#45;&gt;Node12 -->
<g id="edge11_Node000001_Node000012" class="edge">
<title>Node1&#45;&gt;Node12</title>
<g id="a_edge11_Node000001_Node000012"><a xlink:title=" ">
<path fill="none" stroke="#63b8ff" d="M78.49,-96.29C96.65,-82 132.68,-55.22 167,-39 171.86,-36.7 176.99,-34.56 182.21,-32.59"/>
<polygon fill="#63b8ff" stroke="#63b8ff" points="183.43,-35.87 191.66,-29.2 181.06,-29.28 183.43,-35.87"/>
</a>
</g>
</g>
<!-- Node5 -->
<g id="Node000005" class="node">
<title>Node5</title>
<g id="a_Node000005"><a xlink:href="combinatorial_8cxx.html#acd33f38fd89cd298ef5d1ea858ee0416" target="_top" xlink:title=" ">
<polygon fill="white" stroke="#666666" points="451.5,-174.5 414.5,-174.5 414.5,-155.5 451.5,-155.5 451.5,-174.5"/>
<text text-anchor="middle" x="433" y="-162.5" font-family="Helvetica,sans-Serif" font-size="10.00">chi2</text>
</a>
</g>
</g>
<!-- Node4&#45;&gt;Node5 -->
<g id="edge4_Node000004_Node000005" class="edge">
<title>Node4&#45;&gt;Node5</title>
<g id="a_edge4_Node000004_Node000005"><a xlink:title=" ">
<path fill="none" stroke="#63b8ff" d="M301.48,-115.54C310.17,-117.84 318.95,-120.63 327,-124 344.52,-131.33 345.6,-139.4 363,-147 376.12,-152.73 391.46,-156.96 404.34,-159.87"/>
<polygon fill="#63b8ff" stroke="#63b8ff" points="403.98,-163.37 414.49,-162.01 405.42,-156.52 403.98,-163.37"/>
</a>
</g>
</g>
<!-- Node6 -->
<g id="Node000006" class="node">
<title>Node6</title>
<g id="a_Node000006"><a xlink:href="namespacepyc_1_1nusol.html#a0b618f866aa33e16c704d828744335e1" target="_top" xlink:title=" ">
<polygon fill="white" stroke="#666666" points="503,-137.5 363,-137.5 363,-118.5 503,-118.5 503,-137.5"/>
<text text-anchor="middle" x="433" y="-125.5" font-family="Helvetica,sans-Serif" font-size="10.00">pyc::nusol::combinatorial</text>
</a>
</g>
</g>
<!-- Node4&#45;&gt;Node6 -->
<g id="edge5_Node000004_Node000006" class="edge">
<title>Node4&#45;&gt;Node6</title>
<g id="a_edge5_Node000004_Node000006"><a xlink:title=" ">
<path fill="none" stroke="#63b8ff" d="M327.1,-115.46C335.64,-116.48 344.33,-117.52 352.88,-118.54"/>
<polygon fill="#63b8ff" stroke="#63b8ff" points="352.47,-122.02 362.81,-119.73 353.3,-115.07 352.47,-122.02"/>
</a>
</g>
</g>
<!-- Node9 -->
<g id="Node000009" class="node">
<title>Node9</title>
<g id="a_Node000009"><a xlink:href="classselection__template.html#a76e4fafd2338fada8d38912c6c803317" target="_top" xlink:title="Removes duplicate particles based on hash.">
<polygon fill="white" stroke="#666666" points="488,-100 378,-100 378,-70 488,-70 488,-100"/>
<text text-anchor="start" x="386" y="-88" font-family="Helvetica,sans-Serif" font-size="10.00">selection_template</text>
<text text-anchor="middle" x="433" y="-77" font-family="Helvetica,sans-Serif" font-size="10.00">::make_unique</text>
</a>
</g>
</g>
<!-- Node4&#45;&gt;Node9 -->
<g id="edge8_Node000004_Node000009" class="edge">
<title>Node4&#45;&gt;Node9</title>
<g id="a_edge8_Node000004_Node000009"><a xlink:title=" ">
<path fill="none" stroke="#63b8ff" d="M327.1,-96.97C340.63,-95.43 354.53,-93.84 367.62,-92.35"/>
<polygon fill="#63b8ff" stroke="#63b8ff" points="368.37,-95.78 377.91,-91.17 367.58,-88.83 368.37,-95.78"/>
</a>
</g>
</g>
<!-- Node10 -->
<g id="Node000010" class="node">
<title>Node10</title>
<g id="a_Node000010"><a xlink:href="combinatorial_8cxx.html#ad1088ff61940925cecad1412122dc757" target="_top" xlink:title=" ">
<polygon fill="white" stroke="#666666" points="462.5,-51.5 403.5,-51.5 403.5,-32.5 462.5,-32.5 462.5,-51.5"/>
<text text-anchor="middle" x="433" y="-39.5" font-family="Helvetica,sans-Serif" font-size="10.00">safe_get</text>
</a>
</g>
</g>
<!-- Node4&#45;&gt;Node10 -->
<g id="edge9_Node000004_Node000010" class="edge">
<title>Node4&#45;&gt;Node10</title>
<g id="a_edge9_Node000004_Node000010"><a xlink:title=" ">
<path fill="none" stroke="#63b8ff" d="M300.39,-96.45C309.47,-93.94 318.67,-90.83 327,-87 344.93,-78.76 345.2,-69.53 363,-61 372.5,-56.45 383.27,-52.83 393.43,-50.02"/>
<polygon fill="#63b8ff" stroke="#63b8ff" points="394.5,-53.36 403.31,-47.48 392.76,-46.58 394.5,-53.36"/>
</a>
</g>
</g>
<!-- Node7 -->
<g id="Node000007" class="node">
<title>Node7</title>
<g id="a_Node000007"><a xlink:href="utils_8cxx.html#a123aed6d73594e07c6401a7a6c587808" target="_top" xlink:title=" ">
<polygon fill="white" stroke="#666666" points="620.5,-155.5 550.5,-155.5 550.5,-136.5 620.5,-136.5 620.5,-155.5"/>
<text text-anchor="middle" x="585.5" y="-143.5" font-family="Helvetica,sans-Serif" font-size="10.00">changedev</text>
</a>
</g>
</g>
<!-- Node6&#45;&gt;Node7 -->
<g id="edge6_Node000006_Node000007" class="edge">
<title>Node6&#45;&gt;Node7</title>
<g id="a_edge6_Node000006_Node000007"><a xlink:title=" ">
<path fill="none" stroke="#63b8ff" d="M503.08,-136.26C515.63,-137.76 528.4,-139.29 539.99,-140.68"/>
<polygon fill="#63b8ff" stroke="#63b8ff" points="539.93,-144.19 550.27,-141.91 540.76,-137.24 539.93,-144.19"/>
</a>
</g>
</g>
<!-- Node8 -->
<g id="Node000008" class="node">
<title>Node8</title>
<g id="a_Node000008"><a xlink:href="namespacepyc.html#ab174cc51f6efef06bdb0ba47ec3fe3bf" target="_top" xlink:title=" ">
<polygon fill="white" stroke="#666666" points="632,-118.5 539,-118.5 539,-99.5 632,-99.5 632,-118.5"/>
<text text-anchor="middle" x="585.5" y="-106.5" font-family="Helvetica,sans-Serif" font-size="10.00">pyc::std_to_dict</text>
</a>
</g>
</g>
<!-- Node6&#45;&gt;Node8 -->
<g id="edge7_Node000006_Node000008" class="edge">
<title>Node6&#45;&gt;Node8</title>
<g id="a_edge7_Node000006_Node000008"><a xlink:title=" ">
<path fill="none" stroke="#63b8ff" d="M503.08,-119.28C511.65,-118.2 520.33,-117.1 528.67,-116.05"/>
<polygon fill="#63b8ff" stroke="#63b8ff" points="529.15,-119.52 538.64,-114.79 528.28,-112.57 529.15,-119.52"/>
</a>
</g>
</g>
</g>
</svg>

<g id="navigator" transform="translate(0 0)" fill="#404254">
  <rect fill="#f2f5e9" fill-opacity="0.5" stroke="#606060" stroke-width=".5" x="0" y="0" width="60" height="60"/>
  <use id="zoomplus" xlink:href="#zoomPlus" x="17" y="9" onmousedown="handleZoom(evt,'in')"/>
  <use id="zoomminus" xlink:href="#zoomMin" x="42" y="9" onmousedown="handleZoom(evt,'out')"/>
  <use id="reset" xlink:href="#resetDef" x="30" y="36" onmousedown="handleReset()"/>
   <use id="arrowup" xlink:href="#arrowUp" x="0" y="0" onmousedown="handlePan(0,-1)"/>
  <use id="arrowright" xlink:href="#arrowRight" x="0" y="0" onmousedown="handlePan(1,0)"/>
  <use id="arrowdown" xlink:href="#arrowDown" x="0" y="0" onmousedown="handlePan(0,1)"/>
  <use id="arrowleft" xlink:href="#arrowLeft" x="0" y="0" onmousedown="handlePan(-1,0)"/>
</g>
<svg viewBox="0 0 15 15" width="100%" height="30px" preserveAspectRatio="xMaxYMin meet">
 <g id="arrow_out" transform="scale(0.3 0.3)">
  <a xlink:href="classcombinatorial_a5cd8d199d3f8fe6c9f0b8e1c2e2f7bfd_cgraph_org.svg" target="_base">
   <rect id="button" ry="5" rx="5" y="6" x="6" height="38" width="38"
        fill="#f2f5e9" fill-opacity="0.5" stroke="#606060" stroke-width="1.0"/>
   <path id="arrow"
     d="M 11.500037,31.436501 C 11.940474,20.09759 22.043105,11.32322 32.158766,21.979434 L 37.068811,17.246167 C 37.068811,17.246167 37.088388,32 37.088388,32 L 22.160133,31.978069 C 22.160133,31.978069 26.997745,27.140456 26.997745,27.140456 C 18.528582,18.264221 13.291696,25.230495 11.500037,31.436501 z"
     style="fill:#404040;"/>
  </a>
 </g>
</svg>

<style type='text/css'>
<![CDATA[
[data-mouse-over-selected='false'] { opacity: 0.7; }
[data-mouse-over-selected='true']  { opacity: 1.0; }
]]>
</style>
<script type="application/ecmascript"><![CDATA[
document.addEventListener('DOMContentLoaded', (event) => {
  highlightEdges();
  highlightAdjacentNodes();
});
]]></script>
</svg>
