<?xml version="1.0" encoding="UTF-8" standalone="no"?>
<!DOCTYPE svg PUBLIC "-//W3C//DTD SVG 1.1//EN"
 "http://www.w3.org/Graphics/SVG/1.1/DTD/svg11.dtd">
<!-- Generated by graphviz version 2.43.0 (0)
 -->
<!-- Title: jetparton::jetparton Pages: 1 -->
<svg width="248pt" height="64pt"
 viewBox="0.00 0.00 248.00 64.00" xmlns="http://www.w3.org/2000/svg" xmlns:xlink="http://www.w3.org/1999/xlink">
<g id="graph0" class="graph" transform="scale(1 1) rotate(0) translate(4 60)">
<title>jetparton::jetparton</title>
<!-- Node1 -->
<g id="Node000001" class="node">
<title>Node1</title>
<g id="a_Node000001"><a xlink:title=" ">
<polygon fill="#999999" stroke="#666666" points="240,-37 129,-37 129,-18 240,-18 240,-37"/>
<text text-anchor="middle" x="184.5" y="-25" font-family="Helvetica,sans-Serif" font-size="10.00">jetparton::jetparton</text>
</a>
</g>
</g>
<!-- Node2 -->
<g id="Node000002" class="node">
<title>Node2</title>
<g id="a_Node000002"><a xlink:href="classjetparton.html#ae375fc413c69c5bdabbf34bba2ec189a" target="_top" xlink:title="Builds the particle from event data.">
<polygon fill="white" stroke="#666666" points="92,-56 1,-56 1,-37 92,-37 92,-56"/>
<text text-anchor="middle" x="46.5" y="-44" font-family="Helvetica,sans-Serif" font-size="10.00">jetparton::build</text>
</a>
</g>
</g>
<!-- Node1&#45;&gt;Node2 -->
<g id="edge1_Node000001_Node000002" class="edge">
<title>Node1&#45;&gt;Node2</title>
<g id="a_edge1_Node000001_Node000002"><a xlink:title=" ">
<path fill="none" stroke="#63b8ff" d="M118.8,-36.54C109.74,-37.8 100.6,-39.08 92.02,-40.28"/>
<polygon fill="#63b8ff" stroke="#63b8ff" points="119.55,-39.97 128.97,-35.12 118.58,-33.04 119.55,-39.97"/>
</a>
</g>
</g>
<!-- Node3 -->
<g id="Node000003" class="node">
<title>Node3</title>
<g id="a_Node000003"><a xlink:href="classjetparton.html#aaf8d08e327d8cbdab870ea76c5c4e099" target="_top" xlink:title="Creates a clone of this particle.">
<polygon fill="white" stroke="#666666" points="93,-19 0,-19 0,0 93,0 93,-19"/>
<text text-anchor="middle" x="46.5" y="-7" font-family="Helvetica,sans-Serif" font-size="10.00">jetparton::clone</text>
</a>
</g>
</g>
<!-- Node1&#45;&gt;Node3 -->
<g id="edge2_Node000001_Node000003" class="edge">
<title>Node1&#45;&gt;Node3</title>
<g id="a_edge2_Node000001_Node000003"><a xlink:title=" ">
<path fill="none" stroke="#63b8ff" d="M118.89,-18.95C110.25,-17.8 101.53,-16.65 93.31,-15.56"/>
<polygon fill="#63b8ff" stroke="#63b8ff" points="118.59,-22.44 128.97,-20.28 119.51,-15.5 118.59,-22.44"/>
</a>
</g>
</g>
</g>
</svg>
