<?xml version="1.0" encoding="UTF-8" standalone="no"?>
<!DOCTYPE svg PUBLIC "-//W3C//DTD SVG 1.1//EN"
 "http://www.w3.org/Graphics/SVG/1.1/DTD/svg11.dtd">
<!-- Generated by graphviz version 2.43.0 (0)
 -->
<!-- Title: selection_template::clone Pages: 1 -->
<svg width="550pt" height="487pt"
 viewBox="0.00 0.00 550.00 487.00" xmlns="http://www.w3.org/2000/svg" xmlns:xlink="http://www.w3.org/1999/xlink">
<g id="graph0" class="graph" transform="scale(1 1) rotate(0) translate(4 483)">
<title>selection_template::clone</title>
<!-- Node1 -->
<g id="Node000001" class="node">
<title>Node1</title>
<g id="a_Node000001"><a xlink:title="Creates a clone of this selection.">
<polygon fill="#999999" stroke="#666666" points="110,-249 0,-249 0,-219 110,-219 110,-249"/>
<text text-anchor="start" x="8" y="-237" font-family="Helvetica,sans-Serif" font-size="10.00">selection_template</text>
<text text-anchor="middle" x="55" y="-226" font-family="Helvetica,sans-Serif" font-size="10.00">::clone</text>
</a>
</g>
</g>
<!-- Node2 -->
<g id="Node000002" class="node">
<title>Node2</title>
<g id="a_Node000002"><a xlink:href="classselection__template.html#a4562a7ab32d93b5f2ca8a232a244041c" target="_top" xlink:title="Default constructor.">
<polygon fill="white" stroke="#666666" points="262,-249 146,-249 146,-219 262,-219 262,-249"/>
<text text-anchor="start" x="154" y="-237" font-family="Helvetica,sans-Serif" font-size="10.00">selection_template</text>
<text text-anchor="middle" x="204" y="-226" font-family="Helvetica,sans-Serif" font-size="10.00">::selection_template</text>
</a>
</g>
</g>
<!-- Node1&#45;&gt;Node2 -->
<g id="edge1_Node000001_Node000002" class="edge">
<title>Node1&#45;&gt;Node2</title>
<g id="a_edge1_Node000001_Node000002"><a xlink:title=" ">
<path fill="none" stroke="#63b8ff" d="M110.32,-234C118.58,-234 127.18,-234 135.67,-234"/>
<polygon fill="#63b8ff" stroke="#63b8ff" points="135.95,-237.5 145.95,-234 135.95,-230.5 135.95,-237.5"/>
</a>
</g>
</g>
<!-- Node3 -->
<g id="Node000003" class="node">
<title>Node3</title>
<g id="a_Node000003"><a xlink:href="classselection__template.html#a2f6cd45079e1fab94a163a38fbe005cd" target="_top" xlink:title="Getter for hash.">
<polygon fill="white" stroke="#666666" points="412.5,-479 302.5,-479 302.5,-449 412.5,-449 412.5,-479"/>
<text text-anchor="start" x="310.5" y="-467" font-family="Helvetica,sans-Serif" font-size="10.00">selection_template</text>
<text text-anchor="middle" x="357.5" y="-456" font-family="Helvetica,sans-Serif" font-size="10.00">::get_hash</text>
</a>
</g>
</g>
<!-- Node2&#45;&gt;Node3 -->
<g id="edge2_Node000002_Node000003" class="edge">
<title>Node2&#45;&gt;Node3</title>
<g id="a_edge2_Node000002_Node000003"><a xlink:title=" ">
<path fill="none" stroke="#63b8ff" d="M207.83,-249.16C215.55,-286.6 240.42,-384.39 298,-440 299.11,-441.07 300.28,-442.1 301.49,-443.08"/>
<polygon fill="#63b8ff" stroke="#63b8ff" points="299.81,-446.18 310.03,-448.96 303.77,-440.41 299.81,-446.18"/>
</a>
</g>
</g>
<!-- Node4 -->
<g id="Node000004" class="node">
<title>Node4</title>
<g id="a_Node000004"><a xlink:href="classselection__template.html#ad0d6fa60bf0da8796a718532c0288d04" target="_top" xlink:title="Getter for name.">
<polygon fill="white" stroke="#666666" points="412.5,-431 302.5,-431 302.5,-401 412.5,-401 412.5,-431"/>
<text text-anchor="start" x="310.5" y="-419" font-family="Helvetica,sans-Serif" font-size="10.00">selection_template</text>
<text text-anchor="middle" x="357.5" y="-408" font-family="Helvetica,sans-Serif" font-size="10.00">::get_name</text>
</a>
</g>
</g>
<!-- Node2&#45;&gt;Node4 -->
<g id="edge3_Node000002_Node000004" class="edge">
<title>Node2&#45;&gt;Node4</title>
<g id="a_edge3_Node000002_Node000004"><a xlink:title=" ">
<path fill="none" stroke="#63b8ff" d="M210.16,-249.24C221.39,-280.23 250.85,-351.14 298,-392 299.34,-393.16 300.74,-394.27 302.2,-395.33"/>
<polygon fill="#63b8ff" stroke="#63b8ff" points="300.66,-398.5 310.99,-400.89 304.4,-392.59 300.66,-398.5"/>
</a>
</g>
</g>
<!-- Node5 -->
<g id="Node000005" class="node">
<title>Node5</title>
<g id="a_Node000005"><a xlink:href="classselection__template.html#a4e61c1d63afdff7a6428fbf4c6297166" target="_top" xlink:title="Getter for tree.">
<polygon fill="white" stroke="#666666" points="412.5,-383 302.5,-383 302.5,-353 412.5,-353 412.5,-383"/>
<text text-anchor="start" x="310.5" y="-371" font-family="Helvetica,sans-Serif" font-size="10.00">selection_template</text>
<text text-anchor="middle" x="357.5" y="-360" font-family="Helvetica,sans-Serif" font-size="10.00">::get_tree</text>
</a>
</g>
</g>
<!-- Node2&#45;&gt;Node5 -->
<g id="edge4_Node000002_Node000005" class="edge">
<title>Node2&#45;&gt;Node5</title>
<g id="a_edge4_Node000002_Node000005"><a xlink:title=" ">
<path fill="none" stroke="#63b8ff" d="M214.35,-249.16C229.37,-272.43 261,-317.07 298,-344 299.88,-345.36 301.84,-346.67 303.86,-347.91"/>
<polygon fill="#63b8ff" stroke="#63b8ff" points="302.6,-351.21 313.05,-352.97 305.98,-345.08 302.6,-351.21"/>
</a>
</g>
</g>
<!-- Node6 -->
<g id="Node000006" class="node">
<title>Node6</title>
<g id="a_Node000006"><a xlink:href="classselection__template.html#ae04fb8767d15273f80c5343e2f73384b" target="_top" xlink:title="Getter for weight.">
<polygon fill="white" stroke="#666666" points="412.5,-335 302.5,-335 302.5,-305 412.5,-305 412.5,-335"/>
<text text-anchor="start" x="310.5" y="-323" font-family="Helvetica,sans-Serif" font-size="10.00">selection_template</text>
<text text-anchor="middle" x="357.5" y="-312" font-family="Helvetica,sans-Serif" font-size="10.00">::get_weight</text>
</a>
</g>
</g>
<!-- Node2&#45;&gt;Node6 -->
<g id="edge5_Node000002_Node000006" class="edge">
<title>Node2&#45;&gt;Node6</title>
<g id="a_edge5_Node000002_Node000006"><a xlink:title=" ">
<path fill="none" stroke="#63b8ff" d="M224.96,-249C243.32,-262.38 271.61,-281.97 298,-296 301.05,-297.62 304.23,-299.21 307.47,-300.74"/>
<polygon fill="#63b8ff" stroke="#63b8ff" points="306.12,-303.97 316.67,-304.91 309.01,-297.59 306.12,-303.97"/>
</a>
</g>
</g>
<!-- Node7 -->
<g id="Node000007" class="node">
<title>Node7</title>
<g id="a_Node000007"><a xlink:href="classcproperty.html#a31b26b5ffb20bbf8d8ee38e0755a9819" target="_top" xlink:title="Sets the getter callback function.">
<polygon fill="white" stroke="#666666" points="416.5,-286.5 298.5,-286.5 298.5,-267.5 416.5,-267.5 416.5,-286.5"/>
<text text-anchor="middle" x="357.5" y="-274.5" font-family="Helvetica,sans-Serif" font-size="10.00">cproperty::set_getter</text>
</a>
</g>
</g>
<!-- Node2&#45;&gt;Node7 -->
<g id="edge6_Node000002_Node000007" class="edge">
<title>Node2&#45;&gt;Node7</title>
<g id="a_edge6_Node000002_Node000007"><a xlink:title=" ">
<path fill="none" stroke="#63b8ff" d="M257.99,-249.04C275.96,-254.14 295.82,-259.78 312.97,-264.65"/>
<polygon fill="#63b8ff" stroke="#63b8ff" points="312.15,-268.05 322.72,-267.41 314.06,-261.32 312.15,-268.05"/>
</a>
</g>
</g>
<!-- Node8 -->
<g id="Node000008" class="node">
<title>Node8</title>
<g id="a_Node000008"><a xlink:href="classselection__template.html#acd31f17488bcf97dd8a5f1b3a7da1cdd" target="_top" xlink:title="Setter for hash.">
<polygon fill="white" stroke="#666666" points="412.5,-249 302.5,-249 302.5,-219 412.5,-219 412.5,-249"/>
<text text-anchor="start" x="310.5" y="-237" font-family="Helvetica,sans-Serif" font-size="10.00">selection_template</text>
<text text-anchor="middle" x="357.5" y="-226" font-family="Helvetica,sans-Serif" font-size="10.00">::set_hash</text>
</a>
</g>
</g>
<!-- Node2&#45;&gt;Node8 -->
<g id="edge7_Node000002_Node000008" class="edge">
<title>Node2&#45;&gt;Node8</title>
<g id="a_edge7_Node000002_Node000008"><a xlink:title=" ">
<path fill="none" stroke="#63b8ff" d="M262.28,-234C271.98,-234 282.11,-234 291.98,-234"/>
<polygon fill="#63b8ff" stroke="#63b8ff" points="292.15,-237.5 302.15,-234 292.15,-230.5 292.15,-237.5"/>
</a>
</g>
</g>
<!-- Node10 -->
<g id="Node000010" class="node">
<title>Node10</title>
<g id="a_Node000010"><a xlink:href="classselection__template.html#a8951c34758d3410f9d931b6011c3cca2" target="_top" xlink:title="Setter for index.">
<polygon fill="white" stroke="#666666" points="412.5,-201 302.5,-201 302.5,-171 412.5,-171 412.5,-201"/>
<text text-anchor="start" x="310.5" y="-189" font-family="Helvetica,sans-Serif" font-size="10.00">selection_template</text>
<text text-anchor="middle" x="357.5" y="-178" font-family="Helvetica,sans-Serif" font-size="10.00">::set_index</text>
</a>
</g>
</g>
<!-- Node2&#45;&gt;Node10 -->
<g id="edge9_Node000002_Node000010" class="edge">
<title>Node2&#45;&gt;Node10</title>
<g id="a_edge9_Node000002_Node000010"><a xlink:title=" ">
<path fill="none" stroke="#63b8ff" d="M252.52,-218.94C267.33,-214.25 283.81,-209.03 299.21,-204.15"/>
<polygon fill="#63b8ff" stroke="#63b8ff" points="300.67,-207.36 309.15,-201 298.56,-200.69 300.67,-207.36"/>
</a>
</g>
</g>
<!-- Node11 -->
<g id="Node000011" class="node">
<title>Node11</title>
<g id="a_Node000011"><a xlink:href="classselection__template.html#a19244d585754db14326c126a98000899" target="_top" xlink:title="Setter for name.">
<polygon fill="white" stroke="#666666" points="412.5,-153 302.5,-153 302.5,-123 412.5,-123 412.5,-153"/>
<text text-anchor="start" x="310.5" y="-141" font-family="Helvetica,sans-Serif" font-size="10.00">selection_template</text>
<text text-anchor="middle" x="357.5" y="-130" font-family="Helvetica,sans-Serif" font-size="10.00">::set_name</text>
</a>
</g>
</g>
<!-- Node2&#45;&gt;Node11 -->
<g id="edge10_Node000002_Node000011" class="edge">
<title>Node2&#45;&gt;Node11</title>
<g id="a_edge10_Node000002_Node000011"><a xlink:title=" ">
<path fill="none" stroke="#63b8ff" d="M221.49,-218.99C239.36,-203.29 269.18,-178.65 298,-162 300.8,-160.38 303.74,-158.81 306.74,-157.31"/>
<polygon fill="#63b8ff" stroke="#63b8ff" points="308.3,-160.44 315.85,-153.01 305.31,-154.11 308.3,-160.44"/>
</a>
</g>
</g>
<!-- Node12 -->
<g id="Node000012" class="node">
<title>Node12</title>
<g id="a_Node000012"><a xlink:href="classcproperty.html#a41a70e8e01c9b1a20b94d2dbf1a6b214" target="_top" xlink:title="Sets the owning object for callback invocation.">
<polygon fill="white" stroke="#666666" points="417,-104.5 298,-104.5 298,-85.5 417,-85.5 417,-104.5"/>
<text text-anchor="middle" x="357.5" y="-92.5" font-family="Helvetica,sans-Serif" font-size="10.00">cproperty::set_object</text>
</a>
</g>
</g>
<!-- Node2&#45;&gt;Node12 -->
<g id="edge11_Node000002_Node000012" class="edge">
<title>Node2&#45;&gt;Node12</title>
<g id="a_edge11_Node000002_Node000012"><a xlink:title=" ">
<path fill="none" stroke="#63b8ff" d="M212.84,-218.72C226.64,-193.31 257.68,-142.35 298,-114 300.84,-112 303.9,-110.21 307.08,-108.6"/>
<polygon fill="#63b8ff" stroke="#63b8ff" points="308.55,-111.77 316.27,-104.52 305.71,-105.38 308.55,-111.77"/>
</a>
</g>
</g>
<!-- Node13 -->
<g id="Node000013" class="node">
<title>Node13</title>
<g id="a_Node000013"><a xlink:href="classcproperty.html#af4583ba4cf4ebc53f870a2de8f110da7" target="_top" xlink:title="Sets the setter callback function.">
<polygon fill="white" stroke="#666666" points="416,-67.5 299,-67.5 299,-48.5 416,-48.5 416,-67.5"/>
<text text-anchor="middle" x="357.5" y="-55.5" font-family="Helvetica,sans-Serif" font-size="10.00">cproperty::set_setter</text>
</a>
</g>
</g>
<!-- Node2&#45;&gt;Node13 -->
<g id="edge12_Node000002_Node000013" class="edge">
<title>Node2&#45;&gt;Node13</title>
<g id="a_edge12_Node000002_Node000013"><a xlink:title=" ">
<path fill="none" stroke="#63b8ff" d="M209.94,-218.56C220.76,-187.22 249.52,-115.8 298,-77 300.27,-75.19 302.71,-73.54 305.27,-72.05"/>
<polygon fill="#63b8ff" stroke="#63b8ff" points="306.92,-75.14 314.33,-67.57 303.81,-68.87 306.92,-75.14"/>
</a>
</g>
</g>
<!-- Node14 -->
<g id="Node000014" class="node">
<title>Node14</title>
<g id="a_Node000014"><a xlink:href="classselection__template.html#aa95e812106c1a933f1b65e82557939d3" target="_top" xlink:title="Setter for weight.">
<polygon fill="white" stroke="#666666" points="412.5,-30 302.5,-30 302.5,0 412.5,0 412.5,-30"/>
<text text-anchor="start" x="310.5" y="-18" font-family="Helvetica,sans-Serif" font-size="10.00">selection_template</text>
<text text-anchor="middle" x="357.5" y="-7" font-family="Helvetica,sans-Serif" font-size="10.00">::set_weight</text>
</a>
</g>
</g>
<!-- Node2&#45;&gt;Node14 -->
<g id="edge13_Node000002_Node000014" class="edge">
<title>Node2&#45;&gt;Node14</title>
<g id="a_edge13_Node000002_Node000014"><a xlink:title=" ">
<path fill="none" stroke="#63b8ff" d="M208.33,-218.98C216.98,-183.25 243.38,-92.32 298,-40 299.62,-38.45 301.35,-36.99 303.17,-35.61"/>
<polygon fill="#63b8ff" stroke="#63b8ff" points="305.13,-38.5 311.57,-30.09 301.29,-32.65 305.13,-38.5"/>
</a>
</g>
</g>
<!-- Node9 -->
<g id="Node000009" class="node">
<title>Node9</title>
<g id="a_Node000009"><a xlink:href="classtools.html#afd037c109d75a9f119ec042e1ba922d9" target="_top" xlink:title="Converts a double value to a string with standard precision.">
<polygon fill="white" stroke="#666666" points="542,-243.5 453,-243.5 453,-224.5 542,-224.5 542,-243.5"/>
<text text-anchor="middle" x="497.5" y="-231.5" font-family="Helvetica,sans-Serif" font-size="10.00">tools::to_string</text>
</a>
</g>
</g>
<!-- Node8&#45;&gt;Node9 -->
<g id="edge8_Node000008_Node000009" class="edge">
<title>Node8&#45;&gt;Node9</title>
<g id="a_edge8_Node000008_Node000009"><a xlink:title=" ">
<path fill="none" stroke="#63b8ff" d="M412.65,-234C422.51,-234 432.8,-234 442.65,-234"/>
<polygon fill="#63b8ff" stroke="#63b8ff" points="442.73,-237.5 452.73,-234 442.73,-230.5 442.73,-237.5"/>
</a>
</g>
</g>
</g>
</svg>
