<?xml version="1.0" encoding="UTF-8" standalone="no"?>
<!DOCTYPE svg PUBLIC "-//W3C//DTD SVG 1.1//EN"
 "http://www.w3.org/Graphics/SVG/1.1/DTD/svg11.dtd">
<!-- Generated by graphviz version 2.43.0 (0)
 -->
<!-- Title: graph_truthjets_nonu::CompileEvent Pages: 1 -->
<svg width="669pt" height="745pt"
 viewBox="0.00 0.00 669.00 744.50" xmlns="http://www.w3.org/2000/svg" xmlns:xlink="http://www.w3.org/1999/xlink">
<g id="graph0" class="graph" transform="scale(1 1) rotate(0) translate(4 740.5)">
<title>graph_truthjets_nonu::CompileEvent</title>
<!-- Node1 -->
<g id="Node000001" class="node">
<title>Node1</title>
<g id="a_Node000001"><a xlink:title="Compiles the event into a graph.">
<polygon fill="#999999" stroke="#666666" points="120,-357.5 0,-357.5 0,-327.5 120,-327.5 120,-357.5"/>
<text text-anchor="start" x="8" y="-345.5" font-family="Helvetica,sans-Serif" font-size="10.00">graph_truthjets_nonu</text>
<text text-anchor="middle" x="60" y="-334.5" font-family="Helvetica,sans-Serif" font-size="10.00">::CompileEvent</text>
</a>
</g>
</g>
<!-- Node2 -->
<g id="Node000002" class="node">
<title>Node2</title>
<g id="a_Node000002"><a xlink:href="classgraph__template.html#a18725eb3da8ab2866b415fed685465d1" target="_top" xlink:title="Defines which particles become graph nodes.">
<polygon fill="white" stroke="#666666" points="287.5,-736.5 157.5,-736.5 157.5,-706.5 287.5,-706.5 287.5,-736.5"/>
<text text-anchor="start" x="165.5" y="-724.5" font-family="Helvetica,sans-Serif" font-size="10.00">graph_template::define</text>
<text text-anchor="middle" x="222.5" y="-713.5" font-family="Helvetica,sans-Serif" font-size="10.00">_particle_nodes</text>
</a>
</g>
</g>
<!-- Node1&#45;&gt;Node2 -->
<g id="edge1_Node000001_Node000002" class="edge">
<title>Node1&#45;&gt;Node2</title>
<g id="a_edge1_Node000001_Node000002"><a xlink:title=" ">
<path fill="none" stroke="#63b8ff" d="M60.44,-357.59C59.28,-411.29 62.59,-595.31 156,-697.5 156.78,-698.35 157.59,-699.17 158.42,-699.96"/>
<polygon fill="#63b8ff" stroke="#63b8ff" points="156.6,-702.98 166.66,-706.32 160.88,-697.44 156.6,-702.98"/>
</a>
</g>
</g>
<!-- Node3 -->
<g id="Node000003" class="node">
<title>Node3</title>
<g id="a_Node000003"><a xlink:href="classgraph__template.html#af5d505282f6126e2fe5d2eab98507d40" target="_top" xlink:title="Defines the edge topology between nodes.">
<polygon fill="white" stroke="#666666" points="287.5,-688.5 157.5,-688.5 157.5,-658.5 287.5,-658.5 287.5,-688.5"/>
<text text-anchor="start" x="165.5" y="-676.5" font-family="Helvetica,sans-Serif" font-size="10.00">graph_template::define</text>
<text text-anchor="middle" x="222.5" y="-665.5" font-family="Helvetica,sans-Serif" font-size="10.00">_topology</text>
</a>
</g>
</g>
<!-- Node1&#45;&gt;Node3 -->
<g id="edge2_Node000001_Node000003" class="edge">
<title>Node1&#45;&gt;Node3</title>
<g id="a_edge2_Node000001_Node000003"><a xlink:title=" ">
<path fill="none" stroke="#63b8ff" d="M61.19,-357.59C62.63,-406.57 73.76,-562.94 156,-649.5 156.92,-650.46 157.87,-651.39 158.87,-652.28"/>
<polygon fill="#63b8ff" stroke="#63b8ff" points="156.99,-655.24 167.11,-658.38 161.16,-649.62 156.99,-655.24"/>
</a>
</g>
</g>
<!-- Node9 -->
<g id="Node000009" class="node">
<title>Node9</title>
<g id="a_Node000009"><a xlink:href="classgraph__template.html#aa2bef51e5e00b49425c8ac93bcd1f315" target="_top" xlink:title="Reconstructs double neutrino momenta for di&#45;leptonic events.">
<polygon fill="white" stroke="#666666" points="289,-640.5 156,-640.5 156,-610.5 289,-610.5 289,-640.5"/>
<text text-anchor="start" x="164" y="-628.5" font-family="Helvetica,sans-Serif" font-size="10.00">graph_template::double</text>
<text text-anchor="middle" x="222.5" y="-617.5" font-family="Helvetica,sans-Serif" font-size="10.00">_neutrino</text>
</a>
</g>
</g>
<!-- Node1&#45;&gt;Node9 -->
<g id="edge8_Node000001_Node000009" class="edge">
<title>Node1&#45;&gt;Node9</title>
<g id="a_edge8_Node000001_Node000009"><a xlink:title=" ">
<path fill="none" stroke="#63b8ff" d="M62.21,-357.69C66.51,-401.66 84.87,-530.39 156,-601.5 157.07,-602.57 158.19,-603.59 159.36,-604.57"/>
<polygon fill="#63b8ff" stroke="#63b8ff" points="157.42,-607.49 167.61,-610.39 161.46,-601.77 157.42,-607.49"/>
</a>
</g>
</g>
<!-- Node11 -->
<g id="Node000011" class="node">
<title>Node11</title>
<g id="a_Node000011"><a xlink:href="bsm__4tops_2include_2bsm__4tops_2graph__features_8h.html#a06342b1cfa1e60c002d2f1875c674ee8" target="_top" xlink:title=" ">
<polygon fill="white" stroke="#666666" points="266,-574 179,-574 179,-555 266,-555 266,-574"/>
<text text-anchor="middle" x="222.5" y="-562" font-family="Helvetica,sans-Serif" font-size="10.00">event_number</text>
</a>
</g>
</g>
<!-- Node1&#45;&gt;Node11 -->
<g id="edge10_Node000001_Node000011" class="edge">
<title>Node1&#45;&gt;Node11</title>
<g id="a_edge10_Node000001_Node000011"><a xlink:title=" ">
<path fill="none" stroke="#63b8ff" d="M63.58,-357.69C70.82,-395.57 94.97,-494.93 156,-546.5 159.95,-549.84 164.47,-552.56 169.25,-554.78"/>
<polygon fill="#63b8ff" stroke="#63b8ff" points="168.09,-558.09 178.68,-558.46 170.64,-551.57 168.09,-558.09"/>
</a>
</g>
</g>
<!-- Node12 -->
<g id="Node000012" class="node">
<title>Node12</title>
<g id="a_Node000012"><a xlink:href="bsm__4tops_2include_2bsm__4tops_2graph__features_8h.html#ac4429f2ee44f3a8d00eb820c7c69481d" target="_top" xlink:title=" ">
<polygon fill="white" stroke="#666666" points="264,-537 181,-537 181,-518 264,-518 264,-537"/>
<text text-anchor="middle" x="222.5" y="-525" font-family="Helvetica,sans-Serif" font-size="10.00">event_weight</text>
</a>
</g>
</g>
<!-- Node1&#45;&gt;Node12 -->
<g id="edge12_Node000001_Node000012" class="edge">
<title>Node1&#45;&gt;Node12</title>
<g id="a_edge12_Node000001_Node000012"><a xlink:title=" ">
<path fill="none" stroke="#63b8ff" d="M65.24,-357.59C75.26,-390.44 103.6,-468.76 156,-509.5 160.48,-512.98 165.59,-515.79 170.94,-518.06"/>
<polygon fill="#63b8ff" stroke="#63b8ff" points="170.13,-521.49 180.73,-521.58 172.5,-514.9 170.13,-521.49"/>
</a>
</g>
</g>
<!-- Node13 -->
<g id="Node000013" class="node">
<title>Node13</title>
<g id="a_Node000013"><a xlink:href="graph__template_8h.html#a69f5094a8d3c7a77c2eafc6257ede417" target="_top" xlink:title="Default topology function that connects all node pairs.">
<polygon fill="white" stroke="#666666" points="249.5,-500 195.5,-500 195.5,-481 249.5,-481 249.5,-500"/>
<text text-anchor="middle" x="222.5" y="-488" font-family="Helvetica,sans-Serif" font-size="10.00">fulltopo</text>
</a>
</g>
</g>
<!-- Node1&#45;&gt;Node13 -->
<g id="edge13_Node000001_Node000013" class="edge">
<title>Node1&#45;&gt;Node13</title>
<g id="a_edge13_Node000001_Node000013"><a xlink:title=" ">
<path fill="none" stroke="#63b8ff" d="M67.76,-357.52C80.8,-384.74 112.05,-442.18 156,-472.5 164.66,-478.48 175.25,-482.47 185.36,-485.15"/>
<polygon fill="#63b8ff" stroke="#63b8ff" points="184.7,-488.59 195.23,-487.4 186.26,-481.76 184.7,-488.59"/>
</a>
</g>
</g>
<!-- Node14 -->
<g id="Node000014" class="node">
<title>Node14</title>
<g id="a_Node000014"><a xlink:href="bsm__4tops_2include_2bsm__4tops_2node__features_8h.html#a3f3117b469cddb9e7a32cef78c5c085f" target="_top" xlink:title=" ">
<polygon fill="white" stroke="#666666" points="254.5,-463 190.5,-463 190.5,-444 254.5,-444 254.5,-463"/>
<text text-anchor="middle" x="222.5" y="-451" font-family="Helvetica,sans-Serif" font-size="10.00">is_bquark</text>
</a>
</g>
</g>
<!-- Node1&#45;&gt;Node14 -->
<g id="edge14_Node000001_Node000014" class="edge">
<title>Node1&#45;&gt;Node14</title>
<g id="a_edge14_Node000001_Node000014"><a xlink:title=" ">
<path fill="none" stroke="#63b8ff" d="M72.44,-357.79C88.72,-378.48 120.58,-415.15 156,-435.5 163.5,-439.81 172.07,-443.12 180.49,-445.66"/>
<polygon fill="#63b8ff" stroke="#63b8ff" points="179.66,-449.07 190.23,-448.3 181.49,-442.31 179.66,-449.07"/>
</a>
</g>
</g>
<!-- Node15 -->
<g id="Node000015" class="node">
<title>Node15</title>
<g id="a_Node000015"><a xlink:href="bsm__4tops_2include_2bsm__4tops_2node__features_8h.html#a05898150cc9167a4de297df624e6c15a" target="_top" xlink:title=" ">
<polygon fill="white" stroke="#666666" points="253,-426 192,-426 192,-407 253,-407 253,-426"/>
<text text-anchor="middle" x="222.5" y="-414" font-family="Helvetica,sans-Serif" font-size="10.00">is_lepton</text>
</a>
</g>
</g>
<!-- Node1&#45;&gt;Node15 -->
<g id="edge15_Node000001_Node000015" class="edge">
<title>Node1&#45;&gt;Node15</title>
<g id="a_edge15_Node000001_Node000015"><a xlink:title=" ">
<path fill="none" stroke="#63b8ff" d="M82.77,-357.59C101.48,-370 129.55,-387.31 156,-398.5 164.29,-402.01 173.45,-405.02 182.23,-407.53"/>
<polygon fill="#63b8ff" stroke="#63b8ff" points="181.35,-410.92 191.92,-410.14 183.18,-404.16 181.35,-410.92"/>
</a>
</g>
</g>
<!-- Node16 -->
<g id="Node000016" class="node">
<title>Node16</title>
<g id="a_Node000016"><a xlink:href="bsm__4tops_2include_2bsm__4tops_2graph__features_8h.html#aa3877d6a2e8b77e08262de8b557b9845" target="_top" xlink:title=" ">
<polygon fill="white" stroke="#666666" points="257.5,-389 187.5,-389 187.5,-370 257.5,-370 257.5,-389"/>
<text text-anchor="middle" x="222.5" y="-377" font-family="Helvetica,sans-Serif" font-size="10.00">missing_et</text>
</a>
</g>
</g>
<!-- Node1&#45;&gt;Node16 -->
<g id="edge16_Node000001_Node000016" class="edge">
<title>Node1&#45;&gt;Node16</title>
<g id="a_edge16_Node000001_Node000016"><a xlink:title=" ">
<path fill="none" stroke="#63b8ff" d="M120.31,-356.17C139.12,-360.51 159.58,-365.23 177.15,-369.28"/>
<polygon fill="#63b8ff" stroke="#63b8ff" points="176.6,-372.74 187.13,-371.58 178.17,-365.92 176.6,-372.74"/>
</a>
</g>
</g>
<!-- Node17 -->
<g id="Node000017" class="node">
<title>Node17</title>
<g id="a_Node000017"><a xlink:href="bsm__4tops_2include_2bsm__4tops_2graph__features_8h.html#af2c4c0d6c526b044cacd4b7a03274557" target="_top" xlink:title=" ">
<polygon fill="white" stroke="#666666" points="260,-352 185,-352 185,-333 260,-333 260,-352"/>
<text text-anchor="middle" x="222.5" y="-340" font-family="Helvetica,sans-Serif" font-size="10.00">missing_phi</text>
</a>
</g>
</g>
<!-- Node1&#45;&gt;Node17 -->
<g id="edge17_Node000001_Node000017" class="edge">
<title>Node1&#45;&gt;Node17</title>
<g id="a_edge17_Node000001_Node000017"><a xlink:title=" ">
<path fill="none" stroke="#63b8ff" d="M120.31,-342.5C138.2,-342.5 157.59,-342.5 174.57,-342.5"/>
<polygon fill="#63b8ff" stroke="#63b8ff" points="174.79,-346 184.79,-342.5 174.79,-339 174.79,-346"/>
</a>
</g>
</g>
<!-- Node18 -->
<g id="Node000018" class="node">
<title>Node18</title>
<g id="a_Node000018"><a xlink:href="bsm__4tops_2include_2bsm__4tops_2graph__features_8h.html#a1252cadaaea1ae85af27e0711b7cdf3c" target="_top" xlink:title=" ">
<polygon fill="white" stroke="#666666" points="276.5,-315 168.5,-315 168.5,-296 276.5,-296 276.5,-315"/>
<text text-anchor="middle" x="222.5" y="-303" font-family="Helvetica,sans-Serif" font-size="10.00">num_children_leps</text>
</a>
</g>
</g>
<!-- Node1&#45;&gt;Node18 -->
<g id="edge18_Node000001_Node000018" class="edge">
<title>Node1&#45;&gt;Node18</title>
<g id="a_edge18_Node000001_Node000018"><a xlink:title=" ">
<path fill="none" stroke="#63b8ff" d="M120.31,-328.83C136.57,-325.08 154.07,-321.05 169.86,-317.4"/>
<polygon fill="#63b8ff" stroke="#63b8ff" points="171.01,-320.73 179.96,-315.08 169.43,-313.91 171.01,-320.73"/>
</a>
</g>
</g>
<!-- Node19 -->
<g id="Node000019" class="node">
<title>Node19</title>
<g id="a_Node000019"><a xlink:href="bsm__4tops_2include_2bsm__4tops_2graph__features_8h.html#aad7321ef73eeb35377f5651c773d53c3" target="_top" xlink:title=" ">
<polygon fill="white" stroke="#666666" points="259.5,-278 185.5,-278 185.5,-259 259.5,-259 259.5,-278"/>
<text text-anchor="middle" x="222.5" y="-266" font-family="Helvetica,sans-Serif" font-size="10.00">num_lepton</text>
</a>
</g>
</g>
<!-- Node1&#45;&gt;Node19 -->
<g id="edge19_Node000001_Node000019" class="edge">
<title>Node1&#45;&gt;Node19</title>
<g id="a_edge19_Node000001_Node000019"><a xlink:title=" ">
<path fill="none" stroke="#63b8ff" d="M83.61,-327.31C102.36,-315.23 130.06,-298.58 156,-287.5 162.22,-284.84 168.92,-282.43 175.59,-280.28"/>
<polygon fill="#63b8ff" stroke="#63b8ff" points="176.72,-283.59 185.26,-277.32 174.67,-276.9 176.72,-283.59"/>
</a>
</g>
</g>
<!-- Node20 -->
<g id="Node000020" class="node">
<title>Node20</title>
<g id="a_Node000020"><a xlink:href="bsm__4tops_2include_2bsm__4tops_2graph__features_8h.html#ab67addeed0cfbc8b4e8ce19cd2e98cb4" target="_top" xlink:title=" ">
<polygon fill="white" stroke="#666666" points="255,-241 190,-241 190,-222 255,-222 255,-241"/>
<text text-anchor="middle" x="222.5" y="-229" font-family="Helvetica,sans-Serif" font-size="10.00">num_tops</text>
</a>
</g>
</g>
<!-- Node1&#45;&gt;Node20 -->
<g id="edge20_Node000001_Node000020" class="edge">
<title>Node1&#45;&gt;Node20</title>
<g id="a_edge20_Node000001_Node000020"><a xlink:title=" ">
<path fill="none" stroke="#63b8ff" d="M72.52,-327.45C88.89,-307.07 120.85,-270.9 156,-250.5 163.43,-246.19 171.92,-242.79 180.26,-240.14"/>
<polygon fill="#63b8ff" stroke="#63b8ff" points="181.28,-243.49 189.92,-237.36 179.34,-236.76 181.28,-243.49"/>
</a>
</g>
</g>
<!-- Node21 -->
<g id="Node000021" class="node">
<title>Node21</title>
<g id="a_Node000021"><a xlink:href="bsm__4tops_2include_2bsm__4tops_2graph__features_8h.html#af0949e7dccecf95a3c30978f6a4a37c3" target="_top" xlink:title=" ">
<polygon fill="white" stroke="#666666" points="265,-204 180,-204 180,-185 265,-185 265,-204"/>
<text text-anchor="middle" x="222.5" y="-192" font-family="Helvetica,sans-Serif" font-size="10.00">num_truthjets</text>
</a>
</g>
</g>
<!-- Node1&#45;&gt;Node21 -->
<g id="edge21_Node000001_Node000021" class="edge">
<title>Node1&#45;&gt;Node21</title>
<g id="a_edge21_Node000001_Node000021"><a xlink:title=" ">
<path fill="none" stroke="#63b8ff" d="M68.05,-327.23C81.32,-300.15 112.66,-243.74 156,-213.5 160.32,-210.49 165.12,-207.95 170.09,-205.81"/>
<polygon fill="#63b8ff" stroke="#63b8ff" points="171.67,-208.95 179.81,-202.16 169.22,-202.4 171.67,-208.95"/>
</a>
</g>
</g>
<!-- Node22 -->
<g id="Node000022" class="node">
<title>Node22</title>
<g id="a_Node000022"><a xlink:href="bsm__4tops_2include_2bsm__4tops_2edge__features_8h.html#a196518fb89ffbc60b3ca928dc80ac57d" target="_top" xlink:title=" ">
<polygon fill="white" stroke="#666666" points="253,-167 192,-167 192,-148 253,-148 253,-167"/>
<text text-anchor="middle" x="222.5" y="-155" font-family="Helvetica,sans-Serif" font-size="10.00">res_edge</text>
</a>
</g>
</g>
<!-- Node1&#45;&gt;Node22 -->
<g id="edge22_Node000001_Node000022" class="edge">
<title>Node1&#45;&gt;Node22</title>
<g id="a_edge22_Node000001_Node000022"><a xlink:title=" ">
<path fill="none" stroke="#63b8ff" d="M65.46,-327.06C75.76,-294.22 104.33,-217.16 156,-176.5 163.52,-170.59 172.81,-166.51 182.01,-163.71"/>
<polygon fill="#63b8ff" stroke="#63b8ff" points="183.08,-167.04 191.87,-161.13 181.32,-160.27 183.08,-167.04"/>
</a>
</g>
</g>
<!-- Node24 -->
<g id="Node000024" class="node">
<title>Node24</title>
<g id="a_Node000024"><a xlink:href="bsm__4tops_2include_2bsm__4tops_2node__features_8h.html#ab1c59b5f0c6a25f3a21b6ff62c95596a" target="_top" xlink:title=" ">
<polygon fill="white" stroke="#666666" points="253,-130 192,-130 192,-111 253,-111 253,-130"/>
<text text-anchor="middle" x="222.5" y="-118" font-family="Helvetica,sans-Serif" font-size="10.00">res_node</text>
</a>
</g>
</g>
<!-- Node1&#45;&gt;Node24 -->
<g id="edge24_Node000001_Node000024" class="edge">
<title>Node1&#45;&gt;Node24</title>
<g id="a_edge24_Node000001_Node000024"><a xlink:title=" ">
<path fill="none" stroke="#63b8ff" d="M63.65,-327.44C71.05,-289.85 95.54,-191.23 156,-139.5 163.33,-133.23 172.64,-129.02 181.91,-126.2"/>
<polygon fill="#63b8ff" stroke="#63b8ff" points="183.05,-129.52 191.88,-123.66 181.32,-122.74 183.05,-129.52"/>
</a>
</g>
</g>
<!-- Node25 -->
<g id="Node000025" class="node">
<title>Node25</title>
<g id="a_Node000025"><a xlink:href="bsm__4tops_2include_2bsm__4tops_2graph__features_8h.html#a50dd3e9329b3d7325cde2d4b8059cb60" target="_top" xlink:title=" ">
<polygon fill="white" stroke="#666666" points="262,-93 183,-93 183,-74 262,-74 262,-93"/>
<text text-anchor="middle" x="222.5" y="-81" font-family="Helvetica,sans-Serif" font-size="10.00">signal_event</text>
</a>
</g>
</g>
<!-- Node1&#45;&gt;Node25 -->
<g id="edge25_Node000001_Node000025" class="edge">
<title>Node1&#45;&gt;Node25</title>
<g id="a_edge25_Node000001_Node000025"><a xlink:title=" ">
<path fill="none" stroke="#63b8ff" d="M62.46,-327.27C67.33,-285.03 86.88,-165.37 156,-102.5 161,-97.95 167.03,-94.48 173.38,-91.85"/>
<polygon fill="#63b8ff" stroke="#63b8ff" points="174.55,-95.15 182.83,-88.54 172.24,-88.54 174.55,-95.15"/>
</a>
</g>
</g>
<!-- Node26 -->
<g id="Node000026" class="node">
<title>Node26</title>
<g id="a_Node000026"><a xlink:href="bsm__4tops_2include_2bsm__4tops_2edge__features_8h.html#af35cf309c4131ca516f825cf67635ceb" target="_top" xlink:title=" ">
<polygon fill="white" stroke="#666666" points="253.5,-56 191.5,-56 191.5,-37 253.5,-37 253.5,-56"/>
<text text-anchor="middle" x="222.5" y="-44" font-family="Helvetica,sans-Serif" font-size="10.00">top_edge</text>
</a>
</g>
</g>
<!-- Node1&#45;&gt;Node26 -->
<g id="edge26_Node000001_Node000026" class="edge">
<title>Node1&#45;&gt;Node26</title>
<g id="a_edge26_Node000001_Node000026"><a xlink:title=" ">
<path fill="none" stroke="#63b8ff" d="M61.47,-327.25C63.78,-280.62 77.24,-138.59 156,-64.5 163,-57.91 172.19,-53.7 181.45,-51.01"/>
<polygon fill="#63b8ff" stroke="#63b8ff" points="182.51,-54.35 191.44,-48.65 180.9,-47.54 182.51,-54.35"/>
</a>
</g>
</g>
<!-- Node28 -->
<g id="Node000028" class="node">
<title>Node28</title>
<g id="a_Node000028"><a xlink:href="bsm__4tops_2include_2bsm__4tops_2node__features_8h.html#ab2215efaacd3bffb7241a74646421796" target="_top" xlink:title=" ">
<polygon fill="white" stroke="#666666" points="253.5,-19 191.5,-19 191.5,0 253.5,0 253.5,-19"/>
<text text-anchor="middle" x="222.5" y="-7" font-family="Helvetica,sans-Serif" font-size="10.00">top_node</text>
</a>
</g>
</g>
<!-- Node1&#45;&gt;Node28 -->
<g id="edge28_Node000001_Node000028" class="edge">
<title>Node1&#45;&gt;Node28</title>
<g id="a_edge28_Node000001_Node000028"><a xlink:title=" ">
<path fill="none" stroke="#63b8ff" d="M60.77,-327.45C60.84,-277.15 68.09,-113.26 156,-27.5 162.88,-20.79 172.02,-16.52 181.28,-13.83"/>
<polygon fill="#63b8ff" stroke="#63b8ff" points="182.35,-17.18 191.28,-11.48 180.75,-10.36 182.35,-17.18"/>
</a>
</g>
</g>
<!-- Node4 -->
<g id="Node000004" class="node">
<title>Node4</title>
<g id="a_Node000004"><a xlink:href="classgraph__template.html#a255ec8fcf27b7352445397e5245cc9ef" target="_top" xlink:title=" ">
<polygon fill="white" stroke="#666666" points="435,-688.5 325,-688.5 325,-658.5 435,-658.5 435,-688.5"/>
<text text-anchor="start" x="333" y="-676.5" font-family="Helvetica,sans-Serif" font-size="10.00">graph_template::to</text>
<text text-anchor="middle" x="380" y="-665.5" font-family="Helvetica,sans-Serif" font-size="10.00">_tensor</text>
</a>
</g>
</g>
<!-- Node3&#45;&gt;Node4 -->
<g id="edge3_Node000003_Node000004" class="edge">
<title>Node3&#45;&gt;Node4</title>
<g id="a_edge3_Node000003_Node000004"><a xlink:title=" ">
<path fill="none" stroke="#63b8ff" d="M287.65,-673.5C296.64,-673.5 305.89,-673.5 314.88,-673.5"/>
<polygon fill="#63b8ff" stroke="#63b8ff" points="314.91,-677 324.91,-673.5 314.91,-670 314.91,-677"/>
</a>
</g>
</g>
<!-- Node5 -->
<g id="Node000005" class="node">
<title>Node5</title>
<g id="a_Node000005"><a xlink:href="tensor__cast_8h.html#a27121e7e5aeb77bda0453dd6214cf7fb" target="_top" xlink:title=" ">
<polygon fill="white" stroke="#666666" points="548,-683 471,-683 471,-664 548,-664 548,-683"/>
<text text-anchor="middle" x="509.5" y="-671" font-family="Helvetica,sans-Serif" font-size="10.00">build_tensor</text>
</a>
</g>
</g>
<!-- Node4&#45;&gt;Node5 -->
<g id="edge4_Node000004_Node000005" class="edge">
<title>Node4&#45;&gt;Node5</title>
<g id="a_edge4_Node000004_Node000005"><a xlink:title=" ">
<path fill="none" stroke="#63b8ff" d="M435.07,-673.5C443.66,-673.5 452.49,-673.5 460.91,-673.5"/>
<polygon fill="#63b8ff" stroke="#63b8ff" points="460.95,-677 470.95,-673.5 460.95,-670 460.95,-677"/>
</a>
</g>
</g>
<!-- Node6 -->
<g id="Node000006" class="node">
<title>Node6</title>
<g id="a_Node000006"><a xlink:href="tensor__cast_8h.html#a49d70dbad1cfb3e27ebb8960cff818bb" target="_top" xlink:title=" ">
<polygon fill="white" stroke="#666666" points="661,-720 584,-720 584,-701 661,-701 661,-720"/>
<text text-anchor="middle" x="622.5" y="-708" font-family="Helvetica,sans-Serif" font-size="10.00">as_primitive</text>
</a>
</g>
</g>
<!-- Node5&#45;&gt;Node6 -->
<g id="edge5_Node000005_Node000006" class="edge">
<title>Node5&#45;&gt;Node6</title>
<g id="a_edge5_Node000005_Node000006"><a xlink:title=" ">
<path fill="none" stroke="#63b8ff" d="M539.09,-683.03C552.45,-687.48 568.55,-692.85 582.97,-697.66"/>
<polygon fill="#63b8ff" stroke="#63b8ff" points="582.03,-701.03 592.63,-700.88 584.25,-694.39 582.03,-701.03"/>
</a>
</g>
</g>
<!-- Node7 -->
<g id="Node000007" class="node">
<title>Node7</title>
<g id="a_Node000007"><a xlink:href="tensor__cast_8h.html#af735bf7b89e3864dbde7fe5def867d4d" target="_top" xlink:title=" ">
<polygon fill="white" stroke="#666666" points="656,-683 589,-683 589,-664 656,-664 656,-683"/>
<text text-anchor="middle" x="622.5" y="-671" font-family="Helvetica,sans-Serif" font-size="10.00">scout_dim</text>
</a>
</g>
</g>
<!-- Node5&#45;&gt;Node7 -->
<g id="edge6_Node000005_Node000007" class="edge">
<title>Node5&#45;&gt;Node7</title>
<g id="a_edge6_Node000005_Node000007"><a xlink:title=" ">
<path fill="none" stroke="#63b8ff" d="M548.08,-673.5C557.88,-673.5 568.52,-673.5 578.58,-673.5"/>
<polygon fill="#63b8ff" stroke="#63b8ff" points="578.79,-677 588.79,-673.5 578.79,-670 578.79,-677"/>
</a>
</g>
</g>
<!-- Node8 -->
<g id="Node000008" class="node">
<title>Node8</title>
<g id="a_Node000008"><a xlink:href="tensor__cast_8h.html#af14120999422d60b3d0aef376398fca6" target="_top" xlink:title=" ">
<polygon fill="white" stroke="#666666" points="652,-646 593,-646 593,-627 652,-627 652,-646"/>
<text text-anchor="middle" x="622.5" y="-634" font-family="Helvetica,sans-Serif" font-size="10.00">standard</text>
</a>
</g>
</g>
<!-- Node5&#45;&gt;Node8 -->
<g id="edge7_Node000005_Node000008" class="edge">
<title>Node5&#45;&gt;Node8</title>
<g id="a_edge7_Node000005_Node000008"><a xlink:title=" ">
<path fill="none" stroke="#63b8ff" d="M539.09,-663.97C552.45,-659.52 568.55,-654.15 582.97,-649.34"/>
<polygon fill="#63b8ff" stroke="#63b8ff" points="584.25,-652.61 592.63,-646.12 582.03,-645.97 584.25,-652.61"/>
</a>
</g>
</g>
<!-- Node10 -->
<g id="Node000010" class="node">
<title>Node10</title>
<g id="a_Node000010"><a xlink:href="classtools.html#a7b784121d8b368a64995feddc7083469" target="_top" xlink:title="Sums the elements of a vector.">
<polygon fill="white" stroke="#666666" points="414,-635 346,-635 346,-616 414,-616 414,-635"/>
<text text-anchor="middle" x="380" y="-623" font-family="Helvetica,sans-Serif" font-size="10.00">tools::sum</text>
</a>
</g>
</g>
<!-- Node9&#45;&gt;Node10 -->
<g id="edge9_Node000009_Node000010" class="edge">
<title>Node9&#45;&gt;Node10</title>
<g id="a_edge9_Node000009_Node000010"><a xlink:title=" ">
<path fill="none" stroke="#63b8ff" d="M289.45,-625.5C305.03,-625.5 321.27,-625.5 335.56,-625.5"/>
<polygon fill="#63b8ff" stroke="#63b8ff" points="335.6,-629 345.6,-625.5 335.6,-622 335.6,-629"/>
</a>
</g>
</g>
<!-- Node11&#45;&gt;Node11 -->
<g id="edge11_Node000011_Node000011" class="edge">
<title>Node11&#45;&gt;Node11</title>
<g id="a_edge11_Node000011_Node000011"><a xlink:title=" ">
<path fill="none" stroke="#63b8ff" d="M198.46,-574.08C186.76,-582.73 194.77,-592 222.5,-592 240.7,-592 250.4,-588.01 251.62,-582.82"/>
<polygon fill="#63b8ff" stroke="#63b8ff" points="254.59,-580.97 246.54,-574.08 248.54,-584.49 254.59,-580.97"/>
</a>
</g>
</g>
<!-- Node23 -->
<g id="Node000023" class="node">
<title>Node23</title>
<g id="a_Node000023"><a xlink:href="bsm__4tops_2include_2bsm__4tops_2edge__features_8h.html#a9addd2275949f0828310adb01cc761a3" target="_top" xlink:title=" ">
<polygon fill="white" stroke="#666666" points="418,-167 342,-167 342,-148 418,-148 418,-167"/>
<text text-anchor="middle" x="380" y="-155" font-family="Helvetica,sans-Serif" font-size="10.00">m_res_edge</text>
</a>
</g>
</g>
<!-- Node22&#45;&gt;Node23 -->
<g id="edge23_Node000022_Node000023" class="edge">
<title>Node22&#45;&gt;Node23</title>
<g id="a_edge23_Node000022_Node000023"><a xlink:title=" ">
<path fill="none" stroke="#63b8ff" d="M253.11,-157.5C275.26,-157.5 306.01,-157.5 331.57,-157.5"/>
<polygon fill="#63b8ff" stroke="#63b8ff" points="331.8,-161 341.8,-157.5 331.8,-154 331.8,-161"/>
</a>
</g>
</g>
<!-- Node27 -->
<g id="Node000027" class="node">
<title>Node27</title>
<g id="a_Node000027"><a xlink:href="bsm__4tops_2include_2bsm__4tops_2edge__features_8h.html#a28ada91c16a5975605583559f663b268" target="_top" xlink:title=" ">
<polygon fill="white" stroke="#666666" points="418.5,-56 341.5,-56 341.5,-37 418.5,-37 418.5,-56"/>
<text text-anchor="middle" x="380" y="-44" font-family="Helvetica,sans-Serif" font-size="10.00">m_top_edge</text>
</a>
</g>
</g>
<!-- Node26&#45;&gt;Node27 -->
<g id="edge27_Node000026_Node000027" class="edge">
<title>Node26&#45;&gt;Node27</title>
<g id="a_edge27_Node000026_Node000027"><a xlink:title=" ">
<path fill="none" stroke="#63b8ff" d="M253.85,-46.5C275.84,-46.5 306,-46.5 331.2,-46.5"/>
<polygon fill="#63b8ff" stroke="#63b8ff" points="331.3,-50 341.3,-46.5 331.3,-43 331.3,-50"/>
</a>
</g>
</g>
</g>
</svg>
