<?xml version="1.0" encoding="UTF-8" standalone="no"?>
<!DOCTYPE svg PUBLIC "-//W3C//DTD SVG 1.1//EN"
 "http://www.w3.org/Graphics/SVG/1.1/DTD/svg11.dtd">
<!-- Generated by graphviz version 2.43.0 (0)
 -->
<!-- Title: particle_template::to_cartesian Pages: 1 -->
<svg width="552pt" height="230pt"
 viewBox="0.00 0.00 552.00 230.00" xmlns="http://www.w3.org/2000/svg" xmlns:xlink="http://www.w3.org/1999/xlink">
<g id="graph0" class="graph" transform="scale(1 1) rotate(0) translate(4 226)">
<title>particle_template::to_cartesian</title>
<!-- Node1 -->
<g id="Node000001" class="node">
<title>Node1</title>
<g id="a_Node000001"><a xlink:title="Converts internal representation to Cartesian coordinates.">
<polygon fill="#999999" stroke="#666666" points="544,-126 435,-126 435,-96 544,-96 544,-126"/>
<text text-anchor="start" x="443" y="-114" font-family="Helvetica,sans-Serif" font-size="10.00">particle_template::</text>
<text text-anchor="middle" x="489.5" y="-103" font-family="Helvetica,sans-Serif" font-size="10.00">to_cartesian</text>
</a>
</g>
</g>
<!-- Node2 -->
<g id="Node000002" class="node">
<title>Node2</title>
<g id="a_Node000002"><a xlink:href="classparticle__template.html#a9c586cc0ac38cad5ccacf1bb4985e25b" target="_top" xlink:title="Getter for hash.">
<polygon fill="white" stroke="#666666" points="399,-222 290,-222 290,-192 399,-192 399,-222"/>
<text text-anchor="start" x="298" y="-210" font-family="Helvetica,sans-Serif" font-size="10.00">particle_template::</text>
<text text-anchor="middle" x="344.5" y="-199" font-family="Helvetica,sans-Serif" font-size="10.00">get_hash</text>
</a>
</g>
</g>
<!-- Node1&#45;&gt;Node2 -->
<g id="edge1_Node000001_Node000002" class="edge">
<title>Node1&#45;&gt;Node2</title>
<g id="a_edge1_Node000001_Node000002"><a xlink:title=" ">
<path fill="none" stroke="#63b8ff" d="M464.4,-133.23C447.07,-148.48 422.67,-168.5 399,-183 393.79,-186.19 388.09,-189.2 382.4,-191.95"/>
<polygon fill="#63b8ff" stroke="#63b8ff" points="467.17,-135.44 472.3,-126.17 462.51,-130.22 467.17,-135.44"/>
</a>
</g>
</g>
<!-- Node6 -->
<g id="Node000006" class="node">
<title>Node6</title>
<g id="a_Node000006"><a xlink:href="classparticle__template.html#a2c580f15b494fcbdc17c2339c1ae91e1" target="_top" xlink:title="Getter for px.">
<polygon fill="white" stroke="#666666" points="399,-174 290,-174 290,-144 399,-144 399,-174"/>
<text text-anchor="start" x="298" y="-162" font-family="Helvetica,sans-Serif" font-size="10.00">particle_template::</text>
<text text-anchor="middle" x="344.5" y="-151" font-family="Helvetica,sans-Serif" font-size="10.00">get_px</text>
</a>
</g>
</g>
<!-- Node1&#45;&gt;Node6 -->
<g id="edge5_Node000001_Node000006" class="edge">
<title>Node1&#45;&gt;Node6</title>
<g id="a_edge5_Node000001_Node000006"><a xlink:title=" ">
<path fill="none" stroke="#63b8ff" d="M433.85,-129.35C419.42,-134.19 404.03,-139.36 390.19,-144"/>
<polygon fill="#63b8ff" stroke="#63b8ff" points="435.28,-132.56 443.65,-126.06 433.05,-125.92 435.28,-132.56"/>
</a>
</g>
</g>
<!-- Node7 -->
<g id="Node000007" class="node">
<title>Node7</title>
<g id="a_Node000007"><a xlink:href="classparticle__template.html#a4825c3c7d011c6c5fbc5b3c734799a7f" target="_top" xlink:title="Getter for py.">
<polygon fill="white" stroke="#666666" points="399,-126 290,-126 290,-96 399,-96 399,-126"/>
<text text-anchor="start" x="298" y="-114" font-family="Helvetica,sans-Serif" font-size="10.00">particle_template::</text>
<text text-anchor="middle" x="344.5" y="-103" font-family="Helvetica,sans-Serif" font-size="10.00">get_py</text>
</a>
</g>
</g>
<!-- Node1&#45;&gt;Node7 -->
<g id="edge7_Node000001_Node000007" class="edge">
<title>Node1&#45;&gt;Node7</title>
<g id="a_edge7_Node000001_Node000007"><a xlink:title=" ">
<path fill="none" stroke="#63b8ff" d="M424.68,-111C416.25,-111 407.69,-111 399.46,-111"/>
<polygon fill="#63b8ff" stroke="#63b8ff" points="424.85,-114.5 434.85,-111 424.85,-107.5 424.85,-114.5"/>
</a>
</g>
</g>
<!-- Node8 -->
<g id="Node000008" class="node">
<title>Node8</title>
<g id="a_Node000008"><a xlink:href="classparticle__template.html#ab78f0f9f18d3d13c26fdd549e1027e44" target="_top" xlink:title="Getter for pz.">
<polygon fill="white" stroke="#666666" points="399,-78 290,-78 290,-48 399,-48 399,-78"/>
<text text-anchor="start" x="298" y="-66" font-family="Helvetica,sans-Serif" font-size="10.00">particle_template::</text>
<text text-anchor="middle" x="344.5" y="-55" font-family="Helvetica,sans-Serif" font-size="10.00">get_pz</text>
</a>
</g>
</g>
<!-- Node1&#45;&gt;Node8 -->
<g id="edge9_Node000001_Node000008" class="edge">
<title>Node1&#45;&gt;Node8</title>
<g id="a_edge9_Node000001_Node000008"><a xlink:title=" ">
<path fill="none" stroke="#63b8ff" d="M433.85,-92.65C419.42,-87.81 404.03,-82.64 390.19,-78"/>
<polygon fill="#63b8ff" stroke="#63b8ff" points="433.05,-96.08 443.65,-95.94 435.28,-89.44 433.05,-96.08"/>
</a>
</g>
</g>
<!-- Node9 -->
<g id="Node000009" class="node">
<title>Node9</title>
<g id="a_Node000009"><a xlink:href="classparticle__template.html#ad4f1535f5eb70d16c576129eef0ff73c" target="_top" xlink:title="In&#45;place addition operator.">
<polygon fill="white" stroke="#666666" points="399,-30 290,-30 290,0 399,0 399,-30"/>
<text text-anchor="start" x="298" y="-18" font-family="Helvetica,sans-Serif" font-size="10.00">particle_template::</text>
<text text-anchor="middle" x="344.5" y="-7" font-family="Helvetica,sans-Serif" font-size="10.00">operator+=</text>
</a>
</g>
</g>
<!-- Node1&#45;&gt;Node9 -->
<g id="edge11_Node000001_Node000009" class="edge">
<title>Node1&#45;&gt;Node9</title>
<g id="a_edge11_Node000001_Node000009"><a xlink:title=" ">
<path fill="none" stroke="#63b8ff" d="M464.4,-88.77C447.07,-73.52 422.67,-53.5 399,-39 393.79,-35.81 388.09,-32.8 382.4,-30.05"/>
<polygon fill="#63b8ff" stroke="#63b8ff" points="462.51,-91.78 472.3,-95.83 467.17,-86.56 462.51,-91.78"/>
</a>
</g>
</g>
<!-- Node3 -->
<g id="Node000003" class="node">
<title>Node3</title>
<g id="a_Node000003"><a xlink:href="classparticle__template.html#ab527ed22f6d67969247a0be9dda0165f" target="_top" xlink:title="Default constructor.">
<polygon fill="white" stroke="#666666" points="254,-150 145,-150 145,-120 254,-120 254,-150"/>
<text text-anchor="start" x="153" y="-138" font-family="Helvetica,sans-Serif" font-size="10.00">particle_template::</text>
<text text-anchor="middle" x="199.5" y="-127" font-family="Helvetica,sans-Serif" font-size="10.00">particle_template</text>
</a>
</g>
</g>
<!-- Node2&#45;&gt;Node3 -->
<g id="edge2_Node000002_Node000003" class="edge">
<title>Node2&#45;&gt;Node3</title>
<g id="a_edge2_Node000002_Node000003"><a xlink:title=" ">
<path fill="none" stroke="#63b8ff" d="M299.74,-187.68C296.43,-186.12 293.16,-184.55 290,-183 268.8,-172.57 245.27,-159.91 227.66,-150.21"/>
<polygon fill="#63b8ff" stroke="#63b8ff" points="298.54,-190.97 309.08,-191.99 301.47,-184.62 298.54,-190.97"/>
</a>
</g>
</g>
<!-- Node4 -->
<g id="Node000004" class="node">
<title>Node4</title>
<g id="a_Node000004"><a xlink:href="classparticle__template.html#adf7b55df06b7621b0a6bc509f74d22ff" target="_top" xlink:title="Serializes particle data for storage.">
<polygon fill="white" stroke="#666666" points="109,-174 0,-174 0,-144 109,-144 109,-174"/>
<text text-anchor="start" x="8" y="-162" font-family="Helvetica,sans-Serif" font-size="10.00">particle_template::</text>
<text text-anchor="middle" x="54.5" y="-151" font-family="Helvetica,sans-Serif" font-size="10.00">__reduce__</text>
</a>
</g>
</g>
<!-- Node3&#45;&gt;Node4 -->
<g id="edge3_Node000003_Node000004" class="edge">
<title>Node3&#45;&gt;Node4</title>
<g id="a_edge3_Node000003_Node000004"><a xlink:title=" ">
<path fill="none" stroke="#63b8ff" d="M134.95,-145.67C126.44,-147.09 117.78,-148.55 109.46,-149.94"/>
<polygon fill="#63b8ff" stroke="#63b8ff" points="135.56,-149.11 144.85,-144 134.4,-142.21 135.56,-149.11"/>
</a>
</g>
</g>
<!-- Node5 -->
<g id="Node000005" class="node">
<title>Node5</title>
<g id="a_Node000005"><a xlink:href="classparticle__template.html#a6c492ed991c27a61acad61064fa89b3c" target="_top" xlink:title="Creates a clone of this particle.">
<polygon fill="white" stroke="#666666" points="109,-126 0,-126 0,-96 109,-96 109,-126"/>
<text text-anchor="start" x="8" y="-114" font-family="Helvetica,sans-Serif" font-size="10.00">particle_template::</text>
<text text-anchor="middle" x="54.5" y="-103" font-family="Helvetica,sans-Serif" font-size="10.00">clone</text>
</a>
</g>
</g>
<!-- Node3&#45;&gt;Node5 -->
<g id="edge4_Node000003_Node000005" class="edge">
<title>Node3&#45;&gt;Node5</title>
<g id="a_edge4_Node000003_Node000005"><a xlink:title=" ">
<path fill="none" stroke="#63b8ff" d="M134.95,-124.33C126.44,-122.91 117.78,-121.45 109.46,-120.06"/>
<polygon fill="#63b8ff" stroke="#63b8ff" points="134.4,-127.79 144.85,-126 135.56,-120.89 134.4,-127.79"/>
</a>
</g>
</g>
<!-- Node6&#45;&gt;Node3 -->
<g id="edge6_Node000006_Node000003" class="edge">
<title>Node6&#45;&gt;Node3</title>
<g id="a_edge6_Node000006_Node000003"><a xlink:title=" ">
<path fill="none" stroke="#63b8ff" d="M279.95,-148.33C271.44,-146.91 262.78,-145.45 254.46,-144.06"/>
<polygon fill="#63b8ff" stroke="#63b8ff" points="279.4,-151.79 289.85,-150 280.56,-144.89 279.4,-151.79"/>
</a>
</g>
</g>
<!-- Node7&#45;&gt;Node3 -->
<g id="edge8_Node000007_Node000003" class="edge">
<title>Node7&#45;&gt;Node3</title>
<g id="a_edge8_Node000007_Node000003"><a xlink:title=" ">
<path fill="none" stroke="#63b8ff" d="M279.95,-121.67C271.44,-123.09 262.78,-124.55 254.46,-125.94"/>
<polygon fill="#63b8ff" stroke="#63b8ff" points="280.56,-125.11 289.85,-120 279.4,-118.21 280.56,-125.11"/>
</a>
</g>
</g>
<!-- Node8&#45;&gt;Node3 -->
<g id="edge10_Node000008_Node000003" class="edge">
<title>Node8&#45;&gt;Node3</title>
<g id="a_edge10_Node000008_Node000003"><a xlink:title=" ">
<path fill="none" stroke="#63b8ff" d="M299.74,-82.32C296.43,-83.88 293.16,-85.45 290,-87 268.8,-97.43 245.27,-110.09 227.66,-119.79"/>
<polygon fill="#63b8ff" stroke="#63b8ff" points="301.47,-85.38 309.08,-78.01 298.54,-79.03 301.47,-85.38"/>
</a>
</g>
</g>
</g>
</svg>
