<?xml version="1.0" encoding="UTF-8" standalone="no"?>
<!DOCTYPE svg PUBLIC "-//W3C//DTD SVG 1.1//EN"
 "http://www.w3.org/Graphics/SVG/1.1/DTD/svg11.dtd">
<!-- Generated by graphviz version 2.43.0 (0)
 -->
<!-- Title: selection_template::get_weight Pages: 1 -->
<svg width="562pt" height="38pt"
 viewBox="0.00 0.00 562.00 38.00" xmlns="http://www.w3.org/2000/svg" xmlns:xlink="http://www.w3.org/1999/xlink">
<g id="graph0" class="graph" transform="scale(1 1) rotate(0) translate(4 34)">
<title>selection_template::get_weight</title>
<!-- Node1 -->
<g id="Node000001" class="node">
<title>Node1</title>
<g id="a_Node000001"><a xlink:title="Getter for weight.">
<polygon fill="#999999" stroke="#666666" points="554,-30 444,-30 444,0 554,0 554,-30"/>
<text text-anchor="start" x="452" y="-18" font-family="Helvetica,sans-Serif" font-size="10.00">selection_template</text>
<text text-anchor="middle" x="499" y="-7" font-family="Helvetica,sans-Serif" font-size="10.00">::get_weight</text>
</a>
</g>
</g>
<!-- Node2 -->
<g id="Node000002" class="node">
<title>Node2</title>
<g id="a_Node000002"><a xlink:href="classselection__template.html#a4562a7ab32d93b5f2ca8a232a244041c" target="_top" xlink:title="Default constructor.">
<polygon fill="white" stroke="#666666" points="408,-30 292,-30 292,0 408,0 408,-30"/>
<text text-anchor="start" x="300" y="-18" font-family="Helvetica,sans-Serif" font-size="10.00">selection_template</text>
<text text-anchor="middle" x="350" y="-7" font-family="Helvetica,sans-Serif" font-size="10.00">::selection_template</text>
</a>
</g>
</g>
<!-- Node1&#45;&gt;Node2 -->
<g id="edge1_Node000001_Node000002" class="edge">
<title>Node1&#45;&gt;Node2</title>
<g id="a_edge1_Node000001_Node000002"><a xlink:title=" ">
<path fill="none" stroke="#63b8ff" d="M433.47,-15C425,-15 416.38,-15 408.05,-15"/>
<polygon fill="#63b8ff" stroke="#63b8ff" points="433.68,-18.5 443.68,-15 433.68,-11.5 433.68,-18.5"/>
</a>
</g>
</g>
<!-- Node3 -->
<g id="Node000003" class="node">
<title>Node3</title>
<g id="a_Node000003"><a xlink:href="classselection__template.html#a094ce1eb2b6463f88a8ad5f7dfd8e4b6" target="_top" xlink:title="Creates a clone of this selection.">
<polygon fill="white" stroke="#666666" points="256,-30 146,-30 146,0 256,0 256,-30"/>
<text text-anchor="start" x="154" y="-18" font-family="Helvetica,sans-Serif" font-size="10.00">selection_template</text>
<text text-anchor="middle" x="201" y="-7" font-family="Helvetica,sans-Serif" font-size="10.00">::clone</text>
</a>
</g>
</g>
<!-- Node2&#45;&gt;Node3 -->
<g id="edge2_Node000002_Node000003" class="edge">
<title>Node2&#45;&gt;Node3</title>
<g id="a_edge2_Node000002_Node000003"><a xlink:title=" ">
<path fill="none" stroke="#63b8ff" d="M281.57,-15C273.15,-15 264.63,-15 256.45,-15"/>
<polygon fill="#63b8ff" stroke="#63b8ff" points="281.75,-18.5 291.75,-15 281.75,-11.5 281.75,-18.5"/>
</a>
</g>
</g>
<!-- Node4 -->
<g id="Node000004" class="node">
<title>Node4</title>
<g id="a_Node000004"><a xlink:href="classselection__template.html#ae24cee9f302d7509a7009daea0bf0616" target="_top" xlink:title="Builds the selection from an event.">
<polygon fill="white" stroke="#666666" points="110,-30 0,-30 0,0 110,0 110,-30"/>
<text text-anchor="start" x="8" y="-18" font-family="Helvetica,sans-Serif" font-size="10.00">selection_template</text>
<text text-anchor="middle" x="55" y="-7" font-family="Helvetica,sans-Serif" font-size="10.00">::build</text>
</a>
</g>
</g>
<!-- Node3&#45;&gt;Node4 -->
<g id="edge3_Node000003_Node000004" class="edge">
<title>Node3&#45;&gt;Node4</title>
<g id="a_edge3_Node000003_Node000004"><a xlink:title=" ">
<path fill="none" stroke="#63b8ff" d="M135.73,-15C127.25,-15 118.62,-15 110.33,-15"/>
<polygon fill="#63b8ff" stroke="#63b8ff" points="135.97,-18.5 145.97,-15 135.97,-11.5 135.97,-18.5"/>
</a>
</g>
</g>
</g>
</svg>
