<?xml version="1.0" encoding="UTF-8" standalone="no"?>
<!DOCTYPE svg PUBLIC "-//W3C//DTD SVG 1.1//EN"
 "http://www.w3.org/Graphics/SVG/1.1/DTD/svg11.dtd">
<!-- Generated by graphviz version 2.43.0 (0)
 -->
<!-- Title: muon::clone Pages: 1 -->
<svg width="344pt" height="86pt"
 viewBox="0.00 0.00 344.00 86.00" xmlns="http://www.w3.org/2000/svg" xmlns:xlink="http://www.w3.org/1999/xlink">
<g id="graph0" class="graph" transform="scale(1 1) rotate(0) translate(4 82)">
<title>muon::clone</title>
<!-- Node1 -->
<g id="Node000001" class="node">
<title>Node1</title>
<g id="a_Node000001"><a xlink:title="Creates a clone of this particle.">
<polygon fill="#999999" stroke="#666666" points="77,-48.5 0,-48.5 0,-29.5 77,-29.5 77,-48.5"/>
<text text-anchor="middle" x="38.5" y="-36.5" font-family="Helvetica,sans-Serif" font-size="10.00">muon::clone</text>
</a>
</g>
</g>
<!-- Node2 -->
<g id="Node000002" class="node">
<title>Node2</title>
<g id="a_Node000002"><a xlink:href="classmuon.html#a9f92f79043e704ba0cd51f8491a51af5" target="_top" xlink:title=" ">
<polygon fill="white" stroke="#666666" points="191,-48.5 113,-48.5 113,-29.5 191,-29.5 191,-48.5"/>
<text text-anchor="middle" x="152" y="-36.5" font-family="Helvetica,sans-Serif" font-size="10.00">muon::muon</text>
</a>
</g>
</g>
<!-- Node1&#45;&gt;Node2 -->
<g id="edge1_Node000001_Node000002" class="edge">
<title>Node1&#45;&gt;Node2</title>
<g id="a_edge1_Node000001_Node000002"><a xlink:title=" ">
<path fill="none" stroke="#63b8ff" d="M77.25,-39C85.42,-39 94.18,-39 102.69,-39"/>
<polygon fill="#63b8ff" stroke="#63b8ff" points="102.91,-42.5 112.91,-39 102.91,-35.5 102.91,-42.5"/>
</a>
</g>
</g>
<!-- Node3 -->
<g id="Node000003" class="node">
<title>Node3</title>
<g id="a_Node000003"><a xlink:href="classparticle__template.html#a7fda73e06360bffd1bce45e7ba7370a5" target="_top" xlink:title="Adds a leaf (variable) to read for this particle.">
<polygon fill="white" stroke="#666666" points="336,-78 227,-78 227,-48 336,-48 336,-78"/>
<text text-anchor="start" x="235" y="-66" font-family="Helvetica,sans-Serif" font-size="10.00">particle_template::</text>
<text text-anchor="middle" x="281.5" y="-55" font-family="Helvetica,sans-Serif" font-size="10.00">add_leaf</text>
</a>
</g>
</g>
<!-- Node2&#45;&gt;Node3 -->
<g id="edge2_Node000002_Node000003" class="edge">
<title>Node2&#45;&gt;Node3</title>
<g id="a_edge2_Node000002_Node000003"><a xlink:title=" ">
<path fill="none" stroke="#63b8ff" d="M191.25,-46.2C199.35,-47.73 208.11,-49.37 216.87,-51.02"/>
<polygon fill="#63b8ff" stroke="#63b8ff" points="216.24,-54.47 226.72,-52.88 217.54,-47.59 216.24,-54.47"/>
</a>
</g>
</g>
<!-- Node4 -->
<g id="Node000004" class="node">
<title>Node4</title>
<g id="a_Node000004"><a xlink:href="classparticle__template.html#a83757e8eb32e382a8c0444ede5dda548" target="_top" xlink:title="Applies the particle type as a prefix to leaf names.">
<polygon fill="white" stroke="#666666" points="336,-30 227,-30 227,0 336,0 336,-30"/>
<text text-anchor="start" x="235" y="-18" font-family="Helvetica,sans-Serif" font-size="10.00">particle_template::</text>
<text text-anchor="middle" x="281.5" y="-7" font-family="Helvetica,sans-Serif" font-size="10.00">apply_type_prefix</text>
</a>
</g>
</g>
<!-- Node2&#45;&gt;Node4 -->
<g id="edge3_Node000002_Node000004" class="edge">
<title>Node2&#45;&gt;Node4</title>
<g id="a_edge3_Node000002_Node000004"><a xlink:title=" ">
<path fill="none" stroke="#63b8ff" d="M191.25,-31.8C199.35,-30.27 208.11,-28.63 216.87,-26.98"/>
<polygon fill="#63b8ff" stroke="#63b8ff" points="217.54,-30.41 226.72,-25.12 216.24,-23.53 217.54,-30.41"/>
</a>
</g>
</g>
</g>
</svg>
