<?xml version="1.0" encoding="UTF-8" standalone="no"?>
<!DOCTYPE svg PUBLIC "-//W3C//DTD SVG 1.1//EN"
 "http://www.w3.org/Graphics/SVG/1.1/DTD/svg11.dtd">
<!-- Generated by graphviz version 2.43.0 (0)
 -->
<!-- Title: truthjet::clone Pages: 1 -->
<svg width="383pt" height="198pt"
 viewBox="0.00 0.00 383.00 197.50" xmlns="http://www.w3.org/2000/svg" xmlns:xlink="http://www.w3.org/1999/xlink">

<svg id="main" version="1.1" xmlns="http://www.w3.org/2000/svg" xmlns:xlink="http://www.w3.org/1999/xlink" xml:space="preserve" onload="init(evt)">
<style type="text/css"><![CDATA[
.node, .edge {opacity: 0.7;}
.node.selected, .edge.selected {opacity: 1;}
.edge:hover path { stroke: red; }
.edge:hover polygon { stroke: red; fill: red; }
]]></style>
<script type="application/ecmascript" xlink:href="svg.min.js"/>
<svg id="graph" class="graph">
<g id="graph0" class="graph" transform="scale(1 1) rotate(0) translate(4 193.5)">
<title>truthjet::clone</title>
<!-- Node1 -->
<g id="Node000001" class="node">
<title>Node1</title>
<g id="a_Node000001"><a xlink:title="Creates a clone of this particle.">
<polygon fill="#999999" stroke="#666666" points="85,-93 0,-93 0,-74 85,-74 85,-93"/>
<text text-anchor="middle" x="42.5" y="-81" font-family="Helvetica,sans-Serif" font-size="10.00">truthjet::clone</text>
</a>
</g>
</g>
<!-- Node2 -->
<g id="Node000002" class="node">
<title>Node2</title>
<g id="a_Node000002"><a xlink:href="classtruthjet.html#ad7c0e9521876a9e5d3a74dfbcd47fdee" target="_top" xlink:title=" ">
<polygon fill="white" stroke="#666666" points="216,-93 121,-93 121,-74 216,-74 216,-93"/>
<text text-anchor="middle" x="168.5" y="-81" font-family="Helvetica,sans-Serif" font-size="10.00">truthjet::truthjet</text>
</a>
</g>
</g>
<!-- Node1&#45;&gt;Node2 -->
<g id="edge1_Node000001_Node000002" class="edge">
<title>Node1&#45;&gt;Node2</title>
<g id="a_edge1_Node000001_Node000002"><a xlink:title=" ">
<path fill="none" stroke="#63b8ff" d="M85.14,-83.5C93.24,-83.5 101.86,-83.5 110.37,-83.5"/>
<polygon fill="#63b8ff" stroke="#63b8ff" points="110.63,-87 120.63,-83.5 110.63,-80 110.63,-87"/>
</a>
</g>
</g>
<!-- Node3 -->
<g id="Node000003" class="node">
<title>Node3</title>
<g id="a_Node000003"><a xlink:href="classparticle__template.html#a7fda73e06360bffd1bce45e7ba7370a5" target="_top" xlink:title="Adds a leaf (variable) to read for this particle.">
<polygon fill="white" stroke="#666666" points="368,-189.5 259,-189.5 259,-159.5 368,-159.5 368,-189.5"/>
<text text-anchor="start" x="267" y="-177.5" font-family="Helvetica,sans-Serif" font-size="10.00">particle_template::</text>
<text text-anchor="middle" x="313.5" y="-166.5" font-family="Helvetica,sans-Serif" font-size="10.00">add_leaf</text>
</a>
</g>
</g>
<!-- Node2&#45;&gt;Node3 -->
<g id="edge2_Node000002_Node000003" class="edge">
<title>Node2&#45;&gt;Node3</title>
<g id="a_edge2_Node000002_Node000003"><a xlink:title=" ">
<path fill="none" stroke="#63b8ff" d="M179.42,-93.27C194.2,-107.41 223.34,-133.71 252,-150.5 254.78,-152.13 257.69,-153.69 260.67,-155.18"/>
<polygon fill="#63b8ff" stroke="#63b8ff" points="259.2,-158.36 269.74,-159.44 262.17,-152.02 259.2,-158.36"/>
</a>
</g>
</g>
<!-- Node4 -->
<g id="Node000004" class="node">
<title>Node4</title>
<g id="a_Node000004"><a xlink:href="classparticle__template.html#a83757e8eb32e382a8c0444ede5dda548" target="_top" xlink:title="Applies the particle type as a prefix to leaf names.">
<polygon fill="white" stroke="#666666" points="368,-141.5 259,-141.5 259,-111.5 368,-111.5 368,-141.5"/>
<text text-anchor="start" x="267" y="-129.5" font-family="Helvetica,sans-Serif" font-size="10.00">particle_template::</text>
<text text-anchor="middle" x="313.5" y="-118.5" font-family="Helvetica,sans-Serif" font-size="10.00">apply_type_prefix</text>
</a>
</g>
</g>
<!-- Node2&#45;&gt;Node4 -->
<g id="edge3_Node000002_Node000004" class="edge">
<title>Node2&#45;&gt;Node4</title>
<g id="a_edge3_Node000002_Node000004"><a xlink:title=" ">
<path fill="none" stroke="#63b8ff" d="M201.24,-93.04C216.44,-97.62 235.16,-103.24 252.88,-108.57"/>
<polygon fill="#63b8ff" stroke="#63b8ff" points="252.01,-111.97 262.6,-111.49 254.03,-105.26 252.01,-111.97"/>
</a>
</g>
</g>
<!-- Node5 -->
<g id="Node000005" class="node">
<title>Node5</title>
<g id="a_Node000005"><a xlink:href="classtruthjet.html#a3c2926b344f4fc12c77595f636551def" target="_top" xlink:title=" ">
<polygon fill="white" stroke="#666666" points="375,-93 252,-93 252,-74 375,-74 375,-93"/>
<text text-anchor="middle" x="313.5" y="-81" font-family="Helvetica,sans-Serif" font-size="10.00">truthjet::get_from_res</text>
</a>
</g>
</g>
<!-- Node2&#45;&gt;Node5 -->
<g id="edge4_Node000002_Node000005" class="edge">
<title>Node2&#45;&gt;Node5</title>
<g id="a_edge4_Node000002_Node000005"><a xlink:title=" ">
<path fill="none" stroke="#63b8ff" d="M216.32,-83.5C224.46,-83.5 233.09,-83.5 241.7,-83.5"/>
<polygon fill="#63b8ff" stroke="#63b8ff" points="241.77,-87 251.77,-83.5 241.77,-80 241.77,-87"/>
</a>
</g>
</g>
<!-- Node6 -->
<g id="Node000006" class="node">
<title>Node6</title>
<g id="a_Node000006"><a xlink:href="classcproperty.html#a31b26b5ffb20bbf8d8ee38e0755a9819" target="_top" xlink:title="Sets the getter callback function.">
<polygon fill="white" stroke="#666666" points="372.5,-56 254.5,-56 254.5,-37 372.5,-37 372.5,-56"/>
<text text-anchor="middle" x="313.5" y="-44" font-family="Helvetica,sans-Serif" font-size="10.00">cproperty::set_getter</text>
</a>
</g>
</g>
<!-- Node2&#45;&gt;Node6 -->
<g id="edge5_Node000002_Node000006" class="edge">
<title>Node2&#45;&gt;Node6</title>
<g id="a_edge5_Node000002_Node000006"><a xlink:title=" ">
<path fill="none" stroke="#63b8ff" d="M206.33,-73.97C224.37,-69.3 246.29,-63.63 265.52,-58.65"/>
<polygon fill="#63b8ff" stroke="#63b8ff" points="266.5,-62.02 275.3,-56.12 264.74,-55.24 266.5,-62.02"/>
</a>
</g>
</g>
<!-- Node7 -->
<g id="Node000007" class="node">
<title>Node7</title>
<g id="a_Node000007"><a xlink:href="classcproperty.html#a41a70e8e01c9b1a20b94d2dbf1a6b214" target="_top" xlink:title="Sets the owning object for callback invocation.">
<polygon fill="white" stroke="#666666" points="373,-19 254,-19 254,0 373,0 373,-19"/>
<text text-anchor="middle" x="313.5" y="-7" font-family="Helvetica,sans-Serif" font-size="10.00">cproperty::set_object</text>
</a>
</g>
</g>
<!-- Node2&#45;&gt;Node7 -->
<g id="edge6_Node000002_Node000007" class="edge">
<title>Node2&#45;&gt;Node7</title>
<g id="a_edge6_Node000002_Node000007"><a xlink:title=" ">
<path fill="none" stroke="#63b8ff" d="M181.42,-73.96C196.9,-61.95 225.13,-41.35 252,-28.5 256.66,-26.27 261.64,-24.22 266.68,-22.36"/>
<polygon fill="#63b8ff" stroke="#63b8ff" points="268.04,-25.59 276.34,-19.01 265.75,-18.98 268.04,-25.59"/>
</a>
</g>
</g>
</g>
</svg>
</svg>

<style type='text/css'>
<![CDATA[
[data-mouse-over-selected='false'] { opacity: 0.7; }
[data-mouse-over-selected='true']  { opacity: 1.0; }
]]>
</style>
<script type="application/ecmascript"><![CDATA[
document.addEventListener('DOMContentLoaded', (event) => {
  highlightEdges();
  highlightAdjacentNodes();
});
]]></script>
</svg>
