<?xml version="1.0" encoding="UTF-8" standalone="no"?>
<!DOCTYPE svg PUBLIC "-//W3C//DTD SVG 1.1//EN"
 "http://www.w3.org/Graphics/SVG/1.1/DTD/svg11.dtd">
<!-- Generated by graphviz version 2.43.0 (0)
 -->
<!-- Title: matching::get_pdgid Pages: 1 -->
<svg width="571pt" height="101pt"
 viewBox="0.00 0.00 571.00 101.00" xmlns="http://www.w3.org/2000/svg" xmlns:xlink="http://www.w3.org/1999/xlink">
<g id="graph0" class="graph" transform="scale(1 1) rotate(0) translate(4 97)">
<title>matching::get_pdgid</title>
<!-- Node1 -->
<g id="Node000001" class="node">
<title>Node1</title>
<g id="a_Node000001"><a xlink:title=" ">
<polygon fill="#999999" stroke="#666666" points="563,-56 447,-56 447,-37 563,-37 563,-56"/>
<text text-anchor="middle" x="505" y="-44" font-family="Helvetica,sans-Serif" font-size="10.00">matching::get_pdgid</text>
</a>
</g>
</g>
<!-- Node2 -->
<g id="Node000002" class="node">
<title>Node2</title>
<g id="a_Node000002"><a xlink:href="classmatching.html#abc5f2130144ffdd25c3d8f7f933b23f2" target="_top" xlink:title=" ">
<polygon fill="white" stroke="#666666" points="411,-56 315,-56 315,-37 411,-37 411,-56"/>
<text text-anchor="middle" x="363" y="-44" font-family="Helvetica,sans-Serif" font-size="10.00">matching::dump</text>
</a>
</g>
</g>
<!-- Node1&#45;&gt;Node2 -->
<g id="edge1_Node000001_Node000002" class="edge">
<title>Node1&#45;&gt;Node2</title>
<g id="a_edge1_Node000001_Node000002"><a xlink:title=" ">
<path fill="none" stroke="#63b8ff" d="M436.63,-46.5C428.04,-46.5 419.4,-46.5 411.22,-46.5"/>
<polygon fill="#63b8ff" stroke="#63b8ff" points="436.65,-50 446.65,-46.5 436.65,-43 436.65,-50"/>
</a>
</g>
</g>
<!-- Node3 -->
<g id="Node000003" class="node">
<title>Node3</title>
<g id="a_Node000003"><a xlink:href="classmatching.html#a6a20dfdb8f6fa5a23a6859d869040417" target="_top" xlink:title=" ">
<polygon fill="white" stroke="#666666" points="263.5,-93 160.5,-93 160.5,-74 263.5,-74 263.5,-93"/>
<text text-anchor="middle" x="212" y="-81" font-family="Helvetica,sans-Serif" font-size="10.00">matching::current</text>
</a>
</g>
</g>
<!-- Node2&#45;&gt;Node3 -->
<g id="edge2_Node000002_Node000003" class="edge">
<title>Node2&#45;&gt;Node3</title>
<g id="a_edge2_Node000002_Node000003"><a xlink:title=" ">
<path fill="none" stroke="#63b8ff" d="M313.7,-58.49C293.55,-63.5 270.48,-69.23 251.5,-73.94"/>
<polygon fill="#63b8ff" stroke="#63b8ff" points="314.77,-61.84 323.63,-56.03 313.08,-55.04 314.77,-61.84"/>
</a>
</g>
</g>
<!-- Node5 -->
<g id="Node000005" class="node">
<title>Node5</title>
<g id="a_Node000005"><a xlink:href="classmatching.html#a6925aacb40ca0e99f178d44959956fdb" target="_top" xlink:title=" ">
<polygon fill="white" stroke="#666666" points="279,-56 145,-56 145,-37 279,-37 279,-56"/>
<text text-anchor="middle" x="212" y="-44" font-family="Helvetica,sans-Serif" font-size="10.00">matching::experimental</text>
</a>
</g>
</g>
<!-- Node2&#45;&gt;Node5 -->
<g id="edge4_Node000002_Node000005" class="edge">
<title>Node2&#45;&gt;Node5</title>
<g id="a_edge4_Node000002_Node000005"><a xlink:title=" ">
<path fill="none" stroke="#63b8ff" d="M304.81,-46.5C296.42,-46.5 287.72,-46.5 279.17,-46.5"/>
<polygon fill="#63b8ff" stroke="#63b8ff" points="304.86,-50 314.86,-46.5 304.86,-43 304.86,-50"/>
</a>
</g>
</g>
<!-- Node6 -->
<g id="Node000006" class="node">
<title>Node6</title>
<g id="a_Node000006"><a xlink:href="classmatching.html#a7c3eb589ac6ae85490aa698d73fe8b88" target="_top" xlink:title=" ">
<polygon fill="white" stroke="#666666" points="269.5,-19 154.5,-19 154.5,0 269.5,0 269.5,-19"/>
<text text-anchor="middle" x="212" y="-7" font-family="Helvetica,sans-Serif" font-size="10.00">matching::reference</text>
</a>
</g>
</g>
<!-- Node2&#45;&gt;Node6 -->
<g id="edge6_Node000002_Node000006" class="edge">
<title>Node2&#45;&gt;Node6</title>
<g id="a_edge6_Node000002_Node000006"><a xlink:title=" ">
<path fill="none" stroke="#63b8ff" d="M313.7,-34.51C293.55,-29.5 270.48,-23.77 251.5,-19.06"/>
<polygon fill="#63b8ff" stroke="#63b8ff" points="313.08,-37.96 323.63,-36.97 314.77,-31.16 313.08,-37.96"/>
</a>
</g>
</g>
<!-- Node4 -->
<g id="Node000004" class="node">
<title>Node4</title>
<g id="a_Node000004"><a xlink:href="classmatching.html#afbde71106947fe0f714151794c7f6259" target="_top" xlink:title="Alternative selection strategy method.">
<polygon fill="white" stroke="#666666" points="109,-56 0,-56 0,-37 109,-37 109,-56"/>
<text text-anchor="middle" x="54.5" y="-44" font-family="Helvetica,sans-Serif" font-size="10.00">matching::strategy</text>
</a>
</g>
</g>
<!-- Node3&#45;&gt;Node4 -->
<g id="edge3_Node000003_Node000004" class="edge">
<title>Node3&#45;&gt;Node4</title>
<g id="a_edge3_Node000003_Node000004"><a xlink:title=" ">
<path fill="none" stroke="#63b8ff" d="M161.17,-71.64C140.01,-66.61 115.66,-60.82 95.68,-56.06"/>
<polygon fill="#63b8ff" stroke="#63b8ff" points="160.42,-75.06 170.95,-73.97 162.04,-68.25 160.42,-75.06"/>
</a>
</g>
</g>
<!-- Node5&#45;&gt;Node4 -->
<g id="edge5_Node000005_Node000004" class="edge">
<title>Node5&#45;&gt;Node4</title>
<g id="a_edge5_Node000005_Node000004"><a xlink:title=" ">
<path fill="none" stroke="#63b8ff" d="M134.51,-46.5C125.89,-46.5 117.24,-46.5 109,-46.5"/>
<polygon fill="#63b8ff" stroke="#63b8ff" points="134.6,-50 144.6,-46.5 134.6,-43 134.6,-50"/>
</a>
</g>
</g>
<!-- Node6&#45;&gt;Node4 -->
<g id="edge7_Node000006_Node000004" class="edge">
<title>Node6&#45;&gt;Node4</title>
<g id="a_edge7_Node000006_Node000004"><a xlink:title=" ">
<path fill="none" stroke="#63b8ff" d="M161.17,-21.36C140.01,-26.39 115.66,-32.18 95.68,-36.94"/>
<polygon fill="#63b8ff" stroke="#63b8ff" points="162.04,-24.75 170.95,-19.03 160.42,-17.94 162.04,-24.75"/>
</a>
</g>
</g>
</g>
</svg>
