<?xml version="1.0" encoding="UTF-8" standalone="no"?>
<!DOCTYPE svg PUBLIC "-//W3C//DTD SVG 1.1//EN"
 "http://www.w3.org/Graphics/SVG/1.1/DTD/svg11.dtd">
<!-- Generated by graphviz version 2.43.0 (0)
 -->
<!-- Title: model_template::model_template Pages: 1 -->
<svg width="470pt" height="419pt"
 viewBox="0.00 0.00 470.00 418.50" xmlns="http://www.w3.org/2000/svg" xmlns:xlink="http://www.w3.org/1999/xlink">

<svg id="main" version="1.1" xmlns="http://www.w3.org/2000/svg" xmlns:xlink="http://www.w3.org/1999/xlink" xml:space="preserve" onload="init(evt)">
<style type="text/css"><![CDATA[
.node, .edge {opacity: 0.7;}
.node.selected, .edge.selected {opacity: 1;}
.edge:hover path { stroke: red; }
.edge:hover polygon { stroke: red; fill: red; }
]]></style>
<script type="application/ecmascript" xlink:href="svg.min.js"/>
<svg id="graph" class="graph">
<g id="graph0" class="graph" transform="scale(1 1) rotate(0) translate(4 414.5)">
<title>model_template::model_template</title>
<!-- Node1 -->
<g id="Node000001" class="node">
<title>Node1</title>
<g id="a_Node000001"><a xlink:title="Constructor for the model_template class.">
<polygon fill="#999999" stroke="#666666" points="134,-211.5 0,-211.5 0,-181.5 134,-181.5 134,-211.5"/>
<text text-anchor="start" x="8" y="-199.5" font-family="Helvetica,sans-Serif" font-size="10.00">model_template::model</text>
<text text-anchor="middle" x="67" y="-188.5" font-family="Helvetica,sans-Serif" font-size="10.00">_template</text>
</a>
</g>
</g>
<!-- Node2 -->
<g id="Node000002" class="node">
<title>Node2</title>
<g id="a_Node000002"><a xlink:href="classmodel__template.html#a1ccf58b3ee8f6daa0e032fb316934cbd" target="_top" xlink:title="Static getter for the device_index property.">
<polygon fill="white" stroke="#666666" points="305.5,-410.5 186.5,-410.5 186.5,-380.5 305.5,-380.5 305.5,-410.5"/>
<text text-anchor="start" x="194.5" y="-398.5" font-family="Helvetica,sans-Serif" font-size="10.00">model_template::get</text>
<text text-anchor="middle" x="246" y="-387.5" font-family="Helvetica,sans-Serif" font-size="10.00">_dev_index</text>
</a>
</g>
</g>
<!-- Node1&#45;&gt;Node2 -->
<g id="edge1_Node000001_Node000002" class="edge">
<title>Node1&#45;&gt;Node2</title>
<g id="a_edge1_Node000001_Node000002"><a xlink:title=" ">
<path fill="none" stroke="#63b8ff" d="M72.63,-211.64C83.75,-245.43 115.15,-327.47 170,-371.5 172.3,-373.35 174.74,-375.05 177.29,-376.62"/>
<polygon fill="#63b8ff" stroke="#63b8ff" points="175.83,-379.82 186.29,-381.49 179.16,-373.66 175.83,-379.82"/>
</a>
</g>
</g>
<!-- Node3 -->
<g id="Node000003" class="node">
<title>Node3</title>
<g id="a_Node000003"><a xlink:href="classmodel__template.html#a3e2ae9bb1ff5cb88411fa35d04fbaf8b" target="_top" xlink:title="Static getter for the name property.">
<polygon fill="white" stroke="#666666" points="322,-362 170,-362 170,-343 322,-343 322,-362"/>
<text text-anchor="middle" x="246" y="-350" font-family="Helvetica,sans-Serif" font-size="10.00">model_template::get_name</text>
</a>
</g>
</g>
<!-- Node1&#45;&gt;Node3 -->
<g id="edge2_Node000001_Node000003" class="edge">
<title>Node1&#45;&gt;Node3</title>
<g id="a_edge2_Node000001_Node000003"><a xlink:title=" ">
<path fill="none" stroke="#63b8ff" d="M74.85,-211.53C88.61,-239.97 122.43,-301.68 170,-333.5 173.08,-335.56 176.38,-337.4 179.8,-339.04"/>
<polygon fill="#63b8ff" stroke="#63b8ff" points="178.51,-342.3 189.09,-342.93 181.21,-335.84 178.51,-342.3"/>
</a>
</g>
</g>
<!-- Node4 -->
<g id="Node000004" class="node">
<title>Node4</title>
<g id="a_Node000004"><a xlink:href="classmodel__template.html#ac4b5cf9bc73437cd847dc80cc5c1c75b" target="_top" xlink:title="Static setter for the device_index property.">
<polygon fill="white" stroke="#666666" points="305,-324.5 187,-324.5 187,-294.5 305,-294.5 305,-324.5"/>
<text text-anchor="start" x="195" y="-312.5" font-family="Helvetica,sans-Serif" font-size="10.00">model_template::set</text>
<text text-anchor="middle" x="246" y="-301.5" font-family="Helvetica,sans-Serif" font-size="10.00">_dev_index</text>
</a>
</g>
</g>
<!-- Node1&#45;&gt;Node4 -->
<g id="edge3_Node000001_Node000004" class="edge">
<title>Node1&#45;&gt;Node4</title>
<g id="a_edge3_Node000001_Node000004"><a xlink:title=" ">
<path fill="none" stroke="#63b8ff" d="M81.41,-211.52C99.67,-231.12 134.18,-265.29 170,-285.5 173.07,-287.23 176.28,-288.86 179.58,-290.38"/>
<polygon fill="#63b8ff" stroke="#63b8ff" points="178.46,-293.71 189.03,-294.41 181.2,-287.27 178.46,-293.71"/>
</a>
</g>
</g>
<!-- Node5 -->
<g id="Node000005" class="node">
<title>Node5</title>
<g id="a_Node000005"><a xlink:href="classmodel__template.html#ad6ea8f7ffac83bd49123286ed4cd9fda" target="_top" xlink:title="Static setter for the device property.">
<polygon fill="white" stroke="#666666" points="305,-276.5 187,-276.5 187,-246.5 305,-246.5 305,-276.5"/>
<text text-anchor="start" x="195" y="-264.5" font-family="Helvetica,sans-Serif" font-size="10.00">model_template::set</text>
<text text-anchor="middle" x="246" y="-253.5" font-family="Helvetica,sans-Serif" font-size="10.00">_device</text>
</a>
</g>
</g>
<!-- Node1&#45;&gt;Node5 -->
<g id="edge4_Node000001_Node000005" class="edge">
<title>Node1&#45;&gt;Node5</title>
<g id="a_edge4_Node000001_Node000005"><a xlink:title=" ">
<path fill="none" stroke="#63b8ff" d="M103.63,-211.56C123.11,-219.6 147.74,-229.48 170,-237.5 175.22,-239.38 180.68,-241.27 186.16,-243.12"/>
<polygon fill="#63b8ff" stroke="#63b8ff" points="185.42,-246.56 196.01,-246.39 187.62,-239.92 185.42,-246.56"/>
</a>
</g>
</g>
<!-- Node8 -->
<g id="Node000008" class="node">
<title>Node8</title>
<g id="a_Node000008"><a xlink:href="classcproperty.html#a31b26b5ffb20bbf8d8ee38e0755a9819" target="_top" xlink:title="Sets the getter callback function.">
<polygon fill="white" stroke="#666666" points="305,-228 187,-228 187,-209 305,-209 305,-228"/>
<text text-anchor="middle" x="246" y="-216" font-family="Helvetica,sans-Serif" font-size="10.00">cproperty::set_getter</text>
</a>
</g>
</g>
<!-- Node1&#45;&gt;Node8 -->
<g id="edge7_Node000001_Node000008" class="edge">
<title>Node1&#45;&gt;Node8</title>
<g id="a_edge7_Node000001_Node000008"><a xlink:title=" ">
<path fill="none" stroke="#63b8ff" d="M134.16,-204.72C148.07,-206.45 162.76,-208.28 176.74,-210.02"/>
<polygon fill="#63b8ff" stroke="#63b8ff" points="176.42,-213.5 186.78,-211.26 177.28,-206.56 176.42,-213.5"/>
</a>
</g>
</g>
<!-- Node9 -->
<g id="Node000009" class="node">
<title>Node9</title>
<g id="a_Node000009"><a xlink:href="classmodel__template.html#a042ce754045343eade6e54d556854859" target="_top" xlink:title="Sets input features for a specific feature map.">
<polygon fill="white" stroke="#666666" points="305,-190.5 187,-190.5 187,-160.5 305,-160.5 305,-190.5"/>
<text text-anchor="start" x="195" y="-178.5" font-family="Helvetica,sans-Serif" font-size="10.00">model_template::set</text>
<text text-anchor="middle" x="246" y="-167.5" font-family="Helvetica,sans-Serif" font-size="10.00">_input_features</text>
</a>
</g>
</g>
<!-- Node1&#45;&gt;Node9 -->
<g id="edge8_Node000001_Node000009" class="edge">
<title>Node1&#45;&gt;Node9</title>
<g id="a_edge8_Node000001_Node000009"><a xlink:title=" ">
<path fill="none" stroke="#63b8ff" d="M134.16,-188.65C148.07,-187 162.76,-185.26 176.74,-183.6"/>
<polygon fill="#63b8ff" stroke="#63b8ff" points="177.26,-187.06 186.78,-182.41 176.43,-180.11 177.26,-187.06"/>
</a>
</g>
</g>
<!-- Node10 -->
<g id="Node000010" class="node">
<title>Node10</title>
<g id="a_Node000010"><a xlink:href="classmodel__template.html#ad1a321ec8ca5e79c79322c83ef70b7c5" target="_top" xlink:title="Static setter for the name property.">
<polygon fill="white" stroke="#666666" points="321.5,-142 170.5,-142 170.5,-123 321.5,-123 321.5,-142"/>
<text text-anchor="middle" x="246" y="-130" font-family="Helvetica,sans-Serif" font-size="10.00">model_template::set_name</text>
</a>
</g>
</g>
<!-- Node1&#45;&gt;Node10 -->
<g id="edge9_Node000001_Node000010" class="edge">
<title>Node1&#45;&gt;Node10</title>
<g id="a_edge9_Node000001_Node000010"><a xlink:title=" ">
<path fill="none" stroke="#63b8ff" d="M98.71,-181.34C118.68,-171.88 145.48,-159.95 170,-151.5 177.15,-149.04 184.79,-146.74 192.35,-144.65"/>
<polygon fill="#63b8ff" stroke="#63b8ff" points="193.43,-147.98 202.19,-142.03 191.63,-141.22 193.43,-147.98"/>
</a>
</g>
</g>
<!-- Node11 -->
<g id="Node000011" class="node">
<title>Node11</title>
<g id="a_Node000011"><a xlink:href="classcproperty.html#a41a70e8e01c9b1a20b94d2dbf1a6b214" target="_top" xlink:title="Sets the owning object for callback invocation.">
<polygon fill="white" stroke="#666666" points="305.5,-105 186.5,-105 186.5,-86 305.5,-86 305.5,-105"/>
<text text-anchor="middle" x="246" y="-93" font-family="Helvetica,sans-Serif" font-size="10.00">cproperty::set_object</text>
</a>
</g>
</g>
<!-- Node1&#45;&gt;Node11 -->
<g id="edge10_Node000001_Node000011" class="edge">
<title>Node1&#45;&gt;Node11</title>
<g id="a_edge10_Node000001_Node000011"><a xlink:title=" ">
<path fill="none" stroke="#63b8ff" d="M82.44,-181.44C101,-162.96 135.03,-131.94 170,-114.5 174.69,-112.16 179.69,-110.1 184.8,-108.27"/>
<polygon fill="#63b8ff" stroke="#63b8ff" points="186.27,-111.47 194.7,-105.06 184.11,-104.82 186.27,-111.47"/>
</a>
</g>
</g>
<!-- Node12 -->
<g id="Node000012" class="node">
<title>Node12</title>
<g id="a_Node000012"><a xlink:href="classmodel__template.html#a977402549135f0f763157b1282b44173" target="_top" xlink:title="Sets output features for a specific feature map.">
<polygon fill="white" stroke="#666666" points="305,-67.5 187,-67.5 187,-37.5 305,-37.5 305,-67.5"/>
<text text-anchor="start" x="195" y="-55.5" font-family="Helvetica,sans-Serif" font-size="10.00">model_template::set</text>
<text text-anchor="middle" x="246" y="-44.5" font-family="Helvetica,sans-Serif" font-size="10.00">_output_features</text>
</a>
</g>
</g>
<!-- Node1&#45;&gt;Node12 -->
<g id="edge11_Node000001_Node000012" class="edge">
<title>Node1&#45;&gt;Node12</title>
<g id="a_edge11_Node000001_Node000012"><a xlink:title=" ">
<path fill="none" stroke="#63b8ff" d="M76.96,-181.23C92.64,-155.82 127.46,-104.86 170,-76.5 172.53,-74.81 175.2,-73.23 177.94,-71.76"/>
<polygon fill="#63b8ff" stroke="#63b8ff" points="179.47,-74.91 186.96,-67.41 176.43,-68.61 179.47,-74.91"/>
</a>
</g>
</g>
<!-- Node14 -->
<g id="Node000014" class="node">
<title>Node14</title>
<g id="a_Node000014"><a xlink:href="classcproperty.html#af4583ba4cf4ebc53f870a2de8f110da7" target="_top" xlink:title="Sets the setter callback function.">
<polygon fill="white" stroke="#666666" points="304.5,-19 187.5,-19 187.5,0 304.5,0 304.5,-19"/>
<text text-anchor="middle" x="246" y="-7" font-family="Helvetica,sans-Serif" font-size="10.00">cproperty::set_setter</text>
</a>
</g>
</g>
<!-- Node1&#45;&gt;Node14 -->
<g id="edge13_Node000001_Node000014" class="edge">
<title>Node1&#45;&gt;Node14</title>
<g id="a_edge13_Node000001_Node000014"><a xlink:title=" ">
<path fill="none" stroke="#63b8ff" d="M72.71,-181.48C83.89,-148.39 115.26,-68.97 170,-28.5 172.65,-26.54 175.47,-24.79 178.42,-23.21"/>
<polygon fill="#63b8ff" stroke="#63b8ff" points="179.95,-26.36 187.57,-19 177.02,-20 179.95,-26.36"/>
</a>
</g>
</g>
<!-- Node6 -->
<g id="Node000006" class="node">
<title>Node6</title>
<g id="a_Node000006"><a xlink:href="classtools.html#ad7229c72cee65da3605c4be82f9b42d4" target="_top" xlink:title="Checks if a string contains a specific substring.">
<polygon fill="white" stroke="#666666" points="458.5,-289 361.5,-289 361.5,-270 458.5,-270 458.5,-289"/>
<text text-anchor="middle" x="410" y="-277" font-family="Helvetica,sans-Serif" font-size="10.00">tools::has_string</text>
</a>
</g>
</g>
<!-- Node5&#45;&gt;Node6 -->
<g id="edge5_Node000005_Node000006" class="edge">
<title>Node5&#45;&gt;Node6</title>
<g id="a_edge5_Node000005_Node000006"><a xlink:title=" ">
<path fill="none" stroke="#63b8ff" d="M305.03,-267.95C320.08,-269.62 336.28,-271.42 351.31,-273.09"/>
<polygon fill="#63b8ff" stroke="#63b8ff" points="351.17,-276.6 361.5,-274.22 351.95,-269.64 351.17,-276.6"/>
</a>
</g>
</g>
<!-- Node7 -->
<g id="Node000007" class="node">
<title>Node7</title>
<g id="a_Node000007"><a xlink:href="classtools.html#a352a6965f2f3c768f0f4ecd1f978fcc0" target="_top" xlink:title="Splits a string into a vector of substrings based on a delimiter.">
<polygon fill="white" stroke="#666666" points="444,-252 376,-252 376,-233 444,-233 444,-252"/>
<text text-anchor="middle" x="410" y="-240" font-family="Helvetica,sans-Serif" font-size="10.00">tools::split</text>
</a>
</g>
</g>
<!-- Node5&#45;&gt;Node7 -->
<g id="edge6_Node000005_Node000007" class="edge">
<title>Node5&#45;&gt;Node7</title>
<g id="a_edge6_Node000005_Node000007"><a xlink:title=" ">
<path fill="none" stroke="#63b8ff" d="M305.03,-254.69C325.1,-252.34 347.22,-249.75 365.88,-247.56"/>
<polygon fill="#63b8ff" stroke="#63b8ff" points="366.33,-251.03 375.86,-246.39 365.52,-244.08 366.33,-251.03"/>
</a>
</g>
</g>
<!-- Node13 -->
<g id="Node000013" class="node">
<title>Node13</title>
<g id="a_Node000013"><a xlink:href="classlossfx.html#a1ff4ab72a5193a641f3184f2fa77daf9" target="_top" xlink:title=" ">
<polygon fill="white" stroke="#666666" points="462,-62 358,-62 358,-43 462,-43 462,-62"/>
<text text-anchor="middle" x="410" y="-50" font-family="Helvetica,sans-Serif" font-size="10.00">lossfx::loss_string</text>
</a>
</g>
</g>
<!-- Node12&#45;&gt;Node13 -->
<g id="edge12_Node000012_Node000013" class="edge">
<title>Node12&#45;&gt;Node13</title>
<g id="a_edge12_Node000012_Node000013"><a xlink:title=" ">
<path fill="none" stroke="#63b8ff" d="M305.03,-52.5C318.91,-52.5 333.77,-52.5 347.79,-52.5"/>
<polygon fill="#63b8ff" stroke="#63b8ff" points="347.82,-56 357.82,-52.5 347.82,-49 347.82,-56"/>
</a>
</g>
</g>
</g>
</svg>
</svg>

<style type='text/css'>
<![CDATA[
[data-mouse-over-selected='false'] { opacity: 0.7; }
[data-mouse-over-selected='true']  { opacity: 1.0; }
]]>
</style>
<script type="application/ecmascript"><![CDATA[
document.addEventListener('DOMContentLoaded', (event) => {
  highlightEdges();
  highlightAdjacentNodes();
});
]]></script>
</svg>
