<?xml version="1.0" encoding="UTF-8" standalone="no"?>
<!DOCTYPE svg PUBLIC "-//W3C//DTD SVG 1.1//EN"
 "http://www.w3.org/Graphics/SVG/1.1/DTD/svg11.dtd">
<!-- Generated by graphviz version 2.43.0 (0)
 -->
<!-- Title: top::top Pages: 1 -->
<svg width="207pt" height="86pt"
 viewBox="0.00 0.00 207.00 86.00" xmlns="http://www.w3.org/2000/svg" xmlns:xlink="http://www.w3.org/1999/xlink">
<g id="graph0" class="graph" transform="scale(1 1) rotate(0) translate(4 82)">
<title>top::top</title>
<!-- Node1 -->
<g id="Node000001" class="node">
<title>Node1</title>
<g id="a_Node000001"><a xlink:title=" ">
<polygon fill="#999999" stroke="#666666" points="54,-48.5 0,-48.5 0,-29.5 54,-29.5 54,-48.5"/>
<text text-anchor="middle" x="27" y="-36.5" font-family="Helvetica,sans-Serif" font-size="10.00">top::top</text>
</a>
</g>
</g>
<!-- Node2 -->
<g id="Node000002" class="node">
<title>Node2</title>
<g id="a_Node000002"><a xlink:href="classparticle__template.html#a7fda73e06360bffd1bce45e7ba7370a5" target="_top" xlink:title="Adds a leaf (variable) to read for this particle.">
<polygon fill="white" stroke="#666666" points="199,-78 90,-78 90,-48 199,-48 199,-78"/>
<text text-anchor="start" x="98" y="-66" font-family="Helvetica,sans-Serif" font-size="10.00">particle_template::</text>
<text text-anchor="middle" x="144.5" y="-55" font-family="Helvetica,sans-Serif" font-size="10.00">add_leaf</text>
</a>
</g>
</g>
<!-- Node1&#45;&gt;Node2 -->
<g id="edge1_Node000001_Node000002" class="edge">
<title>Node1&#45;&gt;Node2</title>
<g id="a_edge1_Node000001_Node000002"><a xlink:title=" ">
<path fill="none" stroke="#63b8ff" d="M54.21,-44.45C61.93,-46.05 70.74,-47.88 79.74,-49.75"/>
<polygon fill="#63b8ff" stroke="#63b8ff" points="79.05,-53.18 89.55,-51.79 80.47,-46.33 79.05,-53.18"/>
</a>
</g>
</g>
<!-- Node3 -->
<g id="Node000003" class="node">
<title>Node3</title>
<g id="a_Node000003"><a xlink:href="classparticle__template.html#a83757e8eb32e382a8c0444ede5dda548" target="_top" xlink:title="Applies the particle type as a prefix to leaf names.">
<polygon fill="white" stroke="#666666" points="199,-30 90,-30 90,0 199,0 199,-30"/>
<text text-anchor="start" x="98" y="-18" font-family="Helvetica,sans-Serif" font-size="10.00">particle_template::</text>
<text text-anchor="middle" x="144.5" y="-7" font-family="Helvetica,sans-Serif" font-size="10.00">apply_type_prefix</text>
</a>
</g>
</g>
<!-- Node1&#45;&gt;Node3 -->
<g id="edge2_Node000001_Node000003" class="edge">
<title>Node1&#45;&gt;Node3</title>
<g id="a_edge2_Node000001_Node000003"><a xlink:title=" ">
<path fill="none" stroke="#63b8ff" d="M54.21,-33.55C61.93,-31.95 70.74,-30.12 79.74,-28.25"/>
<polygon fill="#63b8ff" stroke="#63b8ff" points="80.47,-31.67 89.55,-26.21 79.05,-24.82 80.47,-31.67"/>
</a>
</g>
</g>
</g>
</svg>
