<?xml version="1.0" encoding="UTF-8" standalone="no"?>
<!DOCTYPE svg PUBLIC "-//W3C//DTD SVG 1.1//EN"
 "http://www.w3.org/Graphics/SVG/1.1/DTD/svg11.dtd">
<!-- Generated by graphviz version 2.43.0 (0)
 -->
<!-- Title: metric_template::clone Pages: 1 -->
<svg width="822pt" height="370pt"
 viewBox="0.00 0.00 822.00 369.50" xmlns="http://www.w3.org/2000/svg" xmlns:xlink="http://www.w3.org/1999/xlink">
<g id="graph0" class="graph" transform="scale(1 1) rotate(0) translate(4 365.5)">
<title>metric_template::clone</title>
<!-- Node1 -->
<g id="Node000001" class="node">
<title>Node1</title>
<g id="a_Node000001"><a xlink:title=" ">
<polygon fill="#999999" stroke="#666666" points="130,-190.5 0,-190.5 0,-171.5 130,-171.5 130,-190.5"/>
<text text-anchor="middle" x="65" y="-178.5" font-family="Helvetica,sans-Serif" font-size="10.00">metric_template::clone</text>
</a>
</g>
</g>
<!-- Node2 -->
<g id="Node000002" class="node">
<title>Node2</title>
<g id="a_Node000002"><a xlink:href="classmetric__template.html#ad4020c5c29a7944e9cadd244fd11e952" target="_top" xlink:title=" ">
<polygon fill="white" stroke="#666666" points="296,-190.5 166,-190.5 166,-171.5 296,-171.5 296,-190.5"/>
<text text-anchor="middle" x="231" y="-178.5" font-family="Helvetica,sans-Serif" font-size="10.00">metric_template::clone</text>
</a>
</g>
</g>
<!-- Node1&#45;&gt;Node2 -->
<g id="edge1_Node000001_Node000002" class="edge">
<title>Node1&#45;&gt;Node2</title>
<g id="a_edge1_Node000001_Node000002"><a xlink:title=" ">
<path fill="none" stroke="#63b8ff" d="M130.35,-181C138.64,-181 147.19,-181 155.62,-181"/>
<polygon fill="#63b8ff" stroke="#63b8ff" points="155.84,-184.5 165.84,-181 155.84,-177.5 155.84,-184.5"/>
</a>
</g>
</g>
<!-- Node3 -->
<g id="Node000003" class="node">
<title>Node3</title>
<g id="a_Node000003"><a xlink:href="classmetric__template.html#a4f076b39d712cc1ed944d25328bcc271" target="_top" xlink:title=" ">
<polygon fill="white" stroke="#666666" points="467,-196 332,-196 332,-166 467,-166 467,-196"/>
<text text-anchor="start" x="340" y="-184" font-family="Helvetica,sans-Serif" font-size="10.00">metric_template::metric</text>
<text text-anchor="middle" x="399.5" y="-173" font-family="Helvetica,sans-Serif" font-size="10.00">_template</text>
</a>
</g>
</g>
<!-- Node2&#45;&gt;Node3 -->
<g id="edge2_Node000002_Node000003" class="edge">
<title>Node2&#45;&gt;Node3</title>
<g id="a_edge2_Node000002_Node000003"><a xlink:title=" ">
<path fill="none" stroke="#63b8ff" d="M296.37,-181C304.64,-181 313.16,-181 321.6,-181"/>
<polygon fill="#63b8ff" stroke="#63b8ff" points="321.82,-184.5 331.82,-181 321.82,-177.5 321.82,-184.5"/>
</a>
</g>
</g>
<!-- Node4 -->
<g id="Node000004" class="node">
<title>Node4</title>
<g id="a_Node000004"><a xlink:href="classmetric__template.html#a0c0752bec56d2ed585edb6292f77487f" target="_top" xlink:title=" ">
<polygon fill="white" stroke="#666666" points="655,-361.5 503,-361.5 503,-342.5 655,-342.5 655,-361.5"/>
<text text-anchor="middle" x="579" y="-349.5" font-family="Helvetica,sans-Serif" font-size="10.00">metric_template::get_name</text>
</a>
</g>
</g>
<!-- Node3&#45;&gt;Node4 -->
<g id="edge3_Node000003_Node000004" class="edge">
<title>Node3&#45;&gt;Node4</title>
<g id="a_edge3_Node000003_Node000004"><a xlink:title=" ">
<path fill="none" stroke="#63b8ff" d="M406.34,-196.22C419,-227.08 451.97,-297.12 503,-333 505.75,-334.93 508.67,-336.67 511.72,-338.23"/>
<polygon fill="#63b8ff" stroke="#63b8ff" points="510.58,-341.55 521.14,-342.4 513.41,-335.15 510.58,-341.55"/>
</a>
</g>
</g>
<!-- Node5 -->
<g id="Node000005" class="node">
<title>Node5</title>
<g id="a_Node000005"><a xlink:href="classmetric__template.html#a8dd368a685f0ab138ae020ed9ef1b214" target="_top" xlink:title=" ">
<polygon fill="white" stroke="#666666" points="638.5,-324 519.5,-324 519.5,-294 638.5,-294 638.5,-324"/>
<text text-anchor="start" x="527.5" y="-312" font-family="Helvetica,sans-Serif" font-size="10.00">metric_template::get</text>
<text text-anchor="middle" x="579" y="-301" font-family="Helvetica,sans-Serif" font-size="10.00">_run_name</text>
</a>
</g>
</g>
<!-- Node3&#45;&gt;Node5 -->
<g id="edge4_Node000003_Node000005" class="edge">
<title>Node3&#45;&gt;Node5</title>
<g id="a_edge4_Node000003_Node000005"><a xlink:title=" ">
<path fill="none" stroke="#63b8ff" d="M411.67,-196.36C428.86,-218.93 463.91,-260.97 503,-285 505.65,-286.63 508.42,-288.16 511.28,-289.59"/>
<polygon fill="#63b8ff" stroke="#63b8ff" points="510.05,-292.88 520.6,-293.86 512.96,-286.52 510.05,-292.88"/>
</a>
</g>
</g>
<!-- Node6 -->
<g id="Node000006" class="node">
<title>Node6</title>
<g id="a_Node000006"><a xlink:href="classmetric__template.html#a955eb7a68c413fdcff1d6c5bdba4c5ac" target="_top" xlink:title=" ">
<polygon fill="white" stroke="#666666" points="638.5,-276 519.5,-276 519.5,-246 638.5,-246 638.5,-276"/>
<text text-anchor="start" x="527.5" y="-264" font-family="Helvetica,sans-Serif" font-size="10.00">metric_template::get</text>
<text text-anchor="middle" x="579" y="-253" font-family="Helvetica,sans-Serif" font-size="10.00">_variables</text>
</a>
</g>
</g>
<!-- Node3&#45;&gt;Node6 -->
<g id="edge5_Node000003_Node000006" class="edge">
<title>Node3&#45;&gt;Node6</title>
<g id="a_edge5_Node000003_Node000006"><a xlink:title=" ">
<path fill="none" stroke="#63b8ff" d="M425.11,-196.18C445.47,-208.31 475.42,-225.18 503,-237 507.4,-238.89 512,-240.71 516.67,-242.44"/>
<polygon fill="#63b8ff" stroke="#63b8ff" points="515.69,-245.81 526.29,-245.88 518.05,-239.22 515.69,-245.81"/>
</a>
</g>
</g>
<!-- Node8 -->
<g id="Node000008" class="node">
<title>Node8</title>
<g id="a_Node000008"><a xlink:href="classcproperty.html#a31b26b5ffb20bbf8d8ee38e0755a9819" target="_top" xlink:title="Sets the getter callback function.">
<polygon fill="white" stroke="#666666" points="638,-227.5 520,-227.5 520,-208.5 638,-208.5 638,-227.5"/>
<text text-anchor="middle" x="579" y="-215.5" font-family="Helvetica,sans-Serif" font-size="10.00">cproperty::set_getter</text>
</a>
</g>
</g>
<!-- Node3&#45;&gt;Node8 -->
<g id="edge7_Node000003_Node000008" class="edge">
<title>Node3&#45;&gt;Node8</title>
<g id="a_edge7_Node000003_Node000008"><a xlink:title=" ">
<path fill="none" stroke="#63b8ff" d="M467.1,-194.88C485.27,-198.67 504.77,-202.74 522.27,-206.38"/>
<polygon fill="#63b8ff" stroke="#63b8ff" points="521.81,-209.86 532.32,-208.48 523.24,-203.01 521.81,-209.86"/>
</a>
</g>
</g>
<!-- Node9 -->
<g id="Node000009" class="node">
<title>Node9</title>
<g id="a_Node000009"><a xlink:href="classmetric__template.html#a85d83f331257a2bcbaca37f1eb4b5d5c" target="_top" xlink:title=" ">
<polygon fill="white" stroke="#666666" points="655,-190.5 503,-190.5 503,-171.5 655,-171.5 655,-190.5"/>
<text text-anchor="middle" x="579" y="-178.5" font-family="Helvetica,sans-Serif" font-size="10.00">metric_template::set_name</text>
</a>
</g>
</g>
<!-- Node3&#45;&gt;Node9 -->
<g id="edge8_Node000003_Node000009" class="edge">
<title>Node3&#45;&gt;Node9</title>
<g id="a_edge8_Node000003_Node000009"><a xlink:title=" ">
<path fill="none" stroke="#63b8ff" d="M467.1,-181C475.51,-181 484.21,-181 492.86,-181"/>
<polygon fill="#63b8ff" stroke="#63b8ff" points="492.98,-184.5 502.98,-181 492.98,-177.5 492.98,-184.5"/>
</a>
</g>
</g>
<!-- Node10 -->
<g id="Node000010" class="node">
<title>Node10</title>
<g id="a_Node000010"><a xlink:href="classcproperty.html#a41a70e8e01c9b1a20b94d2dbf1a6b214" target="_top" xlink:title="Sets the owning object for callback invocation.">
<polygon fill="white" stroke="#666666" points="638.5,-153.5 519.5,-153.5 519.5,-134.5 638.5,-134.5 638.5,-153.5"/>
<text text-anchor="middle" x="579" y="-141.5" font-family="Helvetica,sans-Serif" font-size="10.00">cproperty::set_object</text>
</a>
</g>
</g>
<!-- Node3&#45;&gt;Node10 -->
<g id="edge9_Node000003_Node000010" class="edge">
<title>Node3&#45;&gt;Node10</title>
<g id="a_edge9_Node000003_Node000010"><a xlink:title=" ">
<path fill="none" stroke="#63b8ff" d="M467.1,-167.12C485.27,-163.33 504.77,-159.26 522.27,-155.62"/>
<polygon fill="#63b8ff" stroke="#63b8ff" points="523.24,-158.99 532.32,-153.52 521.81,-152.14 523.24,-158.99"/>
</a>
</g>
</g>
<!-- Node11 -->
<g id="Node000011" class="node">
<title>Node11</title>
<g id="a_Node000011"><a xlink:href="classmetric__template.html#ad34828d0d75d5b0a656ef881620fbc7c" target="_top" xlink:title=" ">
<polygon fill="white" stroke="#666666" points="638.5,-116 519.5,-116 519.5,-86 638.5,-86 638.5,-116"/>
<text text-anchor="start" x="527.5" y="-104" font-family="Helvetica,sans-Serif" font-size="10.00">metric_template::set</text>
<text text-anchor="middle" x="579" y="-93" font-family="Helvetica,sans-Serif" font-size="10.00">_run_name</text>
</a>
</g>
</g>
<!-- Node3&#45;&gt;Node11 -->
<g id="edge10_Node000003_Node000011" class="edge">
<title>Node3&#45;&gt;Node11</title>
<g id="a_edge10_Node000003_Node000011"><a xlink:title=" ">
<path fill="none" stroke="#63b8ff" d="M425.6,-165.97C445.99,-154.15 475.74,-137.75 503,-126 508.12,-123.79 513.5,-121.66 518.94,-119.62"/>
<polygon fill="#63b8ff" stroke="#63b8ff" points="520.52,-122.77 528.73,-116.08 518.14,-116.19 520.52,-122.77"/>
</a>
</g>
</g>
<!-- Node15 -->
<g id="Node000015" class="node">
<title>Node15</title>
<g id="a_Node000015"><a xlink:href="classcproperty.html#af4583ba4cf4ebc53f870a2de8f110da7" target="_top" xlink:title="Sets the setter callback function.">
<polygon fill="white" stroke="#666666" points="637.5,-67.5 520.5,-67.5 520.5,-48.5 637.5,-48.5 637.5,-67.5"/>
<text text-anchor="middle" x="579" y="-55.5" font-family="Helvetica,sans-Serif" font-size="10.00">cproperty::set_setter</text>
</a>
</g>
</g>
<!-- Node3&#45;&gt;Node15 -->
<g id="edge15_Node000003_Node000015" class="edge">
<title>Node3&#45;&gt;Node15</title>
<g id="a_edge15_Node000003_Node000015"><a xlink:title=" ">
<path fill="none" stroke="#63b8ff" d="M411.21,-165.7C428.05,-142.83 462.97,-99.94 503,-77 506.91,-74.76 511.08,-72.78 515.38,-71.03"/>
<polygon fill="#63b8ff" stroke="#63b8ff" points="516.73,-74.27 524.94,-67.56 514.34,-67.69 516.73,-74.27"/>
</a>
</g>
</g>
<!-- Node16 -->
<g id="Node000016" class="node">
<title>Node16</title>
<g id="a_Node000016"><a xlink:href="classmetric__template.html#a5209be08253548a7a56bd2f08db31a8c" target="_top" xlink:title=" ">
<polygon fill="white" stroke="#666666" points="638.5,-30 519.5,-30 519.5,0 638.5,0 638.5,-30"/>
<text text-anchor="start" x="527.5" y="-18" font-family="Helvetica,sans-Serif" font-size="10.00">metric_template::set</text>
<text text-anchor="middle" x="579" y="-7" font-family="Helvetica,sans-Serif" font-size="10.00">_variables</text>
</a>
</g>
</g>
<!-- Node3&#45;&gt;Node16 -->
<g id="edge16_Node000003_Node000016" class="edge">
<title>Node3&#45;&gt;Node16</title>
<g id="a_edge16_Node000003_Node000016"><a xlink:title=" ">
<path fill="none" stroke="#63b8ff" d="M407.44,-165.69C421.36,-136.67 455.5,-73.46 503,-39 505.33,-37.31 507.79,-35.73 510.34,-34.26"/>
<polygon fill="#63b8ff" stroke="#63b8ff" points="511.98,-37.35 519.29,-29.67 508.79,-31.12 511.98,-37.35"/>
</a>
</g>
</g>
<!-- Node7 -->
<g id="Node000007" class="node">
<title>Node7</title>
<g id="a_Node000007"><a xlink:href="classmetric__template.html#abdaf01c257c4d00b3861432f34d10939" target="_top" xlink:title=" ">
<polygon fill="white" stroke="#666666" points="813.5,-225.5 691.5,-225.5 691.5,-206.5 813.5,-206.5 813.5,-225.5"/>
<text text-anchor="middle" x="752.5" y="-213.5" font-family="Helvetica,sans-Serif" font-size="10.00">metric_template::end</text>
</a>
</g>
</g>
<!-- Node6&#45;&gt;Node7 -->
<g id="edge6_Node000006_Node000007" class="edge">
<title>Node6&#45;&gt;Node7</title>
<g id="a_edge6_Node000006_Node000007"><a xlink:title=" ">
<path fill="none" stroke="#63b8ff" d="M637.58,-245.89C659.66,-240.1 684.54,-233.57 705.4,-228.1"/>
<polygon fill="#63b8ff" stroke="#63b8ff" points="706.51,-231.42 715.29,-225.5 704.73,-224.65 706.51,-231.42"/>
</a>
</g>
</g>
<!-- Node11&#45;&gt;Node7 -->
<g id="edge11_Node000011_Node000007" class="edge">
<title>Node11&#45;&gt;Node7</title>
<g id="a_edge11_Node000011_Node000007"><a xlink:title=" ">
<path fill="none" stroke="#63b8ff" d="M634.5,-116.06C641.61,-118.91 648.63,-122.21 655,-126 672.53,-136.42 712.34,-175.86 734.97,-198.93"/>
<polygon fill="#63b8ff" stroke="#63b8ff" points="732.7,-201.62 742.19,-206.33 737.71,-196.73 732.7,-201.62"/>
</a>
</g>
</g>
<!-- Node12 -->
<g id="Node000012" class="node">
<title>Node12</title>
<g id="a_Node000012"><a xlink:href="classtools.html#ad7229c72cee65da3605c4be82f9b42d4" target="_top" xlink:title="Checks if a string contains a specific substring.">
<polygon fill="white" stroke="#666666" points="801,-144.5 704,-144.5 704,-125.5 801,-125.5 801,-144.5"/>
<text text-anchor="middle" x="752.5" y="-132.5" font-family="Helvetica,sans-Serif" font-size="10.00">tools::has_string</text>
</a>
</g>
</g>
<!-- Node11&#45;&gt;Node12 -->
<g id="edge12_Node000011_Node000012" class="edge">
<title>Node11&#45;&gt;Node12</title>
<g id="a_edge12_Node000011_Node000012"><a xlink:title=" ">
<path fill="none" stroke="#63b8ff" d="M638.54,-112.61C656.31,-116.13 675.81,-119.99 693.53,-123.51"/>
<polygon fill="#63b8ff" stroke="#63b8ff" points="693.25,-127.02 703.74,-125.53 694.61,-120.15 693.25,-127.02"/>
</a>
</g>
</g>
<!-- Node13 -->
<g id="Node000013" class="node">
<title>Node13</title>
<g id="a_Node000013"><a xlink:href="classtools.html#a47d3d261edcb898daab56721e18d1e67" target="_top" xlink:title="Checks if a path refers to an existing file.">
<polygon fill="white" stroke="#666666" points="790,-107.5 715,-107.5 715,-88.5 790,-88.5 790,-107.5"/>
<text text-anchor="middle" x="752.5" y="-95.5" font-family="Helvetica,sans-Serif" font-size="10.00">tools::is_file</text>
</a>
</g>
</g>
<!-- Node11&#45;&gt;Node13 -->
<g id="edge13_Node000011_Node000013" class="edge">
<title>Node11&#45;&gt;Node13</title>
<g id="a_edge13_Node000011_Node000013"><a xlink:title=" ">
<path fill="none" stroke="#63b8ff" d="M638.54,-99.98C660.21,-99.6 684.46,-99.17 704.92,-98.81"/>
<polygon fill="#63b8ff" stroke="#63b8ff" points="705,-102.31 714.93,-98.64 704.88,-95.32 705,-102.31"/>
</a>
</g>
</g>
<!-- Node14 -->
<g id="Node000014" class="node">
<title>Node14</title>
<g id="a_Node000014"><a xlink:href="classtools.html#a352a6965f2f3c768f0f4ecd1f978fcc0" target="_top" xlink:title="Splits a string into a vector of substrings based on a delimiter.">
<polygon fill="white" stroke="#666666" points="786.5,-67.5 718.5,-67.5 718.5,-48.5 786.5,-48.5 786.5,-67.5"/>
<text text-anchor="middle" x="752.5" y="-55.5" font-family="Helvetica,sans-Serif" font-size="10.00">tools::split</text>
</a>
</g>
</g>
<!-- Node11&#45;&gt;Node14 -->
<g id="edge14_Node000011_Node000014" class="edge">
<title>Node11&#45;&gt;Node14</title>
<g id="a_edge14_Node000011_Node000014"><a xlink:title=" ">
<path fill="none" stroke="#63b8ff" d="M638.54,-86.32C661.39,-80.59 687.11,-74.14 708.24,-68.85"/>
<polygon fill="#63b8ff" stroke="#63b8ff" points="709.35,-72.18 718.2,-66.35 707.65,-65.39 709.35,-72.18"/>
</a>
</g>
</g>
<!-- Node16&#45;&gt;Node14 -->
<g id="edge18_Node000016_Node000014" class="edge">
<title>Node16&#45;&gt;Node14</title>
<g id="a_edge18_Node000016_Node000014"><a xlink:title=" ">
<path fill="none" stroke="#63b8ff" d="M638.54,-29.68C661.39,-35.41 687.11,-41.86 708.24,-47.15"/>
<polygon fill="#63b8ff" stroke="#63b8ff" points="707.65,-50.61 718.2,-49.65 709.35,-43.82 707.65,-50.61"/>
</a>
</g>
</g>
<!-- Node17 -->
<g id="Node000017" class="node">
<title>Node17</title>
<g id="a_Node000017"><a xlink:href="classmetric__template.html#a335a5dd4a86a24fd17e981a633cd4df3" target="_top" xlink:title=" ">
<polygon fill="white" stroke="#666666" points="814,-24.5 691,-24.5 691,-5.5 814,-5.5 814,-24.5"/>
<text text-anchor="middle" x="752.5" y="-12.5" font-family="Helvetica,sans-Serif" font-size="10.00">metric_template::size</text>
</a>
</g>
</g>
<!-- Node16&#45;&gt;Node17 -->
<g id="edge17_Node000016_Node000017" class="edge">
<title>Node16&#45;&gt;Node17</title>
<g id="a_edge17_Node000016_Node000017"><a xlink:title=" ">
<path fill="none" stroke="#63b8ff" d="M638.54,-15C652.13,-15 666.73,-15 680.78,-15"/>
<polygon fill="#63b8ff" stroke="#63b8ff" points="680.89,-18.5 690.89,-15 680.89,-11.5 680.89,-18.5"/>
</a>
</g>
</g>
</g>
</svg>
