<?xml version="1.0" encoding="UTF-8" standalone="no"?>
<!DOCTYPE svg PUBLIC "-//W3C//DTD SVG 1.1//EN"
 "http://www.w3.org/Graphics/SVG/1.1/DTD/svg11.dtd">
<!-- Generated by graphviz version 2.43.0 (0)
 -->
<!-- Title: jet::build Pages: 1 -->
<svg width="306pt" height="198pt"
 viewBox="0.00 0.00 306.00 197.50" xmlns="http://www.w3.org/2000/svg" xmlns:xlink="http://www.w3.org/1999/xlink">
<g id="graph0" class="graph" transform="scale(1 1) rotate(0) translate(4 193.5)">
<title>jet::build</title>
<!-- Node1 -->
<g id="Node000001" class="node">
<title>Node1</title>
<g id="a_Node000001"><a xlink:title="Builds the particle from event data.">
<polygon fill="#999999" stroke="#666666" points="59,-93 0,-93 0,-74 59,-74 59,-93"/>
<text text-anchor="middle" x="29.5" y="-81" font-family="Helvetica,sans-Serif" font-size="10.00">jet::build</text>
</a>
</g>
</g>
<!-- Node2 -->
<g id="Node000002" class="node">
<title>Node2</title>
<g id="a_Node000002"><a xlink:href="classjet.html#ae5a7844bf8bad33084fc7514e0567c2d" target="_top" xlink:title=" ">
<polygon fill="white" stroke="#666666" points="143,-93 95,-93 95,-74 143,-74 143,-93"/>
<text text-anchor="middle" x="119" y="-81" font-family="Helvetica,sans-Serif" font-size="10.00">jet::jet</text>
</a>
</g>
</g>
<!-- Node1&#45;&gt;Node2 -->
<g id="edge1_Node000001_Node000002" class="edge">
<title>Node1&#45;&gt;Node2</title>
<g id="a_edge1_Node000001_Node000002"><a xlink:title=" ">
<path fill="none" stroke="#63b8ff" d="M59.15,-83.5C67.28,-83.5 76.2,-83.5 84.59,-83.5"/>
<polygon fill="#63b8ff" stroke="#63b8ff" points="84.82,-87 94.82,-83.5 84.82,-80 84.82,-87"/>
</a>
</g>
</g>
<!-- Node3 -->
<g id="Node000003" class="node">
<title>Node3</title>
<g id="a_Node000003"><a xlink:href="classparticle__template.html#a7fda73e06360bffd1bce45e7ba7370a5" target="_top" xlink:title="Adds a leaf (variable) to read for this particle.">
<polygon fill="white" stroke="#666666" points="293,-189.5 184,-189.5 184,-159.5 293,-159.5 293,-189.5"/>
<text text-anchor="start" x="192" y="-177.5" font-family="Helvetica,sans-Serif" font-size="10.00">particle_template::</text>
<text text-anchor="middle" x="238.5" y="-166.5" font-family="Helvetica,sans-Serif" font-size="10.00">add_leaf</text>
</a>
</g>
</g>
<!-- Node2&#45;&gt;Node3 -->
<g id="edge2_Node000002_Node000003" class="edge">
<title>Node2&#45;&gt;Node3</title>
<g id="a_edge2_Node000002_Node000003"><a xlink:title=" ">
<path fill="none" stroke="#63b8ff" d="M126.5,-93.43C136.34,-107.76 156.28,-134.31 179,-150.5 180.89,-151.85 182.86,-153.13 184.9,-154.36"/>
<polygon fill="#63b8ff" stroke="#63b8ff" points="183.66,-157.67 194.12,-159.38 187.01,-151.52 183.66,-157.67"/>
</a>
</g>
</g>
<!-- Node4 -->
<g id="Node000004" class="node">
<title>Node4</title>
<g id="a_Node000004"><a xlink:href="classparticle__template.html#a83757e8eb32e382a8c0444ede5dda548" target="_top" xlink:title="Applies the particle type as a prefix to leaf names.">
<polygon fill="white" stroke="#666666" points="293,-141.5 184,-141.5 184,-111.5 293,-111.5 293,-141.5"/>
<text text-anchor="start" x="192" y="-129.5" font-family="Helvetica,sans-Serif" font-size="10.00">particle_template::</text>
<text text-anchor="middle" x="238.5" y="-118.5" font-family="Helvetica,sans-Serif" font-size="10.00">apply_type_prefix</text>
</a>
</g>
</g>
<!-- Node2&#45;&gt;Node4 -->
<g id="edge3_Node000002_Node000004" class="edge">
<title>Node2&#45;&gt;Node4</title>
<g id="a_edge3_Node000002_Node000004"><a xlink:title=" ">
<path fill="none" stroke="#63b8ff" d="M143.21,-92C155.61,-96.53 171.4,-102.31 186.48,-107.83"/>
<polygon fill="#63b8ff" stroke="#63b8ff" points="185.66,-111.26 196.26,-111.41 188.07,-104.68 185.66,-111.26"/>
</a>
</g>
</g>
<!-- Node5 -->
<g id="Node000005" class="node">
<title>Node5</title>
<g id="a_Node000005"><a xlink:href="classjet.html#a9afa9013f1cda3d6bbcae404f159435a" target="_top" xlink:title=" ">
<polygon fill="white" stroke="#666666" points="288.5,-93 188.5,-93 188.5,-74 288.5,-74 288.5,-93"/>
<text text-anchor="middle" x="238.5" y="-81" font-family="Helvetica,sans-Serif" font-size="10.00">jet::get_from_res</text>
</a>
</g>
</g>
<!-- Node2&#45;&gt;Node5 -->
<g id="edge4_Node000002_Node000005" class="edge">
<title>Node2&#45;&gt;Node5</title>
<g id="a_edge4_Node000002_Node000005"><a xlink:title=" ">
<path fill="none" stroke="#63b8ff" d="M143.21,-83.5C153.25,-83.5 165.49,-83.5 177.8,-83.5"/>
<polygon fill="#63b8ff" stroke="#63b8ff" points="178.1,-87 188.1,-83.5 178.1,-80 178.1,-87"/>
</a>
</g>
</g>
<!-- Node6 -->
<g id="Node000006" class="node">
<title>Node6</title>
<g id="a_Node000006"><a xlink:href="classcproperty.html#a31b26b5ffb20bbf8d8ee38e0755a9819" target="_top" xlink:title="Sets the getter callback function.">
<polygon fill="white" stroke="#666666" points="297.5,-56 179.5,-56 179.5,-37 297.5,-37 297.5,-56"/>
<text text-anchor="middle" x="238.5" y="-44" font-family="Helvetica,sans-Serif" font-size="10.00">cproperty::set_getter</text>
</a>
</g>
</g>
<!-- Node2&#45;&gt;Node6 -->
<g id="edge5_Node000002_Node000006" class="edge">
<title>Node2&#45;&gt;Node6</title>
<g id="a_edge5_Node000002_Node000006"><a xlink:title=" ">
<path fill="none" stroke="#63b8ff" d="M143.21,-76.19C158.68,-71.32 179.4,-64.8 197.48,-59.1"/>
<polygon fill="#63b8ff" stroke="#63b8ff" points="198.71,-62.38 207.2,-56.04 196.61,-55.71 198.71,-62.38"/>
</a>
</g>
</g>
<!-- Node7 -->
<g id="Node000007" class="node">
<title>Node7</title>
<g id="a_Node000007"><a xlink:href="classcproperty.html#a41a70e8e01c9b1a20b94d2dbf1a6b214" target="_top" xlink:title="Sets the owning object for callback invocation.">
<polygon fill="white" stroke="#666666" points="298,-19 179,-19 179,0 298,0 298,-19"/>
<text text-anchor="middle" x="238.5" y="-7" font-family="Helvetica,sans-Serif" font-size="10.00">cproperty::set_object</text>
</a>
</g>
</g>
<!-- Node2&#45;&gt;Node7 -->
<g id="edge6_Node000002_Node000007" class="edge">
<title>Node2&#45;&gt;Node7</title>
<g id="a_edge6_Node000002_Node000007"><a xlink:title=" ">
<path fill="none" stroke="#63b8ff" d="M127.82,-73.99C138.29,-61.83 158,-40.86 179,-28.5 182.62,-26.37 186.52,-24.44 190.51,-22.71"/>
<polygon fill="#63b8ff" stroke="#63b8ff" points="191.9,-25.92 199.93,-19.01 189.34,-19.4 191.9,-25.92"/>
</a>
</g>
</g>
</g>
</svg>
