<?xml version="1.0" encoding="UTF-8" standalone="no"?>
<!DOCTYPE svg PUBLIC "-//W3C//DTD SVG 1.1//EN"
 "http://www.w3.org/Graphics/SVG/1.1/DTD/svg11.dtd">
<!-- Generated by graphviz version 2.43.0 (0)
 -->
<!-- Title: optimizer Pages: 1 -->
<svg width="262pt" height="607pt"
 viewBox="0.00 0.00 262.00 607.00" xmlns="http://www.w3.org/2000/svg" xmlns:xlink="http://www.w3.org/1999/xlink">
<g id="graph0" class="graph" transform="scale(1 1) rotate(0) translate(4 603)">
<title>optimizer</title>
<!-- Node1 -->
<g id="Node000001" class="node">
<title>Node1</title>
<g id="a_Node000001"><a xlink:title=" ">
<polygon fill="#999999" stroke="transparent" points="189.5,-214 44.5,-214 44.5,0 189.5,0 189.5,-214"/>
<text text-anchor="start" x="94" y="-202" font-family="Helvetica,sans-Serif" font-size="10.00">optimizer</text>
<text text-anchor="start" x="49" y="-187" font-family="Helvetica,sans-Serif" font-size="10.00">+</text>
<text text-anchor="start" x="62" y="-187" font-family="Helvetica,sans-Serif" font-size="10.00">m_settings</text>
<text text-anchor="start" x="49" y="-172" font-family="Helvetica,sans-Serif" font-size="10.00">+</text>
<text text-anchor="start" x="62" y="-172" font-family="Helvetica,sans-Serif" font-size="10.00">kfold_sessions</text>
<text text-anchor="start" x="49" y="-157" font-family="Helvetica,sans-Serif" font-size="10.00">+</text>
<text text-anchor="start" x="62" y="-157" font-family="Helvetica,sans-Serif" font-size="10.00">reports</text>
<text text-anchor="start" x="49" y="-142" font-family="Helvetica,sans-Serif" font-size="10.00">+</text>
<text text-anchor="start" x="62" y="-142" font-family="Helvetica,sans-Serif" font-size="10.00">metric</text>
<text text-anchor="start" x="49" y="-127" font-family="Helvetica,sans-Serif" font-size="10.00">+</text>
<text text-anchor="start" x="62" y="-127" font-family="Helvetica,sans-Serif" font-size="10.00">loader</text>
<text text-anchor="start" x="49" y="-112" font-family="Helvetica,sans-Serif" font-size="10.00">+</text>
<text text-anchor="start" x="62" y="-112" font-family="Helvetica,sans-Serif" font-size="10.00">optimizer()</text>
<text text-anchor="start" x="49" y="-97" font-family="Helvetica,sans-Serif" font-size="10.00">+</text>
<text text-anchor="start" x="62" y="-97" font-family="Helvetica,sans-Serif" font-size="10.00">~optimizer()</text>
<text text-anchor="start" x="49" y="-82" font-family="Helvetica,sans-Serif" font-size="10.00">+</text>
<text text-anchor="start" x="62" y="-82" font-family="Helvetica,sans-Serif" font-size="10.00">import_dataloader()</text>
<text text-anchor="start" x="49" y="-67" font-family="Helvetica,sans-Serif" font-size="10.00">+</text>
<text text-anchor="start" x="62" y="-67" font-family="Helvetica,sans-Serif" font-size="10.00">import_model_sessions()</text>
<text text-anchor="start" x="49" y="-52" font-family="Helvetica,sans-Serif" font-size="10.00">+</text>
<text text-anchor="start" x="62" y="-52" font-family="Helvetica,sans-Serif" font-size="10.00">training_loop()</text>
<text text-anchor="start" x="49" y="-37" font-family="Helvetica,sans-Serif" font-size="10.00">+</text>
<text text-anchor="start" x="62" y="-37" font-family="Helvetica,sans-Serif" font-size="10.00">validation_loop()</text>
<text text-anchor="start" x="49" y="-22" font-family="Helvetica,sans-Serif" font-size="10.00">+</text>
<text text-anchor="start" x="62" y="-22" font-family="Helvetica,sans-Serif" font-size="10.00">evaluation_loop()</text>
<text text-anchor="start" x="49" y="-7" font-family="Helvetica,sans-Serif" font-size="10.00">+</text>
<text text-anchor="start" x="62" y="-7" font-family="Helvetica,sans-Serif" font-size="10.00">launch_model()</text>
<polygon fill="#666666" stroke="#666666" points="45,-197 45,-197 190,-197 190,-197 45,-197"/>
<polygon fill="#666666" stroke="#666666" points="45,-122 45,-122 60,-122 60,-122 45,-122"/>
<polygon fill="#666666" stroke="#666666" points="60,-122 60,-122 190,-122 190,-122 60,-122"/>
<polygon fill="none" stroke="#666666" points="44.5,0 44.5,-214 189.5,-214 189.5,0 44.5,0"/>
</a>
</g>
</g>
<!-- Node2 -->
<g id="Node000002" class="node">
<title>Node2</title>
<g id="a_Node000002"><a xlink:href="classtools.html" target="_top" xlink:title="Provides a wide range of utility functions used throughout the framework.">
<polygon fill="white" stroke="transparent" points="98,-599 0,-599 0,-250 98,-250 98,-599"/>
<text text-anchor="start" x="36.5" y="-586.5" font-family="Helvetica,sans-Serif" font-size="10.00">tools</text>
<text text-anchor="start" x="47" y="-571.5" font-family="Helvetica,sans-Serif" font-size="10.00"> </text>
<text text-anchor="start" x="4" y="-556.5" font-family="Helvetica,sans-Serif" font-size="10.00">+</text>
<text text-anchor="start" x="17" y="-556.5" font-family="Helvetica,sans-Serif" font-size="10.00">tools()</text>
<text text-anchor="start" x="4" y="-541.5" font-family="Helvetica,sans-Serif" font-size="10.00">+</text>
<text text-anchor="start" x="17" y="-541.5" font-family="Helvetica,sans-Serif" font-size="10.00">~tools()</text>
<text text-anchor="start" x="4" y="-526.5" font-family="Helvetica,sans-Serif" font-size="10.00">+</text>
<text text-anchor="start" x="17" y="-526.5" font-family="Helvetica,sans-Serif" font-size="10.00">split()</text>
<text text-anchor="start" x="4" y="-511.5" font-family="Helvetica,sans-Serif" font-size="10.00">+</text>
<text text-anchor="start" x="17" y="-511.5" font-family="Helvetica,sans-Serif" font-size="10.00">trim()</text>
<text text-anchor="start" x="4" y="-496.5" font-family="Helvetica,sans-Serif" font-size="10.00">+</text>
<text text-anchor="start" x="17" y="-496.5" font-family="Helvetica,sans-Serif" font-size="10.00">type_name()</text>
<text text-anchor="start" x="4" y="-481.5" font-family="Helvetica,sans-Serif" font-size="10.00">+</text>
<text text-anchor="start" x="17" y="-481.5" font-family="Helvetica,sans-Serif" font-size="10.00">sum()</text>
<text text-anchor="start" x="4" y="-466.5" font-family="Helvetica,sans-Serif" font-size="10.00">+</text>
<text text-anchor="start" x="17" y="-466.5" font-family="Helvetica,sans-Serif" font-size="10.00">create_path()</text>
<text text-anchor="start" x="4" y="-451.5" font-family="Helvetica,sans-Serif" font-size="10.00">+</text>
<text text-anchor="start" x="17" y="-451.5" font-family="Helvetica,sans-Serif" font-size="10.00">delete_path()</text>
<text text-anchor="start" x="4" y="-436.5" font-family="Helvetica,sans-Serif" font-size="10.00">+</text>
<text text-anchor="start" x="17" y="-436.5" font-family="Helvetica,sans-Serif" font-size="10.00">is_file()</text>
<text text-anchor="start" x="4" y="-421.5" font-family="Helvetica,sans-Serif" font-size="10.00">+</text>
<text text-anchor="start" x="17" y="-421.5" font-family="Helvetica,sans-Serif" font-size="10.00">rename()</text>
<text text-anchor="start" x="4" y="-406.5" font-family="Helvetica,sans-Serif" font-size="10.00">+</text>
<text text-anchor="start" x="17" y="-406.5" font-family="Helvetica,sans-Serif" font-size="10.00">absolute_path()</text>
<text text-anchor="start" x="4" y="-391.5" font-family="Helvetica,sans-Serif" font-size="10.00">+</text>
<text text-anchor="start" x="17" y="-391.5" font-family="Helvetica,sans-Serif" font-size="10.00">ls()</text>
<text text-anchor="start" x="4" y="-376.5" font-family="Helvetica,sans-Serif" font-size="10.00">+</text>
<text text-anchor="start" x="17" y="-376.5" font-family="Helvetica,sans-Serif" font-size="10.00">to_string()</text>
<text text-anchor="start" x="4" y="-361.5" font-family="Helvetica,sans-Serif" font-size="10.00">+</text>
<text text-anchor="start" x="17" y="-361.5" font-family="Helvetica,sans-Serif" font-size="10.00">to_string()</text>
<text text-anchor="start" x="4" y="-346.5" font-family="Helvetica,sans-Serif" font-size="10.00">+</text>
<text text-anchor="start" x="17" y="-346.5" font-family="Helvetica,sans-Serif" font-size="10.00">replace()</text>
<text text-anchor="start" x="4" y="-331.5" font-family="Helvetica,sans-Serif" font-size="10.00">+</text>
<text text-anchor="start" x="17" y="-331.5" font-family="Helvetica,sans-Serif" font-size="10.00">has_string()</text>
<text text-anchor="start" x="4" y="-316.5" font-family="Helvetica,sans-Serif" font-size="10.00">+</text>
<text text-anchor="start" x="17" y="-316.5" font-family="Helvetica,sans-Serif" font-size="10.00">ends_with()</text>
<text text-anchor="start" x="4" y="-301.5" font-family="Helvetica,sans-Serif" font-size="10.00">+</text>
<text text-anchor="start" x="17" y="-301.5" font-family="Helvetica,sans-Serif" font-size="10.00">has_value()</text>
<text text-anchor="start" x="4" y="-286.5" font-family="Helvetica,sans-Serif" font-size="10.00">+</text>
<text text-anchor="start" x="17" y="-286.5" font-family="Helvetica,sans-Serif" font-size="10.00">flush()</text>
<text text-anchor="start" x="4" y="-271.5" font-family="Helvetica,sans-Serif" font-size="10.00">+</text>
<text text-anchor="start" x="17" y="-271.5" font-family="Helvetica,sans-Serif" font-size="10.00">put()</text>
<text text-anchor="start" x="4" y="-256.5" font-family="Helvetica,sans-Serif" font-size="10.00">+</text>
<text text-anchor="start" x="17" y="-256.5" font-family="Helvetica,sans-Serif" font-size="10.00">extract()</text>
<polygon fill="#666666" stroke="#666666" points="0,-581.5 0,-581.5 98,-581.5 98,-581.5 0,-581.5"/>
<polygon fill="#666666" stroke="#666666" points="0,-566.5 0,-566.5 98,-566.5 98,-566.5 0,-566.5"/>
<polygon fill="none" stroke="#666666" points="0,-250 0,-599 98,-599 98,-250 0,-250"/>
</a>
</g>
</g>
<!-- Node2&#45;&gt;Node1 -->
<g id="edge1_Node000001_Node000002" class="edge">
<title>Node2&#45;&gt;Node1</title>
<g id="a_edge1_Node000001_Node000002"><a xlink:title=" ">
<path fill="none" stroke="#63b8ff" d="M88.6,-239.79C90.46,-231.14 92.3,-222.59 94.1,-214.26"/>
<polygon fill="none" stroke="#63b8ff" points="85.17,-239.09 86.48,-249.6 92.01,-240.56 85.17,-239.09"/>
</a>
</g>
</g>
<!-- Node3 -->
<g id="Node000003" class="node">
<title>Node3</title>
<g id="a_Node000003"><a xlink:href="classnotification.html" target="_top" xlink:title="Provides logging and messaging functionality with various severity levels.">
<polygon fill="white" stroke="transparent" points="254,-576.5 116,-576.5 116,-272.5 254,-272.5 254,-576.5"/>
<text text-anchor="start" x="157.5" y="-564.5" font-family="Helvetica,sans-Serif" font-size="10.00">notification</text>
<text text-anchor="start" x="120" y="-549.5" font-family="Helvetica,sans-Serif" font-size="10.00">#</text>
<text text-anchor="start" x="133" y="-549.5" font-family="Helvetica,sans-Serif" font-size="10.00">prefix</text>
<text text-anchor="start" x="120" y="-534.5" font-family="Helvetica,sans-Serif" font-size="10.00">#</text>
<text text-anchor="start" x="133" y="-534.5" font-family="Helvetica,sans-Serif" font-size="10.00">debug_mode</text>
<text text-anchor="start" x="120" y="-519.5" font-family="Helvetica,sans-Serif" font-size="10.00">#</text>
<text text-anchor="start" x="133" y="-519.5" font-family="Helvetica,sans-Serif" font-size="10.00">suppress_warnings</text>
<text text-anchor="start" x="120" y="-504.5" font-family="Helvetica,sans-Serif" font-size="10.00">#</text>
<text text-anchor="start" x="133" y="-504.5" font-family="Helvetica,sans-Serif" font-size="10.00">suppress_info</text>
<text text-anchor="start" x="120" y="-489.5" font-family="Helvetica,sans-Serif" font-size="10.00">+</text>
<text text-anchor="start" x="133" y="-489.5" font-family="Helvetica,sans-Serif" font-size="10.00">notification()</text>
<text text-anchor="start" x="120" y="-474.5" font-family="Helvetica,sans-Serif" font-size="10.00">+</text>
<text text-anchor="start" x="133" y="-474.5" font-family="Helvetica,sans-Serif" font-size="10.00">~notification()</text>
<text text-anchor="start" x="120" y="-459.5" font-family="Helvetica,sans-Serif" font-size="10.00">+</text>
<text text-anchor="start" x="133" y="-459.5" font-family="Helvetica,sans-Serif" font-size="10.00">set_prefix()</text>
<text text-anchor="start" x="120" y="-444.5" font-family="Helvetica,sans-Serif" font-size="10.00">+</text>
<text text-anchor="start" x="133" y="-444.5" font-family="Helvetica,sans-Serif" font-size="10.00">get_prefix()</text>
<text text-anchor="start" x="120" y="-429.5" font-family="Helvetica,sans-Serif" font-size="10.00">+</text>
<text text-anchor="start" x="133" y="-429.5" font-family="Helvetica,sans-Serif" font-size="10.00">Info()</text>
<text text-anchor="start" x="120" y="-414.5" font-family="Helvetica,sans-Serif" font-size="10.00">+</text>
<text text-anchor="start" x="133" y="-414.5" font-family="Helvetica,sans-Serif" font-size="10.00">Warning()</text>
<text text-anchor="start" x="120" y="-399.5" font-family="Helvetica,sans-Serif" font-size="10.00">+</text>
<text text-anchor="start" x="133" y="-399.5" font-family="Helvetica,sans-Serif" font-size="10.00">Error()</text>
<text text-anchor="start" x="120" y="-384.5" font-family="Helvetica,sans-Serif" font-size="10.00">+</text>
<text text-anchor="start" x="133" y="-384.5" font-family="Helvetica,sans-Serif" font-size="10.00">Debug()</text>
<text text-anchor="start" x="120" y="-369.5" font-family="Helvetica,sans-Serif" font-size="10.00">+</text>
<text text-anchor="start" x="133" y="-369.5" font-family="Helvetica,sans-Serif" font-size="10.00">Message()</text>
<text text-anchor="start" x="120" y="-354.5" font-family="Helvetica,sans-Serif" font-size="10.00">+</text>
<text text-anchor="start" x="133" y="-354.5" font-family="Helvetica,sans-Serif" font-size="10.00">set_debug_mode()</text>
<text text-anchor="start" x="120" y="-339.5" font-family="Helvetica,sans-Serif" font-size="10.00">+</text>
<text text-anchor="start" x="133" y="-339.5" font-family="Helvetica,sans-Serif" font-size="10.00">get_debug_mode()</text>
<text text-anchor="start" x="120" y="-324.5" font-family="Helvetica,sans-Serif" font-size="10.00">+</text>
<text text-anchor="start" x="133" y="-324.5" font-family="Helvetica,sans-Serif" font-size="10.00">set_suppress_warning()</text>
<text text-anchor="start" x="120" y="-309.5" font-family="Helvetica,sans-Serif" font-size="10.00">+</text>
<text text-anchor="start" x="133" y="-309.5" font-family="Helvetica,sans-Serif" font-size="10.00">get_suppress_warning()</text>
<text text-anchor="start" x="120" y="-294.5" font-family="Helvetica,sans-Serif" font-size="10.00">+</text>
<text text-anchor="start" x="133" y="-294.5" font-family="Helvetica,sans-Serif" font-size="10.00">set_suppress_info()</text>
<text text-anchor="start" x="120" y="-279.5" font-family="Helvetica,sans-Serif" font-size="10.00">+</text>
<text text-anchor="start" x="133" y="-279.5" font-family="Helvetica,sans-Serif" font-size="10.00">get_suppress_info()</text>
<polygon fill="#666666" stroke="#666666" points="116,-559.5 116,-559.5 254,-559.5 254,-559.5 116,-559.5"/>
<polygon fill="#666666" stroke="#666666" points="116,-499.5 116,-499.5 131,-499.5 131,-499.5 116,-499.5"/>
<polygon fill="#666666" stroke="#666666" points="131,-499.5 131,-499.5 254,-499.5 254,-499.5 131,-499.5"/>
<polygon fill="none" stroke="#666666" points="116,-272.5 116,-576.5 254,-576.5 254,-272.5 116,-272.5"/>
</a>
</g>
</g>
<!-- Node3&#45;&gt;Node1 -->
<g id="edge2_Node000001_Node000003" class="edge">
<title>Node3&#45;&gt;Node1</title>
<g id="a_edge2_Node000001_Node000003"><a xlink:title=" ">
<path fill="none" stroke="#63b8ff" d="M150.21,-262.1C146.71,-245.85 143.22,-229.66 139.89,-214.2"/>
<polygon fill="none" stroke="#63b8ff" points="146.87,-263.18 152.39,-272.22 153.71,-261.71 146.87,-263.18"/>
</a>
</g>
</g>
</g>
</svg>
