<?xml version="1.0" encoding="UTF-8" standalone="no"?>
<!DOCTYPE svg PUBLIC "-//W3C//DTD SVG 1.1//EN"
 "http://www.w3.org/Graphics/SVG/1.1/DTD/svg11.dtd">
<!-- Generated by graphviz version 2.43.0 (0)
 -->
<!-- Title: tools::is_file Pages: 1 -->
<!--zoomable 209 -->

<svg id="main" version="1.1" xmlns="http://www.w3.org/2000/svg" xmlns:xlink="http://www.w3.org/1999/xlink" xml:space="preserve" onload="init(evt)">
<style type="text/css"><![CDATA[
.node, .edge {opacity: 0.7;}
.node.selected, .edge.selected {opacity: 1;}
.edge:hover path { stroke: red; }
.edge:hover polygon { stroke: red; fill: red; }
]]></style>

<defs>
  <circle id="rim" cx="0" cy="0" r="7"/>
  <circle id="rim2" cx="0" cy="0" r="3.5"/>
  <g id="zoomPlus">
    <use xlink:href="#rim" fill="#404040"><set attributeName="fill" to="#808080" begin="zoomplus.mouseover" end="zoomplus.mouseout"/></use>
    <path d="M-4,0h8M0,-4v8" fill="none" stroke="white" stroke-width="1.5" pointer-events="none"/>
  </g>
  <g id="zoomMin">
    <use xlink:href="#rim" fill="#404040"><set attributeName="fill" to="#808080" begin="zoomminus.mouseover" end="zoomminus.mouseout"/></use>
    <path d="M-4,0h8" fill="none" stroke="white" stroke-width="1.5" pointer-events="none"/>
  </g>
  <g id="arrowUp" transform="translate(30 24)">
    <use xlink:href="#rim"/>
    <path pointer-events="none" fill="none" stroke="white" stroke-width="1.5" d="M0,-3.0v7 M-2.5,-0.5L0,-3.0L2.5,-0.5"/>
  </g>
  <g id="arrowRight" transform="rotate(90) translate(36 -43)">
    <use xlink:href="#rim"/>
    <path pointer-events="none" fill="none" stroke="white" stroke-width="1.5" d="M0,-3.0v7 M-2.5,-0.5L0,-3.0L2.5,-0.5"/>
  </g>
  <g id="arrowDown" transform="rotate(180) translate(-30 -48)">
    <use xlink:href="#rim"/>
    <path pointer-events="none" fill="none" stroke="white" stroke-width="1.5" d="M0,-3.0v7 M-2.5,-0.5L0,-3.0L2.5,-0.5"/>
  </g>
  <g id="arrowLeft" transform="rotate(270) translate(-36 17)">
    <use xlink:href="#rim"/>
    <path pointer-events="none" fill="none" stroke="white" stroke-width="1.5" d="M0,-3.0v7 M-2.5,-0.5L0,-3.0L2.5,-0.5"/>
  </g>
  <g id="resetDef">
    <use xlink:href="#rim2" fill="#404040"><set attributeName="fill" to="#808080" begin="reset.mouseover" end="reset.mouseout"/></use>
  </g>
</defs>
<script type="application/ecmascript">
var viewWidth = 776;
var viewHeight = 209;
var sectionId = 'dynsection-25';
</script>
<script type="application/ecmascript" xlink:href="svg.min.js"/>
<svg id="graph" class="graph">
<g id="viewport">
<title>tools::is_file</title>
<!-- Node1 -->
<g id="Node000001" class="node">
<title>Node1</title>
<g id="a_Node000001"><a xlink:title="Checks if a path refers to an existing file.">
<polygon fill="#999999" stroke="#666666" points="768,-130.5 693,-130.5 693,-111.5 768,-111.5 768,-130.5"/>
<text text-anchor="middle" x="730.5" y="-118.5" font-family="Helvetica,sans-Serif" font-size="10.00">tools::is_file</text>
</a>
</g>
</g>
<!-- Node2 -->
<g id="Node000002" class="node">
<title>Node2</title>
<g id="a_Node000002"><a xlink:href="classio.html#ad9ed4dbed35a168511c44b38f8e8269b" target="_top" xlink:title="Checks the validity or accessibility of ROOT file paths defined in settings or configurations.">
<polygon fill="white" stroke="#666666" points="644,-201 539,-201 539,-171 644,-171 644,-201"/>
<text text-anchor="start" x="547" y="-189" font-family="Helvetica,sans-Serif" font-size="10.00">io::check_root_file</text>
<text text-anchor="middle" x="591.5" y="-178" font-family="Helvetica,sans-Serif" font-size="10.00">_paths</text>
</a>
</g>
</g>
<!-- Node1&#45;&gt;Node2 -->
<g id="edge1_Node000001_Node000002" class="edge">
<title>Node1&#45;&gt;Node2</title>
<g id="a_edge1_Node000001_Node000002"><a xlink:title=" ">
<path fill="none" stroke="#63b8ff" d="M705.43,-135.89C691.55,-144.14 673.62,-154.27 657,-162 650.28,-165.12 643.04,-168.14 635.91,-170.92"/>
<polygon fill="#63b8ff" stroke="#63b8ff" points="707.56,-138.69 714.32,-130.52 703.95,-132.69 707.56,-138.69"/>
</a>
</g>
</g>
<!-- Node3 -->
<g id="Node000003" class="node">
<title>Node3</title>
<g id="a_Node000003"><a xlink:href="classanalysis.html#a1c8b808d255b490be4ea86df4d29cdf1" target="_top" xlink:title="Static method to initialize a training loop for an optimizer.">
<polygon fill="white" stroke="#666666" points="657,-152.5 526,-152.5 526,-133.5 657,-133.5 657,-152.5"/>
<text text-anchor="middle" x="591.5" y="-140.5" font-family="Helvetica,sans-Serif" font-size="10.00">analysis::initialize_loop</text>
</a>
</g>
</g>
<!-- Node1&#45;&gt;Node3 -->
<g id="edge2_Node000001_Node000003" class="edge">
<title>Node1&#45;&gt;Node3</title>
<g id="a_edge2_Node000001_Node000003"><a xlink:title=" ">
<path fill="none" stroke="#63b8ff" d="M682.71,-128.51C672.77,-130.11 662.15,-131.82 651.81,-133.48"/>
<polygon fill="#63b8ff" stroke="#63b8ff" points="683.47,-131.94 692.79,-126.9 682.36,-125.03 683.47,-131.94"/>
</a>
</g>
</g>
<!-- Node7 -->
<g id="Node000007" class="node">
<title>Node7</title>
<g id="a_Node000007"><a xlink:href="classmetric__template.html#ad34828d0d75d5b0a656ef881620fbc7c" target="_top" xlink:title=" ">
<polygon fill="white" stroke="#666666" points="651,-115 532,-115 532,-85 651,-85 651,-115"/>
<text text-anchor="start" x="540" y="-103" font-family="Helvetica,sans-Serif" font-size="10.00">metric_template::set</text>
<text text-anchor="middle" x="591.5" y="-92" font-family="Helvetica,sans-Serif" font-size="10.00">_run_name</text>
</a>
</g>
</g>
<!-- Node1&#45;&gt;Node7 -->
<g id="edge7_Node000001_Node000007" class="edge">
<title>Node1&#45;&gt;Node7</title>
<g id="a_edge7_Node000001_Node000007"><a xlink:title=" ">
<path fill="none" stroke="#63b8ff" d="M682.84,-113.85C672.61,-112.28 661.65,-110.6 651.02,-108.97"/>
<polygon fill="#63b8ff" stroke="#63b8ff" points="682.37,-117.32 692.79,-115.37 683.43,-110.4 682.37,-117.32"/>
</a>
</g>
</g>
<!-- Node12 -->
<g id="Node000012" class="node">
<title>Node12</title>
<g id="a_Node000012"><a xlink:href="classio.html#a228b6ce6f26848a9adfc0ccf3619a53e" target="_top" xlink:title="Starts an I/O session, opening a file for reading or writing.">
<polygon fill="white" stroke="#666666" points="618.5,-64.5 564.5,-64.5 564.5,-45.5 618.5,-45.5 618.5,-64.5"/>
<text text-anchor="middle" x="591.5" y="-52.5" font-family="Helvetica,sans-Serif" font-size="10.00">io::start</text>
</a>
</g>
</g>
<!-- Node1&#45;&gt;Node12 -->
<g id="edge12_Node000001_Node000012" class="edge">
<title>Node1&#45;&gt;Node12</title>
<g id="a_edge12_Node000001_Node000012"><a xlink:title=" ">
<path fill="none" stroke="#63b8ff" d="M707.71,-105.55C693.71,-96.11 674.85,-84.3 657,-76 644.83,-70.34 630.7,-65.56 618.78,-61.99"/>
<polygon fill="#63b8ff" stroke="#63b8ff" points="705.93,-108.57 716.16,-111.35 709.89,-102.8 705.93,-108.57"/>
</a>
</g>
</g>
<!-- Node4 -->
<g id="Node000004" class="node">
<title>Node4</title>
<g id="a_Node000004"><a xlink:href="classanalysis.html#a9e329f763a57c75ca47bec379fab102e" target="_top" xlink:title="Sets up and configures machine learning model sessions for training or inference.">
<polygon fill="white" stroke="#666666" points="484,-163 361,-163 361,-133 484,-133 484,-163"/>
<text text-anchor="start" x="369" y="-151" font-family="Helvetica,sans-Serif" font-size="10.00">analysis::build_model</text>
<text text-anchor="middle" x="422.5" y="-140" font-family="Helvetica,sans-Serif" font-size="10.00">_session</text>
</a>
</g>
</g>
<!-- Node3&#45;&gt;Node4 -->
<g id="edge3_Node000003_Node000004" class="edge">
<title>Node3&#45;&gt;Node4</title>
<g id="a_edge3_Node000003_Node000004"><a xlink:title=" ">
<path fill="none" stroke="#63b8ff" d="M515.83,-145.24C505.2,-145.55 494.38,-145.88 484.06,-146.19"/>
<polygon fill="#63b8ff" stroke="#63b8ff" points="516.04,-148.73 525.93,-144.93 515.83,-141.73 516.04,-148.73"/>
</a>
</g>
</g>
<!-- Node5 -->
<g id="Node000005" class="node">
<title>Node5</title>
<g id="a_Node000005"><a xlink:href="classanalysis.html#a401745bb4bcae03160ffa0b5df2887e7" target="_top" xlink:title="Starts the analysis execution.">
<polygon fill="white" stroke="#666666" points="291.5,-157.5 205.5,-157.5 205.5,-138.5 291.5,-138.5 291.5,-157.5"/>
<text text-anchor="middle" x="248.5" y="-145.5" font-family="Helvetica,sans-Serif" font-size="10.00">analysis::start</text>
</a>
</g>
</g>
<!-- Node4&#45;&gt;Node5 -->
<g id="edge4_Node000004_Node000005" class="edge">
<title>Node4&#45;&gt;Node5</title>
<g id="a_edge4_Node000004_Node000005"><a xlink:title=" ">
<path fill="none" stroke="#63b8ff" d="M350.78,-148C330.65,-148 309.36,-148 291.53,-148"/>
<polygon fill="#63b8ff" stroke="#63b8ff" points="350.86,-151.5 360.86,-148 350.86,-144.5 350.86,-151.5"/>
</a>
</g>
</g>
<!-- Node6 -->
<g id="Node000006" class="node">
<title>Node6</title>
<g id="a_Node000006"><a xlink:href="classanalysis.html#aa5f5f1de2fe05c9fb8c5c0fffbf7b938" target="_top" xlink:title="Fetches tags, possibly related to data versions, processing stages, or k&#45;folds.">
<polygon fill="white" stroke="#666666" points="125.5,-157.5 16.5,-157.5 16.5,-138.5 125.5,-138.5 125.5,-157.5"/>
<text text-anchor="middle" x="71" y="-145.5" font-family="Helvetica,sans-Serif" font-size="10.00">analysis::fetchtags</text>
</a>
</g>
</g>
<!-- Node5&#45;&gt;Node6 -->
<g id="edge5_Node000005_Node000006" class="edge">
<title>Node5&#45;&gt;Node6</title>
<g id="a_edge5_Node000005_Node000006"><a xlink:title=" ">
<path fill="none" stroke="#63b8ff" d="M195.32,-141.77C173.35,-141.09 147.8,-141.08 125.67,-141.72"/>
<polygon fill="#63b8ff" stroke="#63b8ff" points="195.34,-145.27 205.46,-142.14 195.6,-138.28 195.34,-145.27"/>
</a>
</g>
</g>
<!-- Node6&#45;&gt;Node5 -->
<g id="edge6_Node000006_Node000005" class="edge">
<title>Node6&#45;&gt;Node5</title>
<g id="a_edge6_Node000006_Node000005"><a xlink:title=" ">
<path fill="none" stroke="#63b8ff" d="M135.79,-154.52C158.99,-154.97 184.62,-154.75 205.46,-153.86"/>
<polygon fill="#63b8ff" stroke="#63b8ff" points="135.75,-151.02 125.67,-154.28 135.58,-158.02 135.75,-151.02"/>
</a>
</g>
</g>
<!-- Node8 -->
<g id="Node000008" class="node">
<title>Node8</title>
<g id="a_Node000008"><a xlink:href="classmetric__template.html#a4f076b39d712cc1ed944d25328bcc271" target="_top" xlink:title=" ">
<polygon fill="white" stroke="#666666" points="490,-115 355,-115 355,-85 490,-85 490,-115"/>
<text text-anchor="start" x="363" y="-103" font-family="Helvetica,sans-Serif" font-size="10.00">metric_template::metric</text>
<text text-anchor="middle" x="422.5" y="-92" font-family="Helvetica,sans-Serif" font-size="10.00">_template</text>
</a>
</g>
</g>
<!-- Node7&#45;&gt;Node8 -->
<g id="edge8_Node000007_Node000008" class="edge">
<title>Node7&#45;&gt;Node8</title>
<g id="a_edge8_Node000007_Node000008"><a xlink:title=" ">
<path fill="none" stroke="#63b8ff" d="M521.4,-100C511.05,-100 500.4,-100 490.11,-100"/>
<polygon fill="#63b8ff" stroke="#63b8ff" points="521.62,-103.5 531.62,-100 521.62,-96.5 521.62,-103.5"/>
</a>
</g>
</g>
<!-- Node9 -->
<g id="Node000009" class="node">
<title>Node9</title>
<g id="a_Node000009"><a xlink:href="classmetric__template.html#ad4020c5c29a7944e9cadd244fd11e952" target="_top" xlink:title=" ">
<polygon fill="white" stroke="#666666" points="313.5,-109.5 183.5,-109.5 183.5,-90.5 313.5,-90.5 313.5,-109.5"/>
<text text-anchor="middle" x="248.5" y="-97.5" font-family="Helvetica,sans-Serif" font-size="10.00">metric_template::clone</text>
</a>
</g>
</g>
<!-- Node8&#45;&gt;Node9 -->
<g id="edge9_Node000008_Node000009" class="edge">
<title>Node8&#45;&gt;Node9</title>
<g id="a_edge9_Node000008_Node000009"><a xlink:title=" ">
<path fill="none" stroke="#63b8ff" d="M344.36,-100C334.14,-100 323.75,-100 313.77,-100"/>
<polygon fill="#63b8ff" stroke="#63b8ff" points="344.51,-103.5 354.51,-100 344.51,-96.5 344.51,-103.5"/>
</a>
</g>
</g>
<!-- Node10 -->
<g id="Node000010" class="node">
<title>Node10</title>
<g id="a_Node000010"><a xlink:href="classmetric__template.html#a6df640366841f67134f080372ee9a0c5" target="_top" xlink:title=" ">
<polygon fill="white" stroke="#666666" points="136,-115.5 6,-115.5 6,-96.5 136,-96.5 136,-115.5"/>
<text text-anchor="middle" x="71" y="-103.5" font-family="Helvetica,sans-Serif" font-size="10.00">metric_template::clone</text>
</a>
</g>
</g>
<!-- Node9&#45;&gt;Node10 -->
<g id="edge10_Node000009_Node000010" class="edge">
<title>Node9&#45;&gt;Node10</title>
<g id="a_edge10_Node000009_Node000010"><a xlink:title=" ">
<path fill="none" stroke="#63b8ff" d="M172.94,-102.55C160.67,-102.97 148.04,-103.4 136.05,-103.81"/>
<polygon fill="#63b8ff" stroke="#63b8ff" points="173.27,-106.04 183.15,-102.2 173.03,-99.04 173.27,-106.04"/>
</a>
</g>
</g>
<!-- Node11 -->
<g id="Node000011" class="node">
<title>Node11</title>
<g id="a_Node000011"><a xlink:href="classmetric__template.html#a422951eb9279ed05c885795ebeed0e5b" target="_top" xlink:title=" ">
<polygon fill="white" stroke="#666666" points="142,-78.5 0,-78.5 0,-59.5 142,-59.5 142,-78.5"/>
<text text-anchor="middle" x="71" y="-66.5" font-family="Helvetica,sans-Serif" font-size="10.00">metric_template::execute</text>
</a>
</g>
</g>
<!-- Node9&#45;&gt;Node11 -->
<g id="edge11_Node000009_Node000011" class="edge">
<title>Node9&#45;&gt;Node11</title>
<g id="a_edge11_Node000009_Node000011"><a xlink:title=" ">
<path fill="none" stroke="#63b8ff" d="M183.41,-88.68C164.53,-85.34 144.08,-81.73 125.91,-78.52"/>
<polygon fill="#63b8ff" stroke="#63b8ff" points="182.96,-92.15 193.41,-90.45 184.17,-85.26 182.96,-92.15"/>
</a>
</g>
</g>
<!-- Node13 -->
<g id="Node000013" class="node">
<title>Node13</title>
<g id="a_Node000013"><a xlink:href="classdataloader.html#a52b546c96dec81d3860fb7e6268b097a" target="_top" xlink:title=" ">
<polygon fill="white" stroke="#666666" points="477.5,-67 367.5,-67 367.5,-37 477.5,-37 477.5,-67"/>
<text text-anchor="start" x="375.5" y="-55" font-family="Helvetica,sans-Serif" font-size="10.00">dataloader::restore</text>
<text text-anchor="middle" x="422.5" y="-44" font-family="Helvetica,sans-Serif" font-size="10.00">_graphs_</text>
</a>
</g>
</g>
<!-- Node12&#45;&gt;Node13 -->
<g id="edge13_Node000012_Node000013" class="edge">
<title>Node12&#45;&gt;Node13</title>
<g id="a_edge13_Node000012_Node000013"><a xlink:title=" ">
<path fill="none" stroke="#63b8ff" d="M554.33,-54.35C531.96,-53.95 502.82,-53.42 477.72,-52.97"/>
<polygon fill="#63b8ff" stroke="#63b8ff" points="554.34,-57.85 564.41,-54.53 554.47,-50.85 554.34,-57.85"/>
</a>
</g>
</g>
<!-- Node14 -->
<g id="Node000014" class="node">
<title>Node14</title>
<g id="a_Node000014"><a xlink:href="classdataloader.html#a04c94d9be735c32b80b6599c6bd993b4" target="_top" xlink:title=" ">
<polygon fill="white" stroke="#666666" points="319,-67.5 178,-67.5 178,-48.5 319,-48.5 319,-67.5"/>
<text text-anchor="middle" x="248.5" y="-55.5" font-family="Helvetica,sans-Serif" font-size="10.00">dataloader::dump_graphs</text>
</a>
</g>
</g>
<!-- Node13&#45;&gt;Node14 -->
<g id="edge14_Node000013_Node000014" class="edge">
<title>Node13&#45;&gt;Node14</title>
<g id="a_edge14_Node000013_Node000014"><a xlink:title=" ">
<path fill="none" stroke="#63b8ff" d="M356.87,-54.25C344.51,-54.69 331.53,-55.14 319.03,-55.57"/>
<polygon fill="#63b8ff" stroke="#63b8ff" points="357.21,-57.75 367.08,-53.9 356.96,-50.75 357.21,-57.75"/>
</a>
</g>
</g>
<!-- Node15 -->
<g id="Node000015" class="node">
<title>Node15</title>
<g id="a_Node000015"><a xlink:href="classdataloader.html#aed6ec872879a44ecfa9ae1c2188690a8" target="_top" xlink:title=" ">
<polygon fill="white" stroke="#666666" points="303.5,-30 193.5,-30 193.5,0 303.5,0 303.5,-30"/>
<text text-anchor="start" x="201.5" y="-18" font-family="Helvetica,sans-Serif" font-size="10.00">dataloader::restore</text>
<text text-anchor="middle" x="248.5" y="-7" font-family="Helvetica,sans-Serif" font-size="10.00">_graphs</text>
</a>
</g>
</g>
<!-- Node13&#45;&gt;Node15 -->
<g id="edge15_Node000013_Node000015" class="edge">
<title>Node13&#45;&gt;Node15</title>
<g id="a_edge15_Node000013_Node000015"><a xlink:title=" ">
<path fill="none" stroke="#63b8ff" d="M356.9,-38.1C339.33,-34.32 320.49,-30.27 303.57,-26.63"/>
<polygon fill="#63b8ff" stroke="#63b8ff" points="356.57,-41.61 367.08,-40.29 358.04,-34.77 356.57,-41.61"/>
</a>
</g>
</g>
<!-- Node16 -->
<g id="Node000016" class="node">
<title>Node16</title>
<g id="a_Node000016"><a xlink:href="classdataloader.html#ae3bba702555507d8b6e5567c34d19142" target="_top" xlink:title=" ">
<polygon fill="white" stroke="#666666" points="126,-30 16,-30 16,0 126,0 126,-30"/>
<text text-anchor="start" x="24" y="-18" font-family="Helvetica,sans-Serif" font-size="10.00">dataloader::restore</text>
<text text-anchor="middle" x="71" y="-7" font-family="Helvetica,sans-Serif" font-size="10.00">_graphs</text>
</a>
</g>
</g>
<!-- Node15&#45;&gt;Node16 -->
<g id="edge16_Node000015_Node000016" class="edge">
<title>Node15&#45;&gt;Node16</title>
<g id="a_edge16_Node000015_Node000016"><a xlink:title=" ">
<path fill="none" stroke="#63b8ff" d="M183.2,-15C164.49,-15 144.24,-15 126.21,-15"/>
<polygon fill="#63b8ff" stroke="#63b8ff" points="183.41,-18.5 193.41,-15 183.41,-11.5 183.41,-18.5"/>
</a>
</g>
</g>
</g>
</svg>

<g id="navigator" transform="translate(0 0)" fill="#404254">
  <rect fill="#f2f5e9" fill-opacity="0.5" stroke="#606060" stroke-width=".5" x="0" y="0" width="60" height="60"/>
  <use id="zoomplus" xlink:href="#zoomPlus" x="17" y="9" onmousedown="handleZoom(evt,'in')"/>
  <use id="zoomminus" xlink:href="#zoomMin" x="42" y="9" onmousedown="handleZoom(evt,'out')"/>
  <use id="reset" xlink:href="#resetDef" x="30" y="36" onmousedown="handleReset()"/>
   <use id="arrowup" xlink:href="#arrowUp" x="0" y="0" onmousedown="handlePan(0,-1)"/>
  <use id="arrowright" xlink:href="#arrowRight" x="0" y="0" onmousedown="handlePan(1,0)"/>
  <use id="arrowdown" xlink:href="#arrowDown" x="0" y="0" onmousedown="handlePan(0,1)"/>
  <use id="arrowleft" xlink:href="#arrowLeft" x="0" y="0" onmousedown="handlePan(-1,0)"/>
</g>
<svg viewBox="0 0 15 15" width="100%" height="30px" preserveAspectRatio="xMaxYMin meet">
 <g id="arrow_out" transform="scale(0.3 0.3)">
  <a xlink:href="classtools_a47d3d261edcb898daab56721e18d1e67_icgraph_org.svg" target="_base">
   <rect id="button" ry="5" rx="5" y="6" x="6" height="38" width="38"
        fill="#f2f5e9" fill-opacity="0.5" stroke="#606060" stroke-width="1.0"/>
   <path id="arrow"
     d="M 11.500037,31.436501 C 11.940474,20.09759 22.043105,11.32322 32.158766,21.979434 L 37.068811,17.246167 C 37.068811,17.246167 37.088388,32 37.088388,32 L 22.160133,31.978069 C 22.160133,31.978069 26.997745,27.140456 26.997745,27.140456 C 18.528582,18.264221 13.291696,25.230495 11.500037,31.436501 z"
     style="fill:#404040;"/>
  </a>
 </g>
</svg>

<style type='text/css'>
<![CDATA[
[data-mouse-over-selected='false'] { opacity: 0.7; }
[data-mouse-over-selected='true']  { opacity: 1.0; }
]]>
</style>
<script type="application/ecmascript"><![CDATA[
document.addEventListener('DOMContentLoaded', (event) => {
  highlightEdges();
  highlightAdjacentNodes();
});
]]></script>
</svg>
