<?xml version="1.0" encoding="UTF-8" standalone="no"?>
<!DOCTYPE svg PUBLIC "-//W3C//DTD SVG 1.1//EN"
 "http://www.w3.org/Graphics/SVG/1.1/DTD/svg11.dtd">
<!-- Generated by graphviz version 2.43.0 (0)
 -->
<!-- Title: graph_template::build Pages: 1 -->
<!--zoomable 407 -->

<svg id="main" version="1.1" xmlns="http://www.w3.org/2000/svg" xmlns:xlink="http://www.w3.org/1999/xlink" xml:space="preserve" onload="init(evt)">
<style type="text/css"><![CDATA[
.node, .edge {opacity: 0.7;}
.node.selected, .edge.selected {opacity: 1;}
.edge:hover path { stroke: red; }
.edge:hover polygon { stroke: red; fill: red; }
]]></style>

<defs>
  <circle id="rim" cx="0" cy="0" r="7"/>
  <circle id="rim2" cx="0" cy="0" r="3.5"/>
  <g id="zoomPlus">
    <use xlink:href="#rim" fill="#404040"><set attributeName="fill" to="#808080" begin="zoomplus.mouseover" end="zoomplus.mouseout"/></use>
    <path d="M-4,0h8M0,-4v8" fill="none" stroke="white" stroke-width="1.5" pointer-events="none"/>
  </g>
  <g id="zoomMin">
    <use xlink:href="#rim" fill="#404040"><set attributeName="fill" to="#808080" begin="zoomminus.mouseover" end="zoomminus.mouseout"/></use>
    <path d="M-4,0h8" fill="none" stroke="white" stroke-width="1.5" pointer-events="none"/>
  </g>
  <g id="arrowUp" transform="translate(30 24)">
    <use xlink:href="#rim"/>
    <path pointer-events="none" fill="none" stroke="white" stroke-width="1.5" d="M0,-3.0v7 M-2.5,-0.5L0,-3.0L2.5,-0.5"/>
  </g>
  <g id="arrowRight" transform="rotate(90) translate(36 -43)">
    <use xlink:href="#rim"/>
    <path pointer-events="none" fill="none" stroke="white" stroke-width="1.5" d="M0,-3.0v7 M-2.5,-0.5L0,-3.0L2.5,-0.5"/>
  </g>
  <g id="arrowDown" transform="rotate(180) translate(-30 -48)">
    <use xlink:href="#rim"/>
    <path pointer-events="none" fill="none" stroke="white" stroke-width="1.5" d="M0,-3.0v7 M-2.5,-0.5L0,-3.0L2.5,-0.5"/>
  </g>
  <g id="arrowLeft" transform="rotate(270) translate(-36 17)">
    <use xlink:href="#rim"/>
    <path pointer-events="none" fill="none" stroke="white" stroke-width="1.5" d="M0,-3.0v7 M-2.5,-0.5L0,-3.0L2.5,-0.5"/>
  </g>
  <g id="resetDef">
    <use xlink:href="#rim2" fill="#404040"><set attributeName="fill" to="#808080" begin="reset.mouseover" end="reset.mouseout"/></use>
  </g>
</defs>
<script type="application/ecmascript">
var viewWidth = 642;
var viewHeight = 407;
var sectionId = 'dynsection-46';
</script>
<script type="application/ecmascript" xlink:href="svg.min.js"/>
<svg id="graph" class="graph">
<g id="viewport">
<title>graph_template::build</title>
<!-- Node1 -->
<g id="Node000001" class="node">
<title>Node1</title>
<g id="a_Node000001"><a xlink:title=" ">
<polygon fill="#999999" stroke="#666666" points="124,-200 0,-200 0,-181 124,-181 124,-200"/>
<text text-anchor="middle" x="62" y="-188" font-family="Helvetica,sans-Serif" font-size="10.00">graph_template::build</text>
</a>
</g>
</g>
<!-- Node2 -->
<g id="Node000002" class="node">
<title>Node2</title>
<g id="a_Node000002"><a xlink:href="classgraph__template.html#a010ead65c4f69b55b480f425e4f676e6" target="_top" xlink:title="Creates a clone of this graph template.">
<polygon fill="white" stroke="#666666" points="286,-200 160,-200 160,-181 286,-181 286,-200"/>
<text text-anchor="middle" x="223" y="-188" font-family="Helvetica,sans-Serif" font-size="10.00">graph_template::clone</text>
</a>
</g>
</g>
<!-- Node1&#45;&gt;Node2 -->
<g id="edge1_Node000001_Node000002" class="edge">
<title>Node1&#45;&gt;Node2</title>
<g id="a_edge1_Node000001_Node000002"><a xlink:title=" ">
<path fill="none" stroke="#63b8ff" d="M124.02,-190.5C132.45,-190.5 141.18,-190.5 149.8,-190.5"/>
<polygon fill="#63b8ff" stroke="#63b8ff" points="149.83,-194 159.83,-190.5 149.83,-187 149.83,-194"/>
</a>
</g>
</g>
<!-- Node3 -->
<g id="Node000003" class="node">
<title>Node3</title>
<g id="a_Node000003"><a xlink:href="classgraph__template.html#ad496a2818827b70a95f491889b71663a" target="_top" xlink:title="Default constructor.">
<polygon fill="white" stroke="#666666" points="450,-205.5 322,-205.5 322,-175.5 450,-175.5 450,-205.5"/>
<text text-anchor="start" x="330" y="-193.5" font-family="Helvetica,sans-Serif" font-size="10.00">graph_template::graph</text>
<text text-anchor="middle" x="386" y="-182.5" font-family="Helvetica,sans-Serif" font-size="10.00">_template</text>
</a>
</g>
</g>
<!-- Node2&#45;&gt;Node3 -->
<g id="edge2_Node000002_Node000003" class="edge">
<title>Node2&#45;&gt;Node3</title>
<g id="a_edge2_Node000002_Node000003"><a xlink:title=" ">
<path fill="none" stroke="#63b8ff" d="M286.25,-190.5C294.55,-190.5 303.13,-190.5 311.6,-190.5"/>
<polygon fill="#63b8ff" stroke="#63b8ff" points="311.86,-194 321.86,-190.5 311.86,-187 311.86,-194"/>
</a>
</g>
</g>
<!-- Node4 -->
<g id="Node000004" class="node">
<title>Node4</title>
<g id="a_Node000004"><a xlink:href="classgraph__template.html#a5558df2fc4026ed00b1575ded3f38c94" target="_top" xlink:title=" ">
<polygon fill="white" stroke="#666666" points="632,-399 488,-399 488,-380 632,-380 632,-399"/>
<text text-anchor="middle" x="560" y="-387" font-family="Helvetica,sans-Serif" font-size="10.00">graph_template::get_hash</text>
</a>
</g>
</g>
<!-- Node3&#45;&gt;Node4 -->
<g id="edge3_Node000003_Node000004" class="edge">
<title>Node3&#45;&gt;Node4</title>
<g id="a_edge3_Node000003_Node000004"><a xlink:title=" ">
<path fill="none" stroke="#63b8ff" d="M390.91,-205.76C400.66,-240.62 429.43,-326.48 486,-370.5 488.33,-372.31 490.81,-373.95 493.4,-375.43"/>
<polygon fill="#63b8ff" stroke="#63b8ff" points="492.04,-378.66 502.56,-379.9 495.11,-372.37 492.04,-378.66"/>
</a>
</g>
</g>
<!-- Node5 -->
<g id="Node000005" class="node">
<title>Node5</title>
<g id="a_Node000005"><a xlink:href="classgraph__template.html#a8bef9120a542dd7187b2b498a1333652" target="_top" xlink:title=" ">
<polygon fill="white" stroke="#666666" points="618,-361.5 502,-361.5 502,-331.5 618,-331.5 618,-361.5"/>
<text text-anchor="start" x="510" y="-349.5" font-family="Helvetica,sans-Serif" font-size="10.00">graph_template::get</text>
<text text-anchor="middle" x="560" y="-338.5" font-family="Helvetica,sans-Serif" font-size="10.00">_index</text>
</a>
</g>
</g>
<!-- Node3&#45;&gt;Node5 -->
<g id="edge4_Node000003_Node000005" class="edge">
<title>Node3&#45;&gt;Node5</title>
<g id="a_edge4_Node000003_Node000005"><a xlink:title=" ">
<path fill="none" stroke="#63b8ff" d="M394.31,-205.54C408.32,-232.82 441.55,-290.6 486,-322.5 488.13,-324.03 490.37,-325.47 492.68,-326.82"/>
<polygon fill="#63b8ff" stroke="#63b8ff" points="491.42,-330.11 501.91,-331.6 494.64,-323.89 491.42,-330.11"/>
</a>
</g>
</g>
<!-- Node6 -->
<g id="Node000006" class="node">
<title>Node6</title>
<g id="a_Node000006"><a xlink:href="classgraph__template.html#a21b4c1706652c47441205a8a8efaabff" target="_top" xlink:title=" ">
<polygon fill="white" stroke="#666666" points="618,-313.5 502,-313.5 502,-283.5 618,-283.5 618,-313.5"/>
<text text-anchor="start" x="510" y="-301.5" font-family="Helvetica,sans-Serif" font-size="10.00">graph_template::get</text>
<text text-anchor="middle" x="560" y="-290.5" font-family="Helvetica,sans-Serif" font-size="10.00">_preselection</text>
</a>
</g>
</g>
<!-- Node3&#45;&gt;Node6 -->
<g id="edge5_Node000003_Node000006" class="edge">
<title>Node3&#45;&gt;Node6</title>
<g id="a_edge5_Node000003_Node000006"><a xlink:title=" ">
<path fill="none" stroke="#63b8ff" d="M401.06,-205.58C419.11,-224.15 452.18,-255.55 486,-274.5 489.06,-276.21 492.26,-277.83 495.55,-279.35"/>
<polygon fill="#63b8ff" stroke="#63b8ff" points="494.39,-282.66 504.96,-283.37 497.14,-276.22 494.39,-282.66"/>
</a>
</g>
</g>
<!-- Node7 -->
<g id="Node000007" class="node">
<title>Node7</title>
<g id="a_Node000007"><a xlink:href="classgraph__template.html#af706847aa067a98ec2b898c8b19c89e2" target="_top" xlink:title=" ">
<polygon fill="white" stroke="#666666" points="630,-265 490,-265 490,-246 630,-246 630,-265"/>
<text text-anchor="middle" x="560" y="-253" font-family="Helvetica,sans-Serif" font-size="10.00">graph_template::get_tree</text>
</a>
</g>
</g>
<!-- Node3&#45;&gt;Node7 -->
<g id="edge6_Node000003_Node000007" class="edge">
<title>Node3&#45;&gt;Node7</title>
<g id="a_edge6_Node000003_Node000007"><a xlink:title=" ">
<path fill="none" stroke="#63b8ff" d="M415.87,-205.6C435.32,-215.35 461.74,-227.79 486,-236.5 492.78,-238.93 500.01,-241.2 507.2,-243.26"/>
<polygon fill="#63b8ff" stroke="#63b8ff" points="506.34,-246.65 516.91,-245.93 508.2,-239.9 506.34,-246.65"/>
</a>
</g>
</g>
<!-- Node8 -->
<g id="Node000008" class="node">
<title>Node8</title>
<g id="a_Node000008"><a xlink:href="classgraph__template.html#a7a28839f9617ae34d6d7e96b47db7a8b" target="_top" xlink:title=" ">
<polygon fill="white" stroke="#666666" points="618,-227.5 502,-227.5 502,-197.5 618,-197.5 618,-227.5"/>
<text text-anchor="start" x="510" y="-215.5" font-family="Helvetica,sans-Serif" font-size="10.00">graph_template::get</text>
<text text-anchor="middle" x="560" y="-204.5" font-family="Helvetica,sans-Serif" font-size="10.00">_weight</text>
</a>
</g>
</g>
<!-- Node3&#45;&gt;Node8 -->
<g id="edge7_Node000003_Node000008" class="edge">
<title>Node3&#45;&gt;Node8</title>
<g id="a_edge7_Node000003_Node000008"><a xlink:title=" ">
<path fill="none" stroke="#63b8ff" d="M450.07,-198.57C463.59,-200.3 477.93,-202.13 491.61,-203.88"/>
<polygon fill="#63b8ff" stroke="#63b8ff" points="491.56,-207.4 501.92,-205.2 492.44,-200.46 491.56,-207.4"/>
</a>
</g>
</g>
<!-- Node9 -->
<g id="Node000009" class="node">
<title>Node9</title>
<g id="a_Node000009"><a xlink:href="classcproperty.html#a31b26b5ffb20bbf8d8ee38e0755a9819" target="_top" xlink:title="Sets the getter callback function.">
<polygon fill="white" stroke="#666666" points="619,-179 501,-179 501,-160 619,-160 619,-179"/>
<text text-anchor="middle" x="560" y="-167" font-family="Helvetica,sans-Serif" font-size="10.00">cproperty::set_getter</text>
</a>
</g>
</g>
<!-- Node3&#45;&gt;Node9 -->
<g id="edge8_Node000003_Node000009" class="edge">
<title>Node3&#45;&gt;Node9</title>
<g id="a_edge8_Node000003_Node000009"><a xlink:title=" ">
<path fill="none" stroke="#63b8ff" d="M450.07,-182.8C463.29,-181.19 477.28,-179.48 490.68,-177.84"/>
<polygon fill="#63b8ff" stroke="#63b8ff" points="491.29,-181.29 500.79,-176.61 490.44,-174.34 491.29,-181.29"/>
</a>
</g>
</g>
<!-- Node10 -->
<g id="Node000010" class="node">
<title>Node10</title>
<g id="a_Node000010"><a xlink:href="classgraph__template.html#a888c196cb8d6e4ac92c0c9e53395240a" target="_top" xlink:title=" ">
<polygon fill="white" stroke="#666666" points="634,-142 486,-142 486,-123 634,-123 634,-142"/>
<text text-anchor="middle" x="560" y="-130" font-family="Helvetica,sans-Serif" font-size="10.00">graph_template::set_name</text>
</a>
</g>
</g>
<!-- Node3&#45;&gt;Node10 -->
<g id="edge9_Node000003_Node000010" class="edge">
<title>Node3&#45;&gt;Node10</title>
<g id="a_edge9_Node000003_Node000010"><a xlink:title=" ">
<path fill="none" stroke="#63b8ff" d="M422.36,-175.37C441.08,-167.67 464.57,-158.48 486,-151.5 493.35,-149.1 501.2,-146.8 508.92,-144.68"/>
<polygon fill="#63b8ff" stroke="#63b8ff" points="509.83,-148.06 518.59,-142.09 508.02,-141.3 509.83,-148.06"/>
</a>
</g>
</g>
<!-- Node11 -->
<g id="Node000011" class="node">
<title>Node11</title>
<g id="a_Node000011"><a xlink:href="classcproperty.html#a41a70e8e01c9b1a20b94d2dbf1a6b214" target="_top" xlink:title="Sets the owning object for callback invocation.">
<polygon fill="white" stroke="#666666" points="619.5,-105 500.5,-105 500.5,-86 619.5,-86 619.5,-105"/>
<text text-anchor="middle" x="560" y="-93" font-family="Helvetica,sans-Serif" font-size="10.00">cproperty::set_object</text>
</a>
</g>
</g>
<!-- Node3&#45;&gt;Node11 -->
<g id="edge10_Node000003_Node000011" class="edge">
<title>Node3&#45;&gt;Node11</title>
<g id="a_edge10_Node000003_Node000011"><a xlink:title=" ">
<path fill="none" stroke="#63b8ff" d="M402.46,-175.4C420.88,-158.22 453.3,-130.49 486,-114.5 490.85,-112.13 496.04,-110.03 501.32,-108.17"/>
<polygon fill="#63b8ff" stroke="#63b8ff" points="502.44,-111.49 510.89,-105.09 500.3,-104.82 502.44,-111.49"/>
</a>
</g>
</g>
<!-- Node12 -->
<g id="Node000012" class="node">
<title>Node12</title>
<g id="a_Node000012"><a xlink:href="classgraph__template.html#aa961704bb21f31da4e132a96e8b7fe32" target="_top" xlink:title=" ">
<polygon fill="white" stroke="#666666" points="617.5,-67.5 502.5,-67.5 502.5,-37.5 617.5,-37.5 617.5,-67.5"/>
<text text-anchor="start" x="510.5" y="-55.5" font-family="Helvetica,sans-Serif" font-size="10.00">graph_template::set</text>
<text text-anchor="middle" x="560" y="-44.5" font-family="Helvetica,sans-Serif" font-size="10.00">_preselection</text>
</a>
</g>
</g>
<!-- Node3&#45;&gt;Node12 -->
<g id="edge11_Node000003_Node000012" class="edge">
<title>Node3&#45;&gt;Node12</title>
<g id="a_edge11_Node000003_Node000012"><a xlink:title=" ">
<path fill="none" stroke="#63b8ff" d="M396.37,-175.45C412.07,-151.42 445.92,-104.37 486,-77.5 488.93,-75.54 492.02,-73.72 495.22,-72.02"/>
<polygon fill="#63b8ff" stroke="#63b8ff" points="496.95,-75.08 504.45,-67.6 493.92,-68.76 496.95,-75.08"/>
</a>
</g>
</g>
<!-- Node13 -->
<g id="Node000013" class="node">
<title>Node13</title>
<g id="a_Node000013"><a xlink:href="classcproperty.html#af4583ba4cf4ebc53f870a2de8f110da7" target="_top" xlink:title="Sets the setter callback function.">
<polygon fill="white" stroke="#666666" points="618.5,-19 501.5,-19 501.5,0 618.5,0 618.5,-19"/>
<text text-anchor="middle" x="560" y="-7" font-family="Helvetica,sans-Serif" font-size="10.00">cproperty::set_setter</text>
</a>
</g>
</g>
<!-- Node3&#45;&gt;Node13 -->
<g id="edge12_Node000003_Node000013" class="edge">
<title>Node3&#45;&gt;Node13</title>
<g id="a_edge12_Node000003_Node000013"><a xlink:title=" ">
<path fill="none" stroke="#63b8ff" d="M391.87,-175.31C403.03,-143.03 433.59,-67.39 486,-28.5 488.63,-26.55 491.44,-24.8 494.37,-23.23"/>
<polygon fill="#63b8ff" stroke="#63b8ff" points="495.86,-26.39 503.48,-19.03 492.93,-20.04 495.86,-26.39"/>
</a>
</g>
</g>
</g>
</svg>

<g id="navigator" transform="translate(0 0)" fill="#404254">
  <rect fill="#f2f5e9" fill-opacity="0.5" stroke="#606060" stroke-width=".5" x="0" y="0" width="60" height="60"/>
  <use id="zoomplus" xlink:href="#zoomPlus" x="17" y="9" onmousedown="handleZoom(evt,'in')"/>
  <use id="zoomminus" xlink:href="#zoomMin" x="42" y="9" onmousedown="handleZoom(evt,'out')"/>
  <use id="reset" xlink:href="#resetDef" x="30" y="36" onmousedown="handleReset()"/>
   <use id="arrowup" xlink:href="#arrowUp" x="0" y="0" onmousedown="handlePan(0,-1)"/>
  <use id="arrowright" xlink:href="#arrowRight" x="0" y="0" onmousedown="handlePan(1,0)"/>
  <use id="arrowdown" xlink:href="#arrowDown" x="0" y="0" onmousedown="handlePan(0,1)"/>
  <use id="arrowleft" xlink:href="#arrowLeft" x="0" y="0" onmousedown="handlePan(-1,0)"/>
</g>
<svg viewBox="0 0 15 15" width="100%" height="30px" preserveAspectRatio="xMaxYMin meet">
 <g id="arrow_out" transform="scale(0.3 0.3)">
  <a xlink:href="classgraph__template_a9b26bf6100bf257849c43563d1b1bd70_cgraph_org.svg" target="_base">
   <rect id="button" ry="5" rx="5" y="6" x="6" height="38" width="38"
        fill="#f2f5e9" fill-opacity="0.5" stroke="#606060" stroke-width="1.0"/>
   <path id="arrow"
     d="M 11.500037,31.436501 C 11.940474,20.09759 22.043105,11.32322 32.158766,21.979434 L 37.068811,17.246167 C 37.068811,17.246167 37.088388,32 37.088388,32 L 22.160133,31.978069 C 22.160133,31.978069 26.997745,27.140456 26.997745,27.140456 C 18.528582,18.264221 13.291696,25.230495 11.500037,31.436501 z"
     style="fill:#404040;"/>
  </a>
 </g>
</svg>

<style type='text/css'>
<![CDATA[
[data-mouse-over-selected='false'] { opacity: 0.7; }
[data-mouse-over-selected='true']  { opacity: 1.0; }
]]>
</style>
<script type="application/ecmascript"><![CDATA[
document.addEventListener('DOMContentLoaded', (event) => {
  highlightEdges();
  highlightAdjacentNodes();
});
]]></script>
</svg>
