<?xml version="1.0" encoding="UTF-8" standalone="no"?>
<!DOCTYPE svg PUBLIC "-//W3C//DTD SVG 1.1//EN"
 "http://www.w3.org/Graphics/SVG/1.1/DTD/svg11.dtd">
<!-- Generated by graphviz version 2.43.0 (0)
 -->
<!-- Title: exp_mc20::exp_mc20 Pages: 1 -->
<svg width="309pt" height="76pt"
 viewBox="0.00 0.00 309.00 75.50" xmlns="http://www.w3.org/2000/svg" xmlns:xlink="http://www.w3.org/1999/xlink">
<g id="graph0" class="graph" transform="scale(1 1) rotate(0) translate(4 71.5)">
<title>exp_mc20::exp_mc20</title>
<!-- Node1 -->
<g id="Node000001" class="node">
<title>Node1</title>
<g id="a_Node000001"><a xlink:title=" ">
<polygon fill="#999999" stroke="#666666" points="123,-45.5 0,-45.5 0,-26.5 123,-26.5 123,-45.5"/>
<text text-anchor="middle" x="61.5" y="-33.5" font-family="Helvetica,sans-Serif" font-size="10.00">exp_mc20::exp_mc20</text>
</a>
</g>
</g>
<!-- Node2 -->
<g id="Node000002" class="node">
<title>Node2</title>
<g id="a_Node000002"><a xlink:href="classevent__template.html#af57dbc73f9bf6e8ba5126a07e4a327c4" target="_top" xlink:title="Adds a leaf (variable) to the event structure.">
<polygon fill="white" stroke="#666666" points="301,-67.5 159,-67.5 159,-48.5 301,-48.5 301,-67.5"/>
<text text-anchor="middle" x="230" y="-55.5" font-family="Helvetica,sans-Serif" font-size="10.00">event_template::add_leaf</text>
</a>
</g>
</g>
<!-- Node1&#45;&gt;Node2 -->
<g id="edge1_Node000001_Node000002" class="edge">
<title>Node1&#45;&gt;Node2</title>
<g id="a_edge1_Node000001_Node000002"><a xlink:title=" ">
<path fill="none" stroke="#63b8ff" d="M123.08,-44C131.44,-45.11 140.12,-46.26 148.76,-47.4"/>
<polygon fill="#63b8ff" stroke="#63b8ff" points="148.49,-50.89 158.86,-48.73 149.4,-43.95 148.49,-50.89"/>
</a>
</g>
</g>
<!-- Node3 -->
<g id="Node000003" class="node">
<title>Node3</title>
<g id="a_Node000003"><a xlink:href="classevent__template.html#a29bff91e130f4b01eefab555eb5fe9bb" target="_top" xlink:title="Registers a particle for tracking in this event.">
<polygon fill="white" stroke="#666666" points="298.5,-30 161.5,-30 161.5,0 298.5,0 298.5,-30"/>
<text text-anchor="start" x="169.5" y="-18" font-family="Helvetica,sans-Serif" font-size="10.00">event_template::register</text>
<text text-anchor="middle" x="230" y="-7" font-family="Helvetica,sans-Serif" font-size="10.00">_particle</text>
</a>
</g>
</g>
<!-- Node1&#45;&gt;Node3 -->
<g id="edge2_Node000001_Node000003" class="edge">
<title>Node1&#45;&gt;Node3</title>
<g id="a_edge2_Node000001_Node000003"><a xlink:title=" ">
<path fill="none" stroke="#63b8ff" d="M123.08,-28.36C132.23,-27.21 141.78,-26 151.23,-24.81"/>
<polygon fill="#63b8ff" stroke="#63b8ff" points="151.94,-28.25 161.42,-23.52 151.06,-21.3 151.94,-28.25"/>
</a>
</g>
</g>
</g>
</svg>
