<?xml version="1.0" encoding="UTF-8" standalone="no"?>
<!DOCTYPE svg PUBLIC "-//W3C//DTD SVG 1.1//EN"
 "http://www.w3.org/Graphics/SVG/1.1/DTD/svg11.dtd">
<!-- Generated by graphviz version 2.43.0 (0)
 -->
<!-- Title: grift::clone Pages: 1 -->
<svg width="350pt" height="38pt"
 viewBox="0.00 0.00 350.00 38.00" xmlns="http://www.w3.org/2000/svg" xmlns:xlink="http://www.w3.org/1999/xlink">
<g id="graph0" class="graph" transform="scale(1 1) rotate(0) translate(4 34)">
<title>grift::clone</title>
<!-- Node1 -->
<g id="Node000001" class="node">
<title>Node1</title>
<g id="a_Node000001"><a xlink:title="Creates a clone of the model template.">
<polygon fill="#999999" stroke="#666666" points="68,-24.5 0,-24.5 0,-5.5 68,-5.5 68,-24.5"/>
<text text-anchor="middle" x="34" y="-12.5" font-family="Helvetica,sans-Serif" font-size="10.00">grift::clone</text>
</a>
</g>
</g>
<!-- Node2 -->
<g id="Node000002" class="node">
<title>Node2</title>
<g id="a_Node000002"><a xlink:href="classgrift.html#a8c3babc97f67eedd8105da8e245bdcef" target="_top" xlink:title=" ">
<polygon fill="white" stroke="#666666" points="166,-24.5 104,-24.5 104,-5.5 166,-5.5 166,-24.5"/>
<text text-anchor="middle" x="135" y="-12.5" font-family="Helvetica,sans-Serif" font-size="10.00">grift::grift</text>
</a>
</g>
</g>
<!-- Node1&#45;&gt;Node2 -->
<g id="edge1_Node000001_Node000002" class="edge">
<title>Node1&#45;&gt;Node2</title>
<g id="a_edge1_Node000001_Node000002"><a xlink:title=" ">
<path fill="none" stroke="#63b8ff" d="M68.24,-15C76.39,-15 85.2,-15 93.64,-15"/>
<polygon fill="#63b8ff" stroke="#63b8ff" points="93.68,-18.5 103.68,-15 93.68,-11.5 93.68,-18.5"/>
</a>
</g>
</g>
<!-- Node3 -->
<g id="Node000003" class="node">
<title>Node3</title>
<g id="a_Node000003"><a xlink:href="classmodel__template.html#a456e96f75278fed9c8d6f4dbff885e39" target="_top" xlink:title="Registers a PyTorch sequential module with the model.">
<polygon fill="white" stroke="#666666" points="342,-30 202,-30 202,0 342,0 342,-30"/>
<text text-anchor="start" x="210" y="-18" font-family="Helvetica,sans-Serif" font-size="10.00">model_template::register</text>
<text text-anchor="middle" x="272" y="-7" font-family="Helvetica,sans-Serif" font-size="10.00">_module</text>
</a>
</g>
</g>
<!-- Node2&#45;&gt;Node3 -->
<g id="edge2_Node000002_Node000003" class="edge">
<title>Node2&#45;&gt;Node3</title>
<g id="a_edge2_Node000002_Node000003"><a xlink:title=" ">
<path fill="none" stroke="#63b8ff" d="M166.3,-15C174.03,-15 182.72,-15 191.7,-15"/>
<polygon fill="#63b8ff" stroke="#63b8ff" points="191.91,-18.5 201.91,-15 191.91,-11.5 191.91,-18.5"/>
</a>
</g>
</g>
</g>
</svg>
