<?xml version="1.0" encoding="UTF-8" standalone="no"?>
<!DOCTYPE svg PUBLIC "-//W3C//DTD SVG 1.1//EN"
 "http://www.w3.org/Graphics/SVG/1.1/DTD/svg11.dtd">
<!-- Generated by graphviz version 2.43.0 (0)
 -->
<!-- Title: analysis::check_cache Pages: 1 -->
<svg width="400pt" height="27pt"
 viewBox="0.00 0.00 400.00 27.00" xmlns="http://www.w3.org/2000/svg" xmlns:xlink="http://www.w3.org/1999/xlink">
<g id="graph0" class="graph" transform="scale(1 1) rotate(0) translate(4 23)">
<title>analysis::check_cache</title>
<!-- Node1 -->
<g id="Node000001" class="node">
<title>Node1</title>
<g id="a_Node000001"><a xlink:title="&lt; Private access specifier for the following members.">
<polygon fill="#999999" stroke="#666666" points="392,-19 267,-19 267,0 392,0 392,-19"/>
<text text-anchor="middle" x="329.5" y="-7" font-family="Helvetica,sans-Serif" font-size="10.00">analysis::check_cache</text>
</a>
</g>
</g>
<!-- Node2 -->
<g id="Node000002" class="node">
<title>Node2</title>
<g id="a_Node000002"><a xlink:href="classanalysis.html#a401745bb4bcae03160ffa0b5df2887e7" target="_top" xlink:title="Starts the analysis execution.">
<polygon fill="white" stroke="#666666" points="231,-19 145,-19 145,0 231,0 231,-19"/>
<text text-anchor="middle" x="188" y="-7" font-family="Helvetica,sans-Serif" font-size="10.00">analysis::start</text>
</a>
</g>
</g>
<!-- Node1&#45;&gt;Node2 -->
<g id="edge1_Node000001_Node000002" class="edge">
<title>Node1&#45;&gt;Node2</title>
<g id="a_edge1_Node000001_Node000002"><a xlink:title=" ">
<path fill="none" stroke="#63b8ff" d="M256.64,-9.5C247.88,-9.5 239.17,-9.5 231.05,-9.5"/>
<polygon fill="#63b8ff" stroke="#63b8ff" points="256.91,-13 266.91,-9.5 256.91,-6 256.91,-13"/>
</a>
</g>
</g>
<!-- Node3 -->
<g id="Node000003" class="node">
<title>Node3</title>
<g id="a_Node000003"><a xlink:href="classanalysis.html#aa5f5f1de2fe05c9fb8c5c0fffbf7b938" target="_top" xlink:title="Fetches tags, possibly related to data versions, processing stages, or k&#45;folds.">
<polygon fill="white" stroke="#666666" points="109,-19 0,-19 0,0 109,0 109,-19"/>
<text text-anchor="middle" x="54.5" y="-7" font-family="Helvetica,sans-Serif" font-size="10.00">analysis::fetchtags</text>
</a>
</g>
</g>
<!-- Node2&#45;&gt;Node3 -->
<g id="edge2_Node000002_Node000003" class="edge">
<title>Node2&#45;&gt;Node3</title>
<g id="a_edge2_Node000002_Node000003"><a xlink:title=" ">
<path fill="none" stroke="#63b8ff" d="M134.4,-2.87C126.14,-2.72 117.59,-2.71 109.3,-2.85"/>
<polygon fill="#63b8ff" stroke="#63b8ff" points="134.58,-6.38 144.67,-3.15 134.77,0.62 134.58,-6.38"/>
</a>
</g>
</g>
<!-- Node3&#45;&gt;Node2 -->
<g id="edge3_Node000003_Node000002" class="edge">
<title>Node3&#45;&gt;Node2</title>
<g id="a_edge3_Node000003_Node000002"><a xlink:title=" ">
<path fill="none" stroke="#63b8ff" d="M119.34,-16.25C127.93,-16.27 136.57,-16.14 144.67,-15.85"/>
<polygon fill="#63b8ff" stroke="#63b8ff" points="119.34,-12.75 109.3,-16.15 119.27,-19.75 119.34,-12.75"/>
</a>
</g>
</g>
</g>
</svg>
