<?xml version="1.0" encoding="UTF-8" standalone="no"?>
<!DOCTYPE svg PUBLIC "-//W3C//DTD SVG 1.1//EN"
 "http://www.w3.org/Graphics/SVG/1.1/DTD/svg11.dtd">
<!-- Generated by graphviz version 2.43.0 (0)
 -->
<!-- Title: meta::parse_json Pages: 1 -->
<svg width="374pt" height="119pt"
 viewBox="0.00 0.00 374.00 119.00" xmlns="http://www.w3.org/2000/svg" xmlns:xlink="http://www.w3.org/1999/xlink">

<svg id="main" version="1.1" xmlns="http://www.w3.org/2000/svg" xmlns:xlink="http://www.w3.org/1999/xlink" xml:space="preserve" onload="init(evt)">
<style type="text/css"><![CDATA[
.node, .edge {opacity: 0.7;}
.node.selected, .edge.selected {opacity: 1;}
.edge:hover path { stroke: red; }
.edge:hover polygon { stroke: red; fill: red; }
]]></style>
<script type="application/ecmascript" xlink:href="svg.min.js"/>
<svg id="graph" class="graph">
<g id="graph0" class="graph" transform="scale(1 1) rotate(0) translate(4 115)">
<title>meta::parse_json</title>
<!-- Node1 -->
<g id="Node000001" class="node">
<title>Node1</title>
<g id="a_Node000001"><a xlink:title="Parses a JSON string to extract metadata.">
<polygon fill="#999999" stroke="#666666" points="101,-56 0,-56 0,-37 101,-37 101,-56"/>
<text text-anchor="middle" x="50.5" y="-44" font-family="Helvetica,sans-Serif" font-size="10.00">meta::parse_json</text>
</a>
</g>
</g>
<!-- Node2 -->
<g id="Node000002" class="node">
<title>Node2</title>
<g id="a_Node000002"><a xlink:href="classmeta.html#aac47e377d2bbda2fac5a8cfc5ada7243" target="_top" xlink:title="Internal method to compile or process metadata after parsing.">
<polygon fill="white" stroke="#666666" points="230.5,-93 139.5,-93 139.5,-74 230.5,-74 230.5,-93"/>
<text text-anchor="middle" x="185" y="-81" font-family="Helvetica,sans-Serif" font-size="10.00">meta::compiler</text>
</a>
</g>
</g>
<!-- Node1&#45;&gt;Node2 -->
<g id="edge1_Node000001_Node000002" class="edge">
<title>Node1&#45;&gt;Node2</title>
<g id="a_edge1_Node000001_Node000002"><a xlink:title=" ">
<path fill="none" stroke="#63b8ff" d="M85.62,-56.03C102.03,-60.61 121.91,-66.16 139.49,-71.07"/>
<polygon fill="#63b8ff" stroke="#63b8ff" points="138.96,-74.56 149.53,-73.88 140.84,-67.81 138.96,-74.56"/>
</a>
</g>
</g>
<!-- Node5 -->
<g id="Node000005" class="node">
<title>Node5</title>
<g id="a_Node000005"><a xlink:href="classtools.html#a3d538da5310467c9321b27cd6a75b9af" target="_top" xlink:title="Checks if a string ends with a specific substring.">
<polygon fill="white" stroke="#666666" points="233,-56 137,-56 137,-37 233,-37 233,-56"/>
<text text-anchor="middle" x="185" y="-44" font-family="Helvetica,sans-Serif" font-size="10.00">tools::ends_with</text>
</a>
</g>
</g>
<!-- Node1&#45;&gt;Node5 -->
<g id="edge4_Node000001_Node000005" class="edge">
<title>Node1&#45;&gt;Node5</title>
<g id="a_edge4_Node000001_Node000005"><a xlink:title=" ">
<path fill="none" stroke="#63b8ff" d="M101.22,-46.5C109.46,-46.5 118.08,-46.5 126.5,-46.5"/>
<polygon fill="#63b8ff" stroke="#63b8ff" points="126.64,-50 136.64,-46.5 126.64,-43 126.64,-50"/>
</a>
</g>
</g>
<!-- Node6 -->
<g id="Node000006" class="node">
<title>Node6</title>
<g id="a_Node000006"><a xlink:href="classtools.html#aeae88ebd7116d59008600f0723716dba" target="_top" xlink:title="Replaces all occurrences of a substring in a string.">
<polygon fill="white" stroke="#666666" points="226.5,-19 143.5,-19 143.5,0 226.5,0 226.5,-19"/>
<text text-anchor="middle" x="185" y="-7" font-family="Helvetica,sans-Serif" font-size="10.00">tools::replace</text>
</a>
</g>
</g>
<!-- Node1&#45;&gt;Node6 -->
<g id="edge5_Node000001_Node000006" class="edge">
<title>Node1&#45;&gt;Node6</title>
<g id="a_edge5_Node000001_Node000006"><a xlink:title=" ">
<path fill="none" stroke="#63b8ff" d="M85.62,-36.97C102.03,-32.39 121.91,-26.84 139.49,-21.93"/>
<polygon fill="#63b8ff" stroke="#63b8ff" points="140.84,-25.19 149.53,-19.12 138.96,-18.44 140.84,-25.19"/>
</a>
</g>
</g>
<!-- Node3 -->
<g id="Node000003" class="node">
<title>Node3</title>
<g id="a_Node000003"><a xlink:href="classtools.html#ad7229c72cee65da3605c4be82f9b42d4" target="_top" xlink:title="Checks if a string contains a specific substring.">
<polygon fill="white" stroke="#666666" points="366,-111 269,-111 269,-92 366,-92 366,-111"/>
<text text-anchor="middle" x="317.5" y="-99" font-family="Helvetica,sans-Serif" font-size="10.00">tools::has_string</text>
</a>
</g>
</g>
<!-- Node2&#45;&gt;Node3 -->
<g id="edge2_Node000002_Node000003" class="edge">
<title>Node2&#45;&gt;Node3</title>
<g id="a_edge2_Node000002_Node000003"><a xlink:title=" ">
<path fill="none" stroke="#63b8ff" d="M230.55,-89.64C239.55,-90.89 249.13,-92.21 258.52,-93.5"/>
<polygon fill="#63b8ff" stroke="#63b8ff" points="258.2,-96.99 268.59,-94.89 259.16,-90.06 258.2,-96.99"/>
</a>
</g>
</g>
<!-- Node4 -->
<g id="Node000004" class="node">
<title>Node4</title>
<g id="a_Node000004"><a xlink:href="classtools.html#a352a6965f2f3c768f0f4ecd1f978fcc0" target="_top" xlink:title="Splits a string into a vector of substrings based on a delimiter.">
<polygon fill="white" stroke="#666666" points="351.5,-74 283.5,-74 283.5,-55 351.5,-55 351.5,-74"/>
<text text-anchor="middle" x="317.5" y="-62" font-family="Helvetica,sans-Serif" font-size="10.00">tools::split</text>
</a>
</g>
</g>
<!-- Node2&#45;&gt;Node4 -->
<g id="edge3_Node000002_Node000004" class="edge">
<title>Node2&#45;&gt;Node4</title>
<g id="a_edge3_Node000002_Node000004"><a xlink:title=" ">
<path fill="none" stroke="#63b8ff" d="M230.55,-77.01C244.31,-75.01 259.45,-72.81 273.14,-70.81"/>
<polygon fill="#63b8ff" stroke="#63b8ff" points="273.89,-74.24 283.28,-69.34 272.88,-67.31 273.89,-74.24"/>
</a>
</g>
</g>
</g>
</svg>
</svg>

<style type='text/css'>
<![CDATA[
[data-mouse-over-selected='false'] { opacity: 0.7; }
[data-mouse-over-selected='true']  { opacity: 1.0; }
]]>
</style>
<script type="application/ecmascript"><![CDATA[
document.addEventListener('DOMContentLoaded', (event) => {
  highlightEdges();
  highlightAdjacentNodes();
});
]]></script>
</svg>
