<?xml version="1.0" encoding="UTF-8" standalone="no"?>
<!DOCTYPE svg PUBLIC "-//W3C//DTD SVG 1.1//EN"
 "http://www.w3.org/Graphics/SVG/1.1/DTD/svg11.dtd">
<!-- Generated by graphviz version 2.43.0 (0)
 -->
<!-- Title: ssml_mc20::clone Pages: 1 -->
<svg width="460pt" height="76pt"
 viewBox="0.00 0.00 460.00 75.50" xmlns="http://www.w3.org/2000/svg" xmlns:xlink="http://www.w3.org/1999/xlink">
<g id="graph0" class="graph" transform="scale(1 1) rotate(0) translate(4 71.5)">
<title>ssml_mc20::clone</title>
<!-- Node1 -->
<g id="Node000001" class="node">
<title>Node1</title>
<g id="a_Node000001"><a xlink:title="Creates a new event template instance.">
<polygon fill="#999999" stroke="#666666" points="104,-45.5 0,-45.5 0,-26.5 104,-26.5 104,-45.5"/>
<text text-anchor="middle" x="52" y="-33.5" font-family="Helvetica,sans-Serif" font-size="10.00">ssml_mc20::clone</text>
</a>
</g>
</g>
<!-- Node2 -->
<g id="Node000002" class="node">
<title>Node2</title>
<g id="a_Node000002"><a xlink:href="classssml__mc20.html#a0e4485a5e50805da1a79ca645000fb10" target="_top" xlink:title=" ">
<polygon fill="white" stroke="#666666" points="274,-45.5 140,-45.5 140,-26.5 274,-26.5 274,-45.5"/>
<text text-anchor="middle" x="207" y="-33.5" font-family="Helvetica,sans-Serif" font-size="10.00">ssml_mc20::ssml_mc20</text>
</a>
</g>
</g>
<!-- Node1&#45;&gt;Node2 -->
<g id="edge1_Node000001_Node000002" class="edge">
<title>Node1&#45;&gt;Node2</title>
<g id="a_edge1_Node000001_Node000002"><a xlink:title=" ">
<path fill="none" stroke="#63b8ff" d="M104.37,-36C112.55,-36 121.15,-36 129.75,-36"/>
<polygon fill="#63b8ff" stroke="#63b8ff" points="129.82,-39.5 139.82,-36 129.82,-32.5 129.82,-39.5"/>
</a>
</g>
</g>
<!-- Node3 -->
<g id="Node000003" class="node">
<title>Node3</title>
<g id="a_Node000003"><a xlink:href="classevent__template.html#af57dbc73f9bf6e8ba5126a07e4a327c4" target="_top" xlink:title="Adds a leaf (variable) to the event structure.">
<polygon fill="white" stroke="#666666" points="452,-67.5 310,-67.5 310,-48.5 452,-48.5 452,-67.5"/>
<text text-anchor="middle" x="381" y="-55.5" font-family="Helvetica,sans-Serif" font-size="10.00">event_template::add_leaf</text>
</a>
</g>
</g>
<!-- Node2&#45;&gt;Node3 -->
<g id="edge2_Node000002_Node000003" class="edge">
<title>Node2&#45;&gt;Node3</title>
<g id="a_edge2_Node000002_Node000003"><a xlink:title=" ">
<path fill="none" stroke="#63b8ff" d="M274.01,-44.44C282.45,-45.52 291.17,-46.64 299.8,-47.74"/>
<polygon fill="#63b8ff" stroke="#63b8ff" points="299.52,-51.23 309.89,-49.03 300.41,-44.29 299.52,-51.23"/>
</a>
</g>
</g>
<!-- Node4 -->
<g id="Node000004" class="node">
<title>Node4</title>
<g id="a_Node000004"><a xlink:href="classevent__template.html#a29bff91e130f4b01eefab555eb5fe9bb" target="_top" xlink:title="Registers a particle for tracking in this event.">
<polygon fill="white" stroke="#666666" points="449.5,-30 312.5,-30 312.5,0 449.5,0 449.5,-30"/>
<text text-anchor="start" x="320.5" y="-18" font-family="Helvetica,sans-Serif" font-size="10.00">event_template::register</text>
<text text-anchor="middle" x="381" y="-7" font-family="Helvetica,sans-Serif" font-size="10.00">_particle</text>
</a>
</g>
</g>
<!-- Node2&#45;&gt;Node4 -->
<g id="edge3_Node000002_Node000004" class="edge">
<title>Node2&#45;&gt;Node4</title>
<g id="a_edge3_Node000002_Node000004"><a xlink:title=" ">
<path fill="none" stroke="#63b8ff" d="M274.01,-27.94C283.26,-26.81 292.84,-25.64 302.29,-24.49"/>
<polygon fill="#63b8ff" stroke="#63b8ff" points="302.96,-27.93 312.46,-23.25 302.11,-20.98 302.96,-27.93"/>
</a>
</g>
</g>
</g>
</svg>
