<?xml version="1.0" encoding="UTF-8" standalone="no"?>
<!DOCTYPE svg PUBLIC "-//W3C//DTD SVG 1.1//EN"
 "http://www.w3.org/Graphics/SVG/1.1/DTD/svg11.dtd">
<!-- Generated by graphviz version 2.43.0 (0)
 -->
<!-- Title: graph_template::add_graph_data_feature Pages: 1 -->
<svg width="653pt" height="144pt"
 viewBox="0.00 0.00 653.00 144.00" xmlns="http://www.w3.org/2000/svg" xmlns:xlink="http://www.w3.org/1999/xlink">
<g id="graph0" class="graph" transform="scale(1 1) rotate(0) translate(4 140)">
<title>graph_template::add_graph_data_feature</title>
<!-- Node1 -->
<g id="Node000001" class="node">
<title>Node1</title>
<g id="a_Node000001"><a xlink:title="Adds a graph&#45;level data feature.">
<polygon fill="#999999" stroke="#666666" points="118,-61.5 0,-61.5 0,-31.5 118,-31.5 118,-61.5"/>
<text text-anchor="start" x="8" y="-49.5" font-family="Helvetica,sans-Serif" font-size="10.00">graph_template::add</text>
<text text-anchor="middle" x="59" y="-38.5" font-family="Helvetica,sans-Serif" font-size="10.00">_graph_data_feature</text>
</a>
</g>
</g>
<!-- Node2 -->
<g id="Node000002" class="node">
<title>Node2</title>
<g id="a_Node000002"><a xlink:href="classgraph__template.html#a185c7464be35c70cf3a51df81b744713" target="_top" xlink:title=" ">
<polygon fill="white" stroke="#666666" points="272.5,-104.5 154.5,-104.5 154.5,-74.5 272.5,-74.5 272.5,-104.5"/>
<text text-anchor="start" x="162.5" y="-92.5" font-family="Helvetica,sans-Serif" font-size="10.00">graph_template::add</text>
<text text-anchor="middle" x="213.5" y="-81.5" font-family="Helvetica,sans-Serif" font-size="10.00">_graph_feature</text>
</a>
</g>
</g>
<!-- Node1&#45;&gt;Node2 -->
<g id="edge1_Node000001_Node000002" class="edge">
<title>Node1&#45;&gt;Node2</title>
<g id="a_edge1_Node000001_Node000002"><a xlink:title=" ">
<path fill="none" stroke="#63b8ff" d="M113.34,-61.54C124.95,-64.81 137.34,-68.31 149.29,-71.68"/>
<polygon fill="#63b8ff" stroke="#63b8ff" points="148.62,-75.12 159.19,-74.47 150.52,-68.39 148.62,-75.12"/>
</a>
</g>
</g>
<!-- Node8 -->
<g id="Node000008" class="node">
<title>Node8</title>
<g id="a_Node000008"><a xlink:href="classcproperty.html#a31b26b5ffb20bbf8d8ee38e0755a9819" target="_top" xlink:title="Sets the getter callback function.">
<polygon fill="white" stroke="#666666" points="272.5,-56 154.5,-56 154.5,-37 272.5,-37 272.5,-56"/>
<text text-anchor="middle" x="213.5" y="-44" font-family="Helvetica,sans-Serif" font-size="10.00">cproperty::set_getter</text>
</a>
</g>
</g>
<!-- Node1&#45;&gt;Node8 -->
<g id="edge7_Node000001_Node000008" class="edge">
<title>Node1&#45;&gt;Node8</title>
<g id="a_edge7_Node000001_Node000008"><a xlink:title=" ">
<path fill="none" stroke="#63b8ff" d="M118.09,-46.5C126.62,-46.5 135.47,-46.5 144.18,-46.5"/>
<polygon fill="#63b8ff" stroke="#63b8ff" points="144.32,-50 154.32,-46.5 144.32,-43 144.32,-50"/>
</a>
</g>
</g>
<!-- Node9 -->
<g id="Node000009" class="node">
<title>Node9</title>
<g id="a_Node000009"><a xlink:href="classcproperty.html#a41a70e8e01c9b1a20b94d2dbf1a6b214" target="_top" xlink:title="Sets the owning object for callback invocation.">
<polygon fill="white" stroke="#666666" points="273,-19 154,-19 154,0 273,0 273,-19"/>
<text text-anchor="middle" x="213.5" y="-7" font-family="Helvetica,sans-Serif" font-size="10.00">cproperty::set_object</text>
</a>
</g>
</g>
<!-- Node1&#45;&gt;Node9 -->
<g id="edge8_Node000001_Node000009" class="edge">
<title>Node1&#45;&gt;Node9</title>
<g id="a_edge8_Node000001_Node000009"><a xlink:title=" ">
<path fill="none" stroke="#63b8ff" d="M118.09,-32.41C132.85,-28.82 148.58,-25.01 162.89,-21.54"/>
<polygon fill="#63b8ff" stroke="#63b8ff" points="164.12,-24.84 173.01,-19.08 162.47,-18.04 164.12,-24.84"/>
</a>
</g>
</g>
<!-- Node3 -->
<g id="Node000003" class="node">
<title>Node3</title>
<g id="a_Node000003"><a xlink:href="classgraph__template.html#a255ec8fcf27b7352445397e5245cc9ef" target="_top" xlink:title=" ">
<polygon fill="white" stroke="#666666" points="419,-104.5 309,-104.5 309,-74.5 419,-74.5 419,-104.5"/>
<text text-anchor="start" x="317" y="-92.5" font-family="Helvetica,sans-Serif" font-size="10.00">graph_template::to</text>
<text text-anchor="middle" x="364" y="-81.5" font-family="Helvetica,sans-Serif" font-size="10.00">_tensor</text>
</a>
</g>
</g>
<!-- Node2&#45;&gt;Node3 -->
<g id="edge2_Node000002_Node000003" class="edge">
<title>Node2&#45;&gt;Node3</title>
<g id="a_edge2_Node000002_Node000003"><a xlink:title=" ">
<path fill="none" stroke="#63b8ff" d="M272.76,-89.5C281.29,-89.5 290.11,-89.5 298.75,-89.5"/>
<polygon fill="#63b8ff" stroke="#63b8ff" points="298.78,-93 308.78,-89.5 298.78,-86 298.78,-93"/>
</a>
</g>
</g>
<!-- Node4 -->
<g id="Node000004" class="node">
<title>Node4</title>
<g id="a_Node000004"><a xlink:href="tensor__cast_8h.html#a27121e7e5aeb77bda0453dd6214cf7fb" target="_top" xlink:title=" ">
<polygon fill="white" stroke="#666666" points="532,-99 455,-99 455,-80 532,-80 532,-99"/>
<text text-anchor="middle" x="493.5" y="-87" font-family="Helvetica,sans-Serif" font-size="10.00">build_tensor</text>
</a>
</g>
</g>
<!-- Node3&#45;&gt;Node4 -->
<g id="edge3_Node000003_Node000004" class="edge">
<title>Node3&#45;&gt;Node4</title>
<g id="a_edge3_Node000003_Node000004"><a xlink:title=" ">
<path fill="none" stroke="#63b8ff" d="M419.07,-89.5C427.66,-89.5 436.49,-89.5 444.91,-89.5"/>
<polygon fill="#63b8ff" stroke="#63b8ff" points="444.95,-93 454.95,-89.5 444.95,-86 444.95,-93"/>
</a>
</g>
</g>
<!-- Node5 -->
<g id="Node000005" class="node">
<title>Node5</title>
<g id="a_Node000005"><a xlink:href="tensor__cast_8h.html#a49d70dbad1cfb3e27ebb8960cff818bb" target="_top" xlink:title=" ">
<polygon fill="white" stroke="#666666" points="645,-136 568,-136 568,-117 645,-117 645,-136"/>
<text text-anchor="middle" x="606.5" y="-124" font-family="Helvetica,sans-Serif" font-size="10.00">as_primitive</text>
</a>
</g>
</g>
<!-- Node4&#45;&gt;Node5 -->
<g id="edge4_Node000004_Node000005" class="edge">
<title>Node4&#45;&gt;Node5</title>
<g id="a_edge4_Node000004_Node000005"><a xlink:title=" ">
<path fill="none" stroke="#63b8ff" d="M523.09,-99.03C536.45,-103.48 552.55,-108.85 566.97,-113.66"/>
<polygon fill="#63b8ff" stroke="#63b8ff" points="566.03,-117.03 576.63,-116.88 568.25,-110.39 566.03,-117.03"/>
</a>
</g>
</g>
<!-- Node6 -->
<g id="Node000006" class="node">
<title>Node6</title>
<g id="a_Node000006"><a xlink:href="tensor__cast_8h.html#af735bf7b89e3864dbde7fe5def867d4d" target="_top" xlink:title=" ">
<polygon fill="white" stroke="#666666" points="640,-99 573,-99 573,-80 640,-80 640,-99"/>
<text text-anchor="middle" x="606.5" y="-87" font-family="Helvetica,sans-Serif" font-size="10.00">scout_dim</text>
</a>
</g>
</g>
<!-- Node4&#45;&gt;Node6 -->
<g id="edge5_Node000004_Node000006" class="edge">
<title>Node4&#45;&gt;Node6</title>
<g id="a_edge5_Node000004_Node000006"><a xlink:title=" ">
<path fill="none" stroke="#63b8ff" d="M532.08,-89.5C541.88,-89.5 552.52,-89.5 562.58,-89.5"/>
<polygon fill="#63b8ff" stroke="#63b8ff" points="562.79,-93 572.79,-89.5 562.79,-86 562.79,-93"/>
</a>
</g>
</g>
<!-- Node7 -->
<g id="Node000007" class="node">
<title>Node7</title>
<g id="a_Node000007"><a xlink:href="tensor__cast_8h.html#af14120999422d60b3d0aef376398fca6" target="_top" xlink:title=" ">
<polygon fill="white" stroke="#666666" points="636,-62 577,-62 577,-43 636,-43 636,-62"/>
<text text-anchor="middle" x="606.5" y="-50" font-family="Helvetica,sans-Serif" font-size="10.00">standard</text>
</a>
</g>
</g>
<!-- Node4&#45;&gt;Node7 -->
<g id="edge6_Node000004_Node000007" class="edge">
<title>Node4&#45;&gt;Node7</title>
<g id="a_edge6_Node000004_Node000007"><a xlink:title=" ">
<path fill="none" stroke="#63b8ff" d="M523.09,-79.97C536.45,-75.52 552.55,-70.15 566.97,-65.34"/>
<polygon fill="#63b8ff" stroke="#63b8ff" points="568.25,-68.61 576.63,-62.12 566.03,-61.97 568.25,-68.61"/>
</a>
</g>
</g>
</g>
</svg>
