<?xml version="1.0" encoding="UTF-8" standalone="no"?>
<!DOCTYPE svg PUBLIC "-//W3C//DTD SVG 1.1//EN"
 "http://www.w3.org/Graphics/SVG/1.1/DTD/svg11.dtd">
<!-- Generated by graphviz version 2.43.0 (0)
 -->
<!-- Title: recursivegraphneuralnetwork Pages: 1 -->
<!--zoomable 1202 -->

<svg id="main" version="1.1" xmlns="http://www.w3.org/2000/svg" xmlns:xlink="http://www.w3.org/1999/xlink" xml:space="preserve" onload="init(evt)">
<style type="text/css"><![CDATA[
.node, .edge {opacity: 0.7;}
.node.selected, .edge.selected {opacity: 1;}
.edge:hover path { stroke: red; }
.edge:hover polygon { stroke: red; fill: red; }
]]></style>

<defs>
  <circle id="rim" cx="0" cy="0" r="7"/>
  <circle id="rim2" cx="0" cy="0" r="3.5"/>
  <g id="zoomPlus">
    <use xlink:href="#rim" fill="#404040"><set attributeName="fill" to="#808080" begin="zoomplus.mouseover" end="zoomplus.mouseout"/></use>
    <path d="M-4,0h8M0,-4v8" fill="none" stroke="white" stroke-width="1.5" pointer-events="none"/>
  </g>
  <g id="zoomMin">
    <use xlink:href="#rim" fill="#404040"><set attributeName="fill" to="#808080" begin="zoomminus.mouseover" end="zoomminus.mouseout"/></use>
    <path d="M-4,0h8" fill="none" stroke="white" stroke-width="1.5" pointer-events="none"/>
  </g>
  <g id="arrowUp" transform="translate(30 24)">
    <use xlink:href="#rim"/>
    <path pointer-events="none" fill="none" stroke="white" stroke-width="1.5" d="M0,-3.0v7 M-2.5,-0.5L0,-3.0L2.5,-0.5"/>
  </g>
  <g id="arrowRight" transform="rotate(90) translate(36 -43)">
    <use xlink:href="#rim"/>
    <path pointer-events="none" fill="none" stroke="white" stroke-width="1.5" d="M0,-3.0v7 M-2.5,-0.5L0,-3.0L2.5,-0.5"/>
  </g>
  <g id="arrowDown" transform="rotate(180) translate(-30 -48)">
    <use xlink:href="#rim"/>
    <path pointer-events="none" fill="none" stroke="white" stroke-width="1.5" d="M0,-3.0v7 M-2.5,-0.5L0,-3.0L2.5,-0.5"/>
  </g>
  <g id="arrowLeft" transform="rotate(270) translate(-36 17)">
    <use xlink:href="#rim"/>
    <path pointer-events="none" fill="none" stroke="white" stroke-width="1.5" d="M0,-3.0v7 M-2.5,-0.5L0,-3.0L2.5,-0.5"/>
  </g>
  <g id="resetDef">
    <use xlink:href="#rim2" fill="#404040"><set attributeName="fill" to="#808080" begin="reset.mouseover" end="reset.mouseout"/></use>
  </g>
</defs>
<script type="application/ecmascript">
var viewWidth = 262;
var viewHeight = 1202;
var sectionId = 'dynsection-0';
</script>
<script type="application/ecmascript" xlink:href="svg.min.js"/>
<svg id="graph" class="graph">
<g id="viewport">
<title>recursivegraphneuralnetwork</title>
<!-- Node1 -->
<g id="Node000001" class="node">
<title>Node1</title>
<g id="a_Node000001"><a xlink:title=" ">
<polygon fill="#999999" stroke="transparent" points="207.5,-319 26.5,-319 26.5,0 207.5,0 207.5,-319"/>
<text text-anchor="start" x="45.5" y="-306.5" font-family="Helvetica,sans-Serif" font-size="10.00">recursivegraphneuralnetwork</text>
<text text-anchor="start" x="31" y="-291.5" font-family="Helvetica,sans-Serif" font-size="10.00">+</text>
<text text-anchor="start" x="44" y="-291.5" font-family="Helvetica,sans-Serif" font-size="10.00">_dx</text>
<text text-anchor="start" x="31" y="-276.5" font-family="Helvetica,sans-Serif" font-size="10.00">+</text>
<text text-anchor="start" x="44" y="-276.5" font-family="Helvetica,sans-Serif" font-size="10.00">_x</text>
<text text-anchor="start" x="31" y="-261.5" font-family="Helvetica,sans-Serif" font-size="10.00">+</text>
<text text-anchor="start" x="44" y="-261.5" font-family="Helvetica,sans-Serif" font-size="10.00">_output</text>
<text text-anchor="start" x="31" y="-246.5" font-family="Helvetica,sans-Serif" font-size="10.00">+</text>
<text text-anchor="start" x="44" y="-246.5" font-family="Helvetica,sans-Serif" font-size="10.00">_rep</text>
<text text-anchor="start" x="31" y="-231.5" font-family="Helvetica,sans-Serif" font-size="10.00">+</text>
<text text-anchor="start" x="44" y="-231.5" font-family="Helvetica,sans-Serif" font-size="10.00">res_mass</text>
<text text-anchor="start" x="31" y="-216.5" font-family="Helvetica,sans-Serif" font-size="10.00">+</text>
<text text-anchor="start" x="44" y="-216.5" font-family="Helvetica,sans-Serif" font-size="10.00">drop_out</text>
<text text-anchor="start" x="31" y="-201.5" font-family="Helvetica,sans-Serif" font-size="10.00">+</text>
<text text-anchor="start" x="44" y="-201.5" font-family="Helvetica,sans-Serif" font-size="10.00">is_mc</text>
<text text-anchor="start" x="31" y="-186.5" font-family="Helvetica,sans-Serif" font-size="10.00">+</text>
<text text-anchor="start" x="44" y="-186.5" font-family="Helvetica,sans-Serif" font-size="10.00">rnn_x</text>
<text text-anchor="start" x="31" y="-171.5" font-family="Helvetica,sans-Serif" font-size="10.00">+</text>
<text text-anchor="start" x="44" y="-171.5" font-family="Helvetica,sans-Serif" font-size="10.00">rnn_dx</text>
<text text-anchor="start" x="31" y="-156.5" font-family="Helvetica,sans-Serif" font-size="10.00">+</text>
<text text-anchor="start" x="44" y="-156.5" font-family="Helvetica,sans-Serif" font-size="10.00">rnn_merge</text>
<text text-anchor="start" x="31" y="-141.5" font-family="Helvetica,sans-Serif" font-size="10.00">+</text>
<text text-anchor="start" x="44" y="-141.5" font-family="Helvetica,sans-Serif" font-size="10.00">rnn_update</text>
<text text-anchor="start" x="31" y="-126.5" font-family="Helvetica,sans-Serif" font-size="10.00">+</text>
<text text-anchor="start" x="44" y="-126.5" font-family="Helvetica,sans-Serif" font-size="10.00">exotic_mlp</text>
<text text-anchor="start" x="31" y="-111.5" font-family="Helvetica,sans-Serif" font-size="10.00">+</text>
<text text-anchor="start" x="44" y="-111.5" font-family="Helvetica,sans-Serif" font-size="10.00">node_aggr_mlp</text>
<text text-anchor="start" x="31" y="-96.5" font-family="Helvetica,sans-Serif" font-size="10.00">+</text>
<text text-anchor="start" x="44" y="-96.5" font-family="Helvetica,sans-Serif" font-size="10.00">ntops_mlp</text>
<text text-anchor="start" x="31" y="-81.5" font-family="Helvetica,sans-Serif" font-size="10.00">+</text>
<text text-anchor="start" x="44" y="-81.5" font-family="Helvetica,sans-Serif" font-size="10.00">exo_mlp</text>
<text text-anchor="start" x="31" y="-66.5" font-family="Helvetica,sans-Serif" font-size="10.00">+</text>
<text text-anchor="start" x="44" y="-66.5" font-family="Helvetica,sans-Serif" font-size="10.00">recursivegraphneuralnetwork()</text>
<text text-anchor="start" x="31" y="-51.5" font-family="Helvetica,sans-Serif" font-size="10.00">+</text>
<text text-anchor="start" x="44" y="-51.5" font-family="Helvetica,sans-Serif" font-size="10.00">~recursivegraphneuralnetwork()</text>
<text text-anchor="start" x="31" y="-36.5" font-family="Helvetica,sans-Serif" font-size="10.00">+</text>
<text text-anchor="start" x="44" y="-36.5" font-family="Helvetica,sans-Serif" font-size="10.00">clone()</text>
<text text-anchor="start" x="31" y="-21.5" font-family="Helvetica,sans-Serif" font-size="10.00">+</text>
<text text-anchor="start" x="44" y="-21.5" font-family="Helvetica,sans-Serif" font-size="10.00">forward()</text>
<text text-anchor="start" x="31" y="-6.5" font-family="Helvetica,sans-Serif" font-size="10.00">+</text>
<text text-anchor="start" x="44" y="-6.5" font-family="Helvetica,sans-Serif" font-size="10.00">message()</text>
<polygon fill="#666666" stroke="#666666" points="27,-301.5 27,-301.5 208,-301.5 208,-301.5 27,-301.5"/>
<polygon fill="#666666" stroke="#666666" points="27,-76.5 27,-76.5 42,-76.5 42,-76.5 27,-76.5"/>
<polygon fill="#666666" stroke="#666666" points="42,-76.5 42,-76.5 208,-76.5 208,-76.5 42,-76.5"/>
<polygon fill="none" stroke="#666666" points="26.5,0 26.5,-319 207.5,-319 207.5,0 26.5,0"/>
</a>
</g>
</g>
<!-- Node2 -->
<g id="Node000002" class="node">
<title>Node2</title>
<g id="a_Node000002"><a xlink:href="classmodel__template.html" target="_top" xlink:title="End of include guard for MODEL_TEMPLATE_H.">
<polygon fill="white" stroke="transparent" points="180.5,-809 53.5,-809 53.5,-355 180.5,-355 180.5,-809"/>
<text text-anchor="start" x="77" y="-797" font-family="Helvetica,sans-Serif" font-size="10.00">model_template</text>
<text text-anchor="start" x="58" y="-782" font-family="Helvetica,sans-Serif" font-size="10.00">+</text>
<text text-anchor="start" x="71" y="-782" font-family="Helvetica,sans-Serif" font-size="10.00">name</text>
<text text-anchor="start" x="58" y="-767" font-family="Helvetica,sans-Serif" font-size="10.00">+</text>
<text text-anchor="start" x="71" y="-767" font-family="Helvetica,sans-Serif" font-size="10.00">device</text>
<text text-anchor="start" x="58" y="-752" font-family="Helvetica,sans-Serif" font-size="10.00">+</text>
<text text-anchor="start" x="71" y="-752" font-family="Helvetica,sans-Serif" font-size="10.00">device_index</text>
<text text-anchor="start" x="58" y="-737" font-family="Helvetica,sans-Serif" font-size="10.00">+</text>
<text text-anchor="start" x="71" y="-737" font-family="Helvetica,sans-Serif" font-size="10.00">i_graph</text>
<text text-anchor="start" x="58" y="-722" font-family="Helvetica,sans-Serif" font-size="10.00">+</text>
<text text-anchor="start" x="71" y="-722" font-family="Helvetica,sans-Serif" font-size="10.00">i_node</text>
<text text-anchor="start" x="58" y="-707" font-family="Helvetica,sans-Serif" font-size="10.00">+</text>
<text text-anchor="start" x="71" y="-707" font-family="Helvetica,sans-Serif" font-size="10.00">i_edge</text>
<text text-anchor="start" x="58" y="-692" font-family="Helvetica,sans-Serif" font-size="10.00">+</text>
<text text-anchor="start" x="71" y="-692" font-family="Helvetica,sans-Serif" font-size="10.00">o_graph</text>
<text text-anchor="start" x="58" y="-677" font-family="Helvetica,sans-Serif" font-size="10.00">+</text>
<text text-anchor="start" x="71" y="-677" font-family="Helvetica,sans-Serif" font-size="10.00">o_node</text>
<text text-anchor="start" x="58" y="-662" font-family="Helvetica,sans-Serif" font-size="10.00">+</text>
<text text-anchor="start" x="71" y="-662" font-family="Helvetica,sans-Serif" font-size="10.00">o_edge</text>
<text text-anchor="start" x="58" y="-647" font-family="Helvetica,sans-Serif" font-size="10.00">+</text>
<text text-anchor="start" x="71" y="-647" font-family="Helvetica,sans-Serif" font-size="10.00">m_i_graph</text>
<text text-anchor="start" x="71" y="-632" font-family="Helvetica,sans-Serif" font-size="10.00">and 9 more...</text>
<text text-anchor="start" x="58" y="-617" font-family="Helvetica,sans-Serif" font-size="10.00">+</text>
<text text-anchor="start" x="71" y="-617" font-family="Helvetica,sans-Serif" font-size="10.00">model_template()</text>
<text text-anchor="start" x="58" y="-602" font-family="Helvetica,sans-Serif" font-size="10.00">+</text>
<text text-anchor="start" x="71" y="-602" font-family="Helvetica,sans-Serif" font-size="10.00">~model_template()</text>
<text text-anchor="start" x="58" y="-587" font-family="Helvetica,sans-Serif" font-size="10.00">+</text>
<text text-anchor="start" x="71" y="-587" font-family="Helvetica,sans-Serif" font-size="10.00">clone()</text>
<text text-anchor="start" x="58" y="-572" font-family="Helvetica,sans-Serif" font-size="10.00">+</text>
<text text-anchor="start" x="71" y="-572" font-family="Helvetica,sans-Serif" font-size="10.00">register_module()</text>
<text text-anchor="start" x="58" y="-557" font-family="Helvetica,sans-Serif" font-size="10.00">+</text>
<text text-anchor="start" x="71" y="-557" font-family="Helvetica,sans-Serif" font-size="10.00">register_module()</text>
<text text-anchor="start" x="58" y="-542" font-family="Helvetica,sans-Serif" font-size="10.00">+</text>
<text text-anchor="start" x="71" y="-542" font-family="Helvetica,sans-Serif" font-size="10.00">forward()</text>
<text text-anchor="start" x="58" y="-527" font-family="Helvetica,sans-Serif" font-size="10.00">+</text>
<text text-anchor="start" x="71" y="-527" font-family="Helvetica,sans-Serif" font-size="10.00">forward()</text>
<text text-anchor="start" x="58" y="-512" font-family="Helvetica,sans-Serif" font-size="10.00">+</text>
<text text-anchor="start" x="71" y="-512" font-family="Helvetica,sans-Serif" font-size="10.00">forward()</text>
<text text-anchor="start" x="58" y="-497" font-family="Helvetica,sans-Serif" font-size="10.00">+</text>
<text text-anchor="start" x="71" y="-497" font-family="Helvetica,sans-Serif" font-size="10.00">assign_features()</text>
<text text-anchor="start" x="58" y="-482" font-family="Helvetica,sans-Serif" font-size="10.00">+</text>
<text text-anchor="start" x="71" y="-482" font-family="Helvetica,sans-Serif" font-size="10.00">assign_features()</text>
<text text-anchor="start" x="58" y="-467" font-family="Helvetica,sans-Serif" font-size="10.00">+</text>
<text text-anchor="start" x="71" y="-467" font-family="Helvetica,sans-Serif" font-size="10.00">flush_outputs()</text>
<text text-anchor="start" x="58" y="-452" font-family="Helvetica,sans-Serif" font-size="10.00">+</text>
<text text-anchor="start" x="71" y="-452" font-family="Helvetica,sans-Serif" font-size="10.00">set_name()</text>
<text text-anchor="start" x="58" y="-437" font-family="Helvetica,sans-Serif" font-size="10.00">+</text>
<text text-anchor="start" x="71" y="-437" font-family="Helvetica,sans-Serif" font-size="10.00">get_name()</text>
<text text-anchor="start" x="58" y="-422" font-family="Helvetica,sans-Serif" font-size="10.00">+</text>
<text text-anchor="start" x="71" y="-422" font-family="Helvetica,sans-Serif" font-size="10.00">set_device()</text>
<text text-anchor="start" x="58" y="-407" font-family="Helvetica,sans-Serif" font-size="10.00">+</text>
<text text-anchor="start" x="71" y="-407" font-family="Helvetica,sans-Serif" font-size="10.00">set_dev_index()</text>
<text text-anchor="start" x="58" y="-392" font-family="Helvetica,sans-Serif" font-size="10.00">+</text>
<text text-anchor="start" x="71" y="-392" font-family="Helvetica,sans-Serif" font-size="10.00">get_dev_index()</text>
<text text-anchor="start" x="58" y="-377" font-family="Helvetica,sans-Serif" font-size="10.00">+</text>
<text text-anchor="start" x="71" y="-377" font-family="Helvetica,sans-Serif" font-size="10.00">set_input_features()</text>
<text text-anchor="start" x="58" y="-362" font-family="Helvetica,sans-Serif" font-size="10.00">+</text>
<text text-anchor="start" x="71" y="-362" font-family="Helvetica,sans-Serif" font-size="10.00">set_output_features()</text>
<polygon fill="#666666" stroke="#666666" points="54,-792 54,-792 181,-792 181,-792 54,-792"/>
<polygon fill="#666666" stroke="#666666" points="54,-627 54,-627 69,-627 69,-627 54,-627"/>
<polygon fill="#666666" stroke="#666666" points="69,-627 69,-627 181,-627 181,-627 69,-627"/>
<polygon fill="none" stroke="#666666" points="53.5,-355 53.5,-809 180.5,-809 180.5,-355 53.5,-355"/>
</a>
</g>
</g>
<!-- Node2&#45;&gt;Node1 -->
<g id="edge1_Node000001_Node000002" class="edge">
<title>Node2&#45;&gt;Node1</title>
<g id="a_edge1_Node000001_Node000002"><a xlink:title=" ">
<path fill="none" stroke="#63b8ff" d="M117,-344.68C117,-336.13 117,-327.63 117,-319.25"/>
<polygon fill="none" stroke="#63b8ff" points="113.5,-344.75 117,-354.75 120.5,-344.75 113.5,-344.75"/>
</a>
</g>
</g>
<!-- Node3 -->
<g id="Node000003" class="node">
<title>Node3</title>
<g id="a_Node000003"><a xlink:href="classtools.html" target="_top" xlink:title="Provides a wide range of utility functions used throughout the framework.">
<polygon fill="white" stroke="transparent" points="98,-1194 0,-1194 0,-845 98,-845 98,-1194"/>
<text text-anchor="start" x="36.5" y="-1181.5" font-family="Helvetica,sans-Serif" font-size="10.00">tools</text>
<text text-anchor="start" x="47" y="-1166.5" font-family="Helvetica,sans-Serif" font-size="10.00"> </text>
<text text-anchor="start" x="4" y="-1151.5" font-family="Helvetica,sans-Serif" font-size="10.00">+</text>
<text text-anchor="start" x="17" y="-1151.5" font-family="Helvetica,sans-Serif" font-size="10.00">tools()</text>
<text text-anchor="start" x="4" y="-1136.5" font-family="Helvetica,sans-Serif" font-size="10.00">+</text>
<text text-anchor="start" x="17" y="-1136.5" font-family="Helvetica,sans-Serif" font-size="10.00">~tools()</text>
<text text-anchor="start" x="4" y="-1121.5" font-family="Helvetica,sans-Serif" font-size="10.00">+</text>
<text text-anchor="start" x="17" y="-1121.5" font-family="Helvetica,sans-Serif" font-size="10.00">split()</text>
<text text-anchor="start" x="4" y="-1106.5" font-family="Helvetica,sans-Serif" font-size="10.00">+</text>
<text text-anchor="start" x="17" y="-1106.5" font-family="Helvetica,sans-Serif" font-size="10.00">trim()</text>
<text text-anchor="start" x="4" y="-1091.5" font-family="Helvetica,sans-Serif" font-size="10.00">+</text>
<text text-anchor="start" x="17" y="-1091.5" font-family="Helvetica,sans-Serif" font-size="10.00">type_name()</text>
<text text-anchor="start" x="4" y="-1076.5" font-family="Helvetica,sans-Serif" font-size="10.00">+</text>
<text text-anchor="start" x="17" y="-1076.5" font-family="Helvetica,sans-Serif" font-size="10.00">sum()</text>
<text text-anchor="start" x="4" y="-1061.5" font-family="Helvetica,sans-Serif" font-size="10.00">+</text>
<text text-anchor="start" x="17" y="-1061.5" font-family="Helvetica,sans-Serif" font-size="10.00">create_path()</text>
<text text-anchor="start" x="4" y="-1046.5" font-family="Helvetica,sans-Serif" font-size="10.00">+</text>
<text text-anchor="start" x="17" y="-1046.5" font-family="Helvetica,sans-Serif" font-size="10.00">delete_path()</text>
<text text-anchor="start" x="4" y="-1031.5" font-family="Helvetica,sans-Serif" font-size="10.00">+</text>
<text text-anchor="start" x="17" y="-1031.5" font-family="Helvetica,sans-Serif" font-size="10.00">is_file()</text>
<text text-anchor="start" x="4" y="-1016.5" font-family="Helvetica,sans-Serif" font-size="10.00">+</text>
<text text-anchor="start" x="17" y="-1016.5" font-family="Helvetica,sans-Serif" font-size="10.00">rename()</text>
<text text-anchor="start" x="4" y="-1001.5" font-family="Helvetica,sans-Serif" font-size="10.00">+</text>
<text text-anchor="start" x="17" y="-1001.5" font-family="Helvetica,sans-Serif" font-size="10.00">absolute_path()</text>
<text text-anchor="start" x="4" y="-986.5" font-family="Helvetica,sans-Serif" font-size="10.00">+</text>
<text text-anchor="start" x="17" y="-986.5" font-family="Helvetica,sans-Serif" font-size="10.00">ls()</text>
<text text-anchor="start" x="4" y="-971.5" font-family="Helvetica,sans-Serif" font-size="10.00">+</text>
<text text-anchor="start" x="17" y="-971.5" font-family="Helvetica,sans-Serif" font-size="10.00">to_string()</text>
<text text-anchor="start" x="4" y="-956.5" font-family="Helvetica,sans-Serif" font-size="10.00">+</text>
<text text-anchor="start" x="17" y="-956.5" font-family="Helvetica,sans-Serif" font-size="10.00">to_string()</text>
<text text-anchor="start" x="4" y="-941.5" font-family="Helvetica,sans-Serif" font-size="10.00">+</text>
<text text-anchor="start" x="17" y="-941.5" font-family="Helvetica,sans-Serif" font-size="10.00">replace()</text>
<text text-anchor="start" x="4" y="-926.5" font-family="Helvetica,sans-Serif" font-size="10.00">+</text>
<text text-anchor="start" x="17" y="-926.5" font-family="Helvetica,sans-Serif" font-size="10.00">has_string()</text>
<text text-anchor="start" x="4" y="-911.5" font-family="Helvetica,sans-Serif" font-size="10.00">+</text>
<text text-anchor="start" x="17" y="-911.5" font-family="Helvetica,sans-Serif" font-size="10.00">ends_with()</text>
<text text-anchor="start" x="4" y="-896.5" font-family="Helvetica,sans-Serif" font-size="10.00">+</text>
<text text-anchor="start" x="17" y="-896.5" font-family="Helvetica,sans-Serif" font-size="10.00">has_value()</text>
<text text-anchor="start" x="4" y="-881.5" font-family="Helvetica,sans-Serif" font-size="10.00">+</text>
<text text-anchor="start" x="17" y="-881.5" font-family="Helvetica,sans-Serif" font-size="10.00">flush()</text>
<text text-anchor="start" x="4" y="-866.5" font-family="Helvetica,sans-Serif" font-size="10.00">+</text>
<text text-anchor="start" x="17" y="-866.5" font-family="Helvetica,sans-Serif" font-size="10.00">put()</text>
<text text-anchor="start" x="4" y="-851.5" font-family="Helvetica,sans-Serif" font-size="10.00">+</text>
<text text-anchor="start" x="17" y="-851.5" font-family="Helvetica,sans-Serif" font-size="10.00">extract()</text>
<polygon fill="#666666" stroke="#666666" points="0,-1176.5 0,-1176.5 98,-1176.5 98,-1176.5 0,-1176.5"/>
<polygon fill="#666666" stroke="#666666" points="0,-1161.5 0,-1161.5 98,-1161.5 98,-1161.5 0,-1161.5"/>
<polygon fill="none" stroke="#666666" points="0,-845 0,-1194 98,-1194 98,-845 0,-845"/>
</a>
</g>
</g>
<!-- Node3&#45;&gt;Node2 -->
<g id="edge2_Node000002_Node000003" class="edge">
<title>Node3&#45;&gt;Node2</title>
<g id="a_edge2_Node000002_Node000003"><a xlink:title=" ">
<path fill="none" stroke="#63b8ff" d="M77.67,-834.87C79,-826.38 80.34,-817.81 81.68,-809.22"/>
<polygon fill="none" stroke="#63b8ff" points="74.2,-834.39 76.12,-844.81 81.12,-835.47 74.2,-834.39"/>
</a>
</g>
</g>
<!-- Node4 -->
<g id="Node000004" class="node">
<title>Node4</title>
<g id="a_Node000004"><a xlink:href="classnotification.html" target="_top" xlink:title="Provides logging and messaging functionality with various severity levels.">
<polygon fill="white" stroke="transparent" points="254,-1171.5 116,-1171.5 116,-867.5 254,-867.5 254,-1171.5"/>
<text text-anchor="start" x="157.5" y="-1159.5" font-family="Helvetica,sans-Serif" font-size="10.00">notification</text>
<text text-anchor="start" x="120" y="-1144.5" font-family="Helvetica,sans-Serif" font-size="10.00">#</text>
<text text-anchor="start" x="133" y="-1144.5" font-family="Helvetica,sans-Serif" font-size="10.00">prefix</text>
<text text-anchor="start" x="120" y="-1129.5" font-family="Helvetica,sans-Serif" font-size="10.00">#</text>
<text text-anchor="start" x="133" y="-1129.5" font-family="Helvetica,sans-Serif" font-size="10.00">debug_mode</text>
<text text-anchor="start" x="120" y="-1114.5" font-family="Helvetica,sans-Serif" font-size="10.00">#</text>
<text text-anchor="start" x="133" y="-1114.5" font-family="Helvetica,sans-Serif" font-size="10.00">suppress_warnings</text>
<text text-anchor="start" x="120" y="-1099.5" font-family="Helvetica,sans-Serif" font-size="10.00">#</text>
<text text-anchor="start" x="133" y="-1099.5" font-family="Helvetica,sans-Serif" font-size="10.00">suppress_info</text>
<text text-anchor="start" x="120" y="-1084.5" font-family="Helvetica,sans-Serif" font-size="10.00">+</text>
<text text-anchor="start" x="133" y="-1084.5" font-family="Helvetica,sans-Serif" font-size="10.00">notification()</text>
<text text-anchor="start" x="120" y="-1069.5" font-family="Helvetica,sans-Serif" font-size="10.00">+</text>
<text text-anchor="start" x="133" y="-1069.5" font-family="Helvetica,sans-Serif" font-size="10.00">~notification()</text>
<text text-anchor="start" x="120" y="-1054.5" font-family="Helvetica,sans-Serif" font-size="10.00">+</text>
<text text-anchor="start" x="133" y="-1054.5" font-family="Helvetica,sans-Serif" font-size="10.00">set_prefix()</text>
<text text-anchor="start" x="120" y="-1039.5" font-family="Helvetica,sans-Serif" font-size="10.00">+</text>
<text text-anchor="start" x="133" y="-1039.5" font-family="Helvetica,sans-Serif" font-size="10.00">get_prefix()</text>
<text text-anchor="start" x="120" y="-1024.5" font-family="Helvetica,sans-Serif" font-size="10.00">+</text>
<text text-anchor="start" x="133" y="-1024.5" font-family="Helvetica,sans-Serif" font-size="10.00">Info()</text>
<text text-anchor="start" x="120" y="-1009.5" font-family="Helvetica,sans-Serif" font-size="10.00">+</text>
<text text-anchor="start" x="133" y="-1009.5" font-family="Helvetica,sans-Serif" font-size="10.00">Warning()</text>
<text text-anchor="start" x="120" y="-994.5" font-family="Helvetica,sans-Serif" font-size="10.00">+</text>
<text text-anchor="start" x="133" y="-994.5" font-family="Helvetica,sans-Serif" font-size="10.00">Error()</text>
<text text-anchor="start" x="120" y="-979.5" font-family="Helvetica,sans-Serif" font-size="10.00">+</text>
<text text-anchor="start" x="133" y="-979.5" font-family="Helvetica,sans-Serif" font-size="10.00">Debug()</text>
<text text-anchor="start" x="120" y="-964.5" font-family="Helvetica,sans-Serif" font-size="10.00">+</text>
<text text-anchor="start" x="133" y="-964.5" font-family="Helvetica,sans-Serif" font-size="10.00">Message()</text>
<text text-anchor="start" x="120" y="-949.5" font-family="Helvetica,sans-Serif" font-size="10.00">+</text>
<text text-anchor="start" x="133" y="-949.5" font-family="Helvetica,sans-Serif" font-size="10.00">set_debug_mode()</text>
<text text-anchor="start" x="120" y="-934.5" font-family="Helvetica,sans-Serif" font-size="10.00">+</text>
<text text-anchor="start" x="133" y="-934.5" font-family="Helvetica,sans-Serif" font-size="10.00">get_debug_mode()</text>
<text text-anchor="start" x="120" y="-919.5" font-family="Helvetica,sans-Serif" font-size="10.00">+</text>
<text text-anchor="start" x="133" y="-919.5" font-family="Helvetica,sans-Serif" font-size="10.00">set_suppress_warning()</text>
<text text-anchor="start" x="120" y="-904.5" font-family="Helvetica,sans-Serif" font-size="10.00">+</text>
<text text-anchor="start" x="133" y="-904.5" font-family="Helvetica,sans-Serif" font-size="10.00">get_suppress_warning()</text>
<text text-anchor="start" x="120" y="-889.5" font-family="Helvetica,sans-Serif" font-size="10.00">+</text>
<text text-anchor="start" x="133" y="-889.5" font-family="Helvetica,sans-Serif" font-size="10.00">set_suppress_info()</text>
<text text-anchor="start" x="120" y="-874.5" font-family="Helvetica,sans-Serif" font-size="10.00">+</text>
<text text-anchor="start" x="133" y="-874.5" font-family="Helvetica,sans-Serif" font-size="10.00">get_suppress_info()</text>
<polygon fill="#666666" stroke="#666666" points="116,-1154.5 116,-1154.5 254,-1154.5 254,-1154.5 116,-1154.5"/>
<polygon fill="#666666" stroke="#666666" points="116,-1094.5 116,-1094.5 131,-1094.5 131,-1094.5 116,-1094.5"/>
<polygon fill="#666666" stroke="#666666" points="131,-1094.5 131,-1094.5 254,-1094.5 254,-1094.5 131,-1094.5"/>
<polygon fill="none" stroke="#666666" points="116,-867.5 116,-1171.5 254,-1171.5 254,-867.5 116,-867.5"/>
</a>
</g>
</g>
<!-- Node4&#45;&gt;Node2 -->
<g id="edge3_Node000002_Node000004" class="edge">
<title>Node4&#45;&gt;Node2</title>
<g id="a_edge3_Node000002_Node000004"><a xlink:title=" ">
<path fill="none" stroke="#63b8ff" d="M159.8,-857.14C157.35,-841.42 154.83,-825.28 152.3,-809.08"/>
<polygon fill="none" stroke="#63b8ff" points="156.41,-858.07 161.41,-867.41 163.32,-856.99 156.41,-858.07"/>
</a>
</g>
</g>
</g>
</svg>

<g id="navigator" transform="translate(0 0)" fill="#404254">
  <rect fill="#f2f5e9" fill-opacity="0.5" stroke="#606060" stroke-width=".5" x="0" y="0" width="60" height="60"/>
  <use id="zoomplus" xlink:href="#zoomPlus" x="17" y="9" onmousedown="handleZoom(evt,'in')"/>
  <use id="zoomminus" xlink:href="#zoomMin" x="42" y="9" onmousedown="handleZoom(evt,'out')"/>
  <use id="reset" xlink:href="#resetDef" x="30" y="36" onmousedown="handleReset()"/>
   <use id="arrowup" xlink:href="#arrowUp" x="0" y="0" onmousedown="handlePan(0,-1)"/>
  <use id="arrowright" xlink:href="#arrowRight" x="0" y="0" onmousedown="handlePan(1,0)"/>
  <use id="arrowdown" xlink:href="#arrowDown" x="0" y="0" onmousedown="handlePan(0,1)"/>
  <use id="arrowleft" xlink:href="#arrowLeft" x="0" y="0" onmousedown="handlePan(-1,0)"/>
</g>
<svg viewBox="0 0 15 15" width="100%" height="30px" preserveAspectRatio="xMaxYMin meet">
 <g id="arrow_out" transform="scale(0.3 0.3)">
  <a xlink:href="classrecursivegraphneuralnetwork__inherit__graph_org.svg" target="_base">
   <rect id="button" ry="5" rx="5" y="6" x="6" height="38" width="38"
        fill="#f2f5e9" fill-opacity="0.5" stroke="#606060" stroke-width="1.0"/>
   <path id="arrow"
     d="M 11.500037,31.436501 C 11.940474,20.09759 22.043105,11.32322 32.158766,21.979434 L 37.068811,17.246167 C 37.068811,17.246167 37.088388,32 37.088388,32 L 22.160133,31.978069 C 22.160133,31.978069 26.997745,27.140456 26.997745,27.140456 C 18.528582,18.264221 13.291696,25.230495 11.500037,31.436501 z"
     style="fill:#404040;"/>
  </a>
 </g>
</svg>

<style type='text/css'>
<![CDATA[
[data-mouse-over-selected='false'] { opacity: 0.7; }
[data-mouse-over-selected='true']  { opacity: 1.0; }
]]>
</style>
<script type="application/ecmascript"><![CDATA[
document.addEventListener('DOMContentLoaded', (event) => {
  highlightEdges();
  highlightAdjacentNodes();
});
]]></script>
</svg>
