<?xml version="1.0" encoding="UTF-8" standalone="no"?>
<!DOCTYPE svg PUBLIC "-//W3C//DTD SVG 1.1//EN"
 "http://www.w3.org/Graphics/SVG/1.1/DTD/svg11.dtd">
<!-- Generated by graphviz version 2.43.0 (0)
 -->
<!-- Title: io::scan_keys Pages: 1 -->
<svg width="222pt" height="156pt"
 viewBox="0.00 0.00 222.00 156.00" xmlns="http://www.w3.org/2000/svg" xmlns:xlink="http://www.w3.org/1999/xlink">
<g id="graph0" class="graph" transform="scale(1 1) rotate(0) translate(4 152)">
<title>io::scan_keys</title>
<!-- Node1 -->
<g id="Node000001" class="node">
<title>Node1</title>
<g id="a_Node000001"><a xlink:title="Scans for keys (e.g., TTree names, TBranch names) in the open ROOT files.">
<polygon fill="#999999" stroke="#666666" points="82,-74 0,-74 0,-55 82,-55 82,-74"/>
<text text-anchor="middle" x="41" y="-62" font-family="Helvetica,sans-Serif" font-size="10.00">io::scan_keys</text>
</a>
</g>
</g>
<!-- Node2 -->
<g id="Node000002" class="node">
<title>Node2</title>
<g id="a_Node000002"><a xlink:href="structs_2cxx_2base_8cxx.html#a4eee7b291ed2cdcd4e3c2496c603c48c" target="_top" xlink:title="Counts occurrences of a substring in a string.">
<polygon fill="white" stroke="#666666" points="188,-130 144,-130 144,-111 188,-111 188,-130"/>
<text text-anchor="middle" x="166" y="-118" font-family="Helvetica,sans-Serif" font-size="10.00">count</text>
</a>
</g>
</g>
<!-- Node1&#45;&gt;Node2 -->
<g id="edge1_Node000001_Node000002" class="edge">
<title>Node1&#45;&gt;Node2</title>
<g id="a_edge1_Node000001_Node000002"><a xlink:title=" ">
<path fill="none" stroke="#63b8ff" d="M59.88,-74.06C75.14,-82.07 97.75,-93.58 118,-102.5 123.2,-104.79 128.79,-107.08 134.23,-109.21"/>
<polygon fill="#63b8ff" stroke="#63b8ff" points="133.17,-112.56 143.76,-112.87 135.68,-106.02 133.17,-112.56"/>
</a>
</g>
</g>
<!-- Node3 -->
<g id="Node000003" class="node">
<title>Node3</title>
<g id="a_Node000003"><a xlink:href="classio.html#a65ca69ec5f12d0f3a463396bcff84d77" target="_top" xlink:title="Ends the current I/O session, closing any open files.">
<polygon fill="white" stroke="#666666" points="191,-93 141,-93 141,-74 191,-74 191,-93"/>
<text text-anchor="middle" x="166" y="-81" font-family="Helvetica,sans-Serif" font-size="10.00">io::end</text>
</a>
</g>
</g>
<!-- Node1&#45;&gt;Node3 -->
<g id="edge3_Node000001_Node000003" class="edge">
<title>Node1&#45;&gt;Node3</title>
<g id="a_edge3_Node000001_Node000003"><a xlink:title=" ">
<path fill="none" stroke="#63b8ff" d="M82.27,-70.72C97.99,-73.15 115.8,-75.9 130.87,-78.23"/>
<polygon fill="#63b8ff" stroke="#63b8ff" points="130.38,-81.69 140.8,-79.76 131.45,-74.78 130.38,-81.69"/>
</a>
</g>
</g>
<!-- Node4 -->
<g id="Node000004" class="node">
<title>Node4</title>
<g id="a_Node000004"><a xlink:href="classtools.html#a3d538da5310467c9321b27cd6a75b9af" target="_top" xlink:title="Checks if a string ends with a specific substring.">
<polygon fill="white" stroke="#666666" points="214,-56 118,-56 118,-37 214,-37 214,-56"/>
<text text-anchor="middle" x="166" y="-44" font-family="Helvetica,sans-Serif" font-size="10.00">tools::ends_with</text>
</a>
</g>
</g>
<!-- Node1&#45;&gt;Node4 -->
<g id="edge4_Node000001_Node000004" class="edge">
<title>Node1&#45;&gt;Node4</title>
<g id="a_edge4_Node000001_Node000004"><a xlink:title=" ">
<path fill="none" stroke="#63b8ff" d="M82.27,-58.61C90.43,-57.41 99.16,-56.14 107.77,-54.87"/>
<polygon fill="#63b8ff" stroke="#63b8ff" points="108.4,-58.32 117.79,-53.41 107.39,-51.39 108.4,-58.32"/>
</a>
</g>
</g>
<!-- Node5 -->
<g id="Node000005" class="node">
<title>Node5</title>
<g id="a_Node000005"><a xlink:href="classtools.html#a13633d4d63c55bcf537ff141e7605f13" target="_top" xlink:title="Checks if a vector of strings contains a specific string.">
<polygon fill="white" stroke="#666666" points="214,-19 118,-19 118,0 214,0 214,-19"/>
<text text-anchor="middle" x="166" y="-7" font-family="Helvetica,sans-Serif" font-size="10.00">tools::has_value</text>
</a>
</g>
</g>
<!-- Node1&#45;&gt;Node5 -->
<g id="edge5_Node000001_Node000005" class="edge">
<title>Node1&#45;&gt;Node5</title>
<g id="a_edge5_Node000001_Node000005"><a xlink:title=" ">
<path fill="none" stroke="#63b8ff" d="M61.54,-54.86C76.81,-47.42 98.61,-37 118,-28.5 122.19,-26.66 126.62,-24.78 131.02,-22.96"/>
<polygon fill="#63b8ff" stroke="#63b8ff" points="132.56,-26.11 140.49,-19.09 129.91,-19.63 132.56,-26.11"/>
</a>
</g>
</g>
<!-- Node2&#45;&gt;Node2 -->
<g id="edge2_Node000002_Node000002" class="edge">
<title>Node2&#45;&gt;Node2</title>
<g id="a_edge2_Node000002_Node000002"><a xlink:title=" ">
<path fill="none" stroke="#63b8ff" d="M146.89,-130.08C137.59,-138.73 143.96,-148 166,-148 179.77,-148 187.43,-144.38 188.96,-139.55"/>
<polygon fill="#63b8ff" stroke="#63b8ff" points="192.12,-138.03 185.11,-130.08 185.64,-140.66 192.12,-138.03"/>
</a>
</g>
</g>
</g>
</svg>
