<?xml version="1.0" encoding="UTF-8" standalone="no"?>
<!DOCTYPE svg PUBLIC "-//W3C//DTD SVG 1.1//EN"
 "http://www.w3.org/Graphics/SVG/1.1/DTD/svg11.dtd">
<!-- Generated by graphviz version 2.43.0 (0)
 -->
<!-- Title: io::end Pages: 1 -->
<!--zoomable 258 -->

<svg id="main" version="1.1" xmlns="http://www.w3.org/2000/svg" xmlns:xlink="http://www.w3.org/1999/xlink" xml:space="preserve" onload="init(evt)">
<style type="text/css"><![CDATA[
.node, .edge {opacity: 0.7;}
.node.selected, .edge.selected {opacity: 1;}
.edge:hover path { stroke: red; }
.edge:hover polygon { stroke: red; fill: red; }
]]></style>

<defs>
  <circle id="rim" cx="0" cy="0" r="7"/>
  <circle id="rim2" cx="0" cy="0" r="3.5"/>
  <g id="zoomPlus">
    <use xlink:href="#rim" fill="#404040"><set attributeName="fill" to="#808080" begin="zoomplus.mouseover" end="zoomplus.mouseout"/></use>
    <path d="M-4,0h8M0,-4v8" fill="none" stroke="white" stroke-width="1.5" pointer-events="none"/>
  </g>
  <g id="zoomMin">
    <use xlink:href="#rim" fill="#404040"><set attributeName="fill" to="#808080" begin="zoomminus.mouseover" end="zoomminus.mouseout"/></use>
    <path d="M-4,0h8" fill="none" stroke="white" stroke-width="1.5" pointer-events="none"/>
  </g>
  <g id="arrowUp" transform="translate(30 24)">
    <use xlink:href="#rim"/>
    <path pointer-events="none" fill="none" stroke="white" stroke-width="1.5" d="M0,-3.0v7 M-2.5,-0.5L0,-3.0L2.5,-0.5"/>
  </g>
  <g id="arrowRight" transform="rotate(90) translate(36 -43)">
    <use xlink:href="#rim"/>
    <path pointer-events="none" fill="none" stroke="white" stroke-width="1.5" d="M0,-3.0v7 M-2.5,-0.5L0,-3.0L2.5,-0.5"/>
  </g>
  <g id="arrowDown" transform="rotate(180) translate(-30 -48)">
    <use xlink:href="#rim"/>
    <path pointer-events="none" fill="none" stroke="white" stroke-width="1.5" d="M0,-3.0v7 M-2.5,-0.5L0,-3.0L2.5,-0.5"/>
  </g>
  <g id="arrowLeft" transform="rotate(270) translate(-36 17)">
    <use xlink:href="#rim"/>
    <path pointer-events="none" fill="none" stroke="white" stroke-width="1.5" d="M0,-3.0v7 M-2.5,-0.5L0,-3.0L2.5,-0.5"/>
  </g>
  <g id="resetDef">
    <use xlink:href="#rim2" fill="#404040"><set attributeName="fill" to="#808080" begin="reset.mouseover" end="reset.mouseout"/></use>
  </g>
</defs>
<script type="application/ecmascript">
var viewWidth = 542;
var viewHeight = 258;
var sectionId = 'dynsection-9';
</script>
<script type="application/ecmascript" xlink:href="svg.min.js"/>
<svg id="graph" class="graph">
<g id="viewport">
<title>io::end</title>
<!-- Node1 -->
<g id="Node000001" class="node">
<title>Node1</title>
<g id="a_Node000001"><a xlink:title="Ends the current I/O session, closing any open files.">
<polygon fill="#999999" stroke="#666666" points="534,-163.5 484,-163.5 484,-144.5 534,-144.5 534,-163.5"/>
<text text-anchor="middle" x="509" y="-151.5" font-family="Helvetica,sans-Serif" font-size="10.00">io::end</text>
</a>
</g>
</g>
<!-- Node2 -->
<g id="Node000002" class="node">
<title>Node2</title>
<g id="a_Node000002"><a xlink:href="classio.html#a4837676c45d56b2de96228e5fbea33ce" target="_top" xlink:title="Destructor for the io class.">
<polygon fill="white" stroke="#666666" points="241,-239.5 192,-239.5 192,-220.5 241,-220.5 241,-239.5"/>
<text text-anchor="middle" x="216.5" y="-227.5" font-family="Helvetica,sans-Serif" font-size="10.00">io::~io</text>
</a>
</g>
</g>
<!-- Node1&#45;&gt;Node2 -->
<g id="edge1_Node000001_Node000002" class="edge">
<title>Node1&#45;&gt;Node2</title>
<g id="a_edge1_Node000001_Node000002"><a xlink:title=" ">
<path fill="none" stroke="#63b8ff" d="M499.43,-172.7C489.84,-191.13 472.38,-218.19 448,-230 379.22,-263.33 284.76,-246.93 241.23,-236.45"/>
<polygon fill="#63b8ff" stroke="#63b8ff" points="502.68,-174.02 503.95,-163.5 496.4,-170.94 502.68,-174.02"/>
</a>
</g>
</g>
<!-- Node3 -->
<g id="Node000003" class="node">
<title>Node3</title>
<g id="a_Node000003"><a xlink:href="classanalysis.html#a68b520bbdb4d591d7375f9ecd6532ce8" target="_top" xlink:title="Builds or processes event data based on the added event templates and samples.">
<polygon fill="white" stroke="#666666" points="448,-107.5 323,-107.5 323,-88.5 448,-88.5 448,-107.5"/>
<text text-anchor="middle" x="385.5" y="-95.5" font-family="Helvetica,sans-Serif" font-size="10.00">analysis::build_events</text>
</a>
</g>
</g>
<!-- Node1&#45;&gt;Node3 -->
<g id="edge2_Node000001_Node000003" class="edge">
<title>Node1&#45;&gt;Node3</title>
<g id="a_edge2_Node000001_Node000003"><a xlink:title=" ">
<path fill="none" stroke="#63b8ff" d="M486.16,-138.68C475.1,-131.4 461.23,-123.01 448,-117 440.06,-113.4 431.25,-110.23 422.84,-107.56"/>
<polygon fill="#63b8ff" stroke="#63b8ff" points="484.48,-141.76 494.73,-144.45 488.39,-135.96 484.48,-141.76"/>
</a>
</g>
</g>
<!-- Node6 -->
<g id="Node000006" class="node">
<title>Node6</title>
<g id="a_Node000006"><a xlink:href="classdataloader.html#a52b546c96dec81d3860fb7e6268b097a" target="_top" xlink:title=" ">
<polygon fill="white" stroke="#666666" points="440.5,-70 330.5,-70 330.5,-40 440.5,-40 440.5,-70"/>
<text text-anchor="start" x="338.5" y="-58" font-family="Helvetica,sans-Serif" font-size="10.00">dataloader::restore</text>
<text text-anchor="middle" x="385.5" y="-47" font-family="Helvetica,sans-Serif" font-size="10.00">_graphs_</text>
</a>
</g>
</g>
<!-- Node1&#45;&gt;Node6 -->
<g id="edge6_Node000001_Node000006" class="edge">
<title>Node1&#45;&gt;Node6</title>
<g id="a_edge6_Node000001_Node000006"><a xlink:title=" ">
<path fill="none" stroke="#63b8ff" d="M496.72,-135.28C485.98,-118.81 468.44,-95.15 448,-80 442.91,-76.23 437.16,-72.92 431.28,-70.05"/>
<polygon fill="#63b8ff" stroke="#63b8ff" points="493.94,-137.44 502.23,-144.03 499.87,-133.71 493.94,-137.44"/>
</a>
</g>
</g>
<!-- Node10 -->
<g id="Node000010" class="node">
<title>Node10</title>
<g id="a_Node000010"><a xlink:href="classio.html#a65c36380ef79524e8235f792abe9625c" target="_top" xlink:title="Initializes ROOT file processing, potentially opening files specified in settings.">
<polygon fill="white" stroke="#666666" points="258,-182.5 175,-182.5 175,-163.5 258,-163.5 258,-182.5"/>
<text text-anchor="middle" x="216.5" y="-170.5" font-family="Helvetica,sans-Serif" font-size="10.00">io::root_begin</text>
</a>
</g>
</g>
<!-- Node1&#45;&gt;Node10 -->
<g id="edge10_Node000001_Node000010" class="edge">
<title>Node1&#45;&gt;Node10</title>
<g id="a_edge10_Node000001_Node000010"><a xlink:title=" ">
<path fill="none" stroke="#63b8ff" d="M473.66,-156.25C419.8,-159.77 315.7,-166.58 258.18,-170.34"/>
<polygon fill="#63b8ff" stroke="#63b8ff" points="473.98,-159.73 483.73,-155.59 473.52,-152.75 473.98,-159.73"/>
</a>
</g>
</g>
<!-- Node12 -->
<g id="Node000012" class="node">
<title>Node12</title>
<g id="a_Node000012"><a xlink:href="classio.html#a1c994985d2405202c19fb391cc43a5de" target="_top" xlink:title="Finalizes ROOT file processing, closing any ROOT files opened by root_begin.">
<polygon fill="white" stroke="#666666" points="422.5,-220.5 348.5,-220.5 348.5,-201.5 422.5,-201.5 422.5,-220.5"/>
<text text-anchor="middle" x="385.5" y="-208.5" font-family="Helvetica,sans-Serif" font-size="10.00">io::root_end</text>
</a>
</g>
</g>
<!-- Node1&#45;&gt;Node12 -->
<g id="edge12_Node000001_Node000012" class="edge">
<title>Node1&#45;&gt;Node12</title>
<g id="a_edge12_Node000001_Node000012"><a xlink:title=" ">
<path fill="none" stroke="#63b8ff" d="M483.22,-168.58C472.55,-174.61 459.83,-181.47 448,-187 436.79,-192.24 424.09,-197.33 413.16,-201.47"/>
<polygon fill="#63b8ff" stroke="#63b8ff" points="485.06,-171.56 492,-163.55 481.58,-165.49 485.06,-171.56"/>
</a>
</g>
</g>
<!-- Node13 -->
<g id="Node000013" class="node">
<title>Node13</title>
<g id="a_Node000013"><a xlink:href="classio.html#aacb050c4cb6c10038d6bf8edb7244a28" target="_top" xlink:title="Scans for keys (e.g., TTree names, TBranch names) in the open ROOT files.">
<polygon fill="white" stroke="#666666" points="426.5,-144.5 344.5,-144.5 344.5,-125.5 426.5,-125.5 426.5,-144.5"/>
<text text-anchor="middle" x="385.5" y="-132.5" font-family="Helvetica,sans-Serif" font-size="10.00">io::scan_keys</text>
</a>
</g>
</g>
<!-- Node1&#45;&gt;Node13 -->
<g id="edge15_Node000001_Node000013" class="edge">
<title>Node1&#45;&gt;Node13</title>
<g id="a_edge15_Node000001_Node000013"><a xlink:title=" ">
<path fill="none" stroke="#63b8ff" d="M473.85,-148.66C459.2,-146.37 441.98,-143.68 426.72,-141.29"/>
<polygon fill="#63b8ff" stroke="#63b8ff" points="473.57,-152.16 484,-150.25 474.66,-145.24 473.57,-152.16"/>
</a>
</g>
</g>
<!-- Node4 -->
<g id="Node000004" class="node">
<title>Node4</title>
<g id="a_Node000004"><a xlink:href="classanalysis.html#a401745bb4bcae03160ffa0b5df2887e7" target="_top" xlink:title="Starts the analysis execution.">
<polygon fill="white" stroke="#666666" points="259.5,-107.5 173.5,-107.5 173.5,-88.5 259.5,-88.5 259.5,-107.5"/>
<text text-anchor="middle" x="216.5" y="-95.5" font-family="Helvetica,sans-Serif" font-size="10.00">analysis::start</text>
</a>
</g>
</g>
<!-- Node3&#45;&gt;Node4 -->
<g id="edge3_Node000003_Node000004" class="edge">
<title>Node3&#45;&gt;Node4</title>
<g id="a_edge3_Node000003_Node000004"><a xlink:title=" ">
<path fill="none" stroke="#63b8ff" d="M312.57,-98C294.53,-98 275.75,-98 259.7,-98"/>
<polygon fill="#63b8ff" stroke="#63b8ff" points="312.79,-101.5 322.79,-98 312.79,-94.5 312.79,-101.5"/>
</a>
</g>
</g>
<!-- Node5 -->
<g id="Node000005" class="node">
<title>Node5</title>
<g id="a_Node000005"><a xlink:href="classanalysis.html#aa5f5f1de2fe05c9fb8c5c0fffbf7b938" target="_top" xlink:title="Fetches tags, possibly related to data versions, processing stages, or k&#45;folds.">
<polygon fill="white" stroke="#666666" points="109.5,-107.5 0.5,-107.5 0.5,-88.5 109.5,-88.5 109.5,-107.5"/>
<text text-anchor="middle" x="55" y="-95.5" font-family="Helvetica,sans-Serif" font-size="10.00">analysis::fetchtags</text>
</a>
</g>
</g>
<!-- Node4&#45;&gt;Node5 -->
<g id="edge4_Node000004_Node000005" class="edge">
<title>Node4&#45;&gt;Node5</title>
<g id="a_edge4_Node000004_Node000005"><a xlink:title=" ">
<path fill="none" stroke="#63b8ff" d="M162.83,-91.61C145.76,-91.14 126.82,-91.13 109.69,-91.58"/>
<polygon fill="#63b8ff" stroke="#63b8ff" points="163.06,-95.12 173.18,-91.96 163.3,-88.12 163.06,-95.12"/>
</a>
</g>
</g>
<!-- Node5&#45;&gt;Node4 -->
<g id="edge5_Node000005_Node000004" class="edge">
<title>Node5&#45;&gt;Node4</title>
<g id="a_edge5_Node000005_Node000004"><a xlink:title=" ">
<path fill="none" stroke="#63b8ff" d="M119.8,-104.63C137.75,-104.91 156.82,-104.71 173.18,-104.04"/>
<polygon fill="#63b8ff" stroke="#63b8ff" points="119.76,-101.13 109.69,-104.42 119.61,-108.13 119.76,-101.13"/>
</a>
</g>
</g>
<!-- Node7 -->
<g id="Node000007" class="node">
<title>Node7</title>
<g id="a_Node000007"><a xlink:href="classdataloader.html#a04c94d9be735c32b80b6599c6bd993b4" target="_top" xlink:title=" ">
<polygon fill="white" stroke="#666666" points="287,-67.5 146,-67.5 146,-48.5 287,-48.5 287,-67.5"/>
<text text-anchor="middle" x="216.5" y="-55.5" font-family="Helvetica,sans-Serif" font-size="10.00">dataloader::dump_graphs</text>
</a>
</g>
</g>
<!-- Node6&#45;&gt;Node7 -->
<g id="edge7_Node000006_Node000007" class="edge">
<title>Node6&#45;&gt;Node7</title>
<g id="a_edge7_Node000006_Node000007"><a xlink:title=" ">
<path fill="none" stroke="#63b8ff" d="M320.13,-56.16C309.37,-56.35 298.17,-56.55 287.28,-56.75"/>
<polygon fill="#63b8ff" stroke="#63b8ff" points="320.34,-59.65 330.28,-55.97 320.22,-52.65 320.34,-59.65"/>
</a>
</g>
</g>
<!-- Node8 -->
<g id="Node000008" class="node">
<title>Node8</title>
<g id="a_Node000008"><a xlink:href="classdataloader.html#aed6ec872879a44ecfa9ae1c2188690a8" target="_top" xlink:title=" ">
<polygon fill="white" stroke="#666666" points="271.5,-30 161.5,-30 161.5,0 271.5,0 271.5,-30"/>
<text text-anchor="start" x="169.5" y="-18" font-family="Helvetica,sans-Serif" font-size="10.00">dataloader::restore</text>
<text text-anchor="middle" x="216.5" y="-7" font-family="Helvetica,sans-Serif" font-size="10.00">_graphs</text>
</a>
</g>
</g>
<!-- Node6&#45;&gt;Node8 -->
<g id="edge8_Node000006_Node000008" class="edge">
<title>Node6&#45;&gt;Node8</title>
<g id="a_edge8_Node000006_Node000008"><a xlink:title=" ">
<path fill="none" stroke="#63b8ff" d="M320.43,-39.65C304.36,-35.8 287.27,-31.71 271.73,-27.99"/>
<polygon fill="#63b8ff" stroke="#63b8ff" points="319.74,-43.09 330.28,-42.01 321.37,-36.28 319.74,-43.09"/>
</a>
</g>
</g>
<!-- Node9 -->
<g id="Node000009" class="node">
<title>Node9</title>
<g id="a_Node000009"><a xlink:href="classdataloader.html#ae3bba702555507d8b6e5567c34d19142" target="_top" xlink:title=" ">
<polygon fill="white" stroke="#666666" points="110,-30 0,-30 0,0 110,0 110,-30"/>
<text text-anchor="start" x="8" y="-18" font-family="Helvetica,sans-Serif" font-size="10.00">dataloader::restore</text>
<text text-anchor="middle" x="55" y="-7" font-family="Helvetica,sans-Serif" font-size="10.00">_graphs</text>
</a>
</g>
</g>
<!-- Node8&#45;&gt;Node9 -->
<g id="edge9_Node000008_Node000009" class="edge">
<title>Node8&#45;&gt;Node9</title>
<g id="a_edge9_Node000008_Node000009"><a xlink:title=" ">
<path fill="none" stroke="#63b8ff" d="M150.88,-15C137.38,-15 123.28,-15 110.2,-15"/>
<polygon fill="#63b8ff" stroke="#63b8ff" points="151.06,-18.5 161.06,-15 151.06,-11.5 151.06,-18.5"/>
</a>
</g>
</g>
<!-- Node11 -->
<g id="Node000011" class="node">
<title>Node11</title>
<g id="a_Node000011"><a xlink:href="classio.html#ae346e23a45d73c24f844827495912941" target="_top" xlink:title="Retrieves the data read from ROOT files, likely structured as a map of data_t objects.">
<polygon fill="white" stroke="#666666" points="92,-182.5 18,-182.5 18,-163.5 92,-163.5 92,-182.5"/>
<text text-anchor="middle" x="55" y="-170.5" font-family="Helvetica,sans-Serif" font-size="10.00">io::get_data</text>
</a>
</g>
</g>
<!-- Node10&#45;&gt;Node11 -->
<g id="edge11_Node000010_Node000011" class="edge">
<title>Node10&#45;&gt;Node11</title>
<g id="a_edge11_Node000010_Node000011"><a xlink:title=" ">
<path fill="none" stroke="#63b8ff" d="M164.67,-173C141.11,-173 113.65,-173 92.23,-173"/>
<polygon fill="#63b8ff" stroke="#63b8ff" points="164.84,-176.5 174.84,-173 164.84,-169.5 164.84,-176.5"/>
</a>
</g>
</g>
<!-- Node12&#45;&gt;Node2 -->
<g id="edge13_Node000012_Node000002" class="edge">
<title>Node12&#45;&gt;Node2</title>
<g id="a_edge13_Node000012_Node000002"><a xlink:title=" ">
<path fill="none" stroke="#63b8ff" d="M337.98,-216.29C306.57,-219.87 266.4,-224.44 241.31,-227.29"/>
<polygon fill="#63b8ff" stroke="#63b8ff" points="338.72,-219.73 348.26,-215.12 337.93,-212.78 338.72,-219.73"/>
</a>
</g>
</g>
<!-- Node12&#45;&gt;Node10 -->
<g id="edge14_Node000012_Node000010" class="edge">
<title>Node12&#45;&gt;Node10</title>
<g id="a_edge14_Node000012_Node000010"><a xlink:title=" ">
<path fill="none" stroke="#63b8ff" d="M338.22,-200.47C313.07,-194.75 282.26,-187.74 258.06,-182.23"/>
<polygon fill="#63b8ff" stroke="#63b8ff" points="337.74,-203.95 348.26,-202.75 339.29,-197.12 337.74,-203.95"/>
</a>
</g>
</g>
<!-- Node13&#45;&gt;Node10 -->
<g id="edge16_Node000013_Node000010" class="edge">
<title>Node13&#45;&gt;Node10</title>
<g id="a_edge16_Node000013_Node000010"><a xlink:title=" ">
<path fill="none" stroke="#63b8ff" d="M334.68,-146.34C310.22,-151.9 281.12,-158.52 258.04,-163.77"/>
<polygon fill="#63b8ff" stroke="#63b8ff" points="335.53,-149.73 344.5,-144.1 333.97,-142.91 335.53,-149.73"/>
</a>
</g>
</g>
<!-- Node14 -->
<g id="Node000014" class="node">
<title>Node14</title>
<g id="a_Node000014"><a xlink:href="classio.html#a66a6d354d07e8aa4f9fdadc8f74a314b" target="_top" xlink:title="Retrieves the sizes (number of entries) of TTrees in the open ROOT files.">
<polygon fill="white" stroke="#666666" points="254.5,-144.5 178.5,-144.5 178.5,-125.5 254.5,-125.5 254.5,-144.5"/>
<text text-anchor="middle" x="216.5" y="-132.5" font-family="Helvetica,sans-Serif" font-size="10.00">io::root_size</text>
</a>
</g>
</g>
<!-- Node13&#45;&gt;Node14 -->
<g id="edge17_Node000013_Node000014" class="edge">
<title>Node13&#45;&gt;Node14</title>
<g id="a_edge17_Node000013_Node000014"><a xlink:title=" ">
<path fill="none" stroke="#63b8ff" d="M334.23,-135C308.63,-135 278.04,-135 254.6,-135"/>
<polygon fill="#63b8ff" stroke="#63b8ff" points="334.5,-138.5 344.5,-135 334.5,-131.5 334.5,-138.5"/>
</a>
</g>
</g>
</g>
</svg>

<g id="navigator" transform="translate(0 0)" fill="#404254">
  <rect fill="#f2f5e9" fill-opacity="0.5" stroke="#606060" stroke-width=".5" x="0" y="0" width="60" height="60"/>
  <use id="zoomplus" xlink:href="#zoomPlus" x="17" y="9" onmousedown="handleZoom(evt,'in')"/>
  <use id="zoomminus" xlink:href="#zoomMin" x="42" y="9" onmousedown="handleZoom(evt,'out')"/>
  <use id="reset" xlink:href="#resetDef" x="30" y="36" onmousedown="handleReset()"/>
   <use id="arrowup" xlink:href="#arrowUp" x="0" y="0" onmousedown="handlePan(0,-1)"/>
  <use id="arrowright" xlink:href="#arrowRight" x="0" y="0" onmousedown="handlePan(1,0)"/>
  <use id="arrowdown" xlink:href="#arrowDown" x="0" y="0" onmousedown="handlePan(0,1)"/>
  <use id="arrowleft" xlink:href="#arrowLeft" x="0" y="0" onmousedown="handlePan(-1,0)"/>
</g>
<svg viewBox="0 0 15 15" width="100%" height="30px" preserveAspectRatio="xMaxYMin meet">
 <g id="arrow_out" transform="scale(0.3 0.3)">
  <a xlink:href="classio_a65ca69ec5f12d0f3a463396bcff84d77_icgraph_org.svg" target="_base">
   <rect id="button" ry="5" rx="5" y="6" x="6" height="38" width="38"
        fill="#f2f5e9" fill-opacity="0.5" stroke="#606060" stroke-width="1.0"/>
   <path id="arrow"
     d="M 11.500037,31.436501 C 11.940474,20.09759 22.043105,11.32322 32.158766,21.979434 L 37.068811,17.246167 C 37.068811,17.246167 37.088388,32 37.088388,32 L 22.160133,31.978069 C 22.160133,31.978069 26.997745,27.140456 26.997745,27.140456 C 18.528582,18.264221 13.291696,25.230495 11.500037,31.436501 z"
     style="fill:#404040;"/>
  </a>
 </g>
</svg>

<style type='text/css'>
<![CDATA[
[data-mouse-over-selected='false'] { opacity: 0.7; }
[data-mouse-over-selected='true']  { opacity: 1.0; }
]]>
</style>
<script type="application/ecmascript"><![CDATA[
document.addEventListener('DOMContentLoaded', (event) => {
  highlightEdges();
  highlightAdjacentNodes();
});
]]></script>
</svg>
