<?xml version="1.0" encoding="UTF-8" standalone="no"?>
<!DOCTYPE svg PUBLIC "-//W3C//DTD SVG 1.1//EN"
 "http://www.w3.org/Graphics/SVG/1.1/DTD/svg11.dtd">
<!-- Generated by graphviz version 2.43.0 (0)
 -->
<!-- Title: recursivegraphneuralnetwork::message Pages: 1 -->
<svg width="1011pt" height="630pt"
 viewBox="0.00 0.00 1011.00 630.00" xmlns="http://www.w3.org/2000/svg" xmlns:xlink="http://www.w3.org/1999/xlink">
<g id="graph0" class="graph" transform="scale(1 1) rotate(0) translate(4 626)">
<title>recursivegraphneuralnetwork::message</title>
<!-- Node1 -->
<g id="Node000001" class="node">
<title>Node1</title>
<g id="a_Node000001"><a xlink:title=" ">
<polygon fill="#999999" stroke="#666666" points="160,-387.5 0,-387.5 0,-357.5 160,-357.5 160,-387.5"/>
<text text-anchor="start" x="8" y="-375.5" font-family="Helvetica,sans-Serif" font-size="10.00">recursivegraphneuralnetwork</text>
<text text-anchor="middle" x="80" y="-364.5" font-family="Helvetica,sans-Serif" font-size="10.00">::message</text>
</a>
</g>
</g>
<!-- Node2 -->
<g id="Node000002" class="node">
<title>Node2</title>
<g id="a_Node000002"><a xlink:href="namespacepyc_1_1physics_1_1cartesian_1_1combined.html#ada89277d3b7f28e15501e5c943516fe0" target="_top" xlink:title=" ">
<polygon fill="white" stroke="#666666" points="340,-528.5 212,-528.5 212,-498.5 340,-498.5 340,-528.5"/>
<text text-anchor="start" x="220" y="-516.5" font-family="Helvetica,sans-Serif" font-size="10.00">pyc::physics::cartesian</text>
<text text-anchor="middle" x="276" y="-505.5" font-family="Helvetica,sans-Serif" font-size="10.00">::combined::DeltaR</text>
</a>
</g>
</g>
<!-- Node1&#45;&gt;Node2 -->
<g id="edge1_Node000001_Node000002" class="edge">
<title>Node1&#45;&gt;Node2</title>
<g id="a_edge1_Node000001_Node000002"><a xlink:title=" ">
<path fill="none" stroke="#63b8ff" d="M99.85,-387.5C122.41,-405.32 161.47,-435.74 196,-460.5 211.23,-471.42 228.47,-483.07 242.96,-492.66"/>
<polygon fill="#63b8ff" stroke="#63b8ff" points="241.3,-495.76 251.58,-498.34 245.15,-489.91 241.3,-495.76"/>
</a>
</g>
</g>
<!-- Node7 -->
<g id="Node000007" class="node">
<title>Node7</title>
<g id="a_Node000007"><a xlink:href="classrecursivegraphneuralnetwork.html#a4b09bc8de8d9ecd0b4ff1ffa94deea98" target="_top" xlink:title="Virtual forward pass method for a single graph.">
<polygon fill="white" stroke="#666666" points="356,-286.5 196,-286.5 196,-256.5 356,-256.5 356,-286.5"/>
<text text-anchor="start" x="204" y="-274.5" font-family="Helvetica,sans-Serif" font-size="10.00">recursivegraphneuralnetwork</text>
<text text-anchor="middle" x="276" y="-263.5" font-family="Helvetica,sans-Serif" font-size="10.00">::forward</text>
</a>
</g>
</g>
<!-- Node1&#45;&gt;Node7 -->
<g id="edge8_Node000001_Node000007" class="edge">
<title>Node1&#45;&gt;Node7</title>
<g id="a_edge8_Node000001_Node000007"><a xlink:title=" ">
<path fill="none" stroke="#63b8ff" d="M101.76,-357.32C131.23,-339.47 186.07,-310.39 226.18,-290.97"/>
<polygon fill="#63b8ff" stroke="#63b8ff" points="227.76,-294.09 235.27,-286.62 224.74,-287.78 227.76,-294.09"/>
</a>
</g>
</g>
<!-- Node13 -->
<g id="Node000013" class="node">
<title>Node13</title>
<g id="a_Node000013"><a xlink:href="namespacepyc_1_1physics_1_1cartesian_1_1combined.html#adc80247c6622f7cb166a81fa45b7b51d" target="_top" xlink:title=" ">
<polygon fill="white" stroke="#666666" points="536.5,-473.5 408.5,-473.5 408.5,-443.5 536.5,-443.5 536.5,-473.5"/>
<text text-anchor="start" x="416.5" y="-461.5" font-family="Helvetica,sans-Serif" font-size="10.00">pyc::physics::cartesian</text>
<text text-anchor="middle" x="472.5" y="-450.5" font-family="Helvetica,sans-Serif" font-size="10.00">::combined::M</text>
</a>
</g>
</g>
<!-- Node1&#45;&gt;Node13 -->
<g id="edge44_Node000001_Node000013" class="edge">
<title>Node1&#45;&gt;Node13</title>
<g id="a_edge44_Node000001_Node000013"><a xlink:title=" ">
<path fill="none" stroke="#63b8ff" d="M149.47,-387.58C219.24,-402.95 327.08,-426.69 398.46,-442.42"/>
<polygon fill="#63b8ff" stroke="#63b8ff" points="397.77,-445.85 408.29,-444.58 399.27,-439.01 397.77,-445.85"/>
</a>
</g>
</g>
<!-- Node30 -->
<g id="Node000030" class="node">
<title>Node30</title>
<g id="a_Node000030"><a xlink:href="namespacepyc_1_1graph.html#a6b142e7f996e314f3c8a971e471d6d95" target="_top" xlink:title=" ">
<polygon fill="white" stroke="#666666" points="526,-387.5 419,-387.5 419,-357.5 526,-357.5 526,-387.5"/>
<text text-anchor="start" x="427" y="-375.5" font-family="Helvetica,sans-Serif" font-size="10.00">pyc::graph::unique</text>
<text text-anchor="middle" x="472.5" y="-364.5" font-family="Helvetica,sans-Serif" font-size="10.00">_aggregation</text>
</a>
</g>
</g>
<!-- Node1&#45;&gt;Node30 -->
<g id="edge45_Node000001_Node000030" class="edge">
<title>Node1&#45;&gt;Node30</title>
<g id="a_edge45_Node000001_Node000030"><a xlink:title=" ">
<path fill="none" stroke="#63b8ff" d="M160.02,-372.5C233.37,-372.5 341.12,-372.5 408.74,-372.5"/>
<polygon fill="#63b8ff" stroke="#63b8ff" points="408.82,-376 418.82,-372.5 408.82,-369 408.82,-376"/>
</a>
</g>
</g>
<!-- Node3 -->
<g id="Node000003" class="node">
<title>Node3</title>
<g id="a_Node000003"><a xlink:href="utils_8cxx.html#a123aed6d73594e07c6401a7a6c587808" target="_top" xlink:title=" ">
<polygon fill="white" stroke="#666666" points="695.5,-382 625.5,-382 625.5,-363 695.5,-363 695.5,-382"/>
<text text-anchor="middle" x="660.5" y="-370" font-family="Helvetica,sans-Serif" font-size="10.00">changedev</text>
</a>
</g>
</g>
<!-- Node2&#45;&gt;Node3 -->
<g id="edge2_Node000002_Node000003" class="edge">
<title>Node2&#45;&gt;Node3</title>
<g id="a_edge2_Node000002_Node000003"><a xlink:title=" ">
<path fill="none" stroke="#63b8ff" d="M340.01,-519.12C398.58,-521.51 486.53,-517.7 553,-482.5 574.73,-470.99 572.13,-458.39 589,-440.5 606.13,-422.34 626.8,-402.64 641.31,-389.15"/>
<polygon fill="#63b8ff" stroke="#63b8ff" points="643.71,-391.69 648.68,-382.33 638.96,-386.55 643.71,-391.69"/>
</a>
</g>
</g>
<!-- Node4 -->
<g id="Node000004" class="node">
<title>Node4</title>
<g id="a_Node000004"><a xlink:href="namespacephysics__.html#a5f66fa5ca30082509e1284fbcb4b25be" target="_top" xlink:title="Computes the delta R separation between two particles.">
<polygon fill="white" stroke="#666666" points="521.5,-549 423.5,-549 423.5,-530 521.5,-530 521.5,-549"/>
<text text-anchor="middle" x="472.5" y="-537" font-family="Helvetica,sans-Serif" font-size="10.00">physics_::DeltaR</text>
</a>
</g>
</g>
<!-- Node2&#45;&gt;Node4 -->
<g id="edge3_Node000002_Node000004" class="edge">
<title>Node2&#45;&gt;Node4</title>
<g id="a_edge3_Node000002_Node000004"><a xlink:title=" ">
<path fill="none" stroke="#63b8ff" d="M340.15,-521.94C363.72,-525.09 390.36,-528.65 413.46,-531.74"/>
<polygon fill="#63b8ff" stroke="#63b8ff" points="413.08,-535.22 423.46,-533.08 414.01,-528.28 413.08,-535.22"/>
</a>
</g>
</g>
<!-- Node5 -->
<g id="Node000005" class="node">
<title>Node5</title>
<g id="a_Node000005"><a xlink:href="namespacetransform__.html#adf008ef1e94217cd7a7dae8c53a127a6" target="_top" xlink:title="Computes the transverse momentum (Pt), pseudorapidity (Eta), and azimuthal angle (Phi) from a momentu...">
<polygon fill="white" stroke="#666666" points="530.5,-604 414.5,-604 414.5,-585 530.5,-585 530.5,-604"/>
<text text-anchor="middle" x="472.5" y="-592" font-family="Helvetica,sans-Serif" font-size="10.00">transform_::PtEtaPhi</text>
</a>
</g>
</g>
<!-- Node2&#45;&gt;Node5 -->
<g id="edge5_Node000002_Node000005" class="edge">
<title>Node2&#45;&gt;Node5</title>
<g id="a_edge5_Node000002_Node000005"><a xlink:title=" ">
<path fill="none" stroke="#63b8ff" d="M299.87,-528.53C322.44,-542.75 358.36,-563.76 392,-576.5 397.6,-578.62 403.51,-580.53 409.49,-582.24"/>
<polygon fill="#63b8ff" stroke="#63b8ff" points="409,-585.73 419.56,-584.94 410.81,-578.97 409,-585.73"/>
</a>
</g>
</g>
<!-- Node4&#45;&gt;Node4 -->
<g id="edge4_Node000004_Node000004" class="edge">
<title>Node4&#45;&gt;Node4</title>
<g id="a_edge4_Node000004_Node000004"><a xlink:title=" ">
<path fill="none" stroke="#63b8ff" d="M443.52,-549.08C429.43,-557.73 439.09,-567 472.5,-567 495.47,-567 507.22,-562.62 507.73,-557.07"/>
<polygon fill="#63b8ff" stroke="#63b8ff" points="510.4,-554.8 501.48,-549.08 504.89,-559.11 510.4,-554.8"/>
</a>
</g>
</g>
<!-- Node5&#45;&gt;Node5 -->
<g id="edge7_Node000005_Node000005" class="edge">
<title>Node5&#45;&gt;Node5</title>
<g id="a_edge7_Node000005_Node000005"><a xlink:title=" ">
<path fill="none" stroke="#63b8ff" d="M443.52,-604.08C429.43,-612.73 439.09,-622 472.5,-622 495.47,-622 507.22,-617.62 507.73,-612.07"/>
<polygon fill="#63b8ff" stroke="#63b8ff" points="510.4,-609.8 501.48,-604.08 504.89,-614.11 510.4,-609.8"/>
</a>
</g>
</g>
<!-- Node6 -->
<g id="Node000006" class="node">
<title>Node6</title>
<g id="a_Node000006"><a xlink:href="utils_8cxx.html#aaec9ca2d20716add3c686abd989934d0" target="_top" xlink:title=" ">
<polygon fill="white" stroke="#666666" points="677.5,-604 643.5,-604 643.5,-585 677.5,-585 677.5,-604"/>
<text text-anchor="middle" x="660.5" y="-592" font-family="Helvetica,sans-Serif" font-size="10.00">clip</text>
</a>
</g>
</g>
<!-- Node5&#45;&gt;Node6 -->
<g id="edge6_Node000005_Node000006" class="edge">
<title>Node5&#45;&gt;Node6</title>
<g id="a_edge6_Node000005_Node000006"><a xlink:title=" ">
<path fill="none" stroke="#63b8ff" d="M530.57,-594.5C564.73,-594.5 606.54,-594.5 633.1,-594.5"/>
<polygon fill="#63b8ff" stroke="#63b8ff" points="633.15,-598 643.15,-594.5 633.15,-591 633.15,-598"/>
</a>
</g>
</g>
<!-- Node7&#45;&gt;Node1 -->
<g id="edge21_Node000007_Node000001" class="edge">
<title>Node7&#45;&gt;Node1</title>
<g id="a_edge21_Node000007_Node000001"><a xlink:title=" ">
<path fill="none" stroke="#63b8ff" d="M254.42,-286.57C224.99,-304.41 170.02,-333.56 129.83,-353.03"/>
<polygon fill="#63b8ff" stroke="#63b8ff" points="128.23,-349.91 120.73,-357.39 131.26,-356.22 128.23,-349.91"/>
</a>
</g>
</g>
<!-- Node7&#45;&gt;Node7 -->
<g id="edge15_Node000007_Node000007" class="edge">
<title>Node7&#45;&gt;Node7</title>
<g id="a_edge15_Node000007_Node000007"><a xlink:title=" ">
<path fill="none" stroke="#63b8ff" d="M241.55,-286.78C233.89,-295.91 245.38,-304.5 276,-304.5 294.18,-304.5 305.62,-301.47 310.31,-297.1"/>
<polygon fill="#63b8ff" stroke="#63b8ff" points="313.81,-296.82 310.45,-286.78 306.81,-296.72 313.81,-296.82"/>
</a>
</g>
</g>
<!-- Node8 -->
<g id="Node000008" class="node">
<title>Node8</title>
<g id="a_Node000008"><a xlink:href="classrecursivegraphneuralnetwork.html#ab814577681dd9fcc979ebe9b8cdfe0f6" target="_top" xlink:title="Creates a clone of the model template.">
<polygon fill="white" stroke="#666666" points="552.5,-67.5 392.5,-67.5 392.5,-37.5 552.5,-37.5 552.5,-67.5"/>
<text text-anchor="start" x="400.5" y="-55.5" font-family="Helvetica,sans-Serif" font-size="10.00">recursivegraphneuralnetwork</text>
<text text-anchor="middle" x="472.5" y="-44.5" font-family="Helvetica,sans-Serif" font-size="10.00">::clone</text>
</a>
</g>
</g>
<!-- Node7&#45;&gt;Node8 -->
<g id="edge9_Node000007_Node000008" class="edge">
<title>Node7&#45;&gt;Node8</title>
<g id="a_edge9_Node000007_Node000008"><a xlink:title=" ">
<path fill="none" stroke="#63b8ff" d="M281.59,-256.49C293.53,-219.98 329.09,-125.89 392,-76.5 393.8,-75.09 395.68,-73.76 397.62,-72.51"/>
<polygon fill="#63b8ff" stroke="#63b8ff" points="399.51,-75.47 406.51,-67.51 396.07,-69.36 399.51,-75.47"/>
</a>
</g>
</g>
<!-- Node9 -->
<g id="Node000009" class="node">
<title>Node9</title>
<g id="a_Node000009"><a xlink:href="namespacepyc_1_1graph.html#aa28a4253050413ec67a3313635a699ad" target="_top" xlink:title=" ">
<polygon fill="white" stroke="#666666" points="553,-216 392,-216 392,-197 553,-197 553,-216"/>
<text text-anchor="middle" x="472.5" y="-204" font-family="Helvetica,sans-Serif" font-size="10.00">pyc::graph::edge_aggregation</text>
</a>
</g>
</g>
<!-- Node7&#45;&gt;Node9 -->
<g id="edge10_Node000007_Node000009" class="edge">
<title>Node7&#45;&gt;Node9</title>
<g id="a_edge10_Node000007_Node000009"><a xlink:title=" ">
<path fill="none" stroke="#63b8ff" d="M310.74,-256.49C333.41,-246.78 364.13,-234.35 392,-225.5 399.97,-222.97 408.49,-220.59 416.87,-218.44"/>
<polygon fill="#63b8ff" stroke="#63b8ff" points="417.76,-221.83 426.62,-216.02 416.07,-215.04 417.76,-221.83"/>
</a>
</g>
</g>
<!-- Node7&#45;&gt;Node13 -->
<g id="edge16_Node000007_Node000013" class="edge">
<title>Node7&#45;&gt;Node13</title>
<g id="a_edge16_Node000007_Node000013"><a xlink:title=" ">
<path fill="none" stroke="#63b8ff" d="M283.47,-286.63C298,-318.82 336.38,-394.39 392,-434.5 394.36,-436.2 396.84,-437.78 399.4,-439.25"/>
<polygon fill="#63b8ff" stroke="#63b8ff" points="397.92,-442.42 408.42,-443.83 401.09,-436.18 397.92,-442.42"/>
</a>
</g>
</g>
<!-- Node16 -->
<g id="Node000016" class="node">
<title>Node16</title>
<g id="a_Node000016"><a xlink:href="tensor__cast_8h.html#a21dae38adc3eda42c21a7791d6b42232" target="_top" xlink:title=" ">
<polygon fill="white" stroke="#666666" points="492.5,-19 452.5,-19 452.5,0 492.5,0 492.5,-19"/>
<text text-anchor="middle" x="472.5" y="-7" font-family="Helvetica,sans-Serif" font-size="10.00">nulls</text>
</a>
</g>
</g>
<!-- Node7&#45;&gt;Node16 -->
<g id="edge22_Node000007_Node000016" class="edge">
<title>Node7&#45;&gt;Node16</title>
<g id="a_edge22_Node000007_Node000016"><a xlink:title=" ">
<path fill="none" stroke="#63b8ff" d="M279.49,-256.46C287.4,-213.62 316.07,-90.11 392,-28.5 406.1,-17.06 425.97,-12.31 442.32,-10.42"/>
<polygon fill="#63b8ff" stroke="#63b8ff" points="442.79,-13.89 452.45,-9.55 442.19,-6.92 442.79,-13.89"/>
</a>
</g>
</g>
<!-- Node17 -->
<g id="Node000017" class="node">
<title>Node17</title>
<g id="a_Node000017"><a xlink:href="bsm__4tops_2include_2bsm__4tops_2graph__features_8h.html#ae8e5a8c9e20c373fc6c4566c25f8a5e9" target="_top" xlink:title=" ">
<polygon fill="white" stroke="#666666" points="503.5,-339 441.5,-339 441.5,-320 503.5,-320 503.5,-339"/>
<text text-anchor="middle" x="472.5" y="-327" font-family="Helvetica,sans-Serif" font-size="10.00">num_jets</text>
</a>
</g>
</g>
<!-- Node7&#45;&gt;Node17 -->
<g id="edge23_Node000007_Node000017" class="edge">
<title>Node7&#45;&gt;Node17</title>
<g id="a_edge23_Node000007_Node000017"><a xlink:title=" ">
<path fill="none" stroke="#63b8ff" d="M316.83,-286.59C338.81,-294.6 366.7,-304.26 392,-311.5 404.78,-315.16 418.87,-318.55 431.61,-321.39"/>
<polygon fill="#63b8ff" stroke="#63b8ff" points="430.96,-324.83 441.47,-323.53 432.45,-317.99 430.96,-324.83"/>
</a>
</g>
</g>
<!-- Node18 -->
<g id="Node000018" class="node">
<title>Node18</title>
<g id="a_Node000018"><a xlink:href="bsm__4tops_2include_2bsm__4tops_2graph__features_8h.html#a75c0e78e1f575a8475cf9d1958c47167" target="_top" xlink:title=" ">
<polygon fill="white" stroke="#666666" points="504.5,-302 440.5,-302 440.5,-283 504.5,-283 504.5,-302"/>
<text text-anchor="middle" x="472.5" y="-290" font-family="Helvetica,sans-Serif" font-size="10.00">num_leps</text>
</a>
</g>
</g>
<!-- Node7&#45;&gt;Node18 -->
<g id="edge24_Node000007_Node000018" class="edge">
<title>Node7&#45;&gt;Node18</title>
<g id="a_edge24_Node000007_Node000018"><a xlink:title=" ">
<path fill="none" stroke="#63b8ff" d="M356.11,-280.04C381.42,-282.77 408.42,-285.69 429.94,-288.01"/>
<polygon fill="#63b8ff" stroke="#63b8ff" points="429.72,-291.51 440.03,-289.1 430.47,-284.55 429.72,-291.51"/>
</a>
</g>
</g>
<!-- Node19 -->
<g id="Node000019" class="node">
<title>Node19</title>
<g id="a_Node000019"><a xlink:href="namespacepyc_1_1transform_1_1separate.html#a8707538e9073094f20ba7f80bf98757b" target="_top" xlink:title=" ">
<polygon fill="white" stroke="#666666" points="550,-425 395,-425 395,-406 550,-406 550,-425"/>
<text text-anchor="middle" x="472.5" y="-413" font-family="Helvetica,sans-Serif" font-size="10.00">pyc::transform::separate::Px</text>
</a>
</g>
</g>
<!-- Node7&#45;&gt;Node19 -->
<g id="edge25_Node000007_Node000019" class="edge">
<title>Node7&#45;&gt;Node19</title>
<g id="a_edge25_Node000007_Node000019"><a xlink:title=" ">
<path fill="none" stroke="#63b8ff" d="M286.63,-286.91C304.16,-313.6 343.94,-368.29 392,-396.5 395.72,-398.68 399.67,-400.61 403.75,-402.32"/>
<polygon fill="#63b8ff" stroke="#63b8ff" points="402.87,-405.73 413.46,-405.93 405.31,-399.17 402.87,-405.73"/>
</a>
</g>
</g>
<!-- Node21 -->
<g id="Node000021" class="node">
<title>Node21</title>
<g id="a_Node000021"><a xlink:href="namespacepyc_1_1transform_1_1separate.html#a720f165f6c3acc7c6ed1b33dd2c369bb" target="_top" xlink:title=" ">
<polygon fill="white" stroke="#666666" points="541,-264.5 404,-264.5 404,-234.5 541,-234.5 541,-264.5"/>
<text text-anchor="start" x="412" y="-252.5" font-family="Helvetica,sans-Serif" font-size="10.00">pyc::transform::separate</text>
<text text-anchor="middle" x="472.5" y="-241.5" font-family="Helvetica,sans-Serif" font-size="10.00">::PxPyPzE</text>
</a>
</g>
</g>
<!-- Node7&#45;&gt;Node21 -->
<g id="edge28_Node000007_Node000021" class="edge">
<title>Node7&#45;&gt;Node21</title>
<g id="a_edge28_Node000007_Node000021"><a xlink:title=" ">
<path fill="none" stroke="#63b8ff" d="M356.11,-262.55C368.52,-261.15 381.33,-259.7 393.71,-258.3"/>
<polygon fill="#63b8ff" stroke="#63b8ff" points="394.44,-261.74 403.99,-257.14 393.66,-254.78 394.44,-261.74"/>
</a>
</g>
</g>
<!-- Node26 -->
<g id="Node000026" class="node">
<title>Node26</title>
<g id="a_Node000026"><a xlink:href="namespacepyc_1_1transform_1_1separate.html#a213b45f87684e873b719a628675b3382" target="_top" xlink:title=" ">
<polygon fill="white" stroke="#666666" points="550,-142 395,-142 395,-123 550,-123 550,-142"/>
<text text-anchor="middle" x="472.5" y="-130" font-family="Helvetica,sans-Serif" font-size="10.00">pyc::transform::separate::Py</text>
</a>
</g>
</g>
<!-- Node7&#45;&gt;Node26 -->
<g id="edge35_Node000007_Node000026" class="edge">
<title>Node7&#45;&gt;Node26</title>
<g id="a_edge35_Node000007_Node000026"><a xlink:title=" ">
<path fill="none" stroke="#63b8ff" d="M287,-256.12C304.81,-230.06 344.63,-177.42 392,-150.5 395.2,-148.68 398.58,-147.04 402.05,-145.57"/>
<polygon fill="#63b8ff" stroke="#63b8ff" points="403.31,-148.84 411.45,-142.05 400.86,-142.28 403.31,-148.84"/>
</a>
</g>
</g>
<!-- Node27 -->
<g id="Node000027" class="node">
<title>Node27</title>
<g id="a_Node000027"><a xlink:href="bsm__4tops_2include_2bsm__4tops_2edge__features_8h.html#a196518fb89ffbc60b3ca928dc80ac57d" target="_top" xlink:title=" ">
<polygon fill="white" stroke="#666666" points="503,-105 442,-105 442,-86 503,-86 503,-105"/>
<text text-anchor="middle" x="472.5" y="-93" font-family="Helvetica,sans-Serif" font-size="10.00">res_edge</text>
</a>
</g>
</g>
<!-- Node7&#45;&gt;Node27 -->
<g id="edge38_Node000007_Node000027" class="edge">
<title>Node7&#45;&gt;Node27</title>
<g id="a_edge38_Node000007_Node000027"><a xlink:title=" ">
<path fill="none" stroke="#63b8ff" d="M283.61,-256.05C298.17,-224 336.17,-150.25 392,-113.5 403.77,-105.75 418.42,-101.31 431.92,-98.77"/>
<polygon fill="#63b8ff" stroke="#63b8ff" points="432.63,-102.2 441.96,-97.18 431.54,-95.29 432.63,-102.2"/>
</a>
</g>
</g>
<!-- Node29 -->
<g id="Node000029" class="node">
<title>Node29</title>
<g id="a_Node000029"><a xlink:href="classtools.html#a7b784121d8b368a64995feddc7083469" target="_top" xlink:title="Sums the elements of a vector.">
<polygon fill="white" stroke="#666666" points="506.5,-179 438.5,-179 438.5,-160 506.5,-160 506.5,-179"/>
<text text-anchor="middle" x="472.5" y="-167" font-family="Helvetica,sans-Serif" font-size="10.00">tools::sum</text>
</a>
</g>
</g>
<!-- Node7&#45;&gt;Node29 -->
<g id="edge40_Node000007_Node000029" class="edge">
<title>Node7&#45;&gt;Node29</title>
<g id="a_edge40_Node000007_Node000029"><a xlink:title=" ">
<path fill="none" stroke="#63b8ff" d="M293.15,-256.32C314.23,-237.34 353.06,-205.2 392,-187.5 403.37,-182.33 416.36,-178.58 428.49,-175.9"/>
<polygon fill="#63b8ff" stroke="#63b8ff" points="429.32,-179.3 438.42,-173.88 427.92,-172.44 429.32,-179.3"/>
</a>
</g>
</g>
<!-- Node7&#45;&gt;Node30 -->
<g id="edge41_Node000007_Node000030" class="edge">
<title>Node7&#45;&gt;Node30</title>
<g id="a_edge41_Node000007_Node000030"><a xlink:title=" ">
<path fill="none" stroke="#63b8ff" d="M295.88,-286.73C317.84,-303.81 355.72,-331.35 392,-348.5 397.56,-351.13 403.47,-353.55 409.47,-355.75"/>
<polygon fill="#63b8ff" stroke="#63b8ff" points="408.33,-359.06 418.92,-359.04 410.63,-352.45 408.33,-359.06"/>
</a>
</g>
</g>
<!-- Node9&#45;&gt;Node3 -->
<g id="edge11_Node000009_Node000003" class="edge">
<title>Node9&#45;&gt;Node3</title>
<g id="a_edge11_Node000009_Node000003"><a xlink:title=" ">
<path fill="none" stroke="#63b8ff" d="M538.81,-216.1C543.97,-218.59 548.8,-221.68 553,-225.5 589.51,-258.68 557.91,-292.2 589,-330.5 598.61,-342.34 612.51,-351.62 625.43,-358.41"/>
<polygon fill="#63b8ff" stroke="#63b8ff" points="624.07,-361.64 634.59,-362.92 627.16,-355.36 624.07,-361.64"/>
</a>
</g>
</g>
<!-- Node10 -->
<g id="Node000010" class="node">
<title>Node10</title>
<g id="a_Node000010"><a xlink:href="namespacegraph__.html#a7249186f32a05a8ff1601bff5deabdef" target="_top" xlink:title=" ">
<polygon fill="white" stroke="#666666" points="732,-216 589,-216 589,-197 732,-197 732,-216"/>
<text text-anchor="middle" x="660.5" y="-204" font-family="Helvetica,sans-Serif" font-size="10.00">graph_::edge_aggregation</text>
</a>
</g>
</g>
<!-- Node9&#45;&gt;Node10 -->
<g id="edge12_Node000009_Node000010" class="edge">
<title>Node9&#45;&gt;Node10</title>
<g id="a_edge12_Node000009_Node000010"><a xlink:title=" ">
<path fill="none" stroke="#63b8ff" d="M553.19,-206.5C561.6,-206.5 570.16,-206.5 578.59,-206.5"/>
<polygon fill="#63b8ff" stroke="#63b8ff" points="578.78,-210 588.78,-206.5 578.78,-203 578.78,-210"/>
</a>
</g>
</g>
<!-- Node12 -->
<g id="Node000012" class="node">
<title>Node12</title>
<g id="a_Node000012"><a xlink:href="namespacepyc.html#ab174cc51f6efef06bdb0ba47ec3fe3bf" target="_top" xlink:title=" ">
<polygon fill="white" stroke="#666666" points="707,-321 614,-321 614,-302 707,-302 707,-321"/>
<text text-anchor="middle" x="660.5" y="-309" font-family="Helvetica,sans-Serif" font-size="10.00">pyc::std_to_dict</text>
</a>
</g>
</g>
<!-- Node9&#45;&gt;Node12 -->
<g id="edge14_Node000009_Node000012" class="edge">
<title>Node9&#45;&gt;Node12</title>
<g id="a_edge14_Node000009_Node000012"><a xlink:title=" ">
<path fill="none" stroke="#63b8ff" d="M532.5,-216.14C539.68,-218.59 546.7,-221.65 553,-225.5 573.98,-238.32 570.36,-251.47 589,-267.5 602.07,-278.73 618.29,-289.06 631.87,-296.89"/>
<polygon fill="#63b8ff" stroke="#63b8ff" points="630.35,-300.05 640.79,-301.88 633.78,-293.94 630.35,-300.05"/>
</a>
</g>
</g>
<!-- Node11 -->
<g id="Node000011" class="node">
<title>Node11</title>
<g id="a_Node000011"><a xlink:href="utils_8cxx.html#a1652e53abd2299dd0f10e093948e4fa3" target="_top" xlink:title=" ">
<polygon fill="white" stroke="#666666" points="851.5,-216 795.5,-216 795.5,-197 851.5,-197 851.5,-216"/>
<text text-anchor="middle" x="823.5" y="-204" font-family="Helvetica,sans-Serif" font-size="10.00">MakeOp</text>
</a>
</g>
</g>
<!-- Node10&#45;&gt;Node11 -->
<g id="edge13_Node000010_Node000011" class="edge">
<title>Node10&#45;&gt;Node11</title>
<g id="a_edge13_Node000010_Node000011"><a xlink:title=" ">
<path fill="none" stroke="#63b8ff" d="M732.12,-206.5C750.24,-206.5 769.04,-206.5 784.77,-206.5"/>
<polygon fill="#63b8ff" stroke="#63b8ff" points="785.13,-210 795.13,-206.5 785.13,-203 785.13,-210"/>
</a>
</g>
</g>
<!-- Node13&#45;&gt;Node3 -->
<g id="edge17_Node000013_Node000003" class="edge">
<title>Node13&#45;&gt;Node3</title>
<g id="a_edge17_Node000013_Node000003"><a xlink:title=" ">
<path fill="none" stroke="#63b8ff" d="M529.27,-443.48C537.34,-440.78 545.46,-437.78 553,-434.5 583.42,-421.27 616.06,-401.32 637.07,-387.65"/>
<polygon fill="#63b8ff" stroke="#63b8ff" points="639.17,-390.46 645.59,-382.03 635.32,-384.61 639.17,-390.46"/>
</a>
</g>
</g>
<!-- Node14 -->
<g id="Node000014" class="node">
<title>Node14</title>
<g id="a_Node000014"><a xlink:href="namespacephysics__.html#a64e8e583c57246f52851c0bff4137ebc" target="_top" xlink:title="Computes the invariant mass.">
<polygon fill="white" stroke="#666666" points="697.5,-468 623.5,-468 623.5,-449 697.5,-449 697.5,-468"/>
<text text-anchor="middle" x="660.5" y="-456" font-family="Helvetica,sans-Serif" font-size="10.00">physics_::M</text>
</a>
</g>
</g>
<!-- Node13&#45;&gt;Node14 -->
<g id="edge18_Node000013_Node000014" class="edge">
<title>Node13&#45;&gt;Node14</title>
<g id="a_edge18_Node000013_Node000014"><a xlink:title=" ">
<path fill="none" stroke="#63b8ff" d="M536.73,-458.5C561.75,-458.5 589.99,-458.5 613.07,-458.5"/>
<polygon fill="#63b8ff" stroke="#63b8ff" points="613.28,-462 623.28,-458.5 613.28,-455 613.28,-462"/>
</a>
</g>
</g>
<!-- Node14&#45;&gt;Node14 -->
<g id="edge20_Node000014_Node000014" class="edge">
<title>Node14&#45;&gt;Node14</title>
<g id="a_edge20_Node000014_Node000014"><a xlink:title=" ">
<path fill="none" stroke="#63b8ff" d="M635.53,-468.08C623.38,-476.73 631.71,-486 660.5,-486 679.4,-486 689.48,-482.01 690.74,-476.82"/>
<polygon fill="#63b8ff" stroke="#63b8ff" points="693.63,-474.84 685.47,-468.08 687.64,-478.45 693.63,-474.84"/>
</a>
</g>
</g>
<!-- Node15 -->
<g id="Node000015" class="node">
<title>Node15</title>
<g id="a_Node000015"><a xlink:href="utils_8cxx.html#a9c1cdc6384bce6bdc92ca917b3f656bf" target="_top" xlink:title=" ">
<polygon fill="white" stroke="#666666" points="848.5,-468 798.5,-468 798.5,-449 848.5,-449 848.5,-468"/>
<text text-anchor="middle" x="823.5" y="-456" font-family="Helvetica,sans-Serif" font-size="10.00">format</text>
</a>
</g>
</g>
<!-- Node14&#45;&gt;Node15 -->
<g id="edge19_Node000014_Node000015" class="edge">
<title>Node14&#45;&gt;Node15</title>
<g id="a_edge19_Node000014_Node000015"><a xlink:title=" ">
<path fill="none" stroke="#63b8ff" d="M697.63,-458.5C724.8,-458.5 761.79,-458.5 788.44,-458.5"/>
<polygon fill="#63b8ff" stroke="#63b8ff" points="788.46,-462 798.46,-458.5 788.46,-455 788.46,-462"/>
</a>
</g>
</g>
<!-- Node19&#45;&gt;Node3 -->
<g id="edge26_Node000019_Node000003" class="edge">
<title>Node19&#45;&gt;Node3</title>
<g id="a_edge26_Node000019_Node000003"><a xlink:title=" ">
<path fill="none" stroke="#63b8ff" d="M514.78,-405.96C544.68,-399.04 585.05,-389.71 615.55,-382.66"/>
<polygon fill="#63b8ff" stroke="#63b8ff" points="616.53,-386.03 625.49,-380.36 614.96,-379.21 616.53,-386.03"/>
</a>
</g>
</g>
<!-- Node20 -->
<g id="Node000020" class="node">
<title>Node20</title>
<g id="a_Node000020"><a xlink:href="namespacetransform__.html#a4573dda96168ebbd38a408e64cc3d5ff" target="_top" xlink:title="Computes the x&#45;component of momentum (Px).">
<polygon fill="white" stroke="#666666" points="1003,-359 915,-359 915,-340 1003,-340 1003,-359"/>
<text text-anchor="middle" x="959" y="-347" font-family="Helvetica,sans-Serif" font-size="10.00">transform_::Px</text>
</a>
</g>
</g>
<!-- Node19&#45;&gt;Node20 -->
<g id="edge27_Node000019_Node000020" class="edge">
<title>Node19&#45;&gt;Node20</title>
<g id="a_edge27_Node000019_Node000020"><a xlink:title=" ">
<path fill="none" stroke="#63b8ff" d="M550.06,-410.23C601.62,-406.23 671.06,-399.97 732,-391.5 791.53,-383.22 859.24,-370.15 904.9,-360.79"/>
<polygon fill="#63b8ff" stroke="#63b8ff" points="905.78,-364.18 914.87,-358.73 904.36,-357.32 905.78,-364.18"/>
</a>
</g>
</g>
<!-- Node21&#45;&gt;Node3 -->
<g id="edge29_Node000021_Node000003" class="edge">
<title>Node21&#45;&gt;Node3</title>
<g id="a_edge29_Node000021_Node000003"><a xlink:title=" ">
<path fill="none" stroke="#63b8ff" d="M538.38,-264.66C543.57,-267.17 548.52,-270.1 553,-273.5 576.85,-291.64 567.54,-309.59 589,-330.5 600.41,-341.62 615.31,-351.04 628.47,-358.12"/>
<polygon fill="#63b8ff" stroke="#63b8ff" points="627.18,-361.4 637.67,-362.86 630.38,-355.17 627.18,-361.4"/>
</a>
</g>
</g>
<!-- Node22 -->
<g id="Node000022" class="node">
<title>Node22</title>
<g id="a_Node000022"><a xlink:href="namespacetransform__.html#a87dc88421ea78ec3b9c73c86cc5ade19" target="_top" xlink:title="Computes the 4&#45;momentum (Px, Py, Pz, E).">
<polygon fill="white" stroke="#666666" points="719,-259 602,-259 602,-240 719,-240 719,-259"/>
<text text-anchor="middle" x="660.5" y="-247" font-family="Helvetica,sans-Serif" font-size="10.00">transform_::PxPyPzE</text>
</a>
</g>
</g>
<!-- Node21&#45;&gt;Node22 -->
<g id="edge30_Node000021_Node000022" class="edge">
<title>Node21&#45;&gt;Node22</title>
<g id="a_edge30_Node000021_Node000022"><a xlink:title=" ">
<path fill="none" stroke="#63b8ff" d="M541.18,-249.5C557.69,-249.5 575.36,-249.5 591.87,-249.5"/>
<polygon fill="#63b8ff" stroke="#63b8ff" points="591.99,-253 601.99,-249.5 591.99,-246 591.99,-253"/>
</a>
</g>
</g>
<!-- Node23 -->
<g id="Node000023" class="node">
<title>Node23</title>
<g id="a_Node000023"><a xlink:href="namespacetransform__.html#aa38819d479d31edd3f79b4f8e96ef8be" target="_top" xlink:title="Computes the 3&#45;momentum (Px, Py, Pz).">
<polygon fill="white" stroke="#666666" points="879,-259 768,-259 768,-240 879,-240 879,-259"/>
<text text-anchor="middle" x="823.5" y="-247" font-family="Helvetica,sans-Serif" font-size="10.00">transform_::PxPyPz</text>
</a>
</g>
</g>
<!-- Node22&#45;&gt;Node23 -->
<g id="edge31_Node000022_Node000023" class="edge">
<title>Node22&#45;&gt;Node23</title>
<g id="a_edge31_Node000022_Node000023"><a xlink:title=" ">
<path fill="none" stroke="#63b8ff" d="M719.17,-249.5C731.7,-249.5 745.04,-249.5 757.82,-249.5"/>
<polygon fill="#63b8ff" stroke="#63b8ff" points="757.92,-253 767.92,-249.5 757.92,-246 757.92,-253"/>
</a>
</g>
</g>
<!-- Node23&#45;&gt;Node20 -->
<g id="edge32_Node000023_Node000020" class="edge">
<title>Node23&#45;&gt;Node20</title>
<g id="a_edge32_Node000023_Node000020"><a xlink:title=" ">
<path fill="none" stroke="#63b8ff" d="M837.3,-259.09C860.27,-276.29 908.68,-312.56 936.72,-333.56"/>
<polygon fill="#63b8ff" stroke="#63b8ff" points="934.94,-336.6 945.04,-339.79 939.14,-331 934.94,-336.6"/>
</a>
</g>
</g>
<!-- Node24 -->
<g id="Node000024" class="node">
<title>Node24</title>
<g id="a_Node000024"><a xlink:href="namespacetransform__.html#a51363ab29a6390a86a8ea75573a7a196" target="_top" xlink:title="Computes the y&#45;component of momentum (Py).">
<polygon fill="white" stroke="#666666" points="1003,-192 915,-192 915,-173 1003,-173 1003,-192"/>
<text text-anchor="middle" x="959" y="-180" font-family="Helvetica,sans-Serif" font-size="10.00">transform_::Py</text>
</a>
</g>
</g>
<!-- Node23&#45;&gt;Node24 -->
<g id="edge33_Node000023_Node000024" class="edge">
<title>Node23&#45;&gt;Node24</title>
<g id="a_edge33_Node000023_Node000024"><a xlink:title=" ">
<path fill="none" stroke="#63b8ff" d="M846.12,-239.93C856.18,-235.39 868.27,-229.81 879,-224.5 896.76,-215.72 916.43,-205.26 931.7,-196.98"/>
<polygon fill="#63b8ff" stroke="#63b8ff" points="933.48,-200 940.58,-192.14 930.13,-193.85 933.48,-200"/>
</a>
</g>
</g>
<!-- Node25 -->
<g id="Node000025" class="node">
<title>Node25</title>
<g id="a_Node000025"><a xlink:href="namespacetransform__.html#a28be39b0041a97b1667ccd1ff301f784" target="_top" xlink:title="Computes the z&#45;component of momentum (Pz).">
<polygon fill="white" stroke="#666666" points="1002.5,-259 915.5,-259 915.5,-240 1002.5,-240 1002.5,-259"/>
<text text-anchor="middle" x="959" y="-247" font-family="Helvetica,sans-Serif" font-size="10.00">transform_::Pz</text>
</a>
</g>
</g>
<!-- Node23&#45;&gt;Node25 -->
<g id="edge34_Node000023_Node000025" class="edge">
<title>Node23&#45;&gt;Node25</title>
<g id="a_edge34_Node000023_Node000025"><a xlink:title=" ">
<path fill="none" stroke="#63b8ff" d="M879.18,-249.5C887.79,-249.5 896.66,-249.5 905.22,-249.5"/>
<polygon fill="#63b8ff" stroke="#63b8ff" points="905.46,-253 915.46,-249.5 905.46,-246 905.46,-253"/>
</a>
</g>
</g>
<!-- Node26&#45;&gt;Node3 -->
<g id="edge36_Node000026_Node000003" class="edge">
<title>Node26&#45;&gt;Node3</title>
<g id="a_edge36_Node000026_Node000003"><a xlink:title=" ">
<path fill="none" stroke="#63b8ff" d="M541.96,-142.07C546,-144.38 549.74,-147.16 553,-150.5 609.96,-208.91 541.9,-263.89 589,-330.5 597.6,-342.67 610.95,-351.91 623.72,-358.57"/>
<polygon fill="#63b8ff" stroke="#63b8ff" points="622.32,-361.78 632.85,-362.98 625.36,-355.48 622.32,-361.78"/>
</a>
</g>
</g>
<!-- Node26&#45;&gt;Node24 -->
<g id="edge37_Node000026_Node000024" class="edge">
<title>Node26&#45;&gt;Node24</title>
<g id="a_edge37_Node000026_Node000024"><a xlink:title=" ">
<path fill="none" stroke="#63b8ff" d="M550,-140.4C648.91,-150.6 818.64,-168.12 904.67,-177"/>
<polygon fill="#63b8ff" stroke="#63b8ff" points="904.43,-180.49 914.74,-178.04 905.15,-173.53 904.43,-180.49"/>
</a>
</g>
</g>
<!-- Node28 -->
<g id="Node000028" class="node">
<title>Node28</title>
<g id="a_Node000028"><a xlink:href="bsm__4tops_2include_2bsm__4tops_2edge__features_8h.html#a9addd2275949f0828310adb01cc761a3" target="_top" xlink:title=" ">
<polygon fill="white" stroke="#666666" points="698.5,-105 622.5,-105 622.5,-86 698.5,-86 698.5,-105"/>
<text text-anchor="middle" x="660.5" y="-93" font-family="Helvetica,sans-Serif" font-size="10.00">m_res_edge</text>
</a>
</g>
</g>
<!-- Node27&#45;&gt;Node28 -->
<g id="edge39_Node000027_Node000028" class="edge">
<title>Node27&#45;&gt;Node28</title>
<g id="a_edge39_Node000027_Node000028"><a xlink:title=" ">
<path fill="none" stroke="#63b8ff" d="M503.38,-95.5C532.7,-95.5 577.86,-95.5 612.08,-95.5"/>
<polygon fill="#63b8ff" stroke="#63b8ff" points="612.32,-99 622.32,-95.5 612.32,-92 612.32,-99"/>
</a>
</g>
</g>
<!-- Node30&#45;&gt;Node3 -->
<g id="edge42_Node000030_Node000003" class="edge">
<title>Node30&#45;&gt;Node3</title>
<g id="a_edge42_Node000030_Node000003"><a xlink:title=" ">
<path fill="none" stroke="#63b8ff" d="M526.3,-372.5C554.37,-372.5 588.48,-372.5 615.16,-372.5"/>
<polygon fill="#63b8ff" stroke="#63b8ff" points="615.36,-376 625.36,-372.5 615.36,-369 615.36,-376"/>
</a>
</g>
</g>
<!-- Node30&#45;&gt;Node12 -->
<g id="edge43_Node000030_Node000012" class="edge">
<title>Node30&#45;&gt;Node12</title>
<g id="a_edge43_Node000030_Node000012"><a xlink:title=" ">
<path fill="none" stroke="#63b8ff" d="M524.49,-357.45C533.99,-354.55 543.81,-351.48 553,-348.5 576.52,-340.87 602.76,-331.76 623.31,-324.49"/>
<polygon fill="#63b8ff" stroke="#63b8ff" points="624.65,-327.73 632.9,-321.08 622.31,-321.13 624.65,-327.73"/>
</a>
</g>
</g>
</g>
</svg>
