<?xml version="1.0" encoding="UTF-8" standalone="no"?>
<!DOCTYPE svg PUBLIC "-//W3C//DTD SVG 1.1//EN"
 "http://www.w3.org/Graphics/SVG/1.1/DTD/svg11.dtd">
<!-- Generated by graphviz version 2.43.0 (0)
 -->
<!-- Title: dataloader::get_k_validation_set Pages: 1 -->
<svg width="328pt" height="64pt"
 viewBox="0.00 0.00 328.00 64.00" xmlns="http://www.w3.org/2000/svg" xmlns:xlink="http://www.w3.org/1999/xlink">
<g id="graph0" class="graph" transform="scale(1 1) rotate(0) translate(4 60)">
<title>dataloader::get_k_validation_set</title>
<!-- Node1 -->
<g id="Node000001" class="node">
<title>Node1</title>
<g id="a_Node000001"><a xlink:title=" ">
<polygon fill="#999999" stroke="#666666" points="176,-37 0,-37 0,-18 176,-18 176,-37"/>
<text text-anchor="middle" x="88" y="-25" font-family="Helvetica,sans-Serif" font-size="10.00">dataloader::get_k_validation_set</text>
</a>
</g>
</g>
<!-- Node2 -->
<g id="Node000002" class="node">
<title>Node2</title>
<g id="a_Node000002"><a xlink:href="classtools.html#a4450b1e48193bef904b44f7a90aaee98" target="_top" xlink:title="Fills a vector with pointers from another vector based on a selection index.">
<polygon fill="white" stroke="#666666" points="297,-56 235,-56 235,-37 297,-37 297,-56"/>
<text text-anchor="middle" x="266" y="-44" font-family="Helvetica,sans-Serif" font-size="10.00">tools::put</text>
</a>
</g>
</g>
<!-- Node1&#45;&gt;Node2 -->
<g id="edge1_Node000001_Node000002" class="edge">
<title>Node1&#45;&gt;Node2</title>
<g id="a_edge1_Node000001_Node000002"><a xlink:title=" ">
<path fill="none" stroke="#63b8ff" d="M176.23,-36.92C193.2,-38.75 210.21,-40.58 224.73,-42.15"/>
<polygon fill="#63b8ff" stroke="#63b8ff" points="224.51,-45.65 234.83,-43.24 225.26,-38.69 224.51,-45.65"/>
</a>
</g>
</g>
<!-- Node3 -->
<g id="Node000003" class="node">
<title>Node3</title>
<g id="a_Node000003"><a xlink:href="classdataloader.html#a34eafd55816f8c2649a58c7cb8bc42fe" target="_top" xlink:title=" ">
<polygon fill="white" stroke="#666666" points="320,-19 212,-19 212,0 320,0 320,-19"/>
<text text-anchor="middle" x="266" y="-7" font-family="Helvetica,sans-Serif" font-size="10.00">dataloader::shuffle</text>
</a>
</g>
</g>
<!-- Node1&#45;&gt;Node3 -->
<g id="edge2_Node000001_Node000003" class="edge">
<title>Node1&#45;&gt;Node3</title>
<g id="a_edge2_Node000001_Node000003"><a xlink:title=" ">
<path fill="none" stroke="#63b8ff" d="M176.23,-18.58C184.74,-17.71 193.25,-16.84 201.46,-16"/>
<polygon fill="#63b8ff" stroke="#63b8ff" points="202.08,-19.45 211.67,-14.95 201.37,-12.49 202.08,-19.45"/>
</a>
</g>
</g>
</g>
</svg>
