<?xml version="1.0" encoding="UTF-8" standalone="no"?>
<!DOCTYPE svg PUBLIC "-//W3C//DTD SVG 1.1//EN"
 "http://www.w3.org/Graphics/SVG/1.1/DTD/svg11.dtd">
<!-- Generated by graphviz version 2.43.0 (0)
 -->
<!-- Title: grift::message Pages: 1 -->
<!--zoomable 445 -->

<svg id="main" version="1.1" xmlns="http://www.w3.org/2000/svg" xmlns:xlink="http://www.w3.org/1999/xlink" xml:space="preserve" onload="init(evt)">
<style type="text/css"><![CDATA[
.node, .edge {opacity: 0.7;}
.node.selected, .edge.selected {opacity: 1;}
.edge:hover path { stroke: red; }
.edge:hover polygon { stroke: red; fill: red; }
]]></style>

<defs>
  <circle id="rim" cx="0" cy="0" r="7"/>
  <circle id="rim2" cx="0" cy="0" r="3.5"/>
  <g id="zoomPlus">
    <use xlink:href="#rim" fill="#404040"><set attributeName="fill" to="#808080" begin="zoomplus.mouseover" end="zoomplus.mouseout"/></use>
    <path d="M-4,0h8M0,-4v8" fill="none" stroke="white" stroke-width="1.5" pointer-events="none"/>
  </g>
  <g id="zoomMin">
    <use xlink:href="#rim" fill="#404040"><set attributeName="fill" to="#808080" begin="zoomminus.mouseover" end="zoomminus.mouseout"/></use>
    <path d="M-4,0h8" fill="none" stroke="white" stroke-width="1.5" pointer-events="none"/>
  </g>
  <g id="arrowUp" transform="translate(30 24)">
    <use xlink:href="#rim"/>
    <path pointer-events="none" fill="none" stroke="white" stroke-width="1.5" d="M0,-3.0v7 M-2.5,-0.5L0,-3.0L2.5,-0.5"/>
  </g>
  <g id="arrowRight" transform="rotate(90) translate(36 -43)">
    <use xlink:href="#rim"/>
    <path pointer-events="none" fill="none" stroke="white" stroke-width="1.5" d="M0,-3.0v7 M-2.5,-0.5L0,-3.0L2.5,-0.5"/>
  </g>
  <g id="arrowDown" transform="rotate(180) translate(-30 -48)">
    <use xlink:href="#rim"/>
    <path pointer-events="none" fill="none" stroke="white" stroke-width="1.5" d="M0,-3.0v7 M-2.5,-0.5L0,-3.0L2.5,-0.5"/>
  </g>
  <g id="arrowLeft" transform="rotate(270) translate(-36 17)">
    <use xlink:href="#rim"/>
    <path pointer-events="none" fill="none" stroke="white" stroke-width="1.5" d="M0,-3.0v7 M-2.5,-0.5L0,-3.0L2.5,-0.5"/>
  </g>
  <g id="resetDef">
    <use xlink:href="#rim2" fill="#404040"><set attributeName="fill" to="#808080" begin="reset.mouseover" end="reset.mouseout"/></use>
  </g>
</defs>
<script type="application/ecmascript">
var viewWidth = 919;
var viewHeight = 445;
var sectionId = 'dynsection-23';
</script>
<script type="application/ecmascript" xlink:href="svg.min.js"/>
<svg id="graph" class="graph">
<g id="viewport">
<title>grift::message</title>
<!-- Node1 -->
<g id="Node000001" class="node">
<title>Node1</title>
<g id="a_Node000001"><a xlink:title=" ">
<polygon fill="#999999" stroke="#666666" points="86,-227 0,-227 0,-208 86,-208 86,-227"/>
<text text-anchor="middle" x="43" y="-215" font-family="Helvetica,sans-Serif" font-size="10.00">grift::message</text>
</a>
</g>
</g>
<!-- Node2 -->
<g id="Node000002" class="node">
<title>Node2</title>
<g id="a_Node000002"><a xlink:href="classgrift.html#a72f7575fbd1d744d4f9053e5b8b7ee38" target="_top" xlink:title="Virtual forward pass method for a single graph.">
<polygon fill="white" stroke="#666666" points="202,-227 122,-227 122,-208 202,-208 202,-227"/>
<text text-anchor="middle" x="162" y="-215" font-family="Helvetica,sans-Serif" font-size="10.00">grift::forward</text>
</a>
</g>
</g>
<!-- Node1&#45;&gt;Node2 -->
<g id="edge1_Node000001_Node000002" class="edge">
<title>Node1&#45;&gt;Node2</title>
<g id="a_edge1_Node000001_Node000002"><a xlink:title=" ">
<path fill="none" stroke="#63b8ff" d="M86.24,-210.99C94.52,-210.74 103.28,-210.69 111.77,-210.83"/>
<polygon fill="#63b8ff" stroke="#63b8ff" points="111.85,-214.33 121.94,-211.09 112.03,-207.33 111.85,-214.33"/>
</a>
</g>
</g>
<!-- Node11 -->
<g id="Node000011" class="node">
<title>Node11</title>
<g id="a_Node000011"><a xlink:href="namespacepyc_1_1physics_1_1cartesian_1_1combined.html#adc80247c6622f7cb166a81fa45b7b51d" target="_top" xlink:title=" ">
<polygon fill="white" stroke="#666666" points="399,-424.5 271,-424.5 271,-394.5 399,-394.5 399,-424.5"/>
<text text-anchor="start" x="279" y="-412.5" font-family="Helvetica,sans-Serif" font-size="10.00">pyc::physics::cartesian</text>
<text text-anchor="middle" x="335" y="-401.5" font-family="Helvetica,sans-Serif" font-size="10.00">::combined::M</text>
</a>
</g>
</g>
<!-- Node1&#45;&gt;Node11 -->
<g id="edge37_Node000001_Node000011" class="edge">
<title>Node1&#45;&gt;Node11</title>
<g id="a_edge37_Node000001_Node000011"><a xlink:title=" ">
<path fill="none" stroke="#63b8ff" d="M52.14,-227.23C76.88,-256.13 154.59,-342.14 238,-385.5 245.34,-389.32 253.32,-392.54 261.43,-395.27"/>
<polygon fill="#63b8ff" stroke="#63b8ff" points="260.4,-398.62 270.99,-398.25 262.48,-391.93 260.4,-398.62"/>
</a>
</g>
</g>
<!-- Node25 -->
<g id="Node000025" class="node">
<title>Node25</title>
<g id="a_Node000025"><a xlink:href="classtools.html#a7b784121d8b368a64995feddc7083469" target="_top" xlink:title="Sums the elements of a vector.">
<polygon fill="white" stroke="#666666" points="369,-19 301,-19 301,0 369,0 369,-19"/>
<text text-anchor="middle" x="335" y="-7" font-family="Helvetica,sans-Serif" font-size="10.00">tools::sum</text>
</a>
</g>
</g>
<!-- Node1&#45;&gt;Node25 -->
<g id="edge38_Node000001_Node000025" class="edge">
<title>Node1&#45;&gt;Node25</title>
<g id="a_edge38_Node000001_Node000025"><a xlink:title=" ">
<path fill="none" stroke="#63b8ff" d="M50.73,-207.6C73.07,-175.56 148.52,-74.1 238,-27.5 254.07,-19.13 273.44,-14.61 290.57,-12.19"/>
<polygon fill="#63b8ff" stroke="#63b8ff" points="291.38,-15.62 300.89,-10.93 290.54,-8.67 291.38,-15.62"/>
</a>
</g>
</g>
<!-- Node28 -->
<g id="Node000028" class="node">
<title>Node28</title>
<g id="a_Node000028"><a xlink:href="namespacepyc_1_1graph.html#a6b142e7f996e314f3c8a971e471d6d95" target="_top" xlink:title=" ">
<polygon fill="white" stroke="#666666" points="388.5,-338.5 281.5,-338.5 281.5,-308.5 388.5,-308.5 388.5,-338.5"/>
<text text-anchor="start" x="289.5" y="-326.5" font-family="Helvetica,sans-Serif" font-size="10.00">pyc::graph::unique</text>
<text text-anchor="middle" x="335" y="-315.5" font-family="Helvetica,sans-Serif" font-size="10.00">_aggregation</text>
</a>
</g>
</g>
<!-- Node1&#45;&gt;Node28 -->
<g id="edge39_Node000001_Node000028" class="edge">
<title>Node1&#45;&gt;Node28</title>
<g id="a_edge39_Node000001_Node000028"><a xlink:title=" ">
<path fill="none" stroke="#63b8ff" d="M63.06,-227.02C78.74,-234.73 101.63,-245.73 122,-254.5 172.79,-276.36 185.3,-282.76 238,-299.5 248.76,-302.92 260.33,-306.16 271.58,-309.1"/>
<polygon fill="#63b8ff" stroke="#63b8ff" points="270.8,-312.51 281.35,-311.6 272.53,-305.73 270.8,-312.51"/>
</a>
</g>
</g>
<!-- Node2&#45;&gt;Node1 -->
<g id="edge16_Node000002_Node000001" class="edge">
<title>Node2&#45;&gt;Node1</title>
<g id="a_edge16_Node000002_Node000001"><a xlink:title=" ">
<path fill="none" stroke="#63b8ff" d="M121.94,-223.91C113.7,-224.21 104.88,-224.31 96.25,-224.22"/>
<polygon fill="#63b8ff" stroke="#63b8ff" points="96.31,-220.72 86.24,-224.01 96.17,-227.71 96.31,-220.72"/>
</a>
</g>
</g>
<!-- Node2&#45;&gt;Node2 -->
<g id="edge10_Node000002_Node000002" class="edge">
<title>Node2&#45;&gt;Node2</title>
<g id="a_edge10_Node000002_Node000002"><a xlink:title=" ">
<path fill="none" stroke="#63b8ff" d="M143.81,-227.08C134.96,-235.73 141.03,-245 162,-245 175.11,-245 182.39,-241.38 183.85,-236.55"/>
<polygon fill="#63b8ff" stroke="#63b8ff" points="187.06,-235.15 180.19,-227.08 180.53,-237.67 187.06,-235.15"/>
</a>
</g>
</g>
<!-- Node3 -->
<g id="Node000003" class="node">
<title>Node3</title>
<g id="a_Node000003"><a xlink:href="classgrift.html#aaa79c30c964e2edac2d6d49f2f95b9a3" target="_top" xlink:title="Creates a clone of the model template.">
<polygon fill="white" stroke="#666666" points="369,-93 301,-93 301,-74 369,-74 369,-93"/>
<text text-anchor="middle" x="335" y="-81" font-family="Helvetica,sans-Serif" font-size="10.00">grift::clone</text>
</a>
</g>
</g>
<!-- Node2&#45;&gt;Node3 -->
<g id="edge2_Node000002_Node000003" class="edge">
<title>Node2&#45;&gt;Node3</title>
<g id="a_edge2_Node000002_Node000003"><a xlink:title=" ">
<path fill="none" stroke="#63b8ff" d="M166.28,-207.91C174.47,-185.47 198.1,-129.45 238,-102.5 253.42,-92.08 273.21,-87.1 290.82,-84.81"/>
<polygon fill="#63b8ff" stroke="#63b8ff" points="291.3,-88.28 300.88,-83.75 290.57,-81.32 291.3,-88.28"/>
</a>
</g>
</g>
<!-- Node6 -->
<g id="Node000006" class="node">
<title>Node6</title>
<g id="a_Node000006"><a xlink:href="namespacepyc_1_1graph.html#aa28a4253050413ec67a3313635a699ad" target="_top" xlink:title=" ">
<polygon fill="white" stroke="#666666" points="415.5,-376 254.5,-376 254.5,-357 415.5,-357 415.5,-376"/>
<text text-anchor="middle" x="335" y="-364" font-family="Helvetica,sans-Serif" font-size="10.00">pyc::graph::edge_aggregation</text>
</a>
</g>
</g>
<!-- Node2&#45;&gt;Node6 -->
<g id="edge5_Node000002_Node000006" class="edge">
<title>Node2&#45;&gt;Node6</title>
<g id="a_edge5_Node000002_Node000006"><a xlink:title=" ">
<path fill="none" stroke="#63b8ff" d="M165.57,-227.22C172.6,-251.75 194.57,-316.4 238,-347.5 240.54,-349.32 243.22,-350.98 245.99,-352.49"/>
<polygon fill="#63b8ff" stroke="#63b8ff" points="244.6,-355.7 255.14,-356.81 247.59,-349.37 244.6,-355.7"/>
</a>
</g>
</g>
<!-- Node2&#45;&gt;Node11 -->
<g id="edge11_Node000002_Node000011" class="edge">
<title>Node2&#45;&gt;Node11</title>
<g id="a_edge11_Node000002_Node000011"><a xlink:title=" ">
<path fill="none" stroke="#63b8ff" d="M164.35,-227.23C168.9,-256.14 186.36,-342.19 238,-385.5 244.79,-391.2 252.74,-395.57 261.11,-398.92"/>
<polygon fill="#63b8ff" stroke="#63b8ff" points="260.1,-402.28 270.7,-402.3 262.42,-395.68 260.1,-402.28"/>
</a>
</g>
</g>
<!-- Node14 -->
<g id="Node000014" class="node">
<title>Node14</title>
<g id="a_Node000014"><a xlink:href="bsm__4tops_2include_2bsm__4tops_2graph__features_8h.html#ae8e5a8c9e20c373fc6c4566c25f8a5e9" target="_top" xlink:title=" ">
<polygon fill="white" stroke="#666666" points="366,-290 304,-290 304,-271 366,-271 366,-290"/>
<text text-anchor="middle" x="335" y="-278" font-family="Helvetica,sans-Serif" font-size="10.00">num_jets</text>
</a>
</g>
</g>
<!-- Node2&#45;&gt;Node14 -->
<g id="edge17_Node000002_Node000014" class="edge">
<title>Node2&#45;&gt;Node14</title>
<g id="a_edge17_Node000002_Node000014"><a xlink:title=" ">
<path fill="none" stroke="#63b8ff" d="M175.81,-227.14C190.19,-237.48 214.58,-253.61 238,-262.5 255.76,-269.24 276.36,-273.53 293.91,-276.22"/>
<polygon fill="#63b8ff" stroke="#63b8ff" points="293.45,-279.69 303.85,-277.63 294.43,-272.76 293.45,-279.69"/>
</a>
</g>
</g>
<!-- Node15 -->
<g id="Node000015" class="node">
<title>Node15</title>
<g id="a_Node000015"><a xlink:href="bsm__4tops_2include_2bsm__4tops_2graph__features_8h.html#a75c0e78e1f575a8475cf9d1958c47167" target="_top" xlink:title=" ">
<polygon fill="white" stroke="#666666" points="367,-167 303,-167 303,-148 367,-148 367,-167"/>
<text text-anchor="middle" x="335" y="-155" font-family="Helvetica,sans-Serif" font-size="10.00">num_leps</text>
</a>
</g>
</g>
<!-- Node2&#45;&gt;Node15 -->
<g id="edge18_Node000002_Node000015" class="edge">
<title>Node2&#45;&gt;Node15</title>
<g id="a_edge18_Node000002_Node000015"><a xlink:title=" ">
<path fill="none" stroke="#63b8ff" d="M177.31,-207.94C191.96,-198.59 215.68,-184.59 238,-176.5 255.33,-170.22 275.21,-165.85 292.37,-162.9"/>
<polygon fill="#63b8ff" stroke="#63b8ff" points="293.34,-166.29 302.65,-161.24 292.22,-159.38 293.34,-166.29"/>
</a>
</g>
</g>
<!-- Node16 -->
<g id="Node000016" class="node">
<title>Node16</title>
<g id="a_Node000016"><a xlink:href="namespacepyc_1_1graph.html#a509b4a1583be203ff16f22594194655b" target="_top" xlink:title=" ">
<polygon fill="white" stroke="#666666" points="432,-253 238,-253 238,-234 432,-234 432,-253"/>
<text text-anchor="middle" x="335" y="-241" font-family="Helvetica,sans-Serif" font-size="10.00">pyc::graph::PageRankReconstruction</text>
</a>
</g>
</g>
<!-- Node2&#45;&gt;Node16 -->
<g id="edge19_Node000002_Node000016" class="edge">
<title>Node2&#45;&gt;Node16</title>
<g id="a_edge19_Node000002_Node000016"><a xlink:title=" ">
<path fill="none" stroke="#63b8ff" d="M202.23,-223.46C219.86,-226.14 241.24,-229.4 261.6,-232.49"/>
<polygon fill="#63b8ff" stroke="#63b8ff" points="261.08,-235.95 271.49,-234 262.13,-229.03 261.08,-235.95"/>
</a>
</g>
</g>
<!-- Node17 -->
<g id="Node000017" class="node">
<title>Node17</title>
<g id="a_Node000017"><a xlink:href="namespacepyc_1_1transform_1_1separate.html#a720f165f6c3acc7c6ed1b33dd2c369bb" target="_top" xlink:title=" ">
<polygon fill="white" stroke="#666666" points="403.5,-215.5 266.5,-215.5 266.5,-185.5 403.5,-185.5 403.5,-215.5"/>
<text text-anchor="start" x="274.5" y="-203.5" font-family="Helvetica,sans-Serif" font-size="10.00">pyc::transform::separate</text>
<text text-anchor="middle" x="335" y="-192.5" font-family="Helvetica,sans-Serif" font-size="10.00">::PxPyPzE</text>
</a>
</g>
</g>
<!-- Node2&#45;&gt;Node17 -->
<g id="edge22_Node000002_Node000017" class="edge">
<title>Node2&#45;&gt;Node17</title>
<g id="a_edge22_Node000002_Node000017"><a xlink:title=" ">
<path fill="none" stroke="#63b8ff" d="M202.23,-213.6C218.36,-212 237.64,-210.08 256.4,-208.21"/>
<polygon fill="#63b8ff" stroke="#63b8ff" points="256.84,-211.69 266.45,-207.22 256.15,-204.72 256.84,-211.69"/>
</a>
</g>
</g>
<!-- Node23 -->
<g id="Node000023" class="node">
<title>Node23</title>
<g id="a_Node000023"><a xlink:href="bsm__4tops_2include_2bsm__4tops_2edge__features_8h.html#a196518fb89ffbc60b3ca928dc80ac57d" target="_top" xlink:title=" ">
<polygon fill="white" stroke="#666666" points="365.5,-130 304.5,-130 304.5,-111 365.5,-111 365.5,-130"/>
<text text-anchor="middle" x="335" y="-118" font-family="Helvetica,sans-Serif" font-size="10.00">res_edge</text>
</a>
</g>
</g>
<!-- Node2&#45;&gt;Node23 -->
<g id="edge29_Node000002_Node000023" class="edge">
<title>Node2&#45;&gt;Node23</title>
<g id="a_edge29_Node000002_Node000023"><a xlink:title=" ">
<path fill="none" stroke="#63b8ff" d="M169.32,-207.77C180.81,-190.93 206.84,-156.53 238,-139.5 255.15,-130.12 276.28,-125.34 294.34,-122.91"/>
<polygon fill="#63b8ff" stroke="#63b8ff" points="294.76,-126.39 304.29,-121.76 293.96,-119.43 294.76,-126.39"/>
</a>
</g>
</g>
<!-- Node2&#45;&gt;Node25 -->
<g id="edge31_Node000002_Node000025" class="edge">
<title>Node2&#45;&gt;Node25</title>
<g id="a_edge31_Node000002_Node000025"><a xlink:title=" ">
<path fill="none" stroke="#63b8ff" d="M166.77,-207.86C181.85,-169.31 237.06,-28.28 238,-27.5 252.61,-15.44 272.74,-10.48 290.8,-8.72"/>
<polygon fill="#63b8ff" stroke="#63b8ff" points="291.12,-12.2 300.86,-8.03 290.64,-5.22 291.12,-12.2"/>
</a>
</g>
</g>
<!-- Node26 -->
<g id="Node000026" class="node">
<title>Node26</title>
<g id="a_Node000026"><a xlink:href="bsm__4tops_2include_2bsm__4tops_2edge__features_8h.html#af35cf309c4131ca516f825cf67635ceb" target="_top" xlink:title=" ">
<polygon fill="white" stroke="#666666" points="366,-56 304,-56 304,-37 366,-37 366,-56"/>
<text text-anchor="middle" x="335" y="-44" font-family="Helvetica,sans-Serif" font-size="10.00">top_edge</text>
</a>
</g>
</g>
<!-- Node2&#45;&gt;Node26 -->
<g id="edge32_Node000002_Node000026" class="edge">
<title>Node2&#45;&gt;Node26</title>
<g id="a_edge32_Node000002_Node000026"><a xlink:title=" ">
<path fill="none" stroke="#63b8ff" d="M166.53,-207.69C177.72,-177.13 213.13,-84.56 238,-65.5 253.82,-53.38 275.29,-48.38 293.92,-46.51"/>
<polygon fill="#63b8ff" stroke="#63b8ff" points="294.2,-50 303.92,-45.78 293.69,-43.02 294.2,-50"/>
</a>
</g>
</g>
<!-- Node2&#45;&gt;Node28 -->
<g id="edge34_Node000002_Node000028" class="edge">
<title>Node2&#45;&gt;Node28</title>
<g id="a_edge34_Node000002_Node000028"><a xlink:title=" ">
<path fill="none" stroke="#63b8ff" d="M168.93,-227.03C180.18,-244.27 206.35,-280.63 238,-299.5 248.15,-305.55 259.77,-310.08 271.34,-313.47"/>
<polygon fill="#63b8ff" stroke="#63b8ff" points="270.45,-316.85 281.01,-316.06 272.26,-310.09 270.45,-316.85"/>
</a>
</g>
</g>
<!-- Node4 -->
<g id="Node000004" class="node">
<title>Node4</title>
<g id="a_Node000004"><a xlink:href="classgrift.html#a8c3babc97f67eedd8105da8e245bdcef" target="_top" xlink:title=" ">
<polygon fill="white" stroke="#666666" points="570.5,-93 508.5,-93 508.5,-74 570.5,-74 570.5,-93"/>
<text text-anchor="middle" x="539.5" y="-81" font-family="Helvetica,sans-Serif" font-size="10.00">grift::grift</text>
</a>
</g>
</g>
<!-- Node3&#45;&gt;Node4 -->
<g id="edge3_Node000003_Node000004" class="edge">
<title>Node3&#45;&gt;Node4</title>
<g id="a_edge3_Node000003_Node000004"><a xlink:title=" ">
<path fill="none" stroke="#63b8ff" d="M369.44,-83.5C404.76,-83.5 460.46,-83.5 498.19,-83.5"/>
<polygon fill="#63b8ff" stroke="#63b8ff" points="498.32,-87 508.32,-83.5 498.32,-80 498.32,-87"/>
</a>
</g>
</g>
<!-- Node5 -->
<g id="Node000005" class="node">
<title>Node5</title>
<g id="a_Node000005"><a xlink:href="classmodel__template.html#a456e96f75278fed9c8d6f4dbff885e39" target="_top" xlink:title="Registers a PyTorch sequential module with the model.">
<polygon fill="white" stroke="#666666" points="787,-98.5 647,-98.5 647,-68.5 787,-68.5 787,-98.5"/>
<text text-anchor="start" x="655" y="-86.5" font-family="Helvetica,sans-Serif" font-size="10.00">model_template::register</text>
<text text-anchor="middle" x="717" y="-75.5" font-family="Helvetica,sans-Serif" font-size="10.00">_module</text>
</a>
</g>
</g>
<!-- Node4&#45;&gt;Node5 -->
<g id="edge4_Node000004_Node000005" class="edge">
<title>Node4&#45;&gt;Node5</title>
<g id="a_edge4_Node000004_Node000005"><a xlink:title=" ">
<path fill="none" stroke="#63b8ff" d="M570.67,-83.5C589.02,-83.5 613.39,-83.5 636.92,-83.5"/>
<polygon fill="#63b8ff" stroke="#63b8ff" points="636.93,-87 646.93,-83.5 636.93,-80 636.93,-87"/>
</a>
</g>
</g>
<!-- Node7 -->
<g id="Node000007" class="node">
<title>Node7</title>
<g id="a_Node000007"><a xlink:href="utils_8cxx.html#a123aed6d73594e07c6401a7a6c587808" target="_top" xlink:title=" ">
<polygon fill="white" stroke="#666666" points="574.5,-336 504.5,-336 504.5,-317 574.5,-317 574.5,-336"/>
<text text-anchor="middle" x="539.5" y="-324" font-family="Helvetica,sans-Serif" font-size="10.00">changedev</text>
</a>
</g>
</g>
<!-- Node6&#45;&gt;Node7 -->
<g id="edge6_Node000006_Node000007" class="edge">
<title>Node6&#45;&gt;Node7</title>
<g id="a_edge6_Node000006_Node000007"><a xlink:title=" ">
<path fill="none" stroke="#63b8ff" d="M384.25,-356.97C417.6,-350.38 461.65,-341.68 494.13,-335.26"/>
<polygon fill="#63b8ff" stroke="#63b8ff" points="495.11,-338.64 504.24,-333.27 493.75,-331.77 495.11,-338.64"/>
</a>
</g>
</g>
<!-- Node8 -->
<g id="Node000008" class="node">
<title>Node8</title>
<g id="a_Node000008"><a xlink:href="namespacegraph__.html#a7249186f32a05a8ff1601bff5deabdef" target="_top" xlink:title=" ">
<polygon fill="white" stroke="#666666" points="611,-376 468,-376 468,-357 611,-357 611,-376"/>
<text text-anchor="middle" x="539.5" y="-364" font-family="Helvetica,sans-Serif" font-size="10.00">graph_::edge_aggregation</text>
</a>
</g>
</g>
<!-- Node6&#45;&gt;Node8 -->
<g id="edge7_Node000006_Node000008" class="edge">
<title>Node6&#45;&gt;Node8</title>
<g id="a_edge7_Node000006_Node000008"><a xlink:title=" ">
<path fill="none" stroke="#63b8ff" d="M415.74,-366.5C429.41,-366.5 443.63,-366.5 457.34,-366.5"/>
<polygon fill="#63b8ff" stroke="#63b8ff" points="457.7,-370 467.7,-366.5 457.7,-363 457.7,-370"/>
</a>
</g>
</g>
<!-- Node10 -->
<g id="Node000010" class="node">
<title>Node10</title>
<g id="a_Node000010"><a xlink:href="namespacepyc.html#ab174cc51f6efef06bdb0ba47ec3fe3bf" target="_top" xlink:title=" ">
<polygon fill="white" stroke="#666666" points="586,-299 493,-299 493,-280 586,-280 586,-299"/>
<text text-anchor="middle" x="539.5" y="-287" font-family="Helvetica,sans-Serif" font-size="10.00">pyc::std_to_dict</text>
</a>
</g>
</g>
<!-- Node6&#45;&gt;Node10 -->
<g id="edge9_Node000006_Node000010" class="edge">
<title>Node6&#45;&gt;Node10</title>
<g id="a_edge9_Node000006_Node000010"><a xlink:title=" ">
<path fill="none" stroke="#63b8ff" d="M409.55,-356.99C417.39,-354.51 425.03,-351.4 432,-347.5 452.58,-335.98 447.82,-320.72 468,-308.5 472.74,-305.63 477.93,-303.18 483.26,-301.1"/>
<polygon fill="#63b8ff" stroke="#63b8ff" points="484.65,-304.32 492.95,-297.74 482.36,-297.71 484.65,-304.32"/>
</a>
</g>
</g>
<!-- Node9 -->
<g id="Node000009" class="node">
<title>Node9</title>
<g id="a_Node000009"><a xlink:href="utils_8cxx.html#a1652e53abd2299dd0f10e093948e4fa3" target="_top" xlink:title=" ">
<polygon fill="white" stroke="#666666" points="745,-376 689,-376 689,-357 745,-357 745,-376"/>
<text text-anchor="middle" x="717" y="-364" font-family="Helvetica,sans-Serif" font-size="10.00">MakeOp</text>
</a>
</g>
</g>
<!-- Node8&#45;&gt;Node9 -->
<g id="edge8_Node000008_Node000009" class="edge">
<title>Node8&#45;&gt;Node9</title>
<g id="a_edge8_Node000008_Node000009"><a xlink:title=" ">
<path fill="none" stroke="#63b8ff" d="M611.12,-366.5C634.21,-366.5 658.95,-366.5 678.6,-366.5"/>
<polygon fill="#63b8ff" stroke="#63b8ff" points="678.66,-370 688.66,-366.5 678.66,-363 678.66,-370"/>
</a>
</g>
</g>
<!-- Node11&#45;&gt;Node7 -->
<g id="edge12_Node000011_Node000007" class="edge">
<title>Node11&#45;&gt;Node7</title>
<g id="a_edge12_Node000011_Node000007"><a xlink:title=" ">
<path fill="none" stroke="#63b8ff" d="M399.15,-399.03C410.52,-395.68 421.95,-391.28 432,-385.5 451.89,-374.06 448.45,-360.51 468,-348.5 476.1,-343.52 485.43,-339.58 494.59,-336.5"/>
<polygon fill="#63b8ff" stroke="#63b8ff" points="495.87,-339.76 504.4,-333.48 493.81,-333.07 495.87,-339.76"/>
</a>
</g>
</g>
<!-- Node12 -->
<g id="Node000012" class="node">
<title>Node12</title>
<g id="a_Node000012"><a xlink:href="namespacephysics__.html#a64e8e583c57246f52851c0bff4137ebc" target="_top" xlink:title="Computes the invariant mass.">
<polygon fill="white" stroke="#666666" points="576.5,-419 502.5,-419 502.5,-400 576.5,-400 576.5,-419"/>
<text text-anchor="middle" x="539.5" y="-407" font-family="Helvetica,sans-Serif" font-size="10.00">physics_::M</text>
</a>
</g>
</g>
<!-- Node11&#45;&gt;Node12 -->
<g id="edge13_Node000011_Node000012" class="edge">
<title>Node11&#45;&gt;Node12</title>
<g id="a_edge13_Node000011_Node000012"><a xlink:title=" ">
<path fill="none" stroke="#63b8ff" d="M399.24,-409.5C429.29,-409.5 464.56,-409.5 492.09,-409.5"/>
<polygon fill="#63b8ff" stroke="#63b8ff" points="492.23,-413 502.23,-409.5 492.23,-406 492.23,-413"/>
</a>
</g>
</g>
<!-- Node12&#45;&gt;Node12 -->
<g id="edge15_Node000012_Node000012" class="edge">
<title>Node12&#45;&gt;Node12</title>
<g id="a_edge15_Node000012_Node000012"><a xlink:title=" ">
<path fill="none" stroke="#63b8ff" d="M512.37,-419.08C499.18,-427.73 508.22,-437 539.5,-437 560.52,-437 571.5,-432.82 572.43,-427.45"/>
<polygon fill="#63b8ff" stroke="#63b8ff" points="575.2,-425.3 566.63,-419.08 569.45,-429.29 575.2,-425.3"/>
</a>
</g>
</g>
<!-- Node13 -->
<g id="Node000013" class="node">
<title>Node13</title>
<g id="a_Node000013"><a xlink:href="utils_8cxx.html#a9c1cdc6384bce6bdc92ca917b3f656bf" target="_top" xlink:title=" ">
<polygon fill="white" stroke="#666666" points="742,-419 692,-419 692,-400 742,-400 742,-419"/>
<text text-anchor="middle" x="717" y="-407" font-family="Helvetica,sans-Serif" font-size="10.00">format</text>
</a>
</g>
</g>
<!-- Node12&#45;&gt;Node13 -->
<g id="edge14_Node000012_Node000013" class="edge">
<title>Node12&#45;&gt;Node13</title>
<g id="a_edge14_Node000012_Node000013"><a xlink:title=" ">
<path fill="none" stroke="#63b8ff" d="M576.86,-409.5C607.67,-409.5 651.52,-409.5 681.72,-409.5"/>
<polygon fill="#63b8ff" stroke="#63b8ff" points="681.79,-413 691.79,-409.5 681.79,-406 681.79,-413"/>
</a>
</g>
</g>
<!-- Node16&#45;&gt;Node7 -->
<g id="edge20_Node000016_Node000007" class="edge">
<title>Node16&#45;&gt;Node7</title>
<g id="a_edge20_Node000016_Node000007"><a xlink:title=" ">
<path fill="none" stroke="#63b8ff" d="M411.86,-253.13C418.93,-255.6 425.78,-258.67 432,-262.5 454.12,-276.09 446.26,-294.31 468,-308.5 475.92,-313.67 485.25,-317.36 494.47,-319.99"/>
<polygon fill="#63b8ff" stroke="#63b8ff" points="493.82,-323.43 504.37,-322.44 495.51,-316.64 493.82,-323.43"/>
</a>
</g>
</g>
<!-- Node16&#45;&gt;Node10 -->
<g id="edge21_Node000016_Node000010" class="edge">
<title>Node16&#45;&gt;Node10</title>
<g id="a_edge21_Node000016_Node000010"><a xlink:title=" ">
<path fill="none" stroke="#63b8ff" d="M386.92,-253.06C401.51,-255.94 417.42,-259.21 432,-262.5 452.03,-267.02 474.05,-272.51 492.84,-277.36"/>
<polygon fill="#63b8ff" stroke="#63b8ff" points="492.07,-280.78 502.63,-279.9 493.83,-274 492.07,-280.78"/>
</a>
</g>
</g>
<!-- Node17&#45;&gt;Node7 -->
<g id="edge23_Node000017_Node000007" class="edge">
<title>Node17&#45;&gt;Node7</title>
<g id="a_edge23_Node000017_Node000007"><a xlink:title=" ">
<path fill="none" stroke="#63b8ff" d="M403.86,-209.85C414.08,-213.51 423.89,-218.55 432,-225.5 462.54,-251.65 437.4,-282.42 468,-308.5 475.49,-314.89 484.96,-319.05 494.5,-321.76"/>
<polygon fill="#63b8ff" stroke="#63b8ff" points="493.85,-325.2 504.39,-324.08 495.45,-318.39 493.85,-325.2"/>
</a>
</g>
</g>
<!-- Node18 -->
<g id="Node000018" class="node">
<title>Node18</title>
<g id="a_Node000018"><a xlink:href="namespacetransform__.html#a87dc88421ea78ec3b9c73c86cc5ade19" target="_top" xlink:title="Computes the 4&#45;momentum (Px, Py, Pz, E).">
<polygon fill="white" stroke="#666666" points="598,-210 481,-210 481,-191 598,-191 598,-210"/>
<text text-anchor="middle" x="539.5" y="-198" font-family="Helvetica,sans-Serif" font-size="10.00">transform_::PxPyPzE</text>
</a>
</g>
</g>
<!-- Node17&#45;&gt;Node18 -->
<g id="edge24_Node000017_Node000018" class="edge">
<title>Node17&#45;&gt;Node18</title>
<g id="a_edge24_Node000017_Node000018"><a xlink:title=" ">
<path fill="none" stroke="#63b8ff" d="M403.71,-200.5C425.25,-200.5 449.07,-200.5 470.62,-200.5"/>
<polygon fill="#63b8ff" stroke="#63b8ff" points="470.67,-204 480.67,-200.5 470.67,-197 470.67,-204"/>
</a>
</g>
</g>
<!-- Node19 -->
<g id="Node000019" class="node">
<title>Node19</title>
<g id="a_Node000019"><a xlink:href="namespacetransform__.html#aa38819d479d31edd3f79b4f8e96ef8be" target="_top" xlink:title="Computes the 3&#45;momentum (Px, Py, Pz).">
<polygon fill="white" stroke="#666666" points="772.5,-210 661.5,-210 661.5,-191 772.5,-191 772.5,-210"/>
<text text-anchor="middle" x="717" y="-198" font-family="Helvetica,sans-Serif" font-size="10.00">transform_::PxPyPz</text>
</a>
</g>
</g>
<!-- Node18&#45;&gt;Node19 -->
<g id="edge25_Node000018_Node000019" class="edge">
<title>Node18&#45;&gt;Node19</title>
<g id="a_edge25_Node000018_Node000019"><a xlink:title=" ">
<path fill="none" stroke="#63b8ff" d="M598.45,-200.5C615.39,-200.5 634.02,-200.5 651.35,-200.5"/>
<polygon fill="#63b8ff" stroke="#63b8ff" points="651.38,-204 661.38,-200.5 651.38,-197 651.38,-204"/>
</a>
</g>
</g>
<!-- Node20 -->
<g id="Node000020" class="node">
<title>Node20</title>
<g id="a_Node000020"><a xlink:href="namespacetransform__.html#a4573dda96168ebbd38a408e64cc3d5ff" target="_top" xlink:title="Computes the x&#45;component of momentum (Px).">
<polygon fill="white" stroke="#666666" points="911,-247 823,-247 823,-228 911,-228 911,-247"/>
<text text-anchor="middle" x="867" y="-235" font-family="Helvetica,sans-Serif" font-size="10.00">transform_::Px</text>
</a>
</g>
</g>
<!-- Node19&#45;&gt;Node20 -->
<g id="edge26_Node000019_Node000020" class="edge">
<title>Node19&#45;&gt;Node20</title>
<g id="a_edge26_Node000019_Node000020"><a xlink:title=" ">
<path fill="none" stroke="#63b8ff" d="M756.11,-210.03C774.94,-214.74 797.86,-220.47 817.89,-225.47"/>
<polygon fill="#63b8ff" stroke="#63b8ff" points="817.21,-228.91 827.76,-227.94 818.91,-222.12 817.21,-228.91"/>
</a>
</g>
</g>
<!-- Node21 -->
<g id="Node000021" class="node">
<title>Node21</title>
<g id="a_Node000021"><a xlink:href="namespacetransform__.html#a51363ab29a6390a86a8ea75573a7a196" target="_top" xlink:title="Computes the y&#45;component of momentum (Py).">
<polygon fill="white" stroke="#666666" points="911,-210 823,-210 823,-191 911,-191 911,-210"/>
<text text-anchor="middle" x="867" y="-198" font-family="Helvetica,sans-Serif" font-size="10.00">transform_::Py</text>
</a>
</g>
</g>
<!-- Node19&#45;&gt;Node21 -->
<g id="edge27_Node000019_Node000021" class="edge">
<title>Node19&#45;&gt;Node21</title>
<g id="a_edge27_Node000019_Node000021"><a xlink:title=" ">
<path fill="none" stroke="#63b8ff" d="M772.69,-200.5C785.68,-200.5 799.53,-200.5 812.48,-200.5"/>
<polygon fill="#63b8ff" stroke="#63b8ff" points="812.63,-204 822.63,-200.5 812.63,-197 812.63,-204"/>
</a>
</g>
</g>
<!-- Node22 -->
<g id="Node000022" class="node">
<title>Node22</title>
<g id="a_Node000022"><a xlink:href="namespacetransform__.html#a28be39b0041a97b1667ccd1ff301f784" target="_top" xlink:title="Computes the z&#45;component of momentum (Pz).">
<polygon fill="white" stroke="#666666" points="910.5,-173 823.5,-173 823.5,-154 910.5,-154 910.5,-173"/>
<text text-anchor="middle" x="867" y="-161" font-family="Helvetica,sans-Serif" font-size="10.00">transform_::Pz</text>
</a>
</g>
</g>
<!-- Node19&#45;&gt;Node22 -->
<g id="edge28_Node000019_Node000022" class="edge">
<title>Node19&#45;&gt;Node22</title>
<g id="a_edge28_Node000019_Node000022"><a xlink:title=" ">
<path fill="none" stroke="#63b8ff" d="M756.11,-190.97C774.94,-186.26 797.86,-180.53 817.89,-175.53"/>
<polygon fill="#63b8ff" stroke="#63b8ff" points="818.91,-178.88 827.76,-173.06 817.21,-172.09 818.91,-178.88"/>
</a>
</g>
</g>
<!-- Node24 -->
<g id="Node000024" class="node">
<title>Node24</title>
<g id="a_Node000024"><a xlink:href="bsm__4tops_2include_2bsm__4tops_2edge__features_8h.html#a9addd2275949f0828310adb01cc761a3" target="_top" xlink:title=" ">
<polygon fill="white" stroke="#666666" points="577.5,-130 501.5,-130 501.5,-111 577.5,-111 577.5,-130"/>
<text text-anchor="middle" x="539.5" y="-118" font-family="Helvetica,sans-Serif" font-size="10.00">m_res_edge</text>
</a>
</g>
</g>
<!-- Node23&#45;&gt;Node24 -->
<g id="edge30_Node000023_Node000024" class="edge">
<title>Node23&#45;&gt;Node24</title>
<g id="a_edge30_Node000023_Node000024"><a xlink:title=" ">
<path fill="none" stroke="#63b8ff" d="M365.88,-120.5C398.76,-120.5 452.08,-120.5 490.77,-120.5"/>
<polygon fill="#63b8ff" stroke="#63b8ff" points="491.27,-124 501.27,-120.5 491.27,-117 491.27,-124"/>
</a>
</g>
</g>
<!-- Node27 -->
<g id="Node000027" class="node">
<title>Node27</title>
<g id="a_Node000027"><a xlink:href="bsm__4tops_2include_2bsm__4tops_2edge__features_8h.html#a28ada91c16a5975605583559f663b268" target="_top" xlink:title=" ">
<polygon fill="white" stroke="#666666" points="578,-56 501,-56 501,-37 578,-37 578,-56"/>
<text text-anchor="middle" x="539.5" y="-44" font-family="Helvetica,sans-Serif" font-size="10.00">m_top_edge</text>
</a>
</g>
</g>
<!-- Node26&#45;&gt;Node27 -->
<g id="edge33_Node000026_Node000027" class="edge">
<title>Node26&#45;&gt;Node27</title>
<g id="a_edge33_Node000026_Node000027"><a xlink:title=" ">
<path fill="none" stroke="#63b8ff" d="M366.32,-46.5C399.09,-46.5 451.8,-46.5 490.28,-46.5"/>
<polygon fill="#63b8ff" stroke="#63b8ff" points="490.72,-50 500.72,-46.5 490.72,-43 490.72,-50"/>
</a>
</g>
</g>
<!-- Node28&#45;&gt;Node7 -->
<g id="edge35_Node000028_Node000007" class="edge">
<title>Node28&#45;&gt;Node7</title>
<g id="a_edge35_Node000028_Node000007"><a xlink:title=" ">
<path fill="none" stroke="#63b8ff" d="M388.68,-324.28C421.42,-324.77 463.05,-325.38 494.11,-325.84"/>
<polygon fill="#63b8ff" stroke="#63b8ff" points="494.16,-329.34 504.21,-325.99 494.26,-322.34 494.16,-329.34"/>
</a>
</g>
</g>
<!-- Node28&#45;&gt;Node10 -->
<g id="edge36_Node000028_Node000010" class="edge">
<title>Node28&#45;&gt;Node10</title>
<g id="a_edge36_Node000028_Node000010"><a xlink:title=" ">
<path fill="none" stroke="#63b8ff" d="M388.68,-314.66C417.61,-309.8 453.48,-303.78 482.86,-298.84"/>
<polygon fill="#63b8ff" stroke="#63b8ff" points="483.68,-302.25 492.96,-297.15 482.52,-295.35 483.68,-302.25"/>
</a>
</g>
</g>
</g>
</svg>

<g id="navigator" transform="translate(0 0)" fill="#404254">
  <rect fill="#f2f5e9" fill-opacity="0.5" stroke="#606060" stroke-width=".5" x="0" y="0" width="60" height="60"/>
  <use id="zoomplus" xlink:href="#zoomPlus" x="17" y="9" onmousedown="handleZoom(evt,'in')"/>
  <use id="zoomminus" xlink:href="#zoomMin" x="42" y="9" onmousedown="handleZoom(evt,'out')"/>
  <use id="reset" xlink:href="#resetDef" x="30" y="36" onmousedown="handleReset()"/>
   <use id="arrowup" xlink:href="#arrowUp" x="0" y="0" onmousedown="handlePan(0,-1)"/>
  <use id="arrowright" xlink:href="#arrowRight" x="0" y="0" onmousedown="handlePan(1,0)"/>
  <use id="arrowdown" xlink:href="#arrowDown" x="0" y="0" onmousedown="handlePan(0,1)"/>
  <use id="arrowleft" xlink:href="#arrowLeft" x="0" y="0" onmousedown="handlePan(-1,0)"/>
</g>
<svg viewBox="0 0 15 15" width="100%" height="30px" preserveAspectRatio="xMaxYMin meet">
 <g id="arrow_out" transform="scale(0.3 0.3)">
  <a xlink:href="classgrift_ad610edcd0cab14b57197a846ab8a8caf_cgraph_org.svg" target="_base">
   <rect id="button" ry="5" rx="5" y="6" x="6" height="38" width="38"
        fill="#f2f5e9" fill-opacity="0.5" stroke="#606060" stroke-width="1.0"/>
   <path id="arrow"
     d="M 11.500037,31.436501 C 11.940474,20.09759 22.043105,11.32322 32.158766,21.979434 L 37.068811,17.246167 C 37.068811,17.246167 37.088388,32 37.088388,32 L 22.160133,31.978069 C 22.160133,31.978069 26.997745,27.140456 26.997745,27.140456 C 18.528582,18.264221 13.291696,25.230495 11.500037,31.436501 z"
     style="fill:#404040;"/>
  </a>
 </g>
</svg>

<style type='text/css'>
<![CDATA[
[data-mouse-over-selected='false'] { opacity: 0.7; }
[data-mouse-over-selected='true']  { opacity: 1.0; }
]]>
</style>
<script type="application/ecmascript"><![CDATA[
document.addEventListener('DOMContentLoaded', (event) => {
  highlightEdges();
  highlightAdjacentNodes();
});
]]></script>
</svg>
