<?xml version="1.0" encoding="UTF-8" standalone="no"?>
<!DOCTYPE svg PUBLIC "-//W3C//DTD SVG 1.1//EN"
 "http://www.w3.org/Graphics/SVG/1.1/DTD/svg11.dtd">
<!-- Generated by graphviz version 2.43.0 (0)
 -->
<!-- Title: metric_template Pages: 1 -->
<!--zoomable 1322 -->

<svg id="main" version="1.1" xmlns="http://www.w3.org/2000/svg" xmlns:xlink="http://www.w3.org/1999/xlink" xml:space="preserve" onload="init(evt)">
<style type="text/css"><![CDATA[
.node, .edge {opacity: 0.7;}
.node.selected, .edge.selected {opacity: 1;}
.edge:hover path { stroke: red; }
.edge:hover polygon { stroke: red; fill: red; }
]]></style>

<defs>
  <circle id="rim" cx="0" cy="0" r="7"/>
  <circle id="rim2" cx="0" cy="0" r="3.5"/>
  <g id="zoomPlus">
    <use xlink:href="#rim" fill="#404040"><set attributeName="fill" to="#808080" begin="zoomplus.mouseover" end="zoomplus.mouseout"/></use>
    <path d="M-4,0h8M0,-4v8" fill="none" stroke="white" stroke-width="1.5" pointer-events="none"/>
  </g>
  <g id="zoomMin">
    <use xlink:href="#rim" fill="#404040"><set attributeName="fill" to="#808080" begin="zoomminus.mouseover" end="zoomminus.mouseout"/></use>
    <path d="M-4,0h8" fill="none" stroke="white" stroke-width="1.5" pointer-events="none"/>
  </g>
  <g id="arrowUp" transform="translate(30 24)">
    <use xlink:href="#rim"/>
    <path pointer-events="none" fill="none" stroke="white" stroke-width="1.5" d="M0,-3.0v7 M-2.5,-0.5L0,-3.0L2.5,-0.5"/>
  </g>
  <g id="arrowRight" transform="rotate(90) translate(36 -43)">
    <use xlink:href="#rim"/>
    <path pointer-events="none" fill="none" stroke="white" stroke-width="1.5" d="M0,-3.0v7 M-2.5,-0.5L0,-3.0L2.5,-0.5"/>
  </g>
  <g id="arrowDown" transform="rotate(180) translate(-30 -48)">
    <use xlink:href="#rim"/>
    <path pointer-events="none" fill="none" stroke="white" stroke-width="1.5" d="M0,-3.0v7 M-2.5,-0.5L0,-3.0L2.5,-0.5"/>
  </g>
  <g id="arrowLeft" transform="rotate(270) translate(-36 17)">
    <use xlink:href="#rim"/>
    <path pointer-events="none" fill="none" stroke="white" stroke-width="1.5" d="M0,-3.0v7 M-2.5,-0.5L0,-3.0L2.5,-0.5"/>
  </g>
  <g id="resetDef">
    <use xlink:href="#rim2" fill="#404040"><set attributeName="fill" to="#808080" begin="reset.mouseover" end="reset.mouseout"/></use>
  </g>
</defs>
<script type="application/ecmascript">
var viewWidth = 286;
var viewHeight = 1322;
var sectionId = 'dynsection-0';
</script>
<script type="application/ecmascript" xlink:href="svg.min.js"/>
<svg id="graph" class="graph">
<g id="viewport">
<title>metric_template</title>
<!-- Node1 -->
<g id="Node000001" class="node">
<title>Node1</title>
<g id="a_Node000001"><a xlink:title=" ">
<polygon fill="#999999" stroke="transparent" points="199.5,-929 81.5,-929 81.5,-310 199.5,-310 199.5,-929"/>
<text text-anchor="start" x="99.5" y="-916.5" font-family="Helvetica,sans-Serif" font-size="10.00">metric_template</text>
<text text-anchor="start" x="85.5" y="-901.5" font-family="Helvetica,sans-Serif" font-size="10.00">+</text>
<text text-anchor="start" x="98.5" y="-901.5" font-family="Helvetica,sans-Serif" font-size="10.00">name</text>
<text text-anchor="start" x="85.5" y="-886.5" font-family="Helvetica,sans-Serif" font-size="10.00">+</text>
<text text-anchor="start" x="98.5" y="-886.5" font-family="Helvetica,sans-Serif" font-size="10.00">run_names</text>
<text text-anchor="start" x="85.5" y="-871.5" font-family="Helvetica,sans-Serif" font-size="10.00">+</text>
<text text-anchor="start" x="98.5" y="-871.5" font-family="Helvetica,sans-Serif" font-size="10.00">variables</text>
<text text-anchor="start" x="85.5" y="-856.5" font-family="Helvetica,sans-Serif" font-size="10.00">+</text>
<text text-anchor="start" x="98.5" y="-856.5" font-family="Helvetica,sans-Serif" font-size="10.00">meta_data</text>
<text text-anchor="start" x="88" y="-841.5" font-family="Helvetica,sans-Serif" font-size="10.00">&#45;</text>
<text text-anchor="start" x="98.5" y="-841.5" font-family="Helvetica,sans-Serif" font-size="10.00">analysis</text>
<text text-anchor="start" x="88" y="-826.5" font-family="Helvetica,sans-Serif" font-size="10.00">&#45;</text>
<text text-anchor="start" x="98.5" y="-826.5" font-family="Helvetica,sans-Serif" font-size="10.00">lnks</text>
<text text-anchor="start" x="88" y="-811.5" font-family="Helvetica,sans-Serif" font-size="10.00">&#45;</text>
<text text-anchor="start" x="98.5" y="-811.5" font-family="Helvetica,sans-Serif" font-size="10.00">hash_mdl</text>
<text text-anchor="start" x="88" y="-796.5" font-family="Helvetica,sans-Serif" font-size="10.00">&#45;</text>
<text text-anchor="start" x="98.5" y="-796.5" font-family="Helvetica,sans-Serif" font-size="10.00">hash_bta</text>
<text text-anchor="start" x="88" y="-781.5" font-family="Helvetica,sans-Serif" font-size="10.00">&#45;</text>
<text text-anchor="start" x="98.5" y="-781.5" font-family="Helvetica,sans-Serif" font-size="10.00">_epoch_kfold</text>
<text text-anchor="start" x="88" y="-766.5" font-family="Helvetica,sans-Serif" font-size="10.00">&#45;</text>
<text text-anchor="start" x="98.5" y="-766.5" font-family="Helvetica,sans-Serif" font-size="10.00">_var_type</text>
<text text-anchor="start" x="88" y="-751.5" font-family="Helvetica,sans-Serif" font-size="10.00">&#45;</text>
<text text-anchor="start" x="98.5" y="-751.5" font-family="Helvetica,sans-Serif" font-size="10.00">_name</text>
<text text-anchor="start" x="88" y="-736.5" font-family="Helvetica,sans-Serif" font-size="10.00">&#45;</text>
<text text-anchor="start" x="98.5" y="-736.5" font-family="Helvetica,sans-Serif" font-size="10.00">_outdir</text>
<text text-anchor="start" x="88" y="-721.5" font-family="Helvetica,sans-Serif" font-size="10.00">&#45;</text>
<text text-anchor="start" x="98.5" y="-721.5" font-family="Helvetica,sans-Serif" font-size="10.00">_run_names</text>
<text text-anchor="start" x="88" y="-706.5" font-family="Helvetica,sans-Serif" font-size="10.00">&#45;</text>
<text text-anchor="start" x="98.5" y="-706.5" font-family="Helvetica,sans-Serif" font-size="10.00">_variables</text>
<text text-anchor="start" x="88" y="-691.5" font-family="Helvetica,sans-Serif" font-size="10.00">&#45;</text>
<text text-anchor="start" x="98.5" y="-691.5" font-family="Helvetica,sans-Serif" font-size="10.00">handle</text>
<text text-anchor="start" x="85.5" y="-676.5" font-family="Helvetica,sans-Serif" font-size="10.00">+</text>
<text text-anchor="start" x="98.5" y="-676.5" font-family="Helvetica,sans-Serif" font-size="10.00">metric_template()</text>
<text text-anchor="start" x="85.5" y="-661.5" font-family="Helvetica,sans-Serif" font-size="10.00">+</text>
<text text-anchor="start" x="98.5" y="-661.5" font-family="Helvetica,sans-Serif" font-size="10.00">~metric_template()</text>
<text text-anchor="start" x="85.5" y="-646.5" font-family="Helvetica,sans-Serif" font-size="10.00">+</text>
<text text-anchor="start" x="98.5" y="-646.5" font-family="Helvetica,sans-Serif" font-size="10.00">clone()</text>
<text text-anchor="start" x="85.5" y="-631.5" font-family="Helvetica,sans-Serif" font-size="10.00">+</text>
<text text-anchor="start" x="98.5" y="-631.5" font-family="Helvetica,sans-Serif" font-size="10.00">register_output()</text>
<text text-anchor="start" x="85.5" y="-616.5" font-family="Helvetica,sans-Serif" font-size="10.00">+</text>
<text text-anchor="start" x="98.5" y="-616.5" font-family="Helvetica,sans-Serif" font-size="10.00">write()</text>
<text text-anchor="start" x="85.5" y="-601.5" font-family="Helvetica,sans-Serif" font-size="10.00">+</text>
<text text-anchor="start" x="98.5" y="-601.5" font-family="Helvetica,sans-Serif" font-size="10.00">define_variables()</text>
<text text-anchor="start" x="85.5" y="-586.5" font-family="Helvetica,sans-Serif" font-size="10.00">+</text>
<text text-anchor="start" x="98.5" y="-586.5" font-family="Helvetica,sans-Serif" font-size="10.00">define_metric()</text>
<text text-anchor="start" x="85.5" y="-571.5" font-family="Helvetica,sans-Serif" font-size="10.00">+</text>
<text text-anchor="start" x="98.5" y="-571.5" font-family="Helvetica,sans-Serif" font-size="10.00">event()</text>
<text text-anchor="start" x="85.5" y="-556.5" font-family="Helvetica,sans-Serif" font-size="10.00">+</text>
<text text-anchor="start" x="98.5" y="-556.5" font-family="Helvetica,sans-Serif" font-size="10.00">batch()</text>
<text text-anchor="start" x="85.5" y="-541.5" font-family="Helvetica,sans-Serif" font-size="10.00">+</text>
<text text-anchor="start" x="98.5" y="-541.5" font-family="Helvetica,sans-Serif" font-size="10.00">end()</text>
<text text-anchor="start" x="88" y="-526.5" font-family="Helvetica,sans-Serif" font-size="10.00">&#45;</text>
<text text-anchor="start" x="98.5" y="-526.5" font-family="Helvetica,sans-Serif" font-size="10.00">clone()</text>
<text text-anchor="start" x="88" y="-511.5" font-family="Helvetica,sans-Serif" font-size="10.00">&#45;</text>
<text text-anchor="start" x="98.5" y="-511.5" font-family="Helvetica,sans-Serif" font-size="10.00">link()</text>
<text text-anchor="start" x="88" y="-496.5" font-family="Helvetica,sans-Serif" font-size="10.00">&#45;</text>
<text text-anchor="start" x="98.5" y="-496.5" font-family="Helvetica,sans-Serif" font-size="10.00">link()</text>
<text text-anchor="start" x="88" y="-481.5" font-family="Helvetica,sans-Serif" font-size="10.00">&#45;</text>
<text text-anchor="start" x="98.5" y="-481.5" font-family="Helvetica,sans-Serif" font-size="10.00">execute()</text>
<text text-anchor="start" x="88" y="-466.5" font-family="Helvetica,sans-Serif" font-size="10.00">&#45;</text>
<text text-anchor="start" x="98.5" y="-466.5" font-family="Helvetica,sans-Serif" font-size="10.00">define()</text>
<text text-anchor="start" x="88" y="-451.5" font-family="Helvetica,sans-Serif" font-size="10.00">&#45;</text>
<text text-anchor="start" x="98.5" y="-451.5" font-family="Helvetica,sans-Serif" font-size="10.00">size()</text>
<text text-anchor="start" x="88" y="-436.5" font-family="Helvetica,sans-Serif" font-size="10.00">&#45;</text>
<text text-anchor="start" x="98.5" y="-436.5" font-family="Helvetica,sans-Serif" font-size="10.00">get_devices()</text>
<text text-anchor="start" x="88" y="-421.5" font-family="Helvetica,sans-Serif" font-size="10.00">&#45;</text>
<text text-anchor="start" x="98.5" y="-421.5" font-family="Helvetica,sans-Serif" font-size="10.00">get_kfolds()</text>
<text text-anchor="start" x="88" y="-406.5" font-family="Helvetica,sans-Serif" font-size="10.00">&#45;</text>
<text text-anchor="start" x="98.5" y="-406.5" font-family="Helvetica,sans-Serif" font-size="10.00">set_name()</text>
<text text-anchor="start" x="88" y="-391.5" font-family="Helvetica,sans-Serif" font-size="10.00">&#45;</text>
<text text-anchor="start" x="98.5" y="-391.5" font-family="Helvetica,sans-Serif" font-size="10.00">get_name()</text>
<text text-anchor="start" x="88" y="-376.5" font-family="Helvetica,sans-Serif" font-size="10.00">&#45;</text>
<text text-anchor="start" x="98.5" y="-376.5" font-family="Helvetica,sans-Serif" font-size="10.00">set_run_name()</text>
<text text-anchor="start" x="88" y="-361.5" font-family="Helvetica,sans-Serif" font-size="10.00">&#45;</text>
<text text-anchor="start" x="98.5" y="-361.5" font-family="Helvetica,sans-Serif" font-size="10.00">get_run_name()</text>
<text text-anchor="start" x="88" y="-346.5" font-family="Helvetica,sans-Serif" font-size="10.00">&#45;</text>
<text text-anchor="start" x="98.5" y="-346.5" font-family="Helvetica,sans-Serif" font-size="10.00">set_variables()</text>
<text text-anchor="start" x="88" y="-331.5" font-family="Helvetica,sans-Serif" font-size="10.00">&#45;</text>
<text text-anchor="start" x="98.5" y="-331.5" font-family="Helvetica,sans-Serif" font-size="10.00">get_variables()</text>
<text text-anchor="start" x="88" y="-316.5" font-family="Helvetica,sans-Serif" font-size="10.00">&#45;</text>
<text text-anchor="start" x="98.5" y="-316.5" font-family="Helvetica,sans-Serif" font-size="10.00">construct()</text>
<polygon fill="#666666" stroke="#666666" points="81.5,-911.5 81.5,-911.5 199.5,-911.5 199.5,-911.5 81.5,-911.5"/>
<polygon fill="#666666" stroke="#666666" points="81.5,-686.5 81.5,-686.5 96.5,-686.5 96.5,-686.5 81.5,-686.5"/>
<polygon fill="#666666" stroke="#666666" points="96.5,-686.5 96.5,-686.5 199.5,-686.5 199.5,-686.5 96.5,-686.5"/>
<polygon fill="none" stroke="#666666" points="81.5,-310 81.5,-929 199.5,-929 199.5,-310 81.5,-310"/>
</a>
</g>
</g>
<!-- Node4 -->
<g id="Node000004" class="node">
<title>Node4</title>
<g id="a_Node000004"><a xlink:href="classaccuracy__metric.html" target="_top" xlink:title=" ">
<polygon fill="white" stroke="transparent" points="135,-274 0,-274 0,0 135,0 135,-274"/>
<text text-anchor="start" x="27.5" y="-262" font-family="Helvetica,sans-Serif" font-size="10.00">accuracy_metric</text>
<text text-anchor="start" x="7" y="-247" font-family="Helvetica,sans-Serif" font-size="10.00">&#45;</text>
<text text-anchor="start" x="17.5" y="-247" font-family="Helvetica,sans-Serif" font-size="10.00">mode</text>
<text text-anchor="start" x="7" y="-232" font-family="Helvetica,sans-Serif" font-size="10.00">&#45;</text>
<text text-anchor="start" x="17.5" y="-232" font-family="Helvetica,sans-Serif" font-size="10.00">idx</text>
<text text-anchor="start" x="7" y="-217" font-family="Helvetica,sans-Serif" font-size="10.00">&#45;</text>
<text text-anchor="start" x="17.5" y="-217" font-family="Helvetica,sans-Serif" font-size="10.00">edge_accuracy</text>
<text text-anchor="start" x="7" y="-202" font-family="Helvetica,sans-Serif" font-size="10.00">&#45;</text>
<text text-anchor="start" x="17.5" y="-202" font-family="Helvetica,sans-Serif" font-size="10.00">global_edge_accuracy</text>
<text text-anchor="start" x="7" y="-187" font-family="Helvetica,sans-Serif" font-size="10.00">&#45;</text>
<text text-anchor="start" x="17.5" y="-187" font-family="Helvetica,sans-Serif" font-size="10.00">ntop_truth</text>
<text text-anchor="start" x="7" y="-172" font-family="Helvetica,sans-Serif" font-size="10.00">&#45;</text>
<text text-anchor="start" x="17.5" y="-172" font-family="Helvetica,sans-Serif" font-size="10.00">ntop_scores</text>
<text text-anchor="start" x="7" y="-157" font-family="Helvetica,sans-Serif" font-size="10.00">&#45;</text>
<text text-anchor="start" x="17.5" y="-157" font-family="Helvetica,sans-Serif" font-size="10.00">ntops_accuracy</text>
<text text-anchor="start" x="7" y="-142" font-family="Helvetica,sans-Serif" font-size="10.00">&#45;</text>
<text text-anchor="start" x="17.5" y="-142" font-family="Helvetica,sans-Serif" font-size="10.00">_global_edge_accuracy</text>
<text text-anchor="start" x="7" y="-127" font-family="Helvetica,sans-Serif" font-size="10.00">&#45;</text>
<text text-anchor="start" x="17.5" y="-127" font-family="Helvetica,sans-Serif" font-size="10.00">ntop_accuracy</text>
<text text-anchor="start" x="4.5" y="-112" font-family="Helvetica,sans-Serif" font-size="10.00">+</text>
<text text-anchor="start" x="17.5" y="-112" font-family="Helvetica,sans-Serif" font-size="10.00">accuracy_metric()</text>
<text text-anchor="start" x="4.5" y="-97" font-family="Helvetica,sans-Serif" font-size="10.00">+</text>
<text text-anchor="start" x="17.5" y="-97" font-family="Helvetica,sans-Serif" font-size="10.00">~accuracy_metric()</text>
<text text-anchor="start" x="4.5" y="-82" font-family="Helvetica,sans-Serif" font-size="10.00">+</text>
<text text-anchor="start" x="17.5" y="-82" font-family="Helvetica,sans-Serif" font-size="10.00">clone()</text>
<text text-anchor="start" x="4.5" y="-67" font-family="Helvetica,sans-Serif" font-size="10.00">+</text>
<text text-anchor="start" x="17.5" y="-67" font-family="Helvetica,sans-Serif" font-size="10.00">define_metric()</text>
<text text-anchor="start" x="4.5" y="-52" font-family="Helvetica,sans-Serif" font-size="10.00">+</text>
<text text-anchor="start" x="17.5" y="-52" font-family="Helvetica,sans-Serif" font-size="10.00">define_variables()</text>
<text text-anchor="start" x="4.5" y="-37" font-family="Helvetica,sans-Serif" font-size="10.00">+</text>
<text text-anchor="start" x="17.5" y="-37" font-family="Helvetica,sans-Serif" font-size="10.00">event()</text>
<text text-anchor="start" x="4.5" y="-22" font-family="Helvetica,sans-Serif" font-size="10.00">+</text>
<text text-anchor="start" x="17.5" y="-22" font-family="Helvetica,sans-Serif" font-size="10.00">batch()</text>
<text text-anchor="start" x="4.5" y="-7" font-family="Helvetica,sans-Serif" font-size="10.00">+</text>
<text text-anchor="start" x="17.5" y="-7" font-family="Helvetica,sans-Serif" font-size="10.00">end()</text>
<polygon fill="#666666" stroke="#666666" points="0.5,-257 0.5,-257 135.5,-257 135.5,-257 0.5,-257"/>
<polygon fill="#666666" stroke="#666666" points="0.5,-122 0.5,-122 15.5,-122 15.5,-122 0.5,-122"/>
<polygon fill="#666666" stroke="#666666" points="15.5,-122 15.5,-122 135.5,-122 135.5,-122 15.5,-122"/>
<polygon fill="none" stroke="#666666" points="0,0 0,-274 135,-274 135,0 0,0"/>
</a>
</g>
</g>
<!-- Node1&#45;&gt;Node4 -->
<g id="edge3_Node000001_Node000004" class="edge">
<title>Node1&#45;&gt;Node4</title>
<g id="a_edge3_Node000001_Node000004"><a xlink:title=" ">
<path fill="none" stroke="#63b8ff" d="M92.08,-299.81C90.75,-291.04 89.44,-282.42 88.16,-274.02"/>
<polygon fill="none" stroke="#63b8ff" points="88.63,-300.41 93.6,-309.78 95.56,-299.36 88.63,-300.41"/>
</a>
</g>
</g>
<!-- Node5 -->
<g id="Node000005" class="node">
<title>Node5</title>
<g id="a_Node000005"><a xlink:href="classpagerank__metric.html" target="_top" xlink:title=" ">
<polygon fill="white" stroke="transparent" points="273.5,-221.5 153.5,-221.5 153.5,-52.5 273.5,-52.5 273.5,-221.5"/>
<text text-anchor="start" x="172" y="-209" font-family="Helvetica,sans-Serif" font-size="10.00">pagerank_metric</text>
<text text-anchor="start" x="160" y="-194" font-family="Helvetica,sans-Serif" font-size="10.00">&#45;</text>
<text text-anchor="start" x="170.5" y="-194" font-family="Helvetica,sans-Serif" font-size="10.00">mode</text>
<text text-anchor="start" x="157.5" y="-179" font-family="Helvetica,sans-Serif" font-size="10.00">+</text>
<text text-anchor="start" x="170.5" y="-179" font-family="Helvetica,sans-Serif" font-size="10.00">pagerank_metric()</text>
<text text-anchor="start" x="157.5" y="-164" font-family="Helvetica,sans-Serif" font-size="10.00">+</text>
<text text-anchor="start" x="170.5" y="-164" font-family="Helvetica,sans-Serif" font-size="10.00">~pagerank_metric()</text>
<text text-anchor="start" x="157.5" y="-149" font-family="Helvetica,sans-Serif" font-size="10.00">+</text>
<text text-anchor="start" x="170.5" y="-149" font-family="Helvetica,sans-Serif" font-size="10.00">clone()</text>
<text text-anchor="start" x="157.5" y="-134" font-family="Helvetica,sans-Serif" font-size="10.00">+</text>
<text text-anchor="start" x="170.5" y="-134" font-family="Helvetica,sans-Serif" font-size="10.00">define_metric()</text>
<text text-anchor="start" x="157.5" y="-119" font-family="Helvetica,sans-Serif" font-size="10.00">+</text>
<text text-anchor="start" x="170.5" y="-119" font-family="Helvetica,sans-Serif" font-size="10.00">define_variables()</text>
<text text-anchor="start" x="157.5" y="-104" font-family="Helvetica,sans-Serif" font-size="10.00">+</text>
<text text-anchor="start" x="170.5" y="-104" font-family="Helvetica,sans-Serif" font-size="10.00">event()</text>
<text text-anchor="start" x="157.5" y="-89" font-family="Helvetica,sans-Serif" font-size="10.00">+</text>
<text text-anchor="start" x="170.5" y="-89" font-family="Helvetica,sans-Serif" font-size="10.00">batch()</text>
<text text-anchor="start" x="157.5" y="-74" font-family="Helvetica,sans-Serif" font-size="10.00">+</text>
<text text-anchor="start" x="170.5" y="-74" font-family="Helvetica,sans-Serif" font-size="10.00">end()</text>
<text text-anchor="start" x="157.5" y="-59" font-family="Helvetica,sans-Serif" font-size="10.00">+</text>
<text text-anchor="start" x="170.5" y="-59" font-family="Helvetica,sans-Serif" font-size="10.00">pagerank()</text>
<polygon fill="#666666" stroke="#666666" points="153.5,-204 153.5,-204 273.5,-204 273.5,-204 153.5,-204"/>
<polygon fill="#666666" stroke="#666666" points="153.5,-189 153.5,-189 168.5,-189 168.5,-189 153.5,-189"/>
<polygon fill="#666666" stroke="#666666" points="168.5,-189 168.5,-189 273.5,-189 273.5,-189 168.5,-189"/>
<polygon fill="none" stroke="#666666" points="153.5,-52.5 153.5,-221.5 273.5,-221.5 273.5,-52.5 153.5,-52.5"/>
</a>
</g>
</g>
<!-- Node1&#45;&gt;Node5 -->
<g id="edge4_Node000001_Node000005" class="edge">
<title>Node1&#45;&gt;Node5</title>
<g id="a_edge4_Node000001_Node000005"><a xlink:title=" ">
<path fill="none" stroke="#63b8ff" d="M188.93,-299.73C193.21,-271.53 197.25,-244.94 200.77,-221.79"/>
<polygon fill="none" stroke="#63b8ff" points="185.44,-299.36 187.4,-309.78 192.37,-300.41 185.44,-299.36"/>
</a>
</g>
</g>
<!-- Node2 -->
<g id="Node000002" class="node">
<title>Node2</title>
<g id="a_Node000002"><a xlink:href="classtools.html" target="_top" xlink:title="Provides a wide range of utility functions used throughout the framework.">
<polygon fill="white" stroke="transparent" points="121.5,-1314 23.5,-1314 23.5,-965 121.5,-965 121.5,-1314"/>
<text text-anchor="start" x="60" y="-1301.5" font-family="Helvetica,sans-Serif" font-size="10.00">tools</text>
<text text-anchor="start" x="70.5" y="-1286.5" font-family="Helvetica,sans-Serif" font-size="10.00"> </text>
<text text-anchor="start" x="27.5" y="-1271.5" font-family="Helvetica,sans-Serif" font-size="10.00">+</text>
<text text-anchor="start" x="40.5" y="-1271.5" font-family="Helvetica,sans-Serif" font-size="10.00">tools()</text>
<text text-anchor="start" x="27.5" y="-1256.5" font-family="Helvetica,sans-Serif" font-size="10.00">+</text>
<text text-anchor="start" x="40.5" y="-1256.5" font-family="Helvetica,sans-Serif" font-size="10.00">~tools()</text>
<text text-anchor="start" x="27.5" y="-1241.5" font-family="Helvetica,sans-Serif" font-size="10.00">+</text>
<text text-anchor="start" x="40.5" y="-1241.5" font-family="Helvetica,sans-Serif" font-size="10.00">split()</text>
<text text-anchor="start" x="27.5" y="-1226.5" font-family="Helvetica,sans-Serif" font-size="10.00">+</text>
<text text-anchor="start" x="40.5" y="-1226.5" font-family="Helvetica,sans-Serif" font-size="10.00">trim()</text>
<text text-anchor="start" x="27.5" y="-1211.5" font-family="Helvetica,sans-Serif" font-size="10.00">+</text>
<text text-anchor="start" x="40.5" y="-1211.5" font-family="Helvetica,sans-Serif" font-size="10.00">type_name()</text>
<text text-anchor="start" x="27.5" y="-1196.5" font-family="Helvetica,sans-Serif" font-size="10.00">+</text>
<text text-anchor="start" x="40.5" y="-1196.5" font-family="Helvetica,sans-Serif" font-size="10.00">sum()</text>
<text text-anchor="start" x="27.5" y="-1181.5" font-family="Helvetica,sans-Serif" font-size="10.00">+</text>
<text text-anchor="start" x="40.5" y="-1181.5" font-family="Helvetica,sans-Serif" font-size="10.00">create_path()</text>
<text text-anchor="start" x="27.5" y="-1166.5" font-family="Helvetica,sans-Serif" font-size="10.00">+</text>
<text text-anchor="start" x="40.5" y="-1166.5" font-family="Helvetica,sans-Serif" font-size="10.00">delete_path()</text>
<text text-anchor="start" x="27.5" y="-1151.5" font-family="Helvetica,sans-Serif" font-size="10.00">+</text>
<text text-anchor="start" x="40.5" y="-1151.5" font-family="Helvetica,sans-Serif" font-size="10.00">is_file()</text>
<text text-anchor="start" x="27.5" y="-1136.5" font-family="Helvetica,sans-Serif" font-size="10.00">+</text>
<text text-anchor="start" x="40.5" y="-1136.5" font-family="Helvetica,sans-Serif" font-size="10.00">rename()</text>
<text text-anchor="start" x="27.5" y="-1121.5" font-family="Helvetica,sans-Serif" font-size="10.00">+</text>
<text text-anchor="start" x="40.5" y="-1121.5" font-family="Helvetica,sans-Serif" font-size="10.00">absolute_path()</text>
<text text-anchor="start" x="27.5" y="-1106.5" font-family="Helvetica,sans-Serif" font-size="10.00">+</text>
<text text-anchor="start" x="40.5" y="-1106.5" font-family="Helvetica,sans-Serif" font-size="10.00">ls()</text>
<text text-anchor="start" x="27.5" y="-1091.5" font-family="Helvetica,sans-Serif" font-size="10.00">+</text>
<text text-anchor="start" x="40.5" y="-1091.5" font-family="Helvetica,sans-Serif" font-size="10.00">to_string()</text>
<text text-anchor="start" x="27.5" y="-1076.5" font-family="Helvetica,sans-Serif" font-size="10.00">+</text>
<text text-anchor="start" x="40.5" y="-1076.5" font-family="Helvetica,sans-Serif" font-size="10.00">to_string()</text>
<text text-anchor="start" x="27.5" y="-1061.5" font-family="Helvetica,sans-Serif" font-size="10.00">+</text>
<text text-anchor="start" x="40.5" y="-1061.5" font-family="Helvetica,sans-Serif" font-size="10.00">replace()</text>
<text text-anchor="start" x="27.5" y="-1046.5" font-family="Helvetica,sans-Serif" font-size="10.00">+</text>
<text text-anchor="start" x="40.5" y="-1046.5" font-family="Helvetica,sans-Serif" font-size="10.00">has_string()</text>
<text text-anchor="start" x="27.5" y="-1031.5" font-family="Helvetica,sans-Serif" font-size="10.00">+</text>
<text text-anchor="start" x="40.5" y="-1031.5" font-family="Helvetica,sans-Serif" font-size="10.00">ends_with()</text>
<text text-anchor="start" x="27.5" y="-1016.5" font-family="Helvetica,sans-Serif" font-size="10.00">+</text>
<text text-anchor="start" x="40.5" y="-1016.5" font-family="Helvetica,sans-Serif" font-size="10.00">has_value()</text>
<text text-anchor="start" x="27.5" y="-1001.5" font-family="Helvetica,sans-Serif" font-size="10.00">+</text>
<text text-anchor="start" x="40.5" y="-1001.5" font-family="Helvetica,sans-Serif" font-size="10.00">flush()</text>
<text text-anchor="start" x="27.5" y="-986.5" font-family="Helvetica,sans-Serif" font-size="10.00">+</text>
<text text-anchor="start" x="40.5" y="-986.5" font-family="Helvetica,sans-Serif" font-size="10.00">put()</text>
<text text-anchor="start" x="27.5" y="-971.5" font-family="Helvetica,sans-Serif" font-size="10.00">+</text>
<text text-anchor="start" x="40.5" y="-971.5" font-family="Helvetica,sans-Serif" font-size="10.00">extract()</text>
<polygon fill="#666666" stroke="#666666" points="23.5,-1296.5 23.5,-1296.5 121.5,-1296.5 121.5,-1296.5 23.5,-1296.5"/>
<polygon fill="#666666" stroke="#666666" points="23.5,-1281.5 23.5,-1281.5 121.5,-1281.5 121.5,-1281.5 23.5,-1281.5"/>
<polygon fill="none" stroke="#666666" points="23.5,-965 23.5,-1314 121.5,-1314 121.5,-965 23.5,-965"/>
</a>
</g>
</g>
<!-- Node2&#45;&gt;Node1 -->
<g id="edge1_Node000001_Node000002" class="edge">
<title>Node2&#45;&gt;Node1</title>
<g id="a_edge1_Node000001_Node000002"><a xlink:title=" ">
<path fill="none" stroke="#63b8ff" d="M96.62,-954.8C97.71,-946.44 98.82,-937.97 99.95,-929.43"/>
<polygon fill="none" stroke="#63b8ff" points="93.12,-954.56 95.28,-964.93 100.06,-955.47 93.12,-954.56"/>
</a>
</g>
</g>
<!-- Node3 -->
<g id="Node000003" class="node">
<title>Node3</title>
<g id="a_Node000003"><a xlink:href="classnotification.html" target="_top" xlink:title="Provides logging and messaging functionality with various severity levels.">
<polygon fill="white" stroke="transparent" points="277.5,-1291.5 139.5,-1291.5 139.5,-987.5 277.5,-987.5 277.5,-1291.5"/>
<text text-anchor="start" x="181" y="-1279.5" font-family="Helvetica,sans-Serif" font-size="10.00">notification</text>
<text text-anchor="start" x="143.5" y="-1264.5" font-family="Helvetica,sans-Serif" font-size="10.00">#</text>
<text text-anchor="start" x="156.5" y="-1264.5" font-family="Helvetica,sans-Serif" font-size="10.00">prefix</text>
<text text-anchor="start" x="143.5" y="-1249.5" font-family="Helvetica,sans-Serif" font-size="10.00">#</text>
<text text-anchor="start" x="156.5" y="-1249.5" font-family="Helvetica,sans-Serif" font-size="10.00">debug_mode</text>
<text text-anchor="start" x="143.5" y="-1234.5" font-family="Helvetica,sans-Serif" font-size="10.00">#</text>
<text text-anchor="start" x="156.5" y="-1234.5" font-family="Helvetica,sans-Serif" font-size="10.00">suppress_warnings</text>
<text text-anchor="start" x="143.5" y="-1219.5" font-family="Helvetica,sans-Serif" font-size="10.00">#</text>
<text text-anchor="start" x="156.5" y="-1219.5" font-family="Helvetica,sans-Serif" font-size="10.00">suppress_info</text>
<text text-anchor="start" x="143.5" y="-1204.5" font-family="Helvetica,sans-Serif" font-size="10.00">+</text>
<text text-anchor="start" x="156.5" y="-1204.5" font-family="Helvetica,sans-Serif" font-size="10.00">notification()</text>
<text text-anchor="start" x="143.5" y="-1189.5" font-family="Helvetica,sans-Serif" font-size="10.00">+</text>
<text text-anchor="start" x="156.5" y="-1189.5" font-family="Helvetica,sans-Serif" font-size="10.00">~notification()</text>
<text text-anchor="start" x="143.5" y="-1174.5" font-family="Helvetica,sans-Serif" font-size="10.00">+</text>
<text text-anchor="start" x="156.5" y="-1174.5" font-family="Helvetica,sans-Serif" font-size="10.00">set_prefix()</text>
<text text-anchor="start" x="143.5" y="-1159.5" font-family="Helvetica,sans-Serif" font-size="10.00">+</text>
<text text-anchor="start" x="156.5" y="-1159.5" font-family="Helvetica,sans-Serif" font-size="10.00">get_prefix()</text>
<text text-anchor="start" x="143.5" y="-1144.5" font-family="Helvetica,sans-Serif" font-size="10.00">+</text>
<text text-anchor="start" x="156.5" y="-1144.5" font-family="Helvetica,sans-Serif" font-size="10.00">Info()</text>
<text text-anchor="start" x="143.5" y="-1129.5" font-family="Helvetica,sans-Serif" font-size="10.00">+</text>
<text text-anchor="start" x="156.5" y="-1129.5" font-family="Helvetica,sans-Serif" font-size="10.00">Warning()</text>
<text text-anchor="start" x="143.5" y="-1114.5" font-family="Helvetica,sans-Serif" font-size="10.00">+</text>
<text text-anchor="start" x="156.5" y="-1114.5" font-family="Helvetica,sans-Serif" font-size="10.00">Error()</text>
<text text-anchor="start" x="143.5" y="-1099.5" font-family="Helvetica,sans-Serif" font-size="10.00">+</text>
<text text-anchor="start" x="156.5" y="-1099.5" font-family="Helvetica,sans-Serif" font-size="10.00">Debug()</text>
<text text-anchor="start" x="143.5" y="-1084.5" font-family="Helvetica,sans-Serif" font-size="10.00">+</text>
<text text-anchor="start" x="156.5" y="-1084.5" font-family="Helvetica,sans-Serif" font-size="10.00">Message()</text>
<text text-anchor="start" x="143.5" y="-1069.5" font-family="Helvetica,sans-Serif" font-size="10.00">+</text>
<text text-anchor="start" x="156.5" y="-1069.5" font-family="Helvetica,sans-Serif" font-size="10.00">set_debug_mode()</text>
<text text-anchor="start" x="143.5" y="-1054.5" font-family="Helvetica,sans-Serif" font-size="10.00">+</text>
<text text-anchor="start" x="156.5" y="-1054.5" font-family="Helvetica,sans-Serif" font-size="10.00">get_debug_mode()</text>
<text text-anchor="start" x="143.5" y="-1039.5" font-family="Helvetica,sans-Serif" font-size="10.00">+</text>
<text text-anchor="start" x="156.5" y="-1039.5" font-family="Helvetica,sans-Serif" font-size="10.00">set_suppress_warning()</text>
<text text-anchor="start" x="143.5" y="-1024.5" font-family="Helvetica,sans-Serif" font-size="10.00">+</text>
<text text-anchor="start" x="156.5" y="-1024.5" font-family="Helvetica,sans-Serif" font-size="10.00">get_suppress_warning()</text>
<text text-anchor="start" x="143.5" y="-1009.5" font-family="Helvetica,sans-Serif" font-size="10.00">+</text>
<text text-anchor="start" x="156.5" y="-1009.5" font-family="Helvetica,sans-Serif" font-size="10.00">set_suppress_info()</text>
<text text-anchor="start" x="143.5" y="-994.5" font-family="Helvetica,sans-Serif" font-size="10.00">+</text>
<text text-anchor="start" x="156.5" y="-994.5" font-family="Helvetica,sans-Serif" font-size="10.00">get_suppress_info()</text>
<polygon fill="#666666" stroke="#666666" points="139.5,-1274.5 139.5,-1274.5 277.5,-1274.5 277.5,-1274.5 139.5,-1274.5"/>
<polygon fill="#666666" stroke="#666666" points="139.5,-1214.5 139.5,-1214.5 154.5,-1214.5 154.5,-1214.5 139.5,-1214.5"/>
<polygon fill="#666666" stroke="#666666" points="154.5,-1214.5 154.5,-1214.5 277.5,-1214.5 277.5,-1214.5 154.5,-1214.5"/>
<polygon fill="none" stroke="#666666" points="139.5,-987.5 139.5,-1291.5 277.5,-1291.5 277.5,-987.5 139.5,-987.5"/>
</a>
</g>
</g>
<!-- Node3&#45;&gt;Node1 -->
<g id="edge2_Node000001_Node000003" class="edge">
<title>Node3&#45;&gt;Node1</title>
<g id="a_edge2_Node000001_Node000003"><a xlink:title=" ">
<path fill="none" stroke="#63b8ff" d="M187.32,-977.13C185.27,-961.57 183.16,-945.45 181.01,-929.06"/>
<polygon fill="none" stroke="#63b8ff" points="183.88,-977.82 188.65,-987.28 190.82,-976.91 183.88,-977.82"/>
</a>
</g>
</g>
</g>
</svg>

<g id="navigator" transform="translate(0 0)" fill="#404254">
  <rect fill="#f2f5e9" fill-opacity="0.5" stroke="#606060" stroke-width=".5" x="0" y="0" width="60" height="60"/>
  <use id="zoomplus" xlink:href="#zoomPlus" x="17" y="9" onmousedown="handleZoom(evt,'in')"/>
  <use id="zoomminus" xlink:href="#zoomMin" x="42" y="9" onmousedown="handleZoom(evt,'out')"/>
  <use id="reset" xlink:href="#resetDef" x="30" y="36" onmousedown="handleReset()"/>
   <use id="arrowup" xlink:href="#arrowUp" x="0" y="0" onmousedown="handlePan(0,-1)"/>
  <use id="arrowright" xlink:href="#arrowRight" x="0" y="0" onmousedown="handlePan(1,0)"/>
  <use id="arrowdown" xlink:href="#arrowDown" x="0" y="0" onmousedown="handlePan(0,1)"/>
  <use id="arrowleft" xlink:href="#arrowLeft" x="0" y="0" onmousedown="handlePan(-1,0)"/>
</g>
<svg viewBox="0 0 15 15" width="100%" height="30px" preserveAspectRatio="xMaxYMin meet">
 <g id="arrow_out" transform="scale(0.3 0.3)">
  <a xlink:href="classmetric__template__inherit__graph_org.svg" target="_base">
   <rect id="button" ry="5" rx="5" y="6" x="6" height="38" width="38"
        fill="#f2f5e9" fill-opacity="0.5" stroke="#606060" stroke-width="1.0"/>
   <path id="arrow"
     d="M 11.500037,31.436501 C 11.940474,20.09759 22.043105,11.32322 32.158766,21.979434 L 37.068811,17.246167 C 37.068811,17.246167 37.088388,32 37.088388,32 L 22.160133,31.978069 C 22.160133,31.978069 26.997745,27.140456 26.997745,27.140456 C 18.528582,18.264221 13.291696,25.230495 11.500037,31.436501 z"
     style="fill:#404040;"/>
  </a>
 </g>
</svg>

<style type='text/css'>
<![CDATA[
[data-mouse-over-selected='false'] { opacity: 0.7; }
[data-mouse-over-selected='true']  { opacity: 1.0; }
]]>
</style>
<script type="application/ecmascript"><![CDATA[
document.addEventListener('DOMContentLoaded', (event) => {
  highlightEdges();
  highlightAdjacentNodes();
});
]]></script>
</svg>
