<?xml version="1.0" encoding="UTF-8" standalone="no"?>
<!DOCTYPE svg PUBLIC "-//W3C//DTD SVG 1.1//EN"
 "http://www.w3.org/Graphics/SVG/1.1/DTD/svg11.dtd">
<!-- Generated by graphviz version 2.43.0 (0)
 -->
<!-- Title: metrics::dump_plots Pages: 1 -->
<svg width="711pt" height="129pt"
 viewBox="0.00 0.00 711.00 129.00" xmlns="http://www.w3.org/2000/svg" xmlns:xlink="http://www.w3.org/1999/xlink">
<g id="graph0" class="graph" transform="scale(1 1) rotate(0) translate(4 125)">
<title>metrics::dump_plots</title>
<!-- Node1 -->
<g id="Node000001" class="node">
<title>Node1</title>
<g id="a_Node000001"><a xlink:title="Dumps all metric plots for a specific k&#45;fold.">
<polygon fill="#999999" stroke="#666666" points="116,-67.5 0,-67.5 0,-48.5 116,-48.5 116,-67.5"/>
<text text-anchor="middle" x="58" y="-55.5" font-family="Helvetica,sans-Serif" font-size="10.00">metrics::dump_plots</text>
</a>
</g>
</g>
<!-- Node2 -->
<g id="Node000002" class="node">
<title>Node2</title>
<g id="a_Node000002"><a xlink:href="classmetrics.html#a2ed5da3a9b6c0e0e9b711afafaeed7ab" target="_top" xlink:title=" ">
<polygon fill="white" stroke="#666666" points="288,-73 152,-73 152,-43 288,-43 288,-73"/>
<text text-anchor="start" x="160" y="-61" font-family="Helvetica,sans-Serif" font-size="10.00">metrics::dump_accuracy</text>
<text text-anchor="middle" x="220" y="-50" font-family="Helvetica,sans-Serif" font-size="10.00">_plots</text>
</a>
</g>
</g>
<!-- Node1&#45;&gt;Node2 -->
<g id="edge1_Node000001_Node000002" class="edge">
<title>Node1&#45;&gt;Node2</title>
<g id="a_edge1_Node000001_Node000002"><a xlink:title=" ">
<path fill="none" stroke="#63b8ff" d="M116.31,-58C124.56,-58 133.16,-58 141.72,-58"/>
<polygon fill="#63b8ff" stroke="#63b8ff" points="141.73,-61.5 151.73,-58 141.73,-54.5 141.73,-61.5"/>
</a>
</g>
</g>
<!-- Node8 -->
<g id="Node000008" class="node">
<title>Node8</title>
<g id="a_Node000008"><a xlink:href="classmetrics.html#a85ac60407efe672dd1ba1c067a06afb2" target="_top" xlink:title=" ">
<polygon fill="white" stroke="#666666" points="276,-121 164,-121 164,-91 276,-91 276,-121"/>
<text text-anchor="start" x="172" y="-109" font-family="Helvetica,sans-Serif" font-size="10.00">metrics::dump_loss</text>
<text text-anchor="middle" x="220" y="-98" font-family="Helvetica,sans-Serif" font-size="10.00">_plots</text>
</a>
</g>
</g>
<!-- Node1&#45;&gt;Node8 -->
<g id="edge7_Node000001_Node000008" class="edge">
<title>Node1&#45;&gt;Node8</title>
<g id="a_edge7_Node000001_Node000008"><a xlink:title=" ">
<path fill="none" stroke="#63b8ff" d="M90.99,-67.6C110.46,-73.44 135.95,-81.09 159.06,-88.02"/>
<polygon fill="#63b8ff" stroke="#63b8ff" points="158.21,-91.42 168.79,-90.94 160.22,-84.71 158.21,-91.42"/>
</a>
</g>
</g>
<!-- Node9 -->
<g id="Node000009" class="node">
<title>Node9</title>
<g id="a_Node000009"><a xlink:href="classmetrics.html#a60ff488f6951bae8d98bc7a03bc6e464" target="_top" xlink:title="Dumps mass plots for a given k&#45;fold.">
<polygon fill="white" stroke="#666666" points="451,-30 332,-30 332,0 451,0 451,-30"/>
<text text-anchor="start" x="340" y="-18" font-family="Helvetica,sans-Serif" font-size="10.00">metrics::dump_mass</text>
<text text-anchor="middle" x="391.5" y="-7" font-family="Helvetica,sans-Serif" font-size="10.00">_plots</text>
</a>
</g>
</g>
<!-- Node1&#45;&gt;Node9 -->
<g id="edge10_Node000001_Node000009" class="edge">
<title>Node1&#45;&gt;Node9</title>
<g id="a_edge10_Node000001_Node000009"><a xlink:title=" ">
<path fill="none" stroke="#63b8ff" d="M90.56,-48.4C108.43,-43.34 131.28,-37.47 152,-34 208.68,-24.5 273.75,-19.72 321.59,-17.33"/>
<polygon fill="#63b8ff" stroke="#63b8ff" points="322.01,-20.82 331.83,-16.84 321.68,-13.82 322.01,-20.82"/>
</a>
</g>
</g>
<!-- Node3 -->
<g id="Node000003" class="node">
<title>Node3</title>
<g id="a_Node000003"><a xlink:href="classmetrics.html#a7162cd61c9bc558f153702b080607b9e" target="_top" xlink:title=" ">
<polygon fill="white" stroke="#666666" points="452.5,-67.5 330.5,-67.5 330.5,-48.5 452.5,-48.5 452.5,-67.5"/>
<text text-anchor="middle" x="391.5" y="-55.5" font-family="Helvetica,sans-Serif" font-size="10.00">metrics::build_graphs</text>
</a>
</g>
</g>
<!-- Node2&#45;&gt;Node3 -->
<g id="edge2_Node000002_Node000003" class="edge">
<title>Node2&#45;&gt;Node3</title>
<g id="a_edge2_Node000002_Node000003"><a xlink:title=" ">
<path fill="none" stroke="#63b8ff" d="M288.48,-58C298.86,-58 309.61,-58 320.06,-58"/>
<polygon fill="#63b8ff" stroke="#63b8ff" points="320.38,-61.5 330.38,-58 320.38,-54.5 320.38,-61.5"/>
</a>
</g>
</g>
<!-- Node4 -->
<g id="Node000004" class="node">
<title>Node4</title>
<g id="a_Node000004"><a xlink:href="classmetrics.html#a160fdefa51ba1fd2135307d3722acc1d" target="_top" xlink:title=" ">
<polygon fill="white" stroke="#666666" points="459,-104.5 324,-104.5 324,-85.5 459,-85.5 459,-104.5"/>
<text text-anchor="middle" x="391.5" y="-92.5" font-family="Helvetica,sans-Serif" font-size="10.00">metrics::generic_painter</text>
</a>
</g>
</g>
<!-- Node2&#45;&gt;Node4 -->
<g id="edge3_Node000002_Node000004" class="edge">
<title>Node2&#45;&gt;Node4</title>
<g id="a_edge3_Node000002_Node000004"><a xlink:title=" ">
<path fill="none" stroke="#63b8ff" d="M288.48,-72.73C304.61,-76.25 321.61,-79.96 337.01,-83.32"/>
<polygon fill="#63b8ff" stroke="#63b8ff" points="336.36,-86.76 346.88,-85.48 337.85,-79.93 336.36,-86.76"/>
</a>
</g>
</g>
<!-- Node5 -->
<g id="Node000005" class="node">
<title>Node5</title>
<g id="a_Node000005"><a xlink:href="classtools.html#aed9f3247b474a8fb1840860d51cde7ca" target="_top" xlink:title="Creates a directory path, including parent directories if needed.">
<polygon fill="white" stroke="#666666" points="599,-46.5 495,-46.5 495,-27.5 599,-27.5 599,-46.5"/>
<text text-anchor="middle" x="547" y="-34.5" font-family="Helvetica,sans-Serif" font-size="10.00">tools::create_path</text>
</a>
</g>
</g>
<!-- Node4&#45;&gt;Node5 -->
<g id="edge4_Node000004_Node000005" class="edge">
<title>Node4&#45;&gt;Node5</title>
<g id="a_edge4_Node000004_Node000005"><a xlink:title=" ">
<path fill="none" stroke="#63b8ff" d="M432.22,-85.41C441.12,-82.94 450.45,-80.1 459,-77 479.25,-69.66 501.29,-59.5 518.12,-51.26"/>
<polygon fill="#63b8ff" stroke="#63b8ff" points="519.97,-54.25 527.37,-46.67 516.86,-47.98 519.97,-54.25"/>
</a>
</g>
</g>
<!-- Node7 -->
<g id="Node000007" class="node">
<title>Node7</title>
<g id="a_Node000007"><a xlink:href="classtools.html#ad7229c72cee65da3605c4be82f9b42d4" target="_top" xlink:title="Checks if a string contains a specific substring.">
<polygon fill="white" stroke="#666666" points="595.5,-104.5 498.5,-104.5 498.5,-85.5 595.5,-85.5 595.5,-104.5"/>
<text text-anchor="middle" x="547" y="-92.5" font-family="Helvetica,sans-Serif" font-size="10.00">tools::has_string</text>
</a>
</g>
</g>
<!-- Node4&#45;&gt;Node7 -->
<g id="edge6_Node000004_Node000007" class="edge">
<title>Node4&#45;&gt;Node7</title>
<g id="a_edge6_Node000004_Node000007"><a xlink:title=" ">
<path fill="none" stroke="#63b8ff" d="M459.38,-95C468.99,-95 478.81,-95 488.23,-95"/>
<polygon fill="#63b8ff" stroke="#63b8ff" points="488.26,-98.5 498.26,-95 488.26,-91.5 488.26,-98.5"/>
</a>
</g>
</g>
<!-- Node6 -->
<g id="Node000006" class="node">
<title>Node6</title>
<g id="a_Node000006"><a xlink:href="classtools.html#a352a6965f2f3c768f0f4ecd1f978fcc0" target="_top" xlink:title="Splits a string into a vector of substrings based on a delimiter.">
<polygon fill="white" stroke="#666666" points="703,-46.5 635,-46.5 635,-27.5 703,-27.5 703,-46.5"/>
<text text-anchor="middle" x="669" y="-34.5" font-family="Helvetica,sans-Serif" font-size="10.00">tools::split</text>
</a>
</g>
</g>
<!-- Node5&#45;&gt;Node6 -->
<g id="edge5_Node000005_Node000006" class="edge">
<title>Node5&#45;&gt;Node6</title>
<g id="a_edge5_Node000005_Node000006"><a xlink:title=" ">
<path fill="none" stroke="#63b8ff" d="M599.24,-37C607.75,-37 616.5,-37 624.79,-37"/>
<polygon fill="#63b8ff" stroke="#63b8ff" points="624.98,-40.5 634.98,-37 624.98,-33.5 624.98,-40.5"/>
</a>
</g>
</g>
<!-- Node8&#45;&gt;Node3 -->
<g id="edge8_Node000008_Node000003" class="edge">
<title>Node8&#45;&gt;Node3</title>
<g id="a_edge8_Node000008_Node000003"><a xlink:title=" ">
<path fill="none" stroke="#63b8ff" d="M274.17,-90.94C297.57,-84.32 324.73,-76.63 346.91,-70.34"/>
<polygon fill="#63b8ff" stroke="#63b8ff" points="348.06,-73.66 356.73,-67.56 346.15,-66.92 348.06,-73.66"/>
</a>
</g>
</g>
<!-- Node8&#45;&gt;Node4 -->
<g id="edge9_Node000008_Node000004" class="edge">
<title>Node8&#45;&gt;Node4</title>
<g id="a_edge9_Node000008_Node000004"><a xlink:title=" ">
<path fill="none" stroke="#63b8ff" d="M276.03,-102.43C288.08,-101.65 301.05,-100.8 313.78,-99.98"/>
<polygon fill="#63b8ff" stroke="#63b8ff" points="314.16,-103.46 323.91,-99.32 313.7,-96.48 314.16,-103.46"/>
</a>
</g>
</g>
<!-- Node9&#45;&gt;Node5 -->
<g id="edge11_Node000009_Node000005" class="edge">
<title>Node9&#45;&gt;Node5</title>
<g id="a_edge11_Node000009_Node000005"><a xlink:title=" ">
<path fill="none" stroke="#63b8ff" d="M451.41,-23.44C462.28,-25 473.66,-26.63 484.61,-28.2"/>
<polygon fill="#63b8ff" stroke="#63b8ff" points="484.12,-31.67 494.51,-29.62 485.11,-24.74 484.12,-31.67"/>
</a>
</g>
</g>
</g>
</svg>
