<?xml version="1.0" encoding="UTF-8" standalone="no"?>
<!DOCTYPE svg PUBLIC "-//W3C//DTD SVG 1.1//EN"
 "http://www.w3.org/Graphics/SVG/1.1/DTD/svg11.dtd">
<!-- Generated by graphviz version 2.43.0 (0)
 -->
<!-- Title: particle_template::apply_type_prefix Pages: 1 -->
<!--zoomable 767 -->

<svg id="main" version="1.1" xmlns="http://www.w3.org/2000/svg" xmlns:xlink="http://www.w3.org/1999/xlink" xml:space="preserve" onload="init(evt)">
<style type="text/css"><![CDATA[
.node, .edge {opacity: 0.7;}
.node.selected, .edge.selected {opacity: 1;}
.edge:hover path { stroke: red; }
.edge:hover polygon { stroke: red; fill: red; }
]]></style>

<defs>
  <circle id="rim" cx="0" cy="0" r="7"/>
  <circle id="rim2" cx="0" cy="0" r="3.5"/>
  <g id="zoomPlus">
    <use xlink:href="#rim" fill="#404040"><set attributeName="fill" to="#808080" begin="zoomplus.mouseover" end="zoomplus.mouseout"/></use>
    <path d="M-4,0h8M0,-4v8" fill="none" stroke="white" stroke-width="1.5" pointer-events="none"/>
  </g>
  <g id="zoomMin">
    <use xlink:href="#rim" fill="#404040"><set attributeName="fill" to="#808080" begin="zoomminus.mouseover" end="zoomminus.mouseout"/></use>
    <path d="M-4,0h8" fill="none" stroke="white" stroke-width="1.5" pointer-events="none"/>
  </g>
  <g id="arrowUp" transform="translate(30 24)">
    <use xlink:href="#rim"/>
    <path pointer-events="none" fill="none" stroke="white" stroke-width="1.5" d="M0,-3.0v7 M-2.5,-0.5L0,-3.0L2.5,-0.5"/>
  </g>
  <g id="arrowRight" transform="rotate(90) translate(36 -43)">
    <use xlink:href="#rim"/>
    <path pointer-events="none" fill="none" stroke="white" stroke-width="1.5" d="M0,-3.0v7 M-2.5,-0.5L0,-3.0L2.5,-0.5"/>
  </g>
  <g id="arrowDown" transform="rotate(180) translate(-30 -48)">
    <use xlink:href="#rim"/>
    <path pointer-events="none" fill="none" stroke="white" stroke-width="1.5" d="M0,-3.0v7 M-2.5,-0.5L0,-3.0L2.5,-0.5"/>
  </g>
  <g id="arrowLeft" transform="rotate(270) translate(-36 17)">
    <use xlink:href="#rim"/>
    <path pointer-events="none" fill="none" stroke="white" stroke-width="1.5" d="M0,-3.0v7 M-2.5,-0.5L0,-3.0L2.5,-0.5"/>
  </g>
  <g id="resetDef">
    <use xlink:href="#rim2" fill="#404040"><set attributeName="fill" to="#808080" begin="reset.mouseover" end="reset.mouseout"/></use>
  </g>
</defs>
<script type="application/ecmascript">
var viewWidth = 478;
var viewHeight = 767;
var sectionId = 'dynsection-7';
</script>
<script type="application/ecmascript" xlink:href="svg.min.js"/>
<svg id="graph" class="graph">
<g id="viewport">
<title>particle_template::apply_type_prefix</title>
<!-- Node1 -->
<g id="Node000001" class="node">
<title>Node1</title>
<g id="a_Node000001"><a xlink:title="Applies the particle type as a prefix to leaf names.">
<polygon fill="#999999" stroke="#666666" points="470,-374.5 361,-374.5 361,-344.5 470,-344.5 470,-374.5"/>
<text text-anchor="start" x="369" y="-362.5" font-family="Helvetica,sans-Serif" font-size="10.00">particle_template::</text>
<text text-anchor="middle" x="415.5" y="-351.5" font-family="Helvetica,sans-Serif" font-size="10.00">apply_type_prefix</text>
</a>
</g>
</g>
<!-- Node2 -->
<g id="Node000002" class="node">
<title>Node2</title>
<g id="a_Node000002"><a xlink:href="classchild.html#a7d91433c5248187a730e33ec879b997c" target="_top" xlink:title=" ">
<polygon fill="white" stroke="#666666" points="280.5,-740 211.5,-740 211.5,-721 280.5,-721 280.5,-740"/>
<text text-anchor="middle" x="246" y="-728" font-family="Helvetica,sans-Serif" font-size="10.00">child::child</text>
</a>
</g>
</g>
<!-- Node1&#45;&gt;Node2 -->
<g id="edge1_Node000001_Node000002" class="edge">
<title>Node1&#45;&gt;Node2</title>
<g id="a_edge1_Node000001_Node000002"><a xlink:title=" ">
<path fill="none" stroke="#63b8ff" d="M414.7,-384.72C413.85,-445.34 403.65,-601.07 325,-694.5 313.67,-707.96 296.21,-716.66 280.68,-722.13"/>
<polygon fill="#63b8ff" stroke="#63b8ff" points="418.2,-384.57 414.76,-374.55 411.2,-384.53 418.2,-384.57"/>
</a>
</g>
</g>
<!-- Node4 -->
<g id="Node000004" class="node">
<title>Node4</title>
<g id="a_Node000004"><a xlink:href="classelectron.html#a61817d58c8dc313f400622d54007a27b" target="_top" xlink:title=" ">
<polygon fill="white" stroke="#666666" points="297,-685 195,-685 195,-666 297,-666 297,-685"/>
<text text-anchor="middle" x="246" y="-673" font-family="Helvetica,sans-Serif" font-size="10.00">electron::electron</text>
</a>
</g>
</g>
<!-- Node1&#45;&gt;Node4 -->
<g id="edge3_Node000001_Node000004" class="edge">
<title>Node1&#45;&gt;Node4</title>
<g id="a_edge3_Node000001_Node000004"><a xlink:title=" ">
<path fill="none" stroke="#63b8ff" d="M411.14,-384.7C403.48,-434.25 380.85,-546.04 325,-620.5 309.69,-640.91 284.57,-656.67 266.99,-665.99"/>
<polygon fill="#63b8ff" stroke="#63b8ff" points="414.64,-384.97 412.63,-374.56 407.71,-383.95 414.64,-384.97"/>
</a>
</g>
</g>
<!-- Node7 -->
<g id="Node000007" class="node">
<title>Node7</title>
<g id="a_Node000007"><a xlink:href="classjet.html#ae5a7844bf8bad33084fc7514e0567c2d" target="_top" xlink:title=" ">
<polygon fill="white" stroke="#666666" points="270,-611 222,-611 222,-592 270,-592 270,-611"/>
<text text-anchor="middle" x="246" y="-599" font-family="Helvetica,sans-Serif" font-size="10.00">jet::jet</text>
</a>
</g>
</g>
<!-- Node1&#45;&gt;Node7 -->
<g id="edge6_Node000001_Node000007" class="edge">
<title>Node1&#45;&gt;Node7</title>
<g id="a_edge6_Node000001_Node000007"><a xlink:title=" ">
<path fill="none" stroke="#63b8ff" d="M407.15,-384.29C394.92,-422.4 367.46,-496.24 325,-546.5 308.32,-566.24 283,-582.35 265.77,-591.92"/>
<polygon fill="#63b8ff" stroke="#63b8ff" points="410.56,-385.13 410.19,-374.54 403.87,-383.04 410.56,-385.13"/>
</a>
</g>
</g>
<!-- Node10 -->
<g id="Node000010" class="node">
<title>Node10</title>
<g id="a_Node000010"><a xlink:href="classjetparton.html#a0de4e3a5886a52264c9109b8c9742096" target="_top" xlink:title=" ">
<polygon fill="white" stroke="#666666" points="301.5,-537 190.5,-537 190.5,-518 301.5,-518 301.5,-537"/>
<text text-anchor="middle" x="246" y="-525" font-family="Helvetica,sans-Serif" font-size="10.00">jetparton::jetparton</text>
</a>
</g>
</g>
<!-- Node1&#45;&gt;Node10 -->
<g id="edge9_Node000001_Node000010" class="edge">
<title>Node1&#45;&gt;Node10</title>
<g id="a_edge9_Node000001_Node000010"><a xlink:title=" ">
<path fill="none" stroke="#63b8ff" d="M398.88,-383.03C382.26,-407.08 354.34,-444.75 325,-472.5 305.62,-490.83 279.76,-507.86 263.24,-517.97"/>
<polygon fill="#63b8ff" stroke="#63b8ff" points="401.94,-384.76 404.68,-374.52 396.16,-380.81 401.94,-384.76"/>
</a>
</g>
</g>
<!-- Node13 -->
<g id="Node000013" class="node">
<title>Node13</title>
<g id="a_Node000013"><a xlink:href="classlepton.html#a432429482b4dbc69834cb8730dc264b8" target="_top" xlink:title=" ">
<polygon fill="white" stroke="#666666" points="288,-463 204,-463 204,-444 288,-444 288,-463"/>
<text text-anchor="middle" x="246" y="-451" font-family="Helvetica,sans-Serif" font-size="10.00">lepton::lepton</text>
</a>
</g>
</g>
<!-- Node1&#45;&gt;Node13 -->
<g id="edge12_Node000001_Node000013" class="edge">
<title>Node1&#45;&gt;Node13</title>
<g id="a_edge12_Node000001_Node000013"><a xlink:title=" ">
<path fill="none" stroke="#63b8ff" d="M386.94,-380.92C369.73,-393.69 346.78,-409.67 325,-421.5 308.79,-430.3 289.65,-438.19 274.38,-443.93"/>
<polygon fill="#63b8ff" stroke="#63b8ff" points="389.49,-383.38 395.38,-374.57 385.28,-377.78 389.49,-383.38"/>
</a>
</g>
</g>
<!-- Node16 -->
<g id="Node000016" class="node">
<title>Node16</title>
<g id="a_Node000016"><a xlink:href="classmuon.html#a9f92f79043e704ba0cd51f8491a51af5" target="_top" xlink:title=" ">
<polygon fill="white" stroke="#666666" points="285,-412 207,-412 207,-393 285,-393 285,-412"/>
<text text-anchor="middle" x="246" y="-400" font-family="Helvetica,sans-Serif" font-size="10.00">muon::muon</text>
</a>
</g>
</g>
<!-- Node1&#45;&gt;Node16 -->
<g id="edge15_Node000001_Node000016" class="edge">
<title>Node1&#45;&gt;Node16</title>
<g id="a_edge15_Node000001_Node000016"><a xlink:title=" ">
<path fill="none" stroke="#63b8ff" d="M350.87,-376.76C342.19,-379.05 333.38,-381.36 325,-383.5 312.04,-386.82 297.83,-390.32 285.13,-393.4"/>
<polygon fill="#63b8ff" stroke="#63b8ff" points="351.83,-380.12 360.6,-374.17 350.04,-373.36 351.83,-380.12"/>
</a>
</g>
</g>
<!-- Node19 -->
<g id="Node000019" class="node">
<title>Node19</title>
<g id="a_Node000019"><a xlink:href="classphysics__detector.html#abf291bec188f0293856db68c1599e0db" target="_top" xlink:title=" ">
<polygon fill="white" stroke="#666666" points="317,-374.5 175,-374.5 175,-344.5 317,-344.5 317,-374.5"/>
<text text-anchor="start" x="183" y="-362.5" font-family="Helvetica,sans-Serif" font-size="10.00">physics_detector::physics</text>
<text text-anchor="middle" x="246" y="-351.5" font-family="Helvetica,sans-Serif" font-size="10.00">_detector</text>
</a>
</g>
</g>
<!-- Node1&#45;&gt;Node19 -->
<g id="edge18_Node000001_Node000019" class="edge">
<title>Node1&#45;&gt;Node19</title>
<g id="a_edge18_Node000001_Node000019"><a xlink:title=" ">
<path fill="none" stroke="#63b8ff" d="M350.31,-359.5C339.42,-359.5 328.07,-359.5 317.04,-359.5"/>
<polygon fill="#63b8ff" stroke="#63b8ff" points="350.58,-363 360.58,-359.5 350.58,-356 350.58,-363"/>
</a>
</g>
</g>
<!-- Node21 -->
<g id="Node000021" class="node">
<title>Node21</title>
<g id="a_Node000021"><a xlink:href="classphysics__truth.html#a644957f8003f51633717ab88013152ca" target="_top" xlink:title=" ">
<polygon fill="white" stroke="#666666" points="308.5,-326.5 183.5,-326.5 183.5,-296.5 308.5,-296.5 308.5,-326.5"/>
<text text-anchor="start" x="191.5" y="-314.5" font-family="Helvetica,sans-Serif" font-size="10.00">physics_truth::physics</text>
<text text-anchor="middle" x="246" y="-303.5" font-family="Helvetica,sans-Serif" font-size="10.00">_truth</text>
</a>
</g>
</g>
<!-- Node1&#45;&gt;Node21 -->
<g id="edge20_Node000001_Node000021" class="edge">
<title>Node1&#45;&gt;Node21</title>
<g id="a_edge20_Node000001_Node000021"><a xlink:title=" ">
<path fill="none" stroke="#63b8ff" d="M351.94,-341.57C334.63,-336.61 316.02,-331.28 299.35,-326.5"/>
<polygon fill="#63b8ff" stroke="#63b8ff" points="351.38,-345.05 361.96,-344.44 353.31,-338.32 351.38,-345.05"/>
</a>
</g>
</g>
<!-- Node23 -->
<g id="Node000023" class="node">
<title>Node23</title>
<g id="a_Node000023"><a xlink:href="classtop.html#a5c0780d4da9239cc8bd82ec6690ed4a7" target="_top" xlink:title=" ">
<polygon fill="white" stroke="#666666" points="273,-278 219,-278 219,-259 273,-259 273,-278"/>
<text text-anchor="middle" x="246" y="-266" font-family="Helvetica,sans-Serif" font-size="10.00">top::top</text>
</a>
</g>
</g>
<!-- Node1&#45;&gt;Node23 -->
<g id="edge22_Node000001_Node000023" class="edge">
<title>Node1&#45;&gt;Node23</title>
<g id="a_edge22_Node000001_Node000023"><a xlink:title=" ">
<path fill="none" stroke="#63b8ff" d="M392.87,-337.49C375.84,-321.38 350.75,-300.2 325,-287.5 308.75,-279.49 288.89,-274.71 273.28,-271.95"/>
<polygon fill="#63b8ff" stroke="#63b8ff" points="390.48,-340.05 400.1,-344.49 395.35,-335.02 390.48,-340.05"/>
</a>
</g>
</g>
<!-- Node25 -->
<g id="Node000025" class="node">
<title>Node25</title>
<g id="a_Node000025"><a xlink:href="classtop__children.html#a0479039c51f146cc0886e1dec06c48d7" target="_top" xlink:title=" ">
<polygon fill="white" stroke="#666666" points="317.5,-241 174.5,-241 174.5,-222 317.5,-222 317.5,-241"/>
<text text-anchor="middle" x="246" y="-229" font-family="Helvetica,sans-Serif" font-size="10.00">top_children::top_children</text>
</a>
</g>
</g>
<!-- Node1&#45;&gt;Node25 -->
<g id="edge24_Node000001_Node000025" class="edge">
<title>Node1&#45;&gt;Node25</title>
<g id="a_edge24_Node000001_Node000025"><a xlink:title=" ">
<path fill="none" stroke="#63b8ff" d="M401.07,-335.28C385.89,-310.19 358.82,-271.76 325,-250.5 318.86,-246.64 312,-243.57 304.96,-241.12"/>
<polygon fill="#63b8ff" stroke="#63b8ff" points="398.21,-337.32 406.3,-344.17 404.25,-333.78 398.21,-337.32"/>
</a>
</g>
</g>
<!-- Node28 -->
<g id="Node000028" class="node">
<title>Node28</title>
<g id="a_Node000028"><a xlink:href="classtruthjet.html#ad7c0e9521876a9e5d3a74dfbcd47fdee" target="_top" xlink:title=" ">
<polygon fill="white" stroke="#666666" points="293.5,-186 198.5,-186 198.5,-167 293.5,-167 293.5,-186"/>
<text text-anchor="middle" x="246" y="-174" font-family="Helvetica,sans-Serif" font-size="10.00">truthjet::truthjet</text>
</a>
</g>
</g>
<!-- Node1&#45;&gt;Node28 -->
<g id="edge27_Node000001_Node000028" class="edge">
<title>Node1&#45;&gt;Node28</title>
<g id="a_edge27_Node000001_Node000028"><a xlink:title=" ">
<path fill="none" stroke="#63b8ff" d="M404.72,-334.88C391.05,-303.19 363.52,-248.1 325,-213.5 311.29,-201.18 292.74,-192.16 277.18,-186.11"/>
<polygon fill="#63b8ff" stroke="#63b8ff" points="401.57,-336.42 408.66,-344.29 408.02,-333.72 401.57,-336.42"/>
</a>
</g>
</g>
<!-- Node30 -->
<g id="Node000030" class="node">
<title>Node30</title>
<g id="a_Node000030"><a xlink:href="classtruthjetparton.html#a061ccc0c856beb5165f0018ce652a591" target="_top" xlink:title=" ">
<polygon fill="white" stroke="#666666" points="325,-130 167,-130 167,-111 325,-111 325,-130"/>
<text text-anchor="middle" x="246" y="-118" font-family="Helvetica,sans-Serif" font-size="10.00">truthjetparton::truthjetparton</text>
</a>
</g>
</g>
<!-- Node1&#45;&gt;Node30 -->
<g id="edge29_Node000001_Node000030" class="edge">
<title>Node1&#45;&gt;Node30</title>
<g id="a_edge29_Node000001_Node000030"><a xlink:title=" ">
<path fill="none" stroke="#63b8ff" d="M409.28,-334.59C399.44,-293.21 374.57,-209.8 325,-158.5 312.34,-145.39 294.22,-136.19 278.63,-130.12"/>
<polygon fill="#63b8ff" stroke="#63b8ff" points="405.87,-335.42 411.51,-344.39 412.7,-333.86 405.87,-335.42"/>
</a>
</g>
</g>
<!-- Node33 -->
<g id="Node000033" class="node">
<title>Node33</title>
<g id="a_Node000033"><a xlink:href="classzboson.html#a77028e2003cfc7ac4e29b12167ce925e" target="_top" xlink:title=" ">
<polygon fill="white" stroke="#666666" points="292,-56 200,-56 200,-37 292,-37 292,-56"/>
<text text-anchor="middle" x="246" y="-44" font-family="Helvetica,sans-Serif" font-size="10.00">zboson::zboson</text>
</a>
</g>
</g>
<!-- Node1&#45;&gt;Node33 -->
<g id="edge32_Node000001_Node000033" class="edge">
<title>Node1&#45;&gt;Node33</title>
<g id="a_edge32_Node000001_Node000033"><a xlink:title=" ">
<path fill="none" stroke="#63b8ff" d="M410.93,-334.38C402.93,-285.48 379.81,-175.87 325,-102.5 309.54,-81.8 284.2,-65.64 266.62,-56.11"/>
<polygon fill="#63b8ff" stroke="#63b8ff" points="407.49,-335.05 412.49,-344.39 414.41,-333.97 407.49,-335.05"/>
</a>
</g>
</g>
<!-- Node3 -->
<g id="Node000003" class="node">
<title>Node3</title>
<g id="a_Node000003"><a xlink:href="classchild.html#a72457141be1eb5cf307481e57ad9c123" target="_top" xlink:title="Creates a clone of this particle.">
<polygon fill="white" stroke="#666666" points="101.5,-759 29.5,-759 29.5,-740 101.5,-740 101.5,-759"/>
<text text-anchor="middle" x="65.5" y="-747" font-family="Helvetica,sans-Serif" font-size="10.00">child::clone</text>
</a>
</g>
</g>
<!-- Node2&#45;&gt;Node3 -->
<g id="edge2_Node000002_Node000003" class="edge">
<title>Node2&#45;&gt;Node3</title>
<g id="a_edge2_Node000002_Node000003"><a xlink:title=" ">
<path fill="none" stroke="#63b8ff" d="M201.45,-735.14C170.82,-738.4 130.36,-742.7 101.76,-745.75"/>
<polygon fill="#63b8ff" stroke="#63b8ff" points="201.85,-738.61 211.43,-734.07 201.11,-731.65 201.85,-738.61"/>
</a>
</g>
</g>
<!-- Node5 -->
<g id="Node000005" class="node">
<title>Node5</title>
<g id="a_Node000005"><a xlink:href="classelectron.html#a0c42ede122af63a3ba35b457379ea605" target="_top" xlink:title="Builds the particle from event data.">
<polygon fill="white" stroke="#666666" points="108.5,-722 22.5,-722 22.5,-703 108.5,-703 108.5,-722"/>
<text text-anchor="middle" x="65.5" y="-710" font-family="Helvetica,sans-Serif" font-size="10.00">electron::build</text>
</a>
</g>
</g>
<!-- Node4&#45;&gt;Node5 -->
<g id="edge4_Node000004_Node000005" class="edge">
<title>Node4&#45;&gt;Node5</title>
<g id="a_edge4_Node000004_Node000005"><a xlink:title=" ">
<path fill="none" stroke="#63b8ff" d="M188.95,-687.12C162.97,-692.5 132.63,-698.79 108.64,-703.76"/>
<polygon fill="#63b8ff" stroke="#63b8ff" points="189.95,-690.49 199.03,-685.03 188.53,-683.63 189.95,-690.49"/>
</a>
</g>
</g>
<!-- Node6 -->
<g id="Node000006" class="node">
<title>Node6</title>
<g id="a_Node000006"><a xlink:href="classelectron.html#a1af9d73368ca91925ccb16fbccc6d199" target="_top" xlink:title="Creates a clone of this particle.">
<polygon fill="white" stroke="#666666" points="110,-685 21,-685 21,-666 110,-666 110,-685"/>
<text text-anchor="middle" x="65.5" y="-673" font-family="Helvetica,sans-Serif" font-size="10.00">electron::clone</text>
</a>
</g>
</g>
<!-- Node4&#45;&gt;Node6 -->
<g id="edge5_Node000004_Node000006" class="edge">
<title>Node4&#45;&gt;Node6</title>
<g id="a_edge5_Node000004_Node000006"><a xlink:title=" ">
<path fill="none" stroke="#63b8ff" d="M184.58,-675.5C160.21,-675.5 132.63,-675.5 110.26,-675.5"/>
<polygon fill="#63b8ff" stroke="#63b8ff" points="184.8,-679 194.8,-675.5 184.8,-672 184.8,-679"/>
</a>
</g>
</g>
<!-- Node8 -->
<g id="Node000008" class="node">
<title>Node8</title>
<g id="a_Node000008"><a xlink:href="classjet.html#ad202deb7d9e738435479b50f9603f028" target="_top" xlink:title="Builds the particle from event data.">
<polygon fill="white" stroke="#666666" points="95,-648 36,-648 36,-629 95,-629 95,-648"/>
<text text-anchor="middle" x="65.5" y="-636" font-family="Helvetica,sans-Serif" font-size="10.00">jet::build</text>
</a>
</g>
</g>
<!-- Node7&#45;&gt;Node8 -->
<g id="edge7_Node000007_Node000008" class="edge">
<title>Node7&#45;&gt;Node8</title>
<g id="a_edge7_Node000007_Node000008"><a xlink:title=" ">
<path fill="none" stroke="#63b8ff" d="M211.87,-608.37C178.33,-615.32 126.99,-625.96 95.15,-632.56"/>
<polygon fill="#63b8ff" stroke="#63b8ff" points="212.58,-611.79 221.66,-606.34 211.16,-604.94 212.58,-611.79"/>
</a>
</g>
</g>
<!-- Node9 -->
<g id="Node000009" class="node">
<title>Node9</title>
<g id="a_Node000009"><a xlink:href="classjet.html#a9b32b4a83c16ee51db8745e30ab1b31d" target="_top" xlink:title="Creates a clone of this particle.">
<polygon fill="white" stroke="#666666" points="96.5,-611 34.5,-611 34.5,-592 96.5,-592 96.5,-611"/>
<text text-anchor="middle" x="65.5" y="-599" font-family="Helvetica,sans-Serif" font-size="10.00">jet::clone</text>
</a>
</g>
</g>
<!-- Node7&#45;&gt;Node9 -->
<g id="edge8_Node000007_Node000009" class="edge">
<title>Node7&#45;&gt;Node9</title>
<g id="a_edge8_Node000007_Node000009"><a xlink:title=" ">
<path fill="none" stroke="#63b8ff" d="M211.59,-601.5C178.58,-601.5 128.55,-601.5 96.7,-601.5"/>
<polygon fill="#63b8ff" stroke="#63b8ff" points="211.66,-605 221.66,-601.5 211.66,-598 211.66,-605"/>
</a>
</g>
</g>
<!-- Node11 -->
<g id="Node000011" class="node">
<title>Node11</title>
<g id="a_Node000011"><a xlink:href="classjetparton.html#ae375fc413c69c5bdabbf34bba2ec189a" target="_top" xlink:title="Builds the particle from event data.">
<polygon fill="white" stroke="#666666" points="111,-574 20,-574 20,-555 111,-555 111,-574"/>
<text text-anchor="middle" x="65.5" y="-562" font-family="Helvetica,sans-Serif" font-size="10.00">jetparton::build</text>
</a>
</g>
</g>
<!-- Node10&#45;&gt;Node11 -->
<g id="edge10_Node000010_Node000011" class="edge">
<title>Node10&#45;&gt;Node11</title>
<g id="a_edge10_Node000010_Node000011"><a xlink:title=" ">
<path fill="none" stroke="#63b8ff" d="M188.92,-539.13C163.82,-544.33 134.65,-550.37 111.08,-555.26"/>
<polygon fill="#63b8ff" stroke="#63b8ff" points="189.95,-542.49 199.03,-537.03 188.53,-535.63 189.95,-542.49"/>
</a>
</g>
</g>
<!-- Node12 -->
<g id="Node000012" class="node">
<title>Node12</title>
<g id="a_Node000012"><a xlink:href="classjetparton.html#aaf8d08e327d8cbdab870ea76c5c4e099" target="_top" xlink:title="Creates a clone of this particle.">
<polygon fill="white" stroke="#666666" points="112,-537 19,-537 19,-518 112,-518 112,-537"/>
<text text-anchor="middle" x="65.5" y="-525" font-family="Helvetica,sans-Serif" font-size="10.00">jetparton::clone</text>
</a>
</g>
</g>
<!-- Node10&#45;&gt;Node12 -->
<g id="edge11_Node000010_Node000012" class="edge">
<title>Node10&#45;&gt;Node12</title>
<g id="a_edge11_Node000010_Node000012"><a xlink:title=" ">
<path fill="none" stroke="#63b8ff" d="M180.3,-527.5C157.76,-527.5 132.96,-527.5 112.28,-527.5"/>
<polygon fill="#63b8ff" stroke="#63b8ff" points="180.47,-531 190.47,-527.5 180.47,-524 180.47,-531"/>
</a>
</g>
</g>
<!-- Node14 -->
<g id="Node000014" class="node">
<title>Node14</title>
<g id="a_Node000014"><a xlink:href="classlepton.html#a5b5ff614df20c208f420f97a6df44b1c" target="_top" xlink:title="Builds the particle from event data.">
<polygon fill="white" stroke="#666666" points="104,-500 27,-500 27,-481 104,-481 104,-500"/>
<text text-anchor="middle" x="65.5" y="-488" font-family="Helvetica,sans-Serif" font-size="10.00">lepton::build</text>
</a>
</g>
</g>
<!-- Node13&#45;&gt;Node14 -->
<g id="edge13_Node000013_Node000014" class="edge">
<title>Node13&#45;&gt;Node14</title>
<g id="a_edge13_Node000013_Node000014"><a xlink:title=" ">
<path fill="none" stroke="#63b8ff" d="M193.77,-464.12C165.14,-470.05 130.09,-477.32 104.03,-482.72"/>
<polygon fill="#63b8ff" stroke="#63b8ff" points="194.52,-467.54 203.6,-462.08 193.1,-460.68 194.52,-467.54"/>
</a>
</g>
</g>
<!-- Node15 -->
<g id="Node000015" class="node">
<title>Node15</title>
<g id="a_Node000015"><a xlink:href="classlepton.html#a2eaab2dd020afceefc73a8d5f4ae92c9" target="_top" xlink:title="Creates a clone of this particle.">
<polygon fill="white" stroke="#666666" points="105.5,-463 25.5,-463 25.5,-444 105.5,-444 105.5,-463"/>
<text text-anchor="middle" x="65.5" y="-451" font-family="Helvetica,sans-Serif" font-size="10.00">lepton::clone</text>
</a>
</g>
</g>
<!-- Node13&#45;&gt;Node15 -->
<g id="edge14_Node000013_Node000015" class="edge">
<title>Node13&#45;&gt;Node15</title>
<g id="a_edge14_Node000013_Node000015"><a xlink:title=" ">
<path fill="none" stroke="#63b8ff" d="M193.57,-453.5C165.53,-453.5 131.37,-453.5 105.53,-453.5"/>
<polygon fill="#63b8ff" stroke="#63b8ff" points="193.6,-457 203.6,-453.5 193.6,-450 193.6,-457"/>
</a>
</g>
</g>
<!-- Node17 -->
<g id="Node000017" class="node">
<title>Node17</title>
<g id="a_Node000017"><a xlink:href="classmuon.html#a0a9a46c18f6bbfae7bc6caa3f942793d" target="_top" xlink:title="Builds the particle from event data.">
<polygon fill="white" stroke="#666666" points="102.5,-426 28.5,-426 28.5,-407 102.5,-407 102.5,-426"/>
<text text-anchor="middle" x="65.5" y="-414" font-family="Helvetica,sans-Serif" font-size="10.00">muon::build</text>
</a>
</g>
</g>
<!-- Node16&#45;&gt;Node17 -->
<g id="edge16_Node000016_Node000017" class="edge">
<title>Node16&#45;&gt;Node17</title>
<g id="a_edge16_Node000016_Node000017"><a xlink:title=" ">
<path fill="none" stroke="#63b8ff" d="M196.57,-406.3C166.94,-408.62 129.65,-411.55 102.6,-413.67"/>
<polygon fill="#63b8ff" stroke="#63b8ff" points="197.01,-409.77 206.71,-405.5 196.46,-402.8 197.01,-409.77"/>
</a>
</g>
</g>
<!-- Node18 -->
<g id="Node000018" class="node">
<title>Node18</title>
<g id="a_Node000018"><a xlink:href="classmuon.html#a6d1eb638a70fedb6878cdcf7eb89f069" target="_top" xlink:title="Creates a clone of this particle.">
<polygon fill="white" stroke="#666666" points="104,-389 27,-389 27,-370 104,-370 104,-389"/>
<text text-anchor="middle" x="65.5" y="-377" font-family="Helvetica,sans-Serif" font-size="10.00">muon::clone</text>
</a>
</g>
</g>
<!-- Node16&#45;&gt;Node18 -->
<g id="edge17_Node000016_Node000018" class="edge">
<title>Node16&#45;&gt;Node18</title>
<g id="a_edge17_Node000016_Node000018"><a xlink:title=" ">
<path fill="none" stroke="#63b8ff" d="M196.75,-396.28C167.63,-392.53 131.08,-387.82 104.12,-384.35"/>
<polygon fill="#63b8ff" stroke="#63b8ff" points="196.34,-399.76 206.71,-397.57 197.24,-392.82 196.34,-399.76"/>
</a>
</g>
</g>
<!-- Node20 -->
<g id="Node000020" class="node">
<title>Node20</title>
<g id="a_Node000020"><a xlink:href="classphysics__detector.html#aa1c4bc38f4f224d8784ca171651f704d" target="_top" xlink:title="Creates a clone of this particle.">
<polygon fill="white" stroke="#666666" points="131,-352 0,-352 0,-333 131,-333 131,-352"/>
<text text-anchor="middle" x="65.5" y="-340" font-family="Helvetica,sans-Serif" font-size="10.00">physics_detector::clone</text>
</a>
</g>
</g>
<!-- Node19&#45;&gt;Node20 -->
<g id="edge19_Node000019_Node000020" class="edge">
<title>Node19&#45;&gt;Node20</title>
<g id="a_edge19_Node000019_Node000020"><a xlink:title=" ">
<path fill="none" stroke="#63b8ff" d="M164.7,-351.85C153.45,-350.78 142.01,-349.69 131.1,-348.65"/>
<polygon fill="#63b8ff" stroke="#63b8ff" points="164.68,-355.37 174.96,-352.83 165.34,-348.4 164.68,-355.37"/>
</a>
</g>
</g>
<!-- Node22 -->
<g id="Node000022" class="node">
<title>Node22</title>
<g id="a_Node000022"><a xlink:href="classphysics__truth.html#a33b88922348b82e1e3143d7bc56ccd63" target="_top" xlink:title="Creates a clone of this particle.">
<polygon fill="white" stroke="#666666" points="122.5,-315 8.5,-315 8.5,-296 122.5,-296 122.5,-315"/>
<text text-anchor="middle" x="65.5" y="-303" font-family="Helvetica,sans-Serif" font-size="10.00">physics_truth::clone</text>
</a>
</g>
</g>
<!-- Node21&#45;&gt;Node22 -->
<g id="edge21_Node000021_Node000022" class="edge">
<title>Node21&#45;&gt;Node22</title>
<g id="a_edge21_Node000021_Node000022"><a xlink:title=" ">
<path fill="none" stroke="#63b8ff" d="M173.04,-309.08C156.31,-308.52 138.73,-307.93 122.79,-307.39"/>
<polygon fill="#63b8ff" stroke="#63b8ff" points="173.21,-312.59 183.32,-309.43 173.44,-305.59 173.21,-312.59"/>
</a>
</g>
</g>
<!-- Node24 -->
<g id="Node000024" class="node">
<title>Node24</title>
<g id="a_Node000024"><a xlink:href="classtop.html#a2c72072a84fbc8524ce53522cfeb6cde" target="_top" xlink:title="Creates a clone of this particle.">
<polygon fill="white" stroke="#666666" points="98,-278 33,-278 33,-259 98,-259 98,-278"/>
<text text-anchor="middle" x="65.5" y="-266" font-family="Helvetica,sans-Serif" font-size="10.00">top::clone</text>
</a>
</g>
</g>
<!-- Node23&#45;&gt;Node24 -->
<g id="edge23_Node000023_Node000024" class="edge">
<title>Node23&#45;&gt;Node24</title>
<g id="a_edge23_Node000023_Node000024"><a xlink:title=" ">
<path fill="none" stroke="#63b8ff" d="M208.24,-268.5C175.76,-268.5 128.89,-268.5 98.07,-268.5"/>
<polygon fill="#63b8ff" stroke="#63b8ff" points="208.66,-272 218.66,-268.5 208.66,-265 208.66,-272"/>
</a>
</g>
</g>
<!-- Node26 -->
<g id="Node000026" class="node">
<title>Node26</title>
<g id="a_Node000026"><a xlink:href="classtop__children.html#ab3a800b533a310ac646c1eb794cfdcb3" target="_top" xlink:title="Builds the particle from event data.">
<polygon fill="white" stroke="#666666" points="119,-241 12,-241 12,-222 119,-222 119,-241"/>
<text text-anchor="middle" x="65.5" y="-229" font-family="Helvetica,sans-Serif" font-size="10.00">top_children::build</text>
</a>
</g>
</g>
<!-- Node25&#45;&gt;Node26 -->
<g id="edge25_Node000025_Node000026" class="edge">
<title>Node25&#45;&gt;Node26</title>
<g id="a_edge25_Node000025_Node000026"><a xlink:title=" ">
<path fill="none" stroke="#63b8ff" d="M164.44,-231.5C149.09,-231.5 133.39,-231.5 119.19,-231.5"/>
<polygon fill="#63b8ff" stroke="#63b8ff" points="164.45,-235 174.45,-231.5 164.45,-228 164.45,-235"/>
</a>
</g>
</g>
<!-- Node27 -->
<g id="Node000027" class="node">
<title>Node27</title>
<g id="a_Node000027"><a xlink:href="classtop__children.html#a12db70c4c4123244135aaf38e34a0187" target="_top" xlink:title="Creates a clone of this particle.">
<polygon fill="white" stroke="#666666" points="120,-204 11,-204 11,-185 120,-185 120,-204"/>
<text text-anchor="middle" x="65.5" y="-192" font-family="Helvetica,sans-Serif" font-size="10.00">top_children::clone</text>
</a>
</g>
</g>
<!-- Node25&#45;&gt;Node27 -->
<g id="edge26_Node000025_Node000027" class="edge">
<title>Node25&#45;&gt;Node27</title>
<g id="a_edge26_Node000025_Node000027"><a xlink:title=" ">
<path fill="none" stroke="#63b8ff" d="M189.11,-219.92C164.52,-214.82 135.98,-208.9 112.62,-204.06"/>
<polygon fill="#63b8ff" stroke="#63b8ff" points="188.53,-223.37 199.03,-221.97 189.95,-216.51 188.53,-223.37"/>
</a>
</g>
</g>
<!-- Node29 -->
<g id="Node000029" class="node">
<title>Node29</title>
<g id="a_Node000029"><a xlink:href="classtruthjet.html#a4f20e1e16ba3e64d085530b455250191" target="_top" xlink:title="Creates a clone of this particle.">
<polygon fill="white" stroke="#666666" points="108,-167 23,-167 23,-148 108,-148 108,-167"/>
<text text-anchor="middle" x="65.5" y="-155" font-family="Helvetica,sans-Serif" font-size="10.00">truthjet::clone</text>
</a>
</g>
</g>
<!-- Node28&#45;&gt;Node29 -->
<g id="edge28_Node000028_Node000029" class="edge">
<title>Node28&#45;&gt;Node29</title>
<g id="a_edge28_Node000028_Node000029"><a xlink:title=" ">
<path fill="none" stroke="#63b8ff" d="M188.03,-170.44C162.1,-167.68 131.98,-164.47 108.22,-161.94"/>
<polygon fill="#63b8ff" stroke="#63b8ff" points="187.79,-173.93 198.1,-171.51 188.53,-166.97 187.79,-173.93"/>
</a>
</g>
</g>
<!-- Node31 -->
<g id="Node000031" class="node">
<title>Node31</title>
<g id="a_Node000031"><a xlink:href="classtruthjetparton.html#a167dd1e373ba7391b87378288559065a" target="_top" xlink:title="Builds the particle from event data.">
<polygon fill="white" stroke="#666666" points="122.5,-130 8.5,-130 8.5,-111 122.5,-111 122.5,-130"/>
<text text-anchor="middle" x="65.5" y="-118" font-family="Helvetica,sans-Serif" font-size="10.00">truthjetparton::build</text>
</a>
</g>
</g>
<!-- Node30&#45;&gt;Node31 -->
<g id="edge30_Node000030_Node000031" class="edge">
<title>Node30&#45;&gt;Node31</title>
<g id="a_edge30_Node000030_Node000031"><a xlink:title=" ">
<path fill="none" stroke="#63b8ff" d="M156.78,-120.5C145.17,-120.5 133.52,-120.5 122.65,-120.5"/>
<polygon fill="#63b8ff" stroke="#63b8ff" points="156.97,-124 166.97,-120.5 156.97,-117 156.97,-124"/>
</a>
</g>
</g>
<!-- Node32 -->
<g id="Node000032" class="node">
<title>Node32</title>
<g id="a_Node000032"><a xlink:href="classtruthjetparton.html#aa9bb1b12640e06b49a6f2d3166410ee1" target="_top" xlink:title="Creates a clone of this particle.">
<polygon fill="white" stroke="#666666" points="123.5,-93 7.5,-93 7.5,-74 123.5,-74 123.5,-93"/>
<text text-anchor="middle" x="65.5" y="-81" font-family="Helvetica,sans-Serif" font-size="10.00">truthjetparton::clone</text>
</a>
</g>
</g>
<!-- Node30&#45;&gt;Node32 -->
<g id="edge31_Node000030_Node000032" class="edge">
<title>Node30&#45;&gt;Node32</title>
<g id="a_edge31_Node000030_Node000032"><a xlink:title=" ">
<path fill="none" stroke="#63b8ff" d="M189.11,-108.92C164.52,-103.82 135.98,-97.9 112.62,-93.06"/>
<polygon fill="#63b8ff" stroke="#63b8ff" points="188.53,-112.37 199.03,-110.97 189.95,-105.51 188.53,-112.37"/>
</a>
</g>
</g>
<!-- Node34 -->
<g id="Node000034" class="node">
<title>Node34</title>
<g id="a_Node000034"><a xlink:href="classzboson.html#abb2fddddc8fdc7dad562a716f70ca7a4" target="_top" xlink:title="Builds the particle from event data.">
<polygon fill="white" stroke="#666666" points="106,-56 25,-56 25,-37 106,-37 106,-56"/>
<text text-anchor="middle" x="65.5" y="-44" font-family="Helvetica,sans-Serif" font-size="10.00">zboson::build</text>
</a>
</g>
</g>
<!-- Node33&#45;&gt;Node34 -->
<g id="edge33_Node000033_Node000034" class="edge">
<title>Node33&#45;&gt;Node34</title>
<g id="a_edge33_Node000033_Node000034"><a xlink:title=" ">
<path fill="none" stroke="#63b8ff" d="M189.84,-46.5C162.73,-46.5 130.69,-46.5 106.06,-46.5"/>
<polygon fill="#63b8ff" stroke="#63b8ff" points="189.96,-50 199.96,-46.5 189.96,-43 189.96,-50"/>
</a>
</g>
</g>
<!-- Node35 -->
<g id="Node000035" class="node">
<title>Node35</title>
<g id="a_Node000035"><a xlink:href="classzboson.html#af18d0f0fd95ccfe3f12fd00ebb026498" target="_top" xlink:title="Creates a clone of this particle.">
<polygon fill="white" stroke="#666666" points="107,-19 24,-19 24,0 107,0 107,-19"/>
<text text-anchor="middle" x="65.5" y="-7" font-family="Helvetica,sans-Serif" font-size="10.00">zboson::clone</text>
</a>
</g>
</g>
<!-- Node33&#45;&gt;Node35 -->
<g id="edge34_Node000033_Node000035" class="edge">
<title>Node33&#45;&gt;Node35</title>
<g id="a_edge34_Node000033_Node000035"><a xlink:title=" ">
<path fill="none" stroke="#63b8ff" d="M189.98,-35.1C163.28,-29.56 131.77,-23.03 107.26,-17.95"/>
<polygon fill="#63b8ff" stroke="#63b8ff" points="189.45,-38.56 199.96,-37.16 190.88,-31.71 189.45,-38.56"/>
</a>
</g>
</g>
</g>
</svg>

<g id="navigator" transform="translate(0 0)" fill="#404254">
  <rect fill="#f2f5e9" fill-opacity="0.5" stroke="#606060" stroke-width=".5" x="0" y="0" width="60" height="60"/>
  <use id="zoomplus" xlink:href="#zoomPlus" x="17" y="9" onmousedown="handleZoom(evt,'in')"/>
  <use id="zoomminus" xlink:href="#zoomMin" x="42" y="9" onmousedown="handleZoom(evt,'out')"/>
  <use id="reset" xlink:href="#resetDef" x="30" y="36" onmousedown="handleReset()"/>
   <use id="arrowup" xlink:href="#arrowUp" x="0" y="0" onmousedown="handlePan(0,-1)"/>
  <use id="arrowright" xlink:href="#arrowRight" x="0" y="0" onmousedown="handlePan(1,0)"/>
  <use id="arrowdown" xlink:href="#arrowDown" x="0" y="0" onmousedown="handlePan(0,1)"/>
  <use id="arrowleft" xlink:href="#arrowLeft" x="0" y="0" onmousedown="handlePan(-1,0)"/>
</g>
<svg viewBox="0 0 15 15" width="100%" height="30px" preserveAspectRatio="xMaxYMin meet">
 <g id="arrow_out" transform="scale(0.3 0.3)">
  <a xlink:href="classparticle__template_a83757e8eb32e382a8c0444ede5dda548_icgraph_org.svg" target="_base">
   <rect id="button" ry="5" rx="5" y="6" x="6" height="38" width="38"
        fill="#f2f5e9" fill-opacity="0.5" stroke="#606060" stroke-width="1.0"/>
   <path id="arrow"
     d="M 11.500037,31.436501 C 11.940474,20.09759 22.043105,11.32322 32.158766,21.979434 L 37.068811,17.246167 C 37.068811,17.246167 37.088388,32 37.088388,32 L 22.160133,31.978069 C 22.160133,31.978069 26.997745,27.140456 26.997745,27.140456 C 18.528582,18.264221 13.291696,25.230495 11.500037,31.436501 z"
     style="fill:#404040;"/>
  </a>
 </g>
</svg>

<style type='text/css'>
<![CDATA[
[data-mouse-over-selected='false'] { opacity: 0.7; }
[data-mouse-over-selected='true']  { opacity: 1.0; }
]]>
</style>
<script type="application/ecmascript"><![CDATA[
document.addEventListener('DOMContentLoaded', (event) => {
  highlightEdges();
  highlightAdjacentNodes();
});
]]></script>
</svg>
