<?xml version="1.0" encoding="UTF-8" standalone="no"?>
<!DOCTYPE svg PUBLIC "-//W3C//DTD SVG 1.1//EN"
 "http://www.w3.org/Graphics/SVG/1.1/DTD/svg11.dtd">
<!-- Generated by graphviz version 2.43.0 (0)
 -->
<!-- Title: io::read Pages: 1 -->
<svg width="429pt" height="64pt"
 viewBox="0.00 0.00 429.00 64.00" xmlns="http://www.w3.org/2000/svg" xmlns:xlink="http://www.w3.org/1999/xlink">

<svg id="main" version="1.1" xmlns="http://www.w3.org/2000/svg" xmlns:xlink="http://www.w3.org/1999/xlink" xml:space="preserve" onload="init(evt)">
<style type="text/css"><![CDATA[
.node, .edge {opacity: 0.7;}
.node.selected, .edge.selected {opacity: 1;}
.edge:hover path { stroke: red; }
.edge:hover polygon { stroke: red; fill: red; }
]]></style>
<script type="application/ecmascript" xlink:href="svg.min.js"/>
<svg id="graph" class="graph">
<g id="graph0" class="graph" transform="scale(1 1) rotate(0) translate(4 60)">
<title>io::read</title>
<!-- Node1 -->
<g id="Node000001" class="node">
<title>Node1</title>
<g id="a_Node000001"><a xlink:title="Templated method to read a vector of objects from a dataset.">
<polygon fill="#999999" stroke="#666666" points="53,-37 0,-37 0,-18 53,-18 53,-37"/>
<text text-anchor="middle" x="26.5" y="-25" font-family="Helvetica,sans-Serif" font-size="10.00">io::read</text>
</a>
</g>
</g>
<!-- Node2 -->
<g id="Node000002" class="node">
<title>Node2</title>
<g id="a_Node000002"><a xlink:href="classio.html#a4cdbdd389d60e2ba4759269123381e25" target="_top" xlink:title="Templated method to read event data (vector of objects) from HDF5.">
<polygon fill="white" stroke="#666666" points="199.5,-56 95.5,-56 95.5,-37 199.5,-37 199.5,-56"/>
<text text-anchor="middle" x="147.5" y="-44" font-family="Helvetica,sans-Serif" font-size="10.00">io::read_event_h5</text>
</a>
</g>
</g>
<!-- Node1&#45;&gt;Node2 -->
<g id="edge1_Node000001_Node000002" class="edge">
<title>Node1&#45;&gt;Node2</title>
<g id="a_edge1_Node000001_Node000002"><a xlink:title=" ">
<path fill="none" stroke="#63b8ff" d="M53.03,-31.58C62.54,-33.09 73.78,-34.89 85.12,-36.7"/>
<polygon fill="#63b8ff" stroke="#63b8ff" points="84.64,-40.17 95.07,-38.29 85.75,-33.26 84.64,-40.17"/>
</a>
</g>
</g>
<!-- Node5 -->
<g id="Node000005" class="node">
<title>Node5</title>
<g id="a_Node000005"><a xlink:href="classnotification.html#ab758dafbb449e142fb68e11c0470b5c9" target="_top" xlink:title="Outputs a warning message.">
<polygon fill="white" stroke="#666666" points="206,-19 89,-19 89,0 206,0 206,-19"/>
<text text-anchor="middle" x="147.5" y="-7" font-family="Helvetica,sans-Serif" font-size="10.00">notification::Warning</text>
</a>
</g>
</g>
<!-- Node1&#45;&gt;Node5 -->
<g id="edge4_Node000001_Node000005" class="edge">
<title>Node1&#45;&gt;Node5</title>
<g id="a_edge4_Node000001_Node000005"><a xlink:title=" ">
<path fill="none" stroke="#63b8ff" d="M53.03,-23.64C60.75,-22.47 69.62,-21.13 78.76,-19.75"/>
<polygon fill="#63b8ff" stroke="#63b8ff" points="79.37,-23.19 88.74,-18.24 78.33,-16.27 79.37,-23.19"/>
</a>
</g>
</g>
<!-- Node3 -->
<g id="Node000003" class="node">
<title>Node3</title>
<g id="a_Node000003"><a xlink:href="classio.html#a9c5e08cc995a18eff996b3cfcda641eb" target="_top" xlink:title="Generic HDF5 read operation for a vector of objects.">
<polygon fill="white" stroke="#666666" points="312,-56 242,-56 242,-37 312,-37 312,-56"/>
<text text-anchor="middle" x="277" y="-44" font-family="Helvetica,sans-Serif" font-size="10.00">io::H5Read</text>
</a>
</g>
</g>
<!-- Node2&#45;&gt;Node3 -->
<g id="edge2_Node000002_Node000003" class="edge">
<title>Node2&#45;&gt;Node3</title>
<g id="a_edge2_Node000002_Node000003"><a xlink:title=" ">
<path fill="none" stroke="#63b8ff" d="M199.62,-46.5C210.22,-46.5 221.31,-46.5 231.64,-46.5"/>
<polygon fill="#63b8ff" stroke="#63b8ff" points="231.68,-50 241.68,-46.5 231.68,-43 231.68,-50"/>
</a>
</g>
</g>
<!-- Node4 -->
<g id="Node000004" class="node">
<title>Node4</title>
<g id="a_Node000004"><a xlink:href="classio.html#a1b1fcdf426ced67387cc9579f8f0f3e2" target="_top" xlink:title="&lt; Private access specifier for the following members.">
<polygon fill="white" stroke="#666666" points="421,-56 348,-56 348,-37 421,-37 421,-56"/>
<text text-anchor="middle" x="384.5" y="-44" font-family="Helvetica,sans-Serif" font-size="10.00">io::member</text>
</a>
</g>
</g>
<!-- Node3&#45;&gt;Node4 -->
<g id="edge3_Node000003_Node000004" class="edge">
<title>Node3&#45;&gt;Node4</title>
<g id="a_edge3_Node000003_Node000004"><a xlink:title=" ">
<path fill="none" stroke="#63b8ff" d="M312.25,-46.5C320.38,-46.5 329.18,-46.5 337.73,-46.5"/>
<polygon fill="#63b8ff" stroke="#63b8ff" points="337.97,-50 347.97,-46.5 337.97,-43 337.97,-50"/>
</a>
</g>
</g>
</g>
</svg>
</svg>

<style type='text/css'>
<![CDATA[
[data-mouse-over-selected='false'] { opacity: 0.7; }
[data-mouse-over-selected='true']  { opacity: 1.0; }
]]>
</style>
<script type="application/ecmascript"><![CDATA[
document.addEventListener('DOMContentLoaded', (event) => {
  highlightEdges();
  highlightAdjacentNodes();
});
]]></script>
</svg>
