<?xml version="1.0" encoding="UTF-8" standalone="no"?>
<!DOCTYPE svg PUBLIC "-//W3C//DTD SVG 1.1//EN"
 "http://www.w3.org/Graphics/SVG/1.1/DTD/svg11.dtd">
<!-- Generated by graphviz version 2.43.0 (0)
 -->
<!-- Title: truthjet::truthjet Pages: 1 -->
<svg width="262pt" height="198pt"
 viewBox="0.00 0.00 262.00 197.50" xmlns="http://www.w3.org/2000/svg" xmlns:xlink="http://www.w3.org/1999/xlink">

<svg id="main" version="1.1" xmlns="http://www.w3.org/2000/svg" xmlns:xlink="http://www.w3.org/1999/xlink" xml:space="preserve" onload="init(evt)">
<style type="text/css"><![CDATA[
.node, .edge {opacity: 0.7;}
.node.selected, .edge.selected {opacity: 1;}
.edge:hover path { stroke: red; }
.edge:hover polygon { stroke: red; fill: red; }
]]></style>
<script type="application/ecmascript" xlink:href="svg.min.js"/>
<svg id="graph" class="graph">
<g id="graph0" class="graph" transform="scale(1 1) rotate(0) translate(4 193.5)">
<title>truthjet::truthjet</title>
<!-- Node1 -->
<g id="Node000001" class="node">
<title>Node1</title>
<g id="a_Node000001"><a xlink:title=" ">
<polygon fill="#999999" stroke="#666666" points="95,-93 0,-93 0,-74 95,-74 95,-93"/>
<text text-anchor="middle" x="47.5" y="-81" font-family="Helvetica,sans-Serif" font-size="10.00">truthjet::truthjet</text>
</a>
</g>
</g>
<!-- Node2 -->
<g id="Node000002" class="node">
<title>Node2</title>
<g id="a_Node000002"><a xlink:href="classparticle__template.html#a7fda73e06360bffd1bce45e7ba7370a5" target="_top" xlink:title="Adds a leaf (variable) to read for this particle.">
<polygon fill="white" stroke="#666666" points="247,-189.5 138,-189.5 138,-159.5 247,-159.5 247,-189.5"/>
<text text-anchor="start" x="146" y="-177.5" font-family="Helvetica,sans-Serif" font-size="10.00">particle_template::</text>
<text text-anchor="middle" x="192.5" y="-166.5" font-family="Helvetica,sans-Serif" font-size="10.00">add_leaf</text>
</a>
</g>
</g>
<!-- Node1&#45;&gt;Node2 -->
<g id="edge1_Node000001_Node000002" class="edge">
<title>Node1&#45;&gt;Node2</title>
<g id="a_edge1_Node000001_Node000002"><a xlink:title=" ">
<path fill="none" stroke="#63b8ff" d="M58.42,-93.27C73.2,-107.41 102.34,-133.71 131,-150.5 133.78,-152.13 136.69,-153.69 139.67,-155.18"/>
<polygon fill="#63b8ff" stroke="#63b8ff" points="138.2,-158.36 148.74,-159.44 141.17,-152.02 138.2,-158.36"/>
</a>
</g>
</g>
<!-- Node3 -->
<g id="Node000003" class="node">
<title>Node3</title>
<g id="a_Node000003"><a xlink:href="classparticle__template.html#a83757e8eb32e382a8c0444ede5dda548" target="_top" xlink:title="Applies the particle type as a prefix to leaf names.">
<polygon fill="white" stroke="#666666" points="247,-141.5 138,-141.5 138,-111.5 247,-111.5 247,-141.5"/>
<text text-anchor="start" x="146" y="-129.5" font-family="Helvetica,sans-Serif" font-size="10.00">particle_template::</text>
<text text-anchor="middle" x="192.5" y="-118.5" font-family="Helvetica,sans-Serif" font-size="10.00">apply_type_prefix</text>
</a>
</g>
</g>
<!-- Node1&#45;&gt;Node3 -->
<g id="edge2_Node000001_Node000003" class="edge">
<title>Node1&#45;&gt;Node3</title>
<g id="a_edge2_Node000001_Node000003"><a xlink:title=" ">
<path fill="none" stroke="#63b8ff" d="M80.24,-93.04C95.44,-97.62 114.16,-103.24 131.88,-108.57"/>
<polygon fill="#63b8ff" stroke="#63b8ff" points="131.01,-111.97 141.6,-111.49 133.03,-105.26 131.01,-111.97"/>
</a>
</g>
</g>
<!-- Node4 -->
<g id="Node000004" class="node">
<title>Node4</title>
<g id="a_Node000004"><a xlink:href="classtruthjet.html#a3c2926b344f4fc12c77595f636551def" target="_top" xlink:title=" ">
<polygon fill="white" stroke="#666666" points="254,-93 131,-93 131,-74 254,-74 254,-93"/>
<text text-anchor="middle" x="192.5" y="-81" font-family="Helvetica,sans-Serif" font-size="10.00">truthjet::get_from_res</text>
</a>
</g>
</g>
<!-- Node1&#45;&gt;Node4 -->
<g id="edge3_Node000001_Node000004" class="edge">
<title>Node1&#45;&gt;Node4</title>
<g id="a_edge3_Node000001_Node000004"><a xlink:title=" ">
<path fill="none" stroke="#63b8ff" d="M95.32,-83.5C103.46,-83.5 112.09,-83.5 120.7,-83.5"/>
<polygon fill="#63b8ff" stroke="#63b8ff" points="120.77,-87 130.77,-83.5 120.77,-80 120.77,-87"/>
</a>
</g>
</g>
<!-- Node5 -->
<g id="Node000005" class="node">
<title>Node5</title>
<g id="a_Node000005"><a xlink:href="classcproperty.html#a31b26b5ffb20bbf8d8ee38e0755a9819" target="_top" xlink:title="Sets the getter callback function.">
<polygon fill="white" stroke="#666666" points="251.5,-56 133.5,-56 133.5,-37 251.5,-37 251.5,-56"/>
<text text-anchor="middle" x="192.5" y="-44" font-family="Helvetica,sans-Serif" font-size="10.00">cproperty::set_getter</text>
</a>
</g>
</g>
<!-- Node1&#45;&gt;Node5 -->
<g id="edge4_Node000001_Node000005" class="edge">
<title>Node1&#45;&gt;Node5</title>
<g id="a_edge4_Node000001_Node000005"><a xlink:title=" ">
<path fill="none" stroke="#63b8ff" d="M85.33,-73.97C103.37,-69.3 125.29,-63.63 144.52,-58.65"/>
<polygon fill="#63b8ff" stroke="#63b8ff" points="145.5,-62.02 154.3,-56.12 143.74,-55.24 145.5,-62.02"/>
</a>
</g>
</g>
<!-- Node6 -->
<g id="Node000006" class="node">
<title>Node6</title>
<g id="a_Node000006"><a xlink:href="classcproperty.html#a41a70e8e01c9b1a20b94d2dbf1a6b214" target="_top" xlink:title="Sets the owning object for callback invocation.">
<polygon fill="white" stroke="#666666" points="252,-19 133,-19 133,0 252,0 252,-19"/>
<text text-anchor="middle" x="192.5" y="-7" font-family="Helvetica,sans-Serif" font-size="10.00">cproperty::set_object</text>
</a>
</g>
</g>
<!-- Node1&#45;&gt;Node6 -->
<g id="edge5_Node000001_Node000006" class="edge">
<title>Node1&#45;&gt;Node6</title>
<g id="a_edge5_Node000001_Node000006"><a xlink:title=" ">
<path fill="none" stroke="#63b8ff" d="M60.42,-73.96C75.9,-61.95 104.13,-41.35 131,-28.5 135.66,-26.27 140.64,-24.22 145.68,-22.36"/>
<polygon fill="#63b8ff" stroke="#63b8ff" points="147.04,-25.59 155.34,-19.01 144.75,-18.98 147.04,-25.59"/>
</a>
</g>
</g>
</g>
</svg>
</svg>

<style type='text/css'>
<![CDATA[
[data-mouse-over-selected='false'] { opacity: 0.7; }
[data-mouse-over-selected='true']  { opacity: 1.0; }
]]>
</style>
<script type="application/ecmascript"><![CDATA[
document.addEventListener('DOMContentLoaded', (event) => {
  highlightEdges();
  highlightAdjacentNodes();
});
]]></script>
</svg>
