<?xml version="1.0" encoding="UTF-8" standalone="no"?>
<!DOCTYPE svg PUBLIC "-//W3C//DTD SVG 1.1//EN"
 "http://www.w3.org/Graphics/SVG/1.1/DTD/svg11.dtd">
<!-- Generated by graphviz version 2.43.0 (0)
 -->
<!-- Title: met::strategy Pages: 1 -->
<svg width="383pt" height="94pt"
 viewBox="0.00 0.00 383.00 93.50" xmlns="http://www.w3.org/2000/svg" xmlns:xlink="http://www.w3.org/1999/xlink">
<g id="graph0" class="graph" transform="scale(1 1) rotate(0) translate(4 89.5)">
<title>met::strategy</title>
<!-- Node1 -->
<g id="Node000001" class="node">
<title>Node1</title>
<g id="a_Node000001"><a xlink:title="Alternative selection strategy method.">
<polygon fill="#999999" stroke="#666666" points="83,-54.5 0,-54.5 0,-35.5 83,-35.5 83,-54.5"/>
<text text-anchor="middle" x="41.5" y="-42.5" font-family="Helvetica,sans-Serif" font-size="10.00">met::strategy</text>
</a>
</g>
</g>
<!-- Node2 -->
<g id="Node000002" class="node">
<title>Node2</title>
<g id="a_Node000002"><a xlink:href="classmet.html#a8ba06b3d954f59aa8ed0b805d4b5daa5" target="_top" xlink:title=" ">
<polygon fill="white" stroke="#666666" points="205,-85.5 143,-85.5 143,-66.5 205,-66.5 205,-85.5"/>
<text text-anchor="middle" x="174" y="-73.5" font-family="Helvetica,sans-Serif" font-size="10.00">met::met</text>
</a>
</g>
</g>
<!-- Node1&#45;&gt;Node2 -->
<g id="edge1_Node000001_Node000002" class="edge">
<title>Node1&#45;&gt;Node2</title>
<g id="a_edge1_Node000001_Node000002"><a xlink:title=" ">
<path fill="none" stroke="#63b8ff" d="M82.72,-54.55C98.57,-58.32 116.74,-62.64 132.61,-66.41"/>
<polygon fill="#63b8ff" stroke="#63b8ff" points="132.12,-69.89 142.65,-68.79 133.73,-63.07 132.12,-69.89"/>
</a>
</g>
</g>
<!-- Node3 -->
<g id="Node000003" class="node">
<title>Node3</title>
<g id="a_Node000003"><a xlink:href="classselection__template.html#ae5606e994231fae57abe42e4f0ec6202" target="_top" xlink:title="Writes a particle collection to output.">
<polygon fill="white" stroke="#666666" points="229,-30 119,-30 119,0 229,0 229,-30"/>
<text text-anchor="start" x="127" y="-18" font-family="Helvetica,sans-Serif" font-size="10.00">selection_template</text>
<text text-anchor="middle" x="174" y="-7" font-family="Helvetica,sans-Serif" font-size="10.00">::write</text>
</a>
</g>
</g>
<!-- Node1&#45;&gt;Node3 -->
<g id="edge2_Node000001_Node000003" class="edge">
<title>Node1&#45;&gt;Node3</title>
<g id="a_edge2_Node000001_Node000003"><a xlink:title=" ">
<path fill="none" stroke="#63b8ff" d="M83.08,-35.67C91.23,-33.8 99.99,-31.78 108.72,-29.78"/>
<polygon fill="#63b8ff" stroke="#63b8ff" points="109.58,-33.17 118.54,-27.52 108.01,-26.35 109.58,-33.17"/>
</a>
</g>
</g>
<!-- Node3&#45;&gt;Node3 -->
<g id="edge5_Node000003_Node000003" class="edge">
<title>Node3&#45;&gt;Node3</title>
<g id="a_edge5_Node000003_Node000003"><a xlink:title=" ">
<path fill="none" stroke="#63b8ff" d="M150.8,-30.28C145.64,-39.41 153.38,-48 174,-48 186.25,-48 193.95,-44.97 197.1,-40.6"/>
<polygon fill="#63b8ff" stroke="#63b8ff" points="200.61,-40.31 197.2,-30.28 193.61,-40.24 200.61,-40.31"/>
</a>
</g>
</g>
<!-- Node4 -->
<g id="Node000004" class="node">
<title>Node4</title>
<g id="a_Node000004"><a xlink:href="classselection__template.html#a81497ddb8a1a46c8d4e715cf9733ef61" target="_top" xlink:title="Switch board for dispatching particle attributes.">
<polygon fill="white" stroke="#666666" points="375,-30 265,-30 265,0 375,0 375,-30"/>
<text text-anchor="start" x="273" y="-18" font-family="Helvetica,sans-Serif" font-size="10.00">selection_template</text>
<text text-anchor="middle" x="320" y="-7" font-family="Helvetica,sans-Serif" font-size="10.00">::switch_board</text>
</a>
</g>
</g>
<!-- Node3&#45;&gt;Node4 -->
<g id="edge3_Node000003_Node000004" class="edge">
<title>Node3&#45;&gt;Node4</title>
<g id="a_edge3_Node000003_Node000004"><a xlink:title=" ">
<path fill="none" stroke="#63b8ff" d="M229.03,-15C237.31,-15 245.94,-15 254.42,-15"/>
<polygon fill="#63b8ff" stroke="#63b8ff" points="254.67,-18.5 264.67,-15 254.67,-11.5 254.67,-18.5"/>
</a>
</g>
</g>
<!-- Node4&#45;&gt;Node4 -->
<g id="edge4_Node000004_Node000004" class="edge">
<title>Node4&#45;&gt;Node4</title>
<g id="a_edge4_Node000004_Node000004"><a xlink:title=" ">
<path fill="none" stroke="#63b8ff" d="M294.34,-30.28C288.63,-39.41 297.19,-48 320,-48 333.54,-48 342.06,-44.97 345.56,-40.6"/>
<polygon fill="#63b8ff" stroke="#63b8ff" points="349.06,-40.31 345.66,-30.28 342.06,-40.24 349.06,-40.31"/>
</a>
</g>
</g>
</g>
</svg>
