<?xml version="1.0" encoding="UTF-8" standalone="no"?>
<!DOCTYPE svg PUBLIC "-//W3C//DTD SVG 1.1//EN"
 "http://www.w3.org/Graphics/SVG/1.1/DTD/svg11.dtd">
<!-- Generated by graphviz version 2.43.0 (0)
 -->
<!-- Title: childrenkinematics::strategy Pages: 1 -->
<svg width="291pt" height="161pt"
 viewBox="0.00 0.00 291.00 161.00" xmlns="http://www.w3.org/2000/svg" xmlns:xlink="http://www.w3.org/1999/xlink">
<g id="graph0" class="graph" transform="scale(1 1) rotate(0) translate(4 157)">
<title>childrenkinematics::strategy</title>
<!-- Node1 -->
<g id="Node000001" class="node">
<title>Node1</title>
<g id="a_Node000001"><a xlink:title="Alternative selection strategy method.">
<polygon fill="#999999" stroke="#666666" points="110,-91 0,-91 0,-61 110,-61 110,-91"/>
<text text-anchor="start" x="8" y="-79" font-family="Helvetica,sans-Serif" font-size="10.00">childrenkinematics</text>
<text text-anchor="middle" x="55" y="-68" font-family="Helvetica,sans-Serif" font-size="10.00">::strategy</text>
</a>
</g>
</g>
<!-- Node2 -->
<g id="Node000002" class="node">
<title>Node2</title>
<g id="a_Node000002"><a xlink:href="classchildrenkinematics.html#abba2ca41430558172dae63f5e9681683" target="_top" xlink:title=" ">
<polygon fill="white" stroke="#666666" points="269.5,-153 159.5,-153 159.5,-123 269.5,-123 269.5,-153"/>
<text text-anchor="start" x="167.5" y="-141" font-family="Helvetica,sans-Serif" font-size="10.00">childrenkinematics</text>
<text text-anchor="middle" x="214.5" y="-130" font-family="Helvetica,sans-Serif" font-size="10.00">::dump_kinematics</text>
</a>
</g>
</g>
<!-- Node1&#45;&gt;Node2 -->
<g id="edge1_Node000001_Node000002" class="edge">
<title>Node1&#45;&gt;Node2</title>
<g id="a_edge1_Node000001_Node000002"><a xlink:title=" ">
<path fill="none" stroke="#63b8ff" d="M90.43,-91.09C107.11,-98.26 127.5,-106.81 146,-114 150.54,-115.77 155.28,-117.55 160.04,-119.31"/>
<polygon fill="#63b8ff" stroke="#63b8ff" points="159.2,-122.73 169.79,-122.88 161.6,-116.16 159.2,-122.73"/>
</a>
</g>
</g>
<!-- Node3 -->
<g id="Node000003" class="node">
<title>Node3</title>
<g id="a_Node000003"><a xlink:href="merge__cast_8h.html#a205af11d07be8d10770e7392817fc5c3" target="_top" xlink:title=" ">
<polygon fill="white" stroke="#666666" points="252,-104.5 177,-104.5 177,-85.5 252,-85.5 252,-104.5"/>
<text text-anchor="middle" x="214.5" y="-92.5" font-family="Helvetica,sans-Serif" font-size="10.00">merge_data</text>
</a>
</g>
</g>
<!-- Node1&#45;&gt;Node3 -->
<g id="edge2_Node000001_Node000003" class="edge">
<title>Node1&#45;&gt;Node3</title>
<g id="a_edge2_Node000001_Node000003"><a xlink:title=" ">
<path fill="none" stroke="#63b8ff" d="M110.2,-82.54C128.5,-84.75 148.76,-87.19 166.46,-89.33"/>
<polygon fill="#63b8ff" stroke="#63b8ff" points="166.2,-92.82 176.55,-90.54 167.04,-85.87 166.2,-92.82"/>
</a>
</g>
</g>
<!-- Node4 -->
<g id="Node000004" class="node">
<title>Node4</title>
<g id="a_Node000004"><a xlink:href="classselection__template.html#a84df199f6022f2a5d27979d43de51547" target="_top" xlink:title="Sums particles into a combined particle.">
<polygon fill="white" stroke="#666666" points="283,-67.5 146,-67.5 146,-48.5 283,-48.5 283,-67.5"/>
<text text-anchor="middle" x="214.5" y="-55.5" font-family="Helvetica,sans-Serif" font-size="10.00">selection_template::sum</text>
</a>
</g>
</g>
<!-- Node1&#45;&gt;Node4 -->
<g id="edge3_Node000001_Node000004" class="edge">
<title>Node1&#45;&gt;Node4</title>
<g id="a_edge3_Node000001_Node000004"><a xlink:title=" ">
<path fill="none" stroke="#63b8ff" d="M110.2,-69.81C118.45,-68.86 127.1,-67.87 135.74,-66.89"/>
<polygon fill="#63b8ff" stroke="#63b8ff" points="136.3,-70.35 145.84,-65.73 135.51,-63.39 136.3,-70.35"/>
</a>
</g>
</g>
<!-- Node5 -->
<g id="Node000005" class="node">
<title>Node5</title>
<g id="a_Node000005"><a xlink:href="classselection__template.html#acfb4c50041c70205e08f6ccb4a850979" target="_top" xlink:title="Converts a map to a vector.">
<polygon fill="white" stroke="#666666" points="269.5,-30 159.5,-30 159.5,0 269.5,0 269.5,-30"/>
<text text-anchor="start" x="167.5" y="-18" font-family="Helvetica,sans-Serif" font-size="10.00">selection_template</text>
<text text-anchor="middle" x="214.5" y="-7" font-family="Helvetica,sans-Serif" font-size="10.00">::vectorize</text>
</a>
</g>
</g>
<!-- Node1&#45;&gt;Node5 -->
<g id="edge4_Node000001_Node000005" class="edge">
<title>Node1&#45;&gt;Node5</title>
<g id="a_edge4_Node000001_Node000005"><a xlink:title=" ">
<path fill="none" stroke="#63b8ff" d="M93.13,-60.9C109.33,-54.37 128.57,-46.71 146,-40 151.45,-37.9 157.17,-35.73 162.86,-33.59"/>
<polygon fill="#63b8ff" stroke="#63b8ff" points="164.24,-36.81 172.39,-30.03 161.79,-30.26 164.24,-36.81"/>
</a>
</g>
</g>
</g>
</svg>
