<?xml version="1.0" encoding="UTF-8" standalone="no"?>
<!DOCTYPE svg PUBLIC "-//W3C//DTD SVG 1.1//EN"
 "http://www.w3.org/Graphics/SVG/1.1/DTD/svg11.dtd">
<!-- Generated by graphviz version 2.43.0 (0)
 -->
<!-- Title: model_template::register_module Pages: 1 -->
<svg width="692pt" height="94pt"
 viewBox="0.00 0.00 692.00 93.50" xmlns="http://www.w3.org/2000/svg" xmlns:xlink="http://www.w3.org/1999/xlink">
<g id="graph0" class="graph" transform="scale(1 1) rotate(0) translate(4 89.5)">
<title>model_template::register_module</title>
<!-- Node1 -->
<g id="Node000001" class="node">
<title>Node1</title>
<g id="a_Node000001"><a xlink:title="Registers a PyTorch sequential module with the model.">
<polygon fill="#999999" stroke="#666666" points="684,-51 544,-51 544,-21 684,-21 684,-51"/>
<text text-anchor="start" x="552" y="-39" font-family="Helvetica,sans-Serif" font-size="10.00">model_template::register</text>
<text text-anchor="middle" x="614" y="-28" font-family="Helvetica,sans-Serif" font-size="10.00">_module</text>
</a>
</g>
</g>
<!-- Node2 -->
<g id="Node000002" class="node">
<title>Node2</title>
<g id="a_Node000002"><a xlink:href="classgrift.html#a8c3babc97f67eedd8105da8e245bdcef" target="_top" xlink:title=" ">
<polygon fill="white" stroke="#666666" points="456,-67.5 394,-67.5 394,-48.5 456,-48.5 456,-67.5"/>
<text text-anchor="middle" x="425" y="-55.5" font-family="Helvetica,sans-Serif" font-size="10.00">grift::grift</text>
</a>
</g>
</g>
<!-- Node1&#45;&gt;Node2 -->
<g id="edge1_Node000001_Node000002" class="edge">
<title>Node1&#45;&gt;Node2</title>
<g id="a_edge1_Node000001_Node000002"><a xlink:title=" ">
<path fill="none" stroke="#63b8ff" d="M533.89,-45.31C506.45,-48.54 477.32,-51.96 456.26,-54.44"/>
<polygon fill="#63b8ff" stroke="#63b8ff" points="534.38,-48.77 543.9,-44.13 533.56,-41.82 534.38,-48.77"/>
</a>
</g>
</g>
<!-- Node6 -->
<g id="Node000006" class="node">
<title>Node6</title>
<g id="a_Node000006"><a xlink:href="classrecursivegraphneuralnetwork.html#aa3a248bd7e709fbd082389be9a37c57c" target="_top" xlink:title=" ">
<polygon fill="white" stroke="#666666" points="508,-30 342,-30 342,0 508,0 508,-30"/>
<text text-anchor="start" x="350" y="-18" font-family="Helvetica,sans-Serif" font-size="10.00">recursivegraphneuralnetwork</text>
<text text-anchor="middle" x="425" y="-7" font-family="Helvetica,sans-Serif" font-size="10.00">::recursivegraphneuralnetwork</text>
</a>
</g>
</g>
<!-- Node1&#45;&gt;Node6 -->
<g id="edge7_Node000001_Node000006" class="edge">
<title>Node1&#45;&gt;Node6</title>
<g id="a_edge7_Node000001_Node000006"><a xlink:title=" ">
<path fill="none" stroke="#63b8ff" d="M533.96,-27.12C525.41,-26.16 516.69,-25.18 508.11,-24.22"/>
<polygon fill="#63b8ff" stroke="#63b8ff" points="533.57,-30.6 543.9,-28.24 534.35,-23.65 533.57,-30.6"/>
</a>
</g>
</g>
<!-- Node3 -->
<g id="Node000003" class="node">
<title>Node3</title>
<g id="a_Node000003"><a xlink:href="classgrift.html#aaa79c30c964e2edac2d6d49f2f95b9a3" target="_top" xlink:title="Creates a clone of the model template.">
<polygon fill="white" stroke="#666666" points="306,-67.5 238,-67.5 238,-48.5 306,-48.5 306,-67.5"/>
<text text-anchor="middle" x="272" y="-55.5" font-family="Helvetica,sans-Serif" font-size="10.00">grift::clone</text>
</a>
</g>
</g>
<!-- Node2&#45;&gt;Node3 -->
<g id="edge2_Node000002_Node000003" class="edge">
<title>Node2&#45;&gt;Node3</title>
<g id="a_edge2_Node000002_Node000003"><a xlink:title=" ">
<path fill="none" stroke="#63b8ff" d="M383.49,-58C359.24,-58 328.81,-58 306.02,-58"/>
<polygon fill="#63b8ff" stroke="#63b8ff" points="383.81,-61.5 393.81,-58 383.81,-54.5 383.81,-61.5"/>
</a>
</g>
</g>
<!-- Node4 -->
<g id="Node000004" class="node">
<title>Node4</title>
<g id="a_Node000004"><a xlink:href="classgrift.html#a72f7575fbd1d744d4f9053e5b8b7ee38" target="_top" xlink:title="Virtual forward pass method for a single graph.">
<polygon fill="white" stroke="#666666" points="202,-67.5 122,-67.5 122,-48.5 202,-48.5 202,-67.5"/>
<text text-anchor="middle" x="162" y="-55.5" font-family="Helvetica,sans-Serif" font-size="10.00">grift::forward</text>
</a>
</g>
</g>
<!-- Node3&#45;&gt;Node4 -->
<g id="edge3_Node000003_Node000004" class="edge">
<title>Node3&#45;&gt;Node4</title>
<g id="a_edge3_Node000003_Node000004"><a xlink:title=" ">
<path fill="none" stroke="#63b8ff" d="M227.64,-58C219.18,-58 210.36,-58 202.05,-58"/>
<polygon fill="#63b8ff" stroke="#63b8ff" points="227.72,-61.5 237.72,-58 227.72,-54.5 227.72,-61.5"/>
</a>
</g>
</g>
<!-- Node4&#45;&gt;Node4 -->
<g id="edge4_Node000004_Node000004" class="edge">
<title>Node4&#45;&gt;Node4</title>
<g id="a_edge4_Node000004_Node000004"><a xlink:title=" ">
<path fill="none" stroke="#63b8ff" d="M182.37,-77.05C181.01,-81.88 174.22,-85.5 162,-85.5 142.45,-85.5 136.8,-76.23 145.05,-67.58"/>
<polygon fill="#63b8ff" stroke="#63b8ff" points="185.64,-75.8 178.95,-67.58 179.05,-78.18 185.64,-75.8"/>
</a>
</g>
</g>
<!-- Node5 -->
<g id="Node000005" class="node">
<title>Node5</title>
<g id="a_Node000005"><a xlink:href="classgrift.html#ad610edcd0cab14b57197a846ab8a8caf" target="_top" xlink:title=" ">
<polygon fill="white" stroke="#666666" points="86,-67.5 0,-67.5 0,-48.5 86,-48.5 86,-67.5"/>
<text text-anchor="middle" x="43" y="-55.5" font-family="Helvetica,sans-Serif" font-size="10.00">grift::message</text>
</a>
</g>
</g>
<!-- Node4&#45;&gt;Node5 -->
<g id="edge5_Node000004_Node000005" class="edge">
<title>Node4&#45;&gt;Node5</title>
<g id="a_edge5_Node000004_Node000005"><a xlink:title=" ">
<path fill="none" stroke="#63b8ff" d="M111.59,-51.32C103.14,-51.19 94.43,-51.24 86.19,-51.49"/>
<polygon fill="#63b8ff" stroke="#63b8ff" points="111.63,-54.83 121.72,-51.58 111.81,-47.83 111.63,-54.83"/>
</a>
</g>
</g>
<!-- Node5&#45;&gt;Node4 -->
<g id="edge6_Node000005_Node000004" class="edge">
<title>Node5&#45;&gt;Node4</title>
<g id="a_edge6_Node000005_Node000004"><a xlink:title=" ">
<path fill="none" stroke="#63b8ff" d="M96.42,-64.72C104.92,-64.81 113.6,-64.71 121.72,-64.42"/>
<polygon fill="#63b8ff" stroke="#63b8ff" points="96.26,-61.21 86.19,-64.51 96.12,-68.21 96.26,-61.21"/>
</a>
</g>
</g>
</g>
</svg>
