<?xml version="1.0" encoding="UTF-8" standalone="no"?>
<!DOCTYPE svg PUBLIC "-//W3C//DTD SVG 1.1//EN"
 "http://www.w3.org/Graphics/SVG/1.1/DTD/svg11.dtd">
<!-- Generated by graphviz version 2.43.0 (0)
 -->
<!-- Title: tools::has_string Pages: 1 -->
<!--zoomable 393 -->

<svg id="main" version="1.1" xmlns="http://www.w3.org/2000/svg" xmlns:xlink="http://www.w3.org/1999/xlink" xml:space="preserve" onload="init(evt)">
<style type="text/css"><![CDATA[
.node, .edge {opacity: 0.7;}
.node.selected, .edge.selected {opacity: 1;}
.edge:hover path { stroke: red; }
.edge:hover polygon { stroke: red; fill: red; }
]]></style>

<defs>
  <circle id="rim" cx="0" cy="0" r="7"/>
  <circle id="rim2" cx="0" cy="0" r="3.5"/>
  <g id="zoomPlus">
    <use xlink:href="#rim" fill="#404040"><set attributeName="fill" to="#808080" begin="zoomplus.mouseover" end="zoomplus.mouseout"/></use>
    <path d="M-4,0h8M0,-4v8" fill="none" stroke="white" stroke-width="1.5" pointer-events="none"/>
  </g>
  <g id="zoomMin">
    <use xlink:href="#rim" fill="#404040"><set attributeName="fill" to="#808080" begin="zoomminus.mouseover" end="zoomminus.mouseout"/></use>
    <path d="M-4,0h8" fill="none" stroke="white" stroke-width="1.5" pointer-events="none"/>
  </g>
  <g id="arrowUp" transform="translate(30 24)">
    <use xlink:href="#rim"/>
    <path pointer-events="none" fill="none" stroke="white" stroke-width="1.5" d="M0,-3.0v7 M-2.5,-0.5L0,-3.0L2.5,-0.5"/>
  </g>
  <g id="arrowRight" transform="rotate(90) translate(36 -43)">
    <use xlink:href="#rim"/>
    <path pointer-events="none" fill="none" stroke="white" stroke-width="1.5" d="M0,-3.0v7 M-2.5,-0.5L0,-3.0L2.5,-0.5"/>
  </g>
  <g id="arrowDown" transform="rotate(180) translate(-30 -48)">
    <use xlink:href="#rim"/>
    <path pointer-events="none" fill="none" stroke="white" stroke-width="1.5" d="M0,-3.0v7 M-2.5,-0.5L0,-3.0L2.5,-0.5"/>
  </g>
  <g id="arrowLeft" transform="rotate(270) translate(-36 17)">
    <use xlink:href="#rim"/>
    <path pointer-events="none" fill="none" stroke="white" stroke-width="1.5" d="M0,-3.0v7 M-2.5,-0.5L0,-3.0L2.5,-0.5"/>
  </g>
  <g id="resetDef">
    <use xlink:href="#rim2" fill="#404040"><set attributeName="fill" to="#808080" begin="reset.mouseover" end="reset.mouseout"/></use>
  </g>
</defs>
<script type="application/ecmascript">
var viewWidth = 797;
var viewHeight = 393;
var sectionId = 'dynsection-23';
</script>
<script type="application/ecmascript" xlink:href="svg.min.js"/>
<svg id="graph" class="graph">
<g id="viewport">
<title>tools::has_string</title>
<!-- Node1 -->
<g id="Node000001" class="node">
<title>Node1</title>
<g id="a_Node000001"><a xlink:title="Checks if a string contains a specific substring.">
<polygon fill="#999999" stroke="#666666" points="789,-213 692,-213 692,-194 789,-194 789,-213"/>
<text text-anchor="middle" x="740.5" y="-201" font-family="Helvetica,sans-Serif" font-size="10.00">tools::has_string</text>
</a>
</g>
</g>
<!-- Node2 -->
<g id="Node000002" class="node">
<title>Node2</title>
<g id="a_Node000002"><a xlink:href="classanalysis.html#a0cbe44c90dab45066bfe074e506c5d8d" target="_top" xlink:title="&lt; Private access specifier for the following members.">
<polygon fill="white" stroke="#666666" points="651,-358 526,-358 526,-339 651,-339 651,-358"/>
<text text-anchor="middle" x="588.5" y="-346" font-family="Helvetica,sans-Serif" font-size="10.00">analysis::check_cache</text>
</a>
</g>
</g>
<!-- Node1&#45;&gt;Node2 -->
<g id="edge1_Node000001_Node000002" class="edge">
<title>Node1&#45;&gt;Node2</title>
<g id="a_edge1_Node000001_Node000002"><a xlink:title=" ">
<path fill="none" stroke="#63b8ff" d="M726.95,-221.42C711.66,-242.5 684.35,-277.87 656,-303.5 640.49,-317.52 620.32,-330.56 606.28,-338.96"/>
<polygon fill="#63b8ff" stroke="#63b8ff" points="729.94,-223.25 732.91,-213.08 724.25,-219.18 729.94,-223.25"/>
</a>
</g>
</g>
<!-- Node5 -->
<g id="Node000005" class="node">
<title>Node5</title>
<g id="a_Node000005"><a xlink:href="classmeta.html#aac47e377d2bbda2fac5a8cfc5ada7243" target="_top" xlink:title="Internal method to compile or process metadata after parsing.">
<polygon fill="white" stroke="#666666" points="634,-213 543,-213 543,-194 634,-194 634,-213"/>
<text text-anchor="middle" x="588.5" y="-201" font-family="Helvetica,sans-Serif" font-size="10.00">meta::compiler</text>
</a>
</g>
</g>
<!-- Node1&#45;&gt;Node5 -->
<g id="edge5_Node000001_Node000005" class="edge">
<title>Node1&#45;&gt;Node5</title>
<g id="a_edge5_Node000001_Node000005"><a xlink:title=" ">
<path fill="none" stroke="#63b8ff" d="M681.48,-203.5C665.75,-203.5 648.98,-203.5 634.12,-203.5"/>
<polygon fill="#63b8ff" stroke="#63b8ff" points="681.63,-207 691.63,-203.5 681.63,-200 681.63,-207"/>
</a>
</g>
</g>
<!-- Node8 -->
<g id="Node000008" class="node">
<title>Node8</title>
<g id="a_Node000008"><a xlink:href="classmetrics.html#a160fdefa51ba1fd2135307d3722acc1d" target="_top" xlink:title=" ">
<polygon fill="white" stroke="#666666" points="656,-294 521,-294 521,-275 656,-275 656,-294"/>
<text text-anchor="middle" x="588.5" y="-282" font-family="Helvetica,sans-Serif" font-size="10.00">metrics::generic_painter</text>
</a>
</g>
</g>
<!-- Node1&#45;&gt;Node8 -->
<g id="edge8_Node000001_Node000008" class="edge">
<title>Node1&#45;&gt;Node8</title>
<g id="a_edge8_Node000001_Node000008"><a xlink:title=" ">
<path fill="none" stroke="#63b8ff" d="M719.41,-219.36C703.03,-231.75 678.94,-248.77 656,-260.5 644.96,-266.14 632.28,-271.07 620.98,-274.97"/>
<polygon fill="#63b8ff" stroke="#63b8ff" points="721.86,-221.89 727.66,-213.02 717.6,-216.34 721.86,-221.89"/>
</a>
</g>
</g>
<!-- Node12 -->
<g id="Node000012" class="node">
<title>Node12</title>
<g id="a_Node000012"><a xlink:href="classdataloader.html#a52b546c96dec81d3860fb7e6268b097a" target="_top" xlink:title=" ">
<polygon fill="white" stroke="#666666" points="643.5,-175.5 533.5,-175.5 533.5,-145.5 643.5,-145.5 643.5,-175.5"/>
<text text-anchor="start" x="541.5" y="-163.5" font-family="Helvetica,sans-Serif" font-size="10.00">dataloader::restore</text>
<text text-anchor="middle" x="588.5" y="-152.5" font-family="Helvetica,sans-Serif" font-size="10.00">_graphs_</text>
</a>
</g>
</g>
<!-- Node1&#45;&gt;Node12 -->
<g id="edge13_Node000001_Node000012" class="edge">
<title>Node1&#45;&gt;Node12</title>
<g id="a_edge13_Node000001_Node000012"><a xlink:title=" ">
<path fill="none" stroke="#63b8ff" d="M696.52,-191.18C679.48,-186.29 659.72,-180.63 641.85,-175.51"/>
<polygon fill="#63b8ff" stroke="#63b8ff" points="695.63,-194.57 706.21,-193.96 697.56,-187.84 695.63,-194.57"/>
</a>
</g>
</g>
<!-- Node16 -->
<g id="Node000016" class="node">
<title>Node16</title>
<g id="a_Node000016"><a xlink:href="classmeta.html#a24d8657dbb9d0d8903725ee01fe22c14" target="_top" xlink:title="Scans sum of weights (SoW) information from a ROOT object.">
<polygon fill="white" stroke="#666666" points="636,-251 541,-251 541,-232 636,-232 636,-251"/>
<text text-anchor="middle" x="588.5" y="-239" font-family="Helvetica,sans-Serif" font-size="10.00">meta::scan_sow</text>
</a>
</g>
</g>
<!-- Node1&#45;&gt;Node16 -->
<g id="edge17_Node000001_Node000016" class="edge">
<title>Node1&#45;&gt;Node16</title>
<g id="a_edge17_Node000001_Node000016"><a xlink:title=" ">
<path fill="none" stroke="#63b8ff" d="M691.69,-215.61C670.8,-220.9 646.65,-227.02 627.08,-231.98"/>
<polygon fill="#63b8ff" stroke="#63b8ff" points="692.81,-218.94 701.65,-213.09 691.1,-212.15 692.81,-218.94"/>
</a>
</g>
</g>
<!-- Node17 -->
<g id="Node000017" class="node">
<title>Node17</title>
<g id="a_Node000017"><a xlink:href="classmodel__template.html#ad6ea8f7ffac83bd49123286ed4cd9fda" target="_top" xlink:title="Static setter for the device property.">
<polygon fill="white" stroke="#666666" points="647.5,-118.5 529.5,-118.5 529.5,-88.5 647.5,-88.5 647.5,-118.5"/>
<text text-anchor="start" x="537.5" y="-106.5" font-family="Helvetica,sans-Serif" font-size="10.00">model_template::set</text>
<text text-anchor="middle" x="588.5" y="-95.5" font-family="Helvetica,sans-Serif" font-size="10.00">_device</text>
</a>
</g>
</g>
<!-- Node1&#45;&gt;Node17 -->
<g id="edge19_Node000001_Node000017" class="edge">
<title>Node1&#45;&gt;Node17</title>
<g id="a_edge19_Node000001_Node000017"><a xlink:title=" ">
<path fill="none" stroke="#63b8ff" d="M721.28,-186.96C704.92,-172.59 679.88,-151.75 656,-136.5 645.79,-129.98 634.11,-123.8 623.42,-118.58"/>
<polygon fill="#63b8ff" stroke="#63b8ff" points="719.19,-189.79 728.99,-193.82 723.85,-184.56 719.19,-189.79"/>
</a>
</g>
</g>
<!-- Node19 -->
<g id="Node000019" class="node">
<title>Node19</title>
<g id="a_Node000019"><a xlink:href="classmetric__template.html#ad34828d0d75d5b0a656ef881620fbc7c" target="_top" xlink:title=" ">
<polygon fill="white" stroke="#666666" points="648,-52.5 529,-52.5 529,-22.5 648,-22.5 648,-52.5"/>
<text text-anchor="start" x="537" y="-40.5" font-family="Helvetica,sans-Serif" font-size="10.00">metric_template::set</text>
<text text-anchor="middle" x="588.5" y="-29.5" font-family="Helvetica,sans-Serif" font-size="10.00">_run_name</text>
</a>
</g>
</g>
<!-- Node1&#45;&gt;Node19 -->
<g id="edge21_Node000001_Node000019" class="edge">
<title>Node1&#45;&gt;Node19</title>
<g id="a_edge21_Node000001_Node000019"><a xlink:title=" ">
<path fill="none" stroke="#63b8ff" d="M730.07,-184.7C716.39,-158.77 689.04,-111.58 656,-79.5 645.22,-69.04 631.43,-59.81 619.2,-52.69"/>
<polygon fill="#63b8ff" stroke="#63b8ff" points="727.08,-186.54 734.78,-193.82 733.3,-183.33 727.08,-186.54"/>
</a>
</g>
</g>
<!-- Node3 -->
<g id="Node000003" class="node">
<title>Node3</title>
<g id="a_Node000003"><a xlink:href="classanalysis.html#a401745bb4bcae03160ffa0b5df2887e7" target="_top" xlink:title="Starts the analysis execution.">
<polygon fill="white" stroke="#666666" points="457.5,-385 371.5,-385 371.5,-366 457.5,-366 457.5,-385"/>
<text text-anchor="middle" x="414.5" y="-373" font-family="Helvetica,sans-Serif" font-size="10.00">analysis::start</text>
</a>
</g>
</g>
<!-- Node2&#45;&gt;Node3 -->
<g id="edge2_Node000002_Node000003" class="edge">
<title>Node2&#45;&gt;Node3</title>
<g id="a_edge2_Node000002_Node000003"><a xlink:title=" ">
<path fill="none" stroke="#63b8ff" d="M516.78,-359.6C496.65,-362.76 475.36,-366.1 457.53,-368.9"/>
<polygon fill="#63b8ff" stroke="#63b8ff" points="517.52,-363.03 526.86,-358.02 516.44,-356.11 517.52,-363.03"/>
</a>
</g>
</g>
<!-- Node4 -->
<g id="Node000004" class="node">
<title>Node4</title>
<g id="a_Node000004"><a xlink:href="classanalysis.html#aa5f5f1de2fe05c9fb8c5c0fffbf7b938" target="_top" xlink:title="Fetches tags, possibly related to data versions, processing stages, or k&#45;folds.">
<polygon fill="white" stroke="#666666" points="297.5,-385 188.5,-385 188.5,-366 297.5,-366 297.5,-385"/>
<text text-anchor="middle" x="243" y="-373" font-family="Helvetica,sans-Serif" font-size="10.00">analysis::fetchtags</text>
</a>
</g>
</g>
<!-- Node3&#45;&gt;Node4 -->
<g id="edge3_Node000003_Node000004" class="edge">
<title>Node3&#45;&gt;Node4</title>
<g id="a_edge3_Node000003_Node000004"><a xlink:title=" ">
<path fill="none" stroke="#63b8ff" d="M360.94,-369.2C340.82,-368.61 317.86,-368.6 297.65,-369.17"/>
<polygon fill="#63b8ff" stroke="#63b8ff" points="361.05,-372.71 371.17,-369.57 361.3,-365.71 361.05,-372.71"/>
</a>
</g>
</g>
<!-- Node4&#45;&gt;Node3 -->
<g id="edge4_Node000004_Node000003" class="edge">
<title>Node4&#45;&gt;Node3</title>
<g id="a_edge4_Node000004_Node000003"><a xlink:title=" ">
<path fill="none" stroke="#63b8ff" d="M307.86,-382.06C329.02,-382.45 352.04,-382.24 371.17,-381.43"/>
<polygon fill="#63b8ff" stroke="#63b8ff" points="307.73,-378.56 297.65,-381.83 307.57,-385.56 307.73,-378.56"/>
</a>
</g>
</g>
<!-- Node6 -->
<g id="Node000006" class="node">
<title>Node6</title>
<g id="a_Node000006"><a xlink:href="classmeta.html#aaed15ab5be8f7a86c79373f24abfc952" target="_top" xlink:title="Parses a JSON string to extract metadata.">
<polygon fill="white" stroke="#666666" points="465,-213 364,-213 364,-194 465,-194 465,-213"/>
<text text-anchor="middle" x="414.5" y="-201" font-family="Helvetica,sans-Serif" font-size="10.00">meta::parse_json</text>
</a>
</g>
</g>
<!-- Node5&#45;&gt;Node6 -->
<g id="edge6_Node000005_Node000006" class="edge">
<title>Node5&#45;&gt;Node6</title>
<g id="a_edge6_Node000005_Node000006"><a xlink:title=" ">
<path fill="none" stroke="#63b8ff" d="M532.72,-203.5C511.04,-203.5 486.31,-203.5 465.17,-203.5"/>
<polygon fill="#63b8ff" stroke="#63b8ff" points="532.76,-207 542.76,-203.5 532.76,-200 532.76,-207"/>
</a>
</g>
</g>
<!-- Node7 -->
<g id="Node000007" class="node">
<title>Node7</title>
<g id="a_Node000007"><a xlink:href="classmeta.html#ac20aa6b655d77e02eb08aabe78b6af7e" target="_top" xlink:title="Scans data from a generic ROOT object (e.g., TTree, TH1).">
<polygon fill="white" stroke="#666666" points="292,-232 194,-232 194,-213 292,-213 292,-232"/>
<text text-anchor="middle" x="243" y="-220" font-family="Helvetica,sans-Serif" font-size="10.00">meta::scan_data</text>
</a>
</g>
</g>
<!-- Node6&#45;&gt;Node7 -->
<g id="edge7_Node000006_Node000007" class="edge">
<title>Node6&#45;&gt;Node7</title>
<g id="a_edge7_Node000006_Node000007"><a xlink:title=" ">
<path fill="none" stroke="#63b8ff" d="M353.56,-210.22C333.42,-212.48 311.23,-214.96 292.13,-217.11"/>
<polygon fill="#63b8ff" stroke="#63b8ff" points="354.01,-213.69 363.56,-209.1 353.23,-206.73 354.01,-213.69"/>
</a>
</g>
</g>
<!-- Node9 -->
<g id="Node000009" class="node">
<title>Node9</title>
<g id="a_Node000009"><a xlink:href="classmetrics.html#a2ed5da3a9b6c0e0e9b711afafaeed7ab" target="_top" xlink:title=" ">
<polygon fill="white" stroke="#666666" points="482.5,-347.5 346.5,-347.5 346.5,-317.5 482.5,-317.5 482.5,-347.5"/>
<text text-anchor="start" x="354.5" y="-335.5" font-family="Helvetica,sans-Serif" font-size="10.00">metrics::dump_accuracy</text>
<text text-anchor="middle" x="414.5" y="-324.5" font-family="Helvetica,sans-Serif" font-size="10.00">_plots</text>
</a>
</g>
</g>
<!-- Node8&#45;&gt;Node9 -->
<g id="edge9_Node000008_Node000009" class="edge">
<title>Node8&#45;&gt;Node9</title>
<g id="a_edge9_Node000008_Node000009"><a xlink:title=" ">
<path fill="none" stroke="#63b8ff" d="M543.46,-296.79C520.92,-303.08 493.29,-310.79 469.48,-317.44"/>
<polygon fill="#63b8ff" stroke="#63b8ff" points="544.42,-300.16 553.11,-294.1 542.53,-293.42 544.42,-300.16"/>
</a>
</g>
</g>
<!-- Node11 -->
<g id="Node000011" class="node">
<title>Node11</title>
<g id="a_Node000011"><a xlink:href="classmetrics.html#a85ac60407efe672dd1ba1c067a06afb2" target="_top" xlink:title=" ">
<polygon fill="white" stroke="#666666" points="470.5,-299.5 358.5,-299.5 358.5,-269.5 470.5,-269.5 470.5,-299.5"/>
<text text-anchor="start" x="366.5" y="-287.5" font-family="Helvetica,sans-Serif" font-size="10.00">metrics::dump_loss</text>
<text text-anchor="middle" x="414.5" y="-276.5" font-family="Helvetica,sans-Serif" font-size="10.00">_plots</text>
</a>
</g>
</g>
<!-- Node8&#45;&gt;Node11 -->
<g id="edge11_Node000008_Node000011" class="edge">
<title>Node8&#45;&gt;Node11</title>
<g id="a_edge11_Node000008_Node000011"><a xlink:title=" ">
<path fill="none" stroke="#63b8ff" d="M510.35,-284.5C496.96,-284.5 483.29,-284.5 470.64,-284.5"/>
<polygon fill="#63b8ff" stroke="#63b8ff" points="510.51,-288 520.51,-284.5 510.51,-281 510.51,-288"/>
</a>
</g>
</g>
<!-- Node10 -->
<g id="Node000010" class="node">
<title>Node10</title>
<g id="a_Node000010"><a xlink:href="classmetrics.html#a8a0b4107864ac5f548ed37a9a4a9372f" target="_top" xlink:title="Dumps all metric plots for a specific k&#45;fold.">
<polygon fill="white" stroke="#666666" points="301,-318 185,-318 185,-299 301,-299 301,-318"/>
<text text-anchor="middle" x="243" y="-306" font-family="Helvetica,sans-Serif" font-size="10.00">metrics::dump_plots</text>
</a>
</g>
</g>
<!-- Node9&#45;&gt;Node10 -->
<g id="edge10_Node000009_Node000010" class="edge">
<title>Node9&#45;&gt;Node10</title>
<g id="a_edge10_Node000009_Node000010"><a xlink:title=" ">
<path fill="none" stroke="#63b8ff" d="M335.83,-321.5C324.15,-319.85 312.29,-318.17 301.15,-316.59"/>
<polygon fill="#63b8ff" stroke="#63b8ff" points="335.63,-325.01 346.02,-322.95 336.61,-318.08 335.63,-325.01"/>
</a>
</g>
</g>
<!-- Node11&#45;&gt;Node10 -->
<g id="edge12_Node000011_Node000010" class="edge">
<title>Node11&#45;&gt;Node10</title>
<g id="a_edge12_Node000011_Node000010"><a xlink:title=" ">
<path fill="none" stroke="#63b8ff" d="M348.38,-293.72C332.8,-295.93 316.28,-298.27 301.08,-300.42"/>
<polygon fill="#63b8ff" stroke="#63b8ff" points="349.06,-297.16 358.47,-292.29 348.08,-290.23 349.06,-297.16"/>
</a>
</g>
</g>
<!-- Node13 -->
<g id="Node000013" class="node">
<title>Node13</title>
<g id="a_Node000013"><a xlink:href="classdataloader.html#a04c94d9be735c32b80b6599c6bd993b4" target="_top" xlink:title=" ">
<polygon fill="white" stroke="#666666" points="485,-176 344,-176 344,-157 485,-157 485,-176"/>
<text text-anchor="middle" x="414.5" y="-164" font-family="Helvetica,sans-Serif" font-size="10.00">dataloader::dump_graphs</text>
</a>
</g>
</g>
<!-- Node12&#45;&gt;Node13 -->
<g id="edge14_Node000012_Node000013" class="edge">
<title>Node12&#45;&gt;Node13</title>
<g id="a_edge14_Node000012_Node000013"><a xlink:title=" ">
<path fill="none" stroke="#63b8ff" d="M522.87,-162.75C510.51,-163.19 497.53,-163.64 485.03,-164.07"/>
<polygon fill="#63b8ff" stroke="#63b8ff" points="523.21,-166.25 533.08,-162.4 522.96,-159.25 523.21,-166.25"/>
</a>
</g>
</g>
<!-- Node14 -->
<g id="Node000014" class="node">
<title>Node14</title>
<g id="a_Node000014"><a xlink:href="classdataloader.html#aed6ec872879a44ecfa9ae1c2188690a8" target="_top" xlink:title=" ">
<polygon fill="white" stroke="#666666" points="469.5,-138.5 359.5,-138.5 359.5,-108.5 469.5,-108.5 469.5,-138.5"/>
<text text-anchor="start" x="367.5" y="-126.5" font-family="Helvetica,sans-Serif" font-size="10.00">dataloader::restore</text>
<text text-anchor="middle" x="414.5" y="-115.5" font-family="Helvetica,sans-Serif" font-size="10.00">_graphs</text>
</a>
</g>
</g>
<!-- Node12&#45;&gt;Node14 -->
<g id="edge15_Node000012_Node000014" class="edge">
<title>Node12&#45;&gt;Node14</title>
<g id="a_edge15_Node000012_Node000014"><a xlink:title=" ">
<path fill="none" stroke="#63b8ff" d="M522.9,-146.6C505.33,-142.82 486.49,-138.77 469.57,-135.13"/>
<polygon fill="#63b8ff" stroke="#63b8ff" points="522.57,-150.11 533.08,-148.79 524.04,-143.27 522.57,-150.11"/>
</a>
</g>
</g>
<!-- Node15 -->
<g id="Node000015" class="node">
<title>Node15</title>
<g id="a_Node000015"><a xlink:href="classdataloader.html#ae3bba702555507d8b6e5567c34d19142" target="_top" xlink:title=" ">
<polygon fill="white" stroke="#666666" points="298,-138.5 188,-138.5 188,-108.5 298,-108.5 298,-138.5"/>
<text text-anchor="start" x="196" y="-126.5" font-family="Helvetica,sans-Serif" font-size="10.00">dataloader::restore</text>
<text text-anchor="middle" x="243" y="-115.5" font-family="Helvetica,sans-Serif" font-size="10.00">_graphs</text>
</a>
</g>
</g>
<!-- Node14&#45;&gt;Node15 -->
<g id="edge16_Node000014_Node000015" class="edge">
<title>Node14&#45;&gt;Node15</title>
<g id="a_edge16_Node000014_Node000015"><a xlink:title=" ">
<path fill="none" stroke="#63b8ff" d="M349.11,-123.5C332.31,-123.5 314.38,-123.5 298.16,-123.5"/>
<polygon fill="#63b8ff" stroke="#63b8ff" points="349.4,-127 359.4,-123.5 349.4,-120 349.4,-127"/>
</a>
</g>
</g>
<!-- Node16&#45;&gt;Node7 -->
<g id="edge18_Node000016_Node000007" class="edge">
<title>Node16&#45;&gt;Node7</title>
<g id="a_edge18_Node000016_Node000007"><a xlink:title=" ">
<path fill="none" stroke="#63b8ff" d="M530.5,-238.35C463.9,-234.66 354.84,-228.63 292.24,-225.17"/>
<polygon fill="#63b8ff" stroke="#63b8ff" points="530.64,-241.86 540.82,-238.92 531.03,-234.87 530.64,-241.86"/>
</a>
</g>
</g>
<!-- Node18 -->
<g id="Node000018" class="node">
<title>Node18</title>
<g id="a_Node000018"><a xlink:href="classmodel__template.html#af47db8a6a8514fda6e3b714813c07f6d" target="_top" xlink:title="Constructor for the model_template class.">
<polygon fill="white" stroke="#666666" points="481.5,-90.5 347.5,-90.5 347.5,-60.5 481.5,-60.5 481.5,-90.5"/>
<text text-anchor="start" x="355.5" y="-78.5" font-family="Helvetica,sans-Serif" font-size="10.00">model_template::model</text>
<text text-anchor="middle" x="414.5" y="-67.5" font-family="Helvetica,sans-Serif" font-size="10.00">_template</text>
</a>
</g>
</g>
<!-- Node17&#45;&gt;Node18 -->
<g id="edge20_Node000017_Node000018" class="edge">
<title>Node17&#45;&gt;Node18</title>
<g id="a_edge20_Node000017_Node000018"><a xlink:title=" ">
<path fill="none" stroke="#63b8ff" d="M519.06,-92.36C506.74,-90.35 493.92,-88.27 481.67,-86.27"/>
<polygon fill="#63b8ff" stroke="#63b8ff" points="518.84,-95.87 529.27,-94.02 519.96,-88.96 518.84,-95.87"/>
</a>
</g>
</g>
<!-- Node20 -->
<g id="Node000020" class="node">
<title>Node20</title>
<g id="a_Node000020"><a xlink:href="classmetric__template.html#a4f076b39d712cc1ed944d25328bcc271" target="_top" xlink:title=" ">
<polygon fill="white" stroke="#666666" points="482,-42.5 347,-42.5 347,-12.5 482,-12.5 482,-42.5"/>
<text text-anchor="start" x="355" y="-30.5" font-family="Helvetica,sans-Serif" font-size="10.00">metric_template::metric</text>
<text text-anchor="middle" x="414.5" y="-19.5" font-family="Helvetica,sans-Serif" font-size="10.00">_template</text>
</a>
</g>
</g>
<!-- Node19&#45;&gt;Node20 -->
<g id="edge22_Node000019_Node000020" class="edge">
<title>Node19&#45;&gt;Node20</title>
<g id="a_edge22_Node000019_Node000020"><a xlink:title=" ">
<path fill="none" stroke="#63b8ff" d="M518.8,-33.51C506.75,-32.81 494.22,-32.08 482.22,-31.38"/>
<polygon fill="#63b8ff" stroke="#63b8ff" points="518.6,-37 528.79,-34.09 519.01,-30.01 518.6,-37"/>
</a>
</g>
</g>
<!-- Node21 -->
<g id="Node000021" class="node">
<title>Node21</title>
<g id="a_Node000021"><a xlink:href="classmetric__template.html#ad4020c5c29a7944e9cadd244fd11e952" target="_top" xlink:title=" ">
<polygon fill="white" stroke="#666666" points="308,-37 178,-37 178,-18 308,-18 308,-37"/>
<text text-anchor="middle" x="243" y="-25" font-family="Helvetica,sans-Serif" font-size="10.00">metric_template::clone</text>
</a>
</g>
</g>
<!-- Node20&#45;&gt;Node21 -->
<g id="edge23_Node000020_Node000021" class="edge">
<title>Node20&#45;&gt;Node21</title>
<g id="a_edge23_Node000020_Node000021"><a xlink:title=" ">
<path fill="none" stroke="#63b8ff" d="M336.7,-27.5C327.13,-27.5 317.44,-27.5 308.09,-27.5"/>
<polygon fill="#63b8ff" stroke="#63b8ff" points="337,-31 347,-27.5 337,-24 337,-31"/>
</a>
</g>
</g>
<!-- Node22 -->
<g id="Node000022" class="node">
<title>Node22</title>
<g id="a_Node000022"><a xlink:href="classmetric__template.html#a6df640366841f67134f080372ee9a0c5" target="_top" xlink:title=" ">
<polygon fill="white" stroke="#666666" points="136,-56 6,-56 6,-37 136,-37 136,-56"/>
<text text-anchor="middle" x="71" y="-44" font-family="Helvetica,sans-Serif" font-size="10.00">metric_template::clone</text>
</a>
</g>
</g>
<!-- Node21&#45;&gt;Node22 -->
<g id="edge24_Node000021_Node000022" class="edge">
<title>Node21&#45;&gt;Node22</title>
<g id="a_edge24_Node000021_Node000022"><a xlink:title=" ">
<path fill="none" stroke="#63b8ff" d="M167.71,-35.8C157.17,-36.98 146.4,-38.18 136.08,-39.34"/>
<polygon fill="#63b8ff" stroke="#63b8ff" points="168.18,-39.27 177.73,-34.68 167.4,-32.32 168.18,-39.27"/>
</a>
</g>
</g>
<!-- Node23 -->
<g id="Node000023" class="node">
<title>Node23</title>
<g id="a_Node000023"><a xlink:href="classmetric__template.html#a422951eb9279ed05c885795ebeed0e5b" target="_top" xlink:title=" ">
<polygon fill="white" stroke="#666666" points="142,-19 0,-19 0,0 142,0 142,-19"/>
<text text-anchor="middle" x="71" y="-7" font-family="Helvetica,sans-Serif" font-size="10.00">metric_template::execute</text>
</a>
</g>
</g>
<!-- Node21&#45;&gt;Node23 -->
<g id="edge25_Node000021_Node000023" class="edge">
<title>Node21&#45;&gt;Node23</title>
<g id="a_edge25_Node000021_Node000023"><a xlink:title=" ">
<path fill="none" stroke="#63b8ff" d="M167.78,-19.64C159.23,-18.74 150.53,-17.82 142.04,-16.92"/>
<polygon fill="#63b8ff" stroke="#63b8ff" points="167.42,-23.12 177.73,-20.69 168.15,-16.16 167.42,-23.12"/>
</a>
</g>
</g>
</g>
</svg>

<g id="navigator" transform="translate(0 0)" fill="#404254">
  <rect fill="#f2f5e9" fill-opacity="0.5" stroke="#606060" stroke-width=".5" x="0" y="0" width="60" height="60"/>
  <use id="zoomplus" xlink:href="#zoomPlus" x="17" y="9" onmousedown="handleZoom(evt,'in')"/>
  <use id="zoomminus" xlink:href="#zoomMin" x="42" y="9" onmousedown="handleZoom(evt,'out')"/>
  <use id="reset" xlink:href="#resetDef" x="30" y="36" onmousedown="handleReset()"/>
   <use id="arrowup" xlink:href="#arrowUp" x="0" y="0" onmousedown="handlePan(0,-1)"/>
  <use id="arrowright" xlink:href="#arrowRight" x="0" y="0" onmousedown="handlePan(1,0)"/>
  <use id="arrowdown" xlink:href="#arrowDown" x="0" y="0" onmousedown="handlePan(0,1)"/>
  <use id="arrowleft" xlink:href="#arrowLeft" x="0" y="0" onmousedown="handlePan(-1,0)"/>
</g>
<svg viewBox="0 0 15 15" width="100%" height="30px" preserveAspectRatio="xMaxYMin meet">
 <g id="arrow_out" transform="scale(0.3 0.3)">
  <a xlink:href="classtools_ad7229c72cee65da3605c4be82f9b42d4_icgraph_org.svg" target="_base">
   <rect id="button" ry="5" rx="5" y="6" x="6" height="38" width="38"
        fill="#f2f5e9" fill-opacity="0.5" stroke="#606060" stroke-width="1.0"/>
   <path id="arrow"
     d="M 11.500037,31.436501 C 11.940474,20.09759 22.043105,11.32322 32.158766,21.979434 L 37.068811,17.246167 C 37.068811,17.246167 37.088388,32 37.088388,32 L 22.160133,31.978069 C 22.160133,31.978069 26.997745,27.140456 26.997745,27.140456 C 18.528582,18.264221 13.291696,25.230495 11.500037,31.436501 z"
     style="fill:#404040;"/>
  </a>
 </g>
</svg>

<style type='text/css'>
<![CDATA[
[data-mouse-over-selected='false'] { opacity: 0.7; }
[data-mouse-over-selected='true']  { opacity: 1.0; }
]]>
</style>
<script type="application/ecmascript"><![CDATA[
document.addEventListener('DOMContentLoaded', (event) => {
  highlightEdges();
  highlightAdjacentNodes();
});
]]></script>
</svg>
