<?xml version="1.0" encoding="UTF-8" standalone="no"?>
<!DOCTYPE svg PUBLIC "-//W3C//DTD SVG 1.1//EN"
 "http://www.w3.org/Graphics/SVG/1.1/DTD/svg11.dtd">
<!-- Generated by graphviz version 2.43.0 (0)
 -->
<!-- Title: tools::to_string Pages: 1 -->
<svg width="770pt" height="456pt"
 viewBox="0.00 0.00 770.00 455.50" xmlns="http://www.w3.org/2000/svg" xmlns:xlink="http://www.w3.org/1999/xlink">
<g id="graph0" class="graph" transform="scale(1 1) rotate(0) translate(4 451.5)">
<title>tools::to_string</title>
<!-- Node1 -->
<g id="Node000001" class="node">
<title>Node1</title>
<g id="a_Node000001"><a xlink:title="Converts a double value to a string with standard precision.">
<polygon fill="#999999" stroke="#666666" points="762,-217 673,-217 673,-198 762,-198 762,-217"/>
<text text-anchor="middle" x="717.5" y="-205" font-family="Helvetica,sans-Serif" font-size="10.00">tools::to_string</text>
</a>
</g>
</g>
<!-- Node2 -->
<g id="Node000002" class="node">
<title>Node2</title>
<g id="a_Node000002"><a xlink:href="classdataloader.html#ac35a068b2e42d77b1fe986c65e3c2d24" target="_top" xlink:title=" ">
<polygon fill="white" stroke="#666666" points="614,-447.5 495,-447.5 495,-417.5 614,-417.5 614,-447.5"/>
<text text-anchor="start" x="503" y="-435.5" font-family="Helvetica,sans-Serif" font-size="10.00">dataloader::generate</text>
<text text-anchor="middle" x="554.5" y="-424.5" font-family="Helvetica,sans-Serif" font-size="10.00">_kfold_set</text>
</a>
</g>
</g>
<!-- Node1&#45;&gt;Node2 -->
<g id="edge1_Node000001_Node000002" class="edge">
<title>Node1&#45;&gt;Node2</title>
<g id="a_edge1_Node000001_Node000002"><a xlink:title=" ">
<path fill="none" stroke="#63b8ff" d="M714.4,-227.21C709.07,-267.33 691.33,-358.86 637,-408.5 630.47,-414.47 622.52,-418.96 614.18,-422.33"/>
<polygon fill="#63b8ff" stroke="#63b8ff" points="717.9,-227.48 715.62,-217.13 710.95,-226.64 717.9,-227.48"/>
</a>
</g>
</g>
<!-- Node3 -->
<g id="Node000003" class="node">
<title>Node3</title>
<g id="a_Node000003"><a xlink:href="classdataloader.html#a086338e3e9670d253041f54888995611" target="_top" xlink:title=" ">
<polygon fill="white" stroke="#666666" points="614,-399.5 495,-399.5 495,-369.5 614,-369.5 614,-399.5"/>
<text text-anchor="start" x="503" y="-387.5" font-family="Helvetica,sans-Serif" font-size="10.00">dataloader::generate</text>
<text text-anchor="middle" x="554.5" y="-376.5" font-family="Helvetica,sans-Serif" font-size="10.00">_test_set</text>
</a>
</g>
</g>
<!-- Node1&#45;&gt;Node3 -->
<g id="edge2_Node000001_Node000003" class="edge">
<title>Node1&#45;&gt;Node3</title>
<g id="a_edge2_Node000001_Node000003"><a xlink:title=" ">
<path fill="none" stroke="#63b8ff" d="M711.7,-227.12C702.7,-259.71 680.2,-324.92 637,-360.5 630.28,-366.03 622.33,-370.29 614.07,-373.57"/>
<polygon fill="#63b8ff" stroke="#63b8ff" points="715.19,-227.62 714.33,-217.06 708.41,-225.85 715.19,-227.62"/>
</a>
</g>
</g>
<!-- Node4 -->
<g id="Node000004" class="node">
<title>Node4</title>
<g id="a_Node000004"><a xlink:href="classparticle__template.html#a9c586cc0ac38cad5ccacf1bb4985e25b" target="_top" xlink:title="Getter for hash.">
<polygon fill="white" stroke="#666666" points="609,-351.5 500,-351.5 500,-321.5 609,-321.5 609,-351.5"/>
<text text-anchor="start" x="508" y="-339.5" font-family="Helvetica,sans-Serif" font-size="10.00">particle_template::</text>
<text text-anchor="middle" x="554.5" y="-328.5" font-family="Helvetica,sans-Serif" font-size="10.00">get_hash</text>
</a>
</g>
</g>
<!-- Node1&#45;&gt;Node4 -->
<g id="edge3_Node000001_Node000004" class="edge">
<title>Node1&#45;&gt;Node4</title>
<g id="a_edge3_Node000001_Node000004"><a xlink:title=" ">
<path fill="none" stroke="#63b8ff" d="M707.17,-226.26C694.48,-249.85 669.59,-289.98 637,-312.5 628.63,-318.28 618.85,-322.69 609.03,-326.05"/>
<polygon fill="#63b8ff" stroke="#63b8ff" points="710.34,-227.75 711.84,-217.26 704.13,-224.52 710.34,-227.75"/>
</a>
</g>
</g>
<!-- Node8 -->
<g id="Node000008" class="node">
<title>Node8</title>
<g id="a_Node000008"><a xlink:href="classtopefficiency.html#aae4a7f46ed0d168dd12f6ab5e9074a76" target="_top" xlink:title=" ">
<polygon fill="white" stroke="#666666" points="612.5,-303 496.5,-303 496.5,-284 612.5,-284 612.5,-303"/>
<text text-anchor="middle" x="554.5" y="-291" font-family="Helvetica,sans-Serif" font-size="10.00">topefficiency::region</text>
</a>
</g>
</g>
<!-- Node1&#45;&gt;Node8 -->
<g id="edge7_Node000001_Node000008" class="edge">
<title>Node1&#45;&gt;Node8</title>
<g id="a_edge7_Node000001_Node000008"><a xlink:title=" ">
<path fill="none" stroke="#63b8ff" d="M700.82,-224.71C685.87,-240.05 662.01,-261.96 637,-274.5 629.34,-278.34 620.88,-281.42 612.39,-283.89"/>
<polygon fill="#63b8ff" stroke="#63b8ff" points="703.43,-227.03 707.77,-217.37 698.35,-222.22 703.43,-227.03"/>
</a>
</g>
</g>
<!-- Node10 -->
<g id="Node000010" class="node">
<title>Node10</title>
<g id="a_Node000010"><a xlink:href="classdataloader.html#a5fddffa25c532953896e2d1646ca1dc4" target="_top" xlink:title=" ">
<polygon fill="white" stroke="#666666" points="609.5,-265.5 499.5,-265.5 499.5,-235.5 609.5,-235.5 609.5,-265.5"/>
<text text-anchor="start" x="507.5" y="-253.5" font-family="Helvetica,sans-Serif" font-size="10.00">dataloader::restore</text>
<text text-anchor="middle" x="554.5" y="-242.5" font-family="Helvetica,sans-Serif" font-size="10.00">_dataset</text>
</a>
</g>
</g>
<!-- Node1&#45;&gt;Node10 -->
<g id="edge9_Node000001_Node000010" class="edge">
<title>Node1&#45;&gt;Node10</title>
<g id="a_edge9_Node000001_Node000010"><a xlink:title=" ">
<path fill="none" stroke="#63b8ff" d="M670.87,-219.69C651.86,-224.76 629.64,-230.7 609.81,-236"/>
<polygon fill="#63b8ff" stroke="#63b8ff" points="672.01,-223.01 680.77,-217.04 670.2,-216.24 672.01,-223.01"/>
</a>
</g>
</g>
<!-- Node11 -->
<g id="Node000011" class="node">
<title>Node11</title>
<g id="a_Node000011"><a xlink:href="classevent__template.html#a9f5661b7516b43801913ab6fc897a80e" target="_top" xlink:title="Static setter for the hash property.">
<polygon fill="white" stroke="#666666" points="626,-217 483,-217 483,-198 626,-198 626,-217"/>
<text text-anchor="middle" x="554.5" y="-205" font-family="Helvetica,sans-Serif" font-size="10.00">event_template::set_hash</text>
</a>
</g>
</g>
<!-- Node1&#45;&gt;Node11 -->
<g id="edge10_Node000001_Node000011" class="edge">
<title>Node1&#45;&gt;Node11</title>
<g id="a_edge10_Node000001_Node000011"><a xlink:title=" ">
<path fill="none" stroke="#63b8ff" d="M662.84,-207.5C651.07,-207.5 638.43,-207.5 626.11,-207.5"/>
<polygon fill="#63b8ff" stroke="#63b8ff" points="662.93,-211 672.93,-207.5 662.93,-204 662.93,-211"/>
</a>
</g>
</g>
<!-- Node14 -->
<g id="Node000014" class="node">
<title>Node14</title>
<g id="a_Node000014"><a xlink:href="classselection__template.html#acd31f17488bcf97dd8a5f1b3a7da1cdd" target="_top" xlink:title="Setter for hash.">
<polygon fill="white" stroke="#666666" points="609.5,-179.5 499.5,-179.5 499.5,-149.5 609.5,-149.5 609.5,-179.5"/>
<text text-anchor="start" x="507.5" y="-167.5" font-family="Helvetica,sans-Serif" font-size="10.00">selection_template</text>
<text text-anchor="middle" x="554.5" y="-156.5" font-family="Helvetica,sans-Serif" font-size="10.00">::set_hash</text>
</a>
</g>
</g>
<!-- Node1&#45;&gt;Node14 -->
<g id="edge13_Node000001_Node000014" class="edge">
<title>Node1&#45;&gt;Node14</title>
<g id="a_edge13_Node000001_Node000014"><a xlink:title=" ">
<path fill="none" stroke="#63b8ff" d="M670.87,-195.31C651.86,-190.24 629.64,-184.3 609.81,-179"/>
<polygon fill="#63b8ff" stroke="#63b8ff" points="670.2,-198.76 680.77,-197.96 672.01,-191.99 670.2,-198.76"/>
</a>
</g>
</g>
<!-- Node18 -->
<g id="Node000018" class="node">
<title>Node18</title>
<g id="a_Node000018"><a xlink:href="classparton.html#abf09df1e5e6008e9af478a2f540947f8" target="_top" xlink:title="Alternative selection strategy method.">
<polygon fill="white" stroke="#666666" points="419.5,-75 324.5,-75 324.5,-56 419.5,-56 419.5,-75"/>
<text text-anchor="middle" x="372" y="-63" font-family="Helvetica,sans-Serif" font-size="10.00">parton::strategy</text>
</a>
</g>
</g>
<!-- Node1&#45;&gt;Node18 -->
<g id="edge17_Node000001_Node000018" class="edge">
<title>Node1&#45;&gt;Node18</title>
<g id="a_edge17_Node000001_Node000018"><a xlink:title=" ">
<path fill="none" stroke="#63b8ff" d="M700.82,-190.28C685.89,-174.92 662.03,-153 637,-140.5 569.68,-106.87 544.07,-124.16 472,-102.5 445.47,-94.52 415.79,-83.08 395.91,-75.04"/>
<polygon fill="#63b8ff" stroke="#63b8ff" points="698.36,-192.77 707.78,-197.62 703.44,-187.95 698.36,-192.77"/>
</a>
</g>
</g>
<!-- Node19 -->
<g id="Node000019" class="node">
<title>Node19</title>
<g id="a_Node000019"><a xlink:href="classtopjets.html#a72145e79c19febe5393d17220c980e2a" target="_top" xlink:title="Alternative selection strategy method.">
<polygon fill="white" stroke="#666666" points="603,-93 506,-93 506,-74 603,-74 603,-93"/>
<text text-anchor="middle" x="554.5" y="-81" font-family="Helvetica,sans-Serif" font-size="10.00">topjets::strategy</text>
</a>
</g>
</g>
<!-- Node1&#45;&gt;Node19 -->
<g id="edge18_Node000001_Node000019" class="edge">
<title>Node1&#45;&gt;Node19</title>
<g id="a_edge18_Node000001_Node000019"><a xlink:title=" ">
<path fill="none" stroke="#63b8ff" d="M706.57,-188.99C693.54,-166.45 668.57,-128.76 637,-107.5 626.97,-100.74 615,-95.85 603.37,-92.33"/>
<polygon fill="#63b8ff" stroke="#63b8ff" points="703.62,-190.88 711.55,-197.9 709.73,-187.47 703.62,-190.88"/>
</a>
</g>
</g>
<!-- Node20 -->
<g id="Node000020" class="node">
<title>Node20</title>
<g id="a_Node000020"><a xlink:href="classtoptruthjets.html#a39c1afcec2800b351fc047fbfa4f009f" target="_top" xlink:title="Alternative selection strategy method.">
<polygon fill="white" stroke="#666666" points="614.5,-56 494.5,-56 494.5,-37 614.5,-37 614.5,-56"/>
<text text-anchor="middle" x="554.5" y="-44" font-family="Helvetica,sans-Serif" font-size="10.00">toptruthjets::strategy</text>
</a>
</g>
</g>
<!-- Node1&#45;&gt;Node20 -->
<g id="edge19_Node000001_Node000020" class="edge">
<title>Node1&#45;&gt;Node20</title>
<g id="a_edge19_Node000001_Node000020"><a xlink:title=" ">
<path fill="none" stroke="#63b8ff" d="M711.21,-188.12C701.73,-157.19 678.81,-96.94 637,-65.5 630.38,-60.52 622.67,-56.82 614.68,-54.07"/>
<polygon fill="#63b8ff" stroke="#63b8ff" points="707.86,-189.12 714.01,-197.75 714.58,-187.17 707.86,-189.12"/>
</a>
</g>
</g>
<!-- Node21 -->
<g id="Node000021" class="node">
<title>Node21</title>
<g id="a_Node000021"><a xlink:href="classparton.html#a4045341bd771afd7ac452fa1dc6aea8e" target="_top" xlink:title=" ">
<polygon fill="white" stroke="#666666" points="637,-19 472,-19 472,0 637,0 637,-19"/>
<text text-anchor="middle" x="554.5" y="-7" font-family="Helvetica,sans-Serif" font-size="10.00">parton::top_mass_contribution</text>
</a>
</g>
</g>
<!-- Node1&#45;&gt;Node21 -->
<g id="edge20_Node000001_Node000021" class="edge">
<title>Node1&#45;&gt;Node21</title>
<g id="a_edge20_Node000001_Node000021"><a xlink:title=" ">
<path fill="none" stroke="#63b8ff" d="M713.7,-187.77C707.3,-150.39 688.02,-69.28 637,-27.5 632.85,-24.1 628.2,-21.31 623.28,-19.02"/>
<polygon fill="#63b8ff" stroke="#63b8ff" points="710.28,-188.54 715.29,-197.87 717.19,-187.45 710.28,-188.54"/>
</a>
</g>
</g>
<!-- Node5 -->
<g id="Node000005" class="node">
<title>Node5</title>
<g id="a_Node000005"><a xlink:href="classparticle__template.html#ab527ed22f6d67969247a0be9dda0165f" target="_top" xlink:title="Default constructor.">
<polygon fill="white" stroke="#666666" points="426.5,-351.5 317.5,-351.5 317.5,-321.5 426.5,-321.5 426.5,-351.5"/>
<text text-anchor="start" x="325.5" y="-339.5" font-family="Helvetica,sans-Serif" font-size="10.00">particle_template::</text>
<text text-anchor="middle" x="372" y="-328.5" font-family="Helvetica,sans-Serif" font-size="10.00">particle_template</text>
</a>
</g>
</g>
<!-- Node4&#45;&gt;Node5 -->
<g id="edge4_Node000004_Node000005" class="edge">
<title>Node4&#45;&gt;Node5</title>
<g id="a_edge4_Node000004_Node000005"><a xlink:title=" ">
<path fill="none" stroke="#63b8ff" d="M489.61,-336.5C469.06,-336.5 446.52,-336.5 426.77,-336.5"/>
<polygon fill="#63b8ff" stroke="#63b8ff" points="489.83,-340 499.83,-336.5 489.83,-333 489.83,-340"/>
</a>
</g>
</g>
<!-- Node6 -->
<g id="Node000006" class="node">
<title>Node6</title>
<g id="a_Node000006"><a xlink:href="classparticle__template.html#adf7b55df06b7621b0a6bc509f74d22ff" target="_top" xlink:title="Serializes particle data for storage.">
<polygon fill="white" stroke="#666666" points="263.5,-375.5 154.5,-375.5 154.5,-345.5 263.5,-345.5 263.5,-375.5"/>
<text text-anchor="start" x="162.5" y="-363.5" font-family="Helvetica,sans-Serif" font-size="10.00">particle_template::</text>
<text text-anchor="middle" x="209" y="-352.5" font-family="Helvetica,sans-Serif" font-size="10.00">__reduce__</text>
</a>
</g>
</g>
<!-- Node5&#45;&gt;Node6 -->
<g id="edge5_Node000005_Node000006" class="edge">
<title>Node5&#45;&gt;Node6</title>
<g id="a_edge5_Node000005_Node000006"><a xlink:title=" ">
<path fill="none" stroke="#63b8ff" d="M307.49,-345.97C292.98,-348.13 277.7,-350.41 263.65,-352.5"/>
<polygon fill="#63b8ff" stroke="#63b8ff" points="308.01,-349.43 317.39,-344.49 306.98,-342.5 308.01,-349.43"/>
</a>
</g>
</g>
<!-- Node7 -->
<g id="Node000007" class="node">
<title>Node7</title>
<g id="a_Node000007"><a xlink:href="classparticle__template.html#a6c492ed991c27a61acad61064fa89b3c" target="_top" xlink:title="Creates a clone of this particle.">
<polygon fill="white" stroke="#666666" points="263.5,-327.5 154.5,-327.5 154.5,-297.5 263.5,-297.5 263.5,-327.5"/>
<text text-anchor="start" x="162.5" y="-315.5" font-family="Helvetica,sans-Serif" font-size="10.00">particle_template::</text>
<text text-anchor="middle" x="209" y="-304.5" font-family="Helvetica,sans-Serif" font-size="10.00">clone</text>
</a>
</g>
</g>
<!-- Node5&#45;&gt;Node7 -->
<g id="edge6_Node000005_Node000007" class="edge">
<title>Node5&#45;&gt;Node7</title>
<g id="a_edge6_Node000005_Node000007"><a xlink:title=" ">
<path fill="none" stroke="#63b8ff" d="M307.49,-327.03C292.98,-324.87 277.7,-322.59 263.65,-320.5"/>
<polygon fill="#63b8ff" stroke="#63b8ff" points="306.98,-330.5 317.39,-328.51 308.01,-323.57 306.98,-330.5"/>
</a>
</g>
</g>
<!-- Node9 -->
<g id="Node000009" class="node">
<title>Node9</title>
<g id="a_Node000009"><a xlink:href="classtopefficiency.html#a208f0c2ad333886e46bf67c3f3732d63" target="_top" xlink:title="Alternative selection strategy method.">
<polygon fill="white" stroke="#666666" points="434.5,-303 309.5,-303 309.5,-284 434.5,-284 434.5,-303"/>
<text text-anchor="middle" x="372" y="-291" font-family="Helvetica,sans-Serif" font-size="10.00">topefficiency::strategy</text>
</a>
</g>
</g>
<!-- Node8&#45;&gt;Node9 -->
<g id="edge8_Node000008_Node000009" class="edge">
<title>Node8&#45;&gt;Node9</title>
<g id="a_edge8_Node000008_Node000009"><a xlink:title=" ">
<path fill="none" stroke="#63b8ff" d="M486.08,-293.5C469.25,-293.5 451.28,-293.5 434.74,-293.5"/>
<polygon fill="#63b8ff" stroke="#63b8ff" points="486.39,-297 496.39,-293.5 486.39,-290 486.39,-297"/>
</a>
</g>
</g>
<!-- Node12 -->
<g id="Node000012" class="node">
<title>Node12</title>
<g id="a_Node000012"><a xlink:href="classevent__template.html#a4fc169ae8c1412e8fba67ef35c9bb01a" target="_top" xlink:title="Default constructor for event_template.">
<polygon fill="white" stroke="#666666" points="436,-224.5 308,-224.5 308,-194.5 436,-194.5 436,-224.5"/>
<text text-anchor="start" x="316" y="-212.5" font-family="Helvetica,sans-Serif" font-size="10.00">event_template::event</text>
<text text-anchor="middle" x="372" y="-201.5" font-family="Helvetica,sans-Serif" font-size="10.00">_template</text>
</a>
</g>
</g>
<!-- Node11&#45;&gt;Node12 -->
<g id="edge11_Node000011_Node000012" class="edge">
<title>Node11&#45;&gt;Node12</title>
<g id="a_edge11_Node000011_Node000012"><a xlink:title=" ">
<path fill="none" stroke="#63b8ff" d="M472.72,-208.4C460.47,-208.53 447.98,-208.67 436.17,-208.8"/>
<polygon fill="#63b8ff" stroke="#63b8ff" points="472.98,-211.89 482.94,-208.28 472.9,-204.89 472.98,-211.89"/>
</a>
</g>
</g>
<!-- Node13 -->
<g id="Node000013" class="node">
<title>Node13</title>
<g id="a_Node000013"><a xlink:href="classevent__template.html#a683c5ec2ccfa48483996ba3128b6a07a" target="_top" xlink:title="Creates a new event template instance.">
<polygon fill="white" stroke="#666666" points="272,-219 146,-219 146,-200 272,-200 272,-219"/>
<text text-anchor="middle" x="209" y="-207" font-family="Helvetica,sans-Serif" font-size="10.00">event_template::clone</text>
</a>
</g>
</g>
<!-- Node12&#45;&gt;Node13 -->
<g id="edge12_Node000012_Node000013" class="edge">
<title>Node12&#45;&gt;Node13</title>
<g id="a_edge12_Node000012_Node000013"><a xlink:title=" ">
<path fill="none" stroke="#63b8ff" d="M297.57,-209.5C289.09,-209.5 280.5,-209.5 272.2,-209.5"/>
<polygon fill="#63b8ff" stroke="#63b8ff" points="297.83,-213 307.83,-209.5 297.83,-206 297.83,-213"/>
</a>
</g>
</g>
<!-- Node15 -->
<g id="Node000015" class="node">
<title>Node15</title>
<g id="a_Node000015"><a xlink:href="classselection__template.html#a4562a7ab32d93b5f2ca8a232a244041c" target="_top" xlink:title="Default constructor.">
<polygon fill="white" stroke="#666666" points="430,-176.5 314,-176.5 314,-146.5 430,-146.5 430,-176.5"/>
<text text-anchor="start" x="322" y="-164.5" font-family="Helvetica,sans-Serif" font-size="10.00">selection_template</text>
<text text-anchor="middle" x="372" y="-153.5" font-family="Helvetica,sans-Serif" font-size="10.00">::selection_template</text>
</a>
</g>
</g>
<!-- Node14&#45;&gt;Node15 -->
<g id="edge14_Node000014_Node000015" class="edge">
<title>Node14&#45;&gt;Node15</title>
<g id="a_edge14_Node000014_Node000015"><a xlink:title=" ">
<path fill="none" stroke="#63b8ff" d="M489.17,-163.43C469.94,-163.11 449,-162.76 430.25,-162.45"/>
<polygon fill="#63b8ff" stroke="#63b8ff" points="489.29,-166.93 499.34,-163.6 489.4,-159.93 489.29,-166.93"/>
</a>
</g>
</g>
<!-- Node16 -->
<g id="Node000016" class="node">
<title>Node16</title>
<g id="a_Node000016"><a xlink:href="classselection__template.html#a094ce1eb2b6463f88a8ad5f7dfd8e4b6" target="_top" xlink:title="Creates a clone of this selection.">
<polygon fill="white" stroke="#666666" points="264,-176.5 154,-176.5 154,-146.5 264,-146.5 264,-176.5"/>
<text text-anchor="start" x="162" y="-164.5" font-family="Helvetica,sans-Serif" font-size="10.00">selection_template</text>
<text text-anchor="middle" x="209" y="-153.5" font-family="Helvetica,sans-Serif" font-size="10.00">::clone</text>
</a>
</g>
</g>
<!-- Node15&#45;&gt;Node16 -->
<g id="edge15_Node000015_Node000016" class="edge">
<title>Node15&#45;&gt;Node16</title>
<g id="a_edge15_Node000015_Node000016"><a xlink:title=" ">
<path fill="none" stroke="#63b8ff" d="M303.78,-161.5C290.54,-161.5 276.81,-161.5 264.07,-161.5"/>
<polygon fill="#63b8ff" stroke="#63b8ff" points="303.78,-165 313.78,-161.5 303.78,-158 303.78,-165"/>
</a>
</g>
</g>
<!-- Node17 -->
<g id="Node000017" class="node">
<title>Node17</title>
<g id="a_Node000017"><a xlink:href="classselection__template.html#ae24cee9f302d7509a7009daea0bf0616" target="_top" xlink:title="Builds the selection from an event.">
<polygon fill="white" stroke="#666666" points="110,-176.5 0,-176.5 0,-146.5 110,-146.5 110,-176.5"/>
<text text-anchor="start" x="8" y="-164.5" font-family="Helvetica,sans-Serif" font-size="10.00">selection_template</text>
<text text-anchor="middle" x="55" y="-153.5" font-family="Helvetica,sans-Serif" font-size="10.00">::build</text>
</a>
</g>
</g>
<!-- Node16&#45;&gt;Node17 -->
<g id="edge16_Node000016_Node000017" class="edge">
<title>Node16&#45;&gt;Node17</title>
<g id="a_edge16_Node000016_Node000017"><a xlink:title=" ">
<path fill="none" stroke="#63b8ff" d="M143.81,-161.5C132.59,-161.5 121.01,-161.5 110.1,-161.5"/>
<polygon fill="#63b8ff" stroke="#63b8ff" points="143.98,-165 153.98,-161.5 143.98,-158 143.98,-165"/>
</a>
</g>
</g>
<!-- Node21&#45;&gt;Node18 -->
<g id="edge21_Node000021_Node000018" class="edge">
<title>Node21&#45;&gt;Node18</title>
<g id="a_edge21_Node000021_Node000018"><a xlink:title=" ">
<path fill="none" stroke="#63b8ff" d="M494.53,-21.43C486.91,-23.29 479.24,-25.33 472,-27.5 445.02,-35.61 414.93,-47.6 395.08,-55.93"/>
<polygon fill="#63b8ff" stroke="#63b8ff" points="495.56,-24.78 504.5,-19.08 493.96,-17.97 495.56,-24.78"/>
</a>
</g>
</g>
</g>
</svg>
