<?xml version="1.0" encoding="UTF-8" standalone="no"?>
<!DOCTYPE svg PUBLIC "-//W3C//DTD SVG 1.1//EN"
 "http://www.w3.org/Graphics/SVG/1.1/DTD/svg11.dtd">
<!-- Generated by graphviz version 2.43.0 (0)
 -->
<!-- Title: io::H5Write Pages: 1 -->
<svg width="314pt" height="82pt"
 viewBox="0.00 0.00 314.00 82.00" xmlns="http://www.w3.org/2000/svg" xmlns:xlink="http://www.w3.org/1999/xlink">

<svg id="main" version="1.1" xmlns="http://www.w3.org/2000/svg" xmlns:xlink="http://www.w3.org/1999/xlink" xml:space="preserve" onload="init(evt)">
<style type="text/css"><![CDATA[
.node, .edge {opacity: 0.7;}
.node.selected, .edge.selected {opacity: 1;}
.edge:hover path { stroke: red; }
.edge:hover polygon { stroke: red; fill: red; }
]]></style>
<script type="application/ecmascript" xlink:href="svg.min.js"/>
<svg id="graph" class="graph">
<g id="graph0" class="graph" transform="scale(1 1) rotate(0) translate(4 78)">
<title>io::H5Write</title>
<!-- Node1 -->
<g id="Node000001" class="node">
<title>Node1</title>
<g id="a_Node000001"><a xlink:title="Generic HDF5 write operation for a vector of objects.">
<polygon fill="#999999" stroke="#666666" points="306,-55 235,-55 235,-36 306,-36 306,-55"/>
<text text-anchor="middle" x="270.5" y="-43" font-family="Helvetica,sans-Serif" font-size="10.00">io::H5Write</text>
</a>
</g>
</g>
<!-- Node2 -->
<g id="Node000002" class="node">
<title>Node2</title>
<g id="a_Node000002"><a xlink:href="classio.html#a6dadf1033346f6025a4047a17ddf0227" target="_top" xlink:title="Templated method to write single event data object to HDF5.">
<polygon fill="white" stroke="#666666" points="199,-74 92,-74 92,-55 199,-55 199,-74"/>
<text text-anchor="middle" x="145.5" y="-62" font-family="Helvetica,sans-Serif" font-size="10.00">io::write_event_h5</text>
</a>
</g>
</g>
<!-- Node1&#45;&gt;Node2 -->
<g id="edge1_Node000001_Node000002" class="edge">
<title>Node1&#45;&gt;Node2</title>
<g id="a_edge1_Node000001_Node000002"><a xlink:title=" ">
<path fill="none" stroke="#63b8ff" d="M224.98,-52.38C216.62,-53.67 207.8,-55.03 199.21,-56.36"/>
<polygon fill="#63b8ff" stroke="#63b8ff" points="225.56,-55.83 234.91,-50.84 224.49,-48.91 225.56,-55.83"/>
</a>
</g>
</g>
<!-- Node3 -->
<g id="Node000003" class="node">
<title>Node3</title>
<g id="a_Node000003"><a xlink:href="classio.html#a9ceaef5ce2a5f32905f1409a8c14ca20" target="_top" xlink:title="Templated method to write event data (vector of objects) to HDF5.">
<polygon fill="white" stroke="#666666" points="199,-37 92,-37 92,-18 199,-18 199,-37"/>
<text text-anchor="middle" x="145.5" y="-25" font-family="Helvetica,sans-Serif" font-size="10.00">io::write_event_h5</text>
</a>
</g>
</g>
<!-- Node1&#45;&gt;Node3 -->
<g id="edge2_Node000001_Node000003" class="edge">
<title>Node1&#45;&gt;Node3</title>
<g id="a_edge2_Node000001_Node000003"><a xlink:title=" ">
<path fill="none" stroke="#63b8ff" d="M224.98,-38.98C216.62,-37.76 207.8,-36.47 199.21,-35.21"/>
<polygon fill="#63b8ff" stroke="#63b8ff" points="224.51,-42.45 234.91,-40.44 225.52,-35.53 224.51,-42.45"/>
</a>
</g>
</g>
<!-- Node4 -->
<g id="Node000004" class="node">
<title>Node4</title>
<g id="a_Node000004"><a xlink:href="classio.html#acbb361e3301373cce246acf6208b60ea" target="_top" xlink:title="Templated method to write a single object to a dataset.">
<polygon fill="white" stroke="#666666" points="56,-56 0,-56 0,-37 56,-37 56,-56"/>
<text text-anchor="middle" x="28" y="-44" font-family="Helvetica,sans-Serif" font-size="10.00">io::write</text>
</a>
</g>
</g>
<!-- Node3&#45;&gt;Node4 -->
<g id="edge3_Node000003_Node000004" class="edge">
<title>Node3&#45;&gt;Node4</title>
<g id="a_edge3_Node000003_Node000004"><a xlink:title=" ">
<path fill="none" stroke="#63b8ff" d="M81.94,-37.79C72.84,-39.29 63.91,-40.76 56.05,-42.05"/>
<polygon fill="#63b8ff" stroke="#63b8ff" points="82.52,-41.24 91.82,-36.17 81.38,-34.34 82.52,-41.24"/>
</a>
</g>
</g>
<!-- Node5 -->
<g id="Node000005" class="node">
<title>Node5</title>
<g id="a_Node000005"><a xlink:href="classio.html#a39a32d23eeb4ae8f422bb416256fd9cd" target="_top" xlink:title="Templated method to write a vector of objects to a dataset.">
<polygon fill="white" stroke="#666666" points="56,-19 0,-19 0,0 56,0 56,-19"/>
<text text-anchor="middle" x="28" y="-7" font-family="Helvetica,sans-Serif" font-size="10.00">io::write</text>
</a>
</g>
</g>
<!-- Node3&#45;&gt;Node5 -->
<g id="edge4_Node000003_Node000005" class="edge">
<title>Node3&#45;&gt;Node5</title>
<g id="a_edge4_Node000003_Node000005"><a xlink:title=" ">
<path fill="none" stroke="#63b8ff" d="M81.94,-17.75C72.84,-16.33 63.91,-14.94 56.05,-13.72"/>
<polygon fill="#63b8ff" stroke="#63b8ff" points="81.4,-21.21 91.82,-19.29 82.48,-14.29 81.4,-21.21"/>
</a>
</g>
</g>
</g>
</svg>
</svg>

<style type='text/css'>
<![CDATA[
[data-mouse-over-selected='false'] { opacity: 0.7; }
[data-mouse-over-selected='true']  { opacity: 1.0; }
]]>
</style>
<script type="application/ecmascript"><![CDATA[
document.addEventListener('DOMContentLoaded', (event) => {
  highlightEdges();
  highlightAdjacentNodes();
});
]]></script>
</svg>
