<?xml version="1.0" encoding="UTF-8" standalone="no"?>
<!DOCTYPE svg PUBLIC "-//W3C//DTD SVG 1.1//EN"
 "http://www.w3.org/Graphics/SVG/1.1/DTD/svg11.dtd">
<!-- Generated by graphviz version 2.43.0 (0)
 -->
<!-- Title: particle_gnn::particle_gnn Pages: 1 -->
<svg width="296pt" height="64pt"
 viewBox="0.00 0.00 296.00 64.00" xmlns="http://www.w3.org/2000/svg" xmlns:xlink="http://www.w3.org/1999/xlink">
<g id="graph0" class="graph" transform="scale(1 1) rotate(0) translate(4 60)">
<title>particle_gnn::particle_gnn</title>
<!-- Node1 -->
<g id="Node000001" class="node">
<title>Node1</title>
<g id="a_Node000001"><a xlink:title=" ">
<polygon fill="#999999" stroke="#666666" points="288,-37 145,-37 145,-18 288,-18 288,-37"/>
<text text-anchor="middle" x="216.5" y="-25" font-family="Helvetica,sans-Serif" font-size="10.00">particle_gnn::particle_gnn</text>
</a>
</g>
</g>
<!-- Node2 -->
<g id="Node000002" class="node">
<title>Node2</title>
<g id="a_Node000002"><a xlink:href="classparticle__gnn.html#ab93f3ba7e85a44342fcf7ed6a8ec39f9" target="_top" xlink:title="Builds the particle from event data.">
<polygon fill="white" stroke="#666666" points="108,-56 1,-56 1,-37 108,-37 108,-56"/>
<text text-anchor="middle" x="54.5" y="-44" font-family="Helvetica,sans-Serif" font-size="10.00">particle_gnn::build</text>
</a>
</g>
</g>
<!-- Node1&#45;&gt;Node2 -->
<g id="edge1_Node000001_Node000002" class="edge">
<title>Node1&#45;&gt;Node2</title>
<g id="a_edge1_Node000001_Node000002"><a xlink:title=" ">
<path fill="none" stroke="#63b8ff" d="M134.79,-37.08C125.85,-38.15 116.93,-39.21 108.47,-40.21"/>
<polygon fill="#63b8ff" stroke="#63b8ff" points="135.34,-40.54 144.86,-35.89 134.51,-33.59 135.34,-40.54"/>
</a>
</g>
</g>
<!-- Node3 -->
<g id="Node000003" class="node">
<title>Node3</title>
<g id="a_Node000003"><a xlink:href="classparticle__gnn.html#a6a9ae072c21b1a1379047accc90e87bb" target="_top" xlink:title="Creates a clone of this particle.">
<polygon fill="white" stroke="#666666" points="109,-19 0,-19 0,0 109,0 109,-19"/>
<text text-anchor="middle" x="54.5" y="-7" font-family="Helvetica,sans-Serif" font-size="10.00">particle_gnn::clone</text>
</a>
</g>
</g>
<!-- Node1&#45;&gt;Node3 -->
<g id="edge2_Node000001_Node000003" class="edge">
<title>Node1&#45;&gt;Node3</title>
<g id="a_edge2_Node000001_Node000003"><a xlink:title=" ">
<path fill="none" stroke="#63b8ff" d="M134.78,-18.42C126.19,-17.45 117.6,-16.49 109.42,-15.57"/>
<polygon fill="#63b8ff" stroke="#63b8ff" points="134.53,-21.91 144.86,-19.55 135.31,-14.96 134.53,-21.91"/>
</a>
</g>
</g>
</g>
</svg>
