<?xml version="1.0" encoding="UTF-8" standalone="no"?>
<!DOCTYPE svg PUBLIC "-//W3C//DTD SVG 1.1//EN"
 "http://www.w3.org/Graphics/SVG/1.1/DTD/svg11.dtd">
<!-- Generated by graphviz version 2.43.0 (0)
 -->
<!-- Title: event_template::clone Pages: 1 -->
<svg width="607pt" height="358pt"
 viewBox="0.00 0.00 607.00 358.00" xmlns="http://www.w3.org/2000/svg" xmlns:xlink="http://www.w3.org/1999/xlink">
<g id="graph0" class="graph" transform="scale(1 1) rotate(0) translate(4 354)">
<title>event_template::clone</title>
<!-- Node1 -->
<g id="Node000001" class="node">
<title>Node1</title>
<g id="a_Node000001"><a xlink:title="Creates a new event template instance.">
<polygon fill="#999999" stroke="#666666" points="126,-184.5 0,-184.5 0,-165.5 126,-165.5 126,-184.5"/>
<text text-anchor="middle" x="63" y="-172.5" font-family="Helvetica,sans-Serif" font-size="10.00">event_template::clone</text>
</a>
</g>
</g>
<!-- Node2 -->
<g id="Node000002" class="node">
<title>Node2</title>
<g id="a_Node000002"><a xlink:href="classevent__template.html#a4fc169ae8c1412e8fba67ef35c9bb01a" target="_top" xlink:title="Default constructor for event_template.">
<polygon fill="white" stroke="#666666" points="290,-190 162,-190 162,-160 290,-160 290,-190"/>
<text text-anchor="start" x="170" y="-178" font-family="Helvetica,sans-Serif" font-size="10.00">event_template::event</text>
<text text-anchor="middle" x="226" y="-167" font-family="Helvetica,sans-Serif" font-size="10.00">_template</text>
</a>
</g>
</g>
<!-- Node1&#45;&gt;Node2 -->
<g id="edge1_Node000001_Node000002" class="edge">
<title>Node1&#45;&gt;Node2</title>
<g id="a_edge1_Node000001_Node000002"><a xlink:title=" ">
<path fill="none" stroke="#63b8ff" d="M126.25,-175C134.55,-175 143.13,-175 151.6,-175"/>
<polygon fill="#63b8ff" stroke="#63b8ff" points="151.86,-178.5 161.86,-175 151.86,-171.5 151.86,-178.5"/>
</a>
</g>
</g>
<!-- Node3 -->
<g id="Node000003" class="node">
<title>Node3</title>
<g id="a_Node000003"><a xlink:href="classevent__template.html#aedd843db4af78c774316cda822821f66" target="_top" xlink:title="Static getter for the leaves property.">
<polygon fill="white" stroke="#666666" points="458,-350 342,-350 342,-320 458,-320 458,-350"/>
<text text-anchor="start" x="350" y="-338" font-family="Helvetica,sans-Serif" font-size="10.00">event_template::get</text>
<text text-anchor="middle" x="400" y="-327" font-family="Helvetica,sans-Serif" font-size="10.00">_leaves</text>
</a>
</g>
</g>
<!-- Node2&#45;&gt;Node3 -->
<g id="edge2_Node000002_Node000003" class="edge">
<title>Node2&#45;&gt;Node3</title>
<g id="a_edge2_Node000002_Node000003"><a xlink:title=" ">
<path fill="none" stroke="#63b8ff" d="M233.97,-190.06C247.65,-217.99 280.68,-277.98 326,-311 328.12,-312.55 330.35,-314 332.66,-315.36"/>
<polygon fill="#63b8ff" stroke="#63b8ff" points="331.38,-318.64 341.86,-320.17 334.62,-312.44 331.38,-318.64"/>
</a>
</g>
</g>
<!-- Node4 -->
<g id="Node000004" class="node">
<title>Node4</title>
<g id="a_Node000004"><a xlink:href="classevent__template.html#a73a5b08c0f438f12e1c19326e863923e" target="_top" xlink:title="Static getter for the tree property.">
<polygon fill="white" stroke="#666666" points="470,-301.5 330,-301.5 330,-282.5 470,-282.5 470,-301.5"/>
<text text-anchor="middle" x="400" y="-289.5" font-family="Helvetica,sans-Serif" font-size="10.00">event_template::get_tree</text>
</a>
</g>
</g>
<!-- Node2&#45;&gt;Node4 -->
<g id="edge3_Node000002_Node000004" class="edge">
<title>Node2&#45;&gt;Node4</title>
<g id="a_edge3_Node000002_Node000004"><a xlink:title=" ">
<path fill="none" stroke="#63b8ff" d="M237.92,-190.31C254.43,-212.29 287.89,-252.5 326,-274 329.2,-275.81 332.58,-277.43 336.06,-278.9"/>
<polygon fill="#63b8ff" stroke="#63b8ff" points="334.87,-282.19 345.46,-282.41 337.32,-275.63 334.87,-282.19"/>
</a>
</g>
</g>
<!-- Node5 -->
<g id="Node000005" class="node">
<title>Node5</title>
<g id="a_Node000005"><a xlink:href="classcproperty.html#a31b26b5ffb20bbf8d8ee38e0755a9819" target="_top" xlink:title="Sets the getter callback function.">
<polygon fill="white" stroke="#666666" points="459,-264.5 341,-264.5 341,-245.5 459,-245.5 459,-264.5"/>
<text text-anchor="middle" x="400" y="-252.5" font-family="Helvetica,sans-Serif" font-size="10.00">cproperty::set_getter</text>
</a>
</g>
</g>
<!-- Node2&#45;&gt;Node5 -->
<g id="edge4_Node000002_Node000005" class="edge">
<title>Node2&#45;&gt;Node5</title>
<g id="a_edge4_Node000002_Node000005"><a xlink:title=" ">
<path fill="none" stroke="#63b8ff" d="M246.81,-190.07C266.09,-204.08 296.68,-224.58 326,-237 330.76,-239.02 335.8,-240.84 340.91,-242.48"/>
<polygon fill="#63b8ff" stroke="#63b8ff" points="340.19,-245.92 350.78,-245.42 342.19,-239.21 340.19,-245.92"/>
</a>
</g>
</g>
<!-- Node6 -->
<g id="Node000006" class="node">
<title>Node6</title>
<g id="a_Node000006"><a xlink:href="classevent__template.html#a9f5661b7516b43801913ab6fc897a80e" target="_top" xlink:title="Static setter for the hash property.">
<polygon fill="white" stroke="#666666" points="471.5,-227.5 328.5,-227.5 328.5,-208.5 471.5,-208.5 471.5,-227.5"/>
<text text-anchor="middle" x="400" y="-215.5" font-family="Helvetica,sans-Serif" font-size="10.00">event_template::set_hash</text>
</a>
</g>
</g>
<!-- Node2&#45;&gt;Node6 -->
<g id="edge5_Node000002_Node000006" class="edge">
<title>Node2&#45;&gt;Node6</title>
<g id="a_edge5_Node000002_Node000006"><a xlink:title=" ">
<path fill="none" stroke="#63b8ff" d="M287.16,-190.04C308.12,-195.28 331.35,-201.09 351.18,-206.04"/>
<polygon fill="#63b8ff" stroke="#63b8ff" points="350.36,-209.45 360.91,-208.48 352.06,-202.66 350.36,-209.45"/>
</a>
</g>
</g>
<!-- Node8 -->
<g id="Node000008" class="node">
<title>Node8</title>
<g id="a_Node000008"><a xlink:href="classevent__template.html#aa5e222a8244571e0b00fccc82c09ba8f" target="_top" xlink:title="Static setter for the index property.">
<polygon fill="white" stroke="#666666" points="457.5,-190 342.5,-190 342.5,-160 457.5,-160 457.5,-190"/>
<text text-anchor="start" x="350.5" y="-178" font-family="Helvetica,sans-Serif" font-size="10.00">event_template::set</text>
<text text-anchor="middle" x="400" y="-167" font-family="Helvetica,sans-Serif" font-size="10.00">_index</text>
</a>
</g>
</g>
<!-- Node2&#45;&gt;Node8 -->
<g id="edge7_Node000002_Node000008" class="edge">
<title>Node2&#45;&gt;Node8</title>
<g id="a_edge7_Node000002_Node000008"><a xlink:title=" ">
<path fill="none" stroke="#63b8ff" d="M290.07,-175C303.88,-175 318.54,-175 332.48,-175"/>
<polygon fill="#63b8ff" stroke="#63b8ff" points="332.48,-178.5 342.48,-175 332.48,-171.5 332.48,-178.5"/>
</a>
</g>
</g>
<!-- Node9 -->
<g id="Node000009" class="node">
<title>Node9</title>
<g id="a_Node000009"><a xlink:href="classevent__template.html#a73c3667c07093f1dabb388735370c34d" target="_top" xlink:title="Static setter for the name property.">
<polygon fill="white" stroke="#666666" points="474,-141.5 326,-141.5 326,-122.5 474,-122.5 474,-141.5"/>
<text text-anchor="middle" x="400" y="-129.5" font-family="Helvetica,sans-Serif" font-size="10.00">event_template::set_name</text>
</a>
</g>
</g>
<!-- Node2&#45;&gt;Node9 -->
<g id="edge8_Node000002_Node000009" class="edge">
<title>Node2&#45;&gt;Node9</title>
<g id="a_edge8_Node000002_Node000009"><a xlink:title=" ">
<path fill="none" stroke="#63b8ff" d="M287.16,-159.96C308.12,-154.72 331.35,-148.91 351.18,-143.96"/>
<polygon fill="#63b8ff" stroke="#63b8ff" points="352.06,-147.34 360.91,-141.52 350.36,-140.55 352.06,-147.34"/>
</a>
</g>
</g>
<!-- Node10 -->
<g id="Node000010" class="node">
<title>Node10</title>
<g id="a_Node000010"><a xlink:href="classcproperty.html#a41a70e8e01c9b1a20b94d2dbf1a6b214" target="_top" xlink:title="Sets the owning object for callback invocation.">
<polygon fill="white" stroke="#666666" points="459.5,-104.5 340.5,-104.5 340.5,-85.5 459.5,-85.5 459.5,-104.5"/>
<text text-anchor="middle" x="400" y="-92.5" font-family="Helvetica,sans-Serif" font-size="10.00">cproperty::set_object</text>
</a>
</g>
</g>
<!-- Node2&#45;&gt;Node10 -->
<g id="edge9_Node000002_Node000010" class="edge">
<title>Node2&#45;&gt;Node10</title>
<g id="a_edge9_Node000002_Node000010"><a xlink:title=" ">
<path fill="none" stroke="#63b8ff" d="M247.63,-159.74C267,-146.06 297.22,-126.28 326,-114 331.69,-111.57 337.77,-109.39 343.89,-107.45"/>
<polygon fill="#63b8ff" stroke="#63b8ff" points="344.92,-110.8 353.52,-104.6 342.93,-104.09 344.92,-110.8"/>
</a>
</g>
</g>
<!-- Node11 -->
<g id="Node000011" class="node">
<title>Node11</title>
<g id="a_Node000011"><a xlink:href="classcproperty.html#af4583ba4cf4ebc53f870a2de8f110da7" target="_top" xlink:title="Sets the setter callback function.">
<polygon fill="white" stroke="#666666" points="458.5,-67.5 341.5,-67.5 341.5,-48.5 458.5,-48.5 458.5,-67.5"/>
<text text-anchor="middle" x="400" y="-55.5" font-family="Helvetica,sans-Serif" font-size="10.00">cproperty::set_setter</text>
</a>
</g>
</g>
<!-- Node2&#45;&gt;Node11 -->
<g id="edge10_Node000002_Node000011" class="edge">
<title>Node2&#45;&gt;Node11</title>
<g id="a_edge10_Node000002_Node000011"><a xlink:title=" ">
<path fill="none" stroke="#63b8ff" d="M237.99,-159.91C254.59,-138.24 288.17,-98.53 326,-77 329.95,-74.75 334.17,-72.77 338.51,-71.01"/>
<polygon fill="#63b8ff" stroke="#63b8ff" points="339.94,-74.21 348.16,-67.52 337.56,-67.63 339.94,-74.21"/>
</a>
</g>
</g>
<!-- Node12 -->
<g id="Node000012" class="node">
<title>Node12</title>
<g id="a_Node000012"><a xlink:href="classevent__template.html#a71028d2c6f0b8eb23c84ff2fecf0132b" target="_top" xlink:title="Static setter for the weight property.">
<polygon fill="white" stroke="#666666" points="457.5,-30 342.5,-30 342.5,0 457.5,0 457.5,-30"/>
<text text-anchor="start" x="350.5" y="-18" font-family="Helvetica,sans-Serif" font-size="10.00">event_template::set</text>
<text text-anchor="middle" x="400" y="-7" font-family="Helvetica,sans-Serif" font-size="10.00">_weight</text>
</a>
</g>
</g>
<!-- Node2&#45;&gt;Node12 -->
<g id="edge11_Node000002_Node000012" class="edge">
<title>Node2&#45;&gt;Node12</title>
<g id="a_edge11_Node000002_Node000012"><a xlink:title=" ">
<path fill="none" stroke="#63b8ff" d="M234.26,-159.67C248.18,-131.85 281.28,-72.88 326,-40 328.51,-38.15 331.17,-36.44 333.92,-34.84"/>
<polygon fill="#63b8ff" stroke="#63b8ff" points="335.72,-37.85 343,-30.15 332.51,-31.63 335.72,-37.85"/>
</a>
</g>
</g>
<!-- Node7 -->
<g id="Node000007" class="node">
<title>Node7</title>
<g id="a_Node000007"><a xlink:href="classtools.html#afd037c109d75a9f119ec042e1ba922d9" target="_top" xlink:title="Converts a double value to a string with standard precision.">
<polygon fill="white" stroke="#666666" points="599,-227.5 510,-227.5 510,-208.5 599,-208.5 599,-227.5"/>
<text text-anchor="middle" x="554.5" y="-215.5" font-family="Helvetica,sans-Serif" font-size="10.00">tools::to_string</text>
</a>
</g>
</g>
<!-- Node6&#45;&gt;Node7 -->
<g id="edge6_Node000006_Node000007" class="edge">
<title>Node6&#45;&gt;Node7</title>
<g id="a_edge6_Node000006_Node000007"><a xlink:title=" ">
<path fill="none" stroke="#63b8ff" d="M471.89,-218C481.17,-218 490.56,-218 499.5,-218"/>
<polygon fill="#63b8ff" stroke="#63b8ff" points="499.75,-221.5 509.75,-218 499.75,-214.5 499.75,-221.5"/>
</a>
</g>
</g>
</g>
</svg>
