<?xml version="1.0" encoding="UTF-8" standalone="no"?>
<!DOCTYPE svg PUBLIC "-//W3C//DTD SVG 1.1//EN"
 "http://www.w3.org/Graphics/SVG/1.1/DTD/svg11.dtd">
<!-- Generated by graphviz version 2.43.0 (0)
 -->
<!-- Title: event_template::register_particle Pages: 1 -->
<svg width="455pt" height="138pt"
 viewBox="0.00 0.00 455.00 138.00" xmlns="http://www.w3.org/2000/svg" xmlns:xlink="http://www.w3.org/1999/xlink">
<g id="graph0" class="graph" transform="scale(1 1) rotate(0) translate(4 134)">
<title>event_template::register_particle</title>
<!-- Node1 -->
<g id="Node000001" class="node">
<title>Node1</title>
<g id="a_Node000001"><a xlink:title="Registers a particle for tracking in this event.">
<polygon fill="#999999" stroke="#666666" points="447,-79.5 310,-79.5 310,-49.5 447,-49.5 447,-79.5"/>
<text text-anchor="start" x="318" y="-67.5" font-family="Helvetica,sans-Serif" font-size="10.00">event_template::register</text>
<text text-anchor="middle" x="378.5" y="-56.5" font-family="Helvetica,sans-Serif" font-size="10.00">_particle</text>
</a>
</g>
</g>
<!-- Node2 -->
<g id="Node000002" class="node">
<title>Node2</title>
<g id="a_Node000002"><a xlink:href="classbsm__4tops.html#aad7f017512edf6441313f48470d44fd5" target="_top" xlink:title=" ">
<polygon fill="white" stroke="#666666" points="271.5,-130 142.5,-130 142.5,-111 271.5,-111 271.5,-130"/>
<text text-anchor="middle" x="207" y="-118" font-family="Helvetica,sans-Serif" font-size="10.00">bsm_4tops::bsm_4tops</text>
</a>
</g>
</g>
<!-- Node1&#45;&gt;Node2 -->
<g id="edge1_Node000001_Node000002" class="edge">
<title>Node1&#45;&gt;Node2</title>
<g id="a_edge1_Node000001_Node000002"><a xlink:title=" ">
<path fill="none" stroke="#63b8ff" d="M329.57,-83.07C312.18,-89.55 292.31,-96.65 274,-102.5 264.72,-105.46 254.62,-108.37 245.17,-110.96"/>
<polygon fill="#63b8ff" stroke="#63b8ff" points="330.81,-86.34 338.94,-79.55 328.35,-79.79 330.81,-86.34"/>
</a>
</g>
</g>
<!-- Node4 -->
<g id="Node000004" class="node">
<title>Node4</title>
<g id="a_Node000004"><a xlink:href="classexp__mc20.html#a0722113132ac84d16140b17c046ff4e7" target="_top" xlink:title=" ">
<polygon fill="white" stroke="#666666" points="268.5,-93 145.5,-93 145.5,-74 268.5,-74 268.5,-93"/>
<text text-anchor="middle" x="207" y="-81" font-family="Helvetica,sans-Serif" font-size="10.00">exp_mc20::exp_mc20</text>
</a>
</g>
</g>
<!-- Node1&#45;&gt;Node4 -->
<g id="edge3_Node000001_Node000004" class="edge">
<title>Node1&#45;&gt;Node4</title>
<g id="a_edge3_Node000001_Node000004"><a xlink:title=" ">
<path fill="none" stroke="#63b8ff" d="M299.29,-73.27C288.98,-74.42 278.54,-75.59 268.59,-76.71"/>
<polygon fill="#63b8ff" stroke="#63b8ff" points="299.99,-76.71 309.53,-72.12 299.21,-69.75 299.99,-76.71"/>
</a>
</g>
</g>
<!-- Node6 -->
<g id="Node000006" class="node">
<title>Node6</title>
<g id="a_Node000006"><a xlink:href="classgnn__event.html#a3c9a7e52028ab3304bb23be24332009c" target="_top" xlink:title=" ">
<polygon fill="white" stroke="#666666" points="269.5,-56 144.5,-56 144.5,-37 269.5,-37 269.5,-56"/>
<text text-anchor="middle" x="207" y="-44" font-family="Helvetica,sans-Serif" font-size="10.00">gnn_event::gnn_event</text>
</a>
</g>
</g>
<!-- Node1&#45;&gt;Node6 -->
<g id="edge5_Node000001_Node000006" class="edge">
<title>Node1&#45;&gt;Node6</title>
<g id="a_edge5_Node000001_Node000006"><a xlink:title=" ">
<path fill="none" stroke="#63b8ff" d="M299.57,-56.22C289.55,-55.16 279.39,-54.08 269.67,-53.05"/>
<polygon fill="#63b8ff" stroke="#63b8ff" points="299.22,-59.71 309.53,-57.28 299.96,-52.75 299.22,-59.71"/>
</a>
</g>
</g>
<!-- Node8 -->
<g id="Node000008" class="node">
<title>Node8</title>
<g id="a_Node000008"><a xlink:href="classssml__mc20.html#a0e4485a5e50805da1a79ca645000fb10" target="_top" xlink:title=" ">
<polygon fill="white" stroke="#666666" points="274,-19 140,-19 140,0 274,0 274,-19"/>
<text text-anchor="middle" x="207" y="-7" font-family="Helvetica,sans-Serif" font-size="10.00">ssml_mc20::ssml_mc20</text>
</a>
</g>
</g>
<!-- Node1&#45;&gt;Node8 -->
<g id="edge7_Node000001_Node000008" class="edge">
<title>Node1&#45;&gt;Node8</title>
<g id="a_edge7_Node000001_Node000008"><a xlink:title=" ">
<path fill="none" stroke="#63b8ff" d="M326.34,-46.09C309.71,-40.27 291.13,-33.94 274,-28.5 263.77,-25.25 252.58,-21.94 242.36,-19.01"/>
<polygon fill="#63b8ff" stroke="#63b8ff" points="325.28,-49.42 335.87,-49.44 327.6,-42.82 325.28,-49.42"/>
</a>
</g>
</g>
<!-- Node3 -->
<g id="Node000003" class="node">
<title>Node3</title>
<g id="a_Node000003"><a xlink:href="classbsm__4tops.html#a886c2087bf3ffbc644f2d35e215856d0" target="_top" xlink:title="Creates a new event template instance.">
<polygon fill="white" stroke="#666666" points="103,-130 1,-130 1,-111 103,-111 103,-130"/>
<text text-anchor="middle" x="52" y="-118" font-family="Helvetica,sans-Serif" font-size="10.00">bsm_4tops::clone</text>
</a>
</g>
</g>
<!-- Node2&#45;&gt;Node3 -->
<g id="edge2_Node000002_Node000003" class="edge">
<title>Node2&#45;&gt;Node3</title>
<g id="a_edge2_Node000002_Node000003"><a xlink:title=" ">
<path fill="none" stroke="#63b8ff" d="M132.21,-120.5C122.34,-120.5 112.4,-120.5 103.07,-120.5"/>
<polygon fill="#63b8ff" stroke="#63b8ff" points="132.44,-124 142.44,-120.5 132.44,-117 132.44,-124"/>
</a>
</g>
</g>
<!-- Node5 -->
<g id="Node000005" class="node">
<title>Node5</title>
<g id="a_Node000005"><a xlink:href="classexp__mc20.html#a72d513c2a73ba9b037427be6dda52075" target="_top" xlink:title="Creates a new event template instance.">
<polygon fill="white" stroke="#666666" points="101.5,-93 2.5,-93 2.5,-74 101.5,-74 101.5,-93"/>
<text text-anchor="middle" x="52" y="-81" font-family="Helvetica,sans-Serif" font-size="10.00">exp_mc20::clone</text>
</a>
</g>
</g>
<!-- Node4&#45;&gt;Node5 -->
<g id="edge4_Node000004_Node000005" class="edge">
<title>Node4&#45;&gt;Node5</title>
<g id="a_edge4_Node000004_Node000005"><a xlink:title=" ">
<path fill="none" stroke="#63b8ff" d="M134.91,-83.5C123.76,-83.5 112.44,-83.5 101.93,-83.5"/>
<polygon fill="#63b8ff" stroke="#63b8ff" points="135.09,-87 145.09,-83.5 135.09,-80 135.09,-87"/>
</a>
</g>
</g>
<!-- Node7 -->
<g id="Node000007" class="node">
<title>Node7</title>
<g id="a_Node000007"><a xlink:href="classgnn__event.html#ae5ad399474dcb1e8a7396e3d4da9932d" target="_top" xlink:title="Creates a new event template instance.">
<polygon fill="white" stroke="#666666" points="102,-56 2,-56 2,-37 102,-37 102,-56"/>
<text text-anchor="middle" x="52" y="-44" font-family="Helvetica,sans-Serif" font-size="10.00">gnn_event::clone</text>
</a>
</g>
</g>
<!-- Node6&#45;&gt;Node7 -->
<g id="edge6_Node000006_Node000007" class="edge">
<title>Node6&#45;&gt;Node7</title>
<g id="a_edge6_Node000006_Node000007"><a xlink:title=" ">
<path fill="none" stroke="#63b8ff" d="M134,-46.5C123.27,-46.5 112.44,-46.5 102.32,-46.5"/>
<polygon fill="#63b8ff" stroke="#63b8ff" points="134.21,-50 144.21,-46.5 134.21,-43 134.21,-50"/>
</a>
</g>
</g>
<!-- Node9 -->
<g id="Node000009" class="node">
<title>Node9</title>
<g id="a_Node000009"><a xlink:href="classssml__mc20.html#a0288589673651d09780e970bba8437d8" target="_top" xlink:title="Creates a new event template instance.">
<polygon fill="white" stroke="#666666" points="104,-19 0,-19 0,0 104,0 104,-19"/>
<text text-anchor="middle" x="52" y="-7" font-family="Helvetica,sans-Serif" font-size="10.00">ssml_mc20::clone</text>
</a>
</g>
</g>
<!-- Node8&#45;&gt;Node9 -->
<g id="edge8_Node000008_Node000009" class="edge">
<title>Node8&#45;&gt;Node9</title>
<g id="a_edge8_Node000008_Node000009"><a xlink:title=" ">
<path fill="none" stroke="#63b8ff" d="M129.64,-9.5C120.98,-9.5 112.32,-9.5 104.1,-9.5"/>
<polygon fill="#63b8ff" stroke="#63b8ff" points="129.78,-13 139.78,-9.5 129.78,-6 129.78,-13"/>
</a>
</g>
</g>
</g>
</svg>
