<?xml version="1.0" encoding="UTF-8" standalone="no"?>
<!DOCTYPE svg PUBLIC "-//W3C//DTD SVG 1.1//EN"
 "http://www.w3.org/Graphics/SVG/1.1/DTD/svg11.dtd">
<!-- Generated by graphviz version 2.43.0 (0)
 -->
<!-- Title: tools::ls Pages: 1 -->
<svg width="491pt" height="198pt"
 viewBox="0.00 0.00 491.00 198.00" xmlns="http://www.w3.org/2000/svg" xmlns:xlink="http://www.w3.org/1999/xlink">

<svg id="main" version="1.1" xmlns="http://www.w3.org/2000/svg" xmlns:xlink="http://www.w3.org/1999/xlink" xml:space="preserve" onload="init(evt)">
<style type="text/css"><![CDATA[
.node, .edge {opacity: 0.7;}
.node.selected, .edge.selected {opacity: 1;}
.edge:hover path { stroke: red; }
.edge:hover polygon { stroke: red; fill: red; }
]]></style>
<script type="application/ecmascript" xlink:href="svg.min.js"/>
<svg id="graph" class="graph">
<g id="graph0" class="graph" transform="scale(1 1) rotate(0) translate(4 194)">
<title>tools::ls</title>
<!-- Node1 -->
<g id="Node000001" class="node">
<title>Node1</title>
<g id="a_Node000001"><a xlink:title="Lists files in a directory, optionally filtered by extension.">
<polygon fill="#999999" stroke="#666666" points="483,-110 428,-110 428,-91 483,-91 483,-110"/>
<text text-anchor="middle" x="455.5" y="-98" font-family="Helvetica,sans-Serif" font-size="10.00">tools::ls</text>
</a>
</g>
</g>
<!-- Node2 -->
<g id="Node000002" class="node">
<title>Node2</title>
<g id="a_Node000002"><a xlink:href="classanalysis.html#a1391073bb18c75cdad4132e90992fcd3" target="_top" xlink:title="&lt; Public access specifier for the following members.">
<polygon fill="white" stroke="#666666" points="381.5,-190 277.5,-190 277.5,-171 381.5,-171 381.5,-190"/>
<text text-anchor="middle" x="329.5" y="-178" font-family="Helvetica,sans-Serif" font-size="10.00">analysis::analysis</text>
</a>
</g>
</g>
<!-- Node1&#45;&gt;Node2 -->
<g id="edge1_Node000001_Node000002" class="edge">
<title>Node1&#45;&gt;Node2</title>
<g id="a_edge1_Node000001_Node000002"><a xlink:title=" ">
<path fill="none" stroke="#63b8ff" d="M440.78,-118.32C429.18,-132.23 411.4,-151.05 392,-162.5 386.25,-165.89 379.82,-168.68 373.34,-170.97"/>
<polygon fill="#63b8ff" stroke="#63b8ff" points="443.61,-120.39 447.15,-110.41 438.15,-116 443.61,-120.39"/>
</a>
</g>
</g>
<!-- Node3 -->
<g id="Node000003" class="node">
<title>Node3</title>
<g id="a_Node000003"><a xlink:href="classanalysis.html#a0cbe44c90dab45066bfe074e506c5d8d" target="_top" xlink:title="&lt; Private access specifier for the following members.">
<polygon fill="white" stroke="#666666" points="392,-153 267,-153 267,-134 392,-134 392,-153"/>
<text text-anchor="middle" x="329.5" y="-141" font-family="Helvetica,sans-Serif" font-size="10.00">analysis::check_cache</text>
</a>
</g>
</g>
<!-- Node1&#45;&gt;Node3 -->
<g id="edge2_Node000001_Node000003" class="edge">
<title>Node1&#45;&gt;Node3</title>
<g id="a_edge2_Node000001_Node000003"><a xlink:title=" ">
<path fill="none" stroke="#63b8ff" d="M421.19,-113.77C411.8,-117.38 401.54,-121.2 392,-124.5 382.6,-127.75 372.3,-131.04 362.87,-133.94"/>
<polygon fill="#63b8ff" stroke="#63b8ff" points="422.54,-116.99 430.6,-110.11 420.01,-110.47 422.54,-116.99"/>
</a>
</g>
</g>
<!-- Node6 -->
<g id="Node000006" class="node">
<title>Node6</title>
<g id="a_Node000006"><a xlink:href="classio.html#ad9ed4dbed35a168511c44b38f8e8269b" target="_top" xlink:title="Checks the validity or accessibility of ROOT file paths defined in settings or configurations.">
<polygon fill="white" stroke="#666666" points="382,-115.5 277,-115.5 277,-85.5 382,-85.5 382,-115.5"/>
<text text-anchor="start" x="285" y="-103.5" font-family="Helvetica,sans-Serif" font-size="10.00">io::check_root_file</text>
<text text-anchor="middle" x="329.5" y="-92.5" font-family="Helvetica,sans-Serif" font-size="10.00">_paths</text>
</a>
</g>
</g>
<!-- Node1&#45;&gt;Node6 -->
<g id="edge6_Node000001_Node000006" class="edge">
<title>Node1&#45;&gt;Node6</title>
<g id="a_edge6_Node000001_Node000006"><a xlink:title=" ">
<path fill="none" stroke="#63b8ff" d="M417.66,-100.5C406.49,-100.5 394.02,-100.5 382.07,-100.5"/>
<polygon fill="#63b8ff" stroke="#63b8ff" points="417.9,-104 427.9,-100.5 417.9,-97 417.9,-104"/>
</a>
</g>
</g>
<!-- Node7 -->
<g id="Node000007" class="node">
<title>Node7</title>
<g id="a_Node000007"><a xlink:href="classdataloader.html#ae3bba702555507d8b6e5567c34d19142" target="_top" xlink:title=" ">
<polygon fill="white" stroke="#666666" points="384.5,-67.5 274.5,-67.5 274.5,-37.5 384.5,-37.5 384.5,-67.5"/>
<text text-anchor="start" x="282.5" y="-55.5" font-family="Helvetica,sans-Serif" font-size="10.00">dataloader::restore</text>
<text text-anchor="middle" x="329.5" y="-44.5" font-family="Helvetica,sans-Serif" font-size="10.00">_graphs</text>
</a>
</g>
</g>
<!-- Node1&#45;&gt;Node7 -->
<g id="edge7_Node000001_Node000007" class="edge">
<title>Node1&#45;&gt;Node7</title>
<g id="a_edge7_Node000001_Node000007"><a xlink:title=" ">
<path fill="none" stroke="#63b8ff" d="M420.32,-87.27C404.54,-81.16 385.73,-73.88 369.41,-67.56"/>
<polygon fill="#63b8ff" stroke="#63b8ff" points="419.12,-90.56 429.7,-90.9 421.64,-84.03 419.12,-90.56"/>
</a>
</g>
</g>
<!-- Node8 -->
<g id="Node000008" class="node">
<title>Node8</title>
<g id="a_Node000008"><a xlink:href="classio.html#a38cda1cf4b0ad6920e19780ad985d374" target="_top" xlink:title="Triggers the generation of a ROOT PCM (Precompiled Module) if needed for dictionary generation.">
<polygon fill="white" stroke="#666666" points="374.5,-19 284.5,-19 284.5,0 374.5,0 374.5,-19"/>
<text text-anchor="middle" x="329.5" y="-7" font-family="Helvetica,sans-Serif" font-size="10.00">io::trigger_pcm</text>
</a>
</g>
</g>
<!-- Node1&#45;&gt;Node8 -->
<g id="edge8_Node000001_Node000008" class="edge">
<title>Node1&#45;&gt;Node8</title>
<g id="a_edge8_Node000001_Node000008"><a xlink:title=" ">
<path fill="none" stroke="#63b8ff" d="M442.77,-81.89C431.59,-65.59 413.33,-42.41 392,-28.5 386.1,-24.65 379.38,-21.55 372.6,-19.06"/>
<polygon fill="#63b8ff" stroke="#63b8ff" points="440.07,-84.15 448.5,-90.57 445.91,-80.29 440.07,-84.15"/>
</a>
</g>
</g>
<!-- Node4 -->
<g id="Node000004" class="node">
<title>Node4</title>
<g id="a_Node000004"><a xlink:href="classanalysis.html#a401745bb4bcae03160ffa0b5df2887e7" target="_top" xlink:title="Starts the analysis execution.">
<polygon fill="white" stroke="#666666" points="231,-153 145,-153 145,-134 231,-134 231,-153"/>
<text text-anchor="middle" x="188" y="-141" font-family="Helvetica,sans-Serif" font-size="10.00">analysis::start</text>
</a>
</g>
</g>
<!-- Node3&#45;&gt;Node4 -->
<g id="edge3_Node000003_Node000004" class="edge">
<title>Node3&#45;&gt;Node4</title>
<g id="a_edge3_Node000003_Node000004"><a xlink:title=" ">
<path fill="none" stroke="#63b8ff" d="M256.64,-143.5C247.88,-143.5 239.17,-143.5 231.05,-143.5"/>
<polygon fill="#63b8ff" stroke="#63b8ff" points="256.91,-147 266.91,-143.5 256.91,-140 256.91,-147"/>
</a>
</g>
</g>
<!-- Node5 -->
<g id="Node000005" class="node">
<title>Node5</title>
<g id="a_Node000005"><a xlink:href="classanalysis.html#aa5f5f1de2fe05c9fb8c5c0fffbf7b938" target="_top" xlink:title="Fetches tags, possibly related to data versions, processing stages, or k&#45;folds.">
<polygon fill="white" stroke="#666666" points="109,-153 0,-153 0,-134 109,-134 109,-153"/>
<text text-anchor="middle" x="54.5" y="-141" font-family="Helvetica,sans-Serif" font-size="10.00">analysis::fetchtags</text>
</a>
</g>
</g>
<!-- Node4&#45;&gt;Node5 -->
<g id="edge4_Node000004_Node000005" class="edge">
<title>Node4&#45;&gt;Node5</title>
<g id="a_edge4_Node000004_Node000005"><a xlink:title=" ">
<path fill="none" stroke="#63b8ff" d="M134.4,-136.87C126.14,-136.72 117.59,-136.71 109.3,-136.85"/>
<polygon fill="#63b8ff" stroke="#63b8ff" points="134.58,-140.38 144.67,-137.15 134.77,-133.38 134.58,-140.38"/>
</a>
</g>
</g>
<!-- Node5&#45;&gt;Node4 -->
<g id="edge5_Node000005_Node000004" class="edge">
<title>Node5&#45;&gt;Node4</title>
<g id="a_edge5_Node000005_Node000004"><a xlink:title=" ">
<path fill="none" stroke="#63b8ff" d="M119.34,-150.25C127.93,-150.27 136.57,-150.14 144.67,-149.85"/>
<polygon fill="#63b8ff" stroke="#63b8ff" points="119.34,-146.75 109.3,-150.15 119.27,-153.75 119.34,-146.75"/>
</a>
</g>
</g>
</g>
</svg>
</svg>

<style type='text/css'>
<![CDATA[
[data-mouse-over-selected='false'] { opacity: 0.7; }
[data-mouse-over-selected='true']  { opacity: 1.0; }
]]>
</style>
<script type="application/ecmascript"><![CDATA[
document.addEventListener('DOMContentLoaded', (event) => {
  highlightEdges();
  highlightAdjacentNodes();
});
]]></script>
</svg>
