<?xml version="1.0" encoding="UTF-8" standalone="no"?>
<!DOCTYPE svg PUBLIC "-//W3C//DTD SVG 1.1//EN"
 "http://www.w3.org/Graphics/SVG/1.1/DTD/svg11.dtd">
<!-- Generated by graphviz version 2.43.0 (0)
 -->
<!-- Title: topjets::strategy Pages: 1 -->
<svg width="278pt" height="342pt"
 viewBox="0.00 0.00 278.00 342.00" xmlns="http://www.w3.org/2000/svg" xmlns:xlink="http://www.w3.org/1999/xlink">
<g id="graph0" class="graph" transform="scale(1 1) rotate(0) translate(4 338)">
<title>topjets::strategy</title>
<!-- Node1 -->
<g id="Node000001" class="node">
<title>Node1</title>
<g id="a_Node000001"><a xlink:title="Alternative selection strategy method.">
<polygon fill="#999999" stroke="#666666" points="97,-162.5 0,-162.5 0,-143.5 97,-143.5 97,-162.5"/>
<text text-anchor="middle" x="48.5" y="-150.5" font-family="Helvetica,sans-Serif" font-size="10.00">topjets::strategy</text>
</a>
</g>
</g>
<!-- Node2 -->
<g id="Node000002" class="node">
<title>Node2</title>
<g id="a_Node000002"><a xlink:href="classselection__template.html#a3009dc4bb45c47d96a5bdc4096bd6870" target="_top" xlink:title="Checks if a particle is contained in a vector.">
<polygon fill="white" stroke="#666666" points="256.5,-334 146.5,-334 146.5,-304 256.5,-304 256.5,-334"/>
<text text-anchor="start" x="154.5" y="-322" font-family="Helvetica,sans-Serif" font-size="10.00">selection_template</text>
<text text-anchor="middle" x="201.5" y="-311" font-family="Helvetica,sans-Serif" font-size="10.00">::contains</text>
</a>
</g>
</g>
<!-- Node1&#45;&gt;Node2 -->
<g id="edge1_Node000001_Node000002" class="edge">
<title>Node1&#45;&gt;Node2</title>
<g id="a_edge1_Node000001_Node000002"><a xlink:title=" ">
<path fill="none" stroke="#63b8ff" d="M52.61,-162.84C61.19,-188.4 87.58,-257.48 133,-295 134.55,-296.28 136.17,-297.49 137.84,-298.64"/>
<polygon fill="#63b8ff" stroke="#63b8ff" points="136.25,-301.77 146.64,-303.88 139.84,-295.75 136.25,-301.77"/>
</a>
</g>
</g>
<!-- Node3 -->
<g id="Node000003" class="node">
<title>Node3</title>
<g id="a_Node000003"><a xlink:href="classselection__template.html#ab32b926ee893cf56dc27913271658d1e" target="_top" xlink:title="Downcasts particles to base particle_template type.">
<polygon fill="white" stroke="#666666" points="256.5,-286 146.5,-286 146.5,-256 256.5,-256 256.5,-286"/>
<text text-anchor="start" x="154.5" y="-274" font-family="Helvetica,sans-Serif" font-size="10.00">selection_template</text>
<text text-anchor="middle" x="201.5" y="-263" font-family="Helvetica,sans-Serif" font-size="10.00">::downcast</text>
</a>
</g>
</g>
<!-- Node1&#45;&gt;Node3 -->
<g id="edge2_Node000001_Node000003" class="edge">
<title>Node1&#45;&gt;Node3</title>
<g id="a_edge2_Node000001_Node000003"><a xlink:title=" ">
<path fill="none" stroke="#63b8ff" d="M55.64,-162.71C68.04,-181.55 97.88,-223.33 133,-247 135.37,-248.6 137.86,-250.1 140.42,-251.51"/>
<polygon fill="#63b8ff" stroke="#63b8ff" points="138.87,-254.65 149.38,-255.98 142,-248.39 138.87,-254.65"/>
</a>
</g>
</g>
<!-- Node4 -->
<g id="Node000004" class="node">
<title>Node4</title>
<g id="a_Node000004"><a xlink:href="classselection__template.html#ad27d2cd85c19147b85b1e96ce73bdade" target="_top" xlink:title="Extracts leptonic particles (leptons and neutrinos) from a map.">
<polygon fill="white" stroke="#666666" points="256.5,-238 146.5,-238 146.5,-208 256.5,-208 256.5,-238"/>
<text text-anchor="start" x="154.5" y="-226" font-family="Helvetica,sans-Serif" font-size="10.00">selection_template</text>
<text text-anchor="middle" x="201.5" y="-215" font-family="Helvetica,sans-Serif" font-size="10.00">::get_leptonics</text>
</a>
</g>
</g>
<!-- Node1&#45;&gt;Node4 -->
<g id="edge3_Node000001_Node000004" class="edge">
<title>Node1&#45;&gt;Node4</title>
<g id="a_edge3_Node000001_Node000004"><a xlink:title=" ">
<path fill="none" stroke="#63b8ff" d="M65.12,-162.6C81.6,-172.5 108.55,-188 133,-199 137.07,-200.83 141.32,-202.62 145.62,-204.34"/>
<polygon fill="#63b8ff" stroke="#63b8ff" points="144.49,-207.65 155.08,-207.99 147.01,-201.12 144.49,-207.65"/>
</a>
</g>
</g>
<!-- Node5 -->
<g id="Node000005" class="node">
<title>Node5</title>
<g id="a_Node000005"><a xlink:href="classselection__template.html#a76e4fafd2338fada8d38912c6c803317" target="_top" xlink:title="Removes duplicate particles based on hash.">
<polygon fill="white" stroke="#666666" points="256.5,-190 146.5,-190 146.5,-160 256.5,-160 256.5,-190"/>
<text text-anchor="start" x="154.5" y="-178" font-family="Helvetica,sans-Serif" font-size="10.00">selection_template</text>
<text text-anchor="middle" x="201.5" y="-167" font-family="Helvetica,sans-Serif" font-size="10.00">::make_unique</text>
</a>
</g>
</g>
<!-- Node1&#45;&gt;Node5 -->
<g id="edge4_Node000001_Node000005" class="edge">
<title>Node1&#45;&gt;Node5</title>
<g id="a_edge4_Node000001_Node000005"><a xlink:title=" ">
<path fill="none" stroke="#63b8ff" d="M97.28,-159.96C109.74,-161.78 123.37,-163.76 136.53,-165.68"/>
<polygon fill="#63b8ff" stroke="#63b8ff" points="136.07,-169.15 146.47,-167.13 137.07,-162.22 136.07,-169.15"/>
</a>
</g>
</g>
<!-- Node6 -->
<g id="Node000006" class="node">
<title>Node6</title>
<g id="a_Node000006"><a xlink:href="merge__cast_8h.html#a205af11d07be8d10770e7392817fc5c3" target="_top" xlink:title=" ">
<polygon fill="white" stroke="#666666" points="239,-141.5 164,-141.5 164,-122.5 239,-122.5 239,-141.5"/>
<text text-anchor="middle" x="201.5" y="-129.5" font-family="Helvetica,sans-Serif" font-size="10.00">merge_data</text>
</a>
</g>
</g>
<!-- Node1&#45;&gt;Node6 -->
<g id="edge5_Node000001_Node000006" class="edge">
<title>Node1&#45;&gt;Node6</title>
<g id="a_edge5_Node000001_Node000006"><a xlink:title=" ">
<path fill="none" stroke="#63b8ff" d="M97.28,-146.36C115.27,-143.85 135.71,-141.01 153.62,-138.52"/>
<polygon fill="#63b8ff" stroke="#63b8ff" points="154.14,-141.98 163.56,-137.14 153.17,-135.05 154.14,-141.98"/>
</a>
</g>
</g>
<!-- Node7 -->
<g id="Node000007" class="node">
<title>Node7</title>
<g id="a_Node000007"><a xlink:href="classselection__template.html#a84df199f6022f2a5d27979d43de51547" target="_top" xlink:title="Sums particles into a combined particle.">
<polygon fill="white" stroke="#666666" points="270,-104.5 133,-104.5 133,-85.5 270,-85.5 270,-104.5"/>
<text text-anchor="middle" x="201.5" y="-92.5" font-family="Helvetica,sans-Serif" font-size="10.00">selection_template::sum</text>
</a>
</g>
</g>
<!-- Node1&#45;&gt;Node7 -->
<g id="edge6_Node000001_Node000007" class="edge">
<title>Node1&#45;&gt;Node7</title>
<g id="a_edge6_Node000001_Node000007"><a xlink:title=" ">
<path fill="none" stroke="#63b8ff" d="M67.7,-143.45C84.38,-134.95 109.9,-122.58 133,-114 139.29,-111.66 145.99,-109.45 152.65,-107.42"/>
<polygon fill="#63b8ff" stroke="#63b8ff" points="153.7,-110.76 162.31,-104.58 151.73,-104.05 153.7,-110.76"/>
</a>
</g>
</g>
<!-- Node8 -->
<g id="Node000008" class="node">
<title>Node8</title>
<g id="a_Node000008"><a xlink:href="classtools.html#afd037c109d75a9f119ec042e1ba922d9" target="_top" xlink:title="Converts a double value to a string with standard precision.">
<polygon fill="white" stroke="#666666" points="246,-67.5 157,-67.5 157,-48.5 246,-48.5 246,-67.5"/>
<text text-anchor="middle" x="201.5" y="-55.5" font-family="Helvetica,sans-Serif" font-size="10.00">tools::to_string</text>
</a>
</g>
</g>
<!-- Node1&#45;&gt;Node8 -->
<g id="edge7_Node000001_Node000008" class="edge">
<title>Node1&#45;&gt;Node8</title>
<g id="a_edge7_Node000001_Node000008"><a xlink:title=" ">
<path fill="none" stroke="#63b8ff" d="M57.44,-143.29C71.17,-127.14 100.94,-94.78 133,-77 137.48,-74.52 142.3,-72.34 147.24,-70.43"/>
<polygon fill="#63b8ff" stroke="#63b8ff" points="148.54,-73.68 156.83,-67.08 146.23,-67.07 148.54,-73.68"/>
</a>
</g>
</g>
<!-- Node9 -->
<g id="Node000009" class="node">
<title>Node9</title>
<g id="a_Node000009"><a xlink:href="classselection__template.html#acfb4c50041c70205e08f6ccb4a850979" target="_top" xlink:title="Converts a map to a vector.">
<polygon fill="white" stroke="#666666" points="256.5,-30 146.5,-30 146.5,0 256.5,0 256.5,-30"/>
<text text-anchor="start" x="154.5" y="-18" font-family="Helvetica,sans-Serif" font-size="10.00">selection_template</text>
<text text-anchor="middle" x="201.5" y="-7" font-family="Helvetica,sans-Serif" font-size="10.00">::vectorize</text>
</a>
</g>
</g>
<!-- Node1&#45;&gt;Node9 -->
<g id="edge8_Node000001_Node000009" class="edge">
<title>Node1&#45;&gt;Node9</title>
<g id="a_edge8_Node000001_Node000009"><a xlink:title=" ">
<path fill="none" stroke="#63b8ff" d="M54.14,-143.35C64.97,-121.79 94,-69.31 133,-40 135.47,-38.15 138.09,-36.42 140.81,-34.8"/>
<polygon fill="#63b8ff" stroke="#63b8ff" points="142.57,-37.83 149.77,-30.05 139.3,-31.64 142.57,-37.83"/>
</a>
</g>
</g>
</g>
</svg>
