<?xml version="1.0" encoding="UTF-8" standalone="no"?>
<!DOCTYPE svg PUBLIC "-//W3C//DTD SVG 1.1//EN"
 "http://www.w3.org/Graphics/SVG/1.1/DTD/svg11.dtd">
<!-- Generated by graphviz version 2.43.0 (0)
 -->
<!-- Title: chi2 Pages: 1 -->
<svg width="408pt" height="64pt"
 viewBox="0.00 0.00 408.00 64.00" xmlns="http://www.w3.org/2000/svg" xmlns:xlink="http://www.w3.org/1999/xlink">

<svg id="main" version="1.1" xmlns="http://www.w3.org/2000/svg" xmlns:xlink="http://www.w3.org/1999/xlink" xml:space="preserve" onload="init(evt)">
<style type="text/css"><![CDATA[
.node, .edge {opacity: 0.7;}
.node.selected, .edge.selected {opacity: 1;}
.edge:hover path { stroke: red; }
.edge:hover polygon { stroke: red; fill: red; }
]]></style>
<script type="application/ecmascript" xlink:href="svg.min.js"/>
<svg id="graph" class="graph">
<g id="graph0" class="graph" transform="scale(1 1) rotate(0) translate(4 60)">
<title>chi2</title>
<!-- Node1 -->
<g id="Node000001" class="node">
<title>Node1</title>
<g id="a_Node000001"><a xlink:title=" ">
<polygon fill="#999999" stroke="#666666" points="400,-37 363,-37 363,-18 400,-18 400,-37"/>
<text text-anchor="middle" x="381.5" y="-25" font-family="Helvetica,sans-Serif" font-size="10.00">chi2</text>
</a>
</g>
</g>
<!-- Node2 -->
<g id="Node000002" class="node">
<title>Node2</title>
<g id="a_Node000002"><a xlink:href="namespacenusol__.html#a6f05175e14627bd3c34ffa61686b7da4" target="_top" xlink:title=" ">
<polygon fill="white" stroke="#666666" points="281,-56 213,-56 213,-37 281,-37 281,-56"/>
<text text-anchor="middle" x="247" y="-44" font-family="Helvetica,sans-Serif" font-size="10.00">nusol_::Nu</text>
</a>
</g>
</g>
<!-- Node1&#45;&gt;Node2 -->
<g id="edge1_Node000001_Node000002" class="edge">
<title>Node1&#45;&gt;Node2</title>
<g id="a_edge1_Node000001_Node000002"><a xlink:title=" ">
<path fill="none" stroke="#63b8ff" d="M352.79,-31.47C331.95,-34.46 303.31,-38.57 281.23,-41.73"/>
<polygon fill="#63b8ff" stroke="#63b8ff" points="353.5,-34.91 362.91,-30.02 352.51,-27.98 353.5,-34.91"/>
</a>
</g>
</g>
<!-- Node4 -->
<g id="Node000004" class="node">
<title>Node4</title>
<g id="a_Node000004"><a xlink:href="classcombinatorial.html#a4f90aaf04154a0d1ca9d59e1ccb2c54e" target="_top" xlink:title=" ">
<polygon fill="white" stroke="#666666" points="327,-19 167,-19 167,0 327,0 327,-19"/>
<text text-anchor="middle" x="247" y="-7" font-family="Helvetica,sans-Serif" font-size="10.00">combinatorial::reconstruction</text>
</a>
</g>
</g>
<!-- Node1&#45;&gt;Node4 -->
<g id="edge3_Node000001_Node000004" class="edge">
<title>Node1&#45;&gt;Node4</title>
<g id="a_edge3_Node000001_Node000004"><a xlink:title=" ">
<path fill="none" stroke="#63b8ff" d="M352.98,-23.76C342.72,-22.37 330.55,-20.71 318.19,-19.04"/>
<polygon fill="#63b8ff" stroke="#63b8ff" points="352.52,-27.23 362.91,-25.11 353.47,-20.3 352.52,-27.23"/>
</a>
</g>
</g>
<!-- Node3 -->
<g id="Node000003" class="node">
<title>Node3</title>
<g id="a_Node000003"><a xlink:href="namespacepyc_1_1nusol.html#a991cfa801400211ccf412bd1a85b7b69" target="_top" xlink:title=" ">
<polygon fill="white" stroke="#666666" points="108.5,-56 22.5,-56 22.5,-37 108.5,-37 108.5,-56"/>
<text text-anchor="middle" x="65.5" y="-44" font-family="Helvetica,sans-Serif" font-size="10.00">pyc::nusol::Nu</text>
</a>
</g>
</g>
<!-- Node2&#45;&gt;Node3 -->
<g id="edge2_Node000002_Node000003" class="edge">
<title>Node2&#45;&gt;Node3</title>
<g id="a_edge2_Node000002_Node000003"><a xlink:title=" ">
<path fill="none" stroke="#63b8ff" d="M202.56,-46.5C173.99,-46.5 136.8,-46.5 108.52,-46.5"/>
<polygon fill="#63b8ff" stroke="#63b8ff" points="202.66,-50 212.66,-46.5 202.66,-43 202.66,-50"/>
</a>
</g>
</g>
<!-- Node5 -->
<g id="Node000005" class="node">
<title>Node5</title>
<g id="a_Node000005"><a xlink:href="classcombinatorial.html#a5cd8d199d3f8fe6c9f0b8e1c2e2f7bfd" target="_top" xlink:title="Alternative selection strategy method.">
<polygon fill="white" stroke="#666666" points="131,-19 0,-19 0,0 131,0 131,-19"/>
<text text-anchor="middle" x="65.5" y="-7" font-family="Helvetica,sans-Serif" font-size="10.00">combinatorial::strategy</text>
</a>
</g>
</g>
<!-- Node4&#45;&gt;Node5 -->
<g id="edge4_Node000004_Node000005" class="edge">
<title>Node4&#45;&gt;Node5</title>
<g id="a_edge4_Node000004_Node000005"><a xlink:title=" ">
<path fill="none" stroke="#63b8ff" d="M156.64,-9.5C148.02,-9.5 139.39,-9.5 131.07,-9.5"/>
<polygon fill="#63b8ff" stroke="#63b8ff" points="156.75,-13 166.75,-9.5 156.75,-6 156.75,-13"/>
</a>
</g>
</g>
</g>
</svg>
</svg>

<style type='text/css'>
<![CDATA[
[data-mouse-over-selected='false'] { opacity: 0.7; }
[data-mouse-over-selected='true']  { opacity: 1.0; }
]]>
</style>
<script type="application/ecmascript"><![CDATA[
document.addEventListener('DOMContentLoaded', (event) => {
  highlightEdges();
  highlightAdjacentNodes();
});
]]></script>
</svg>
