<?xml version="1.0" encoding="UTF-8" standalone="no"?>
<!DOCTYPE svg PUBLIC "-//W3C//DTD SVG 1.1//EN"
 "http://www.w3.org/Graphics/SVG/1.1/DTD/svg11.dtd">
<!-- Generated by graphviz version 2.43.0 (0)
 -->
<!-- Title: safe_get Pages: 1 -->
<svg width="430pt" height="27pt"
 viewBox="0.00 0.00 430.00 27.00" xmlns="http://www.w3.org/2000/svg" xmlns:xlink="http://www.w3.org/1999/xlink">
<g id="graph0" class="graph" transform="scale(1 1) rotate(0) translate(4 23)">
<title>safe_get</title>
<!-- Node1 -->
<g id="Node000001" class="node">
<title>Node1</title>
<g id="a_Node000001"><a xlink:title=" ">
<polygon fill="#999999" stroke="#666666" points="422,-19 363,-19 363,0 422,0 422,-19"/>
<text text-anchor="middle" x="392.5" y="-7" font-family="Helvetica,sans-Serif" font-size="10.00">safe_get</text>
</a>
</g>
</g>
<!-- Node2 -->
<g id="Node000002" class="node">
<title>Node2</title>
<g id="a_Node000002"><a xlink:href="classcombinatorial.html#a4f90aaf04154a0d1ca9d59e1ccb2c54e" target="_top" xlink:title=" ">
<polygon fill="white" stroke="#666666" points="327,-19 167,-19 167,0 327,0 327,-19"/>
<text text-anchor="middle" x="247" y="-7" font-family="Helvetica,sans-Serif" font-size="10.00">combinatorial::reconstruction</text>
</a>
</g>
</g>
<!-- Node1&#45;&gt;Node2 -->
<g id="edge1_Node000001_Node000002" class="edge">
<title>Node1&#45;&gt;Node2</title>
<g id="a_edge1_Node000001_Node000002"><a xlink:title=" ">
<path fill="none" stroke="#63b8ff" d="M352.74,-9.5C344.74,-9.5 336.05,-9.5 327.2,-9.5"/>
<polygon fill="#63b8ff" stroke="#63b8ff" points="352.81,-13 362.81,-9.5 352.81,-6 352.81,-13"/>
</a>
</g>
</g>
<!-- Node3 -->
<g id="Node000003" class="node">
<title>Node3</title>
<g id="a_Node000003"><a xlink:href="classcombinatorial.html#a5cd8d199d3f8fe6c9f0b8e1c2e2f7bfd" target="_top" xlink:title="Alternative selection strategy method.">
<polygon fill="white" stroke="#666666" points="131,-19 0,-19 0,0 131,0 131,-19"/>
<text text-anchor="middle" x="65.5" y="-7" font-family="Helvetica,sans-Serif" font-size="10.00">combinatorial::strategy</text>
</a>
</g>
</g>
<!-- Node2&#45;&gt;Node3 -->
<g id="edge2_Node000002_Node000003" class="edge">
<title>Node2&#45;&gt;Node3</title>
<g id="a_edge2_Node000002_Node000003"><a xlink:title=" ">
<path fill="none" stroke="#63b8ff" d="M156.64,-9.5C148.02,-9.5 139.39,-9.5 131.07,-9.5"/>
<polygon fill="#63b8ff" stroke="#63b8ff" points="156.75,-13 166.75,-9.5 156.75,-6 156.75,-13"/>
</a>
</g>
</g>
</g>
</svg>
