<?xml version="1.0" encoding="UTF-8" standalone="no"?>
<!DOCTYPE svg PUBLIC "-//W3C//DTD SVG 1.1//EN"
 "http://www.w3.org/Graphics/SVG/1.1/DTD/svg11.dtd">
<!-- Generated by graphviz version 2.43.0 (0)
 -->
<!-- Title: container.h Pages: 1 -->
<svg width="914pt" height="192pt"
 viewBox="0.00 0.00 913.50 192.00" xmlns="http://www.w3.org/2000/svg" xmlns:xlink="http://www.w3.org/1999/xlink">
<g id="graph0" class="graph" transform="scale(1 1) rotate(0) translate(4 188)">
<title>container.h</title>
<!-- Node1 -->
<g id="Node000001" class="node">
<title>Node1</title>
<g id="a_Node000001"><a xlink:title=" ">
<polygon fill="#999999" stroke="#666666" points="421,-184 350,-184 350,-165 421,-165 421,-184"/>
<text text-anchor="middle" x="385.5" y="-172" font-family="Helvetica,sans-Serif" font-size="10.00">container.h</text>
</a>
</g>
</g>
<!-- Node2 -->
<g id="Node000002" class="node">
<title>Node2</title>
<g id="a_Node000002"><a xlink:href="container_8cxx.html" target="_top" xlink:title=" ">
<polygon fill="white" stroke="#666666" points="331.5,-129 249.5,-129 249.5,-110 331.5,-110 331.5,-129"/>
<text text-anchor="middle" x="290.5" y="-117" font-family="Helvetica,sans-Serif" font-size="10.00">container.cxx</text>
</a>
</g>
</g>
<!-- Node1&#45;&gt;Node2 -->
<g id="edge1_Node000001_Node000002" class="edge">
<title>Node1&#45;&gt;Node2</title>
<g id="a_edge1_Node000001_Node000002"><a xlink:title=" ">
<path fill="none" stroke="#63b8ff" d="M361.24,-159.97C343.87,-150.28 321.01,-137.52 306.04,-129.17"/>
<polygon fill="#63b8ff" stroke="#63b8ff" points="359.8,-163.17 370.24,-164.98 363.21,-157.06 359.8,-163.17"/>
</a>
</g>
</g>
<!-- Node3 -->
<g id="Node000003" class="node">
<title>Node3</title>
<g id="a_Node000003"><a xlink:href="entries_8cxx.html" target="_top" xlink:title=" ">
<polygon fill="white" stroke="#666666" points="421,-129 350,-129 350,-110 421,-110 421,-129"/>
<text text-anchor="middle" x="385.5" y="-117" font-family="Helvetica,sans-Serif" font-size="10.00">entries.cxx</text>
</a>
</g>
</g>
<!-- Node1&#45;&gt;Node3 -->
<g id="edge2_Node000001_Node000003" class="edge">
<title>Node1&#45;&gt;Node3</title>
<g id="a_edge2_Node000001_Node000003"><a xlink:title=" ">
<path fill="none" stroke="#63b8ff" d="M385.5,-154.66C385.5,-145.93 385.5,-135.99 385.5,-129.09"/>
<polygon fill="#63b8ff" stroke="#63b8ff" points="382,-154.75 385.5,-164.75 389,-154.75 382,-154.75"/>
</a>
</g>
</g>
<!-- Node4 -->
<g id="Node000004" class="node">
<title>Node4</title>
<g id="a_Node000004"><a xlink:href="sampletracer_8h.html" target="_top" xlink:title=" ">
<polygon fill="white" stroke="#666666" points="528,-129 439,-129 439,-110 528,-110 528,-129"/>
<text text-anchor="middle" x="483.5" y="-117" font-family="Helvetica,sans-Serif" font-size="10.00">sampletracer.h</text>
</a>
</g>
</g>
<!-- Node1&#45;&gt;Node4 -->
<g id="edge3_Node000001_Node000004" class="edge">
<title>Node1&#45;&gt;Node4</title>
<g id="a_edge3_Node000001_Node000004"><a xlink:title=" ">
<path fill="none" stroke="#63b8ff" d="M410.53,-159.97C428.44,-150.28 452.03,-137.52 467.47,-129.17"/>
<polygon fill="#63b8ff" stroke="#63b8ff" points="408.38,-157.15 401.25,-164.98 411.71,-163.31 408.38,-157.15"/>
</a>
</g>
</g>
<!-- Node5 -->
<g id="Node000005" class="node">
<title>Node5</title>
<g id="a_Node000005"><a xlink:href="analysis_8h.html" target="_top" xlink:title="Defines the analysis class, the central orchestrator for physics analysis tasks.">
<polygon fill="white" stroke="#666666" points="465.5,-74 399.5,-74 399.5,-55 465.5,-55 465.5,-74"/>
<text text-anchor="middle" x="432.5" y="-62" font-family="Helvetica,sans-Serif" font-size="10.00">analysis.h</text>
</a>
</g>
</g>
<!-- Node4&#45;&gt;Node5 -->
<g id="edge4_Node000004_Node000005" class="edge">
<title>Node4&#45;&gt;Node5</title>
<g id="a_edge4_Node000004_Node000005"><a xlink:title=" ">
<path fill="none" stroke="#63b8ff" d="M468.12,-102.52C459.13,-93.18 448.14,-81.75 440.76,-74.09"/>
<polygon fill="#63b8ff" stroke="#63b8ff" points="465.62,-104.97 475.08,-109.75 470.67,-100.12 465.62,-104.97"/>
</a>
</g>
</g>
<!-- Node14 -->
<g id="Node000014" class="node">
<title>Node14</title>
<g id="a_Node000014"><a xlink:href="sampletracer_8cxx.html" target="_top" xlink:title="Implementation of the sampletracer class for parallel data processing.">
<polygon fill="white" stroke="#666666" points="585,-74 484,-74 484,-55 585,-55 585,-74"/>
<text text-anchor="middle" x="534.5" y="-62" font-family="Helvetica,sans-Serif" font-size="10.00">sampletracer.cxx</text>
</a>
</g>
</g>
<!-- Node4&#45;&gt;Node14 -->
<g id="edge13_Node000004_Node000014" class="edge">
<title>Node4&#45;&gt;Node14</title>
<g id="a_edge13_Node000004_Node000014"><a xlink:title=" ">
<path fill="none" stroke="#63b8ff" d="M498.88,-102.52C507.87,-93.18 518.86,-81.75 526.24,-74.09"/>
<polygon fill="#63b8ff" stroke="#63b8ff" points="496.33,-100.12 491.92,-109.75 501.38,-104.97 496.33,-100.12"/>
</a>
</g>
</g>
<!-- Node6 -->
<g id="Node000006" class="node">
<title>Node6</title>
<g id="a_Node000006"><a xlink:href="analysis_8cxx.html" target="_top" xlink:title=" ">
<polygon fill="white" stroke="#666666" points="77,-19 0,-19 0,0 77,0 77,-19"/>
<text text-anchor="middle" x="38.5" y="-7" font-family="Helvetica,sans-Serif" font-size="10.00">analysis.cxx</text>
</a>
</g>
</g>
<!-- Node5&#45;&gt;Node6 -->
<g id="edge5_Node000005_Node000006" class="edge">
<title>Node5&#45;&gt;Node6</title>
<g id="a_edge5_Node000005_Node000006"><a xlink:title=" ">
<path fill="none" stroke="#63b8ff" d="M389.04,-58.58C323.38,-51 195.04,-35.58 86.5,-19 83.49,-18.54 80.37,-18.04 77.25,-17.52"/>
<polygon fill="#63b8ff" stroke="#63b8ff" points="388.69,-62.06 399.03,-59.73 389.49,-55.11 388.69,-62.06"/>
</a>
</g>
</g>
<!-- Node7 -->
<g id="Node000007" class="node">
<title>Node7</title>
<g id="a_Node000007"><a xlink:href="event__build_8cxx.html" target="_top" xlink:title=" ">
<polygon fill="white" stroke="#666666" points="189.5,-19 95.5,-19 95.5,0 189.5,0 189.5,-19"/>
<text text-anchor="middle" x="142.5" y="-7" font-family="Helvetica,sans-Serif" font-size="10.00">event_build.cxx</text>
</a>
</g>
</g>
<!-- Node5&#45;&gt;Node7 -->
<g id="edge6_Node000005_Node000007" class="edge">
<title>Node5&#45;&gt;Node7</title>
<g id="a_edge6_Node000005_Node000007"><a xlink:title=" ">
<path fill="none" stroke="#63b8ff" d="M389.35,-55.61C335.7,-45.81 244.47,-29.14 189.22,-19.04"/>
<polygon fill="#63b8ff" stroke="#63b8ff" points="388.77,-59.07 399.23,-57.42 390.03,-52.18 388.77,-59.07"/>
</a>
</g>
</g>
<!-- Node8 -->
<g id="Node000008" class="node">
<title>Node8</title>
<g id="a_Node000008"><a xlink:href="graph__build_8cxx.html" target="_top" xlink:title=" ">
<polygon fill="white" stroke="#666666" points="301.5,-19 207.5,-19 207.5,0 301.5,0 301.5,-19"/>
<text text-anchor="middle" x="254.5" y="-7" font-family="Helvetica,sans-Serif" font-size="10.00">graph_build.cxx</text>
</a>
</g>
</g>
<!-- Node5&#45;&gt;Node8 -->
<g id="edge7_Node000005_Node000008" class="edge">
<title>Node5&#45;&gt;Node8</title>
<g id="a_edge7_Node000005_Node000008"><a xlink:title=" ">
<path fill="none" stroke="#63b8ff" d="M394.06,-52.06C360.8,-42.15 313.42,-28.04 283.32,-19.08"/>
<polygon fill="#63b8ff" stroke="#63b8ff" points="393.32,-55.49 403.9,-54.98 395.32,-48.78 393.32,-55.49"/>
</a>
</g>
</g>
<!-- Node9 -->
<g id="Node000009" class="node">
<title>Node9</title>
<g id="a_Node000009"><a xlink:href="inference__build_8cxx.html" target="_top" xlink:title=" ">
<polygon fill="white" stroke="#666666" points="431.5,-19 319.5,-19 319.5,0 431.5,0 431.5,-19"/>
<text text-anchor="middle" x="375.5" y="-7" font-family="Helvetica,sans-Serif" font-size="10.00">inference_build.cxx</text>
</a>
</g>
</g>
<!-- Node5&#45;&gt;Node9 -->
<g id="edge8_Node000005_Node000009" class="edge">
<title>Node5&#45;&gt;Node9</title>
<g id="a_edge8_Node000005_Node000009"><a xlink:title=" ">
<path fill="none" stroke="#63b8ff" d="M415.88,-48.04C405.77,-38.64 393.22,-26.98 384.82,-19.17"/>
<polygon fill="#63b8ff" stroke="#63b8ff" points="413.64,-50.74 423.34,-54.98 418.4,-45.61 413.64,-50.74"/>
</a>
</g>
</g>
<!-- Node10 -->
<g id="Node000010" class="node">
<title>Node10</title>
<g id="a_Node000010"><a xlink:href="methods_8cxx.html" target="_top" xlink:title=" ">
<polygon fill="white" stroke="#666666" points="529.5,-19 449.5,-19 449.5,0 529.5,0 529.5,-19"/>
<text text-anchor="middle" x="489.5" y="-7" font-family="Helvetica,sans-Serif" font-size="10.00">methods.cxx</text>
</a>
</g>
</g>
<!-- Node5&#45;&gt;Node10 -->
<g id="edge9_Node000005_Node000010" class="edge">
<title>Node5&#45;&gt;Node10</title>
<g id="a_edge9_Node000005_Node000010"><a xlink:title=" ">
<path fill="none" stroke="#63b8ff" d="M449.12,-48.04C459.23,-38.64 471.78,-26.98 480.18,-19.17"/>
<polygon fill="#63b8ff" stroke="#63b8ff" points="446.6,-45.61 441.66,-54.98 451.36,-50.74 446.6,-45.61"/>
</a>
</g>
</g>
<!-- Node11 -->
<g id="Node000011" class="node">
<title>Node11</title>
<g id="a_Node000011"><a xlink:href="metric__build_8cxx.html" target="_top" xlink:title=" ">
<polygon fill="white" stroke="#666666" points="645.5,-19 547.5,-19 547.5,0 645.5,0 645.5,-19"/>
<text text-anchor="middle" x="596.5" y="-7" font-family="Helvetica,sans-Serif" font-size="10.00">metric_build.cxx</text>
</a>
</g>
</g>
<!-- Node5&#45;&gt;Node11 -->
<g id="edge10_Node000005_Node000011" class="edge">
<title>Node5&#45;&gt;Node11</title>
<g id="a_edge10_Node000005_Node000011"><a xlink:title=" ">
<path fill="none" stroke="#63b8ff" d="M468.71,-51.8C499.32,-41.91 542.45,-27.97 569.94,-19.08"/>
<polygon fill="#63b8ff" stroke="#63b8ff" points="467.29,-48.58 458.85,-54.98 469.44,-55.24 467.29,-48.58"/>
</a>
</g>
</g>
<!-- Node12 -->
<g id="Node000012" class="node">
<title>Node12</title>
<g id="a_Node000012"><a xlink:href="optimizer__build_8cxx.html" target="_top" xlink:title="Implementation of model session creation and management in the analysis class.">
<polygon fill="white" stroke="#666666" points="777,-19 664,-19 664,0 777,0 777,-19"/>
<text text-anchor="middle" x="720.5" y="-7" font-family="Helvetica,sans-Serif" font-size="10.00">optimizer_build.cxx</text>
</a>
</g>
</g>
<!-- Node5&#45;&gt;Node12 -->
<g id="edge11_Node000005_Node000012" class="edge">
<title>Node5&#45;&gt;Node12</title>
<g id="a_edge11_Node000005_Node000012"><a xlink:title=" ">
<path fill="none" stroke="#63b8ff" d="M475.46,-54.85C549.44,-40.73 623.88,-27.44 671.44,-19.07"/>
<polygon fill="#63b8ff" stroke="#63b8ff" points="474.67,-51.44 465.5,-56.75 475.98,-58.31 474.67,-51.44"/>
</a>
</g>
</g>
<!-- Node13 -->
<g id="Node000013" class="node">
<title>Node13</title>
<g id="a_Node000013"><a xlink:href="selection__build_8cxx.html" target="_top" xlink:title=" ">
<polygon fill="white" stroke="#666666" points="905.5,-19 795.5,-19 795.5,0 905.5,0 905.5,-19"/>
<text text-anchor="middle" x="850.5" y="-7" font-family="Helvetica,sans-Serif" font-size="10.00">selection_build.cxx</text>
</a>
</g>
</g>
<!-- Node5&#45;&gt;Node13 -->
<g id="edge12_Node000005_Node000013" class="edge">
<title>Node5&#45;&gt;Node13</title>
<g id="a_edge12_Node000005_Node000013"><a xlink:title=" ">
<path fill="none" stroke="#63b8ff" d="M476.04,-54.87C614.09,-33.27 651.22,-35.79 786.5,-19 789.39,-18.64 792.36,-18.27 795.35,-17.89"/>
<polygon fill="#63b8ff" stroke="#63b8ff" points="475.26,-51.45 465.92,-56.47 476.35,-58.37 475.26,-51.45"/>
</a>
</g>
</g>
</g>
</svg>
