<?xml version="1.0" encoding="UTF-8" standalone="no"?>
<!DOCTYPE svg PUBLIC "-//W3C//DTD SVG 1.1//EN"
 "http://www.w3.org/Graphics/SVG/1.1/DTD/svg11.dtd">
<!-- Generated by graphviz version 2.43.0 (0)
 -->
<!-- Title: dataloader.h Pages: 1 -->
<svg width="914pt" height="247pt"
 viewBox="0.00 0.00 913.50 247.00" xmlns="http://www.w3.org/2000/svg" xmlns:xlink="http://www.w3.org/1999/xlink">
<g id="graph0" class="graph" transform="scale(1 1) rotate(0) translate(4 243)">
<title>dataloader.h</title>
<!-- Node1 -->
<g id="Node000001" class="node">
<title>Node1</title>
<g id="a_Node000001"><a xlink:title=" ">
<polygon fill="#999999" stroke="#666666" points="506,-239 429,-239 429,-220 506,-220 506,-239"/>
<text text-anchor="middle" x="467.5" y="-227" font-family="Helvetica,sans-Serif" font-size="10.00">dataloader.h</text>
</a>
</g>
</g>
<!-- Node2 -->
<g id="Node000002" class="node">
<title>Node2</title>
<g id="a_Node000002"><a xlink:href="analysis_8h.html" target="_top" xlink:title="Defines the analysis class, the central orchestrator for physics analysis tasks.">
<polygon fill="white" stroke="#666666" points="465.5,-74 399.5,-74 399.5,-55 465.5,-55 465.5,-74"/>
<text text-anchor="middle" x="432.5" y="-62" font-family="Helvetica,sans-Serif" font-size="10.00">analysis.h</text>
</a>
</g>
</g>
<!-- Node1&#45;&gt;Node2 -->
<g id="edge1_Node000001_Node000002" class="edge">
<title>Node1&#45;&gt;Node2</title>
<g id="a_edge1_Node000001_Node000002"><a xlink:title=" ">
<path fill="none" stroke="#63b8ff" d="M516.44,-229.27C585.02,-228.47 697.64,-219.2 662.5,-165 618.72,-97.46 518.1,-75.58 465.66,-68.63"/>
<polygon fill="#63b8ff" stroke="#63b8ff" points="516.23,-225.77 506.25,-229.33 516.27,-232.77 516.23,-225.77"/>
</a>
</g>
</g>
<!-- Node11 -->
<g id="Node000011" class="node">
<title>Node11</title>
<g id="a_Node000011"><a xlink:href="cache_8cxx.html" target="_top" xlink:title=" ">
<polygon fill="white" stroke="#666666" points="365,-184 300,-184 300,-165 365,-165 365,-184"/>
<text text-anchor="middle" x="332.5" y="-172" font-family="Helvetica,sans-Serif" font-size="10.00">cache.cxx</text>
</a>
</g>
</g>
<!-- Node1&#45;&gt;Node11 -->
<g id="edge10_Node000001_Node000011" class="edge">
<title>Node1&#45;&gt;Node11</title>
<g id="a_edge10_Node000001_Node000011"><a xlink:title=" ">
<path fill="none" stroke="#63b8ff" d="M436.4,-216.29C411.38,-206.47 376.84,-192.91 354.58,-184.17"/>
<polygon fill="#63b8ff" stroke="#63b8ff" points="435.22,-219.59 445.81,-219.98 437.78,-213.07 435.22,-219.59"/>
</a>
</g>
</g>
<!-- Node12 -->
<g id="Node000012" class="node">
<title>Node12</title>
<g id="a_Node000012"><a xlink:href="container_8h.html" target="_top" xlink:title=" ">
<polygon fill="white" stroke="#666666" points="282,-184 211,-184 211,-165 282,-165 282,-184"/>
<text text-anchor="middle" x="246.5" y="-172" font-family="Helvetica,sans-Serif" font-size="10.00">container.h</text>
</a>
</g>
</g>
<!-- Node1&#45;&gt;Node12 -->
<g id="edge11_Node000001_Node000012" class="edge">
<title>Node1&#45;&gt;Node12</title>
<g id="a_edge11_Node000001_Node000012"><a xlink:title=" ">
<path fill="none" stroke="#63b8ff" d="M422.16,-217.63C380.76,-207.7 320.38,-193.22 282.29,-184.08"/>
<polygon fill="#63b8ff" stroke="#63b8ff" points="421.45,-221.06 431.99,-219.98 423.08,-214.25 421.45,-221.06"/>
</a>
</g>
</g>
<!-- Node17 -->
<g id="Node000017" class="node">
<title>Node17</title>
<g id="a_Node000017"><a xlink:href="dataloader_8cxx.html" target="_top" xlink:title=" ">
<polygon fill="white" stroke="#666666" points="561,-184 472,-184 472,-165 561,-165 561,-184"/>
<text text-anchor="middle" x="516.5" y="-172" font-family="Helvetica,sans-Serif" font-size="10.00">dataloader.cxx</text>
</a>
</g>
</g>
<!-- Node1&#45;&gt;Node17 -->
<g id="edge17_Node000001_Node000017" class="edge">
<title>Node1&#45;&gt;Node17</title>
<g id="a_edge17_Node000001_Node000017"><a xlink:title=" ">
<path fill="none" stroke="#63b8ff" d="M482.53,-212.24C491.12,-202.95 501.54,-191.68 508.56,-184.09"/>
<polygon fill="#63b8ff" stroke="#63b8ff" points="479.81,-210.03 475.59,-219.75 484.95,-214.78 479.81,-210.03"/>
</a>
</g>
</g>
<!-- Node18 -->
<g id="Node000018" class="node">
<title>Node18</title>
<g id="a_Node000018"><a xlink:href="dataset_8cxx.html" target="_top" xlink:title=" ">
<polygon fill="white" stroke="#666666" points="653.5,-184 579.5,-184 579.5,-165 653.5,-165 653.5,-184"/>
<text text-anchor="middle" x="616.5" y="-172" font-family="Helvetica,sans-Serif" font-size="10.00">dataset.cxx</text>
</a>
</g>
</g>
<!-- Node1&#45;&gt;Node18 -->
<g id="edge18_Node000001_Node000018" class="edge">
<title>Node1&#45;&gt;Node18</title>
<g id="a_edge18_Node000001_Node000018"><a xlink:title=" ">
<path fill="none" stroke="#63b8ff" d="M501.09,-216.55C528.76,-206.71 567.34,-192.98 592.12,-184.17"/>
<polygon fill="#63b8ff" stroke="#63b8ff" points="499.69,-213.34 491.44,-219.98 502.03,-219.93 499.69,-213.34"/>
</a>
</g>
</g>
<!-- Node19 -->
<g id="Node000019" class="node">
<title>Node19</title>
<g id="a_Node000019"><a xlink:href="optimizer_2include_2generators_2optimizer_8h.html" target="_top" xlink:title=" ">
<polygon fill="white" stroke="#666666" points="454,-184 383,-184 383,-165 454,-165 454,-184"/>
<text text-anchor="middle" x="418.5" y="-172" font-family="Helvetica,sans-Serif" font-size="10.00">optimizer.h</text>
</a>
</g>
</g>
<!-- Node1&#45;&gt;Node19 -->
<g id="edge19_Node000001_Node000019" class="edge">
<title>Node1&#45;&gt;Node19</title>
<g id="a_edge19_Node000001_Node000019"><a xlink:title=" ">
<path fill="none" stroke="#63b8ff" d="M452.47,-212.24C443.88,-202.95 433.46,-191.68 426.44,-184.09"/>
<polygon fill="#63b8ff" stroke="#63b8ff" points="450.05,-214.78 459.41,-219.75 455.19,-210.03 450.05,-214.78"/>
</a>
</g>
</g>
<!-- Node3 -->
<g id="Node000003" class="node">
<title>Node3</title>
<g id="a_Node000003"><a xlink:href="analysis_8cxx.html" target="_top" xlink:title=" ">
<polygon fill="white" stroke="#666666" points="77,-19 0,-19 0,0 77,0 77,-19"/>
<text text-anchor="middle" x="38.5" y="-7" font-family="Helvetica,sans-Serif" font-size="10.00">analysis.cxx</text>
</a>
</g>
</g>
<!-- Node2&#45;&gt;Node3 -->
<g id="edge2_Node000002_Node000003" class="edge">
<title>Node2&#45;&gt;Node3</title>
<g id="a_edge2_Node000002_Node000003"><a xlink:title=" ">
<path fill="none" stroke="#63b8ff" d="M389.29,-55.1C253.86,-34.06 217.51,-38.37 86.5,-19 83.49,-18.55 80.37,-18.07 77.24,-17.56"/>
<polygon fill="#63b8ff" stroke="#63b8ff" points="388.79,-58.56 399.21,-56.66 389.88,-51.65 388.79,-58.56"/>
</a>
</g>
</g>
<!-- Node4 -->
<g id="Node000004" class="node">
<title>Node4</title>
<g id="a_Node000004"><a xlink:href="event__build_8cxx.html" target="_top" xlink:title=" ">
<polygon fill="white" stroke="#666666" points="189.5,-19 95.5,-19 95.5,0 189.5,0 189.5,-19"/>
<text text-anchor="middle" x="142.5" y="-7" font-family="Helvetica,sans-Serif" font-size="10.00">event_build.cxx</text>
</a>
</g>
</g>
<!-- Node2&#45;&gt;Node4 -->
<g id="edge3_Node000002_Node000004" class="edge">
<title>Node2&#45;&gt;Node4</title>
<g id="a_edge3_Node000002_Node000004"><a xlink:title=" ">
<path fill="none" stroke="#63b8ff" d="M388.98,-54.93C313.28,-40.68 237.51,-27.18 189.9,-18.79"/>
<polygon fill="#63b8ff" stroke="#63b8ff" points="388.7,-58.44 399.18,-56.85 390,-51.56 388.7,-58.44"/>
</a>
</g>
</g>
<!-- Node5 -->
<g id="Node000005" class="node">
<title>Node5</title>
<g id="a_Node000005"><a xlink:href="graph__build_8cxx.html" target="_top" xlink:title=" ">
<polygon fill="white" stroke="#666666" points="301.5,-19 207.5,-19 207.5,0 301.5,0 301.5,-19"/>
<text text-anchor="middle" x="254.5" y="-7" font-family="Helvetica,sans-Serif" font-size="10.00">graph_build.cxx</text>
</a>
</g>
</g>
<!-- Node2&#45;&gt;Node5 -->
<g id="edge4_Node000002_Node000005" class="edge">
<title>Node2&#45;&gt;Node5</title>
<g id="a_edge4_Node000002_Node000005"><a xlink:title=" ">
<path fill="none" stroke="#63b8ff" d="M394.06,-52.06C360.8,-42.15 313.42,-28.04 283.32,-19.08"/>
<polygon fill="#63b8ff" stroke="#63b8ff" points="393.32,-55.49 403.9,-54.98 395.32,-48.78 393.32,-55.49"/>
</a>
</g>
</g>
<!-- Node6 -->
<g id="Node000006" class="node">
<title>Node6</title>
<g id="a_Node000006"><a xlink:href="inference__build_8cxx.html" target="_top" xlink:title=" ">
<polygon fill="white" stroke="#666666" points="431.5,-19 319.5,-19 319.5,0 431.5,0 431.5,-19"/>
<text text-anchor="middle" x="375.5" y="-7" font-family="Helvetica,sans-Serif" font-size="10.00">inference_build.cxx</text>
</a>
</g>
</g>
<!-- Node2&#45;&gt;Node6 -->
<g id="edge5_Node000002_Node000006" class="edge">
<title>Node2&#45;&gt;Node6</title>
<g id="a_edge5_Node000002_Node000006"><a xlink:title=" ">
<path fill="none" stroke="#63b8ff" d="M415.88,-48.04C405.77,-38.64 393.22,-26.98 384.82,-19.17"/>
<polygon fill="#63b8ff" stroke="#63b8ff" points="413.64,-50.74 423.34,-54.98 418.4,-45.61 413.64,-50.74"/>
</a>
</g>
</g>
<!-- Node7 -->
<g id="Node000007" class="node">
<title>Node7</title>
<g id="a_Node000007"><a xlink:href="methods_8cxx.html" target="_top" xlink:title=" ">
<polygon fill="white" stroke="#666666" points="529.5,-19 449.5,-19 449.5,0 529.5,0 529.5,-19"/>
<text text-anchor="middle" x="489.5" y="-7" font-family="Helvetica,sans-Serif" font-size="10.00">methods.cxx</text>
</a>
</g>
</g>
<!-- Node2&#45;&gt;Node7 -->
<g id="edge6_Node000002_Node000007" class="edge">
<title>Node2&#45;&gt;Node7</title>
<g id="a_edge6_Node000002_Node000007"><a xlink:title=" ">
<path fill="none" stroke="#63b8ff" d="M449.12,-48.04C459.23,-38.64 471.78,-26.98 480.18,-19.17"/>
<polygon fill="#63b8ff" stroke="#63b8ff" points="446.6,-45.61 441.66,-54.98 451.36,-50.74 446.6,-45.61"/>
</a>
</g>
</g>
<!-- Node8 -->
<g id="Node000008" class="node">
<title>Node8</title>
<g id="a_Node000008"><a xlink:href="metric__build_8cxx.html" target="_top" xlink:title=" ">
<polygon fill="white" stroke="#666666" points="645.5,-19 547.5,-19 547.5,0 645.5,0 645.5,-19"/>
<text text-anchor="middle" x="596.5" y="-7" font-family="Helvetica,sans-Serif" font-size="10.00">metric_build.cxx</text>
</a>
</g>
</g>
<!-- Node2&#45;&gt;Node8 -->
<g id="edge7_Node000002_Node000008" class="edge">
<title>Node2&#45;&gt;Node8</title>
<g id="a_edge7_Node000002_Node000008"><a xlink:title=" ">
<path fill="none" stroke="#63b8ff" d="M468.71,-51.8C499.32,-41.91 542.45,-27.97 569.94,-19.08"/>
<polygon fill="#63b8ff" stroke="#63b8ff" points="467.29,-48.58 458.85,-54.98 469.44,-55.24 467.29,-48.58"/>
</a>
</g>
</g>
<!-- Node9 -->
<g id="Node000009" class="node">
<title>Node9</title>
<g id="a_Node000009"><a xlink:href="optimizer__build_8cxx.html" target="_top" xlink:title="Implementation of model session creation and management in the analysis class.">
<polygon fill="white" stroke="#666666" points="777,-19 664,-19 664,0 777,0 777,-19"/>
<text text-anchor="middle" x="720.5" y="-7" font-family="Helvetica,sans-Serif" font-size="10.00">optimizer_build.cxx</text>
</a>
</g>
</g>
<!-- Node2&#45;&gt;Node9 -->
<g id="edge8_Node000002_Node000009" class="edge">
<title>Node2&#45;&gt;Node9</title>
<g id="a_edge8_Node000002_Node000009"><a xlink:title=" ">
<path fill="none" stroke="#63b8ff" d="M475.69,-55.55C529.01,-45.74 619.34,-29.12 674.1,-19.04"/>
<polygon fill="#63b8ff" stroke="#63b8ff" points="474.74,-52.17 465.54,-57.42 476.01,-59.05 474.74,-52.17"/>
</a>
</g>
</g>
<!-- Node10 -->
<g id="Node000010" class="node">
<title>Node10</title>
<g id="a_Node000010"><a xlink:href="selection__build_8cxx.html" target="_top" xlink:title=" ">
<polygon fill="white" stroke="#666666" points="905.5,-19 795.5,-19 795.5,0 905.5,0 905.5,-19"/>
<text text-anchor="middle" x="850.5" y="-7" font-family="Helvetica,sans-Serif" font-size="10.00">selection_build.cxx</text>
</a>
</g>
</g>
<!-- Node2&#45;&gt;Node10 -->
<g id="edge9_Node000002_Node000010" class="edge">
<title>Node2&#45;&gt;Node10</title>
<g id="a_edge9_Node000002_Node000010"><a xlink:title=" ">
<path fill="none" stroke="#63b8ff" d="M475.84,-58.15C542.58,-49.89 674.54,-33.47 786.5,-19 789.39,-18.63 792.35,-18.24 795.35,-17.85"/>
<polygon fill="#63b8ff" stroke="#63b8ff" points="475.19,-54.7 465.7,-59.41 476.05,-61.65 475.19,-54.7"/>
</a>
</g>
</g>
<!-- Node13 -->
<g id="Node000013" class="node">
<title>Node13</title>
<g id="a_Node000013"><a xlink:href="container_8cxx.html" target="_top" xlink:title=" ">
<polygon fill="white" stroke="#666666" points="192.5,-129 110.5,-129 110.5,-110 192.5,-110 192.5,-129"/>
<text text-anchor="middle" x="151.5" y="-117" font-family="Helvetica,sans-Serif" font-size="10.00">container.cxx</text>
</a>
</g>
</g>
<!-- Node12&#45;&gt;Node13 -->
<g id="edge12_Node000012_Node000013" class="edge">
<title>Node12&#45;&gt;Node13</title>
<g id="a_edge12_Node000012_Node000013"><a xlink:title=" ">
<path fill="none" stroke="#63b8ff" d="M222.24,-159.97C204.87,-150.28 182.01,-137.52 167.04,-129.17"/>
<polygon fill="#63b8ff" stroke="#63b8ff" points="220.8,-163.17 231.24,-164.98 224.21,-157.06 220.8,-163.17"/>
</a>
</g>
</g>
<!-- Node14 -->
<g id="Node000014" class="node">
<title>Node14</title>
<g id="a_Node000014"><a xlink:href="entries_8cxx.html" target="_top" xlink:title=" ">
<polygon fill="white" stroke="#666666" points="282,-129 211,-129 211,-110 282,-110 282,-129"/>
<text text-anchor="middle" x="246.5" y="-117" font-family="Helvetica,sans-Serif" font-size="10.00">entries.cxx</text>
</a>
</g>
</g>
<!-- Node12&#45;&gt;Node14 -->
<g id="edge13_Node000012_Node000014" class="edge">
<title>Node12&#45;&gt;Node14</title>
<g id="a_edge13_Node000012_Node000014"><a xlink:title=" ">
<path fill="none" stroke="#63b8ff" d="M246.5,-154.66C246.5,-145.93 246.5,-135.99 246.5,-129.09"/>
<polygon fill="#63b8ff" stroke="#63b8ff" points="243,-154.75 246.5,-164.75 250,-154.75 243,-154.75"/>
</a>
</g>
</g>
<!-- Node15 -->
<g id="Node000015" class="node">
<title>Node15</title>
<g id="a_Node000015"><a xlink:href="sampletracer_8h.html" target="_top" xlink:title=" ">
<polygon fill="white" stroke="#666666" points="389,-129 300,-129 300,-110 389,-110 389,-129"/>
<text text-anchor="middle" x="344.5" y="-117" font-family="Helvetica,sans-Serif" font-size="10.00">sampletracer.h</text>
</a>
</g>
</g>
<!-- Node12&#45;&gt;Node15 -->
<g id="edge14_Node000012_Node000015" class="edge">
<title>Node12&#45;&gt;Node15</title>
<g id="a_edge14_Node000012_Node000015"><a xlink:title=" ">
<path fill="none" stroke="#63b8ff" d="M271.53,-159.97C289.44,-150.28 313.03,-137.52 328.47,-129.17"/>
<polygon fill="#63b8ff" stroke="#63b8ff" points="269.38,-157.15 262.25,-164.98 272.71,-163.31 269.38,-157.15"/>
</a>
</g>
</g>
<!-- Node15&#45;&gt;Node2 -->
<g id="edge15_Node000015_Node000002" class="edge">
<title>Node15&#45;&gt;Node2</title>
<g id="a_edge15_Node000015_Node000002"><a xlink:title=" ">
<path fill="none" stroke="#63b8ff" d="M367.42,-104.7C383.45,-95.04 404.37,-82.44 418.1,-74.17"/>
<polygon fill="#63b8ff" stroke="#63b8ff" points="365.4,-101.83 358.64,-109.98 369.01,-107.82 365.4,-101.83"/>
</a>
</g>
</g>
<!-- Node16 -->
<g id="Node000016" class="node">
<title>Node16</title>
<g id="a_Node000016"><a xlink:href="sampletracer_8cxx.html" target="_top" xlink:title="Implementation of the sampletracer class for parallel data processing.">
<polygon fill="white" stroke="#666666" points="381,-74 280,-74 280,-55 381,-55 381,-74"/>
<text text-anchor="middle" x="330.5" y="-62" font-family="Helvetica,sans-Serif" font-size="10.00">sampletracer.cxx</text>
</a>
</g>
</g>
<!-- Node15&#45;&gt;Node16 -->
<g id="edge16_Node000015_Node000016" class="edge">
<title>Node15&#45;&gt;Node16</title>
<g id="a_edge16_Node000015_Node000016"><a xlink:title=" ">
<path fill="none" stroke="#63b8ff" d="M339.6,-99.95C337.28,-91.15 334.61,-81.06 332.77,-74.09"/>
<polygon fill="#63b8ff" stroke="#63b8ff" points="336.25,-100.97 342.19,-109.75 343.02,-99.19 336.25,-100.97"/>
</a>
</g>
</g>
<!-- Node19&#45;&gt;Node2 -->
<g id="edge20_Node000019_Node000002" class="edge">
<title>Node19&#45;&gt;Node2</title>
<g id="a_edge20_Node000019_Node000002"><a xlink:title=" ">
<path fill="none" stroke="#63b8ff" d="M420.97,-154.48C424.03,-130.84 429.13,-91.5 431.38,-74.16"/>
<polygon fill="#63b8ff" stroke="#63b8ff" points="417.46,-154.29 419.65,-164.66 424.4,-155.19 417.46,-154.29"/>
</a>
</g>
</g>
<!-- Node20 -->
<g id="Node000020" class="node">
<title>Node20</title>
<g id="a_Node000020"><a xlink:href="optimizer_2cxx_2optimizer_8cxx.html" target="_top" xlink:title=" ">
<polygon fill="white" stroke="#666666" points="530,-129 447,-129 447,-110 530,-110 530,-129"/>
<text text-anchor="middle" x="488.5" y="-117" font-family="Helvetica,sans-Serif" font-size="10.00">optimizer.cxx</text>
</a>
</g>
</g>
<!-- Node19&#45;&gt;Node20 -->
<g id="edge21_Node000019_Node000020" class="edge">
<title>Node19&#45;&gt;Node20</title>
<g id="a_edge21_Node000019_Node000020"><a xlink:title=" ">
<path fill="none" stroke="#63b8ff" d="M437.81,-158.88C450.41,-149.34 466.43,-137.21 477.05,-129.17"/>
<polygon fill="#63b8ff" stroke="#63b8ff" points="435.61,-156.16 429.75,-164.98 439.83,-161.74 435.61,-156.16"/>
</a>
</g>
</g>
</g>
</svg>
