<?xml version="1.0" encoding="UTF-8" standalone="no"?>
<!DOCTYPE svg PUBLIC "-//W3C//DTD SVG 1.1//EN"
 "http://www.w3.org/Graphics/SVG/1.1/DTD/svg11.dtd">
<!-- Generated by graphviz version 2.43.0 (0)
 -->
<!-- Title: include Pages: 1 -->
<svg width="431pt" height="125pt"
 viewBox="0.00 0.00 431.00 125.00" xmlns="http://www.w3.org/2000/svg" xmlns:xlink="http://www.w3.org/1999/xlink">
<g id="graph0" class="graph" transform="scale(1 1) rotate(0) translate(4 121)">
<title>include</title>
<g id="clust1" class="cluster">
<title>clusterdir_f23eacd29ab2b1e321b6736265057033</title>
<g id="a_clust1"><a xlink:href="dir_f23eacd29ab2b1e321b6736265057033.html" target="_top" xlink:title="metric">
<polygon fill="#edf0f7" stroke="#7f7f7f" stroke-dasharray="5,2" points="162.5,-39 162.5,-109 330.5,-109 330.5,-39 162.5,-39"/>
<text text-anchor="middle" x="246.5" y="-97" font-family="Helvetica,sans-Serif" font-size="10.00">metric</text>
</a>
</g>
</g>
<g id="clust2" class="cluster">
<title>clusterdir_2dfe5876b1c3e8432fb2f1155ada845d</title>
<g id="a_clust2"><a xlink:href="dir_2dfe5876b1c3e8432fb2f1155ada845d.html" target="_top">
<polygon fill="#edf0f7" stroke="#404040" stroke-width="2" points="170.5,-47 170.5,-82 322.5,-82 322.5,-47 170.5,-47"/>
</a>
</g>
</g>
<!-- dir_2dfe5876b1c3e8432fb2f1155ada845d -->
<g id="node1" class="node">
<title>dir_2dfe5876b1c3e8432fb2f1155ada845d</title>
<text text-anchor="middle" x="288.5" y="-62" font-family="Helvetica,sans-Serif" font-size="10.00">include</text>
</g>
<!-- dir_4595526d3b4a00c54c866bea2dd10c60 -->
<g id="node2" class="node">
<title>dir_4595526d3b4a00c54c866bea2dd10c60</title>
<g id="a_node2"><a xlink:href="dir_4595526d3b4a00c54c866bea2dd10c60.html" target="_top" xlink:title="templates">
<polygon fill="#a2b4d6" stroke="#404040" points="244.5,-74 178.5,-74 178.5,-55 244.5,-55 244.5,-74"/>
<text text-anchor="middle" x="211.5" y="-62" font-family="Helvetica,sans-Serif" font-size="10.00">templates</text>
</a>
</g>
</g>
<!-- dir_7acf8b7ae8c4ffea2c3526657d8aa9e1 -->
<g id="node3" class="node">
<title>dir_7acf8b7ae8c4ffea2c3526657d8aa9e1</title>
<g id="a_node3"><a xlink:href="dir_7acf8b7ae8c4ffea2c3526657d8aa9e1.html" target="_top" xlink:title="notification">
<polygon fill="#edf0f7" stroke="red" stroke-dasharray="5,2" points="71,-19 0,-19 0,0 71,0 71,-19"/>
<text text-anchor="middle" x="35.5" y="-7" font-family="Helvetica,sans-Serif" font-size="10.00">notification</text>
</a>
</g>
</g>
<!-- dir_4595526d3b4a00c54c866bea2dd10c60&#45;&gt;dir_7acf8b7ae8c4ffea2c3526657d8aa9e1 -->
<g id="edge3" class="edge">
<title>dir_4595526d3b4a00c54c866bea2dd10c60&#45;&gt;dir_7acf8b7ae8c4ffea2c3526657d8aa9e1</title>
<g id="a_edge3"><a xlink:href="dir_000162_000130.html" target="_top">
<path fill="none" stroke="#63b8ff" d="M183.22,-54.98C153.55,-46.05 106.71,-31.94 73.75,-22.02"/>
<polygon fill="#63b8ff" stroke="#63b8ff" points="74.58,-18.61 64,-19.08 72.57,-25.32 74.58,-18.61"/>
</a>
</g>
<g id="a_edge3&#45;headlabel"><a xlink:href="dir_000162_000130.html" target="_top" xlink:title="1">
<text text-anchor="middle" x="78.84" y="-14.43" font-family="Helvetica,sans-Serif" font-size="10.00" fill="#63b8ff">1</text>
</a>
</g>
</g>
<!-- dir_639930e6546076602fdb99daad4d48b4 -->
<g id="node4" class="node">
<title>dir_639930e6546076602fdb99daad4d48b4</title>
<g id="a_node4"><a xlink:href="dir_639930e6546076602fdb99daad4d48b4.html" target="_top" xlink:title="structs">
<polygon fill="#edf0f7" stroke="red" stroke-dasharray="5,2" points="139.5,-19 89.5,-19 89.5,0 139.5,0 139.5,-19"/>
<text text-anchor="middle" x="114.5" y="-7" font-family="Helvetica,sans-Serif" font-size="10.00">structs</text>
</a>
</g>
</g>
<!-- dir_4595526d3b4a00c54c866bea2dd10c60&#45;&gt;dir_639930e6546076602fdb99daad4d48b4 -->
<g id="edge2" class="edge">
<title>dir_4595526d3b4a00c54c866bea2dd10c60&#45;&gt;dir_639930e6546076602fdb99daad4d48b4</title>
<g id="a_edge2"><a xlink:href="dir_000162_000157.html" target="_top">
<path fill="none" stroke="#63b8ff" d="M195.92,-54.98C180.73,-46.69 157.4,-33.94 139.6,-24.22"/>
<polygon fill="#63b8ff" stroke="#63b8ff" points="140.82,-20.89 130.37,-19.17 137.47,-27.04 140.82,-20.89"/>
</a>
</g>
<g id="a_edge2&#45;headlabel"><a xlink:href="dir_000162_000157.html" target="_top" xlink:title="5">
<text text-anchor="middle" x="145.34" y="-17.63" font-family="Helvetica,sans-Serif" font-size="10.00" fill="#63b8ff">5</text>
</a>
</g>
</g>
<!-- dir_7e7898fd82fc7805c9d39fdbc62120b9 -->
<g id="node5" class="node">
<title>dir_7e7898fd82fc7805c9d39fdbc62120b9</title>
<g id="a_node5"><a xlink:href="dir_7e7898fd82fc7805c9d39fdbc62120b9.html" target="_top" xlink:title="meta">
<polygon fill="#edf0f7" stroke="red" stroke-dasharray="5,2" points="199.5,-19 157.5,-19 157.5,0 199.5,0 199.5,-19"/>
<text text-anchor="middle" x="178.5" y="-7" font-family="Helvetica,sans-Serif" font-size="10.00">meta</text>
</a>
</g>
</g>
<!-- dir_4595526d3b4a00c54c866bea2dd10c60&#45;&gt;dir_7e7898fd82fc7805c9d39fdbc62120b9 -->
<g id="edge4" class="edge">
<title>dir_4595526d3b4a00c54c866bea2dd10c60&#45;&gt;dir_7e7898fd82fc7805c9d39fdbc62120b9</title>
<g id="a_edge4"><a xlink:href="dir_000162_000116.html" target="_top">
<path fill="none" stroke="#63b8ff" d="M206.05,-54.75C201.49,-47.42 194.83,-36.73 189.21,-27.7"/>
<polygon fill="#63b8ff" stroke="#63b8ff" points="192.1,-25.73 183.85,-19.09 186.16,-29.43 192.1,-25.73"/>
</a>
</g>
<g id="a_edge4&#45;headlabel"><a xlink:href="dir_000162_000116.html" target="_top" xlink:title="1">
<text text-anchor="middle" x="196.41" y="-24.78" font-family="Helvetica,sans-Serif" font-size="10.00" fill="#63b8ff">1</text>
</a>
</g>
</g>
<!-- dir_5a6a455a10ad41a65fe11efeedaed194 -->
<g id="node6" class="node">
<title>dir_5a6a455a10ad41a65fe11efeedaed194</title>
<g id="a_node6"><a xlink:href="dir_5a6a455a10ad41a65fe11efeedaed194.html" target="_top" xlink:title="plotting">
<polygon fill="#edf0f7" stroke="red" stroke-dasharray="5,2" points="271.5,-19 217.5,-19 217.5,0 271.5,0 271.5,-19"/>
<text text-anchor="middle" x="244.5" y="-7" font-family="Helvetica,sans-Serif" font-size="10.00">plotting</text>
</a>
</g>
</g>
<!-- dir_4595526d3b4a00c54c866bea2dd10c60&#45;&gt;dir_5a6a455a10ad41a65fe11efeedaed194 -->
<g id="edge1" class="edge">
<title>dir_4595526d3b4a00c54c866bea2dd10c60&#45;&gt;dir_5a6a455a10ad41a65fe11efeedaed194</title>
<g id="a_edge1"><a xlink:href="dir_000162_000144.html" target="_top">
<path fill="none" stroke="#63b8ff" d="M216.95,-54.75C221.51,-47.42 228.17,-36.73 233.79,-27.7"/>
<polygon fill="#63b8ff" stroke="#63b8ff" points="236.84,-29.43 239.15,-19.09 230.9,-25.73 236.84,-29.43"/>
</a>
</g>
<g id="a_edge1&#45;headlabel"><a xlink:href="dir_000162_000144.html" target="_top" xlink:title="1">
<text text-anchor="middle" x="237.35" y="-31.48" font-family="Helvetica,sans-Serif" font-size="10.00" fill="#63b8ff">1</text>
</a>
</g>
</g>
<!-- dir_b60a80b5573f59b8d3124d04096ac72b -->
<g id="node7" class="node">
<title>dir_b60a80b5573f59b8d3124d04096ac72b</title>
<g id="a_node7"><a xlink:href="dir_b60a80b5573f59b8d3124d04096ac72b.html" target="_top" xlink:title="typecasting">
<polygon fill="#edf0f7" stroke="red" stroke-dasharray="5,2" points="363.5,-19 289.5,-19 289.5,0 363.5,0 363.5,-19"/>
<text text-anchor="middle" x="326.5" y="-7" font-family="Helvetica,sans-Serif" font-size="10.00">typecasting</text>
</a>
</g>
</g>
<!-- dir_4595526d3b4a00c54c866bea2dd10c60&#45;&gt;dir_b60a80b5573f59b8d3124d04096ac72b -->
<g id="edge5" class="edge">
<title>dir_4595526d3b4a00c54c866bea2dd10c60&#45;&gt;dir_b60a80b5573f59b8d3124d04096ac72b</title>
<g id="a_edge5"><a xlink:href="dir_000162_000179.html" target="_top">
<path fill="none" stroke="#63b8ff" d="M225.2,-54.78C233.27,-49.83 243.77,-43.7 253.5,-39 265.87,-33.02 279.85,-27.32 292.23,-22.62"/>
<polygon fill="#63b8ff" stroke="#63b8ff" points="293.61,-25.84 301.76,-19.07 291.17,-19.28 293.61,-25.84"/>
</a>
</g>
<g id="a_edge5&#45;headlabel"><a xlink:href="dir_000162_000179.html" target="_top" xlink:title="2">
<text text-anchor="middle" x="291.23" y="-27.25" font-family="Helvetica,sans-Serif" font-size="10.00" fill="#63b8ff">2</text>
</a>
</g>
</g>
<!-- dir_f0fdfbf866f75abaaae77c9c053e2c4e -->
<g id="node8" class="node">
<title>dir_f0fdfbf866f75abaaae77c9c053e2c4e</title>
<g id="a_node8"><a xlink:href="dir_f0fdfbf866f75abaaae77c9c053e2c4e.html" target="_top" xlink:title="tools">
<polygon fill="#edf0f7" stroke="red" stroke-dasharray="5,2" points="423,-19 382,-19 382,0 423,0 423,-19"/>
<text text-anchor="middle" x="402.5" y="-7" font-family="Helvetica,sans-Serif" font-size="10.00">tools</text>
</a>
</g>
</g>
<!-- dir_4595526d3b4a00c54c866bea2dd10c60&#45;&gt;dir_f0fdfbf866f75abaaae77c9c053e2c4e -->
<g id="edge6" class="edge">
<title>dir_4595526d3b4a00c54c866bea2dd10c60&#45;&gt;dir_f0fdfbf866f75abaaae77c9c053e2c4e</title>
<g id="a_edge6"><a xlink:href="dir_000162_000167.html" target="_top">
<path fill="none" stroke="#63b8ff" d="M223.42,-54.97C231.53,-49.58 242.7,-42.91 253.5,-39 301.07,-21.78 318.23,-29.73 371.85,-18.83"/>
<polygon fill="#63b8ff" stroke="#63b8ff" points="372.88,-22.19 381.92,-16.65 371.41,-15.34 372.88,-22.19"/>
</a>
</g>
<g id="a_edge6&#45;headlabel"><a xlink:href="dir_000162_000167.html" target="_top" xlink:title="1">
<text text-anchor="middle" x="369.97" y="-23.22" font-family="Helvetica,sans-Serif" font-size="10.00" fill="#63b8ff">1</text>
</a>
</g>
</g>
</g>
</svg>
