<?xml version="1.0" encoding="UTF-8" standalone="no"?>
<!DOCTYPE svg PUBLIC "-//W3C//DTD SVG 1.1//EN"
 "http://www.w3.org/Graphics/SVG/1.1/DTD/svg11.dtd">
<!-- Generated by graphviz version 2.43.0 (0)
 -->
<!-- Title: mc20 Pages: 1 -->
<svg width="448pt" height="125pt"
 viewBox="0.00 0.00 448.00 125.00" xmlns="http://www.w3.org/2000/svg" xmlns:xlink="http://www.w3.org/1999/xlink">
<g id="graph0" class="graph" transform="scale(1 1) rotate(0) translate(4 121)">
<title>mc20</title>
<g id="clust1" class="cluster">
<title>clusterdir_c11f412861641db89942a5b56163180e</title>
<g id="a_clust1"><a xlink:href="dir_c11f412861641db89942a5b56163180e.html" target="_top" xlink:title="selections">
<polygon fill="#edf0f7" stroke="#404040" stroke-dasharray="5,2" points="8,-39 8,-109 432,-109 432,-39 8,-39"/>
<text text-anchor="middle" x="220" y="-97" font-family="Helvetica,sans-Serif" font-size="10.00">selections</text>
</a>
</g>
</g>
<g id="clust2" class="cluster">
<title>clusterdir_1a9554541fbc6e429c241ac7d5c16f0d</title>
<g id="a_clust2"><a xlink:href="dir_1a9554541fbc6e429c241ac7d5c16f0d.html" target="_top">
<polygon fill="#edf0f7" stroke="#404040" stroke-width="2" points="16,-47 16,-82 424,-82 424,-47 16,-47"/>
</a>
</g>
</g>
<!-- dir_1a9554541fbc6e429c241ac7d5c16f0d -->
<g id="node1" class="node">
<title>dir_1a9554541fbc6e429c241ac7d5c16f0d</title>
<text text-anchor="middle" x="394" y="-62" font-family="Helvetica,sans-Serif" font-size="10.00">mc20</text>
</g>
<!-- dir_2fd2ca7f263f4e343bb0eefa771eebfe -->
<g id="node2" class="node">
<title>dir_2fd2ca7f263f4e343bb0eefa771eebfe</title>
<g id="a_node2"><a xlink:href="dir_2fd2ca7f263f4e343bb0eefa771eebfe.html" target="_top" xlink:title="matching">
<polygon fill="#a2b4d6" stroke="#404040" points="354,-74 292,-74 292,-55 354,-55 354,-74"/>
<text text-anchor="middle" x="323" y="-62" font-family="Helvetica,sans-Serif" font-size="10.00">matching</text>
</a>
</g>
</g>
<!-- dir_8c49963344259a26845032e86c0550c4 -->
<g id="node6" class="node">
<title>dir_8c49963344259a26845032e86c0550c4</title>
<g id="a_node6"><a xlink:href="dir_8c49963344259a26845032e86c0550c4.html" target="_top" xlink:title="events">
<polygon fill="#edf0f7" stroke="red" points="169,-19 119,-19 119,0 169,0 169,-19"/>
<text text-anchor="middle" x="144" y="-7" font-family="Helvetica,sans-Serif" font-size="10.00">events</text>
</a>
</g>
</g>
<!-- dir_2fd2ca7f263f4e343bb0eefa771eebfe&#45;&gt;dir_8c49963344259a26845032e86c0550c4 -->
<g id="edge1" class="edge">
<title>dir_2fd2ca7f263f4e343bb0eefa771eebfe&#45;&gt;dir_8c49963344259a26845032e86c0550c4</title>
<g id="a_edge1"><a xlink:href="dir_000112_000054.html" target="_top">
<path fill="none" stroke="#63b8ff" d="M311.32,-54.84C303.63,-49.53 293.15,-43.01 283,-39 281.77,-38.52 219.83,-25.89 179.06,-17.61"/>
<polygon fill="#63b8ff" stroke="#63b8ff" points="179.69,-14.17 169.2,-15.61 178.3,-21.03 179.69,-14.17"/>
</a>
</g>
<g id="a_edge1&#45;headlabel"><a xlink:href="dir_000112_000054.html" target="_top" xlink:title="3">
<text text-anchor="middle" x="183.78" y="-9.6" font-family="Helvetica,sans-Serif" font-size="10.00" fill="#63b8ff">3</text>
</a>
</g>
</g>
<!-- dir_ee3c23494b4011e6a628e4900ef262df -->
<g id="node7" class="node">
<title>dir_ee3c23494b4011e6a628e4900ef262df</title>
<g id="a_node7"><a xlink:href="dir_ee3c23494b4011e6a628e4900ef262df.html" target="_top" xlink:title="modules">
<polygon fill="#edf0f7" stroke="red" points="253.5,-19 194.5,-19 194.5,0 253.5,0 253.5,-19"/>
<text text-anchor="middle" x="224" y="-7" font-family="Helvetica,sans-Serif" font-size="10.00">modules</text>
</a>
</g>
</g>
<!-- dir_2fd2ca7f263f4e343bb0eefa771eebfe&#45;&gt;dir_ee3c23494b4011e6a628e4900ef262df -->
<g id="edge2" class="edge">
<title>dir_2fd2ca7f263f4e343bb0eefa771eebfe&#45;&gt;dir_ee3c23494b4011e6a628e4900ef262df</title>
<g id="a_edge2"><a xlink:href="dir_000112_000128.html" target="_top">
<path fill="none" stroke="#63b8ff" d="M309.86,-55C302.15,-50.12 292.15,-44 283,-39 273.01,-33.55 261.82,-28 251.89,-23.27"/>
<polygon fill="#63b8ff" stroke="#63b8ff" points="253.38,-20.11 242.84,-19.02 250.4,-26.44 253.38,-20.11"/>
</a>
</g>
<g id="a_edge2&#45;headlabel"><a xlink:href="dir_000112_000128.html" target="_top" xlink:title="1">
<text text-anchor="middle" x="257.84" y="-16.57" font-family="Helvetica,sans-Serif" font-size="10.00" fill="#63b8ff">1</text>
</a>
</g>
</g>
<!-- dir_346616408dbfc2550fb46e2bff27386c -->
<g id="node3" class="node">
<title>dir_346616408dbfc2550fb46e2bff27386c</title>
<g id="a_node3"><a xlink:href="dir_346616408dbfc2550fb46e2bff27386c.html" target="_top" xlink:title="topkinematics">
<polygon fill="#a2b4d6" stroke="#404040" points="274,-74 188,-74 188,-55 274,-55 274,-74"/>
<text text-anchor="middle" x="231" y="-62" font-family="Helvetica,sans-Serif" font-size="10.00">topkinematics</text>
</a>
</g>
</g>
<!-- dir_346616408dbfc2550fb46e2bff27386c&#45;&gt;dir_8c49963344259a26845032e86c0550c4 -->
<g id="edge3" class="edge">
<title>dir_346616408dbfc2550fb46e2bff27386c&#45;&gt;dir_8c49963344259a26845032e86c0550c4</title>
<g id="a_edge3"><a xlink:href="dir_000173_000054.html" target="_top">
<path fill="none" stroke="#63b8ff" d="M217.02,-54.98C203.53,-46.77 182.87,-34.18 166.96,-24.49"/>
<polygon fill="#63b8ff" stroke="#63b8ff" points="168.59,-21.38 158.23,-19.17 164.95,-27.36 168.59,-21.38"/>
</a>
</g>
<g id="a_edge3&#45;headlabel"><a xlink:href="dir_000173_000054.html" target="_top" xlink:title="1">
<text text-anchor="middle" x="173.14" y="-18.33" font-family="Helvetica,sans-Serif" font-size="10.00" fill="#63b8ff">1</text>
</a>
</g>
</g>
<!-- dir_346616408dbfc2550fb46e2bff27386c&#45;&gt;dir_ee3c23494b4011e6a628e4900ef262df -->
<g id="edge4" class="edge">
<title>dir_346616408dbfc2550fb46e2bff27386c&#45;&gt;dir_ee3c23494b4011e6a628e4900ef262df</title>
<g id="a_edge4"><a xlink:href="dir_000173_000128.html" target="_top">
<path fill="none" stroke="#63b8ff" d="M229.84,-54.75C228.93,-47.8 227.61,-37.85 226.46,-29.13"/>
<polygon fill="#63b8ff" stroke="#63b8ff" points="229.91,-28.54 225.13,-19.09 222.97,-29.46 229.91,-28.54"/>
</a>
</g>
<g id="a_edge4&#45;headlabel"><a xlink:href="dir_000173_000128.html" target="_top" xlink:title="1">
<text text-anchor="middle" x="233.2" y="-29.24" font-family="Helvetica,sans-Serif" font-size="10.00" fill="#63b8ff">1</text>
</a>
</g>
</g>
<!-- dir_80d8a7a7337e4bc07a619775e3842152 -->
<g id="node4" class="node">
<title>dir_80d8a7a7337e4bc07a619775e3842152</title>
<g id="a_node4"><a xlink:href="dir_80d8a7a7337e4bc07a619775e3842152.html" target="_top" xlink:title="topmatching">
<polygon fill="#a2b4d6" stroke="#404040" points="170,-74 92,-74 92,-55 170,-55 170,-74"/>
<text text-anchor="middle" x="131" y="-62" font-family="Helvetica,sans-Serif" font-size="10.00">topmatching</text>
</a>
</g>
</g>
<!-- dir_80d8a7a7337e4bc07a619775e3842152&#45;&gt;dir_8c49963344259a26845032e86c0550c4 -->
<g id="edge5" class="edge">
<title>dir_80d8a7a7337e4bc07a619775e3842152&#45;&gt;dir_8c49963344259a26845032e86c0550c4</title>
<g id="a_edge5"><a xlink:href="dir_000175_000054.html" target="_top">
<path fill="none" stroke="#63b8ff" d="M133.15,-54.75C134.87,-47.72 137.35,-37.62 139.5,-28.84"/>
<polygon fill="#63b8ff" stroke="#63b8ff" points="142.91,-29.63 141.89,-19.09 136.11,-27.97 142.91,-29.63"/>
</a>
</g>
<g id="a_edge5&#45;headlabel"><a xlink:href="dir_000175_000054.html" target="_top" xlink:title="1">
<text text-anchor="middle" x="144.81" y="-31.3" font-family="Helvetica,sans-Serif" font-size="10.00" fill="#63b8ff">1</text>
</a>
</g>
</g>
<!-- dir_80d8a7a7337e4bc07a619775e3842152&#45;&gt;dir_ee3c23494b4011e6a628e4900ef262df -->
<g id="edge6" class="edge">
<title>dir_80d8a7a7337e4bc07a619775e3842152&#45;&gt;dir_ee3c23494b4011e6a628e4900ef262df</title>
<g id="a_edge6"><a xlink:href="dir_000175_000128.html" target="_top">
<path fill="none" stroke="#63b8ff" d="M145.94,-54.98C160.5,-46.69 182.87,-33.94 199.93,-24.22"/>
<polygon fill="#63b8ff" stroke="#63b8ff" points="201.83,-27.16 208.79,-19.17 198.36,-21.08 201.83,-27.16"/>
</a>
</g>
<g id="a_edge6&#45;headlabel"><a xlink:href="dir_000175_000128.html" target="_top" xlink:title="1">
<text text-anchor="middle" x="200.11" y="-28.91" font-family="Helvetica,sans-Serif" font-size="10.00" fill="#63b8ff">1</text>
</a>
</g>
</g>
<!-- dir_88be5364f73539203ca89dbdb7c5f756 -->
<g id="node5" class="node">
<title>dir_88be5364f73539203ca89dbdb7c5f756</title>
<g id="a_node5"><a xlink:href="dir_88be5364f73539203ca89dbdb7c5f756.html" target="_top" xlink:title="zprime">
<polygon fill="#a2b4d6" stroke="#404040" points="74,-74 24,-74 24,-55 74,-55 74,-74"/>
<text text-anchor="middle" x="49" y="-62" font-family="Helvetica,sans-Serif" font-size="10.00">zprime</text>
</a>
</g>
</g>
<!-- dir_88be5364f73539203ca89dbdb7c5f756&#45;&gt;dir_8c49963344259a26845032e86c0550c4 -->
<g id="edge7" class="edge">
<title>dir_88be5364f73539203ca89dbdb7c5f756&#45;&gt;dir_8c49963344259a26845032e86c0550c4</title>
<g id="a_edge7"><a xlink:href="dir_000185_000054.html" target="_top">
<path fill="none" stroke="#63b8ff" d="M59.98,-54.79C66.47,-49.84 74.97,-43.71 83,-39 92.78,-33.26 103.9,-27.78 113.95,-23.18"/>
<polygon fill="#63b8ff" stroke="#63b8ff" points="115.47,-26.34 123.18,-19.07 112.62,-19.95 115.47,-26.34"/>
</a>
</g>
<g id="a_edge7&#45;headlabel"><a xlink:href="dir_000185_000054.html" target="_top" xlink:title="1">
<text text-anchor="middle" x="113.34" y="-27.9" font-family="Helvetica,sans-Serif" font-size="10.00" fill="#63b8ff">1</text>
</a>
</g>
</g>
<!-- dir_88be5364f73539203ca89dbdb7c5f756&#45;&gt;dir_ee3c23494b4011e6a628e4900ef262df -->
<g id="edge8" class="edge">
<title>dir_88be5364f73539203ca89dbdb7c5f756&#45;&gt;dir_ee3c23494b4011e6a628e4900ef262df</title>
<g id="a_edge8"><a xlink:href="dir_000185_000128.html" target="_top">
<path fill="none" stroke="#63b8ff" d="M58.72,-54.77C65.17,-49.43 74.07,-42.9 83,-39 87.7,-36.95 144.38,-25.8 184.43,-18.07"/>
<polygon fill="#63b8ff" stroke="#63b8ff" points="185.3,-21.47 194.46,-16.14 183.98,-14.6 185.3,-21.47"/>
</a>
</g>
<g id="a_edge8&#45;headlabel"><a xlink:href="dir_000185_000128.html" target="_top" xlink:title="1">
<text text-anchor="middle" x="182.31" y="-22.44" font-family="Helvetica,sans-Serif" font-size="10.00" fill="#63b8ff">1</text>
</a>
</g>
</g>
</g>
</svg>
