<?xml version="1.0" encoding="UTF-8" standalone="no"?>
<!DOCTYPE svg PUBLIC "-//W3C//DTD SVG 1.1//EN"
 "http://www.w3.org/Graphics/SVG/1.1/DTD/svg11.dtd">
<!-- Generated by graphviz version 2.43.0 (0)
 -->
<!-- Title: pyc Pages: 1 -->
<svg width="381pt" height="224pt"
 viewBox="0.00 0.00 380.50 224.00" xmlns="http://www.w3.org/2000/svg" xmlns:xlink="http://www.w3.org/1999/xlink">

<svg id="main" version="1.1" xmlns="http://www.w3.org/2000/svg" xmlns:xlink="http://www.w3.org/1999/xlink" xml:space="preserve" onload="init(evt)">
<style type="text/css"><![CDATA[
.node, .edge {opacity: 0.7;}
.node.selected, .edge.selected {opacity: 1;}
.edge:hover path { stroke: red; }
.edge:hover polygon { stroke: red; fill: red; }
]]></style>
<script type="application/ecmascript" xlink:href="svg.min.js"/>
<svg id="graph" class="graph">
<g id="graph0" class="graph" transform="scale(1 1) rotate(0) translate(4 220)">
<title>pyc</title>
<g id="clust1" class="cluster">
<title>clusterdir_ec4844e93998863f4e611fcf0d12b86b</title>
<g id="a_clust1"><a xlink:href="dir_ec4844e93998863f4e611fcf0d12b86b.html" target="_top">
<polygon fill="#edf0f7" stroke="#404040" stroke-width="2" points="8,-8 8,-208 303,-208 303,-8 8,-8"/>
</a>
</g>
</g>
<!-- dir_ec4844e93998863f4e611fcf0d12b86b -->
<g id="node1" class="node">
<title>dir_ec4844e93998863f4e611fcf0d12b86b</title>
<text text-anchor="middle" x="277" y="-188" font-family="Helvetica,sans-Serif" font-size="10.00">pyc</text>
</g>
<!-- dir_7d596e10f659c7c79419b1771c79b610 -->
<g id="node2" class="node">
<title>dir_7d596e10f659c7c79419b1771c79b610</title>
<g id="a_node2"><a xlink:href="dir_7d596e10f659c7c79419b1771c79b610.html" target="_top" xlink:title="cutils">
<polygon fill="#a2b4d6" stroke="#404040" points="204.5,-35 161.5,-35 161.5,-16 204.5,-16 204.5,-35"/>
<text text-anchor="middle" x="183" y="-23" font-family="Helvetica,sans-Serif" font-size="10.00">cutils</text>
</a>
</g>
</g>
<!-- dir_2a8b26e8f46d1e604aecb27cb02bf6a9 -->
<g id="node3" class="node">
<title>dir_2a8b26e8f46d1e604aecb27cb02bf6a9</title>
<g id="a_node3"><a xlink:href="dir_2a8b26e8f46d1e604aecb27cb02bf6a9.html" target="_top" xlink:title="graph">
<polygon fill="#a2b4d6" stroke="#404040" points="295,-145 251,-145 251,-126 295,-126 295,-145"/>
<text text-anchor="middle" x="273" y="-133" font-family="Helvetica,sans-Serif" font-size="10.00">graph</text>
</a>
</g>
</g>
<!-- dir_2a8b26e8f46d1e604aecb27cb02bf6a9&#45;&gt;dir_7d596e10f659c7c79419b1771c79b610 -->
<g id="edge1" class="edge">
<title>dir_2a8b26e8f46d1e604aecb27cb02bf6a9&#45;&gt;dir_7d596e10f659c7c79419b1771c79b610</title>
<g id="a_edge1"><a xlink:href="dir_000065_000014.html" target="_top">
<path fill="none" stroke="#63b8ff" d="M276.93,-125.91C282.24,-112.91 289.85,-87.99 279,-71 264.92,-48.95 236.78,-37.66 214.6,-31.98"/>
<polygon fill="#63b8ff" stroke="#63b8ff" points="215.11,-28.51 204.58,-29.69 213.55,-35.33 215.11,-28.51"/>
</a>
</g>
<g id="a_edge1&#45;headlabel"><a xlink:href="dir_000065_000014.html" target="_top" xlink:title="1">
<text text-anchor="middle" x="219.25" y="-24.05" font-family="Helvetica,sans-Serif" font-size="10.00" fill="#63b8ff">1</text>
</a>
</g>
</g>
<!-- dir_cef90815c88c55ab00e0f8ad19f12930 -->
<g id="node4" class="node">
<title>dir_cef90815c88c55ab00e0f8ad19f12930</title>
<g id="a_node4"><a xlink:href="dir_cef90815c88c55ab00e0f8ad19f12930.html" target="_top" xlink:title="interface">
<polygon fill="#a2b4d6" stroke="#404040" points="242,-200 182,-200 182,-181 242,-181 242,-200"/>
<text text-anchor="middle" x="212" y="-188" font-family="Helvetica,sans-Serif" font-size="10.00">interface</text>
</a>
</g>
</g>
<!-- dir_cef90815c88c55ab00e0f8ad19f12930&#45;&gt;dir_7d596e10f659c7c79419b1771c79b610 -->
<g id="edge4" class="edge">
<title>dir_cef90815c88c55ab00e0f8ad19f12930&#45;&gt;dir_7d596e10f659c7c79419b1771c79b610</title>
<g id="a_edge4"><a xlink:href="dir_000108_000014.html" target="_top">
<path fill="none" stroke="#63b8ff" d="M215.79,-180.73C221.21,-168.34 231.69,-145.1 242,-126 250.91,-109.5 258.92,-108.05 264,-90 266.29,-81.87 268.3,-78.27 264,-71 253.25,-52.82 232.14,-41.57 214.17,-34.93"/>
<polygon fill="#63b8ff" stroke="#63b8ff" points="215.18,-31.58 204.59,-31.7 212.95,-38.22 215.18,-31.58"/>
</a>
</g>
<g id="a_edge4&#45;headlabel"><a xlink:href="dir_000108_000014.html" target="_top" xlink:title="6">
<text text-anchor="middle" x="219.5" y="-27.54" font-family="Helvetica,sans-Serif" font-size="10.00" fill="#63b8ff">6</text>
</a>
</g>
</g>
<!-- dir_cef90815c88c55ab00e0f8ad19f12930&#45;&gt;dir_2a8b26e8f46d1e604aecb27cb02bf6a9 -->
<g id="edge2" class="edge">
<title>dir_cef90815c88c55ab00e0f8ad19f12930&#45;&gt;dir_2a8b26e8f46d1e604aecb27cb02bf6a9</title>
<g id="a_edge2"><a xlink:href="dir_000108_000065.html" target="_top">
<path fill="none" stroke="#63b8ff" d="M221.8,-180.98C230.82,-173.15 244.41,-161.34 255.32,-151.86"/>
<polygon fill="#63b8ff" stroke="#63b8ff" points="257.77,-154.37 263.02,-145.17 253.18,-149.09 257.77,-154.37"/>
</a>
</g>
<g id="a_edge2&#45;headlabel"><a xlink:href="dir_000108_000065.html" target="_top" xlink:title="1">
<text text-anchor="middle" x="256.92" y="-156.37" font-family="Helvetica,sans-Serif" font-size="10.00" fill="#63b8ff">1</text>
</a>
</g>
</g>
<!-- dir_f7258c3c715b4ae51f5a1c777d38de1e -->
<g id="node5" class="node">
<title>dir_f7258c3c715b4ae51f5a1c777d38de1e</title>
<g id="a_node5"><a xlink:href="dir_f7258c3c715b4ae51f5a1c777d38de1e.html" target="_top" xlink:title="nusol">
<polygon fill="#a2b4d6" stroke="#404040" points="166.5,-145 123.5,-145 123.5,-126 166.5,-126 166.5,-145"/>
<text text-anchor="middle" x="145" y="-133" font-family="Helvetica,sans-Serif" font-size="10.00">nusol</text>
</a>
</g>
</g>
<!-- dir_cef90815c88c55ab00e0f8ad19f12930&#45;&gt;dir_f7258c3c715b4ae51f5a1c777d38de1e -->
<g id="edge8" class="edge">
<title>dir_cef90815c88c55ab00e0f8ad19f12930&#45;&gt;dir_f7258c3c715b4ae51f5a1c777d38de1e</title>
<g id="a_edge8"><a xlink:href="dir_000108_000132.html" target="_top">
<path fill="none" stroke="#63b8ff" d="M201.24,-180.98C191.23,-173.07 176.11,-161.11 164.07,-151.58"/>
<polygon fill="#63b8ff" stroke="#63b8ff" points="165.97,-148.63 155.96,-145.17 161.63,-154.12 165.97,-148.63"/>
</a>
</g>
<g id="a_edge8&#45;headlabel"><a xlink:href="dir_000108_000132.html" target="_top" xlink:title="1">
<text text-anchor="middle" x="170.56" y="-146.13" font-family="Helvetica,sans-Serif" font-size="10.00" fill="#63b8ff">1</text>
</a>
</g>
</g>
<!-- dir_8f01f23331cc8f04a967f31995c2bfac -->
<g id="node6" class="node">
<title>dir_8f01f23331cc8f04a967f31995c2bfac</title>
<g id="a_node6"><a xlink:href="dir_8f01f23331cc8f04a967f31995c2bfac.html" target="_top" xlink:title="operators">
<polygon fill="#a2b4d6" stroke="#404040" points="79.5,-90 16.5,-90 16.5,-71 79.5,-71 79.5,-90"/>
<text text-anchor="middle" x="48" y="-78" font-family="Helvetica,sans-Serif" font-size="10.00">operators</text>
</a>
</g>
</g>
<!-- dir_cef90815c88c55ab00e0f8ad19f12930&#45;&gt;dir_8f01f23331cc8f04a967f31995c2bfac -->
<g id="edge6" class="edge">
<title>dir_cef90815c88c55ab00e0f8ad19f12930&#45;&gt;dir_8f01f23331cc8f04a967f31995c2bfac</title>
<g id="a_edge6"><a xlink:href="dir_000108_000134.html" target="_top">
<path fill="none" stroke="#63b8ff" d="M187.72,-180.93C167.37,-173.17 138.03,-160.56 115,-145 94.99,-131.47 75.32,-111.86 62.52,-98.02"/>
<polygon fill="#63b8ff" stroke="#63b8ff" points="64.8,-95.33 55.5,-90.26 59.61,-100.02 64.8,-95.33"/>
</a>
</g>
<g id="a_edge6&#45;headlabel"><a xlink:href="dir_000108_000134.html" target="_top" xlink:title="1">
<text text-anchor="middle" x="69.32" y="-93.59" font-family="Helvetica,sans-Serif" font-size="10.00" fill="#63b8ff">1</text>
</a>
</g>
</g>
<!-- dir_7e001d9e5e94b979a435b255bf826c09 -->
<g id="node7" class="node">
<title>dir_7e001d9e5e94b979a435b255bf826c09</title>
<g id="a_node7"><a xlink:href="dir_7e001d9e5e94b979a435b255bf826c09.html" target="_top" xlink:title="physics">
<polygon fill="#a2b4d6" stroke="#404040" points="171.5,-90 118.5,-90 118.5,-71 171.5,-71 171.5,-90"/>
<text text-anchor="middle" x="145" y="-78" font-family="Helvetica,sans-Serif" font-size="10.00">physics</text>
</a>
</g>
</g>
<!-- dir_cef90815c88c55ab00e0f8ad19f12930&#45;&gt;dir_7e001d9e5e94b979a435b255bf826c09 -->
<g id="edge5" class="edge">
<title>dir_cef90815c88c55ab00e0f8ad19f12930&#45;&gt;dir_7e001d9e5e94b979a435b255bf826c09</title>
<g id="a_edge5"><a xlink:href="dir_000108_000142.html" target="_top">
<path fill="none" stroke="#63b8ff" d="M207.36,-180.72C200.73,-168.33 188.02,-145.09 176,-126 170.17,-116.74 163.24,-106.71 157.41,-98.53"/>
<polygon fill="#63b8ff" stroke="#63b8ff" points="160.1,-96.27 151.42,-90.2 154.42,-100.36 160.1,-96.27"/>
</a>
</g>
<g id="a_edge5&#45;headlabel"><a xlink:href="dir_000108_000142.html" target="_top" xlink:title="2">
<text text-anchor="middle" x="164.51" y="-95.03" font-family="Helvetica,sans-Serif" font-size="10.00" fill="#63b8ff">2</text>
</a>
</g>
</g>
<!-- dir_6b18cf1b3d22ec0e85e9a35c5fdf86f0 -->
<g id="node8" class="node">
<title>dir_6b18cf1b3d22ec0e85e9a35c5fdf86f0</title>
<g id="a_node8"><a xlink:href="dir_6b18cf1b3d22ec0e85e9a35c5fdf86f0.html" target="_top" xlink:title="transform">
<polygon fill="#a2b4d6" stroke="#404040" points="254.5,-90 189.5,-90 189.5,-71 254.5,-71 254.5,-90"/>
<text text-anchor="middle" x="222" y="-78" font-family="Helvetica,sans-Serif" font-size="10.00">transform</text>
</a>
</g>
</g>
<!-- dir_cef90815c88c55ab00e0f8ad19f12930&#45;&gt;dir_6b18cf1b3d22ec0e85e9a35c5fdf86f0 -->
<g id="edge3" class="edge">
<title>dir_cef90815c88c55ab00e0f8ad19f12930&#45;&gt;dir_6b18cf1b3d22ec0e85e9a35c5fdf86f0</title>
<g id="a_edge3"><a xlink:href="dir_000108_000177.html" target="_top">
<path fill="none" stroke="#63b8ff" d="M212.82,-180.66C214.44,-163.17 218.08,-123.8 220.26,-100.27"/>
<polygon fill="#63b8ff" stroke="#63b8ff" points="223.76,-100.44 221.2,-90.16 216.79,-99.79 223.76,-100.44"/>
</a>
</g>
<g id="a_edge3&#45;headlabel"><a xlink:href="dir_000108_000177.html" target="_top" xlink:title="3">
<text text-anchor="middle" x="226.26" y="-101.78" font-family="Helvetica,sans-Serif" font-size="10.00" fill="#63b8ff">3</text>
</a>
</g>
</g>
<!-- dir_ee3c23494b4011e6a628e4900ef262df -->
<g id="node9" class="node">
<title>dir_ee3c23494b4011e6a628e4900ef262df</title>
<g id="a_node9"><a xlink:href="dir_ee3c23494b4011e6a628e4900ef262df.html" target="_top" xlink:title="modules">
<polygon fill="#edf0f7" stroke="red" points="372.5,-145 313.5,-145 313.5,-126 372.5,-126 372.5,-145"/>
<text text-anchor="middle" x="343" y="-133" font-family="Helvetica,sans-Serif" font-size="10.00">modules</text>
</a>
</g>
</g>
<!-- dir_cef90815c88c55ab00e0f8ad19f12930&#45;&gt;dir_ee3c23494b4011e6a628e4900ef262df -->
<g id="edge7" class="edge">
<title>dir_cef90815c88c55ab00e0f8ad19f12930&#45;&gt;dir_ee3c23494b4011e6a628e4900ef262df</title>
<g id="a_edge7"><a xlink:href="dir_000108_000128.html" target="_top">
<path fill="none" stroke="#63b8ff" d="M233.05,-180.98C254.41,-172.34 287.7,-158.87 312.06,-149.02"/>
<polygon fill="#63b8ff" stroke="#63b8ff" points="313.61,-152.17 321.57,-145.17 310.99,-145.68 313.61,-152.17"/>
</a>
</g>
<g id="a_edge7&#45;headlabel"><a xlink:href="dir_000108_000128.html" target="_top" xlink:title="3">
<text text-anchor="middle" x="311.34" y="-153.65" font-family="Helvetica,sans-Serif" font-size="10.00" fill="#63b8ff">3</text>
</a>
</g>
</g>
<!-- dir_f7258c3c715b4ae51f5a1c777d38de1e&#45;&gt;dir_7d596e10f659c7c79419b1771c79b610 -->
<g id="edge12" class="edge">
<title>dir_f7258c3c715b4ae51f5a1c777d38de1e&#45;&gt;dir_7d596e10f659c7c79419b1771c79b610</title>
<g id="a_edge12"><a xlink:href="dir_000132_000014.html" target="_top">
<path fill="none" stroke="#63b8ff" d="M134.18,-125.85C120.24,-113.6 99.03,-90.54 110,-71 119.03,-54.92 136.48,-43.97 152.06,-36.96"/>
<polygon fill="#63b8ff" stroke="#63b8ff" points="153.52,-40.14 161.42,-33.09 150.85,-33.67 153.52,-40.14"/>
</a>
</g>
<g id="a_edge12&#45;headlabel"><a xlink:href="dir_000132_000014.html" target="_top" xlink:title="1">
<text text-anchor="middle" x="151.28" y="-41.64" font-family="Helvetica,sans-Serif" font-size="10.00" fill="#63b8ff">1</text>
</a>
</g>
</g>
<!-- dir_f7258c3c715b4ae51f5a1c777d38de1e&#45;&gt;dir_8f01f23331cc8f04a967f31995c2bfac -->
<g id="edge9" class="edge">
<title>dir_f7258c3c715b4ae51f5a1c777d38de1e&#45;&gt;dir_8f01f23331cc8f04a967f31995c2bfac</title>
<g id="a_edge9"><a xlink:href="dir_000132_000134.html" target="_top">
<path fill="none" stroke="#63b8ff" d="M129.42,-125.98C114.23,-117.69 90.9,-104.94 73.1,-95.22"/>
<polygon fill="#63b8ff" stroke="#63b8ff" points="74.32,-91.89 63.87,-90.17 70.97,-98.04 74.32,-91.89"/>
</a>
</g>
<g id="a_edge9&#45;headlabel"><a xlink:href="dir_000132_000134.html" target="_top" xlink:title="1">
<text text-anchor="middle" x="78.84" y="-88.63" font-family="Helvetica,sans-Serif" font-size="10.00" fill="#63b8ff">1</text>
</a>
</g>
</g>
<!-- dir_f7258c3c715b4ae51f5a1c777d38de1e&#45;&gt;dir_7e001d9e5e94b979a435b255bf826c09 -->
<g id="edge11" class="edge">
<title>dir_f7258c3c715b4ae51f5a1c777d38de1e&#45;&gt;dir_7e001d9e5e94b979a435b255bf826c09</title>
<g id="a_edge11"><a xlink:href="dir_000132_000142.html" target="_top">
<path fill="none" stroke="#63b8ff" d="M145,-125.75C145,-118.8 145,-108.85 145,-100.13"/>
<polygon fill="#63b8ff" stroke="#63b8ff" points="148.5,-100.09 145,-90.09 141.5,-100.09 148.5,-100.09"/>
</a>
</g>
<g id="a_edge11&#45;headlabel"><a xlink:href="dir_000132_000142.html" target="_top" xlink:title="1">
<text text-anchor="middle" x="151.34" y="-101.18" font-family="Helvetica,sans-Serif" font-size="10.00" fill="#63b8ff">1</text>
</a>
</g>
</g>
<!-- dir_f7258c3c715b4ae51f5a1c777d38de1e&#45;&gt;dir_6b18cf1b3d22ec0e85e9a35c5fdf86f0 -->
<g id="edge10" class="edge">
<title>dir_f7258c3c715b4ae51f5a1c777d38de1e&#45;&gt;dir_6b18cf1b3d22ec0e85e9a35c5fdf86f0</title>
<g id="a_edge10"><a xlink:href="dir_000132_000177.html" target="_top">
<path fill="none" stroke="#63b8ff" d="M157.37,-125.98C169.09,-117.92 186.92,-105.65 200.89,-96.03"/>
<polygon fill="#63b8ff" stroke="#63b8ff" points="203.15,-98.72 209.4,-90.17 199.18,-92.96 203.15,-98.72"/>
</a>
</g>
<g id="a_edge10&#45;headlabel"><a xlink:href="dir_000132_000177.html" target="_top" xlink:title="1">
<text text-anchor="middle" x="201.8" y="-100.6" font-family="Helvetica,sans-Serif" font-size="10.00" fill="#63b8ff">1</text>
</a>
</g>
</g>
<!-- dir_8f01f23331cc8f04a967f31995c2bfac&#45;&gt;dir_7d596e10f659c7c79419b1771c79b610 -->
<g id="edge13" class="edge">
<title>dir_8f01f23331cc8f04a967f31995c2bfac&#45;&gt;dir_7d596e10f659c7c79419b1771c79b610</title>
<g id="a_edge13"><a xlink:href="dir_000134_000014.html" target="_top">
<path fill="none" stroke="#63b8ff" d="M69.69,-70.98C91.93,-62.25 126.73,-48.59 151.9,-38.71"/>
<polygon fill="#63b8ff" stroke="#63b8ff" points="153.33,-41.91 161.36,-34.99 150.78,-35.39 153.33,-41.91"/>
</a>
</g>
<g id="a_edge13&#45;headlabel"><a xlink:href="dir_000134_000014.html" target="_top" xlink:title="1">
<text text-anchor="middle" x="151.03" y="-43.36" font-family="Helvetica,sans-Serif" font-size="10.00" fill="#63b8ff">1</text>
</a>
</g>
</g>
<!-- dir_7e001d9e5e94b979a435b255bf826c09&#45;&gt;dir_7d596e10f659c7c79419b1771c79b610 -->
<g id="edge14" class="edge">
<title>dir_7e001d9e5e94b979a435b255bf826c09&#45;&gt;dir_7d596e10f659c7c79419b1771c79b610</title>
<g id="a_edge14"><a xlink:href="dir_000142_000014.html" target="_top">
<path fill="none" stroke="#63b8ff" d="M151.27,-70.75C156.59,-63.34 164.36,-52.5 170.88,-43.41"/>
<polygon fill="#63b8ff" stroke="#63b8ff" points="173.86,-45.26 176.84,-35.09 168.17,-41.18 173.86,-45.26"/>
</a>
</g>
<g id="a_edge14&#45;headlabel"><a xlink:href="dir_000142_000014.html" target="_top" xlink:title="1">
<text text-anchor="middle" x="174.07" y="-47.33" font-family="Helvetica,sans-Serif" font-size="10.00" fill="#63b8ff">1</text>
</a>
</g>
</g>
<!-- dir_6b18cf1b3d22ec0e85e9a35c5fdf86f0&#45;&gt;dir_7d596e10f659c7c79419b1771c79b610 -->
<g id="edge15" class="edge">
<title>dir_6b18cf1b3d22ec0e85e9a35c5fdf86f0&#45;&gt;dir_7d596e10f659c7c79419b1771c79b610</title>
<g id="a_edge15"><a xlink:href="dir_000177_000014.html" target="_top">
<path fill="none" stroke="#63b8ff" d="M215.56,-70.75C210.11,-63.34 202.14,-52.5 195.44,-43.41"/>
<polygon fill="#63b8ff" stroke="#63b8ff" points="198.07,-41.07 189.32,-35.09 192.43,-45.22 198.07,-41.07"/>
</a>
</g>
<g id="a_edge15&#45;headlabel"><a xlink:href="dir_000177_000014.html" target="_top" xlink:title="1">
<text text-anchor="middle" x="202.48" y="-39.78" font-family="Helvetica,sans-Serif" font-size="10.00" fill="#63b8ff">1</text>
</a>
</g>
</g>
</g>
</svg>
</svg>

<style type='text/css'>
<![CDATA[
[data-mouse-over-selected='false'] { opacity: 0.7; }
[data-mouse-over-selected='true']  { opacity: 1.0; }
]]>
</style>
<script type="application/ecmascript"><![CDATA[
document.addEventListener('DOMContentLoaded', (event) => {
  highlightEdges();
  highlightAdjacentNodes();
});
]]></script>
</svg>
