<?xml version="1.0" encoding="UTF-8" standalone="no"?>
<!DOCTYPE svg PUBLIC "-//W3C//DTD SVG 1.1//EN"
 "http://www.w3.org/Graphics/SVG/1.1/DTD/svg11.dtd">
<!-- Generated by graphviz version 2.43.0 (0)
 -->
<!-- Title: include Pages: 1 -->
<svg width="403pt" height="125pt"
 viewBox="0.00 0.00 403.00 125.00" xmlns="http://www.w3.org/2000/svg" xmlns:xlink="http://www.w3.org/1999/xlink">
<g id="graph0" class="graph" transform="scale(1 1) rotate(0) translate(4 121)">
<title>include</title>
<g id="clust1" class="cluster">
<title>clusterdir_c49883265e919209ca31c480d01c9221</title>
<g id="a_clust1"><a xlink:href="dir_c49883265e919209ca31c480d01c9221.html" target="_top" xlink:title="selection">
<polygon fill="#edf0f7" stroke="#7f7f7f" stroke-dasharray="5,2" points="141.5,-39 141.5,-109 309.5,-109 309.5,-39 141.5,-39"/>
<text text-anchor="middle" x="225.5" y="-97" font-family="Helvetica,sans-Serif" font-size="10.00">selection</text>
</a>
</g>
</g>
<g id="clust2" class="cluster">
<title>clusterdir_3e74bc55852bd21e07f8637285e185d5</title>
<g id="a_clust2"><a xlink:href="dir_3e74bc55852bd21e07f8637285e185d5.html" target="_top">
<polygon fill="#edf0f7" stroke="#404040" stroke-width="2" points="149.5,-47 149.5,-82 301.5,-82 301.5,-47 149.5,-47"/>
</a>
</g>
</g>
<!-- dir_3e74bc55852bd21e07f8637285e185d5 -->
<g id="node1" class="node">
<title>dir_3e74bc55852bd21e07f8637285e185d5</title>
<text text-anchor="middle" x="267.5" y="-62" font-family="Helvetica,sans-Serif" font-size="10.00">include</text>
</g>
<!-- dir_a8946d6d4323cab0d1b49fe4e0677e2c -->
<g id="node2" class="node">
<title>dir_a8946d6d4323cab0d1b49fe4e0677e2c</title>
<g id="a_node2"><a xlink:href="dir_a8946d6d4323cab0d1b49fe4e0677e2c.html" target="_top" xlink:title="templates">
<polygon fill="#a2b4d6" stroke="#404040" points="223.5,-74 157.5,-74 157.5,-55 223.5,-55 223.5,-74"/>
<text text-anchor="middle" x="190.5" y="-62" font-family="Helvetica,sans-Serif" font-size="10.00">templates</text>
</a>
</g>
</g>
<!-- dir_1591526fd125289a70742a0dafe36eb5 -->
<g id="node3" class="node">
<title>dir_1591526fd125289a70742a0dafe36eb5</title>
<g id="a_node3"><a xlink:href="dir_1591526fd125289a70742a0dafe36eb5.html" target="_top" xlink:title="particle">
<polygon fill="#edf0f7" stroke="red" stroke-dasharray="5,2" points="53,-19 0,-19 0,0 53,0 53,-19"/>
<text text-anchor="middle" x="26.5" y="-7" font-family="Helvetica,sans-Serif" font-size="10.00">particle</text>
</a>
</g>
</g>
<!-- dir_a8946d6d4323cab0d1b49fe4e0677e2c&#45;&gt;dir_1591526fd125289a70742a0dafe36eb5 -->
<g id="edge1" class="edge">
<title>dir_a8946d6d4323cab0d1b49fe4e0677e2c&#45;&gt;dir_1591526fd125289a70742a0dafe36eb5</title>
<g id="a_edge1"><a xlink:href="dir_000165_000139.html" target="_top">
<path fill="none" stroke="#63b8ff" d="M164.15,-54.98C136.74,-46.13 93.61,-32.19 62.94,-22.28"/>
<polygon fill="#63b8ff" stroke="#63b8ff" points="63.65,-18.83 53.06,-19.08 61.5,-25.49 63.65,-18.83"/>
</a>
</g>
<g id="a_edge1&#45;headlabel"><a xlink:href="dir_000165_000139.html" target="_top" xlink:title="1">
<text text-anchor="middle" x="67.94" y="-14.73" font-family="Helvetica,sans-Serif" font-size="10.00" fill="#63b8ff">1</text>
</a>
</g>
</g>
<!-- dir_fb91096735c52f3a453d1a3e67025085 -->
<g id="node4" class="node">
<title>dir_fb91096735c52f3a453d1a3e67025085</title>
<g id="a_node4"><a xlink:href="dir_fb91096735c52f3a453d1a3e67025085.html" target="_top" xlink:title="event">
<polygon fill="#edf0f7" stroke="red" stroke-dasharray="5,2" points="115.5,-19 71.5,-19 71.5,0 115.5,0 115.5,-19"/>
<text text-anchor="middle" x="93.5" y="-7" font-family="Helvetica,sans-Serif" font-size="10.00">event</text>
</a>
</g>
</g>
<!-- dir_a8946d6d4323cab0d1b49fe4e0677e2c&#45;&gt;dir_fb91096735c52f3a453d1a3e67025085 -->
<g id="edge6" class="edge">
<title>dir_a8946d6d4323cab0d1b49fe4e0677e2c&#45;&gt;dir_fb91096735c52f3a453d1a3e67025085</title>
<g id="a_edge6"><a xlink:href="dir_000165_000052.html" target="_top">
<path fill="none" stroke="#63b8ff" d="M174.92,-54.98C159.73,-46.69 136.4,-33.94 118.6,-24.22"/>
<polygon fill="#63b8ff" stroke="#63b8ff" points="119.82,-20.89 109.37,-19.17 116.47,-27.04 119.82,-20.89"/>
</a>
</g>
<g id="a_edge6&#45;headlabel"><a xlink:href="dir_000165_000052.html" target="_top" xlink:title="1">
<text text-anchor="middle" x="124.34" y="-17.63" font-family="Helvetica,sans-Serif" font-size="10.00" fill="#63b8ff">1</text>
</a>
</g>
</g>
<!-- dir_639930e6546076602fdb99daad4d48b4 -->
<g id="node5" class="node">
<title>dir_639930e6546076602fdb99daad4d48b4</title>
<g id="a_node5"><a xlink:href="dir_639930e6546076602fdb99daad4d48b4.html" target="_top" xlink:title="structs">
<polygon fill="#edf0f7" stroke="red" stroke-dasharray="5,2" points="183.5,-19 133.5,-19 133.5,0 183.5,0 183.5,-19"/>
<text text-anchor="middle" x="158.5" y="-7" font-family="Helvetica,sans-Serif" font-size="10.00">structs</text>
</a>
</g>
</g>
<!-- dir_a8946d6d4323cab0d1b49fe4e0677e2c&#45;&gt;dir_639930e6546076602fdb99daad4d48b4 -->
<g id="edge2" class="edge">
<title>dir_a8946d6d4323cab0d1b49fe4e0677e2c&#45;&gt;dir_639930e6546076602fdb99daad4d48b4</title>
<g id="a_edge2"><a xlink:href="dir_000165_000157.html" target="_top">
<path fill="none" stroke="#63b8ff" d="M185.22,-54.75C180.79,-47.42 174.34,-36.73 168.88,-27.7"/>
<polygon fill="#63b8ff" stroke="#63b8ff" points="171.85,-25.84 163.69,-19.09 165.86,-29.46 171.85,-25.84"/>
</a>
</g>
<g id="a_edge2&#45;headlabel"><a xlink:href="dir_000165_000157.html" target="_top" xlink:title="3">
<text text-anchor="middle" x="176.14" y="-24.95" font-family="Helvetica,sans-Serif" font-size="10.00" fill="#63b8ff">3</text>
</a>
</g>
</g>
<!-- dir_7e7898fd82fc7805c9d39fdbc62120b9 -->
<g id="node6" class="node">
<title>dir_7e7898fd82fc7805c9d39fdbc62120b9</title>
<g id="a_node6"><a xlink:href="dir_7e7898fd82fc7805c9d39fdbc62120b9.html" target="_top" xlink:title="meta">
<polygon fill="#edf0f7" stroke="red" stroke-dasharray="5,2" points="243.5,-19 201.5,-19 201.5,0 243.5,0 243.5,-19"/>
<text text-anchor="middle" x="222.5" y="-7" font-family="Helvetica,sans-Serif" font-size="10.00">meta</text>
</a>
</g>
</g>
<!-- dir_a8946d6d4323cab0d1b49fe4e0677e2c&#45;&gt;dir_7e7898fd82fc7805c9d39fdbc62120b9 -->
<g id="edge3" class="edge">
<title>dir_a8946d6d4323cab0d1b49fe4e0677e2c&#45;&gt;dir_7e7898fd82fc7805c9d39fdbc62120b9</title>
<g id="a_edge3"><a xlink:href="dir_000165_000116.html" target="_top">
<path fill="none" stroke="#63b8ff" d="M195.78,-54.75C200.21,-47.42 206.66,-36.73 212.12,-27.7"/>
<polygon fill="#63b8ff" stroke="#63b8ff" points="215.14,-29.46 217.31,-19.09 209.15,-25.84 215.14,-29.46"/>
</a>
</g>
<g id="a_edge3&#45;headlabel"><a xlink:href="dir_000165_000116.html" target="_top" xlink:title="1">
<text text-anchor="middle" x="215.71" y="-31.5" font-family="Helvetica,sans-Serif" font-size="10.00" fill="#63b8ff">1</text>
</a>
</g>
</g>
<!-- dir_b60a80b5573f59b8d3124d04096ac72b -->
<g id="node7" class="node">
<title>dir_b60a80b5573f59b8d3124d04096ac72b</title>
<g id="a_node7"><a xlink:href="dir_b60a80b5573f59b8d3124d04096ac72b.html" target="_top" xlink:title="typecasting">
<polygon fill="#edf0f7" stroke="red" stroke-dasharray="5,2" points="335.5,-19 261.5,-19 261.5,0 335.5,0 335.5,-19"/>
<text text-anchor="middle" x="298.5" y="-7" font-family="Helvetica,sans-Serif" font-size="10.00">typecasting</text>
</a>
</g>
</g>
<!-- dir_a8946d6d4323cab0d1b49fe4e0677e2c&#45;&gt;dir_b60a80b5573f59b8d3124d04096ac72b -->
<g id="edge4" class="edge">
<title>dir_a8946d6d4323cab0d1b49fe4e0677e2c&#45;&gt;dir_b60a80b5573f59b8d3124d04096ac72b</title>
<g id="a_edge4"><a xlink:href="dir_000165_000179.html" target="_top">
<path fill="none" stroke="#63b8ff" d="M204.27,-54.9C212.36,-50 222.86,-43.87 232.5,-39 243.7,-33.34 256.28,-27.73 267.44,-23"/>
<polygon fill="#63b8ff" stroke="#63b8ff" points="268.92,-26.18 276.8,-19.1 266.22,-19.72 268.92,-26.18"/>
</a>
</g>
<g id="a_edge4&#45;headlabel"><a xlink:href="dir_000165_000179.html" target="_top" xlink:title="2">
<text text-anchor="middle" x="266.69" y="-27.68" font-family="Helvetica,sans-Serif" font-size="10.00" fill="#63b8ff">2</text>
</a>
</g>
</g>
<!-- dir_f0fdfbf866f75abaaae77c9c053e2c4e -->
<g id="node8" class="node">
<title>dir_f0fdfbf866f75abaaae77c9c053e2c4e</title>
<g id="a_node8"><a xlink:href="dir_f0fdfbf866f75abaaae77c9c053e2c4e.html" target="_top" xlink:title="tools">
<polygon fill="#edf0f7" stroke="red" stroke-dasharray="5,2" points="395,-19 354,-19 354,0 395,0 395,-19"/>
<text text-anchor="middle" x="374.5" y="-7" font-family="Helvetica,sans-Serif" font-size="10.00">tools</text>
</a>
</g>
</g>
<!-- dir_a8946d6d4323cab0d1b49fe4e0677e2c&#45;&gt;dir_f0fdfbf866f75abaaae77c9c053e2c4e -->
<g id="edge5" class="edge">
<title>dir_a8946d6d4323cab0d1b49fe4e0677e2c&#45;&gt;dir_f0fdfbf866f75abaaae77c9c053e2c4e</title>
<g id="a_edge5"><a xlink:href="dir_000165_000167.html" target="_top">
<path fill="none" stroke="#63b8ff" d="M202.79,-54.77C210.87,-49.43 221.88,-42.9 232.5,-39 277.18,-22.57 293.33,-29.41 344.03,-18.81"/>
<polygon fill="#63b8ff" stroke="#63b8ff" points="344.91,-22.2 353.91,-16.62 343.39,-15.37 344.91,-22.2"/>
</a>
</g>
<g id="a_edge5&#45;headlabel"><a xlink:href="dir_000165_000167.html" target="_top" xlink:title="1">
<text text-anchor="middle" x="342.01" y="-23.25" font-family="Helvetica,sans-Serif" font-size="10.00" fill="#63b8ff">1</text>
</a>
</g>
</g>
</g>
</svg>
