<?xml version="1.0" encoding="UTF-8" standalone="no"?>
<!DOCTYPE svg PUBLIC "-//W3C//DTD SVG 1.1//EN"
 "http://www.w3.org/Graphics/SVG/1.1/DTD/svg11.dtd">
<!-- Generated by graphviz version 2.43.0 (0)
 -->
<!-- Title: include Pages: 1 -->
<svg width="709pt" height="125pt"
 viewBox="0.00 0.00 708.50 125.00" xmlns="http://www.w3.org/2000/svg" xmlns:xlink="http://www.w3.org/1999/xlink">
<g id="graph0" class="graph" transform="scale(1 1) rotate(0) translate(4 121)">
<title>include</title>
<g id="clust1" class="cluster">
<title>clusterdir_464a9e90502f871f23df452ca877dba2</title>
<g id="a_clust1"><a xlink:href="dir_464a9e90502f871f23df452ca877dba2.html" target="_top" xlink:title="analysis">
<polygon fill="#edf0f7" stroke="#7f7f7f" stroke-dasharray="5,2" points="305.5,-39 305.5,-109 473.5,-109 473.5,-39 305.5,-39"/>
<text text-anchor="middle" x="389.5" y="-97" font-family="Helvetica,sans-Serif" font-size="10.00">analysis</text>
</a>
</g>
</g>
<g id="clust2" class="cluster">
<title>clusterdir_ec8876142844dd87c71e566879fa9949</title>
<g id="a_clust2"><a xlink:href="dir_ec8876142844dd87c71e566879fa9949.html" target="_top">
<polygon fill="#edf0f7" stroke="#404040" stroke-width="2" points="313.5,-47 313.5,-82 465.5,-82 465.5,-47 313.5,-47"/>
</a>
</g>
</g>
<!-- dir_ec8876142844dd87c71e566879fa9949 -->
<g id="node1" class="node">
<title>dir_ec8876142844dd87c71e566879fa9949</title>
<text text-anchor="middle" x="431.5" y="-62" font-family="Helvetica,sans-Serif" font-size="10.00">include</text>
</g>
<!-- dir_13fcd38e0d88153f1528dab6218b4c70 -->
<g id="node2" class="node">
<title>dir_13fcd38e0d88153f1528dab6218b4c70</title>
<g id="a_node2"><a xlink:href="dir_13fcd38e0d88153f1528dab6218b4c70.html" target="_top" xlink:title="AnalysisG">
<polygon fill="#a2b4d6" stroke="#404040" points="387,-74 322,-74 322,-55 387,-55 387,-74"/>
<text text-anchor="middle" x="354.5" y="-62" font-family="Helvetica,sans-Serif" font-size="10.00">AnalysisG</text>
</a>
</g>
</g>
<!-- dir_01cd01df262b9d391c5521e9294e448f -->
<g id="node3" class="node">
<title>dir_01cd01df262b9d391c5521e9294e448f</title>
<g id="a_node3"><a xlink:href="dir_01cd01df262b9d391c5521e9294e448f.html" target="_top" xlink:title="dataloader">
<polygon fill="#edf0f7" stroke="red" stroke-dasharray="5,2" points="69,-19 0,-19 0,0 69,0 69,-19"/>
<text text-anchor="middle" x="34.5" y="-7" font-family="Helvetica,sans-Serif" font-size="10.00">dataloader</text>
</a>
</g>
</g>
<!-- dir_13fcd38e0d88153f1528dab6218b4c70&#45;&gt;dir_01cd01df262b9d391c5521e9294e448f -->
<g id="edge1" class="edge">
<title>dir_13fcd38e0d88153f1528dab6218b4c70&#45;&gt;dir_01cd01df262b9d391c5521e9294e448f</title>
<g id="a_edge1"><a xlink:href="dir_000003_000048.html" target="_top">
<path fill="none" stroke="#63b8ff" d="M321.6,-58.61C271.43,-51.06 172.54,-35.84 79.11,-19.24"/>
<polygon fill="#63b8ff" stroke="#63b8ff" points="79.67,-15.79 69.21,-17.47 78.44,-22.68 79.67,-15.79"/>
</a>
</g>
<g id="a_edge1&#45;headlabel"><a xlink:href="dir_000003_000048.html" target="_top" xlink:title="1">
<text text-anchor="middle" x="83.71" y="-11.12" font-family="Helvetica,sans-Serif" font-size="10.00" fill="#63b8ff">1</text>
</a>
</g>
</g>
<!-- dir_16443852c62a98071c47f6a3819d55f3 -->
<g id="node4" class="node">
<title>dir_16443852c62a98071c47f6a3819d55f3</title>
<g id="a_node4"><a xlink:href="dir_16443852c62a98071c47f6a3819d55f3.html" target="_top" xlink:title="sampletracer">
<polygon fill="#edf0f7" stroke="red" stroke-dasharray="5,2" points="168,-19 87,-19 87,0 168,0 168,-19"/>
<text text-anchor="middle" x="127.5" y="-7" font-family="Helvetica,sans-Serif" font-size="10.00">sampletracer</text>
</a>
</g>
</g>
<!-- dir_13fcd38e0d88153f1528dab6218b4c70&#45;&gt;dir_16443852c62a98071c47f6a3819d55f3 -->
<g id="edge2" class="edge">
<title>dir_13fcd38e0d88153f1528dab6218b4c70&#45;&gt;dir_16443852c62a98071c47f6a3819d55f3</title>
<g id="a_edge2"><a xlink:href="dir_000003_000150.html" target="_top">
<path fill="none" stroke="#63b8ff" d="M321.98,-55.91C283.19,-46.85 218.09,-31.65 174,-21.36"/>
<polygon fill="#63b8ff" stroke="#63b8ff" points="174.63,-17.91 164.1,-19.05 173.04,-24.73 174.63,-17.91"/>
</a>
</g>
<g id="a_edge2&#45;headlabel"><a xlink:href="dir_000003_000150.html" target="_top" xlink:title="1">
<text text-anchor="middle" x="178.78" y="-13.46" font-family="Helvetica,sans-Serif" font-size="10.00" fill="#63b8ff">1</text>
</a>
</g>
</g>
<!-- dir_4969ff72e1fed5b4b8966b48bec3d706 -->
<g id="node5" class="node">
<title>dir_4969ff72e1fed5b4b8966b48bec3d706</title>
<g id="a_node5"><a xlink:href="dir_4969ff72e1fed5b4b8966b48bec3d706.html" target="_top" xlink:title="graph">
<polygon fill="#edf0f7" stroke="red" stroke-dasharray="5,2" points="230.5,-19 186.5,-19 186.5,0 230.5,0 230.5,-19"/>
<text text-anchor="middle" x="208.5" y="-7" font-family="Helvetica,sans-Serif" font-size="10.00">graph</text>
</a>
</g>
</g>
<!-- dir_13fcd38e0d88153f1528dab6218b4c70&#45;&gt;dir_4969ff72e1fed5b4b8966b48bec3d706 -->
<g id="edge3" class="edge">
<title>dir_13fcd38e0d88153f1528dab6218b4c70&#45;&gt;dir_4969ff72e1fed5b4b8966b48bec3d706</title>
<g id="a_edge3"><a xlink:href="dir_000003_000064.html" target="_top">
<path fill="none" stroke="#63b8ff" d="M331.04,-54.98C306.49,-46.07 267.78,-32.02 240.45,-22.1"/>
<polygon fill="#63b8ff" stroke="#63b8ff" points="241.53,-18.77 230.94,-18.65 239.15,-25.35 241.53,-18.77"/>
</a>
</g>
<g id="a_edge3&#45;headlabel"><a xlink:href="dir_000003_000064.html" target="_top" xlink:title="1">
<text text-anchor="middle" x="245.88" y="-14.83" font-family="Helvetica,sans-Serif" font-size="10.00" fill="#63b8ff">1</text>
</a>
</g>
</g>
<!-- dir_59dae5a8264374059bc56903f23a94ee -->
<g id="node6" class="node">
<title>dir_59dae5a8264374059bc56903f23a94ee</title>
<g id="a_node6"><a xlink:href="dir_59dae5a8264374059bc56903f23a94ee.html" target="_top" xlink:title="io">
<polygon fill="#edf0f7" stroke="red" stroke-dasharray="5,2" points="278,-19 249,-19 249,0 278,0 278,-19"/>
<text text-anchor="middle" x="263.5" y="-7" font-family="Helvetica,sans-Serif" font-size="10.00">io</text>
</a>
</g>
</g>
<!-- dir_13fcd38e0d88153f1528dab6218b4c70&#45;&gt;dir_59dae5a8264374059bc56903f23a94ee -->
<g id="edge4" class="edge">
<title>dir_13fcd38e0d88153f1528dab6218b4c70&#45;&gt;dir_59dae5a8264374059bc56903f23a94ee</title>
<g id="a_edge4"><a xlink:href="dir_000003_000109.html" target="_top">
<path fill="none" stroke="#63b8ff" d="M339.88,-54.98C325.55,-46.64 303.49,-33.79 286.75,-24.04"/>
<polygon fill="#63b8ff" stroke="#63b8ff" points="288.49,-21 278.08,-18.99 284.96,-27.05 288.49,-21"/>
</a>
</g>
<g id="a_edge4&#45;headlabel"><a xlink:href="dir_000003_000109.html" target="_top" xlink:title="1">
<text text-anchor="middle" x="293.02" y="-17.86" font-family="Helvetica,sans-Serif" font-size="10.00" fill="#63b8ff">1</text>
</a>
</g>
</g>
<!-- dir_639930e6546076602fdb99daad4d48b4 -->
<g id="node7" class="node">
<title>dir_639930e6546076602fdb99daad4d48b4</title>
<g id="a_node7"><a xlink:href="dir_639930e6546076602fdb99daad4d48b4.html" target="_top" xlink:title="structs">
<polygon fill="#edf0f7" stroke="red" stroke-dasharray="5,2" points="346.5,-19 296.5,-19 296.5,0 346.5,0 346.5,-19"/>
<text text-anchor="middle" x="321.5" y="-7" font-family="Helvetica,sans-Serif" font-size="10.00">structs</text>
</a>
</g>
</g>
<!-- dir_13fcd38e0d88153f1528dab6218b4c70&#45;&gt;dir_639930e6546076602fdb99daad4d48b4 -->
<g id="edge5" class="edge">
<title>dir_13fcd38e0d88153f1528dab6218b4c70&#45;&gt;dir_639930e6546076602fdb99daad4d48b4</title>
<g id="a_edge5"><a xlink:href="dir_000003_000157.html" target="_top">
<path fill="none" stroke="#63b8ff" d="M349.05,-54.75C344.49,-47.42 337.83,-36.73 332.21,-27.7"/>
<polygon fill="#63b8ff" stroke="#63b8ff" points="335.1,-25.73 326.85,-19.09 329.16,-29.43 335.1,-25.73"/>
</a>
</g>
<g id="a_edge5&#45;headlabel"><a xlink:href="dir_000003_000157.html" target="_top" xlink:title="1">
<text text-anchor="middle" x="339.41" y="-24.78" font-family="Helvetica,sans-Serif" font-size="10.00" fill="#63b8ff">1</text>
</a>
</g>
</g>
<!-- dir_9fd58bbf403f6bebb995a0271eeae5cc -->
<g id="node8" class="node">
<title>dir_9fd58bbf403f6bebb995a0271eeae5cc</title>
<g id="a_node8"><a xlink:href="dir_9fd58bbf403f6bebb995a0271eeae5cc.html" target="_top" xlink:title="model">
<polygon fill="#edf0f7" stroke="red" stroke-dasharray="5,2" points="412,-19 365,-19 365,0 412,0 412,-19"/>
<text text-anchor="middle" x="388.5" y="-7" font-family="Helvetica,sans-Serif" font-size="10.00">model</text>
</a>
</g>
</g>
<!-- dir_13fcd38e0d88153f1528dab6218b4c70&#45;&gt;dir_9fd58bbf403f6bebb995a0271eeae5cc -->
<g id="edge6" class="edge">
<title>dir_13fcd38e0d88153f1528dab6218b4c70&#45;&gt;dir_9fd58bbf403f6bebb995a0271eeae5cc</title>
<g id="a_edge6"><a xlink:href="dir_000003_000124.html" target="_top">
<path fill="none" stroke="#63b8ff" d="M360.11,-54.75C364.82,-47.42 371.67,-36.73 377.47,-27.7"/>
<polygon fill="#63b8ff" stroke="#63b8ff" points="380.54,-29.4 382.99,-19.09 374.64,-25.62 380.54,-29.4"/>
</a>
</g>
<g id="a_edge6&#45;headlabel"><a xlink:href="dir_000003_000124.html" target="_top" xlink:title="1">
<text text-anchor="middle" x="380.99" y="-31.45" font-family="Helvetica,sans-Serif" font-size="10.00" fill="#63b8ff">1</text>
</a>
</g>
</g>
<!-- dir_c49883265e919209ca31c480d01c9221 -->
<g id="node9" class="node">
<title>dir_c49883265e919209ca31c480d01c9221</title>
<g id="a_node9"><a xlink:href="dir_c49883265e919209ca31c480d01c9221.html" target="_top" xlink:title="selection">
<polygon fill="#edf0f7" stroke="red" stroke-dasharray="5,2" points="491,-19 430,-19 430,0 491,0 491,-19"/>
<text text-anchor="middle" x="460.5" y="-7" font-family="Helvetica,sans-Serif" font-size="10.00">selection</text>
</a>
</g>
</g>
<!-- dir_13fcd38e0d88153f1528dab6218b4c70&#45;&gt;dir_c49883265e919209ca31c480d01c9221 -->
<g id="edge7" class="edge">
<title>dir_13fcd38e0d88153f1528dab6218b4c70&#45;&gt;dir_c49883265e919209ca31c480d01c9221</title>
<g id="a_edge7"><a xlink:href="dir_000003_000151.html" target="_top">
<path fill="none" stroke="#63b8ff" d="M368.29,-54.95C376.38,-50.05 386.88,-43.93 396.5,-39 407.36,-33.44 419.53,-27.86 430.32,-23.13"/>
<polygon fill="#63b8ff" stroke="#63b8ff" points="431.97,-26.23 439.77,-19.05 429.2,-19.8 431.97,-26.23"/>
</a>
</g>
<g id="a_edge7&#45;headlabel"><a xlink:href="dir_000003_000151.html" target="_top" xlink:title="1">
<text text-anchor="middle" x="429.8" y="-27.76" font-family="Helvetica,sans-Serif" font-size="10.00" fill="#63b8ff">1</text>
</a>
</g>
</g>
<!-- dir_e08616e7bc69b475f2054aae703d02ec -->
<g id="node10" class="node">
<title>dir_e08616e7bc69b475f2054aae703d02ec</title>
<g id="a_node10"><a xlink:href="dir_e08616e7bc69b475f2054aae703d02ec.html" target="_top" xlink:title="optimizer">
<polygon fill="#edf0f7" stroke="red" stroke-dasharray="5,2" points="572,-19 509,-19 509,0 572,0 572,-19"/>
<text text-anchor="middle" x="540.5" y="-7" font-family="Helvetica,sans-Serif" font-size="10.00">optimizer</text>
</a>
</g>
</g>
<!-- dir_13fcd38e0d88153f1528dab6218b4c70&#45;&gt;dir_e08616e7bc69b475f2054aae703d02ec -->
<g id="edge8" class="edge">
<title>dir_13fcd38e0d88153f1528dab6218b4c70&#45;&gt;dir_e08616e7bc69b475f2054aae703d02ec</title>
<g id="a_edge8"><a xlink:href="dir_000003_000136.html" target="_top">
<path fill="none" stroke="#63b8ff" d="M366.81,-54.82C374.9,-49.5 385.91,-42.97 396.5,-39 437.73,-23.53 452.46,-27.67 498.63,-19.26"/>
<polygon fill="#63b8ff" stroke="#63b8ff" points="499.48,-22.66 508.63,-17.33 498.15,-15.78 499.48,-22.66"/>
</a>
</g>
<g id="a_edge8&#45;headlabel"><a xlink:href="dir_000003_000136.html" target="_top" xlink:title="1">
<text text-anchor="middle" x="496.49" y="-23.63" font-family="Helvetica,sans-Serif" font-size="10.00" fill="#63b8ff">1</text>
</a>
</g>
</g>
<!-- dir_f23eacd29ab2b1e321b6736265057033 -->
<g id="node11" class="node">
<title>dir_f23eacd29ab2b1e321b6736265057033</title>
<g id="a_node11"><a xlink:href="dir_f23eacd29ab2b1e321b6736265057033.html" target="_top" xlink:title="metric">
<polygon fill="#edf0f7" stroke="red" stroke-dasharray="5,2" points="638.5,-19 590.5,-19 590.5,0 638.5,0 638.5,-19"/>
<text text-anchor="middle" x="614.5" y="-7" font-family="Helvetica,sans-Serif" font-size="10.00">metric</text>
</a>
</g>
</g>
<!-- dir_13fcd38e0d88153f1528dab6218b4c70&#45;&gt;dir_f23eacd29ab2b1e321b6736265057033 -->
<g id="edge9" class="edge">
<title>dir_13fcd38e0d88153f1528dab6218b4c70&#45;&gt;dir_f23eacd29ab2b1e321b6736265057033</title>
<g id="a_edge9"><a xlink:href="dir_000003_000118.html" target="_top">
<path fill="none" stroke="#63b8ff" d="M366.35,-54.76C374.42,-49.28 385.59,-42.59 396.5,-39 472.07,-14.14 498.15,-32.29 580.4,-18.87"/>
<polygon fill="#63b8ff" stroke="#63b8ff" points="581.19,-22.29 590.44,-17.13 579.99,-15.39 581.19,-22.29"/>
</a>
</g>
<g id="a_edge9&#45;headlabel"><a xlink:href="dir_000003_000118.html" target="_top" xlink:title="1">
<text text-anchor="middle" x="578.13" y="-23.2" font-family="Helvetica,sans-Serif" font-size="10.00" fill="#63b8ff">1</text>
</a>
</g>
</g>
<!-- dir_fb91096735c52f3a453d1a3e67025085 -->
<g id="node12" class="node">
<title>dir_fb91096735c52f3a453d1a3e67025085</title>
<g id="a_node12"><a xlink:href="dir_fb91096735c52f3a453d1a3e67025085.html" target="_top" xlink:title="event">
<polygon fill="#edf0f7" stroke="red" stroke-dasharray="5,2" points="700.5,-19 656.5,-19 656.5,0 700.5,0 700.5,-19"/>
<text text-anchor="middle" x="678.5" y="-7" font-family="Helvetica,sans-Serif" font-size="10.00">event</text>
</a>
</g>
</g>
<!-- dir_13fcd38e0d88153f1528dab6218b4c70&#45;&gt;dir_fb91096735c52f3a453d1a3e67025085 -->
<g id="edge10" class="edge">
<title>dir_13fcd38e0d88153f1528dab6218b4c70&#45;&gt;dir_fb91096735c52f3a453d1a3e67025085</title>
<g id="a_edge10"><a xlink:href="dir_000003_000052.html" target="_top">
<path fill="none" stroke="#63b8ff" d="M365.96,-54.9C374.05,-49.33 385.38,-42.48 396.5,-39 500.26,-6.47 535.29,-36.52 646.35,-18.81"/>
<polygon fill="#63b8ff" stroke="#63b8ff" points="646.99,-22.25 656.26,-17.14 645.82,-15.35 646.99,-22.25"/>
</a>
</g>
<g id="a_edge10&#45;headlabel"><a xlink:href="dir_000003_000052.html" target="_top" xlink:title="1">
<text text-anchor="middle" x="643.91" y="-23.15" font-family="Helvetica,sans-Serif" font-size="10.00" fill="#63b8ff">1</text>
</a>
</g>
</g>
</g>
</svg>
