<?xml version="1.0" encoding="UTF-8" standalone="no"?>
<!DOCTYPE svg PUBLIC "-//W3C//DTD SVG 1.1//EN"
 "http://www.w3.org/Graphics/SVG/1.1/DTD/svg11.dtd">
<!-- Generated by graphviz version 2.43.0 (0)
 -->
<!-- Title: mc16 Pages: 1 -->
<!--zoomable 125 -->

<svg id="main" version="1.1" xmlns="http://www.w3.org/2000/svg" xmlns:xlink="http://www.w3.org/1999/xlink" xml:space="preserve" onload="init(evt)">
<style type="text/css"><![CDATA[
.node, .edge {opacity: 0.7;}
.node.selected, .edge.selected {opacity: 1;}
.edge:hover path { stroke: red; }
.edge:hover polygon { stroke: red; fill: red; }
]]></style>

<defs>
  <circle id="rim" cx="0" cy="0" r="7"/>
  <circle id="rim2" cx="0" cy="0" r="3.5"/>
  <g id="zoomPlus">
    <use xlink:href="#rim" fill="#404040"><set attributeName="fill" to="#808080" begin="zoomplus.mouseover" end="zoomplus.mouseout"/></use>
    <path d="M-4,0h8M0,-4v8" fill="none" stroke="white" stroke-width="1.5" pointer-events="none"/>
  </g>
  <g id="zoomMin">
    <use xlink:href="#rim" fill="#404040"><set attributeName="fill" to="#808080" begin="zoomminus.mouseover" end="zoomminus.mouseout"/></use>
    <path d="M-4,0h8" fill="none" stroke="white" stroke-width="1.5" pointer-events="none"/>
  </g>
  <g id="arrowUp" transform="translate(30 24)">
    <use xlink:href="#rim"/>
    <path pointer-events="none" fill="none" stroke="white" stroke-width="1.5" d="M0,-3.0v7 M-2.5,-0.5L0,-3.0L2.5,-0.5"/>
  </g>
  <g id="arrowRight" transform="rotate(90) translate(36 -43)">
    <use xlink:href="#rim"/>
    <path pointer-events="none" fill="none" stroke="white" stroke-width="1.5" d="M0,-3.0v7 M-2.5,-0.5L0,-3.0L2.5,-0.5"/>
  </g>
  <g id="arrowDown" transform="rotate(180) translate(-30 -48)">
    <use xlink:href="#rim"/>
    <path pointer-events="none" fill="none" stroke="white" stroke-width="1.5" d="M0,-3.0v7 M-2.5,-0.5L0,-3.0L2.5,-0.5"/>
  </g>
  <g id="arrowLeft" transform="rotate(270) translate(-36 17)">
    <use xlink:href="#rim"/>
    <path pointer-events="none" fill="none" stroke="white" stroke-width="1.5" d="M0,-3.0v7 M-2.5,-0.5L0,-3.0L2.5,-0.5"/>
  </g>
  <g id="resetDef">
    <use xlink:href="#rim2" fill="#404040"><set attributeName="fill" to="#808080" begin="reset.mouseover" end="reset.mouseout"/></use>
  </g>
</defs>
<script type="application/ecmascript">
var viewWidth = 881;
var viewHeight = 125;
var sectionId = 'dynsection-0';
</script>
<script type="application/ecmascript" xlink:href="svg.min.js"/>
<svg id="graph" class="graph">
<g id="viewport">
<title>mc16</title>
<g id="clust1" class="cluster">
<title>clusterdir_c11f412861641db89942a5b56163180e</title>
<g id="a_clust1"><a xlink:href="dir_c11f412861641db89942a5b56163180e.html" target="_top" xlink:title="selections">
<polygon fill="#edf0f7" stroke="#404040" stroke-dasharray="5,2" points="8,-39 8,-109 865,-109 865,-39 8,-39"/>
<text text-anchor="middle" x="436.5" y="-97" font-family="Helvetica,sans-Serif" font-size="10.00">selections</text>
</a>
</g>
</g>
<g id="clust2" class="cluster">
<title>clusterdir_bc82bf3ca7c5362cfdb8685ad0dbd6e8</title>
<g id="a_clust2"><a xlink:href="dir_bc82bf3ca7c5362cfdb8685ad0dbd6e8.html" target="_top">
<polygon fill="#edf0f7" stroke="#404040" stroke-width="2" points="16,-47 16,-82 857,-82 857,-47 16,-47"/>
</a>
</g>
</g>
<!-- dir_bc82bf3ca7c5362cfdb8685ad0dbd6e8 -->
<g id="node1" class="node">
<title>dir_bc82bf3ca7c5362cfdb8685ad0dbd6e8</title>
<text text-anchor="middle" x="827" y="-62" font-family="Helvetica,sans-Serif" font-size="10.00">mc16</text>
</g>
<!-- dir_703aba85e66e9dd1d4fa0d9a68f179bd -->
<g id="node2" class="node">
<title>dir_703aba85e66e9dd1d4fa0d9a68f179bd</title>
<g id="a_node2"><a xlink:href="dir_703aba85e66e9dd1d4fa0d9a68f179bd.html" target="_top" xlink:title="childrenkinematics">
<polygon fill="#a2b4d6" stroke="#404040" points="134,-74 24,-74 24,-55 134,-55 134,-74"/>
<text text-anchor="middle" x="79" y="-62" font-family="Helvetica,sans-Serif" font-size="10.00">childrenkinematics</text>
</a>
</g>
</g>
<!-- dir_8c49963344259a26845032e86c0550c4 -->
<g id="node11" class="node">
<title>dir_8c49963344259a26845032e86c0550c4</title>
<g id="a_node11"><a xlink:href="dir_8c49963344259a26845032e86c0550c4.html" target="_top" xlink:title="events">
<polygon fill="#edf0f7" stroke="red" points="439,-19 389,-19 389,0 439,0 439,-19"/>
<text text-anchor="middle" x="414" y="-7" font-family="Helvetica,sans-Serif" font-size="10.00">events</text>
</a>
</g>
</g>
<!-- dir_703aba85e66e9dd1d4fa0d9a68f179bd&#45;&gt;dir_8c49963344259a26845032e86c0550c4 -->
<g id="edge1" class="edge">
<title>dir_703aba85e66e9dd1d4fa0d9a68f179bd&#45;&gt;dir_8c49963344259a26845032e86c0550c4</title>
<g id="a_edge1"><a xlink:href="dir_000008_000054.html" target="_top">
<path fill="none" stroke="#63b8ff" d="M97.63,-54.88C110.19,-49.45 127.26,-42.77 143,-39 226.07,-19.09 326.77,-13.09 378.91,-11.28"/>
<polygon fill="#63b8ff" stroke="#63b8ff" points="379.09,-14.78 388.97,-10.96 378.87,-7.78 379.09,-14.78"/>
</a>
</g>
<g id="a_edge1&#45;headlabel"><a xlink:href="dir_000008_000054.html" target="_top" xlink:title="1">
<text text-anchor="middle" x="375.59" y="-15.23" font-family="Helvetica,sans-Serif" font-size="10.00" fill="#63b8ff">1</text>
</a>
</g>
</g>
<!-- dir_ee3c23494b4011e6a628e4900ef262df -->
<g id="node12" class="node">
<title>dir_ee3c23494b4011e6a628e4900ef262df</title>
<g id="a_node12"><a xlink:href="dir_ee3c23494b4011e6a628e4900ef262df.html" target="_top" xlink:title="modules">
<polygon fill="#edf0f7" stroke="red" points="516.5,-19 457.5,-19 457.5,0 516.5,0 516.5,-19"/>
<text text-anchor="middle" x="487" y="-7" font-family="Helvetica,sans-Serif" font-size="10.00">modules</text>
</a>
</g>
</g>
<!-- dir_703aba85e66e9dd1d4fa0d9a68f179bd&#45;&gt;dir_ee3c23494b4011e6a628e4900ef262df -->
<g id="edge2" class="edge">
<title>dir_703aba85e66e9dd1d4fa0d9a68f179bd&#45;&gt;dir_ee3c23494b4011e6a628e4900ef262df</title>
<g id="a_edge2"><a xlink:href="dir_000008_000128.html" target="_top">
<path fill="none" stroke="#63b8ff" d="M97.03,-54.92C109.62,-49.36 126.96,-42.51 143,-39 272.59,-10.63 311.66,-36.68 447.33,-18.82"/>
<polygon fill="#63b8ff" stroke="#63b8ff" points="447.84,-22.28 457.27,-17.46 446.89,-15.35 447.84,-22.28"/>
</a>
</g>
<g id="a_edge2&#45;headlabel"><a xlink:href="dir_000008_000128.html" target="_top" xlink:title="1">
<text text-anchor="middle" x="444.66" y="-23.09" font-family="Helvetica,sans-Serif" font-size="10.00" fill="#63b8ff">1</text>
</a>
</g>
</g>
<!-- dir_a9396c7da646f9875999db635f3cca1a -->
<g id="node3" class="node">
<title>dir_a9396c7da646f9875999db635f3cca1a</title>
<g id="a_node3"><a xlink:href="dir_a9396c7da646f9875999db635f3cca1a.html" target="_top" xlink:title="decaymodes">
<polygon fill="#a2b4d6" stroke="#404040" points="787.5,-74 708.5,-74 708.5,-55 787.5,-55 787.5,-74"/>
<text text-anchor="middle" x="748" y="-62" font-family="Helvetica,sans-Serif" font-size="10.00">decaymodes</text>
</a>
</g>
</g>
<!-- dir_a9396c7da646f9875999db635f3cca1a&#45;&gt;dir_8c49963344259a26845032e86c0550c4 -->
<g id="edge3" class="edge">
<title>dir_a9396c7da646f9875999db635f3cca1a&#45;&gt;dir_8c49963344259a26845032e86c0550c4</title>
<g id="a_edge3"><a xlink:href="dir_000049_000054.html" target="_top">
<path fill="none" stroke="#63b8ff" d="M734.42,-54.93C724.89,-49.37 711.64,-42.52 699,-39 591.62,-9.08 559.06,-36.65 449,-19 448.9,-18.98 448.8,-18.97 448.7,-18.95"/>
<polygon fill="#63b8ff" stroke="#63b8ff" points="449.62,-15.56 439.14,-17.11 448.3,-22.44 449.62,-15.56"/>
</a>
</g>
<g id="a_edge3&#45;headlabel"><a xlink:href="dir_000049_000054.html" target="_top" xlink:title="1">
<text text-anchor="middle" x="453.69" y="-10.96" font-family="Helvetica,sans-Serif" font-size="10.00" fill="#63b8ff">1</text>
</a>
</g>
</g>
<!-- dir_a9396c7da646f9875999db635f3cca1a&#45;&gt;dir_ee3c23494b4011e6a628e4900ef262df -->
<g id="edge4" class="edge">
<title>dir_a9396c7da646f9875999db635f3cca1a&#45;&gt;dir_ee3c23494b4011e6a628e4900ef262df</title>
<g id="a_edge4"><a xlink:href="dir_000049_000128.html" target="_top">
<path fill="none" stroke="#63b8ff" d="M733.94,-54.91C724.42,-49.48 711.36,-42.81 699,-39 640.8,-21.08 570.18,-14.43 526.92,-11.95"/>
<polygon fill="#63b8ff" stroke="#63b8ff" points="526.97,-8.45 516.81,-11.43 526.61,-15.44 526.97,-8.45"/>
</a>
</g>
<g id="a_edge4&#45;headlabel"><a xlink:href="dir_000049_000128.html" target="_top" xlink:title="1">
<text text-anchor="middle" x="530.71" y="-3.31" font-family="Helvetica,sans-Serif" font-size="10.00" fill="#63b8ff">1</text>
</a>
</g>
</g>
<!-- dir_2e9d20a53d33e238a569447abc5fa473 -->
<g id="node4" class="node">
<title>dir_2e9d20a53d33e238a569447abc5fa473</title>
<g id="a_node4"><a xlink:href="dir_2e9d20a53d33e238a569447abc5fa473.html" target="_top" xlink:title="event">
<polygon fill="#a2b4d6" stroke="#404040" points="690,-74 646,-74 646,-55 690,-55 690,-74"/>
<text text-anchor="middle" x="668" y="-62" font-family="Helvetica,sans-Serif" font-size="10.00">event</text>
</a>
</g>
</g>
<!-- dir_2e9d20a53d33e238a569447abc5fa473&#45;&gt;dir_8c49963344259a26845032e86c0550c4 -->
<g id="edge5" class="edge">
<title>dir_2e9d20a53d33e238a569447abc5fa473&#45;&gt;dir_8c49963344259a26845032e86c0550c4</title>
<g id="a_edge5"><a xlink:href="dir_000053_000054.html" target="_top">
<path fill="none" stroke="#63b8ff" d="M659.9,-54.96C654.09,-49.42 645.77,-42.58 637,-39 559.2,-7.26 531.79,-33.39 449,-19 448.9,-18.98 448.8,-18.97 448.7,-18.95"/>
<polygon fill="#63b8ff" stroke="#63b8ff" points="449.65,-15.57 439.15,-17.03 448.27,-22.43 449.65,-15.57"/>
</a>
</g>
<g id="a_edge5&#45;headlabel"><a xlink:href="dir_000053_000054.html" target="_top" xlink:title="1">
<text text-anchor="middle" x="453.73" y="-10.99" font-family="Helvetica,sans-Serif" font-size="10.00" fill="#63b8ff">1</text>
</a>
</g>
</g>
<!-- dir_2e9d20a53d33e238a569447abc5fa473&#45;&gt;dir_ee3c23494b4011e6a628e4900ef262df -->
<g id="edge6" class="edge">
<title>dir_2e9d20a53d33e238a569447abc5fa473&#45;&gt;dir_ee3c23494b4011e6a628e4900ef262df</title>
<g id="a_edge6"><a xlink:href="dir_000053_000128.html" target="_top">
<path fill="none" stroke="#63b8ff" d="M659.55,-54.95C653.71,-49.55 645.49,-42.87 637,-39 601.8,-22.93 557.96,-15.92 526.79,-12.86"/>
<polygon fill="#63b8ff" stroke="#63b8ff" points="527,-9.37 516.73,-11.97 526.38,-16.34 527,-9.37"/>
</a>
</g>
<g id="a_edge6&#45;headlabel"><a xlink:href="dir_000053_000128.html" target="_top" xlink:title="1">
<text text-anchor="middle" x="530.83" y="-4.36" font-family="Helvetica,sans-Serif" font-size="10.00" fill="#63b8ff">1</text>
</a>
</g>
</g>
<!-- dir_4a043fcd21db257cf30fa0f423feb155 -->
<g id="node5" class="node">
<title>dir_4a043fcd21db257cf30fa0f423feb155</title>
<g id="a_node5"><a xlink:href="dir_4a043fcd21db257cf30fa0f423feb155.html" target="_top" xlink:title="parton">
<polygon fill="#a2b4d6" stroke="#404040" points="628,-74 580,-74 580,-55 628,-55 628,-74"/>
<text text-anchor="middle" x="604" y="-62" font-family="Helvetica,sans-Serif" font-size="10.00">parton</text>
</a>
</g>
</g>
<!-- dir_4a043fcd21db257cf30fa0f423feb155&#45;&gt;dir_8c49963344259a26845032e86c0550c4 -->
<g id="edge7" class="edge">
<title>dir_4a043fcd21db257cf30fa0f423feb155&#45;&gt;dir_8c49963344259a26845032e86c0550c4</title>
<g id="a_edge7"><a xlink:href="dir_000140_000054.html" target="_top">
<path fill="none" stroke="#63b8ff" d="M594.94,-54.89C588.69,-49.46 579.94,-42.78 571,-39 520.4,-17.57 502.85,-29.94 449,-19 448.9,-18.98 448.8,-18.96 448.7,-18.94"/>
<polygon fill="#63b8ff" stroke="#63b8ff" points="449.7,-15.58 439.18,-16.86 448.21,-22.41 449.7,-15.58"/>
</a>
</g>
<g id="a_edge7&#45;headlabel"><a xlink:href="dir_000140_000054.html" target="_top" xlink:title="1">
<text text-anchor="middle" x="453.82" y="-11.07" font-family="Helvetica,sans-Serif" font-size="10.00" fill="#63b8ff">1</text>
</a>
</g>
</g>
<!-- dir_4a043fcd21db257cf30fa0f423feb155&#45;&gt;dir_ee3c23494b4011e6a628e4900ef262df -->
<g id="edge8" class="edge">
<title>dir_4a043fcd21db257cf30fa0f423feb155&#45;&gt;dir_ee3c23494b4011e6a628e4900ef262df</title>
<g id="a_edge8"><a xlink:href="dir_000140_000128.html" target="_top">
<path fill="none" stroke="#63b8ff" d="M594.14,-54.9C587.85,-49.75 579.34,-43.37 571,-39 557.04,-31.68 540.81,-25.66 526.36,-21.06"/>
<polygon fill="#63b8ff" stroke="#63b8ff" points="527.28,-17.68 516.69,-18.11 525.23,-24.38 527.28,-17.68"/>
</a>
</g>
<g id="a_edge8&#45;headlabel"><a xlink:href="dir_000140_000128.html" target="_top" xlink:title="1">
<text text-anchor="middle" x="531.54" y="-13.52" font-family="Helvetica,sans-Serif" font-size="10.00" fill="#63b8ff">1</text>
</a>
</g>
</g>
<!-- dir_9fcb0f35887a888e860a29fb002828f9 -->
<g id="node6" class="node">
<title>dir_9fcb0f35887a888e860a29fb002828f9</title>
<g id="a_node6"><a xlink:href="dir_9fcb0f35887a888e860a29fb002828f9.html" target="_top" xlink:title="topjets">
<polygon fill="#a2b4d6" stroke="#404040" points="562,-74 512,-74 512,-55 562,-55 562,-74"/>
<text text-anchor="middle" x="537" y="-62" font-family="Helvetica,sans-Serif" font-size="10.00">topjets</text>
</a>
</g>
</g>
<!-- dir_9fcb0f35887a888e860a29fb002828f9&#45;&gt;dir_8c49963344259a26845032e86c0550c4 -->
<g id="edge9" class="edge">
<title>dir_9fcb0f35887a888e860a29fb002828f9&#45;&gt;dir_8c49963344259a26845032e86c0550c4</title>
<g id="a_edge9"><a xlink:href="dir_000171_000054.html" target="_top">
<path fill="none" stroke="#63b8ff" d="M526.83,-54.87C520.35,-49.7 511.57,-43.33 503,-39 493.35,-34.13 469.65,-26.62 449.13,-20.52"/>
<polygon fill="#63b8ff" stroke="#63b8ff" points="449.97,-17.12 439.39,-17.66 448,-23.84 449.97,-17.12"/>
</a>
</g>
<g id="a_edge9&#45;headlabel"><a xlink:href="dir_000171_000054.html" target="_top" xlink:title="1">
<text text-anchor="middle" x="454.22" y="-12.91" font-family="Helvetica,sans-Serif" font-size="10.00" fill="#63b8ff">1</text>
</a>
</g>
</g>
<!-- dir_9fcb0f35887a888e860a29fb002828f9&#45;&gt;dir_ee3c23494b4011e6a628e4900ef262df -->
<g id="edge10" class="edge">
<title>dir_9fcb0f35887a888e860a29fb002828f9&#45;&gt;dir_ee3c23494b4011e6a628e4900ef262df</title>
<g id="a_edge10"><a xlink:href="dir_000171_000128.html" target="_top">
<path fill="none" stroke="#63b8ff" d="M528.74,-54.75C521.54,-47.11 510.89,-35.82 502.15,-26.56"/>
<polygon fill="#63b8ff" stroke="#63b8ff" points="504.51,-23.96 495.1,-19.09 499.42,-28.76 504.51,-23.96"/>
</a>
</g>
<g id="a_edge10&#45;headlabel"><a xlink:href="dir_000171_000128.html" target="_top" xlink:title="1">
<text text-anchor="middle" x="509.04" y="-22.13" font-family="Helvetica,sans-Serif" font-size="10.00" fill="#63b8ff">1</text>
</a>
</g>
</g>
<!-- dir_9514af935db44795a8af2c38ee8e1d16 -->
<g id="node7" class="node">
<title>dir_9514af935db44795a8af2c38ee8e1d16</title>
<g id="a_node7"><a xlink:href="dir_9514af935db44795a8af2c38ee8e1d16.html" target="_top" xlink:title="topkinematics">
<polygon fill="#a2b4d6" stroke="#404040" points="494,-74 408,-74 408,-55 494,-55 494,-74"/>
<text text-anchor="middle" x="451" y="-62" font-family="Helvetica,sans-Serif" font-size="10.00">topkinematics</text>
</a>
</g>
</g>
<!-- dir_9514af935db44795a8af2c38ee8e1d16&#45;&gt;dir_8c49963344259a26845032e86c0550c4 -->
<g id="edge11" class="edge">
<title>dir_9514af935db44795a8af2c38ee8e1d16&#45;&gt;dir_8c49963344259a26845032e86c0550c4</title>
<g id="a_edge11"><a xlink:href="dir_000172_000054.html" target="_top">
<path fill="none" stroke="#63b8ff" d="M444.89,-54.75C439.72,-47.34 432.15,-36.5 425.81,-27.41"/>
<polygon fill="#63b8ff" stroke="#63b8ff" points="428.59,-25.29 420,-19.09 422.85,-29.29 428.59,-25.29"/>
</a>
</g>
<g id="a_edge11&#45;headlabel"><a xlink:href="dir_000172_000054.html" target="_top" xlink:title="1">
<text text-anchor="middle" x="432.98" y="-24.11" font-family="Helvetica,sans-Serif" font-size="10.00" fill="#63b8ff">1</text>
</a>
</g>
</g>
<!-- dir_9514af935db44795a8af2c38ee8e1d16&#45;&gt;dir_ee3c23494b4011e6a628e4900ef262df -->
<g id="edge12" class="edge">
<title>dir_9514af935db44795a8af2c38ee8e1d16&#45;&gt;dir_ee3c23494b4011e6a628e4900ef262df</title>
<g id="a_edge12"><a xlink:href="dir_000172_000128.html" target="_top">
<path fill="none" stroke="#63b8ff" d="M456.94,-54.75C461.98,-47.34 469.34,-36.5 475.51,-27.41"/>
<polygon fill="#63b8ff" stroke="#63b8ff" points="478.44,-29.33 481.17,-19.09 472.65,-25.39 478.44,-29.33"/>
</a>
</g>
<g id="a_edge12&#45;headlabel"><a xlink:href="dir_000172_000128.html" target="_top" xlink:title="1">
<text text-anchor="middle" x="478.77" y="-31.4" font-family="Helvetica,sans-Serif" font-size="10.00" fill="#63b8ff">1</text>
</a>
</g>
</g>
<!-- dir_6ca00c4197a8cc317cb20091c3b5a024 -->
<g id="node8" class="node">
<title>dir_6ca00c4197a8cc317cb20091c3b5a024</title>
<g id="a_node8"><a xlink:href="dir_6ca00c4197a8cc317cb20091c3b5a024.html" target="_top" xlink:title="topmatching">
<polygon fill="#a2b4d6" stroke="#404040" points="390,-74 312,-74 312,-55 390,-55 390,-74"/>
<text text-anchor="middle" x="351" y="-62" font-family="Helvetica,sans-Serif" font-size="10.00">topmatching</text>
</a>
</g>
</g>
<!-- dir_6ca00c4197a8cc317cb20091c3b5a024&#45;&gt;dir_8c49963344259a26845032e86c0550c4 -->
<g id="edge13" class="edge">
<title>dir_6ca00c4197a8cc317cb20091c3b5a024&#45;&gt;dir_8c49963344259a26845032e86c0550c4</title>
<g id="a_edge13"><a xlink:href="dir_000174_000054.html" target="_top">
<path fill="none" stroke="#63b8ff" d="M361.12,-54.98C370.44,-47.15 384.47,-35.34 395.74,-25.86"/>
<polygon fill="#63b8ff" stroke="#63b8ff" points="398.29,-28.29 403.69,-19.17 393.79,-22.93 398.29,-28.29"/>
</a>
</g>
<g id="a_edge13&#45;headlabel"><a xlink:href="dir_000174_000054.html" target="_top" xlink:title="1">
<text text-anchor="middle" x="397.37" y="-30.27" font-family="Helvetica,sans-Serif" font-size="10.00" fill="#63b8ff">1</text>
</a>
</g>
</g>
<!-- dir_6ca00c4197a8cc317cb20091c3b5a024&#45;&gt;dir_ee3c23494b4011e6a628e4900ef262df -->
<g id="edge14" class="edge">
<title>dir_6ca00c4197a8cc317cb20091c3b5a024&#45;&gt;dir_ee3c23494b4011e6a628e4900ef262df</title>
<g id="a_edge14"><a xlink:href="dir_000174_000128.html" target="_top">
<path fill="none" stroke="#63b8ff" d="M366.27,-54.92C375.56,-49.9 387.76,-43.65 399,-39 414.58,-32.55 432.18,-26.6 447.53,-21.82"/>
<polygon fill="#63b8ff" stroke="#63b8ff" points="448.7,-25.12 457.24,-18.85 446.66,-18.42 448.7,-25.12"/>
</a>
</g>
<g id="a_edge14&#45;headlabel"><a xlink:href="dir_000174_000128.html" target="_top" xlink:title="1">
<text text-anchor="middle" x="446.09" y="-26.38" font-family="Helvetica,sans-Serif" font-size="10.00" fill="#63b8ff">1</text>
</a>
</g>
</g>
<!-- dir_d9e286823e47caaa17521f70d2069f49 -->
<g id="node9" class="node">
<title>dir_d9e286823e47caaa17521f70d2069f49</title>
<g id="a_node9"><a xlink:href="dir_d9e286823e47caaa17521f70d2069f49.html" target="_top" xlink:title="toptruthjets">
<polygon fill="#a2b4d6" stroke="#404040" points="294,-74 220,-74 220,-55 294,-55 294,-74"/>
<text text-anchor="middle" x="257" y="-62" font-family="Helvetica,sans-Serif" font-size="10.00">toptruthjets</text>
</a>
</g>
</g>
<!-- dir_d9e286823e47caaa17521f70d2069f49&#45;&gt;dir_8c49963344259a26845032e86c0550c4 -->
<g id="edge15" class="edge">
<title>dir_d9e286823e47caaa17521f70d2069f49&#45;&gt;dir_8c49963344259a26845032e86c0550c4</title>
<g id="a_edge15"><a xlink:href="dir_000176_000054.html" target="_top">
<path fill="none" stroke="#63b8ff" d="M271.09,-54.87C279.98,-49.7 291.87,-43.32 303,-39 327.66,-29.43 356.64,-22.11 378.81,-17.29"/>
<polygon fill="#63b8ff" stroke="#63b8ff" points="379.72,-20.67 388.78,-15.19 378.27,-13.82 379.72,-20.67"/>
</a>
</g>
<g id="a_edge15&#45;headlabel"><a xlink:href="dir_000176_000054.html" target="_top" xlink:title="1">
<text text-anchor="middle" x="376.79" y="-21.69" font-family="Helvetica,sans-Serif" font-size="10.00" fill="#63b8ff">1</text>
</a>
</g>
</g>
<!-- dir_d9e286823e47caaa17521f70d2069f49&#45;&gt;dir_ee3c23494b4011e6a628e4900ef262df -->
<g id="edge16" class="edge">
<title>dir_d9e286823e47caaa17521f70d2069f49&#45;&gt;dir_ee3c23494b4011e6a628e4900ef262df</title>
<g id="a_edge16"><a xlink:href="dir_000176_000128.html" target="_top">
<path fill="none" stroke="#63b8ff" d="M270.13,-54.9C279.04,-49.47 291.29,-42.79 303,-39 361.99,-19.89 382.07,-29.38 447.28,-18.93"/>
<polygon fill="#63b8ff" stroke="#63b8ff" points="447.96,-22.36 457.24,-17.24 446.79,-15.46 447.96,-22.36"/>
</a>
</g>
<g id="a_edge16&#45;headlabel"><a xlink:href="dir_000176_000128.html" target="_top" xlink:title="1">
<text text-anchor="middle" x="444.9" y="-23.26" font-family="Helvetica,sans-Serif" font-size="10.00" fill="#63b8ff">1</text>
</a>
</g>
</g>
<!-- dir_f0a07fac305659b23b9980e6dd7026f7 -->
<g id="node10" class="node">
<title>dir_f0a07fac305659b23b9980e6dd7026f7</title>
<g id="a_node10"><a xlink:href="dir_f0a07fac305659b23b9980e6dd7026f7.html" target="_top" xlink:title="zprime">
<polygon fill="#a2b4d6" stroke="#404040" points="202,-74 152,-74 152,-55 202,-55 202,-74"/>
<text text-anchor="middle" x="177" y="-62" font-family="Helvetica,sans-Serif" font-size="10.00">zprime</text>
</a>
</g>
</g>
<!-- dir_f0a07fac305659b23b9980e6dd7026f7&#45;&gt;dir_8c49963344259a26845032e86c0550c4 -->
<g id="edge17" class="edge">
<title>dir_f0a07fac305659b23b9980e6dd7026f7&#45;&gt;dir_8c49963344259a26845032e86c0550c4</title>
<g id="a_edge17"><a xlink:href="dir_000184_000054.html" target="_top">
<path fill="none" stroke="#63b8ff" d="M186.36,-54.83C192.8,-49.37 201.82,-42.69 211,-39 266.75,-16.61 337.24,-11.35 378.79,-10.37"/>
<polygon fill="#63b8ff" stroke="#63b8ff" points="379.02,-13.87 388.96,-10.21 378.9,-6.87 379.02,-13.87"/>
</a>
</g>
<g id="a_edge17&#45;headlabel"><a xlink:href="dir_000184_000054.html" target="_top" xlink:title="1">
<text text-anchor="middle" x="375.47" y="-14.27" font-family="Helvetica,sans-Serif" font-size="10.00" fill="#63b8ff">1</text>
</a>
</g>
</g>
<!-- dir_f0a07fac305659b23b9980e6dd7026f7&#45;&gt;dir_ee3c23494b4011e6a628e4900ef262df -->
<g id="edge18" class="edge">
<title>dir_f0a07fac305659b23b9980e6dd7026f7&#45;&gt;dir_ee3c23494b4011e6a628e4900ef262df</title>
<g id="a_edge18"><a xlink:href="dir_000184_000128.html" target="_top">
<path fill="none" stroke="#63b8ff" d="M186.01,-54.9C192.44,-49.33 201.58,-42.48 211,-39 307.14,-3.44 341.39,-32.83 447.15,-18.84"/>
<polygon fill="#63b8ff" stroke="#63b8ff" points="447.86,-22.27 457.26,-17.4 446.87,-15.34 447.86,-22.27"/>
</a>
</g>
<g id="a_edge18&#45;headlabel"><a xlink:href="dir_000184_000128.html" target="_top" xlink:title="1">
<text text-anchor="middle" x="444.7" y="-23.09" font-family="Helvetica,sans-Serif" font-size="10.00" fill="#63b8ff">1</text>
</a>
</g>
</g>
</g>
</svg>

<g id="navigator" transform="translate(0 0)" fill="#404254">
  <rect fill="#f2f5e9" fill-opacity="0.5" stroke="#606060" stroke-width=".5" x="0" y="0" width="60" height="60"/>
  <use id="zoomplus" xlink:href="#zoomPlus" x="17" y="9" onmousedown="handleZoom(evt,'in')"/>
  <use id="zoomminus" xlink:href="#zoomMin" x="42" y="9" onmousedown="handleZoom(evt,'out')"/>
  <use id="reset" xlink:href="#resetDef" x="30" y="36" onmousedown="handleReset()"/>
   <use id="arrowup" xlink:href="#arrowUp" x="0" y="0" onmousedown="handlePan(0,-1)"/>
  <use id="arrowright" xlink:href="#arrowRight" x="0" y="0" onmousedown="handlePan(1,0)"/>
  <use id="arrowdown" xlink:href="#arrowDown" x="0" y="0" onmousedown="handlePan(0,1)"/>
  <use id="arrowleft" xlink:href="#arrowLeft" x="0" y="0" onmousedown="handlePan(-1,0)"/>
</g>
<svg viewBox="0 0 15 15" width="100%" height="30px" preserveAspectRatio="xMaxYMin meet">
 <g id="arrow_out" transform="scale(0.3 0.3)">
  <a xlink:href="dir_bc82bf3ca7c5362cfdb8685ad0dbd6e8_dep_org.svg" target="_base">
   <rect id="button" ry="5" rx="5" y="6" x="6" height="38" width="38"
        fill="#f2f5e9" fill-opacity="0.5" stroke="#606060" stroke-width="1.0"/>
   <path id="arrow"
     d="M 11.500037,31.436501 C 11.940474,20.09759 22.043105,11.32322 32.158766,21.979434 L 37.068811,17.246167 C 37.068811,17.246167 37.088388,32 37.088388,32 L 22.160133,31.978069 C 22.160133,31.978069 26.997745,27.140456 26.997745,27.140456 C 18.528582,18.264221 13.291696,25.230495 11.500037,31.436501 z"
     style="fill:#404040;"/>
  </a>
 </g>
</svg>

<style type='text/css'>
<![CDATA[
[data-mouse-over-selected='false'] { opacity: 0.7; }
[data-mouse-over-selected='true']  { opacity: 1.0; }
]]>
</style>
<script type="application/ecmascript"><![CDATA[
document.addEventListener('DOMContentLoaded', (event) => {
  highlightEdges();
  highlightAdjacentNodes();
});
]]></script>
</svg>
