<?xml version="1.0" encoding="UTF-8" standalone="no"?>
<!DOCTYPE svg PUBLIC "-//W3C//DTD SVG 1.1//EN"
 "http://www.w3.org/Graphics/SVG/1.1/DTD/svg11.dtd">
<!-- Generated by graphviz version 2.43.0 (0)
 -->
<!-- Title: meta Pages: 1 -->
<svg width="239pt" height="141pt"
 viewBox="0.00 0.00 239.00 141.00" xmlns="http://www.w3.org/2000/svg" xmlns:xlink="http://www.w3.org/1999/xlink">
<g id="graph0" class="graph" transform="scale(1 1) rotate(0) translate(4 137)">
<title>meta</title>
<g id="clust1" class="cluster">
<title>clusterdir_ee3c23494b4011e6a628e4900ef262df</title>
<g id="a_clust1"><a xlink:href="dir_ee3c23494b4011e6a628e4900ef262df.html" target="_top" xlink:title="modules">
<polygon fill="#edf0f7" stroke="#404040" stroke-dasharray="5,2" points="8,-8 8,-125 223,-125 223,-8 8,-8"/>
<text text-anchor="middle" x="115.5" y="-113" font-family="Helvetica,sans-Serif" font-size="10.00">modules</text>
</a>
</g>
</g>
<g id="clust2" class="cluster">
<title>clusterdir_7e7898fd82fc7805c9d39fdbc62120b9</title>
<g id="a_clust2"><a xlink:href="dir_7e7898fd82fc7805c9d39fdbc62120b9.html" target="_top">
<polygon fill="#edf0f7" stroke="#404040" stroke-width="2" points="35,-63 35,-98 215,-98 215,-63 35,-63"/>
</a>
</g>
</g>
<!-- dir_639930e6546076602fdb99daad4d48b4 -->
<g id="node1" class="node">
<title>dir_639930e6546076602fdb99daad4d48b4</title>
<g id="a_node1"><a xlink:href="dir_639930e6546076602fdb99daad4d48b4.html" target="_top" xlink:title="structs">
<polygon fill="#a2b4d6" stroke="red" points="66,-35 16,-35 16,-16 66,-16 66,-35"/>
<text text-anchor="middle" x="41" y="-23" font-family="Helvetica,sans-Serif" font-size="10.00">structs</text>
</a>
</g>
</g>
<!-- dir_7acf8b7ae8c4ffea2c3526657d8aa9e1 -->
<g id="node2" class="node">
<title>dir_7acf8b7ae8c4ffea2c3526657d8aa9e1</title>
<g id="a_node2"><a xlink:href="dir_7acf8b7ae8c4ffea2c3526657d8aa9e1.html" target="_top" xlink:title="notification">
<polygon fill="#a2b4d6" stroke="red" points="155.5,-35 84.5,-35 84.5,-16 155.5,-16 155.5,-35"/>
<text text-anchor="middle" x="120" y="-23" font-family="Helvetica,sans-Serif" font-size="10.00">notification</text>
</a>
</g>
</g>
<!-- dir_f0fdfbf866f75abaaae77c9c053e2c4e -->
<g id="node3" class="node">
<title>dir_f0fdfbf866f75abaaae77c9c053e2c4e</title>
<g id="a_node3"><a xlink:href="dir_f0fdfbf866f75abaaae77c9c053e2c4e.html" target="_top" xlink:title="tools">
<polygon fill="#a2b4d6" stroke="red" points="214.5,-35 173.5,-35 173.5,-16 214.5,-16 214.5,-35"/>
<text text-anchor="middle" x="194" y="-23" font-family="Helvetica,sans-Serif" font-size="10.00">tools</text>
</a>
</g>
</g>
<!-- dir_7e7898fd82fc7805c9d39fdbc62120b9 -->
<g id="node4" class="node">
<title>dir_7e7898fd82fc7805c9d39fdbc62120b9</title>
<text text-anchor="middle" x="186" y="-78" font-family="Helvetica,sans-Serif" font-size="10.00">meta</text>
</g>
<!-- dir_02b0f5b4501693a35a1ae9c0f6d13544 -->
<g id="node5" class="node">
<title>dir_02b0f5b4501693a35a1ae9c0f6d13544</title>
<g id="a_node5"><a xlink:href="dir_02b0f5b4501693a35a1ae9c0f6d13544.html" target="_top" xlink:title="cxx">
<polygon fill="#a2b4d6" stroke="#404040" points="147,-90 113,-90 113,-71 147,-71 147,-90"/>
<text text-anchor="middle" x="130" y="-78" font-family="Helvetica,sans-Serif" font-size="10.00">cxx</text>
</a>
</g>
</g>
<!-- dir_b5ed08a245d517d54eaacef76d0c7068 -->
<g id="node6" class="node">
<title>dir_b5ed08a245d517d54eaacef76d0c7068</title>
<g id="a_node6"><a xlink:href="dir_b5ed08a245d517d54eaacef76d0c7068.html" target="_top" xlink:title="include">
<polygon fill="#a2b4d6" stroke="#404040" points="95,-90 43,-90 43,-71 95,-71 95,-90"/>
<text text-anchor="middle" x="69" y="-78" font-family="Helvetica,sans-Serif" font-size="10.00">include</text>
</a>
</g>
</g>
<!-- dir_b5ed08a245d517d54eaacef76d0c7068&#45;&gt;dir_639930e6546076602fdb99daad4d48b4 -->
<g id="edge1" class="edge">
<title>dir_b5ed08a245d517d54eaacef76d0c7068&#45;&gt;dir_639930e6546076602fdb99daad4d48b4</title>
<g id="a_edge1"><a xlink:href="dir_000087_000157.html" target="_top">
<path fill="none" stroke="#63b8ff" d="M64.38,-70.75C60.54,-63.49 54.98,-52.95 50.24,-43.98"/>
<polygon fill="#63b8ff" stroke="#63b8ff" points="53.3,-42.3 45.54,-35.09 47.11,-45.57 53.3,-42.3"/>
</a>
</g>
<g id="a_edge1&#45;headlabel"><a xlink:href="dir_000087_000157.html" target="_top" xlink:title="3">
<text text-anchor="middle" x="57.49" y="-41.65" font-family="Helvetica,sans-Serif" font-size="10.00" fill="#63b8ff">3</text>
</a>
</g>
</g>
<!-- dir_b5ed08a245d517d54eaacef76d0c7068&#45;&gt;dir_7acf8b7ae8c4ffea2c3526657d8aa9e1 -->
<g id="edge2" class="edge">
<title>dir_b5ed08a245d517d54eaacef76d0c7068&#45;&gt;dir_7acf8b7ae8c4ffea2c3526657d8aa9e1</title>
<g id="a_edge2"><a xlink:href="dir_000087_000130.html" target="_top">
<path fill="none" stroke="#63b8ff" d="M77.42,-70.75C84.77,-63.11 95.63,-51.82 104.54,-42.56"/>
<polygon fill="#63b8ff" stroke="#63b8ff" points="107.32,-44.72 111.74,-35.09 102.28,-39.87 107.32,-44.72"/>
</a>
</g>
<g id="a_edge2&#45;headlabel"><a xlink:href="dir_000087_000130.html" target="_top" xlink:title="1">
<text text-anchor="middle" x="106.88" y="-46.78" font-family="Helvetica,sans-Serif" font-size="10.00" fill="#63b8ff">1</text>
</a>
</g>
</g>
<!-- dir_b5ed08a245d517d54eaacef76d0c7068&#45;&gt;dir_f0fdfbf866f75abaaae77c9c053e2c4e -->
<g id="edge3" class="edge">
<title>dir_b5ed08a245d517d54eaacef76d0c7068&#45;&gt;dir_f0fdfbf866f75abaaae77c9c053e2c4e</title>
<g id="a_edge3"><a xlink:href="dir_000087_000167.html" target="_top">
<path fill="none" stroke="#63b8ff" d="M86.72,-70.91C92.23,-68.31 98.34,-65.48 104,-63 123.75,-54.35 146.23,-45.23 163.78,-38.27"/>
<polygon fill="#63b8ff" stroke="#63b8ff" points="165.47,-41.37 173.49,-34.44 162.9,-34.86 165.47,-41.37"/>
</a>
</g>
<g id="a_edge3&#45;headlabel"><a xlink:href="dir_000087_000167.html" target="_top" xlink:title="1">
<text text-anchor="middle" x="163.17" y="-42.83" font-family="Helvetica,sans-Serif" font-size="10.00" fill="#63b8ff">1</text>
</a>
</g>
</g>
</g>
</svg>
