<?xml version="1.0" encoding="UTF-8" standalone="no"?>
<!DOCTYPE svg PUBLIC "-//W3C//DTD SVG 1.1//EN"
 "http://www.w3.org/Graphics/SVG/1.1/DTD/svg11.dtd">
<!-- Generated by graphviz version 2.43.0 (0)
 -->
<!-- Title: nusol Pages: 1 -->
<svg width="511pt" height="149pt"
 viewBox="0.00 0.00 511.00 149.00" xmlns="http://www.w3.org/2000/svg" xmlns:xlink="http://www.w3.org/1999/xlink">
<g id="graph0" class="graph" transform="scale(1 1) rotate(0) translate(4 145)">
<title>nusol</title>
<g id="clust1" class="cluster">
<title>clusterdir_ec4844e93998863f4e611fcf0d12b86b</title>
<g id="a_clust1"><a xlink:href="dir_ec4844e93998863f4e611fcf0d12b86b.html" target="_top" xlink:title="pyc">
<polygon fill="#edf0f7" stroke="#404040" stroke-dasharray="5,2" points="8,-8 8,-133 495,-133 495,-8 8,-8"/>
<text text-anchor="middle" x="251.5" y="-121" font-family="Helvetica,sans-Serif" font-size="10.00">pyc</text>
</a>
</g>
</g>
<g id="clust2" class="cluster">
<title>clusterdir_f7258c3c715b4ae51f5a1c777d38de1e</title>
<g id="a_clust2"><a xlink:href="dir_f7258c3c715b4ae51f5a1c777d38de1e.html" target="_top">
<polygon fill="#edf0f7" stroke="#404040" stroke-width="2" points="16,-16 16,-106 200,-106 200,-16 16,-16"/>
</a>
</g>
</g>
<!-- dir_8f01f23331cc8f04a967f31995c2bfac -->
<g id="node1" class="node">
<title>dir_8f01f23331cc8f04a967f31995c2bfac</title>
<g id="a_node1"><a xlink:href="dir_8f01f23331cc8f04a967f31995c2bfac.html" target="_top" xlink:title="operators">
<polygon fill="#a2b4d6" stroke="red" points="271.5,-43 208.5,-43 208.5,-24 271.5,-24 271.5,-43"/>
<text text-anchor="middle" x="240" y="-31" font-family="Helvetica,sans-Serif" font-size="10.00">operators</text>
</a>
</g>
</g>
<!-- dir_6b18cf1b3d22ec0e85e9a35c5fdf86f0 -->
<g id="node2" class="node">
<title>dir_6b18cf1b3d22ec0e85e9a35c5fdf86f0</title>
<g id="a_node2"><a xlink:href="dir_6b18cf1b3d22ec0e85e9a35c5fdf86f0.html" target="_top" xlink:title="transform">
<polygon fill="#a2b4d6" stroke="red" points="354.5,-43 289.5,-43 289.5,-24 354.5,-24 354.5,-43"/>
<text text-anchor="middle" x="322" y="-31" font-family="Helvetica,sans-Serif" font-size="10.00">transform</text>
</a>
</g>
</g>
<!-- dir_7e001d9e5e94b979a435b255bf826c09 -->
<g id="node3" class="node">
<title>dir_7e001d9e5e94b979a435b255bf826c09</title>
<g id="a_node3"><a xlink:href="dir_7e001d9e5e94b979a435b255bf826c09.html" target="_top" xlink:title="physics">
<polygon fill="#a2b4d6" stroke="red" points="425.5,-43 372.5,-43 372.5,-24 425.5,-24 425.5,-43"/>
<text text-anchor="middle" x="399" y="-31" font-family="Helvetica,sans-Serif" font-size="10.00">physics</text>
</a>
</g>
</g>
<!-- dir_7d596e10f659c7c79419b1771c79b610 -->
<g id="node4" class="node">
<title>dir_7d596e10f659c7c79419b1771c79b610</title>
<g id="a_node4"><a xlink:href="dir_7d596e10f659c7c79419b1771c79b610.html" target="_top" xlink:title="cutils">
<polygon fill="#a2b4d6" stroke="red" points="486.5,-43 443.5,-43 443.5,-24 486.5,-24 486.5,-43"/>
<text text-anchor="middle" x="465" y="-31" font-family="Helvetica,sans-Serif" font-size="10.00">cutils</text>
</a>
</g>
</g>
<!-- dir_f7258c3c715b4ae51f5a1c777d38de1e -->
<g id="node5" class="node">
<title>dir_f7258c3c715b4ae51f5a1c777d38de1e</title>
<text text-anchor="middle" x="170" y="-86" font-family="Helvetica,sans-Serif" font-size="10.00">nusol</text>
</g>
<!-- dir_1a117131bd9458b4aa42524a76acfaff -->
<g id="node6" class="node">
<title>dir_1a117131bd9458b4aa42524a76acfaff</title>
<g id="a_node6"><a xlink:href="dir_1a117131bd9458b4aa42524a76acfaff.html" target="_top" xlink:title="cuda">
<polygon fill="#a2b4d6" stroke="#404040" points="130,-98 90,-98 90,-79 130,-79 130,-98"/>
<text text-anchor="middle" x="110" y="-86" font-family="Helvetica,sans-Serif" font-size="10.00">cuda</text>
</a>
</g>
</g>
<!-- dir_63738a22e623757be49d3e3e9294f9bd -->
<g id="node7" class="node">
<title>dir_63738a22e623757be49d3e3e9294f9bd</title>
<g id="a_node7"><a xlink:href="dir_63738a22e623757be49d3e3e9294f9bd.html" target="_top" xlink:title="include">
<polygon fill="#a2b4d6" stroke="#404040" points="76,-43 24,-43 24,-24 76,-24 76,-43"/>
<text text-anchor="middle" x="50" y="-31" font-family="Helvetica,sans-Serif" font-size="10.00">include</text>
</a>
</g>
</g>
<!-- dir_b11440b950523317e989f38fc4380f8a -->
<g id="node8" class="node">
<title>dir_b11440b950523317e989f38fc4380f8a</title>
<g id="a_node8"><a xlink:href="dir_b11440b950523317e989f38fc4380f8a.html" target="_top" xlink:title="tensor">
<polygon fill="#a2b4d6" stroke="#404040" points="71.5,-98 24.5,-98 24.5,-79 71.5,-79 71.5,-98"/>
<text text-anchor="middle" x="48" y="-86" font-family="Helvetica,sans-Serif" font-size="10.00">tensor</text>
</a>
</g>
</g>
<!-- dir_b11440b950523317e989f38fc4380f8a&#45;&gt;dir_8f01f23331cc8f04a967f31995c2bfac -->
<g id="edge5" class="edge">
<title>dir_b11440b950523317e989f38fc4380f8a&#45;&gt;dir_8f01f23331cc8f04a967f31995c2bfac</title>
<g id="a_edge5"><a xlink:href="dir_000166_000134.html" target="_top">
<path fill="none" stroke="#63b8ff" d="M71.54,-81C103.26,-72.25 160.19,-56.53 199.01,-45.82"/>
<polygon fill="#63b8ff" stroke="#63b8ff" points="200.24,-49.11 208.95,-43.07 198.38,-42.36 200.24,-49.11"/>
</a>
</g>
<g id="a_edge5&#45;headlabel"><a xlink:href="dir_000166_000134.html" target="_top" xlink:title="1">
<text text-anchor="middle" x="197.53" y="-50.3" font-family="Helvetica,sans-Serif" font-size="10.00" fill="#63b8ff">1</text>
</a>
</g>
</g>
<!-- dir_b11440b950523317e989f38fc4380f8a&#45;&gt;dir_6b18cf1b3d22ec0e85e9a35c5fdf86f0 -->
<g id="edge2" class="edge">
<title>dir_b11440b950523317e989f38fc4380f8a&#45;&gt;dir_6b18cf1b3d22ec0e85e9a35c5fdf86f0</title>
<g id="a_edge2"><a xlink:href="dir_000166_000177.html" target="_top">
<path fill="none" stroke="#63b8ff" d="M71.74,-81.16C74.85,-80.4 77.99,-79.66 81,-79 166.13,-60.4 190.63,-60.16 279.38,-43.27"/>
<polygon fill="#63b8ff" stroke="#63b8ff" points="280.18,-46.68 289.34,-41.35 278.86,-39.8 280.18,-46.68"/>
</a>
</g>
<g id="a_edge2&#45;headlabel"><a xlink:href="dir_000166_000177.html" target="_top" xlink:title="1">
<text text-anchor="middle" x="277.19" y="-47.64" font-family="Helvetica,sans-Serif" font-size="10.00" fill="#63b8ff">1</text>
</a>
</g>
</g>
<!-- dir_b11440b950523317e989f38fc4380f8a&#45;&gt;dir_7e001d9e5e94b979a435b255bf826c09 -->
<g id="edge4" class="edge">
<title>dir_b11440b950523317e989f38fc4380f8a&#45;&gt;dir_7e001d9e5e94b979a435b255bf826c09</title>
<g id="a_edge4"><a xlink:href="dir_000166_000142.html" target="_top">
<path fill="none" stroke="#63b8ff" d="M71.71,-81.01C74.82,-80.27 77.98,-79.58 81,-79 202.36,-55.75 237.54,-65.47 362.37,-43.12"/>
<polygon fill="#63b8ff" stroke="#63b8ff" points="363.1,-46.54 372.31,-41.31 361.85,-39.66 363.1,-46.54"/>
</a>
</g>
<g id="a_edge4&#45;headlabel"><a xlink:href="dir_000166_000142.html" target="_top" xlink:title="1">
<text text-anchor="middle" x="360.08" y="-47.48" font-family="Helvetica,sans-Serif" font-size="10.00" fill="#63b8ff">1</text>
</a>
</g>
</g>
<!-- dir_b11440b950523317e989f38fc4380f8a&#45;&gt;dir_7d596e10f659c7c79419b1771c79b610 -->
<g id="edge3" class="edge">
<title>dir_b11440b950523317e989f38fc4380f8a&#45;&gt;dir_7d596e10f659c7c79419b1771c79b610</title>
<g id="a_edge3"><a xlink:href="dir_000166_000014.html" target="_top">
<path fill="none" stroke="#63b8ff" d="M71.7,-80.94C74.81,-80.21 77.97,-79.54 81,-79 233.49,-51.77 277.85,-71.81 433.55,-42.96"/>
<polygon fill="#63b8ff" stroke="#63b8ff" points="434.3,-46.38 443.48,-41.08 433,-39.5 434.3,-46.38"/>
</a>
</g>
<g id="a_edge3&#45;headlabel"><a xlink:href="dir_000166_000014.html" target="_top" xlink:title="1">
<text text-anchor="middle" x="431.3" y="-47.34" font-family="Helvetica,sans-Serif" font-size="10.00" fill="#63b8ff">1</text>
</a>
</g>
</g>
<!-- dir_b11440b950523317e989f38fc4380f8a&#45;&gt;dir_63738a22e623757be49d3e3e9294f9bd -->
<g id="edge1" class="edge">
<title>dir_b11440b950523317e989f38fc4380f8a&#45;&gt;dir_63738a22e623757be49d3e3e9294f9bd</title>
<g id="a_edge1"><a xlink:href="dir_000166_000103.html" target="_top">
<path fill="none" stroke="#63b8ff" d="M48.33,-78.75C48.59,-71.8 48.97,-61.85 49.3,-53.13"/>
<polygon fill="#63b8ff" stroke="#63b8ff" points="52.8,-53.21 49.68,-43.09 45.8,-52.95 52.8,-53.21"/>
</a>
</g>
<g id="a_edge1&#45;headlabel"><a xlink:href="dir_000166_000103.html" target="_top" xlink:title="1">
<text text-anchor="middle" x="55.5" y="-54.41" font-family="Helvetica,sans-Serif" font-size="10.00" fill="#63b8ff">1</text>
</a>
</g>
</g>
</g>
</svg>
