<?xml version="1.0" encoding="UTF-8" standalone="no"?>
<!DOCTYPE svg PUBLIC "-//W3C//DTD SVG 1.1//EN"
 "http://www.w3.org/Graphics/SVG/1.1/DTD/svg11.dtd">
<!-- Generated by graphviz version 2.43.0 (0)
 -->
<!-- Title: include Pages: 1 -->
<svg width="396pt" height="125pt"
 viewBox="0.00 0.00 395.50 125.00" xmlns="http://www.w3.org/2000/svg" xmlns:xlink="http://www.w3.org/1999/xlink">
<g id="graph0" class="graph" transform="scale(1 1) rotate(0) translate(4 121)">
<title>include</title>
<g id="clust1" class="cluster">
<title>clusterdir_4969ff72e1fed5b4b8966b48bec3d706</title>
<g id="a_clust1"><a xlink:href="dir_4969ff72e1fed5b4b8966b48bec3d706.html" target="_top" xlink:title="graph">
<polygon fill="#edf0f7" stroke="#7f7f7f" stroke-dasharray="5,2" points="149.5,-39 149.5,-109 317.5,-109 317.5,-39 149.5,-39"/>
<text text-anchor="middle" x="233.5" y="-97" font-family="Helvetica,sans-Serif" font-size="10.00">graph</text>
</a>
</g>
</g>
<g id="clust2" class="cluster">
<title>clusterdir_cd756b98f2ef0676882300bf029914a4</title>
<g id="a_clust2"><a xlink:href="dir_cd756b98f2ef0676882300bf029914a4.html" target="_top">
<polygon fill="#edf0f7" stroke="#404040" stroke-width="2" points="157.5,-47 157.5,-82 309.5,-82 309.5,-47 157.5,-47"/>
</a>
</g>
</g>
<!-- dir_cd756b98f2ef0676882300bf029914a4 -->
<g id="node1" class="node">
<title>dir_cd756b98f2ef0676882300bf029914a4</title>
<text text-anchor="middle" x="275.5" y="-62" font-family="Helvetica,sans-Serif" font-size="10.00">include</text>
</g>
<!-- dir_5b77873416ebefa878b6326dd72dce0d -->
<g id="node2" class="node">
<title>dir_5b77873416ebefa878b6326dd72dce0d</title>
<g id="a_node2"><a xlink:href="dir_5b77873416ebefa878b6326dd72dce0d.html" target="_top" xlink:title="templates">
<polygon fill="#a2b4d6" stroke="#404040" points="231.5,-74 165.5,-74 165.5,-55 231.5,-55 231.5,-74"/>
<text text-anchor="middle" x="198.5" y="-62" font-family="Helvetica,sans-Serif" font-size="10.00">templates</text>
</a>
</g>
</g>
<!-- dir_1591526fd125289a70742a0dafe36eb5 -->
<g id="node3" class="node">
<title>dir_1591526fd125289a70742a0dafe36eb5</title>
<g id="a_node3"><a xlink:href="dir_1591526fd125289a70742a0dafe36eb5.html" target="_top" xlink:title="particle">
<polygon fill="#edf0f7" stroke="red" stroke-dasharray="5,2" points="53,-19 0,-19 0,0 53,0 53,-19"/>
<text text-anchor="middle" x="26.5" y="-7" font-family="Helvetica,sans-Serif" font-size="10.00">particle</text>
</a>
</g>
</g>
<!-- dir_5b77873416ebefa878b6326dd72dce0d&#45;&gt;dir_1591526fd125289a70742a0dafe36eb5 -->
<g id="edge1" class="edge">
<title>dir_5b77873416ebefa878b6326dd72dce0d&#45;&gt;dir_1591526fd125289a70742a0dafe36eb5</title>
<g id="a_edge1"><a xlink:href="dir_000160_000139.html" target="_top">
<path fill="none" stroke="#63b8ff" d="M170.87,-54.98C141.65,-45.98 95.41,-31.73 63.16,-21.8"/>
<polygon fill="#63b8ff" stroke="#63b8ff" points="63.8,-18.33 53.22,-18.73 61.74,-25.02 63.8,-18.33"/>
</a>
</g>
<g id="a_edge1&#45;headlabel"><a xlink:href="dir_000160_000139.html" target="_top" xlink:title="1">
<text text-anchor="middle" x="68.08" y="-14.18" font-family="Helvetica,sans-Serif" font-size="10.00" fill="#63b8ff">1</text>
</a>
</g>
</g>
<!-- dir_fb91096735c52f3a453d1a3e67025085 -->
<g id="node4" class="node">
<title>dir_fb91096735c52f3a453d1a3e67025085</title>
<g id="a_node4"><a xlink:href="dir_fb91096735c52f3a453d1a3e67025085.html" target="_top" xlink:title="event">
<polygon fill="#edf0f7" stroke="red" stroke-dasharray="5,2" points="115.5,-19 71.5,-19 71.5,0 115.5,0 115.5,-19"/>
<text text-anchor="middle" x="93.5" y="-7" font-family="Helvetica,sans-Serif" font-size="10.00">event</text>
</a>
</g>
</g>
<!-- dir_5b77873416ebefa878b6326dd72dce0d&#45;&gt;dir_fb91096735c52f3a453d1a3e67025085 -->
<g id="edge6" class="edge">
<title>dir_5b77873416ebefa878b6326dd72dce0d&#45;&gt;dir_fb91096735c52f3a453d1a3e67025085</title>
<g id="a_edge6"><a xlink:href="dir_000160_000052.html" target="_top">
<path fill="none" stroke="#63b8ff" d="M181.63,-54.98C164.89,-46.54 139,-33.47 119.61,-23.68"/>
<polygon fill="#63b8ff" stroke="#63b8ff" points="121.18,-20.55 110.68,-19.17 118.03,-26.8 121.18,-20.55"/>
</a>
</g>
<g id="a_edge6&#45;headlabel"><a xlink:href="dir_000160_000052.html" target="_top" xlink:title="1">
<text text-anchor="middle" x="125.67" y="-17.14" font-family="Helvetica,sans-Serif" font-size="10.00" fill="#63b8ff">1</text>
</a>
</g>
</g>
<!-- dir_639930e6546076602fdb99daad4d48b4 -->
<g id="node5" class="node">
<title>dir_639930e6546076602fdb99daad4d48b4</title>
<g id="a_node5"><a xlink:href="dir_639930e6546076602fdb99daad4d48b4.html" target="_top" xlink:title="structs">
<polygon fill="#edf0f7" stroke="red" stroke-dasharray="5,2" points="183.5,-19 133.5,-19 133.5,0 183.5,0 183.5,-19"/>
<text text-anchor="middle" x="158.5" y="-7" font-family="Helvetica,sans-Serif" font-size="10.00">structs</text>
</a>
</g>
</g>
<!-- dir_5b77873416ebefa878b6326dd72dce0d&#45;&gt;dir_639930e6546076602fdb99daad4d48b4 -->
<g id="edge2" class="edge">
<title>dir_5b77873416ebefa878b6326dd72dce0d&#45;&gt;dir_639930e6546076602fdb99daad4d48b4</title>
<g id="a_edge2"><a xlink:href="dir_000160_000157.html" target="_top">
<path fill="none" stroke="#63b8ff" d="M191.89,-54.75C186.24,-47.26 177.96,-36.28 171.05,-27.13"/>
<polygon fill="#63b8ff" stroke="#63b8ff" points="173.8,-24.96 164.98,-19.09 168.21,-29.18 173.8,-24.96"/>
</a>
</g>
<g id="a_edge2&#45;headlabel"><a xlink:href="dir_000160_000157.html" target="_top" xlink:title="4">
<text text-anchor="middle" x="178.23" y="-23.62" font-family="Helvetica,sans-Serif" font-size="10.00" fill="#63b8ff">4</text>
</a>
</g>
</g>
<!-- dir_b60a80b5573f59b8d3124d04096ac72b -->
<g id="node6" class="node">
<title>dir_b60a80b5573f59b8d3124d04096ac72b</title>
<g id="a_node6"><a xlink:href="dir_b60a80b5573f59b8d3124d04096ac72b.html" target="_top" xlink:title="typecasting">
<polygon fill="#edf0f7" stroke="red" stroke-dasharray="5,2" points="275.5,-19 201.5,-19 201.5,0 275.5,0 275.5,-19"/>
<text text-anchor="middle" x="238.5" y="-7" font-family="Helvetica,sans-Serif" font-size="10.00">typecasting</text>
</a>
</g>
</g>
<!-- dir_5b77873416ebefa878b6326dd72dce0d&#45;&gt;dir_b60a80b5573f59b8d3124d04096ac72b -->
<g id="edge3" class="edge">
<title>dir_5b77873416ebefa878b6326dd72dce0d&#45;&gt;dir_b60a80b5573f59b8d3124d04096ac72b</title>
<g id="a_edge3"><a xlink:href="dir_000160_000179.html" target="_top">
<path fill="none" stroke="#63b8ff" d="M205.11,-54.75C210.76,-47.26 219.04,-36.28 225.95,-27.13"/>
<polygon fill="#63b8ff" stroke="#63b8ff" points="228.79,-29.18 232.02,-19.09 223.2,-24.96 228.79,-29.18"/>
</a>
</g>
<g id="a_edge3&#45;headlabel"><a xlink:href="dir_000160_000179.html" target="_top" xlink:title="1">
<text text-anchor="middle" x="228.89" y="-31.26" font-family="Helvetica,sans-Serif" font-size="10.00" fill="#63b8ff">1</text>
</a>
</g>
</g>
<!-- dir_f0fdfbf866f75abaaae77c9c053e2c4e -->
<g id="node7" class="node">
<title>dir_f0fdfbf866f75abaaae77c9c053e2c4e</title>
<g id="a_node7"><a xlink:href="dir_f0fdfbf866f75abaaae77c9c053e2c4e.html" target="_top" xlink:title="tools">
<polygon fill="#edf0f7" stroke="red" stroke-dasharray="5,2" points="335,-19 294,-19 294,0 335,0 335,-19"/>
<text text-anchor="middle" x="314.5" y="-7" font-family="Helvetica,sans-Serif" font-size="10.00">tools</text>
</a>
</g>
</g>
<!-- dir_5b77873416ebefa878b6326dd72dce0d&#45;&gt;dir_f0fdfbf866f75abaaae77c9c053e2c4e -->
<g id="edge5" class="edge">
<title>dir_5b77873416ebefa878b6326dd72dce0d&#45;&gt;dir_f0fdfbf866f75abaaae77c9c053e2c4e</title>
<g id="a_edge5"><a xlink:href="dir_000160_000167.html" target="_top">
<path fill="none" stroke="#63b8ff" d="M211.82,-54.99C219.93,-50 230.61,-43.75 240.5,-39 254.44,-32.3 270.4,-25.99 283.92,-21.02"/>
<polygon fill="#63b8ff" stroke="#63b8ff" points="285.49,-24.18 293.71,-17.5 283.12,-17.59 285.49,-24.18"/>
</a>
</g>
<g id="a_edge5&#45;headlabel"><a xlink:href="dir_000160_000167.html" target="_top" xlink:title="1">
<text text-anchor="middle" x="283.07" y="-25.57" font-family="Helvetica,sans-Serif" font-size="10.00" fill="#63b8ff">1</text>
</a>
</g>
</g>
<!-- dir_ec4844e93998863f4e611fcf0d12b86b -->
<g id="node8" class="node">
<title>dir_ec4844e93998863f4e611fcf0d12b86b</title>
<g id="a_node8"><a xlink:href="dir_ec4844e93998863f4e611fcf0d12b86b.html" target="_top" xlink:title="pyc">
<polygon fill="#edf0f7" stroke="red" points="387.5,-19 353.5,-19 353.5,0 387.5,0 387.5,-19"/>
<text text-anchor="middle" x="370.5" y="-7" font-family="Helvetica,sans-Serif" font-size="10.00">pyc</text>
</a>
</g>
</g>
<!-- dir_5b77873416ebefa878b6326dd72dce0d&#45;&gt;dir_ec4844e93998863f4e611fcf0d12b86b -->
<g id="edge4" class="edge">
<title>dir_5b77873416ebefa878b6326dd72dce0d&#45;&gt;dir_ec4844e93998863f4e611fcf0d12b86b</title>
<g id="a_edge4"><a xlink:href="dir_000160_000146.html" target="_top">
<path fill="none" stroke="#63b8ff" d="M210.81,-54.82C218.9,-49.5 229.91,-42.97 240.5,-39 281.81,-23.5 297.02,-29.84 343.51,-18.9"/>
<polygon fill="#63b8ff" stroke="#63b8ff" points="344.39,-22.29 353.25,-16.48 342.7,-15.5 344.39,-22.29"/>
</a>
</g>
<g id="a_edge4&#45;headlabel"><a xlink:href="dir_000160_000146.html" target="_top" xlink:title="1">
<text text-anchor="middle" x="341.59" y="-23.42" font-family="Helvetica,sans-Serif" font-size="10.00" fill="#63b8ff">1</text>
</a>
</g>
</g>
</g>
</svg>
