<?xml version="1.0" encoding="UTF-8" standalone="no"?>
<!DOCTYPE svg PUBLIC "-//W3C//DTD SVG 1.1//EN"
 "http://www.w3.org/Graphics/SVG/1.1/DTD/svg11.dtd">
<!-- Generated by graphviz version 2.43.0 (0)
 -->
<!-- Title: element.h Pages: 1 -->
<svg width="1051pt" height="192pt"
 viewBox="0.00 0.00 1050.50 192.00" xmlns="http://www.w3.org/2000/svg" xmlns:xlink="http://www.w3.org/1999/xlink">
<g id="graph0" class="graph" transform="scale(1 1) rotate(0) translate(4 188)">
<title>element.h</title>
<!-- Node1 -->
<g id="Node000001" class="node">
<title>Node1</title>
<g id="a_Node000001"><a xlink:title=" ">
<polygon fill="#999999" stroke="#666666" points="536.5,-184 470.5,-184 470.5,-165 536.5,-165 536.5,-184"/>
<text text-anchor="middle" x="503.5" y="-172" font-family="Helvetica,sans-Serif" font-size="10.00">element.h</text>
</a>
</g>
</g>
<!-- Node2 -->
<g id="Node000002" class="node">
<title>Node2</title>
<g id="a_Node000002"><a xlink:title=" ">
<polygon fill="#e0e0e0" stroke="#999999" points="49,-129 0,-129 0,-110 49,-110 49,-129"/>
<text text-anchor="middle" x="24.5" y="-117" font-family="Helvetica,sans-Serif" font-size="10.00">TFile.h</text>
</a>
</g>
</g>
<!-- Node1&#45;&gt;Node2 -->
<g id="edge1_Node000001_Node000002" class="edge">
<title>Node1&#45;&gt;Node2</title>
<g id="a_edge1_Node000001_Node000002"><a xlink:title=" ">
<path fill="none" stroke="#63b8ff" d="M470.49,-171.45C397.03,-166.61 214.58,-153.02 63.5,-129 62.05,-128.77 60.56,-128.52 59.07,-128.25"/>
<polygon fill="#63b8ff" stroke="#63b8ff" points="59.66,-124.8 49.18,-126.32 58.32,-131.67 59.66,-124.8"/>
</a>
</g>
</g>
<!-- Node3 -->
<g id="Node000003" class="node">
<title>Node3</title>
<g id="a_Node000003"><a xlink:title=" ">
<polygon fill="#e0e0e0" stroke="#999999" points="469.5,-74 417.5,-74 417.5,-55 469.5,-55 469.5,-74"/>
<text text-anchor="middle" x="443.5" y="-62" font-family="Helvetica,sans-Serif" font-size="10.00">TTree.h</text>
</a>
</g>
</g>
<!-- Node1&#45;&gt;Node3 -->
<g id="edge2_Node000001_Node000003" class="edge">
<title>Node1&#45;&gt;Node3</title>
<g id="a_edge2_Node000001_Node000003"><a xlink:title=" ">
<path fill="none" stroke="#63b8ff" d="M509.11,-164.71C516.52,-151.9 527.5,-127.69 517.5,-110 509.15,-95.23 493.71,-84.82 479.09,-77.8"/>
<polygon fill="#63b8ff" stroke="#63b8ff" points="480.24,-74.49 469.68,-73.67 477.43,-80.9 480.24,-74.49"/>
</a>
</g>
</g>
<!-- Node4 -->
<g id="Node000004" class="node">
<title>Node4</title>
<g id="a_Node000004"><a xlink:title=" ">
<polygon fill="#e0e0e0" stroke="#999999" points="171,-129 106,-129 106,-110 171,-110 171,-129"/>
<text text-anchor="middle" x="138.5" y="-117" font-family="Helvetica,sans-Serif" font-size="10.00">TBranch.h</text>
</a>
</g>
</g>
<!-- Node1&#45;&gt;Node4 -->
<g id="edge3_Node000001_Node000004" class="edge">
<title>Node1&#45;&gt;Node4</title>
<g id="a_edge3_Node000001_Node000004"><a xlink:title=" ">
<path fill="none" stroke="#63b8ff" d="M470.38,-169.63C413.48,-162.84 293.29,-147.83 181.15,-129.01"/>
<polygon fill="#63b8ff" stroke="#63b8ff" points="181.47,-125.51 171.02,-127.29 180.3,-132.41 181.47,-125.51"/>
</a>
</g>
</g>
<!-- Node5 -->
<g id="Node000005" class="node">
<title>Node5</title>
<g id="a_Node000005"><a xlink:title=" ">
<polygon fill="#e0e0e0" stroke="#999999" points="241.5,-129 189.5,-129 189.5,-110 241.5,-110 241.5,-129"/>
<text text-anchor="middle" x="215.5" y="-117" font-family="Helvetica,sans-Serif" font-size="10.00">TLeaf.h</text>
</a>
</g>
</g>
<!-- Node1&#45;&gt;Node5 -->
<g id="edge4_Node000001_Node000005" class="edge">
<title>Node1&#45;&gt;Node5</title>
<g id="a_edge4_Node000001_Node000005"><a xlink:title=" ">
<path fill="none" stroke="#63b8ff" d="M470.22,-168.34C423.56,-160.96 335.87,-146.54 251.8,-129.16"/>
<polygon fill="#63b8ff" stroke="#63b8ff" points="252.34,-125.7 241.83,-127.09 250.91,-132.55 252.34,-125.7"/>
</a>
</g>
</g>
<!-- Node6 -->
<g id="Node000006" class="node">
<title>Node6</title>
<g id="a_Node000006"><a xlink:title=" ">
<polygon fill="#e0e0e0" stroke="#999999" points="371,-129 260,-129 260,-110 371,-110 371,-129"/>
<text text-anchor="middle" x="315.5" y="-117" font-family="Helvetica,sans-Serif" font-size="10.00">TTreeReaderArray.h</text>
</a>
</g>
</g>
<!-- Node1&#45;&gt;Node6 -->
<g id="edge5_Node000001_Node000006" class="edge">
<title>Node1&#45;&gt;Node6</title>
<g id="a_edge5_Node000001_Node000006"><a xlink:title=" ">
<path fill="none" stroke="#63b8ff" d="M473.29,-164.98C441.46,-156.01 391.14,-141.82 355.9,-131.89"/>
<polygon fill="#63b8ff" stroke="#63b8ff" points="356.52,-128.43 345.94,-129.08 354.62,-135.16 356.52,-128.43"/>
</a>
</g>
</g>
<!-- Node7 -->
<g id="Node000007" class="node">
<title>Node7</title>
<g id="a_Node000007"><a xlink:title=" ">
<polygon fill="#e0e0e0" stroke="#999999" points="475.5,-129 389.5,-129 389.5,-110 475.5,-110 475.5,-129"/>
<text text-anchor="middle" x="432.5" y="-117" font-family="Helvetica,sans-Serif" font-size="10.00">TTreeReader.h</text>
</a>
</g>
</g>
<!-- Node1&#45;&gt;Node7 -->
<g id="edge6_Node000001_Node000007" class="edge">
<title>Node1&#45;&gt;Node7</title>
<g id="a_edge6_Node000001_Node000007"><a xlink:title=" ">
<path fill="none" stroke="#63b8ff" d="M492.09,-164.98C481.39,-157 465.16,-144.88 452.34,-135.31"/>
<polygon fill="#63b8ff" stroke="#63b8ff" points="454.22,-132.35 444.11,-129.17 450.03,-137.96 454.22,-132.35"/>
</a>
</g>
</g>
<!-- Node8 -->
<g id="Node000008" class="node">
<title>Node8</title>
<g id="a_Node000008"><a xlink:href="vector__cast_8h.html" target="_top" xlink:title=" ">
<polygon fill="white" stroke="#666666" points="679,-129 570,-129 570,-110 679,-110 679,-129"/>
<text text-anchor="middle" x="624.5" y="-117" font-family="Helvetica,sans-Serif" font-size="10.00">tools/vector_cast.h</text>
</a>
</g>
</g>
<!-- Node1&#45;&gt;Node8 -->
<g id="edge7_Node000001_Node000008" class="edge">
<title>Node1&#45;&gt;Node8</title>
<g id="a_edge7_Node000001_Node000008"><a xlink:title=" ">
<path fill="none" stroke="#63b8ff" d="M522.94,-164.98C542.49,-156.42 572.88,-143.11 595.32,-133.28"/>
<polygon fill="#63b8ff" stroke="#63b8ff" points="596.95,-136.39 604.71,-129.17 594.14,-129.98 596.95,-136.39"/>
</a>
</g>
</g>
<!-- Node10 -->
<g id="Node000010" class="node">
<title>Node10</title>
<g id="a_Node000010"><a xlink:href="structs_2include_2structs_2meta_8h.html" target="_top" xlink:title="Defines metadata structures for physics analysis datasets.">
<polygon fill="white" stroke="#666666" points="853,-74 766,-74 766,-55 853,-55 853,-74"/>
<text text-anchor="middle" x="809.5" y="-62" font-family="Helvetica,sans-Serif" font-size="10.00">structs/meta.h</text>
</a>
</g>
</g>
<!-- Node1&#45;&gt;Node10 -->
<g id="edge23_Node000001_Node000010" class="edge">
<title>Node1&#45;&gt;Node10</title>
<g id="a_edge23_Node000001_Node000010"><a xlink:title=" ">
<path fill="none" stroke="#63b8ff" d="M536.79,-167.97C574.21,-161.17 636.41,-148.15 687.5,-129 723.82,-115.39 763.17,-93.48 787.08,-79.29"/>
<polygon fill="#63b8ff" stroke="#63b8ff" points="788.97,-82.24 795.74,-74.08 785.37,-76.24 788.97,-82.24"/>
</a>
</g>
</g>
<!-- Node11 -->
<g id="Node000011" class="node">
<title>Node11</title>
<g id="a_Node000011"><a xlink:title=" ">
<polygon fill="#e0e0e0" stroke="#999999" points="455.5,-19 395.5,-19 395.5,0 455.5,0 455.5,-19"/>
<text text-anchor="middle" x="425.5" y="-7" font-family="Helvetica,sans-Serif" font-size="10.00">iostream</text>
</a>
</g>
</g>
<!-- Node1&#45;&gt;Node11 -->
<g id="edge24_Node000001_Node000011" class="edge">
<title>Node1&#45;&gt;Node11</title>
<g id="a_edge24_Node000001_Node000011"><a xlink:title=" ">
<path fill="none" stroke="#63b8ff" d="M470.22,-172.36C377.49,-168.84 121.32,-156.69 96.5,-129 12.55,-35.37 279.84,-15.68 384.94,-11.57"/>
<polygon fill="#63b8ff" stroke="#63b8ff" points="385.31,-15.06 395.17,-11.2 385.05,-8.06 385.31,-15.06"/>
</a>
</g>
</g>
<!-- Node12 -->
<g id="Node000012" class="node">
<title>Node12</title>
<g id="a_Node000012"><a xlink:title=" ">
<polygon fill="#e0e0e0" stroke="#999999" points="872.5,-19 828.5,-19 828.5,0 872.5,0 872.5,-19"/>
<text text-anchor="middle" x="850.5" y="-7" font-family="Helvetica,sans-Serif" font-size="10.00">string</text>
</a>
</g>
</g>
<!-- Node1&#45;&gt;Node12 -->
<g id="edge25_Node000001_Node000012" class="edge">
<title>Node1&#45;&gt;Node12</title>
<g id="a_edge25_Node000001_Node000012"><a xlink:title=" ">
<path fill="none" stroke="#63b8ff" d="M536.63,-169.66C618.13,-159.44 824.42,-128.55 861.5,-74 870.62,-60.58 865.88,-41.99 860.05,-28.39"/>
<polygon fill="#63b8ff" stroke="#63b8ff" points="863.09,-26.62 855.6,-19.13 856.78,-29.66 863.09,-26.62"/>
</a>
</g>
</g>
<!-- Node13 -->
<g id="Node000013" class="node">
<title>Node13</title>
<g id="a_Node000013"><a xlink:title=" ">
<polygon fill="#e0e0e0" stroke="#999999" points="665,-19 618,-19 618,0 665,0 665,-19"/>
<text text-anchor="middle" x="641.5" y="-7" font-family="Helvetica,sans-Serif" font-size="10.00">vector</text>
</a>
</g>
</g>
<!-- Node1&#45;&gt;Node13 -->
<g id="edge26_Node000001_Node000013" class="edge">
<title>Node1&#45;&gt;Node13</title>
<g id="a_edge26_Node000001_Node000013"><a xlink:title=" ">
<path fill="none" stroke="#63b8ff" d="M503.08,-164.63C501.99,-151.28 498.14,-125.89 484.5,-110 457.34,-78.37 381.93,-87.13 408.5,-55 433.39,-24.9 549.33,-14.97 607.71,-11.85"/>
<polygon fill="#63b8ff" stroke="#63b8ff" points="608.1,-15.34 617.91,-11.34 607.75,-8.35 608.1,-15.34"/>
</a>
</g>
</g>
<!-- Node14 -->
<g id="Node000014" class="node">
<title>Node14</title>
<g id="a_Node000014"><a xlink:title=" ">
<polygon fill="#e0e0e0" stroke="#999999" points="1042.5,-19 1004.5,-19 1004.5,0 1042.5,0 1042.5,-19"/>
<text text-anchor="middle" x="1023.5" y="-7" font-family="Helvetica,sans-Serif" font-size="10.00">map</text>
</a>
</g>
</g>
<!-- Node1&#45;&gt;Node14 -->
<g id="edge27_Node000001_Node000014" class="edge">
<title>Node1&#45;&gt;Node14</title>
<g id="a_edge27_Node000001_Node000014"><a xlink:title=" ">
<path fill="none" stroke="#63b8ff" d="M536.7,-172C622.66,-167.8 850.69,-154.5 921.5,-129 963.14,-114.01 978.14,-109.54 1004.5,-74 1014.25,-60.86 1019.03,-42.73 1021.35,-29.2"/>
<polygon fill="#63b8ff" stroke="#63b8ff" points="1024.84,-29.53 1022.78,-19.13 1017.91,-28.54 1024.84,-29.53"/>
</a>
</g>
</g>
<!-- Node15 -->
<g id="Node000015" class="node">
<title>Node15</title>
<g id="a_Node000015"><a xlink:href="modules_2structs_2include_2structs_2base_8h.html" target="_top" xlink:title="Defines fundamental data structures and type handling for the AnalysisG framework.">
<polygon fill="white" stroke="#666666" points="995,-74 910,-74 910,-55 995,-55 995,-74"/>
<text text-anchor="middle" x="952.5" y="-62" font-family="Helvetica,sans-Serif" font-size="10.00">structs/base.h</text>
</a>
</g>
</g>
<!-- Node1&#45;&gt;Node15 -->
<g id="edge22_Node000001_Node000015" class="edge">
<title>Node1&#45;&gt;Node15</title>
<g id="a_edge22_Node000001_Node000015"><a xlink:title=" ">
<path fill="none" stroke="#63b8ff" d="M536.55,-172.74C619.27,-170.36 833.1,-161.18 895.5,-129 915.59,-118.64 931.98,-98.07 941.94,-83.14"/>
<polygon fill="#63b8ff" stroke="#63b8ff" points="945.14,-84.63 947.54,-74.31 939.23,-80.89 945.14,-84.63"/>
</a>
</g>
</g>
<!-- Node8&#45;&gt;Node3 -->
<g id="edge20_Node000008_Node000003" class="edge">
<title>Node8&#45;&gt;Node3</title>
<g id="a_edge20_Node000008_Node000003"><a xlink:title=" ">
<path fill="none" stroke="#63b8ff" d="M595.42,-109.98C563.9,-100.76 513.57,-86.02 479.56,-76.06"/>
<polygon fill="#63b8ff" stroke="#63b8ff" points="480.15,-72.59 469.57,-73.13 478.18,-79.3 480.15,-72.59"/>
</a>
</g>
</g>
<!-- Node9 -->
<g id="Node000009" class="node">
<title>Node9</title>
<g id="a_Node000009"><a xlink:title=" ">
<polygon fill="#e0e0e0" stroke="#999999" points="747.5,-74 621.5,-74 621.5,-55 747.5,-55 747.5,-74"/>
<text text-anchor="middle" x="684.5" y="-62" font-family="Helvetica,sans-Serif" font-size="10.00">c10/core/DeviceType.h</text>
</a>
</g>
</g>
<!-- Node8&#45;&gt;Node9 -->
<g id="edge8_Node000008_Node000009" class="edge">
<title>Node8&#45;&gt;Node9</title>
<g id="a_edge8_Node000008_Node000009"><a xlink:title=" ">
<path fill="none" stroke="#63b8ff" d="M634.14,-109.98C643.01,-102.15 656.37,-90.34 667.11,-80.86"/>
<polygon fill="#63b8ff" stroke="#63b8ff" points="669.51,-83.41 674.68,-74.17 664.87,-78.17 669.51,-83.41"/>
</a>
</g>
</g>
<!-- Node8&#45;&gt;Node10 -->
<g id="edge9_Node000008_Node000010" class="edge">
<title>Node8&#45;&gt;Node10</title>
<g id="a_edge9_Node000008_Node000010"><a xlink:title=" ">
<path fill="none" stroke="#63b8ff" d="M654.22,-109.98C685.55,-101.01 735.07,-86.82 769.74,-76.89"/>
<polygon fill="#63b8ff" stroke="#63b8ff" points="770.89,-80.2 779.54,-74.08 768.97,-73.47 770.89,-80.2"/>
</a>
</g>
</g>
<!-- Node8&#45;&gt;Node13 -->
<g id="edge21_Node000008_Node000013" class="edge">
<title>Node8&#45;&gt;Node13</title>
<g id="a_edge21_Node000008_Node000013"><a xlink:title=" ">
<path fill="none" stroke="#63b8ff" d="M580.07,-109.96C542.18,-100.58 496.75,-82.99 516.5,-55 536.96,-26 578.07,-15.79 607.57,-12.25"/>
<polygon fill="#63b8ff" stroke="#63b8ff" points="608.24,-15.7 617.85,-11.23 607.55,-8.74 608.24,-15.7"/>
</a>
</g>
</g>
<!-- Node8&#45;&gt;Node15 -->
<g id="edge14_Node000008_Node000015" class="edge">
<title>Node8&#45;&gt;Node15</title>
<g id="a_edge14_Node000008_Node000015"><a xlink:title=" ">
<path fill="none" stroke="#63b8ff" d="M677.2,-109.98C738.31,-100.11 838.47,-83.93 899.65,-74.04"/>
<polygon fill="#63b8ff" stroke="#63b8ff" points="900.55,-77.44 909.86,-72.39 899.43,-70.53 900.55,-77.44"/>
</a>
</g>
</g>
<!-- Node17 -->
<g id="Node000017" class="node">
<title>Node17</title>
<g id="a_Node000017"><a xlink:title=" ">
<polygon fill="#e0e0e0" stroke="#999999" points="603.5,-74 525.5,-74 525.5,-55 603.5,-55 603.5,-74"/>
<text text-anchor="middle" x="564.5" y="-62" font-family="Helvetica,sans-Serif" font-size="10.00">torch/torch.h</text>
</a>
</g>
</g>
<!-- Node8&#45;&gt;Node17 -->
<g id="edge19_Node000008_Node000017" class="edge">
<title>Node8&#45;&gt;Node17</title>
<g id="a_edge19_Node000008_Node000017"><a xlink:title=" ">
<path fill="none" stroke="#63b8ff" d="M614.86,-109.98C605.99,-102.15 592.63,-90.34 581.89,-80.86"/>
<polygon fill="#63b8ff" stroke="#63b8ff" points="584.13,-78.17 574.32,-74.17 579.49,-83.41 584.13,-78.17"/>
</a>
</g>
</g>
<!-- Node10&#45;&gt;Node11 -->
<g id="edge10_Node000010_Node000011" class="edge">
<title>Node10&#45;&gt;Node11</title>
<g id="a_edge10_Node000010_Node000011"><a xlink:title=" ">
<path fill="none" stroke="#63b8ff" d="M765.84,-56.41C762.68,-55.92 759.54,-55.45 756.5,-55 651.84,-39.58 528.24,-23.53 465.85,-15.59"/>
<polygon fill="#63b8ff" stroke="#63b8ff" points="466.02,-12.08 455.66,-14.29 465.14,-19.03 466.02,-12.08"/>
</a>
</g>
</g>
<!-- Node10&#45;&gt;Node12 -->
<g id="edge11_Node000010_Node000012" class="edge">
<title>Node10&#45;&gt;Node12</title>
<g id="a_edge11_Node000010_Node000012"><a xlink:title=" ">
<path fill="none" stroke="#63b8ff" d="M816.27,-54.75C822.06,-47.26 830.56,-36.28 837.64,-27.13"/>
<polygon fill="#63b8ff" stroke="#63b8ff" points="840.51,-29.14 843.86,-19.09 834.97,-24.86 840.51,-29.14"/>
</a>
</g>
</g>
<!-- Node10&#45;&gt;Node13 -->
<g id="edge12_Node000010_Node000013" class="edge">
<title>Node10&#45;&gt;Node13</title>
<g id="a_edge12_Node000010_Node000013"><a xlink:title=" ">
<path fill="none" stroke="#63b8ff" d="M782.51,-54.98C753.21,-45.74 706.41,-30.98 674.84,-21.02"/>
<polygon fill="#63b8ff" stroke="#63b8ff" points="675.76,-17.64 665.17,-17.97 673.65,-24.31 675.76,-17.64"/>
</a>
</g>
</g>
<!-- Node10&#45;&gt;Node14 -->
<g id="edge13_Node000010_Node000014" class="edge">
<title>Node10&#45;&gt;Node14</title>
<g id="a_edge13_Node000010_Node000014"><a xlink:title=" ">
<path fill="none" stroke="#63b8ff" d="M848.14,-54.96C883.82,-46.93 938.48,-34.22 994.53,-19.14"/>
<polygon fill="#63b8ff" stroke="#63b8ff" points="995.53,-22.5 1004.26,-16.5 993.7,-15.74 995.53,-22.5"/>
</a>
</g>
</g>
<!-- Node15&#45;&gt;Node12 -->
<g id="edge15_Node000015_Node000012" class="edge">
<title>Node15&#45;&gt;Node12</title>
<g id="a_edge15_Node000015_Node000012"><a xlink:title=" ">
<path fill="none" stroke="#63b8ff" d="M936.11,-54.98C919.93,-46.57 894.93,-33.59 876.12,-23.81"/>
<polygon fill="#63b8ff" stroke="#63b8ff" points="877.67,-20.68 867.19,-19.17 874.45,-26.89 877.67,-20.68"/>
</a>
</g>
</g>
<!-- Node15&#45;&gt;Node13 -->
<g id="edge16_Node000015_Node000013" class="edge">
<title>Node15&#45;&gt;Node13</title>
<g id="a_edge16_Node000015_Node000013"><a xlink:title=" ">
<path fill="none" stroke="#63b8ff" d="M909.91,-56.24C847.42,-45.59 732.16,-25.95 675.19,-16.24"/>
<polygon fill="#63b8ff" stroke="#63b8ff" points="675.7,-12.78 665.25,-14.55 674.52,-19.68 675.7,-12.78"/>
</a>
</g>
</g>
<!-- Node15&#45;&gt;Node14 -->
<g id="edge17_Node000015_Node000014" class="edge">
<title>Node15&#45;&gt;Node14</title>
<g id="a_edge17_Node000015_Node000014"><a xlink:title=" ">
<path fill="none" stroke="#63b8ff" d="M963.91,-54.98C974.61,-47 990.84,-34.88 1003.66,-25.31"/>
<polygon fill="#63b8ff" stroke="#63b8ff" points="1005.97,-27.96 1011.89,-19.17 1001.78,-22.35 1005.97,-27.96"/>
</a>
</g>
</g>
<!-- Node16 -->
<g id="Node000016" class="node">
<title>Node16</title>
<g id="a_Node000016"><a xlink:href="enums_8h.html" target="_top" xlink:title=" ">
<polygon fill="white" stroke="#666666" points="986,-19 891,-19 891,0 986,0 986,-19"/>
<text text-anchor="middle" x="938.5" y="-7" font-family="Helvetica,sans-Serif" font-size="10.00">structs/enums.h</text>
</a>
</g>
</g>
<!-- Node15&#45;&gt;Node16 -->
<g id="edge18_Node000015_Node000016" class="edge">
<title>Node15&#45;&gt;Node16</title>
<g id="a_edge18_Node000015_Node000016"><a xlink:title=" ">
<path fill="none" stroke="#63b8ff" d="M950.19,-54.75C948.33,-47.72 945.66,-37.62 943.35,-28.84"/>
<polygon fill="#63b8ff" stroke="#63b8ff" points="946.71,-27.86 940.77,-19.09 939.94,-29.65 946.71,-27.86"/>
</a>
</g>
</g>
</g>
</svg>
