<?xml version="1.0" encoding="UTF-8" standalone="no"?>
<!DOCTYPE svg PUBLIC "-//W3C//DTD SVG 1.1//EN"
 "http://www.w3.org/Graphics/SVG/1.1/DTD/svg11.dtd">
<!-- Generated by graphviz version 2.43.0 (0)
 -->
<!-- Title: particles.h Pages: 1 -->
<svg width="255pt" height="137pt"
 viewBox="0.00 0.00 255.00 137.00" xmlns="http://www.w3.org/2000/svg" xmlns:xlink="http://www.w3.org/1999/xlink">
<g id="graph0" class="graph" transform="scale(1 1) rotate(0) translate(4 133)">
<title>particles.h</title>
<!-- Node1 -->
<g id="Node000001" class="node">
<title>Node1</title>
<g id="a_Node000001"><a xlink:title=" ">
<polygon fill="#999999" stroke="#666666" points="146.5,-129 78.5,-129 78.5,-110 146.5,-110 146.5,-129"/>
<text text-anchor="middle" x="112.5" y="-117" font-family="Helvetica,sans-Serif" font-size="10.00">particles.h</text>
</a>
</g>
</g>
<!-- Node2 -->
<g id="Node000002" class="node">
<title>Node2</title>
<g id="a_Node000002"><a xlink:href="events_2exp__mc20_2include_2exp__mc20_2event_8h.html" target="_top" xlink:title=" ">
<polygon fill="white" stroke="#666666" points="139,-74 86,-74 86,-55 139,-55 139,-74"/>
<text text-anchor="middle" x="112.5" y="-62" font-family="Helvetica,sans-Serif" font-size="10.00">event.h</text>
</a>
</g>
</g>
<!-- Node1&#45;&gt;Node2 -->
<g id="edge1_Node000001_Node000002" class="edge">
<title>Node1&#45;&gt;Node2</title>
<g id="a_edge1_Node000001_Node000002"><a xlink:title=" ">
<path fill="none" stroke="#63b8ff" d="M112.5,-99.66C112.5,-90.93 112.5,-80.99 112.5,-74.09"/>
<polygon fill="#63b8ff" stroke="#63b8ff" points="109,-99.75 112.5,-109.75 116,-99.75 109,-99.75"/>
</a>
</g>
</g>
<!-- Node3 -->
<g id="Node000003" class="node">
<title>Node3</title>
<g id="a_Node000003"><a xlink:href="events_2exp__mc20_2cxx_2event_8cxx.html" target="_top" xlink:title=" ">
<polygon fill="white" stroke="#666666" points="65,-19 0,-19 0,0 65,0 65,-19"/>
<text text-anchor="middle" x="32.5" y="-7" font-family="Helvetica,sans-Serif" font-size="10.00">event.cxx</text>
</a>
</g>
</g>
<!-- Node2&#45;&gt;Node3 -->
<g id="edge2_Node000002_Node000003" class="edge">
<title>Node2&#45;&gt;Node3</title>
<g id="a_edge2_Node000002_Node000003"><a xlink:title=" ">
<path fill="none" stroke="#63b8ff" d="M91.25,-49.42C76.74,-39.81 57.96,-27.37 45.59,-19.17"/>
<polygon fill="#63b8ff" stroke="#63b8ff" points="89.38,-52.38 99.65,-54.98 93.24,-46.54 89.38,-52.38"/>
</a>
</g>
</g>
<!-- Node4 -->
<g id="Node000004" class="node">
<title>Node4</title>
<g id="a_Node000004"><a xlink:href="exp__mc20_2include_2exp__mc20_2graphs_8h.html" target="_top" xlink:title=" ">
<polygon fill="white" stroke="#666666" points="142,-19 83,-19 83,0 142,0 142,-19"/>
<text text-anchor="middle" x="112.5" y="-7" font-family="Helvetica,sans-Serif" font-size="10.00">graphs.h</text>
</a>
</g>
</g>
<!-- Node2&#45;&gt;Node4 -->
<g id="edge3_Node000002_Node000004" class="edge">
<title>Node2&#45;&gt;Node4</title>
<g id="a_edge3_Node000002_Node000004"><a xlink:title=" ">
<path fill="none" stroke="#63b8ff" d="M112.5,-44.66C112.5,-35.93 112.5,-25.99 112.5,-19.09"/>
<polygon fill="#63b8ff" stroke="#63b8ff" points="109,-44.75 112.5,-54.75 116,-44.75 109,-44.75"/>
</a>
</g>
</g>
<!-- Node5 -->
<g id="Node000005" class="node">
<title>Node5</title>
<g id="a_Node000005"><a xlink:href="mc20__exp_8cxx.html" target="_top" xlink:title=" ">
<polygon fill="white" stroke="#666666" points="247,-19 160,-19 160,0 247,0 247,-19"/>
<text text-anchor="middle" x="203.5" y="-7" font-family="Helvetica,sans-Serif" font-size="10.00">mc20_exp.cxx</text>
</a>
</g>
</g>
<!-- Node2&#45;&gt;Node5 -->
<g id="edge4_Node000002_Node000005" class="edge">
<title>Node2&#45;&gt;Node5</title>
<g id="a_edge4_Node000002_Node000005"><a xlink:title=" ">
<path fill="none" stroke="#63b8ff" d="M136.2,-49.7C152.78,-40.04 174.41,-27.44 188.61,-19.17"/>
<polygon fill="#63b8ff" stroke="#63b8ff" points="134,-46.93 127.12,-54.98 137.52,-52.98 134,-46.93"/>
</a>
</g>
</g>
</g>
</svg>
