<?xml version="1.0" encoding="UTF-8" standalone="no"?>
<!DOCTYPE svg PUBLIC "-//W3C//DTD SVG 1.1//EN"
 "http://www.w3.org/Graphics/SVG/1.1/DTD/svg11.dtd">
<!-- Generated by graphviz version 2.43.0 (0)
 -->
<!-- Title: event.h Pages: 1 -->
<svg width="1332pt" height="137pt"
 viewBox="0.00 0.00 1331.50 137.00" xmlns="http://www.w3.org/2000/svg" xmlns:xlink="http://www.w3.org/1999/xlink">
<g id="graph0" class="graph" transform="scale(1 1) rotate(0) translate(4 133)">
<title>event.h</title>
<!-- Node1 -->
<g id="Node000001" class="node">
<title>Node1</title>
<g id="a_Node000001"><a xlink:title=" ">
<polygon fill="#999999" stroke="#666666" points="702.5,-129 649.5,-129 649.5,-110 702.5,-110 702.5,-129"/>
<text text-anchor="middle" x="676" y="-117" font-family="Helvetica,sans-Serif" font-size="10.00">event.h</text>
</a>
</g>
</g>
<!-- Node2 -->
<g id="Node000002" class="node">
<title>Node2</title>
<g id="a_Node000002"><a xlink:href="childrenkinematics_8h.html" target="_top" xlink:title=" ">
<polygon fill="white" stroke="#666666" points="124.5,-74 5.5,-74 5.5,-55 124.5,-55 124.5,-74"/>
<text text-anchor="middle" x="65" y="-62" font-family="Helvetica,sans-Serif" font-size="10.00">childrenkinematics.h</text>
</a>
</g>
</g>
<!-- Node1&#45;&gt;Node2 -->
<g id="edge1_Node000001_Node000002" class="edge">
<title>Node1&#45;&gt;Node2</title>
<g id="a_edge1_Node000001_Node000002"><a xlink:title=" ">
<path fill="none" stroke="#63b8ff" d="M639.24,-116C551.66,-109.93 323.79,-93.47 134,-74 131,-73.69 127.92,-73.36 124.82,-73.02"/>
<polygon fill="#63b8ff" stroke="#63b8ff" points="639.24,-119.51 649.46,-116.7 639.72,-112.52 639.24,-119.51"/>
</a>
</g>
</g>
<!-- Node4 -->
<g id="Node000004" class="node">
<title>Node4</title>
<g id="a_Node000004"><a xlink:href="combinatorial_8cxx.html" target="_top" xlink:title=" ">
<polygon fill="white" stroke="#666666" points="247,-74 143,-74 143,-55 247,-55 247,-74"/>
<text text-anchor="middle" x="195" y="-62" font-family="Helvetica,sans-Serif" font-size="10.00">combinatorial.cxx</text>
</a>
</g>
</g>
<!-- Node1&#45;&gt;Node4 -->
<g id="edge3_Node000001_Node000004" class="edge">
<title>Node1&#45;&gt;Node4</title>
<g id="a_edge3_Node000001_Node000004"><a xlink:title=" ">
<path fill="none" stroke="#63b8ff" d="M639.37,-115.03C566.35,-108.02 397.51,-91.35 256,-74 253.13,-73.65 250.19,-73.28 247.23,-72.89"/>
<polygon fill="#63b8ff" stroke="#63b8ff" points="639.14,-118.52 649.43,-115.99 639.81,-111.55 639.14,-118.52"/>
</a>
</g>
</g>
<!-- Node5 -->
<g id="Node000005" class="node">
<title>Node5</title>
<g id="a_Node000005"><a xlink:href="decaymodes_8h.html" target="_top" xlink:title=" ">
<polygon fill="white" stroke="#666666" points="353,-74 265,-74 265,-55 353,-55 353,-74"/>
<text text-anchor="middle" x="309" y="-62" font-family="Helvetica,sans-Serif" font-size="10.00">decaymodes.h</text>
</a>
</g>
</g>
<!-- Node1&#45;&gt;Node5 -->
<g id="edge4_Node000001_Node000005" class="edge">
<title>Node1&#45;&gt;Node5</title>
<g id="a_edge4_Node000001_Node000005"><a xlink:title=" ">
<path fill="none" stroke="#63b8ff" d="M639.15,-113.56C580.3,-105.61 461.49,-89.31 361,-74 358.47,-73.61 355.87,-73.21 353.24,-72.8"/>
<polygon fill="#63b8ff" stroke="#63b8ff" points="639.04,-117.08 649.42,-114.94 639.98,-110.14 639.04,-117.08"/>
</a>
</g>
</g>
<!-- Node7 -->
<g id="Node000007" class="node">
<title>Node7</title>
<g id="a_Node000007"><a xlink:href="selections_2mc16_2event_2event_8h.html" target="_top" xlink:title=" ">
<polygon fill="white" stroke="#666666" points="423.5,-74 370.5,-74 370.5,-55 423.5,-55 423.5,-74"/>
<text text-anchor="middle" x="397" y="-62" font-family="Helvetica,sans-Serif" font-size="10.00">event.h</text>
</a>
</g>
</g>
<!-- Node1&#45;&gt;Node7 -->
<g id="edge6_Node000001_Node000007" class="edge">
<title>Node1&#45;&gt;Node7</title>
<g id="a_edge6_Node000001_Node000007"><a xlink:title=" ">
<path fill="none" stroke="#63b8ff" d="M639.29,-112.49C591.43,-104.49 505.18,-89.55 432,-74 429.31,-73.43 426.51,-72.8 423.72,-72.16"/>
<polygon fill="#63b8ff" stroke="#63b8ff" points="638.74,-115.94 649.18,-114.13 639.89,-109.04 638.74,-115.94"/>
</a>
</g>
</g>
<!-- Node9 -->
<g id="Node000009" class="node">
<title>Node9</title>
<g id="a_Node000009"><a xlink:href="bsm__4tops_2include_2bsm__4tops_2graphs_8h.html" target="_top" xlink:title=" ">
<polygon fill="white" stroke="#666666" points="500.5,-74 441.5,-74 441.5,-55 500.5,-55 500.5,-74"/>
<text text-anchor="middle" x="471" y="-62" font-family="Helvetica,sans-Serif" font-size="10.00">graphs.h</text>
</a>
</g>
</g>
<!-- Node1&#45;&gt;Node9 -->
<g id="edge8_Node000001_Node000009" class="edge">
<title>Node1&#45;&gt;Node9</title>
<g id="a_edge8_Node000001_Node000009"><a xlink:title=" ">
<path fill="none" stroke="#63b8ff" d="M639.41,-109.04C599.84,-98.81 537.5,-82.69 500.8,-73.2"/>
<polygon fill="#63b8ff" stroke="#63b8ff" points="638.64,-112.46 649.2,-111.57 640.39,-105.68 638.64,-112.46"/>
</a>
</g>
</g>
<!-- Node10 -->
<g id="Node000010" class="node">
<title>Node10</title>
<g id="a_Node000010"><a xlink:href="mc16__ref_8cxx.html" target="_top" xlink:title=" ">
<polygon fill="white" stroke="#666666" points="601,-74 519,-74 519,-55 601,-55 601,-74"/>
<text text-anchor="middle" x="560" y="-62" font-family="Helvetica,sans-Serif" font-size="10.00">mc16_ref.cxx</text>
</a>
</g>
</g>
<!-- Node1&#45;&gt;Node10 -->
<g id="edge9_Node000001_Node000010" class="edge">
<title>Node1&#45;&gt;Node10</title>
<g id="a_edge9_Node000001_Node000010"><a xlink:title=" ">
<path fill="none" stroke="#63b8ff" d="M648.13,-105.77C626.73,-95.99 597.76,-82.75 578.98,-74.17"/>
<polygon fill="#63b8ff" stroke="#63b8ff" points="646.81,-109.01 657.36,-109.98 649.72,-102.65 646.81,-109.01"/>
</a>
</g>
</g>
<!-- Node11 -->
<g id="Node000011" class="node">
<title>Node11</title>
<g id="a_Node000011"><a xlink:href="met_8h.html" target="_top" xlink:title=" ">
<polygon fill="white" stroke="#666666" points="664.5,-74 619.5,-74 619.5,-55 664.5,-55 664.5,-74"/>
<text text-anchor="middle" x="642" y="-62" font-family="Helvetica,sans-Serif" font-size="10.00">met.h</text>
</a>
</g>
</g>
<!-- Node1&#45;&gt;Node11 -->
<g id="edge10_Node000001_Node000011" class="edge">
<title>Node1&#45;&gt;Node11</title>
<g id="a_edge10_Node000001_Node000011"><a xlink:title=" ">
<path fill="none" stroke="#63b8ff" d="M664.84,-101.1C659.03,-92.04 652.18,-81.37 647.51,-74.09"/>
<polygon fill="#63b8ff" stroke="#63b8ff" points="662.04,-103.22 670.39,-109.75 667.93,-99.44 662.04,-103.22"/>
</a>
</g>
</g>
<!-- Node13 -->
<g id="Node000013" class="node">
<title>Node13</title>
<g id="a_Node000013"><a xlink:href="parton_8h.html" target="_top" xlink:title=" ">
<polygon fill="white" stroke="#666666" points="739.5,-74 682.5,-74 682.5,-55 739.5,-55 739.5,-74"/>
<text text-anchor="middle" x="711" y="-62" font-family="Helvetica,sans-Serif" font-size="10.00">parton.h</text>
</a>
</g>
</g>
<!-- Node1&#45;&gt;Node13 -->
<g id="edge12_Node000001_Node000013" class="edge">
<title>Node1&#45;&gt;Node13</title>
<g id="a_edge12_Node000001_Node000013"><a xlink:title=" ">
<path fill="none" stroke="#63b8ff" d="M687.3,-101.39C693.32,-92.27 700.47,-81.45 705.33,-74.09"/>
<polygon fill="#63b8ff" stroke="#63b8ff" points="684.37,-99.47 681.78,-109.75 690.21,-103.33 684.37,-99.47"/>
</a>
</g>
</g>
<!-- Node15 -->
<g id="Node000015" class="node">
<title>Node15</title>
<g id="a_Node000015"><a xlink:href="topjets_8h.html" target="_top" xlink:title=" ">
<polygon fill="white" stroke="#666666" points="816.5,-74 757.5,-74 757.5,-55 816.5,-55 816.5,-74"/>
<text text-anchor="middle" x="787" y="-62" font-family="Helvetica,sans-Serif" font-size="10.00">topjets.h</text>
</a>
</g>
</g>
<!-- Node1&#45;&gt;Node15 -->
<g id="edge14_Node000001_Node000015" class="edge">
<title>Node1&#45;&gt;Node15</title>
<g id="a_edge14_Node000001_Node000015"><a xlink:title=" ">
<path fill="none" stroke="#63b8ff" d="M702.95,-105.63C723.39,-95.87 750.95,-82.71 768.84,-74.17"/>
<polygon fill="#63b8ff" stroke="#63b8ff" points="701.35,-102.52 693.83,-109.98 704.37,-108.83 701.35,-102.52"/>
</a>
</g>
</g>
<!-- Node17 -->
<g id="Node000017" class="node">
<title>Node17</title>
<g id="a_Node000017"><a xlink:href="mc16_2topkinematics_2topkinematics_8h.html" target="_top" xlink:title=" ">
<polygon fill="white" stroke="#666666" points="929.5,-74 834.5,-74 834.5,-55 929.5,-55 929.5,-74"/>
<text text-anchor="middle" x="882" y="-62" font-family="Helvetica,sans-Serif" font-size="10.00">topkinematics.h</text>
</a>
</g>
</g>
<!-- Node1&#45;&gt;Node17 -->
<g id="edge16_Node000001_Node000017" class="edge">
<title>Node1&#45;&gt;Node17</title>
<g id="a_edge16_Node000001_Node000017"><a xlink:title=" ">
<path fill="none" stroke="#63b8ff" d="M712.3,-109.16C750.89,-99.23 811.41,-83.66 848.78,-74.05"/>
<polygon fill="#63b8ff" stroke="#63b8ff" points="711.32,-105.8 702.51,-111.68 713.07,-112.58 711.32,-105.8"/>
</a>
</g>
</g>
<!-- Node19 -->
<g id="Node000019" class="node">
<title>Node19</title>
<g id="a_Node000019"><a xlink:href="mc16_2topmatching_2topmatching_8h.html" target="_top" xlink:title=" ">
<polygon fill="white" stroke="#666666" points="1034.5,-74 947.5,-74 947.5,-55 1034.5,-55 1034.5,-74"/>
<text text-anchor="middle" x="991" y="-62" font-family="Helvetica,sans-Serif" font-size="10.00">topmatching.h</text>
</a>
</g>
</g>
<!-- Node1&#45;&gt;Node19 -->
<g id="edge18_Node000001_Node000019" class="edge">
<title>Node1&#45;&gt;Node19</title>
<g id="a_edge18_Node000001_Node000019"><a xlink:title=" ">
<path fill="none" stroke="#63b8ff" d="M712.46,-112.37C770.74,-102.56 884.68,-83.39 947.26,-72.86"/>
<polygon fill="#63b8ff" stroke="#63b8ff" points="711.87,-108.92 702.59,-114.03 713.03,-115.82 711.87,-108.92"/>
</a>
</g>
</g>
<!-- Node21 -->
<g id="Node000021" class="node">
<title>Node21</title>
<g id="a_Node000021"><a xlink:href="toptruthjets_8h.html" target="_top" xlink:title=" ">
<polygon fill="white" stroke="#666666" points="1135.5,-74 1052.5,-74 1052.5,-55 1135.5,-55 1135.5,-74"/>
<text text-anchor="middle" x="1094" y="-62" font-family="Helvetica,sans-Serif" font-size="10.00">toptruthjets.h</text>
</a>
</g>
</g>
<!-- Node1&#45;&gt;Node21 -->
<g id="edge20_Node000001_Node000021" class="edge">
<title>Node1&#45;&gt;Node21</title>
<g id="a_edge20_Node000001_Node000021"><a xlink:title=" ">
<path fill="none" stroke="#63b8ff" d="M713.11,-114.55C779.43,-107.37 922.64,-91.32 1043,-74 1046.02,-73.57 1049.14,-73.1 1052.27,-72.61"/>
<polygon fill="#63b8ff" stroke="#63b8ff" points="712.33,-111.12 702.76,-115.67 713.08,-118.08 712.33,-111.12"/>
</a>
</g>
</g>
<!-- Node23 -->
<g id="Node000023" class="node">
<title>Node23</title>
<g id="a_Node000023"><a xlink:href="validation_8cxx.html" target="_top" xlink:title=" ">
<polygon fill="white" stroke="#666666" points="1240,-74 1154,-74 1154,-55 1240,-55 1240,-74"/>
<text text-anchor="middle" x="1197" y="-62" font-family="Helvetica,sans-Serif" font-size="10.00">validation.cxx</text>
</a>
</g>
</g>
<!-- Node1&#45;&gt;Node23 -->
<g id="edge22_Node000001_Node000023" class="edge">
<title>Node1&#45;&gt;Node23</title>
<g id="a_edge22_Node000001_Node000023"><a xlink:title=" ">
<path fill="none" stroke="#63b8ff" d="M713.14,-115.78C792.45,-109.8 984.13,-94.4 1144,-74 1147.24,-73.59 1150.58,-73.13 1153.93,-72.64"/>
<polygon fill="#63b8ff" stroke="#63b8ff" points="712.42,-112.33 702.71,-116.56 712.95,-119.31 712.42,-112.33"/>
</a>
</g>
</g>
<!-- Node24 -->
<g id="Node000024" class="node">
<title>Node24</title>
<g id="a_Node000024"><a xlink:href="mc16_2zprime_2zprime_8h.html" target="_top" xlink:title=" ">
<polygon fill="white" stroke="#666666" points="1317.5,-74 1258.5,-74 1258.5,-55 1317.5,-55 1317.5,-74"/>
<text text-anchor="middle" x="1288" y="-62" font-family="Helvetica,sans-Serif" font-size="10.00">zprime.h</text>
</a>
</g>
</g>
<!-- Node1&#45;&gt;Node24 -->
<g id="edge23_Node000001_Node000024" class="edge">
<title>Node1&#45;&gt;Node24</title>
<g id="a_edge23_Node000001_Node000024"><a xlink:title=" ">
<path fill="none" stroke="#63b8ff" d="M712.82,-117.39C804.08,-114.26 1047.93,-103.58 1249,-74 1252.02,-73.56 1255.15,-73.01 1258.27,-72.42"/>
<polygon fill="#63b8ff" stroke="#63b8ff" points="712.58,-113.9 702.71,-117.73 712.82,-120.89 712.58,-113.9"/>
</a>
</g>
</g>
<!-- Node3 -->
<g id="Node000003" class="node">
<title>Node3</title>
<g id="a_Node000003"><a xlink:href="childrenkinematics_8cxx.html" target="_top" xlink:title=" ">
<polygon fill="white" stroke="#666666" points="130,-19 0,-19 0,0 130,0 130,-19"/>
<text text-anchor="middle" x="65" y="-7" font-family="Helvetica,sans-Serif" font-size="10.00">childrenkinematics.cxx</text>
</a>
</g>
</g>
<!-- Node2&#45;&gt;Node3 -->
<g id="edge2_Node000002_Node000003" class="edge">
<title>Node2&#45;&gt;Node3</title>
<g id="a_edge2_Node000002_Node000003"><a xlink:title=" ">
<path fill="none" stroke="#63b8ff" d="M65,-44.66C65,-35.93 65,-25.99 65,-19.09"/>
<polygon fill="#63b8ff" stroke="#63b8ff" points="61.5,-44.75 65,-54.75 68.5,-44.75 61.5,-44.75"/>
</a>
</g>
</g>
<!-- Node6 -->
<g id="Node000006" class="node">
<title>Node6</title>
<g id="a_Node000006"><a xlink:href="decaymodes_8cxx.html" target="_top" xlink:title=" ">
<polygon fill="white" stroke="#666666" points="352.5,-19 253.5,-19 253.5,0 352.5,0 352.5,-19"/>
<text text-anchor="middle" x="303" y="-7" font-family="Helvetica,sans-Serif" font-size="10.00">decaymodes.cxx</text>
</a>
</g>
</g>
<!-- Node5&#45;&gt;Node6 -->
<g id="edge5_Node000005_Node000006" class="edge">
<title>Node5&#45;&gt;Node6</title>
<g id="a_edge5_Node000005_Node000006"><a xlink:title=" ">
<path fill="none" stroke="#63b8ff" d="M306.87,-44.66C305.88,-35.93 304.75,-25.99 303.97,-19.09"/>
<polygon fill="#63b8ff" stroke="#63b8ff" points="303.41,-45.21 308.01,-54.75 310.36,-44.42 303.41,-45.21"/>
</a>
</g>
</g>
<!-- Node8 -->
<g id="Node000008" class="node">
<title>Node8</title>
<g id="a_Node000008"><a xlink:href="selections_2mc16_2event_2event_8cxx.html" target="_top" xlink:title=" ">
<polygon fill="white" stroke="#666666" points="435.5,-19 370.5,-19 370.5,0 435.5,0 435.5,-19"/>
<text text-anchor="middle" x="403" y="-7" font-family="Helvetica,sans-Serif" font-size="10.00">event.cxx</text>
</a>
</g>
</g>
<!-- Node7&#45;&gt;Node8 -->
<g id="edge7_Node000007_Node000008" class="edge">
<title>Node7&#45;&gt;Node8</title>
<g id="a_edge7_Node000007_Node000008"><a xlink:title=" ">
<path fill="none" stroke="#63b8ff" d="M399.13,-44.66C400.12,-35.93 401.25,-25.99 402.03,-19.09"/>
<polygon fill="#63b8ff" stroke="#63b8ff" points="395.64,-44.42 397.99,-54.75 402.59,-45.21 395.64,-44.42"/>
</a>
</g>
</g>
<!-- Node12 -->
<g id="Node000012" class="node">
<title>Node12</title>
<g id="a_Node000012"><a xlink:href="met_8cxx.html" target="_top" xlink:title=" ">
<polygon fill="white" stroke="#666666" points="641,-19 585,-19 585,0 641,0 641,-19"/>
<text text-anchor="middle" x="613" y="-7" font-family="Helvetica,sans-Serif" font-size="10.00">met.cxx</text>
</a>
</g>
</g>
<!-- Node11&#45;&gt;Node12 -->
<g id="edge11_Node000011_Node000012" class="edge">
<title>Node11&#45;&gt;Node12</title>
<g id="a_edge11_Node000011_Node000012"><a xlink:title=" ">
<path fill="none" stroke="#63b8ff" d="M632.32,-45.82C627.4,-36.82 621.64,-26.29 617.7,-19.09"/>
<polygon fill="#63b8ff" stroke="#63b8ff" points="629.34,-47.66 637.21,-54.75 635.48,-44.3 629.34,-47.66"/>
</a>
</g>
</g>
<!-- Node14 -->
<g id="Node000014" class="node">
<title>Node14</title>
<g id="a_Node000014"><a xlink:href="parton_8cxx.html" target="_top" xlink:title=" ">
<polygon fill="white" stroke="#666666" points="727,-19 659,-19 659,0 727,0 727,-19"/>
<text text-anchor="middle" x="693" y="-7" font-family="Helvetica,sans-Serif" font-size="10.00">parton.cxx</text>
</a>
</g>
</g>
<!-- Node13&#45;&gt;Node14 -->
<g id="edge13_Node000013_Node000014" class="edge">
<title>Node13&#45;&gt;Node14</title>
<g id="a_edge13_Node000013_Node000014"><a xlink:title=" ">
<path fill="none" stroke="#63b8ff" d="M704.8,-45.24C701.79,-36.37 698.31,-26.14 695.92,-19.09"/>
<polygon fill="#63b8ff" stroke="#63b8ff" points="701.5,-46.4 708.03,-54.75 708.13,-44.15 701.5,-46.4"/>
</a>
</g>
</g>
<!-- Node16 -->
<g id="Node000016" class="node">
<title>Node16</title>
<g id="a_Node000016"><a xlink:href="topjets_8cxx.html" target="_top" xlink:title=" ">
<polygon fill="white" stroke="#666666" points="816.5,-19 745.5,-19 745.5,0 816.5,0 816.5,-19"/>
<text text-anchor="middle" x="781" y="-7" font-family="Helvetica,sans-Serif" font-size="10.00">topjets.cxx</text>
</a>
</g>
</g>
<!-- Node15&#45;&gt;Node16 -->
<g id="edge15_Node000015_Node000016" class="edge">
<title>Node15&#45;&gt;Node16</title>
<g id="a_edge15_Node000015_Node000016"><a xlink:title=" ">
<path fill="none" stroke="#63b8ff" d="M784.87,-44.66C783.88,-35.93 782.75,-25.99 781.97,-19.09"/>
<polygon fill="#63b8ff" stroke="#63b8ff" points="781.41,-45.21 786.01,-54.75 788.36,-44.42 781.41,-45.21"/>
</a>
</g>
</g>
<!-- Node18 -->
<g id="Node000018" class="node">
<title>Node18</title>
<g id="a_Node000018"><a xlink:href="mc16_2topkinematics_2topkinematics_8cxx.html" target="_top" xlink:title=" ">
<polygon fill="white" stroke="#666666" points="941.5,-19 834.5,-19 834.5,0 941.5,0 941.5,-19"/>
<text text-anchor="middle" x="888" y="-7" font-family="Helvetica,sans-Serif" font-size="10.00">topkinematics.cxx</text>
</a>
</g>
</g>
<!-- Node17&#45;&gt;Node18 -->
<g id="edge17_Node000017_Node000018" class="edge">
<title>Node17&#45;&gt;Node18</title>
<g id="a_edge17_Node000017_Node000018"><a xlink:title=" ">
<path fill="none" stroke="#63b8ff" d="M884.13,-44.66C885.12,-35.93 886.25,-25.99 887.03,-19.09"/>
<polygon fill="#63b8ff" stroke="#63b8ff" points="880.64,-44.42 882.99,-54.75 887.59,-45.21 880.64,-44.42"/>
</a>
</g>
</g>
<!-- Node20 -->
<g id="Node000020" class="node">
<title>Node20</title>
<g id="a_Node000020"><a xlink:href="mc16_2topmatching_2topmatching_8cxx.html" target="_top" xlink:title=" ">
<polygon fill="white" stroke="#666666" points="1058,-19 960,-19 960,0 1058,0 1058,-19"/>
<text text-anchor="middle" x="1009" y="-7" font-family="Helvetica,sans-Serif" font-size="10.00">topmatching.cxx</text>
</a>
</g>
</g>
<!-- Node19&#45;&gt;Node20 -->
<g id="edge19_Node000019_Node000020" class="edge">
<title>Node19&#45;&gt;Node20</title>
<g id="a_edge19_Node000019_Node000020"><a xlink:title=" ">
<path fill="none" stroke="#63b8ff" d="M997.2,-45.24C1000.21,-36.37 1003.69,-26.14 1006.08,-19.09"/>
<polygon fill="#63b8ff" stroke="#63b8ff" points="993.87,-44.15 993.97,-54.75 1000.5,-46.4 993.87,-44.15"/>
</a>
</g>
</g>
<!-- Node22 -->
<g id="Node000022" class="node">
<title>Node22</title>
<g id="a_Node000022"><a xlink:href="toptruthjets_8cxx.html" target="_top" xlink:title=" ">
<polygon fill="white" stroke="#666666" points="1170,-19 1076,-19 1076,0 1170,0 1170,-19"/>
<text text-anchor="middle" x="1123" y="-7" font-family="Helvetica,sans-Serif" font-size="10.00">toptruthjets.cxx</text>
</a>
</g>
</g>
<!-- Node21&#45;&gt;Node22 -->
<g id="edge21_Node000021_Node000022" class="edge">
<title>Node21&#45;&gt;Node22</title>
<g id="a_edge21_Node000021_Node000022"><a xlink:title=" ">
<path fill="none" stroke="#63b8ff" d="M1103.68,-45.82C1108.6,-36.82 1114.36,-26.29 1118.3,-19.09"/>
<polygon fill="#63b8ff" stroke="#63b8ff" points="1100.52,-44.3 1098.79,-54.75 1106.66,-47.66 1100.52,-44.3"/>
</a>
</g>
</g>
<!-- Node25 -->
<g id="Node000025" class="node">
<title>Node25</title>
<g id="a_Node000025"><a xlink:href="mc16_2zprime_2zprime_8cxx.html" target="_top" xlink:title=" ">
<polygon fill="white" stroke="#666666" points="1323.5,-19 1252.5,-19 1252.5,0 1323.5,0 1323.5,-19"/>
<text text-anchor="middle" x="1288" y="-7" font-family="Helvetica,sans-Serif" font-size="10.00">zprime.cxx</text>
</a>
</g>
</g>
<!-- Node24&#45;&gt;Node25 -->
<g id="edge24_Node000024_Node000025" class="edge">
<title>Node24&#45;&gt;Node25</title>
<g id="a_edge24_Node000024_Node000025"><a xlink:title=" ">
<path fill="none" stroke="#63b8ff" d="M1288,-44.66C1288,-35.93 1288,-25.99 1288,-19.09"/>
<polygon fill="#63b8ff" stroke="#63b8ff" points="1284.5,-44.75 1288,-54.75 1291.5,-44.75 1284.5,-44.75"/>
</a>
</g>
</g>
</g>
</svg>
