<?xml version="1.0" encoding="UTF-8" standalone="no"?>
<!DOCTYPE svg PUBLIC "-//W3C//DTD SVG 1.1//EN"
 "http://www.w3.org/Graphics/SVG/1.1/DTD/svg11.dtd">
<!-- Generated by graphviz version 2.43.0 (0)
 -->
<!-- Title: event_template.h Pages: 1 -->
<svg width="1864pt" height="313pt"
 viewBox="0.00 0.00 1863.51 313.00" xmlns="http://www.w3.org/2000/svg" xmlns:xlink="http://www.w3.org/1999/xlink">
<g id="graph0" class="graph" transform="scale(1 1) rotate(0) translate(4 309)">
<title>event_template.h</title>
<!-- Node1 -->
<g id="Node000001" class="node">
<title>Node1</title>
<g id="a_Node000001"><a xlink:title="Defines the base template class for event data representation and manipulation.">
<polygon fill="#999999" stroke="#666666" points="791,-305 688,-305 688,-286 791,-286 791,-305"/>
<text text-anchor="middle" x="739.5" y="-293" font-family="Helvetica,sans-Serif" font-size="10.00">event_template.h</text>
</a>
</g>
</g>
<!-- Node2 -->
<g id="Node000002" class="node">
<title>Node2</title>
<g id="a_Node000002"><a xlink:href="particle__template_8h.html" target="_top" xlink:title="Defines the particle_template base class for physics particle representations.">
<polygon fill="white" stroke="#666666" points="733.5,-250 627.5,-250 627.5,-220 733.5,-220 733.5,-250"/>
<text text-anchor="start" x="635.5" y="-238" font-family="Helvetica,sans-Serif" font-size="10.00">templates/particle</text>
<text text-anchor="middle" x="680.5" y="-227" font-family="Helvetica,sans-Serif" font-size="10.00">_template.h</text>
</a>
</g>
</g>
<!-- Node1&#45;&gt;Node2 -->
<g id="edge1_Node000001_Node000002" class="edge">
<title>Node1&#45;&gt;Node2</title>
<g id="a_edge1_Node000001_Node000002"><a xlink:title=" ">
<path fill="none" stroke="#63b8ff" d="M730.79,-285.87C723.23,-278.37 711.96,-267.2 702.01,-257.33"/>
<polygon fill="#63b8ff" stroke="#63b8ff" points="704.3,-254.67 694.74,-250.11 699.37,-259.64 704.3,-254.67"/>
</a>
</g>
</g>
<!-- Node7 -->
<g id="Node000007" class="node">
<title>Node7</title>
<g id="a_Node000007"><a xlink:href="property_8h.html" target="_top" xlink:title="Defines the cproperty template class for property&#45;based access patterns.">
<polygon fill="white" stroke="#666666" points="101,-74 0,-74 0,-55 101,-55 101,-74"/>
<text text-anchor="middle" x="50.5" y="-62" font-family="Helvetica,sans-Serif" font-size="10.00">structs/property.h</text>
</a>
</g>
</g>
<!-- Node1&#45;&gt;Node7 -->
<g id="edge48_Node000001_Node000007" class="edge">
<title>Node1&#45;&gt;Node7</title>
<g id="a_edge48_Node000001_Node000007"><a xlink:title=" ">
<path fill="none" stroke="#63b8ff" d="M687.88,-289.89C632.89,-284.08 543.72,-272.07 469.5,-250 312.97,-203.45 137.82,-112.78 74.75,-78.79"/>
<polygon fill="#63b8ff" stroke="#63b8ff" points="76.4,-75.71 65.94,-74.02 73.06,-81.86 76.4,-75.71"/>
</a>
</g>
</g>
<!-- Node9 -->
<g id="Node000009" class="node">
<title>Node9</title>
<g id="a_Node000009"><a xlink:href="element_8h.html" target="_top" xlink:title=" ">
<polygon fill="white" stroke="#666666" points="1135.5,-184 1033.5,-184 1033.5,-165 1135.5,-165 1135.5,-184"/>
<text text-anchor="middle" x="1084.5" y="-172" font-family="Helvetica,sans-Serif" font-size="10.00">structs/element.h</text>
</a>
</g>
</g>
<!-- Node1&#45;&gt;Node9 -->
<g id="edge49_Node000001_Node000009" class="edge">
<title>Node1&#45;&gt;Node9</title>
<g id="a_edge49_Node000001_Node000009"><a xlink:title=" ">
<path fill="none" stroke="#63b8ff" d="M775.03,-285.93C807.89,-277.71 857.94,-264.45 900.5,-250 956.58,-230.97 1020.28,-203.92 1056.1,-188.19"/>
<polygon fill="#63b8ff" stroke="#63b8ff" points="1057.7,-191.31 1065.44,-184.07 1054.87,-184.91 1057.7,-191.31"/>
</a>
</g>
</g>
<!-- Node23 -->
<g id="Node000023" class="node">
<title>Node23</title>
<g id="a_Node000023"><a xlink:href="tools_8h.html" target="_top" xlink:title="Defines the tools class that provides general utility functions for the AnalysisG framework.">
<polygon fill="white" stroke="#666666" points="955,-74 878,-74 878,-55 955,-55 955,-74"/>
<text text-anchor="middle" x="916.5" y="-62" font-family="Helvetica,sans-Serif" font-size="10.00">tools/tools.h</text>
</a>
</g>
</g>
<!-- Node1&#45;&gt;Node23 -->
<g id="edge53_Node000001_Node000023" class="edge">
<title>Node1&#45;&gt;Node23</title>
<g id="a_edge53_Node000001_Node000023"><a xlink:title=" ">
<path fill="none" stroke="#63b8ff" d="M746.22,-285.8C772.51,-251.8 868.6,-127.47 903.62,-82.16"/>
<polygon fill="#63b8ff" stroke="#63b8ff" points="906.42,-84.26 909.77,-74.21 900.89,-79.98 906.42,-84.26"/>
</a>
</g>
</g>
<!-- Node28 -->
<g id="Node000028" class="node">
<title>Node28</title>
<g id="a_Node000028"><a xlink:href="modules_2structs_2include_2structs_2event_8h.html" target="_top" xlink:title=" ">
<polygon fill="white" stroke="#666666" points="247,-74 158,-74 158,-55 247,-55 247,-74"/>
<text text-anchor="middle" x="202.5" y="-62" font-family="Helvetica,sans-Serif" font-size="10.00">structs/event.h</text>
</a>
</g>
</g>
<!-- Node1&#45;&gt;Node28 -->
<g id="edge50_Node000001_Node000028" class="edge">
<title>Node1&#45;&gt;Node28</title>
<g id="a_edge50_Node000001_Node000028"><a xlink:title=" ">
<path fill="none" stroke="#63b8ff" d="M699.71,-285.99C632.47,-270.77 492.97,-235.58 383.5,-184 320.14,-154.15 253.05,-104.91 221.28,-80.37"/>
<polygon fill="#63b8ff" stroke="#63b8ff" points="223.33,-77.53 213.29,-74.14 219.03,-83.05 223.33,-77.53"/>
</a>
</g>
</g>
<!-- Node29 -->
<g id="Node000029" class="node">
<title>Node29</title>
<g id="a_Node000029"><a xlink:href="meta_2include_2meta_2meta_8h.html" target="_top" xlink:title="Handles metadata operations and provides utilities for managing metadata&#45;related tasks.">
<polygon fill="white" stroke="#666666" points="820.5,-129 740.5,-129 740.5,-110 820.5,-110 820.5,-129"/>
<text text-anchor="middle" x="780.5" y="-117" font-family="Helvetica,sans-Serif" font-size="10.00">meta/meta.h</text>
</a>
</g>
</g>
<!-- Node1&#45;&gt;Node29 -->
<g id="edge54_Node000001_Node000029" class="edge">
<title>Node1&#45;&gt;Node29</title>
<g id="a_edge54_Node000001_Node000029"><a xlink:title=" ">
<path fill="none" stroke="#63b8ff" d="M741.59,-285.63C747.98,-258.52 767.35,-176.32 776.11,-139.13"/>
<polygon fill="#63b8ff" stroke="#63b8ff" points="779.58,-139.68 778.46,-129.14 772.76,-138.07 779.58,-139.68"/>
</a>
</g>
</g>
<!-- Node3 -->
<g id="Node000003" class="node">
<title>Node3</title>
<g id="a_Node000003"><a xlink:href="modules_2structs_2include_2structs_2particles_8h.html" target="_top" xlink:title=" ">
<polygon fill="white" stroke="#666666" points="1482.5,-74 1378.5,-74 1378.5,-55 1482.5,-55 1482.5,-74"/>
<text text-anchor="middle" x="1430.5" y="-62" font-family="Helvetica,sans-Serif" font-size="10.00">structs/particles.h</text>
</a>
</g>
</g>
<!-- Node2&#45;&gt;Node3 -->
<g id="edge2_Node000002_Node000003" class="edge">
<title>Node2&#45;&gt;Node3</title>
<g id="a_edge2_Node000002_Node000003"><a xlink:title=" ">
<path fill="none" stroke="#63b8ff" d="M733.8,-231.1C820.52,-225.74 997.28,-212.18 1144.5,-184 1234.2,-166.83 1260.18,-168.56 1342.5,-129 1369.11,-116.21 1396.11,-95.29 1413.06,-80.98"/>
<polygon fill="#63b8ff" stroke="#63b8ff" points="1415.66,-83.36 1420.95,-74.18 1411.09,-78.06 1415.66,-83.36"/>
</a>
</g>
</g>
<!-- Node4 -->
<g id="Node000004" class="node">
<title>Node4</title>
<g id="a_Node000004"><a xlink:title=" ">
<polygon fill="#e0e0e0" stroke="#999999" points="856.5,-19 812.5,-19 812.5,0 856.5,0 856.5,-19"/>
<text text-anchor="middle" x="834.5" y="-7" font-family="Helvetica,sans-Serif" font-size="10.00">string</text>
</a>
</g>
</g>
<!-- Node2&#45;&gt;Node4 -->
<g id="edge45_Node000002_Node000004" class="edge">
<title>Node2&#45;&gt;Node4</title>
<g id="a_edge45_Node000002_Node000004"><a xlink:title=" ">
<path fill="none" stroke="#63b8ff" d="M627.33,-226.85C508.75,-208.9 240.07,-155.99 332.5,-55 364.23,-20.33 696.35,-12.51 802.25,-10.89"/>
<polygon fill="#63b8ff" stroke="#63b8ff" points="802.39,-14.39 812.34,-10.75 802.29,-7.39 802.39,-14.39"/>
</a>
</g>
</g>
<!-- Node2&#45;&gt;Node7 -->
<g id="edge6_Node000002_Node000007" class="edge">
<title>Node2&#45;&gt;Node7</title>
<g id="a_edge6_Node000002_Node000007"><a xlink:title=" ">
<path fill="none" stroke="#63b8ff" d="M627.27,-234.02C509.82,-233.26 232.39,-226.84 150.5,-184 106.72,-161.1 74.31,-110.12 59.47,-83.1"/>
<polygon fill="#63b8ff" stroke="#63b8ff" points="62.44,-81.22 54.66,-74.02 56.26,-84.5 62.44,-81.22"/>
</a>
</g>
</g>
<!-- Node2&#45;&gt;Node9 -->
<g id="edge9_Node000002_Node000009" class="edge">
<title>Node2&#45;&gt;Node9</title>
<g id="a_edge9_Node000002_Node000009"><a xlink:title=" ">
<path fill="none" stroke="#63b8ff" d="M733.73,-226.29C808.47,-215.47 944.2,-195.82 1023.11,-184.39"/>
<polygon fill="#63b8ff" stroke="#63b8ff" points="1023.99,-187.8 1033.38,-182.9 1022.99,-180.87 1023.99,-187.8"/>
</a>
</g>
</g>
<!-- Node19 -->
<g id="Node000019" class="node">
<title>Node19</title>
<g id="a_Node000019"><a xlink:title=" ">
<polygon fill="#e0e0e0" stroke="#999999" points="511.5,-19 451.5,-19 451.5,0 511.5,0 511.5,-19"/>
<text text-anchor="middle" x="481.5" y="-7" font-family="Helvetica,sans-Serif" font-size="10.00">iostream</text>
</a>
</g>
</g>
<!-- Node2&#45;&gt;Node19 -->
<g id="edge43_Node000002_Node000019" class="edge">
<title>Node2&#45;&gt;Node19</title>
<g id="a_edge43_Node000002_Node000019"><a xlink:title=" ">
<path fill="none" stroke="#63b8ff" d="M627.45,-229.44C567.25,-223.27 466.61,-209.92 383.5,-184 273.41,-149.67 210.39,-171.31 148.5,-74 143.97,-66.87 142.94,-61.35 148.5,-55 167.54,-33.25 356.83,-18.5 441.24,-12.95"/>
<polygon fill="#63b8ff" stroke="#63b8ff" points="441.72,-16.43 451.47,-12.29 441.27,-9.44 441.72,-16.43"/>
</a>
</g>
</g>
<!-- Node2&#45;&gt;Node23 -->
<g id="edge37_Node000002_Node000023" class="edge">
<title>Node2&#45;&gt;Node23</title>
<g id="a_edge37_Node000002_Node000023"><a xlink:title=" ">
<path fill="none" stroke="#63b8ff" d="M704.32,-219.89C720.42,-210.17 742.03,-196.75 760.5,-184 811.49,-148.81 868.9,-103.7 897.78,-80.61"/>
<polygon fill="#63b8ff" stroke="#63b8ff" points="900.17,-83.17 905.78,-74.18 895.79,-77.71 900.17,-83.17"/>
</a>
</g>
</g>
<!-- Node25 -->
<g id="Node000025" class="node">
<title>Node25</title>
<g id="a_Node000025"><a xlink:title=" ">
<polygon fill="#e0e0e0" stroke="#999999" points="619.5,-184 563.5,-184 563.5,-165 619.5,-165 619.5,-184"/>
<text text-anchor="middle" x="591.5" y="-172" font-family="Helvetica,sans-Serif" font-size="10.00">sstream</text>
</a>
</g>
</g>
<!-- Node2&#45;&gt;Node25 -->
<g id="edge44_Node000002_Node000025" class="edge">
<title>Node2&#45;&gt;Node25</title>
<g id="a_edge44_Node000002_Node000025"><a xlink:title=" ">
<path fill="none" stroke="#63b8ff" d="M658.96,-219.84C645.03,-210.68 626.97,-198.82 613.05,-189.66"/>
<polygon fill="#63b8ff" stroke="#63b8ff" points="614.85,-186.66 604.58,-184.09 611.01,-192.51 614.85,-186.66"/>
</a>
</g>
</g>
<!-- Node26 -->
<g id="Node000026" class="node">
<title>Node26</title>
<g id="a_Node000026"><a xlink:title=" ">
<polygon fill="#e0e0e0" stroke="#999999" points="687,-184 638,-184 638,-165 687,-165 687,-184"/>
<text text-anchor="middle" x="662.5" y="-172" font-family="Helvetica,sans-Serif" font-size="10.00">cstdlib</text>
</a>
</g>
</g>
<!-- Node2&#45;&gt;Node26 -->
<g id="edge46_Node000002_Node000026" class="edge">
<title>Node2&#45;&gt;Node26</title>
<g id="a_edge46_Node000002_Node000026"><a xlink:title=" ">
<path fill="none" stroke="#63b8ff" d="M676.14,-219.84C673.74,-212.04 670.74,-202.27 668.16,-193.89"/>
<polygon fill="#63b8ff" stroke="#63b8ff" points="671.48,-192.79 665.2,-184.27 664.79,-194.85 671.48,-192.79"/>
</a>
</g>
</g>
<!-- Node27 -->
<g id="Node000027" class="node">
<title>Node27</title>
<g id="a_Node000027"><a xlink:title=" ">
<polygon fill="#e0e0e0" stroke="#999999" points="752,-184 705,-184 705,-165 752,-165 752,-184"/>
<text text-anchor="middle" x="728.5" y="-172" font-family="Helvetica,sans-Serif" font-size="10.00">cmath</text>
</a>
</g>
</g>
<!-- Node2&#45;&gt;Node27 -->
<g id="edge47_Node000002_Node000027" class="edge">
<title>Node2&#45;&gt;Node27</title>
<g id="a_edge47_Node000002_Node000027"><a xlink:title=" ">
<path fill="none" stroke="#63b8ff" d="M692.12,-219.84C698.94,-211.52 707.61,-200.96 714.77,-192.23"/>
<polygon fill="#63b8ff" stroke="#63b8ff" points="717.67,-194.22 721.31,-184.27 712.26,-189.78 717.67,-194.22"/>
</a>
</g>
</g>
<!-- Node3&#45;&gt;Node4 -->
<g id="edge3_Node000003_Node000004" class="edge">
<title>Node3&#45;&gt;Node4</title>
<g id="a_edge3_Node000003_Node000004"><a xlink:title=" ">
<path fill="none" stroke="#63b8ff" d="M1378.28,-56C1375.31,-55.64 1372.37,-55.31 1369.5,-55 1153.69,-32.01 1097.85,-45.96 882.5,-19 877.51,-18.38 872.26,-17.58 867.13,-16.74"/>
<polygon fill="#63b8ff" stroke="#63b8ff" points="867.35,-13.22 856.89,-14.95 866.14,-20.12 867.35,-13.22"/>
</a>
</g>
</g>
<!-- Node5 -->
<g id="Node000005" class="node">
<title>Node5</title>
<g id="a_Node000005"><a xlink:title=" ">
<polygon fill="#e0e0e0" stroke="#999999" points="1586,-19 1539,-19 1539,0 1586,0 1586,-19"/>
<text text-anchor="middle" x="1562.5" y="-7" font-family="Helvetica,sans-Serif" font-size="10.00">vector</text>
</a>
</g>
</g>
<!-- Node3&#45;&gt;Node5 -->
<g id="edge4_Node000003_Node000005" class="edge">
<title>Node3&#45;&gt;Node5</title>
<g id="a_edge4_Node000003_Node000005"><a xlink:title=" ">
<path fill="none" stroke="#63b8ff" d="M1451.71,-54.98C1473.23,-46.34 1506.78,-32.87 1531.33,-23.02"/>
<polygon fill="#63b8ff" stroke="#63b8ff" points="1532.93,-26.14 1540.91,-19.17 1530.32,-19.65 1532.93,-26.14"/>
</a>
</g>
</g>
<!-- Node6 -->
<g id="Node000006" class="node">
<title>Node6</title>
<g id="a_Node000006"><a xlink:title=" ">
<polygon fill="#e0e0e0" stroke="#999999" points="1299.5,-19 1261.5,-19 1261.5,0 1299.5,0 1299.5,-19"/>
<text text-anchor="middle" x="1280.5" y="-7" font-family="Helvetica,sans-Serif" font-size="10.00">map</text>
</a>
</g>
</g>
<!-- Node3&#45;&gt;Node6 -->
<g id="edge5_Node000003_Node000006" class="edge">
<title>Node3&#45;&gt;Node6</title>
<g id="a_edge5_Node000003_Node000006"><a xlink:title=" ">
<path fill="none" stroke="#63b8ff" d="M1406.4,-54.98C1379.99,-45.65 1337.65,-30.69 1309.46,-20.73"/>
<polygon fill="#63b8ff" stroke="#63b8ff" points="1310.37,-17.34 1299.77,-17.31 1308.03,-23.94 1310.37,-17.34"/>
</a>
</g>
</g>
<!-- Node7&#45;&gt;Node4 -->
<g id="edge8_Node000007_Node000004" class="edge">
<title>Node7&#45;&gt;Node4</title>
<g id="a_edge8_Node000007_Node000004"><a xlink:title=" ">
<path fill="none" stroke="#63b8ff" d="M101.09,-58.9C116.33,-57.57 133.09,-56.17 148.5,-55 399.99,-35.94 703.75,-18.02 802.1,-12.35"/>
<polygon fill="#63b8ff" stroke="#63b8ff" points="802.5,-15.83 812.28,-11.77 802.09,-8.85 802.5,-15.83"/>
</a>
</g>
</g>
<!-- Node8 -->
<g id="Node000008" class="node">
<title>Node8</title>
<g id="a_Node000008"><a xlink:title=" ">
<polygon fill="#e0e0e0" stroke="#999999" points="83,-19 18,-19 18,0 83,0 83,-19"/>
<text text-anchor="middle" x="50.5" y="-7" font-family="Helvetica,sans-Serif" font-size="10.00">functional</text>
</a>
</g>
</g>
<!-- Node7&#45;&gt;Node8 -->
<g id="edge7_Node000007_Node000008" class="edge">
<title>Node7&#45;&gt;Node8</title>
<g id="a_edge7_Node000007_Node000008"><a xlink:title=" ">
<path fill="none" stroke="#63b8ff" d="M50.5,-54.75C50.5,-47.8 50.5,-37.85 50.5,-29.13"/>
<polygon fill="#63b8ff" stroke="#63b8ff" points="54,-29.09 50.5,-19.09 47,-29.09 54,-29.09"/>
</a>
</g>
</g>
<!-- Node9&#45;&gt;Node4 -->
<g id="edge34_Node000009_Node000004" class="edge">
<title>Node9&#45;&gt;Node4</title>
<g id="a_edge34_Node000009_Node000004"><a xlink:title=" ">
<path fill="none" stroke="#63b8ff" d="M1063.8,-164.81C1039.7,-153.41 1005.04,-132.23 1020.5,-110 1048.8,-69.31 1149.78,-92.6 1117.5,-55 1083.09,-14.91 934.63,-27.61 882.5,-19 877.54,-18.18 872.3,-17.29 867.18,-16.39"/>
<polygon fill="#63b8ff" stroke="#63b8ff" points="867.4,-12.88 856.95,-14.59 866.19,-19.77 867.4,-12.88"/>
</a>
</g>
</g>
<!-- Node9&#45;&gt;Node5 -->
<g id="edge35_Node000009_Node000005" class="edge">
<title>Node9&#45;&gt;Node5</title>
<g id="a_edge35_Node000009_Node000005"><a xlink:title=" ">
<path fill="none" stroke="#63b8ff" d="M1135.85,-173.33C1238.25,-172.17 1474.76,-165.38 1669.5,-129 1752.56,-113.48 1801.13,-141.85 1851.5,-74 1856.53,-67.22 1857,-61.41 1851.5,-55 1835.04,-35.81 1669.21,-19.54 1596.43,-13.27"/>
<polygon fill="#63b8ff" stroke="#63b8ff" points="1596.66,-9.77 1586.4,-12.41 1596.07,-16.75 1596.66,-9.77"/>
</a>
</g>
</g>
<!-- Node9&#45;&gt;Node6 -->
<g id="edge36_Node000009_Node000006" class="edge">
<title>Node9&#45;&gt;Node6</title>
<g id="a_edge36_Node000009_Node000006"><a xlink:title=" ">
<path fill="none" stroke="#63b8ff" d="M1135.74,-167.85C1184.26,-161.37 1252.2,-148.98 1269.5,-129 1293.53,-101.24 1289.5,-54.92 1284.79,-29.18"/>
<polygon fill="#63b8ff" stroke="#63b8ff" points="1288.18,-28.33 1282.74,-19.24 1281.33,-29.74 1288.18,-28.33"/>
</a>
</g>
</g>
<!-- Node10 -->
<g id="Node000010" class="node">
<title>Node10</title>
<g id="a_Node000010"><a xlink:title=" ">
<polygon fill="#e0e0e0" stroke="#999999" points="391,-74 342,-74 342,-55 391,-55 391,-74"/>
<text text-anchor="middle" x="366.5" y="-62" font-family="Helvetica,sans-Serif" font-size="10.00">TFile.h</text>
</a>
</g>
</g>
<!-- Node9&#45;&gt;Node10 -->
<g id="edge10_Node000009_Node000010" class="edge">
<title>Node9&#45;&gt;Node10</title>
<g id="a_edge10_Node000009_Node000010"><a xlink:title=" ">
<path fill="none" stroke="#63b8ff" d="M1033.08,-168.17C920.21,-156 642.34,-123.53 401.33,-74.02"/>
<polygon fill="#63b8ff" stroke="#63b8ff" points="401.83,-70.55 391.33,-71.95 400.41,-77.41 401.83,-70.55"/>
</a>
</g>
</g>
<!-- Node11 -->
<g id="Node000011" class="node">
<title>Node11</title>
<g id="a_Node000011"><a xlink:title=" ">
<polygon fill="#e0e0e0" stroke="#999999" points="1360.5,-74 1308.5,-74 1308.5,-55 1360.5,-55 1360.5,-74"/>
<text text-anchor="middle" x="1334.5" y="-62" font-family="Helvetica,sans-Serif" font-size="10.00">TTree.h</text>
</a>
</g>
</g>
<!-- Node9&#45;&gt;Node11 -->
<g id="edge11_Node000009_Node000011" class="edge">
<title>Node9&#45;&gt;Node11</title>
<g id="a_edge11_Node000009_Node000011"><a xlink:title=" ">
<path fill="none" stroke="#63b8ff" d="M1135.76,-170.78C1198.32,-166.36 1298.93,-155.27 1324.5,-129 1335.8,-117.39 1337.5,-98.52 1336.85,-84.37"/>
<polygon fill="#63b8ff" stroke="#63b8ff" points="1340.33,-83.91 1335.97,-74.25 1333.35,-84.52 1340.33,-83.91"/>
</a>
</g>
</g>
<!-- Node12 -->
<g id="Node000012" class="node">
<title>Node12</title>
<g id="a_Node000012"><a xlink:title=" ">
<polygon fill="#e0e0e0" stroke="#999999" points="1038,-74 973,-74 973,-55 1038,-55 1038,-74"/>
<text text-anchor="middle" x="1005.5" y="-62" font-family="Helvetica,sans-Serif" font-size="10.00">TBranch.h</text>
</a>
</g>
</g>
<!-- Node9&#45;&gt;Node12 -->
<g id="edge12_Node000009_Node000012" class="edge">
<title>Node9&#45;&gt;Node12</title>
<g id="a_edge12_Node000009_Node000012"><a xlink:title=" ">
<path fill="none" stroke="#63b8ff" d="M1033.91,-164.94C1013.1,-158.65 990.99,-147.78 978.5,-129 968.71,-114.27 979.19,-95.41 989.82,-82.08"/>
<polygon fill="#63b8ff" stroke="#63b8ff" points="992.73,-84.07 996.62,-74.22 987.43,-79.5 992.73,-84.07"/>
</a>
</g>
</g>
<!-- Node13 -->
<g id="Node000013" class="node">
<title>Node13</title>
<g id="a_Node000013"><a xlink:title=" ">
<polygon fill="#e0e0e0" stroke="#999999" points="1108.5,-74 1056.5,-74 1056.5,-55 1108.5,-55 1108.5,-74"/>
<text text-anchor="middle" x="1082.5" y="-62" font-family="Helvetica,sans-Serif" font-size="10.00">TLeaf.h</text>
</a>
</g>
</g>
<!-- Node9&#45;&gt;Node13 -->
<g id="edge13_Node000009_Node000013" class="edge">
<title>Node9&#45;&gt;Node13</title>
<g id="a_edge13_Node000009_Node000013"><a xlink:title=" ">
<path fill="none" stroke="#63b8ff" d="M1040.69,-164.97C1020.56,-158.62 998.54,-147.69 986.5,-129 981.93,-121.9 981.95,-117.12 986.5,-110 993.54,-98.98 1022.44,-86.45 1046.72,-77.5"/>
<polygon fill="#63b8ff" stroke="#63b8ff" points="1048.19,-80.69 1056.41,-74.02 1045.82,-74.11 1048.19,-80.69"/>
</a>
</g>
</g>
<!-- Node14 -->
<g id="Node000014" class="node">
<title>Node14</title>
<g id="a_Node000014"><a xlink:title=" ">
<polygon fill="#e0e0e0" stroke="#999999" points="1140,-129 1029,-129 1029,-110 1140,-110 1140,-129"/>
<text text-anchor="middle" x="1084.5" y="-117" font-family="Helvetica,sans-Serif" font-size="10.00">TTreeReaderArray.h</text>
</a>
</g>
</g>
<!-- Node9&#45;&gt;Node14 -->
<g id="edge14_Node000009_Node000014" class="edge">
<title>Node9&#45;&gt;Node14</title>
<g id="a_edge14_Node000009_Node000014"><a xlink:title=" ">
<path fill="none" stroke="#63b8ff" d="M1084.5,-164.75C1084.5,-157.8 1084.5,-147.85 1084.5,-139.13"/>
<polygon fill="#63b8ff" stroke="#63b8ff" points="1088,-139.09 1084.5,-129.09 1081,-139.09 1088,-139.09"/>
</a>
</g>
</g>
<!-- Node15 -->
<g id="Node000015" class="node">
<title>Node15</title>
<g id="a_Node000015"><a xlink:title=" ">
<polygon fill="#e0e0e0" stroke="#999999" points="1244.5,-129 1158.5,-129 1158.5,-110 1244.5,-110 1244.5,-129"/>
<text text-anchor="middle" x="1201.5" y="-117" font-family="Helvetica,sans-Serif" font-size="10.00">TTreeReader.h</text>
</a>
</g>
</g>
<!-- Node9&#45;&gt;Node15 -->
<g id="edge15_Node000009_Node000015" class="edge">
<title>Node9&#45;&gt;Node15</title>
<g id="a_edge15_Node000009_Node000015"><a xlink:title=" ">
<path fill="none" stroke="#63b8ff" d="M1103.3,-164.98C1122.12,-156.46 1151.32,-143.23 1173,-133.41"/>
<polygon fill="#63b8ff" stroke="#63b8ff" points="1174.7,-136.48 1182.36,-129.17 1171.81,-130.11 1174.7,-136.48"/>
</a>
</g>
</g>
<!-- Node16 -->
<g id="Node000016" class="node">
<title>Node16</title>
<g id="a_Node000016"><a xlink:href="vector__cast_8h.html" target="_top" xlink:title=" ">
<polygon fill="white" stroke="#666666" points="1618,-129 1509,-129 1509,-110 1618,-110 1618,-129"/>
<text text-anchor="middle" x="1563.5" y="-117" font-family="Helvetica,sans-Serif" font-size="10.00">tools/vector_cast.h</text>
</a>
</g>
</g>
<!-- Node9&#45;&gt;Node16 -->
<g id="edge16_Node000009_Node000016" class="edge">
<title>Node9&#45;&gt;Node16</title>
<g id="a_edge16_Node000009_Node000016"><a xlink:title=" ">
<path fill="none" stroke="#63b8ff" d="M1135.76,-167.83C1223.55,-158.11 1402.49,-138.32 1498.76,-127.66"/>
<polygon fill="#63b8ff" stroke="#63b8ff" points="1499.39,-131.11 1508.95,-126.54 1498.62,-124.16 1499.39,-131.11"/>
</a>
</g>
</g>
<!-- Node18 -->
<g id="Node000018" class="node">
<title>Node18</title>
<g id="a_Node000018"><a xlink:href="structs_2include_2structs_2meta_8h.html" target="_top" xlink:title="Defines metadata structures for physics analysis datasets.">
<polygon fill="white" stroke="#666666" points="1252,-74 1165,-74 1165,-55 1252,-55 1252,-74"/>
<text text-anchor="middle" x="1208.5" y="-62" font-family="Helvetica,sans-Serif" font-size="10.00">structs/meta.h</text>
</a>
</g>
</g>
<!-- Node9&#45;&gt;Node18 -->
<g id="edge32_Node000009_Node000018" class="edge">
<title>Node9&#45;&gt;Node18</title>
<g id="a_edge32_Node000009_Node000018"><a xlink:title=" ">
<path fill="none" stroke="#63b8ff" d="M1135.53,-166.95C1179.84,-160.09 1239.1,-147.68 1253.5,-129 1266.07,-112.69 1247.72,-93.29 1230.81,-80.26"/>
<polygon fill="#63b8ff" stroke="#63b8ff" points="1232.42,-77.11 1222.27,-74.08 1228.32,-82.78 1232.42,-77.11"/>
</a>
</g>
</g>
<!-- Node9&#45;&gt;Node19 -->
<g id="edge33_Node000009_Node000019" class="edge">
<title>Node9&#45;&gt;Node19</title>
<g id="a_edge33_Node000009_Node000019"><a xlink:title=" ">
<path fill="none" stroke="#63b8ff" d="M1033.45,-170.72C871.46,-161.36 377.02,-128.5 332.5,-74 300.5,-34.82 387.06,-19.35 441.35,-13.61"/>
<polygon fill="#63b8ff" stroke="#63b8ff" points="441.79,-17.08 451.4,-12.62 441.11,-10.12 441.79,-17.08"/>
</a>
</g>
</g>
<!-- Node20 -->
<g id="Node000020" class="node">
<title>Node20</title>
<g id="a_Node000020"><a xlink:href="modules_2structs_2include_2structs_2base_8h.html" target="_top" xlink:title="Defines fundamental data structures and type handling for the AnalysisG framework.">
<polygon fill="white" stroke="#666666" points="1826,-74 1741,-74 1741,-55 1826,-55 1826,-74"/>
<text text-anchor="middle" x="1783.5" y="-62" font-family="Helvetica,sans-Serif" font-size="10.00">structs/base.h</text>
</a>
</g>
</g>
<!-- Node9&#45;&gt;Node20 -->
<g id="edge31_Node000009_Node000020" class="edge">
<title>Node9&#45;&gt;Node20</title>
<g id="a_edge31_Node000009_Node000020"><a xlink:title=" ">
<path fill="none" stroke="#63b8ff" d="M1135.68,-171.29C1252.32,-165.95 1534.92,-151.08 1627.5,-129 1675.49,-117.55 1727.99,-93.61 1758.21,-78.61"/>
<polygon fill="#63b8ff" stroke="#63b8ff" points="1759.84,-81.71 1767.2,-74.09 1756.7,-75.46 1759.84,-81.71"/>
</a>
</g>
</g>
<!-- Node16&#45;&gt;Node5 -->
<g id="edge30_Node000016_Node000005" class="edge">
<title>Node16&#45;&gt;Node5</title>
<g id="a_edge30_Node000016_Node000005"><a xlink:title=" ">
<path fill="none" stroke="#63b8ff" d="M1618.29,-117.59C1689.56,-115.11 1808.2,-106.13 1835.5,-74 1840.97,-67.56 1840.97,-61.43 1835.5,-55 1805.15,-19.3 1662.45,-12.17 1596.31,-10.8"/>
<polygon fill="#63b8ff" stroke="#63b8ff" points="1596.07,-7.29 1586.01,-10.62 1595.95,-14.29 1596.07,-7.29"/>
</a>
</g>
</g>
<!-- Node16&#45;&gt;Node11 -->
<g id="edge29_Node000016_Node000011" class="edge">
<title>Node16&#45;&gt;Node11</title>
<g id="a_edge29_Node000016_Node000011"><a xlink:title=" ">
<path fill="none" stroke="#63b8ff" d="M1525.55,-109.95C1488.48,-101.56 1430.2,-88.28 1370.79,-74.28"/>
<polygon fill="#63b8ff" stroke="#63b8ff" points="1371.4,-70.83 1360.86,-71.94 1369.79,-77.64 1371.4,-70.83"/>
</a>
</g>
</g>
<!-- Node17 -->
<g id="Node000017" class="node">
<title>Node17</title>
<g id="a_Node000017"><a xlink:title=" ">
<polygon fill="#e0e0e0" stroke="#999999" points="1626.5,-74 1500.5,-74 1500.5,-55 1626.5,-55 1626.5,-74"/>
<text text-anchor="middle" x="1563.5" y="-62" font-family="Helvetica,sans-Serif" font-size="10.00">c10/core/DeviceType.h</text>
</a>
</g>
</g>
<!-- Node16&#45;&gt;Node17 -->
<g id="edge17_Node000016_Node000017" class="edge">
<title>Node16&#45;&gt;Node17</title>
<g id="a_edge17_Node000016_Node000017"><a xlink:title=" ">
<path fill="none" stroke="#63b8ff" d="M1563.5,-109.75C1563.5,-102.8 1563.5,-92.85 1563.5,-84.13"/>
<polygon fill="#63b8ff" stroke="#63b8ff" points="1567,-84.09 1563.5,-74.09 1560,-84.09 1567,-84.09"/>
</a>
</g>
</g>
<!-- Node16&#45;&gt;Node18 -->
<g id="edge18_Node000016_Node000018" class="edge">
<title>Node16&#45;&gt;Node18</title>
<g id="a_edge18_Node000016_Node000018"><a xlink:title=" ">
<path fill="none" stroke="#63b8ff" d="M1508.81,-110.33C1441.79,-100.33 1328.97,-83.49 1262.34,-73.54"/>
<polygon fill="#63b8ff" stroke="#63b8ff" points="1262.47,-70.02 1252.06,-72 1261.43,-76.94 1262.47,-70.02"/>
</a>
</g>
</g>
<!-- Node16&#45;&gt;Node20 -->
<g id="edge23_Node000016_Node000020" class="edge">
<title>Node16&#45;&gt;Node20</title>
<g id="a_edge23_Node000016_Node000020"><a xlink:title=" ">
<path fill="none" stroke="#63b8ff" d="M1598.85,-109.98C1636.66,-100.87 1696.76,-86.4 1738.07,-76.45"/>
<polygon fill="#63b8ff" stroke="#63b8ff" points="1738.97,-79.83 1747.88,-74.08 1737.33,-73.02 1738.97,-79.83"/>
</a>
</g>
</g>
<!-- Node22 -->
<g id="Node000022" class="node">
<title>Node22</title>
<g id="a_Node000022"><a xlink:title=" ">
<polygon fill="#e0e0e0" stroke="#999999" points="1722.5,-74 1644.5,-74 1644.5,-55 1722.5,-55 1722.5,-74"/>
<text text-anchor="middle" x="1683.5" y="-62" font-family="Helvetica,sans-Serif" font-size="10.00">torch/torch.h</text>
</a>
</g>
</g>
<!-- Node16&#45;&gt;Node22 -->
<g id="edge28_Node000016_Node000022" class="edge">
<title>Node16&#45;&gt;Node22</title>
<g id="a_edge28_Node000016_Node000022"><a xlink:title=" ">
<path fill="none" stroke="#63b8ff" d="M1582.78,-109.98C1602.17,-101.42 1632.31,-88.11 1654.57,-78.28"/>
<polygon fill="#63b8ff" stroke="#63b8ff" points="1656.14,-81.41 1663.87,-74.17 1653.31,-75.01 1656.14,-81.41"/>
</a>
</g>
</g>
<!-- Node18&#45;&gt;Node4 -->
<g id="edge20_Node000018_Node000004" class="edge">
<title>Node18&#45;&gt;Node4</title>
<g id="a_edge20_Node000018_Node000004"><a xlink:title=" ">
<path fill="none" stroke="#63b8ff" d="M1164.8,-57.04C1159.98,-56.34 1155.14,-55.65 1150.5,-55 1031.49,-38.29 1001.25,-37.48 882.5,-19 877.53,-18.23 872.29,-17.36 867.16,-16.47"/>
<polygon fill="#63b8ff" stroke="#63b8ff" points="867.39,-12.96 856.93,-14.67 866.18,-19.85 867.39,-12.96"/>
</a>
</g>
</g>
<!-- Node18&#45;&gt;Node5 -->
<g id="edge21_Node000018_Node000005" class="edge">
<title>Node18&#45;&gt;Node5</title>
<g id="a_edge21_Node000018_Node000005"><a xlink:title=" ">
<path fill="none" stroke="#63b8ff" d="M1252.26,-56.95C1323.76,-46.24 1464.09,-25.23 1528.6,-15.58"/>
<polygon fill="#63b8ff" stroke="#63b8ff" points="1529.27,-19.01 1538.64,-14.07 1528.23,-12.09 1529.27,-19.01"/>
</a>
</g>
</g>
<!-- Node18&#45;&gt;Node6 -->
<g id="edge22_Node000018_Node000006" class="edge">
<title>Node18&#45;&gt;Node6</title>
<g id="a_edge22_Node000018_Node000006"><a xlink:title=" ">
<path fill="none" stroke="#63b8ff" d="M1220.07,-54.98C1230.92,-47 1247.38,-34.88 1260.38,-25.31"/>
<polygon fill="#63b8ff" stroke="#63b8ff" points="1262.74,-27.92 1268.72,-19.17 1258.59,-22.28 1262.74,-27.92"/>
</a>
</g>
</g>
<!-- Node18&#45;&gt;Node19 -->
<g id="edge19_Node000018_Node000019" class="edge">
<title>Node18&#45;&gt;Node19</title>
<g id="a_edge19_Node000018_Node000019"><a xlink:title=" ">
<path fill="none" stroke="#63b8ff" d="M1164.55,-59.19C1149.62,-57.78 1132.84,-56.25 1117.5,-55 892.42,-36.62 622.13,-19.27 521.66,-12.98"/>
<polygon fill="#63b8ff" stroke="#63b8ff" points="521.84,-9.49 511.64,-12.36 521.41,-16.48 521.84,-9.49"/>
</a>
</g>
</g>
<!-- Node20&#45;&gt;Node4 -->
<g id="edge24_Node000020_Node000004" class="edge">
<title>Node20&#45;&gt;Node4</title>
<g id="a_edge24_Node000020_Node000004"><a xlink:title=" ">
<path fill="none" stroke="#63b8ff" d="M1740.99,-56.13C1737.78,-55.7 1734.59,-55.32 1731.5,-55 1355.8,-16.47 1257.94,-60.02 882.5,-19 877.5,-18.45 872.24,-17.7 867.11,-16.87"/>
<polygon fill="#63b8ff" stroke="#63b8ff" points="867.33,-13.36 856.88,-15.1 866.13,-20.26 867.33,-13.36"/>
</a>
</g>
</g>
<!-- Node20&#45;&gt;Node5 -->
<g id="edge25_Node000020_Node000005" class="edge">
<title>Node20&#45;&gt;Node5</title>
<g id="a_edge25_Node000020_Node000005"><a xlink:title=" ">
<path fill="none" stroke="#63b8ff" d="M1747.99,-54.98C1706.04,-44.92 1636.77,-28.31 1595.8,-18.49"/>
<polygon fill="#63b8ff" stroke="#63b8ff" points="1596.57,-15.07 1586.03,-16.14 1594.94,-21.88 1596.57,-15.07"/>
</a>
</g>
</g>
<!-- Node20&#45;&gt;Node6 -->
<g id="edge26_Node000020_Node000006" class="edge">
<title>Node20&#45;&gt;Node6</title>
<g id="a_edge26_Node000020_Node000006"><a xlink:title=" ">
<path fill="none" stroke="#63b8ff" d="M1740.97,-56.32C1737.77,-55.85 1734.58,-55.4 1731.5,-55 1573.07,-34.26 1382.2,-18.42 1310.04,-12.76"/>
<polygon fill="#63b8ff" stroke="#63b8ff" points="1310.13,-9.26 1299.89,-11.97 1309.59,-16.24 1310.13,-9.26"/>
</a>
</g>
</g>
<!-- Node21 -->
<g id="Node000021" class="node">
<title>Node21</title>
<g id="a_Node000021"><a xlink:href="enums_8h.html" target="_top" xlink:title=" ">
<polygon fill="white" stroke="#666666" points="1831,-19 1736,-19 1736,0 1831,0 1831,-19"/>
<text text-anchor="middle" x="1783.5" y="-7" font-family="Helvetica,sans-Serif" font-size="10.00">structs/enums.h</text>
</a>
</g>
</g>
<!-- Node20&#45;&gt;Node21 -->
<g id="edge27_Node000020_Node000021" class="edge">
<title>Node20&#45;&gt;Node21</title>
<g id="a_edge27_Node000020_Node000021"><a xlink:title=" ">
<path fill="none" stroke="#63b8ff" d="M1783.5,-54.75C1783.5,-47.8 1783.5,-37.85 1783.5,-29.13"/>
<polygon fill="#63b8ff" stroke="#63b8ff" points="1787,-29.09 1783.5,-19.09 1780,-29.09 1787,-29.09"/>
</a>
</g>
</g>
<!-- Node23&#45;&gt;Node4 -->
<g id="edge39_Node000023_Node000004" class="edge">
<title>Node23&#45;&gt;Node4</title>
<g id="a_edge39_Node000023_Node000004"><a xlink:title=" ">
<path fill="none" stroke="#63b8ff" d="M903.33,-54.98C890.73,-46.84 871.5,-34.41 856.56,-24.76"/>
<polygon fill="#63b8ff" stroke="#63b8ff" points="858.21,-21.66 847.91,-19.17 854.41,-27.54 858.21,-21.66"/>
</a>
</g>
</g>
<!-- Node23&#45;&gt;Node5 -->
<g id="edge40_Node000023_Node000005" class="edge">
<title>Node23&#45;&gt;Node5</title>
<g id="a_edge40_Node000023_Node000005"><a xlink:title=" ">
<path fill="none" stroke="#63b8ff" d="M955.22,-56.3C958.36,-55.82 961.48,-55.38 964.5,-55 1178.38,-28.17 1437.47,-15.63 1528.73,-11.82"/>
<polygon fill="#63b8ff" stroke="#63b8ff" points="1528.92,-15.31 1538.77,-11.4 1528.63,-8.32 1528.92,-15.31"/>
</a>
</g>
</g>
<!-- Node23&#45;&gt;Node6 -->
<g id="edge42_Node000023_Node000006" class="edge">
<title>Node23&#45;&gt;Node6</title>
<g id="a_edge42_Node000023_Node000006"><a xlink:title=" ">
<path fill="none" stroke="#63b8ff" d="M955.25,-56.52C958.38,-55.99 961.49,-55.48 964.5,-55 1069.66,-38.29 1195.02,-21.59 1250.99,-14.3"/>
<polygon fill="#63b8ff" stroke="#63b8ff" points="1251.76,-17.73 1261.23,-12.97 1250.86,-10.79 1251.76,-17.73"/>
</a>
</g>
</g>
<!-- Node23&#45;&gt;Node19 -->
<g id="edge38_Node000023_Node000019" class="edge">
<title>Node23&#45;&gt;Node19</title>
<g id="a_edge38_Node000023_Node000019"><a xlink:title=" ">
<path fill="none" stroke="#63b8ff" d="M877.76,-56.43C874.63,-55.92 871.51,-55.44 868.5,-55 742.46,-36.61 592.42,-21.19 521.91,-14.33"/>
<polygon fill="#63b8ff" stroke="#63b8ff" points="521.98,-10.82 511.69,-13.34 521.31,-17.79 521.98,-10.82"/>
</a>
</g>
</g>
<!-- Node24 -->
<g id="Node000024" class="node">
<title>Node24</title>
<g id="a_Node000024"><a xlink:title=" ">
<polygon fill="#e0e0e0" stroke="#999999" points="941.5,-19 891.5,-19 891.5,0 941.5,0 941.5,-19"/>
<text text-anchor="middle" x="916.5" y="-7" font-family="Helvetica,sans-Serif" font-size="10.00">cstdint</text>
</a>
</g>
</g>
<!-- Node23&#45;&gt;Node24 -->
<g id="edge41_Node000023_Node000024" class="edge">
<title>Node23&#45;&gt;Node24</title>
<g id="a_edge41_Node000023_Node000024"><a xlink:title=" ">
<path fill="none" stroke="#63b8ff" d="M916.5,-54.75C916.5,-47.8 916.5,-37.85 916.5,-29.13"/>
<polygon fill="#63b8ff" stroke="#63b8ff" points="920,-29.09 916.5,-19.09 913,-29.09 920,-29.09"/>
</a>
</g>
</g>
<!-- Node28&#45;&gt;Node4 -->
<g id="edge52_Node000028_Node000004" class="edge">
<title>Node28&#45;&gt;Node4</title>
<g id="a_edge52_Node000028_Node000004"><a xlink:title=" ">
<path fill="none" stroke="#63b8ff" d="M247.41,-59.52C263.8,-58.08 282.49,-56.45 299.5,-55 490.11,-38.72 718.99,-19.94 802.24,-13.13"/>
<polygon fill="#63b8ff" stroke="#63b8ff" points="802.65,-16.61 812.33,-12.31 802.08,-9.64 802.65,-16.61"/>
</a>
</g>
</g>
<!-- Node28&#45;&gt;Node19 -->
<g id="edge51_Node000028_Node000019" class="edge">
<title>Node28&#45;&gt;Node19</title>
<g id="a_edge51_Node000028_Node000019"><a xlink:title=" ">
<path fill="none" stroke="#63b8ff" d="M247.02,-55.04C300.56,-44.87 389.65,-27.95 441.23,-18.15"/>
<polygon fill="#63b8ff" stroke="#63b8ff" points="442.16,-21.54 451.33,-16.23 440.85,-14.66 442.16,-21.54"/>
</a>
</g>
</g>
<!-- Node29&#45;&gt;Node7 -->
<g id="edge58_Node000029_Node000007" class="edge">
<title>Node29&#45;&gt;Node7</title>
<g id="a_edge58_Node000029_Node000007"><a xlink:title=" ">
<path fill="none" stroke="#63b8ff" d="M740.19,-115.89C640.05,-109.35 371.92,-91.55 148.5,-74 136.46,-73.05 123.6,-71.98 111.28,-70.93"/>
<polygon fill="#63b8ff" stroke="#63b8ff" points="111.36,-67.42 101.1,-70.05 110.76,-74.39 111.36,-67.42"/>
</a>
</g>
</g>
<!-- Node29&#45;&gt;Node10 -->
<g id="edge64_Node000029_Node000010" class="edge">
<title>Node29&#45;&gt;Node10</title>
<g id="a_edge64_Node000029_Node000010"><a xlink:title=" ">
<path fill="none" stroke="#63b8ff" d="M740.31,-115.5C672.46,-110.07 530.77,-97.13 401.39,-73.93"/>
<polygon fill="#63b8ff" stroke="#63b8ff" points="401.77,-70.44 391.3,-72.09 400.51,-77.32 401.77,-70.44"/>
</a>
</g>
</g>
<!-- Node29&#45;&gt;Node11 -->
<g id="edge65_Node000029_Node000011" class="edge">
<title>Node29&#45;&gt;Node11</title>
<g id="a_edge65_Node000029_Node000011"><a xlink:title=" ">
<path fill="none" stroke="#63b8ff" d="M820.76,-115.1C903.41,-108.05 1098.23,-91.06 1261.5,-74 1273.35,-72.76 1286.28,-71.3 1297.91,-69.93"/>
<polygon fill="#63b8ff" stroke="#63b8ff" points="1298.64,-73.37 1308.16,-68.72 1297.82,-66.42 1298.64,-73.37"/>
</a>
</g>
</g>
<!-- Node29&#45;&gt;Node12 -->
<g id="edge66_Node000029_Node000012" class="edge">
<title>Node29&#45;&gt;Node12</title>
<g id="a_edge66_Node000029_Node000012"><a xlink:title=" ">
<path fill="none" stroke="#63b8ff" d="M816.65,-109.98C856.47,-100.6 920.46,-85.53 962.74,-75.57"/>
<polygon fill="#63b8ff" stroke="#63b8ff" points="963.8,-78.92 972.73,-73.22 962.2,-72.1 963.8,-78.92"/>
</a>
</g>
</g>
<!-- Node29&#45;&gt;Node13 -->
<g id="edge67_Node000029_Node000013" class="edge">
<title>Node29&#45;&gt;Node13</title>
<g id="a_edge67_Node000029_Node000013"><a xlink:title=" ">
<path fill="none" stroke="#63b8ff" d="M820.93,-112.7C871.43,-105.25 960.68,-91.41 1046.29,-74.13"/>
<polygon fill="#63b8ff" stroke="#63b8ff" points="1047.07,-77.54 1056.17,-72.11 1045.68,-70.68 1047.07,-77.54"/>
</a>
</g>
</g>
<!-- Node29&#45;&gt;Node18 -->
<g id="edge55_Node000029_Node000018" class="edge">
<title>Node29&#45;&gt;Node18</title>
<g id="a_edge55_Node000029_Node000018"><a xlink:title=" ">
<path fill="none" stroke="#63b8ff" d="M820.77,-113.51C898.15,-103.93 1067.68,-82.94 1154.66,-72.17"/>
<polygon fill="#63b8ff" stroke="#63b8ff" points="1155.36,-75.61 1164.85,-70.9 1154.5,-68.66 1155.36,-75.61"/>
</a>
</g>
</g>
<!-- Node29&#45;&gt;Node23 -->
<g id="edge63_Node000029_Node000023" class="edge">
<title>Node29&#45;&gt;Node23</title>
<g id="a_edge63_Node000029_Node000023"><a xlink:title=" ">
<path fill="none" stroke="#63b8ff" d="M802.35,-109.98C824.62,-101.3 859.4,-87.75 884.72,-77.88"/>
<polygon fill="#63b8ff" stroke="#63b8ff" points="886.21,-81.06 894.25,-74.17 883.66,-74.54 886.21,-81.06"/>
</a>
</g>
</g>
<!-- Node30 -->
<g id="Node000030" class="node">
<title>Node30</title>
<g id="a_Node000030"><a xlink:href="folds_8h.html" target="_top" xlink:title=" ">
<polygon fill="white" stroke="#666666" points="859.5,-74 773.5,-74 773.5,-55 859.5,-55 859.5,-74"/>
<text text-anchor="middle" x="816.5" y="-62" font-family="Helvetica,sans-Serif" font-size="10.00">structs/folds.h</text>
</a>
</g>
</g>
<!-- Node29&#45;&gt;Node30 -->
<g id="edge56_Node000029_Node000030" class="edge">
<title>Node29&#45;&gt;Node30</title>
<g id="a_edge56_Node000029_Node000030"><a xlink:title=" ">
<path fill="none" stroke="#63b8ff" d="M786.44,-109.75C791.48,-102.34 798.84,-91.5 805.01,-82.41"/>
<polygon fill="#63b8ff" stroke="#63b8ff" points="807.94,-84.33 810.67,-74.09 802.15,-80.39 807.94,-84.33"/>
</a>
</g>
</g>
<!-- Node31 -->
<g id="Node000031" class="node">
<title>Node31</title>
<g id="a_Node000031"><a xlink:title=" ">
<polygon fill="#e0e0e0" stroke="#999999" points="531.5,-74 409.5,-74 409.5,-55 531.5,-55 531.5,-74"/>
<text text-anchor="middle" x="470.5" y="-62" font-family="Helvetica,sans-Serif" font-size="10.00">rapidjson/document.h</text>
</a>
</g>
</g>
<!-- Node29&#45;&gt;Node31 -->
<g id="edge59_Node000029_Node000031" class="edge">
<title>Node29&#45;&gt;Node31</title>
<g id="a_edge59_Node000029_Node000031"><a xlink:title=" ">
<path fill="none" stroke="#63b8ff" d="M740.29,-111.63C686.91,-102.5 592.19,-86.31 530.38,-75.74"/>
<polygon fill="#63b8ff" stroke="#63b8ff" points="530.82,-72.26 520.38,-74.03 529.64,-79.16 530.82,-72.26"/>
</a>
</g>
</g>
<!-- Node32 -->
<g id="Node000032" class="node">
<title>Node32</title>
<g id="a_Node000032"><a xlink:href="notification_8h.html" target="_top" xlink:title="Defines the notification class for logging and messaging functionality.">
<polygon fill="white" stroke="#666666" points="755.5,-74 617.5,-74 617.5,-55 755.5,-55 755.5,-74"/>
<text text-anchor="middle" x="686.5" y="-62" font-family="Helvetica,sans-Serif" font-size="10.00">notification/notification.h</text>
</a>
</g>
</g>
<!-- Node29&#45;&gt;Node32 -->
<g id="edge60_Node000029_Node000032" class="edge">
<title>Node29&#45;&gt;Node32</title>
<g id="a_edge60_Node000029_Node000032"><a xlink:title=" ">
<path fill="none" stroke="#63b8ff" d="M765.4,-109.98C750.68,-101.69 728.08,-88.94 710.83,-79.22"/>
<polygon fill="#63b8ff" stroke="#63b8ff" points="712.31,-76.03 701.88,-74.17 708.87,-82.13 712.31,-76.03"/>
</a>
</g>
</g>
<!-- Node33 -->
<g id="Node000033" class="node">
<title>Node33</title>
<g id="a_Node000033"><a xlink:title=" ">
<polygon fill="#e0e0e0" stroke="#999999" points="599.5,-74 549.5,-74 549.5,-55 599.5,-55 599.5,-74"/>
<text text-anchor="middle" x="574.5" y="-62" font-family="Helvetica,sans-Serif" font-size="10.00">TH1F.h</text>
</a>
</g>
</g>
<!-- Node29&#45;&gt;Node33 -->
<g id="edge68_Node000029_Node000033" class="edge">
<title>Node29&#45;&gt;Node33</title>
<g id="a_edge68_Node000029_Node000033"><a xlink:title=" ">
<path fill="none" stroke="#63b8ff" d="M747.4,-109.98C709.61,-100.26 648.04,-84.42 609.48,-74.5"/>
<polygon fill="#63b8ff" stroke="#63b8ff" points="610.28,-71.09 599.72,-71.99 608.54,-77.87 610.28,-71.09"/>
</a>
</g>
</g>
<!-- Node30&#45;&gt;Node4 -->
<g id="edge57_Node000030_Node000004" class="edge">
<title>Node30&#45;&gt;Node4</title>
<g id="a_edge57_Node000030_Node000004"><a xlink:title=" ">
<path fill="none" stroke="#63b8ff" d="M819.47,-54.75C821.86,-47.72 825.29,-37.62 828.27,-28.84"/>
<polygon fill="#63b8ff" stroke="#63b8ff" points="831.68,-29.68 831.58,-19.09 825.05,-27.43 831.68,-29.68"/>
</a>
</g>
</g>
<!-- Node32&#45;&gt;Node4 -->
<g id="edge61_Node000032_Node000004" class="edge">
<title>Node32&#45;&gt;Node4</title>
<g id="a_edge61_Node000032_Node000004"><a xlink:title=" ">
<path fill="none" stroke="#63b8ff" d="M710.28,-54.98C735.31,-46.02 774.87,-31.86 802.6,-21.92"/>
<polygon fill="#63b8ff" stroke="#63b8ff" points="804,-25.14 812.23,-18.47 801.64,-18.55 804,-25.14"/>
</a>
</g>
</g>
<!-- Node32&#45;&gt;Node19 -->
<g id="edge62_Node000032_Node000019" class="edge">
<title>Node32&#45;&gt;Node19</title>
<g id="a_edge62_Node000032_Node000019"><a xlink:title=" ">
<path fill="none" stroke="#63b8ff" d="M653.56,-54.98C617.61,-45.69 560.05,-30.81 521.53,-20.85"/>
<polygon fill="#63b8ff" stroke="#63b8ff" points="522.24,-17.42 511.68,-18.3 520.49,-24.2 522.24,-17.42"/>
</a>
</g>
</g>
</g>
</svg>
