<?xml version="1.0" encoding="UTF-8" standalone="no"?>
<!DOCTYPE svg PUBLIC "-//W3C//DTD SVG 1.1//EN"
 "http://www.w3.org/Graphics/SVG/1.1/DTD/svg11.dtd">
<!-- Generated by graphviz version 2.43.0 (0)
 -->
<!-- Title: event.h Pages: 1 -->
<svg width="570pt" height="137pt"
 viewBox="0.00 0.00 570.00 137.00" xmlns="http://www.w3.org/2000/svg" xmlns:xlink="http://www.w3.org/1999/xlink">
<g id="graph0" class="graph" transform="scale(1 1) rotate(0) translate(4 133)">
<title>event.h</title>
<!-- Node1 -->
<g id="Node000001" class="node">
<title>Node1</title>
<g id="a_Node000001"><a xlink:title=" ">
<polygon fill="#999999" stroke="#666666" points="283,-129 230,-129 230,-110 283,-110 283,-129"/>
<text text-anchor="middle" x="256.5" y="-117" font-family="Helvetica,sans-Serif" font-size="10.00">event.h</text>
</a>
</g>
</g>
<!-- Node2 -->
<g id="Node000002" class="node">
<title>Node2</title>
<g id="a_Node000002"><a xlink:href="ssml__mc20_2include_2ssml__mc20_2graphs_8h.html" target="_top" xlink:title=" ">
<polygon fill="white" stroke="#666666" points="59,-74 0,-74 0,-55 59,-55 59,-74"/>
<text text-anchor="middle" x="29.5" y="-62" font-family="Helvetica,sans-Serif" font-size="10.00">graphs.h</text>
</a>
</g>
</g>
<!-- Node1&#45;&gt;Node2 -->
<g id="edge1_Node000001_Node000002" class="edge">
<title>Node1&#45;&gt;Node2</title>
<g id="a_edge1_Node000001_Node000002"><a xlink:title=" ">
<path fill="none" stroke="#63b8ff" d="M219.7,-109.91C175.01,-99.47 100.52,-82.08 59.27,-72.45"/>
<polygon fill="#63b8ff" stroke="#63b8ff" points="219.03,-113.35 229.57,-112.21 220.63,-106.53 219.03,-113.35"/>
</a>
</g>
</g>
<!-- Node3 -->
<g id="Node000003" class="node">
<title>Node3</title>
<g id="a_Node000003"><a xlink:href="mc20__ref_8cxx.html" target="_top" xlink:title=" ">
<polygon fill="white" stroke="#666666" points="159.5,-74 77.5,-74 77.5,-55 159.5,-55 159.5,-74"/>
<text text-anchor="middle" x="118.5" y="-62" font-family="Helvetica,sans-Serif" font-size="10.00">mc20_ref.cxx</text>
</a>
</g>
</g>
<!-- Node1&#45;&gt;Node3 -->
<g id="edge2_Node000001_Node000003" class="edge">
<title>Node1&#45;&gt;Node3</title>
<g id="a_edge2_Node000001_Node000003"><a xlink:title=" ">
<path fill="none" stroke="#63b8ff" d="M224.71,-106.29C199.13,-96.47 163.83,-82.91 141.08,-74.17"/>
<polygon fill="#63b8ff" stroke="#63b8ff" points="223.74,-109.67 234.33,-109.98 226.25,-103.13 223.74,-109.67"/>
</a>
</g>
</g>
<!-- Node4 -->
<g id="Node000004" class="node">
<title>Node4</title>
<g id="a_Node000004"><a xlink:href="regions_8h.html" target="_top" xlink:title=" ">
<polygon fill="white" stroke="#666666" points="239.5,-74 177.5,-74 177.5,-55 239.5,-55 239.5,-74"/>
<text text-anchor="middle" x="208.5" y="-62" font-family="Helvetica,sans-Serif" font-size="10.00">regions.h</text>
</a>
</g>
</g>
<!-- Node1&#45;&gt;Node4 -->
<g id="edge3_Node000001_Node000004" class="edge">
<title>Node1&#45;&gt;Node4</title>
<g id="a_edge3_Node000001_Node000004"><a xlink:title=" ">
<path fill="none" stroke="#63b8ff" d="M241.77,-102.24C233.36,-92.95 223.15,-81.68 216.28,-74.09"/>
<polygon fill="#63b8ff" stroke="#63b8ff" points="239.27,-104.69 248.57,-109.75 244.46,-99.99 239.27,-104.69"/>
</a>
</g>
</g>
<!-- Node6 -->
<g id="Node000006" class="node">
<title>Node6</title>
<g id="a_Node000006"><a xlink:href="mc20_2topkinematics_2topkinematics_8h.html" target="_top" xlink:title=" ">
<polygon fill="white" stroke="#666666" points="353,-74 258,-74 258,-55 353,-55 353,-74"/>
<text text-anchor="middle" x="305.5" y="-62" font-family="Helvetica,sans-Serif" font-size="10.00">topkinematics.h</text>
</a>
</g>
</g>
<!-- Node1&#45;&gt;Node6 -->
<g id="edge5_Node000001_Node000006" class="edge">
<title>Node1&#45;&gt;Node6</title>
<g id="a_edge5_Node000001_Node000006"><a xlink:title=" ">
<path fill="none" stroke="#63b8ff" d="M271.53,-102.24C280.12,-92.95 290.54,-81.68 297.56,-74.09"/>
<polygon fill="#63b8ff" stroke="#63b8ff" points="268.81,-100.03 264.59,-109.75 273.95,-104.78 268.81,-100.03"/>
</a>
</g>
</g>
<!-- Node8 -->
<g id="Node000008" class="node">
<title>Node8</title>
<g id="a_Node000008"><a xlink:href="mc20_2topmatching_2topmatching_8h.html" target="_top" xlink:title=" ">
<polygon fill="white" stroke="#666666" points="464,-74 377,-74 377,-55 464,-55 464,-74"/>
<text text-anchor="middle" x="420.5" y="-62" font-family="Helvetica,sans-Serif" font-size="10.00">topmatching.h</text>
</a>
</g>
</g>
<!-- Node1&#45;&gt;Node8 -->
<g id="edge7_Node000001_Node000008" class="edge">
<title>Node1&#45;&gt;Node8</title>
<g id="a_edge7_Node000001_Node000008"><a xlink:title=" ">
<path fill="none" stroke="#63b8ff" d="M292.71,-106.8C323.32,-96.91 366.45,-82.97 393.94,-74.08"/>
<polygon fill="#63b8ff" stroke="#63b8ff" points="291.29,-103.58 282.85,-109.98 293.44,-110.24 291.29,-103.58"/>
</a>
</g>
</g>
<!-- Node10 -->
<g id="Node000010" class="node">
<title>Node10</title>
<g id="a_Node000010"><a xlink:href="mc20_2zprime_2zprime_8h.html" target="_top" xlink:title=" ">
<polygon fill="white" stroke="#666666" points="550,-74 491,-74 491,-55 550,-55 550,-74"/>
<text text-anchor="middle" x="520.5" y="-62" font-family="Helvetica,sans-Serif" font-size="10.00">zprime.h</text>
</a>
</g>
</g>
<!-- Node1&#45;&gt;Node10 -->
<g id="edge9_Node000001_Node000010" class="edge">
<title>Node1&#45;&gt;Node10</title>
<g id="a_edge9_Node000001_Node000010"><a xlink:title=" ">
<path fill="none" stroke="#63b8ff" d="M293.22,-111.13C346,-100.53 442.31,-81.2 490.85,-71.45"/>
<polygon fill="#63b8ff" stroke="#63b8ff" points="292.38,-107.73 283.27,-113.13 293.76,-114.59 292.38,-107.73"/>
</a>
</g>
</g>
<!-- Node5 -->
<g id="Node000005" class="node">
<title>Node5</title>
<g id="a_Node000005"><a xlink:href="regions_8cxx.html" target="_top" xlink:title=" ">
<polygon fill="white" stroke="#666666" points="231,-19 158,-19 158,0 231,0 231,-19"/>
<text text-anchor="middle" x="194.5" y="-7" font-family="Helvetica,sans-Serif" font-size="10.00">regions.cxx</text>
</a>
</g>
</g>
<!-- Node4&#45;&gt;Node5 -->
<g id="edge4_Node000004_Node000005" class="edge">
<title>Node4&#45;&gt;Node5</title>
<g id="a_edge4_Node000004_Node000005"><a xlink:title=" ">
<path fill="none" stroke="#63b8ff" d="M203.6,-44.95C201.28,-36.15 198.61,-26.06 196.77,-19.09"/>
<polygon fill="#63b8ff" stroke="#63b8ff" points="200.25,-45.97 206.19,-54.75 207.02,-44.19 200.25,-45.97"/>
</a>
</g>
</g>
<!-- Node7 -->
<g id="Node000007" class="node">
<title>Node7</title>
<g id="a_Node000007"><a xlink:href="mc20_2topkinematics_2topkinematics_8cxx.html" target="_top" xlink:title=" ">
<polygon fill="white" stroke="#666666" points="356,-19 249,-19 249,0 356,0 356,-19"/>
<text text-anchor="middle" x="302.5" y="-7" font-family="Helvetica,sans-Serif" font-size="10.00">topkinematics.cxx</text>
</a>
</g>
</g>
<!-- Node6&#45;&gt;Node7 -->
<g id="edge6_Node000006_Node000007" class="edge">
<title>Node6&#45;&gt;Node7</title>
<g id="a_edge6_Node000006_Node000007"><a xlink:title=" ">
<path fill="none" stroke="#63b8ff" d="M304.43,-44.66C303.94,-35.93 303.38,-25.99 302.99,-19.09"/>
<polygon fill="#63b8ff" stroke="#63b8ff" points="300.94,-44.96 305,-54.75 307.93,-44.57 300.94,-44.96"/>
</a>
</g>
</g>
<!-- Node9 -->
<g id="Node000009" class="node">
<title>Node9</title>
<g id="a_Node000009"><a xlink:href="mc20_2topmatching_2topmatching_8cxx.html" target="_top" xlink:title=" ">
<polygon fill="white" stroke="#666666" points="472.5,-19 374.5,-19 374.5,0 472.5,0 472.5,-19"/>
<text text-anchor="middle" x="423.5" y="-7" font-family="Helvetica,sans-Serif" font-size="10.00">topmatching.cxx</text>
</a>
</g>
</g>
<!-- Node8&#45;&gt;Node9 -->
<g id="edge8_Node000008_Node000009" class="edge">
<title>Node8&#45;&gt;Node9</title>
<g id="a_edge8_Node000008_Node000009"><a xlink:title=" ">
<path fill="none" stroke="#63b8ff" d="M421.57,-44.66C422.06,-35.93 422.62,-25.99 423.01,-19.09"/>
<polygon fill="#63b8ff" stroke="#63b8ff" points="418.07,-44.57 421,-54.75 425.06,-44.96 418.07,-44.57"/>
</a>
</g>
</g>
<!-- Node11 -->
<g id="Node000011" class="node">
<title>Node11</title>
<g id="a_Node000011"><a xlink:href="mc20_2zprime_2zprime_8cxx.html" target="_top" xlink:title=" ">
<polygon fill="white" stroke="#666666" points="562,-19 491,-19 491,0 562,0 562,-19"/>
<text text-anchor="middle" x="526.5" y="-7" font-family="Helvetica,sans-Serif" font-size="10.00">zprime.cxx</text>
</a>
</g>
</g>
<!-- Node10&#45;&gt;Node11 -->
<g id="edge10_Node000010_Node000011" class="edge">
<title>Node10&#45;&gt;Node11</title>
<g id="a_edge10_Node000010_Node000011"><a xlink:title=" ">
<path fill="none" stroke="#63b8ff" d="M522.63,-44.66C523.62,-35.93 524.75,-25.99 525.53,-19.09"/>
<polygon fill="#63b8ff" stroke="#63b8ff" points="519.14,-44.42 521.49,-54.75 526.09,-45.21 519.14,-44.42"/>
</a>
</g>
</g>
</g>
</svg>
