<?xml version="1.0" encoding="UTF-8" standalone="no"?>
<!DOCTYPE svg PUBLIC "-//W3C//DTD SVG 1.1//EN"
 "http://www.w3.org/Graphics/SVG/1.1/DTD/svg11.dtd">
<!-- Generated by graphviz version 2.43.0 (0)
 -->
<!-- Title: assign_vector Pages: 1 -->
<svg width="211pt" height="64pt"
 viewBox="0.00 0.00 211.00 64.00" xmlns="http://www.w3.org/2000/svg" xmlns:xlink="http://www.w3.org/1999/xlink">
<g id="graph0" class="graph" transform="scale(1 1) rotate(0) translate(4 60)">
<title>assign_vector</title>
<!-- Node1 -->
<g id="Node000001" class="node">
<title>Node1</title>
<g id="a_Node000001"><a xlink:title=" ">
<polygon fill="#999999" stroke="#666666" points="203,-37 119,-37 119,-18 203,-18 203,-37"/>
<text text-anchor="middle" x="161" y="-25" font-family="Helvetica,sans-Serif" font-size="10.00">assign_vector</text>
</a>
</g>
</g>
<!-- Node2 -->
<g id="Node000002" class="node">
<title>Node2</title>
<g id="a_Node000002"><a xlink:href="classtop.html#ab0650ae5f6ec11376daccc4eaec70aca" target="_top" xlink:title="Builds the particle from event data.">
<polygon fill="white" stroke="#666666" points="72.5,-56 10.5,-56 10.5,-37 72.5,-37 72.5,-56"/>
<text text-anchor="middle" x="41.5" y="-44" font-family="Helvetica,sans-Serif" font-size="10.00">top::build</text>
</a>
</g>
</g>
<!-- Node1&#45;&gt;Node2 -->
<g id="edge1_Node000001_Node000002" class="edge">
<title>Node1&#45;&gt;Node2</title>
<g id="a_edge1_Node000001_Node000002"><a xlink:title=" ">
<path fill="none" stroke="#63b8ff" d="M108.71,-35.79C96.4,-37.78 83.64,-39.85 72.65,-41.62"/>
<polygon fill="#63b8ff" stroke="#63b8ff" points="109.59,-39.2 118.9,-34.15 108.47,-32.29 109.59,-39.2"/>
</a>
</g>
</g>
<!-- Node3 -->
<g id="Node000003" class="node">
<title>Node3</title>
<g id="a_Node000003"><a xlink:href="classtruthjet.html#a28cfe9ad59f100534c62ba702031860c" target="_top" xlink:title="Builds the particle from event data.">
<polygon fill="white" stroke="#666666" points="83,-19 0,-19 0,0 83,0 83,-19"/>
<text text-anchor="middle" x="41.5" y="-7" font-family="Helvetica,sans-Serif" font-size="10.00">truthjet::build</text>
</a>
</g>
</g>
<!-- Node1&#45;&gt;Node3 -->
<g id="edge2_Node000001_Node000003" class="edge">
<title>Node1&#45;&gt;Node3</title>
<g id="a_edge2_Node000001_Node000003"><a xlink:title=" ">
<path fill="none" stroke="#63b8ff" d="M109,-19.69C100.43,-18.37 91.64,-17.03 83.37,-15.76"/>
<polygon fill="#63b8ff" stroke="#63b8ff" points="108.49,-23.15 118.9,-21.2 109.55,-16.23 108.49,-23.15"/>
</a>
</g>
</g>
</g>
</svg>
