<?xml version="1.0" encoding="UTF-8" standalone="no"?>
<!DOCTYPE svg PUBLIC "-//W3C//DTD SVG 1.1//EN"
 "http://www.w3.org/Graphics/SVG/1.1/DTD/svg11.dtd">
<!-- Generated by graphviz version 2.43.0 (0)
 -->
<!-- Title: event.h Pages: 1 -->
<!--zoomable 368 -->

<svg id="main" version="1.1" xmlns="http://www.w3.org/2000/svg" xmlns:xlink="http://www.w3.org/1999/xlink" xml:space="preserve" onload="init(evt)">
<style type="text/css"><![CDATA[
.node, .edge {opacity: 0.7;}
.node.selected, .edge.selected {opacity: 1;}
.edge:hover path { stroke: red; }
.edge:hover polygon { stroke: red; fill: red; }
]]></style>

<defs>
  <circle id="rim" cx="0" cy="0" r="7"/>
  <circle id="rim2" cx="0" cy="0" r="3.5"/>
  <g id="zoomPlus">
    <use xlink:href="#rim" fill="#404040"><set attributeName="fill" to="#808080" begin="zoomplus.mouseover" end="zoomplus.mouseout"/></use>
    <path d="M-4,0h8M0,-4v8" fill="none" stroke="white" stroke-width="1.5" pointer-events="none"/>
  </g>
  <g id="zoomMin">
    <use xlink:href="#rim" fill="#404040"><set attributeName="fill" to="#808080" begin="zoomminus.mouseover" end="zoomminus.mouseout"/></use>
    <path d="M-4,0h8" fill="none" stroke="white" stroke-width="1.5" pointer-events="none"/>
  </g>
  <g id="arrowUp" transform="translate(30 24)">
    <use xlink:href="#rim"/>
    <path pointer-events="none" fill="none" stroke="white" stroke-width="1.5" d="M0,-3.0v7 M-2.5,-0.5L0,-3.0L2.5,-0.5"/>
  </g>
  <g id="arrowRight" transform="rotate(90) translate(36 -43)">
    <use xlink:href="#rim"/>
    <path pointer-events="none" fill="none" stroke="white" stroke-width="1.5" d="M0,-3.0v7 M-2.5,-0.5L0,-3.0L2.5,-0.5"/>
  </g>
  <g id="arrowDown" transform="rotate(180) translate(-30 -48)">
    <use xlink:href="#rim"/>
    <path pointer-events="none" fill="none" stroke="white" stroke-width="1.5" d="M0,-3.0v7 M-2.5,-0.5L0,-3.0L2.5,-0.5"/>
  </g>
  <g id="arrowLeft" transform="rotate(270) translate(-36 17)">
    <use xlink:href="#rim"/>
    <path pointer-events="none" fill="none" stroke="white" stroke-width="1.5" d="M0,-3.0v7 M-2.5,-0.5L0,-3.0L2.5,-0.5"/>
  </g>
  <g id="resetDef">
    <use xlink:href="#rim2" fill="#404040"><set attributeName="fill" to="#808080" begin="reset.mouseover" end="reset.mouseout"/></use>
  </g>
</defs>
<script type="application/ecmascript">
var viewWidth = 1886;
var viewHeight = 368;
var sectionId = 'dynsection-0';
</script>
<script type="application/ecmascript" xlink:href="svg.min.js"/>
<svg id="graph" class="graph">
<g id="viewport">
<title>event.h</title>
<!-- Node1 -->
<g id="Node000001" class="node">
<title>Node1</title>
<g id="a_Node000001"><a xlink:title=" ">
<polygon fill="#999999" stroke="#666666" points="1255.04,-360 1202.04,-360 1202.04,-341 1255.04,-341 1255.04,-360"/>
<text text-anchor="middle" x="1228.54" y="-348" font-family="Helvetica,sans-Serif" font-size="10.00">event.h</text>
</a>
</g>
</g>
<!-- Node2 -->
<g id="Node000002" class="node">
<title>Node2</title>
<g id="a_Node000002"><a xlink:href="events_2bsm__4tops_2include_2bsm__4tops_2particles_8h.html" target="_top" xlink:title=" ">
<polygon fill="white" stroke="#666666" points="1430.54,-305 1306.54,-305 1306.54,-286 1430.54,-286 1430.54,-305"/>
<text text-anchor="middle" x="1368.54" y="-293" font-family="Helvetica,sans-Serif" font-size="10.00">bsm_4tops/particles.h</text>
</a>
</g>
</g>
<!-- Node1&#45;&gt;Node2 -->
<g id="edge1_Node000001_Node000002" class="edge">
<title>Node1&#45;&gt;Node2</title>
<g id="a_edge1_Node000001_Node000002"><a xlink:title=" ">
<path fill="none" stroke="#63b8ff" d="M1251.03,-340.98C1274.06,-332.27 1310.08,-318.63 1336.17,-308.75"/>
<polygon fill="#63b8ff" stroke="#63b8ff" points="1337.52,-311.98 1345.64,-305.17 1335.04,-305.44 1337.52,-311.98"/>
</a>
</g>
</g>
<!-- Node29 -->
<g id="Node000029" class="node">
<title>Node29</title>
<g id="a_Node000029"><a xlink:href="event__template_8h.html" target="_top" xlink:title="Defines the base template class for event data representation and manipulation.">
<polygon fill="white" stroke="#666666" points="1227.04,-305 1072.04,-305 1072.04,-286 1227.04,-286 1227.04,-305"/>
<text text-anchor="middle" x="1149.54" y="-293" font-family="Helvetica,sans-Serif" font-size="10.00">templates/event_template.h</text>
</a>
</g>
</g>
<!-- Node1&#45;&gt;Node29 -->
<g id="edge49_Node000001_Node000029" class="edge">
<title>Node1&#45;&gt;Node29</title>
<g id="a_edge49_Node000001_Node000029"><a xlink:title=" ">
<path fill="none" stroke="#63b8ff" d="M1215.85,-340.98C1203.71,-332.84 1185.18,-320.41 1170.79,-310.76"/>
<polygon fill="#63b8ff" stroke="#63b8ff" points="1172.72,-307.84 1162.46,-305.17 1168.82,-313.65 1172.72,-307.84"/>
</a>
</g>
</g>
<!-- Node3 -->
<g id="Node000003" class="node">
<title>Node3</title>
<g id="a_Node000003"><a xlink:href="particle__template_8h.html" target="_top" xlink:title="Defines the particle_template base class for physics particle representations.">
<polygon fill="white" stroke="#666666" points="1499.54,-250 1393.54,-250 1393.54,-220 1499.54,-220 1499.54,-250"/>
<text text-anchor="start" x="1401.54" y="-238" font-family="Helvetica,sans-Serif" font-size="10.00">templates/particle</text>
<text text-anchor="middle" x="1446.54" y="-227" font-family="Helvetica,sans-Serif" font-size="10.00">_template.h</text>
</a>
</g>
</g>
<!-- Node2&#45;&gt;Node3 -->
<g id="edge2_Node000002_Node000003" class="edge">
<title>Node2&#45;&gt;Node3</title>
<g id="a_edge2_Node000002_Node000003"><a xlink:title=" ">
<path fill="none" stroke="#63b8ff" d="M1380.05,-285.87C1390.43,-278.08 1406.12,-266.32 1419.64,-256.17"/>
<polygon fill="#63b8ff" stroke="#63b8ff" points="1421.82,-258.91 1427.72,-250.11 1417.62,-253.31 1421.82,-258.91"/>
</a>
</g>
</g>
<!-- Node4 -->
<g id="Node000004" class="node">
<title>Node4</title>
<g id="a_Node000004"><a xlink:href="modules_2structs_2include_2structs_2particles_8h.html" target="_top" xlink:title=" ">
<polygon fill="white" stroke="#666666" points="1616.54,-74 1512.54,-74 1512.54,-55 1616.54,-55 1616.54,-74"/>
<text text-anchor="middle" x="1564.54" y="-62" font-family="Helvetica,sans-Serif" font-size="10.00">structs/particles.h</text>
</a>
</g>
</g>
<!-- Node3&#45;&gt;Node4 -->
<g id="edge3_Node000003_Node000004" class="edge">
<title>Node3&#45;&gt;Node4</title>
<g id="a_edge3_Node000003_Node000004"><a xlink:title=" ">
<path fill="none" stroke="#63b8ff" d="M1499.74,-229.77C1559.6,-223.79 1651.28,-210.48 1672.54,-184 1704.71,-143.93 1634.31,-100.02 1592.55,-78.66"/>
<polygon fill="#63b8ff" stroke="#63b8ff" points="1593.89,-75.41 1583.37,-74.08 1590.76,-81.68 1593.89,-75.41"/>
</a>
</g>
</g>
<!-- Node5 -->
<g id="Node000005" class="node">
<title>Node5</title>
<g id="a_Node000005"><a xlink:title=" ">
<polygon fill="#e0e0e0" stroke="#999999" points="1082.54,-19 1038.54,-19 1038.54,0 1082.54,0 1082.54,-19"/>
<text text-anchor="middle" x="1060.54" y="-7" font-family="Helvetica,sans-Serif" font-size="10.00">string</text>
</a>
</g>
</g>
<!-- Node3&#45;&gt;Node5 -->
<g id="edge46_Node000003_Node000005" class="edge">
<title>Node3&#45;&gt;Node5</title>
<g id="a_edge46_Node000003_Node000005"><a xlink:title=" ">
<path fill="none" stroke="#63b8ff" d="M1446.74,-219.89C1446.4,-185.62 1440.37,-97.68 1389.54,-55 1345.05,-17.64 1166.62,-11.53 1092.78,-10.61"/>
<polygon fill="#63b8ff" stroke="#63b8ff" points="1092.71,-7.11 1082.67,-10.51 1092.64,-14.11 1092.71,-7.11"/>
</a>
</g>
</g>
<!-- Node8 -->
<g id="Node000008" class="node">
<title>Node8</title>
<g id="a_Node000008"><a xlink:href="property_8h.html" target="_top" xlink:title="Defines the cproperty template class for property&#45;based access patterns.">
<polygon fill="white" stroke="#666666" points="1878.04,-74 1777.04,-74 1777.04,-55 1878.04,-55 1878.04,-74"/>
<text text-anchor="middle" x="1827.54" y="-62" font-family="Helvetica,sans-Serif" font-size="10.00">structs/property.h</text>
</a>
</g>
</g>
<!-- Node3&#45;&gt;Node8 -->
<g id="edge7_Node000003_Node000008" class="edge">
<title>Node3&#45;&gt;Node8</title>
<g id="a_edge7_Node000003_Node000008"><a xlink:title=" ">
<path fill="none" stroke="#63b8ff" d="M1499.73,-230.76C1550.7,-225.92 1628.64,-213.89 1689.54,-184 1742.01,-158.25 1790.74,-107.8 1813.71,-81.82"/>
<polygon fill="#63b8ff" stroke="#63b8ff" points="1816.57,-83.86 1820.48,-74.02 1811.29,-79.27 1816.57,-83.86"/>
</a>
</g>
</g>
<!-- Node10 -->
<g id="Node000010" class="node">
<title>Node10</title>
<g id="a_Node000010"><a xlink:href="element_8h.html" target="_top" xlink:title=" ">
<polygon fill="white" stroke="#666666" points="1200.54,-184 1098.54,-184 1098.54,-165 1200.54,-165 1200.54,-184"/>
<text text-anchor="middle" x="1149.54" y="-172" font-family="Helvetica,sans-Serif" font-size="10.00">structs/element.h</text>
</a>
</g>
</g>
<!-- Node3&#45;&gt;Node10 -->
<g id="edge10_Node000003_Node000010" class="edge">
<title>Node3&#45;&gt;Node10</title>
<g id="a_edge10_Node000003_Node000010"><a xlink:title=" ">
<path fill="none" stroke="#63b8ff" d="M1393.44,-223.54C1339.68,-212.95 1256.98,-196.66 1203.06,-186.04"/>
<polygon fill="#63b8ff" stroke="#63b8ff" points="1203.5,-182.56 1193.01,-184.06 1202.15,-189.43 1203.5,-182.56"/>
</a>
</g>
</g>
<!-- Node20 -->
<g id="Node000020" class="node">
<title>Node20</title>
<g id="a_Node000020"><a xlink:title=" ">
<polygon fill="#e0e0e0" stroke="#999999" points="389.54,-19 329.54,-19 329.54,0 389.54,0 389.54,-19"/>
<text text-anchor="middle" x="359.54" y="-7" font-family="Helvetica,sans-Serif" font-size="10.00">iostream</text>
</a>
</g>
</g>
<!-- Node3&#45;&gt;Node20 -->
<g id="edge44_Node000003_Node000020" class="edge">
<title>Node3&#45;&gt;Node20</title>
<g id="a_edge44_Node000003_Node000020"><a xlink:title=" ">
<path fill="none" stroke="#63b8ff" d="M1393.37,-232.44C1143.38,-224.52 93.22,-184.8 4.54,-74 -35.7,-23.72 217.98,-13.24 319.18,-11.07"/>
<polygon fill="#63b8ff" stroke="#63b8ff" points="319.4,-14.56 329.33,-10.87 319.26,-7.57 319.4,-14.56"/>
</a>
</g>
</g>
<!-- Node24 -->
<g id="Node000024" class="node">
<title>Node24</title>
<g id="a_Node000024"><a xlink:href="tools_8h.html" target="_top" xlink:title="Defines the tools class that provides general utility functions for the AnalysisG framework.">
<polygon fill="white" stroke="#666666" points="856.04,-74 779.04,-74 779.04,-55 856.04,-55 856.04,-74"/>
<text text-anchor="middle" x="817.54" y="-62" font-family="Helvetica,sans-Serif" font-size="10.00">tools/tools.h</text>
</a>
</g>
</g>
<!-- Node3&#45;&gt;Node24 -->
<g id="edge38_Node000003_Node000024" class="edge">
<title>Node3&#45;&gt;Node24</title>
<g id="a_edge38_Node000003_Node000024"><a xlink:title=" ">
<path fill="none" stroke="#63b8ff" d="M1393.22,-229.49C1267.32,-218.04 955.64,-184.71 868.54,-129 850.73,-117.61 836.33,-97.87 827.43,-83.41"/>
<polygon fill="#63b8ff" stroke="#63b8ff" points="830.24,-81.28 822.17,-74.42 824.19,-84.82 830.24,-81.28"/>
</a>
</g>
</g>
<!-- Node26 -->
<g id="Node000026" class="node">
<title>Node26</title>
<g id="a_Node000026"><a xlink:title=" ">
<polygon fill="#e0e0e0" stroke="#999999" points="1530.54,-184 1474.54,-184 1474.54,-165 1530.54,-165 1530.54,-184"/>
<text text-anchor="middle" x="1502.54" y="-172" font-family="Helvetica,sans-Serif" font-size="10.00">sstream</text>
</a>
</g>
</g>
<!-- Node3&#45;&gt;Node26 -->
<g id="edge45_Node000003_Node000026" class="edge">
<title>Node3&#45;&gt;Node26</title>
<g id="a_edge45_Node000003_Node000026"><a xlink:title=" ">
<path fill="none" stroke="#63b8ff" d="M1460.09,-219.84C1468.22,-211.35 1478.59,-200.52 1487.04,-191.69"/>
<polygon fill="#63b8ff" stroke="#63b8ff" points="1489.76,-193.91 1494.15,-184.27 1484.7,-189.07 1489.76,-193.91"/>
</a>
</g>
</g>
<!-- Node27 -->
<g id="Node000027" class="node">
<title>Node27</title>
<g id="a_Node000027"><a xlink:title=" ">
<polygon fill="#e0e0e0" stroke="#999999" points="1598.04,-184 1549.04,-184 1549.04,-165 1598.04,-165 1598.04,-184"/>
<text text-anchor="middle" x="1573.54" y="-172" font-family="Helvetica,sans-Serif" font-size="10.00">cstdlib</text>
</a>
</g>
</g>
<!-- Node3&#45;&gt;Node27 -->
<g id="edge47_Node000003_Node000027" class="edge">
<title>Node3&#45;&gt;Node27</title>
<g id="a_edge47_Node000003_Node000027"><a xlink:title=" ">
<path fill="none" stroke="#63b8ff" d="M1476.96,-219.99C1497.77,-210.4 1525.16,-197.79 1545.45,-188.44"/>
<polygon fill="#63b8ff" stroke="#63b8ff" points="1547.16,-191.5 1554.78,-184.14 1544.24,-185.14 1547.16,-191.5"/>
</a>
</g>
</g>
<!-- Node28 -->
<g id="Node000028" class="node">
<title>Node28</title>
<g id="a_Node000028"><a xlink:title=" ">
<polygon fill="#e0e0e0" stroke="#999999" points="1663.04,-184 1616.04,-184 1616.04,-165 1663.04,-165 1663.04,-184"/>
<text text-anchor="middle" x="1639.54" y="-172" font-family="Helvetica,sans-Serif" font-size="10.00">cmath</text>
</a>
</g>
</g>
<!-- Node3&#45;&gt;Node28 -->
<g id="edge48_Node000003_Node000028" class="edge">
<title>Node3&#45;&gt;Node28</title>
<g id="a_edge48_Node000003_Node000028"><a xlink:title=" ">
<path fill="none" stroke="#63b8ff" d="M1492.77,-219.99C1527.78,-209.37 1575.06,-195.04 1606.38,-185.55"/>
<polygon fill="#63b8ff" stroke="#63b8ff" points="1607.4,-188.9 1615.95,-182.65 1605.37,-182.2 1607.4,-188.9"/>
</a>
</g>
</g>
<!-- Node4&#45;&gt;Node5 -->
<g id="edge4_Node000004_Node000005" class="edge">
<title>Node4&#45;&gt;Node5</title>
<g id="a_edge4_Node000004_Node000005"><a xlink:title=" ">
<path fill="none" stroke="#63b8ff" d="M1512.5,-58.03C1408.55,-47.1 1177.89,-22.84 1092.85,-13.9"/>
<polygon fill="#63b8ff" stroke="#63b8ff" points="1093.07,-10.4 1082.76,-12.84 1092.33,-17.36 1093.07,-10.4"/>
</a>
</g>
</g>
<!-- Node6 -->
<g id="Node000006" class="node">
<title>Node6</title>
<g id="a_Node000006"><a xlink:title=" ">
<polygon fill="#e0e0e0" stroke="#999999" points="1470.04,-19 1423.04,-19 1423.04,0 1470.04,0 1470.04,-19"/>
<text text-anchor="middle" x="1446.54" y="-7" font-family="Helvetica,sans-Serif" font-size="10.00">vector</text>
</a>
</g>
</g>
<!-- Node4&#45;&gt;Node6 -->
<g id="edge5_Node000004_Node000006" class="edge">
<title>Node4&#45;&gt;Node6</title>
<g id="a_edge5_Node000004_Node000006"><a xlink:title=" ">
<path fill="none" stroke="#63b8ff" d="M1545.58,-54.98C1526.51,-46.42 1496.88,-33.11 1474.99,-23.28"/>
<polygon fill="#63b8ff" stroke="#63b8ff" points="1476.4,-20.07 1465.84,-19.17 1473.53,-26.46 1476.4,-20.07"/>
</a>
</g>
</g>
<!-- Node7 -->
<g id="Node000007" class="node">
<title>Node7</title>
<g id="a_Node000007"><a xlink:title=" ">
<polygon fill="#e0e0e0" stroke="#999999" points="1583.54,-19 1545.54,-19 1545.54,0 1583.54,0 1583.54,-19"/>
<text text-anchor="middle" x="1564.54" y="-7" font-family="Helvetica,sans-Serif" font-size="10.00">map</text>
</a>
</g>
</g>
<!-- Node4&#45;&gt;Node7 -->
<g id="edge6_Node000004_Node000007" class="edge">
<title>Node4&#45;&gt;Node7</title>
<g id="a_edge6_Node000004_Node000007"><a xlink:title=" ">
<path fill="none" stroke="#63b8ff" d="M1564.54,-54.75C1564.54,-47.8 1564.54,-37.85 1564.54,-29.13"/>
<polygon fill="#63b8ff" stroke="#63b8ff" points="1568.04,-29.09 1564.54,-19.09 1561.04,-29.09 1568.04,-29.09"/>
</a>
</g>
</g>
<!-- Node8&#45;&gt;Node5 -->
<g id="edge9_Node000008_Node000005" class="edge">
<title>Node8&#45;&gt;Node5</title>
<g id="a_edge9_Node000008_Node000005"><a xlink:title=" ">
<path fill="none" stroke="#63b8ff" d="M1776.94,-58.92C1761.71,-57.59 1744.95,-56.18 1729.54,-55 1484.83,-36.25 1189.4,-18.2 1092.8,-12.41"/>
<polygon fill="#63b8ff" stroke="#63b8ff" points="1092.97,-8.92 1082.78,-11.82 1092.56,-15.91 1092.97,-8.92"/>
</a>
</g>
</g>
<!-- Node9 -->
<g id="Node000009" class="node">
<title>Node9</title>
<g id="a_Node000009"><a xlink:title=" ">
<polygon fill="#e0e0e0" stroke="#999999" points="1860.04,-19 1795.04,-19 1795.04,0 1860.04,0 1860.04,-19"/>
<text text-anchor="middle" x="1827.54" y="-7" font-family="Helvetica,sans-Serif" font-size="10.00">functional</text>
</a>
</g>
</g>
<!-- Node8&#45;&gt;Node9 -->
<g id="edge8_Node000008_Node000009" class="edge">
<title>Node8&#45;&gt;Node9</title>
<g id="a_edge8_Node000008_Node000009"><a xlink:title=" ">
<path fill="none" stroke="#63b8ff" d="M1827.54,-54.75C1827.54,-47.8 1827.54,-37.85 1827.54,-29.13"/>
<polygon fill="#63b8ff" stroke="#63b8ff" points="1831.04,-29.09 1827.54,-19.09 1824.04,-29.09 1831.04,-29.09"/>
</a>
</g>
</g>
<!-- Node10&#45;&gt;Node5 -->
<g id="edge35_Node000010_Node000005" class="edge">
<title>Node10&#45;&gt;Node5</title>
<g id="a_edge35_Node000010_Node000005"><a xlink:title=" ">
<path fill="none" stroke="#63b8ff" d="M1149.71,-165C1149.53,-151.68 1147.28,-125.77 1133.54,-110 1105.51,-77.83 1068.39,-109.38 1044.54,-74 1035.23,-60.19 1041.81,-41.4 1049.14,-27.85"/>
<polygon fill="#63b8ff" stroke="#63b8ff" points="1052.28,-29.43 1054.4,-19.05 1046.27,-25.84 1052.28,-29.43"/>
</a>
</g>
</g>
<!-- Node10&#45;&gt;Node6 -->
<g id="edge36_Node000010_Node000006" class="edge">
<title>Node10&#45;&gt;Node6</title>
<g id="a_edge36_Node000010_Node000006"><a xlink:title=" ">
<path fill="none" stroke="#63b8ff" d="M1200.67,-169.8C1243.53,-165.01 1305.27,-154.03 1353.54,-129 1385.65,-112.35 1391.53,-102.71 1413.54,-74 1424.27,-60 1433.26,-41.98 1439.12,-28.72"/>
<polygon fill="#63b8ff" stroke="#63b8ff" points="1442.45,-29.85 1443.14,-19.27 1436.01,-27.11 1442.45,-29.85"/>
</a>
</g>
</g>
<!-- Node10&#45;&gt;Node7 -->
<g id="edge37_Node000010_Node000007" class="edge">
<title>Node10&#45;&gt;Node7</title>
<g id="a_edge37_Node000010_Node000007"><a xlink:title=" ">
<path fill="none" stroke="#63b8ff" d="M1201,-173.22C1330.98,-171.28 1666.65,-158.05 1729.54,-74 1734.6,-67.24 1734.67,-61.7 1729.54,-55 1721.19,-44.1 1638.67,-25.7 1593.59,-16.34"/>
<polygon fill="#63b8ff" stroke="#63b8ff" points="1594.29,-12.91 1583.79,-14.33 1592.88,-19.77 1594.29,-12.91"/>
</a>
</g>
</g>
<!-- Node11 -->
<g id="Node000011" class="node">
<title>Node11</title>
<g id="a_Node000011"><a xlink:title=" ">
<polygon fill="#e0e0e0" stroke="#999999" points="209.04,-74 160.04,-74 160.04,-55 209.04,-55 209.04,-74"/>
<text text-anchor="middle" x="184.54" y="-62" font-family="Helvetica,sans-Serif" font-size="10.00">TFile.h</text>
</a>
</g>
</g>
<!-- Node10&#45;&gt;Node11 -->
<g id="edge11_Node000010_Node000011" class="edge">
<title>Node10&#45;&gt;Node11</title>
<g id="a_edge11_Node000010_Node000011"><a xlink:title=" ">
<path fill="none" stroke="#63b8ff" d="M1098.48,-171.85C990.63,-167.93 731.85,-156.28 516.54,-129 385.76,-112.43 351.16,-103.53 219.43,-74.32"/>
<polygon fill="#63b8ff" stroke="#63b8ff" points="219.88,-70.84 209.36,-72.09 218.37,-77.67 219.88,-70.84"/>
</a>
</g>
</g>
<!-- Node12 -->
<g id="Node000012" class="node">
<title>Node12</title>
<g id="a_Node000012"><a xlink:title=" ">
<polygon fill="#e0e0e0" stroke="#999999" points="996.54,-74 944.54,-74 944.54,-55 996.54,-55 996.54,-74"/>
<text text-anchor="middle" x="970.54" y="-62" font-family="Helvetica,sans-Serif" font-size="10.00">TTree.h</text>
</a>
</g>
</g>
<!-- Node10&#45;&gt;Node12 -->
<g id="edge12_Node000010_Node000012" class="edge">
<title>Node10&#45;&gt;Node12</title>
<g id="a_edge12_Node000010_Node000012"><a xlink:title=" ">
<path fill="none" stroke="#63b8ff" d="M1146.61,-164.73C1141.6,-151.05 1130.09,-124.65 1111.54,-110 1095.18,-97.07 1042.79,-82.63 1006.7,-73.8"/>
<polygon fill="#63b8ff" stroke="#63b8ff" points="1007.08,-70.3 996.54,-71.36 1005.44,-77.1 1007.08,-70.3"/>
</a>
</g>
</g>
<!-- Node13 -->
<g id="Node000013" class="node">
<title>Node13</title>
<g id="a_Node000013"><a xlink:title=" ">
<polygon fill="#e0e0e0" stroke="#999999" points="292.04,-74 227.04,-74 227.04,-55 292.04,-55 292.04,-74"/>
<text text-anchor="middle" x="259.54" y="-62" font-family="Helvetica,sans-Serif" font-size="10.00">TBranch.h</text>
</a>
</g>
</g>
<!-- Node10&#45;&gt;Node13 -->
<g id="edge13_Node000010_Node000013" class="edge">
<title>Node10&#45;&gt;Node13</title>
<g id="a_edge13_Node000010_Node000013"><a xlink:title=" ">
<path fill="none" stroke="#63b8ff" d="M1098.21,-169.77C1009.73,-163.12 822.81,-148.1 665.54,-129 506.29,-109.66 464.29,-102.73 301.92,-73.99"/>
<polygon fill="#63b8ff" stroke="#63b8ff" points="302.52,-70.55 292.07,-72.25 301.3,-77.44 302.52,-70.55"/>
</a>
</g>
</g>
<!-- Node14 -->
<g id="Node000014" class="node">
<title>Node14</title>
<g id="a_Node000014"><a xlink:title=" ">
<polygon fill="#e0e0e0" stroke="#999999" points="926.54,-74 874.54,-74 874.54,-55 926.54,-55 926.54,-74"/>
<text text-anchor="middle" x="900.54" y="-62" font-family="Helvetica,sans-Serif" font-size="10.00">TLeaf.h</text>
</a>
</g>
</g>
<!-- Node10&#45;&gt;Node14 -->
<g id="edge14_Node000010_Node000014" class="edge">
<title>Node10&#45;&gt;Node14</title>
<g id="a_edge14_Node000010_Node000014"><a xlink:title=" ">
<path fill="none" stroke="#63b8ff" d="M1098.53,-172.68C1027.99,-170.35 906.2,-161.57 878.54,-129 867.26,-115.72 876.62,-96.33 886.38,-82.48"/>
<polygon fill="#63b8ff" stroke="#63b8ff" points="889.35,-84.36 892.64,-74.29 883.79,-80.11 889.35,-84.36"/>
</a>
</g>
</g>
<!-- Node15 -->
<g id="Node000015" class="node">
<title>Node15</title>
<g id="a_Node000015"><a xlink:title=" ">
<polygon fill="#e0e0e0" stroke="#999999" points="998.04,-129 887.04,-129 887.04,-110 998.04,-110 998.04,-129"/>
<text text-anchor="middle" x="942.54" y="-117" font-family="Helvetica,sans-Serif" font-size="10.00">TTreeReaderArray.h</text>
</a>
</g>
</g>
<!-- Node10&#45;&gt;Node15 -->
<g id="edge15_Node000010_Node000015" class="edge">
<title>Node10&#45;&gt;Node15</title>
<g id="a_edge15_Node000010_Node000015"><a xlink:title=" ">
<path fill="none" stroke="#63b8ff" d="M1116.28,-164.98C1080.93,-155.93 1024.87,-141.58 986.03,-131.64"/>
<polygon fill="#63b8ff" stroke="#63b8ff" points="986.61,-128.17 976.06,-129.08 984.88,-134.95 986.61,-128.17"/>
</a>
</g>
</g>
<!-- Node16 -->
<g id="Node000016" class="node">
<title>Node16</title>
<g id="a_Node000016"><a xlink:title=" ">
<polygon fill="#e0e0e0" stroke="#999999" points="1102.54,-129 1016.54,-129 1016.54,-110 1102.54,-110 1102.54,-129"/>
<text text-anchor="middle" x="1059.54" y="-117" font-family="Helvetica,sans-Serif" font-size="10.00">TTreeReader.h</text>
</a>
</g>
</g>
<!-- Node10&#45;&gt;Node16 -->
<g id="edge16_Node000010_Node000016" class="edge">
<title>Node10&#45;&gt;Node16</title>
<g id="a_edge16_Node000010_Node000016"><a xlink:title=" ">
<path fill="none" stroke="#63b8ff" d="M1135.08,-164.98C1121.12,-156.77 1099.74,-144.18 1083.29,-134.49"/>
<polygon fill="#63b8ff" stroke="#63b8ff" points="1084.65,-131.23 1074.26,-129.17 1081.1,-137.26 1084.65,-131.23"/>
</a>
</g>
</g>
<!-- Node17 -->
<g id="Node000017" class="node">
<title>Node17</title>
<g id="a_Node000017"><a xlink:href="vector__cast_8h.html" target="_top" xlink:title=" ">
<polygon fill="white" stroke="#666666" points="1344.04,-129 1235.04,-129 1235.04,-110 1344.04,-110 1344.04,-129"/>
<text text-anchor="middle" x="1289.54" y="-117" font-family="Helvetica,sans-Serif" font-size="10.00">tools/vector_cast.h</text>
</a>
</g>
</g>
<!-- Node10&#45;&gt;Node17 -->
<g id="edge17_Node000010_Node000017" class="edge">
<title>Node10&#45;&gt;Node17</title>
<g id="a_edge17_Node000010_Node000017"><a xlink:title=" ">
<path fill="none" stroke="#63b8ff" d="M1172.03,-164.98C1195.06,-156.27 1231.08,-142.63 1257.17,-132.75"/>
<polygon fill="#63b8ff" stroke="#63b8ff" points="1258.52,-135.98 1266.64,-129.17 1256.04,-129.44 1258.52,-135.98"/>
</a>
</g>
</g>
<!-- Node19 -->
<g id="Node000019" class="node">
<title>Node19</title>
<g id="a_Node000019"><a xlink:href="structs_2include_2structs_2meta_8h.html" target="_top" xlink:title="Defines metadata structures for physics analysis datasets.">
<polygon fill="white" stroke="#666666" points="1140.04,-74 1053.04,-74 1053.04,-55 1140.04,-55 1140.04,-74"/>
<text text-anchor="middle" x="1096.54" y="-62" font-family="Helvetica,sans-Serif" font-size="10.00">structs/meta.h</text>
</a>
</g>
</g>
<!-- Node10&#45;&gt;Node19 -->
<g id="edge33_Node000010_Node000019" class="edge">
<title>Node10&#45;&gt;Node19</title>
<g id="a_edge33_Node000010_Node000019"><a xlink:title=" ">
<path fill="none" stroke="#63b8ff" d="M1160.06,-164.67C1173.59,-152.21 1194.03,-128.89 1182.54,-110 1173.35,-94.9 1157.19,-84.69 1141.35,-77.91"/>
<polygon fill="#63b8ff" stroke="#63b8ff" points="1142.18,-74.48 1131.59,-74.12 1139.64,-81 1142.18,-74.48"/>
</a>
</g>
</g>
<!-- Node10&#45;&gt;Node20 -->
<g id="edge34_Node000010_Node000020" class="edge">
<title>Node10&#45;&gt;Node20</title>
<g id="a_edge34_Node000010_Node000020"><a xlink:title=" ">
<path fill="none" stroke="#63b8ff" d="M1098.37,-172.58C902.73,-168.53 210.07,-148.93 150.54,-74 105.06,-16.76 246.58,-9.72 319.26,-9.73"/>
<polygon fill="#63b8ff" stroke="#63b8ff" points="319.44,-13.23 329.46,-9.78 319.47,-6.23 319.44,-13.23"/>
</a>
</g>
</g>
<!-- Node21 -->
<g id="Node000021" class="node">
<title>Node21</title>
<g id="a_Node000021"><a xlink:href="modules_2structs_2include_2structs_2base_8h.html" target="_top" xlink:title="Defines fundamental data structures and type handling for the AnalysisG framework.">
<polygon fill="white" stroke="#666666" points="1720.04,-74 1635.04,-74 1635.04,-55 1720.04,-55 1720.04,-74"/>
<text text-anchor="middle" x="1677.54" y="-62" font-family="Helvetica,sans-Serif" font-size="10.00">structs/base.h</text>
</a>
</g>
</g>
<!-- Node10&#45;&gt;Node21 -->
<g id="edge32_Node000010_Node000021" class="edge">
<title>Node10&#45;&gt;Node21</title>
<g id="a_edge32_Node000010_Node000021"><a xlink:title=" ">
<path fill="none" stroke="#63b8ff" d="M1200.72,-170.41C1269.29,-165.5 1394.41,-153.81 1498.54,-129 1552.69,-116.1 1613.27,-92.6 1648.25,-78.09"/>
<polygon fill="#63b8ff" stroke="#63b8ff" points="1649.96,-81.16 1657.83,-74.07 1647.25,-74.71 1649.96,-81.16"/>
</a>
</g>
</g>
<!-- Node17&#45;&gt;Node6 -->
<g id="edge31_Node000017_Node000006" class="edge">
<title>Node17&#45;&gt;Node6</title>
<g id="a_edge31_Node000017_Node000006"><a xlink:title=" ">
<path fill="none" stroke="#63b8ff" d="M1316.63,-109.95C1337.73,-102.5 1367.1,-90.32 1389.54,-74 1407.42,-60.99 1423.83,-41.56 1434.41,-27.62"/>
<polygon fill="#63b8ff" stroke="#63b8ff" points="1437.36,-29.5 1440.47,-19.37 1431.72,-25.36 1437.36,-29.5"/>
</a>
</g>
</g>
<!-- Node17&#45;&gt;Node12 -->
<g id="edge30_Node000017_Node000012" class="edge">
<title>Node17&#45;&gt;Node12</title>
<g id="a_edge30_Node000017_Node000012"><a xlink:title=" ">
<path fill="none" stroke="#63b8ff" d="M1238.29,-109.98C1173.46,-99.21 1063.46,-80.94 1006.74,-71.51"/>
<polygon fill="#63b8ff" stroke="#63b8ff" points="1007.23,-68.05 996.79,-69.86 1006.08,-74.95 1007.23,-68.05"/>
</a>
</g>
</g>
<!-- Node18 -->
<g id="Node000018" class="node">
<title>Node18</title>
<g id="a_Node000018"><a xlink:title=" ">
<polygon fill="#e0e0e0" stroke="#999999" points="1284.54,-74 1158.54,-74 1158.54,-55 1284.54,-55 1284.54,-74"/>
<text text-anchor="middle" x="1221.54" y="-62" font-family="Helvetica,sans-Serif" font-size="10.00">c10/core/DeviceType.h</text>
</a>
</g>
</g>
<!-- Node17&#45;&gt;Node18 -->
<g id="edge18_Node000017_Node000018" class="edge">
<title>Node17&#45;&gt;Node18</title>
<g id="a_edge18_Node000017_Node000018"><a xlink:title=" ">
<path fill="none" stroke="#63b8ff" d="M1278.61,-109.98C1268.46,-102.07 1253.12,-90.11 1240.89,-80.58"/>
<polygon fill="#63b8ff" stroke="#63b8ff" points="1242.7,-77.56 1232.66,-74.17 1238.4,-83.08 1242.7,-77.56"/>
</a>
</g>
</g>
<!-- Node17&#45;&gt;Node19 -->
<g id="edge19_Node000017_Node000019" class="edge">
<title>Node17&#45;&gt;Node19</title>
<g id="a_edge19_Node000017_Node000019"><a xlink:title=" ">
<path fill="none" stroke="#63b8ff" d="M1258.53,-109.98C1225.71,-100.97 1173.74,-86.7 1137.55,-76.76"/>
<polygon fill="#63b8ff" stroke="#63b8ff" points="1138.36,-73.36 1127.79,-74.08 1136.51,-80.11 1138.36,-73.36"/>
</a>
</g>
</g>
<!-- Node17&#45;&gt;Node21 -->
<g id="edge24_Node000017_Node000021" class="edge">
<title>Node17&#45;&gt;Node21</title>
<g id="a_edge24_Node000017_Node000021"><a xlink:title=" ">
<path fill="none" stroke="#63b8ff" d="M1344.32,-111.76C1408.8,-103.72 1519.4,-89.56 1624.8,-74.07"/>
<polygon fill="#63b8ff" stroke="#63b8ff" points="1625.61,-77.49 1634.99,-72.56 1624.58,-70.56 1625.61,-77.49"/>
</a>
</g>
</g>
<!-- Node23 -->
<g id="Node000023" class="node">
<title>Node23</title>
<g id="a_Node000023"><a xlink:title=" ">
<polygon fill="#e0e0e0" stroke="#999999" points="1380.54,-74 1302.54,-74 1302.54,-55 1380.54,-55 1380.54,-74"/>
<text text-anchor="middle" x="1341.54" y="-62" font-family="Helvetica,sans-Serif" font-size="10.00">torch/torch.h</text>
</a>
</g>
</g>
<!-- Node17&#45;&gt;Node23 -->
<g id="edge29_Node000017_Node000023" class="edge">
<title>Node17&#45;&gt;Node23</title>
<g id="a_edge29_Node000017_Node000023"><a xlink:title=" ">
<path fill="none" stroke="#63b8ff" d="M1298.12,-109.75C1305.7,-102.03 1316.92,-90.6 1326.05,-81.28"/>
<polygon fill="#63b8ff" stroke="#63b8ff" points="1328.61,-83.68 1333.11,-74.09 1323.61,-78.78 1328.61,-83.68"/>
</a>
</g>
</g>
<!-- Node19&#45;&gt;Node5 -->
<g id="edge21_Node000019_Node000005" class="edge">
<title>Node19&#45;&gt;Node5</title>
<g id="a_edge21_Node000019_Node000005"><a xlink:title=" ">
<path fill="none" stroke="#63b8ff" d="M1090.59,-54.75C1085.56,-47.34 1078.2,-36.5 1072.02,-27.41"/>
<polygon fill="#63b8ff" stroke="#63b8ff" points="1074.89,-25.39 1066.37,-19.09 1069.1,-29.33 1074.89,-25.39"/>
</a>
</g>
</g>
<!-- Node19&#45;&gt;Node6 -->
<g id="edge22_Node000019_Node000006" class="edge">
<title>Node19&#45;&gt;Node6</title>
<g id="a_edge22_Node000019_Node000006"><a xlink:title=" ">
<path fill="none" stroke="#63b8ff" d="M1140.21,-56.46C1143.36,-55.96 1146.5,-55.47 1149.54,-55 1244.89,-40.21 1357.6,-23.55 1412.73,-15.45"/>
<polygon fill="#63b8ff" stroke="#63b8ff" points="1413.27,-18.91 1422.66,-13.99 1412.25,-11.98 1413.27,-18.91"/>
</a>
</g>
</g>
<!-- Node19&#45;&gt;Node7 -->
<g id="edge23_Node000019_Node000007" class="edge">
<title>Node19&#45;&gt;Node7</title>
<g id="a_edge23_Node000019_Node000007"><a xlink:title=" ">
<path fill="none" stroke="#63b8ff" d="M1140.18,-56.32C1143.35,-55.85 1146.49,-55.41 1149.54,-55 1224.63,-44.96 1453.95,-21.63 1535.43,-13.42"/>
<polygon fill="#63b8ff" stroke="#63b8ff" points="1535.88,-16.89 1545.48,-12.41 1535.18,-9.93 1535.88,-16.89"/>
</a>
</g>
</g>
<!-- Node19&#45;&gt;Node20 -->
<g id="edge20_Node000019_Node000020" class="edge">
<title>Node19&#45;&gt;Node20</title>
<g id="a_edge20_Node000019_Node000020"><a xlink:title=" ">
<path fill="none" stroke="#63b8ff" d="M1052.59,-59.18C1037.66,-57.77 1020.88,-56.24 1005.54,-55 776.65,-36.43 501.73,-19.16 399.97,-12.94"/>
<polygon fill="#63b8ff" stroke="#63b8ff" points="400.02,-9.44 389.83,-12.32 399.6,-16.43 400.02,-9.44"/>
</a>
</g>
</g>
<!-- Node21&#45;&gt;Node5 -->
<g id="edge25_Node000021_Node000005" class="edge">
<title>Node21&#45;&gt;Node5</title>
<g id="a_edge25_Node000021_Node000005"><a xlink:title=" ">
<path fill="none" stroke="#63b8ff" d="M1635.01,-56.25C1631.81,-55.8 1628.63,-55.37 1625.54,-55 1423.67,-30.59 1179.52,-16.59 1092.91,-12.1"/>
<polygon fill="#63b8ff" stroke="#63b8ff" points="1092.85,-8.59 1082.68,-11.58 1092.49,-15.58 1092.85,-8.59"/>
</a>
</g>
</g>
<!-- Node21&#45;&gt;Node6 -->
<g id="edge26_Node000021_Node000006" class="edge">
<title>Node21&#45;&gt;Node6</title>
<g id="a_edge26_Node000021_Node000006"><a xlink:title=" ">
<path fill="none" stroke="#63b8ff" d="M1640.42,-54.98C1596.12,-44.82 1522.69,-27.97 1480.05,-18.19"/>
<polygon fill="#63b8ff" stroke="#63b8ff" points="1480.69,-14.74 1470.16,-15.92 1479.12,-21.57 1480.69,-14.74"/>
</a>
</g>
</g>
<!-- Node21&#45;&gt;Node7 -->
<g id="edge27_Node000021_Node000007" class="edge">
<title>Node21&#45;&gt;Node7</title>
<g id="a_edge27_Node000021_Node000007"><a xlink:title=" ">
<path fill="none" stroke="#63b8ff" d="M1659.38,-54.98C1641.29,-46.5 1613.25,-33.35 1592.35,-23.54"/>
<polygon fill="#63b8ff" stroke="#63b8ff" points="1593.56,-20.25 1583.02,-19.17 1590.59,-26.59 1593.56,-20.25"/>
</a>
</g>
</g>
<!-- Node22 -->
<g id="Node000022" class="node">
<title>Node22</title>
<g id="a_Node000022"><a xlink:href="enums_8h.html" target="_top" xlink:title=" ">
<polygon fill="white" stroke="#666666" points="1725.04,-19 1630.04,-19 1630.04,0 1725.04,0 1725.04,-19"/>
<text text-anchor="middle" x="1677.54" y="-7" font-family="Helvetica,sans-Serif" font-size="10.00">structs/enums.h</text>
</a>
</g>
</g>
<!-- Node21&#45;&gt;Node22 -->
<g id="edge28_Node000021_Node000022" class="edge">
<title>Node21&#45;&gt;Node22</title>
<g id="a_edge28_Node000021_Node000022"><a xlink:title=" ">
<path fill="none" stroke="#63b8ff" d="M1677.54,-54.75C1677.54,-47.8 1677.54,-37.85 1677.54,-29.13"/>
<polygon fill="#63b8ff" stroke="#63b8ff" points="1681.04,-29.09 1677.54,-19.09 1674.04,-29.09 1681.04,-29.09"/>
</a>
</g>
</g>
<!-- Node24&#45;&gt;Node5 -->
<g id="edge40_Node000024_Node000005" class="edge">
<title>Node24&#45;&gt;Node5</title>
<g id="a_edge40_Node000024_Node000005"><a xlink:title=" ">
<path fill="none" stroke="#63b8ff" d="M856.04,-55.1C903.62,-44.73 983.71,-27.26 1028.23,-17.55"/>
<polygon fill="#63b8ff" stroke="#63b8ff" points="1029.2,-20.92 1038.22,-15.37 1027.7,-14.08 1029.2,-20.92"/>
</a>
</g>
</g>
<!-- Node24&#45;&gt;Node6 -->
<g id="edge41_Node000024_Node000006" class="edge">
<title>Node24&#45;&gt;Node6</title>
<g id="a_edge41_Node000024_Node000006"><a xlink:title=" ">
<path fill="none" stroke="#63b8ff" d="M856.26,-56.3C859.39,-55.83 862.52,-55.38 865.54,-55 1072.65,-28.8 1323.39,-15.92 1412.84,-11.91"/>
<polygon fill="#63b8ff" stroke="#63b8ff" points="1413.1,-15.41 1422.93,-11.47 1412.79,-8.41 1413.1,-15.41"/>
</a>
</g>
</g>
<!-- Node24&#45;&gt;Node7 -->
<g id="edge43_Node000024_Node000007" class="edge">
<title>Node24&#45;&gt;Node7</title>
<g id="a_edge43_Node000024_Node000007"><a xlink:title=" ">
<path fill="none" stroke="#63b8ff" d="M856.25,-56.24C859.39,-55.78 862.51,-55.36 865.54,-55 1137.03,-23.11 1207.04,-40.6 1479.54,-19 1498.09,-17.53 1518.89,-15.46 1535.26,-13.73"/>
<polygon fill="#63b8ff" stroke="#63b8ff" points="1535.75,-17.2 1545.32,-12.65 1535,-10.24 1535.75,-17.2"/>
</a>
</g>
</g>
<!-- Node24&#45;&gt;Node20 -->
<g id="edge39_Node000024_Node000020" class="edge">
<title>Node24&#45;&gt;Node20</title>
<g id="a_edge39_Node000024_Node000020"><a xlink:title=" ">
<path fill="none" stroke="#63b8ff" d="M778.8,-56.41C775.67,-55.91 772.55,-55.43 769.54,-55 634.59,-35.75 473.6,-20.52 399.94,-13.98"/>
<polygon fill="#63b8ff" stroke="#63b8ff" points="399.99,-10.47 389.72,-13.08 399.37,-17.44 399.99,-10.47"/>
</a>
</g>
</g>
<!-- Node25 -->
<g id="Node000025" class="node">
<title>Node25</title>
<g id="a_Node000025"><a xlink:title=" ">
<polygon fill="#e0e0e0" stroke="#999999" points="842.54,-19 792.54,-19 792.54,0 842.54,0 842.54,-19"/>
<text text-anchor="middle" x="817.54" y="-7" font-family="Helvetica,sans-Serif" font-size="10.00">cstdint</text>
</a>
</g>
</g>
<!-- Node24&#45;&gt;Node25 -->
<g id="edge42_Node000024_Node000025" class="edge">
<title>Node24&#45;&gt;Node25</title>
<g id="a_edge42_Node000024_Node000025"><a xlink:title=" ">
<path fill="none" stroke="#63b8ff" d="M817.54,-54.75C817.54,-47.8 817.54,-37.85 817.54,-29.13"/>
<polygon fill="#63b8ff" stroke="#63b8ff" points="821.04,-29.09 817.54,-19.09 814.04,-29.09 821.04,-29.09"/>
</a>
</g>
</g>
<!-- Node29&#45;&gt;Node3 -->
<g id="edge50_Node000029_Node000003" class="edge">
<title>Node29&#45;&gt;Node3</title>
<g id="a_edge50_Node000029_Node000003"><a xlink:title=" ">
<path fill="none" stroke="#63b8ff" d="M1192.72,-285.99C1242.88,-276.11 1326.07,-259.73 1383.46,-248.42"/>
<polygon fill="#63b8ff" stroke="#63b8ff" points="1384.38,-251.81 1393.51,-246.44 1383.02,-244.94 1384.38,-251.81"/>
</a>
</g>
</g>
<!-- Node29&#45;&gt;Node8 -->
<g id="edge51_Node000029_Node000008" class="edge">
<title>Node29&#45;&gt;Node8</title>
<g id="a_edge51_Node000029_Node000008"><a xlink:title=" ">
<path fill="none" stroke="#63b8ff" d="M1227.25,-288.96C1300.43,-282.77 1412.8,-270.8 1508.54,-250 1604.14,-229.23 1631.54,-228.75 1718.54,-184 1754.66,-165.42 1764.74,-159.53 1791.54,-129 1803.66,-115.19 1813.6,-96.64 1819.94,-83.16"/>
<polygon fill="#63b8ff" stroke="#63b8ff" points="1823.15,-84.56 1824.07,-74.01 1816.77,-81.69 1823.15,-84.56"/>
</a>
</g>
</g>
<!-- Node29&#45;&gt;Node10 -->
<g id="edge52_Node000029_Node000010" class="edge">
<title>Node29&#45;&gt;Node10</title>
<g id="a_edge52_Node000029_Node000010"><a xlink:title=" ">
<path fill="none" stroke="#63b8ff" d="M1149.54,-285.94C1149.54,-266.91 1149.54,-220.69 1149.54,-194.47"/>
<polygon fill="#63b8ff" stroke="#63b8ff" points="1153.04,-194.3 1149.54,-184.3 1146.04,-194.3 1153.04,-194.3"/>
</a>
</g>
</g>
<!-- Node29&#45;&gt;Node24 -->
<g id="edge56_Node000029_Node000024" class="edge">
<title>Node29&#45;&gt;Node24</title>
<g id="a_edge56_Node000029_Node000024"><a xlink:title=" ">
<path fill="none" stroke="#63b8ff" d="M1119.37,-285.98C1058.71,-267.37 921.1,-217.55 842.54,-129 831.25,-116.27 824.76,-97.84 821.23,-84.11"/>
<polygon fill="#63b8ff" stroke="#63b8ff" points="824.63,-83.29 819.01,-74.31 817.81,-84.83 824.63,-83.29"/>
</a>
</g>
</g>
<!-- Node30 -->
<g id="Node000030" class="node">
<title>Node30</title>
<g id="a_Node000030"><a xlink:href="modules_2structs_2include_2structs_2event_8h.html" target="_top" xlink:title=" ">
<polygon fill="white" stroke="#666666" points="103.04,-74 14.04,-74 14.04,-55 103.04,-55 103.04,-74"/>
<text text-anchor="middle" x="58.54" y="-62" font-family="Helvetica,sans-Serif" font-size="10.00">structs/event.h</text>
</a>
</g>
</g>
<!-- Node29&#45;&gt;Node30 -->
<g id="edge53_Node000029_Node000030" class="edge">
<title>Node29&#45;&gt;Node30</title>
<g id="a_edge53_Node000029_Node000030"><a xlink:title=" ">
<path fill="none" stroke="#63b8ff" d="M1072.02,-289.2C989.25,-282.81 854.46,-270.33 739.54,-250 518.65,-210.92 465.03,-191.32 249.54,-129 193.61,-112.82 129.58,-90.81 91.68,-77.4"/>
<polygon fill="#63b8ff" stroke="#63b8ff" points="92.77,-74.07 82.17,-74.03 90.42,-80.67 92.77,-74.07"/>
</a>
</g>
</g>
<!-- Node31 -->
<g id="Node000031" class="node">
<title>Node31</title>
<g id="a_Node000031"><a xlink:href="meta_2include_2meta_2meta_8h.html" target="_top" xlink:title="Handles metadata operations and provides utilities for managing metadata&#45;related tasks.">
<polygon fill="white" stroke="#666666" points="754.54,-129 674.54,-129 674.54,-110 754.54,-110 754.54,-129"/>
<text text-anchor="middle" x="714.54" y="-117" font-family="Helvetica,sans-Serif" font-size="10.00">meta/meta.h</text>
</a>
</g>
</g>
<!-- Node29&#45;&gt;Node31 -->
<g id="edge57_Node000029_Node000031" class="edge">
<title>Node29&#45;&gt;Node31</title>
<g id="a_edge57_Node000029_Node000031"><a xlink:title=" ">
<path fill="none" stroke="#63b8ff" d="M1071.97,-294.47C974.65,-292.92 814.87,-284.93 768.54,-250 732.82,-223.07 720.56,-168.15 716.48,-139.24"/>
<polygon fill="#63b8ff" stroke="#63b8ff" points="719.95,-138.73 715.25,-129.23 713,-139.59 719.95,-138.73"/>
</a>
</g>
</g>
<!-- Node30&#45;&gt;Node5 -->
<g id="edge55_Node000030_Node000005" class="edge">
<title>Node30&#45;&gt;Node5</title>
<g id="a_edge55_Node000030_Node000005"><a xlink:title=" ">
<path fill="none" stroke="#63b8ff" d="M103.43,-58.96C118.4,-57.55 135.18,-56.08 150.54,-55 326.61,-42.57 887.34,-17.99 1028.19,-11.89"/>
<polygon fill="#63b8ff" stroke="#63b8ff" points="1028.5,-15.38 1038.33,-11.45 1028.19,-8.39 1028.5,-15.38"/>
</a>
</g>
</g>
<!-- Node30&#45;&gt;Node20 -->
<g id="edge54_Node000030_Node000020" class="edge">
<title>Node30&#45;&gt;Node20</title>
<g id="a_edge54_Node000030_Node000020"><a xlink:title=" ">
<path fill="none" stroke="#63b8ff" d="M103.28,-55.62C161.71,-45.33 263.15,-27.47 319.28,-17.59"/>
<polygon fill="#63b8ff" stroke="#63b8ff" points="319.97,-21.02 329.21,-15.84 318.75,-14.13 319.97,-21.02"/>
</a>
</g>
</g>
<!-- Node31&#45;&gt;Node8 -->
<g id="edge61_Node000031_Node000008" class="edge">
<title>Node31&#45;&gt;Node8</title>
<g id="a_edge61_Node000031_Node000008"><a xlink:title=" ">
<path fill="none" stroke="#63b8ff" d="M754.64,-116.32C787.84,-114.53 836.25,-111.99 878.54,-110 1256.68,-92.2 1351.76,-98.36 1729.54,-74 1741.59,-73.22 1754.46,-72.23 1766.77,-71.19"/>
<polygon fill="#63b8ff" stroke="#63b8ff" points="1767.3,-74.66 1776.96,-70.32 1766.7,-67.69 1767.3,-74.66"/>
</a>
</g>
</g>
<!-- Node31&#45;&gt;Node11 -->
<g id="edge67_Node000031_Node000011" class="edge">
<title>Node31&#45;&gt;Node11</title>
<g id="a_edge67_Node000031_Node000011"><a xlink:title=" ">
<path fill="none" stroke="#63b8ff" d="M674.31,-117.12C590.99,-113.78 393.43,-103.4 219.42,-74.07"/>
<polygon fill="#63b8ff" stroke="#63b8ff" points="219.76,-70.58 209.31,-72.34 218.58,-77.48 219.76,-70.58"/>
</a>
</g>
</g>
<!-- Node31&#45;&gt;Node12 -->
<g id="edge68_Node000031_Node000012" class="edge">
<title>Node31&#45;&gt;Node12</title>
<g id="a_edge68_Node000031_Node000012"><a xlink:title=" ">
<path fill="none" stroke="#63b8ff" d="M754.56,-110.93C796.83,-102.84 865.66,-89.34 934.1,-74.25"/>
<polygon fill="#63b8ff" stroke="#63b8ff" points="935.19,-77.6 944.19,-72.02 933.67,-70.76 935.19,-77.6"/>
</a>
</g>
</g>
<!-- Node31&#45;&gt;Node13 -->
<g id="edge69_Node000031_Node000013" class="edge">
<title>Node31&#45;&gt;Node13</title>
<g id="a_edge69_Node000031_Node000013"><a xlink:title=" ">
<path fill="none" stroke="#63b8ff" d="M674.51,-115.42C602.29,-109.61 445.25,-95.73 302.31,-73.97"/>
<polygon fill="#63b8ff" stroke="#63b8ff" points="302.46,-70.45 292.04,-72.39 301.4,-77.37 302.46,-70.45"/>
</a>
</g>
</g>
<!-- Node31&#45;&gt;Node14 -->
<g id="edge70_Node000031_Node000014" class="edge">
<title>Node31&#45;&gt;Node14</title>
<g id="a_edge70_Node000031_Node000014"><a xlink:title=" ">
<path fill="none" stroke="#63b8ff" d="M744.42,-109.98C777.13,-100.66 829.57,-85.72 864.53,-75.76"/>
<polygon fill="#63b8ff" stroke="#63b8ff" points="865.68,-79.07 874.34,-72.97 863.76,-72.34 865.68,-79.07"/>
</a>
</g>
</g>
<!-- Node31&#45;&gt;Node19 -->
<g id="edge58_Node000031_Node000019" class="edge">
<title>Node31&#45;&gt;Node19</title>
<g id="a_edge58_Node000031_Node000019"><a xlink:title=" ">
<path fill="none" stroke="#63b8ff" d="M754.7,-112.93C823.81,-103.34 965.27,-83.71 1042.79,-72.96"/>
<polygon fill="#63b8ff" stroke="#63b8ff" points="1043.41,-76.4 1052.84,-71.56 1042.45,-69.47 1043.41,-76.4"/>
</a>
</g>
</g>
<!-- Node31&#45;&gt;Node24 -->
<g id="edge66_Node000031_Node000024" class="edge">
<title>Node31&#45;&gt;Node24</title>
<g id="a_edge66_Node000031_Node000024"><a xlink:title=" ">
<path fill="none" stroke="#63b8ff" d="M731.09,-109.98C747.43,-101.57 772.67,-88.59 791.67,-78.81"/>
<polygon fill="#63b8ff" stroke="#63b8ff" points="793.4,-81.86 800.69,-74.17 790.19,-75.63 793.4,-81.86"/>
</a>
</g>
</g>
<!-- Node32 -->
<g id="Node000032" class="node">
<title>Node32</title>
<g id="a_Node000032"><a xlink:href="folds_8h.html" target="_top" xlink:title=" ">
<polygon fill="white" stroke="#666666" points="760.54,-74 674.54,-74 674.54,-55 760.54,-55 760.54,-74"/>
<text text-anchor="middle" x="717.54" y="-62" font-family="Helvetica,sans-Serif" font-size="10.00">structs/folds.h</text>
</a>
</g>
</g>
<!-- Node31&#45;&gt;Node32 -->
<g id="edge59_Node000031_Node000032" class="edge">
<title>Node31&#45;&gt;Node32</title>
<g id="a_edge59_Node000031_Node000032"><a xlink:title=" ">
<path fill="none" stroke="#63b8ff" d="M715.03,-109.75C715.43,-102.8 715.99,-92.85 716.48,-84.13"/>
<polygon fill="#63b8ff" stroke="#63b8ff" points="719.98,-84.27 717.05,-74.09 712.99,-83.88 719.98,-84.27"/>
</a>
</g>
</g>
<!-- Node33 -->
<g id="Node000033" class="node">
<title>Node33</title>
<g id="a_Node000033"><a xlink:title=" ">
<polygon fill="#e0e0e0" stroke="#999999" points="432.54,-74 310.54,-74 310.54,-55 432.54,-55 432.54,-74"/>
<text text-anchor="middle" x="371.54" y="-62" font-family="Helvetica,sans-Serif" font-size="10.00">rapidjson/document.h</text>
</a>
</g>
</g>
<!-- Node31&#45;&gt;Node33 -->
<g id="edge62_Node000031_Node000033" class="edge">
<title>Node31&#45;&gt;Node33</title>
<g id="a_edge62_Node000031_Node000033"><a xlink:title=" ">
<path fill="none" stroke="#63b8ff" d="M674.52,-112.32C616.07,-103.29 506.71,-86.39 436.6,-75.55"/>
<polygon fill="#63b8ff" stroke="#63b8ff" points="436.97,-72.07 426.55,-74 435.9,-78.99 436.97,-72.07"/>
</a>
</g>
</g>
<!-- Node34 -->
<g id="Node000034" class="node">
<title>Node34</title>
<g id="a_Node000034"><a xlink:href="notification_8h.html" target="_top" xlink:title="Defines the notification class for logging and messaging functionality.">
<polygon fill="white" stroke="#666666" points="656.54,-74 518.54,-74 518.54,-55 656.54,-55 656.54,-74"/>
<text text-anchor="middle" x="587.54" y="-62" font-family="Helvetica,sans-Serif" font-size="10.00">notification/notification.h</text>
</a>
</g>
</g>
<!-- Node31&#45;&gt;Node34 -->
<g id="edge63_Node000031_Node000034" class="edge">
<title>Node31&#45;&gt;Node34</title>
<g id="a_edge63_Node000031_Node000034"><a xlink:title=" ">
<path fill="none" stroke="#63b8ff" d="M694.13,-109.98C673.52,-101.38 641.43,-87.99 617.84,-78.15"/>
<polygon fill="#63b8ff" stroke="#63b8ff" points="618.89,-74.79 608.31,-74.17 616.19,-81.25 618.89,-74.79"/>
</a>
</g>
</g>
<!-- Node35 -->
<g id="Node000035" class="node">
<title>Node35</title>
<g id="a_Node000035"><a xlink:title=" ">
<polygon fill="#e0e0e0" stroke="#999999" points="500.54,-74 450.54,-74 450.54,-55 500.54,-55 500.54,-74"/>
<text text-anchor="middle" x="475.54" y="-62" font-family="Helvetica,sans-Serif" font-size="10.00">TH1F.h</text>
</a>
</g>
</g>
<!-- Node31&#45;&gt;Node35 -->
<g id="edge71_Node000031_Node000035" class="edge">
<title>Node31&#45;&gt;Node35</title>
<g id="a_edge71_Node000031_Node000035"><a xlink:title=" ">
<path fill="none" stroke="#63b8ff" d="M674.39,-110.17C635.1,-101.94 573.31,-88.76 510.8,-74.24"/>
<polygon fill="#63b8ff" stroke="#63b8ff" points="511.3,-70.76 500.77,-71.9 509.71,-77.58 511.3,-70.76"/>
</a>
</g>
</g>
<!-- Node32&#45;&gt;Node5 -->
<g id="edge60_Node000032_Node000005" class="edge">
<title>Node32&#45;&gt;Node5</title>
<g id="a_edge60_Node000032_Node000005"><a xlink:title=" ">
<path fill="none" stroke="#63b8ff" d="M760.63,-56.56C763.98,-56.03 767.32,-55.51 770.54,-55 864.18,-40.31 974.92,-23.46 1028.42,-15.36"/>
<polygon fill="#63b8ff" stroke="#63b8ff" points="1028.97,-18.81 1038.34,-13.85 1027.93,-11.89 1028.97,-18.81"/>
</a>
</g>
</g>
<!-- Node34&#45;&gt;Node5 -->
<g id="edge64_Node000034_Node000005" class="edge">
<title>Node34&#45;&gt;Node5</title>
<g id="a_edge64_Node000034_Node000005"><a xlink:title=" ">
<path fill="none" stroke="#63b8ff" d="M656.57,-55.76C760.19,-44.15 951.91,-22.67 1028.1,-14.14"/>
<polygon fill="#63b8ff" stroke="#63b8ff" points="1028.93,-17.56 1038.47,-12.97 1028.15,-10.61 1028.93,-17.56"/>
</a>
</g>
</g>
<!-- Node34&#45;&gt;Node20 -->
<g id="edge65_Node000034_Node000020" class="edge">
<title>Node34&#45;&gt;Node20</title>
<g id="a_edge65_Node000034_Node000020"><a xlink:title=" ">
<path fill="none" stroke="#63b8ff" d="M550.91,-54.98C509.54,-45.37 442.43,-29.77 399.67,-19.83"/>
<polygon fill="#63b8ff" stroke="#63b8ff" points="400.41,-16.41 389.88,-17.55 398.83,-23.23 400.41,-16.41"/>
</a>
</g>
</g>
</g>
</svg>

<g id="navigator" transform="translate(0 0)" fill="#404254">
  <rect fill="#f2f5e9" fill-opacity="0.5" stroke="#606060" stroke-width=".5" x="0" y="0" width="60" height="60"/>
  <use id="zoomplus" xlink:href="#zoomPlus" x="17" y="9" onmousedown="handleZoom(evt,'in')"/>
  <use id="zoomminus" xlink:href="#zoomMin" x="42" y="9" onmousedown="handleZoom(evt,'out')"/>
  <use id="reset" xlink:href="#resetDef" x="30" y="36" onmousedown="handleReset()"/>
   <use id="arrowup" xlink:href="#arrowUp" x="0" y="0" onmousedown="handlePan(0,-1)"/>
  <use id="arrowright" xlink:href="#arrowRight" x="0" y="0" onmousedown="handlePan(1,0)"/>
  <use id="arrowdown" xlink:href="#arrowDown" x="0" y="0" onmousedown="handlePan(0,1)"/>
  <use id="arrowleft" xlink:href="#arrowLeft" x="0" y="0" onmousedown="handlePan(-1,0)"/>
</g>
<svg viewBox="0 0 15 15" width="100%" height="30px" preserveAspectRatio="xMaxYMin meet">
 <g id="arrow_out" transform="scale(0.3 0.3)">
  <a xlink:href="events_2bsm__4tops_2include_2bsm__4tops_2event_8h__incl_org.svg" target="_base">
   <rect id="button" ry="5" rx="5" y="6" x="6" height="38" width="38"
        fill="#f2f5e9" fill-opacity="0.5" stroke="#606060" stroke-width="1.0"/>
   <path id="arrow"
     d="M 11.500037,31.436501 C 11.940474,20.09759 22.043105,11.32322 32.158766,21.979434 L 37.068811,17.246167 C 37.068811,17.246167 37.088388,32 37.088388,32 L 22.160133,31.978069 C 22.160133,31.978069 26.997745,27.140456 26.997745,27.140456 C 18.528582,18.264221 13.291696,25.230495 11.500037,31.436501 z"
     style="fill:#404040;"/>
  </a>
 </g>
</svg>

<style type='text/css'>
<![CDATA[
[data-mouse-over-selected='false'] { opacity: 0.7; }
[data-mouse-over-selected='true']  { opacity: 1.0; }
]]>
</style>
<script type="application/ecmascript"><![CDATA[
document.addEventListener('DOMContentLoaded', (event) => {
  highlightEdges();
  highlightAdjacentNodes();
});
]]></script>
</svg>
