<?xml version="1.0" encoding="UTF-8" standalone="no"?>
<!DOCTYPE svg PUBLIC "-//W3C//DTD SVG 1.1//EN"
 "http://www.w3.org/Graphics/SVG/1.1/DTD/svg11.dtd">
<!-- Generated by graphviz version 2.43.0 (0)
 -->
<!-- Title: particles.cxx Pages: 1 -->
<svg width="1109pt" height="368pt"
 viewBox="0.00 0.00 1109.15 368.00" xmlns="http://www.w3.org/2000/svg" xmlns:xlink="http://www.w3.org/1999/xlink">
<g id="graph0" class="graph" transform="scale(1 1) rotate(0) translate(4 364)">
<title>particles.cxx</title>
<!-- Node1 -->
<g id="Node000001" class="node">
<title>Node1</title>
<g id="a_Node000001"><a xlink:title=" ">
<polygon fill="#999999" stroke="#666666" points="651.15,-360 572.15,-360 572.15,-341 651.15,-341 651.15,-360"/>
<text text-anchor="middle" x="611.65" y="-348" font-family="Helvetica,sans-Serif" font-size="10.00">particles.cxx</text>
</a>
</g>
</g>
<!-- Node2 -->
<g id="Node000002" class="node">
<title>Node2</title>
<g id="a_Node000002"><a xlink:href="gnn-particles_8h.html" target="_top" xlink:title=" ">
<polygon fill="white" stroke="#666666" points="656.15,-305 567.15,-305 567.15,-286 656.15,-286 656.15,-305"/>
<text text-anchor="middle" x="611.65" y="-293" font-family="Helvetica,sans-Serif" font-size="10.00">gnn&#45;particles.h</text>
</a>
</g>
</g>
<!-- Node1&#45;&gt;Node2 -->
<g id="edge1_Node000001_Node000002" class="edge">
<title>Node1&#45;&gt;Node2</title>
<g id="a_edge1_Node000001_Node000002"><a xlink:title=" ">
<path fill="none" stroke="#63b8ff" d="M611.65,-340.75C611.65,-333.8 611.65,-323.85 611.65,-315.13"/>
<polygon fill="#63b8ff" stroke="#63b8ff" points="615.15,-315.09 611.65,-305.09 608.15,-315.09 615.15,-315.09"/>
</a>
</g>
</g>
<!-- Node3 -->
<g id="Node000003" class="node">
<title>Node3</title>
<g id="a_Node000003"><a xlink:href="particle__template_8h.html" target="_top" xlink:title="Defines the particle_template base class for physics particle representations.">
<polygon fill="white" stroke="#666666" points="664.65,-250 558.65,-250 558.65,-220 664.65,-220 664.65,-250"/>
<text text-anchor="start" x="566.65" y="-238" font-family="Helvetica,sans-Serif" font-size="10.00">templates/particle</text>
<text text-anchor="middle" x="611.65" y="-227" font-family="Helvetica,sans-Serif" font-size="10.00">_template.h</text>
</a>
</g>
</g>
<!-- Node2&#45;&gt;Node3 -->
<g id="edge2_Node000002_Node000003" class="edge">
<title>Node2&#45;&gt;Node3</title>
<g id="a_edge2_Node000002_Node000003"><a xlink:title=" ">
<path fill="none" stroke="#63b8ff" d="M611.65,-285.87C611.65,-279.11 611.65,-269.35 611.65,-260.26"/>
<polygon fill="#63b8ff" stroke="#63b8ff" points="615.15,-260.11 611.65,-250.11 608.15,-260.11 615.15,-260.11"/>
</a>
</g>
</g>
<!-- Node4 -->
<g id="Node000004" class="node">
<title>Node4</title>
<g id="a_Node000004"><a xlink:href="modules_2structs_2include_2structs_2particles_8h.html" target="_top" xlink:title=" ">
<polygon fill="white" stroke="#666666" points="284.65,-74 180.65,-74 180.65,-55 284.65,-55 284.65,-74"/>
<text text-anchor="middle" x="232.65" y="-62" font-family="Helvetica,sans-Serif" font-size="10.00">structs/particles.h</text>
</a>
</g>
</g>
<!-- Node3&#45;&gt;Node4 -->
<g id="edge3_Node000003_Node000004" class="edge">
<title>Node3&#45;&gt;Node4</title>
<g id="a_edge3_Node000003_Node000004"><a xlink:title=" ">
<path fill="none" stroke="#63b8ff" d="M558.41,-234.15C500.98,-232.13 408.51,-222.43 339.65,-184 295.24,-159.21 259.53,-109.09 242.85,-82.68"/>
<polygon fill="#63b8ff" stroke="#63b8ff" points="245.81,-80.8 237.59,-74.11 239.84,-84.46 245.81,-80.8"/>
</a>
</g>
</g>
<!-- Node5 -->
<g id="Node000005" class="node">
<title>Node5</title>
<g id="a_Node000005"><a xlink:title=" ">
<polygon fill="#e0e0e0" stroke="#999999" points="254.65,-19 210.65,-19 210.65,0 254.65,0 254.65,-19"/>
<text text-anchor="middle" x="232.65" y="-7" font-family="Helvetica,sans-Serif" font-size="10.00">string</text>
</a>
</g>
</g>
<!-- Node3&#45;&gt;Node5 -->
<g id="edge46_Node000003_Node000005" class="edge">
<title>Node3&#45;&gt;Node5</title>
<g id="a_edge46_Node000003_Node000005"><a xlink:title=" ">
<path fill="none" stroke="#63b8ff" d="M558.5,-233.55C419.25,-231.83 52.02,-223.55 15.65,-184 -27.41,-137.18 27.2,-93.75 77.65,-55 113.81,-27.22 166.7,-16.78 200.39,-12.85"/>
<polygon fill="#63b8ff" stroke="#63b8ff" points="201.02,-16.31 210.61,-11.8 200.3,-9.35 201.02,-16.31"/>
</a>
</g>
</g>
<!-- Node8 -->
<g id="Node000008" class="node">
<title>Node8</title>
<g id="a_Node000008"><a xlink:href="property_8h.html" target="_top" xlink:title="Defines the cproperty template class for property&#45;based access patterns.">
<polygon fill="white" stroke="#666666" points="126.15,-184 25.15,-184 25.15,-165 126.15,-165 126.15,-184"/>
<text text-anchor="middle" x="75.65" y="-172" font-family="Helvetica,sans-Serif" font-size="10.00">structs/property.h</text>
</a>
</g>
</g>
<!-- Node3&#45;&gt;Node8 -->
<g id="edge7_Node000003_Node000008" class="edge">
<title>Node3&#45;&gt;Node8</title>
<g id="a_edge7_Node000003_Node000008"><a xlink:title=" ">
<path fill="none" stroke="#63b8ff" d="M558.62,-228.79C471.38,-220.14 292.12,-201.94 140.65,-184 139.34,-183.85 138.02,-183.69 136.7,-183.53"/>
<polygon fill="#63b8ff" stroke="#63b8ff" points="136.73,-180 126.37,-182.25 135.87,-186.95 136.73,-180"/>
</a>
</g>
</g>
<!-- Node10 -->
<g id="Node000010" class="node">
<title>Node10</title>
<g id="a_Node000010"><a xlink:href="element_8h.html" target="_top" xlink:title=" ">
<polygon fill="white" stroke="#666666" points="662.65,-184 560.65,-184 560.65,-165 662.65,-165 662.65,-184"/>
<text text-anchor="middle" x="611.65" y="-172" font-family="Helvetica,sans-Serif" font-size="10.00">structs/element.h</text>
</a>
</g>
</g>
<!-- Node3&#45;&gt;Node10 -->
<g id="edge10_Node000003_Node000010" class="edge">
<title>Node3&#45;&gt;Node10</title>
<g id="a_edge10_Node000003_Node000010"><a xlink:title=" ">
<path fill="none" stroke="#63b8ff" d="M611.65,-219.84C611.65,-212.21 611.65,-202.7 611.65,-194.45"/>
<polygon fill="#63b8ff" stroke="#63b8ff" points="615.15,-194.27 611.65,-184.27 608.15,-194.27 615.15,-194.27"/>
</a>
</g>
</g>
<!-- Node20 -->
<g id="Node000020" class="node">
<title>Node20</title>
<g id="a_Node000020"><a xlink:title=" ">
<polygon fill="#e0e0e0" stroke="#999999" points="877.65,-19 817.65,-19 817.65,0 877.65,0 877.65,-19"/>
<text text-anchor="middle" x="847.65" y="-7" font-family="Helvetica,sans-Serif" font-size="10.00">iostream</text>
</a>
</g>
</g>
<!-- Node3&#45;&gt;Node20 -->
<g id="edge44_Node000003_Node000020" class="edge">
<title>Node3&#45;&gt;Node20</title>
<g id="a_edge44_Node000003_Node000020"><a xlink:title=" ">
<path fill="none" stroke="#63b8ff" d="M664.65,-221.26C774.01,-194.86 1014.96,-136.06 1020.65,-129 1041.28,-103.37 1042.84,-80.97 1022.65,-55 1006.28,-33.95 934.37,-21.22 887.98,-15.06"/>
<polygon fill="#63b8ff" stroke="#63b8ff" points="888.29,-11.57 877.93,-13.77 887.4,-18.51 888.29,-11.57"/>
</a>
</g>
</g>
<!-- Node24 -->
<g id="Node000024" class="node">
<title>Node24</title>
<g id="a_Node000024"><a xlink:href="tools_8h.html" target="_top" xlink:title="Defines the tools class that provides general utility functions for the AnalysisG framework.">
<polygon fill="white" stroke="#666666" points="380.15,-74 303.15,-74 303.15,-55 380.15,-55 380.15,-74"/>
<text text-anchor="middle" x="341.65" y="-62" font-family="Helvetica,sans-Serif" font-size="10.00">tools/tools.h</text>
</a>
</g>
</g>
<!-- Node3&#45;&gt;Node24 -->
<g id="edge38_Node000003_Node000024" class="edge">
<title>Node3&#45;&gt;Node24</title>
<g id="a_edge38_Node000003_Node000024"><a xlink:title=" ">
<path fill="none" stroke="#63b8ff" d="M558.41,-233.27C487.23,-229.07 363.34,-209.79 305.65,-129 294.56,-113.48 308.95,-94.27 322.69,-81.06"/>
<polygon fill="#63b8ff" stroke="#63b8ff" points="325.39,-83.34 330.51,-74.06 320.72,-78.13 325.39,-83.34"/>
</a>
</g>
</g>
<!-- Node26 -->
<g id="Node000026" class="node">
<title>Node26</title>
<g id="a_Node000026"><a xlink:title=" ">
<polygon fill="#e0e0e0" stroke="#999999" points="968.65,-184 912.65,-184 912.65,-165 968.65,-165 968.65,-184"/>
<text text-anchor="middle" x="940.65" y="-172" font-family="Helvetica,sans-Serif" font-size="10.00">sstream</text>
</a>
</g>
</g>
<!-- Node3&#45;&gt;Node26 -->
<g id="edge45_Node000003_Node000026" class="edge">
<title>Node3&#45;&gt;Node26</title>
<g id="a_edge45_Node000003_Node000026"><a xlink:title=" ">
<path fill="none" stroke="#63b8ff" d="M664.88,-225.17C722.56,-215.5 817.26,-199.32 898.65,-184 899.74,-183.79 900.85,-183.58 901.98,-183.37"/>
<polygon fill="#63b8ff" stroke="#63b8ff" points="903.06,-186.72 912.2,-181.37 901.71,-179.85 903.06,-186.72"/>
</a>
</g>
</g>
<!-- Node27 -->
<g id="Node000027" class="node">
<title>Node27</title>
<g id="a_Node000027"><a xlink:title=" ">
<polygon fill="#e0e0e0" stroke="#999999" points="1036.15,-184 987.15,-184 987.15,-165 1036.15,-165 1036.15,-184"/>
<text text-anchor="middle" x="1011.65" y="-172" font-family="Helvetica,sans-Serif" font-size="10.00">cstdlib</text>
</a>
</g>
</g>
<!-- Node3&#45;&gt;Node27 -->
<g id="edge47_Node000003_Node000027" class="edge">
<title>Node3&#45;&gt;Node27</title>
<g id="a_edge47_Node000003_Node000027"><a xlink:title=" ">
<path fill="none" stroke="#63b8ff" d="M664.67,-228.6C734.18,-221.1 860.01,-206.14 976.99,-183.93"/>
<polygon fill="#63b8ff" stroke="#63b8ff" points="977.67,-187.36 986.83,-182.04 976.35,-180.49 977.67,-187.36"/>
</a>
</g>
</g>
<!-- Node28 -->
<g id="Node000028" class="node">
<title>Node28</title>
<g id="a_Node000028"><a xlink:title=" ">
<polygon fill="#e0e0e0" stroke="#999999" points="1101.15,-184 1054.15,-184 1054.15,-165 1101.15,-165 1101.15,-184"/>
<text text-anchor="middle" x="1077.65" y="-172" font-family="Helvetica,sans-Serif" font-size="10.00">cmath</text>
</a>
</g>
</g>
<!-- Node3&#45;&gt;Node28 -->
<g id="edge48_Node000003_Node000028" class="edge">
<title>Node3&#45;&gt;Node28</title>
<g id="a_edge48_Node000003_Node000028"><a xlink:title=" ">
<path fill="none" stroke="#63b8ff" d="M664.8,-230.37C745.06,-224.34 902.06,-210.43 1043.79,-184.11"/>
<polygon fill="#63b8ff" stroke="#63b8ff" points="1044.79,-187.49 1053.97,-182.2 1043.49,-180.61 1044.79,-187.49"/>
</a>
</g>
</g>
<!-- Node4&#45;&gt;Node5 -->
<g id="edge4_Node000004_Node000005" class="edge">
<title>Node4&#45;&gt;Node5</title>
<g id="a_edge4_Node000004_Node000005"><a xlink:title=" ">
<path fill="none" stroke="#63b8ff" d="M232.65,-54.75C232.65,-47.8 232.65,-37.85 232.65,-29.13"/>
<polygon fill="#63b8ff" stroke="#63b8ff" points="236.15,-29.09 232.65,-19.09 229.15,-29.09 236.15,-29.09"/>
</a>
</g>
</g>
<!-- Node6 -->
<g id="Node000006" class="node">
<title>Node6</title>
<g id="a_Node000006"><a xlink:title=" ">
<polygon fill="#e0e0e0" stroke="#999999" points="605.15,-19 558.15,-19 558.15,0 605.15,0 605.15,-19"/>
<text text-anchor="middle" x="581.65" y="-7" font-family="Helvetica,sans-Serif" font-size="10.00">vector</text>
</a>
</g>
</g>
<!-- Node4&#45;&gt;Node6 -->
<g id="edge5_Node000004_Node000006" class="edge">
<title>Node4&#45;&gt;Node6</title>
<g id="a_edge5_Node000004_Node000006"><a xlink:title=" ">
<path fill="none" stroke="#63b8ff" d="M284.82,-56.27C371,-44.32 534.91,-21.49 547.65,-19 547.75,-18.98 547.85,-18.96 547.96,-18.94"/>
<polygon fill="#63b8ff" stroke="#63b8ff" points="548.91,-22.31 557.94,-16.76 547.42,-15.47 548.91,-22.31"/>
</a>
</g>
</g>
<!-- Node7 -->
<g id="Node000007" class="node">
<title>Node7</title>
<g id="a_Node000007"><a xlink:title=" ">
<polygon fill="#e0e0e0" stroke="#999999" points="424.65,-19 386.65,-19 386.65,0 424.65,0 424.65,-19"/>
<text text-anchor="middle" x="405.65" y="-7" font-family="Helvetica,sans-Serif" font-size="10.00">map</text>
</a>
</g>
</g>
<!-- Node4&#45;&gt;Node7 -->
<g id="edge6_Node000004_Node000007" class="edge">
<title>Node4&#45;&gt;Node7</title>
<g id="a_edge6_Node000004_Node000007"><a xlink:title=" ">
<path fill="none" stroke="#63b8ff" d="M260.44,-54.98C292.33,-45.22 344.37,-29.27 376.73,-19.36"/>
<polygon fill="#63b8ff" stroke="#63b8ff" points="377.95,-22.64 386.49,-16.37 375.9,-15.95 377.95,-22.64"/>
</a>
</g>
</g>
<!-- Node8&#45;&gt;Node5 -->
<g id="edge9_Node000008_Node000005" class="edge">
<title>Node8&#45;&gt;Node5</title>
<g id="a_edge9_Node000008_Node000005"><a xlink:title=" ">
<path fill="none" stroke="#63b8ff" d="M67.85,-164.95C57.43,-152.43 41.41,-128.58 51.65,-110 82.34,-54.29 157.39,-28.01 200.6,-17.13"/>
<polygon fill="#63b8ff" stroke="#63b8ff" points="201.68,-20.47 210.59,-14.74 200.05,-13.66 201.68,-20.47"/>
</a>
</g>
</g>
<!-- Node9 -->
<g id="Node000009" class="node">
<title>Node9</title>
<g id="a_Node000009"><a xlink:title=" ">
<polygon fill="#e0e0e0" stroke="#999999" points="126.15,-129 61.15,-129 61.15,-110 126.15,-110 126.15,-129"/>
<text text-anchor="middle" x="93.65" y="-117" font-family="Helvetica,sans-Serif" font-size="10.00">functional</text>
</a>
</g>
</g>
<!-- Node8&#45;&gt;Node9 -->
<g id="edge8_Node000008_Node000009" class="edge">
<title>Node8&#45;&gt;Node9</title>
<g id="a_edge8_Node000008_Node000009"><a xlink:title=" ">
<path fill="none" stroke="#63b8ff" d="M78.62,-164.75C81,-157.72 84.43,-147.62 87.42,-138.84"/>
<polygon fill="#63b8ff" stroke="#63b8ff" points="90.83,-139.68 90.73,-129.09 84.2,-137.43 90.83,-139.68"/>
</a>
</g>
</g>
<!-- Node10&#45;&gt;Node5 -->
<g id="edge35_Node000010_Node000005" class="edge">
<title>Node10&#45;&gt;Node5</title>
<g id="a_edge35_Node000010_Node000005"><a xlink:title=" ">
<path fill="none" stroke="#63b8ff" d="M560.37,-170.38C453.82,-162.64 214.77,-138.32 171.65,-74 158.68,-54.67 182.72,-35.87 204.32,-23.81"/>
<polygon fill="#63b8ff" stroke="#63b8ff" points="206.1,-26.83 213.32,-19.07 202.84,-20.63 206.1,-26.83"/>
</a>
</g>
</g>
<!-- Node10&#45;&gt;Node6 -->
<g id="edge36_Node000010_Node000006" class="edge">
<title>Node10&#45;&gt;Node6</title>
<g id="a_edge36_Node000010_Node000006"><a xlink:title=" ">
<path fill="none" stroke="#63b8ff" d="M663.01,-173.6C785.36,-172.19 1077.12,-158.25 984.65,-55 960.17,-27.67 708.25,-15.34 615.6,-11.7"/>
<polygon fill="#63b8ff" stroke="#63b8ff" points="615.49,-8.2 605.37,-11.31 615.23,-15.19 615.49,-8.2"/>
</a>
</g>
</g>
<!-- Node10&#45;&gt;Node7 -->
<g id="edge37_Node000010_Node000007" class="edge">
<title>Node10&#45;&gt;Node7</title>
<g id="a_edge37_Node000010_Node000007"><a xlink:title=" ">
<path fill="none" stroke="#63b8ff" d="M560.63,-173.41C485.13,-172.06 349.25,-164.6 318.65,-129 285.98,-91 355,-117.36 389.65,-74 399.74,-61.37 403.55,-43.18 404.95,-29.5"/>
<polygon fill="#63b8ff" stroke="#63b8ff" points="408.46,-29.51 405.65,-19.3 401.48,-29.04 408.46,-29.51"/>
</a>
</g>
</g>
<!-- Node11 -->
<g id="Node000011" class="node">
<title>Node11</title>
<g id="a_Node000011"><a xlink:title=" ">
<polygon fill="#e0e0e0" stroke="#999999" points="384.15,-129 335.15,-129 335.15,-110 384.15,-110 384.15,-129"/>
<text text-anchor="middle" x="359.65" y="-117" font-family="Helvetica,sans-Serif" font-size="10.00">TFile.h</text>
</a>
</g>
</g>
<!-- Node10&#45;&gt;Node11 -->
<g id="edge11_Node000010_Node000011" class="edge">
<title>Node10&#45;&gt;Node11</title>
<g id="a_edge11_Node000010_Node000011"><a xlink:title=" ">
<path fill="none" stroke="#63b8ff" d="M566.85,-164.95C524.85,-156.8 460.06,-143.89 394.58,-129.13"/>
<polygon fill="#63b8ff" stroke="#63b8ff" points="395.02,-125.64 384.5,-126.85 393.48,-132.47 395.02,-125.64"/>
</a>
</g>
</g>
<!-- Node12 -->
<g id="Node000012" class="node">
<title>Node12</title>
<g id="a_Node000012"><a xlink:title=" ">
<polygon fill="#e0e0e0" stroke="#999999" points="975.65,-74 923.65,-74 923.65,-55 975.65,-55 975.65,-74"/>
<text text-anchor="middle" x="949.65" y="-62" font-family="Helvetica,sans-Serif" font-size="10.00">TTree.h</text>
</a>
</g>
</g>
<!-- Node10&#45;&gt;Node12 -->
<g id="edge12_Node000010_Node000012" class="edge">
<title>Node10&#45;&gt;Node12</title>
<g id="a_edge12_Node000010_Node000012"><a xlink:title=" ">
<path fill="none" stroke="#63b8ff" d="M662.77,-174.35C747.03,-174.55 909.44,-169.51 946.65,-129 957.49,-117.2 956.99,-98.36 954.54,-84.26"/>
<polygon fill="#63b8ff" stroke="#63b8ff" points="957.89,-83.21 952.33,-74.19 951.06,-84.71 957.89,-83.21"/>
</a>
</g>
</g>
<!-- Node13 -->
<g id="Node000013" class="node">
<title>Node13</title>
<g id="a_Node000013"><a xlink:title=" ">
<polygon fill="#e0e0e0" stroke="#999999" points="467.15,-129 402.15,-129 402.15,-110 467.15,-110 467.15,-129"/>
<text text-anchor="middle" x="434.65" y="-117" font-family="Helvetica,sans-Serif" font-size="10.00">TBranch.h</text>
</a>
</g>
</g>
<!-- Node10&#45;&gt;Node13 -->
<g id="edge13_Node000010_Node000013" class="edge">
<title>Node10&#45;&gt;Node13</title>
<g id="a_edge13_Node000010_Node000013"><a xlink:title=" ">
<path fill="none" stroke="#63b8ff" d="M583.21,-164.98C553.36,-156.05 506.26,-141.94 473.11,-132.02"/>
<polygon fill="#63b8ff" stroke="#63b8ff" points="473.89,-128.6 463.31,-129.08 471.88,-135.3 473.89,-128.6"/>
</a>
</g>
</g>
<!-- Node14 -->
<g id="Node000014" class="node">
<title>Node14</title>
<g id="a_Node000014"><a xlink:title=" ">
<polygon fill="#e0e0e0" stroke="#999999" points="537.65,-129 485.65,-129 485.65,-110 537.65,-110 537.65,-129"/>
<text text-anchor="middle" x="511.65" y="-117" font-family="Helvetica,sans-Serif" font-size="10.00">TLeaf.h</text>
</a>
</g>
</g>
<!-- Node10&#45;&gt;Node14 -->
<g id="edge14_Node000010_Node000014" class="edge">
<title>Node10&#45;&gt;Node14</title>
<g id="a_edge14_Node000010_Node000014"><a xlink:title=" ">
<path fill="none" stroke="#63b8ff" d="M595.58,-164.98C579.78,-156.61 555.43,-143.7 537.02,-133.95"/>
<polygon fill="#63b8ff" stroke="#63b8ff" points="538.48,-130.76 528,-129.17 535.2,-136.95 538.48,-130.76"/>
</a>
</g>
</g>
<!-- Node15 -->
<g id="Node000015" class="node">
<title>Node15</title>
<g id="a_Node000015"><a xlink:title=" ">
<polygon fill="#e0e0e0" stroke="#999999" points="667.15,-129 556.15,-129 556.15,-110 667.15,-110 667.15,-129"/>
<text text-anchor="middle" x="611.65" y="-117" font-family="Helvetica,sans-Serif" font-size="10.00">TTreeReaderArray.h</text>
</a>
</g>
</g>
<!-- Node10&#45;&gt;Node15 -->
<g id="edge15_Node000010_Node000015" class="edge">
<title>Node10&#45;&gt;Node15</title>
<g id="a_edge15_Node000010_Node000015"><a xlink:title=" ">
<path fill="none" stroke="#63b8ff" d="M611.65,-164.75C611.65,-157.8 611.65,-147.85 611.65,-139.13"/>
<polygon fill="#63b8ff" stroke="#63b8ff" points="615.15,-139.09 611.65,-129.09 608.15,-139.09 615.15,-139.09"/>
</a>
</g>
</g>
<!-- Node16 -->
<g id="Node000016" class="node">
<title>Node16</title>
<g id="a_Node000016"><a xlink:title=" ">
<polygon fill="#e0e0e0" stroke="#999999" points="771.65,-129 685.65,-129 685.65,-110 771.65,-110 771.65,-129"/>
<text text-anchor="middle" x="728.65" y="-117" font-family="Helvetica,sans-Serif" font-size="10.00">TTreeReader.h</text>
</a>
</g>
</g>
<!-- Node10&#45;&gt;Node16 -->
<g id="edge16_Node000010_Node000016" class="edge">
<title>Node10&#45;&gt;Node16</title>
<g id="a_edge16_Node000010_Node000016"><a xlink:title=" ">
<path fill="none" stroke="#63b8ff" d="M630.44,-164.98C649.27,-156.46 678.47,-143.23 700.14,-133.41"/>
<polygon fill="#63b8ff" stroke="#63b8ff" points="701.84,-136.48 709.51,-129.17 698.95,-130.11 701.84,-136.48"/>
</a>
</g>
</g>
<!-- Node17 -->
<g id="Node000017" class="node">
<title>Node17</title>
<g id="a_Node000017"><a xlink:href="vector__cast_8h.html" target="_top" xlink:title=" ">
<polygon fill="white" stroke="#666666" points="937.15,-129 828.15,-129 828.15,-110 937.15,-110 937.15,-129"/>
<text text-anchor="middle" x="882.65" y="-117" font-family="Helvetica,sans-Serif" font-size="10.00">tools/vector_cast.h</text>
</a>
</g>
</g>
<!-- Node10&#45;&gt;Node17 -->
<g id="edge17_Node000010_Node000017" class="edge">
<title>Node10&#45;&gt;Node17</title>
<g id="a_edge17_Node000010_Node000017"><a xlink:title=" ">
<path fill="none" stroke="#63b8ff" d="M655.19,-164.98C702.46,-155.74 778,-140.97 828.92,-131.01"/>
<polygon fill="#63b8ff" stroke="#63b8ff" points="829.62,-134.44 838.76,-129.08 828.28,-127.57 829.62,-134.44"/>
</a>
</g>
</g>
<!-- Node19 -->
<g id="Node000019" class="node">
<title>Node19</title>
<g id="a_Node000019"><a xlink:href="structs_2include_2structs_2meta_8h.html" target="_top" xlink:title="Defines metadata structures for physics analysis datasets.">
<polygon fill="white" stroke="#666666" points="627.15,-74 540.15,-74 540.15,-55 627.15,-55 627.15,-74"/>
<text text-anchor="middle" x="583.65" y="-62" font-family="Helvetica,sans-Serif" font-size="10.00">structs/meta.h</text>
</a>
</g>
</g>
<!-- Node10&#45;&gt;Node19 -->
<g id="edge33_Node000010_Node000019" class="edge">
<title>Node10&#45;&gt;Node19</title>
<g id="a_edge33_Node000010_Node000019"><a xlink:title=" ">
<path fill="none" stroke="#63b8ff" d="M662.77,-171.26C724.13,-166.67 814.75,-152.66 780.65,-110 771.63,-98.72 692.63,-83.53 637.46,-74.13"/>
<polygon fill="#63b8ff" stroke="#63b8ff" points="637.9,-70.66 627.46,-72.45 636.74,-77.56 637.9,-70.66"/>
</a>
</g>
</g>
<!-- Node10&#45;&gt;Node20 -->
<g id="edge34_Node000010_Node000020" class="edge">
<title>Node10&#45;&gt;Node20</title>
<g id="a_edge34_Node000010_Node000020"><a xlink:title=" ">
<path fill="none" stroke="#63b8ff" d="M662.74,-171.27C763.01,-166.38 977.86,-153.18 1000.65,-129 1023.22,-105.04 1023.47,-81.27 1003.65,-55 989.69,-36.5 929.22,-23.4 887.8,-16.4"/>
<polygon fill="#63b8ff" stroke="#63b8ff" points="888.15,-12.91 877.72,-14.75 887.02,-19.82 888.15,-12.91"/>
</a>
</g>
</g>
<!-- Node21 -->
<g id="Node000021" class="node">
<title>Node21</title>
<g id="a_Node000021"><a xlink:href="modules_2structs_2include_2structs_2base_8h.html" target="_top" xlink:title="Defines fundamental data structures and type handling for the AnalysisG framework.">
<polygon fill="white" stroke="#666666" points="522.15,-74 437.15,-74 437.15,-55 522.15,-55 522.15,-74"/>
<text text-anchor="middle" x="479.65" y="-62" font-family="Helvetica,sans-Serif" font-size="10.00">structs/base.h</text>
</a>
</g>
</g>
<!-- Node10&#45;&gt;Node21 -->
<g id="edge32_Node000010_Node000021" class="edge">
<title>Node10&#45;&gt;Node21</title>
<g id="a_edge32_Node000010_Node000021"><a xlink:title=" ">
<path fill="none" stroke="#63b8ff" d="M560.49,-173.15C486.74,-171.44 356.16,-163.48 326.65,-129 321.15,-122.58 321.58,-116.75 326.65,-110 338.87,-93.72 387.61,-81.45 426.84,-73.96"/>
<polygon fill="#63b8ff" stroke="#63b8ff" points="427.64,-77.37 436.84,-72.11 426.37,-70.49 427.64,-77.37"/>
</a>
</g>
</g>
<!-- Node17&#45;&gt;Node6 -->
<g id="edge31_Node000017_Node000006" class="edge">
<title>Node17&#45;&gt;Node6</title>
<g id="a_edge31_Node000017_Node000006"><a xlink:title=" ">
<path fill="none" stroke="#63b8ff" d="M827.89,-112.68C784.89,-106.73 724.2,-95.24 674.65,-74 646.08,-61.76 617.12,-40.23 599.28,-25.67"/>
<polygon fill="#63b8ff" stroke="#63b8ff" points="601.39,-22.87 591.47,-19.16 596.91,-28.25 601.39,-22.87"/>
</a>
</g>
</g>
<!-- Node17&#45;&gt;Node12 -->
<g id="edge30_Node000017_Node000012" class="edge">
<title>Node17&#45;&gt;Node12</title>
<g id="a_edge30_Node000017_Node000012"><a xlink:title=" ">
<path fill="none" stroke="#63b8ff" d="M893.41,-109.98C903.41,-102.07 918.53,-90.11 930.58,-80.58"/>
<polygon fill="#63b8ff" stroke="#63b8ff" points="933.01,-83.12 938.69,-74.17 928.67,-77.63 933.01,-83.12"/>
</a>
</g>
</g>
<!-- Node18 -->
<g id="Node000018" class="node">
<title>Node18</title>
<g id="a_Node000018"><a xlink:title=" ">
<polygon fill="#e0e0e0" stroke="#999999" points="809.65,-74 683.65,-74 683.65,-55 809.65,-55 809.65,-74"/>
<text text-anchor="middle" x="746.65" y="-62" font-family="Helvetica,sans-Serif" font-size="10.00">c10/core/DeviceType.h</text>
</a>
</g>
</g>
<!-- Node17&#45;&gt;Node18 -->
<g id="edge18_Node000017_Node000018" class="edge">
<title>Node17&#45;&gt;Node18</title>
<g id="a_edge18_Node000017_Node000018"><a xlink:title=" ">
<path fill="none" stroke="#63b8ff" d="M860.8,-109.98C838.52,-101.3 803.74,-87.75 778.43,-77.88"/>
<polygon fill="#63b8ff" stroke="#63b8ff" points="779.48,-74.54 768.89,-74.17 776.94,-81.06 779.48,-74.54"/>
</a>
</g>
</g>
<!-- Node17&#45;&gt;Node19 -->
<g id="edge19_Node000017_Node000019" class="edge">
<title>Node17&#45;&gt;Node19</title>
<g id="a_edge19_Node000017_Node000019"><a xlink:title=" ">
<path fill="none" stroke="#63b8ff" d="M834.61,-109.98C780.68,-100.43 693.41,-84.96 637.29,-75.01"/>
<polygon fill="#63b8ff" stroke="#63b8ff" points="637.65,-71.52 627.19,-73.22 636.43,-78.41 637.65,-71.52"/>
</a>
</g>
</g>
<!-- Node17&#45;&gt;Node21 -->
<g id="edge24_Node000017_Node000021" class="edge">
<title>Node17&#45;&gt;Node21</title>
<g id="a_edge24_Node000017_Node000021"><a xlink:title=" ">
<path fill="none" stroke="#63b8ff" d="M827.85,-112.17C760.73,-104.28 643.33,-90.03 532.23,-74.04"/>
<polygon fill="#63b8ff" stroke="#63b8ff" points="532.59,-70.55 522.19,-72.58 531.59,-77.48 532.59,-70.55"/>
</a>
</g>
</g>
<!-- Node23 -->
<g id="Node000023" class="node">
<title>Node23</title>
<g id="a_Node000023"><a xlink:title=" ">
<polygon fill="#e0e0e0" stroke="#999999" points="905.65,-74 827.65,-74 827.65,-55 905.65,-55 905.65,-74"/>
<text text-anchor="middle" x="866.65" y="-62" font-family="Helvetica,sans-Serif" font-size="10.00">torch/torch.h</text>
</a>
</g>
</g>
<!-- Node17&#45;&gt;Node23 -->
<g id="edge29_Node000017_Node000023" class="edge">
<title>Node17&#45;&gt;Node23</title>
<g id="a_edge29_Node000017_Node000023"><a xlink:title=" ">
<path fill="none" stroke="#63b8ff" d="M880,-109.75C877.88,-102.72 874.83,-92.62 872.18,-83.84"/>
<polygon fill="#63b8ff" stroke="#63b8ff" points="875.48,-82.65 869.24,-74.09 868.78,-84.67 875.48,-82.65"/>
</a>
</g>
</g>
<!-- Node19&#45;&gt;Node5 -->
<g id="edge21_Node000019_Node000005" class="edge">
<title>Node19&#45;&gt;Node5</title>
<g id="a_edge21_Node000019_Node000005"><a xlink:title=" ">
<path fill="none" stroke="#63b8ff" d="M539.96,-56.31C537.15,-55.86 534.36,-55.42 531.65,-55 434.66,-39.86 319.8,-23.09 264.94,-15.15"/>
<polygon fill="#63b8ff" stroke="#63b8ff" points="265.19,-11.65 254.79,-13.69 264.19,-18.58 265.19,-11.65"/>
</a>
</g>
</g>
<!-- Node19&#45;&gt;Node6 -->
<g id="edge22_Node000019_Node000006" class="edge">
<title>Node19&#45;&gt;Node6</title>
<g id="a_edge22_Node000019_Node000006"><a xlink:title=" ">
<path fill="none" stroke="#63b8ff" d="M583.32,-54.75C583.05,-47.8 582.68,-37.85 582.35,-29.13"/>
<polygon fill="#63b8ff" stroke="#63b8ff" points="585.84,-28.95 581.97,-19.09 578.85,-29.21 585.84,-28.95"/>
</a>
</g>
</g>
<!-- Node19&#45;&gt;Node7 -->
<g id="edge23_Node000019_Node000007" class="edge">
<title>Node19&#45;&gt;Node7</title>
<g id="a_edge23_Node000019_Node000007"><a xlink:title=" ">
<path fill="none" stroke="#63b8ff" d="M555.05,-54.98C522.06,-45.16 468.11,-29.1 434.86,-19.2"/>
<polygon fill="#63b8ff" stroke="#63b8ff" points="435.43,-15.72 424.85,-16.22 433.43,-22.43 435.43,-15.72"/>
</a>
</g>
</g>
<!-- Node19&#45;&gt;Node20 -->
<g id="edge20_Node000019_Node000020" class="edge">
<title>Node19&#45;&gt;Node20</title>
<g id="a_edge20_Node000019_Node000020"><a xlink:title=" ">
<path fill="none" stroke="#63b8ff" d="M626.06,-54.98C676,-44.96 758.33,-28.43 807.34,-18.59"/>
<polygon fill="#63b8ff" stroke="#63b8ff" points="808.15,-22 817.27,-16.6 806.77,-15.14 808.15,-22"/>
</a>
</g>
</g>
<!-- Node21&#45;&gt;Node5 -->
<g id="edge25_Node000021_Node000005" class="edge">
<title>Node21&#45;&gt;Node5</title>
<g id="a_edge25_Node000021_Node000005"><a xlink:title=" ">
<path fill="none" stroke="#63b8ff" d="M439.96,-54.98C391.25,-44.53 309.61,-27.01 264.69,-17.38"/>
<polygon fill="#63b8ff" stroke="#63b8ff" points="265.41,-13.95 254.89,-15.27 263.94,-20.79 265.41,-13.95"/>
</a>
</g>
</g>
<!-- Node21&#45;&gt;Node6 -->
<g id="edge26_Node000021_Node000006" class="edge">
<title>Node21&#45;&gt;Node6</title>
<g id="a_edge26_Node000021_Node000006"><a xlink:title=" ">
<path fill="none" stroke="#63b8ff" d="M496.03,-54.98C512.22,-46.57 537.22,-33.59 556.03,-23.81"/>
<polygon fill="#63b8ff" stroke="#63b8ff" points="557.7,-26.89 564.96,-19.17 554.47,-20.68 557.7,-26.89"/>
</a>
</g>
</g>
<!-- Node21&#45;&gt;Node7 -->
<g id="edge27_Node000021_Node000007" class="edge">
<title>Node21&#45;&gt;Node7</title>
<g id="a_edge27_Node000021_Node000007"><a xlink:title=" ">
<path fill="none" stroke="#63b8ff" d="M467.76,-54.98C456.5,-46.92 439.36,-34.65 425.94,-25.03"/>
<polygon fill="#63b8ff" stroke="#63b8ff" points="427.92,-22.15 417.75,-19.17 423.84,-27.84 427.92,-22.15"/>
</a>
</g>
</g>
<!-- Node22 -->
<g id="Node000022" class="node">
<title>Node22</title>
<g id="a_Node000022"><a xlink:href="enums_8h.html" target="_top" xlink:title=" ">
<polygon fill="white" stroke="#666666" points="538.15,-19 443.15,-19 443.15,0 538.15,0 538.15,-19"/>
<text text-anchor="middle" x="490.65" y="-7" font-family="Helvetica,sans-Serif" font-size="10.00">structs/enums.h</text>
</a>
</g>
</g>
<!-- Node21&#45;&gt;Node22 -->
<g id="edge28_Node000021_Node000022" class="edge">
<title>Node21&#45;&gt;Node22</title>
<g id="a_edge28_Node000021_Node000022"><a xlink:title=" ">
<path fill="none" stroke="#63b8ff" d="M481.46,-54.75C482.9,-47.8 484.97,-37.85 486.78,-29.13"/>
<polygon fill="#63b8ff" stroke="#63b8ff" points="490.26,-29.59 488.86,-19.09 483.4,-28.17 490.26,-29.59"/>
</a>
</g>
</g>
<!-- Node24&#45;&gt;Node5 -->
<g id="edge40_Node000024_Node000005" class="edge">
<title>Node24&#45;&gt;Node5</title>
<g id="a_edge40_Node000024_Node000005"><a xlink:title=" ">
<path fill="none" stroke="#63b8ff" d="M324.13,-54.98C306.68,-46.5 279.64,-33.35 259.47,-23.54"/>
<polygon fill="#63b8ff" stroke="#63b8ff" points="261,-20.4 250.48,-19.17 257.94,-26.69 261,-20.4"/>
</a>
</g>
</g>
<!-- Node24&#45;&gt;Node6 -->
<g id="edge41_Node000024_Node000006" class="edge">
<title>Node24&#45;&gt;Node6</title>
<g id="a_edge41_Node000024_Node000006"><a xlink:title=" ">
<path fill="none" stroke="#63b8ff" d="M380.46,-55.51C421.93,-46.87 489.56,-32.53 547.65,-19 547.75,-18.98 547.85,-18.95 547.96,-18.93"/>
<polygon fill="#63b8ff" stroke="#63b8ff" points="548.98,-22.28 557.89,-16.54 547.35,-15.47 548.98,-22.28"/>
</a>
</g>
</g>
<!-- Node24&#45;&gt;Node7 -->
<g id="edge43_Node000024_Node000007" class="edge">
<title>Node24&#45;&gt;Node7</title>
<g id="a_edge43_Node000024_Node000007"><a xlink:title=" ">
<path fill="none" stroke="#63b8ff" d="M351.93,-54.98C361.48,-47.07 375.93,-35.11 387.43,-25.58"/>
<polygon fill="#63b8ff" stroke="#63b8ff" points="389.71,-28.24 395.18,-19.17 385.24,-22.85 389.71,-28.24"/>
</a>
</g>
</g>
<!-- Node24&#45;&gt;Node20 -->
<g id="edge39_Node000024_Node000020" class="edge">
<title>Node24&#45;&gt;Node20</title>
<g id="a_edge39_Node000024_Node000020"><a xlink:title=" ">
<path fill="none" stroke="#63b8ff" d="M380.51,-59.43C474.31,-49.6 712.33,-24.67 807.46,-14.71"/>
<polygon fill="#63b8ff" stroke="#63b8ff" points="807.96,-18.18 817.54,-13.65 807.23,-11.21 807.96,-18.18"/>
</a>
</g>
</g>
<!-- Node25 -->
<g id="Node000025" class="node">
<title>Node25</title>
<g id="a_Node000025"><a xlink:title=" ">
<polygon fill="#e0e0e0" stroke="#999999" points="366.65,-19 316.65,-19 316.65,0 366.65,0 366.65,-19"/>
<text text-anchor="middle" x="341.65" y="-7" font-family="Helvetica,sans-Serif" font-size="10.00">cstdint</text>
</a>
</g>
</g>
<!-- Node24&#45;&gt;Node25 -->
<g id="edge42_Node000024_Node000025" class="edge">
<title>Node24&#45;&gt;Node25</title>
<g id="a_edge42_Node000024_Node000025"><a xlink:title=" ">
<path fill="none" stroke="#63b8ff" d="M341.65,-54.75C341.65,-47.8 341.65,-37.85 341.65,-29.13"/>
<polygon fill="#63b8ff" stroke="#63b8ff" points="345.15,-29.09 341.65,-19.09 338.15,-29.09 345.15,-29.09"/>
</a>
</g>
</g>
</g>
</svg>
