<?xml version="1.0" encoding="UTF-8" standalone="no"?>
<!DOCTYPE svg PUBLIC "-//W3C//DTD SVG 1.1//EN"
 "http://www.w3.org/Graphics/SVG/1.1/DTD/svg11.dtd">
<!-- Generated by graphviz version 2.43.0 (0)
 -->
<!-- Title: fulltopo Pages: 1 -->
<svg width="262pt" height="392pt"
 viewBox="0.00 0.00 262.00 391.50" xmlns="http://www.w3.org/2000/svg" xmlns:xlink="http://www.w3.org/1999/xlink">

<svg id="main" version="1.1" xmlns="http://www.w3.org/2000/svg" xmlns:xlink="http://www.w3.org/1999/xlink" xml:space="preserve" onload="init(evt)">
<style type="text/css"><![CDATA[
.node, .edge {opacity: 0.7;}
.node.selected, .edge.selected {opacity: 1;}
.edge:hover path { stroke: red; }
.edge:hover polygon { stroke: red; fill: red; }
]]></style>
<script type="application/ecmascript" xlink:href="svg.min.js"/>
<svg id="graph" class="graph">
<g id="graph0" class="graph" transform="scale(1 1) rotate(0) translate(4 387.5)">
<title>fulltopo</title>
<!-- Node1 -->
<g id="Node000001" class="node">
<title>Node1</title>
<g id="a_Node000001"><a xlink:title="Default topology function that connects all node pairs.">
<polygon fill="#999999" stroke="#666666" points="254,-196 200,-196 200,-177 254,-177 254,-196"/>
<text text-anchor="middle" x="227" y="-184" font-family="Helvetica,sans-Serif" font-size="10.00">fulltopo</text>
</a>
</g>
</g>
<!-- Node2 -->
<g id="Node000002" class="node">
<title>Node2</title>
<g id="a_Node000002"><a xlink:href="classgraph__template.html#aea3a1bee0125428e0c00dc0816e63d64" target="_top" xlink:title="Adds an edge&#45;level data feature.">
<polygon fill="white" stroke="#666666" points="141,-383.5 23,-383.5 23,-353.5 141,-353.5 141,-383.5"/>
<text text-anchor="start" x="31" y="-371.5" font-family="Helvetica,sans-Serif" font-size="10.00">graph_template::add</text>
<text text-anchor="middle" x="82" y="-360.5" font-family="Helvetica,sans-Serif" font-size="10.00">_edge_data_feature</text>
</a>
</g>
</g>
<!-- Node1&#45;&gt;Node2 -->
<g id="edge1_Node000001_Node000002" class="edge">
<title>Node1&#45;&gt;Node2</title>
<g id="a_edge1_Node000001_Node000002"><a xlink:title=" ">
<path fill="none" stroke="#63b8ff" d="M223.76,-206.65C218.96,-240.14 204.59,-307.25 164,-344.5 157.52,-350.45 149.62,-354.93 141.33,-358.3"/>
<polygon fill="#63b8ff" stroke="#63b8ff" points="227.29,-206.67 225.09,-196.31 220.34,-205.78 227.29,-206.67"/>
</a>
</g>
</g>
<!-- Node3 -->
<g id="Node000003" class="node">
<title>Node3</title>
<g id="a_Node000003"><a xlink:href="classgraph__template.html#aad0f9d28368afe4e7898dcc409ed10a1" target="_top" xlink:title="Adds an edge&#45;level truth feature.">
<polygon fill="white" stroke="#666666" points="141,-335.5 23,-335.5 23,-305.5 141,-305.5 141,-335.5"/>
<text text-anchor="start" x="31" y="-323.5" font-family="Helvetica,sans-Serif" font-size="10.00">graph_template::add</text>
<text text-anchor="middle" x="82" y="-312.5" font-family="Helvetica,sans-Serif" font-size="10.00">_edge_truth_feature</text>
</a>
</g>
</g>
<!-- Node1&#45;&gt;Node3 -->
<g id="edge2_Node000001_Node000003" class="edge">
<title>Node1&#45;&gt;Node3</title>
<g id="a_edge2_Node000001_Node000003"><a xlink:title=" ">
<path fill="none" stroke="#63b8ff" d="M220.21,-205.72C211.8,-230.35 193.87,-272.7 164,-296.5 157.23,-301.89 149.28,-306.07 141.05,-309.32"/>
<polygon fill="#63b8ff" stroke="#63b8ff" points="223.58,-206.66 223.32,-196.07 216.92,-204.51 223.58,-206.66"/>
</a>
</g>
</g>
<!-- Node4 -->
<g id="Node000004" class="node">
<title>Node4</title>
<g id="a_Node000004"><a xlink:href="classgraph__children.html#af069fe630b6bbf6ffacca8243761e829" target="_top" xlink:title="Compiles the event into a graph.">
<polygon fill="white" stroke="#666666" points="163.5,-287 0.5,-287 0.5,-268 163.5,-268 163.5,-287"/>
<text text-anchor="middle" x="82" y="-275" font-family="Helvetica,sans-Serif" font-size="10.00">graph_children::CompileEvent</text>
</a>
</g>
</g>
<!-- Node1&#45;&gt;Node4 -->
<g id="edge3_Node000001_Node000004" class="edge">
<title>Node1&#45;&gt;Node4</title>
<g id="a_edge3_Node000001_Node000004"><a xlink:title=" ">
<path fill="none" stroke="#63b8ff" d="M214.97,-204.93C204.09,-221.5 185.93,-245.2 164,-258.5 157.58,-262.39 150.42,-265.49 143.1,-267.95"/>
<polygon fill="#63b8ff" stroke="#63b8ff" points="218.15,-206.46 220.51,-196.14 212.22,-202.73 218.15,-206.46"/>
</a>
</g>
</g>
<!-- Node5 -->
<g id="Node000005" class="node">
<title>Node5</title>
<g id="a_Node000005"><a xlink:href="classgraph__truthjets.html#ad64c5a15f0406d8a6c9705d50934b81f" target="_top" xlink:title="Compiles the event into a graph.">
<polygon fill="white" stroke="#666666" points="150.5,-249.5 13.5,-249.5 13.5,-219.5 150.5,-219.5 150.5,-249.5"/>
<text text-anchor="start" x="21.5" y="-237.5" font-family="Helvetica,sans-Serif" font-size="10.00">graph_truthjets::Compile</text>
<text text-anchor="middle" x="82" y="-226.5" font-family="Helvetica,sans-Serif" font-size="10.00">Event</text>
</a>
</g>
</g>
<!-- Node1&#45;&gt;Node5 -->
<g id="edge4_Node000001_Node000005" class="edge">
<title>Node1&#45;&gt;Node5</title>
<g id="a_edge4_Node000001_Node000005"><a xlink:title=" ">
<path fill="none" stroke="#63b8ff" d="M193.23,-199.76C183.84,-203.4 173.57,-207.24 164,-210.5 154.98,-213.58 145.31,-216.64 135.92,-219.5"/>
<polygon fill="#63b8ff" stroke="#63b8ff" points="194.58,-202.99 202.61,-196.07 192.02,-196.47 194.58,-202.99"/>
</a>
</g>
</g>
<!-- Node6 -->
<g id="Node000006" class="node">
<title>Node6</title>
<g id="a_Node000006"><a xlink:href="classgraph__truthjets__nonu.html#add03a6d564186c150f7c907737b77eeb" target="_top" xlink:title="Compiles the event into a graph.">
<polygon fill="white" stroke="#666666" points="142,-201.5 22,-201.5 22,-171.5 142,-171.5 142,-201.5"/>
<text text-anchor="start" x="30" y="-189.5" font-family="Helvetica,sans-Serif" font-size="10.00">graph_truthjets_nonu</text>
<text text-anchor="middle" x="82" y="-178.5" font-family="Helvetica,sans-Serif" font-size="10.00">::CompileEvent</text>
</a>
</g>
</g>
<!-- Node1&#45;&gt;Node6 -->
<g id="edge5_Node000001_Node000006" class="edge">
<title>Node1&#45;&gt;Node6</title>
<g id="a_edge5_Node000001_Node000006"><a xlink:title=" ">
<path fill="none" stroke="#63b8ff" d="M189.35,-186.5C175.03,-186.5 158.23,-186.5 142.27,-186.5"/>
<polygon fill="#63b8ff" stroke="#63b8ff" points="189.77,-190 199.77,-186.5 189.77,-183 189.77,-190"/>
</a>
</g>
</g>
<!-- Node7 -->
<g id="Node000007" class="node">
<title>Node7</title>
<g id="a_Node000007"><a xlink:href="classgraph__jets.html#a568114127973b28c968493e79ca67cd7" target="_top" xlink:title="Compiles the event into a graph.">
<polygon fill="white" stroke="#666666" points="153,-153 11,-153 11,-134 153,-134 153,-153"/>
<text text-anchor="middle" x="82" y="-141" font-family="Helvetica,sans-Serif" font-size="10.00">graph_jets::CompileEvent</text>
</a>
</g>
</g>
<!-- Node1&#45;&gt;Node7 -->
<g id="edge6_Node000001_Node000007" class="edge">
<title>Node1&#45;&gt;Node7</title>
<g id="a_edge6_Node000001_Node000007"><a xlink:title=" ">
<path fill="none" stroke="#63b8ff" d="M194.06,-173.16C184.49,-169.43 173.9,-165.56 164,-162.5 152.68,-159 140.31,-155.79 128.71,-153.05"/>
<polygon fill="#63b8ff" stroke="#63b8ff" points="193.01,-176.51 203.59,-176.96 195.6,-170.01 193.01,-176.51"/>
</a>
</g>
</g>
<!-- Node8 -->
<g id="Node000008" class="node">
<title>Node8</title>
<g id="a_Node000008"><a xlink:href="classgraph__jets__nonu.html#a3d76d9b5885af9d1ef9c2a150acc1300" target="_top" xlink:title="Compiles the event into a graph.">
<polygon fill="white" stroke="#666666" points="153.5,-115.5 10.5,-115.5 10.5,-85.5 153.5,-85.5 153.5,-115.5"/>
<text text-anchor="start" x="18.5" y="-103.5" font-family="Helvetica,sans-Serif" font-size="10.00">graph_jets_nonu::Compile</text>
<text text-anchor="middle" x="82" y="-92.5" font-family="Helvetica,sans-Serif" font-size="10.00">Event</text>
</a>
</g>
</g>
<!-- Node1&#45;&gt;Node8 -->
<g id="edge7_Node000001_Node000008" class="edge">
<title>Node1&#45;&gt;Node8</title>
<g id="a_edge7_Node000001_Node000008"><a xlink:title=" ">
<path fill="none" stroke="#63b8ff" d="M212.31,-169.04C200.77,-155.41 183.11,-136.91 164,-125.5 157.56,-121.65 150.46,-118.34 143.24,-115.52"/>
<polygon fill="#63b8ff" stroke="#63b8ff" points="209.62,-171.28 218.67,-176.8 215.04,-166.85 209.62,-171.28"/>
</a>
</g>
</g>
<!-- Node9 -->
<g id="Node000009" class="node">
<title>Node9</title>
<g id="a_Node000009"><a xlink:href="classgraph__jets__detector__lep.html#a8da8c93bcdece302cb06b34e6b9db801" target="_top" xlink:title="Compiles the event into a graph.">
<polygon fill="white" stroke="#666666" points="138.5,-67.5 25.5,-67.5 25.5,-37.5 138.5,-37.5 138.5,-67.5"/>
<text text-anchor="start" x="33.5" y="-55.5" font-family="Helvetica,sans-Serif" font-size="10.00">graph_jets_detector</text>
<text text-anchor="middle" x="82" y="-44.5" font-family="Helvetica,sans-Serif" font-size="10.00">_lep::CompileEvent</text>
</a>
</g>
</g>
<!-- Node1&#45;&gt;Node9 -->
<g id="edge8_Node000001_Node000009" class="edge">
<title>Node1&#45;&gt;Node9</title>
<g id="a_edge8_Node000001_Node000009"><a xlink:title=" ">
<path fill="none" stroke="#63b8ff" d="M220.21,-167.28C211.8,-142.65 193.87,-100.3 164,-76.5 156.54,-70.56 147.65,-66.09 138.53,-62.72"/>
<polygon fill="#63b8ff" stroke="#63b8ff" points="216.92,-168.49 223.32,-176.93 223.58,-166.34 216.92,-168.49"/>
</a>
</g>
</g>
<!-- Node10 -->
<g id="Node000010" class="node">
<title>Node10</title>
<g id="a_Node000010"><a xlink:href="classgraph__detector.html#a9524462481e7c9e42df5cf73f999737e" target="_top" xlink:title="Compiles the event into a graph.">
<polygon fill="white" stroke="#666666" points="164,-19 0,-19 0,0 164,0 164,-19"/>
<text text-anchor="middle" x="82" y="-7" font-family="Helvetica,sans-Serif" font-size="10.00">graph_detector::CompileEvent</text>
</a>
</g>
</g>
<!-- Node1&#45;&gt;Node10 -->
<g id="edge9_Node000001_Node000010" class="edge">
<title>Node1&#45;&gt;Node10</title>
<g id="a_edge9_Node000001_Node000010"><a xlink:title=" ">
<path fill="none" stroke="#63b8ff" d="M224.11,-167.01C219.78,-133.46 206.03,-64.89 164,-28.5 159.63,-24.72 154.65,-21.65 149.36,-19.18"/>
<polygon fill="#63b8ff" stroke="#63b8ff" points="220.63,-167.41 225.25,-176.95 227.59,-166.62 220.63,-167.41"/>
</a>
</g>
</g>
</g>
</svg>
</svg>

<style type='text/css'>
<![CDATA[
[data-mouse-over-selected='false'] { opacity: 0.7; }
[data-mouse-over-selected='true']  { opacity: 1.0; }
]]>
</style>
<script type="application/ecmascript"><![CDATA[
document.addEventListener('DOMContentLoaded', (event) => {
  highlightEdges();
  highlightAdjacentNodes();
});
]]></script>
</svg>
