<?xml version="1.0" encoding="UTF-8" standalone="no"?>
<!DOCTYPE svg PUBLIC "-//W3C//DTD SVG 1.1//EN"
 "http://www.w3.org/Graphics/SVG/1.1/DTD/svg11.dtd">
<!-- Generated by graphviz version 2.43.0 (0)
 -->
<!-- Title: CUDA Accelerated Computing Pages: 1 -->
<svg width="342pt" height="175pt"
 viewBox="0.00 0.00 342.00 175.00" xmlns="http://www.w3.org/2000/svg" xmlns:xlink="http://www.w3.org/1999/xlink">

<svg id="main" version="1.1" xmlns="http://www.w3.org/2000/svg" xmlns:xlink="http://www.w3.org/1999/xlink" xml:space="preserve" onload="init(evt)">
<style type="text/css"><![CDATA[
.node, .edge {opacity: 0.7;}
.node.selected, .edge.selected {opacity: 1;}
.edge:hover path { stroke: red; }
.edge:hover polygon { stroke: red; fill: red; }
]]></style>
<script type="application/ecmascript" xlink:href="svg.min.js"/>
<svg id="graph" class="graph">
<g id="graph0" class="graph" transform="scale(1 1) rotate(0) translate(4 171)">
<title>CUDA Accelerated Computing</title>
<!-- Node1 -->
<g id="Node000001" class="node">
<title>Node1</title>
<g id="a_Node000001"><a xlink:title="GPU&#45;accelerated operations for physics computations.">
<polygon fill="#999999" stroke="#666666" points="162,-93 0,-93 0,-74 162,-74 162,-93"/>
<text text-anchor="middle" x="81" y="-81" font-family="Helvetica,sans-Serif" font-size="10.00">CUDA Accelerated Computing</text>
</a>
</g>
</g>
<!-- Node5 -->
<g id="Node000005" class="node">
<title>Node5</title>
<g id="a_Node000005"><a xlink:href="group__graph__cuda.html" target="_top" xlink:title="GPU&#45;accelerated graph operations.">
<polygon fill="white" stroke="#666666" points="324,-167 208,-167 208,-148 324,-148 324,-167"/>
<text text-anchor="middle" x="266" y="-155" font-family="Helvetica,sans-Serif" font-size="10.00">Graph CUDA Module</text>
</a>
</g>
</g>
<!-- Node1&#45;&gt;Node5 -->
<g id="edge4" class="edge">
<title>Node1&#45;&gt;Node5</title>
<path fill="none" stroke="black" d="M108.08,-97.84C131.2,-110.12 166.13,-127.65 198,-139.5 206.47,-142.65 215.72,-145.5 224.58,-147.95"/>
<polygon fill="black" stroke="black" points="109.71,-94.74 99.24,-93.09 106.39,-100.9 109.71,-94.74"/>
</g>
<!-- Node6 -->
<g id="Node000006" class="node">
<title>Node6</title>
<g id="a_Node000006"><a xlink:href="group__nusol__cuda.html" target="_top" xlink:title="GPU&#45;accelerated neutrino reconstruction.">
<polygon fill="white" stroke="#666666" points="324,-130 208,-130 208,-111 324,-111 324,-130"/>
<text text-anchor="middle" x="266" y="-118" font-family="Helvetica,sans-Serif" font-size="10.00">NuSol CUDA Module</text>
</a>
</g>
</g>
<!-- Node1&#45;&gt;Node6 -->
<g id="edge5" class="edge">
<title>Node1&#45;&gt;Node6</title>
<path fill="none" stroke="black" d="M138.96,-95.02C164.25,-100.13 193.66,-106.08 217.71,-110.94"/>
<polygon fill="black" stroke="black" points="139.62,-91.58 129.13,-93.03 138.24,-98.44 139.62,-91.58"/>
</g>
<!-- Node4 -->
<g id="Node000004" class="node">
<title>Node4</title>
<g id="a_Node000004"><a xlink:href="group__operators__cuda.html" target="_top" xlink:title="GPU&#45;accelerated mathematical operators.">
<polygon fill="white" stroke="#666666" points="333.5,-93 198.5,-93 198.5,-74 333.5,-74 333.5,-93"/>
<text text-anchor="middle" x="266" y="-81" font-family="Helvetica,sans-Serif" font-size="10.00">Operators CUDA Module</text>
</a>
</g>
</g>
<!-- Node1&#45;&gt;Node4 -->
<g id="edge3" class="edge">
<title>Node1&#45;&gt;Node4</title>
<path fill="none" stroke="black" d="M172.27,-83.5C181.04,-83.5 189.83,-83.5 198.31,-83.5"/>
<polygon fill="black" stroke="black" points="172,-80 162,-83.5 172,-87 172,-80"/>
</g>
<!-- Node2 -->
<g id="Node000002" class="node">
<title>Node2</title>
<g id="a_Node000002"><a xlink:href="group__physics__cuda.html" target="_top" xlink:title="GPU&#45;accelerated physics calculations.">
<polygon fill="white" stroke="#666666" points="328,-56 204,-56 204,-37 328,-37 328,-56"/>
<text text-anchor="middle" x="266" y="-44" font-family="Helvetica,sans-Serif" font-size="10.00">Physics CUDA Module</text>
</a>
</g>
</g>
<!-- Node1&#45;&gt;Node2 -->
<g id="edge1" class="edge">
<title>Node1&#45;&gt;Node2</title>
<path fill="none" stroke="black" d="M138.96,-71.98C164.25,-66.87 193.66,-60.92 217.71,-56.06"/>
<polygon fill="black" stroke="black" points="138.24,-68.56 129.13,-73.97 139.62,-75.42 138.24,-68.56"/>
</g>
<!-- Node3 -->
<g id="Node000003" class="node">
<title>Node3</title>
<g id="a_Node000003"><a xlink:href="group__transform__cuda.html" target="_top" xlink:title="GPU&#45;accelerated coordinate transformations.">
<polygon fill="white" stroke="#666666" points="334,-19 198,-19 198,0 334,0 334,-19"/>
<text text-anchor="middle" x="266" y="-7" font-family="Helvetica,sans-Serif" font-size="10.00">Transform CUDA Module</text>
</a>
</g>
</g>
<!-- Node1&#45;&gt;Node3 -->
<g id="edge2" class="edge">
<title>Node1&#45;&gt;Node3</title>
<path fill="none" stroke="black" d="M108.56,-69.35C131.72,-57.39 166.46,-40.35 198,-28.5 207.28,-25.01 217.49,-21.81 227.08,-19.07"/>
<polygon fill="black" stroke="black" points="106.93,-66.25 99.68,-73.98 110.17,-72.46 106.93,-66.25"/>
</g>
</g>
</svg>
</svg>

<style type='text/css'>
<![CDATA[
[data-mouse-over-selected='false'] { opacity: 0.7; }
[data-mouse-over-selected='true']  { opacity: 1.0; }
]]>
</style>
<script type="application/ecmascript"><![CDATA[
document.addEventListener('DOMContentLoaded', (event) => {
  highlightEdges();
  highlightAdjacentNodes();
});
]]></script>
</svg>
