<?xml version="1.0" encoding="UTF-8" standalone="no"?>
<!DOCTYPE svg PUBLIC "-//W3C//DTD SVG 1.1//EN"
 "http://www.w3.org/Graphics/SVG/1.1/DTD/svg11.dtd">
<!-- Generated by graphviz version 2.43.0 (0)
 -->
<!-- Title: transform.cxx Pages: 1 -->
<svg width="1256pt" height="368pt"
 viewBox="0.00 0.00 1256.13 368.00" xmlns="http://www.w3.org/2000/svg" xmlns:xlink="http://www.w3.org/1999/xlink">
<g id="graph0" class="graph" transform="scale(1 1) rotate(0) translate(4 364)">
<title>transform.cxx</title>
<!-- Node1 -->
<g id="Node000001" class="node">
<title>Node1</title>
<g id="a_Node000001"><a xlink:title=" ">
<polygon fill="#999999" stroke="#666666" points="1164.13,-360 1079.13,-360 1079.13,-341 1164.13,-341 1164.13,-360"/>
<text text-anchor="middle" x="1121.63" y="-348" font-family="Helvetica,sans-Serif" font-size="10.00">transform.cxx</text>
</a>
</g>
</g>
<!-- Node2 -->
<g id="Node000002" class="node">
<title>Node2</title>
<g id="a_Node000002"><a xlink:href="pyc_8h.html" target="_top" xlink:title=" ">
<polygon fill="white" stroke="#666666" points="940.13,-305 877.13,-305 877.13,-286 940.13,-286 940.13,-305"/>
<text text-anchor="middle" x="908.63" y="-293" font-family="Helvetica,sans-Serif" font-size="10.00">pyc/pyc.h</text>
</a>
</g>
</g>
<!-- Node1&#45;&gt;Node2 -->
<g id="edge1_Node000001_Node000002" class="edge">
<title>Node1&#45;&gt;Node2</title>
<g id="a_edge1_Node000001_Node000002"><a xlink:title=" ">
<path fill="none" stroke="#63b8ff" d="M1087.41,-340.98C1050.01,-331.68 990.09,-316.77 950.06,-306.81"/>
<polygon fill="#63b8ff" stroke="#63b8ff" points="950.88,-303.41 940.34,-304.39 949.19,-310.2 950.88,-303.41"/>
</a>
</g>
</g>
<!-- Node31 -->
<g id="Node000031" class="node">
<title>Node31</title>
<g id="a_Node000031"><a xlink:href="utils_8h.html" target="_top" xlink:title="Header file for utility functions.">
<polygon fill="white" stroke="#666666" points="1248.13,-129 1177.13,-129 1177.13,-110 1248.13,-110 1248.13,-129"/>
<text text-anchor="middle" x="1212.63" y="-117" font-family="Helvetica,sans-Serif" font-size="10.00">utils/utils.h</text>
</a>
</g>
</g>
<!-- Node1&#45;&gt;Node31 -->
<g id="edge51_Node000001_Node000031" class="edge">
<title>Node1&#45;&gt;Node31</title>
<g id="a_edge51_Node000001_Node000031"><a xlink:title=" ">
<path fill="none" stroke="#63b8ff" d="M1145.84,-340.85C1161.89,-333.78 1181.9,-322.14 1192.63,-305 1225.51,-252.5 1220.28,-174.79 1215.64,-139.35"/>
<polygon fill="#63b8ff" stroke="#63b8ff" points="1219.05,-138.44 1214.15,-129.05 1212.12,-139.45 1219.05,-138.44"/>
</a>
</g>
</g>
<!-- Node32 -->
<g id="Node000032" class="node">
<title>Node32</title>
<g id="a_Node000032"><a xlink:href="transform_8h.html" target="_top" xlink:title="Provides transformation functions for momentum calculations in C++.">
<polygon fill="white" stroke="#666666" points="1184.13,-305 1059.13,-305 1059.13,-286 1184.13,-286 1184.13,-305"/>
<text text-anchor="middle" x="1121.63" y="-293" font-family="Helvetica,sans-Serif" font-size="10.00">transform/transform.h</text>
</a>
</g>
</g>
<!-- Node1&#45;&gt;Node32 -->
<g id="edge54_Node000001_Node000032" class="edge">
<title>Node1&#45;&gt;Node32</title>
<g id="a_edge54_Node000001_Node000032"><a xlink:title=" ">
<path fill="none" stroke="#63b8ff" d="M1121.63,-340.75C1121.63,-333.8 1121.63,-323.85 1121.63,-315.13"/>
<polygon fill="#63b8ff" stroke="#63b8ff" points="1125.13,-315.09 1121.63,-305.09 1118.13,-315.09 1125.13,-315.09"/>
</a>
</g>
</g>
<!-- Node3 -->
<g id="Node000003" class="node">
<title>Node3</title>
<g id="a_Node000003"><a xlink:title=" ">
<polygon fill="#e0e0e0" stroke="#999999" points="893.13,-244.5 852.13,-244.5 852.13,-225.5 893.13,-225.5 893.13,-244.5"/>
<text text-anchor="middle" x="872.63" y="-232.5" font-family="Helvetica,sans-Serif" font-size="10.00">tuple</text>
</a>
</g>
</g>
<!-- Node2&#45;&gt;Node3 -->
<g id="edge2_Node000002_Node000003" class="edge">
<title>Node2&#45;&gt;Node3</title>
<g id="a_edge2_Node000002_Node000003"><a xlink:title=" ">
<path fill="none" stroke="#63b8ff" d="M903.32,-285.87C898.06,-277.31 889.85,-263.97 883.24,-253.24"/>
<polygon fill="#63b8ff" stroke="#63b8ff" points="886.19,-251.35 877.97,-244.67 880.23,-255.02 886.19,-251.35"/>
</a>
</g>
</g>
<!-- Node4 -->
<g id="Node000004" class="node">
<title>Node4</title>
<g id="a_Node000004"><a xlink:title=" ">
<polygon fill="#e0e0e0" stroke="#999999" points="976.13,-244.5 911.13,-244.5 911.13,-225.5 976.13,-225.5 976.13,-244.5"/>
<text text-anchor="middle" x="943.63" y="-232.5" font-family="Helvetica,sans-Serif" font-size="10.00">torch/all.h</text>
</a>
</g>
</g>
<!-- Node2&#45;&gt;Node4 -->
<g id="edge3_Node000002_Node000004" class="edge">
<title>Node2&#45;&gt;Node4</title>
<g id="a_edge3_Node000002_Node000004"><a xlink:title=" ">
<path fill="none" stroke="#63b8ff" d="M913.8,-285.87C918.86,-277.4 926.74,-264.24 933.12,-253.57"/>
<polygon fill="#63b8ff" stroke="#63b8ff" points="936.32,-255.05 938.45,-244.67 930.31,-251.45 936.32,-255.05"/>
</a>
</g>
</g>
<!-- Node5 -->
<g id="Node000005" class="node">
<title>Node5</title>
<g id="a_Node000005"><a xlink:href="particle__template_8h.html" target="_top" xlink:title="Defines the particle_template base class for physics particle representations.">
<polygon fill="white" stroke="#666666" points="653.63,-250 547.63,-250 547.63,-220 653.63,-220 653.63,-250"/>
<text text-anchor="start" x="555.63" y="-238" font-family="Helvetica,sans-Serif" font-size="10.00">templates/particle</text>
<text text-anchor="middle" x="600.63" y="-227" font-family="Helvetica,sans-Serif" font-size="10.00">_template.h</text>
</a>
</g>
</g>
<!-- Node2&#45;&gt;Node5 -->
<g id="edge4_Node000002_Node000005" class="edge">
<title>Node2&#45;&gt;Node5</title>
<g id="a_edge4_Node000002_Node000005"><a xlink:title=" ">
<path fill="none" stroke="#63b8ff" d="M877.12,-288.51C827.13,-279.02 728.68,-260.32 663.76,-247.99"/>
<polygon fill="#63b8ff" stroke="#63b8ff" points="664.12,-244.5 653.65,-246.07 662.82,-251.37 664.12,-244.5"/>
</a>
</g>
</g>
<!-- Node6 -->
<g id="Node000006" class="node">
<title>Node6</title>
<g id="a_Node000006"><a xlink:href="modules_2structs_2include_2structs_2particles_8h.html" target="_top" xlink:title=" ">
<polygon fill="white" stroke="#666666" points="703.63,-74 599.63,-74 599.63,-55 703.63,-55 703.63,-74"/>
<text text-anchor="middle" x="651.63" y="-62" font-family="Helvetica,sans-Serif" font-size="10.00">structs/particles.h</text>
</a>
</g>
</g>
<!-- Node5&#45;&gt;Node6 -->
<g id="edge5_Node000005_Node000006" class="edge">
<title>Node5&#45;&gt;Node6</title>
<g id="a_edge5_Node000005_Node000006"><a xlink:title=" ">
<path fill="none" stroke="#63b8ff" d="M653.79,-229.23C711.31,-222.84 797.53,-209.26 817.63,-184 857.73,-133.61 757.07,-95.01 695.41,-76.88"/>
<polygon fill="#63b8ff" stroke="#63b8ff" points="696.08,-73.43 685.51,-74.04 694.16,-80.16 696.08,-73.43"/>
</a>
</g>
</g>
<!-- Node7 -->
<g id="Node000007" class="node">
<title>Node7</title>
<g id="a_Node000007"><a xlink:title=" ">
<polygon fill="#e0e0e0" stroke="#999999" points="348.63,-19 304.63,-19 304.63,0 348.63,0 348.63,-19"/>
<text text-anchor="middle" x="326.63" y="-7" font-family="Helvetica,sans-Serif" font-size="10.00">string</text>
</a>
</g>
</g>
<!-- Node5&#45;&gt;Node7 -->
<g id="edge48_Node000005_Node000007" class="edge">
<title>Node5&#45;&gt;Node7</title>
<g id="a_edge48_Node000005_Node000007"><a xlink:title=" ">
<path fill="none" stroke="#63b8ff" d="M547.61,-233.23C453.98,-228.49 264.28,-202.76 211.63,-74 208.44,-66.18 206.86,-61.97 211.63,-55 216.61,-47.74 262.67,-31.44 294.96,-20.71"/>
<polygon fill="#63b8ff" stroke="#63b8ff" points="296.07,-24.03 304.48,-17.58 293.88,-17.38 296.07,-24.03"/>
</a>
</g>
</g>
<!-- Node10 -->
<g id="Node000010" class="node">
<title>Node10</title>
<g id="a_Node000010"><a xlink:href="property_8h.html" target="_top" xlink:title="Defines the cproperty template class for property&#45;based access patterns.">
<polygon fill="white" stroke="#666666" points="126.13,-184 25.13,-184 25.13,-165 126.13,-165 126.13,-184"/>
<text text-anchor="middle" x="75.63" y="-172" font-family="Helvetica,sans-Serif" font-size="10.00">structs/property.h</text>
</a>
</g>
</g>
<!-- Node5&#45;&gt;Node10 -->
<g id="edge9_Node000005_Node000010" class="edge">
<title>Node5&#45;&gt;Node10</title>
<g id="a_edge9_Node000005_Node000010"><a xlink:title=" ">
<path fill="none" stroke="#63b8ff" d="M547.47,-228.6C461.77,-219.81 287.79,-201.62 140.63,-184 139.33,-183.84 138.01,-183.68 136.68,-183.52"/>
<polygon fill="#63b8ff" stroke="#63b8ff" points="136.72,-180 126.36,-182.24 135.85,-186.95 136.72,-180"/>
</a>
</g>
</g>
<!-- Node12 -->
<g id="Node000012" class="node">
<title>Node12</title>
<g id="a_Node000012"><a xlink:href="element_8h.html" target="_top" xlink:title=" ">
<polygon fill="white" stroke="#666666" points="602.63,-184 500.63,-184 500.63,-165 602.63,-165 602.63,-184"/>
<text text-anchor="middle" x="551.63" y="-172" font-family="Helvetica,sans-Serif" font-size="10.00">structs/element.h</text>
</a>
</g>
</g>
<!-- Node5&#45;&gt;Node12 -->
<g id="edge12_Node000005_Node000012" class="edge">
<title>Node5&#45;&gt;Node12</title>
<g id="a_edge12_Node000005_Node000012"><a xlink:title=" ">
<path fill="none" stroke="#63b8ff" d="M588.77,-219.84C581.73,-211.43 572.77,-200.74 565.42,-191.96"/>
<polygon fill="#63b8ff" stroke="#63b8ff" points="568.08,-189.68 558.97,-184.27 562.71,-194.18 568.08,-189.68"/>
</a>
</g>
</g>
<!-- Node22 -->
<g id="Node000022" class="node">
<title>Node22</title>
<g id="a_Node000022"><a xlink:title=" ">
<polygon fill="#e0e0e0" stroke="#999999" points="200.63,-19 140.63,-19 140.63,0 200.63,0 200.63,-19"/>
<text text-anchor="middle" x="170.63" y="-7" font-family="Helvetica,sans-Serif" font-size="10.00">iostream</text>
</a>
</g>
</g>
<!-- Node5&#45;&gt;Node22 -->
<g id="edge46_Node000005_Node000022" class="edge">
<title>Node5&#45;&gt;Node22</title>
<g id="a_edge46_Node000005_Node000022"><a xlink:title=" ">
<path fill="none" stroke="#63b8ff" d="M547.55,-233.39C410.31,-231.27 51.92,-222.11 15.63,-184 -7.06,-160.17 -2.23,-138.83 13.63,-110 38.69,-64.45 94.39,-36.83 132.24,-22.6"/>
<polygon fill="#63b8ff" stroke="#63b8ff" points="133.7,-25.8 141.92,-19.11 131.33,-19.21 133.7,-25.8"/>
</a>
</g>
</g>
<!-- Node26 -->
<g id="Node000026" class="node">
<title>Node26</title>
<g id="a_Node000026"><a xlink:href="tools_8h.html" target="_top" xlink:title="Defines the tools class that provides general utility functions for the AnalysisG framework.">
<polygon fill="white" stroke="#666666" points="298.13,-74 221.13,-74 221.13,-55 298.13,-55 298.13,-74"/>
<text text-anchor="middle" x="259.63" y="-62" font-family="Helvetica,sans-Serif" font-size="10.00">tools/tools.h</text>
</a>
</g>
</g>
<!-- Node5&#45;&gt;Node26 -->
<g id="edge40_Node000005_Node000026" class="edge">
<title>Node5&#45;&gt;Node26</title>
<g id="a_edge40_Node000005_Node000026"><a xlink:title=" ">
<path fill="none" stroke="#63b8ff" d="M547.47,-230.68C477.41,-223.5 354.55,-200.79 281.63,-129 269.56,-117.12 264.11,-98.29 261.64,-84.21"/>
<polygon fill="#63b8ff" stroke="#63b8ff" points="265.09,-83.59 260.24,-74.17 258.16,-84.56 265.09,-83.59"/>
</a>
</g>
</g>
<!-- Node28 -->
<g id="Node000028" class="node">
<title>Node28</title>
<g id="a_Node000028"><a xlink:title=" ">
<polygon fill="#e0e0e0" stroke="#999999" points="676.63,-184 620.63,-184 620.63,-165 676.63,-165 676.63,-184"/>
<text text-anchor="middle" x="648.63" y="-172" font-family="Helvetica,sans-Serif" font-size="10.00">sstream</text>
</a>
</g>
</g>
<!-- Node5&#45;&gt;Node28 -->
<g id="edge47_Node000005_Node000028" class="edge">
<title>Node5&#45;&gt;Node28</title>
<g id="a_edge47_Node000005_Node000028"><a xlink:title=" ">
<path fill="none" stroke="#63b8ff" d="M612.25,-219.84C619.08,-211.52 627.74,-200.96 634.9,-192.23"/>
<polygon fill="#63b8ff" stroke="#63b8ff" points="637.8,-194.22 641.44,-184.27 632.39,-189.78 637.8,-194.22"/>
</a>
</g>
</g>
<!-- Node29 -->
<g id="Node000029" class="node">
<title>Node29</title>
<g id="a_Node000029"><a xlink:title=" ">
<polygon fill="#e0e0e0" stroke="#999999" points="744.13,-184 695.13,-184 695.13,-165 744.13,-165 744.13,-184"/>
<text text-anchor="middle" x="719.63" y="-172" font-family="Helvetica,sans-Serif" font-size="10.00">cstdlib</text>
</a>
</g>
</g>
<!-- Node5&#45;&gt;Node29 -->
<g id="edge49_Node000005_Node000029" class="edge">
<title>Node5&#45;&gt;Node29</title>
<g id="a_edge49_Node000005_Node000029"><a xlink:title=" ">
<path fill="none" stroke="#63b8ff" d="M629.14,-219.99C648.55,-210.45 674.06,-197.9 693.05,-188.57"/>
<polygon fill="#63b8ff" stroke="#63b8ff" points="694.63,-191.69 702.06,-184.14 691.54,-185.41 694.63,-191.69"/>
</a>
</g>
</g>
<!-- Node30 -->
<g id="Node000030" class="node">
<title>Node30</title>
<g id="a_Node000030"><a xlink:title=" ">
<polygon fill="#e0e0e0" stroke="#999999" points="809.13,-184 762.13,-184 762.13,-165 809.13,-165 809.13,-184"/>
<text text-anchor="middle" x="785.63" y="-172" font-family="Helvetica,sans-Serif" font-size="10.00">cmath</text>
</a>
</g>
</g>
<!-- Node5&#45;&gt;Node30 -->
<g id="edge50_Node000005_Node000030" class="edge">
<title>Node5&#45;&gt;Node30</title>
<g id="a_edge50_Node000005_Node000030"><a xlink:title=" ">
<path fill="none" stroke="#63b8ff" d="M644.94,-219.99C677.98,-209.54 722.4,-195.5 752.42,-186"/>
<polygon fill="#63b8ff" stroke="#63b8ff" points="753.53,-189.32 762.01,-182.97 751.42,-182.65 753.53,-189.32"/>
</a>
</g>
</g>
<!-- Node6&#45;&gt;Node7 -->
<g id="edge6_Node000006_Node000007" class="edge">
<title>Node6&#45;&gt;Node7</title>
<g id="a_edge6_Node000006_Node000007"><a xlink:title=" ">
<path fill="none" stroke="#63b8ff" d="M599.42,-54.98C531.65,-43.93 415.44,-24.98 359.12,-15.8"/>
<polygon fill="#63b8ff" stroke="#63b8ff" points="359.44,-12.3 349.01,-14.15 358.31,-19.21 359.44,-12.3"/>
</a>
</g>
</g>
<!-- Node8 -->
<g id="Node000008" class="node">
<title>Node8</title>
<g id="a_Node000008"><a xlink:title=" ">
<polygon fill="#e0e0e0" stroke="#999999" points="832.13,-19 785.13,-19 785.13,0 832.13,0 832.13,-19"/>
<text text-anchor="middle" x="808.63" y="-7" font-family="Helvetica,sans-Serif" font-size="10.00">vector</text>
</a>
</g>
</g>
<!-- Node6&#45;&gt;Node8 -->
<g id="edge7_Node000006_Node000008" class="edge">
<title>Node6&#45;&gt;Node8</title>
<g id="a_edge7_Node000006_Node000008"><a xlink:title=" ">
<path fill="none" stroke="#63b8ff" d="M676.86,-54.98C703.53,-45.98 745.74,-31.73 775.18,-21.79"/>
<polygon fill="#63b8ff" stroke="#63b8ff" points="776.66,-24.99 785.01,-18.47 774.42,-18.36 776.66,-24.99"/>
</a>
</g>
</g>
<!-- Node9 -->
<g id="Node000009" class="node">
<title>Node9</title>
<g id="a_Node000009"><a xlink:title=" ">
<polygon fill="#e0e0e0" stroke="#999999" points="590.63,-19 552.63,-19 552.63,0 590.63,0 590.63,-19"/>
<text text-anchor="middle" x="571.63" y="-7" font-family="Helvetica,sans-Serif" font-size="10.00">map</text>
</a>
</g>
</g>
<!-- Node6&#45;&gt;Node9 -->
<g id="edge8_Node000006_Node000009" class="edge">
<title>Node6&#45;&gt;Node9</title>
<g id="a_edge8_Node000006_Node000009"><a xlink:title=" ">
<path fill="none" stroke="#63b8ff" d="M638.78,-54.98C626.49,-46.84 607.73,-34.41 593.15,-24.76"/>
<polygon fill="#63b8ff" stroke="#63b8ff" points="594.99,-21.78 584.72,-19.17 591.12,-27.61 594.99,-21.78"/>
</a>
</g>
</g>
<!-- Node10&#45;&gt;Node7 -->
<g id="edge11_Node000010_Node000007" class="edge">
<title>Node10&#45;&gt;Node7</title>
<g id="a_edge11_Node000010_Node000007"><a xlink:title=" ">
<path fill="none" stroke="#63b8ff" d="M80.68,-164.88C93.88,-143.07 131.7,-85.33 178.63,-55 188.53,-48.61 254.49,-30.04 294.95,-19.02"/>
<polygon fill="#63b8ff" stroke="#63b8ff" points="295.9,-22.38 304.63,-16.39 294.06,-15.63 295.9,-22.38"/>
</a>
</g>
</g>
<!-- Node11 -->
<g id="Node000011" class="node">
<title>Node11</title>
<g id="a_Node000011"><a xlink:title=" ">
<polygon fill="#e0e0e0" stroke="#999999" points="88.13,-129 23.13,-129 23.13,-110 88.13,-110 88.13,-129"/>
<text text-anchor="middle" x="55.63" y="-117" font-family="Helvetica,sans-Serif" font-size="10.00">functional</text>
</a>
</g>
</g>
<!-- Node10&#45;&gt;Node11 -->
<g id="edge10_Node000010_Node000011" class="edge">
<title>Node10&#45;&gt;Node11</title>
<g id="a_edge10_Node000010_Node000011"><a xlink:title=" ">
<path fill="none" stroke="#63b8ff" d="M72.33,-164.75C69.65,-157.65 65.78,-147.4 62.45,-138.56"/>
<polygon fill="#63b8ff" stroke="#63b8ff" points="65.68,-137.21 58.87,-129.09 59.13,-139.68 65.68,-137.21"/>
</a>
</g>
</g>
<!-- Node12&#45;&gt;Node7 -->
<g id="edge37_Node000012_Node000007" class="edge">
<title>Node12&#45;&gt;Node7</title>
<g id="a_edge37_Node000012_Node000007"><a xlink:title=" ">
<path fill="none" stroke="#63b8ff" d="M500.48,-172.42C431.54,-169.76 314.34,-160.59 287.63,-129 282.18,-122.55 285.6,-118.2 287.63,-110 291.98,-92.44 299.66,-90.7 306.63,-74 312.76,-59.32 318.08,-42.06 321.69,-29.25"/>
<polygon fill="#63b8ff" stroke="#63b8ff" points="325.15,-29.87 324.4,-19.3 318.39,-28.03 325.15,-29.87"/>
</a>
</g>
</g>
<!-- Node12&#45;&gt;Node8 -->
<g id="edge38_Node000012_Node000008" class="edge">
<title>Node12&#45;&gt;Node8</title>
<g id="a_edge38_Node000012_Node000008"><a xlink:title=" ">
<path fill="none" stroke="#63b8ff" d="M602.67,-166.07C605.7,-165.69 608.7,-165.33 611.63,-165 706.92,-154.27 962.44,-183.06 1041.63,-129 1070.55,-109.26 1091.2,-81.76 1068.63,-55 1040.09,-21.16 906.39,-13.05 842.63,-11.11"/>
<polygon fill="#63b8ff" stroke="#63b8ff" points="842.39,-7.6 832.3,-10.83 842.2,-14.6 842.39,-7.6"/>
</a>
</g>
</g>
<!-- Node12&#45;&gt;Node9 -->
<g id="edge39_Node000012_Node000009" class="edge">
<title>Node12&#45;&gt;Node9</title>
<g id="a_edge39_Node000012_Node000009"><a xlink:title=" ">
<path fill="none" stroke="#63b8ff" d="M602.7,-165.92C660.75,-156.79 748.81,-141.15 758.63,-129 763.94,-122.43 763.94,-116.57 758.63,-110 710.63,-50.62 646.73,-125.8 590.63,-74 578.36,-62.67 573.89,-43.76 572.33,-29.52"/>
<polygon fill="#63b8ff" stroke="#63b8ff" points="575.81,-29.06 571.6,-19.33 568.82,-29.56 575.81,-29.06"/>
</a>
</g>
</g>
<!-- Node13 -->
<g id="Node000013" class="node">
<title>Node13</title>
<g id="a_Node000013"><a xlink:title=" ">
<polygon fill="#e0e0e0" stroke="#999999" points="346.13,-129 297.13,-129 297.13,-110 346.13,-110 346.13,-129"/>
<text text-anchor="middle" x="321.63" y="-117" font-family="Helvetica,sans-Serif" font-size="10.00">TFile.h</text>
</a>
</g>
</g>
<!-- Node12&#45;&gt;Node13 -->
<g id="edge13_Node000012_Node000013" class="edge">
<title>Node12&#45;&gt;Node13</title>
<g id="a_edge13_Node000012_Node000013"><a xlink:title=" ">
<path fill="none" stroke="#63b8ff" d="M512.31,-164.98C474.58,-156.73 415.78,-143.65 356.4,-129.38"/>
<polygon fill="#63b8ff" stroke="#63b8ff" points="357.02,-125.93 346.48,-126.98 355.38,-132.73 357.02,-125.93"/>
</a>
</g>
</g>
<!-- Node14 -->
<g id="Node000014" class="node">
<title>Node14</title>
<g id="a_Node000014"><a xlink:title=" ">
<polygon fill="#e0e0e0" stroke="#999999" points="1059.63,-74 1007.63,-74 1007.63,-55 1059.63,-55 1059.63,-74"/>
<text text-anchor="middle" x="1033.63" y="-62" font-family="Helvetica,sans-Serif" font-size="10.00">TTree.h</text>
</a>
</g>
</g>
<!-- Node12&#45;&gt;Node14 -->
<g id="edge14_Node000012_Node000014" class="edge">
<title>Node12&#45;&gt;Node14</title>
<g id="a_edge14_Node000012_Node000014"><a xlink:title=" ">
<path fill="none" stroke="#63b8ff" d="M602.67,-166.08C605.7,-165.7 608.71,-165.34 611.63,-165 657.07,-159.79 987.73,-159.69 1021.63,-129 1033.84,-117.95 1035.99,-98.7 1035.61,-84.28"/>
<polygon fill="#63b8ff" stroke="#63b8ff" points="1039.08,-83.74 1034.9,-74.01 1032.1,-84.22 1039.08,-83.74"/>
</a>
</g>
</g>
<!-- Node15 -->
<g id="Node000015" class="node">
<title>Node15</title>
<g id="a_Node000015"><a xlink:title=" ">
<polygon fill="#e0e0e0" stroke="#999999" points="429.13,-129 364.13,-129 364.13,-110 429.13,-110 429.13,-129"/>
<text text-anchor="middle" x="396.63" y="-117" font-family="Helvetica,sans-Serif" font-size="10.00">TBranch.h</text>
</a>
</g>
</g>
<!-- Node12&#45;&gt;Node15 -->
<g id="edge15_Node000012_Node000015" class="edge">
<title>Node12&#45;&gt;Node15</title>
<g id="a_edge15_Node000012_Node000015"><a xlink:title=" ">
<path fill="none" stroke="#63b8ff" d="M526.73,-164.98C500.93,-156.16 460.41,-142.31 431.45,-132.41"/>
<polygon fill="#63b8ff" stroke="#63b8ff" points="432.33,-129.01 421.73,-129.08 430.06,-135.63 432.33,-129.01"/>
</a>
</g>
</g>
<!-- Node16 -->
<g id="Node000016" class="node">
<title>Node16</title>
<g id="a_Node000016"><a xlink:title=" ">
<polygon fill="#e0e0e0" stroke="#999999" points="499.63,-129 447.63,-129 447.63,-110 499.63,-110 499.63,-129"/>
<text text-anchor="middle" x="473.63" y="-117" font-family="Helvetica,sans-Serif" font-size="10.00">TLeaf.h</text>
</a>
</g>
</g>
<!-- Node12&#45;&gt;Node16 -->
<g id="edge16_Node000012_Node000016" class="edge">
<title>Node12&#45;&gt;Node16</title>
<g id="a_edge16_Node000012_Node000016"><a xlink:title=" ">
<path fill="none" stroke="#63b8ff" d="M539.1,-164.98C527.23,-156.92 509.17,-144.65 495.02,-135.03"/>
<polygon fill="#63b8ff" stroke="#63b8ff" points="496.63,-131.9 486.39,-129.17 492.7,-137.69 496.63,-131.9"/>
</a>
</g>
</g>
<!-- Node17 -->
<g id="Node000017" class="node">
<title>Node17</title>
<g id="a_Node000017"><a xlink:title=" ">
<polygon fill="#e0e0e0" stroke="#999999" points="629.13,-129 518.13,-129 518.13,-110 629.13,-110 629.13,-129"/>
<text text-anchor="middle" x="573.63" y="-117" font-family="Helvetica,sans-Serif" font-size="10.00">TTreeReaderArray.h</text>
</a>
</g>
</g>
<!-- Node12&#45;&gt;Node17 -->
<g id="edge17_Node000012_Node000017" class="edge">
<title>Node12&#45;&gt;Node17</title>
<g id="a_edge17_Node000012_Node000017"><a xlink:title=" ">
<path fill="none" stroke="#63b8ff" d="M555.27,-164.75C558.21,-157.65 562.47,-147.4 566.14,-138.56"/>
<polygon fill="#63b8ff" stroke="#63b8ff" points="569.47,-139.67 570.07,-129.09 563,-136.98 569.47,-139.67"/>
</a>
</g>
</g>
<!-- Node18 -->
<g id="Node000018" class="node">
<title>Node18</title>
<g id="a_Node000018"><a xlink:title=" ">
<polygon fill="#e0e0e0" stroke="#999999" points="733.63,-129 647.63,-129 647.63,-110 733.63,-110 733.63,-129"/>
<text text-anchor="middle" x="690.63" y="-117" font-family="Helvetica,sans-Serif" font-size="10.00">TTreeReader.h</text>
</a>
</g>
</g>
<!-- Node12&#45;&gt;Node18 -->
<g id="edge18_Node000012_Node000018" class="edge">
<title>Node12&#45;&gt;Node18</title>
<g id="a_edge18_Node000012_Node000018"><a xlink:title=" ">
<path fill="none" stroke="#63b8ff" d="M573.96,-164.98C596.83,-156.27 632.59,-142.63 658.49,-132.75"/>
<polygon fill="#63b8ff" stroke="#63b8ff" points="659.8,-136 667.89,-129.17 657.3,-129.46 659.8,-136"/>
</a>
</g>
</g>
<!-- Node19 -->
<g id="Node000019" class="node">
<title>Node19</title>
<g id="a_Node000019"><a xlink:href="vector__cast_8h.html" target="_top" xlink:title=" ">
<polygon fill="white" stroke="#666666" points="1013.13,-129 904.13,-129 904.13,-110 1013.13,-110 1013.13,-129"/>
<text text-anchor="middle" x="958.63" y="-117" font-family="Helvetica,sans-Serif" font-size="10.00">tools/vector_cast.h</text>
</a>
</g>
</g>
<!-- Node12&#45;&gt;Node19 -->
<g id="edge19_Node000012_Node000019" class="edge">
<title>Node12&#45;&gt;Node19</title>
<g id="a_edge19_Node000012_Node000019"><a xlink:title=" ">
<path fill="none" stroke="#63b8ff" d="M602.69,-166.22C605.71,-165.8 608.71,-165.39 611.63,-165 710.02,-151.72 824.24,-137.26 893.96,-128.54"/>
<polygon fill="#63b8ff" stroke="#63b8ff" points="894.42,-132 903.91,-127.29 893.55,-125.06 894.42,-132"/>
</a>
</g>
</g>
<!-- Node21 -->
<g id="Node000021" class="node">
<title>Node21</title>
<g id="a_Node000021"><a xlink:href="structs_2include_2structs_2meta_8h.html" target="_top" xlink:title="Defines metadata structures for physics analysis datasets.">
<polygon fill="white" stroke="#666666" points="543.13,-74 456.13,-74 456.13,-55 543.13,-55 543.13,-74"/>
<text text-anchor="middle" x="499.63" y="-62" font-family="Helvetica,sans-Serif" font-size="10.00">structs/meta.h</text>
</a>
</g>
</g>
<!-- Node12&#45;&gt;Node21 -->
<g id="edge35_Node000012_Node000021" class="edge">
<title>Node12&#45;&gt;Node21</title>
<g id="a_edge35_Node000012_Node000021"><a xlink:title=" ">
<path fill="none" stroke="#63b8ff" d="M602.6,-164.97C656.15,-155.49 733.85,-140.07 742.63,-129 747.88,-122.39 748.04,-116.49 742.63,-110 736.56,-102.72 622.97,-84.27 553.27,-73.55"/>
<polygon fill="#63b8ff" stroke="#63b8ff" points="553.73,-70.08 543.32,-72.03 552.68,-77 553.73,-70.08"/>
</a>
</g>
</g>
<!-- Node12&#45;&gt;Node22 -->
<g id="edge36_Node000012_Node000022" class="edge">
<title>Node12&#45;&gt;Node22</title>
<g id="a_edge36_Node000012_Node000022"><a xlink:title=" ">
<path fill="none" stroke="#63b8ff" d="M500.48,-172.59C444.52,-169.91 353.27,-160.53 281.63,-129 245.42,-113.06 238.28,-103.24 211.63,-74 198.95,-60.09 187.61,-41.83 180.09,-28.47"/>
<polygon fill="#63b8ff" stroke="#63b8ff" points="182.98,-26.46 175.12,-19.35 176.83,-29.81 182.98,-26.46"/>
</a>
</g>
</g>
<!-- Node23 -->
<g id="Node000023" class="node">
<title>Node23</title>
<g id="a_Node000023"><a xlink:href="modules_2structs_2include_2structs_2base_8h.html" target="_top" xlink:title="Defines fundamental data structures and type handling for the AnalysisG framework.">
<polygon fill="white" stroke="#666666" points="807.13,-74 722.13,-74 722.13,-55 807.13,-55 807.13,-74"/>
<text text-anchor="middle" x="764.63" y="-62" font-family="Helvetica,sans-Serif" font-size="10.00">structs/base.h</text>
</a>
</g>
</g>
<!-- Node12&#45;&gt;Node23 -->
<g id="edge34_Node000012_Node000023" class="edge">
<title>Node12&#45;&gt;Node23</title>
<g id="a_edge34_Node000012_Node000023"><a xlink:title=" ">
<path fill="none" stroke="#63b8ff" d="M602.87,-165.64C678.17,-153.98 810.23,-133.03 813.63,-129 827.52,-112.56 806.78,-92.83 788.17,-79.77"/>
<polygon fill="#63b8ff" stroke="#63b8ff" points="789.9,-76.72 779.63,-74.11 786.03,-82.55 789.9,-76.72"/>
</a>
</g>
</g>
<!-- Node19&#45;&gt;Node8 -->
<g id="edge33_Node000019_Node000008" class="edge">
<title>Node19&#45;&gt;Node8</title>
<g id="a_edge33_Node000019_Node000008"><a xlink:title=" ">
<path fill="none" stroke="#63b8ff" d="M962.05,-109.68C966.58,-96.38 972.67,-71.07 960.63,-55 946.41,-36.02 882.35,-22.42 842.07,-15.56"/>
<polygon fill="#63b8ff" stroke="#63b8ff" points="842.57,-12.09 832.14,-13.92 841.43,-19 842.57,-12.09"/>
</a>
</g>
</g>
<!-- Node19&#45;&gt;Node14 -->
<g id="edge32_Node000019_Node000014" class="edge">
<title>Node19&#45;&gt;Node14</title>
<g id="a_edge32_Node000019_Node000014"><a xlink:title=" ">
<path fill="none" stroke="#63b8ff" d="M970.68,-109.98C982.1,-101.92 999.46,-89.65 1013.07,-80.03"/>
<polygon fill="#63b8ff" stroke="#63b8ff" points="1015.22,-82.8 1021.36,-74.17 1011.18,-77.08 1015.22,-82.8"/>
</a>
</g>
</g>
<!-- Node20 -->
<g id="Node000020" class="node">
<title>Node20</title>
<g id="a_Node000020"><a xlink:title=" ">
<polygon fill="#e0e0e0" stroke="#999999" points="951.63,-74 825.63,-74 825.63,-55 951.63,-55 951.63,-74"/>
<text text-anchor="middle" x="888.63" y="-62" font-family="Helvetica,sans-Serif" font-size="10.00">c10/core/DeviceType.h</text>
</a>
</g>
</g>
<!-- Node19&#45;&gt;Node20 -->
<g id="edge20_Node000019_Node000020" class="edge">
<title>Node19&#45;&gt;Node20</title>
<g id="a_edge20_Node000019_Node000020"><a xlink:title=" ">
<path fill="none" stroke="#63b8ff" d="M947.39,-109.98C936.83,-102 920.83,-89.88 908.19,-80.31"/>
<polygon fill="#63b8ff" stroke="#63b8ff" points="910.17,-77.42 900.08,-74.17 905.94,-83 910.17,-77.42"/>
</a>
</g>
</g>
<!-- Node19&#45;&gt;Node21 -->
<g id="edge21_Node000019_Node000021" class="edge">
<title>Node19&#45;&gt;Node21</title>
<g id="a_edge21_Node000019_Node000021"><a xlink:title=" ">
<path fill="none" stroke="#63b8ff" d="M903.72,-112.16C815.03,-101.92 641.31,-81.86 553.37,-71.7"/>
<polygon fill="#63b8ff" stroke="#63b8ff" points="553.67,-68.22 543.34,-70.55 552.87,-75.17 553.67,-68.22"/>
</a>
</g>
</g>
<!-- Node19&#45;&gt;Node23 -->
<g id="edge26_Node000019_Node000023" class="edge">
<title>Node19&#45;&gt;Node23</title>
<g id="a_edge26_Node000019_Node000023"><a xlink:title=" ">
<path fill="none" stroke="#63b8ff" d="M927.46,-109.98C894.47,-100.97 842.24,-86.7 805.86,-76.76"/>
<polygon fill="#63b8ff" stroke="#63b8ff" points="806.61,-73.34 796.05,-74.08 804.77,-80.09 806.61,-73.34"/>
</a>
</g>
</g>
<!-- Node25 -->
<g id="Node000025" class="node">
<title>Node25</title>
<g id="a_Node000025"><a xlink:title=" ">
<polygon fill="#e0e0e0" stroke="#999999" points="1193.63,-74 1115.63,-74 1115.63,-55 1193.63,-55 1193.63,-74"/>
<text text-anchor="middle" x="1154.63" y="-62" font-family="Helvetica,sans-Serif" font-size="10.00">torch/torch.h</text>
</a>
</g>
</g>
<!-- Node19&#45;&gt;Node25 -->
<g id="edge31_Node000019_Node000025" class="edge">
<title>Node19&#45;&gt;Node25</title>
<g id="a_edge31_Node000019_Node000025"><a xlink:title=" ">
<path fill="none" stroke="#63b8ff" d="M990.12,-109.98C1023.46,-100.97 1076.23,-86.7 1112.98,-76.76"/>
<polygon fill="#63b8ff" stroke="#63b8ff" points="1114.15,-80.07 1122.89,-74.08 1112.33,-73.31 1114.15,-80.07"/>
</a>
</g>
</g>
<!-- Node21&#45;&gt;Node7 -->
<g id="edge23_Node000021_Node000007" class="edge">
<title>Node21&#45;&gt;Node7</title>
<g id="a_edge23_Node000021_Node000007"><a xlink:title=" ">
<path fill="none" stroke="#63b8ff" d="M471.84,-54.98C440.98,-45.53 391.26,-30.3 358.76,-20.34"/>
<polygon fill="#63b8ff" stroke="#63b8ff" points="359.45,-16.89 348.86,-17.31 357.4,-23.59 359.45,-16.89"/>
</a>
</g>
</g>
<!-- Node21&#45;&gt;Node8 -->
<g id="edge24_Node000021_Node000008" class="edge">
<title>Node21&#45;&gt;Node8</title>
<g id="a_edge24_Node000021_Node000008"><a xlink:title=" ">
<path fill="none" stroke="#63b8ff" d="M543.36,-57.72C596,-50.48 687.26,-37.04 775.04,-18.95"/>
<polygon fill="#63b8ff" stroke="#63b8ff" points="775.83,-22.36 784.9,-16.89 774.4,-15.51 775.83,-22.36"/>
</a>
</g>
</g>
<!-- Node21&#45;&gt;Node9 -->
<g id="edge25_Node000021_Node000009" class="edge">
<title>Node21&#45;&gt;Node9</title>
<g id="a_edge25_Node000021_Node000009"><a xlink:title=" ">
<path fill="none" stroke="#63b8ff" d="M511.2,-54.98C522.05,-47 538.51,-34.88 551.52,-25.31"/>
<polygon fill="#63b8ff" stroke="#63b8ff" points="553.88,-27.92 559.85,-19.17 549.73,-22.28 553.88,-27.92"/>
</a>
</g>
</g>
<!-- Node21&#45;&gt;Node22 -->
<g id="edge22_Node000021_Node000022" class="edge">
<title>Node21&#45;&gt;Node22</title>
<g id="a_edge22_Node000021_Node000022"><a xlink:title=" ">
<path fill="none" stroke="#63b8ff" d="M455.94,-56.46C391.83,-46.13 273.16,-27.02 211,-17"/>
<polygon fill="#63b8ff" stroke="#63b8ff" points="211.23,-13.49 200.8,-15.36 210.11,-20.41 211.23,-13.49"/>
</a>
</g>
</g>
<!-- Node23&#45;&gt;Node7 -->
<g id="edge27_Node000023_Node000007" class="edge">
<title>Node23&#45;&gt;Node7</title>
<g id="a_edge27_Node000023_Node000007"><a xlink:title=" ">
<path fill="none" stroke="#63b8ff" d="M722.09,-56.38C718.89,-55.89 715.71,-55.43 712.63,-55 581.94,-36.8 425.6,-20.43 359.12,-13.72"/>
<polygon fill="#63b8ff" stroke="#63b8ff" points="359.17,-10.21 348.87,-12.69 358.47,-17.17 359.17,-10.21"/>
</a>
</g>
</g>
<!-- Node23&#45;&gt;Node8 -->
<g id="edge28_Node000023_Node000008" class="edge">
<title>Node23&#45;&gt;Node8</title>
<g id="a_edge28_Node000023_Node000008"><a xlink:title=" ">
<path fill="none" stroke="#63b8ff" d="M771.9,-54.75C778.18,-47.18 787.42,-36.05 795.06,-26.84"/>
<polygon fill="#63b8ff" stroke="#63b8ff" points="797.81,-29.02 801.5,-19.09 792.42,-24.55 797.81,-29.02"/>
</a>
</g>
</g>
<!-- Node23&#45;&gt;Node9 -->
<g id="edge29_Node000023_Node000009" class="edge">
<title>Node23&#45;&gt;Node9</title>
<g id="a_edge29_Node000023_Node000009"><a xlink:title=" ">
<path fill="none" stroke="#63b8ff" d="M733.62,-54.98C696.96,-44.92 636.43,-28.29 600.66,-18.47"/>
<polygon fill="#63b8ff" stroke="#63b8ff" points="601.4,-15.05 590.84,-15.77 599.55,-21.8 601.4,-15.05"/>
</a>
</g>
</g>
<!-- Node24 -->
<g id="Node000024" class="node">
<title>Node24</title>
<g id="a_Node000024"><a xlink:href="enums_8h.html" target="_top" xlink:title=" ">
<polygon fill="white" stroke="#666666" points="767.13,-19 672.13,-19 672.13,0 767.13,0 767.13,-19"/>
<text text-anchor="middle" x="719.63" y="-7" font-family="Helvetica,sans-Serif" font-size="10.00">structs/enums.h</text>
</a>
</g>
</g>
<!-- Node23&#45;&gt;Node24 -->
<g id="edge30_Node000023_Node000024" class="edge">
<title>Node23&#45;&gt;Node24</title>
<g id="a_edge30_Node000023_Node000024"><a xlink:title=" ">
<path fill="none" stroke="#63b8ff" d="M757.2,-54.75C750.78,-47.18 741.33,-36.05 733.51,-26.84"/>
<polygon fill="#63b8ff" stroke="#63b8ff" points="736.07,-24.45 726.92,-19.09 730.73,-28.98 736.07,-24.45"/>
</a>
</g>
</g>
<!-- Node26&#45;&gt;Node7 -->
<g id="edge42_Node000026_Node000007" class="edge">
<title>Node26&#45;&gt;Node7</title>
<g id="a_edge42_Node000026_Node000007"><a xlink:title=" ">
<path fill="none" stroke="#63b8ff" d="M270.4,-54.98C280.4,-47.07 295.52,-35.11 307.56,-25.58"/>
<polygon fill="#63b8ff" stroke="#63b8ff" points="310,-28.12 315.67,-19.17 305.66,-22.63 310,-28.12"/>
</a>
</g>
</g>
<!-- Node26&#45;&gt;Node8 -->
<g id="edge43_Node000026_Node000008" class="edge">
<title>Node26&#45;&gt;Node8</title>
<g id="a_edge43_Node000026_Node000008"><a xlink:title=" ">
<path fill="none" stroke="#63b8ff" d="M298.43,-62.35C383.19,-59.38 591.33,-49.51 774.84,-18.82"/>
<polygon fill="#63b8ff" stroke="#63b8ff" points="775.67,-22.23 784.94,-17.1 774.5,-15.33 775.67,-22.23"/>
</a>
</g>
</g>
<!-- Node26&#45;&gt;Node9 -->
<g id="edge45_Node000026_Node000009" class="edge">
<title>Node26&#45;&gt;Node9</title>
<g id="a_edge45_Node000026_Node000009"><a xlink:title=" ">
<path fill="none" stroke="#63b8ff" d="M298.2,-56.95C361.46,-46.2 485.86,-25.07 542.42,-15.46"/>
<polygon fill="#63b8ff" stroke="#63b8ff" points="543.2,-18.88 552.47,-13.76 542.02,-11.98 543.2,-18.88"/>
</a>
</g>
</g>
<!-- Node26&#45;&gt;Node22 -->
<g id="edge41_Node000026_Node000022" class="edge">
<title>Node26&#45;&gt;Node22</title>
<g id="a_edge41_Node000026_Node000022"><a xlink:title=" ">
<path fill="none" stroke="#63b8ff" d="M245.33,-54.98C231.53,-46.77 210.39,-34.18 194.12,-24.49"/>
<polygon fill="#63b8ff" stroke="#63b8ff" points="195.57,-21.28 185.19,-19.17 191.99,-27.29 195.57,-21.28"/>
</a>
</g>
</g>
<!-- Node27 -->
<g id="Node000027" class="node">
<title>Node27</title>
<g id="a_Node000027"><a xlink:title=" ">
<polygon fill="#e0e0e0" stroke="#999999" points="284.63,-19 234.63,-19 234.63,0 284.63,0 284.63,-19"/>
<text text-anchor="middle" x="259.63" y="-7" font-family="Helvetica,sans-Serif" font-size="10.00">cstdint</text>
</a>
</g>
</g>
<!-- Node26&#45;&gt;Node27 -->
<g id="edge44_Node000026_Node000027" class="edge">
<title>Node26&#45;&gt;Node27</title>
<g id="a_edge44_Node000026_Node000027"><a xlink:title=" ">
<path fill="none" stroke="#63b8ff" d="M259.63,-54.75C259.63,-47.8 259.63,-37.85 259.63,-29.13"/>
<polygon fill="#63b8ff" stroke="#63b8ff" points="263.13,-29.09 259.63,-19.09 256.13,-29.09 263.13,-29.09"/>
</a>
</g>
</g>
<!-- Node31&#45;&gt;Node8 -->
<g id="edge53_Node000031_Node000008" class="edge">
<title>Node31&#45;&gt;Node8</title>
<g id="a_edge53_Node000031_Node000008"><a xlink:title=" ">
<path fill="none" stroke="#63b8ff" d="M1214.22,-109.63C1216.14,-95.79 1217.47,-69.2 1202.63,-55 1176.77,-30.25 932.8,-16.34 842.25,-12"/>
<polygon fill="#63b8ff" stroke="#63b8ff" points="842.39,-8.5 832.24,-11.52 842.06,-15.49 842.39,-8.5"/>
</a>
</g>
</g>
<!-- Node31&#45;&gt;Node25 -->
<g id="edge52_Node000031_Node000025" class="edge">
<title>Node31&#45;&gt;Node25</title>
<g id="a_edge52_Node000031_Node000025"><a xlink:title=" ">
<path fill="none" stroke="#63b8ff" d="M1203.31,-109.98C1194.82,-102.23 1182.07,-90.58 1171.75,-81.14"/>
<polygon fill="#63b8ff" stroke="#63b8ff" points="1173.86,-78.33 1164.12,-74.17 1169.14,-83.5 1173.86,-78.33"/>
</a>
</g>
</g>
<!-- Node32&#45;&gt;Node25 -->
<g id="edge55_Node000032_Node000025" class="edge">
<title>Node32&#45;&gt;Node25</title>
<g id="a_edge55_Node000032_Node000025"><a xlink:title=" ">
<path fill="none" stroke="#63b8ff" d="M1122.89,-285.8C1127.71,-252.29 1145.18,-131.08 1151.94,-84.2"/>
<polygon fill="#63b8ff" stroke="#63b8ff" points="1155.42,-84.6 1153.38,-74.21 1148.49,-83.6 1155.42,-84.6"/>
</a>
</g>
</g>
</g>
</svg>
