<?xml version="1.0" encoding="UTF-8" standalone="no"?>
<!DOCTYPE svg PUBLIC "-//W3C//DTD SVG 1.1//EN"
 "http://www.w3.org/Graphics/SVG/1.1/DTD/svg11.dtd">
<!-- Generated by graphviz version 2.43.0 (0)
 -->
<!-- Title: interface.cxx Pages: 1 -->
<svg width="1316pt" height="368pt"
 viewBox="0.00 0.00 1315.69 368.00" xmlns="http://www.w3.org/2000/svg" xmlns:xlink="http://www.w3.org/1999/xlink">
<g id="graph0" class="graph" transform="scale(1 1) rotate(0) translate(4 364)">
<title>interface.cxx</title>
<!-- Node1 -->
<g id="Node000001" class="node">
<title>Node1</title>
<g id="a_Node000001"><a xlink:title=" ">
<polygon fill="#999999" stroke="#666666" points="1115.19,-360 1035.19,-360 1035.19,-341 1115.19,-341 1115.19,-360"/>
<text text-anchor="middle" x="1075.19" y="-348" font-family="Helvetica,sans-Serif" font-size="10.00">interface.cxx</text>
</a>
</g>
</g>
<!-- Node2 -->
<g id="Node000002" class="node">
<title>Node2</title>
<g id="a_Node000002"><a xlink:href="pyc_8h.html" target="_top" xlink:title=" ">
<polygon fill="white" stroke="#666666" points="997.69,-305 934.69,-305 934.69,-286 997.69,-286 997.69,-305"/>
<text text-anchor="middle" x="966.19" y="-293" font-family="Helvetica,sans-Serif" font-size="10.00">pyc/pyc.h</text>
</a>
</g>
</g>
<!-- Node1&#45;&gt;Node2 -->
<g id="edge1_Node000001_Node000002" class="edge">
<title>Node1&#45;&gt;Node2</title>
<g id="a_edge1_Node000001_Node000002"><a xlink:title=" ">
<path fill="none" stroke="#63b8ff" d="M1057.68,-340.98C1040.23,-332.5 1013.19,-319.35 993.02,-309.54"/>
<polygon fill="#63b8ff" stroke="#63b8ff" points="994.55,-306.4 984.03,-305.17 991.49,-312.69 994.55,-306.4"/>
</a>
</g>
</g>
<!-- Node19 -->
<g id="Node000019" class="node">
<title>Node19</title>
<g id="a_Node000019"><a xlink:href="vector__cast_8h.html" target="_top" xlink:title=" ">
<polygon fill="white" stroke="#666666" points="1089.69,-129 980.69,-129 980.69,-110 1089.69,-110 1089.69,-129"/>
<text text-anchor="middle" x="1035.19" y="-117" font-family="Helvetica,sans-Serif" font-size="10.00">tools/vector_cast.h</text>
</a>
</g>
</g>
<!-- Node1&#45;&gt;Node19 -->
<g id="edge54_Node000001_Node000019" class="edge">
<title>Node1&#45;&gt;Node19</title>
<g id="a_edge54_Node000001_Node000019"><a xlink:title=" ">
<path fill="none" stroke="#63b8ff" d="M1073.68,-340.8C1067.82,-307.29 1046.65,-186.08 1038.46,-139.2"/>
<polygon fill="#63b8ff" stroke="#63b8ff" points="1041.88,-138.45 1036.72,-129.21 1034.99,-139.66 1041.88,-138.45"/>
</a>
</g>
</g>
<!-- Node31 -->
<g id="Node000031" class="node">
<title>Node31</title>
<g id="a_Node000031"><a xlink:href="tensor__cast_8h.html" target="_top" xlink:title=" ">
<polygon fill="white" stroke="#666666" points="1218.69,-129 1109.69,-129 1109.69,-110 1218.69,-110 1218.69,-129"/>
<text text-anchor="middle" x="1164.19" y="-117" font-family="Helvetica,sans-Serif" font-size="10.00">tools/tensor_cast.h</text>
</a>
</g>
</g>
<!-- Node1&#45;&gt;Node31 -->
<g id="edge51_Node000001_Node000031" class="edge">
<title>Node1&#45;&gt;Node31</title>
<g id="a_edge51_Node000001_Node000031"><a xlink:title=" ">
<path fill="none" stroke="#63b8ff" d="M1078.58,-340.8C1091.65,-307.15 1139.11,-185.05 1157.16,-138.61"/>
<polygon fill="#63b8ff" stroke="#63b8ff" points="1160.45,-139.79 1160.81,-129.21 1153.93,-137.26 1160.45,-139.79"/>
</a>
</g>
</g>
<!-- Node32 -->
<g id="Node000032" class="node">
<title>Node32</title>
<g id="a_Node000032"><a xlink:href="utils_8h.html" target="_top" xlink:title="Header file for utility functions.">
<polygon fill="white" stroke="#666666" points="1307.69,-129 1236.69,-129 1236.69,-110 1307.69,-110 1307.69,-129"/>
<text text-anchor="middle" x="1272.19" y="-117" font-family="Helvetica,sans-Serif" font-size="10.00">utils/utils.h</text>
</a>
</g>
</g>
<!-- Node1&#45;&gt;Node32 -->
<g id="edge55_Node000001_Node000032" class="edge">
<title>Node1&#45;&gt;Node32</title>
<g id="a_edge55_Node000001_Node000032"><a xlink:title=" ">
<path fill="none" stroke="#63b8ff" d="M1082.68,-340.8C1111.99,-306.72 1219.33,-181.96 1258.1,-136.88"/>
<polygon fill="#63b8ff" stroke="#63b8ff" points="1260.84,-139.07 1264.71,-129.21 1255.53,-134.5 1260.84,-139.07"/>
</a>
</g>
</g>
<!-- Node3 -->
<g id="Node000003" class="node">
<title>Node3</title>
<g id="a_Node000003"><a xlink:title=" ">
<polygon fill="#e0e0e0" stroke="#999999" points="1007.69,-244.5 966.69,-244.5 966.69,-225.5 1007.69,-225.5 1007.69,-244.5"/>
<text text-anchor="middle" x="987.19" y="-232.5" font-family="Helvetica,sans-Serif" font-size="10.00">tuple</text>
</a>
</g>
</g>
<!-- Node2&#45;&gt;Node3 -->
<g id="edge2_Node000002_Node000003" class="edge">
<title>Node2&#45;&gt;Node3</title>
<g id="a_edge2_Node000002_Node000003"><a xlink:title=" ">
<path fill="none" stroke="#63b8ff" d="M969.29,-285.87C972.27,-277.57 976.86,-264.78 980.65,-254.22"/>
<polygon fill="#63b8ff" stroke="#63b8ff" points="984,-255.26 984.08,-244.67 977.41,-252.9 984,-255.26"/>
</a>
</g>
</g>
<!-- Node4 -->
<g id="Node000004" class="node">
<title>Node4</title>
<g id="a_Node000004"><a xlink:title=" ">
<polygon fill="#e0e0e0" stroke="#999999" points="948.69,-244.5 883.69,-244.5 883.69,-225.5 948.69,-225.5 948.69,-244.5"/>
<text text-anchor="middle" x="916.19" y="-232.5" font-family="Helvetica,sans-Serif" font-size="10.00">torch/all.h</text>
</a>
</g>
</g>
<!-- Node2&#45;&gt;Node4 -->
<g id="edge3_Node000002_Node000004" class="edge">
<title>Node2&#45;&gt;Node4</title>
<g id="a_edge3_Node000002_Node000004"><a xlink:title=" ">
<path fill="none" stroke="#63b8ff" d="M958.82,-285.87C951.28,-277.05 939.41,-263.16 930.1,-252.27"/>
<polygon fill="#63b8ff" stroke="#63b8ff" points="932.76,-250 923.6,-244.67 927.44,-254.54 932.76,-250"/>
</a>
</g>
</g>
<!-- Node5 -->
<g id="Node000005" class="node">
<title>Node5</title>
<g id="a_Node000005"><a xlink:href="particle__template_8h.html" target="_top" xlink:title="Defines the particle_template base class for physics particle representations.">
<polygon fill="white" stroke="#666666" points="820.19,-250 714.19,-250 714.19,-220 820.19,-220 820.19,-250"/>
<text text-anchor="start" x="722.19" y="-238" font-family="Helvetica,sans-Serif" font-size="10.00">templates/particle</text>
<text text-anchor="middle" x="767.19" y="-227" font-family="Helvetica,sans-Serif" font-size="10.00">_template.h</text>
</a>
</g>
</g>
<!-- Node2&#45;&gt;Node5 -->
<g id="edge4_Node000002_Node000005" class="edge">
<title>Node2&#45;&gt;Node5</title>
<g id="a_edge4_Node000002_Node000005"><a xlink:title=" ">
<path fill="none" stroke="#63b8ff" d="M937.26,-285.99C907.87,-277.35 861.56,-263.74 824.68,-252.9"/>
<polygon fill="#63b8ff" stroke="#63b8ff" points="825.62,-249.53 815.04,-250.06 823.64,-256.24 825.62,-249.53"/>
</a>
</g>
</g>
<!-- Node6 -->
<g id="Node000006" class="node">
<title>Node6</title>
<g id="a_Node000006"><a xlink:href="modules_2structs_2include_2structs_2particles_8h.html" target="_top" xlink:title=" ">
<polygon fill="white" stroke="#666666" points="744.19,-74 640.19,-74 640.19,-55 744.19,-55 744.19,-74"/>
<text text-anchor="middle" x="692.19" y="-62" font-family="Helvetica,sans-Serif" font-size="10.00">structs/particles.h</text>
</a>
</g>
</g>
<!-- Node5&#45;&gt;Node6 -->
<g id="edge5_Node000005_Node000006" class="edge">
<title>Node5&#45;&gt;Node6</title>
<g id="a_edge5_Node000005_Node000006"><a xlink:title=" ">
<path fill="none" stroke="#63b8ff" d="M780.63,-219.91C802.03,-195.71 839.01,-145.46 814.19,-110 805.13,-97.04 769.35,-84.92 738.86,-76.61"/>
<polygon fill="#63b8ff" stroke="#63b8ff" points="739.76,-73.22 729.19,-74.05 737.96,-79.99 739.76,-73.22"/>
</a>
</g>
</g>
<!-- Node7 -->
<g id="Node000007" class="node">
<title>Node7</title>
<g id="a_Node000007"><a xlink:title=" ">
<polygon fill="#e0e0e0" stroke="#999999" points="389.19,-19 345.19,-19 345.19,0 389.19,0 389.19,-19"/>
<text text-anchor="middle" x="367.19" y="-7" font-family="Helvetica,sans-Serif" font-size="10.00">string</text>
</a>
</g>
</g>
<!-- Node5&#45;&gt;Node7 -->
<g id="edge48_Node000005_Node000007" class="edge">
<title>Node5&#45;&gt;Node7</title>
<g id="a_edge48_Node000005_Node000007"><a xlink:title=" ">
<path fill="none" stroke="#63b8ff" d="M713.89,-231.57C614.1,-226.4 403.11,-212.4 336.19,-184 272.77,-157.08 211.08,-111.73 250.19,-55 255.3,-47.6 302.64,-31.19 335.52,-20.5"/>
<polygon fill="#63b8ff" stroke="#63b8ff" points="336.75,-23.78 345.19,-17.38 334.6,-17.12 336.75,-23.78"/>
</a>
</g>
</g>
<!-- Node10 -->
<g id="Node000010" class="node">
<title>Node10</title>
<g id="a_Node000010"><a xlink:href="property_8h.html" target="_top" xlink:title="Defines the cproperty template class for property&#45;based access patterns.">
<polygon fill="white" stroke="#666666" points="126.69,-184 25.69,-184 25.69,-165 126.69,-165 126.69,-184"/>
<text text-anchor="middle" x="76.19" y="-172" font-family="Helvetica,sans-Serif" font-size="10.00">structs/property.h</text>
</a>
</g>
</g>
<!-- Node5&#45;&gt;Node10 -->
<g id="edge9_Node000005_Node000010" class="edge">
<title>Node5&#45;&gt;Node10</title>
<g id="a_edge9_Node000005_Node000010"><a xlink:title=" ">
<path fill="none" stroke="#63b8ff" d="M713.93,-230.65C605.82,-223.66 352.9,-206.28 141.19,-184 139.89,-183.86 138.57,-183.72 137.24,-183.57"/>
<polygon fill="#63b8ff" stroke="#63b8ff" points="137.24,-180.05 126.91,-182.38 136.44,-187.01 137.24,-180.05"/>
</a>
</g>
</g>
<!-- Node12 -->
<g id="Node000012" class="node">
<title>Node12</title>
<g id="a_Node000012"><a xlink:href="element_8h.html" target="_top" xlink:title=" ">
<polygon fill="white" stroke="#666666" points="768.19,-184 666.19,-184 666.19,-165 768.19,-165 768.19,-184"/>
<text text-anchor="middle" x="717.19" y="-172" font-family="Helvetica,sans-Serif" font-size="10.00">structs/element.h</text>
</a>
</g>
</g>
<!-- Node5&#45;&gt;Node12 -->
<g id="edge12_Node000005_Node000012" class="edge">
<title>Node5&#45;&gt;Node12</title>
<g id="a_edge12_Node000005_Node000012"><a xlink:title=" ">
<path fill="none" stroke="#63b8ff" d="M755.09,-219.84C747.91,-211.43 738.77,-200.74 731.26,-191.96"/>
<polygon fill="#63b8ff" stroke="#63b8ff" points="733.84,-189.59 724.69,-184.27 728.52,-194.14 733.84,-189.59"/>
</a>
</g>
</g>
<!-- Node22 -->
<g id="Node000022" class="node">
<title>Node22</title>
<g id="a_Node000022"><a xlink:title=" ">
<polygon fill="#e0e0e0" stroke="#999999" points="259.19,-19 199.19,-19 199.19,0 259.19,0 259.19,-19"/>
<text text-anchor="middle" x="229.19" y="-7" font-family="Helvetica,sans-Serif" font-size="10.00">iostream</text>
</a>
</g>
</g>
<!-- Node5&#45;&gt;Node22 -->
<g id="edge46_Node000005_Node000022" class="edge">
<title>Node5&#45;&gt;Node22</title>
<g id="a_edge46_Node000005_Node000022"><a xlink:title=" ">
<path fill="none" stroke="#63b8ff" d="M713.99,-234.47C550.66,-235.38 64.56,-233.85 16.19,-184 -6.72,-160.39 -3.15,-137.96 14.19,-110 51.93,-49.19 137.7,-25.07 188.77,-15.87"/>
<polygon fill="#63b8ff" stroke="#63b8ff" points="189.53,-19.29 198.81,-14.17 188.36,-12.39 189.53,-19.29"/>
</a>
</g>
</g>
<!-- Node26 -->
<g id="Node000026" class="node">
<title>Node26</title>
<g id="a_Node000026"><a xlink:href="tools_8h.html" target="_top" xlink:title="Defines the tools class that provides general utility functions for the AnalysisG framework.">
<polygon fill="white" stroke="#666666" points="336.69,-74 259.69,-74 259.69,-55 336.69,-55 336.69,-74"/>
<text text-anchor="middle" x="298.19" y="-62" font-family="Helvetica,sans-Serif" font-size="10.00">tools/tools.h</text>
</a>
</g>
</g>
<!-- Node5&#45;&gt;Node26 -->
<g id="edge40_Node000005_Node000026" class="edge">
<title>Node5&#45;&gt;Node26</title>
<g id="a_edge40_Node000005_Node000026"><a xlink:title=" ">
<path fill="none" stroke="#63b8ff" d="M714.1,-230.78C598.86,-222.56 331.75,-196.49 277.19,-129 266.3,-115.52 275.25,-96.16 284.61,-82.37"/>
<polygon fill="#63b8ff" stroke="#63b8ff" points="287.5,-84.36 290.61,-74.23 281.86,-80.2 287.5,-84.36"/>
</a>
</g>
</g>
<!-- Node28 -->
<g id="Node000028" class="node">
<title>Node28</title>
<g id="a_Node000028"><a xlink:title=" ">
<polygon fill="#e0e0e0" stroke="#999999" points="890.19,-184 834.19,-184 834.19,-165 890.19,-165 890.19,-184"/>
<text text-anchor="middle" x="862.19" y="-172" font-family="Helvetica,sans-Serif" font-size="10.00">sstream</text>
</a>
</g>
</g>
<!-- Node5&#45;&gt;Node28 -->
<g id="edge47_Node000005_Node000028" class="edge">
<title>Node5&#45;&gt;Node28</title>
<g id="a_edge47_Node000005_Node000028"><a xlink:title=" ">
<path fill="none" stroke="#63b8ff" d="M790.19,-219.84C805.2,-210.6 824.7,-198.59 839.62,-189.4"/>
<polygon fill="#63b8ff" stroke="#63b8ff" points="841.56,-192.32 848.24,-184.09 837.89,-186.36 841.56,-192.32"/>
</a>
</g>
</g>
<!-- Node29 -->
<g id="Node000029" class="node">
<title>Node29</title>
<g id="a_Node000029"><a xlink:title=" ">
<polygon fill="#e0e0e0" stroke="#999999" points="957.69,-184 908.69,-184 908.69,-165 957.69,-165 957.69,-184"/>
<text text-anchor="middle" x="933.19" y="-172" font-family="Helvetica,sans-Serif" font-size="10.00">cstdlib</text>
</a>
</g>
</g>
<!-- Node5&#45;&gt;Node29 -->
<g id="edge49_Node000005_Node000029" class="edge">
<title>Node5&#45;&gt;Node29</title>
<g id="a_edge49_Node000005_Node000029"><a xlink:title=" ">
<path fill="none" stroke="#63b8ff" d="M806.96,-219.99C835.02,-210.1 872.24,-196.98 898.98,-187.56"/>
<polygon fill="#63b8ff" stroke="#63b8ff" points="900.41,-190.76 908.68,-184.14 898.09,-184.16 900.41,-190.76"/>
</a>
</g>
</g>
<!-- Node30 -->
<g id="Node000030" class="node">
<title>Node30</title>
<g id="a_Node000030"><a xlink:title=" ">
<polygon fill="#e0e0e0" stroke="#999999" points="1022.69,-184 975.69,-184 975.69,-165 1022.69,-165 1022.69,-184"/>
<text text-anchor="middle" x="999.19" y="-172" font-family="Helvetica,sans-Serif" font-size="10.00">cmath</text>
</a>
</g>
</g>
<!-- Node5&#45;&gt;Node30 -->
<g id="edge50_Node000005_Node000030" class="edge">
<title>Node5&#45;&gt;Node30</title>
<g id="a_edge50_Node000005_Node000030"><a xlink:title=" ">
<path fill="none" stroke="#63b8ff" d="M820.43,-220.72C858.25,-211.26 910.5,-198.15 965.48,-184.17"/>
<polygon fill="#63b8ff" stroke="#63b8ff" points="966.58,-187.5 975.41,-181.65 964.85,-180.72 966.58,-187.5"/>
</a>
</g>
</g>
<!-- Node6&#45;&gt;Node7 -->
<g id="edge6_Node000006_Node000007" class="edge">
<title>Node6&#45;&gt;Node7</title>
<g id="a_edge6_Node000006_Node000007"><a xlink:title=" ">
<path fill="none" stroke="#63b8ff" d="M639.98,-54.98C572.21,-43.93 456,-24.98 399.68,-15.8"/>
<polygon fill="#63b8ff" stroke="#63b8ff" points="400,-12.3 389.57,-14.15 398.88,-19.21 400,-12.3"/>
</a>
</g>
</g>
<!-- Node8 -->
<g id="Node000008" class="node">
<title>Node8</title>
<g id="a_Node000008"><a xlink:title=" ">
<polygon fill="#e0e0e0" stroke="#999999" points="899.69,-19 852.69,-19 852.69,0 899.69,0 899.69,-19"/>
<text text-anchor="middle" x="876.19" y="-7" font-family="Helvetica,sans-Serif" font-size="10.00">vector</text>
</a>
</g>
</g>
<!-- Node6&#45;&gt;Node8 -->
<g id="edge7_Node000006_Node000008" class="edge">
<title>Node6&#45;&gt;Node8</title>
<g id="a_edge7_Node000006_Node000008"><a xlink:title=" ">
<path fill="none" stroke="#63b8ff" d="M721.76,-54.98C754.86,-45.45 808.38,-30.03 842.92,-20.09"/>
<polygon fill="#63b8ff" stroke="#63b8ff" points="843.91,-23.44 852.55,-17.31 841.98,-16.71 843.91,-23.44"/>
</a>
</g>
</g>
<!-- Node9 -->
<g id="Node000009" class="node">
<title>Node9</title>
<g id="a_Node000009"><a xlink:title=" ">
<polygon fill="#e0e0e0" stroke="#999999" points="631.19,-19 593.19,-19 593.19,0 631.19,0 631.19,-19"/>
<text text-anchor="middle" x="612.19" y="-7" font-family="Helvetica,sans-Serif" font-size="10.00">map</text>
</a>
</g>
</g>
<!-- Node6&#45;&gt;Node9 -->
<g id="edge8_Node000006_Node000009" class="edge">
<title>Node6&#45;&gt;Node9</title>
<g id="a_edge8_Node000006_Node000009"><a xlink:title=" ">
<path fill="none" stroke="#63b8ff" d="M679.34,-54.98C667.05,-46.84 648.29,-34.41 633.72,-24.76"/>
<polygon fill="#63b8ff" stroke="#63b8ff" points="635.55,-21.78 625.28,-19.17 631.69,-27.61 635.55,-21.78"/>
</a>
</g>
</g>
<!-- Node10&#45;&gt;Node7 -->
<g id="edge11_Node000010_Node000007" class="edge">
<title>Node10&#45;&gt;Node7</title>
<g id="a_edge11_Node000010_Node000007"><a xlink:title=" ">
<path fill="none" stroke="#63b8ff" d="M80.4,-164.85C93.15,-138.77 131.12,-62.28 141.19,-55 210.04,-5.24 247.52,-36.23 334.86,-19"/>
<polygon fill="#63b8ff" stroke="#63b8ff" points="335.85,-22.37 344.9,-16.86 334.39,-15.53 335.85,-22.37"/>
</a>
</g>
</g>
<!-- Node11 -->
<g id="Node000011" class="node">
<title>Node11</title>
<g id="a_Node000011"><a xlink:title=" ">
<polygon fill="#e0e0e0" stroke="#999999" points="88.69,-129 23.69,-129 23.69,-110 88.69,-110 88.69,-129"/>
<text text-anchor="middle" x="56.19" y="-117" font-family="Helvetica,sans-Serif" font-size="10.00">functional</text>
</a>
</g>
</g>
<!-- Node10&#45;&gt;Node11 -->
<g id="edge10_Node000010_Node000011" class="edge">
<title>Node10&#45;&gt;Node11</title>
<g id="a_edge10_Node000010_Node000011"><a xlink:title=" ">
<path fill="none" stroke="#63b8ff" d="M72.89,-164.75C70.21,-157.65 66.35,-147.4 63.01,-138.56"/>
<polygon fill="#63b8ff" stroke="#63b8ff" points="66.24,-137.21 59.44,-129.09 59.69,-139.68 66.24,-137.21"/>
</a>
</g>
</g>
<!-- Node12&#45;&gt;Node7 -->
<g id="edge37_Node000012_Node000007" class="edge">
<title>Node12&#45;&gt;Node7</title>
<g id="a_edge37_Node000012_Node000007"><a xlink:title=" ">
<path fill="none" stroke="#63b8ff" d="M666.16,-171.96C557.92,-168.18 313.11,-156.63 288.19,-129 258.64,-96.22 323.47,-101.39 345.19,-74 355.5,-61 361.15,-42.85 364.13,-29.29"/>
<polygon fill="#63b8ff" stroke="#63b8ff" points="367.62,-29.66 366.05,-19.18 360.74,-28.35 367.62,-29.66"/>
</a>
</g>
</g>
<!-- Node12&#45;&gt;Node8 -->
<g id="edge38_Node000012_Node000008" class="edge">
<title>Node12&#45;&gt;Node8</title>
<g id="a_edge38_Node000012_Node000008"><a xlink:title=" ">
<path fill="none" stroke="#63b8ff" d="M760.49,-164.97C783.84,-158.47 811.76,-147.41 831.19,-129 859.73,-101.98 870.35,-55 874.17,-29.05"/>
<polygon fill="#63b8ff" stroke="#63b8ff" points="877.65,-29.41 875.45,-19.04 870.71,-28.52 877.65,-29.41"/>
</a>
</g>
</g>
<!-- Node12&#45;&gt;Node9 -->
<g id="edge39_Node000012_Node000009" class="edge">
<title>Node12&#45;&gt;Node9</title>
<g id="a_edge39_Node000012_Node000009"><a xlink:title=" ">
<path fill="none" stroke="#63b8ff" d="M730.44,-164.87C747.84,-152.46 774.6,-128.98 760.19,-110 724.2,-62.59 673.67,-115.7 631.19,-74 619.27,-62.3 614.76,-43.44 613.09,-29.31"/>
<polygon fill="#63b8ff" stroke="#63b8ff" points="616.57,-28.91 612.27,-19.22 609.59,-29.47 616.57,-28.91"/>
</a>
</g>
</g>
<!-- Node13 -->
<g id="Node000013" class="node">
<title>Node13</title>
<g id="a_Node000013"><a xlink:title=" ">
<polygon fill="#e0e0e0" stroke="#999999" points="346.69,-129 297.69,-129 297.69,-110 346.69,-110 346.69,-129"/>
<text text-anchor="middle" x="322.19" y="-117" font-family="Helvetica,sans-Serif" font-size="10.00">TFile.h</text>
</a>
</g>
</g>
<!-- Node12&#45;&gt;Node13 -->
<g id="edge13_Node000012_Node000013" class="edge">
<title>Node12&#45;&gt;Node13</title>
<g id="a_edge13_Node000012_Node000013"><a xlink:title=" ">
<path fill="none" stroke="#63b8ff" d="M665.91,-169.31C597.47,-163.25 472.34,-150.55 357.04,-129.15"/>
<polygon fill="#63b8ff" stroke="#63b8ff" points="357.46,-125.66 346.98,-127.25 356.16,-132.54 357.46,-125.66"/>
</a>
</g>
</g>
<!-- Node14 -->
<g id="Node000014" class="node">
<title>Node14</title>
<g id="a_Node000014"><a xlink:title=" ">
<polygon fill="#e0e0e0" stroke="#999999" points="956.19,-74 904.19,-74 904.19,-55 956.19,-55 956.19,-74"/>
<text text-anchor="middle" x="930.19" y="-62" font-family="Helvetica,sans-Serif" font-size="10.00">TTree.h</text>
</a>
</g>
</g>
<!-- Node12&#45;&gt;Node14 -->
<g id="edge14_Node000012_Node000014" class="edge">
<title>Node12&#45;&gt;Node14</title>
<g id="a_edge14_Node000012_Node000014"><a xlink:title=" ">
<path fill="none" stroke="#63b8ff" d="M768.39,-170.33C805.28,-165.81 854.62,-154.95 890.19,-129 905.78,-117.63 916.72,-98.17 923.17,-83.78"/>
<polygon fill="#63b8ff" stroke="#63b8ff" points="926.47,-84.97 927.08,-74.39 920.01,-82.28 926.47,-84.97"/>
</a>
</g>
</g>
<!-- Node15 -->
<g id="Node000015" class="node">
<title>Node15</title>
<g id="a_Node000015"><a xlink:title=" ">
<polygon fill="#e0e0e0" stroke="#999999" points="429.69,-129 364.69,-129 364.69,-110 429.69,-110 429.69,-129"/>
<text text-anchor="middle" x="397.19" y="-117" font-family="Helvetica,sans-Serif" font-size="10.00">TBranch.h</text>
</a>
</g>
</g>
<!-- Node12&#45;&gt;Node15 -->
<g id="edge15_Node000012_Node000015" class="edge">
<title>Node12&#45;&gt;Node15</title>
<g id="a_edge15_Node000012_Node000015"><a xlink:title=" ">
<path fill="none" stroke="#63b8ff" d="M666.11,-165.96C612.33,-157.89 524.97,-144.36 439.59,-129"/>
<polygon fill="#63b8ff" stroke="#63b8ff" points="440.19,-125.56 429.73,-127.22 438.95,-132.44 440.19,-125.56"/>
</a>
</g>
</g>
<!-- Node16 -->
<g id="Node000016" class="node">
<title>Node16</title>
<g id="a_Node000016"><a xlink:title=" ">
<polygon fill="#e0e0e0" stroke="#999999" points="500.19,-129 448.19,-129 448.19,-110 500.19,-110 500.19,-129"/>
<text text-anchor="middle" x="474.19" y="-117" font-family="Helvetica,sans-Serif" font-size="10.00">TLeaf.h</text>
</a>
</g>
</g>
<!-- Node12&#45;&gt;Node16 -->
<g id="edge16_Node000012_Node000016" class="edge">
<title>Node12&#45;&gt;Node16</title>
<g id="a_edge16_Node000012_Node000016"><a xlink:title=" ">
<path fill="none" stroke="#63b8ff" d="M675.68,-164.97C635.78,-156.69 573.52,-143.57 510.64,-129.28"/>
<polygon fill="#63b8ff" stroke="#63b8ff" points="511.08,-125.79 500.55,-126.98 509.52,-132.62 511.08,-125.79"/>
</a>
</g>
</g>
<!-- Node17 -->
<g id="Node000017" class="node">
<title>Node17</title>
<g id="a_Node000017"><a xlink:title=" ">
<polygon fill="#e0e0e0" stroke="#999999" points="629.69,-129 518.69,-129 518.69,-110 629.69,-110 629.69,-129"/>
<text text-anchor="middle" x="574.19" y="-117" font-family="Helvetica,sans-Serif" font-size="10.00">TTreeReaderArray.h</text>
</a>
</g>
</g>
<!-- Node12&#45;&gt;Node17 -->
<g id="edge17_Node000012_Node000017" class="edge">
<title>Node12&#45;&gt;Node17</title>
<g id="a_edge17_Node000012_Node000017"><a xlink:title=" ">
<path fill="none" stroke="#63b8ff" d="M694.22,-164.98C670.7,-156.27 633.91,-142.63 607.26,-132.75"/>
<polygon fill="#63b8ff" stroke="#63b8ff" points="608.18,-129.36 597.59,-129.17 605.75,-135.93 608.18,-129.36"/>
</a>
</g>
</g>
<!-- Node18 -->
<g id="Node000018" class="node">
<title>Node18</title>
<g id="a_Node000018"><a xlink:title=" ">
<polygon fill="#e0e0e0" stroke="#999999" points="734.19,-129 648.19,-129 648.19,-110 734.19,-110 734.19,-129"/>
<text text-anchor="middle" x="691.19" y="-117" font-family="Helvetica,sans-Serif" font-size="10.00">TTreeReader.h</text>
</a>
</g>
</g>
<!-- Node12&#45;&gt;Node18 -->
<g id="edge18_Node000012_Node000018" class="edge">
<title>Node12&#45;&gt;Node18</title>
<g id="a_edge18_Node000012_Node000018"><a xlink:title=" ">
<path fill="none" stroke="#63b8ff" d="M712.9,-164.75C709.38,-157.57 704.28,-147.18 699.91,-138.27"/>
<polygon fill="#63b8ff" stroke="#63b8ff" points="702.95,-136.53 695.41,-129.09 696.67,-139.61 702.95,-136.53"/>
</a>
</g>
</g>
<!-- Node12&#45;&gt;Node19 -->
<g id="edge19_Node000012_Node000019" class="edge">
<title>Node12&#45;&gt;Node19</title>
<g id="a_edge19_Node000012_Node000019"><a xlink:title=" ">
<path fill="none" stroke="#63b8ff" d="M768.29,-164.98C824.3,-155.65 914.15,-140.67 973.91,-130.71"/>
<polygon fill="#63b8ff" stroke="#63b8ff" points="974.68,-134.13 983.97,-129.04 973.53,-127.23 974.68,-134.13"/>
</a>
</g>
</g>
<!-- Node21 -->
<g id="Node000021" class="node">
<title>Node21</title>
<g id="a_Node000021"><a xlink:href="structs_2include_2structs_2meta_8h.html" target="_top" xlink:title="Defines metadata structures for physics analysis datasets.">
<polygon fill="white" stroke="#666666" points="583.69,-74 496.69,-74 496.69,-55 583.69,-55 583.69,-74"/>
<text text-anchor="middle" x="540.19" y="-62" font-family="Helvetica,sans-Serif" font-size="10.00">structs/meta.h</text>
</a>
</g>
</g>
<!-- Node12&#45;&gt;Node21 -->
<g id="edge35_Node000012_Node000021" class="edge">
<title>Node12&#45;&gt;Node21</title>
<g id="a_edge35_Node000012_Node000021"><a xlink:title=" ">
<path fill="none" stroke="#63b8ff" d="M725.86,-164.88C737.91,-151.86 756.79,-126.89 743.19,-110 733.78,-98.3 650.74,-82.99 593.83,-73.72"/>
<polygon fill="#63b8ff" stroke="#63b8ff" points="594.31,-70.26 583.88,-72.12 593.2,-77.17 594.31,-70.26"/>
</a>
</g>
</g>
<!-- Node12&#45;&gt;Node22 -->
<g id="edge36_Node000012_Node000022" class="edge">
<title>Node12&#45;&gt;Node22</title>
<g id="a_edge36_Node000012_Node000022"><a xlink:title=" ">
<path fill="none" stroke="#63b8ff" d="M665.8,-174.39C563.5,-175.21 338.89,-171.9 277.19,-129 244.35,-106.16 233.96,-56.73 230.69,-29.49"/>
<polygon fill="#63b8ff" stroke="#63b8ff" points="234.15,-28.91 229.68,-19.31 227.18,-29.6 234.15,-28.91"/>
</a>
</g>
</g>
<!-- Node23 -->
<g id="Node000023" class="node">
<title>Node23</title>
<g id="a_Node000023"><a xlink:href="modules_2structs_2include_2structs_2base_8h.html" target="_top" xlink:title="Defines fundamental data structures and type handling for the AnalysisG framework.">
<polygon fill="white" stroke="#666666" points="847.69,-74 762.69,-74 762.69,-55 847.69,-55 847.69,-74"/>
<text text-anchor="middle" x="805.19" y="-62" font-family="Helvetica,sans-Serif" font-size="10.00">structs/base.h</text>
</a>
</g>
</g>
<!-- Node12&#45;&gt;Node23 -->
<g id="edge34_Node000012_Node000023" class="edge">
<title>Node12&#45;&gt;Node23</title>
<g id="a_edge34_Node000012_Node000023"><a xlink:title=" ">
<path fill="none" stroke="#63b8ff" d="M760.32,-164.93C780.31,-158.57 802.24,-147.64 814.19,-129 822.91,-115.41 818.86,-96.84 813.72,-83.29"/>
<polygon fill="#63b8ff" stroke="#63b8ff" points="816.92,-81.88 809.76,-74.07 810.49,-84.64 816.92,-81.88"/>
</a>
</g>
</g>
<!-- Node19&#45;&gt;Node8 -->
<g id="edge33_Node000019_Node000008" class="edge">
<title>Node19&#45;&gt;Node8</title>
<g id="a_edge33_Node000019_Node000008"><a xlink:title=" ">
<path fill="none" stroke="#63b8ff" d="M1027.21,-109.88C1014.82,-96.85 989.84,-71.87 965.19,-55 946.79,-42.4 924.32,-31.2 906.56,-23.18"/>
<polygon fill="#63b8ff" stroke="#63b8ff" points="907.79,-19.9 897.23,-19.06 904.97,-26.3 907.79,-19.9"/>
</a>
</g>
</g>
<!-- Node19&#45;&gt;Node14 -->
<g id="edge32_Node000019_Node000014" class="edge">
<title>Node19&#45;&gt;Node14</title>
<g id="a_edge32_Node000019_Node000014"><a xlink:title=" ">
<path fill="none" stroke="#63b8ff" d="M1018.32,-109.98C1001.59,-101.54 975.7,-88.47 956.3,-78.68"/>
<polygon fill="#63b8ff" stroke="#63b8ff" points="957.88,-75.55 947.37,-74.17 954.72,-81.8 957.88,-75.55"/>
</a>
</g>
</g>
<!-- Node20 -->
<g id="Node000020" class="node">
<title>Node20</title>
<g id="a_Node000020"><a xlink:title=" ">
<polygon fill="#e0e0e0" stroke="#999999" points="1138.19,-74 1012.19,-74 1012.19,-55 1138.19,-55 1138.19,-74"/>
<text text-anchor="middle" x="1075.19" y="-62" font-family="Helvetica,sans-Serif" font-size="10.00">c10/core/DeviceType.h</text>
</a>
</g>
</g>
<!-- Node19&#45;&gt;Node20 -->
<g id="edge20_Node000019_Node000020" class="edge">
<title>Node19&#45;&gt;Node20</title>
<g id="a_edge20_Node000019_Node000020"><a xlink:title=" ">
<path fill="none" stroke="#63b8ff" d="M1041.8,-109.75C1047.45,-102.26 1055.74,-91.28 1062.65,-82.13"/>
<polygon fill="#63b8ff" stroke="#63b8ff" points="1065.48,-84.18 1068.71,-74.09 1059.89,-79.96 1065.48,-84.18"/>
</a>
</g>
</g>
<!-- Node19&#45;&gt;Node21 -->
<g id="edge21_Node000019_Node000021" class="edge">
<title>Node19&#45;&gt;Node21</title>
<g id="a_edge21_Node000019_Node000021"><a xlink:title=" ">
<path fill="none" stroke="#63b8ff" d="M980.33,-112.63C884.74,-102.39 688.81,-81.41 593.98,-71.26"/>
<polygon fill="#63b8ff" stroke="#63b8ff" points="594.07,-67.75 583.75,-70.16 593.32,-74.71 594.07,-67.75"/>
</a>
</g>
</g>
<!-- Node19&#45;&gt;Node23 -->
<g id="edge26_Node000019_Node000023" class="edge">
<title>Node19&#45;&gt;Node23</title>
<g id="a_edge26_Node000019_Node000023"><a xlink:title=" ">
<path fill="none" stroke="#63b8ff" d="M998.24,-109.98C958.62,-100.86 895.61,-86.33 852.42,-76.38"/>
<polygon fill="#63b8ff" stroke="#63b8ff" points="852.97,-72.92 842.44,-74.08 851.4,-79.74 852.97,-72.92"/>
</a>
</g>
</g>
<!-- Node25 -->
<g id="Node000025" class="node">
<title>Node25</title>
<g id="a_Node000025"><a xlink:title=" ">
<polygon fill="#e0e0e0" stroke="#999999" points="1272.19,-74 1194.19,-74 1194.19,-55 1272.19,-55 1272.19,-74"/>
<text text-anchor="middle" x="1233.19" y="-62" font-family="Helvetica,sans-Serif" font-size="10.00">torch/torch.h</text>
</a>
</g>
</g>
<!-- Node19&#45;&gt;Node25 -->
<g id="edge31_Node000019_Node000025" class="edge">
<title>Node19&#45;&gt;Node25</title>
<g id="a_edge31_Node000019_Node000025"><a xlink:title=" ">
<path fill="none" stroke="#63b8ff" d="M1067.01,-109.98C1100.68,-100.97 1153.99,-86.7 1191.12,-76.76"/>
<polygon fill="#63b8ff" stroke="#63b8ff" points="1192.38,-80.05 1201.13,-74.08 1190.57,-73.29 1192.38,-80.05"/>
</a>
</g>
</g>
<!-- Node21&#45;&gt;Node7 -->
<g id="edge23_Node000021_Node000007" class="edge">
<title>Node21&#45;&gt;Node7</title>
<g id="a_edge23_Node000021_Node000007"><a xlink:title=" ">
<path fill="none" stroke="#63b8ff" d="M512.4,-54.98C481.54,-45.53 431.82,-30.3 399.32,-20.34"/>
<polygon fill="#63b8ff" stroke="#63b8ff" points="400.01,-16.89 389.42,-17.31 397.96,-23.59 400.01,-16.89"/>
</a>
</g>
</g>
<!-- Node21&#45;&gt;Node8 -->
<g id="edge24_Node000021_Node000008" class="edge">
<title>Node21&#45;&gt;Node8</title>
<g id="a_edge24_Node000021_Node000008"><a xlink:title=" ">
<path fill="none" stroke="#63b8ff" d="M583.85,-58.57C640.99,-51.79 744.44,-38.4 842.4,-18.96"/>
<polygon fill="#63b8ff" stroke="#63b8ff" points="843.36,-22.33 852.47,-16.93 841.98,-15.47 843.36,-22.33"/>
</a>
</g>
</g>
<!-- Node21&#45;&gt;Node9 -->
<g id="edge25_Node000021_Node000009" class="edge">
<title>Node21&#45;&gt;Node9</title>
<g id="a_edge25_Node000021_Node000009"><a xlink:title=" ">
<path fill="none" stroke="#63b8ff" d="M551.76,-54.98C562.61,-47 579.08,-34.88 592.08,-25.31"/>
<polygon fill="#63b8ff" stroke="#63b8ff" points="594.44,-27.92 600.42,-19.17 590.29,-22.28 594.44,-27.92"/>
</a>
</g>
</g>
<!-- Node21&#45;&gt;Node22 -->
<g id="edge22_Node000021_Node000022" class="edge">
<title>Node21&#45;&gt;Node22</title>
<g id="a_edge22_Node000021_Node000022"><a xlink:title=" ">
<path fill="none" stroke="#63b8ff" d="M496.26,-57.04C444.38,-49.24 355.26,-35.36 269.32,-19.13"/>
<polygon fill="#63b8ff" stroke="#63b8ff" points="269.87,-15.68 259.4,-17.25 268.57,-22.55 269.87,-15.68"/>
</a>
</g>
</g>
<!-- Node23&#45;&gt;Node7 -->
<g id="edge27_Node000023_Node000007" class="edge">
<title>Node23&#45;&gt;Node7</title>
<g id="a_edge27_Node000023_Node000007"><a xlink:title=" ">
<path fill="none" stroke="#63b8ff" d="M762.65,-56.38C759.45,-55.89 756.28,-55.43 753.19,-55 622.5,-36.8 466.17,-20.43 399.68,-13.72"/>
<polygon fill="#63b8ff" stroke="#63b8ff" points="399.73,-10.21 389.43,-12.69 399.03,-17.17 399.73,-10.21"/>
</a>
</g>
</g>
<!-- Node23&#45;&gt;Node8 -->
<g id="edge28_Node000023_Node000008" class="edge">
<title>Node23&#45;&gt;Node8</title>
<g id="a_edge28_Node000023_Node000008"><a xlink:title=" ">
<path fill="none" stroke="#63b8ff" d="M816.6,-54.98C827.3,-47 843.54,-34.88 856.36,-25.31"/>
<polygon fill="#63b8ff" stroke="#63b8ff" points="858.66,-27.96 864.58,-19.17 854.47,-22.35 858.66,-27.96"/>
</a>
</g>
</g>
<!-- Node23&#45;&gt;Node9 -->
<g id="edge29_Node000023_Node000009" class="edge">
<title>Node23&#45;&gt;Node9</title>
<g id="a_edge29_Node000023_Node000009"><a xlink:title=" ">
<path fill="none" stroke="#63b8ff" d="M774.19,-54.98C737.53,-44.92 676.99,-28.29 641.22,-18.47"/>
<polygon fill="#63b8ff" stroke="#63b8ff" points="641.97,-15.05 631.4,-15.77 640.11,-21.8 641.97,-15.05"/>
</a>
</g>
</g>
<!-- Node24 -->
<g id="Node000024" class="node">
<title>Node24</title>
<g id="a_Node000024"><a xlink:href="enums_8h.html" target="_top" xlink:title=" ">
<polygon fill="white" stroke="#666666" points="834.69,-19 739.69,-19 739.69,0 834.69,0 834.69,-19"/>
<text text-anchor="middle" x="787.19" y="-7" font-family="Helvetica,sans-Serif" font-size="10.00">structs/enums.h</text>
</a>
</g>
</g>
<!-- Node23&#45;&gt;Node24 -->
<g id="edge30_Node000023_Node000024" class="edge">
<title>Node23&#45;&gt;Node24</title>
<g id="a_edge30_Node000023_Node000024"><a xlink:title=" ">
<path fill="none" stroke="#63b8ff" d="M802.22,-54.75C799.84,-47.72 796.41,-37.62 793.43,-28.84"/>
<polygon fill="#63b8ff" stroke="#63b8ff" points="796.64,-27.43 790.11,-19.09 790.01,-29.68 796.64,-27.43"/>
</a>
</g>
</g>
<!-- Node26&#45;&gt;Node7 -->
<g id="edge42_Node000026_Node000007" class="edge">
<title>Node26&#45;&gt;Node7</title>
<g id="a_edge42_Node000026_Node000007"><a xlink:title=" ">
<path fill="none" stroke="#63b8ff" d="M309.28,-54.98C319.68,-47 335.46,-34.88 347.92,-25.31"/>
<polygon fill="#63b8ff" stroke="#63b8ff" points="350.11,-28.04 355.91,-19.17 345.84,-22.49 350.11,-28.04"/>
</a>
</g>
</g>
<!-- Node26&#45;&gt;Node8 -->
<g id="edge43_Node000026_Node000008" class="edge">
<title>Node26&#45;&gt;Node8</title>
<g id="a_edge43_Node000026_Node000008"><a xlink:title=" ">
<path fill="none" stroke="#63b8ff" d="M337.05,-61.19C441.59,-54.85 728.03,-36.56 842.61,-18.73"/>
<polygon fill="#63b8ff" stroke="#63b8ff" points="843.2,-22.18 852.51,-17.12 842.07,-15.27 843.2,-22.18"/>
</a>
</g>
</g>
<!-- Node26&#45;&gt;Node9 -->
<g id="edge45_Node000026_Node000009" class="edge">
<title>Node26&#45;&gt;Node9</title>
<g id="a_edge45_Node000026_Node000009"><a xlink:title=" ">
<path fill="none" stroke="#63b8ff" d="M336.7,-57C400.24,-46.28 525.68,-25.1 582.72,-15.47"/>
<polygon fill="#63b8ff" stroke="#63b8ff" points="583.59,-18.88 592.86,-13.76 582.42,-11.98 583.59,-18.88"/>
</a>
</g>
</g>
<!-- Node26&#45;&gt;Node22 -->
<g id="edge41_Node000026_Node000022" class="edge">
<title>Node26&#45;&gt;Node22</title>
<g id="a_edge41_Node000026_Node000022"><a xlink:title=" ">
<path fill="none" stroke="#63b8ff" d="M287.11,-54.98C276.71,-47 260.93,-34.88 248.47,-25.31"/>
<polygon fill="#63b8ff" stroke="#63b8ff" points="250.55,-22.49 240.48,-19.17 246.28,-28.04 250.55,-22.49"/>
</a>
</g>
</g>
<!-- Node27 -->
<g id="Node000027" class="node">
<title>Node27</title>
<g id="a_Node000027"><a xlink:title=" ">
<polygon fill="#e0e0e0" stroke="#999999" points="327.19,-19 277.19,-19 277.19,0 327.19,0 327.19,-19"/>
<text text-anchor="middle" x="302.19" y="-7" font-family="Helvetica,sans-Serif" font-size="10.00">cstdint</text>
</a>
</g>
</g>
<!-- Node26&#45;&gt;Node27 -->
<g id="edge44_Node000026_Node000027" class="edge">
<title>Node26&#45;&gt;Node27</title>
<g id="a_edge44_Node000026_Node000027"><a xlink:title=" ">
<path fill="none" stroke="#63b8ff" d="M298.86,-54.75C299.38,-47.8 300.13,-37.85 300.79,-29.13"/>
<polygon fill="#63b8ff" stroke="#63b8ff" points="304.28,-29.32 301.55,-19.09 297.3,-28.8 304.28,-29.32"/>
</a>
</g>
</g>
<!-- Node31&#45;&gt;Node8 -->
<g id="edge52_Node000031_Node000008" class="edge">
<title>Node31&#45;&gt;Node8</title>
<g id="a_edge52_Node000031_Node000008"><a xlink:title=" ">
<path fill="none" stroke="#63b8ff" d="M1164.61,-109.6C1164.73,-95.73 1162.76,-69.1 1147.19,-55 1112.88,-23.92 974.69,-14.39 909.96,-11.59"/>
<polygon fill="#63b8ff" stroke="#63b8ff" points="910,-8.09 899.86,-11.19 909.71,-15.09 910,-8.09"/>
</a>
</g>
</g>
<!-- Node31&#45;&gt;Node25 -->
<g id="edge53_Node000031_Node000025" class="edge">
<title>Node31&#45;&gt;Node25</title>
<g id="a_edge53_Node000031_Node000025"><a xlink:title=" ">
<path fill="none" stroke="#63b8ff" d="M1175.28,-109.98C1185.68,-102 1201.46,-89.88 1213.92,-80.31"/>
<polygon fill="#63b8ff" stroke="#63b8ff" points="1216.11,-83.04 1221.91,-74.17 1211.84,-77.49 1216.11,-83.04"/>
</a>
</g>
</g>
<!-- Node32&#45;&gt;Node8 -->
<g id="edge57_Node000032_Node000008" class="edge">
<title>Node32&#45;&gt;Node8</title>
<g id="a_edge57_Node000032_Node000008"><a xlink:title=" ">
<path fill="none" stroke="#63b8ff" d="M1277.17,-109.88C1284.24,-96.39 1294.87,-70.26 1281.19,-55 1256.56,-27.51 1002.84,-15.26 909.99,-11.68"/>
<polygon fill="#63b8ff" stroke="#63b8ff" points="909.87,-8.17 899.75,-11.29 909.61,-15.17 909.87,-8.17"/>
</a>
</g>
</g>
<!-- Node32&#45;&gt;Node25 -->
<g id="edge56_Node000032_Node000025" class="edge">
<title>Node32&#45;&gt;Node25</title>
<g id="a_edge56_Node000032_Node000025"><a xlink:title=" ">
<path fill="none" stroke="#63b8ff" d="M1265.75,-109.75C1260.3,-102.34 1252.33,-91.5 1245.64,-82.41"/>
<polygon fill="#63b8ff" stroke="#63b8ff" points="1248.26,-80.07 1239.52,-74.09 1242.62,-84.22 1248.26,-80.07"/>
</a>
</g>
</g>
</g>
</svg>
