<?xml version="1.0" encoding="UTF-8" standalone="no"?>
<!DOCTYPE svg PUBLIC "-//W3C//DTD SVG 1.1//EN"
 "http://www.w3.org/Graphics/SVG/1.1/DTD/svg11.dtd">
<!-- Generated by graphviz version 2.43.0 (0)
 -->
<!-- Title: root.cxx Pages: 1 -->
<!--zoomable 302 -->

<svg id="main" version="1.1" xmlns="http://www.w3.org/2000/svg" xmlns:xlink="http://www.w3.org/1999/xlink" xml:space="preserve" onload="init(evt)">
<style type="text/css"><![CDATA[
.node, .edge {opacity: 0.7;}
.node.selected, .edge.selected {opacity: 1;}
.edge:hover path { stroke: red; }
.edge:hover polygon { stroke: red; fill: red; }
]]></style>

<defs>
  <circle id="rim" cx="0" cy="0" r="7"/>
  <circle id="rim2" cx="0" cy="0" r="3.5"/>
  <g id="zoomPlus">
    <use xlink:href="#rim" fill="#404040"><set attributeName="fill" to="#808080" begin="zoomplus.mouseover" end="zoomplus.mouseout"/></use>
    <path d="M-4,0h8M0,-4v8" fill="none" stroke="white" stroke-width="1.5" pointer-events="none"/>
  </g>
  <g id="zoomMin">
    <use xlink:href="#rim" fill="#404040"><set attributeName="fill" to="#808080" begin="zoomminus.mouseover" end="zoomminus.mouseout"/></use>
    <path d="M-4,0h8" fill="none" stroke="white" stroke-width="1.5" pointer-events="none"/>
  </g>
  <g id="arrowUp" transform="translate(30 24)">
    <use xlink:href="#rim"/>
    <path pointer-events="none" fill="none" stroke="white" stroke-width="1.5" d="M0,-3.0v7 M-2.5,-0.5L0,-3.0L2.5,-0.5"/>
  </g>
  <g id="arrowRight" transform="rotate(90) translate(36 -43)">
    <use xlink:href="#rim"/>
    <path pointer-events="none" fill="none" stroke="white" stroke-width="1.5" d="M0,-3.0v7 M-2.5,-0.5L0,-3.0L2.5,-0.5"/>
  </g>
  <g id="arrowDown" transform="rotate(180) translate(-30 -48)">
    <use xlink:href="#rim"/>
    <path pointer-events="none" fill="none" stroke="white" stroke-width="1.5" d="M0,-3.0v7 M-2.5,-0.5L0,-3.0L2.5,-0.5"/>
  </g>
  <g id="arrowLeft" transform="rotate(270) translate(-36 17)">
    <use xlink:href="#rim"/>
    <path pointer-events="none" fill="none" stroke="white" stroke-width="1.5" d="M0,-3.0v7 M-2.5,-0.5L0,-3.0L2.5,-0.5"/>
  </g>
  <g id="resetDef">
    <use xlink:href="#rim2" fill="#404040"><set attributeName="fill" to="#808080" begin="reset.mouseover" end="reset.mouseout"/></use>
  </g>
</defs>
<script type="application/ecmascript">
var viewWidth = 1702;
var viewHeight = 302;
var sectionId = 'dynsection-0';
</script>
<script type="application/ecmascript" xlink:href="svg.min.js"/>
<svg id="graph" class="graph">
<g id="viewport">
<title>root.cxx</title>
<!-- Node1 -->
<g id="Node000001" class="node">
<title>Node1</title>
<g id="a_Node000001"><a xlink:title=" ">
<polygon fill="#999999" stroke="#666666" points="927.49,-294 871.49,-294 871.49,-275 927.49,-275 927.49,-294"/>
<text text-anchor="middle" x="899.49" y="-282" font-family="Helvetica,sans-Serif" font-size="10.00">root.cxx</text>
</a>
</g>
</g>
<!-- Node2 -->
<g id="Node000002" class="node">
<title>Node2</title>
<g id="a_Node000002"><a xlink:href="io_8h.html" target="_top" xlink:title="Defines the io class for handling input/output operations, primarily with ROOT and HDF5 files.">
<polygon fill="white" stroke="#666666" points="791.99,-239 756.99,-239 756.99,-220 791.99,-220 791.99,-239"/>
<text text-anchor="middle" x="774.49" y="-227" font-family="Helvetica,sans-Serif" font-size="10.00">io.h</text>
</a>
</g>
</g>
<!-- Node1&#45;&gt;Node2 -->
<g id="edge1_Node000001_Node000002" class="edge">
<title>Node1&#45;&gt;Node2</title>
<g id="a_edge1_Node000001_Node000002"><a xlink:title=" ">
<path fill="none" stroke="#63b8ff" d="M879.41,-274.98C858.27,-266.02 824.88,-251.87 801.46,-241.94"/>
<polygon fill="#63b8ff" stroke="#63b8ff" points="802.67,-238.65 792.1,-237.97 799.94,-245.09 802.67,-238.65"/>
</a>
</g>
</g>
<!-- Node31 -->
<g id="Node000031" class="node">
<title>Node31</title>
<g id="a_Node000031"><a xlink:title=" ">
<polygon fill="#e0e0e0" stroke="#999999" points="854.99,-239 809.99,-239 809.99,-220 854.99,-220 854.99,-239"/>
<text text-anchor="middle" x="832.49" y="-227" font-family="Helvetica,sans-Serif" font-size="10.00">TH1.h</text>
</a>
</g>
</g>
<!-- Node1&#45;&gt;Node31 -->
<g id="edge67_Node000001_Node000031" class="edge">
<title>Node1&#45;&gt;Node31</title>
<g id="a_edge67_Node000001_Node000031"><a xlink:title=" ">
<path fill="none" stroke="#63b8ff" d="M888.73,-274.98C878.73,-267.07 863.61,-255.11 851.56,-245.58"/>
<polygon fill="#63b8ff" stroke="#63b8ff" points="853.47,-242.63 843.45,-239.17 849.12,-248.12 853.47,-242.63"/>
</a>
</g>
</g>
<!-- Node32 -->
<g id="Node000032" class="node">
<title>Node32</title>
<g id="a_Node000032"><a xlink:title=" ">
<polygon fill="#e0e0e0" stroke="#999999" points="925.99,-239 872.99,-239 872.99,-220 925.99,-220 925.99,-239"/>
<text text-anchor="middle" x="899.49" y="-227" font-family="Helvetica,sans-Serif" font-size="10.00">io/cfg.h</text>
</a>
</g>
</g>
<!-- Node1&#45;&gt;Node32 -->
<g id="edge68_Node000001_Node000032" class="edge">
<title>Node1&#45;&gt;Node32</title>
<g id="a_edge68_Node000001_Node000032"><a xlink:title=" ">
<path fill="none" stroke="#63b8ff" d="M899.49,-274.75C899.49,-267.8 899.49,-257.85 899.49,-249.13"/>
<polygon fill="#63b8ff" stroke="#63b8ff" points="902.99,-249.09 899.49,-239.09 895.99,-249.09 902.99,-249.09"/>
</a>
</g>
</g>
<!-- Node33 -->
<g id="Node000033" class="node">
<title>Node33</title>
<g id="a_Node000033"><a xlink:title=" ">
<polygon fill="#e0e0e0" stroke="#999999" points="1012.49,-239 944.49,-239 944.49,-220 1012.49,-220 1012.49,-239"/>
<text text-anchor="middle" x="978.49" y="-227" font-family="Helvetica,sans-Serif" font-size="10.00">TSystem.h</text>
</a>
</g>
</g>
<!-- Node1&#45;&gt;Node33 -->
<g id="edge69_Node000001_Node000033" class="edge">
<title>Node1&#45;&gt;Node33</title>
<g id="a_edge69_Node000001_Node000033"><a xlink:title=" ">
<path fill="none" stroke="#63b8ff" d="M912.18,-274.98C924.32,-266.84 942.85,-254.41 957.24,-244.76"/>
<polygon fill="#63b8ff" stroke="#63b8ff" points="959.21,-247.65 965.57,-239.17 955.31,-241.84 959.21,-247.65"/>
</a>
</g>
</g>
<!-- Node34 -->
<g id="Node000034" class="node">
<title>Node34</title>
<g id="a_Node000034"><a xlink:title=" ">
<polygon fill="#e0e0e0" stroke="#999999" points="1078.49,-239 1030.49,-239 1030.49,-220 1078.49,-220 1078.49,-239"/>
<text text-anchor="middle" x="1054.49" y="-227" font-family="Helvetica,sans-Serif" font-size="10.00">thread</text>
</a>
</g>
</g>
<!-- Node1&#45;&gt;Node34 -->
<g id="edge70_Node000001_Node000034" class="edge">
<title>Node1&#45;&gt;Node34</title>
<g id="a_edge70_Node000001_Node000034"><a xlink:title=" ">
<path fill="none" stroke="#63b8ff" d="M924.4,-274.98C950.5,-266.06 991.68,-251.98 1020.7,-242.05"/>
<polygon fill="#63b8ff" stroke="#63b8ff" points="1022.09,-245.28 1030.42,-238.73 1019.82,-238.66 1022.09,-245.28"/>
</a>
</g>
</g>
<!-- Node3 -->
<g id="Node000003" class="node">
<title>Node3</title>
<g id="a_Node000003"><a xlink:title=" ">
<polygon fill="#e0e0e0" stroke="#999999" points="1385.49,-19 1347.49,-19 1347.49,0 1385.49,0 1385.49,-19"/>
<text text-anchor="middle" x="1366.49" y="-7" font-family="Helvetica,sans-Serif" font-size="10.00">map</text>
</a>
</g>
</g>
<!-- Node2&#45;&gt;Node3 -->
<g id="edge2_Node000002_Node000003" class="edge">
<title>Node2&#45;&gt;Node3</title>
<g id="a_edge2_Node000002_Node000003"><a xlink:title=" ">
<path fill="none" stroke="#63b8ff" d="M792.06,-222.34C795.17,-221.43 798.4,-220.6 801.49,-220 974.55,-186.46 1475.65,-263.59 1589.49,-129 1647.66,-60.23 1468.83,-25.52 1395.94,-14.49"/>
<polygon fill="#63b8ff" stroke="#63b8ff" points="1396,-10.96 1385.6,-12.98 1394.99,-17.89 1396,-10.96"/>
</a>
</g>
</g>
<!-- Node4 -->
<g id="Node000004" class="node">
<title>Node4</title>
<g id="a_Node000004"><a xlink:title=" ">
<polygon fill="#e0e0e0" stroke="#999999" points="511.49,-19 467.49,-19 467.49,0 511.49,0 511.49,-19"/>
<text text-anchor="middle" x="489.49" y="-7" font-family="Helvetica,sans-Serif" font-size="10.00">string</text>
</a>
</g>
</g>
<!-- Node2&#45;&gt;Node4 -->
<g id="edge3_Node000002_Node000004" class="edge">
<title>Node2&#45;&gt;Node4</title>
<g id="a_edge3_Node000002_Node000004"><a xlink:title=" ">
<path fill="none" stroke="#63b8ff" d="M756.83,-228.61C662.25,-229 215.03,-228.44 85.49,-184 44.33,-169.88 24.86,-167.45 4.49,-129 -18.54,-85.51 56.46,-59.81 67.49,-55 137.51,-24.45 371.01,-14.2 457.19,-11.4"/>
<polygon fill="#63b8ff" stroke="#63b8ff" points="457.52,-14.89 467.41,-11.08 457.3,-7.89 457.52,-14.89"/>
</a>
</g>
</g>
<!-- Node5 -->
<g id="Node000005" class="node">
<title>Node5</title>
<g id="a_Node000005"><a xlink:title=" ">
<polygon fill="#e0e0e0" stroke="#999999" points="1694.49,-184 1636.49,-184 1636.49,-165 1694.49,-165 1694.49,-184"/>
<text text-anchor="middle" x="1665.49" y="-172" font-family="Helvetica,sans-Serif" font-size="10.00">H5Cpp.h</text>
</a>
</g>
</g>
<!-- Node2&#45;&gt;Node5 -->
<g id="edge4_Node000002_Node000005" class="edge">
<title>Node2&#45;&gt;Node5</title>
<g id="a_edge4_Node000002_Node000005"><a xlink:title=" ">
<path fill="none" stroke="#63b8ff" d="M792.05,-222.25C795.16,-221.35 798.39,-220.55 801.49,-220 1161.19,-156.62 1259.86,-227.54 1622.49,-184 1623.77,-183.85 1625.06,-183.68 1626.36,-183.49"/>
<polygon fill="#63b8ff" stroke="#63b8ff" points="1627.13,-186.92 1636.44,-181.86 1626.01,-180.01 1627.13,-186.92"/>
</a>
</g>
</g>
<!-- Node6 -->
<g id="Node000006" class="node">
<title>Node6</title>
<g id="a_Node000006"><a xlink:title=" ">
<polygon fill="#e0e0e0" stroke="#999999" points="798.99,-129 749.99,-129 749.99,-110 798.99,-110 798.99,-129"/>
<text text-anchor="middle" x="774.49" y="-117" font-family="Helvetica,sans-Serif" font-size="10.00">TFile.h</text>
</a>
</g>
</g>
<!-- Node2&#45;&gt;Node6 -->
<g id="edge5_Node000002_Node000006" class="edge">
<title>Node2&#45;&gt;Node6</title>
<g id="a_edge5_Node000002_Node000006"><a xlink:title=" ">
<path fill="none" stroke="#63b8ff" d="M774.49,-219.66C774.49,-202.17 774.49,-162.8 774.49,-139.27"/>
<polygon fill="#63b8ff" stroke="#63b8ff" points="777.99,-139.16 774.49,-129.16 770.99,-139.16 777.99,-139.16"/>
</a>
</g>
</g>
<!-- Node7 -->
<g id="Node000007" class="node">
<title>Node7</title>
<g id="a_Node000007"><a xlink:title=" ">
<polygon fill="#e0e0e0" stroke="#999999" points="810.49,-74 758.49,-74 758.49,-55 810.49,-55 810.49,-74"/>
<text text-anchor="middle" x="784.49" y="-62" font-family="Helvetica,sans-Serif" font-size="10.00">TTree.h</text>
</a>
</g>
</g>
<!-- Node2&#45;&gt;Node7 -->
<g id="edge6_Node000002_Node000007" class="edge">
<title>Node2&#45;&gt;Node7</title>
<g id="a_edge6_Node000002_Node000007"><a xlink:title=" ">
<path fill="none" stroke="#63b8ff" d="M768.35,-219.95C754.92,-200.15 725.41,-149.8 741.49,-110 746.18,-98.41 755.49,-88.16 764.25,-80.43"/>
<polygon fill="#63b8ff" stroke="#63b8ff" points="766.49,-83.12 772,-74.07 762.05,-77.71 766.49,-83.12"/>
</a>
</g>
</g>
<!-- Node8 -->
<g id="Node000008" class="node">
<title>Node8</title>
<g id="a_Node000008"><a xlink:title=" ">
<polygon fill="#e0e0e0" stroke="#999999" points="881.99,-129 816.99,-129 816.99,-110 881.99,-110 881.99,-129"/>
<text text-anchor="middle" x="849.49" y="-117" font-family="Helvetica,sans-Serif" font-size="10.00">TBranch.h</text>
</a>
</g>
</g>
<!-- Node2&#45;&gt;Node8 -->
<g id="edge7_Node000002_Node000008" class="edge">
<title>Node2&#45;&gt;Node8</title>
<g id="a_edge7_Node000002_Node000008"><a xlink:title=" ">
<path fill="none" stroke="#63b8ff" d="M780.63,-219.66C793.11,-201.69 821.62,-160.64 837.77,-137.38"/>
<polygon fill="#63b8ff" stroke="#63b8ff" points="840.65,-139.37 843.48,-129.16 834.9,-135.38 840.65,-139.37"/>
</a>
</g>
</g>
<!-- Node9 -->
<g id="Node000009" class="node">
<title>Node9</title>
<g id="a_Node000009"><a xlink:title=" ">
<polygon fill="#e0e0e0" stroke="#999999" points="952.49,-129 900.49,-129 900.49,-110 952.49,-110 952.49,-129"/>
<text text-anchor="middle" x="926.49" y="-117" font-family="Helvetica,sans-Serif" font-size="10.00">TLeaf.h</text>
</a>
</g>
</g>
<!-- Node2&#45;&gt;Node9 -->
<g id="edge8_Node000002_Node000009" class="edge">
<title>Node2&#45;&gt;Node9</title>
<g id="a_edge8_Node000002_Node000009"><a xlink:title=" ">
<path fill="none" stroke="#63b8ff" d="M786.67,-219.84C812.69,-201.36 873.91,-157.86 906.02,-135.05"/>
<polygon fill="#63b8ff" stroke="#63b8ff" points="908.13,-137.84 914.25,-129.2 904.07,-132.14 908.13,-137.84"/>
</a>
</g>
</g>
<!-- Node10 -->
<g id="Node000010" class="node">
<title>Node10</title>
<g id="a_Node000010"><a xlink:title=" ">
<polygon fill="#e0e0e0" stroke="#999999" points="1450.49,-129 1364.49,-129 1364.49,-110 1450.49,-110 1450.49,-129"/>
<text text-anchor="middle" x="1407.49" y="-117" font-family="Helvetica,sans-Serif" font-size="10.00">TTreeReader.h</text>
</a>
</g>
</g>
<!-- Node2&#45;&gt;Node10 -->
<g id="edge9_Node000002_Node000010" class="edge">
<title>Node2&#45;&gt;Node10</title>
<g id="a_edge9_Node000002_Node000010"><a xlink:title=" ">
<path fill="none" stroke="#63b8ff" d="M792.08,-222.41C795.19,-221.5 798.41,-220.64 801.49,-220 947.63,-189.43 988.3,-209.02 1135.49,-184 1218.35,-169.92 1313.7,-145.79 1366.64,-131.68"/>
<polygon fill="#63b8ff" stroke="#63b8ff" points="1367.58,-135.05 1376.33,-129.08 1365.77,-128.29 1367.58,-135.05"/>
</a>
</g>
</g>
<!-- Node11 -->
<g id="Node000011" class="node">
<title>Node11</title>
<g id="a_Node000011"><a xlink:title=" ">
<polygon fill="#e0e0e0" stroke="#999999" points="1579.99,-129 1468.99,-129 1468.99,-110 1579.99,-110 1579.99,-129"/>
<text text-anchor="middle" x="1524.49" y="-117" font-family="Helvetica,sans-Serif" font-size="10.00">TTreeReaderArray.h</text>
</a>
</g>
</g>
<!-- Node2&#45;&gt;Node11 -->
<g id="edge10_Node000002_Node000011" class="edge">
<title>Node2&#45;&gt;Node11</title>
<g id="a_edge10_Node000002_Node000011"><a xlink:title=" ">
<path fill="none" stroke="#63b8ff" d="M792.07,-222.37C795.18,-221.46 798.41,-220.62 801.49,-220 973.46,-185.47 1020.83,-208.6 1194.49,-184 1295.66,-169.67 1412.85,-145.23 1476.79,-131.22"/>
<polygon fill="#63b8ff" stroke="#63b8ff" points="1477.57,-134.63 1486.59,-129.06 1476.07,-127.79 1477.57,-134.63"/>
</a>
</g>
</g>
<!-- Node12 -->
<g id="Node000012" class="node">
<title>Node12</title>
<g id="a_Node000012"><a xlink:href="meta_2include_2meta_2meta_8h.html" target="_top" xlink:title="Handles metadata operations and provides utilities for managing metadata&#45;related tasks.">
<polygon fill="white" stroke="#666666" points="579.49,-184 499.49,-184 499.49,-165 579.49,-165 579.49,-184"/>
<text text-anchor="middle" x="539.49" y="-172" font-family="Helvetica,sans-Serif" font-size="10.00">meta/meta.h</text>
</a>
</g>
</g>
<!-- Node2&#45;&gt;Node12 -->
<g id="edge11_Node000002_Node000012" class="edge">
<title>Node2&#45;&gt;Node12</title>
<g id="a_edge11_Node000002_Node000012"><a xlink:title=" ">
<path fill="none" stroke="#63b8ff" d="M756.83,-224.52C721.23,-216.49 639.79,-198.12 587.34,-186.29"/>
<polygon fill="#63b8ff" stroke="#63b8ff" points="588.1,-182.88 577.58,-184.09 586.56,-189.7 588.1,-182.88"/>
</a>
</g>
</g>
<!-- Node16 -->
<g id="Node000016" class="node">
<title>Node16</title>
<g id="a_Node000016"><a xlink:href="folds_8h.html" target="_top" xlink:title=" ">
<polygon fill="white" stroke="#666666" points="99.49,-129 13.49,-129 13.49,-110 99.49,-110 99.49,-129"/>
<text text-anchor="middle" x="56.49" y="-117" font-family="Helvetica,sans-Serif" font-size="10.00">structs/folds.h</text>
</a>
</g>
</g>
<!-- Node2&#45;&gt;Node16 -->
<g id="edge38_Node000002_Node000016" class="edge">
<title>Node2&#45;&gt;Node16</title>
<g id="a_edge38_Node000002_Node000016"><a xlink:title=" ">
<path fill="none" stroke="#63b8ff" d="M756.94,-228.1C658.06,-225.77 172.88,-212.93 113.49,-184 93.17,-174.1 76.82,-153.45 66.93,-138.37"/>
<polygon fill="#63b8ff" stroke="#63b8ff" points="69.64,-136.09 61.39,-129.44 63.69,-139.78 69.64,-136.09"/>
</a>
</g>
</g>
<!-- Node20 -->
<g id="Node000020" class="node">
<title>Node20</title>
<g id="a_Node000020"><a xlink:href="notification_8h.html" target="_top" xlink:title="Defines the notification class for logging and messaging functionality.">
<polygon fill="white" stroke="#666666" points="234.49,-74 96.49,-74 96.49,-55 234.49,-55 234.49,-74"/>
<text text-anchor="middle" x="165.49" y="-62" font-family="Helvetica,sans-Serif" font-size="10.00">notification/notification.h</text>
</a>
</g>
</g>
<!-- Node2&#45;&gt;Node20 -->
<g id="edge66_Node000002_Node000020" class="edge">
<title>Node2&#45;&gt;Node20</title>
<g id="a_edge66_Node000002_Node000020"><a xlink:title=" ">
<path fill="none" stroke="#63b8ff" d="M756.8,-228.56C665.15,-228.44 245.64,-222.74 168.49,-129 158.31,-116.63 158.71,-97.86 160.97,-83.94"/>
<polygon fill="#63b8ff" stroke="#63b8ff" points="164.42,-84.52 163.01,-74.02 157.56,-83.11 164.42,-84.52"/>
</a>
</g>
</g>
<!-- Node21 -->
<g id="Node000021" class="node">
<title>Node21</title>
<g id="a_Node000021"><a xlink:href="tools_8h.html" target="_top" xlink:title="Defines the tools class that provides general utility functions for the AnalysisG framework.">
<polygon fill="white" stroke="#666666" points="739.99,-74 662.99,-74 662.99,-55 739.99,-55 739.99,-74"/>
<text text-anchor="middle" x="701.49" y="-62" font-family="Helvetica,sans-Serif" font-size="10.00">tools/tools.h</text>
</a>
</g>
</g>
<!-- Node2&#45;&gt;Node21 -->
<g id="edge37_Node000002_Node000021" class="edge">
<title>Node2&#45;&gt;Node21</title>
<g id="a_edge37_Node000002_Node000021"><a xlink:title=" ">
<path fill="none" stroke="#63b8ff" d="M765.37,-219.75C757.04,-211.3 744.93,-197.8 737.49,-184 719.79,-151.16 709.55,-108.39 704.78,-84.25"/>
<polygon fill="#63b8ff" stroke="#63b8ff" points="708.2,-83.48 702.92,-74.29 701.32,-84.76 708.2,-83.48"/>
</a>
</g>
</g>
<!-- Node24 -->
<g id="Node000024" class="node">
<title>Node24</title>
<g id="a_Node000024"><a xlink:href="element_8h.html" target="_top" xlink:title=" ">
<polygon fill="white" stroke="#666666" points="1126.49,-184 1024.49,-184 1024.49,-165 1126.49,-165 1126.49,-184"/>
<text text-anchor="middle" x="1075.49" y="-172" font-family="Helvetica,sans-Serif" font-size="10.00">structs/element.h</text>
</a>
</g>
</g>
<!-- Node2&#45;&gt;Node24 -->
<g id="edge39_Node000002_Node000024" class="edge">
<title>Node2&#45;&gt;Node24</title>
<g id="a_edge39_Node000002_Node000024"><a xlink:title=" ">
<path fill="none" stroke="#63b8ff" d="M792.11,-222.55C795.21,-221.62 798.43,-220.73 801.49,-220 873.78,-202.85 958.36,-190.22 1014.22,-182.88"/>
<polygon fill="#63b8ff" stroke="#63b8ff" points="1014.84,-186.33 1024.31,-181.57 1013.94,-179.39 1014.84,-186.33"/>
</a>
</g>
</g>
<!-- Node30 -->
<g id="Node000030" class="node">
<title>Node30</title>
<g id="a_Node000030"><a xlink:href="settings_8h.html" target="_top" xlink:title="Defines the settings_t structure for global configuration of the AnalysisG framework.">
<polygon fill="white" stroke="#666666" points="539.99,-74 438.99,-74 438.99,-55 539.99,-55 539.99,-74"/>
<text text-anchor="middle" x="489.49" y="-62" font-family="Helvetica,sans-Serif" font-size="10.00">structs/settings.h</text>
</a>
</g>
</g>
<!-- Node2&#45;&gt;Node30 -->
<g id="edge63_Node000002_Node000030" class="edge">
<title>Node2&#45;&gt;Node30</title>
<g id="a_edge63_Node000002_Node000030"><a xlink:title=" ">
<path fill="none" stroke="#63b8ff" d="M756.75,-227.45C681.62,-222.56 391.37,-199.3 342.49,-129 317.65,-93.26 378.17,-77.49 428.94,-70.62"/>
<polygon fill="#63b8ff" stroke="#63b8ff" points="429.45,-74.09 438.93,-69.37 428.58,-67.14 429.45,-74.09"/>
</a>
</g>
</g>
<!-- Node12&#45;&gt;Node6 -->
<g id="edge32_Node000012_Node000006" class="edge">
<title>Node12&#45;&gt;Node6</title>
<g id="a_edge32_Node000012_Node000006"><a xlink:title=" ">
<path fill="none" stroke="#63b8ff" d="M577.25,-164.98C622.17,-154.85 696.54,-138.08 739.98,-128.28"/>
<polygon fill="#63b8ff" stroke="#63b8ff" points="740.82,-131.68 749.8,-126.07 739.28,-124.85 740.82,-131.68"/>
</a>
</g>
</g>
<!-- Node12&#45;&gt;Node7 -->
<g id="edge33_Node000012_Node000007" class="edge">
<title>Node12&#45;&gt;Node7</title>
<g id="a_edge33_Node000012_Node000007"><a xlink:title=" ">
<path fill="none" stroke="#63b8ff" d="M556.11,-164.82C580.62,-152.14 628.06,-128.1 669.49,-110 696.49,-98.21 727.7,-86.23 750.79,-77.68"/>
<polygon fill="#63b8ff" stroke="#63b8ff" points="752.29,-80.86 760.46,-74.12 749.87,-74.29 752.29,-80.86"/>
</a>
</g>
</g>
<!-- Node12&#45;&gt;Node8 -->
<g id="edge34_Node000012_Node000008" class="edge">
<title>Node12&#45;&gt;Node8</title>
<g id="a_edge34_Node000012_Node000008"><a xlink:title=" ">
<path fill="none" stroke="#63b8ff" d="M579.69,-167.37C630.39,-159.52 720.51,-145.2 806.88,-129.24"/>
<polygon fill="#63b8ff" stroke="#63b8ff" points="807.65,-132.66 816.84,-127.39 806.37,-125.78 807.65,-132.66"/>
</a>
</g>
</g>
<!-- Node12&#45;&gt;Node9 -->
<g id="edge35_Node000012_Node000009" class="edge">
<title>Node12&#45;&gt;Node9</title>
<g id="a_edge35_Node000012_Node000009"><a xlink:title=" ">
<path fill="none" stroke="#63b8ff" d="M579.57,-169.91C643.35,-163.89 771.98,-150.42 890.24,-129.05"/>
<polygon fill="#63b8ff" stroke="#63b8ff" points="890.98,-132.47 900.19,-127.22 889.72,-125.58 890.98,-132.47"/>
</a>
</g>
</g>
<!-- Node13 -->
<g id="Node000013" class="node">
<title>Node13</title>
<g id="a_Node000013"><a xlink:href="structs_2include_2structs_2meta_8h.html" target="_top" xlink:title="Defines metadata structures for physics analysis datasets.">
<polygon fill="white" stroke="#666666" points="953.99,-74 866.99,-74 866.99,-55 953.99,-55 953.99,-74"/>
<text text-anchor="middle" x="910.49" y="-62" font-family="Helvetica,sans-Serif" font-size="10.00">structs/meta.h</text>
</a>
</g>
</g>
<!-- Node12&#45;&gt;Node13 -->
<g id="edge12_Node000012_Node000013" class="edge">
<title>Node12&#45;&gt;Node13</title>
<g id="a_edge12_Node000012_Node000013"><a xlink:title=" ">
<path fill="none" stroke="#63b8ff" d="M565.2,-164.99C603.47,-152.42 677.74,-128.4 741.49,-110 783.5,-97.88 831.76,-85.3 865.92,-76.63"/>
<polygon fill="#63b8ff" stroke="#63b8ff" points="867.22,-79.91 876.05,-74.06 865.5,-73.12 867.22,-79.91"/>
</a>
</g>
</g>
<!-- Node12&#45;&gt;Node16 -->
<g id="edge17_Node000012_Node000016" class="edge">
<title>Node12&#45;&gt;Node16</title>
<g id="a_edge17_Node000012_Node000016"><a xlink:title=" ">
<path fill="none" stroke="#63b8ff" d="M499.14,-169.07C412.3,-159.54 207.64,-137.09 110.06,-126.38"/>
<polygon fill="#63b8ff" stroke="#63b8ff" points="110.15,-122.87 99.83,-125.26 109.39,-129.83 110.15,-122.87"/>
</a>
</g>
</g>
<!-- Node17 -->
<g id="Node000017" class="node">
<title>Node17</title>
<g id="a_Node000017"><a xlink:href="property_8h.html" target="_top" xlink:title="Defines the cproperty template class for property&#45;based access patterns.">
<polygon fill="white" stroke="#666666" points="294.99,-129 193.99,-129 193.99,-110 294.99,-110 294.99,-129"/>
<text text-anchor="middle" x="244.49" y="-117" font-family="Helvetica,sans-Serif" font-size="10.00">structs/property.h</text>
</a>
</g>
</g>
<!-- Node12&#45;&gt;Node17 -->
<g id="edge19_Node000012_Node000017" class="edge">
<title>Node12&#45;&gt;Node17</title>
<g id="a_edge19_Node000012_Node000017"><a xlink:title=" ">
<path fill="none" stroke="#63b8ff" d="M499.4,-166.3C448.43,-157.14 360.07,-141.27 301.94,-130.82"/>
<polygon fill="#63b8ff" stroke="#63b8ff" points="302.27,-127.33 291.81,-129 301.04,-134.22 302.27,-127.33"/>
</a>
</g>
</g>
<!-- Node19 -->
<g id="Node000019" class="node">
<title>Node19</title>
<g id="a_Node000019"><a xlink:title=" ">
<polygon fill="#e0e0e0" stroke="#999999" points="473.49,-129 351.49,-129 351.49,-110 473.49,-110 473.49,-129"/>
<text text-anchor="middle" x="412.49" y="-117" font-family="Helvetica,sans-Serif" font-size="10.00">rapidjson/document.h</text>
</a>
</g>
</g>
<!-- Node12&#45;&gt;Node19 -->
<g id="edge22_Node000012_Node000019" class="edge">
<title>Node12&#45;&gt;Node19</title>
<g id="a_edge22_Node000012_Node000019"><a xlink:title=" ">
<path fill="none" stroke="#63b8ff" d="M519.09,-164.98C498.47,-156.38 466.39,-142.99 442.8,-133.15"/>
<polygon fill="#63b8ff" stroke="#63b8ff" points="443.84,-129.79 433.27,-129.17 441.15,-136.25 443.84,-129.79"/>
</a>
</g>
</g>
<!-- Node12&#45;&gt;Node20 -->
<g id="edge23_Node000012_Node000020" class="edge">
<title>Node12&#45;&gt;Node20</title>
<g id="a_edge23_Node000012_Node000020"><a xlink:title=" ">
<path fill="none" stroke="#63b8ff" d="M499.37,-173.8C416.71,-173.58 231.25,-168.58 184.49,-129 171.6,-118.09 167.25,-98.82 165.88,-84.36"/>
<polygon fill="#63b8ff" stroke="#63b8ff" points="169.35,-83.84 165.31,-74.05 162.36,-84.22 169.35,-83.84"/>
</a>
</g>
</g>
<!-- Node12&#45;&gt;Node21 -->
<g id="edge26_Node000012_Node000021" class="edge">
<title>Node12&#45;&gt;Node21</title>
<g id="a_edge26_Node000012_Node000021"><a xlink:title=" ">
<path fill="none" stroke="#63b8ff" d="M544.79,-164.97C553.48,-151.61 571.95,-125.65 593.49,-110 613.6,-95.39 639.22,-84.56 660.45,-77.25"/>
<polygon fill="#63b8ff" stroke="#63b8ff" points="661.78,-80.5 670.17,-74.04 659.58,-73.85 661.78,-80.5"/>
</a>
</g>
</g>
<!-- Node23 -->
<g id="Node000023" class="node">
<title>Node23</title>
<g id="a_Node000023"><a xlink:title=" ">
<polygon fill="#e0e0e0" stroke="#999999" points="541.49,-129 491.49,-129 491.49,-110 541.49,-110 541.49,-129"/>
<text text-anchor="middle" x="516.49" y="-117" font-family="Helvetica,sans-Serif" font-size="10.00">TH1F.h</text>
</a>
</g>
</g>
<!-- Node12&#45;&gt;Node23 -->
<g id="edge36_Node000012_Node000023" class="edge">
<title>Node12&#45;&gt;Node23</title>
<g id="a_edge36_Node000012_Node000023"><a xlink:title=" ">
<path fill="none" stroke="#63b8ff" d="M535.69,-164.75C532.58,-157.57 528.07,-147.18 524.2,-138.27"/>
<polygon fill="#63b8ff" stroke="#63b8ff" points="527.41,-136.87 520.22,-129.09 520.99,-139.66 527.41,-136.87"/>
</a>
</g>
</g>
<!-- Node13&#45;&gt;Node3 -->
<g id="edge16_Node000013_Node000003" class="edge">
<title>Node13&#45;&gt;Node3</title>
<g id="a_edge16_Node000013_Node000003"><a xlink:title=" ">
<path fill="none" stroke="#63b8ff" d="M954.13,-56.28C957.3,-55.82 960.44,-55.39 963.49,-55 1126.32,-34.15 1172.45,-50.8 1337.34,-18.83"/>
<polygon fill="#63b8ff" stroke="#63b8ff" points="1338.2,-22.23 1347.34,-16.86 1336.85,-15.36 1338.2,-22.23"/>
</a>
</g>
</g>
<!-- Node13&#45;&gt;Node4 -->
<g id="edge14_Node000013_Node000004" class="edge">
<title>Node13&#45;&gt;Node4</title>
<g id="a_edge14_Node000013_Node000004"><a xlink:title=" ">
<path fill="none" stroke="#63b8ff" d="M866.63,-57.98C781.72,-47.29 596.68,-23.99 521.86,-14.57"/>
<polygon fill="#63b8ff" stroke="#63b8ff" points="522,-11.06 511.64,-13.29 521.13,-18.01 522,-11.06"/>
</a>
</g>
</g>
<!-- Node14 -->
<g id="Node000014" class="node">
<title>Node14</title>
<g id="a_Node000014"><a xlink:title=" ">
<polygon fill="#e0e0e0" stroke="#999999" points="852.49,-19 792.49,-19 792.49,0 852.49,0 852.49,-19"/>
<text text-anchor="middle" x="822.49" y="-7" font-family="Helvetica,sans-Serif" font-size="10.00">iostream</text>
</a>
</g>
</g>
<!-- Node13&#45;&gt;Node14 -->
<g id="edge13_Node000013_Node000014" class="edge">
<title>Node13&#45;&gt;Node14</title>
<g id="a_edge13_Node000013_Node000014"><a xlink:title=" ">
<path fill="none" stroke="#63b8ff" d="M896.35,-54.98C882.71,-46.77 861.8,-34.18 845.71,-24.49"/>
<polygon fill="#63b8ff" stroke="#63b8ff" points="847.26,-21.33 836.89,-19.17 843.65,-27.33 847.26,-21.33"/>
</a>
</g>
</g>
<!-- Node15 -->
<g id="Node000015" class="node">
<title>Node15</title>
<g id="a_Node000015"><a xlink:title=" ">
<polygon fill="#e0e0e0" stroke="#999999" points="949.99,-19 902.99,-19 902.99,0 949.99,0 949.99,-19"/>
<text text-anchor="middle" x="926.49" y="-7" font-family="Helvetica,sans-Serif" font-size="10.00">vector</text>
</a>
</g>
</g>
<!-- Node13&#45;&gt;Node15 -->
<g id="edge15_Node000013_Node000015" class="edge">
<title>Node13&#45;&gt;Node15</title>
<g id="a_edge15_Node000013_Node000015"><a xlink:title=" ">
<path fill="none" stroke="#63b8ff" d="M913.13,-54.75C915.25,-47.72 918.3,-37.62 920.95,-28.84"/>
<polygon fill="#63b8ff" stroke="#63b8ff" points="924.36,-29.67 923.9,-19.09 917.66,-27.65 924.36,-29.67"/>
</a>
</g>
</g>
<!-- Node16&#45;&gt;Node4 -->
<g id="edge18_Node000016_Node000004" class="edge">
<title>Node16&#45;&gt;Node4</title>
<g id="a_edge18_Node000016_Node000004"><a xlink:title=" ">
<path fill="none" stroke="#63b8ff" d="M57.99,-109.8C60.92,-95.71 68.83,-68.14 87.49,-55 146.89,-13.18 372.86,-9.89 457.36,-10.17"/>
<polygon fill="#63b8ff" stroke="#63b8ff" points="457.38,-13.67 467.4,-10.22 457.42,-6.67 457.38,-13.67"/>
</a>
</g>
</g>
<!-- Node17&#45;&gt;Node4 -->
<g id="edge21_Node000017_Node000004" class="edge">
<title>Node17&#45;&gt;Node4</title>
<g id="a_edge21_Node000017_Node000004"><a xlink:title=" ">
<path fill="none" stroke="#63b8ff" d="M246.97,-109.98C251.45,-96.14 262.27,-68.92 281.49,-55 334.4,-16.67 413.51,-10.07 457.35,-9.64"/>
<polygon fill="#63b8ff" stroke="#63b8ff" points="457.44,-13.14 467.44,-9.65 457.44,-6.14 457.44,-13.14"/>
</a>
</g>
</g>
<!-- Node18 -->
<g id="Node000018" class="node">
<title>Node18</title>
<g id="a_Node000018"><a xlink:title=" ">
<polygon fill="#e0e0e0" stroke="#999999" points="355.99,-74 290.99,-74 290.99,-55 355.99,-55 355.99,-74"/>
<text text-anchor="middle" x="323.49" y="-62" font-family="Helvetica,sans-Serif" font-size="10.00">functional</text>
</a>
</g>
</g>
<!-- Node17&#45;&gt;Node18 -->
<g id="edge20_Node000017_Node000018" class="edge">
<title>Node17&#45;&gt;Node18</title>
<g id="a_edge20_Node000017_Node000018"><a xlink:title=" ">
<path fill="none" stroke="#63b8ff" d="M257.18,-109.98C269.32,-101.84 287.85,-89.41 302.24,-79.76"/>
<polygon fill="#63b8ff" stroke="#63b8ff" points="304.21,-82.65 310.57,-74.17 300.31,-76.84 304.21,-82.65"/>
</a>
</g>
</g>
<!-- Node20&#45;&gt;Node4 -->
<g id="edge24_Node000020_Node000004" class="edge">
<title>Node20&#45;&gt;Node4</title>
<g id="a_edge24_Node000020_Node000004"><a xlink:title=" ">
<path fill="none" stroke="#63b8ff" d="M217.55,-54.98C285.1,-43.93 400.96,-24.98 457.1,-15.8"/>
<polygon fill="#63b8ff" stroke="#63b8ff" points="457.88,-19.22 467.19,-14.15 456.75,-12.31 457.88,-19.22"/>
</a>
</g>
</g>
<!-- Node20&#45;&gt;Node14 -->
<g id="edge25_Node000020_Node000014" class="edge">
<title>Node20&#45;&gt;Node14</title>
<g id="a_edge25_Node000020_Node000014"><a xlink:title=" ">
<path fill="none" stroke="#63b8ff" d="M234.73,-58.26C364.55,-48.42 640.07,-27.39 735.49,-19 750.7,-17.66 767.39,-16.07 782.04,-14.62"/>
<polygon fill="#63b8ff" stroke="#63b8ff" points="782.7,-18.07 792.31,-13.59 782.01,-11.1 782.7,-18.07"/>
</a>
</g>
</g>
<!-- Node21&#45;&gt;Node3 -->
<g id="edge31_Node000021_Node000003" class="edge">
<title>Node21&#45;&gt;Node3</title>
<g id="a_edge31_Node000021_Node000003"><a xlink:title=" ">
<path fill="none" stroke="#63b8ff" d="M740.21,-56.25C743.34,-55.79 746.47,-55.36 749.49,-55 1006.62,-24.48 1078.54,-64.37 1337.28,-18.76"/>
<polygon fill="#63b8ff" stroke="#63b8ff" points="1338.13,-22.16 1347.36,-16.95 1336.9,-15.27 1338.13,-22.16"/>
</a>
</g>
</g>
<!-- Node21&#45;&gt;Node4 -->
<g id="edge28_Node000021_Node000004" class="edge">
<title>Node21&#45;&gt;Node4</title>
<g id="a_edge28_Node000021_Node000004"><a xlink:title=" ">
<path fill="none" stroke="#63b8ff" d="M667.43,-54.98C627.25,-44.94 560.95,-28.36 521.62,-18.53"/>
<polygon fill="#63b8ff" stroke="#63b8ff" points="522.31,-15.1 511.76,-16.07 520.62,-21.89 522.31,-15.1"/>
</a>
</g>
</g>
<!-- Node21&#45;&gt;Node14 -->
<g id="edge27_Node000021_Node000014" class="edge">
<title>Node21&#45;&gt;Node14</title>
<g id="a_edge27_Node000021_Node000014"><a xlink:title=" ">
<path fill="none" stroke="#63b8ff" d="M720.93,-54.98C740.49,-46.42 770.87,-33.11 793.32,-23.28"/>
<polygon fill="#63b8ff" stroke="#63b8ff" points="794.94,-26.39 802.7,-19.17 792.13,-19.98 794.94,-26.39"/>
</a>
</g>
</g>
<!-- Node21&#45;&gt;Node15 -->
<g id="edge29_Node000021_Node000015" class="edge">
<title>Node21&#45;&gt;Node15</title>
<g id="a_edge29_Node000021_Node000015"><a xlink:title=" ">
<path fill="none" stroke="#63b8ff" d="M737.64,-54.98C780.47,-44.9 851.26,-28.22 892.92,-18.41"/>
<polygon fill="#63b8ff" stroke="#63b8ff" points="893.92,-21.77 902.85,-16.07 892.32,-14.95 893.92,-21.77"/>
</a>
</g>
</g>
<!-- Node22 -->
<g id="Node000022" class="node">
<title>Node22</title>
<g id="a_Node000022"><a xlink:title=" ">
<polygon fill="#e0e0e0" stroke="#999999" points="726.49,-19 676.49,-19 676.49,0 726.49,0 726.49,-19"/>
<text text-anchor="middle" x="701.49" y="-7" font-family="Helvetica,sans-Serif" font-size="10.00">cstdint</text>
</a>
</g>
</g>
<!-- Node21&#45;&gt;Node22 -->
<g id="edge30_Node000021_Node000022" class="edge">
<title>Node21&#45;&gt;Node22</title>
<g id="a_edge30_Node000021_Node000022"><a xlink:title=" ">
<path fill="none" stroke="#63b8ff" d="M701.49,-54.75C701.49,-47.8 701.49,-37.85 701.49,-29.13"/>
<polygon fill="#63b8ff" stroke="#63b8ff" points="704.99,-29.09 701.49,-19.09 697.99,-29.09 704.99,-29.09"/>
</a>
</g>
</g>
<!-- Node24&#45;&gt;Node3 -->
<g id="edge62_Node000024_Node000003" class="edge">
<title>Node24&#45;&gt;Node3</title>
<g id="a_edge62_Node000024_Node000003"><a xlink:title=" ">
<path fill="none" stroke="#63b8ff" d="M1126.52,-165.69C1182.6,-156.69 1268.8,-141.54 1299.49,-129 1340.8,-112.12 1362.27,-113.26 1383.49,-74 1391.28,-59.6 1385,-41.4 1377.98,-28.18"/>
<polygon fill="#63b8ff" stroke="#63b8ff" points="1380.77,-26.03 1372.68,-19.19 1374.74,-29.58 1380.77,-26.03"/>
</a>
</g>
</g>
<!-- Node24&#45;&gt;Node4 -->
<g id="edge60_Node000024_Node000004" class="edge">
<title>Node24&#45;&gt;Node4</title>
<g id="a_edge60_Node000024_Node000004"><a xlink:title=" ">
<path fill="none" stroke="#63b8ff" d="M1059.61,-164.9C1043.24,-156 1017.01,-141.66 994.49,-129 979.74,-120.7 977.56,-115.32 961.49,-110 831.07,-66.84 787.87,-106.93 654.49,-74 604.26,-61.6 548.64,-38 516.51,-23.32"/>
<polygon fill="#63b8ff" stroke="#63b8ff" points="517.87,-20.1 507.32,-19.08 514.93,-26.45 517.87,-20.1"/>
</a>
</g>
</g>
<!-- Node24&#45;&gt;Node6 -->
<g id="edge40_Node000024_Node000006" class="edge">
<title>Node24&#45;&gt;Node6</title>
<g id="a_edge40_Node000024_Node000006"><a xlink:title=" ">
<path fill="none" stroke="#63b8ff" d="M1024.08,-166.18C972.26,-158.52 889.78,-145.56 809.14,-128.99"/>
<polygon fill="#63b8ff" stroke="#63b8ff" points="809.82,-125.56 799.32,-126.95 808.4,-132.41 809.82,-125.56"/>
</a>
</g>
</g>
<!-- Node24&#45;&gt;Node7 -->
<g id="edge41_Node000024_Node000007" class="edge">
<title>Node24&#45;&gt;Node7</title>
<g id="a_edge41_Node000024_Node000007"><a xlink:title=" ">
<path fill="none" stroke="#63b8ff" d="M1066.94,-164.56C1053.09,-150.63 1024.28,-123.91 994.49,-110 924.51,-77.33 900.04,-90.03 824.49,-74 823.24,-73.73 821.97,-73.46 820.68,-73.19"/>
<polygon fill="#63b8ff" stroke="#63b8ff" points="821.25,-69.73 810.74,-71.08 819.8,-76.58 821.25,-69.73"/>
</a>
</g>
</g>
<!-- Node24&#45;&gt;Node8 -->
<g id="edge42_Node000024_Node000008" class="edge">
<title>Node24&#45;&gt;Node8</title>
<g id="a_edge42_Node000024_Node000008"><a xlink:title=" ">
<path fill="none" stroke="#63b8ff" d="M1039.18,-164.98C998.98,-155.56 934.27,-140.38 891.8,-130.42"/>
<polygon fill="#63b8ff" stroke="#63b8ff" points="892.58,-127.01 882.04,-128.13 890.98,-133.82 892.58,-127.01"/>
</a>
</g>
</g>
<!-- Node24&#45;&gt;Node9 -->
<g id="edge43_Node000024_Node000009" class="edge">
<title>Node24&#45;&gt;Node9</title>
<g id="a_edge43_Node000024_Node000009"><a xlink:title=" ">
<path fill="none" stroke="#63b8ff" d="M1051.55,-164.98C1026.93,-156.23 988.37,-142.51 960.57,-132.62"/>
<polygon fill="#63b8ff" stroke="#63b8ff" points="961.46,-129.22 950.87,-129.17 959.12,-135.82 961.46,-129.22"/>
</a>
</g>
</g>
<!-- Node24&#45;&gt;Node10 -->
<g id="edge45_Node000024_Node000010" class="edge">
<title>Node24&#45;&gt;Node10</title>
<g id="a_edge45_Node000024_Node000010"><a xlink:title=" ">
<path fill="none" stroke="#63b8ff" d="M1126.64,-165.33C1188.41,-155.47 1291.79,-138.97 1354.41,-128.97"/>
<polygon fill="#63b8ff" stroke="#63b8ff" points="1355.16,-132.4 1364.48,-127.37 1354.05,-125.49 1355.16,-132.4"/>
</a>
</g>
</g>
<!-- Node24&#45;&gt;Node11 -->
<g id="edge44_Node000024_Node000011" class="edge">
<title>Node24&#45;&gt;Node11</title>
<g id="a_edge44_Node000024_Node000011"><a xlink:title=" ">
<path fill="none" stroke="#63b8ff" d="M1126.76,-167.8C1198.48,-159.77 1333.09,-144.51 1458.65,-129.09"/>
<polygon fill="#63b8ff" stroke="#63b8ff" points="1459.33,-132.53 1468.83,-127.83 1458.48,-125.58 1459.33,-132.53"/>
</a>
</g>
</g>
<!-- Node24&#45;&gt;Node13 -->
<g id="edge58_Node000024_Node000013" class="edge">
<title>Node24&#45;&gt;Node13</title>
<g id="a_edge58_Node000024_Node000013"><a xlink:title=" ">
<path fill="none" stroke="#63b8ff" d="M1077.6,-164.98C1080.35,-151.64 1083.43,-125.71 1070.49,-110 1063.27,-101.23 1004.31,-86.4 960.05,-76.29"/>
<polygon fill="#63b8ff" stroke="#63b8ff" points="960.81,-72.87 950.29,-74.08 959.27,-79.7 960.81,-72.87"/>
</a>
</g>
</g>
<!-- Node24&#45;&gt;Node14 -->
<g id="edge59_Node000024_Node000014" class="edge">
<title>Node24&#45;&gt;Node14</title>
<g id="a_edge59_Node000024_Node000014"><a xlink:title=" ">
<path fill="none" stroke="#63b8ff" d="M1071.02,-164.96C1063.3,-151.09 1046.09,-123.85 1023.49,-110 959.49,-70.79 918.92,-118.52 858.49,-74 843.37,-62.86 833.69,-43.33 828.22,-28.87"/>
<polygon fill="#63b8ff" stroke="#63b8ff" points="831.39,-27.33 824.84,-19.01 824.77,-29.61 831.39,-27.33"/>
</a>
</g>
</g>
<!-- Node24&#45;&gt;Node15 -->
<g id="edge61_Node000024_Node000015" class="edge">
<title>Node24&#45;&gt;Node15</title>
<g id="a_edge61_Node000024_Node000015"><a xlink:title=" ">
<path fill="none" stroke="#63b8ff" d="M1117.73,-164.95C1164.35,-155.1 1233.84,-138.97 1241.49,-129 1257.65,-107.93 1237.41,-69.21 1219.49,-55 1179.89,-23.59 1028.47,-14.18 960.21,-11.5"/>
<polygon fill="#63b8ff" stroke="#63b8ff" points="960.12,-8 950,-11.13 959.86,-14.99 960.12,-8"/>
</a>
</g>
</g>
<!-- Node25 -->
<g id="Node000025" class="node">
<title>Node25</title>
<g id="a_Node000025"><a xlink:href="vector__cast_8h.html" target="_top" xlink:title=" ">
<polygon fill="white" stroke="#666666" points="1231.99,-129 1122.99,-129 1122.99,-110 1231.99,-110 1231.99,-129"/>
<text text-anchor="middle" x="1177.49" y="-117" font-family="Helvetica,sans-Serif" font-size="10.00">tools/vector_cast.h</text>
</a>
</g>
</g>
<!-- Node24&#45;&gt;Node25 -->
<g id="edge46_Node000024_Node000025" class="edge">
<title>Node24&#45;&gt;Node25</title>
<g id="a_edge46_Node000024_Node000025"><a xlink:title=" ">
<path fill="none" stroke="#63b8ff" d="M1091.88,-164.98C1108.07,-156.57 1133.06,-143.59 1151.87,-133.81"/>
<polygon fill="#63b8ff" stroke="#63b8ff" points="1153.55,-136.89 1160.81,-129.17 1150.32,-130.68 1153.55,-136.89"/>
</a>
</g>
</g>
<!-- Node27 -->
<g id="Node000027" class="node">
<title>Node27</title>
<g id="a_Node000027"><a xlink:href="modules_2structs_2include_2structs_2base_8h.html" target="_top" xlink:title="Defines fundamental data structures and type handling for the AnalysisG framework.">
<polygon fill="white" stroke="#666666" points="1373.99,-74 1288.99,-74 1288.99,-55 1373.99,-55 1373.99,-74"/>
<text text-anchor="middle" x="1331.49" y="-62" font-family="Helvetica,sans-Serif" font-size="10.00">structs/base.h</text>
</a>
</g>
</g>
<!-- Node24&#45;&gt;Node27 -->
<g id="edge57_Node000024_Node000027" class="edge">
<title>Node24&#45;&gt;Node27</title>
<g id="a_edge57_Node000024_Node000027"><a xlink:title=" ">
<path fill="none" stroke="#63b8ff" d="M1126.87,-170.64C1169.03,-166.35 1228.97,-155.65 1274.49,-129 1294,-117.58 1310.5,-97.22 1320.65,-82.63"/>
<polygon fill="#63b8ff" stroke="#63b8ff" points="1323.75,-84.29 1326.37,-74.02 1317.92,-80.41 1323.75,-84.29"/>
</a>
</g>
</g>
<!-- Node25&#45;&gt;Node7 -->
<g id="edge55_Node000025_Node000007" class="edge">
<title>Node25&#45;&gt;Node7</title>
<g id="a_edge55_Node000025_Node000007"><a xlink:title=" ">
<path fill="none" stroke="#63b8ff" d="M1122.85,-111.13C1041.2,-100.12 889.58,-79.67 820.48,-70.35"/>
<polygon fill="#63b8ff" stroke="#63b8ff" points="820.89,-66.88 810.52,-69.01 819.96,-73.81 820.89,-66.88"/>
</a>
</g>
</g>
<!-- Node25&#45;&gt;Node13 -->
<g id="edge48_Node000025_Node000013" class="edge">
<title>Node25&#45;&gt;Node13</title>
<g id="a_edge48_Node000025_Node000013"><a xlink:title=" ">
<path fill="none" stroke="#63b8ff" d="M1134.59,-109.98C1088.12,-100.76 1013.9,-86.03 963.74,-76.07"/>
<polygon fill="#63b8ff" stroke="#63b8ff" points="964.22,-72.6 953.73,-74.08 962.85,-79.46 964.22,-72.6"/>
</a>
</g>
</g>
<!-- Node25&#45;&gt;Node15 -->
<g id="edge56_Node000025_Node000015" class="edge">
<title>Node25&#45;&gt;Node15</title>
<g id="a_edge56_Node000025_Node000015"><a xlink:title=" ">
<path fill="none" stroke="#63b8ff" d="M1186.28,-109.79C1198.48,-96.64 1217.55,-71.5 1203.49,-55 1172.6,-18.75 1027.29,-11.92 960.38,-10.71"/>
<polygon fill="#63b8ff" stroke="#63b8ff" points="960.39,-7.21 950.34,-10.56 960.29,-14.21 960.39,-7.21"/>
</a>
</g>
</g>
<!-- Node26 -->
<g id="Node000026" class="node">
<title>Node26</title>
<g id="a_Node000026"><a xlink:title=" ">
<polygon fill="#e0e0e0" stroke="#999999" points="1098.49,-74 972.49,-74 972.49,-55 1098.49,-55 1098.49,-74"/>
<text text-anchor="middle" x="1035.49" y="-62" font-family="Helvetica,sans-Serif" font-size="10.00">c10/core/DeviceType.h</text>
</a>
</g>
</g>
<!-- Node25&#45;&gt;Node26 -->
<g id="edge47_Node000025_Node000026" class="edge">
<title>Node25&#45;&gt;Node26</title>
<g id="a_edge47_Node000025_Node000026"><a xlink:title=" ">
<path fill="none" stroke="#63b8ff" d="M1154.68,-109.98C1131.32,-101.27 1094.79,-87.63 1068.32,-77.75"/>
<polygon fill="#63b8ff" stroke="#63b8ff" points="1069.31,-74.39 1058.72,-74.17 1066.87,-80.95 1069.31,-74.39"/>
</a>
</g>
</g>
<!-- Node25&#45;&gt;Node27 -->
<g id="edge49_Node000025_Node000027" class="edge">
<title>Node25&#45;&gt;Node27</title>
<g id="a_edge49_Node000025_Node000027"><a xlink:title=" ">
<path fill="none" stroke="#63b8ff" d="M1202.23,-109.98C1227.87,-101.16 1268.12,-87.31 1296.9,-77.41"/>
<polygon fill="#63b8ff" stroke="#63b8ff" points="1298.24,-80.65 1306.55,-74.08 1295.96,-74.03 1298.24,-80.65"/>
</a>
</g>
</g>
<!-- Node29 -->
<g id="Node000029" class="node">
<title>Node29</title>
<g id="a_Node000029"><a xlink:title=" ">
<polygon fill="#e0e0e0" stroke="#999999" points="1194.49,-74 1116.49,-74 1116.49,-55 1194.49,-55 1194.49,-74"/>
<text text-anchor="middle" x="1155.49" y="-62" font-family="Helvetica,sans-Serif" font-size="10.00">torch/torch.h</text>
</a>
</g>
</g>
<!-- Node25&#45;&gt;Node29 -->
<g id="edge54_Node000025_Node000029" class="edge">
<title>Node25&#45;&gt;Node29</title>
<g id="a_edge54_Node000025_Node000029"><a xlink:title=" ">
<path fill="none" stroke="#63b8ff" d="M1173.86,-109.75C1170.91,-102.65 1166.66,-92.4 1162.99,-83.56"/>
<polygon fill="#63b8ff" stroke="#63b8ff" points="1166.12,-81.98 1159.06,-74.09 1159.66,-84.67 1166.12,-81.98"/>
</a>
</g>
</g>
<!-- Node27&#45;&gt;Node3 -->
<g id="edge52_Node000027_Node000003" class="edge">
<title>Node27&#45;&gt;Node3</title>
<g id="a_edge52_Node000027_Node000003"><a xlink:title=" ">
<path fill="none" stroke="#63b8ff" d="M1337.27,-54.75C1342.11,-47.42 1349.17,-36.73 1355.14,-27.7"/>
<polygon fill="#63b8ff" stroke="#63b8ff" points="1358.23,-29.36 1360.82,-19.09 1352.39,-25.5 1358.23,-29.36"/>
</a>
</g>
</g>
<!-- Node27&#45;&gt;Node4 -->
<g id="edge50_Node000027_Node000004" class="edge">
<title>Node27&#45;&gt;Node4</title>
<g id="a_edge50_Node000027_Node000004"><a xlink:title=" ">
<path fill="none" stroke="#63b8ff" d="M1288.83,-60.62C1263.94,-58.96 1231.94,-56.83 1203.49,-55 940.4,-38.07 622.72,-18.62 521.85,-12.47"/>
<polygon fill="#63b8ff" stroke="#63b8ff" points="521.9,-8.97 511.7,-11.85 521.47,-15.95 521.9,-8.97"/>
</a>
</g>
</g>
<!-- Node27&#45;&gt;Node15 -->
<g id="edge51_Node000027_Node000015" class="edge">
<title>Node27&#45;&gt;Node15</title>
<g id="a_edge51_Node000027_Node000015"><a xlink:title=" ">
<path fill="none" stroke="#63b8ff" d="M1288.86,-57.04C1284.02,-56.34 1279.15,-55.65 1274.49,-55 1159.28,-39.05 1022.32,-22.13 960.16,-14.57"/>
<polygon fill="#63b8ff" stroke="#63b8ff" points="960.49,-11.08 950.14,-13.35 959.65,-18.03 960.49,-11.08"/>
</a>
</g>
</g>
<!-- Node28 -->
<g id="Node000028" class="node">
<title>Node28</title>
<g id="a_Node000028"><a xlink:href="enums_8h.html" target="_top" xlink:title=" ">
<polygon fill="white" stroke="#666666" points="1328.99,-19 1233.99,-19 1233.99,0 1328.99,0 1328.99,-19"/>
<text text-anchor="middle" x="1281.49" y="-7" font-family="Helvetica,sans-Serif" font-size="10.00">structs/enums.h</text>
</a>
</g>
</g>
<!-- Node27&#45;&gt;Node28 -->
<g id="edge53_Node000027_Node000028" class="edge">
<title>Node27&#45;&gt;Node28</title>
<g id="a_edge53_Node000027_Node000028"><a xlink:title=" ">
<path fill="none" stroke="#63b8ff" d="M1323.24,-54.75C1316.03,-47.11 1305.38,-35.82 1296.65,-26.56"/>
<polygon fill="#63b8ff" stroke="#63b8ff" points="1299,-23.96 1289.59,-19.09 1293.91,-28.76 1299,-23.96"/>
</a>
</g>
</g>
<!-- Node30&#45;&gt;Node4 -->
<g id="edge64_Node000030_Node000004" class="edge">
<title>Node30&#45;&gt;Node4</title>
<g id="a_edge64_Node000030_Node000004"><a xlink:title=" ">
<path fill="none" stroke="#63b8ff" d="M489.49,-54.75C489.49,-47.8 489.49,-37.85 489.49,-29.13"/>
<polygon fill="#63b8ff" stroke="#63b8ff" points="492.99,-29.09 489.49,-19.09 485.99,-29.09 492.99,-29.09"/>
</a>
</g>
</g>
<!-- Node30&#45;&gt;Node15 -->
<g id="edge65_Node000030_Node000015" class="edge">
<title>Node30&#45;&gt;Node15</title>
<g id="a_edge65_Node000030_Node000015"><a xlink:title=" ">
<path fill="none" stroke="#63b8ff" d="M540.06,-57.63C611.64,-49.28 746.61,-33.38 861.49,-19 871.63,-17.73 882.66,-16.31 892.7,-14.99"/>
<polygon fill="#63b8ff" stroke="#63b8ff" points="893.27,-18.45 902.73,-13.67 892.36,-11.51 893.27,-18.45"/>
</a>
</g>
</g>
</g>
</svg>

<g id="navigator" transform="translate(0 0)" fill="#404254">
  <rect fill="#f2f5e9" fill-opacity="0.5" stroke="#606060" stroke-width=".5" x="0" y="0" width="60" height="60"/>
  <use id="zoomplus" xlink:href="#zoomPlus" x="17" y="9" onmousedown="handleZoom(evt,'in')"/>
  <use id="zoomminus" xlink:href="#zoomMin" x="42" y="9" onmousedown="handleZoom(evt,'out')"/>
  <use id="reset" xlink:href="#resetDef" x="30" y="36" onmousedown="handleReset()"/>
   <use id="arrowup" xlink:href="#arrowUp" x="0" y="0" onmousedown="handlePan(0,-1)"/>
  <use id="arrowright" xlink:href="#arrowRight" x="0" y="0" onmousedown="handlePan(1,0)"/>
  <use id="arrowdown" xlink:href="#arrowDown" x="0" y="0" onmousedown="handlePan(0,1)"/>
  <use id="arrowleft" xlink:href="#arrowLeft" x="0" y="0" onmousedown="handlePan(-1,0)"/>
</g>
<svg viewBox="0 0 15 15" width="100%" height="30px" preserveAspectRatio="xMaxYMin meet">
 <g id="arrow_out" transform="scale(0.3 0.3)">
  <a xlink:href="io_2cxx_2root_8cxx__incl_org.svg" target="_base">
   <rect id="button" ry="5" rx="5" y="6" x="6" height="38" width="38"
        fill="#f2f5e9" fill-opacity="0.5" stroke="#606060" stroke-width="1.0"/>
   <path id="arrow"
     d="M 11.500037,31.436501 C 11.940474,20.09759 22.043105,11.32322 32.158766,21.979434 L 37.068811,17.246167 C 37.068811,17.246167 37.088388,32 37.088388,32 L 22.160133,31.978069 C 22.160133,31.978069 26.997745,27.140456 26.997745,27.140456 C 18.528582,18.264221 13.291696,25.230495 11.500037,31.436501 z"
     style="fill:#404040;"/>
  </a>
 </g>
</svg>

<style type='text/css'>
<![CDATA[
[data-mouse-over-selected='false'] { opacity: 0.7; }
[data-mouse-over-selected='true']  { opacity: 1.0; }
]]>
</style>
<script type="application/ecmascript"><![CDATA[
document.addEventListener('DOMContentLoaded', (event) => {
  highlightEdges();
  highlightAdjacentNodes();
});
]]></script>
</svg>
