<?xml version="1.0" encoding="UTF-8" standalone="no"?>
<!DOCTYPE svg PUBLIC "-//W3C//DTD SVG 1.1//EN"
 "http://www.w3.org/Graphics/SVG/1.1/DTD/svg11.dtd">
<!-- Generated by graphviz version 2.43.0 (0)
 -->
<!-- Title: lossfx.h Pages: 1 -->
<svg width="670pt" height="192pt"
 viewBox="0.00 0.00 669.50 192.00" xmlns="http://www.w3.org/2000/svg" xmlns:xlink="http://www.w3.org/1999/xlink">
<g id="graph0" class="graph" transform="scale(1 1) rotate(0) translate(4 188)">
<title>lossfx.h</title>
<!-- Node1 -->
<g id="Node000001" class="node">
<title>Node1</title>
<g id="a_Node000001"><a xlink:title=" ">
<polygon fill="#999999" stroke="#666666" points="343.5,-184 288.5,-184 288.5,-165 343.5,-165 343.5,-184"/>
<text text-anchor="middle" x="316" y="-172" font-family="Helvetica,sans-Serif" font-size="10.00">lossfx.h</text>
</a>
</g>
</g>
<!-- Node2 -->
<g id="Node000002" class="node">
<title>Node2</title>
<g id="a_Node000002"><a xlink:title=" ">
<polygon fill="#e0e0e0" stroke="#999999" points="38,-74 0,-74 0,-55 38,-55 38,-74"/>
<text text-anchor="middle" x="19" y="-62" font-family="Helvetica,sans-Serif" font-size="10.00">map</text>
</a>
</g>
</g>
<!-- Node1&#45;&gt;Node2 -->
<g id="edge1_Node000001_Node000002" class="edge">
<title>Node1&#45;&gt;Node2</title>
<g id="a_edge1_Node000001_Node000002"><a xlink:title=" ">
<path fill="none" stroke="#63b8ff" d="M288.46,-169.91C250.42,-164.34 180.11,-151.79 124,-129 92.19,-116.08 58.82,-94.26 38.46,-79.87"/>
<polygon fill="#63b8ff" stroke="#63b8ff" points="40.49,-77.02 30.32,-74.02 36.4,-82.7 40.49,-77.02"/>
</a>
</g>
</g>
<!-- Node3 -->
<g id="Node000003" class="node">
<title>Node3</title>
<g id="a_Node000003"><a xlink:title=" ">
<polygon fill="#e0e0e0" stroke="#999999" points="103.5,-74 56.5,-74 56.5,-55 103.5,-55 103.5,-74"/>
<text text-anchor="middle" x="80" y="-62" font-family="Helvetica,sans-Serif" font-size="10.00">vector</text>
</a>
</g>
</g>
<!-- Node1&#45;&gt;Node3 -->
<g id="edge2_Node000001_Node000003" class="edge">
<title>Node1&#45;&gt;Node3</title>
<g id="a_edge2_Node000001_Node000003"><a xlink:title=" ">
<path fill="none" stroke="#63b8ff" d="M288.26,-169.69C254.85,-164.26 197.78,-152.28 154,-129 131.01,-116.78 108.93,-96.32 94.97,-81.93"/>
<polygon fill="#63b8ff" stroke="#63b8ff" points="97.15,-79.14 87.74,-74.27 92.06,-83.95 97.15,-79.14"/>
</a>
</g>
</g>
<!-- Node4 -->
<g id="Node000004" class="node">
<title>Node4</title>
<g id="a_Node000004"><a xlink:title=" ">
<polygon fill="#e0e0e0" stroke="#999999" points="357,-19 313,-19 313,0 357,0 357,-19"/>
<text text-anchor="middle" x="335" y="-7" font-family="Helvetica,sans-Serif" font-size="10.00">string</text>
</a>
</g>
</g>
<!-- Node1&#45;&gt;Node4 -->
<g id="edge3_Node000001_Node000004" class="edge">
<title>Node1&#45;&gt;Node4</title>
<g id="a_edge3_Node000001_Node000004"><a xlink:title=" ">
<path fill="none" stroke="#63b8ff" d="M317.02,-164.74C319.99,-139.31 328.64,-65.08 332.76,-29.69"/>
<polygon fill="#63b8ff" stroke="#63b8ff" points="336.29,-29.64 333.97,-19.31 329.34,-28.83 336.29,-29.64"/>
</a>
</g>
</g>
<!-- Node5 -->
<g id="Node000005" class="node">
<title>Node5</title>
<g id="a_Node000005"><a xlink:href="tools_8h.html" target="_top" xlink:title="Defines the tools class that provides general utility functions for the AnalysisG framework.">
<polygon fill="white" stroke="#666666" points="240.5,-129 163.5,-129 163.5,-110 240.5,-110 240.5,-129"/>
<text text-anchor="middle" x="202" y="-117" font-family="Helvetica,sans-Serif" font-size="10.00">tools/tools.h</text>
</a>
</g>
</g>
<!-- Node1&#45;&gt;Node5 -->
<g id="edge4_Node000001_Node000005" class="edge">
<title>Node1&#45;&gt;Node5</title>
<g id="a_edge4_Node000001_Node000005"><a xlink:title=" ">
<path fill="none" stroke="#63b8ff" d="M297.68,-164.98C279.34,-156.46 250.89,-143.23 229.77,-133.41"/>
<polygon fill="#63b8ff" stroke="#63b8ff" points="231.19,-130.21 220.65,-129.17 228.24,-136.56 231.19,-130.21"/>
</a>
</g>
</g>
<!-- Node8 -->
<g id="Node000008" class="node">
<title>Node8</title>
<g id="a_Node000008"><a xlink:title=" ">
<polygon fill="#e0e0e0" stroke="#999999" points="548,-129 470,-129 470,-110 548,-110 548,-129"/>
<text text-anchor="middle" x="509" y="-117" font-family="Helvetica,sans-Serif" font-size="10.00">torch/torch.h</text>
</a>
</g>
</g>
<!-- Node1&#45;&gt;Node8 -->
<g id="edge10_Node000001_Node000008" class="edge">
<title>Node1&#45;&gt;Node8</title>
<g id="a_edge10_Node000001_Node000008"><a xlink:title=" ">
<path fill="none" stroke="#63b8ff" d="M343.65,-165.91C376.14,-156.98 430.35,-142.1 467.8,-131.81"/>
<polygon fill="#63b8ff" stroke="#63b8ff" points="469.17,-135.07 477.88,-129.05 467.31,-128.32 469.17,-135.07"/>
</a>
</g>
</g>
<!-- Node9 -->
<g id="Node000009" class="node">
<title>Node9</title>
<g id="a_Node000009"><a xlink:href="enums_8h.html" target="_top" xlink:title=" ">
<polygon fill="white" stroke="#666666" points="661.5,-129 566.5,-129 566.5,-110 661.5,-110 661.5,-129"/>
<text text-anchor="middle" x="614" y="-117" font-family="Helvetica,sans-Serif" font-size="10.00">structs/enums.h</text>
</a>
</g>
</g>
<!-- Node1&#45;&gt;Node9 -->
<g id="edge11_Node000001_Node000009" class="edge">
<title>Node1&#45;&gt;Node9</title>
<g id="a_edge11_Node000001_Node000009"><a xlink:title=" ">
<path fill="none" stroke="#63b8ff" d="M343.5,-168.61C391.71,-160.03 492.44,-142.12 556.45,-130.74"/>
<polygon fill="#63b8ff" stroke="#63b8ff" points="557.16,-134.16 566.39,-128.97 555.93,-127.27 557.16,-134.16"/>
</a>
</g>
</g>
<!-- Node10 -->
<g id="Node000010" class="node">
<title>Node10</title>
<g id="a_Node000010"><a xlink:href="structs_2include_2structs_2optimizer_8h.html" target="_top" xlink:title="Defines the optimizer_params_t structure for configuring model optimizers.">
<polygon fill="white" stroke="#666666" points="451.5,-129 344.5,-129 344.5,-110 451.5,-110 451.5,-129"/>
<text text-anchor="middle" x="398" y="-117" font-family="Helvetica,sans-Serif" font-size="10.00">structs/optimizer.h</text>
</a>
</g>
</g>
<!-- Node1&#45;&gt;Node10 -->
<g id="edge12_Node000001_Node000010" class="edge">
<title>Node1&#45;&gt;Node10</title>
<g id="a_edge12_Node000001_Node000010"><a xlink:title=" ">
<path fill="none" stroke="#63b8ff" d="M329.17,-164.98C341.77,-156.84 361,-144.41 375.94,-134.76"/>
<polygon fill="#63b8ff" stroke="#63b8ff" points="378.09,-137.54 384.59,-129.17 374.29,-131.66 378.09,-137.54"/>
</a>
</g>
</g>
<!-- Node5&#45;&gt;Node2 -->
<g id="edge9_Node000005_Node000002" class="edge">
<title>Node5&#45;&gt;Node2</title>
<g id="a_edge9_Node000005_Node000002"><a xlink:title=" ">
<path fill="none" stroke="#63b8ff" d="M171.67,-109.94C142.34,-101.63 96.43,-88.53 47.99,-74.26"/>
<polygon fill="#63b8ff" stroke="#63b8ff" points="48.85,-70.87 38.27,-71.39 46.87,-77.58 48.85,-70.87"/>
</a>
</g>
</g>
<!-- Node5&#45;&gt;Node3 -->
<g id="edge7_Node000005_Node000003" class="edge">
<title>Node5&#45;&gt;Node3</title>
<g id="a_edge7_Node000005_Node000003"><a xlink:title=" ">
<path fill="none" stroke="#63b8ff" d="M182.4,-109.98C162.68,-101.42 132.05,-88.11 109.42,-78.28"/>
<polygon fill="#63b8ff" stroke="#63b8ff" points="110.52,-74.94 99.96,-74.17 107.74,-81.37 110.52,-74.94"/>
</a>
</g>
</g>
<!-- Node5&#45;&gt;Node4 -->
<g id="edge6_Node000005_Node000004" class="edge">
<title>Node5&#45;&gt;Node4</title>
<g id="a_edge6_Node000005_Node000004"><a xlink:title=" ">
<path fill="none" stroke="#63b8ff" d="M213.44,-109.74C225.01,-100.85 243.37,-86.62 259,-74 279.09,-57.77 301.76,-38.73 317.08,-25.76"/>
<polygon fill="#63b8ff" stroke="#63b8ff" points="319.4,-28.38 324.76,-19.24 314.87,-23.04 319.4,-28.38"/>
</a>
</g>
</g>
<!-- Node6 -->
<g id="Node000006" class="node">
<title>Node6</title>
<g id="a_Node000006"><a xlink:title=" ">
<polygon fill="#e0e0e0" stroke="#999999" points="250,-74 190,-74 190,-55 250,-55 250,-74"/>
<text text-anchor="middle" x="220" y="-62" font-family="Helvetica,sans-Serif" font-size="10.00">iostream</text>
</a>
</g>
</g>
<!-- Node5&#45;&gt;Node6 -->
<g id="edge5_Node000005_Node000006" class="edge">
<title>Node5&#45;&gt;Node6</title>
<g id="a_edge5_Node000005_Node000006"><a xlink:title=" ">
<path fill="none" stroke="#63b8ff" d="M204.97,-109.75C207.36,-102.72 210.79,-92.62 213.77,-83.84"/>
<polygon fill="#63b8ff" stroke="#63b8ff" points="217.18,-84.68 217.08,-74.09 210.55,-82.43 217.18,-84.68"/>
</a>
</g>
</g>
<!-- Node7 -->
<g id="Node000007" class="node">
<title>Node7</title>
<g id="a_Node000007"><a xlink:title=" ">
<polygon fill="#e0e0e0" stroke="#999999" points="172,-74 122,-74 122,-55 172,-55 172,-74"/>
<text text-anchor="middle" x="147" y="-62" font-family="Helvetica,sans-Serif" font-size="10.00">cstdint</text>
</a>
</g>
</g>
<!-- Node5&#45;&gt;Node7 -->
<g id="edge8_Node000005_Node000007" class="edge">
<title>Node5&#45;&gt;Node7</title>
<g id="a_edge8_Node000005_Node000007"><a xlink:title=" ">
<path fill="none" stroke="#63b8ff" d="M192.92,-109.75C184.91,-102.03 173.04,-90.6 163.38,-81.28"/>
<polygon fill="#63b8ff" stroke="#63b8ff" points="165.54,-78.51 155.91,-74.09 160.69,-83.55 165.54,-78.51"/>
</a>
</g>
</g>
<!-- Node10&#45;&gt;Node4 -->
<g id="edge13_Node000010_Node000004" class="edge">
<title>Node10&#45;&gt;Node4</title>
<g id="a_edge13_Node000010_Node000004"><a xlink:title=" ">
<path fill="none" stroke="#63b8ff" d="M392.84,-109.66C382.46,-91.85 358.84,-51.37 345.21,-28.01"/>
<polygon fill="#63b8ff" stroke="#63b8ff" points="348.11,-26.03 340.05,-19.16 342.07,-29.56 348.11,-26.03"/>
</a>
</g>
</g>
<!-- Node11 -->
<g id="Node000011" class="node">
<title>Node11</title>
<g id="a_Node000011"><a xlink:href="property_8h.html" target="_top" xlink:title="Defines the cproperty template class for property&#45;based access patterns.">
<polygon fill="white" stroke="#666666" points="483.5,-74 382.5,-74 382.5,-55 483.5,-55 483.5,-74"/>
<text text-anchor="middle" x="433" y="-62" font-family="Helvetica,sans-Serif" font-size="10.00">structs/property.h</text>
</a>
</g>
</g>
<!-- Node10&#45;&gt;Node11 -->
<g id="edge14_Node000010_Node000011" class="edge">
<title>Node10&#45;&gt;Node11</title>
<g id="a_edge14_Node000010_Node000011"><a xlink:title=" ">
<path fill="none" stroke="#63b8ff" d="M403.78,-109.75C408.62,-102.42 415.68,-91.73 421.64,-82.7"/>
<polygon fill="#63b8ff" stroke="#63b8ff" points="424.74,-84.36 427.33,-74.09 418.9,-80.5 424.74,-84.36"/>
</a>
</g>
</g>
<!-- Node11&#45;&gt;Node4 -->
<g id="edge16_Node000011_Node000004" class="edge">
<title>Node11&#45;&gt;Node4</title>
<g id="a_edge16_Node000011_Node000004"><a xlink:title=" ">
<path fill="none" stroke="#63b8ff" d="M417.25,-54.98C401.77,-46.61 377.91,-33.7 359.86,-23.95"/>
<polygon fill="#63b8ff" stroke="#63b8ff" points="361.49,-20.85 351.03,-19.17 358.16,-27.01 361.49,-20.85"/>
</a>
</g>
</g>
<!-- Node12 -->
<g id="Node000012" class="node">
<title>Node12</title>
<g id="a_Node000012"><a xlink:title=" ">
<polygon fill="#e0e0e0" stroke="#999999" points="465.5,-19 400.5,-19 400.5,0 465.5,0 465.5,-19"/>
<text text-anchor="middle" x="433" y="-7" font-family="Helvetica,sans-Serif" font-size="10.00">functional</text>
</a>
</g>
</g>
<!-- Node11&#45;&gt;Node12 -->
<g id="edge15_Node000011_Node000012" class="edge">
<title>Node11&#45;&gt;Node12</title>
<g id="a_edge15_Node000011_Node000012"><a xlink:title=" ">
<path fill="none" stroke="#63b8ff" d="M433,-54.75C433,-47.8 433,-37.85 433,-29.13"/>
<polygon fill="#63b8ff" stroke="#63b8ff" points="436.5,-29.09 433,-19.09 429.5,-29.09 436.5,-29.09"/>
</a>
</g>
</g>
</g>
</svg>
