<?xml version="1.0" encoding="UTF-8" standalone="no"?>
<!DOCTYPE svg PUBLIC "-//W3C//DTD SVG 1.1//EN"
 "http://www.w3.org/Graphics/SVG/1.1/DTD/svg11.dtd">
<!-- Generated by graphviz version 2.43.0 (0)
 -->
<!-- Title: merge_data Pages: 1 -->
<!--zoomable 791 -->

<svg id="main" version="1.1" xmlns="http://www.w3.org/2000/svg" xmlns:xlink="http://www.w3.org/1999/xlink" xml:space="preserve" onload="init(evt)">
<style type="text/css"><![CDATA[
.node, .edge {opacity: 0.7;}
.node.selected, .edge.selected {opacity: 1;}
.edge:hover path { stroke: red; }
.edge:hover polygon { stroke: red; fill: red; }
]]></style>

<defs>
  <circle id="rim" cx="0" cy="0" r="7"/>
  <circle id="rim2" cx="0" cy="0" r="3.5"/>
  <g id="zoomPlus">
    <use xlink:href="#rim" fill="#404040"><set attributeName="fill" to="#808080" begin="zoomplus.mouseover" end="zoomplus.mouseout"/></use>
    <path d="M-4,0h8M0,-4v8" fill="none" stroke="white" stroke-width="1.5" pointer-events="none"/>
  </g>
  <g id="zoomMin">
    <use xlink:href="#rim" fill="#404040"><set attributeName="fill" to="#808080" begin="zoomminus.mouseover" end="zoomminus.mouseout"/></use>
    <path d="M-4,0h8" fill="none" stroke="white" stroke-width="1.5" pointer-events="none"/>
  </g>
  <g id="arrowUp" transform="translate(30 24)">
    <use xlink:href="#rim"/>
    <path pointer-events="none" fill="none" stroke="white" stroke-width="1.5" d="M0,-3.0v7 M-2.5,-0.5L0,-3.0L2.5,-0.5"/>
  </g>
  <g id="arrowRight" transform="rotate(90) translate(36 -43)">
    <use xlink:href="#rim"/>
    <path pointer-events="none" fill="none" stroke="white" stroke-width="1.5" d="M0,-3.0v7 M-2.5,-0.5L0,-3.0L2.5,-0.5"/>
  </g>
  <g id="arrowDown" transform="rotate(180) translate(-30 -48)">
    <use xlink:href="#rim"/>
    <path pointer-events="none" fill="none" stroke="white" stroke-width="1.5" d="M0,-3.0v7 M-2.5,-0.5L0,-3.0L2.5,-0.5"/>
  </g>
  <g id="arrowLeft" transform="rotate(270) translate(-36 17)">
    <use xlink:href="#rim"/>
    <path pointer-events="none" fill="none" stroke="white" stroke-width="1.5" d="M0,-3.0v7 M-2.5,-0.5L0,-3.0L2.5,-0.5"/>
  </g>
  <g id="resetDef">
    <use xlink:href="#rim2" fill="#404040"><set attributeName="fill" to="#808080" begin="reset.mouseover" end="reset.mouseout"/></use>
  </g>
</defs>
<script type="application/ecmascript">
var viewWidth = 398;
var viewHeight = 791;
var sectionId = 'dynsection-6';
</script>
<script type="application/ecmascript" xlink:href="svg.min.js"/>
<svg id="graph" class="graph">
<g id="viewport">
<title>merge_data</title>
<!-- Node1 -->
<g id="Node000001" class="node">
<title>Node1</title>
<g id="a_Node000001"><a xlink:title=" ">
<polygon fill="#999999" stroke="#666666" points="390,-413 315,-413 315,-394 390,-394 390,-413"/>
<text text-anchor="middle" x="352.5" y="-401" font-family="Helvetica,sans-Serif" font-size="10.00">merge_data</text>
</a>
</g>
</g>
<!-- Node2 -->
<g id="Node000002" class="node">
<title>Node2</title>
<g id="a_Node000002"><a xlink:href="classmatching.html#a6a20dfdb8f6fa5a23a6859d869040417" target="_top" xlink:title=" ">
<polygon fill="white" stroke="#666666" points="263.5,-783 160.5,-783 160.5,-764 263.5,-764 263.5,-783"/>
<text text-anchor="middle" x="212" y="-771" font-family="Helvetica,sans-Serif" font-size="10.00">matching::current</text>
</a>
</g>
</g>
<!-- Node1&#45;&gt;Node2 -->
<g id="edge1_Node000001_Node000002" class="edge">
<title>Node1&#45;&gt;Node2</title>
<g id="a_edge1_Node000001_Node000002"><a xlink:title=" ">
<path fill="none" stroke="#63b8ff" d="M350.12,-422.99C345.03,-489.55 325.12,-706.37 279,-755.5 274.69,-760.09 269.34,-763.55 263.56,-766.15"/>
<polygon fill="#63b8ff" stroke="#63b8ff" points="353.61,-423.24 350.86,-413.01 346.63,-422.73 353.61,-423.24"/>
</a>
</g>
</g>
<!-- Node4 -->
<g id="Node000004" class="node">
<title>Node4</title>
<g id="a_Node000004"><a xlink:href="classmatching.html#a6925aacb40ca0e99f178d44959956fdb" target="_top" xlink:title=" ">
<polygon fill="white" stroke="#666666" points="279,-746 145,-746 145,-727 279,-727 279,-746"/>
<text text-anchor="middle" x="212" y="-734" font-family="Helvetica,sans-Serif" font-size="10.00">matching::experimental</text>
</a>
</g>
</g>
<!-- Node1&#45;&gt;Node4 -->
<g id="edge3_Node000001_Node000004" class="edge">
<title>Node1&#45;&gt;Node4</title>
<g id="a_edge3_Node000001_Node000004"><a xlink:title=" ">
<path fill="none" stroke="#63b8ff" d="M349.58,-423.33C343.15,-485.55 320.45,-675.36 279,-718.5 275.71,-721.93 271.83,-724.72 267.64,-727"/>
<polygon fill="#63b8ff" stroke="#63b8ff" points="353.07,-423.56 350.59,-413.26 346.11,-422.86 353.07,-423.56"/>
</a>
</g>
</g>
<!-- Node5 -->
<g id="Node000005" class="node">
<title>Node5</title>
<g id="a_Node000005"><a xlink:href="classregions.html#aefc0916bc31bfb139b311846a0e33c3a" target="_top" xlink:title="Merges results from another selection.">
<polygon fill="white" stroke="#666666" points="257,-709 167,-709 167,-690 257,-690 257,-709"/>
<text text-anchor="middle" x="212" y="-697" font-family="Helvetica,sans-Serif" font-size="10.00">regions::merge</text>
</a>
</g>
</g>
<!-- Node1&#45;&gt;Node5 -->
<g id="edge5_Node000001_Node000005" class="edge">
<title>Node1&#45;&gt;Node5</title>
<g id="a_edge5_Node000001_Node000005"><a xlink:title=" ">
<path fill="none" stroke="#63b8ff" d="M348.94,-423.21C341.13,-480.32 315.91,-644.18 279,-681.5 273.07,-687.5 265.35,-691.55 257.3,-694.28"/>
<polygon fill="#63b8ff" stroke="#63b8ff" points="352.41,-423.66 350.27,-413.28 345.47,-422.73 352.41,-423.66"/>
</a>
</g>
</g>
<!-- Node6 -->
<g id="Node000006" class="node">
<title>Node6</title>
<g id="a_Node000006"><a xlink:href="classmet.html#a53a217f21ee3d8969f6125e58254971c" target="_top" xlink:title="Merges results from another selection.">
<polygon fill="white" stroke="#666666" points="249,-672 175,-672 175,-653 249,-653 249,-672"/>
<text text-anchor="middle" x="212" y="-660" font-family="Helvetica,sans-Serif" font-size="10.00">met::merge</text>
</a>
</g>
</g>
<!-- Node1&#45;&gt;Node6 -->
<g id="edge6_Node000001_Node000006" class="edge">
<title>Node1&#45;&gt;Node6</title>
<g id="a_edge6_Node000001_Node000006"><a xlink:title=" ">
<path fill="none" stroke="#63b8ff" d="M351.61,-423.63C350.72,-469.63 341.89,-583.22 279,-644.5 271,-652.29 259.98,-656.79 249.23,-659.36"/>
<polygon fill="#63b8ff" stroke="#63b8ff" points="355.11,-423.49 351.69,-413.46 348.11,-423.43 355.11,-423.49"/>
</a>
</g>
</g>
<!-- Node7 -->
<g id="Node000007" class="node">
<title>Node7</title>
<g id="a_Node000007"><a xlink:href="classdecaymodes.html#a65b4213eb7aa8ede49b8113064824f99" target="_top" xlink:title="Merges results from another selection.">
<polygon fill="white" stroke="#666666" points="270,-635 154,-635 154,-616 270,-616 270,-635"/>
<text text-anchor="middle" x="212" y="-623" font-family="Helvetica,sans-Serif" font-size="10.00">decaymodes::merge</text>
</a>
</g>
</g>
<!-- Node1&#45;&gt;Node7 -->
<g id="edge7_Node000001_Node000007" class="edge">
<title>Node1&#45;&gt;Node7</title>
<g id="a_edge7_Node000001_Node000007"><a xlink:title=" ">
<path fill="none" stroke="#63b8ff" d="M350.35,-423.28C346.89,-463.94 333.16,-557.27 279,-607.5 275.34,-610.89 271.11,-613.66 266.59,-615.91"/>
<polygon fill="#63b8ff" stroke="#63b8ff" points="353.84,-423.52 351.08,-413.29 346.86,-423.01 353.84,-423.52"/>
</a>
</g>
</g>
<!-- Node8 -->
<g id="Node000008" class="node">
<title>Node8</title>
<g id="a_Node000008"><a xlink:href="classparton.html#ad1c47645aa3bfaf68c1bd33e6bf069d9" target="_top" xlink:title="Merges results from another selection.">
<polygon fill="white" stroke="#666666" points="255,-598 169,-598 169,-579 255,-579 255,-598"/>
<text text-anchor="middle" x="212" y="-586" font-family="Helvetica,sans-Serif" font-size="10.00">parton::merge</text>
</a>
</g>
</g>
<!-- Node1&#45;&gt;Node8 -->
<g id="edge8_Node000001_Node000008" class="edge">
<title>Node1&#45;&gt;Node8</title>
<g id="a_edge8_Node000001_Node000008"><a xlink:title=" ">
<path fill="none" stroke="#63b8ff" d="M348.62,-423.02C342.42,-457.93 324.49,-531.1 279,-570.5 272.27,-576.33 263.81,-580.29 255.23,-582.97"/>
<polygon fill="#63b8ff" stroke="#63b8ff" points="352.08,-423.55 350.24,-413.12 345.17,-422.42 352.08,-423.55"/>
</a>
</g>
</g>
<!-- Node9 -->
<g id="Node000009" class="node">
<title>Node9</title>
<g id="a_Node000009"><a xlink:href="classtopjets.html#a6d490674013bf38deb85e41d31aa2b9a" target="_top" xlink:title="Merges results from another selection.">
<polygon fill="white" stroke="#666666" points="256,-561 168,-561 168,-542 256,-542 256,-561"/>
<text text-anchor="middle" x="212" y="-549" font-family="Helvetica,sans-Serif" font-size="10.00">topjets::merge</text>
</a>
</g>
</g>
<!-- Node1&#45;&gt;Node9 -->
<g id="edge9_Node000001_Node000009" class="edge">
<title>Node1&#45;&gt;Node9</title>
<g id="a_edge9_Node000001_Node000009"><a xlink:title=" ">
<path fill="none" stroke="#63b8ff" d="M346.08,-422.65C337,-451.16 315.99,-504.54 279,-533.5 272.36,-538.7 264.33,-542.4 256.18,-545.03"/>
<polygon fill="#63b8ff" stroke="#63b8ff" points="349.44,-423.62 348.98,-413.03 342.74,-421.6 349.44,-423.62"/>
</a>
</g>
</g>
<!-- Node10 -->
<g id="Node000010" class="node">
<title>Node10</title>
<g id="a_Node000010"><a xlink:href="classtoptruthjets.html#acc1a029bbab73d3c6bc2a121ee64def2" target="_top" xlink:title="Merges results from another selection.">
<polygon fill="white" stroke="#666666" points="267.5,-524 156.5,-524 156.5,-505 267.5,-505 267.5,-524"/>
<text text-anchor="middle" x="212" y="-512" font-family="Helvetica,sans-Serif" font-size="10.00">toptruthjets::merge</text>
</a>
</g>
</g>
<!-- Node1&#45;&gt;Node10 -->
<g id="edge10_Node000001_Node000010" class="edge">
<title>Node1&#45;&gt;Node10</title>
<g id="a_edge10_Node000001_Node000010"><a xlink:title=" ">
<path fill="none" stroke="#63b8ff" d="M341.91,-422.03C329.99,-443.21 307.69,-477.4 279,-496.5 273.86,-499.92 268.08,-502.7 262.14,-504.95"/>
<polygon fill="#63b8ff" stroke="#63b8ff" points="345.08,-423.52 346.77,-413.06 338.93,-420.18 345.08,-423.52"/>
</a>
</g>
</g>
<!-- Node11 -->
<g id="Node000011" class="node">
<title>Node11</title>
<g id="a_Node000011"><a xlink:href="classcombinatorial.html#afcb3e3c3c11238a745f3e591162a7ae0" target="_top" xlink:title="Merges results from another selection.">
<polygon fill="white" stroke="#666666" points="273,-487 151,-487 151,-468 273,-468 273,-487"/>
<text text-anchor="middle" x="212" y="-475" font-family="Helvetica,sans-Serif" font-size="10.00">combinatorial::merge</text>
</a>
</g>
</g>
<!-- Node1&#45;&gt;Node11 -->
<g id="edge11_Node000001_Node000011" class="edge">
<title>Node1&#45;&gt;Node11</title>
<g id="a_edge11_Node000001_Node000011"><a xlink:title=" ">
<path fill="none" stroke="#63b8ff" d="M334.2,-420.04C320.29,-432.52 299.71,-449.19 279,-459.5 272.3,-462.84 264.9,-465.62 257.55,-467.92"/>
<polygon fill="#63b8ff" stroke="#63b8ff" points="336.58,-422.61 341.57,-413.26 331.85,-417.45 336.58,-422.61"/>
</a>
</g>
</g>
<!-- Node12 -->
<g id="Node000012" class="node">
<title>Node12</title>
<g id="a_Node000012"><a xlink:href="classtopefficiency.html#a4565cb0f6f962119593181f2bc313bd0" target="_top" xlink:title="Merges results from another selection.">
<polygon fill="white" stroke="#666666" points="270,-450 154,-450 154,-431 270,-431 270,-450"/>
<text text-anchor="middle" x="212" y="-438" font-family="Helvetica,sans-Serif" font-size="10.00">topefficiency::merge</text>
</a>
</g>
</g>
<!-- Node1&#45;&gt;Node12 -->
<g id="edge12_Node000001_Node000012" class="edge">
<title>Node1&#45;&gt;Node12</title>
<g id="a_edge12_Node000001_Node000012"><a xlink:title=" ">
<path fill="none" stroke="#63b8ff" d="M306.13,-415.62C287.6,-420.57 266.47,-426.22 249.03,-430.88"/>
<polygon fill="#63b8ff" stroke="#63b8ff" points="307.07,-418.99 315.83,-413.03 305.27,-412.23 307.07,-418.99"/>
</a>
</g>
</g>
<!-- Node13 -->
<g id="Node000013" class="node">
<title>Node13</title>
<g id="a_Node000013"><a xlink:href="merge__cast_8h.html#ae137607c46405e7e2c40786984696a32" target="_top" xlink:title=" ">
<polygon fill="white" stroke="#666666" points="249.5,-413 174.5,-413 174.5,-394 249.5,-394 249.5,-413"/>
<text text-anchor="middle" x="212" y="-401" font-family="Helvetica,sans-Serif" font-size="10.00">merge_data</text>
</a>
</g>
</g>
<!-- Node1&#45;&gt;Node13 -->
<g id="edge13_Node000001_Node000013" class="edge">
<title>Node1&#45;&gt;Node13</title>
<g id="a_edge13_Node000001_Node000013"><a xlink:title=" ">
<path fill="none" stroke="#63b8ff" d="M304.55,-403.5C286.73,-403.5 266.69,-403.5 249.92,-403.5"/>
<polygon fill="#63b8ff" stroke="#63b8ff" points="304.75,-407 314.75,-403.5 304.75,-400 304.75,-407"/>
</a>
</g>
</g>
<!-- Node14 -->
<g id="Node000014" class="node">
<title>Node14</title>
<g id="a_Node000014"><a xlink:href="classselection__template.html#af94793a9ffbd0996209894b6b8789372" target="_top" xlink:title=" ">
<polygon fill="white" stroke="#666666" points="267,-375.5 157,-375.5 157,-345.5 267,-345.5 267,-375.5"/>
<text text-anchor="start" x="165" y="-363.5" font-family="Helvetica,sans-Serif" font-size="10.00">selection_template</text>
<text text-anchor="middle" x="212" y="-352.5" font-family="Helvetica,sans-Serif" font-size="10.00">::merger</text>
</a>
</g>
</g>
<!-- Node1&#45;&gt;Node14 -->
<g id="edge14_Node000001_Node000014" class="edge">
<title>Node1&#45;&gt;Node14</title>
<g id="a_edge14_Node000001_Node000014"><a xlink:title=" ">
<path fill="none" stroke="#63b8ff" d="M310.93,-390.91C295.4,-386.08 277.52,-380.53 261.33,-375.51"/>
<polygon fill="#63b8ff" stroke="#63b8ff" points="310.17,-394.33 320.76,-393.96 312.25,-387.65 310.17,-394.33"/>
</a>
</g>
</g>
<!-- Node15 -->
<g id="Node000015" class="node">
<title>Node15</title>
<g id="a_Node000015"><a xlink:href="classmatching.html#a7c3eb589ac6ae85490aa698d73fe8b88" target="_top" xlink:title=" ">
<polygon fill="white" stroke="#666666" points="269.5,-327 154.5,-327 154.5,-308 269.5,-308 269.5,-327"/>
<text text-anchor="middle" x="212" y="-315" font-family="Helvetica,sans-Serif" font-size="10.00">matching::reference</text>
</a>
</g>
</g>
<!-- Node1&#45;&gt;Node15 -->
<g id="edge15_Node000001_Node000015" class="edge">
<title>Node1&#45;&gt;Node15</title>
<g id="a_edge15_Node000001_Node000015"><a xlink:title=" ">
<path fill="none" stroke="#63b8ff" d="M336.98,-386.11C323.44,-370.95 301.93,-349.42 279,-336.5 272.25,-332.7 264.67,-329.6 257.12,-327.09"/>
<polygon fill="#63b8ff" stroke="#63b8ff" points="334.44,-388.52 343.64,-393.78 339.73,-383.93 334.44,-388.52"/>
</a>
</g>
</g>
<!-- Node16 -->
<g id="Node000016" class="node">
<title>Node16</title>
<g id="a_Node000016"><a xlink:href="classchildrenkinematics.html#a9dfe1425443601d0af03eab580722b76" target="_top" xlink:title="Alternative selection strategy method.">
<polygon fill="white" stroke="#666666" points="267,-289.5 157,-289.5 157,-259.5 267,-259.5 267,-289.5"/>
<text text-anchor="start" x="165" y="-277.5" font-family="Helvetica,sans-Serif" font-size="10.00">childrenkinematics</text>
<text text-anchor="middle" x="212" y="-266.5" font-family="Helvetica,sans-Serif" font-size="10.00">::strategy</text>
</a>
</g>
</g>
<!-- Node1&#45;&gt;Node16 -->
<g id="edge17_Node000001_Node000016" class="edge">
<title>Node1&#45;&gt;Node16</title>
<g id="a_edge17_Node000001_Node000016"><a xlink:title=" ">
<path fill="none" stroke="#63b8ff" d="M342.77,-384.61C331.22,-361.54 308.79,-322.72 279,-299.5 274.07,-295.66 268.49,-292.36 262.7,-289.53"/>
<polygon fill="#63b8ff" stroke="#63b8ff" points="339.67,-386.24 347.17,-393.72 345.97,-383.19 339.67,-386.24"/>
</a>
</g>
</g>
<!-- Node17 -->
<g id="Node000017" class="node">
<title>Node17</title>
<g id="a_Node000017"><a xlink:href="classdecaymodes.html#abfec366758f5b7885063a349cfcda394" target="_top" xlink:title="Alternative selection strategy method.">
<polygon fill="white" stroke="#666666" points="274.5,-241 149.5,-241 149.5,-222 274.5,-222 274.5,-241"/>
<text text-anchor="middle" x="212" y="-229" font-family="Helvetica,sans-Serif" font-size="10.00">decaymodes::strategy</text>
</a>
</g>
</g>
<!-- Node1&#45;&gt;Node17 -->
<g id="edge18_Node000001_Node000017" class="edge">
<title>Node1&#45;&gt;Node17</title>
<g id="a_edge18_Node000001_Node000017"><a xlink:title=" ">
<path fill="none" stroke="#63b8ff" d="M347.66,-383.88C340.26,-351.29 320.88,-286.08 279,-250.5 274.46,-246.64 269.17,-243.56 263.6,-241.11"/>
<polygon fill="#63b8ff" stroke="#63b8ff" points="344.3,-384.89 349.8,-393.94 351.15,-383.44 344.3,-384.89"/>
</a>
</g>
</g>
<!-- Node18 -->
<g id="Node000018" class="node">
<title>Node18</title>
<g id="a_Node000018"><a xlink:href="classtopjets.html#a72145e79c19febe5393d17220c980e2a" target="_top" xlink:title="Alternative selection strategy method.">
<polygon fill="white" stroke="#666666" points="260.5,-204 163.5,-204 163.5,-185 260.5,-185 260.5,-204"/>
<text text-anchor="middle" x="212" y="-192" font-family="Helvetica,sans-Serif" font-size="10.00">topjets::strategy</text>
</a>
</g>
</g>
<!-- Node1&#45;&gt;Node18 -->
<g id="edge19_Node000001_Node000018" class="edge">
<title>Node1&#45;&gt;Node18</title>
<g id="a_edge19_Node000001_Node000018"><a xlink:title=" ">
<path fill="none" stroke="#63b8ff" d="M349.67,-383.58C345.05,-345.01 329.41,-259.84 279,-213.5 273.73,-208.66 267.31,-205.04 260.56,-202.34"/>
<polygon fill="#63b8ff" stroke="#63b8ff" points="346.24,-384.39 350.78,-393.96 353.2,-383.65 346.24,-384.39"/>
</a>
</g>
</g>
<!-- Node19 -->
<g id="Node000019" class="node">
<title>Node19</title>
<g id="a_Node000019"><a xlink:href="classtopmatching.html#acbf5d299785f024b7a4b5bd92bbfcd6f" target="_top" xlink:title="Alternative selection strategy method.">
<polygon fill="white" stroke="#666666" points="274.5,-167 149.5,-167 149.5,-148 274.5,-148 274.5,-167"/>
<text text-anchor="middle" x="212" y="-155" font-family="Helvetica,sans-Serif" font-size="10.00">topmatching::strategy</text>
</a>
</g>
</g>
<!-- Node1&#45;&gt;Node19 -->
<g id="edge20_Node000001_Node000019" class="edge">
<title>Node1&#45;&gt;Node19</title>
<g id="a_edge20_Node000001_Node000019"><a xlink:title=" ">
<path fill="none" stroke="#63b8ff" d="M351.11,-383.41C349.13,-339.43 338.11,-233.93 279,-176.5 274.98,-172.59 270.21,-169.48 265.11,-167.01"/>
<polygon fill="#63b8ff" stroke="#63b8ff" points="347.62,-383.78 351.45,-393.66 354.61,-383.54 347.62,-383.78"/>
</a>
</g>
</g>
<!-- Node20 -->
<g id="Node000020" class="node">
<title>Node20</title>
<g id="a_Node000020"><a xlink:href="classtoptruthjets.html#a39c1afcec2800b351fc047fbfa4f009f" target="_top" xlink:title="Alternative selection strategy method.">
<polygon fill="white" stroke="#666666" points="272,-130 152,-130 152,-111 272,-111 272,-130"/>
<text text-anchor="middle" x="212" y="-118" font-family="Helvetica,sans-Serif" font-size="10.00">toptruthjets::strategy</text>
</a>
</g>
</g>
<!-- Node1&#45;&gt;Node20 -->
<g id="edge21_Node000001_Node000020" class="edge">
<title>Node1&#45;&gt;Node20</title>
<g id="a_edge21_Node000001_Node000020"><a xlink:title=" ">
<path fill="none" stroke="#63b8ff" d="M352.17,-383.88C352.73,-335.33 347.18,-208.53 279,-139.5 275.15,-135.6 270.55,-132.48 265.59,-130"/>
<polygon fill="#63b8ff" stroke="#63b8ff" points="348.67,-383.91 351.95,-393.98 355.67,-384.06 348.67,-383.91"/>
</a>
</g>
</g>
<!-- Node21 -->
<g id="Node000021" class="node">
<title>Node21</title>
<g id="a_Node000021"><a xlink:href="classzprime.html#a36b1544f00cc1a4ed703ef304f923ea8" target="_top" xlink:title="Alternative selection strategy method.">
<polygon fill="white" stroke="#666666" points="260.5,-93 163.5,-93 163.5,-74 260.5,-74 260.5,-93"/>
<text text-anchor="middle" x="212" y="-81" font-family="Helvetica,sans-Serif" font-size="10.00">zprime::strategy</text>
</a>
</g>
</g>
<!-- Node1&#45;&gt;Node21 -->
<g id="edge22_Node000001_Node000021" class="edge">
<title>Node1&#45;&gt;Node21</title>
<g id="a_edge22_Node000001_Node000021"><a xlink:title=" ">
<path fill="none" stroke="#63b8ff" d="M349.33,-383.8C342.33,-323.61 318.45,-143.73 279,-102.5 273.97,-97.25 267.59,-93.42 260.79,-90.63"/>
<polygon fill="#63b8ff" stroke="#63b8ff" points="345.87,-384.33 350.48,-393.88 352.83,-383.55 345.87,-384.33"/>
</a>
</g>
</g>
<!-- Node22 -->
<g id="Node000022" class="node">
<title>Node22</title>
<g id="a_Node000022"><a xlink:href="classcombinatorial.html#a5cd8d199d3f8fe6c9f0b8e1c2e2f7bfd" target="_top" xlink:title="Alternative selection strategy method.">
<polygon fill="white" stroke="#666666" points="277.5,-56 146.5,-56 146.5,-37 277.5,-37 277.5,-56"/>
<text text-anchor="middle" x="212" y="-44" font-family="Helvetica,sans-Serif" font-size="10.00">combinatorial::strategy</text>
</a>
</g>
</g>
<!-- Node1&#45;&gt;Node22 -->
<g id="edge23_Node000001_Node000022" class="edge">
<title>Node1&#45;&gt;Node22</title>
<g id="a_edge23_Node000001_Node000022"><a xlink:title=" ">
<path fill="none" stroke="#63b8ff" d="M349.87,-383.55C344.16,-318.27 322.94,-112.58 279,-65.5 275.42,-61.66 271.12,-58.59 266.46,-56.12"/>
<polygon fill="#63b8ff" stroke="#63b8ff" points="346.4,-384.05 350.74,-393.72 353.38,-383.46 346.4,-384.05"/>
</a>
</g>
</g>
<!-- Node23 -->
<g id="Node000023" class="node">
<title>Node23</title>
<g id="a_Node000023"><a xlink:href="classvalidation.html#af388ba0e867008a75602581fdc2ed0f3" target="_top" xlink:title="Alternative selection strategy method.">
<polygon fill="white" stroke="#666666" points="268,-19 156,-19 156,0 268,0 268,-19"/>
<text text-anchor="middle" x="212" y="-7" font-family="Helvetica,sans-Serif" font-size="10.00">validation::strategy</text>
</a>
</g>
</g>
<!-- Node1&#45;&gt;Node23 -->
<g id="edge24_Node000001_Node000023" class="edge">
<title>Node1&#45;&gt;Node23</title>
<g id="a_edge24_Node000001_Node000023"><a xlink:title=" ">
<path fill="none" stroke="#63b8ff" d="M350.34,-383.67C345.87,-313.96 327.53,-81.58 279,-28.5 275.46,-24.63 271.19,-21.53 266.54,-19.04"/>
<polygon fill="#63b8ff" stroke="#63b8ff" points="346.85,-383.97 350.96,-393.74 353.84,-383.54 346.85,-383.97"/>
</a>
</g>
</g>
<!-- Node3 -->
<g id="Node000003" class="node">
<title>Node3</title>
<g id="a_Node000003"><a xlink:href="classmatching.html#afbde71106947fe0f714151794c7f6259" target="_top" xlink:title="Alternative selection strategy method.">
<polygon fill="white" stroke="#666666" points="109,-746 0,-746 0,-727 109,-727 109,-746"/>
<text text-anchor="middle" x="54.5" y="-734" font-family="Helvetica,sans-Serif" font-size="10.00">matching::strategy</text>
</a>
</g>
</g>
<!-- Node2&#45;&gt;Node3 -->
<g id="edge2_Node000002_Node000003" class="edge">
<title>Node2&#45;&gt;Node3</title>
<g id="a_edge2_Node000002_Node000003"><a xlink:title=" ">
<path fill="none" stroke="#63b8ff" d="M161.17,-761.64C140.01,-756.61 115.66,-750.82 95.68,-746.06"/>
<polygon fill="#63b8ff" stroke="#63b8ff" points="160.42,-765.06 170.95,-763.97 162.04,-758.25 160.42,-765.06"/>
</a>
</g>
</g>
<!-- Node4&#45;&gt;Node3 -->
<g id="edge4_Node000004_Node000003" class="edge">
<title>Node4&#45;&gt;Node3</title>
<g id="a_edge4_Node000004_Node000003"><a xlink:title=" ">
<path fill="none" stroke="#63b8ff" d="M134.51,-736.5C125.89,-736.5 117.24,-736.5 109,-736.5"/>
<polygon fill="#63b8ff" stroke="#63b8ff" points="134.6,-740 144.6,-736.5 134.6,-733 134.6,-740"/>
</a>
</g>
</g>
<!-- Node15&#45;&gt;Node3 -->
<g id="edge16_Node000015_Node000003" class="edge">
<title>Node15&#45;&gt;Node3</title>
<g id="a_edge16_Node000015_Node000003"><a xlink:title=" ">
<path fill="none" stroke="#63b8ff" d="M148.95,-332.82C147.56,-333.96 146.24,-335.19 145,-336.5 88.9,-396.08 61.36,-671.48 56.35,-726.8"/>
<polygon fill="#63b8ff" stroke="#63b8ff" points="151.14,-335.57 157.58,-327.15 147.3,-329.72 151.14,-335.57"/>
</a>
</g>
</g>
</g>
</svg>

<g id="navigator" transform="translate(0 0)" fill="#404254">
  <rect fill="#f2f5e9" fill-opacity="0.5" stroke="#606060" stroke-width=".5" x="0" y="0" width="60" height="60"/>
  <use id="zoomplus" xlink:href="#zoomPlus" x="17" y="9" onmousedown="handleZoom(evt,'in')"/>
  <use id="zoomminus" xlink:href="#zoomMin" x="42" y="9" onmousedown="handleZoom(evt,'out')"/>
  <use id="reset" xlink:href="#resetDef" x="30" y="36" onmousedown="handleReset()"/>
   <use id="arrowup" xlink:href="#arrowUp" x="0" y="0" onmousedown="handlePan(0,-1)"/>
  <use id="arrowright" xlink:href="#arrowRight" x="0" y="0" onmousedown="handlePan(1,0)"/>
  <use id="arrowdown" xlink:href="#arrowDown" x="0" y="0" onmousedown="handlePan(0,1)"/>
  <use id="arrowleft" xlink:href="#arrowLeft" x="0" y="0" onmousedown="handlePan(-1,0)"/>
</g>
<svg viewBox="0 0 15 15" width="100%" height="30px" preserveAspectRatio="xMaxYMin meet">
 <g id="arrow_out" transform="scale(0.3 0.3)">
  <a xlink:href="merge__cast_8h_a205af11d07be8d10770e7392817fc5c3_icgraph_org.svg" target="_base">
   <rect id="button" ry="5" rx="5" y="6" x="6" height="38" width="38"
        fill="#f2f5e9" fill-opacity="0.5" stroke="#606060" stroke-width="1.0"/>
   <path id="arrow"
     d="M 11.500037,31.436501 C 11.940474,20.09759 22.043105,11.32322 32.158766,21.979434 L 37.068811,17.246167 C 37.068811,17.246167 37.088388,32 37.088388,32 L 22.160133,31.978069 C 22.160133,31.978069 26.997745,27.140456 26.997745,27.140456 C 18.528582,18.264221 13.291696,25.230495 11.500037,31.436501 z"
     style="fill:#404040;"/>
  </a>
 </g>
</svg>

<style type='text/css'>
<![CDATA[
[data-mouse-over-selected='false'] { opacity: 0.7; }
[data-mouse-over-selected='true']  { opacity: 1.0; }
]]>
</style>
<script type="application/ecmascript"><![CDATA[
document.addEventListener('DOMContentLoaded', (event) => {
  highlightEdges();
  highlightAdjacentNodes();
});
]]></script>
</svg>
