<?xml version="1.0" encoding="UTF-8" standalone="no"?>
<!DOCTYPE svg PUBLIC "-//W3C//DTD SVG 1.1//EN"
 "http://www.w3.org/Graphics/SVG/1.1/DTD/svg11.dtd">
<!-- Generated by graphviz version 2.43.0 (0)
 -->
<!-- Title: merge_cast.h Pages: 1 -->
<!--zoomable 302 -->

<svg id="main" version="1.1" xmlns="http://www.w3.org/2000/svg" xmlns:xlink="http://www.w3.org/1999/xlink" xml:space="preserve" onload="init(evt)">
<style type="text/css"><![CDATA[
.node, .edge {opacity: 0.7;}
.node.selected, .edge.selected {opacity: 1;}
.edge:hover path { stroke: red; }
.edge:hover polygon { stroke: red; fill: red; }
]]></style>

<defs>
  <circle id="rim" cx="0" cy="0" r="7"/>
  <circle id="rim2" cx="0" cy="0" r="3.5"/>
  <g id="zoomPlus">
    <use xlink:href="#rim" fill="#404040"><set attributeName="fill" to="#808080" begin="zoomplus.mouseover" end="zoomplus.mouseout"/></use>
    <path d="M-4,0h8M0,-4v8" fill="none" stroke="white" stroke-width="1.5" pointer-events="none"/>
  </g>
  <g id="zoomMin">
    <use xlink:href="#rim" fill="#404040"><set attributeName="fill" to="#808080" begin="zoomminus.mouseover" end="zoomminus.mouseout"/></use>
    <path d="M-4,0h8" fill="none" stroke="white" stroke-width="1.5" pointer-events="none"/>
  </g>
  <g id="arrowUp" transform="translate(30 24)">
    <use xlink:href="#rim"/>
    <path pointer-events="none" fill="none" stroke="white" stroke-width="1.5" d="M0,-3.0v7 M-2.5,-0.5L0,-3.0L2.5,-0.5"/>
  </g>
  <g id="arrowRight" transform="rotate(90) translate(36 -43)">
    <use xlink:href="#rim"/>
    <path pointer-events="none" fill="none" stroke="white" stroke-width="1.5" d="M0,-3.0v7 M-2.5,-0.5L0,-3.0L2.5,-0.5"/>
  </g>
  <g id="arrowDown" transform="rotate(180) translate(-30 -48)">
    <use xlink:href="#rim"/>
    <path pointer-events="none" fill="none" stroke="white" stroke-width="1.5" d="M0,-3.0v7 M-2.5,-0.5L0,-3.0L2.5,-0.5"/>
  </g>
  <g id="arrowLeft" transform="rotate(270) translate(-36 17)">
    <use xlink:href="#rim"/>
    <path pointer-events="none" fill="none" stroke="white" stroke-width="1.5" d="M0,-3.0v7 M-2.5,-0.5L0,-3.0L2.5,-0.5"/>
  </g>
  <g id="resetDef">
    <use xlink:href="#rim2" fill="#404040"><set attributeName="fill" to="#808080" begin="reset.mouseover" end="reset.mouseout"/></use>
  </g>
</defs>
<script type="application/ecmascript">
var viewWidth = 2925;
var viewHeight = 302;
var sectionId = 'dynsection-1';
</script>
<script type="application/ecmascript" xlink:href="svg.min.js"/>
<svg id="graph" class="graph">
<g id="viewport">
<title>merge_cast.h</title>
<!-- Node1 -->
<g id="Node000001" class="node">
<title>Node1</title>
<g id="a_Node000001"><a xlink:title=" ">
<polygon fill="#999999" stroke="#666666" points="1025,-294 942,-294 942,-275 1025,-275 1025,-294"/>
<text text-anchor="middle" x="983.5" y="-282" font-family="Helvetica,sans-Serif" font-size="10.00">merge_cast.h</text>
</a>
</g>
</g>
<!-- Node2 -->
<g id="Node000002" class="node">
<title>Node2</title>
<g id="a_Node000002"><a xlink:href="metric__template_8h.html" target="_top" xlink:title=" ">
<polygon fill="white" stroke="#666666" points="375,-239 268,-239 268,-220 375,-220 375,-239"/>
<text text-anchor="middle" x="321.5" y="-227" font-family="Helvetica,sans-Serif" font-size="10.00">metric_template.h</text>
</a>
</g>
</g>
<!-- Node1&#45;&gt;Node2 -->
<g id="edge1_Node000001_Node000002" class="edge">
<title>Node1&#45;&gt;Node2</title>
<g id="a_edge1_Node000001_Node000002"><a xlink:title=" ">
<path fill="none" stroke="#63b8ff" d="M931.56,-279.34C808.56,-269.49 500.44,-244.83 375.45,-234.82"/>
<polygon fill="#63b8ff" stroke="#63b8ff" points="931.59,-282.86 941.84,-280.16 932.15,-275.88 931.59,-282.86"/>
</a>
</g>
</g>
<!-- Node21 -->
<g id="Node000021" class="node">
<title>Node21</title>
<g id="a_Node000021"><a xlink:href="selection__template_8h.html" target="_top" xlink:title="Defines the selection_template base class for event selection criteria.">
<polygon fill="white" stroke="#666666" points="1756,-239 1637,-239 1637,-220 1756,-220 1756,-239"/>
<text text-anchor="middle" x="1696.5" y="-227" font-family="Helvetica,sans-Serif" font-size="10.00">selection_template.h</text>
</a>
</g>
</g>
<!-- Node1&#45;&gt;Node21 -->
<g id="edge20_Node000001_Node000021" class="edge">
<title>Node1&#45;&gt;Node21</title>
<g id="a_edge20_Node000001_Node000021"><a xlink:title=" ">
<path fill="none" stroke="#63b8ff" d="M1035.2,-279.66C1164.21,-270.07 1499.79,-245.12 1636.86,-234.93"/>
<polygon fill="#63b8ff" stroke="#63b8ff" points="1034.89,-276.17 1025.18,-280.4 1035.41,-283.15 1034.89,-276.17"/>
</a>
</g>
</g>
<!-- Node3 -->
<g id="Node000003" class="node">
<title>Node3</title>
<g id="a_Node000003"><a xlink:href="accuracy_8h.html" target="_top" xlink:title=" ">
<polygon fill="white" stroke="#666666" points="76.5,-184 8.5,-184 8.5,-165 76.5,-165 76.5,-184"/>
<text text-anchor="middle" x="42.5" y="-172" font-family="Helvetica,sans-Serif" font-size="10.00">accuracy.h</text>
</a>
</g>
</g>
<!-- Node2&#45;&gt;Node3 -->
<g id="edge2_Node000002_Node000003" class="edge">
<title>Node2&#45;&gt;Node3</title>
<g id="a_edge2_Node000002_Node000003"><a xlink:title=" ">
<path fill="none" stroke="#63b8ff" d="M266.85,-218.12C210.41,-207.4 124.09,-191 76.66,-181.99"/>
<polygon fill="#63b8ff" stroke="#63b8ff" points="266.2,-221.56 276.67,-219.98 267.5,-214.68 266.2,-221.56"/>
</a>
</g>
</g>
<!-- Node5 -->
<g id="Node000005" class="node">
<title>Node5</title>
<g id="a_Node000005"><a xlink:href="analysis_8h.html" target="_top" xlink:title="Defines the analysis class, the central orchestrator for physics analysis tasks.">
<polygon fill="white" stroke="#666666" points="746.5,-74 680.5,-74 680.5,-55 746.5,-55 746.5,-74"/>
<text text-anchor="middle" x="713.5" y="-62" font-family="Helvetica,sans-Serif" font-size="10.00">analysis.h</text>
</a>
</g>
</g>
<!-- Node2&#45;&gt;Node5 -->
<g id="edge4_Node000002_Node000005" class="edge">
<title>Node2&#45;&gt;Node5</title>
<g id="a_edge4_Node000002_Node000005"><a xlink:title=" ">
<path fill="none" stroke="#63b8ff" d="M257.51,-227.49C186.68,-224.12 87.36,-211.34 126.5,-165 198.54,-79.72 566.91,-67.52 680.26,-65.78"/>
<polygon fill="#63b8ff" stroke="#63b8ff" points="257.59,-231 267.73,-227.92 257.88,-224.01 257.59,-231"/>
</a>
</g>
</g>
<!-- Node14 -->
<g id="Node000014" class="node">
<title>Node14</title>
<g id="a_Node000014"><a xlink:href="metric_2cxx_2base_8cxx.html" target="_top" xlink:title=" ">
<polygon fill="white" stroke="#666666" points="195.5,-184 135.5,-184 135.5,-165 195.5,-165 195.5,-184"/>
<text text-anchor="middle" x="165.5" y="-172" font-family="Helvetica,sans-Serif" font-size="10.00">base.cxx</text>
</a>
</g>
</g>
<!-- Node2&#45;&gt;Node14 -->
<g id="edge13_Node000002_Node000014" class="edge">
<title>Node2&#45;&gt;Node14</title>
<g id="a_edge13_Node000002_Node000014"><a xlink:title=" ">
<path fill="none" stroke="#63b8ff" d="M286.68,-216.67C257.59,-206.79 216.8,-192.93 190.76,-184.08"/>
<polygon fill="#63b8ff" stroke="#63b8ff" points="285.84,-220.08 296.44,-219.98 288.09,-213.45 285.84,-220.08"/>
</a>
</g>
</g>
<!-- Node15 -->
<g id="Node000015" class="node">
<title>Node15</title>
<g id="a_Node000015"><a xlink:href="link_8cxx.html" target="_top" xlink:title=" ">
<polygon fill="white" stroke="#666666" points="269,-184 214,-184 214,-165 269,-165 269,-184"/>
<text text-anchor="middle" x="241.5" y="-172" font-family="Helvetica,sans-Serif" font-size="10.00">link.cxx</text>
</a>
</g>
</g>
<!-- Node2&#45;&gt;Node15 -->
<g id="edge14_Node000002_Node000015" class="edge">
<title>Node2&#45;&gt;Node15</title>
<g id="a_edge14_Node000002_Node000015"><a xlink:title=" ">
<path fill="none" stroke="#63b8ff" d="M300.25,-214.42C285.74,-204.81 266.96,-192.37 254.59,-184.17"/>
<polygon fill="#63b8ff" stroke="#63b8ff" points="298.38,-217.38 308.65,-219.98 302.24,-211.54 298.38,-217.38"/>
</a>
</g>
</g>
<!-- Node16 -->
<g id="Node000016" class="node">
<title>Node16</title>
<g id="a_Node000016"><a xlink:href="metric_8cxx.html" target="_top" xlink:title=" ">
<polygon fill="white" stroke="#666666" points="355.5,-184 287.5,-184 287.5,-165 355.5,-165 355.5,-184"/>
<text text-anchor="middle" x="321.5" y="-172" font-family="Helvetica,sans-Serif" font-size="10.00">metric.cxx</text>
</a>
</g>
</g>
<!-- Node2&#45;&gt;Node16 -->
<g id="edge15_Node000002_Node000016" class="edge">
<title>Node2&#45;&gt;Node16</title>
<g id="a_edge15_Node000002_Node000016"><a xlink:title=" ">
<path fill="none" stroke="#63b8ff" d="M321.5,-209.66C321.5,-200.93 321.5,-190.99 321.5,-184.09"/>
<polygon fill="#63b8ff" stroke="#63b8ff" points="318,-209.75 321.5,-219.75 325,-209.75 318,-209.75"/>
</a>
</g>
</g>
<!-- Node17 -->
<g id="Node000017" class="node">
<title>Node17</title>
<g id="a_Node000017"><a xlink:href="metric__template_8cxx.html" target="_top" xlink:title=" ">
<polygon fill="white" stroke="#666666" points="491.5,-184 373.5,-184 373.5,-165 491.5,-165 491.5,-184"/>
<text text-anchor="middle" x="432.5" y="-172" font-family="Helvetica,sans-Serif" font-size="10.00">metric_template.cxx</text>
</a>
</g>
</g>
<!-- Node2&#45;&gt;Node17 -->
<g id="edge16_Node000002_Node000017" class="edge">
<title>Node2&#45;&gt;Node17</title>
<g id="a_edge16_Node000002_Node000017"><a xlink:title=" ">
<path fill="none" stroke="#63b8ff" d="M348.45,-215.63C368.89,-205.87 396.45,-192.71 414.34,-184.17"/>
<polygon fill="#63b8ff" stroke="#63b8ff" points="346.85,-212.52 339.33,-219.98 349.87,-218.83 346.85,-212.52"/>
</a>
</g>
</g>
<!-- Node18 -->
<g id="Node000018" class="node">
<title>Node18</title>
<g id="a_Node000018"><a xlink:href="pagerank_8h.html" target="_top" xlink:title=" ">
<polygon fill="white" stroke="#666666" points="581,-184 510,-184 510,-165 581,-165 581,-184"/>
<text text-anchor="middle" x="545.5" y="-172" font-family="Helvetica,sans-Serif" font-size="10.00">pagerank.h</text>
</a>
</g>
</g>
<!-- Node2&#45;&gt;Node18 -->
<g id="edge17_Node000002_Node000018" class="edge">
<title>Node2&#45;&gt;Node18</title>
<g id="a_edge17_Node000002_Node000018"><a xlink:title=" ">
<path fill="none" stroke="#63b8ff" d="M367.25,-217.68C409.48,-207.68 471.34,-193.05 509.97,-183.91"/>
<polygon fill="#63b8ff" stroke="#63b8ff" points="366.41,-214.28 357.49,-219.98 368.03,-221.09 366.41,-214.28"/>
</a>
</g>
</g>
<!-- Node20 -->
<g id="Node000020" class="node">
<title>Node20</title>
<g id="a_Node000020"><a xlink:href="metric_2cxx_2properties_8cxx.html" target="_top" xlink:title=" ">
<polygon fill="white" stroke="#666666" points="685.5,-184 599.5,-184 599.5,-165 685.5,-165 685.5,-184"/>
<text text-anchor="middle" x="642.5" y="-172" font-family="Helvetica,sans-Serif" font-size="10.00">properties.cxx</text>
</a>
</g>
</g>
<!-- Node2&#45;&gt;Node20 -->
<g id="edge19_Node000002_Node000020" class="edge">
<title>Node2&#45;&gt;Node20</title>
<g id="a_edge19_Node000002_Node000020"><a xlink:title=" ">
<path fill="none" stroke="#63b8ff" d="M382.95,-218.35C446.33,-207.89 543.57,-191.83 599.29,-182.63"/>
<polygon fill="#63b8ff" stroke="#63b8ff" points="382.37,-214.9 373.07,-219.98 383.51,-221.81 382.37,-214.9"/>
</a>
</g>
</g>
<!-- Node4 -->
<g id="Node000004" class="node">
<title>Node4</title>
<g id="a_Node000004"><a xlink:href="accuracy_8cxx.html" target="_top" xlink:title=" ">
<polygon fill="white" stroke="#666666" points="79,-129 0,-129 0,-110 79,-110 79,-129"/>
<text text-anchor="middle" x="39.5" y="-117" font-family="Helvetica,sans-Serif" font-size="10.00">accuracy.cxx</text>
</a>
</g>
</g>
<!-- Node3&#45;&gt;Node4 -->
<g id="edge3_Node000003_Node000004" class="edge">
<title>Node3&#45;&gt;Node4</title>
<g id="a_edge3_Node000003_Node000004"><a xlink:title=" ">
<path fill="none" stroke="#63b8ff" d="M41.43,-154.66C40.94,-145.93 40.38,-135.99 39.99,-129.09"/>
<polygon fill="#63b8ff" stroke="#63b8ff" points="37.94,-154.96 42,-164.75 44.93,-154.57 37.94,-154.96"/>
</a>
</g>
</g>
<!-- Node6 -->
<g id="Node000006" class="node">
<title>Node6</title>
<g id="a_Node000006"><a xlink:href="analysis_8cxx.html" target="_top" xlink:title=" ">
<polygon fill="white" stroke="#666666" points="358,-19 281,-19 281,0 358,0 358,-19"/>
<text text-anchor="middle" x="319.5" y="-7" font-family="Helvetica,sans-Serif" font-size="10.00">analysis.cxx</text>
</a>
</g>
</g>
<!-- Node5&#45;&gt;Node6 -->
<g id="edge5_Node000005_Node000006" class="edge">
<title>Node5&#45;&gt;Node6</title>
<g id="a_edge5_Node000005_Node000006"><a xlink:title=" ">
<path fill="none" stroke="#63b8ff" d="M670.04,-58.58C604.38,-51 476.04,-35.58 367.5,-19 364.49,-18.54 361.37,-18.04 358.25,-17.52"/>
<polygon fill="#63b8ff" stroke="#63b8ff" points="669.69,-62.06 680.03,-59.73 670.49,-55.11 669.69,-62.06"/>
</a>
</g>
</g>
<!-- Node7 -->
<g id="Node000007" class="node">
<title>Node7</title>
<g id="a_Node000007"><a xlink:href="event__build_8cxx.html" target="_top" xlink:title=" ">
<polygon fill="white" stroke="#666666" points="470.5,-19 376.5,-19 376.5,0 470.5,0 470.5,-19"/>
<text text-anchor="middle" x="423.5" y="-7" font-family="Helvetica,sans-Serif" font-size="10.00">event_build.cxx</text>
</a>
</g>
</g>
<!-- Node5&#45;&gt;Node7 -->
<g id="edge6_Node000005_Node000007" class="edge">
<title>Node5&#45;&gt;Node7</title>
<g id="a_edge6_Node000005_Node000007"><a xlink:title=" ">
<path fill="none" stroke="#63b8ff" d="M670.35,-55.61C616.7,-45.81 525.47,-29.14 470.22,-19.04"/>
<polygon fill="#63b8ff" stroke="#63b8ff" points="669.77,-59.07 680.23,-57.42 671.03,-52.18 669.77,-59.07"/>
</a>
</g>
</g>
<!-- Node8 -->
<g id="Node000008" class="node">
<title>Node8</title>
<g id="a_Node000008"><a xlink:href="graph__build_8cxx.html" target="_top" xlink:title=" ">
<polygon fill="white" stroke="#666666" points="582.5,-19 488.5,-19 488.5,0 582.5,0 582.5,-19"/>
<text text-anchor="middle" x="535.5" y="-7" font-family="Helvetica,sans-Serif" font-size="10.00">graph_build.cxx</text>
</a>
</g>
</g>
<!-- Node5&#45;&gt;Node8 -->
<g id="edge7_Node000005_Node000008" class="edge">
<title>Node5&#45;&gt;Node8</title>
<g id="a_edge7_Node000005_Node000008"><a xlink:title=" ">
<path fill="none" stroke="#63b8ff" d="M675.06,-52.06C641.8,-42.15 594.42,-28.04 564.32,-19.08"/>
<polygon fill="#63b8ff" stroke="#63b8ff" points="674.32,-55.49 684.9,-54.98 676.32,-48.78 674.32,-55.49"/>
</a>
</g>
</g>
<!-- Node9 -->
<g id="Node000009" class="node">
<title>Node9</title>
<g id="a_Node000009"><a xlink:href="inference__build_8cxx.html" target="_top" xlink:title=" ">
<polygon fill="white" stroke="#666666" points="712.5,-19 600.5,-19 600.5,0 712.5,0 712.5,-19"/>
<text text-anchor="middle" x="656.5" y="-7" font-family="Helvetica,sans-Serif" font-size="10.00">inference_build.cxx</text>
</a>
</g>
</g>
<!-- Node5&#45;&gt;Node9 -->
<g id="edge8_Node000005_Node000009" class="edge">
<title>Node5&#45;&gt;Node9</title>
<g id="a_edge8_Node000005_Node000009"><a xlink:title=" ">
<path fill="none" stroke="#63b8ff" d="M696.88,-48.04C686.77,-38.64 674.22,-26.98 665.82,-19.17"/>
<polygon fill="#63b8ff" stroke="#63b8ff" points="694.64,-50.74 704.34,-54.98 699.4,-45.61 694.64,-50.74"/>
</a>
</g>
</g>
<!-- Node10 -->
<g id="Node000010" class="node">
<title>Node10</title>
<g id="a_Node000010"><a xlink:href="methods_8cxx.html" target="_top" xlink:title=" ">
<polygon fill="white" stroke="#666666" points="810.5,-19 730.5,-19 730.5,0 810.5,0 810.5,-19"/>
<text text-anchor="middle" x="770.5" y="-7" font-family="Helvetica,sans-Serif" font-size="10.00">methods.cxx</text>
</a>
</g>
</g>
<!-- Node5&#45;&gt;Node10 -->
<g id="edge9_Node000005_Node000010" class="edge">
<title>Node5&#45;&gt;Node10</title>
<g id="a_edge9_Node000005_Node000010"><a xlink:title=" ">
<path fill="none" stroke="#63b8ff" d="M730.12,-48.04C740.23,-38.64 752.78,-26.98 761.18,-19.17"/>
<polygon fill="#63b8ff" stroke="#63b8ff" points="727.6,-45.61 722.66,-54.98 732.36,-50.74 727.6,-45.61"/>
</a>
</g>
</g>
<!-- Node11 -->
<g id="Node000011" class="node">
<title>Node11</title>
<g id="a_Node000011"><a xlink:href="metric__build_8cxx.html" target="_top" xlink:title=" ">
<polygon fill="white" stroke="#666666" points="926.5,-19 828.5,-19 828.5,0 926.5,0 926.5,-19"/>
<text text-anchor="middle" x="877.5" y="-7" font-family="Helvetica,sans-Serif" font-size="10.00">metric_build.cxx</text>
</a>
</g>
</g>
<!-- Node5&#45;&gt;Node11 -->
<g id="edge10_Node000005_Node000011" class="edge">
<title>Node5&#45;&gt;Node11</title>
<g id="a_edge10_Node000005_Node000011"><a xlink:title=" ">
<path fill="none" stroke="#63b8ff" d="M749.71,-51.8C780.32,-41.91 823.45,-27.97 850.94,-19.08"/>
<polygon fill="#63b8ff" stroke="#63b8ff" points="748.29,-48.58 739.85,-54.98 750.44,-55.24 748.29,-48.58"/>
</a>
</g>
</g>
<!-- Node12 -->
<g id="Node000012" class="node">
<title>Node12</title>
<g id="a_Node000012"><a xlink:href="optimizer__build_8cxx.html" target="_top" xlink:title="Implementation of model session creation and management in the analysis class.">
<polygon fill="white" stroke="#666666" points="1058,-19 945,-19 945,0 1058,0 1058,-19"/>
<text text-anchor="middle" x="1001.5" y="-7" font-family="Helvetica,sans-Serif" font-size="10.00">optimizer_build.cxx</text>
</a>
</g>
</g>
<!-- Node5&#45;&gt;Node12 -->
<g id="edge11_Node000005_Node000012" class="edge">
<title>Node5&#45;&gt;Node12</title>
<g id="a_edge11_Node000005_Node000012"><a xlink:title=" ">
<path fill="none" stroke="#63b8ff" d="M756.69,-55.55C810.01,-45.74 900.34,-29.12 955.1,-19.04"/>
<polygon fill="#63b8ff" stroke="#63b8ff" points="755.74,-52.17 746.54,-57.42 757.01,-59.05 755.74,-52.17"/>
</a>
</g>
</g>
<!-- Node13 -->
<g id="Node000013" class="node">
<title>Node13</title>
<g id="a_Node000013"><a xlink:href="selection__build_8cxx.html" target="_top" xlink:title=" ">
<polygon fill="white" stroke="#666666" points="1186.5,-19 1076.5,-19 1076.5,0 1186.5,0 1186.5,-19"/>
<text text-anchor="middle" x="1131.5" y="-7" font-family="Helvetica,sans-Serif" font-size="10.00">selection_build.cxx</text>
</a>
</g>
</g>
<!-- Node5&#45;&gt;Node13 -->
<g id="edge12_Node000005_Node000013" class="edge">
<title>Node5&#45;&gt;Node13</title>
<g id="a_edge12_Node000005_Node000013"><a xlink:title=" ">
<path fill="none" stroke="#63b8ff" d="M756.71,-58.12C823.26,-49.82 954.84,-33.34 1066.5,-19 1069.66,-18.59 1072.91,-18.18 1076.18,-17.75"/>
<polygon fill="#63b8ff" stroke="#63b8ff" points="756.09,-54.67 746.6,-59.38 756.96,-61.61 756.09,-54.67"/>
</a>
</g>
</g>
<!-- Node19 -->
<g id="Node000019" class="node">
<title>Node19</title>
<g id="a_Node000019"><a xlink:href="pagerank_8cxx.html" target="_top" xlink:title=" ">
<polygon fill="white" stroke="#666666" points="587,-129 504,-129 504,-110 587,-110 587,-129"/>
<text text-anchor="middle" x="545.5" y="-117" font-family="Helvetica,sans-Serif" font-size="10.00">pagerank.cxx</text>
</a>
</g>
</g>
<!-- Node18&#45;&gt;Node19 -->
<g id="edge18_Node000018_Node000019" class="edge">
<title>Node18&#45;&gt;Node19</title>
<g id="a_edge18_Node000018_Node000019"><a xlink:title=" ">
<path fill="none" stroke="#63b8ff" d="M545.5,-154.66C545.5,-145.93 545.5,-135.99 545.5,-129.09"/>
<polygon fill="#63b8ff" stroke="#63b8ff" points="542,-154.75 545.5,-164.75 549,-154.75 542,-154.75"/>
</a>
</g>
</g>
<!-- Node21&#45;&gt;Node5 -->
<g id="edge21_Node000021_Node000005" class="edge">
<title>Node21&#45;&gt;Node5</title>
<g id="a_edge21_Node000021_Node000005"><a xlink:title=" ">
<path fill="none" stroke="#63b8ff" d="M1626.69,-227.5C1412.58,-224.13 777.6,-211.85 743.5,-184 709.64,-156.35 710.85,-96.47 712.61,-74.13"/>
<polygon fill="#63b8ff" stroke="#63b8ff" points="1626.81,-231 1636.86,-227.66 1626.92,-224 1626.81,-231"/>
</a>
</g>
</g>
<!-- Node22 -->
<g id="Node000022" class="node">
<title>Node22</title>
<g id="a_Node000022"><a xlink:href="childrenkinematics_8h.html" target="_top" xlink:title=" ">
<polygon fill="white" stroke="#666666" points="872,-184 753,-184 753,-165 872,-165 872,-184"/>
<text text-anchor="middle" x="812.5" y="-172" font-family="Helvetica,sans-Serif" font-size="10.00">childrenkinematics.h</text>
</a>
</g>
</g>
<!-- Node21&#45;&gt;Node22 -->
<g id="edge22_Node000021_Node000022" class="edge">
<title>Node21&#45;&gt;Node22</title>
<g id="a_edge22_Node000021_Node000022"><a xlink:title=" ">
<path fill="none" stroke="#63b8ff" d="M1626.71,-225.86C1486.98,-220.32 1163.03,-206.1 891.5,-184 885.31,-183.5 878.86,-182.91 872.43,-182.28"/>
<polygon fill="#63b8ff" stroke="#63b8ff" points="1626.71,-229.37 1636.84,-226.26 1626.99,-222.37 1626.71,-229.37"/>
</a>
</g>
</g>
<!-- Node24 -->
<g id="Node000024" class="node">
<title>Node24</title>
<g id="a_Node000024"><a xlink:href="combinatorial_8h.html" target="_top" xlink:title=" ">
<polygon fill="white" stroke="#666666" points="994,-184 901,-184 901,-165 994,-165 994,-184"/>
<text text-anchor="middle" x="947.5" y="-172" font-family="Helvetica,sans-Serif" font-size="10.00">combinatorial.h</text>
</a>
</g>
</g>
<!-- Node21&#45;&gt;Node24 -->
<g id="edge24_Node000021_Node000024" class="edge">
<title>Node21&#45;&gt;Node24</title>
<g id="a_edge24_Node000021_Node000024"><a xlink:title=" ">
<path fill="none" stroke="#63b8ff" d="M1626.77,-225.76C1502.21,-220.46 1233.36,-207.26 1007.5,-184 1003.21,-183.56 998.75,-183.04 994.3,-182.48"/>
<polygon fill="#63b8ff" stroke="#63b8ff" points="1626.79,-229.26 1636.93,-226.18 1627.08,-222.27 1626.79,-229.26"/>
</a>
</g>
</g>
<!-- Node26 -->
<g id="Node000026" class="node">
<title>Node26</title>
<g id="a_Node000026"><a xlink:href="container_8h.html" target="_top" xlink:title=" ">
<polygon fill="white" stroke="#666666" points="1088,-184 1017,-184 1017,-165 1088,-165 1088,-184"/>
<text text-anchor="middle" x="1052.5" y="-172" font-family="Helvetica,sans-Serif" font-size="10.00">container.h</text>
</a>
</g>
</g>
<!-- Node21&#45;&gt;Node26 -->
<g id="edge26_Node000021_Node000026" class="edge">
<title>Node21&#45;&gt;Node26</title>
<g id="a_edge26_Node000021_Node000026"><a xlink:title=" ">
<path fill="none" stroke="#63b8ff" d="M1626.61,-225.86C1514.57,-221.06 1288,-208.99 1097.5,-184 1094.5,-183.61 1091.41,-183.14 1088.3,-182.64"/>
<polygon fill="#63b8ff" stroke="#63b8ff" points="1626.62,-229.36 1636.76,-226.29 1626.92,-222.37 1626.62,-229.36"/>
</a>
</g>
</g>
<!-- Node31 -->
<g id="Node000031" class="node">
<title>Node31</title>
<g id="a_Node000031"><a xlink:href="decaymodes_8h.html" target="_top" xlink:title=" ">
<polygon fill="white" stroke="#666666" points="1194.5,-184 1106.5,-184 1106.5,-165 1194.5,-165 1194.5,-184"/>
<text text-anchor="middle" x="1150.5" y="-172" font-family="Helvetica,sans-Serif" font-size="10.00">decaymodes.h</text>
</a>
</g>
</g>
<!-- Node21&#45;&gt;Node31 -->
<g id="edge31_Node000021_Node000031" class="edge">
<title>Node21&#45;&gt;Node31</title>
<g id="a_edge31_Node000021_Node000031"><a xlink:title=" ">
<path fill="none" stroke="#63b8ff" d="M1626.51,-223.79C1530.62,-216.98 1353.13,-203.07 1202.5,-184 1199.96,-183.68 1197.35,-183.33 1194.72,-182.95"/>
<polygon fill="#63b8ff" stroke="#63b8ff" points="1626.44,-227.3 1636.66,-224.51 1626.93,-220.31 1626.44,-227.3"/>
</a>
</g>
</g>
<!-- Node33 -->
<g id="Node000033" class="node">
<title>Node33</title>
<g id="a_Node000033"><a xlink:href="selections_2mc16_2event_2event_8h.html" target="_top" xlink:title=" ">
<polygon fill="white" stroke="#666666" points="1265,-184 1212,-184 1212,-165 1265,-165 1265,-184"/>
<text text-anchor="middle" x="1238.5" y="-172" font-family="Helvetica,sans-Serif" font-size="10.00">event.h</text>
</a>
</g>
</g>
<!-- Node21&#45;&gt;Node33 -->
<g id="edge33_Node000021_Node000033" class="edge">
<title>Node21&#45;&gt;Node33</title>
<g id="a_edge33_Node000021_Node000033"><a xlink:title=" ">
<path fill="none" stroke="#63b8ff" d="M1626.75,-224.03C1542.58,-217.97 1396.95,-205.39 1273.5,-184 1270.79,-183.53 1267.98,-182.97 1265.18,-182.37"/>
<polygon fill="#63b8ff" stroke="#63b8ff" points="1626.74,-227.54 1636.96,-224.75 1627.23,-220.55 1626.74,-227.54"/>
</a>
</g>
</g>
<!-- Node35 -->
<g id="Node000035" class="node">
<title>Node35</title>
<g id="a_Node000035"><a xlink:href="matching_8h.html" target="_top" xlink:title=" ">
<polygon fill="#fff0f0" stroke="red" points="1354,-184 1283,-184 1283,-165 1354,-165 1354,-184"/>
<text text-anchor="middle" x="1318.5" y="-172" font-family="Helvetica,sans-Serif" font-size="10.00">matching.h</text>
</a>
</g>
</g>
<!-- Node21&#45;&gt;Node35 -->
<g id="edge35_Node000021_Node000035" class="edge">
<title>Node21&#45;&gt;Node35</title>
<g id="a_edge35_Node000021_Node000035"><a xlink:title=" ">
<path fill="none" stroke="#63b8ff" d="M1626.72,-220.28C1559.23,-212.08 1454.15,-198.61 1363.5,-184 1360.52,-183.52 1357.43,-182.99 1354.33,-182.45"/>
<polygon fill="#63b8ff" stroke="#63b8ff" points="1626.46,-223.78 1636.81,-221.51 1627.3,-216.83 1626.46,-223.78"/>
</a>
</g>
</g>
<!-- Node40 -->
<g id="Node000040" class="node">
<title>Node40</title>
<g id="a_Node000040"><a xlink:href="met_8h.html" target="_top" xlink:title=" ">
<polygon fill="#fff0f0" stroke="red" points="1417,-184 1372,-184 1372,-165 1417,-165 1417,-184"/>
<text text-anchor="middle" x="1394.5" y="-172" font-family="Helvetica,sans-Serif" font-size="10.00">met.h</text>
</a>
</g>
</g>
<!-- Node21&#45;&gt;Node40 -->
<g id="edge36_Node000021_Node000040" class="edge">
<title>Node21&#45;&gt;Node40</title>
<g id="a_edge36_Node000021_Node000040"><a xlink:title=" ">
<path fill="none" stroke="#63b8ff" d="M1626.99,-218.92C1572.26,-210.93 1494.17,-198.53 1426.5,-184 1423.47,-183.35 1420.29,-182.59 1417.16,-181.81"/>
<polygon fill="#63b8ff" stroke="#63b8ff" points="1626.54,-222.4 1636.93,-220.37 1627.54,-215.47 1626.54,-222.4"/>
</a>
</g>
</g>
<!-- Node42 -->
<g id="Node000042" class="node">
<title>Node42</title>
<g id="a_Node000042"><a xlink:href="parton_8h.html" target="_top" xlink:title=" ">
<polygon fill="#fff0f0" stroke="red" points="1492,-184 1435,-184 1435,-165 1492,-165 1492,-184"/>
<text text-anchor="middle" x="1463.5" y="-172" font-family="Helvetica,sans-Serif" font-size="10.00">parton.h</text>
</a>
</g>
</g>
<!-- Node21&#45;&gt;Node42 -->
<g id="edge37_Node000021_Node000042" class="edge">
<title>Node21&#45;&gt;Node42</title>
<g id="a_edge37_Node000021_Node000042"><a xlink:title=" ">
<path fill="none" stroke="#63b8ff" d="M1649.09,-217.72C1601.94,-206.99 1531.15,-190.89 1492.03,-181.99"/>
<polygon fill="#63b8ff" stroke="#63b8ff" points="1648.54,-221.18 1659.06,-219.98 1650.09,-214.35 1648.54,-221.18"/>
</a>
</g>
</g>
<!-- Node44 -->
<g id="Node000044" class="node">
<title>Node44</title>
<g id="a_Node000044"><a xlink:href="selection_2cxx_2properties_8cxx.html" target="_top" xlink:title=" ">
<polygon fill="white" stroke="#666666" points="1596.5,-184 1510.5,-184 1510.5,-165 1596.5,-165 1596.5,-184"/>
<text text-anchor="middle" x="1553.5" y="-172" font-family="Helvetica,sans-Serif" font-size="10.00">properties.cxx</text>
</a>
</g>
</g>
<!-- Node21&#45;&gt;Node44 -->
<g id="edge38_Node000021_Node000044" class="edge">
<title>Node21&#45;&gt;Node44</title>
<g id="a_edge38_Node000021_Node000044"><a xlink:title=" ">
<path fill="none" stroke="#63b8ff" d="M1663.91,-216.42C1637.38,-206.59 1600.57,-192.95 1576.89,-184.17"/>
<polygon fill="#63b8ff" stroke="#63b8ff" points="1662.93,-219.79 1673.52,-219.98 1665.36,-213.23 1662.93,-219.79"/>
</a>
</g>
</g>
<!-- Node45 -->
<g id="Node000045" class="node">
<title>Node45</title>
<g id="a_Node000045"><a xlink:href="regions_8h.html" target="_top" xlink:title=" ">
<polygon fill="#fff0f0" stroke="red" points="1676.5,-184 1614.5,-184 1614.5,-165 1676.5,-165 1676.5,-184"/>
<text text-anchor="middle" x="1645.5" y="-172" font-family="Helvetica,sans-Serif" font-size="10.00">regions.h</text>
</a>
</g>
</g>
<!-- Node21&#45;&gt;Node45 -->
<g id="edge39_Node000021_Node000045" class="edge">
<title>Node21&#45;&gt;Node45</title>
<g id="a_edge39_Node000021_Node000045"><a xlink:title=" ">
<path fill="none" stroke="#63b8ff" d="M1681.12,-212.52C1672.13,-203.18 1661.14,-191.75 1653.76,-184.09"/>
<polygon fill="#63b8ff" stroke="#63b8ff" points="1678.62,-214.97 1688.08,-219.75 1683.67,-210.12 1678.62,-214.97"/>
</a>
</g>
</g>
<!-- Node47 -->
<g id="Node000047" class="node">
<title>Node47</title>
<g id="a_Node000047"><a xlink:href="selection__core_8cxx.html" target="_top" xlink:title=" ">
<polygon fill="white" stroke="#666666" points="1802,-184 1695,-184 1695,-165 1802,-165 1802,-184"/>
<text text-anchor="middle" x="1748.5" y="-172" font-family="Helvetica,sans-Serif" font-size="10.00">selection_core.cxx</text>
</a>
</g>
</g>
<!-- Node21&#45;&gt;Node47 -->
<g id="edge40_Node000021_Node000047" class="edge">
<title>Node21&#45;&gt;Node47</title>
<g id="a_edge40_Node000021_Node000047"><a xlink:title=" ">
<path fill="none" stroke="#63b8ff" d="M1712.18,-212.52C1721.34,-203.18 1732.55,-191.75 1740.07,-184.09"/>
<polygon fill="#63b8ff" stroke="#63b8ff" points="1709.59,-210.16 1705.09,-219.75 1714.59,-215.06 1709.59,-210.16"/>
</a>
</g>
</g>
<!-- Node48 -->
<g id="Node000048" class="node">
<title>Node48</title>
<g id="a_Node000048"><a xlink:href="selection__template_8cxx.html" target="_top" xlink:title=" ">
<polygon fill="white" stroke="#666666" points="1951,-184 1820,-184 1820,-165 1951,-165 1951,-184"/>
<text text-anchor="middle" x="1885.5" y="-172" font-family="Helvetica,sans-Serif" font-size="10.00">selection_template.cxx</text>
</a>
</g>
</g>
<!-- Node21&#45;&gt;Node48 -->
<g id="edge41_Node000021_Node000048" class="edge">
<title>Node21&#45;&gt;Node48</title>
<g id="a_edge41_Node000021_Node000048"><a xlink:title=" ">
<path fill="none" stroke="#63b8ff" d="M1736.85,-217.18C1772.2,-207.27 1822.8,-193.08 1854.9,-184.08"/>
<polygon fill="#63b8ff" stroke="#63b8ff" points="1735.55,-213.91 1726.87,-219.98 1737.44,-220.65 1735.55,-213.91"/>
</a>
</g>
</g>
<!-- Node49 -->
<g id="Node000049" class="node">
<title>Node49</title>
<g id="a_Node000049"><a xlink:href="topefficiency_8h.html" target="_top" xlink:title="Top efficiency selection class.">
<polygon fill="#fff0f0" stroke="red" points="2056,-184 1969,-184 1969,-165 2056,-165 2056,-184"/>
<text text-anchor="middle" x="2012.5" y="-172" font-family="Helvetica,sans-Serif" font-size="10.00">topefficiency.h</text>
</a>
</g>
</g>
<!-- Node21&#45;&gt;Node49 -->
<g id="edge42_Node000021_Node000049" class="edge">
<title>Node21&#45;&gt;Node49</title>
<g id="a_edge42_Node000021_Node000049"><a xlink:title=" ">
<path fill="none" stroke="#63b8ff" d="M1757.32,-218.3C1819.35,-207.9 1914.07,-192.01 1968.98,-182.8"/>
<polygon fill="#63b8ff" stroke="#63b8ff" points="1756.55,-214.88 1747.27,-219.98 1757.71,-221.78 1756.55,-214.88"/>
</a>
</g>
</g>
<!-- Node51 -->
<g id="Node000051" class="node">
<title>Node51</title>
<g id="a_Node000051"><a xlink:href="topjets_8h.html" target="_top" xlink:title=" ">
<polygon fill="#fff0f0" stroke="red" points="2133,-184 2074,-184 2074,-165 2133,-165 2133,-184"/>
<text text-anchor="middle" x="2103.5" y="-172" font-family="Helvetica,sans-Serif" font-size="10.00">topjets.h</text>
</a>
</g>
</g>
<!-- Node21&#45;&gt;Node51 -->
<g id="edge43_Node000021_Node000051" class="edge">
<title>Node21&#45;&gt;Node51</title>
<g id="a_edge43_Node000021_Node000051"><a xlink:title=" ">
<path fill="none" stroke="#63b8ff" d="M1766.39,-222.17C1840.82,-214.95 1961.94,-201.78 2065.5,-184 2068.17,-183.54 2070.93,-183.02 2073.69,-182.46"/>
<polygon fill="#63b8ff" stroke="#63b8ff" points="1765.82,-218.71 1756.2,-223.15 1766.49,-225.68 1765.82,-218.71"/>
</a>
</g>
</g>
<!-- Node53 -->
<g id="Node000053" class="node">
<title>Node53</title>
<g id="a_Node000053"><a xlink:href="mc20_2topkinematics_2topkinematics_8h.html" target="_top" xlink:title=" ">
<polygon fill="#fff0f0" stroke="red" points="2246,-184 2151,-184 2151,-165 2246,-165 2246,-184"/>
<text text-anchor="middle" x="2198.5" y="-172" font-family="Helvetica,sans-Serif" font-size="10.00">topkinematics.h</text>
</a>
</g>
</g>
<!-- Node21&#45;&gt;Node53 -->
<g id="edge44_Node000021_Node000053" class="edge">
<title>Node21&#45;&gt;Node53</title>
<g id="a_edge44_Node000021_Node000053"><a xlink:title=" ">
<path fill="none" stroke="#63b8ff" d="M1766.24,-222.65C1854.13,-215.03 2009.75,-200.69 2142.5,-184 2145.23,-183.66 2148.04,-183.29 2150.86,-182.9"/>
<polygon fill="#63b8ff" stroke="#63b8ff" points="1765.79,-219.18 1756.13,-223.53 1766.39,-226.15 1765.79,-219.18"/>
</a>
</g>
</g>
<!-- Node55 -->
<g id="Node000055" class="node">
<title>Node55</title>
<g id="a_Node000055"><a xlink:href="mc16_2topkinematics_2topkinematics_8h.html" target="_top" xlink:title=" ">
<polygon fill="#fff0f0" stroke="red" points="2359,-184 2264,-184 2264,-165 2359,-165 2359,-184"/>
<text text-anchor="middle" x="2311.5" y="-172" font-family="Helvetica,sans-Serif" font-size="10.00">topkinematics.h</text>
</a>
</g>
</g>
<!-- Node21&#45;&gt;Node55 -->
<g id="edge45_Node000021_Node000055" class="edge">
<title>Node21&#45;&gt;Node55</title>
<g id="a_edge45_Node000021_Node000055"><a xlink:title=" ">
<path fill="none" stroke="#63b8ff" d="M1766.45,-224.54C1872.45,-218.17 2080.01,-204.28 2255.5,-184 2258.24,-183.68 2261.04,-183.34 2263.87,-182.97"/>
<polygon fill="#63b8ff" stroke="#63b8ff" points="1765.98,-221.06 1756.2,-225.15 1766.39,-228.05 1765.98,-221.06"/>
</a>
</g>
</g>
<!-- Node57 -->
<g id="Node000057" class="node">
<title>Node57</title>
<g id="a_Node000057"><a xlink:href="mc16_2topmatching_2topmatching_8h.html" target="_top" xlink:title=" ">
<polygon fill="#fff0f0" stroke="red" points="2464,-184 2377,-184 2377,-165 2464,-165 2464,-184"/>
<text text-anchor="middle" x="2420.5" y="-172" font-family="Helvetica,sans-Serif" font-size="10.00">topmatching.h</text>
</a>
</g>
</g>
<!-- Node21&#45;&gt;Node57 -->
<g id="edge46_Node000021_Node000057" class="edge">
<title>Node21&#45;&gt;Node57</title>
<g id="a_edge46_Node000021_Node000057"><a xlink:title=" ">
<path fill="none" stroke="#63b8ff" d="M1766.34,-226.08C1888.67,-221.36 2149.53,-209.09 2368.5,-184 2371.23,-183.69 2374.03,-183.33 2376.85,-182.95"/>
<polygon fill="#63b8ff" stroke="#63b8ff" points="1765.86,-222.6 1756,-226.48 1766.13,-229.59 1765.86,-222.6"/>
</a>
</g>
</g>
<!-- Node59 -->
<g id="Node000059" class="node">
<title>Node59</title>
<g id="a_Node000059"><a xlink:href="mc20_2topmatching_2topmatching_8h.html" target="_top" xlink:title=" ">
<polygon fill="#fff0f0" stroke="red" points="2569,-184 2482,-184 2482,-165 2569,-165 2569,-184"/>
<text text-anchor="middle" x="2525.5" y="-172" font-family="Helvetica,sans-Serif" font-size="10.00">topmatching.h</text>
</a>
</g>
</g>
<!-- Node21&#45;&gt;Node59 -->
<g id="edge47_Node000021_Node000059" class="edge">
<title>Node21&#45;&gt;Node59</title>
<g id="a_edge47_Node000021_Node000059"><a xlink:title=" ">
<path fill="none" stroke="#63b8ff" d="M1766.44,-226.95C1902.81,-223.39 2213.67,-212.6 2473.5,-184 2476.23,-183.7 2479.03,-183.35 2481.85,-182.98"/>
<polygon fill="#63b8ff" stroke="#63b8ff" points="1766.05,-223.46 1756.14,-227.21 1766.23,-230.46 1766.05,-223.46"/>
</a>
</g>
</g>
<!-- Node61 -->
<g id="Node000061" class="node">
<title>Node61</title>
<g id="a_Node000061"><a xlink:href="toptruthjets_8h.html" target="_top" xlink:title=" ">
<polygon fill="#fff0f0" stroke="red" points="2670,-184 2587,-184 2587,-165 2670,-165 2670,-184"/>
<text text-anchor="middle" x="2628.5" y="-172" font-family="Helvetica,sans-Serif" font-size="10.00">toptruthjets.h</text>
</a>
</g>
</g>
<!-- Node21&#45;&gt;Node61 -->
<g id="edge48_Node000021_Node000061" class="edge">
<title>Node21&#45;&gt;Node61</title>
<g id="a_edge48_Node000021_Node000061"><a xlink:title=" ">
<path fill="none" stroke="#63b8ff" d="M1766.45,-227.77C1915.94,-225.6 2277.49,-217.06 2578.5,-184 2581.21,-183.7 2584,-183.35 2586.81,-182.97"/>
<polygon fill="#63b8ff" stroke="#63b8ff" points="1766,-224.28 1756.05,-227.92 1766.1,-231.28 1766,-224.28"/>
</a>
</g>
</g>
<!-- Node63 -->
<g id="Node000063" class="node">
<title>Node63</title>
<g id="a_Node000063"><a xlink:href="validation_8h.html" target="_top" xlink:title=" ">
<polygon fill="#fff0f0" stroke="red" points="2762.5,-184 2688.5,-184 2688.5,-165 2762.5,-165 2762.5,-184"/>
<text text-anchor="middle" x="2725.5" y="-172" font-family="Helvetica,sans-Serif" font-size="10.00">validation.h</text>
</a>
</g>
</g>
<!-- Node21&#45;&gt;Node63 -->
<g id="edge49_Node000021_Node000063" class="edge">
<title>Node21&#45;&gt;Node63</title>
<g id="a_edge49_Node000021_Node000063"><a xlink:title=" ">
<path fill="none" stroke="#63b8ff" d="M1766.27,-228.63C1927.58,-228.21 2338.62,-223.02 2679.5,-184 2682.4,-183.67 2685.4,-183.26 2688.41,-182.81"/>
<polygon fill="#63b8ff" stroke="#63b8ff" points="1766,-225.13 1756.01,-228.65 1766.01,-232.13 1766,-225.13"/>
</a>
</g>
</g>
<!-- Node65 -->
<g id="Node000065" class="node">
<title>Node65</title>
<g id="a_Node000065"><a xlink:href="mc16_2zprime_2zprime_8h.html" target="_top" xlink:title=" ">
<polygon fill="#fff0f0" stroke="red" points="2840,-184 2781,-184 2781,-165 2840,-165 2840,-184"/>
<text text-anchor="middle" x="2810.5" y="-172" font-family="Helvetica,sans-Serif" font-size="10.00">zprime.h</text>
</a>
</g>
</g>
<!-- Node21&#45;&gt;Node65 -->
<g id="edge50_Node000021_Node000065" class="edge">
<title>Node21&#45;&gt;Node65</title>
<g id="a_edge50_Node000021_Node000065"><a xlink:title=" ">
<path fill="none" stroke="#63b8ff" d="M1766.17,-227.19C1972.14,-223.08 2575.99,-209.16 2771.5,-184 2774.52,-183.61 2777.66,-183.1 2780.78,-182.53"/>
<polygon fill="#63b8ff" stroke="#63b8ff" points="1766.01,-223.7 1756.08,-227.39 1766.15,-230.69 1766.01,-223.7"/>
</a>
</g>
</g>
<!-- Node67 -->
<g id="Node000067" class="node">
<title>Node67</title>
<g id="a_Node000067"><a xlink:href="mc20_2zprime_2zprime_8h.html" target="_top" xlink:title=" ">
<polygon fill="#fff0f0" stroke="red" points="2917,-184 2858,-184 2858,-165 2917,-165 2917,-184"/>
<text text-anchor="middle" x="2887.5" y="-172" font-family="Helvetica,sans-Serif" font-size="10.00">zprime.h</text>
</a>
</g>
</g>
<!-- Node21&#45;&gt;Node67 -->
<g id="edge51_Node000021_Node000067" class="edge">
<title>Node21&#45;&gt;Node67</title>
<g id="a_edge51_Node000021_Node000067"><a xlink:title=" ">
<path fill="none" stroke="#63b8ff" d="M1766.34,-227.47C1982.44,-224.01 2638.29,-211.47 2849.5,-184 2852.18,-183.65 2854.95,-183.2 2857.72,-182.7"/>
<polygon fill="#63b8ff" stroke="#63b8ff" points="1766.03,-223.97 1756.08,-227.63 1766.14,-230.97 1766.03,-223.97"/>
</a>
</g>
</g>
<!-- Node23 -->
<g id="Node000023" class="node">
<title>Node23</title>
<g id="a_Node000023"><a xlink:href="childrenkinematics_8cxx.html" target="_top" xlink:title=" ">
<polygon fill="white" stroke="#666666" points="871.5,-129 741.5,-129 741.5,-110 871.5,-110 871.5,-129"/>
<text text-anchor="middle" x="806.5" y="-117" font-family="Helvetica,sans-Serif" font-size="10.00">childrenkinematics.cxx</text>
</a>
</g>
</g>
<!-- Node22&#45;&gt;Node23 -->
<g id="edge23_Node000022_Node000023" class="edge">
<title>Node22&#45;&gt;Node23</title>
<g id="a_edge23_Node000022_Node000023"><a xlink:title=" ">
<path fill="none" stroke="#63b8ff" d="M810.37,-154.66C809.38,-145.93 808.25,-135.99 807.47,-129.09"/>
<polygon fill="#63b8ff" stroke="#63b8ff" points="806.91,-155.21 811.51,-164.75 813.86,-154.42 806.91,-155.21"/>
</a>
</g>
</g>
<!-- Node25 -->
<g id="Node000025" class="node">
<title>Node25</title>
<g id="a_Node000025"><a xlink:href="combinatorial_8cxx.html" target="_top" xlink:title=" ">
<polygon fill="white" stroke="#666666" points="993.5,-129 889.5,-129 889.5,-110 993.5,-110 993.5,-129"/>
<text text-anchor="middle" x="941.5" y="-117" font-family="Helvetica,sans-Serif" font-size="10.00">combinatorial.cxx</text>
</a>
</g>
</g>
<!-- Node24&#45;&gt;Node25 -->
<g id="edge25_Node000024_Node000025" class="edge">
<title>Node24&#45;&gt;Node25</title>
<g id="a_edge25_Node000024_Node000025"><a xlink:title=" ">
<path fill="none" stroke="#63b8ff" d="M945.37,-154.66C944.38,-145.93 943.25,-135.99 942.47,-129.09"/>
<polygon fill="#63b8ff" stroke="#63b8ff" points="941.91,-155.21 946.51,-164.75 948.86,-154.42 941.91,-155.21"/>
</a>
</g>
</g>
<!-- Node27 -->
<g id="Node000027" class="node">
<title>Node27</title>
<g id="a_Node000027"><a xlink:href="container_8cxx.html" target="_top" xlink:title=" ">
<polygon fill="white" stroke="#666666" points="1093.5,-129 1011.5,-129 1011.5,-110 1093.5,-110 1093.5,-129"/>
<text text-anchor="middle" x="1052.5" y="-117" font-family="Helvetica,sans-Serif" font-size="10.00">container.cxx</text>
</a>
</g>
</g>
<!-- Node26&#45;&gt;Node27 -->
<g id="edge27_Node000026_Node000027" class="edge">
<title>Node26&#45;&gt;Node27</title>
<g id="a_edge27_Node000026_Node000027"><a xlink:title=" ">
<path fill="none" stroke="#63b8ff" d="M1052.5,-154.66C1052.5,-145.93 1052.5,-135.99 1052.5,-129.09"/>
<polygon fill="#63b8ff" stroke="#63b8ff" points="1049,-154.75 1052.5,-164.75 1056,-154.75 1049,-154.75"/>
</a>
</g>
</g>
<!-- Node28 -->
<g id="Node000028" class="node">
<title>Node28</title>
<g id="a_Node000028"><a xlink:href="entries_8cxx.html" target="_top" xlink:title=" ">
<polygon fill="white" stroke="#666666" points="1183,-129 1112,-129 1112,-110 1183,-110 1183,-129"/>
<text text-anchor="middle" x="1147.5" y="-117" font-family="Helvetica,sans-Serif" font-size="10.00">entries.cxx</text>
</a>
</g>
</g>
<!-- Node26&#45;&gt;Node28 -->
<g id="edge28_Node000026_Node000028" class="edge">
<title>Node26&#45;&gt;Node28</title>
<g id="a_edge28_Node000026_Node000028"><a xlink:title=" ">
<path fill="none" stroke="#63b8ff" d="M1076.76,-159.97C1094.13,-150.28 1116.99,-137.52 1131.96,-129.17"/>
<polygon fill="#63b8ff" stroke="#63b8ff" points="1074.79,-157.06 1067.76,-164.98 1078.2,-163.17 1074.79,-157.06"/>
</a>
</g>
</g>
<!-- Node29 -->
<g id="Node000029" class="node">
<title>Node29</title>
<g id="a_Node000029"><a xlink:href="sampletracer_8h.html" target="_top" xlink:title=" ">
<polygon fill="#fff0f0" stroke="red" points="1290,-129 1201,-129 1201,-110 1290,-110 1290,-129"/>
<text text-anchor="middle" x="1245.5" y="-117" font-family="Helvetica,sans-Serif" font-size="10.00">sampletracer.h</text>
</a>
</g>
</g>
<!-- Node26&#45;&gt;Node29 -->
<g id="edge29_Node000026_Node000029" class="edge">
<title>Node26&#45;&gt;Node29</title>
<g id="a_edge29_Node000026_Node000029"><a xlink:title=" ">
<path fill="none" stroke="#63b8ff" d="M1093.25,-162.31C1129.36,-152.39 1181.33,-138.12 1214.25,-129.08"/>
<polygon fill="#63b8ff" stroke="#63b8ff" points="1092.22,-158.96 1083.51,-164.98 1094.08,-165.71 1092.22,-158.96"/>
</a>
</g>
</g>
<!-- Node29&#45;&gt;Node5 -->
<g id="edge30_Node000029_Node000005" class="edge">
<title>Node29&#45;&gt;Node5</title>
<g id="a_edge30_Node000029_Node000005"><a xlink:title=" ">
<path fill="none" stroke="#63b8ff" d="M1190.67,-109.98C1017.27,-88.56 822.93,-73.44 746.61,-67.86"/>
<polygon fill="#63b8ff" stroke="#63b8ff" points="1190.39,-113.47 1200.74,-111.23 1191.25,-106.52 1190.39,-113.47"/>
</a>
</g>
</g>
<!-- Node32 -->
<g id="Node000032" class="node">
<title>Node32</title>
<g id="a_Node000032"><a xlink:href="decaymodes_8cxx.html" target="_top" xlink:title=" ">
<polygon fill="white" stroke="#666666" points="1407,-129 1308,-129 1308,-110 1407,-110 1407,-129"/>
<text text-anchor="middle" x="1357.5" y="-117" font-family="Helvetica,sans-Serif" font-size="10.00">decaymodes.cxx</text>
</a>
</g>
</g>
<!-- Node31&#45;&gt;Node32 -->
<g id="edge32_Node000031_Node000032" class="edge">
<title>Node31&#45;&gt;Node32</title>
<g id="a_edge32_Node000031_Node000032"><a xlink:title=" ">
<path fill="none" stroke="#63b8ff" d="M1193.71,-162.44C1232.46,-152.52 1288.53,-138.16 1323.98,-129.08"/>
<polygon fill="#63b8ff" stroke="#63b8ff" points="1192.58,-159.11 1183.76,-164.98 1194.31,-165.89 1192.58,-159.11"/>
</a>
</g>
</g>
<!-- Node34 -->
<g id="Node000034" class="node">
<title>Node34</title>
<g id="a_Node000034"><a xlink:href="selections_2mc16_2event_2event_8cxx.html" target="_top" xlink:title=" ">
<polygon fill="white" stroke="#666666" points="1490,-129 1425,-129 1425,-110 1490,-110 1490,-129"/>
<text text-anchor="middle" x="1457.5" y="-117" font-family="Helvetica,sans-Serif" font-size="10.00">event.cxx</text>
</a>
</g>
</g>
<!-- Node33&#45;&gt;Node34 -->
<g id="edge34_Node000033_Node000034" class="edge">
<title>Node33&#45;&gt;Node34</title>
<g id="a_edge34_Node000033_Node000034"><a xlink:title=" ">
<path fill="none" stroke="#63b8ff" d="M1275.3,-164.56C1333.19,-150.54 1390.16,-136.77 1424.92,-128.37"/>
<polygon fill="#63b8ff" stroke="#63b8ff" points="1274.15,-161.24 1265.25,-167 1275.8,-168.05 1274.15,-161.24"/>
</a>
</g>
</g>
</g>
</svg>

<g id="navigator" transform="translate(0 0)" fill="#404254">
  <rect fill="#f2f5e9" fill-opacity="0.5" stroke="#606060" stroke-width=".5" x="0" y="0" width="60" height="60"/>
  <use id="zoomplus" xlink:href="#zoomPlus" x="17" y="9" onmousedown="handleZoom(evt,'in')"/>
  <use id="zoomminus" xlink:href="#zoomMin" x="42" y="9" onmousedown="handleZoom(evt,'out')"/>
  <use id="reset" xlink:href="#resetDef" x="30" y="36" onmousedown="handleReset()"/>
   <use id="arrowup" xlink:href="#arrowUp" x="0" y="0" onmousedown="handlePan(0,-1)"/>
  <use id="arrowright" xlink:href="#arrowRight" x="0" y="0" onmousedown="handlePan(1,0)"/>
  <use id="arrowdown" xlink:href="#arrowDown" x="0" y="0" onmousedown="handlePan(0,1)"/>
  <use id="arrowleft" xlink:href="#arrowLeft" x="0" y="0" onmousedown="handlePan(-1,0)"/>
</g>
<svg viewBox="0 0 15 15" width="100%" height="30px" preserveAspectRatio="xMaxYMin meet">
 <g id="arrow_out" transform="scale(0.3 0.3)">
  <a xlink:href="merge__cast_8h__dep__incl_org.svg" target="_base">
   <rect id="button" ry="5" rx="5" y="6" x="6" height="38" width="38"
        fill="#f2f5e9" fill-opacity="0.5" stroke="#606060" stroke-width="1.0"/>
   <path id="arrow"
     d="M 11.500037,31.436501 C 11.940474,20.09759 22.043105,11.32322 32.158766,21.979434 L 37.068811,17.246167 C 37.068811,17.246167 37.088388,32 37.088388,32 L 22.160133,31.978069 C 22.160133,31.978069 26.997745,27.140456 26.997745,27.140456 C 18.528582,18.264221 13.291696,25.230495 11.500037,31.436501 z"
     style="fill:#404040;"/>
  </a>
 </g>
</svg>

<style type='text/css'>
<![CDATA[
[data-mouse-over-selected='false'] { opacity: 0.7; }
[data-mouse-over-selected='true']  { opacity: 1.0; }
]]>
</style>
<script type="application/ecmascript"><![CDATA[
document.addEventListener('DOMContentLoaded', (event) => {
  highlightEdges();
  highlightAdjacentNodes();
});
]]></script>
</svg>
