<?xml version="1.0" encoding="UTF-8" standalone="no"?>
<!DOCTYPE svg PUBLIC "-//W3C//DTD SVG 1.1//EN"
 "http://www.w3.org/Graphics/SVG/1.1/DTD/svg11.dtd">
<!-- Generated by graphviz version 2.43.0 (0)
 -->
<!-- Title: model_template.h Pages: 1 -->
<svg width="1347pt" height="247pt"
 viewBox="0.00 0.00 1346.50 247.00" xmlns="http://www.w3.org/2000/svg" xmlns:xlink="http://www.w3.org/1999/xlink">
<g id="graph0" class="graph" transform="scale(1 1) rotate(0) translate(4 243)">
<title>model_template.h</title>
<!-- Node1 -->
<g id="Node000001" class="node">
<title>Node1</title>
<g id="a_Node000001"><a xlink:title="Defines the base template class for machine learning models in the AnalysisG framework.">
<polygon fill="#999999" stroke="#666666" points="678,-239 572,-239 572,-220 678,-220 678,-239"/>
<text text-anchor="middle" x="625" y="-227" font-family="Helvetica,sans-Serif" font-size="10.00">model_template.h</text>
</a>
</g>
</g>
<!-- Node2 -->
<g id="Node000002" class="node">
<title>Node2</title>
<g id="a_Node000002"><a xlink:href="RecursiveGraphNeuralNetwork_8h.html" target="_top" xlink:title=" ">
<polygon fill="white" stroke="#666666" points="185,-184 9,-184 9,-165 185,-165 185,-184"/>
<text text-anchor="middle" x="97" y="-172" font-family="Helvetica,sans-Serif" font-size="10.00">RecursiveGraphNeuralNetwork.h</text>
</a>
</g>
</g>
<!-- Node1&#45;&gt;Node2 -->
<g id="edge1_Node000001_Node000002" class="edge">
<title>Node1&#45;&gt;Node2</title>
<g id="a_edge1_Node000001_Node000002"><a xlink:title=" ">
<path fill="none" stroke="#63b8ff" d="M561.95,-222.17C467.28,-212.67 288.22,-194.69 182.07,-184.04"/>
<polygon fill="#63b8ff" stroke="#63b8ff" points="561.66,-225.66 571.96,-223.18 562.36,-218.69 561.66,-225.66"/>
</a>
</g>
</g>
<!-- Node4 -->
<g id="Node000004" class="node">
<title>Node4</title>
<g id="a_Node000004"><a xlink:href="analysis_8h.html" target="_top" xlink:title="Defines the analysis class, the central orchestrator for physics analysis tasks.">
<polygon fill="white" stroke="#666666" points="507,-74 441,-74 441,-55 507,-55 507,-74"/>
<text text-anchor="middle" x="474" y="-62" font-family="Helvetica,sans-Serif" font-size="10.00">analysis.h</text>
</a>
</g>
</g>
<!-- Node1&#45;&gt;Node4 -->
<g id="edge3_Node000001_Node000004" class="edge">
<title>Node1&#45;&gt;Node4</title>
<g id="a_edge3_Node000001_Node000004"><a xlink:title=" ">
<path fill="none" stroke="#63b8ff" d="M561.56,-225.81C456.64,-220.69 256.32,-207.9 235,-184 172.02,-113.42 361.68,-80.03 440.93,-69.42"/>
<polygon fill="#63b8ff" stroke="#63b8ff" points="561.56,-229.31 571.72,-226.29 561.9,-222.32 561.56,-229.31"/>
</a>
</g>
</g>
<!-- Node13 -->
<g id="Node000013" class="node">
<title>Node13</title>
<g id="a_Node000013"><a xlink:href="metric_2cxx_2base_8cxx.html" target="_top" xlink:title=" ">
<polygon fill="white" stroke="#666666" points="304,-184 244,-184 244,-165 304,-165 304,-184"/>
<text text-anchor="middle" x="274" y="-172" font-family="Helvetica,sans-Serif" font-size="10.00">base.cxx</text>
</a>
</g>
</g>
<!-- Node1&#45;&gt;Node13 -->
<g id="edge12_Node000001_Node000013" class="edge">
<title>Node1&#45;&gt;Node13</title>
<g id="a_edge12_Node000001_Node000013"><a xlink:title=" ">
<path fill="none" stroke="#63b8ff" d="M561.61,-220.84C498.42,-212.87 398.7,-199.43 313,-184 310.14,-183.48 307.16,-182.91 304.19,-182.31"/>
<polygon fill="#63b8ff" stroke="#63b8ff" points="561.46,-224.34 571.81,-222.11 562.33,-217.4 561.46,-224.34"/>
</a>
</g>
</g>
<!-- Node14 -->
<g id="Node000014" class="node">
<title>Node14</title>
<g id="a_Node000014"><a xlink:href="dataloader_8cxx.html" target="_top" xlink:title=" ">
<polygon fill="white" stroke="#666666" points="411.5,-184 322.5,-184 322.5,-165 411.5,-165 411.5,-184"/>
<text text-anchor="middle" x="367" y="-172" font-family="Helvetica,sans-Serif" font-size="10.00">dataloader.cxx</text>
</a>
</g>
</g>
<!-- Node1&#45;&gt;Node14 -->
<g id="edge13_Node000001_Node000014" class="edge">
<title>Node1&#45;&gt;Node14</title>
<g id="a_edge13_Node000001_Node000014"><a xlink:title=" ">
<path fill="none" stroke="#63b8ff" d="M573.6,-217.94C525.24,-208.01 453.72,-193.31 408.78,-184.08"/>
<polygon fill="#63b8ff" stroke="#63b8ff" points="573.05,-221.4 583.55,-219.98 574.46,-214.54 573.05,-221.4"/>
</a>
</g>
</g>
<!-- Node15 -->
<g id="Node000015" class="node">
<title>Node15</title>
<g id="a_Node000015"><a xlink:href="grift_8h.html" target="_top" xlink:title=" ">
<polygon fill="white" stroke="#666666" points="474.5,-184 429.5,-184 429.5,-165 474.5,-165 474.5,-184"/>
<text text-anchor="middle" x="452" y="-172" font-family="Helvetica,sans-Serif" font-size="10.00">grift.h</text>
</a>
</g>
</g>
<!-- Node1&#45;&gt;Node15 -->
<g id="edge14_Node000001_Node000015" class="edge">
<title>Node1&#45;&gt;Node15</title>
<g id="a_edge14_Node000001_Node000015"><a xlink:title=" ">
<path fill="none" stroke="#63b8ff" d="M587.52,-217.02C553.18,-206.5 503.45,-191.26 474.76,-182.47"/>
<polygon fill="#63b8ff" stroke="#63b8ff" points="586.62,-220.4 597.2,-219.98 588.67,-213.71 586.62,-220.4"/>
</a>
</g>
</g>
<!-- Node17 -->
<g id="Node000017" class="node">
<title>Node17</title>
<g id="a_Node000017"><a xlink:href="link_8cxx.html" target="_top" xlink:title=" ">
<polygon fill="white" stroke="#666666" points="547.5,-184 492.5,-184 492.5,-165 547.5,-165 547.5,-184"/>
<text text-anchor="middle" x="520" y="-172" font-family="Helvetica,sans-Serif" font-size="10.00">link.cxx</text>
</a>
</g>
</g>
<!-- Node1&#45;&gt;Node17 -->
<g id="edge16_Node000001_Node000017" class="edge">
<title>Node1&#45;&gt;Node17</title>
<g id="a_edge16_Node000001_Node000017"><a xlink:title=" ">
<path fill="none" stroke="#63b8ff" d="M598.98,-215.37C579.7,-205.63 553.95,-192.64 537.18,-184.17"/>
<polygon fill="#63b8ff" stroke="#63b8ff" points="597.63,-218.6 608.13,-219.98 600.78,-212.35 597.63,-218.6"/>
</a>
</g>
</g>
<!-- Node18 -->
<g id="Node000018" class="node">
<title>Node18</title>
<g id="a_Node000018"><a xlink:href="metric__template_8cxx.html" target="_top" xlink:title=" ">
<polygon fill="white" stroke="#666666" points="684,-184 566,-184 566,-165 684,-165 684,-184"/>
<text text-anchor="middle" x="625" y="-172" font-family="Helvetica,sans-Serif" font-size="10.00">metric_template.cxx</text>
</a>
</g>
</g>
<!-- Node1&#45;&gt;Node18 -->
<g id="edge17_Node000001_Node000018" class="edge">
<title>Node1&#45;&gt;Node18</title>
<g id="a_edge17_Node000001_Node000018"><a xlink:title=" ">
<path fill="none" stroke="#63b8ff" d="M625,-209.66C625,-200.93 625,-190.99 625,-184.09"/>
<polygon fill="#63b8ff" stroke="#63b8ff" points="621.5,-209.75 625,-219.75 628.5,-209.75 621.5,-209.75"/>
</a>
</g>
</g>
<!-- Node19 -->
<g id="Node000019" class="node">
<title>Node19</title>
<g id="a_Node000019"><a xlink:href="metrics_8h.html" target="_top" xlink:title="Header file for the metrics class.">
<polygon fill="white" stroke="#666666" points="764,-184 702,-184 702,-165 764,-165 764,-184"/>
<text text-anchor="middle" x="733" y="-172" font-family="Helvetica,sans-Serif" font-size="10.00">metrics.h</text>
</a>
</g>
</g>
<!-- Node1&#45;&gt;Node19 -->
<g id="edge18_Node000001_Node000019" class="edge">
<title>Node1&#45;&gt;Node19</title>
<g id="a_edge18_Node000001_Node000019"><a xlink:title=" ">
<path fill="none" stroke="#63b8ff" d="M651.49,-215.5C671.36,-205.75 698,-192.68 715.33,-184.17"/>
<polygon fill="#63b8ff" stroke="#63b8ff" points="649.79,-212.44 642.35,-219.98 652.87,-218.72 649.79,-212.44"/>
</a>
</g>
</g>
<!-- Node23 -->
<g id="Node000023" class="node">
<title>Node23</title>
<g id="a_Node000023"><a xlink:href="optimizer_2include_2generators_2optimizer_8h.html" target="_top" xlink:title=" ">
<polygon fill="white" stroke="#666666" points="859.5,-129 788.5,-129 788.5,-110 859.5,-110 859.5,-129"/>
<text text-anchor="middle" x="824" y="-117" font-family="Helvetica,sans-Serif" font-size="10.00">optimizer.h</text>
</a>
</g>
</g>
<!-- Node1&#45;&gt;Node23 -->
<g id="edge29_Node000001_Node000023" class="edge">
<title>Node1&#45;&gt;Node23</title>
<g id="a_edge29_Node000001_Node000023"><a xlink:title=" ">
<path fill="none" stroke="#63b8ff" d="M688.33,-218.24C716.02,-211.62 747.84,-200.96 773,-184 794.57,-169.46 811.48,-143.02 819.29,-129.29"/>
<polygon fill="#63b8ff" stroke="#63b8ff" points="687.33,-214.88 678.34,-220.5 688.87,-221.71 687.33,-214.88"/>
</a>
</g>
</g>
<!-- Node25 -->
<g id="Node000025" class="node">
<title>Node25</title>
<g id="a_Node000025"><a xlink:href="model__checks_8cxx.html" target="_top" xlink:title=" ">
<polygon fill="white" stroke="#666666" points="927.5,-184 820.5,-184 820.5,-165 927.5,-165 927.5,-184"/>
<text text-anchor="middle" x="874" y="-172" font-family="Helvetica,sans-Serif" font-size="10.00">model_checks.cxx</text>
</a>
</g>
</g>
<!-- Node1&#45;&gt;Node25 -->
<g id="edge25_Node000001_Node000025" class="edge">
<title>Node1&#45;&gt;Node25</title>
<g id="a_edge25_Node000001_Node000025"><a xlink:title=" ">
<path fill="none" stroke="#63b8ff" d="M674.9,-217.88C721.57,-207.94 790.39,-193.3 833.68,-184.08"/>
<polygon fill="#63b8ff" stroke="#63b8ff" points="674.06,-214.48 665.01,-219.98 675.52,-221.33 674.06,-214.48"/>
</a>
</g>
</g>
<!-- Node26 -->
<g id="Node000026" class="node">
<title>Node26</title>
<g id="a_Node000026"><a xlink:href="model__configuration_8cxx.html" target="_top" xlink:title=" ">
<polygon fill="white" stroke="#666666" points="1082.5,-184 945.5,-184 945.5,-165 1082.5,-165 1082.5,-184"/>
<text text-anchor="middle" x="1014" y="-172" font-family="Helvetica,sans-Serif" font-size="10.00">model_configuration.cxx</text>
</a>
</g>
</g>
<!-- Node1&#45;&gt;Node26 -->
<g id="edge26_Node000001_Node000026" class="edge">
<title>Node1&#45;&gt;Node26</title>
<g id="a_edge26_Node000001_Node000026"><a xlink:title=" ">
<path fill="none" stroke="#63b8ff" d="M688.2,-219.89C760.77,-210 879.1,-193.88 951.41,-184.03"/>
<polygon fill="#63b8ff" stroke="#63b8ff" points="687.71,-216.42 678.27,-221.24 688.65,-223.36 687.71,-216.42"/>
</a>
</g>
</g>
<!-- Node27 -->
<g id="Node000027" class="node">
<title>Node27</title>
<g id="a_Node000027"><a xlink:href="model__lossfx_8cxx.html" target="_top" xlink:title=" ">
<polygon fill="white" stroke="#666666" points="1203,-184 1101,-184 1101,-165 1203,-165 1203,-184"/>
<text text-anchor="middle" x="1152" y="-172" font-family="Helvetica,sans-Serif" font-size="10.00">model_lossfx.cxx</text>
</a>
</g>
</g>
<!-- Node1&#45;&gt;Node27 -->
<g id="edge27_Node000001_Node000027" class="edge">
<title>Node1&#45;&gt;Node27</title>
<g id="a_edge27_Node000001_Node000027"><a xlink:title=" ">
<path fill="none" stroke="#63b8ff" d="M688.34,-223.39C778.24,-215.92 947.93,-201.06 1092,-184 1094.93,-183.65 1097.93,-183.28 1100.96,-182.89"/>
<polygon fill="#63b8ff" stroke="#63b8ff" points="687.99,-219.91 678.31,-224.22 688.57,-226.88 687.99,-219.91"/>
</a>
</g>
</g>
<!-- Node28 -->
<g id="Node000028" class="node">
<title>Node28</title>
<g id="a_Node000028"><a xlink:href="model__template_8cxx.html" target="_top" xlink:title="Implementation of the model_template class methods.">
<polygon fill="white" stroke="#666666" points="1338.5,-184 1221.5,-184 1221.5,-165 1338.5,-165 1338.5,-184"/>
<text text-anchor="middle" x="1280" y="-172" font-family="Helvetica,sans-Serif" font-size="10.00">model_template.cxx</text>
</a>
</g>
</g>
<!-- Node1&#45;&gt;Node28 -->
<g id="edge28_Node000001_Node000028" class="edge">
<title>Node1&#45;&gt;Node28</title>
<g id="a_edge28_Node000001_Node000028"><a xlink:title=" ">
<path fill="none" stroke="#63b8ff" d="M688.14,-224.73C795.77,-218.06 1021.62,-203.1 1212,-184 1215.08,-183.69 1218.23,-183.36 1221.42,-183.01"/>
<polygon fill="#63b8ff" stroke="#63b8ff" points="687.86,-221.24 678.09,-225.34 688.29,-228.22 687.86,-221.24"/>
</a>
</g>
</g>
<!-- Node3 -->
<g id="Node000003" class="node">
<title>Node3</title>
<g id="a_Node000003"><a xlink:href="RecursiveGraphNeuralNetwork_8cxx.html" target="_top" xlink:title=" ">
<polygon fill="white" stroke="#666666" points="188,-129 0,-129 0,-110 188,-110 188,-129"/>
<text text-anchor="middle" x="94" y="-117" font-family="Helvetica,sans-Serif" font-size="10.00">RecursiveGraphNeuralNetwork.cxx</text>
</a>
</g>
</g>
<!-- Node2&#45;&gt;Node3 -->
<g id="edge2_Node000002_Node000003" class="edge">
<title>Node2&#45;&gt;Node3</title>
<g id="a_edge2_Node000002_Node000003"><a xlink:title=" ">
<path fill="none" stroke="#63b8ff" d="M95.93,-154.66C95.44,-145.93 94.88,-135.99 94.49,-129.09"/>
<polygon fill="#63b8ff" stroke="#63b8ff" points="92.44,-154.96 96.5,-164.75 99.43,-154.57 92.44,-154.96"/>
</a>
</g>
</g>
<!-- Node5 -->
<g id="Node000005" class="node">
<title>Node5</title>
<g id="a_Node000005"><a xlink:href="analysis_8cxx.html" target="_top" xlink:title=" ">
<polygon fill="white" stroke="#666666" points="118.5,-19 41.5,-19 41.5,0 118.5,0 118.5,-19"/>
<text text-anchor="middle" x="80" y="-7" font-family="Helvetica,sans-Serif" font-size="10.00">analysis.cxx</text>
</a>
</g>
</g>
<!-- Node4&#45;&gt;Node5 -->
<g id="edge4_Node000004_Node000005" class="edge">
<title>Node4&#45;&gt;Node5</title>
<g id="a_edge4_Node000004_Node000005"><a xlink:title=" ">
<path fill="none" stroke="#63b8ff" d="M430.54,-58.58C364.88,-51 236.54,-35.58 128,-19 124.99,-18.54 121.87,-18.04 118.75,-17.52"/>
<polygon fill="#63b8ff" stroke="#63b8ff" points="430.19,-62.06 440.53,-59.73 430.99,-55.11 430.19,-62.06"/>
</a>
</g>
</g>
<!-- Node6 -->
<g id="Node000006" class="node">
<title>Node6</title>
<g id="a_Node000006"><a xlink:href="event__build_8cxx.html" target="_top" xlink:title=" ">
<polygon fill="white" stroke="#666666" points="231,-19 137,-19 137,0 231,0 231,-19"/>
<text text-anchor="middle" x="184" y="-7" font-family="Helvetica,sans-Serif" font-size="10.00">event_build.cxx</text>
</a>
</g>
</g>
<!-- Node4&#45;&gt;Node6 -->
<g id="edge5_Node000004_Node000006" class="edge">
<title>Node4&#45;&gt;Node6</title>
<g id="a_edge5_Node000004_Node000006"><a xlink:title=" ">
<path fill="none" stroke="#63b8ff" d="M430.85,-55.61C377.2,-45.81 285.97,-29.14 230.72,-19.04"/>
<polygon fill="#63b8ff" stroke="#63b8ff" points="430.27,-59.07 440.73,-57.42 431.53,-52.18 430.27,-59.07"/>
</a>
</g>
</g>
<!-- Node7 -->
<g id="Node000007" class="node">
<title>Node7</title>
<g id="a_Node000007"><a xlink:href="graph__build_8cxx.html" target="_top" xlink:title=" ">
<polygon fill="white" stroke="#666666" points="343,-19 249,-19 249,0 343,0 343,-19"/>
<text text-anchor="middle" x="296" y="-7" font-family="Helvetica,sans-Serif" font-size="10.00">graph_build.cxx</text>
</a>
</g>
</g>
<!-- Node4&#45;&gt;Node7 -->
<g id="edge6_Node000004_Node000007" class="edge">
<title>Node4&#45;&gt;Node7</title>
<g id="a_edge6_Node000004_Node000007"><a xlink:title=" ">
<path fill="none" stroke="#63b8ff" d="M435.56,-52.06C402.3,-42.15 354.92,-28.04 324.82,-19.08"/>
<polygon fill="#63b8ff" stroke="#63b8ff" points="434.82,-55.49 445.4,-54.98 436.82,-48.78 434.82,-55.49"/>
</a>
</g>
</g>
<!-- Node8 -->
<g id="Node000008" class="node">
<title>Node8</title>
<g id="a_Node000008"><a xlink:href="inference__build_8cxx.html" target="_top" xlink:title=" ">
<polygon fill="white" stroke="#666666" points="473,-19 361,-19 361,0 473,0 473,-19"/>
<text text-anchor="middle" x="417" y="-7" font-family="Helvetica,sans-Serif" font-size="10.00">inference_build.cxx</text>
</a>
</g>
</g>
<!-- Node4&#45;&gt;Node8 -->
<g id="edge7_Node000004_Node000008" class="edge">
<title>Node4&#45;&gt;Node8</title>
<g id="a_edge7_Node000004_Node000008"><a xlink:title=" ">
<path fill="none" stroke="#63b8ff" d="M457.38,-48.04C447.27,-38.64 434.72,-26.98 426.32,-19.17"/>
<polygon fill="#63b8ff" stroke="#63b8ff" points="455.14,-50.74 464.84,-54.98 459.9,-45.61 455.14,-50.74"/>
</a>
</g>
</g>
<!-- Node9 -->
<g id="Node000009" class="node">
<title>Node9</title>
<g id="a_Node000009"><a xlink:href="methods_8cxx.html" target="_top" xlink:title=" ">
<polygon fill="white" stroke="#666666" points="571,-19 491,-19 491,0 571,0 571,-19"/>
<text text-anchor="middle" x="531" y="-7" font-family="Helvetica,sans-Serif" font-size="10.00">methods.cxx</text>
</a>
</g>
</g>
<!-- Node4&#45;&gt;Node9 -->
<g id="edge8_Node000004_Node000009" class="edge">
<title>Node4&#45;&gt;Node9</title>
<g id="a_edge8_Node000004_Node000009"><a xlink:title=" ">
<path fill="none" stroke="#63b8ff" d="M490.62,-48.04C500.73,-38.64 513.28,-26.98 521.68,-19.17"/>
<polygon fill="#63b8ff" stroke="#63b8ff" points="488.1,-45.61 483.16,-54.98 492.86,-50.74 488.1,-45.61"/>
</a>
</g>
</g>
<!-- Node10 -->
<g id="Node000010" class="node">
<title>Node10</title>
<g id="a_Node000010"><a xlink:href="metric__build_8cxx.html" target="_top" xlink:title=" ">
<polygon fill="white" stroke="#666666" points="687,-19 589,-19 589,0 687,0 687,-19"/>
<text text-anchor="middle" x="638" y="-7" font-family="Helvetica,sans-Serif" font-size="10.00">metric_build.cxx</text>
</a>
</g>
</g>
<!-- Node4&#45;&gt;Node10 -->
<g id="edge9_Node000004_Node000010" class="edge">
<title>Node4&#45;&gt;Node10</title>
<g id="a_edge9_Node000004_Node000010"><a xlink:title=" ">
<path fill="none" stroke="#63b8ff" d="M510.21,-51.8C540.82,-41.91 583.95,-27.97 611.44,-19.08"/>
<polygon fill="#63b8ff" stroke="#63b8ff" points="508.79,-48.58 500.35,-54.98 510.94,-55.24 508.79,-48.58"/>
</a>
</g>
</g>
<!-- Node11 -->
<g id="Node000011" class="node">
<title>Node11</title>
<g id="a_Node000011"><a xlink:href="optimizer__build_8cxx.html" target="_top" xlink:title="Implementation of model session creation and management in the analysis class.">
<polygon fill="white" stroke="#666666" points="818.5,-19 705.5,-19 705.5,0 818.5,0 818.5,-19"/>
<text text-anchor="middle" x="762" y="-7" font-family="Helvetica,sans-Serif" font-size="10.00">optimizer_build.cxx</text>
</a>
</g>
</g>
<!-- Node4&#45;&gt;Node11 -->
<g id="edge10_Node000004_Node000011" class="edge">
<title>Node4&#45;&gt;Node11</title>
<g id="a_edge10_Node000004_Node000011"><a xlink:title=" ">
<path fill="none" stroke="#63b8ff" d="M517.19,-55.55C570.51,-45.74 660.84,-29.12 715.6,-19.04"/>
<polygon fill="#63b8ff" stroke="#63b8ff" points="516.24,-52.17 507.04,-57.42 517.51,-59.05 516.24,-52.17"/>
</a>
</g>
</g>
<!-- Node12 -->
<g id="Node000012" class="node">
<title>Node12</title>
<g id="a_Node000012"><a xlink:href="selection__build_8cxx.html" target="_top" xlink:title=" ">
<polygon fill="white" stroke="#666666" points="947,-19 837,-19 837,0 947,0 947,-19"/>
<text text-anchor="middle" x="892" y="-7" font-family="Helvetica,sans-Serif" font-size="10.00">selection_build.cxx</text>
</a>
</g>
</g>
<!-- Node4&#45;&gt;Node12 -->
<g id="edge11_Node000004_Node000012" class="edge">
<title>Node4&#45;&gt;Node12</title>
<g id="a_edge11_Node000004_Node000012"><a xlink:title=" ">
<path fill="none" stroke="#63b8ff" d="M517.34,-58.15C584.08,-49.89 716.04,-33.47 828,-19 830.89,-18.63 833.85,-18.24 836.85,-17.85"/>
<polygon fill="#63b8ff" stroke="#63b8ff" points="516.69,-54.7 507.2,-59.41 517.55,-61.65 516.69,-54.7"/>
</a>
</g>
</g>
<!-- Node16 -->
<g id="Node000016" class="node">
<title>Node16</title>
<g id="a_Node000016"><a xlink:href="grift_8cxx.html" target="_top" xlink:title=" ">
<polygon fill="white" stroke="#666666" points="464,-129 408,-129 408,-110 464,-110 464,-129"/>
<text text-anchor="middle" x="436" y="-117" font-family="Helvetica,sans-Serif" font-size="10.00">grift.cxx</text>
</a>
</g>
</g>
<!-- Node15&#45;&gt;Node16 -->
<g id="edge15_Node000015_Node000016" class="edge">
<title>Node15&#45;&gt;Node16</title>
<g id="a_edge15_Node000015_Node000016"><a xlink:title=" ">
<path fill="none" stroke="#63b8ff" d="M446.4,-154.95C443.74,-146.15 440.7,-136.06 438.59,-129.09"/>
<polygon fill="#63b8ff" stroke="#63b8ff" points="443.12,-156.19 449.36,-164.75 449.82,-154.16 443.12,-156.19"/>
</a>
</g>
</g>
<!-- Node20 -->
<g id="Node000020" class="node">
<title>Node20</title>
<g id="a_Node000020"><a xlink:href="loss__plots_8cxx.html" target="_top" xlink:title=" ">
<polygon fill="white" stroke="#666666" points="568,-129 482,-129 482,-110 568,-110 568,-129"/>
<text text-anchor="middle" x="525" y="-117" font-family="Helvetica,sans-Serif" font-size="10.00">loss_plots.cxx</text>
</a>
</g>
</g>
<!-- Node19&#45;&gt;Node20 -->
<g id="edge19_Node000019_Node000020" class="edge">
<title>Node19&#45;&gt;Node20</title>
<g id="a_edge19_Node000019_Node000020"><a xlink:title=" ">
<path fill="none" stroke="#63b8ff" d="M691.87,-163.02C652.78,-153.06 594.73,-138.27 558.42,-129.02"/>
<polygon fill="#63b8ff" stroke="#63b8ff" points="691.31,-166.49 701.86,-165.57 693.03,-159.7 691.31,-166.49"/>
</a>
</g>
</g>
<!-- Node21 -->
<g id="Node000021" class="node">
<title>Node21</title>
<g id="a_Node000021"><a xlink:href="mass__plots_8cxx.html" target="_top" xlink:title="Implements mass plot generation and related utilities.">
<polygon fill="white" stroke="#666666" points="678,-129 586,-129 586,-110 678,-110 678,-129"/>
<text text-anchor="middle" x="632" y="-117" font-family="Helvetica,sans-Serif" font-size="10.00">mass_plots.cxx</text>
</a>
</g>
</g>
<!-- Node19&#45;&gt;Node21 -->
<g id="edge20_Node000019_Node000021" class="edge">
<title>Node19&#45;&gt;Node21</title>
<g id="a_edge20_Node000019_Node000021"><a xlink:title=" ">
<path fill="none" stroke="#63b8ff" d="M707.72,-160.23C689.2,-150.51 664.58,-137.6 648.52,-129.17"/>
<polygon fill="#63b8ff" stroke="#63b8ff" points="706.29,-163.44 716.77,-164.98 709.54,-157.24 706.29,-163.44"/>
</a>
</g>
</g>
<!-- Node22 -->
<g id="Node000022" class="node">
<title>Node22</title>
<g id="a_Node000022"><a xlink:href="metrics_8cxx.html" target="_top" xlink:title="Implementation of the metrics class methods.">
<polygon fill="white" stroke="#666666" points="770,-129 696,-129 696,-110 770,-110 770,-129"/>
<text text-anchor="middle" x="733" y="-117" font-family="Helvetica,sans-Serif" font-size="10.00">metrics.cxx</text>
</a>
</g>
</g>
<!-- Node19&#45;&gt;Node22 -->
<g id="edge21_Node000019_Node000022" class="edge">
<title>Node19&#45;&gt;Node22</title>
<g id="a_edge21_Node000019_Node000022"><a xlink:title=" ">
<path fill="none" stroke="#63b8ff" d="M733,-154.66C733,-145.93 733,-135.99 733,-129.09"/>
<polygon fill="#63b8ff" stroke="#63b8ff" points="729.5,-154.75 733,-164.75 736.5,-154.75 729.5,-154.75"/>
</a>
</g>
</g>
<!-- Node19&#45;&gt;Node23 -->
<g id="edge22_Node000019_Node000023" class="edge">
<title>Node19&#45;&gt;Node23</title>
<g id="a_edge22_Node000019_Node000023"><a xlink:title=" ">
<path fill="none" stroke="#63b8ff" d="M756.7,-159.7C773.28,-150.04 794.91,-137.44 809.11,-129.17"/>
<polygon fill="#63b8ff" stroke="#63b8ff" points="754.5,-156.93 747.62,-164.98 758.02,-162.98 754.5,-156.93"/>
</a>
</g>
</g>
<!-- Node23&#45;&gt;Node4 -->
<g id="edge23_Node000023_Node000004" class="edge">
<title>Node23&#45;&gt;Node4</title>
<g id="a_edge23_Node000023_Node000004"><a xlink:title=" ">
<path fill="none" stroke="#63b8ff" d="M778.03,-109.9C673.04,-92.49 561.3,-77.12 507.02,-69.86"/>
<polygon fill="#63b8ff" stroke="#63b8ff" points="777.72,-113.4 788.16,-111.59 778.88,-106.49 777.72,-113.4"/>
</a>
</g>
</g>
<!-- Node24 -->
<g id="Node000024" class="node">
<title>Node24</title>
<g id="a_Node000024"><a xlink:href="optimizer_2cxx_2optimizer_8cxx.html" target="_top" xlink:title=" ">
<polygon fill="white" stroke="#666666" points="865.5,-74 782.5,-74 782.5,-55 865.5,-55 865.5,-74"/>
<text text-anchor="middle" x="824" y="-62" font-family="Helvetica,sans-Serif" font-size="10.00">optimizer.cxx</text>
</a>
</g>
</g>
<!-- Node23&#45;&gt;Node24 -->
<g id="edge24_Node000023_Node000024" class="edge">
<title>Node23&#45;&gt;Node24</title>
<g id="a_edge24_Node000023_Node000024"><a xlink:title=" ">
<path fill="none" stroke="#63b8ff" d="M824,-99.66C824,-90.93 824,-80.99 824,-74.09"/>
<polygon fill="#63b8ff" stroke="#63b8ff" points="820.5,-99.75 824,-109.75 827.5,-99.75 820.5,-99.75"/>
</a>
</g>
</g>
</g>
</svg>
