<?xml version="1.0" encoding="UTF-8" standalone="no"?>
<!DOCTYPE svg PUBLIC "-//W3C//DTD SVG 1.1//EN"
 "http://www.w3.org/Graphics/SVG/1.1/DTD/svg11.dtd">
<!-- Generated by graphviz version 2.43.0 (0)
 -->
<!-- Title: model.h Pages: 1 -->
<!--zoomable 302 -->

<svg id="main" version="1.1" xmlns="http://www.w3.org/2000/svg" xmlns:xlink="http://www.w3.org/1999/xlink" xml:space="preserve" onload="init(evt)">
<style type="text/css"><![CDATA[
.node, .edge {opacity: 0.7;}
.node.selected, .edge.selected {opacity: 1;}
.edge:hover path { stroke: red; }
.edge:hover polygon { stroke: red; fill: red; }
]]></style>

<defs>
  <circle id="rim" cx="0" cy="0" r="7"/>
  <circle id="rim2" cx="0" cy="0" r="3.5"/>
  <g id="zoomPlus">
    <use xlink:href="#rim" fill="#404040"><set attributeName="fill" to="#808080" begin="zoomplus.mouseover" end="zoomplus.mouseout"/></use>
    <path d="M-4,0h8M0,-4v8" fill="none" stroke="white" stroke-width="1.5" pointer-events="none"/>
  </g>
  <g id="zoomMin">
    <use xlink:href="#rim" fill="#404040"><set attributeName="fill" to="#808080" begin="zoomminus.mouseover" end="zoomminus.mouseout"/></use>
    <path d="M-4,0h8" fill="none" stroke="white" stroke-width="1.5" pointer-events="none"/>
  </g>
  <g id="arrowUp" transform="translate(30 24)">
    <use xlink:href="#rim"/>
    <path pointer-events="none" fill="none" stroke="white" stroke-width="1.5" d="M0,-3.0v7 M-2.5,-0.5L0,-3.0L2.5,-0.5"/>
  </g>
  <g id="arrowRight" transform="rotate(90) translate(36 -43)">
    <use xlink:href="#rim"/>
    <path pointer-events="none" fill="none" stroke="white" stroke-width="1.5" d="M0,-3.0v7 M-2.5,-0.5L0,-3.0L2.5,-0.5"/>
  </g>
  <g id="arrowDown" transform="rotate(180) translate(-30 -48)">
    <use xlink:href="#rim"/>
    <path pointer-events="none" fill="none" stroke="white" stroke-width="1.5" d="M0,-3.0v7 M-2.5,-0.5L0,-3.0L2.5,-0.5"/>
  </g>
  <g id="arrowLeft" transform="rotate(270) translate(-36 17)">
    <use xlink:href="#rim"/>
    <path pointer-events="none" fill="none" stroke="white" stroke-width="1.5" d="M0,-3.0v7 M-2.5,-0.5L0,-3.0L2.5,-0.5"/>
  </g>
  <g id="resetDef">
    <use xlink:href="#rim2" fill="#404040"><set attributeName="fill" to="#808080" begin="reset.mouseover" end="reset.mouseout"/></use>
  </g>
</defs>
<script type="application/ecmascript">
var viewWidth = 1744;
var viewHeight = 302;
var sectionId = 'dynsection-1';
</script>
<script type="application/ecmascript" xlink:href="svg.min.js"/>
<svg id="graph" class="graph">
<g id="viewport">
<title>model.h</title>
<!-- Node1 -->
<g id="Node000001" class="node">
<title>Node1</title>
<g id="a_Node000001"><a xlink:title="Defines data structures for model configuration in the AnalysisG framework.">
<polygon fill="#999999" stroke="#666666" points="648,-294 592,-294 592,-275 648,-275 648,-294"/>
<text text-anchor="middle" x="620" y="-282" font-family="Helvetica,sans-Serif" font-size="10.00">model.h</text>
</a>
</g>
</g>
<!-- Node2 -->
<g id="Node000002" class="node">
<title>Node2</title>
<g id="a_Node000002"><a xlink:href="metric__template_8h.html" target="_top" xlink:title=" ">
<polygon fill="white" stroke="#666666" points="429.5,-239 322.5,-239 322.5,-220 429.5,-220 429.5,-239"/>
<text text-anchor="middle" x="376" y="-227" font-family="Helvetica,sans-Serif" font-size="10.00">metric_template.h</text>
</a>
</g>
</g>
<!-- Node1&#45;&gt;Node2 -->
<g id="edge1_Node000001_Node000002" class="edge">
<title>Node1&#45;&gt;Node2</title>
<g id="a_edge1_Node000001_Node000002"><a xlink:title=" ">
<path fill="none" stroke="#63b8ff" d="M581.48,-275.13C536.02,-265.26 460.86,-248.93 415.13,-239"/>
<polygon fill="#63b8ff" stroke="#63b8ff" points="581.02,-278.61 591.53,-277.32 582.5,-271.77 581.02,-278.61"/>
</a>
</g>
</g>
<!-- Node21 -->
<g id="Node000021" class="node">
<title>Node21</title>
<g id="a_Node000021"><a xlink:href="model__template_8h.html" target="_top" xlink:title="Defines the base template class for machine learning models in the AnalysisG framework.">
<polygon fill="white" stroke="#666666" points="987,-239 881,-239 881,-220 987,-220 987,-239"/>
<text text-anchor="middle" x="934" y="-227" font-family="Helvetica,sans-Serif" font-size="10.00">model_template.h</text>
</a>
</g>
</g>
<!-- Node1&#45;&gt;Node21 -->
<g id="edge20_Node000001_Node000021" class="edge">
<title>Node1&#45;&gt;Node21</title>
<g id="a_edge20_Node000001_Node000021"><a xlink:title=" ">
<path fill="none" stroke="#63b8ff" d="M658.09,-277.07C714.57,-267.54 820.61,-249.64 883.51,-239.02"/>
<polygon fill="#63b8ff" stroke="#63b8ff" points="657.42,-273.63 648.14,-278.75 658.58,-280.54 657.42,-273.63"/>
</a>
</g>
</g>
<!-- Node3 -->
<g id="Node000003" class="node">
<title>Node3</title>
<g id="a_Node000003"><a xlink:href="accuracy_8h.html" target="_top" xlink:title=" ">
<polygon fill="white" stroke="#666666" points="172,-184 104,-184 104,-165 172,-165 172,-184"/>
<text text-anchor="middle" x="138" y="-172" font-family="Helvetica,sans-Serif" font-size="10.00">accuracy.h</text>
</a>
</g>
</g>
<!-- Node2&#45;&gt;Node3 -->
<g id="edge2_Node000002_Node000003" class="edge">
<title>Node2&#45;&gt;Node3</title>
<g id="a_edge2_Node000002_Node000003"><a xlink:title=" ">
<path fill="none" stroke="#63b8ff" d="M327.98,-217.81C281.81,-207.53 213.18,-192.24 172.28,-183.13"/>
<polygon fill="#63b8ff" stroke="#63b8ff" points="327.24,-221.23 337.76,-219.98 328.76,-214.39 327.24,-221.23"/>
</a>
</g>
</g>
<!-- Node5 -->
<g id="Node000005" class="node">
<title>Node5</title>
<g id="a_Node000005"><a xlink:href="analysis_8h.html" target="_top" xlink:title="Defines the analysis class, the central orchestrator for physics analysis tasks.">
<polygon fill="white" stroke="#666666" points="729,-74 663,-74 663,-55 729,-55 729,-74"/>
<text text-anchor="middle" x="696" y="-62" font-family="Helvetica,sans-Serif" font-size="10.00">analysis.h</text>
</a>
</g>
</g>
<!-- Node2&#45;&gt;Node5 -->
<g id="edge4_Node000002_Node000005" class="edge">
<title>Node2&#45;&gt;Node5</title>
<g id="a_edge4_Node000002_Node000005"><a xlink:title=" ">
<path fill="none" stroke="#63b8ff" d="M377.05,-209.84C378.81,-195.8 383.36,-176.98 395,-165 468.65,-89.22 601.14,-71.14 662.78,-66.84"/>
<polygon fill="#63b8ff" stroke="#63b8ff" points="373.56,-209.59 376.16,-219.86 380.53,-210.21 373.56,-209.59"/>
</a>
</g>
</g>
<!-- Node14 -->
<g id="Node000014" class="node">
<title>Node14</title>
<g id="a_Node000014"><a xlink:href="metric_2cxx_2base_8cxx.html" target="_top" xlink:title=" ">
<polygon fill="white" stroke="#666666" points="464,-184 404,-184 404,-165 464,-165 464,-184"/>
<text text-anchor="middle" x="434" y="-172" font-family="Helvetica,sans-Serif" font-size="10.00">base.cxx</text>
</a>
</g>
</g>
<!-- Node2&#45;&gt;Node14 -->
<g id="edge13_Node000002_Node000014" class="edge">
<title>Node2&#45;&gt;Node14</title>
<g id="a_edge13_Node000002_Node000014"><a xlink:title=" ">
<path fill="none" stroke="#63b8ff" d="M392.91,-213.04C403.2,-203.64 415.97,-191.98 424.51,-184.17"/>
<polygon fill="#63b8ff" stroke="#63b8ff" points="390.34,-210.66 385.32,-219.98 395.06,-215.82 390.34,-210.66"/>
</a>
</g>
</g>
<!-- Node15 -->
<g id="Node000015" class="node">
<title>Node15</title>
<g id="a_Node000015"><a xlink:href="link_8cxx.html" target="_top" xlink:title=" ">
<polygon fill="white" stroke="#666666" points="537.5,-184 482.5,-184 482.5,-165 537.5,-165 537.5,-184"/>
<text text-anchor="middle" x="510" y="-172" font-family="Helvetica,sans-Serif" font-size="10.00">link.cxx</text>
</a>
</g>
</g>
<!-- Node2&#45;&gt;Node15 -->
<g id="edge14_Node000002_Node000015" class="edge">
<title>Node2&#45;&gt;Node15</title>
<g id="a_edge14_Node000002_Node000015"><a xlink:title=" ">
<path fill="none" stroke="#63b8ff" d="M406.87,-216.29C431.7,-206.47 465.99,-192.91 488.08,-184.17"/>
<polygon fill="#63b8ff" stroke="#63b8ff" points="405.54,-213.05 397.53,-219.98 408.12,-219.56 405.54,-213.05"/>
</a>
</g>
</g>
<!-- Node16 -->
<g id="Node000016" class="node">
<title>Node16</title>
<g id="a_Node000016"><a xlink:href="metric_8cxx.html" target="_top" xlink:title=" ">
<polygon fill="white" stroke="#666666" points="258,-184 190,-184 190,-165 258,-165 258,-184"/>
<text text-anchor="middle" x="224" y="-172" font-family="Helvetica,sans-Serif" font-size="10.00">metric.cxx</text>
</a>
</g>
</g>
<!-- Node2&#45;&gt;Node16 -->
<g id="edge15_Node000002_Node000016" class="edge">
<title>Node2&#45;&gt;Node16</title>
<g id="a_edge15_Node000002_Node000016"><a xlink:title=" ">
<path fill="none" stroke="#63b8ff" d="M342.07,-216.67C313.73,-206.79 273.98,-192.93 248.61,-184.08"/>
<polygon fill="#63b8ff" stroke="#63b8ff" points="340.98,-220 351.58,-219.98 343.29,-213.39 340.98,-220"/>
</a>
</g>
</g>
<!-- Node17 -->
<g id="Node000017" class="node">
<title>Node17</title>
<g id="a_Node000017"><a xlink:href="metric__template_8cxx.html" target="_top" xlink:title=" ">
<polygon fill="white" stroke="#666666" points="674,-184 556,-184 556,-165 674,-165 674,-184"/>
<text text-anchor="middle" x="615" y="-172" font-family="Helvetica,sans-Serif" font-size="10.00">metric_template.cxx</text>
</a>
</g>
</g>
<!-- Node2&#45;&gt;Node17 -->
<g id="edge16_Node000002_Node000017" class="edge">
<title>Node2&#45;&gt;Node17</title>
<g id="a_edge16_Node000002_Node000017"><a xlink:title=" ">
<path fill="none" stroke="#63b8ff" d="M424.18,-217.82C468.97,-207.88 534.84,-193.28 576.3,-184.08"/>
<polygon fill="#63b8ff" stroke="#63b8ff" points="423.4,-214.4 414.4,-219.98 424.92,-221.24 423.4,-214.4"/>
</a>
</g>
</g>
<!-- Node18 -->
<g id="Node000018" class="node">
<title>Node18</title>
<g id="a_Node000018"><a xlink:href="pagerank_8h.html" target="_top" xlink:title=" ">
<polygon fill="white" stroke="#666666" points="347.5,-184 276.5,-184 276.5,-165 347.5,-165 347.5,-184"/>
<text text-anchor="middle" x="312" y="-172" font-family="Helvetica,sans-Serif" font-size="10.00">pagerank.h</text>
</a>
</g>
</g>
<!-- Node2&#45;&gt;Node18 -->
<g id="edge17_Node000002_Node000018" class="edge">
<title>Node2&#45;&gt;Node18</title>
<g id="a_edge17_Node000002_Node000018"><a xlink:title=" ">
<path fill="none" stroke="#63b8ff" d="M358.01,-213.6C346.54,-204.11 332.09,-192.13 322.47,-184.17"/>
<polygon fill="#63b8ff" stroke="#63b8ff" points="355.78,-216.3 365.72,-219.98 360.25,-210.91 355.78,-216.3"/>
</a>
</g>
</g>
<!-- Node20 -->
<g id="Node000020" class="node">
<title>Node20</title>
<g id="a_Node000020"><a xlink:href="metric_2cxx_2properties_8cxx.html" target="_top" xlink:title=" ">
<polygon fill="white" stroke="#666666" points="86,-184 0,-184 0,-165 86,-165 86,-184"/>
<text text-anchor="middle" x="43" y="-172" font-family="Helvetica,sans-Serif" font-size="10.00">properties.cxx</text>
</a>
</g>
</g>
<!-- Node2&#45;&gt;Node20 -->
<g id="edge19_Node000002_Node000020" class="edge">
<title>Node2&#45;&gt;Node20</title>
<g id="a_edge19_Node000002_Node000020"><a xlink:title=" ">
<path fill="none" stroke="#63b8ff" d="M312.44,-218.53C255.48,-209.57 169.64,-196.01 95,-184 92.11,-183.53 89.13,-183.05 86.13,-182.57"/>
<polygon fill="#63b8ff" stroke="#63b8ff" points="311.96,-221.99 322.38,-220.09 313.04,-215.08 311.96,-221.99"/>
</a>
</g>
</g>
<!-- Node4 -->
<g id="Node000004" class="node">
<title>Node4</title>
<g id="a_Node000004"><a xlink:href="accuracy_8cxx.html" target="_top" xlink:title=" ">
<polygon fill="white" stroke="#666666" points="177.5,-129 98.5,-129 98.5,-110 177.5,-110 177.5,-129"/>
<text text-anchor="middle" x="138" y="-117" font-family="Helvetica,sans-Serif" font-size="10.00">accuracy.cxx</text>
</a>
</g>
</g>
<!-- Node3&#45;&gt;Node4 -->
<g id="edge3_Node000003_Node000004" class="edge">
<title>Node3&#45;&gt;Node4</title>
<g id="a_edge3_Node000003_Node000004"><a xlink:title=" ">
<path fill="none" stroke="#63b8ff" d="M138,-154.66C138,-145.93 138,-135.99 138,-129.09"/>
<polygon fill="#63b8ff" stroke="#63b8ff" points="134.5,-154.75 138,-164.75 141.5,-154.75 134.5,-154.75"/>
</a>
</g>
</g>
<!-- Node6 -->
<g id="Node000006" class="node">
<title>Node6</title>
<g id="a_Node000006"><a xlink:href="analysis_8cxx.html" target="_top" xlink:title=" ">
<polygon fill="white" stroke="#666666" points="340.5,-19 263.5,-19 263.5,0 340.5,0 340.5,-19"/>
<text text-anchor="middle" x="302" y="-7" font-family="Helvetica,sans-Serif" font-size="10.00">analysis.cxx</text>
</a>
</g>
</g>
<!-- Node5&#45;&gt;Node6 -->
<g id="edge5_Node000005_Node000006" class="edge">
<title>Node5&#45;&gt;Node6</title>
<g id="a_edge5_Node000005_Node000006"><a xlink:title=" ">
<path fill="none" stroke="#63b8ff" d="M652.54,-58.58C586.88,-51 458.54,-35.58 350,-19 346.99,-18.54 343.87,-18.04 340.75,-17.52"/>
<polygon fill="#63b8ff" stroke="#63b8ff" points="652.19,-62.06 662.53,-59.73 652.99,-55.11 652.19,-62.06"/>
</a>
</g>
</g>
<!-- Node7 -->
<g id="Node000007" class="node">
<title>Node7</title>
<g id="a_Node000007"><a xlink:href="event__build_8cxx.html" target="_top" xlink:title=" ">
<polygon fill="white" stroke="#666666" points="453,-19 359,-19 359,0 453,0 453,-19"/>
<text text-anchor="middle" x="406" y="-7" font-family="Helvetica,sans-Serif" font-size="10.00">event_build.cxx</text>
</a>
</g>
</g>
<!-- Node5&#45;&gt;Node7 -->
<g id="edge6_Node000005_Node000007" class="edge">
<title>Node5&#45;&gt;Node7</title>
<g id="a_edge6_Node000005_Node000007"><a xlink:title=" ">
<path fill="none" stroke="#63b8ff" d="M652.85,-55.61C599.2,-45.81 507.97,-29.14 452.72,-19.04"/>
<polygon fill="#63b8ff" stroke="#63b8ff" points="652.27,-59.07 662.73,-57.42 653.53,-52.18 652.27,-59.07"/>
</a>
</g>
</g>
<!-- Node8 -->
<g id="Node000008" class="node">
<title>Node8</title>
<g id="a_Node000008"><a xlink:href="graph__build_8cxx.html" target="_top" xlink:title=" ">
<polygon fill="white" stroke="#666666" points="565,-19 471,-19 471,0 565,0 565,-19"/>
<text text-anchor="middle" x="518" y="-7" font-family="Helvetica,sans-Serif" font-size="10.00">graph_build.cxx</text>
</a>
</g>
</g>
<!-- Node5&#45;&gt;Node8 -->
<g id="edge7_Node000005_Node000008" class="edge">
<title>Node5&#45;&gt;Node8</title>
<g id="a_edge7_Node000005_Node000008"><a xlink:title=" ">
<path fill="none" stroke="#63b8ff" d="M657.56,-52.06C624.3,-42.15 576.92,-28.04 546.82,-19.08"/>
<polygon fill="#63b8ff" stroke="#63b8ff" points="656.82,-55.49 667.4,-54.98 658.82,-48.78 656.82,-55.49"/>
</a>
</g>
</g>
<!-- Node9 -->
<g id="Node000009" class="node">
<title>Node9</title>
<g id="a_Node000009"><a xlink:href="inference__build_8cxx.html" target="_top" xlink:title=" ">
<polygon fill="white" stroke="#666666" points="695,-19 583,-19 583,0 695,0 695,-19"/>
<text text-anchor="middle" x="639" y="-7" font-family="Helvetica,sans-Serif" font-size="10.00">inference_build.cxx</text>
</a>
</g>
</g>
<!-- Node5&#45;&gt;Node9 -->
<g id="edge8_Node000005_Node000009" class="edge">
<title>Node5&#45;&gt;Node9</title>
<g id="a_edge8_Node000005_Node000009"><a xlink:title=" ">
<path fill="none" stroke="#63b8ff" d="M679.38,-48.04C669.27,-38.64 656.72,-26.98 648.32,-19.17"/>
<polygon fill="#63b8ff" stroke="#63b8ff" points="677.14,-50.74 686.84,-54.98 681.9,-45.61 677.14,-50.74"/>
</a>
</g>
</g>
<!-- Node10 -->
<g id="Node000010" class="node">
<title>Node10</title>
<g id="a_Node000010"><a xlink:href="methods_8cxx.html" target="_top" xlink:title=" ">
<polygon fill="white" stroke="#666666" points="793,-19 713,-19 713,0 793,0 793,-19"/>
<text text-anchor="middle" x="753" y="-7" font-family="Helvetica,sans-Serif" font-size="10.00">methods.cxx</text>
</a>
</g>
</g>
<!-- Node5&#45;&gt;Node10 -->
<g id="edge9_Node000005_Node000010" class="edge">
<title>Node5&#45;&gt;Node10</title>
<g id="a_edge9_Node000005_Node000010"><a xlink:title=" ">
<path fill="none" stroke="#63b8ff" d="M712.62,-48.04C722.73,-38.64 735.28,-26.98 743.68,-19.17"/>
<polygon fill="#63b8ff" stroke="#63b8ff" points="710.1,-45.61 705.16,-54.98 714.86,-50.74 710.1,-45.61"/>
</a>
</g>
</g>
<!-- Node11 -->
<g id="Node000011" class="node">
<title>Node11</title>
<g id="a_Node000011"><a xlink:href="metric__build_8cxx.html" target="_top" xlink:title=" ">
<polygon fill="white" stroke="#666666" points="909,-19 811,-19 811,0 909,0 909,-19"/>
<text text-anchor="middle" x="860" y="-7" font-family="Helvetica,sans-Serif" font-size="10.00">metric_build.cxx</text>
</a>
</g>
</g>
<!-- Node5&#45;&gt;Node11 -->
<g id="edge10_Node000005_Node000011" class="edge">
<title>Node5&#45;&gt;Node11</title>
<g id="a_edge10_Node000005_Node000011"><a xlink:title=" ">
<path fill="none" stroke="#63b8ff" d="M732.21,-51.8C762.82,-41.91 805.95,-27.97 833.44,-19.08"/>
<polygon fill="#63b8ff" stroke="#63b8ff" points="730.79,-48.58 722.35,-54.98 732.94,-55.24 730.79,-48.58"/>
</a>
</g>
</g>
<!-- Node12 -->
<g id="Node000012" class="node">
<title>Node12</title>
<g id="a_Node000012"><a xlink:href="optimizer__build_8cxx.html" target="_top" xlink:title="Implementation of model session creation and management in the analysis class.">
<polygon fill="white" stroke="#666666" points="1040.5,-19 927.5,-19 927.5,0 1040.5,0 1040.5,-19"/>
<text text-anchor="middle" x="984" y="-7" font-family="Helvetica,sans-Serif" font-size="10.00">optimizer_build.cxx</text>
</a>
</g>
</g>
<!-- Node5&#45;&gt;Node12 -->
<g id="edge11_Node000005_Node000012" class="edge">
<title>Node5&#45;&gt;Node12</title>
<g id="a_edge11_Node000005_Node000012"><a xlink:title=" ">
<path fill="none" stroke="#63b8ff" d="M739.19,-55.55C792.51,-45.74 882.84,-29.12 937.6,-19.04"/>
<polygon fill="#63b8ff" stroke="#63b8ff" points="738.24,-52.17 729.04,-57.42 739.51,-59.05 738.24,-52.17"/>
</a>
</g>
</g>
<!-- Node13 -->
<g id="Node000013" class="node">
<title>Node13</title>
<g id="a_Node000013"><a xlink:href="selection__build_8cxx.html" target="_top" xlink:title=" ">
<polygon fill="white" stroke="#666666" points="1169,-19 1059,-19 1059,0 1169,0 1169,-19"/>
<text text-anchor="middle" x="1114" y="-7" font-family="Helvetica,sans-Serif" font-size="10.00">selection_build.cxx</text>
</a>
</g>
</g>
<!-- Node5&#45;&gt;Node13 -->
<g id="edge12_Node000005_Node000013" class="edge">
<title>Node5&#45;&gt;Node13</title>
<g id="a_edge12_Node000005_Node000013"><a xlink:title=" ">
<path fill="none" stroke="#63b8ff" d="M739.34,-58.15C806.08,-49.89 938.04,-33.47 1050,-19 1052.89,-18.63 1055.85,-18.24 1058.85,-17.85"/>
<polygon fill="#63b8ff" stroke="#63b8ff" points="738.69,-54.7 729.2,-59.41 739.55,-61.65 738.69,-54.7"/>
</a>
</g>
</g>
<!-- Node19 -->
<g id="Node000019" class="node">
<title>Node19</title>
<g id="a_Node000019"><a xlink:href="pagerank_8cxx.html" target="_top" xlink:title=" ">
<polygon fill="white" stroke="#666666" points="347.5,-129 264.5,-129 264.5,-110 347.5,-110 347.5,-129"/>
<text text-anchor="middle" x="306" y="-117" font-family="Helvetica,sans-Serif" font-size="10.00">pagerank.cxx</text>
</a>
</g>
</g>
<!-- Node18&#45;&gt;Node19 -->
<g id="edge18_Node000018_Node000019" class="edge">
<title>Node18&#45;&gt;Node19</title>
<g id="a_edge18_Node000018_Node000019"><a xlink:title=" ">
<path fill="none" stroke="#63b8ff" d="M309.87,-154.66C308.88,-145.93 307.75,-135.99 306.97,-129.09"/>
<polygon fill="#63b8ff" stroke="#63b8ff" points="306.41,-155.21 311.01,-164.75 313.36,-154.42 306.41,-155.21"/>
</a>
</g>
</g>
<!-- Node21&#45;&gt;Node5 -->
<g id="edge23_Node000021_Node000005" class="edge">
<title>Node21&#45;&gt;Node5</title>
<g id="a_edge23_Node000021_Node000005"><a xlink:title=" ">
<path fill="none" stroke="#63b8ff" d="M870.73,-222.88C815.75,-216.68 741.77,-204.73 721,-184 690.49,-153.55 692.81,-95.88 694.95,-74.11"/>
<polygon fill="#63b8ff" stroke="#63b8ff" points="870.43,-226.37 880.75,-223.97 871.19,-219.41 870.43,-226.37"/>
</a>
</g>
</g>
<!-- Node21&#45;&gt;Node14 -->
<g id="edge24_Node000021_Node000014" class="edge">
<title>Node21&#45;&gt;Node14</title>
<g id="a_edge24_Node000021_Node000014"><a xlink:title=" ">
<path fill="none" stroke="#63b8ff" d="M870.64,-224.77C781.5,-218.97 614.17,-206.12 473,-184 470.12,-183.55 467.14,-183.02 464.17,-182.44"/>
<polygon fill="#63b8ff" stroke="#63b8ff" points="870.65,-228.27 880.85,-225.42 871.1,-221.29 870.65,-228.27"/>
</a>
</g>
</g>
<!-- Node21&#45;&gt;Node15 -->
<g id="edge28_Node000021_Node000015" class="edge">
<title>Node21&#45;&gt;Node15</title>
<g id="a_edge28_Node000021_Node000015"><a xlink:title=" ">
<path fill="none" stroke="#63b8ff" d="M870.84,-223.41C793.97,-216.72 660.39,-203.48 547,-184 544.01,-183.49 540.9,-182.88 537.81,-182.24"/>
<polygon fill="#63b8ff" stroke="#63b8ff" points="870.58,-226.9 880.84,-224.27 871.18,-219.93 870.58,-226.9"/>
</a>
</g>
</g>
<!-- Node21&#45;&gt;Node17 -->
<g id="edge29_Node000021_Node000017" class="edge">
<title>Node21&#45;&gt;Node17</title>
<g id="a_edge29_Node000021_Node000017"><a xlink:title=" ">
<path fill="none" stroke="#63b8ff" d="M872.67,-218.31C812.76,-208.36 722.64,-193.38 666.39,-184.04"/>
<polygon fill="#63b8ff" stroke="#63b8ff" points="872.31,-221.8 882.75,-219.98 873.46,-214.89 872.31,-221.8"/>
</a>
</g>
</g>
<!-- Node22 -->
<g id="Node000022" class="node">
<title>Node22</title>
<g id="a_Node000022"><a xlink:href="RecursiveGraphNeuralNetwork_8h.html" target="_top" xlink:title=" ">
<polygon fill="white" stroke="#666666" points="1561,-184 1385,-184 1385,-165 1561,-165 1561,-184"/>
<text text-anchor="middle" x="1473" y="-172" font-family="Helvetica,sans-Serif" font-size="10.00">RecursiveGraphNeuralNetwork.h</text>
</a>
</g>
</g>
<!-- Node21&#45;&gt;Node22 -->
<g id="edge21_Node000021_Node000022" class="edge">
<title>Node21&#45;&gt;Node22</title>
<g id="a_edge21_Node000021_Node000022"><a xlink:title=" ">
<path fill="none" stroke="#63b8ff" d="M997.34,-222.27C1093.74,-212.79 1277.53,-194.72 1386.26,-184.03"/>
<polygon fill="#63b8ff" stroke="#63b8ff" points="996.77,-218.81 987.16,-223.27 997.45,-225.78 996.77,-218.81"/>
</a>
</g>
</g>
<!-- Node24 -->
<g id="Node000024" class="node">
<title>Node24</title>
<g id="a_Node000024"><a xlink:href="dataloader_8cxx.html" target="_top" xlink:title=" ">
<polygon fill="white" stroke="#666666" points="1667.5,-184 1578.5,-184 1578.5,-165 1667.5,-165 1667.5,-184"/>
<text text-anchor="middle" x="1623" y="-172" font-family="Helvetica,sans-Serif" font-size="10.00">dataloader.cxx</text>
</a>
</g>
</g>
<!-- Node21&#45;&gt;Node24 -->
<g id="edge25_Node000021_Node000024" class="edge">
<title>Node21&#45;&gt;Node24</title>
<g id="a_edge25_Node000021_Node000024"><a xlink:title=" ">
<path fill="none" stroke="#63b8ff" d="M997.33,-225.94C1111.9,-220.9 1361.05,-208.02 1570,-184 1572.68,-183.69 1575.44,-183.34 1578.22,-182.97"/>
<polygon fill="#63b8ff" stroke="#63b8ff" points="997.17,-222.45 987.33,-226.38 997.48,-229.44 997.17,-222.45"/>
</a>
</g>
</g>
<!-- Node25 -->
<g id="Node000025" class="node">
<title>Node25</title>
<g id="a_Node000025"><a xlink:href="grift_8h.html" target="_top" xlink:title=" ">
<polygon fill="white" stroke="#666666" points="1730.5,-184 1685.5,-184 1685.5,-165 1730.5,-165 1730.5,-184"/>
<text text-anchor="middle" x="1708" y="-172" font-family="Helvetica,sans-Serif" font-size="10.00">grift.h</text>
</a>
</g>
</g>
<!-- Node21&#45;&gt;Node25 -->
<g id="edge26_Node000021_Node000025" class="edge">
<title>Node21&#45;&gt;Node25</title>
<g id="a_edge26_Node000021_Node000025"><a xlink:title=" ">
<path fill="none" stroke="#63b8ff" d="M997.2,-229.12C1126.01,-229.41 1427.8,-225.17 1677,-184 1679.75,-183.55 1682.61,-182.94 1685.43,-182.27"/>
<polygon fill="#63b8ff" stroke="#63b8ff" points="997.13,-225.62 987.12,-229.08 997.11,-232.62 997.13,-225.62"/>
</a>
</g>
</g>
<!-- Node27 -->
<g id="Node000027" class="node">
<title>Node27</title>
<g id="a_Node000027"><a xlink:href="metrics_8h.html" target="_top" xlink:title="Header file for the metrics class.">
<polygon fill="white" stroke="#666666" points="792,-184 730,-184 730,-165 792,-165 792,-184"/>
<text text-anchor="middle" x="761" y="-172" font-family="Helvetica,sans-Serif" font-size="10.00">metrics.h</text>
</a>
</g>
</g>
<!-- Node21&#45;&gt;Node27 -->
<g id="edge30_Node000021_Node000027" class="edge">
<title>Node21&#45;&gt;Node27</title>
<g id="a_edge30_Node000021_Node000027"><a xlink:title=" ">
<path fill="none" stroke="#63b8ff" d="M896.23,-216.93C863.91,-207.03 818.14,-193.01 789.01,-184.08"/>
<polygon fill="#63b8ff" stroke="#63b8ff" points="895.62,-220.4 906.2,-219.98 897.67,-213.71 895.62,-220.4"/>
</a>
</g>
</g>
<!-- Node31 -->
<g id="Node000031" class="node">
<title>Node31</title>
<g id="a_Node000031"><a xlink:href="optimizer_2include_2generators_2optimizer_8h.html" target="_top" xlink:title=" ">
<polygon fill="white" stroke="#666666" points="1101.5,-129 1030.5,-129 1030.5,-110 1101.5,-110 1101.5,-129"/>
<text text-anchor="middle" x="1066" y="-117" font-family="Helvetica,sans-Serif" font-size="10.00">optimizer.h</text>
</a>
</g>
</g>
<!-- Node21&#45;&gt;Node31 -->
<g id="edge41_Node000021_Node000031" class="edge">
<title>Node21&#45;&gt;Node31</title>
<g id="a_edge41_Node000021_Node000031"><a xlink:title=" ">
<path fill="none" stroke="#63b8ff" d="M997.29,-226.08C1105.28,-221.3 1315.71,-208.88 1338,-184 1343.63,-177.71 1343.47,-171.44 1338,-165 1308.06,-129.77 1168.32,-122.37 1101.62,-120.86"/>
<polygon fill="#63b8ff" stroke="#63b8ff" points="997.01,-222.59 987.17,-226.52 997.31,-229.59 997.01,-222.59"/>
</a>
</g>
</g>
<!-- Node33 -->
<g id="Node000033" class="node">
<title>Node33</title>
<g id="a_Node000033"><a xlink:href="model__checks_8cxx.html" target="_top" xlink:title=" ">
<polygon fill="white" stroke="#666666" points="917.5,-184 810.5,-184 810.5,-165 917.5,-165 917.5,-184"/>
<text text-anchor="middle" x="864" y="-172" font-family="Helvetica,sans-Serif" font-size="10.00">model_checks.cxx</text>
</a>
</g>
</g>
<!-- Node21&#45;&gt;Node33 -->
<g id="edge37_Node000021_Node000033" class="edge">
<title>Node21&#45;&gt;Node33</title>
<g id="a_edge37_Node000021_Node000033"><a xlink:title=" ">
<path fill="none" stroke="#63b8ff" d="M914.69,-213.88C902.09,-204.34 886.07,-192.21 875.45,-184.17"/>
<polygon fill="#63b8ff" stroke="#63b8ff" points="912.67,-216.74 922.75,-219.98 916.89,-211.16 912.67,-216.74"/>
</a>
</g>
</g>
<!-- Node34 -->
<g id="Node000034" class="node">
<title>Node34</title>
<g id="a_Node000034"><a xlink:href="model__configuration_8cxx.html" target="_top" xlink:title=" ">
<polygon fill="white" stroke="#666666" points="1072.5,-184 935.5,-184 935.5,-165 1072.5,-165 1072.5,-184"/>
<text text-anchor="middle" x="1004" y="-172" font-family="Helvetica,sans-Serif" font-size="10.00">model_configuration.cxx</text>
</a>
</g>
</g>
<!-- Node21&#45;&gt;Node34 -->
<g id="edge38_Node000021_Node000034" class="edge">
<title>Node21&#45;&gt;Node34</title>
<g id="a_edge38_Node000021_Node000034"><a xlink:title=" ">
<path fill="none" stroke="#63b8ff" d="M953.31,-213.88C965.91,-204.34 981.93,-192.21 992.55,-184.17"/>
<polygon fill="#63b8ff" stroke="#63b8ff" points="951.11,-211.16 945.25,-219.98 955.33,-216.74 951.11,-211.16"/>
</a>
</g>
</g>
<!-- Node35 -->
<g id="Node000035" class="node">
<title>Node35</title>
<g id="a_Node000035"><a xlink:href="model__lossfx_8cxx.html" target="_top" xlink:title=" ">
<polygon fill="white" stroke="#666666" points="1193,-184 1091,-184 1091,-165 1193,-165 1193,-184"/>
<text text-anchor="middle" x="1142" y="-172" font-family="Helvetica,sans-Serif" font-size="10.00">model_lossfx.cxx</text>
</a>
</g>
</g>
<!-- Node21&#45;&gt;Node35 -->
<g id="edge39_Node000021_Node000035" class="edge">
<title>Node21&#45;&gt;Node35</title>
<g id="a_edge39_Node000021_Node000035"><a xlink:title=" ">
<path fill="none" stroke="#63b8ff" d="M977.41,-217.44C1016.35,-207.52 1072.69,-193.16 1108.32,-184.08"/>
<polygon fill="#63b8ff" stroke="#63b8ff" points="976.24,-214.12 967.42,-219.98 977.97,-220.91 976.24,-214.12"/>
</a>
</g>
</g>
<!-- Node36 -->
<g id="Node000036" class="node">
<title>Node36</title>
<g id="a_Node000036"><a xlink:href="model__template_8cxx.html" target="_top" xlink:title="Implementation of the model_template class methods.">
<polygon fill="white" stroke="#666666" points="1328.5,-184 1211.5,-184 1211.5,-165 1328.5,-165 1328.5,-184"/>
<text text-anchor="middle" x="1270" y="-172" font-family="Helvetica,sans-Serif" font-size="10.00">model_template.cxx</text>
</a>
</g>
</g>
<!-- Node21&#45;&gt;Node36 -->
<g id="edge40_Node000021_Node000036" class="edge">
<title>Node21&#45;&gt;Node36</title>
<g id="a_edge40_Node000021_Node000036"><a xlink:title=" ">
<path fill="none" stroke="#63b8ff" d="M997.46,-218.49C1060.56,-208.54 1156.3,-193.44 1215.9,-184.03"/>
<polygon fill="#63b8ff" stroke="#63b8ff" points="996.57,-215.09 987.24,-220.1 997.66,-222 996.57,-215.09"/>
</a>
</g>
</g>
<!-- Node23 -->
<g id="Node000023" class="node">
<title>Node23</title>
<g id="a_Node000023"><a xlink:href="RecursiveGraphNeuralNetwork_8cxx.html" target="_top" xlink:title=" ">
<polygon fill="white" stroke="#666666" points="1567,-129 1379,-129 1379,-110 1567,-110 1567,-129"/>
<text text-anchor="middle" x="1473" y="-117" font-family="Helvetica,sans-Serif" font-size="10.00">RecursiveGraphNeuralNetwork.cxx</text>
</a>
</g>
</g>
<!-- Node22&#45;&gt;Node23 -->
<g id="edge22_Node000022_Node000023" class="edge">
<title>Node22&#45;&gt;Node23</title>
<g id="a_edge22_Node000022_Node000023"><a xlink:title=" ">
<path fill="none" stroke="#63b8ff" d="M1473,-154.66C1473,-145.93 1473,-135.99 1473,-129.09"/>
<polygon fill="#63b8ff" stroke="#63b8ff" points="1469.5,-154.75 1473,-164.75 1476.5,-154.75 1469.5,-154.75"/>
</a>
</g>
</g>
<!-- Node26 -->
<g id="Node000026" class="node">
<title>Node26</title>
<g id="a_Node000026"><a xlink:href="grift_8cxx.html" target="_top" xlink:title=" ">
<polygon fill="white" stroke="#666666" points="1736,-129 1680,-129 1680,-110 1736,-110 1736,-129"/>
<text text-anchor="middle" x="1708" y="-117" font-family="Helvetica,sans-Serif" font-size="10.00">grift.cxx</text>
</a>
</g>
</g>
<!-- Node25&#45;&gt;Node26 -->
<g id="edge27_Node000025_Node000026" class="edge">
<title>Node25&#45;&gt;Node26</title>
<g id="a_edge27_Node000025_Node000026"><a xlink:title=" ">
<path fill="none" stroke="#63b8ff" d="M1708,-154.66C1708,-145.93 1708,-135.99 1708,-129.09"/>
<polygon fill="#63b8ff" stroke="#63b8ff" points="1704.5,-154.75 1708,-164.75 1711.5,-154.75 1704.5,-154.75"/>
</a>
</g>
</g>
<!-- Node28 -->
<g id="Node000028" class="node">
<title>Node28</title>
<g id="a_Node000028"><a xlink:href="loss__plots_8cxx.html" target="_top" xlink:title=" ">
<polygon fill="white" stroke="#666666" points="810,-129 724,-129 724,-110 810,-110 810,-129"/>
<text text-anchor="middle" x="767" y="-117" font-family="Helvetica,sans-Serif" font-size="10.00">loss_plots.cxx</text>
</a>
</g>
</g>
<!-- Node27&#45;&gt;Node28 -->
<g id="edge31_Node000027_Node000028" class="edge">
<title>Node27&#45;&gt;Node28</title>
<g id="a_edge31_Node000027_Node000028"><a xlink:title=" ">
<path fill="none" stroke="#63b8ff" d="M763.13,-154.66C764.12,-145.93 765.25,-135.99 766.03,-129.09"/>
<polygon fill="#63b8ff" stroke="#63b8ff" points="759.64,-154.42 761.99,-164.75 766.59,-155.21 759.64,-154.42"/>
</a>
</g>
</g>
<!-- Node29 -->
<g id="Node000029" class="node">
<title>Node29</title>
<g id="a_Node000029"><a xlink:href="mass__plots_8cxx.html" target="_top" xlink:title="Implements mass plot generation and related utilities.">
<polygon fill="white" stroke="#666666" points="920,-129 828,-129 828,-110 920,-110 920,-129"/>
<text text-anchor="middle" x="874" y="-117" font-family="Helvetica,sans-Serif" font-size="10.00">mass_plots.cxx</text>
</a>
</g>
</g>
<!-- Node27&#45;&gt;Node29 -->
<g id="edge32_Node000027_Node000029" class="edge">
<title>Node27&#45;&gt;Node29</title>
<g id="a_edge32_Node000027_Node000029"><a xlink:title=" ">
<path fill="none" stroke="#63b8ff" d="M788.43,-160.63C809.25,-150.87 837.3,-137.71 855.51,-129.17"/>
<polygon fill="#63b8ff" stroke="#63b8ff" points="786.72,-157.57 779.16,-164.98 789.7,-163.91 786.72,-157.57"/>
</a>
</g>
</g>
<!-- Node30 -->
<g id="Node000030" class="node">
<title>Node30</title>
<g id="a_Node000030"><a xlink:href="metrics_8cxx.html" target="_top" xlink:title="Implementation of the metrics class methods.">
<polygon fill="white" stroke="#666666" points="1012,-129 938,-129 938,-110 1012,-110 1012,-129"/>
<text text-anchor="middle" x="975" y="-117" font-family="Helvetica,sans-Serif" font-size="10.00">metrics.cxx</text>
</a>
</g>
</g>
<!-- Node27&#45;&gt;Node30 -->
<g id="edge33_Node000027_Node000030" class="edge">
<title>Node27&#45;&gt;Node30</title>
<g id="a_edge33_Node000027_Node000030"><a xlink:title=" ">
<path fill="none" stroke="#63b8ff" d="M801.88,-163.38C842.11,-153.41 902.85,-138.37 940.66,-129.01"/>
<polygon fill="#63b8ff" stroke="#63b8ff" points="800.98,-159.99 792.12,-165.79 802.67,-166.79 800.98,-159.99"/>
</a>
</g>
</g>
<!-- Node27&#45;&gt;Node31 -->
<g id="edge34_Node000027_Node000031" class="edge">
<title>Node27&#45;&gt;Node31</title>
<g id="a_edge34_Node000027_Node000031"><a xlink:title=" ">
<path fill="none" stroke="#63b8ff" d="M802.38,-165C900.66,-146.91 926.99,-145.6 1021,-129 1023.98,-128.47 1027.06,-127.92 1030.15,-127.35"/>
<polygon fill="#63b8ff" stroke="#63b8ff" points="801.51,-161.61 792.31,-166.87 802.78,-168.49 801.51,-161.61"/>
</a>
</g>
</g>
<!-- Node31&#45;&gt;Node5 -->
<g id="edge35_Node000031_Node000005" class="edge">
<title>Node31&#45;&gt;Node5</title>
<g id="a_edge35_Node000031_Node000005"><a xlink:title=" ">
<path fill="none" stroke="#63b8ff" d="M1020,-109.91C907.41,-91.77 786.52,-76.48 729.3,-69.49"/>
<polygon fill="#63b8ff" stroke="#63b8ff" points="1019.74,-113.42 1030.17,-111.56 1020.86,-106.51 1019.74,-113.42"/>
</a>
</g>
</g>
<!-- Node32 -->
<g id="Node000032" class="node">
<title>Node32</title>
<g id="a_Node000032"><a xlink:href="optimizer_2cxx_2optimizer_8cxx.html" target="_top" xlink:title=" ">
<polygon fill="white" stroke="#666666" points="1107.5,-74 1024.5,-74 1024.5,-55 1107.5,-55 1107.5,-74"/>
<text text-anchor="middle" x="1066" y="-62" font-family="Helvetica,sans-Serif" font-size="10.00">optimizer.cxx</text>
</a>
</g>
</g>
<!-- Node31&#45;&gt;Node32 -->
<g id="edge36_Node000031_Node000032" class="edge">
<title>Node31&#45;&gt;Node32</title>
<g id="a_edge36_Node000031_Node000032"><a xlink:title=" ">
<path fill="none" stroke="#63b8ff" d="M1066,-99.66C1066,-90.93 1066,-80.99 1066,-74.09"/>
<polygon fill="#63b8ff" stroke="#63b8ff" points="1062.5,-99.75 1066,-109.75 1069.5,-99.75 1062.5,-99.75"/>
</a>
</g>
</g>
</g>
</svg>

<g id="navigator" transform="translate(0 0)" fill="#404254">
  <rect fill="#f2f5e9" fill-opacity="0.5" stroke="#606060" stroke-width=".5" x="0" y="0" width="60" height="60"/>
  <use id="zoomplus" xlink:href="#zoomPlus" x="17" y="9" onmousedown="handleZoom(evt,'in')"/>
  <use id="zoomminus" xlink:href="#zoomMin" x="42" y="9" onmousedown="handleZoom(evt,'out')"/>
  <use id="reset" xlink:href="#resetDef" x="30" y="36" onmousedown="handleReset()"/>
   <use id="arrowup" xlink:href="#arrowUp" x="0" y="0" onmousedown="handlePan(0,-1)"/>
  <use id="arrowright" xlink:href="#arrowRight" x="0" y="0" onmousedown="handlePan(1,0)"/>
  <use id="arrowdown" xlink:href="#arrowDown" x="0" y="0" onmousedown="handlePan(0,1)"/>
  <use id="arrowleft" xlink:href="#arrowLeft" x="0" y="0" onmousedown="handlePan(-1,0)"/>
</g>
<svg viewBox="0 0 15 15" width="100%" height="30px" preserveAspectRatio="xMaxYMin meet">
 <g id="arrow_out" transform="scale(0.3 0.3)">
  <a xlink:href="model_8h__dep__incl_org.svg" target="_base">
   <rect id="button" ry="5" rx="5" y="6" x="6" height="38" width="38"
        fill="#f2f5e9" fill-opacity="0.5" stroke="#606060" stroke-width="1.0"/>
   <path id="arrow"
     d="M 11.500037,31.436501 C 11.940474,20.09759 22.043105,11.32322 32.158766,21.979434 L 37.068811,17.246167 C 37.068811,17.246167 37.088388,32 37.088388,32 L 22.160133,31.978069 C 22.160133,31.978069 26.997745,27.140456 26.997745,27.140456 C 18.528582,18.264221 13.291696,25.230495 11.500037,31.436501 z"
     style="fill:#404040;"/>
  </a>
 </g>
</svg>

<style type='text/css'>
<![CDATA[
[data-mouse-over-selected='false'] { opacity: 0.7; }
[data-mouse-over-selected='true']  { opacity: 1.0; }
]]>
</style>
<script type="application/ecmascript"><![CDATA[
document.addEventListener('DOMContentLoaded', (event) => {
  highlightEdges();
  highlightAdjacentNodes();
});
]]></script>
</svg>
