<?xml version="1.0" encoding="UTF-8" standalone="no"?>
<!DOCTYPE svg PUBLIC "-//W3C//DTD SVG 1.1//EN"
 "http://www.w3.org/Graphics/SVG/1.1/DTD/svg11.dtd">
<!-- Generated by graphviz version 2.43.0 (0)
 -->
<!-- Title: model_lossfx.cxx Pages: 1 -->
<svg width="895pt" height="192pt"
 viewBox="0.00 0.00 894.50 192.00" xmlns="http://www.w3.org/2000/svg" xmlns:xlink="http://www.w3.org/1999/xlink">
<g id="graph0" class="graph" transform="scale(1 1) rotate(0) translate(4 188)">
<title>model_lossfx.cxx</title>
<!-- Node1 -->
<g id="Node000001" class="node">
<title>Node1</title>
<g id="a_Node000001"><a xlink:title=" ">
<polygon fill="#999999" stroke="#666666" points="484,-184 382,-184 382,-165 484,-165 484,-184"/>
<text text-anchor="middle" x="433" y="-172" font-family="Helvetica,sans-Serif" font-size="10.00">model_lossfx.cxx</text>
</a>
</g>
</g>
<!-- Node2 -->
<g id="Node000002" class="node">
<title>Node2</title>
<g id="a_Node000002"><a xlink:href="model__template_8h.html" target="_top" xlink:title="Defines the base template class for machine learning models in the AnalysisG framework.">
<polygon fill="white" stroke="#666666" points="512,-129 354,-129 354,-110 512,-110 512,-129"/>
<text text-anchor="middle" x="433" y="-117" font-family="Helvetica,sans-Serif" font-size="10.00">templates/model_template.h</text>
</a>
</g>
</g>
<!-- Node1&#45;&gt;Node2 -->
<g id="edge1_Node000001_Node000002" class="edge">
<title>Node1&#45;&gt;Node2</title>
<g id="a_edge1_Node000001_Node000002"><a xlink:title=" ">
<path fill="none" stroke="#63b8ff" d="M433,-164.75C433,-157.8 433,-147.85 433,-139.13"/>
<polygon fill="#63b8ff" stroke="#63b8ff" points="436.5,-139.09 433,-129.09 429.5,-139.09 436.5,-139.09"/>
</a>
</g>
</g>
<!-- Node3 -->
<g id="Node000003" class="node">
<title>Node3</title>
<g id="a_Node000003"><a xlink:title=" ">
<polygon fill="#e0e0e0" stroke="#999999" points="78,-74 0,-74 0,-55 78,-55 78,-74"/>
<text text-anchor="middle" x="39" y="-62" font-family="Helvetica,sans-Serif" font-size="10.00">torch/torch.h</text>
</a>
</g>
</g>
<!-- Node2&#45;&gt;Node3 -->
<g id="edge2_Node000002_Node000003" class="edge">
<title>Node2&#45;&gt;Node3</title>
<g id="a_edge2_Node000002_Node000003"><a xlink:title=" ">
<path fill="none" stroke="#63b8ff" d="M358.61,-109.97C290.71,-101.94 187.32,-89.13 87.92,-74.08"/>
<polygon fill="#63b8ff" stroke="#63b8ff" points="88.42,-70.61 78.01,-72.57 87.37,-77.53 88.42,-70.61"/>
</a>
</g>
</g>
<!-- Node4 -->
<g id="Node000004" class="node">
<title>Node4</title>
<g id="a_Node000004"><a xlink:title=" ">
<polygon fill="#e0e0e0" stroke="#999999" points="285,-19 241,-19 241,0 285,0 285,-19"/>
<text text-anchor="middle" x="263" y="-7" font-family="Helvetica,sans-Serif" font-size="10.00">string</text>
</a>
</g>
</g>
<!-- Node2&#45;&gt;Node4 -->
<g id="edge3_Node000002_Node000004" class="edge">
<title>Node2&#45;&gt;Node4</title>
<g id="a_edge3_Node000002_Node000004"><a xlink:title=" ">
<path fill="none" stroke="#63b8ff" d="M353.91,-110.36C328.1,-104.07 301.17,-93.09 282,-74 270.16,-62.21 265.64,-43.37 263.94,-29.27"/>
<polygon fill="#63b8ff" stroke="#63b8ff" points="267.42,-28.87 263.1,-19.2 260.45,-29.45 267.42,-28.87"/>
</a>
</g>
</g>
<!-- Node5 -->
<g id="Node000005" class="node">
<title>Node5</title>
<g id="a_Node000005"><a xlink:title=" ">
<polygon fill="#e0e0e0" stroke="#999999" points="587.5,-19 540.5,-19 540.5,0 587.5,0 587.5,-19"/>
<text text-anchor="middle" x="564" y="-7" font-family="Helvetica,sans-Serif" font-size="10.00">vector</text>
</a>
</g>
</g>
<!-- Node2&#45;&gt;Node5 -->
<g id="edge4_Node000002_Node000005" class="edge">
<title>Node2&#45;&gt;Node5</title>
<g id="a_edge4_Node000002_Node000005"><a xlink:title=" ">
<path fill="none" stroke="#63b8ff" d="M512.23,-112.15C565.23,-106.07 628.23,-94.66 645,-74 663.01,-51.82 626.91,-32.57 597.27,-21.24"/>
<polygon fill="#63b8ff" stroke="#63b8ff" points="598.15,-17.84 587.56,-17.72 595.76,-24.42 598.15,-17.84"/>
</a>
</g>
</g>
<!-- Node6 -->
<g id="Node000006" class="node">
<title>Node6</title>
<g id="a_Node000006"><a xlink:title=" ">
<polygon fill="#e0e0e0" stroke="#999999" points="409,-19 371,-19 371,0 409,0 409,-19"/>
<text text-anchor="middle" x="390" y="-7" font-family="Helvetica,sans-Serif" font-size="10.00">map</text>
</a>
</g>
</g>
<!-- Node2&#45;&gt;Node6 -->
<g id="edge5_Node000002_Node000006" class="edge">
<title>Node2&#45;&gt;Node6</title>
<g id="a_edge5_Node000002_Node000006"><a xlink:title=" ">
<path fill="none" stroke="#63b8ff" d="M429.53,-109.98C425.88,-101.03 420,-86.54 415,-74 408.89,-58.7 402.04,-41.28 397.06,-28.57"/>
<polygon fill="#63b8ff" stroke="#63b8ff" points="400.27,-27.17 393.37,-19.14 393.76,-29.73 400.27,-27.17"/>
</a>
</g>
</g>
<!-- Node7 -->
<g id="Node000007" class="node">
<title>Node7</title>
<g id="a_Node000007"><a xlink:href="notification_8h.html" target="_top" xlink:title="Defines the notification class for logging and messaging functionality.">
<polygon fill="white" stroke="#666666" points="234,-74 96,-74 96,-55 234,-55 234,-74"/>
<text text-anchor="middle" x="165" y="-62" font-family="Helvetica,sans-Serif" font-size="10.00">notification/notification.h</text>
</a>
</g>
</g>
<!-- Node2&#45;&gt;Node7 -->
<g id="edge6_Node000002_Node000007" class="edge">
<title>Node2&#45;&gt;Node7</title>
<g id="a_edge6_Node000002_Node000007"><a xlink:title=" ">
<path fill="none" stroke="#63b8ff" d="M389.94,-109.98C343.29,-100.76 268.8,-86.03 218.44,-76.07"/>
<polygon fill="#63b8ff" stroke="#63b8ff" points="218.89,-72.59 208.4,-74.08 217.53,-79.46 218.89,-72.59"/>
</a>
</g>
</g>
<!-- Node9 -->
<g id="Node000009" class="node">
<title>Node9</title>
<g id="a_Node000009"><a xlink:href="tools_8h.html" target="_top" xlink:title="Defines the tools class that provides general utility functions for the AnalysisG framework.">
<polygon fill="white" stroke="#666666" points="367.5,-74 290.5,-74 290.5,-55 367.5,-55 367.5,-74"/>
<text text-anchor="middle" x="329" y="-62" font-family="Helvetica,sans-Serif" font-size="10.00">tools/tools.h</text>
</a>
</g>
</g>
<!-- Node2&#45;&gt;Node9 -->
<g id="edge9_Node000002_Node000009" class="edge">
<title>Node2&#45;&gt;Node9</title>
<g id="a_edge9_Node000002_Node000009"><a xlink:title=" ">
<path fill="none" stroke="#63b8ff" d="M416.29,-109.98C399.79,-101.57 374.3,-88.59 355.12,-78.81"/>
<polygon fill="#63b8ff" stroke="#63b8ff" points="356.51,-75.59 346.01,-74.17 353.33,-81.83 356.51,-75.59"/>
</a>
</g>
</g>
<!-- Node11 -->
<g id="Node000011" class="node">
<title>Node11</title>
<g id="a_Node000011"><a xlink:href="property_8h.html" target="_top" xlink:title="Defines the cproperty template class for property&#45;based access patterns.">
<polygon fill="white" stroke="#666666" points="635.5,-74 534.5,-74 534.5,-55 635.5,-55 635.5,-74"/>
<text text-anchor="middle" x="585" y="-62" font-family="Helvetica,sans-Serif" font-size="10.00">structs/property.h</text>
</a>
</g>
</g>
<!-- Node2&#45;&gt;Node11 -->
<g id="edge15_Node000002_Node000011" class="edge">
<title>Node2&#45;&gt;Node11</title>
<g id="a_edge15_Node000002_Node000011"><a xlink:title=" ">
<path fill="none" stroke="#63b8ff" d="M457.42,-109.98C482.72,-101.16 522.45,-87.31 550.86,-77.41"/>
<polygon fill="#63b8ff" stroke="#63b8ff" points="552.1,-80.68 560.39,-74.08 549.79,-74.07 552.1,-80.68"/>
</a>
</g>
</g>
<!-- Node13 -->
<g id="Node000013" class="node">
<title>Node13</title>
<g id="a_Node000013"><a xlink:title=" ">
<polygon fill="#e0e0e0" stroke="#999999" points="781.5,-74 692.5,-74 692.5,-55 781.5,-55 781.5,-74"/>
<text text-anchor="middle" x="737" y="-62" font-family="Helvetica,sans-Serif" font-size="10.00">structs/graph.h</text>
</a>
</g>
</g>
<!-- Node2&#45;&gt;Node13 -->
<g id="edge18_Node000002_Node000013" class="edge">
<title>Node2&#45;&gt;Node13</title>
<g id="a_edge18_Node000002_Node000013"><a xlink:title=" ">
<path fill="none" stroke="#63b8ff" d="M481.84,-109.98C536.63,-100.43 625.26,-84.98 682.32,-75.03"/>
<polygon fill="#63b8ff" stroke="#63b8ff" points="682.99,-78.47 692.24,-73.3 681.79,-71.57 682.99,-78.47"/>
</a>
</g>
</g>
<!-- Node14 -->
<g id="Node000014" class="node">
<title>Node14</title>
<g id="a_Node000014"><a xlink:href="model_8h.html" target="_top" xlink:title="Defines data structures for model configuration in the AnalysisG framework.">
<polygon fill="white" stroke="#666666" points="516,-74 424,-74 424,-55 516,-55 516,-74"/>
<text text-anchor="middle" x="470" y="-62" font-family="Helvetica,sans-Serif" font-size="10.00">structs/model.h</text>
</a>
</g>
</g>
<!-- Node2&#45;&gt;Node14 -->
<g id="edge19_Node000002_Node000014" class="edge">
<title>Node2&#45;&gt;Node14</title>
<g id="a_edge19_Node000002_Node000014"><a xlink:title=" ">
<path fill="none" stroke="#63b8ff" d="M439.11,-109.75C444.28,-102.34 451.85,-91.5 458.19,-82.41"/>
<polygon fill="#63b8ff" stroke="#63b8ff" points="461.15,-84.29 464,-74.09 455.41,-80.29 461.15,-84.29"/>
</a>
</g>
</g>
<!-- Node16 -->
<g id="Node000016" class="node">
<title>Node16</title>
<g id="a_Node000016"><a xlink:title=" ">
<polygon fill="#e0e0e0" stroke="#999999" points="886.5,-74 799.5,-74 799.5,-55 886.5,-55 886.5,-74"/>
<text text-anchor="middle" x="843" y="-62" font-family="Helvetica,sans-Serif" font-size="10.00">lossfx/lossfx.h</text>
</a>
</g>
</g>
<!-- Node2&#45;&gt;Node16 -->
<g id="edge24_Node000002_Node000016" class="edge">
<title>Node2&#45;&gt;Node16</title>
<g id="a_edge24_Node000002_Node000016"><a xlink:title=" ">
<path fill="none" stroke="#63b8ff" d="M508.54,-109.96C578.81,-101.83 686.67,-88.84 789.4,-74.19"/>
<polygon fill="#63b8ff" stroke="#63b8ff" points="789.92,-77.65 799.33,-72.76 788.93,-70.72 789.92,-77.65"/>
</a>
</g>
</g>
<!-- Node7&#45;&gt;Node4 -->
<g id="edge7_Node000007_Node000004" class="edge">
<title>Node7&#45;&gt;Node4</title>
<g id="a_edge7_Node000007_Node000004"><a xlink:title=" ">
<path fill="none" stroke="#63b8ff" d="M180.75,-54.98C196.23,-46.61 220.09,-33.7 238.14,-23.95"/>
<polygon fill="#63b8ff" stroke="#63b8ff" points="239.84,-27.01 246.97,-19.17 236.51,-20.85 239.84,-27.01"/>
</a>
</g>
</g>
<!-- Node8 -->
<g id="Node000008" class="node">
<title>Node8</title>
<g id="a_Node000008"><a xlink:title=" ">
<polygon fill="#e0e0e0" stroke="#999999" points="210,-19 150,-19 150,0 210,0 210,-19"/>
<text text-anchor="middle" x="180" y="-7" font-family="Helvetica,sans-Serif" font-size="10.00">iostream</text>
</a>
</g>
</g>
<!-- Node7&#45;&gt;Node8 -->
<g id="edge8_Node000007_Node000008" class="edge">
<title>Node7&#45;&gt;Node8</title>
<g id="a_edge8_Node000007_Node000008"><a xlink:title=" ">
<path fill="none" stroke="#63b8ff" d="M167.48,-54.75C169.46,-47.72 172.32,-37.62 174.81,-28.84"/>
<polygon fill="#63b8ff" stroke="#63b8ff" points="178.21,-29.66 177.57,-19.09 171.48,-27.76 178.21,-29.66"/>
</a>
</g>
</g>
<!-- Node9&#45;&gt;Node4 -->
<g id="edge11_Node000009_Node000004" class="edge">
<title>Node9&#45;&gt;Node4</title>
<g id="a_edge11_Node000009_Node000004"><a xlink:title=" ">
<path fill="none" stroke="#63b8ff" d="M318.4,-54.98C308.54,-47.07 293.65,-35.11 281.78,-25.58"/>
<polygon fill="#63b8ff" stroke="#63b8ff" points="283.79,-22.7 273.8,-19.17 279.4,-28.16 283.79,-22.7"/>
</a>
</g>
</g>
<!-- Node9&#45;&gt;Node5 -->
<g id="edge12_Node000009_Node000005" class="edge">
<title>Node9&#45;&gt;Node5</title>
<g id="a_edge12_Node000009_Node000005"><a xlink:title=" ">
<path fill="none" stroke="#63b8ff" d="M367.65,-55.55C406.5,-47.45 468.34,-34.23 530.32,-19.33"/>
<polygon fill="#63b8ff" stroke="#63b8ff" points="531.37,-22.68 540.26,-16.93 529.72,-15.88 531.37,-22.68"/>
</a>
</g>
</g>
<!-- Node9&#45;&gt;Node6 -->
<g id="edge14_Node000009_Node000006" class="edge">
<title>Node9&#45;&gt;Node6</title>
<g id="a_edge14_Node000009_Node000006"><a xlink:title=" ">
<path fill="none" stroke="#63b8ff" d="M338.8,-54.98C347.82,-47.15 361.41,-35.34 372.32,-25.86"/>
<polygon fill="#63b8ff" stroke="#63b8ff" points="374.77,-28.37 380.02,-19.17 370.18,-23.09 374.77,-28.37"/>
</a>
</g>
</g>
<!-- Node9&#45;&gt;Node8 -->
<g id="edge10_Node000009_Node000008" class="edge">
<title>Node9&#45;&gt;Node8</title>
<g id="a_edge10_Node000009_Node000008"><a xlink:title=" ">
<path fill="none" stroke="#63b8ff" d="M305.06,-54.98C280.44,-46.23 241.88,-32.51 214.08,-22.62"/>
<polygon fill="#63b8ff" stroke="#63b8ff" points="214.97,-19.22 204.38,-19.17 212.62,-25.82 214.97,-19.22"/>
</a>
</g>
</g>
<!-- Node10 -->
<g id="Node000010" class="node">
<title>Node10</title>
<g id="a_Node000010"><a xlink:title=" ">
<polygon fill="#e0e0e0" stroke="#999999" points="353,-19 303,-19 303,0 353,0 353,-19"/>
<text text-anchor="middle" x="328" y="-7" font-family="Helvetica,sans-Serif" font-size="10.00">cstdint</text>
</a>
</g>
</g>
<!-- Node9&#45;&gt;Node10 -->
<g id="edge13_Node000009_Node000010" class="edge">
<title>Node9&#45;&gt;Node10</title>
<g id="a_edge13_Node000009_Node000010"><a xlink:title=" ">
<path fill="none" stroke="#63b8ff" d="M328.83,-54.75C328.7,-47.8 328.52,-37.85 328.35,-29.13"/>
<polygon fill="#63b8ff" stroke="#63b8ff" points="331.85,-29.02 328.16,-19.09 324.85,-29.15 331.85,-29.02"/>
</a>
</g>
</g>
<!-- Node11&#45;&gt;Node4 -->
<g id="edge17_Node000011_Node000004" class="edge">
<title>Node11&#45;&gt;Node4</title>
<g id="a_edge17_Node000011_Node000004"><a xlink:title=" ">
<path fill="none" stroke="#63b8ff" d="M534.35,-56.08C463.59,-45.67 339.58,-27.25 295.18,-18.92"/>
<polygon fill="#63b8ff" stroke="#63b8ff" points="295.77,-15.47 285.28,-16.94 294.4,-22.33 295.77,-15.47"/>
</a>
</g>
</g>
<!-- Node12 -->
<g id="Node000012" class="node">
<title>Node12</title>
<g id="a_Node000012"><a xlink:title=" ">
<polygon fill="#e0e0e0" stroke="#999999" points="670.5,-19 605.5,-19 605.5,0 670.5,0 670.5,-19"/>
<text text-anchor="middle" x="638" y="-7" font-family="Helvetica,sans-Serif" font-size="10.00">functional</text>
</a>
</g>
</g>
<!-- Node11&#45;&gt;Node12 -->
<g id="edge16_Node000011_Node000012" class="edge">
<title>Node11&#45;&gt;Node12</title>
<g id="a_edge16_Node000011_Node000012"><a xlink:title=" ">
<path fill="none" stroke="#63b8ff" d="M593.75,-54.75C601.47,-47.03 612.9,-35.6 622.22,-26.28"/>
<polygon fill="#63b8ff" stroke="#63b8ff" points="624.81,-28.64 629.41,-19.09 619.86,-23.69 624.81,-28.64"/>
</a>
</g>
</g>
<!-- Node14&#45;&gt;Node4 -->
<g id="edge21_Node000014_Node000004" class="edge">
<title>Node14&#45;&gt;Node4</title>
<g id="a_edge21_Node000014_Node000004"><a xlink:title=" ">
<path fill="none" stroke="#63b8ff" d="M435.22,-54.92C401.69,-46.61 349.28,-33.48 294.83,-19.18"/>
<polygon fill="#63b8ff" stroke="#63b8ff" points="295.56,-15.75 285,-16.59 293.78,-22.52 295.56,-15.75"/>
</a>
</g>
</g>
<!-- Node14&#45;&gt;Node5 -->
<g id="edge22_Node000014_Node000005" class="edge">
<title>Node14&#45;&gt;Node5</title>
<g id="a_edge22_Node000014_Node000005"><a xlink:title=" ">
<path fill="none" stroke="#63b8ff" d="M485.1,-54.98C499.82,-46.69 522.42,-33.94 539.67,-24.22"/>
<polygon fill="#63b8ff" stroke="#63b8ff" points="541.63,-27.13 548.62,-19.17 538.19,-21.03 541.63,-27.13"/>
</a>
</g>
</g>
<!-- Node14&#45;&gt;Node6 -->
<g id="edge23_Node000014_Node000006" class="edge">
<title>Node14&#45;&gt;Node6</title>
<g id="a_edge23_Node000014_Node000006"><a xlink:title=" ">
<path fill="none" stroke="#63b8ff" d="M457.15,-54.98C444.86,-46.84 426.09,-34.41 411.52,-24.76"/>
<polygon fill="#63b8ff" stroke="#63b8ff" points="413.36,-21.78 403.09,-19.17 409.49,-27.61 413.36,-21.78"/>
</a>
</g>
</g>
<!-- Node15 -->
<g id="Node000015" class="node">
<title>Node15</title>
<g id="a_Node000015"><a xlink:href="enums_8h.html" target="_top" xlink:title=" ">
<polygon fill="white" stroke="#666666" points="522.5,-19 427.5,-19 427.5,0 522.5,0 522.5,-19"/>
<text text-anchor="middle" x="475" y="-7" font-family="Helvetica,sans-Serif" font-size="10.00">structs/enums.h</text>
</a>
</g>
</g>
<!-- Node14&#45;&gt;Node15 -->
<g id="edge20_Node000014_Node000015" class="edge">
<title>Node14&#45;&gt;Node15</title>
<g id="a_edge20_Node000014_Node000015"><a xlink:title=" ">
<path fill="none" stroke="#63b8ff" d="M470.83,-54.75C471.48,-47.8 472.42,-37.85 473.24,-29.13"/>
<polygon fill="#63b8ff" stroke="#63b8ff" points="476.73,-29.37 474.19,-19.09 469.77,-28.72 476.73,-29.37"/>
</a>
</g>
</g>
</g>
</svg>
