<?xml version="1.0" encoding="UTF-8" standalone="no"?>
<!DOCTYPE svg PUBLIC "-//W3C//DTD SVG 1.1//EN"
 "http://www.w3.org/Graphics/SVG/1.1/DTD/svg11.dtd">
<!-- Generated by graphviz version 2.43.0 (0)
 -->
<!-- Title: buildDict Pages: 1 -->
<svg width="395pt" height="64pt"
 viewBox="0.00 0.00 395.00 64.00" xmlns="http://www.w3.org/2000/svg" xmlns:xlink="http://www.w3.org/1999/xlink">

<svg id="main" version="1.1" xmlns="http://www.w3.org/2000/svg" xmlns:xlink="http://www.w3.org/1999/xlink" xml:space="preserve" onload="init(evt)">
<style type="text/css"><![CDATA[
.node, .edge {opacity: 0.7;}
.node.selected, .edge.selected {opacity: 1;}
.edge:hover path { stroke: red; }
.edge:hover polygon { stroke: red; fill: red; }
]]></style>
<script type="application/ecmascript" xlink:href="svg.min.js"/>
<svg id="graph" class="graph">
<g id="graph0" class="graph" transform="scale(1 1) rotate(0) translate(4 60)">
<title>buildDict</title>
<!-- Node1 -->
<g id="Node000001" class="node">
<title>Node1</title>
<g id="a_Node000001"><a xlink:title="Builds a dictionary for a specific data type.">
<polygon fill="#999999" stroke="#666666" points="387,-38 327,-38 327,-19 387,-19 387,-38"/>
<text text-anchor="middle" x="357" y="-26" font-family="Helvetica,sans-Serif" font-size="10.00">buildDict</text>
</a>
</g>
</g>
<!-- Node2 -->
<g id="Node000002" class="node">
<title>Node2</title>
<g id="a_Node000002"><a xlink:href="classanalysis.html#a1391073bb18c75cdad4132e90992fcd3" target="_top" xlink:title="&lt; Public access specifier for the following members.">
<polygon fill="white" stroke="#666666" points="104,-56 0,-56 0,-37 104,-37 104,-56"/>
<text text-anchor="middle" x="52" y="-44" font-family="Helvetica,sans-Serif" font-size="10.00">analysis::analysis</text>
</a>
</g>
</g>
<!-- Node1&#45;&gt;Node2 -->
<g id="edge1_Node000001_Node000002" class="edge">
<title>Node1&#45;&gt;Node2</title>
<g id="a_edge1_Node000001_Node000002"><a xlink:title=" ">
<path fill="none" stroke="#63b8ff" d="M320.05,-40.98C310.7,-43.68 300.57,-46.13 291,-47.5 227.19,-56.63 152.77,-54.27 104.37,-51.02"/>
<polygon fill="#63b8ff" stroke="#63b8ff" points="321.27,-44.27 329.81,-38 319.22,-37.57 321.27,-44.27"/>
</a>
</g>
</g>
<!-- Node3 -->
<g id="Node000003" class="node">
<title>Node3</title>
<g id="a_Node000003"><a xlink:href="structs_2cxx_2base_8cxx.html#a96c2f5b7a58cb27671db52cf01b24c35" target="_top" xlink:title="Builds a PCM file for the given type.">
<polygon fill="white" stroke="#666666" points="291,-38 229,-38 229,-19 291,-19 291,-38"/>
<text text-anchor="middle" x="260" y="-26" font-family="Helvetica,sans-Serif" font-size="10.00">buildPCM</text>
</a>
</g>
</g>
<!-- Node1&#45;&gt;Node3 -->
<g id="edge2_Node000001_Node000003" class="edge">
<title>Node1&#45;&gt;Node3</title>
<g id="a_edge2_Node000001_Node000003"><a xlink:title=" ">
<path fill="none" stroke="#63b8ff" d="M316.8,-28.5C308.24,-28.5 299.3,-28.5 291.16,-28.5"/>
<polygon fill="#63b8ff" stroke="#63b8ff" points="316.98,-32 326.98,-28.5 316.98,-25 316.98,-32"/>
</a>
</g>
</g>
<!-- Node5 -->
<g id="Node000005" class="node">
<title>Node5</title>
<g id="a_Node000005"><a xlink:href="classio.html#a38cda1cf4b0ad6920e19780ad985d374" target="_top" xlink:title="Triggers the generation of a ROOT PCM (Precompiled Module) if needed for dictionary generation.">
<polygon fill="white" stroke="#666666" points="97,-19 7,-19 7,0 97,0 97,-19"/>
<text text-anchor="middle" x="52" y="-7" font-family="Helvetica,sans-Serif" font-size="10.00">io::trigger_pcm</text>
</a>
</g>
</g>
<!-- Node1&#45;&gt;Node5 -->
<g id="edge6_Node000001_Node000005" class="edge">
<title>Node1&#45;&gt;Node5</title>
<g id="a_edge6_Node000001_Node000005"><a xlink:title=" ">
<path fill="none" stroke="#63b8ff" d="M318.21,-16.22C309.37,-13.85 299.93,-11.73 291,-10.5 223.87,-1.23 145.08,-3.43 97.11,-6.2"/>
<polygon fill="#63b8ff" stroke="#63b8ff" points="317.29,-19.59 327.87,-18.95 319.2,-12.86 317.29,-19.59"/>
</a>
</g>
</g>
<!-- Node4 -->
<g id="Node000004" class="node">
<title>Node4</title>
<g id="a_Node000004"><a xlink:href="structs_2cxx_2base_8cxx.html#aa67f17555eea254a2f080d4bfaa19262" target="_top" xlink:title="Builds all required dictionaries.">
<polygon fill="white" stroke="#666666" points="193,-38 140,-38 140,-19 193,-19 193,-38"/>
<text text-anchor="middle" x="166.5" y="-26" font-family="Helvetica,sans-Serif" font-size="10.00">buildAll</text>
</a>
</g>
</g>
<!-- Node3&#45;&gt;Node4 -->
<g id="edge3_Node000003_Node000004" class="edge">
<title>Node3&#45;&gt;Node4</title>
<g id="a_edge3_Node000003_Node000004"><a xlink:title=" ">
<path fill="none" stroke="#63b8ff" d="M218.76,-28.5C210.04,-28.5 201.06,-28.5 193.09,-28.5"/>
<polygon fill="#63b8ff" stroke="#63b8ff" points="218.79,-32 228.79,-28.5 218.79,-25 218.79,-32"/>
</a>
</g>
</g>
<!-- Node4&#45;&gt;Node2 -->
<g id="edge4_Node000004_Node000002" class="edge">
<title>Node4&#45;&gt;Node2</title>
<g id="a_edge4_Node000004_Node000002"><a xlink:title=" ">
<path fill="none" stroke="#63b8ff" d="M130.01,-34.18C121.8,-35.49 112.91,-36.91 104.18,-38.31"/>
<polygon fill="#63b8ff" stroke="#63b8ff" points="130.65,-37.62 139.97,-32.58 129.54,-30.71 130.65,-37.62"/>
</a>
</g>
</g>
<!-- Node4&#45;&gt;Node5 -->
<g id="edge5_Node000004_Node000005" class="edge">
<title>Node4&#45;&gt;Node5</title>
<g id="a_edge5_Node000004_Node000005"><a xlink:title=" ">
<path fill="none" stroke="#63b8ff" d="M130.05,-22.51C119.7,-20.76 108.25,-18.83 97.42,-17"/>
<polygon fill="#63b8ff" stroke="#63b8ff" points="129.53,-25.97 139.97,-24.19 130.69,-19.07 129.53,-25.97"/>
</a>
</g>
</g>
</g>
</svg>
</svg>

<style type='text/css'>
<![CDATA[
[data-mouse-over-selected='false'] { opacity: 0.7; }
[data-mouse-over-selected='true']  { opacity: 1.0; }
]]>
</style>
<script type="application/ecmascript"><![CDATA[
document.addEventListener('DOMContentLoaded', (event) => {
  highlightEdges();
  highlightAdjacentNodes();
});
]]></script>
</svg>
