<?xml version="1.0" encoding="UTF-8" standalone="no"?>
<!DOCTYPE svg PUBLIC "-//W3C//DTD SVG 1.1//EN"
 "http://www.w3.org/Graphics/SVG/1.1/DTD/svg11.dtd">
<!-- Generated by graphviz version 2.43.0 (0)
 -->
<!-- Title: pyc::physics::cartesian::separate::P2 Pages: 1 -->
<svg width="335pt" height="82pt"
 viewBox="0.00 0.00 335.00 82.00" xmlns="http://www.w3.org/2000/svg" xmlns:xlink="http://www.w3.org/1999/xlink">
<g id="graph0" class="graph" transform="scale(1 1) rotate(0) translate(4 78)">
<title>pyc::physics::cartesian::separate::P2</title>
<!-- Node1 -->
<g id="Node000001" class="node">
<title>Node1</title>
<g id="a_Node000001"><a xlink:title=" ">
<polygon fill="#999999" stroke="#666666" points="128,-51.5 0,-51.5 0,-21.5 128,-21.5 128,-51.5"/>
<text text-anchor="start" x="8" y="-39.5" font-family="Helvetica,sans-Serif" font-size="10.00">pyc::physics::cartesian</text>
<text text-anchor="middle" x="64" y="-28.5" font-family="Helvetica,sans-Serif" font-size="10.00">::separate::P2</text>
</a>
</g>
</g>
<!-- Node2 -->
<g id="Node000002" class="node">
<title>Node2</title>
<g id="a_Node000002"><a xlink:href="utils_8cxx.html#a123aed6d73594e07c6401a7a6c587808" target="_top" xlink:title=" ">
<polygon fill="white" stroke="#666666" points="237.5,-74 167.5,-74 167.5,-55 237.5,-55 237.5,-74"/>
<text text-anchor="middle" x="202.5" y="-62" font-family="Helvetica,sans-Serif" font-size="10.00">changedev</text>
</a>
</g>
</g>
<!-- Node1&#45;&gt;Node2 -->
<g id="edge1_Node000001_Node000002" class="edge">
<title>Node1&#45;&gt;Node2</title>
<g id="a_edge1_Node000001_Node000002"><a xlink:title=" ">
<path fill="none" stroke="#63b8ff" d="M128.06,-49.43C138.01,-51.48 148.11,-53.55 157.5,-55.48"/>
<polygon fill="#63b8ff" stroke="#63b8ff" points="156.88,-58.92 167.38,-57.5 158.29,-52.06 156.88,-58.92"/>
</a>
</g>
</g>
<!-- Node3 -->
<g id="Node000003" class="node">
<title>Node3</title>
<g id="a_Node000003"><a xlink:href="namespacephysics__.html#ae22e22a969315629a6ae7549f7344805" target="_top" xlink:title="Computes the square of the momentum magnitude.">
<polygon fill="white" stroke="#666666" points="241,-19 164,-19 164,0 241,0 241,-19"/>
<text text-anchor="middle" x="202.5" y="-7" font-family="Helvetica,sans-Serif" font-size="10.00">physics_::P2</text>
</a>
</g>
</g>
<!-- Node1&#45;&gt;Node3 -->
<g id="edge2_Node000001_Node000003" class="edge">
<title>Node1&#45;&gt;Node3</title>
<g id="a_edge2_Node000001_Node000003"><a xlink:title=" ">
<path fill="none" stroke="#63b8ff" d="M128.06,-24.03C136.7,-22.32 145.45,-20.59 153.76,-18.94"/>
<polygon fill="#63b8ff" stroke="#63b8ff" points="154.5,-22.37 163.63,-16.99 153.14,-15.5 154.5,-22.37"/>
</a>
</g>
</g>
<!-- Node3&#45;&gt;Node3 -->
<g id="edge4_Node000003_Node000003" class="edge">
<title>Node3&#45;&gt;Node3</title>
<g id="a_edge4_Node000003_Node000003"><a xlink:title=" ">
<path fill="none" stroke="#63b8ff" d="M187.4,-19.08C180.05,-27.73 185.08,-37 202.5,-37 213.11,-37 219.13,-33.56 220.55,-28.91"/>
<polygon fill="#63b8ff" stroke="#63b8ff" points="223.83,-27.66 217.6,-19.08 217.12,-29.67 223.83,-27.66"/>
</a>
</g>
</g>
<!-- Node4 -->
<g id="Node000004" class="node">
<title>Node4</title>
<g id="a_Node000004"><a xlink:href="utils_8cxx.html#a9c1cdc6384bce6bdc92ca917b3f656bf" target="_top" xlink:title=" ">
<polygon fill="white" stroke="#666666" points="327,-19 277,-19 277,0 327,0 327,-19"/>
<text text-anchor="middle" x="302" y="-7" font-family="Helvetica,sans-Serif" font-size="10.00">format</text>
</a>
</g>
</g>
<!-- Node3&#45;&gt;Node4 -->
<g id="edge3_Node000003_Node000004" class="edge">
<title>Node3&#45;&gt;Node4</title>
<g id="a_edge3_Node000003_Node000004"><a xlink:title=" ">
<path fill="none" stroke="#63b8ff" d="M241.2,-9.5C249.64,-9.5 258.54,-9.5 266.83,-9.5"/>
<polygon fill="#63b8ff" stroke="#63b8ff" points="266.91,-13 276.91,-9.5 266.91,-6 266.91,-13"/>
</a>
</g>
</g>
</g>
</svg>
