<?xml version="1.0" encoding="UTF-8" standalone="no"?>
<!DOCTYPE svg PUBLIC "-//W3C//DTD SVG 1.1//EN"
 "http://www.w3.org/Graphics/SVG/1.1/DTD/svg11.dtd">
<!-- Generated by graphviz version 2.43.0 (0)
 -->
<!-- Title: physics_::M Pages: 1 -->
<svg width="638pt" height="270pt"
 viewBox="0.00 0.00 638.00 269.50" xmlns="http://www.w3.org/2000/svg" xmlns:xlink="http://www.w3.org/1999/xlink">
<g id="graph0" class="graph" transform="scale(1 1) rotate(0) translate(4 265.5)">
<title>physics_::M</title>
<!-- Node1 -->
<g id="Node000001" class="node">
<title>Node1</title>
<g id="a_Node000001"><a xlink:title="Computes the invariant mass.">
<polygon fill="#999999" stroke="#666666" points="630,-96.5 556,-96.5 556,-77.5 630,-77.5 630,-96.5"/>
<text text-anchor="middle" x="593" y="-84.5" font-family="Helvetica,sans-Serif" font-size="10.00">physics_::M</text>
</a>
</g>
</g>
<!-- Node1&#45;&gt;Node1 -->
<g id="edge1_Node000001_Node000001" class="edge">
<title>Node1&#45;&gt;Node1</title>
<g id="a_edge1_Node000001_Node000001"><a xlink:title=" ">
<path fill="none" stroke="#63b8ff" d="M618.3,-105.69C616.92,-110.7 608.49,-114.5 593,-114.5 568.83,-114.5 561.84,-105.23 572.04,-96.58"/>
<polygon fill="#63b8ff" stroke="#63b8ff" points="621.42,-104.11 613.96,-96.58 615.1,-107.12 621.42,-104.11"/>
</a>
</g>
</g>
<!-- Node2 -->
<g id="Node000002" class="node">
<title>Node2</title>
<g id="a_Node000002"><a xlink:href="namespacepyc_1_1physics_1_1cartesian_1_1combined.html#adc80247c6622f7cb166a81fa45b7b51d" target="_top" xlink:title=" ">
<polygon fill="white" stroke="#666666" points="520,-174 392,-174 392,-144 520,-144 520,-174"/>
<text text-anchor="start" x="400" y="-162" font-family="Helvetica,sans-Serif" font-size="10.00">pyc::physics::cartesian</text>
<text text-anchor="middle" x="456" y="-151" font-family="Helvetica,sans-Serif" font-size="10.00">::combined::M</text>
</a>
</g>
</g>
<!-- Node1&#45;&gt;Node2 -->
<g id="edge2_Node000001_Node000002" class="edge">
<title>Node1&#45;&gt;Node2</title>
<g id="a_edge2_Node000001_Node000002"><a xlink:title=" ">
<path fill="none" stroke="#63b8ff" d="M571.14,-102.73C557.16,-112.8 538.07,-125.68 520,-135 513.76,-138.22 506.98,-141.25 500.26,-144"/>
<polygon fill="#63b8ff" stroke="#63b8ff" points="573.53,-105.31 579.53,-96.58 569.39,-99.67 573.53,-105.31"/>
</a>
</g>
</g>
<!-- Node9 -->
<g id="Node000009" class="node">
<title>Node9</title>
<g id="a_Node000009"><a xlink:href="namespacepyc_1_1physics_1_1polar_1_1combined.html#a03ec955a2641ce4f53ade06bff9ebaae" target="_top" xlink:title=" ">
<polygon fill="white" stroke="#666666" points="509.5,-126 402.5,-126 402.5,-96 509.5,-96 509.5,-126"/>
<text text-anchor="start" x="410.5" y="-114" font-family="Helvetica,sans-Serif" font-size="10.00">pyc::physics::polar</text>
<text text-anchor="middle" x="456" y="-103" font-family="Helvetica,sans-Serif" font-size="10.00">::combined::M</text>
</a>
</g>
</g>
<!-- Node1&#45;&gt;Node9 -->
<g id="edge15_Node000001_Node000009" class="edge">
<title>Node1&#45;&gt;Node9</title>
<g id="a_edge15_Node000001_Node000009"><a xlink:title=" ">
<path fill="none" stroke="#63b8ff" d="M545.83,-95.21C534.14,-97.29 521.5,-99.53 509.52,-101.66"/>
<polygon fill="#63b8ff" stroke="#63b8ff" points="546.59,-98.63 555.82,-93.43 545.36,-91.74 546.59,-98.63"/>
</a>
</g>
</g>
<!-- Node10 -->
<g id="Node000010" class="node">
<title>Node10</title>
<g id="a_Node000010"><a xlink:href="namespacepyc_1_1physics_1_1polar_1_1separate.html#aaab901d4c62535312b57336a324c3461" target="_top" xlink:title=" ">
<polygon fill="white" stroke="#666666" points="509.5,-78 402.5,-78 402.5,-48 509.5,-48 509.5,-78"/>
<text text-anchor="start" x="410.5" y="-66" font-family="Helvetica,sans-Serif" font-size="10.00">pyc::physics::polar</text>
<text text-anchor="middle" x="456" y="-55" font-family="Helvetica,sans-Serif" font-size="10.00">::separate::M</text>
</a>
</g>
</g>
<!-- Node1&#45;&gt;Node10 -->
<g id="edge16_Node000001_Node000010" class="edge">
<title>Node1&#45;&gt;Node10</title>
<g id="a_edge16_Node000001_Node000010"><a xlink:title=" ">
<path fill="none" stroke="#63b8ff" d="M545.83,-78.79C534.14,-76.71 521.5,-74.47 509.52,-72.34"/>
<polygon fill="#63b8ff" stroke="#63b8ff" points="545.36,-82.26 555.82,-80.57 546.59,-75.37 545.36,-82.26"/>
</a>
</g>
</g>
<!-- Node11 -->
<g id="Node000011" class="node">
<title>Node11</title>
<g id="a_Node000011"><a xlink:href="namespacepyc_1_1physics_1_1cartesian_1_1separate.html#adb6b95ef1d9eb19796bda77aa1d5caf6" target="_top" xlink:title=" ">
<polygon fill="white" stroke="#666666" points="520,-30 392,-30 392,0 520,0 520,-30"/>
<text text-anchor="start" x="400" y="-18" font-family="Helvetica,sans-Serif" font-size="10.00">pyc::physics::cartesian</text>
<text text-anchor="middle" x="456" y="-7" font-family="Helvetica,sans-Serif" font-size="10.00">::separate::M</text>
</a>
</g>
</g>
<!-- Node1&#45;&gt;Node11 -->
<g id="edge17_Node000001_Node000011" class="edge">
<title>Node1&#45;&gt;Node11</title>
<g id="a_edge17_Node000001_Node000011"><a xlink:title=" ">
<path fill="none" stroke="#63b8ff" d="M571.14,-71.27C557.16,-61.2 538.07,-48.32 520,-39 513.76,-35.78 506.98,-32.75 500.26,-30"/>
<polygon fill="#63b8ff" stroke="#63b8ff" points="569.39,-74.33 579.53,-77.42 573.53,-68.69 569.39,-74.33"/>
</a>
</g>
</g>
<!-- Node3 -->
<g id="Node000003" class="node">
<title>Node3</title>
<g id="a_Node000003"><a xlink:href="classmetrics.html#adb34703cb499689522741aa2ceed61e3" target="_top" xlink:title=" ">
<polygon fill="white" stroke="#666666" points="343,-261.5 209,-261.5 209,-242.5 343,-242.5 343,-261.5"/>
<text text-anchor="middle" x="276" y="-249.5" font-family="Helvetica,sans-Serif" font-size="10.00">metrics::add_th1f_mass</text>
</a>
</g>
</g>
<!-- Node2&#45;&gt;Node3 -->
<g id="edge3_Node000002_Node000003" class="edge">
<title>Node2&#45;&gt;Node3</title>
<g id="a_edge3_Node000002_Node000003"><a xlink:title=" ">
<path fill="none" stroke="#63b8ff" d="M432.07,-180.93C413.11,-197.87 384.73,-220.61 356,-234 348.73,-237.39 340.79,-240.16 332.82,-242.42"/>
<polygon fill="#63b8ff" stroke="#63b8ff" points="434.56,-183.39 439.59,-174.07 429.84,-178.22 434.56,-183.39"/>
</a>
</g>
</g>
<!-- Node5 -->
<g id="Node000005" class="node">
<title>Node5</title>
<g id="a_Node000005"><a xlink:href="classgrift.html#a72f7575fbd1d744d4f9053e5b8b7ee38" target="_top" xlink:title="Virtual forward pass method for a single graph.">
<polygon fill="white" stroke="#666666" points="316,-206.5 236,-206.5 236,-187.5 316,-187.5 316,-206.5"/>
<text text-anchor="middle" x="276" y="-194.5" font-family="Helvetica,sans-Serif" font-size="10.00">grift::forward</text>
</a>
</g>
</g>
<!-- Node2&#45;&gt;Node5 -->
<g id="edge5_Node000002_Node000005" class="edge">
<title>Node2&#45;&gt;Node5</title>
<g id="a_edge5_Node000002_Node000005"><a xlink:title=" ">
<path fill="none" stroke="#63b8ff" d="M382.07,-174.57C359.48,-179.39 335.45,-184.52 316.08,-188.66"/>
<polygon fill="#63b8ff" stroke="#63b8ff" points="382.94,-177.96 391.99,-172.45 381.48,-171.12 382.94,-177.96"/>
</a>
</g>
</g>
<!-- Node6 -->
<g id="Node000006" class="node">
<title>Node6</title>
<g id="a_Node000006"><a xlink:href="classgrift.html#ad610edcd0cab14b57197a846ab8a8caf" target="_top" xlink:title=" ">
<polygon fill="white" stroke="#666666" points="123,-206.5 37,-206.5 37,-187.5 123,-187.5 123,-206.5"/>
<text text-anchor="middle" x="80" y="-194.5" font-family="Helvetica,sans-Serif" font-size="10.00">grift::message</text>
</a>
</g>
</g>
<!-- Node2&#45;&gt;Node6 -->
<g id="edge13_Node000002_Node000006" class="edge">
<title>Node2&#45;&gt;Node6</title>
<g id="a_edge13_Node000002_Node000006"><a xlink:title=" ">
<path fill="none" stroke="#63b8ff" d="M381.68,-163.13C329.73,-166.43 258.47,-171.71 196,-179 171.81,-181.82 144.92,-185.98 123.22,-189.58"/>
<polygon fill="#63b8ff" stroke="#63b8ff" points="382.04,-166.61 391.8,-162.5 381.6,-159.63 382.04,-166.61"/>
</a>
</g>
</g>
<!-- Node7 -->
<g id="Node000007" class="node">
<title>Node7</title>
<g id="a_Node000007"><a xlink:href="classrecursivegraphneuralnetwork.html#a4b09bc8de8d9ecd0b4ff1ffa94deea98" target="_top" xlink:title="Virtual forward pass method for a single graph.">
<polygon fill="white" stroke="#666666" points="356,-113 196,-113 196,-83 356,-83 356,-113"/>
<text text-anchor="start" x="204" y="-101" font-family="Helvetica,sans-Serif" font-size="10.00">recursivegraphneuralnetwork</text>
<text text-anchor="middle" x="276" y="-90" font-family="Helvetica,sans-Serif" font-size="10.00">::forward</text>
</a>
</g>
</g>
<!-- Node2&#45;&gt;Node7 -->
<g id="edge9_Node000002_Node000007" class="edge">
<title>Node2&#45;&gt;Node7</title>
<g id="a_edge9_Node000002_Node000007"><a xlink:title=" ">
<path fill="none" stroke="#63b8ff" d="M401.38,-140.63C375.62,-131.8 345.14,-121.35 320.8,-113.01"/>
<polygon fill="#63b8ff" stroke="#63b8ff" points="400.41,-143.99 411,-143.92 402.67,-137.37 400.41,-143.99"/>
</a>
</g>
</g>
<!-- Node8 -->
<g id="Node000008" class="node">
<title>Node8</title>
<g id="a_Node000008"><a xlink:href="classrecursivegraphneuralnetwork.html#a7c83216c5899b14dcc03ccf368209ee1" target="_top" xlink:title=" ">
<polygon fill="white" stroke="#666666" points="160,-113 0,-113 0,-83 160,-83 160,-113"/>
<text text-anchor="start" x="8" y="-101" font-family="Helvetica,sans-Serif" font-size="10.00">recursivegraphneuralnetwork</text>
<text text-anchor="middle" x="80" y="-90" font-family="Helvetica,sans-Serif" font-size="10.00">::message</text>
</a>
</g>
</g>
<!-- Node2&#45;&gt;Node8 -->
<g id="edge14_Node000002_Node000008" class="edge">
<title>Node2&#45;&gt;Node8</title>
<g id="a_edge14_Node000002_Node000008"><a xlink:title=" ">
<path fill="none" stroke="#63b8ff" d="M396.74,-138.63C395.09,-137.48 393.51,-136.27 392,-135 367.94,-114.7 383.34,-89.61 356,-74 279.42,-30.27 170.86,-61.8 115.85,-83"/>
<polygon fill="#63b8ff" stroke="#63b8ff" points="395,-141.67 405.36,-143.89 398.64,-135.69 395,-141.67"/>
</a>
</g>
</g>
<!-- Node4 -->
<g id="Node000004" class="node">
<title>Node4</title>
<g id="a_Node000004"><a xlink:href="classmetrics.html#a24531660bf7917f489a6b67ceed12cdd" target="_top" xlink:title="Captures metrics from the current epoch.">
<polygon fill="white" stroke="#666666" points="128,-261.5 32,-261.5 32,-242.5 128,-242.5 128,-261.5"/>
<text text-anchor="middle" x="80" y="-249.5" font-family="Helvetica,sans-Serif" font-size="10.00">metrics::capture</text>
</a>
</g>
</g>
<!-- Node3&#45;&gt;Node4 -->
<g id="edge4_Node000003_Node000004" class="edge">
<title>Node3&#45;&gt;Node4</title>
<g id="a_edge4_Node000003_Node000004"><a xlink:title=" ">
<path fill="none" stroke="#63b8ff" d="M198.72,-252C174.95,-252 149.44,-252 128.26,-252"/>
<polygon fill="#63b8ff" stroke="#63b8ff" points="198.78,-255.5 208.78,-252 198.78,-248.5 198.78,-255.5"/>
</a>
</g>
</g>
<!-- Node5&#45;&gt;Node5 -->
<g id="edge6_Node000005_Node000005" class="edge">
<title>Node5&#45;&gt;Node5</title>
<g id="a_edge6_Node000005_Node000005"><a xlink:title=" ">
<path fill="none" stroke="#63b8ff" d="M309.68,-214.95C308.72,-220.32 297.49,-224.5 276,-224.5 244.01,-224.5 234.76,-215.23 248.26,-206.58"/>
<polygon fill="#63b8ff" stroke="#63b8ff" points="312.39,-212.71 303.74,-206.58 306.68,-216.76 312.39,-212.71"/>
</a>
</g>
</g>
<!-- Node5&#45;&gt;Node6 -->
<g id="edge7_Node000005_Node000006" class="edge">
<title>Node5&#45;&gt;Node6</title>
<g id="a_edge7_Node000005_Node000006"><a xlink:title=" ">
<path fill="none" stroke="#63b8ff" d="M225.39,-191.02C193.79,-189.9 153.29,-190 123.23,-191.32"/>
<polygon fill="#63b8ff" stroke="#63b8ff" points="225.61,-194.54 235.74,-191.45 225.89,-187.54 225.61,-194.54"/>
</a>
</g>
</g>
<!-- Node6&#45;&gt;Node5 -->
<g id="edge8_Node000006_Node000005" class="edge">
<title>Node6&#45;&gt;Node5</title>
<g id="a_edge8_Node000006_Node000005"><a xlink:title=" ">
<path fill="none" stroke="#63b8ff" d="M133.37,-203.07C165.62,-204.13 206.27,-203.95 235.74,-202.55"/>
<polygon fill="#63b8ff" stroke="#63b8ff" points="133.35,-199.57 123.23,-202.68 133.09,-206.56 133.35,-199.57"/>
</a>
</g>
</g>
<!-- Node7&#45;&gt;Node7 -->
<g id="edge10_Node000007_Node000007" class="edge">
<title>Node7&#45;&gt;Node7</title>
<g id="a_edge10_Node000007_Node000007"><a xlink:title=" ">
<path fill="none" stroke="#63b8ff" d="M307.51,-123.6C303.2,-127.97 292.7,-131 276,-131 247.88,-131 237.33,-122.41 244.36,-113.28"/>
<polygon fill="#63b8ff" stroke="#63b8ff" points="311.01,-123.32 307.64,-113.28 304.01,-123.23 311.01,-123.32"/>
</a>
</g>
</g>
<!-- Node7&#45;&gt;Node8 -->
<g id="edge11_Node000007_Node000008" class="edge">
<title>Node7&#45;&gt;Node8</title>
<g id="a_edge11_Node000007_Node000008"><a xlink:title=" ">
<path fill="none" stroke="#63b8ff" d="M185.56,-91.27C177.12,-91.23 168.59,-91.26 160.25,-91.35"/>
<polygon fill="#63b8ff" stroke="#63b8ff" points="185.78,-94.77 195.81,-91.35 185.84,-87.77 185.78,-94.77"/>
</a>
</g>
</g>
<!-- Node8&#45;&gt;Node7 -->
<g id="edge12_Node000008_Node000007" class="edge">
<title>Node8&#45;&gt;Node7</title>
<g id="a_edge12_Node000008_Node000007"><a xlink:title=" ">
<path fill="none" stroke="#63b8ff" d="M170.5,-104.73C178.95,-104.77 187.47,-104.74 195.81,-104.65"/>
<polygon fill="#63b8ff" stroke="#63b8ff" points="170.28,-101.23 160.25,-104.65 170.22,-108.23 170.28,-101.23"/>
</a>
</g>
</g>
</g>
</svg>
