<?xml version="1.0" encoding="UTF-8" standalone="no"?>
<!DOCTYPE svg PUBLIC "-//W3C//DTD SVG 1.1//EN"
 "http://www.w3.org/Graphics/SVG/1.1/DTD/svg11.dtd">
<!-- Generated by graphviz version 2.43.0 (0)
 -->
<!-- Title: operators_::Inverse Pages: 1 -->
<svg width="859pt" height="138pt"
 viewBox="0.00 0.00 859.00 138.00" xmlns="http://www.w3.org/2000/svg" xmlns:xlink="http://www.w3.org/1999/xlink">
<g id="graph0" class="graph" transform="scale(1 1) rotate(0) translate(4 134)">
<title>operators_::Inverse</title>
<!-- Node1 -->
<g id="Node000001" class="node">
<title>Node1</title>
<g id="a_Node000001"><a xlink:title="Computes the inverse of a matrix.">
<polygon fill="#999999" stroke="#666666" points="851,-56 741,-56 741,-37 851,-37 851,-56"/>
<text text-anchor="middle" x="796" y="-44" font-family="Helvetica,sans-Serif" font-size="10.00">operators_::Inverse</text>
</a>
</g>
</g>
<!-- Node2 -->
<g id="Node000002" class="node">
<title>Node2</title>
<g id="a_Node000002"><a xlink:href="nusol_2tensor_2nusol_8cxx.html#a154959ee15ff2420eef7a772682767b7" target="_top" xlink:title=" ">
<polygon fill="white" stroke="#666666" points="655.5,-93 626.5,-93 626.5,-74 655.5,-74 655.5,-93"/>
<text text-anchor="middle" x="641" y="-81" font-family="Helvetica,sans-Serif" font-size="10.00">_N</text>
</a>
</g>
</g>
<!-- Node1&#45;&gt;Node2 -->
<g id="edge1_Node000001_Node000002" class="edge">
<title>Node1&#45;&gt;Node2</title>
<g id="a_edge1_Node000001_Node000002"><a xlink:title=" ">
<path fill="none" stroke="#63b8ff" d="M745.69,-58.42C714.32,-66.01 675.92,-75.3 655.81,-80.16"/>
<polygon fill="#63b8ff" stroke="#63b8ff" points="746.7,-61.78 755.6,-56.03 745.06,-54.98 746.7,-61.78"/>
</a>
</g>
</g>
<!-- Node10 -->
<g id="Node000010" class="node">
<title>Node10</title>
<g id="a_Node000010"><a xlink:href="namespacenusol__.html#a2cdd92aeb32c05137ebc7ef96c47a3da" target="_top" xlink:title=" ">
<polygon fill="white" stroke="#666666" points="697,-56 585,-56 585,-37 697,-37 697,-56"/>
<text text-anchor="middle" x="641" y="-44" font-family="Helvetica,sans-Serif" font-size="10.00">nusol_::Intersection</text>
</a>
</g>
</g>
<!-- Node1&#45;&gt;Node10 -->
<g id="edge9_Node000001_Node000010" class="edge">
<title>Node1&#45;&gt;Node10</title>
<g id="a_edge9_Node000001_Node000010"><a xlink:title=" ">
<path fill="none" stroke="#63b8ff" d="M730.57,-46.5C719.48,-46.5 708.05,-46.5 697.23,-46.5"/>
<polygon fill="#63b8ff" stroke="#63b8ff" points="730.63,-50 740.63,-46.5 730.63,-43 730.63,-50"/>
</a>
</g>
</g>
<!-- Node13 -->
<g id="Node000013" class="node">
<title>Node13</title>
<g id="a_Node000013"><a xlink:href="namespacepyc_1_1operators.html#a35e565272bd6223991498cb4965db10a" target="_top" xlink:title=" ">
<polygon fill="white" stroke="#666666" points="705,-19 577,-19 577,0 705,0 705,-19"/>
<text text-anchor="middle" x="641" y="-7" font-family="Helvetica,sans-Serif" font-size="10.00">pyc::operators::Inverse</text>
</a>
</g>
</g>
<!-- Node1&#45;&gt;Node13 -->
<g id="edge13_Node000001_Node000013" class="edge">
<title>Node1&#45;&gt;Node13</title>
<g id="a_edge13_Node000001_Node000013"><a xlink:title=" ">
<path fill="none" stroke="#63b8ff" d="M745.69,-34.57C724.93,-29.56 701.11,-23.79 681.53,-19.06"/>
<polygon fill="#63b8ff" stroke="#63b8ff" points="745.06,-38.02 755.6,-36.97 746.7,-31.22 745.06,-38.02"/>
</a>
</g>
</g>
<!-- Node3 -->
<g id="Node000003" class="node">
<title>Node3</title>
<g id="a_Node000003"><a xlink:href="namespacenusol__.html#ac849ef3564c5ac968727dce36494fd0a" target="_top" xlink:title=" ">
<polygon fill="white" stroke="#666666" points="541,-93 460,-93 460,-74 541,-74 541,-93"/>
<text text-anchor="middle" x="500.5" y="-81" font-family="Helvetica,sans-Serif" font-size="10.00">nusol_::NuNu</text>
</a>
</g>
</g>
<!-- Node2&#45;&gt;Node3 -->
<g id="edge2_Node000002_Node000003" class="edge">
<title>Node2&#45;&gt;Node3</title>
<g id="a_edge2_Node000002_Node000003"><a xlink:title=" ">
<path fill="none" stroke="#63b8ff" d="M616.38,-83.5C595.76,-83.5 565.4,-83.5 541.07,-83.5"/>
<polygon fill="#63b8ff" stroke="#63b8ff" points="616.47,-87 626.47,-83.5 616.47,-80 616.47,-87"/>
</a>
</g>
</g>
<!-- Node4 -->
<g id="Node000004" class="node">
<title>Node4</title>
<g id="a_Node000004"><a xlink:href="namespacepyc_1_1nusol.html#af7bb509b120cb3314695cecd70bc5c11" target="_top" xlink:title=" ">
<polygon fill="white" stroke="#666666" points="424,-130 325,-130 325,-111 424,-111 424,-130"/>
<text text-anchor="middle" x="374.5" y="-118" font-family="Helvetica,sans-Serif" font-size="10.00">pyc::nusol::NuNu</text>
</a>
</g>
</g>
<!-- Node3&#45;&gt;Node4 -->
<g id="edge3_Node000003_Node000004" class="edge">
<title>Node3&#45;&gt;Node4</title>
<g id="a_edge3_Node000003_Node000004"><a xlink:title=" ">
<path fill="none" stroke="#63b8ff" d="M457.73,-95.96C441.42,-100.83 423.01,-106.32 407.76,-110.88"/>
<polygon fill="#63b8ff" stroke="#63b8ff" points="458.99,-99.24 467.57,-93.03 456.98,-92.53 458.99,-99.24"/>
</a>
</g>
</g>
<!-- Node5 -->
<g id="Node000005" class="node">
<title>Node5</title>
<g id="a_Node000005"><a xlink:href="namespacepyc_1_1nusol.html#a9650527ae538fa27121bedfb79a1fbe6" target="_top" xlink:title=" ">
<polygon fill="white" stroke="#666666" points="424,-93 325,-93 325,-74 424,-74 424,-93"/>
<text text-anchor="middle" x="374.5" y="-81" font-family="Helvetica,sans-Serif" font-size="10.00">pyc::nusol::NuNu</text>
</a>
</g>
</g>
<!-- Node3&#45;&gt;Node5 -->
<g id="edge4_Node000003_Node000005" class="edge">
<title>Node3&#45;&gt;Node5</title>
<g id="a_edge4_Node000003_Node000005"><a xlink:title=" ">
<path fill="none" stroke="#63b8ff" d="M449.84,-83.5C441.42,-83.5 432.67,-83.5 424.26,-83.5"/>
<polygon fill="#63b8ff" stroke="#63b8ff" points="449.92,-87 459.92,-83.5 449.92,-80 449.92,-87"/>
</a>
</g>
</g>
<!-- Node6 -->
<g id="Node000006" class="node">
<title>Node6</title>
<g id="a_Node000006"><a xlink:href="namespacepyc_1_1nusol.html#aaaf252028ed63bf2d561dffcd76916e2" target="_top" xlink:title=" ">
<polygon fill="white" stroke="#666666" points="268,-130 169,-130 169,-111 268,-111 268,-130"/>
<text text-anchor="middle" x="218.5" y="-118" font-family="Helvetica,sans-Serif" font-size="10.00">pyc::nusol::NuNu</text>
</a>
</g>
</g>
<!-- Node5&#45;&gt;Node6 -->
<g id="edge5_Node000005_Node000006" class="edge">
<title>Node5&#45;&gt;Node6</title>
<g id="a_edge5_Node000005_Node000006"><a xlink:title=" ">
<path fill="none" stroke="#63b8ff" d="M323.87,-95.43C302.97,-100.44 278.99,-106.21 259.29,-110.94"/>
<polygon fill="#63b8ff" stroke="#63b8ff" points="324.94,-98.77 333.84,-93.03 323.3,-91.96 324.94,-98.77"/>
</a>
</g>
</g>
<!-- Node7 -->
<g id="Node000007" class="node">
<title>Node7</title>
<g id="a_Node000007"><a xlink:href="namespacepyc_1_1nusol.html#af88804c21a54435a41be99cbc03faf30" target="_top" xlink:title=" ">
<polygon fill="white" stroke="#666666" points="268,-93 169,-93 169,-74 268,-74 268,-93"/>
<text text-anchor="middle" x="218.5" y="-81" font-family="Helvetica,sans-Serif" font-size="10.00">pyc::nusol::NuNu</text>
</a>
</g>
</g>
<!-- Node5&#45;&gt;Node7 -->
<g id="edge6_Node000005_Node000007" class="edge">
<title>Node5&#45;&gt;Node7</title>
<g id="a_edge6_Node000005_Node000007"><a xlink:title=" ">
<path fill="none" stroke="#63b8ff" d="M314.39,-83.5C299.12,-83.5 282.85,-83.5 268.17,-83.5"/>
<polygon fill="#63b8ff" stroke="#63b8ff" points="314.77,-87 324.77,-83.5 314.77,-80 314.77,-87"/>
</a>
</g>
</g>
<!-- Node8 -->
<g id="Node000008" class="node">
<title>Node8</title>
<g id="a_Node000008"><a xlink:href="classvalidation.html#aa436b348c281a3d676910cf7b7d575eb" target="_top" xlink:title=" ">
<polygon fill="white" stroke="#666666" points="289,-56 148,-56 148,-37 289,-37 289,-56"/>
<text text-anchor="middle" x="218.5" y="-44" font-family="Helvetica,sans-Serif" font-size="10.00">validation::reconstruction</text>
</a>
</g>
</g>
<!-- Node5&#45;&gt;Node8 -->
<g id="edge7_Node000005_Node000008" class="edge">
<title>Node5&#45;&gt;Node8</title>
<g id="a_edge7_Node000005_Node000008"><a xlink:title=" ">
<path fill="none" stroke="#63b8ff" d="M323.87,-71.57C302.97,-66.56 278.99,-60.79 259.29,-56.06"/>
<polygon fill="#63b8ff" stroke="#63b8ff" points="323.3,-75.04 333.84,-73.97 324.94,-68.23 323.3,-75.04"/>
</a>
</g>
</g>
<!-- Node9 -->
<g id="Node000009" class="node">
<title>Node9</title>
<g id="a_Node000009"><a xlink:href="classvalidation.html#af388ba0e867008a75602581fdc2ed0f3" target="_top" xlink:title="Alternative selection strategy method.">
<polygon fill="white" stroke="#666666" points="112,-56 0,-56 0,-37 112,-37 112,-56"/>
<text text-anchor="middle" x="56" y="-44" font-family="Helvetica,sans-Serif" font-size="10.00">validation::strategy</text>
</a>
</g>
</g>
<!-- Node8&#45;&gt;Node9 -->
<g id="edge8_Node000008_Node000009" class="edge">
<title>Node8&#45;&gt;Node9</title>
<g id="a_edge8_Node000008_Node000009"><a xlink:title=" ">
<path fill="none" stroke="#63b8ff" d="M137.54,-46.5C128.98,-46.5 120.41,-46.5 112.23,-46.5"/>
<polygon fill="#63b8ff" stroke="#63b8ff" points="137.57,-50 147.57,-46.5 137.57,-43 137.57,-50"/>
</a>
</g>
</g>
<!-- Node10&#45;&gt;Node3 -->
<g id="edge12_Node000010_Node000003" class="edge">
<title>Node10&#45;&gt;Node3</title>
<g id="a_edge12_Node000010_Node000003"><a xlink:title=" ">
<path fill="none" stroke="#63b8ff" d="M594.63,-58.62C576.1,-63.57 554.97,-69.22 537.53,-73.88"/>
<polygon fill="#63b8ff" stroke="#63b8ff" points="595.57,-61.99 604.33,-56.03 593.77,-55.23 595.57,-61.99"/>
</a>
</g>
</g>
<!-- Node11 -->
<g id="Node000011" class="node">
<title>Node11</title>
<g id="a_Node000011"><a xlink:href="namespacenusol__.html#a6f05175e14627bd3c34ffa61686b7da4" target="_top" xlink:title=" ">
<polygon fill="white" stroke="#666666" points="534.5,-56 466.5,-56 466.5,-37 534.5,-37 534.5,-56"/>
<text text-anchor="middle" x="500.5" y="-44" font-family="Helvetica,sans-Serif" font-size="10.00">nusol_::Nu</text>
</a>
</g>
</g>
<!-- Node10&#45;&gt;Node11 -->
<g id="edge10_Node000010_Node000011" class="edge">
<title>Node10&#45;&gt;Node11</title>
<g id="a_edge10_Node000010_Node000011"><a xlink:title=" ">
<path fill="none" stroke="#63b8ff" d="M574.77,-46.5C560.81,-46.5 546.63,-46.5 534.52,-46.5"/>
<polygon fill="#63b8ff" stroke="#63b8ff" points="574.86,-50 584.86,-46.5 574.86,-43 574.86,-50"/>
</a>
</g>
</g>
<!-- Node12 -->
<g id="Node000012" class="node">
<title>Node12</title>
<g id="a_Node000012"><a xlink:href="namespacepyc_1_1nusol.html#a991cfa801400211ccf412bd1a85b7b69" target="_top" xlink:title=" ">
<polygon fill="white" stroke="#666666" points="417.5,-56 331.5,-56 331.5,-37 417.5,-37 417.5,-56"/>
<text text-anchor="middle" x="374.5" y="-44" font-family="Helvetica,sans-Serif" font-size="10.00">pyc::nusol::Nu</text>
</a>
</g>
</g>
<!-- Node11&#45;&gt;Node12 -->
<g id="edge11_Node000011_Node000012" class="edge">
<title>Node11&#45;&gt;Node12</title>
<g id="a_edge11_Node000011_Node000012"><a xlink:title=" ">
<path fill="none" stroke="#63b8ff" d="M456.12,-46.5C443.66,-46.5 430.1,-46.5 417.72,-46.5"/>
<polygon fill="#63b8ff" stroke="#63b8ff" points="456.27,-50 466.27,-46.5 456.27,-43 456.27,-50"/>
</a>
</g>
</g>
</g>
</svg>
