<?xml version="1.0" encoding="UTF-8" standalone="no"?>
<!DOCTYPE svg PUBLIC "-//W3C//DTD SVG 1.1//EN"
 "http://www.w3.org/Graphics/SVG/1.1/DTD/svg11.dtd">
<!-- Generated by graphviz version 2.43.0 (0)
 -->
<!-- Title: pyc::nusol::combinatorial Pages: 1 -->
<svg width="511pt" height="101pt"
 viewBox="0.00 0.00 511.00 101.00" xmlns="http://www.w3.org/2000/svg" xmlns:xlink="http://www.w3.org/1999/xlink">
<g id="graph0" class="graph" transform="scale(1 1) rotate(0) translate(4 97)">
<title>pyc::nusol::combinatorial</title>
<!-- Node1 -->
<g id="Node000001" class="node">
<title>Node1</title>
<g id="a_Node000001"><a xlink:title=" ">
<polygon fill="#999999" stroke="#666666" points="503,-56 363,-56 363,-37 503,-37 503,-56"/>
<text text-anchor="middle" x="433" y="-44" font-family="Helvetica,sans-Serif" font-size="10.00">pyc::nusol::combinatorial</text>
</a>
</g>
</g>
<!-- Node2 -->
<g id="Node000002" class="node">
<title>Node2</title>
<g id="a_Node000002"><a xlink:href="namespacepyc_1_1nusol.html#ad4035a04640174f1d5f9cdc307a3ad0a" target="_top" xlink:title=" ">
<polygon fill="white" stroke="#666666" points="317,-93 177,-93 177,-74 317,-74 317,-93"/>
<text text-anchor="middle" x="247" y="-81" font-family="Helvetica,sans-Serif" font-size="10.00">pyc::nusol::combinatorial</text>
</a>
</g>
</g>
<!-- Node1&#45;&gt;Node2 -->
<g id="edge1_Node000001_Node000002" class="edge">
<title>Node1&#45;&gt;Node2</title>
<g id="a_edge1_Node000001_Node000002"><a xlink:title=" ">
<path fill="none" stroke="#63b8ff" d="M374.73,-58.02C349.3,-63.13 319.73,-69.08 295.54,-73.94"/>
<polygon fill="#63b8ff" stroke="#63b8ff" points="375.5,-61.43 384.62,-56.03 374.12,-54.57 375.5,-61.43"/>
</a>
</g>
</g>
<!-- Node3 -->
<g id="Node000003" class="node">
<title>Node3</title>
<g id="a_Node000003"><a xlink:href="namespacepyc_1_1nusol.html#a40d24df283b4dac4dcc8c52ec45d0008" target="_top" xlink:title=" ">
<polygon fill="white" stroke="#666666" points="317,-56 177,-56 177,-37 317,-37 317,-56"/>
<text text-anchor="middle" x="247" y="-44" font-family="Helvetica,sans-Serif" font-size="10.00">pyc::nusol::combinatorial</text>
</a>
</g>
</g>
<!-- Node1&#45;&gt;Node3 -->
<g id="edge2_Node000001_Node000003" class="edge">
<title>Node1&#45;&gt;Node3</title>
<g id="a_edge2_Node000001_Node000003"><a xlink:title=" ">
<path fill="none" stroke="#63b8ff" d="M352.66,-46.5C340.83,-46.5 328.72,-46.5 317.12,-46.5"/>
<polygon fill="#63b8ff" stroke="#63b8ff" points="352.96,-50 362.96,-46.5 352.96,-43 352.96,-50"/>
</a>
</g>
</g>
<!-- Node4 -->
<g id="Node000004" class="node">
<title>Node4</title>
<g id="a_Node000004"><a xlink:href="classcombinatorial.html#a4f90aaf04154a0d1ca9d59e1ccb2c54e" target="_top" xlink:title=" ">
<polygon fill="white" stroke="#666666" points="327,-19 167,-19 167,0 327,0 327,-19"/>
<text text-anchor="middle" x="247" y="-7" font-family="Helvetica,sans-Serif" font-size="10.00">combinatorial::reconstruction</text>
</a>
</g>
</g>
<!-- Node1&#45;&gt;Node4 -->
<g id="edge3_Node000001_Node000004" class="edge">
<title>Node1&#45;&gt;Node4</title>
<g id="a_edge3_Node000001_Node000004"><a xlink:title=" ">
<path fill="none" stroke="#63b8ff" d="M374.73,-34.98C349.3,-29.87 319.73,-23.92 295.54,-19.06"/>
<polygon fill="#63b8ff" stroke="#63b8ff" points="374.12,-38.43 384.62,-36.97 375.5,-31.57 374.12,-38.43"/>
</a>
</g>
</g>
<!-- Node5 -->
<g id="Node000005" class="node">
<title>Node5</title>
<g id="a_Node000005"><a xlink:href="classcombinatorial.html#a5cd8d199d3f8fe6c9f0b8e1c2e2f7bfd" target="_top" xlink:title="Alternative selection strategy method.">
<polygon fill="white" stroke="#666666" points="131,-19 0,-19 0,0 131,0 131,-19"/>
<text text-anchor="middle" x="65.5" y="-7" font-family="Helvetica,sans-Serif" font-size="10.00">combinatorial::strategy</text>
</a>
</g>
</g>
<!-- Node4&#45;&gt;Node5 -->
<g id="edge4_Node000004_Node000005" class="edge">
<title>Node4&#45;&gt;Node5</title>
<g id="a_edge4_Node000004_Node000005"><a xlink:title=" ">
<path fill="none" stroke="#63b8ff" d="M156.64,-9.5C148.02,-9.5 139.39,-9.5 131.07,-9.5"/>
<polygon fill="#63b8ff" stroke="#63b8ff" points="156.75,-13 166.75,-9.5 156.75,-6 156.75,-13"/>
</a>
</g>
</g>
</g>
</svg>
