<?xml version="1.0" encoding="UTF-8" standalone="no"?>
<!DOCTYPE svg PUBLIC "-//W3C//DTD SVG 1.1//EN"
 "http://www.w3.org/Graphics/SVG/1.1/DTD/svg11.dtd">
<!-- Generated by graphviz version 2.43.0 (0)
 -->
<!-- Title: pyc::nusol::NuNu Pages: 1 -->
<svg width="967pt" height="907pt"
 viewBox="0.00 0.00 967.00 907.00" xmlns="http://www.w3.org/2000/svg" xmlns:xlink="http://www.w3.org/1999/xlink">
<g id="graph0" class="graph" transform="scale(1 1) rotate(0) translate(4 903)">
<title>pyc::nusol::NuNu</title>
<!-- Node1 -->
<g id="Node000001" class="node">
<title>Node1</title>
<g id="a_Node000001"><a xlink:title=" ">
<polygon fill="#999999" stroke="#666666" points="99,-220 0,-220 0,-201 99,-201 99,-220"/>
<text text-anchor="middle" x="49.5" y="-208" font-family="Helvetica,sans-Serif" font-size="10.00">pyc::nusol::NuNu</text>
</a>
</g>
</g>
<!-- Node2 -->
<g id="Node000002" class="node">
<title>Node2</title>
<g id="a_Node000002"><a xlink:href="utils_8cxx.html#a123aed6d73594e07c6401a7a6c587808" target="_top" xlink:title=" ">
<polygon fill="white" stroke="#666666" points="410,-295 340,-295 340,-276 410,-276 410,-295"/>
<text text-anchor="middle" x="375" y="-283" font-family="Helvetica,sans-Serif" font-size="10.00">changedev</text>
</a>
</g>
</g>
<!-- Node1&#45;&gt;Node2 -->
<g id="edge1_Node000001_Node000002" class="edge">
<title>Node1&#45;&gt;Node2</title>
<g id="a_edge1_Node000001_Node000002"><a xlink:title=" ">
<path fill="none" stroke="#63b8ff" d="M61.01,-220.08C76.1,-233.2 105.39,-256.28 135,-266.5 199.88,-288.89 280.34,-290.32 329.39,-288.5"/>
<polygon fill="#63b8ff" stroke="#63b8ff" points="329.83,-291.99 339.66,-288.05 329.52,-284.99 329.83,-291.99"/>
</a>
</g>
</g>
<!-- Node3 -->
<g id="Node000003" class="node">
<title>Node3</title>
<g id="a_Node000003"><a xlink:href="interface_8cxx.html#a60ca392438931d5a5ec65ee6f882d6c6" target="_top" xlink:title=" ">
<polygon fill="white" stroke="#666666" points="264.5,-183 160.5,-183 160.5,-164 264.5,-164 264.5,-183"/>
<text text-anchor="middle" x="212.5" y="-171" font-family="Helvetica,sans-Serif" font-size="10.00">construct_particle</text>
</a>
</g>
</g>
<!-- Node1&#45;&gt;Node3 -->
<g id="edge2_Node000001_Node000003" class="edge">
<title>Node1&#45;&gt;Node3</title>
<g id="a_edge2_Node000001_Node000003"><a xlink:title=" ">
<path fill="none" stroke="#63b8ff" d="M91.96,-200.97C112.73,-196.2 138.06,-190.38 160.06,-185.32"/>
<polygon fill="#63b8ff" stroke="#63b8ff" points="160.94,-188.71 169.9,-183.06 159.37,-181.89 160.94,-188.71"/>
</a>
</g>
</g>
<!-- Node5 -->
<g id="Node000005" class="node">
<title>Node5</title>
<g id="a_Node000005"><a xlink:href="vector__cast_8h.html#a9888ed684385b240692f6cb6e4c6b82e" target="_top" xlink:title=" ">
<polygon fill="white" stroke="#666666" points="424,-145 326,-145 326,-126 424,-126 424,-145"/>
<text text-anchor="middle" x="375" y="-133" font-family="Helvetica,sans-Serif" font-size="10.00">tensor_to_vector</text>
</a>
</g>
</g>
<!-- Node1&#45;&gt;Node5 -->
<g id="edge62_Node000001_Node000005" class="edge">
<title>Node1&#45;&gt;Node5</title>
<g id="a_edge62_Node000001_Node000005"><a xlink:title=" ">
<path fill="none" stroke="#63b8ff" d="M61.01,-200.92C76.1,-187.8 105.39,-164.72 135,-154.5 194.14,-134.09 266.23,-131.1 315.67,-132.11"/>
<polygon fill="#63b8ff" stroke="#63b8ff" points="315.77,-135.61 325.86,-132.38 315.96,-128.61 315.77,-135.61"/>
</a>
</g>
</g>
<!-- Node7 -->
<g id="Node000007" class="node">
<title>Node7</title>
<g id="a_Node000007"><a xlink:href="namespacepyc_1_1nusol.html#a9650527ae538fa27121bedfb79a1fbe6" target="_top" xlink:title=" ">
<polygon fill="white" stroke="#666666" points="262,-333 163,-333 163,-314 262,-314 262,-333"/>
<text text-anchor="middle" x="212.5" y="-321" font-family="Helvetica,sans-Serif" font-size="10.00">pyc::nusol::NuNu</text>
</a>
</g>
</g>
<!-- Node1&#45;&gt;Node7 -->
<g id="edge6_Node000001_Node000007" class="edge">
<title>Node1&#45;&gt;Node7</title>
<g id="a_edge6_Node000001_Node000007"><a xlink:title=" ">
<path fill="none" stroke="#63b8ff" d="M56.99,-220.06C69.8,-238.2 100.11,-277.74 135,-299.5 142.13,-303.95 150.15,-307.63 158.25,-310.67"/>
<polygon fill="#63b8ff" stroke="#63b8ff" points="157.14,-313.99 167.74,-313.94 159.43,-307.37 157.14,-313.99"/>
</a>
</g>
</g>
<!-- Node40 -->
<g id="Node000040" class="node">
<title>Node40</title>
<g id="a_Node000040"><a xlink:href="namespacepyc_1_1transform_1_1separate.html#a8707538e9073094f20ba7f80bf98757b" target="_top" xlink:title=" ">
<polygon fill="white" stroke="#666666" points="290,-257 135,-257 135,-238 290,-238 290,-257"/>
<text text-anchor="middle" x="212.5" y="-245" font-family="Helvetica,sans-Serif" font-size="10.00">pyc::transform::separate::Px</text>
</a>
</g>
</g>
<!-- Node1&#45;&gt;Node40 -->
<g id="edge56_Node000001_Node000040" class="edge">
<title>Node1&#45;&gt;Node40</title>
<g id="a_edge56_Node000001_Node000040"><a xlink:title=" ">
<path fill="none" stroke="#63b8ff" d="M91.96,-220.03C112.73,-224.8 138.06,-230.62 160.06,-235.68"/>
<polygon fill="#63b8ff" stroke="#63b8ff" points="159.37,-239.11 169.9,-237.94 160.94,-232.29 159.37,-239.11"/>
</a>
</g>
</g>
<!-- Node42 -->
<g id="Node000042" class="node">
<title>Node42</title>
<g id="a_Node000042"><a xlink:href="namespacepyc_1_1transform_1_1separate.html#a213b45f87684e873b719a628675b3382" target="_top" xlink:title=" ">
<polygon fill="white" stroke="#666666" points="290,-220 135,-220 135,-201 290,-201 290,-220"/>
<text text-anchor="middle" x="212.5" y="-208" font-family="Helvetica,sans-Serif" font-size="10.00">pyc::transform::separate::Py</text>
</a>
</g>
</g>
<!-- Node1&#45;&gt;Node42 -->
<g id="edge59_Node000001_Node000042" class="edge">
<title>Node1&#45;&gt;Node42</title>
<g id="a_edge59_Node000001_Node000042"><a xlink:title=" ">
<path fill="none" stroke="#63b8ff" d="M99.24,-210.5C107.36,-210.5 115.99,-210.5 124.71,-210.5"/>
<polygon fill="#63b8ff" stroke="#63b8ff" points="124.98,-214 134.98,-210.5 124.98,-207 124.98,-214"/>
</a>
</g>
</g>
<!-- Node44 -->
<g id="Node000044" class="node">
<title>Node44</title>
<g id="a_Node000044"><a xlink:href="namespacepyc.html#a78a6e4f2cbb1ffc7ceb42ce358f0fa3e" target="_top" xlink:title=" ">
<polygon fill="white" stroke="#666666" points="255,-89 170,-89 170,-70 255,-70 255,-89"/>
<text text-anchor="middle" x="212.5" y="-77" font-family="Helvetica,sans-Serif" font-size="10.00">pyc::tensorize</text>
</a>
</g>
</g>
<!-- Node1&#45;&gt;Node44 -->
<g id="edge63_Node000001_Node000044" class="edge">
<title>Node1&#45;&gt;Node44</title>
<g id="a_edge63_Node000001_Node000044"><a xlink:title=" ">
<path fill="none" stroke="#63b8ff" d="M58.06,-200.73C71.92,-183.27 102.94,-146.21 135,-121.5 149.08,-110.65 166.32,-100.92 180.86,-93.57"/>
<polygon fill="#63b8ff" stroke="#63b8ff" points="182.54,-96.65 189.97,-89.09 179.45,-90.36 182.54,-96.65"/>
</a>
</g>
</g>
<!-- Node4 -->
<g id="Node000004" class="node">
<title>Node4</title>
<g id="a_Node000004"><a xlink:href="typecasting_8cxx.html#af402b36c82dfb4b1a34d90e26494da67" target="_top" xlink:title=" ">
<polygon fill="white" stroke="#666666" points="411,-183 339,-183 339,-164 411,-164 411,-183"/>
<text text-anchor="middle" x="375" y="-171" font-family="Helvetica,sans-Serif" font-size="10.00">tensor_size</text>
</a>
</g>
</g>
<!-- Node3&#45;&gt;Node4 -->
<g id="edge3_Node000003_Node000004" class="edge">
<title>Node3&#45;&gt;Node4</title>
<g id="a_edge3_Node000003_Node000004"><a xlink:title=" ">
<path fill="none" stroke="#63b8ff" d="M264.72,-173.5C285.35,-173.5 308.93,-173.5 328.89,-173.5"/>
<polygon fill="#63b8ff" stroke="#63b8ff" points="328.97,-177 338.97,-173.5 328.97,-170 328.97,-177"/>
</a>
</g>
</g>
<!-- Node3&#45;&gt;Node5 -->
<g id="edge4_Node000003_Node000005" class="edge">
<title>Node3&#45;&gt;Node5</title>
<g id="a_edge4_Node000003_Node000005"><a xlink:title=" ">
<path fill="none" stroke="#63b8ff" d="M254,-163.91C275.18,-158.9 301.3,-152.71 323.76,-147.39"/>
<polygon fill="#63b8ff" stroke="#63b8ff" points="324.87,-150.73 333.79,-145.02 323.25,-143.92 324.87,-150.73"/>
</a>
</g>
</g>
<!-- Node6 -->
<g id="Node000006" class="node">
<title>Node6</title>
<g id="a_Node000006"><a xlink:href="vector__cast_8h.html#adc5ffd895fb49094059fd9dc0af67de9" target="_top" xlink:title=" ">
<polygon fill="white" stroke="#666666" points="557.5,-132 474.5,-132 474.5,-113 557.5,-113 557.5,-132"/>
<text text-anchor="middle" x="516" y="-120" font-family="Helvetica,sans-Serif" font-size="10.00">tensor_vector</text>
</a>
</g>
</g>
<!-- Node5&#45;&gt;Node6 -->
<g id="edge5_Node000005_Node000006" class="edge">
<title>Node5&#45;&gt;Node6</title>
<g id="a_edge5_Node000005_Node000006"><a xlink:title=" ">
<path fill="none" stroke="#63b8ff" d="M424.23,-130.99C437.09,-129.79 451.04,-128.48 464.05,-127.26"/>
<polygon fill="#63b8ff" stroke="#63b8ff" points="464.62,-130.73 474.25,-126.31 463.96,-123.76 464.62,-130.73"/>
</a>
</g>
</g>
<!-- Node7&#45;&gt;Node2 -->
<g id="edge7_Node000007_Node000002" class="edge">
<title>Node7&#45;&gt;Node2</title>
<g id="a_edge7_Node000007_Node000002"><a xlink:title=" ">
<path fill="none" stroke="#63b8ff" d="M254,-313.91C277.16,-308.43 306.23,-301.55 329.95,-295.93"/>
<polygon fill="#63b8ff" stroke="#63b8ff" points="330.83,-299.32 339.76,-293.61 329.22,-292.5 330.83,-299.32"/>
</a>
</g>
</g>
<!-- Node8 -->
<g id="Node000008" class="node">
<title>Node8</title>
<g id="a_Node000008"><a xlink:href="namespacenusol__.html#ac849ef3564c5ac968727dce36494fd0a" target="_top" xlink:title=" ">
<polygon fill="white" stroke="#666666" points="415.5,-383 334.5,-383 334.5,-364 415.5,-364 415.5,-383"/>
<text text-anchor="middle" x="375" y="-371" font-family="Helvetica,sans-Serif" font-size="10.00">nusol_::NuNu</text>
</a>
</g>
</g>
<!-- Node7&#45;&gt;Node8 -->
<g id="edge8_Node000007_Node000008" class="edge">
<title>Node7&#45;&gt;Node8</title>
<g id="a_edge8_Node000007_Node000008"><a xlink:title=" ">
<path fill="none" stroke="#63b8ff" d="M244.07,-333.02C269.42,-340.92 305.68,-352.22 333.46,-360.87"/>
<polygon fill="#63b8ff" stroke="#63b8ff" points="332.69,-364.3 343.27,-363.93 334.77,-357.61 332.69,-364.3"/>
</a>
</g>
</g>
<!-- Node39 -->
<g id="Node000039" class="node">
<title>Node39</title>
<g id="a_Node000039"><a xlink:href="namespacepyc.html#ab174cc51f6efef06bdb0ba47ec3fe3bf" target="_top" xlink:title=" ">
<polygon fill="white" stroke="#666666" points="421.5,-333 328.5,-333 328.5,-314 421.5,-314 421.5,-333"/>
<text text-anchor="middle" x="375" y="-321" font-family="Helvetica,sans-Serif" font-size="10.00">pyc::std_to_dict</text>
</a>
</g>
</g>
<!-- Node7&#45;&gt;Node39 -->
<g id="edge55_Node000007_Node000039" class="edge">
<title>Node7&#45;&gt;Node39</title>
<g id="a_edge55_Node000007_Node000039"><a xlink:title=" ">
<path fill="none" stroke="#63b8ff" d="M262.09,-323.5C279.76,-323.5 299.86,-323.5 318.11,-323.5"/>
<polygon fill="#63b8ff" stroke="#63b8ff" points="318.32,-327 328.32,-323.5 318.32,-320 318.32,-327"/>
</a>
</g>
</g>
<!-- Node9 -->
<g id="Node000009" class="node">
<title>Node9</title>
<g id="a_Node000009"><a xlink:href="nusol_2tensor_2nusol_8cxx.html#a8bbfd6699dae11189c40dfc0035fd99c" target="_top" xlink:title=" ">
<polygon fill="white" stroke="#666666" points="544,-457 488,-457 488,-438 544,-438 544,-457"/>
<text text-anchor="middle" x="516" y="-445" font-family="Helvetica,sans-Serif" font-size="10.00">_H_perp</text>
</a>
</g>
</g>
<!-- Node8&#45;&gt;Node9 -->
<g id="edge9_Node000008_Node000009" class="edge">
<title>Node8&#45;&gt;Node9</title>
<g id="a_edge9_Node000008_Node000009"><a xlink:title=" ">
<path fill="none" stroke="#63b8ff" d="M388.16,-383.17C403.95,-395.34 432.73,-416.25 460,-429.5 465.75,-432.29 472.05,-434.81 478.25,-437.02"/>
<polygon fill="#63b8ff" stroke="#63b8ff" points="477.26,-440.37 487.85,-440.22 479.47,-433.73 477.26,-440.37"/>
</a>
</g>
</g>
<!-- Node10 -->
<g id="Node000010" class="node">
<title>Node10</title>
<g id="a_Node000010"><a xlink:href="nusol_2tensor_2nusol_8cxx.html#aa2f3034bed6ef5a865741a89972d44d8" target="_top" xlink:title=" ">
<polygon fill="white" stroke="#666666" points="536.5,-420 495.5,-420 495.5,-401 536.5,-401 536.5,-420"/>
<text text-anchor="middle" x="516" y="-408" font-family="Helvetica,sans-Serif" font-size="10.00">_met</text>
</a>
</g>
</g>
<!-- Node8&#45;&gt;Node10 -->
<g id="edge10_Node000008_Node000010" class="edge">
<title>Node8&#45;&gt;Node10</title>
<g id="a_edge10_Node000008_Node000010"><a xlink:title=" ">
<path fill="none" stroke="#63b8ff" d="M411.8,-383.03C434.61,-389.1 463.81,-396.87 485.33,-402.6"/>
<polygon fill="#63b8ff" stroke="#63b8ff" points="484.65,-406.04 495.21,-405.23 486.45,-399.28 484.65,-406.04"/>
</a>
</g>
</g>
<!-- Node11 -->
<g id="Node000011" class="node">
<title>Node11</title>
<g id="a_Node000011"><a xlink:href="nusol_2tensor_2nusol_8cxx.html#a154959ee15ff2420eef7a772682767b7" target="_top" xlink:title=" ">
<polygon fill="white" stroke="#666666" points="530.5,-280 501.5,-280 501.5,-261 530.5,-261 530.5,-280"/>
<text text-anchor="middle" x="516" y="-268" font-family="Helvetica,sans-Serif" font-size="10.00">_N</text>
</a>
</g>
</g>
<!-- Node8&#45;&gt;Node11 -->
<g id="edge11_Node000008_Node000011" class="edge">
<title>Node8&#45;&gt;Node11</title>
<g id="a_edge11_Node000008_Node000011"><a xlink:title=" ">
<path fill="none" stroke="#63b8ff" d="M392.51,-363.88C402.01,-358.09 414.01,-350.34 424,-342.5 441.32,-328.92 442.9,-322.35 460,-308.5 470.46,-300.03 482.74,-291.43 493.04,-284.56"/>
<polygon fill="#63b8ff" stroke="#63b8ff" points="495.04,-287.43 501.48,-279.01 491.2,-281.58 495.04,-287.43"/>
</a>
</g>
</g>
<!-- Node13 -->
<g id="Node000013" class="node">
<title>Node13</title>
<g id="a_Node000013"><a xlink:href="nusol_2tensor_2nusol_8cxx.html#a695a1b065a09564a65159bac242c506c" target="_top" xlink:title=" ">
<polygon fill="white" stroke="#666666" points="699.5,-280 652.5,-280 652.5,-261 699.5,-261 699.5,-280"/>
<text text-anchor="middle" x="676" y="-268" font-family="Helvetica,sans-Serif" font-size="10.00">Shape</text>
</a>
</g>
</g>
<!-- Node8&#45;&gt;Node13 -->
<g id="edge54_Node000008_Node000013" class="edge">
<title>Node8&#45;&gt;Node13</title>
<g id="a_edge54_Node000008_Node000013"><a xlink:title=" ">
<path fill="none" stroke="#63b8ff" d="M400.52,-363.97C442.64,-347.75 531.56,-314.14 608,-289.5 619.19,-285.89 631.54,-282.28 642.57,-279.2"/>
<polygon fill="#63b8ff" stroke="#63b8ff" points="643.53,-282.56 652.24,-276.52 641.67,-275.81 643.53,-282.56"/>
</a>
</g>
</g>
<!-- Node14 -->
<g id="Node000014" class="node">
<title>Node14</title>
<g id="a_Node000014"><a xlink:href="utils_8cxx.html#a1652e53abd2299dd0f10e093948e4fa3" target="_top" xlink:title=" ">
<polygon fill="white" stroke="#666666" points="854.5,-483 798.5,-483 798.5,-464 854.5,-464 854.5,-483"/>
<text text-anchor="middle" x="826.5" y="-471" font-family="Helvetica,sans-Serif" font-size="10.00">MakeOp</text>
</a>
</g>
</g>
<!-- Node8&#45;&gt;Node14 -->
<g id="edge42_Node000008_Node000014" class="edge">
<title>Node8&#45;&gt;Node14</title>
<g id="a_edge42_Node000008_Node000014"><a xlink:title=" ">
<path fill="none" stroke="#63b8ff" d="M382.55,-383.2C395.43,-401.64 425.81,-442.13 460,-466.5 518.21,-508 537.95,-515.21 608,-529.5 667.22,-541.58 686.27,-547.42 744,-529.5 768.62,-521.86 792.41,-503.91 807.86,-490.37"/>
<polygon fill="#63b8ff" stroke="#63b8ff" points="810.49,-492.72 815.54,-483.4 805.78,-487.53 810.49,-492.72"/>
</a>
</g>
</g>
<!-- Node15 -->
<g id="Node000015" class="node">
<title>Node15</title>
<g id="a_Node000015"><a xlink:href="namespacenusol__.html#a526c0e4a558a1201624ea0b639bc747c" target="_top" xlink:title=" ">
<polygon fill="white" stroke="#666666" points="571,-729 461,-729 461,-710 571,-710 571,-729"/>
<text text-anchor="middle" x="516" y="-717" font-family="Helvetica,sans-Serif" font-size="10.00">nusol_::BaseMatrix</text>
</a>
</g>
</g>
<!-- Node8&#45;&gt;Node15 -->
<g id="edge15_Node000008_Node000015" class="edge">
<title>Node8&#45;&gt;Node15</title>
<g id="a_edge15_Node000008_Node000015"><a xlink:title=" ">
<path fill="none" stroke="#63b8ff" d="M379.86,-383.12C398.76,-430.16 481.61,-636.37 507.34,-700.44"/>
<polygon fill="#63b8ff" stroke="#63b8ff" points="504.11,-701.79 511.09,-709.77 510.61,-699.18 504.11,-701.79"/>
</a>
</g>
</g>
<!-- Node25 -->
<g id="Node000025" class="node">
<title>Node25</title>
<g id="a_Node000025"><a xlink:href="namespacenusol__.html#a2cdd92aeb32c05137ebc7ef96c47a3da" target="_top" xlink:title=" ">
<polygon fill="white" stroke="#666666" points="572,-169 460,-169 460,-150 572,-150 572,-169"/>
<text text-anchor="middle" x="516" y="-157" font-family="Helvetica,sans-Serif" font-size="10.00">nusol_::Intersection</text>
</a>
</g>
</g>
<!-- Node8&#45;&gt;Node25 -->
<g id="edge34_Node000008_Node000025" class="edge">
<title>Node8&#45;&gt;Node25</title>
<g id="a_edge34_Node000008_Node000025"><a xlink:title=" ">
<path fill="none" stroke="#63b8ff" d="M396.8,-363.8C406.14,-358.58 416.68,-351.38 424,-342.5 451.39,-309.24 440.98,-291.15 460,-252.5 473.26,-225.56 491.44,-195.94 503.21,-177.53"/>
<polygon fill="#63b8ff" stroke="#63b8ff" points="506.23,-179.3 508.72,-169 500.35,-175.51 506.23,-179.3"/>
</a>
</g>
</g>
<!-- Node31 -->
<g id="Node000031" class="node">
<title>Node31</title>
<g id="a_Node000031"><a xlink:href="nusol_2tensor_2nusol_8cxx.html#a28531a30b80ecbd780392279d8a8adf3" target="_top" xlink:title=" ">
<polygon fill="white" stroke="#666666" points="545,-383 487,-383 487,-364 545,-364 545,-383"/>
<text text-anchor="middle" x="516" y="-371" font-family="Helvetica,sans-Serif" font-size="10.00">Rotation</text>
</a>
</g>
</g>
<!-- Node8&#45;&gt;Node31 -->
<g id="edge43_Node000008_Node000031" class="edge">
<title>Node8&#45;&gt;Node31</title>
<g id="a_edge43_Node000008_Node000031"><a xlink:title=" ">
<path fill="none" stroke="#63b8ff" d="M415.83,-373.5C434.92,-373.5 457.68,-373.5 476.58,-373.5"/>
<polygon fill="#63b8ff" stroke="#63b8ff" points="476.64,-377 486.64,-373.5 476.64,-370 476.64,-377"/>
</a>
</g>
</g>
<!-- Node12 -->
<g id="Node000012" class="node">
<title>Node12</title>
<g id="a_Node000012"><a xlink:href="namespaceoperators__.html#aaf20282e41ff4961e01d222feb86bc47" target="_top" xlink:title="Computes the inverse of a matrix.">
<polygon fill="white" stroke="#666666" points="731,-243 621,-243 621,-224 731,-224 731,-243"/>
<text text-anchor="middle" x="676" y="-231" font-family="Helvetica,sans-Serif" font-size="10.00">operators_::Inverse</text>
</a>
</g>
</g>
<!-- Node11&#45;&gt;Node12 -->
<g id="edge12_Node000011_Node000012" class="edge">
<title>Node11&#45;&gt;Node12</title>
<g id="a_edge12_Node000011_Node000012"><a xlink:title=" ">
<path fill="none" stroke="#63b8ff" d="M530.75,-267.28C551.43,-262.44 591.62,-253.03 624.34,-245.36"/>
<polygon fill="#63b8ff" stroke="#63b8ff" points="625.28,-248.74 634.22,-243.05 623.69,-241.92 625.28,-248.74"/>
</a>
</g>
</g>
<!-- Node11&#45;&gt;Node13 -->
<g id="edge13_Node000011_Node000013" class="edge">
<title>Node11&#45;&gt;Node13</title>
<g id="a_edge13_Node000011_Node000013"><a xlink:title=" ">
<path fill="none" stroke="#63b8ff" d="M530.75,-270.5C555.44,-270.5 607.96,-270.5 642.34,-270.5"/>
<polygon fill="#63b8ff" stroke="#63b8ff" points="642.38,-274 652.38,-270.5 642.38,-267 642.38,-274"/>
</a>
</g>
</g>
<!-- Node13&#45;&gt;Node14 -->
<g id="edge14_Node000013_Node000014" class="edge">
<title>Node13&#45;&gt;Node14</title>
<g id="a_edge14_Node000013_Node000014"><a xlink:title=" ">
<path fill="none" stroke="#63b8ff" d="M699.81,-272.09C713.98,-274.17 731.77,-278.88 744,-289.5 750.73,-295.34 798.53,-408.83 817.64,-454.6"/>
<polygon fill="#63b8ff" stroke="#63b8ff" points="814.47,-456.1 821.55,-463.98 820.93,-453.4 814.47,-456.1"/>
</a>
</g>
</g>
<!-- Node15&#45;&gt;Node14 -->
<g id="edge29_Node000015_Node000014" class="edge">
<title>Node15&#45;&gt;Node14</title>
<g id="a_edge29_Node000015_Node000014"><a xlink:title=" ">
<path fill="none" stroke="#63b8ff" d="M529.75,-709.88C546.89,-697.22 578.63,-674.81 608,-659.5 665.67,-629.44 694.17,-647.29 744,-605.5 781.33,-574.2 806.6,-521.22 818.21,-492.84"/>
<polygon fill="#63b8ff" stroke="#63b8ff" points="821.58,-493.84 821.99,-483.26 815.06,-491.27 821.58,-493.84"/>
</a>
</g>
</g>
<!-- Node16 -->
<g id="Node000016" class="node">
<title>Node16</title>
<g id="a_Node000016"><a xlink:href="nusol_2tensor_2nusol_8cxx.html#ac73ce1484f270adbb1791bd876e80dfa" target="_top" xlink:title=" ">
<polygon fill="white" stroke="#666666" points="693,-899 659,-899 659,-880 693,-880 693,-899"/>
<text text-anchor="middle" x="676" y="-887" font-family="Helvetica,sans-Serif" font-size="10.00">_x0</text>
</a>
</g>
</g>
<!-- Node15&#45;&gt;Node16 -->
<g id="edge16_Node000015_Node000016" class="edge">
<title>Node15&#45;&gt;Node16</title>
<g id="a_edge16_Node000015_Node000016"><a xlink:title=" ">
<path fill="none" stroke="#63b8ff" d="M519.89,-729.07C528.51,-755.96 556.71,-832.76 608,-871.5 619.75,-880.38 635.57,-884.88 648.88,-887.16"/>
<polygon fill="#63b8ff" stroke="#63b8ff" points="648.51,-890.65 658.9,-888.56 649.48,-883.71 648.51,-890.65"/>
</a>
</g>
</g>
<!-- Node17 -->
<g id="Node000017" class="node">
<title>Node17</title>
<g id="a_Node000017"><a xlink:href="namespacephysics__.html#a3123f743b9c22850e7346d5f56a4441b" target="_top" xlink:title="Computes the beta factor.">
<polygon fill="white" stroke="#666666" points="870,-729 783,-729 783,-710 870,-710 870,-729"/>
<text text-anchor="middle" x="826.5" y="-717" font-family="Helvetica,sans-Serif" font-size="10.00">physics_::Beta</text>
</a>
</g>
</g>
<!-- Node15&#45;&gt;Node17 -->
<g id="edge17_Node000015_Node000017" class="edge">
<title>Node15&#45;&gt;Node17</title>
<g id="a_edge17_Node000015_Node000017"><a xlink:title=" ">
<path fill="none" stroke="#63b8ff" d="M571.09,-719.5C627.87,-719.5 716.54,-719.5 772.79,-719.5"/>
<polygon fill="#63b8ff" stroke="#63b8ff" points="772.9,-723 782.9,-719.5 772.9,-716 772.9,-723"/>
</a>
</g>
</g>
<!-- Node19 -->
<g id="Node000019" class="node">
<title>Node19</title>
<g id="a_Node000019"><a xlink:href="namespacephysics__.html#aace12d6d7317cd102e5059781d724151" target="_top" xlink:title="Computes the square of the beta factor.">
<polygon fill="white" stroke="#666666" points="873,-839 780,-839 780,-820 873,-820 873,-839"/>
<text text-anchor="middle" x="826.5" y="-827" font-family="Helvetica,sans-Serif" font-size="10.00">physics_::Beta2</text>
</a>
</g>
</g>
<!-- Node15&#45;&gt;Node19 -->
<g id="edge20_Node000015_Node000019" class="edge">
<title>Node15&#45;&gt;Node19</title>
<g id="a_edge20_Node000015_Node000019"><a xlink:title=" ">
<path fill="none" stroke="#63b8ff" d="M535.86,-729.08C554.06,-738.11 582.51,-751.68 608,-761.5 666.4,-784 735.67,-804.65 780.08,-817.16"/>
<polygon fill="#63b8ff" stroke="#63b8ff" points="779.41,-820.6 789.99,-819.93 781.3,-813.86 779.41,-820.6"/>
</a>
</g>
</g>
<!-- Node20 -->
<g id="Node000020" class="node">
<title>Node20</title>
<g id="a_Node000020"><a xlink:href="namespaceoperators__.html#af012532b8e034b7d6cb733360e14f8d7" target="_top" xlink:title="Computes the cosine of the angle between two vectors.">
<polygon fill="white" stroke="#666666" points="736,-710 616,-710 616,-691 736,-691 736,-710"/>
<text text-anchor="middle" x="676" y="-698" font-family="Helvetica,sans-Serif" font-size="10.00">operators_::CosTheta</text>
</a>
</g>
</g>
<!-- Node15&#45;&gt;Node20 -->
<g id="edge23_Node000015_Node000020" class="edge">
<title>Node15&#45;&gt;Node20</title>
<g id="a_edge23_Node000015_Node000020"><a xlink:title=" ">
<path fill="none" stroke="#63b8ff" d="M571.37,-712.96C582.49,-711.62 594.33,-710.2 605.88,-708.81"/>
<polygon fill="#63b8ff" stroke="#63b8ff" points="606.42,-712.27 615.93,-707.6 605.59,-705.32 606.42,-712.27"/>
</a>
</g>
</g>
<!-- Node21 -->
<g id="Node000021" class="node">
<title>Node21</title>
<g id="a_Node000021"><a xlink:href="nusol_2tensor_2nusol_8cxx.html#a2df29a032d35ff73a0646b3c6f522ff1" target="_top" xlink:title=" ">
<polygon fill="white" stroke="#666666" points="711.5,-596 640.5,-596 640.5,-577 711.5,-577 711.5,-596"/>
<text text-anchor="middle" x="676" y="-584" font-family="Helvetica,sans-Serif" font-size="10.00">GetMasses</text>
</a>
</g>
</g>
<!-- Node15&#45;&gt;Node21 -->
<g id="edge24_Node000015_Node000021" class="edge">
<title>Node15&#45;&gt;Node21</title>
<g id="a_edge24_Node000015_Node000021"><a xlink:title=" ">
<path fill="none" stroke="#63b8ff" d="M522.54,-709.87C535.1,-688.87 567.78,-638.59 608,-610.5 614.84,-605.72 622.74,-601.8 630.65,-598.6"/>
<polygon fill="#63b8ff" stroke="#63b8ff" points="632.08,-601.81 640.25,-595.06 629.66,-595.24 632.08,-601.81"/>
</a>
</g>
</g>
<!-- Node22 -->
<g id="Node000022" class="node">
<title>Node22</title>
<g id="a_Node000022"><a xlink:href="namespacephysics__.html#a7787594305d4a156c31be581401b0b0b" target="_top" xlink:title="Computes the square of the invariant mass.">
<polygon fill="white" stroke="#666666" points="866.5,-784 786.5,-784 786.5,-765 866.5,-765 866.5,-784"/>
<text text-anchor="middle" x="826.5" y="-772" font-family="Helvetica,sans-Serif" font-size="10.00">physics_::M2</text>
</a>
</g>
</g>
<!-- Node15&#45;&gt;Node22 -->
<g id="edge26_Node000015_Node000022" class="edge">
<title>Node15&#45;&gt;Node22</title>
<g id="a_edge26_Node000015_Node000022"><a xlink:title=" ">
<path fill="none" stroke="#63b8ff" d="M570.38,-729.02C628.34,-739.35 720.14,-755.72 776.37,-765.74"/>
<polygon fill="#63b8ff" stroke="#63b8ff" points="775.98,-769.23 786.44,-767.54 777.21,-762.34 775.98,-769.23"/>
</a>
</g>
</g>
<!-- Node23 -->
<g id="Node000023" class="node">
<title>Node23</title>
<g id="a_Node000023"><a xlink:href="namespacephysics__.html#ac12a78b1943348345b940e510930f420" target="_top" xlink:title="Computes the momentum magnitude.">
<polygon fill="white" stroke="#666666" points="862,-672 791,-672 791,-653 862,-653 862,-672"/>
<text text-anchor="middle" x="826.5" y="-660" font-family="Helvetica,sans-Serif" font-size="10.00">physics_::P</text>
</a>
</g>
</g>
<!-- Node15&#45;&gt;Node23 -->
<g id="edge30_Node000015_Node000023" class="edge">
<title>Node15&#45;&gt;Node23</title>
<g id="a_edge30_Node000015_Node000023"><a xlink:title=" ">
<path fill="none" stroke="#63b8ff" d="M535.98,-709.86C554.01,-701.16 582.15,-688.8 608,-682.5 666.5,-668.25 736.09,-663.98 780.52,-662.8"/>
<polygon fill="#63b8ff" stroke="#63b8ff" points="780.79,-666.29 790.71,-662.57 780.63,-659.29 780.79,-666.29"/>
</a>
</g>
</g>
<!-- Node24 -->
<g id="Node000024" class="node">
<title>Node24</title>
<g id="a_Node000024"><a xlink:href="namespaceoperators__.html#a0335a4a853f7cff5faa4bc7bc68e3a8a" target="_top" xlink:title="Computes the sine of the angle between two vectors.">
<polygon fill="white" stroke="#666666" points="734.5,-862 617.5,-862 617.5,-843 734.5,-843 734.5,-862"/>
<text text-anchor="middle" x="676" y="-850" font-family="Helvetica,sans-Serif" font-size="10.00">operators_::SinTheta</text>
</a>
</g>
</g>
<!-- Node15&#45;&gt;Node24 -->
<g id="edge33_Node000015_Node000024" class="edge">
<title>Node15&#45;&gt;Node24</title>
<g id="a_edge33_Node000015_Node000024"><a xlink:title=" ">
<path fill="none" stroke="#63b8ff" d="M522.54,-729.13C535.1,-750.13 567.78,-800.41 608,-828.5 614.06,-832.73 620.94,-836.3 627.94,-839.27"/>
<polygon fill="#63b8ff" stroke="#63b8ff" points="626.89,-842.62 637.48,-842.98 629.42,-836.09 626.89,-842.62"/>
</a>
</g>
</g>
<!-- Node17&#45;&gt;Node17 -->
<g id="edge18_Node000017_Node000017" class="edge">
<title>Node17&#45;&gt;Node17</title>
<g id="a_edge18_Node000017_Node000017"><a xlink:title=" ">
<path fill="none" stroke="#63b8ff" d="M810.16,-729.08C802.21,-737.73 807.66,-747 826.5,-747 838.27,-747 844.82,-743.38 846.13,-738.55"/>
<polygon fill="#63b8ff" stroke="#63b8ff" points="849.43,-737.38 842.84,-729.08 842.81,-739.68 849.43,-737.38"/>
</a>
</g>
</g>
<!-- Node18 -->
<g id="Node000018" class="node">
<title>Node18</title>
<g id="a_Node000018"><a xlink:href="utils_8cxx.html#a9c1cdc6384bce6bdc92ca917b3f656bf" target="_top" xlink:title=" ">
<polygon fill="white" stroke="#666666" points="959,-756 909,-756 909,-737 959,-737 959,-756"/>
<text text-anchor="middle" x="934" y="-744" font-family="Helvetica,sans-Serif" font-size="10.00">format</text>
</a>
</g>
</g>
<!-- Node17&#45;&gt;Node18 -->
<g id="edge19_Node000017_Node000018" class="edge">
<title>Node17&#45;&gt;Node18</title>
<g id="a_edge19_Node000017_Node000018"><a xlink:title=" ">
<path fill="none" stroke="#63b8ff" d="M864.7,-729.02C875.96,-731.9 888.26,-735.05 899.29,-737.87"/>
<polygon fill="#63b8ff" stroke="#63b8ff" points="898.43,-741.26 908.98,-740.35 900.16,-734.48 898.43,-741.26"/>
</a>
</g>
</g>
<!-- Node19&#45;&gt;Node18 -->
<g id="edge22_Node000019_Node000018" class="edge">
<title>Node19&#45;&gt;Node18</title>
<g id="a_edge22_Node000019_Node000018"><a xlink:title=" ">
<path fill="none" stroke="#63b8ff" d="M857.37,-819.92C862.79,-817.57 868.24,-814.77 873,-811.5 891.88,-798.55 909.12,-778.65 920.22,-764.27"/>
<polygon fill="#63b8ff" stroke="#63b8ff" points="923.11,-766.25 926.3,-756.15 917.51,-762.06 923.11,-766.25"/>
</a>
</g>
</g>
<!-- Node19&#45;&gt;Node19 -->
<g id="edge21_Node000019_Node000019" class="edge">
<title>Node19&#45;&gt;Node19</title>
<g id="a_edge21_Node000019_Node000019"><a xlink:title=" ">
<path fill="none" stroke="#63b8ff" d="M810.16,-839.08C802.21,-847.73 807.66,-857 826.5,-857 838.27,-857 844.82,-853.38 846.13,-848.55"/>
<polygon fill="#63b8ff" stroke="#63b8ff" points="849.43,-847.38 842.84,-839.08 842.81,-849.68 849.43,-847.38"/>
</a>
</g>
</g>
<!-- Node21&#45;&gt;Node14 -->
<g id="edge25_Node000021_Node000014" class="edge">
<title>Node21&#45;&gt;Node14</title>
<g id="a_edge25_Node000021_Node000014"><a xlink:title=" ">
<path fill="none" stroke="#63b8ff" d="M711.57,-577.67C722.48,-573.98 734.22,-569 744,-562.5 773.05,-543.19 798.79,-511.35 813.23,-491.45"/>
<polygon fill="#63b8ff" stroke="#63b8ff" points="816.13,-493.42 819.05,-483.23 810.41,-489.37 816.13,-493.42"/>
</a>
</g>
</g>
<!-- Node22&#45;&gt;Node18 -->
<g id="edge27_Node000022_Node000018" class="edge">
<title>Node22&#45;&gt;Node18</title>
<g id="a_edge27_Node000022_Node000018"><a xlink:title=" ">
<path fill="none" stroke="#63b8ff" d="M863.51,-764.94C874.94,-761.91 887.53,-758.57 898.82,-755.57"/>
<polygon fill="#63b8ff" stroke="#63b8ff" points="899.99,-758.88 908.76,-752.93 898.19,-752.12 899.99,-758.88"/>
</a>
</g>
</g>
<!-- Node22&#45;&gt;Node22 -->
<g id="edge28_Node000022_Node000022" class="edge">
<title>Node22&#45;&gt;Node22</title>
<g id="a_edge28_Node000022_Node000022"><a xlink:title=" ">
<path fill="none" stroke="#63b8ff" d="M810.16,-784.08C802.21,-792.73 807.66,-802 826.5,-802 838.27,-802 844.82,-798.38 846.13,-793.55"/>
<polygon fill="#63b8ff" stroke="#63b8ff" points="849.43,-792.38 842.84,-784.08 842.81,-794.68 849.43,-792.38"/>
</a>
</g>
</g>
<!-- Node23&#45;&gt;Node18 -->
<g id="edge31_Node000023_Node000018" class="edge">
<title>Node23&#45;&gt;Node18</title>
<g id="a_edge31_Node000023_Node000018"><a xlink:title=" ">
<path fill="none" stroke="#63b8ff" d="M839.6,-672.14C857.57,-686.44 891.5,-713.45 913.14,-730.68"/>
<polygon fill="#63b8ff" stroke="#63b8ff" points="911.04,-733.49 921.04,-736.98 915.4,-728.01 911.04,-733.49"/>
</a>
</g>
</g>
<!-- Node23&#45;&gt;Node23 -->
<g id="edge32_Node000023_Node000023" class="edge">
<title>Node23&#45;&gt;Node23</title>
<g id="a_edge32_Node000023_Node000023"><a xlink:title=" ">
<path fill="none" stroke="#63b8ff" d="M810.16,-672.08C802.21,-680.73 807.66,-690 826.5,-690 838.27,-690 844.82,-686.38 846.13,-681.55"/>
<polygon fill="#63b8ff" stroke="#63b8ff" points="849.43,-680.38 842.84,-672.08 842.81,-682.68 849.43,-680.38"/>
</a>
</g>
</g>
<!-- Node25&#45;&gt;Node12 -->
<g id="edge39_Node000025_Node000012" class="edge">
<title>Node25&#45;&gt;Node12</title>
<g id="a_edge39_Node000025_Node000012"><a xlink:title=" ">
<path fill="none" stroke="#63b8ff" d="M529.91,-169.12C546.97,-181.44 578.36,-202.72 608,-215.5 612.65,-217.5 617.58,-219.34 622.57,-221"/>
<polygon fill="#63b8ff" stroke="#63b8ff" points="621.61,-224.36 632.19,-223.98 623.68,-217.68 621.61,-224.36"/>
</a>
</g>
</g>
<!-- Node25&#45;&gt;Node14 -->
<g id="edge40_Node000025_Node000014" class="edge">
<title>Node25&#45;&gt;Node14</title>
<g id="a_edge40_Node000025_Node000014"><a xlink:title=" ">
<path fill="none" stroke="#63b8ff" d="M552.46,-149.99C559.21,-147.43 566.03,-144.29 572,-140.5 591.37,-128.2 586.86,-112.43 608,-103.5 663.68,-79.99 698.42,-63.8 744,-103.5 787.98,-141.81 764.73,-307.21 780,-363.5 789.01,-396.73 805.57,-433.3 816.03,-454.79"/>
<polygon fill="#63b8ff" stroke="#63b8ff" points="812.91,-456.38 820.49,-463.79 819.18,-453.27 812.91,-456.38"/>
</a>
</g>
</g>
<!-- Node26 -->
<g id="Node000026" class="node">
<title>Node26</title>
<g id="a_Node000026"><a xlink:href="namespaceoperators__.html#a3d017da3c5169dfb4e1ca5da7cae0703" target="_top" xlink:title="Computes the cofactor matrix of a given matrix.">
<polygon fill="white" stroke="#666666" points="737,-56 615,-56 615,-37 737,-37 737,-56"/>
<text text-anchor="middle" x="676" y="-44" font-family="Helvetica,sans-Serif" font-size="10.00">operators_::CoFactors</text>
</a>
</g>
</g>
<!-- Node25&#45;&gt;Node26 -->
<g id="edge35_Node000025_Node000026" class="edge">
<title>Node25&#45;&gt;Node26</title>
<g id="a_edge35_Node000025_Node000026"><a xlink:title=" ">
<path fill="none" stroke="#63b8ff" d="M556.58,-150C562.15,-147.52 567.5,-144.4 572,-140.5 598.43,-117.58 581.7,-93.56 608,-70.5 612.58,-66.48 617.89,-63.12 623.46,-60.31"/>
<polygon fill="#63b8ff" stroke="#63b8ff" points="625.29,-63.33 633.03,-56.09 622.47,-56.93 625.29,-63.33"/>
</a>
</g>
</g>
<!-- Node27 -->
<g id="Node000027" class="node">
<title>Node27</title>
<g id="a_Node000027"><a xlink:href="namespaceoperators__.html#a123a2d44cfea06825875800ebf21ae0d" target="_top" xlink:title="Computes the determinant of a matrix.">
<polygon fill="white" stroke="#666666" points="744,-19 608,-19 608,0 744,0 744,-19"/>
<text text-anchor="middle" x="676" y="-7" font-family="Helvetica,sans-Serif" font-size="10.00">operators_::Determinant</text>
</a>
</g>
</g>
<!-- Node25&#45;&gt;Node27 -->
<g id="edge36_Node000025_Node000027" class="edge">
<title>Node25&#45;&gt;Node27</title>
<g id="a_edge36_Node000025_Node000027"><a xlink:title=" ">
<path fill="none" stroke="#63b8ff" d="M558.57,-149.97C563.54,-147.51 568.19,-144.4 572,-140.5 608.82,-102.78 569.88,-63.9 608,-27.5 609.12,-26.43 610.29,-25.43 611.51,-24.48"/>
<polygon fill="#63b8ff" stroke="#63b8ff" points="613.56,-27.33 620.16,-19.05 609.83,-21.4 613.56,-27.33"/>
</a>
</g>
</g>
<!-- Node28 -->
<g id="Node000028" class="node">
<title>Node28</title>
<g id="a_Node000028"><a xlink:href="nusol_2tensor_2nusol_8cxx.html#aae1454f2383ba884c21b646a772061b0" target="_top" xlink:title=" ">
<polygon fill="white" stroke="#666666" points="728,-206 624,-206 624,-187 728,-187 728,-206"/>
<text text-anchor="middle" x="676" y="-194" font-family="Helvetica,sans-Serif" font-size="10.00">HorizontalVertical</text>
</a>
</g>
</g>
<!-- Node25&#45;&gt;Node28 -->
<g id="edge37_Node000025_Node000028" class="edge">
<title>Node25&#45;&gt;Node28</title>
<g id="a_edge37_Node000025_Node000028"><a xlink:title=" ">
<path fill="none" stroke="#63b8ff" d="M557.69,-169.03C577.97,-173.78 602.71,-179.57 624.22,-184.61"/>
<polygon fill="#63b8ff" stroke="#63b8ff" points="623.64,-188.07 634.17,-186.94 625.24,-181.25 623.64,-188.07"/>
</a>
</g>
</g>
<!-- Node29 -->
<g id="Node000029" class="node">
<title>Node29</title>
<g id="a_Node000029"><a xlink:href="nusol_2tensor_2nusol_8cxx.html#acf51fdc50b75894636c847810af38706" target="_top" xlink:title=" ">
<polygon fill="white" stroke="#666666" points="713,-169 639,-169 639,-150 713,-150 713,-169"/>
<text text-anchor="middle" x="676" y="-157" font-family="Helvetica,sans-Serif" font-size="10.00">Intersecting</text>
</a>
</g>
</g>
<!-- Node25&#45;&gt;Node29 -->
<g id="edge38_Node000025_Node000029" class="edge">
<title>Node25&#45;&gt;Node29</title>
<g id="a_edge38_Node000025_Node000029"><a xlink:title=" ">
<path fill="none" stroke="#63b8ff" d="M572.26,-159.5C590.71,-159.5 611.06,-159.5 628.75,-159.5"/>
<polygon fill="#63b8ff" stroke="#63b8ff" points="628.83,-163 638.83,-159.5 628.83,-156 628.83,-163"/>
</a>
</g>
</g>
<!-- Node30 -->
<g id="Node000030" class="node">
<title>Node30</title>
<g id="a_Node000030"><a xlink:href="nusol_2tensor_2nusol_8cxx.html#af09f8e81392582428eefa4b074f3f098" target="_top" xlink:title=" ">
<polygon fill="white" stroke="#666666" points="702.5,-132 649.5,-132 649.5,-113 702.5,-113 702.5,-132"/>
<text text-anchor="middle" x="676" y="-120" font-family="Helvetica,sans-Serif" font-size="10.00">Parallel</text>
</a>
</g>
</g>
<!-- Node25&#45;&gt;Node30 -->
<g id="edge41_Node000025_Node000030" class="edge">
<title>Node25&#45;&gt;Node30</title>
<g id="a_edge41_Node000025_Node000030"><a xlink:title=" ">
<path fill="none" stroke="#63b8ff" d="M557.69,-149.97C582.97,-144.05 615.16,-136.51 639.42,-130.83"/>
<polygon fill="#63b8ff" stroke="#63b8ff" points="640.35,-134.21 649.29,-128.52 638.76,-127.39 640.35,-134.21"/>
</a>
</g>
</g>
<!-- Node32 -->
<g id="Node000032" class="node">
<title>Node32</title>
<g id="a_Node000032"><a xlink:href="namespacetransform__.html#aa90019603231f23c1e857b5f5832b587" target="_top" xlink:title="Computes the azimuthal angle (Phi) from a momentum tensor.">
<polygon fill="white" stroke="#666666" points="721.5,-354 630.5,-354 630.5,-335 721.5,-335 721.5,-354"/>
<text text-anchor="middle" x="676" y="-342" font-family="Helvetica,sans-Serif" font-size="10.00">transform_::Phi</text>
</a>
</g>
</g>
<!-- Node31&#45;&gt;Node32 -->
<g id="edge44_Node000031_Node000032" class="edge">
<title>Node31&#45;&gt;Node32</title>
<g id="a_edge44_Node000031_Node000032"><a xlink:title=" ">
<path fill="none" stroke="#63b8ff" d="M545.25,-368.32C566.09,-364.49 595.11,-359.16 620.42,-354.52"/>
<polygon fill="#63b8ff" stroke="#63b8ff" points="621.07,-357.96 630.27,-352.71 619.81,-351.07 621.07,-357.96"/>
</a>
</g>
</g>
<!-- Node34 -->
<g id="Node000034" class="node">
<title>Node34</title>
<g id="a_Node000034"><a xlink:href="nusol_2tensor_2nusol_8cxx.html#acf38ad4d8eeaff43568c7ef70cf2b815" target="_top" xlink:title=" ">
<polygon fill="white" stroke="#666666" points="694.5,-409 657.5,-409 657.5,-390 694.5,-390 694.5,-409"/>
<text text-anchor="middle" x="676" y="-397" font-family="Helvetica,sans-Serif" font-size="10.00">Pi_2</text>
</a>
</g>
</g>
<!-- Node31&#45;&gt;Node34 -->
<g id="edge47_Node000031_Node000034" class="edge">
<title>Node31&#45;&gt;Node34</title>
<g id="a_edge47_Node000031_Node000034"><a xlink:title=" ">
<path fill="none" stroke="#63b8ff" d="M545.25,-378.15C574.05,-382.89 618.47,-390.2 647.14,-394.92"/>
<polygon fill="#63b8ff" stroke="#63b8ff" points="646.85,-398.42 657.29,-396.59 647.99,-391.51 646.85,-398.42"/>
</a>
</g>
</g>
<!-- Node35 -->
<g id="Node000035" class="node">
<title>Node35</title>
<g id="a_Node000035"><a xlink:href="namespaceoperators__.html#a7ce1f1b4f84306a157386ac5fd54ea1a" target="_top" xlink:title="Computes the rotation matrix around the X&#45;axis.">
<polygon fill="white" stroke="#666666" points="719.5,-317 632.5,-317 632.5,-298 719.5,-298 719.5,-317"/>
<text text-anchor="middle" x="676" y="-305" font-family="Helvetica,sans-Serif" font-size="10.00">operators_::Rx</text>
</a>
</g>
</g>
<!-- Node31&#45;&gt;Node35 -->
<g id="edge49_Node000031_Node000035" class="edge">
<title>Node31&#45;&gt;Node35</title>
<g id="a_edge49_Node000031_Node000035"><a xlink:title=" ">
<path fill="none" stroke="#63b8ff" d="M532.98,-364C550.8,-353.69 580.72,-337.29 608,-326.5 613.9,-324.17 620.2,-321.99 626.49,-320.01"/>
<polygon fill="#63b8ff" stroke="#63b8ff" points="627.73,-323.29 636.29,-317.05 625.71,-316.59 627.73,-323.29"/>
</a>
</g>
</g>
<!-- Node36 -->
<g id="Node000036" class="node">
<title>Node36</title>
<g id="a_Node000036"><a xlink:href="namespaceoperators__.html#a7f4dbc7ab056202b3b43d621f6c8df50" target="_top" xlink:title="Computes the rotation matrix around the Y&#45;axis.">
<polygon fill="white" stroke="#666666" points="719.5,-520 632.5,-520 632.5,-501 719.5,-501 719.5,-520"/>
<text text-anchor="middle" x="676" y="-508" font-family="Helvetica,sans-Serif" font-size="10.00">operators_::Ry</text>
</a>
</g>
</g>
<!-- Node31&#45;&gt;Node36 -->
<g id="edge50_Node000031_Node000036" class="edge">
<title>Node31&#45;&gt;Node36</title>
<g id="a_edge50_Node000031_Node000036"><a xlink:title=" ">
<path fill="none" stroke="#63b8ff" d="M545.09,-378.08C554.65,-380.86 564.74,-385.33 572,-392.5 605.62,-425.68 573.24,-460.51 608,-492.5 612.21,-496.37 617.16,-499.43 622.44,-501.84"/>
<polygon fill="#63b8ff" stroke="#63b8ff" points="621.61,-505.26 632.2,-505.51 624.07,-498.71 621.61,-505.26"/>
</a>
</g>
</g>
<!-- Node37 -->
<g id="Node000037" class="node">
<title>Node37</title>
<g id="a_Node000037"><a xlink:href="namespaceoperators__.html#a38a28124e97111d3a1f2809ce2039769" target="_top" xlink:title="Computes the rotation matrix around the Z&#45;axis.">
<polygon fill="white" stroke="#666666" points="719,-483 633,-483 633,-464 719,-464 719,-483"/>
<text text-anchor="middle" x="676" y="-471" font-family="Helvetica,sans-Serif" font-size="10.00">operators_::Rz</text>
</a>
</g>
</g>
<!-- Node31&#45;&gt;Node37 -->
<g id="edge51_Node000031_Node000037" class="edge">
<title>Node31&#45;&gt;Node37</title>
<g id="a_edge51_Node000031_Node000037"><a xlink:title=" ">
<path fill="none" stroke="#63b8ff" d="M545.28,-379.06C554.53,-381.92 564.38,-386.18 572,-392.5 596.83,-413.08 582.47,-435.8 608,-455.5 612.64,-459.08 617.94,-461.95 623.48,-464.25"/>
<polygon fill="#63b8ff" stroke="#63b8ff" points="622.36,-467.57 632.96,-467.61 624.7,-460.97 622.36,-467.57"/>
</a>
</g>
</g>
<!-- Node38 -->
<g id="Node000038" class="node">
<title>Node38</title>
<g id="a_Node000038"><a xlink:href="namespacephysics__.html#a6d323b672a05eb19edce0b4d818bdb7f" target="_top" xlink:title="Computes the polar angle theta.">
<polygon fill="white" stroke="#666666" points="722,-446 630,-446 630,-427 722,-427 722,-446"/>
<text text-anchor="middle" x="676" y="-434" font-family="Helvetica,sans-Serif" font-size="10.00">physics_::Theta</text>
</a>
</g>
</g>
<!-- Node31&#45;&gt;Node38 -->
<g id="edge52_Node000031_Node000038" class="edge">
<title>Node31&#45;&gt;Node38</title>
<g id="a_edge52_Node000031_Node000038"><a xlink:title=" ">
<path fill="none" stroke="#63b8ff" d="M545.08,-381.44C553.92,-384.4 563.57,-388.12 572,-392.5 589.51,-401.6 590.18,-410.02 608,-418.5 612.02,-420.41 616.29,-422.15 620.63,-423.72"/>
<polygon fill="#63b8ff" stroke="#63b8ff" points="619.62,-427.08 630.22,-426.9 621.83,-420.43 619.62,-427.08"/>
</a>
</g>
</g>
<!-- Node32&#45;&gt;Node32 -->
<g id="edge46_Node000032_Node000032" class="edge">
<title>Node32&#45;&gt;Node32</title>
<g id="a_edge46_Node000032_Node000032"><a xlink:title=" ">
<path fill="none" stroke="#63b8ff" d="M652.88,-354.08C641.63,-362.73 649.34,-372 676,-372 693.5,-372 702.83,-368.01 704,-362.82"/>
<polygon fill="#63b8ff" stroke="#63b8ff" points="707.05,-361.11 699.12,-354.08 700.94,-364.52 707.05,-361.11"/>
</a>
</g>
</g>
<!-- Node33 -->
<g id="Node000033" class="node">
<title>Node33</title>
<g id="a_Node000033"><a xlink:href="utils_8cxx.html#aaec9ca2d20716add3c686abd989934d0" target="_top" xlink:title=" ">
<polygon fill="white" stroke="#666666" points="843.5,-354 809.5,-354 809.5,-335 843.5,-335 843.5,-354"/>
<text text-anchor="middle" x="826.5" y="-342" font-family="Helvetica,sans-Serif" font-size="10.00">clip</text>
</a>
</g>
</g>
<!-- Node32&#45;&gt;Node33 -->
<g id="edge45_Node000032_Node000033" class="edge">
<title>Node32&#45;&gt;Node33</title>
<g id="a_edge45_Node000032_Node000033"><a xlink:title=" ">
<path fill="none" stroke="#63b8ff" d="M721.55,-344.5C746.99,-344.5 777.99,-344.5 799.48,-344.5"/>
<polygon fill="#63b8ff" stroke="#63b8ff" points="799.49,-348 809.49,-344.5 799.49,-341 799.49,-348"/>
</a>
</g>
</g>
<!-- Node34&#45;&gt;Node14 -->
<g id="edge48_Node000034_Node000014" class="edge">
<title>Node34&#45;&gt;Node14</title>
<g id="a_edge48_Node000034_Node000014"><a xlink:title=" ">
<path fill="none" stroke="#63b8ff" d="M694.61,-402.89C708.45,-405.93 727.99,-411.06 744,-418.5 766.6,-429 789.92,-445.41 805.8,-457.57"/>
<polygon fill="#63b8ff" stroke="#63b8ff" points="803.77,-460.43 813.8,-463.83 808.08,-454.91 803.77,-460.43"/>
</a>
</g>
</g>
<!-- Node38&#45;&gt;Node23 -->
<g id="edge53_Node000038_Node000023" class="edge">
<title>Node38&#45;&gt;Node23</title>
<g id="a_edge53_Node000038_Node000023"><a xlink:title=" ">
<path fill="none" stroke="#63b8ff" d="M722.12,-443.14C730.1,-445.94 737.82,-449.9 744,-455.5 800.25,-506.46 818.17,-601.17 823.46,-642.42"/>
<polygon fill="#63b8ff" stroke="#63b8ff" points="820,-643.03 824.63,-652.56 826.96,-642.22 820,-643.03"/>
</a>
</g>
</g>
<!-- Node40&#45;&gt;Node2 -->
<g id="edge57_Node000040_Node000002" class="edge">
<title>Node40&#45;&gt;Node2</title>
<g id="a_edge57_Node000040_Node000002"><a xlink:title=" ">
<path fill="none" stroke="#63b8ff" d="M254,-257.09C277.16,-262.57 306.23,-269.45 329.95,-275.07"/>
<polygon fill="#63b8ff" stroke="#63b8ff" points="329.22,-278.5 339.76,-277.39 330.83,-271.68 329.22,-278.5"/>
</a>
</g>
</g>
<!-- Node41 -->
<g id="Node000041" class="node">
<title>Node41</title>
<g id="a_Node000041"><a xlink:href="namespacetransform__.html#a4573dda96168ebbd38a408e64cc3d5ff" target="_top" xlink:title="Computes the x&#45;component of momentum (Px).">
<polygon fill="white" stroke="#666666" points="419,-257 331,-257 331,-238 419,-238 419,-257"/>
<text text-anchor="middle" x="375" y="-245" font-family="Helvetica,sans-Serif" font-size="10.00">transform_::Px</text>
</a>
</g>
</g>
<!-- Node40&#45;&gt;Node41 -->
<g id="edge58_Node000040_Node000041" class="edge">
<title>Node40&#45;&gt;Node41</title>
<g id="a_edge58_Node000040_Node000041"><a xlink:title=" ">
<path fill="none" stroke="#63b8ff" d="M290.46,-247.5C300.62,-247.5 310.85,-247.5 320.5,-247.5"/>
<polygon fill="#63b8ff" stroke="#63b8ff" points="320.72,-251 330.72,-247.5 320.72,-244 320.72,-251"/>
</a>
</g>
</g>
<!-- Node42&#45;&gt;Node2 -->
<g id="edge60_Node000042_Node000002" class="edge">
<title>Node42&#45;&gt;Node2</title>
<g id="a_edge60_Node000042_Node000002"><a xlink:title=" ">
<path fill="none" stroke="#63b8ff" d="M268.05,-220.05C275.69,-222.52 283.24,-225.62 290,-229.5 309.9,-240.93 306.91,-253.77 326,-266.5 328.76,-268.34 331.72,-270.04 334.78,-271.61"/>
<polygon fill="#63b8ff" stroke="#63b8ff" points="333.54,-274.9 344.08,-275.92 336.48,-268.55 333.54,-274.9"/>
</a>
</g>
</g>
<!-- Node43 -->
<g id="Node000043" class="node">
<title>Node43</title>
<g id="a_Node000043"><a xlink:href="namespacetransform__.html#a51363ab29a6390a86a8ea75573a7a196" target="_top" xlink:title="Computes the y&#45;component of momentum (Py).">
<polygon fill="white" stroke="#666666" points="419,-220 331,-220 331,-201 419,-201 419,-220"/>
<text text-anchor="middle" x="375" y="-208" font-family="Helvetica,sans-Serif" font-size="10.00">transform_::Py</text>
</a>
</g>
</g>
<!-- Node42&#45;&gt;Node43 -->
<g id="edge61_Node000042_Node000043" class="edge">
<title>Node42&#45;&gt;Node43</title>
<g id="a_edge61_Node000042_Node000043"><a xlink:title=" ">
<path fill="none" stroke="#63b8ff" d="M290.46,-210.5C300.62,-210.5 310.85,-210.5 320.5,-210.5"/>
<polygon fill="#63b8ff" stroke="#63b8ff" points="320.72,-214 330.72,-210.5 320.72,-207 320.72,-214"/>
</a>
</g>
</g>
<!-- Node44&#45;&gt;Node44 -->
<g id="edge64_Node000044_Node000044" class="edge">
<title>Node44&#45;&gt;Node44</title>
<g id="a_edge64_Node000044_Node000044"><a xlink:title=" ">
<path fill="none" stroke="#63b8ff" d="M187.53,-89.08C175.38,-97.73 183.71,-107 212.5,-107 231.4,-107 241.48,-103.01 242.74,-97.82"/>
<polygon fill="#63b8ff" stroke="#63b8ff" points="245.63,-95.84 237.47,-89.08 239.64,-99.45 245.63,-95.84"/>
</a>
</g>
</g>
</g>
</svg>
