<?xml version="1.0" encoding="UTF-8" standalone="no"?>
<!DOCTYPE svg PUBLIC "-//W3C//DTD SVG 1.1//EN"
 "http://www.w3.org/Graphics/SVG/1.1/DTD/svg11.dtd">
<!-- Generated by graphviz version 2.43.0 (0)
 -->
<!-- Title: pyc::nusol::BaseMatrix Pages: 1 -->
<svg width="530pt" height="397pt"
 viewBox="0.00 0.00 530.00 397.00" xmlns="http://www.w3.org/2000/svg" xmlns:xlink="http://www.w3.org/1999/xlink">
<g id="graph0" class="graph" transform="scale(1 1) rotate(0) translate(4 393)">
<title>pyc::nusol::BaseMatrix</title>
<!-- Node1 -->
<g id="Node000001" class="node">
<title>Node1</title>
<g id="a_Node000001"><a xlink:title=" ">
<polygon fill="#999999" stroke="#666666" points="128,-150 0,-150 0,-131 128,-131 128,-150"/>
<text text-anchor="middle" x="64" y="-138" font-family="Helvetica,sans-Serif" font-size="10.00">pyc::nusol::BaseMatrix</text>
</a>
</g>
</g>
<!-- Node2 -->
<g id="Node000002" class="node">
<title>Node2</title>
<g id="a_Node000002"><a xlink:href="namespacenusol__.html#a526c0e4a558a1201624ea0b639bc747c" target="_top" xlink:title=" ">
<polygon fill="white" stroke="#666666" points="274,-187 164,-187 164,-168 274,-168 274,-187"/>
<text text-anchor="middle" x="219" y="-175" font-family="Helvetica,sans-Serif" font-size="10.00">nusol_::BaseMatrix</text>
</a>
</g>
</g>
<!-- Node1&#45;&gt;Node2 -->
<g id="edge1_Node000001_Node000002" class="edge">
<title>Node1&#45;&gt;Node2</title>
<g id="a_edge1_Node000001_Node000002"><a xlink:title=" ">
<path fill="none" stroke="#63b8ff" d="M104.4,-150.03C123.96,-154.76 147.78,-160.52 168.55,-165.54"/>
<polygon fill="#63b8ff" stroke="#63b8ff" points="167.92,-168.99 178.47,-167.94 169.57,-162.19 167.92,-168.99"/>
</a>
</g>
</g>
<!-- Node13 -->
<g id="Node000013" class="node">
<title>Node13</title>
<g id="a_Node000013"><a xlink:href="utils_8cxx.html#a123aed6d73594e07c6401a7a6c587808" target="_top" xlink:title=" ">
<polygon fill="white" stroke="#666666" points="254,-150 184,-150 184,-131 254,-131 254,-150"/>
<text text-anchor="middle" x="219" y="-138" font-family="Helvetica,sans-Serif" font-size="10.00">changedev</text>
</a>
</g>
</g>
<!-- Node1&#45;&gt;Node13 -->
<g id="edge20_Node000001_Node000013" class="edge">
<title>Node1&#45;&gt;Node13</title>
<g id="a_edge20_Node000001_Node000013"><a xlink:title=" ">
<path fill="none" stroke="#63b8ff" d="M128.11,-140.5C143.48,-140.5 159.59,-140.5 173.86,-140.5"/>
<polygon fill="#63b8ff" stroke="#63b8ff" points="173.89,-144 183.89,-140.5 173.89,-137 173.89,-144"/>
</a>
</g>
</g>
<!-- Node14 -->
<g id="Node000014" class="node">
<title>Node14</title>
<g id="a_Node000014"><a xlink:href="namespacepyc.html#ab174cc51f6efef06bdb0ba47ec3fe3bf" target="_top" xlink:title=" ">
<polygon fill="white" stroke="#666666" points="265.5,-113 172.5,-113 172.5,-94 265.5,-94 265.5,-113"/>
<text text-anchor="middle" x="219" y="-101" font-family="Helvetica,sans-Serif" font-size="10.00">pyc::std_to_dict</text>
</a>
</g>
</g>
<!-- Node1&#45;&gt;Node14 -->
<g id="edge21_Node000001_Node000014" class="edge">
<title>Node1&#45;&gt;Node14</title>
<g id="a_edge21_Node000001_Node000014"><a xlink:title=" ">
<path fill="none" stroke="#63b8ff" d="M104.4,-130.97C123.96,-126.24 147.78,-120.48 168.55,-115.46"/>
<polygon fill="#63b8ff" stroke="#63b8ff" points="169.57,-118.81 178.47,-113.06 167.92,-112.01 169.57,-118.81"/>
</a>
</g>
</g>
<!-- Node3 -->
<g id="Node000003" class="node">
<title>Node3</title>
<g id="a_Node000003"><a xlink:href="nusol_2tensor_2nusol_8cxx.html#ac73ce1484f270adbb1791bd876e80dfa" target="_top" xlink:title=" ">
<polygon fill="white" stroke="#666666" points="387,-389 353,-389 353,-370 387,-370 387,-389"/>
<text text-anchor="middle" x="370" y="-377" font-family="Helvetica,sans-Serif" font-size="10.00">_x0</text>
</a>
</g>
</g>
<!-- Node2&#45;&gt;Node3 -->
<g id="edge2_Node000002_Node000003" class="edge">
<title>Node2&#45;&gt;Node3</title>
<g id="a_edge2_Node000002_Node000003"><a xlink:title=" ">
<path fill="none" stroke="#63b8ff" d="M221.89,-187.17C228.33,-217.61 252.36,-312.36 310,-361.5 319.14,-369.29 331.6,-373.71 342.71,-376.22"/>
<polygon fill="#63b8ff" stroke="#63b8ff" points="342.33,-379.71 352.8,-378.08 343.6,-372.82 342.33,-379.71"/>
</a>
</g>
</g>
<!-- Node4 -->
<g id="Node000004" class="node">
<title>Node4</title>
<g id="a_Node000004"><a xlink:href="namespacephysics__.html#a3123f743b9c22850e7346d5f56a4441b" target="_top" xlink:title="Computes the beta factor.">
<polygon fill="white" stroke="#666666" points="413.5,-334 326.5,-334 326.5,-315 413.5,-315 413.5,-334"/>
<text text-anchor="middle" x="370" y="-322" font-family="Helvetica,sans-Serif" font-size="10.00">physics_::Beta</text>
</a>
</g>
</g>
<!-- Node2&#45;&gt;Node4 -->
<g id="edge3_Node000002_Node000004" class="edge">
<title>Node2&#45;&gt;Node4</title>
<g id="a_edge3_Node000002_Node000004"><a xlink:title=" ">
<path fill="none" stroke="#63b8ff" d="M224.06,-187.25C234.55,-211.27 264.95,-273.73 310,-306.5 312.24,-308.13 314.62,-309.61 317.11,-310.96"/>
<polygon fill="#63b8ff" stroke="#63b8ff" points="315.88,-314.25 326.42,-315.29 318.83,-307.9 315.88,-314.25"/>
</a>
</g>
</g>
<!-- Node6 -->
<g id="Node000006" class="node">
<title>Node6</title>
<g id="a_Node000006"><a xlink:href="namespacephysics__.html#aace12d6d7317cd102e5059781d724151" target="_top" xlink:title="Computes the square of the beta factor.">
<polygon fill="white" stroke="#666666" points="416.5,-279 323.5,-279 323.5,-260 416.5,-260 416.5,-279"/>
<text text-anchor="middle" x="370" y="-267" font-family="Helvetica,sans-Serif" font-size="10.00">physics_::Beta2</text>
</a>
</g>
</g>
<!-- Node2&#45;&gt;Node6 -->
<g id="edge6_Node000002_Node000006" class="edge">
<title>Node2&#45;&gt;Node6</title>
<g id="a_edge6_Node000002_Node000006"><a xlink:title=" ">
<path fill="none" stroke="#63b8ff" d="M229.07,-187.09C244.36,-202.71 276.84,-233.72 310,-251.5 313.31,-253.27 316.82,-254.9 320.41,-256.38"/>
<polygon fill="#63b8ff" stroke="#63b8ff" points="319.44,-259.76 330.04,-259.99 321.9,-253.21 319.44,-259.76"/>
</a>
</g>
</g>
<!-- Node7 -->
<g id="Node000007" class="node">
<title>Node7</title>
<g id="a_Node000007"><a xlink:href="namespaceoperators__.html#af012532b8e034b7d6cb733360e14f8d7" target="_top" xlink:title="Computes the cosine of the angle between two vectors.">
<polygon fill="white" stroke="#666666" points="430,-242 310,-242 310,-223 430,-223 430,-242"/>
<text text-anchor="middle" x="370" y="-230" font-family="Helvetica,sans-Serif" font-size="10.00">operators_::CosTheta</text>
</a>
</g>
</g>
<!-- Node2&#45;&gt;Node7 -->
<g id="edge9_Node000002_Node000007" class="edge">
<title>Node2&#45;&gt;Node7</title>
<g id="a_edge9_Node000002_Node000007"><a xlink:title=" ">
<path fill="none" stroke="#63b8ff" d="M241.6,-187.05C259.7,-194.89 286.3,-206.03 310,-214.5 315.17,-216.35 320.63,-218.17 326.07,-219.92"/>
<polygon fill="#63b8ff" stroke="#63b8ff" points="325.15,-223.3 335.74,-222.95 327.25,-216.62 325.15,-223.3"/>
</a>
</g>
</g>
<!-- Node8 -->
<g id="Node000008" class="node">
<title>Node8</title>
<g id="a_Node000008"><a xlink:href="nusol_2tensor_2nusol_8cxx.html#a2df29a032d35ff73a0646b3c6f522ff1" target="_top" xlink:title=" ">
<polygon fill="white" stroke="#666666" points="405.5,-95 334.5,-95 334.5,-76 405.5,-76 405.5,-95"/>
<text text-anchor="middle" x="370" y="-83" font-family="Helvetica,sans-Serif" font-size="10.00">GetMasses</text>
</a>
</g>
</g>
<!-- Node2&#45;&gt;Node8 -->
<g id="edge10_Node000002_Node000008" class="edge">
<title>Node2&#45;&gt;Node8</title>
<g id="a_edge10_Node000002_Node000008"><a xlink:title=" ">
<path fill="none" stroke="#63b8ff" d="M259.35,-167.89C264.57,-165.64 269.62,-162.88 274,-159.5 297.14,-141.67 286.77,-122.21 310,-104.5 314.44,-101.12 319.5,-98.32 324.75,-96.02"/>
<polygon fill="#63b8ff" stroke="#63b8ff" points="326.21,-99.21 334.32,-92.38 323.72,-92.67 326.21,-99.21"/>
</a>
</g>
</g>
<!-- Node9 -->
<g id="Node000009" class="node">
<title>Node9</title>
<g id="a_Node000009"><a xlink:href="utils_8cxx.html#a1652e53abd2299dd0f10e093948e4fa3" target="_top" xlink:title=" ">
<polygon fill="white" stroke="#666666" points="522,-76 466,-76 466,-57 522,-57 522,-76"/>
<text text-anchor="middle" x="494" y="-64" font-family="Helvetica,sans-Serif" font-size="10.00">MakeOp</text>
</a>
</g>
</g>
<!-- Node2&#45;&gt;Node9 -->
<g id="edge15_Node000002_Node000009" class="edge">
<title>Node2&#45;&gt;Node9</title>
<g id="a_edge15_Node000002_Node000009"><a xlink:title=" ">
<path fill="none" stroke="#63b8ff" d="M261.68,-167.92C266.18,-165.67 270.42,-162.91 274,-159.5 306.08,-128.91 273.44,-91.55 310,-66.5 353.04,-37.01 416.15,-45.35 455.89,-55.13"/>
<polygon fill="#63b8ff" stroke="#63b8ff" points="455.14,-58.55 465.7,-57.69 456.91,-51.78 455.14,-58.55"/>
</a>
</g>
</g>
<!-- Node10 -->
<g id="Node000010" class="node">
<title>Node10</title>
<g id="a_Node000010"><a xlink:href="namespacephysics__.html#a7787594305d4a156c31be581401b0b0b" target="_top" xlink:title="Computes the square of the invariant mass.">
<polygon fill="white" stroke="#666666" points="410,-187 330,-187 330,-168 410,-168 410,-187"/>
<text text-anchor="middle" x="370" y="-175" font-family="Helvetica,sans-Serif" font-size="10.00">physics_::M2</text>
</a>
</g>
</g>
<!-- Node2&#45;&gt;Node10 -->
<g id="edge12_Node000002_Node000010" class="edge">
<title>Node2&#45;&gt;Node10</title>
<g id="a_edge12_Node000002_Node000010"><a xlink:title=" ">
<path fill="none" stroke="#63b8ff" d="M274.21,-177.5C289.08,-177.5 305.11,-177.5 319.68,-177.5"/>
<polygon fill="#63b8ff" stroke="#63b8ff" points="320,-181 330,-177.5 320,-174 320,-181"/>
</a>
</g>
</g>
<!-- Node11 -->
<g id="Node000011" class="node">
<title>Node11</title>
<g id="a_Node000011"><a xlink:href="namespacephysics__.html#ac12a78b1943348345b940e510930f420" target="_top" xlink:title="Computes the momentum magnitude.">
<polygon fill="white" stroke="#666666" points="405.5,-132 334.5,-132 334.5,-113 405.5,-113 405.5,-132"/>
<text text-anchor="middle" x="370" y="-120" font-family="Helvetica,sans-Serif" font-size="10.00">physics_::P</text>
</a>
</g>
</g>
<!-- Node2&#45;&gt;Node11 -->
<g id="edge16_Node000002_Node000011" class="edge">
<title>Node2&#45;&gt;Node11</title>
<g id="a_edge16_Node000002_Node000011"><a xlink:title=" ">
<path fill="none" stroke="#63b8ff" d="M249.52,-167.95C257.49,-165.3 266.1,-162.35 274,-159.5 294.74,-152.01 317.8,-143.04 336,-135.82"/>
<polygon fill="#63b8ff" stroke="#63b8ff" points="337.32,-139.06 345.31,-132.1 334.72,-132.56 337.32,-139.06"/>
</a>
</g>
</g>
<!-- Node12 -->
<g id="Node000012" class="node">
<title>Node12</title>
<g id="a_Node000012"><a xlink:href="namespaceoperators__.html#a0335a4a853f7cff5faa4bc7bc68e3a8a" target="_top" xlink:title="Computes the sine of the angle between two vectors.">
<polygon fill="white" stroke="#666666" points="428.5,-19 311.5,-19 311.5,0 428.5,0 428.5,-19"/>
<text text-anchor="middle" x="370" y="-7" font-family="Helvetica,sans-Serif" font-size="10.00">operators_::SinTheta</text>
</a>
</g>
</g>
<!-- Node2&#45;&gt;Node12 -->
<g id="edge19_Node000002_Node000012" class="edge">
<title>Node2&#45;&gt;Node12</title>
<g id="a_edge19_Node000002_Node000012"><a xlink:title=" ">
<path fill="none" stroke="#63b8ff" d="M262.52,-167.95C266.77,-165.7 270.72,-162.93 274,-159.5 314.28,-117.43 271.1,-76.85 310,-33.5 313.33,-29.79 317.32,-26.64 321.64,-23.97"/>
<polygon fill="#63b8ff" stroke="#63b8ff" points="323.61,-26.88 330.84,-19.13 320.36,-20.69 323.61,-26.88"/>
</a>
</g>
</g>
<!-- Node4&#45;&gt;Node4 -->
<g id="edge4_Node000004_Node000004" class="edge">
<title>Node4&#45;&gt;Node4</title>
<g id="a_edge4_Node000004_Node000004"><a xlink:title=" ">
<path fill="none" stroke="#63b8ff" d="M351.2,-334.08C342.05,-342.73 348.32,-352 370,-352 383.55,-352 391.08,-348.38 392.59,-343.55"/>
<polygon fill="#63b8ff" stroke="#63b8ff" points="395.77,-342.07 388.8,-334.08 389.27,-344.67 395.77,-342.07"/>
</a>
</g>
</g>
<!-- Node5 -->
<g id="Node000005" class="node">
<title>Node5</title>
<g id="a_Node000005"><a xlink:href="utils_8cxx.html#a9c1cdc6384bce6bdc92ca917b3f656bf" target="_top" xlink:title=" ">
<polygon fill="white" stroke="#666666" points="519,-233 469,-233 469,-214 519,-214 519,-233"/>
<text text-anchor="middle" x="494" y="-221" font-family="Helvetica,sans-Serif" font-size="10.00">format</text>
</a>
</g>
</g>
<!-- Node4&#45;&gt;Node5 -->
<g id="edge5_Node000004_Node000005" class="edge">
<title>Node4&#45;&gt;Node5</title>
<g id="a_edge5_Node000004_Node000005"><a xlink:title=" ">
<path fill="none" stroke="#63b8ff" d="M413.76,-314.99C419.49,-312.72 425.08,-309.93 430,-306.5 454.14,-289.67 473.03,-260.72 483.61,-241.85"/>
<polygon fill="#63b8ff" stroke="#63b8ff" points="486.7,-243.48 488.36,-233.01 480.54,-240.16 486.7,-243.48"/>
</a>
</g>
</g>
<!-- Node6&#45;&gt;Node5 -->
<g id="edge8_Node000006_Node000005" class="edge">
<title>Node6&#45;&gt;Node5</title>
<g id="a_edge8_Node000006_Node000005"><a xlink:title=" ">
<path fill="none" stroke="#63b8ff" d="M404.93,-259.92C413.2,-257.38 421.97,-254.5 430,-251.5 441.25,-247.3 453.35,-242.1 463.92,-237.32"/>
<polygon fill="#63b8ff" stroke="#63b8ff" points="465.49,-240.44 473.11,-233.09 462.57,-234.08 465.49,-240.44"/>
</a>
</g>
</g>
<!-- Node6&#45;&gt;Node6 -->
<g id="edge7_Node000006_Node000006" class="edge">
<title>Node6&#45;&gt;Node6</title>
<g id="a_edge7_Node000006_Node000006"><a xlink:title=" ">
<path fill="none" stroke="#63b8ff" d="M351.2,-279.08C342.05,-287.73 348.32,-297 370,-297 383.55,-297 391.08,-293.38 392.59,-288.55"/>
<polygon fill="#63b8ff" stroke="#63b8ff" points="395.77,-287.07 388.8,-279.08 389.27,-289.67 395.77,-287.07"/>
</a>
</g>
</g>
<!-- Node8&#45;&gt;Node9 -->
<g id="edge11_Node000008_Node000009" class="edge">
<title>Node8&#45;&gt;Node9</title>
<g id="a_edge11_Node000008_Node000009"><a xlink:title=" ">
<path fill="none" stroke="#63b8ff" d="M405.63,-80.11C421.24,-77.68 439.69,-74.8 455.61,-72.32"/>
<polygon fill="#63b8ff" stroke="#63b8ff" points="456.3,-75.76 465.64,-70.76 455.23,-68.84 456.3,-75.76"/>
</a>
</g>
</g>
<!-- Node10&#45;&gt;Node5 -->
<g id="edge13_Node000010_Node000005" class="edge">
<title>Node10&#45;&gt;Node5</title>
<g id="a_edge13_Node000010_Node000005"><a xlink:title=" ">
<path fill="none" stroke="#63b8ff" d="M396.28,-187.03C414.63,-193.95 439.65,-203.38 459.64,-210.92"/>
<polygon fill="#63b8ff" stroke="#63b8ff" points="458.41,-214.2 469,-214.45 460.88,-207.65 458.41,-214.2"/>
</a>
</g>
</g>
<!-- Node10&#45;&gt;Node10 -->
<g id="edge14_Node000010_Node000010" class="edge">
<title>Node10&#45;&gt;Node10</title>
<g id="a_edge14_Node000010_Node000010"><a xlink:title=" ">
<path fill="none" stroke="#63b8ff" d="M351.2,-187.08C342.05,-195.73 348.32,-205 370,-205 383.55,-205 391.08,-201.38 392.59,-196.55"/>
<polygon fill="#63b8ff" stroke="#63b8ff" points="395.77,-195.07 388.8,-187.08 389.27,-197.67 395.77,-195.07"/>
</a>
</g>
</g>
<!-- Node11&#45;&gt;Node5 -->
<g id="edge17_Node000011_Node000005" class="edge">
<title>Node11&#45;&gt;Node5</title>
<g id="a_edge17_Node000011_Node000005"><a xlink:title=" ">
<path fill="none" stroke="#63b8ff" d="M388.5,-132.03C400.63,-138.97 416.9,-148.98 430,-159.5 447.72,-173.73 465.68,-192.5 477.87,-206.03"/>
<polygon fill="#63b8ff" stroke="#63b8ff" points="475.4,-208.53 484.66,-213.69 480.64,-203.89 475.4,-208.53"/>
</a>
</g>
</g>
<!-- Node11&#45;&gt;Node11 -->
<g id="edge18_Node000011_Node000011" class="edge">
<title>Node11&#45;&gt;Node11</title>
<g id="a_edge18_Node000011_Node000011"><a xlink:title=" ">
<path fill="none" stroke="#63b8ff" d="M351.2,-132.08C342.05,-140.73 348.32,-150 370,-150 383.55,-150 391.08,-146.38 392.59,-141.55"/>
<polygon fill="#63b8ff" stroke="#63b8ff" points="395.77,-140.07 388.8,-132.08 389.27,-142.67 395.77,-140.07"/>
</a>
</g>
</g>
</g>
</svg>
