<?xml version="1.0" encoding="UTF-8" standalone="no"?>
<!DOCTYPE svg PUBLIC "-//W3C//DTD SVG 1.1//EN"
 "http://www.w3.org/Graphics/SVG/1.1/DTD/svg11.dtd">
<!-- Generated by graphviz version 2.43.0 (0)
 -->
<!-- Title: operators_::CoFactors Pages: 1 -->
<svg width="883pt" height="156pt"
 viewBox="0.00 0.00 883.00 156.00" xmlns="http://www.w3.org/2000/svg" xmlns:xlink="http://www.w3.org/1999/xlink">
<g id="graph0" class="graph" transform="scale(1 1) rotate(0) translate(4 152)">
<title>operators_::CoFactors</title>
<!-- Node1 -->
<g id="Node000001" class="node">
<title>Node1</title>
<g id="a_Node000001"><a xlink:title="Computes the cofactor matrix of a given matrix.">
<polygon fill="#999999" stroke="#666666" points="875,-129 753,-129 753,-110 875,-110 875,-129"/>
<text text-anchor="middle" x="814" y="-117" font-family="Helvetica,sans-Serif" font-size="10.00">operators_::CoFactors</text>
</a>
</g>
</g>
<!-- Node2 -->
<g id="Node000002" class="node">
<title>Node2</title>
<g id="a_Node000002"><a xlink:href="namespacepyc_1_1operators.html#a5b271f36f06d0f527f2c92a9d96041d7" target="_top" xlink:title=" ">
<polygon fill="white" stroke="#666666" points="717,-148 577,-148 577,-129 717,-129 717,-148"/>
<text text-anchor="middle" x="647" y="-136" font-family="Helvetica,sans-Serif" font-size="10.00">pyc::operators::CoFactors</text>
</a>
</g>
</g>
<!-- Node1&#45;&gt;Node2 -->
<g id="edge1_Node000001_Node000002" class="edge">
<title>Node1&#45;&gt;Node2</title>
<g id="a_edge1_Node000001_Node000002"><a xlink:title=" ">
<path fill="none" stroke="#63b8ff" d="M742.76,-127.59C734.3,-128.56 725.67,-129.56 717.23,-130.53"/>
<polygon fill="#63b8ff" stroke="#63b8ff" points="743.43,-131.03 752.96,-126.41 742.63,-124.08 743.43,-131.03"/>
</a>
</g>
</g>
<!-- Node3 -->
<g id="Node000003" class="node">
<title>Node3</title>
<g id="a_Node000003"><a xlink:href="namespacenusol__.html#a2cdd92aeb32c05137ebc7ef96c47a3da" target="_top" xlink:title=" ">
<polygon fill="white" stroke="#666666" points="703,-111 591,-111 591,-92 703,-92 703,-111"/>
<text text-anchor="middle" x="647" y="-99" font-family="Helvetica,sans-Serif" font-size="10.00">nusol_::Intersection</text>
</a>
</g>
</g>
<!-- Node1&#45;&gt;Node3 -->
<g id="edge2_Node000001_Node000003" class="edge">
<title>Node1&#45;&gt;Node3</title>
<g id="a_edge2_Node000001_Node000003"><a xlink:title=" ">
<path fill="none" stroke="#63b8ff" d="M742.89,-111.85C729.58,-110.4 715.82,-108.9 703.06,-107.51"/>
<polygon fill="#63b8ff" stroke="#63b8ff" points="742.64,-115.35 752.96,-112.95 743.4,-108.39 742.64,-115.35"/>
</a>
</g>
</g>
<!-- Node4 -->
<g id="Node000004" class="node">
<title>Node4</title>
<g id="a_Node000004"><a xlink:href="namespacenusol__.html#a6f05175e14627bd3c34ffa61686b7da4" target="_top" xlink:title=" ">
<polygon fill="white" stroke="#666666" points="534.5,-130 466.5,-130 466.5,-111 534.5,-111 534.5,-130"/>
<text text-anchor="middle" x="500.5" y="-118" font-family="Helvetica,sans-Serif" font-size="10.00">nusol_::Nu</text>
</a>
</g>
</g>
<!-- Node3&#45;&gt;Node4 -->
<g id="edge3_Node000003_Node000004" class="edge">
<title>Node3&#45;&gt;Node4</title>
<g id="a_edge3_Node000003_Node000004"><a xlink:title=" ">
<path fill="none" stroke="#63b8ff" d="M580.6,-110.1C564.68,-112.19 548.31,-114.34 534.63,-116.14"/>
<polygon fill="#63b8ff" stroke="#63b8ff" points="581.5,-113.51 590.96,-108.74 580.59,-106.57 581.5,-113.51"/>
</a>
</g>
</g>
<!-- Node6 -->
<g id="Node000006" class="node">
<title>Node6</title>
<g id="a_Node000006"><a xlink:href="namespacenusol__.html#ac849ef3564c5ac968727dce36494fd0a" target="_top" xlink:title=" ">
<polygon fill="white" stroke="#666666" points="541,-93 460,-93 460,-74 541,-74 541,-93"/>
<text text-anchor="middle" x="500.5" y="-81" font-family="Helvetica,sans-Serif" font-size="10.00">nusol_::NuNu</text>
</a>
</g>
</g>
<!-- Node3&#45;&gt;Node6 -->
<g id="edge5_Node000003_Node000006" class="edge">
<title>Node3&#45;&gt;Node6</title>
<g id="a_edge5_Node000003_Node000006"><a xlink:title=" ">
<path fill="none" stroke="#63b8ff" d="M580.72,-93.37C567.21,-91.69 553.37,-89.96 541.12,-88.43"/>
<polygon fill="#63b8ff" stroke="#63b8ff" points="580.6,-96.88 590.96,-94.64 581.47,-89.93 580.6,-96.88"/>
</a>
</g>
</g>
<!-- Node5 -->
<g id="Node000005" class="node">
<title>Node5</title>
<g id="a_Node000005"><a xlink:href="namespacepyc_1_1nusol.html#a991cfa801400211ccf412bd1a85b7b69" target="_top" xlink:title=" ">
<polygon fill="white" stroke="#666666" points="417.5,-130 331.5,-130 331.5,-111 417.5,-111 417.5,-130"/>
<text text-anchor="middle" x="374.5" y="-118" font-family="Helvetica,sans-Serif" font-size="10.00">pyc::nusol::Nu</text>
</a>
</g>
</g>
<!-- Node4&#45;&gt;Node5 -->
<g id="edge4_Node000004_Node000005" class="edge">
<title>Node4&#45;&gt;Node5</title>
<g id="a_edge4_Node000004_Node000005"><a xlink:title=" ">
<path fill="none" stroke="#63b8ff" d="M456.12,-120.5C443.66,-120.5 430.1,-120.5 417.72,-120.5"/>
<polygon fill="#63b8ff" stroke="#63b8ff" points="456.27,-124 466.27,-120.5 456.27,-117 456.27,-124"/>
</a>
</g>
</g>
<!-- Node7 -->
<g id="Node000007" class="node">
<title>Node7</title>
<g id="a_Node000007"><a xlink:href="namespacepyc_1_1nusol.html#af7bb509b120cb3314695cecd70bc5c11" target="_top" xlink:title=" ">
<polygon fill="white" stroke="#666666" points="424,-93 325,-93 325,-74 424,-74 424,-93"/>
<text text-anchor="middle" x="374.5" y="-81" font-family="Helvetica,sans-Serif" font-size="10.00">pyc::nusol::NuNu</text>
</a>
</g>
</g>
<!-- Node6&#45;&gt;Node7 -->
<g id="edge6_Node000006_Node000007" class="edge">
<title>Node6&#45;&gt;Node7</title>
<g id="a_edge6_Node000006_Node000007"><a xlink:title=" ">
<path fill="none" stroke="#63b8ff" d="M449.84,-83.5C441.42,-83.5 432.67,-83.5 424.26,-83.5"/>
<polygon fill="#63b8ff" stroke="#63b8ff" points="449.92,-87 459.92,-83.5 449.92,-80 449.92,-87"/>
</a>
</g>
</g>
<!-- Node8 -->
<g id="Node000008" class="node">
<title>Node8</title>
<g id="a_Node000008"><a xlink:href="namespacepyc_1_1nusol.html#a9650527ae538fa27121bedfb79a1fbe6" target="_top" xlink:title=" ">
<polygon fill="white" stroke="#666666" points="424,-56 325,-56 325,-37 424,-37 424,-56"/>
<text text-anchor="middle" x="374.5" y="-44" font-family="Helvetica,sans-Serif" font-size="10.00">pyc::nusol::NuNu</text>
</a>
</g>
</g>
<!-- Node6&#45;&gt;Node8 -->
<g id="edge7_Node000006_Node000008" class="edge">
<title>Node6&#45;&gt;Node8</title>
<g id="a_edge7_Node000006_Node000008"><a xlink:title=" ">
<path fill="none" stroke="#63b8ff" d="M457.73,-71.04C441.42,-66.17 423.01,-60.68 407.76,-56.12"/>
<polygon fill="#63b8ff" stroke="#63b8ff" points="456.98,-74.47 467.57,-73.97 458.99,-67.76 456.98,-74.47"/>
</a>
</g>
</g>
<!-- Node9 -->
<g id="Node000009" class="node">
<title>Node9</title>
<g id="a_Node000009"><a xlink:href="namespacepyc_1_1nusol.html#aaaf252028ed63bf2d561dffcd76916e2" target="_top" xlink:title=" ">
<polygon fill="white" stroke="#666666" points="268,-93 169,-93 169,-74 268,-74 268,-93"/>
<text text-anchor="middle" x="218.5" y="-81" font-family="Helvetica,sans-Serif" font-size="10.00">pyc::nusol::NuNu</text>
</a>
</g>
</g>
<!-- Node8&#45;&gt;Node9 -->
<g id="edge8_Node000008_Node000009" class="edge">
<title>Node8&#45;&gt;Node9</title>
<g id="a_edge8_Node000008_Node000009"><a xlink:title=" ">
<path fill="none" stroke="#63b8ff" d="M323.87,-58.43C302.97,-63.44 278.99,-69.21 259.29,-73.94"/>
<polygon fill="#63b8ff" stroke="#63b8ff" points="324.94,-61.77 333.84,-56.03 323.3,-54.96 324.94,-61.77"/>
</a>
</g>
</g>
<!-- Node10 -->
<g id="Node000010" class="node">
<title>Node10</title>
<g id="a_Node000010"><a xlink:href="namespacepyc_1_1nusol.html#af88804c21a54435a41be99cbc03faf30" target="_top" xlink:title=" ">
<polygon fill="white" stroke="#666666" points="268,-56 169,-56 169,-37 268,-37 268,-56"/>
<text text-anchor="middle" x="218.5" y="-44" font-family="Helvetica,sans-Serif" font-size="10.00">pyc::nusol::NuNu</text>
</a>
</g>
</g>
<!-- Node8&#45;&gt;Node10 -->
<g id="edge9_Node000008_Node000010" class="edge">
<title>Node8&#45;&gt;Node10</title>
<g id="a_edge9_Node000008_Node000010"><a xlink:title=" ">
<path fill="none" stroke="#63b8ff" d="M314.39,-46.5C299.12,-46.5 282.85,-46.5 268.17,-46.5"/>
<polygon fill="#63b8ff" stroke="#63b8ff" points="314.77,-50 324.77,-46.5 314.77,-43 314.77,-50"/>
</a>
</g>
</g>
<!-- Node11 -->
<g id="Node000011" class="node">
<title>Node11</title>
<g id="a_Node000011"><a xlink:href="classvalidation.html#aa436b348c281a3d676910cf7b7d575eb" target="_top" xlink:title=" ">
<polygon fill="white" stroke="#666666" points="289,-19 148,-19 148,0 289,0 289,-19"/>
<text text-anchor="middle" x="218.5" y="-7" font-family="Helvetica,sans-Serif" font-size="10.00">validation::reconstruction</text>
</a>
</g>
</g>
<!-- Node8&#45;&gt;Node11 -->
<g id="edge10_Node000008_Node000011" class="edge">
<title>Node8&#45;&gt;Node11</title>
<g id="a_edge10_Node000008_Node000011"><a xlink:title=" ">
<path fill="none" stroke="#63b8ff" d="M323.87,-34.57C302.97,-29.56 278.99,-23.79 259.29,-19.06"/>
<polygon fill="#63b8ff" stroke="#63b8ff" points="323.3,-38.04 333.84,-36.97 324.94,-31.23 323.3,-38.04"/>
</a>
</g>
</g>
<!-- Node12 -->
<g id="Node000012" class="node">
<title>Node12</title>
<g id="a_Node000012"><a xlink:href="classvalidation.html#af388ba0e867008a75602581fdc2ed0f3" target="_top" xlink:title="Alternative selection strategy method.">
<polygon fill="white" stroke="#666666" points="112,-19 0,-19 0,0 112,0 112,-19"/>
<text text-anchor="middle" x="56" y="-7" font-family="Helvetica,sans-Serif" font-size="10.00">validation::strategy</text>
</a>
</g>
</g>
<!-- Node11&#45;&gt;Node12 -->
<g id="edge11_Node000011_Node000012" class="edge">
<title>Node11&#45;&gt;Node12</title>
<g id="a_edge11_Node000011_Node000012"><a xlink:title=" ">
<path fill="none" stroke="#63b8ff" d="M137.54,-9.5C128.98,-9.5 120.41,-9.5 112.23,-9.5"/>
<polygon fill="#63b8ff" stroke="#63b8ff" points="137.57,-13 147.57,-9.5 137.57,-6 137.57,-13"/>
</a>
</g>
</g>
</g>
</svg>
