<?xml version="1.0" encoding="UTF-8" standalone="no"?>
<!DOCTYPE svg PUBLIC "-//W3C//DTD SVG 1.1//EN"
 "http://www.w3.org/Graphics/SVG/1.1/DTD/svg11.dtd">
<!-- Generated by graphviz version 2.43.0 (0)
 -->
<!-- Title: pyc::physics::polar::separate::DeltaR Pages: 1 -->
<svg width="249pt" height="82pt"
 viewBox="0.00 0.00 249.00 82.00" xmlns="http://www.w3.org/2000/svg" xmlns:xlink="http://www.w3.org/1999/xlink">
<g id="graph0" class="graph" transform="scale(1 1) rotate(0) translate(4 78)">
<title>pyc::physics::polar::separate::DeltaR</title>
<!-- Node1 -->
<g id="Node000001" class="node">
<title>Node1</title>
<g id="a_Node000001"><a xlink:title=" ">
<polygon fill="#999999" stroke="#666666" points="107,-51.5 0,-51.5 0,-21.5 107,-21.5 107,-51.5"/>
<text text-anchor="start" x="8" y="-39.5" font-family="Helvetica,sans-Serif" font-size="10.00">pyc::physics::polar</text>
<text text-anchor="middle" x="53.5" y="-28.5" font-family="Helvetica,sans-Serif" font-size="10.00">::separate::DeltaR</text>
</a>
</g>
</g>
<!-- Node2 -->
<g id="Node000002" class="node">
<title>Node2</title>
<g id="a_Node000002"><a xlink:href="utils_8cxx.html#a123aed6d73594e07c6401a7a6c587808" target="_top" xlink:title=" ">
<polygon fill="white" stroke="#666666" points="227,-74 157,-74 157,-55 227,-55 227,-74"/>
<text text-anchor="middle" x="192" y="-62" font-family="Helvetica,sans-Serif" font-size="10.00">changedev</text>
</a>
</g>
</g>
<!-- Node1&#45;&gt;Node2 -->
<g id="edge1_Node000001_Node000002" class="edge">
<title>Node1&#45;&gt;Node2</title>
<g id="a_edge1_Node000001_Node000002"><a xlink:title=" ">
<path fill="none" stroke="#63b8ff" d="M107.27,-47.33C120.42,-50.02 134.37,-52.88 147.03,-55.48"/>
<polygon fill="#63b8ff" stroke="#63b8ff" points="146.38,-58.92 156.88,-57.5 147.78,-52.06 146.38,-58.92"/>
</a>
</g>
</g>
<!-- Node3 -->
<g id="Node000003" class="node">
<title>Node3</title>
<g id="a_Node000003"><a xlink:href="namespacephysics__.html#a5f66fa5ca30082509e1284fbcb4b25be" target="_top" xlink:title="Computes the delta R separation between two particles.">
<polygon fill="white" stroke="#666666" points="241,-19 143,-19 143,0 241,0 241,-19"/>
<text text-anchor="middle" x="192" y="-7" font-family="Helvetica,sans-Serif" font-size="10.00">physics_::DeltaR</text>
</a>
</g>
</g>
<!-- Node1&#45;&gt;Node3 -->
<g id="edge2_Node000001_Node000003" class="edge">
<title>Node1&#45;&gt;Node3</title>
<g id="a_edge2_Node000001_Node000003"><a xlink:title=" ">
<path fill="none" stroke="#63b8ff" d="M107.27,-26.06C115.69,-24.4 124.43,-22.67 132.95,-20.98"/>
<polygon fill="#63b8ff" stroke="#63b8ff" points="133.7,-24.4 142.83,-19.03 132.34,-17.54 133.7,-24.4"/>
</a>
</g>
</g>
<!-- Node3&#45;&gt;Node3 -->
<g id="edge3_Node000003_Node000003" class="edge">
<title>Node3&#45;&gt;Node3</title>
<g id="a_edge3_Node000003_Node000003"><a xlink:title=" ">
<path fill="none" stroke="#63b8ff" d="M170.73,-19.08C160.38,-27.73 167.47,-37 192,-37 207.71,-37 216.27,-33.2 217.67,-28.19"/>
<polygon fill="#63b8ff" stroke="#63b8ff" points="220.77,-26.56 213.27,-19.08 214.47,-29.61 220.77,-26.56"/>
</a>
</g>
</g>
</g>
</svg>
