<?xml version="1.0" encoding="UTF-8" standalone="no"?>
<!DOCTYPE svg PUBLIC "-//W3C//DTD SVG 1.1//EN"
 "http://www.w3.org/Graphics/SVG/1.1/DTD/svg11.dtd">
<!-- Generated by graphviz version 2.43.0 (0)
 -->
<!-- Title: pyc::graph::edge_aggregation Pages: 1 -->
<svg width="561pt" height="149pt"
 viewBox="0.00 0.00 561.00 148.50" xmlns="http://www.w3.org/2000/svg" xmlns:xlink="http://www.w3.org/1999/xlink">
<g id="graph0" class="graph" transform="scale(1 1) rotate(0) translate(4 144.5)">
<title>pyc::graph::edge_aggregation</title>
<!-- Node1 -->
<g id="Node000001" class="node">
<title>Node1</title>
<g id="a_Node000001"><a xlink:title=" ">
<polygon fill="#999999" stroke="#666666" points="553,-85.5 392,-85.5 392,-66.5 553,-66.5 553,-85.5"/>
<text text-anchor="middle" x="472.5" y="-73.5" font-family="Helvetica,sans-Serif" font-size="10.00">pyc::graph::edge_aggregation</text>
</a>
</g>
</g>
<!-- Node2 -->
<g id="Node000002" class="node">
<title>Node2</title>
<g id="a_Node000002"><a xlink:href="classmetrics.html#adb34703cb499689522741aa2ceed61e3" target="_top" xlink:title=" ">
<polygon fill="white" stroke="#666666" points="343,-140.5 209,-140.5 209,-121.5 343,-121.5 343,-140.5"/>
<text text-anchor="middle" x="276" y="-128.5" font-family="Helvetica,sans-Serif" font-size="10.00">metrics::add_th1f_mass</text>
</a>
</g>
</g>
<!-- Node1&#45;&gt;Node2 -->
<g id="edge1_Node000001_Node000002" class="edge">
<title>Node1&#45;&gt;Node2</title>
<g id="a_edge1_Node000001_Node000002"><a xlink:title=" ">
<path fill="none" stroke="#63b8ff" d="M434.18,-88.85C411.68,-96.38 382.36,-105.79 356,-113 345.01,-116.01 333.07,-118.91 321.87,-121.48"/>
<polygon fill="#63b8ff" stroke="#63b8ff" points="435.33,-92.16 443.69,-85.65 433.1,-85.53 435.33,-92.16"/>
</a>
</g>
</g>
<!-- Node4 -->
<g id="Node000004" class="node">
<title>Node4</title>
<g id="a_Node000004"><a xlink:href="classgrift.html#a72f7575fbd1d744d4f9053e5b8b7ee38" target="_top" xlink:title="Virtual forward pass method for a single graph.">
<polygon fill="white" stroke="#666666" points="316,-85.5 236,-85.5 236,-66.5 316,-66.5 316,-85.5"/>
<text text-anchor="middle" x="276" y="-73.5" font-family="Helvetica,sans-Serif" font-size="10.00">grift::forward</text>
</a>
</g>
</g>
<!-- Node1&#45;&gt;Node4 -->
<g id="edge3_Node000001_Node000004" class="edge">
<title>Node1&#45;&gt;Node4</title>
<g id="a_edge3_Node000001_Node000004"><a xlink:title=" ">
<path fill="none" stroke="#63b8ff" d="M381.66,-76C358.62,-76 335.03,-76 316.09,-76"/>
<polygon fill="#63b8ff" stroke="#63b8ff" points="381.83,-79.5 391.83,-76 381.83,-72.5 381.83,-79.5"/>
</a>
</g>
</g>
<!-- Node6 -->
<g id="Node000006" class="node">
<title>Node6</title>
<g id="a_Node000006"><a xlink:href="classrecursivegraphneuralnetwork.html#a4b09bc8de8d9ecd0b4ff1ffa94deea98" target="_top" xlink:title="Virtual forward pass method for a single graph.">
<polygon fill="white" stroke="#666666" points="356,-30 196,-30 196,0 356,0 356,-30"/>
<text text-anchor="start" x="204" y="-18" font-family="Helvetica,sans-Serif" font-size="10.00">recursivegraphneuralnetwork</text>
<text text-anchor="middle" x="276" y="-7" font-family="Helvetica,sans-Serif" font-size="10.00">::forward</text>
</a>
</g>
</g>
<!-- Node1&#45;&gt;Node6 -->
<g id="edge7_Node000001_Node000006" class="edge">
<title>Node1&#45;&gt;Node6</title>
<g id="a_edge7_Node000001_Node000006"><a xlink:title=" ">
<path fill="none" stroke="#63b8ff" d="M431.52,-63.46C400.61,-53.77 357.71,-40.31 324.95,-30.04"/>
<polygon fill="#63b8ff" stroke="#63b8ff" points="430.52,-66.82 441.11,-66.47 432.62,-60.14 430.52,-66.82"/>
</a>
</g>
</g>
<!-- Node3 -->
<g id="Node000003" class="node">
<title>Node3</title>
<g id="a_Node000003"><a xlink:href="classmetrics.html#a24531660bf7917f489a6b67ceed12cdd" target="_top" xlink:title="Captures metrics from the current epoch.">
<polygon fill="white" stroke="#666666" points="128,-140.5 32,-140.5 32,-121.5 128,-121.5 128,-140.5"/>
<text text-anchor="middle" x="80" y="-128.5" font-family="Helvetica,sans-Serif" font-size="10.00">metrics::capture</text>
</a>
</g>
</g>
<!-- Node2&#45;&gt;Node3 -->
<g id="edge2_Node000002_Node000003" class="edge">
<title>Node2&#45;&gt;Node3</title>
<g id="a_edge2_Node000002_Node000003"><a xlink:title=" ">
<path fill="none" stroke="#63b8ff" d="M198.72,-131C174.95,-131 149.44,-131 128.26,-131"/>
<polygon fill="#63b8ff" stroke="#63b8ff" points="198.78,-134.5 208.78,-131 198.78,-127.5 198.78,-134.5"/>
</a>
</g>
</g>
<!-- Node4&#45;&gt;Node4 -->
<g id="edge4_Node000004_Node000004" class="edge">
<title>Node4&#45;&gt;Node4</title>
<g id="a_edge4_Node000004_Node000004"><a xlink:title=" ">
<path fill="none" stroke="#63b8ff" d="M312.75,-93.19C312.74,-98.92 300.49,-103.5 276,-103.5 241.16,-103.5 231.09,-94.23 245.79,-85.58"/>
<polygon fill="#63b8ff" stroke="#63b8ff" points="315.38,-90.88 306.21,-85.58 310.07,-95.45 315.38,-90.88"/>
</a>
</g>
</g>
<!-- Node5 -->
<g id="Node000005" class="node">
<title>Node5</title>
<g id="a_Node000005"><a xlink:href="classgrift.html#ad610edcd0cab14b57197a846ab8a8caf" target="_top" xlink:title=" ">
<polygon fill="white" stroke="#666666" points="123,-85.5 37,-85.5 37,-66.5 123,-66.5 123,-85.5"/>
<text text-anchor="middle" x="80" y="-73.5" font-family="Helvetica,sans-Serif" font-size="10.00">grift::message</text>
</a>
</g>
</g>
<!-- Node4&#45;&gt;Node5 -->
<g id="edge5_Node000004_Node000005" class="edge">
<title>Node4&#45;&gt;Node5</title>
<g id="a_edge5_Node000004_Node000005"><a xlink:title=" ">
<path fill="none" stroke="#63b8ff" d="M225.39,-70.02C193.79,-68.9 153.29,-69 123.23,-70.32"/>
<polygon fill="#63b8ff" stroke="#63b8ff" points="225.61,-73.54 235.74,-70.45 225.89,-66.54 225.61,-73.54"/>
</a>
</g>
</g>
<!-- Node5&#45;&gt;Node4 -->
<g id="edge6_Node000005_Node000004" class="edge">
<title>Node5&#45;&gt;Node4</title>
<g id="a_edge6_Node000005_Node000004"><a xlink:title=" ">
<path fill="none" stroke="#63b8ff" d="M133.37,-82.07C165.62,-83.13 206.27,-82.95 235.74,-81.55"/>
<polygon fill="#63b8ff" stroke="#63b8ff" points="133.35,-78.57 123.23,-81.68 133.09,-85.56 133.35,-78.57"/>
</a>
</g>
</g>
<!-- Node6&#45;&gt;Node6 -->
<g id="edge8_Node000006_Node000006" class="edge">
<title>Node6&#45;&gt;Node6</title>
<g id="a_edge8_Node000006_Node000006"><a xlink:title=" ">
<path fill="none" stroke="#63b8ff" d="M310.31,-40.6C305.62,-44.97 294.18,-48 276,-48 245.38,-48 233.89,-39.41 241.55,-30.28"/>
<polygon fill="#63b8ff" stroke="#63b8ff" points="313.81,-40.32 310.45,-30.28 306.81,-40.22 313.81,-40.32"/>
</a>
</g>
</g>
<!-- Node7 -->
<g id="Node000007" class="node">
<title>Node7</title>
<g id="a_Node000007"><a xlink:href="classrecursivegraphneuralnetwork.html#a7c83216c5899b14dcc03ccf368209ee1" target="_top" xlink:title=" ">
<polygon fill="white" stroke="#666666" points="160,-30 0,-30 0,0 160,0 160,-30"/>
<text text-anchor="start" x="8" y="-18" font-family="Helvetica,sans-Serif" font-size="10.00">recursivegraphneuralnetwork</text>
<text text-anchor="middle" x="80" y="-7" font-family="Helvetica,sans-Serif" font-size="10.00">::message</text>
</a>
</g>
</g>
<!-- Node6&#45;&gt;Node7 -->
<g id="edge9_Node000006_Node000007" class="edge">
<title>Node6&#45;&gt;Node7</title>
<g id="a_edge9_Node000006_Node000007"><a xlink:title=" ">
<path fill="none" stroke="#63b8ff" d="M185.56,-8.27C177.12,-8.23 168.59,-8.26 160.25,-8.35"/>
<polygon fill="#63b8ff" stroke="#63b8ff" points="185.78,-11.77 195.81,-8.35 185.84,-4.77 185.78,-11.77"/>
</a>
</g>
</g>
<!-- Node7&#45;&gt;Node6 -->
<g id="edge10_Node000007_Node000006" class="edge">
<title>Node7&#45;&gt;Node6</title>
<g id="a_edge10_Node000007_Node000006"><a xlink:title=" ">
<path fill="none" stroke="#63b8ff" d="M170.5,-21.73C178.95,-21.77 187.47,-21.74 195.81,-21.65"/>
<polygon fill="#63b8ff" stroke="#63b8ff" points="170.28,-18.23 160.25,-21.65 170.22,-25.23 170.28,-18.23"/>
</a>
</g>
</g>
</g>
</svg>
