<?xml version="1.0" encoding="UTF-8" standalone="no"?>
<!DOCTYPE svg PUBLIC "-//W3C//DTD SVG 1.1//EN"
 "http://www.w3.org/Graphics/SVG/1.1/DTD/svg11.dtd">
<!-- Generated by graphviz version 2.43.0 (0)
 -->
<!-- Title: pyc::transform::separate::Py Pages: 1 -->
<svg width="287pt" height="64pt"
 viewBox="0.00 0.00 287.00 64.00" xmlns="http://www.w3.org/2000/svg" xmlns:xlink="http://www.w3.org/1999/xlink">
<g id="graph0" class="graph" transform="scale(1 1) rotate(0) translate(4 60)">
<title>pyc::transform::separate::Py</title>
<!-- Node1 -->
<g id="Node000001" class="node">
<title>Node1</title>
<g id="a_Node000001"><a xlink:title=" ">
<polygon fill="#999999" stroke="#666666" points="155,-37 0,-37 0,-18 155,-18 155,-37"/>
<text text-anchor="middle" x="77.5" y="-25" font-family="Helvetica,sans-Serif" font-size="10.00">pyc::transform::separate::Py</text>
</a>
</g>
</g>
<!-- Node2 -->
<g id="Node000002" class="node">
<title>Node2</title>
<g id="a_Node000002"><a xlink:href="utils_8cxx.html#a123aed6d73594e07c6401a7a6c587808" target="_top" xlink:title=" ">
<polygon fill="white" stroke="#666666" points="270,-56 200,-56 200,-37 270,-37 270,-56"/>
<text text-anchor="middle" x="235" y="-44" font-family="Helvetica,sans-Serif" font-size="10.00">changedev</text>
</a>
</g>
</g>
<!-- Node1&#45;&gt;Node2 -->
<g id="edge1_Node000001_Node000002" class="edge">
<title>Node1&#45;&gt;Node2</title>
<g id="a_edge1_Node000001_Node000002"><a xlink:title=" ">
<path fill="none" stroke="#63b8ff" d="M155.34,-36.89C167.17,-38.33 179.02,-39.78 189.81,-41.1"/>
<polygon fill="#63b8ff" stroke="#63b8ff" points="189.45,-44.58 199.8,-42.32 190.3,-37.63 189.45,-44.58"/>
</a>
</g>
</g>
<!-- Node3 -->
<g id="Node000003" class="node">
<title>Node3</title>
<g id="a_Node000003"><a xlink:href="namespacetransform__.html#a51363ab29a6390a86a8ea75573a7a196" target="_top" xlink:title="Computes the y&#45;component of momentum (Py).">
<polygon fill="white" stroke="#666666" points="279,-19 191,-19 191,0 279,0 279,-19"/>
<text text-anchor="middle" x="235" y="-7" font-family="Helvetica,sans-Serif" font-size="10.00">transform_::Py</text>
</a>
</g>
</g>
<!-- Node1&#45;&gt;Node3 -->
<g id="edge2_Node000001_Node000003" class="edge">
<title>Node1&#45;&gt;Node3</title>
<g id="a_edge2_Node000001_Node000003"><a xlink:title=" ">
<path fill="none" stroke="#63b8ff" d="M155.34,-18.61C163.95,-17.61 172.57,-16.61 180.79,-15.66"/>
<polygon fill="#63b8ff" stroke="#63b8ff" points="181.41,-19.11 190.94,-14.48 180.61,-12.16 181.41,-19.11"/>
</a>
</g>
</g>
</g>
</svg>
