<?xml version="1.0" encoding="UTF-8" standalone="no"?>
<!DOCTYPE svg PUBLIC "-//W3C//DTD SVG 1.1//EN"
 "http://www.w3.org/Graphics/SVG/1.1/DTD/svg11.dtd">
<!-- Generated by graphviz version 2.43.0 (0)
 -->
<!-- Title: nusol_::NuNu Pages: 1 -->
<svg width="624pt" height="982pt"
 viewBox="0.00 0.00 624.00 982.00" xmlns="http://www.w3.org/2000/svg" xmlns:xlink="http://www.w3.org/1999/xlink">
<g id="graph0" class="graph" transform="scale(1 1) rotate(0) translate(4 978)">
<title>nusol_::NuNu</title>
<!-- Node1 -->
<g id="Node000001" class="node">
<title>Node1</title>
<g id="a_Node000001"><a xlink:title=" ">
<polygon fill="#999999" stroke="#666666" points="81,-842 0,-842 0,-823 81,-823 81,-842"/>
<text text-anchor="middle" x="40.5" y="-830" font-family="Helvetica,sans-Serif" font-size="10.00">nusol_::NuNu</text>
</a>
</g>
</g>
<!-- Node2 -->
<g id="Node000002" class="node">
<title>Node2</title>
<g id="a_Node000002"><a xlink:href="nusol_2tensor_2nusol_8cxx.html#a8bbfd6699dae11189c40dfc0035fd99c" target="_top" xlink:title=" ">
<polygon fill="white" stroke="#666666" points="201,-974 145,-974 145,-955 201,-955 201,-974"/>
<text text-anchor="middle" x="173" y="-962" font-family="Helvetica,sans-Serif" font-size="10.00">_H_perp</text>
</a>
</g>
</g>
<!-- Node1&#45;&gt;Node2 -->
<g id="edge1_Node000001_Node000002" class="edge">
<title>Node1&#45;&gt;Node2</title>
<g id="a_edge1_Node000001_Node000002"><a xlink:title=" ">
<path fill="none" stroke="#63b8ff" d="M45.2,-842.02C54.15,-863.8 79.05,-917.58 117,-946.5 122.3,-950.54 128.54,-953.69 134.88,-956.14"/>
<polygon fill="#63b8ff" stroke="#63b8ff" points="134.21,-959.61 144.8,-959.46 136.43,-952.97 134.21,-959.61"/>
</a>
</g>
</g>
<!-- Node3 -->
<g id="Node000003" class="node">
<title>Node3</title>
<g id="a_Node000003"><a xlink:href="nusol_2tensor_2nusol_8cxx.html#aa2f3034bed6ef5a865741a89972d44d8" target="_top" xlink:title=" ">
<polygon fill="white" stroke="#666666" points="193.5,-937 152.5,-937 152.5,-918 193.5,-918 193.5,-937"/>
<text text-anchor="middle" x="173" y="-925" font-family="Helvetica,sans-Serif" font-size="10.00">_met</text>
</a>
</g>
</g>
<!-- Node1&#45;&gt;Node3 -->
<g id="edge2_Node000001_Node000003" class="edge">
<title>Node1&#45;&gt;Node3</title>
<g id="a_edge2_Node000001_Node000003"><a xlink:title=" ">
<path fill="none" stroke="#63b8ff" d="M49.93,-842.35C63.04,-857.19 89.66,-885.47 117,-903.5 124.96,-908.75 134.26,-913.32 142.93,-917.01"/>
<polygon fill="#63b8ff" stroke="#63b8ff" points="141.75,-920.31 152.33,-920.81 144.37,-913.82 141.75,-920.31"/>
</a>
</g>
</g>
<!-- Node4 -->
<g id="Node000004" class="node">
<title>Node4</title>
<g id="a_Node000004"><a xlink:href="nusol_2tensor_2nusol_8cxx.html#a154959ee15ff2420eef7a772682767b7" target="_top" xlink:title=" ">
<polygon fill="white" stroke="#666666" points="187.5,-823 158.5,-823 158.5,-804 187.5,-804 187.5,-823"/>
<text text-anchor="middle" x="173" y="-811" font-family="Helvetica,sans-Serif" font-size="10.00">_N</text>
</a>
</g>
</g>
<!-- Node1&#45;&gt;Node4 -->
<g id="edge3_Node000001_Node000004" class="edge">
<title>Node1&#45;&gt;Node4</title>
<g id="a_edge3_Node000001_Node000004"><a xlink:title=" ">
<path fill="none" stroke="#63b8ff" d="M81.01,-826.75C102.96,-823.55 129.53,-819.68 148.28,-816.95"/>
<polygon fill="#63b8ff" stroke="#63b8ff" points="148.93,-820.4 158.32,-815.49 147.92,-813.47 148.93,-820.4"/>
</a>
</g>
</g>
<!-- Node6 -->
<g id="Node000006" class="node">
<title>Node6</title>
<g id="a_Node000006"><a xlink:href="nusol_2tensor_2nusol_8cxx.html#a695a1b065a09564a65159bac242c506c" target="_top" xlink:title=" ">
<polygon fill="white" stroke="#666666" points="356.5,-861 309.5,-861 309.5,-842 356.5,-842 356.5,-861"/>
<text text-anchor="middle" x="333" y="-849" font-family="Helvetica,sans-Serif" font-size="10.00">Shape</text>
</a>
</g>
</g>
<!-- Node1&#45;&gt;Node6 -->
<g id="edge46_Node000001_Node000006" class="edge">
<title>Node1&#45;&gt;Node6</title>
<g id="a_edge46_Node000001_Node000006"><a xlink:title=" ">
<path fill="none" stroke="#63b8ff" d="M81.28,-835.1C139.14,-838.89 245.45,-845.84 299.13,-849.35"/>
<polygon fill="#63b8ff" stroke="#63b8ff" points="299.24,-852.86 309.44,-850.02 299.69,-845.88 299.24,-852.86"/>
</a>
</g>
</g>
<!-- Node7 -->
<g id="Node000007" class="node">
<title>Node7</title>
<g id="a_Node000007"><a xlink:href="utils_8cxx.html#a1652e53abd2299dd0f10e093948e4fa3" target="_top" xlink:title=" ">
<polygon fill="white" stroke="#666666" points="511.5,-655 455.5,-655 455.5,-636 511.5,-636 511.5,-655"/>
<text text-anchor="middle" x="483.5" y="-643" font-family="Helvetica,sans-Serif" font-size="10.00">MakeOp</text>
</a>
</g>
</g>
<!-- Node1&#45;&gt;Node7 -->
<g id="edge34_Node000001_Node000007" class="edge">
<title>Node1&#45;&gt;Node7</title>
<g id="a_edge34_Node000001_Node000007"><a xlink:title=" ">
<path fill="none" stroke="#63b8ff" d="M59.65,-842.05C116.19,-870.34 291.81,-947.08 401,-870.5 469.36,-822.56 480.62,-711.22 482.3,-665.58"/>
<polygon fill="#63b8ff" stroke="#63b8ff" points="485.8,-665.55 482.55,-655.46 478.8,-665.37 485.8,-665.55"/>
</a>
</g>
</g>
<!-- Node8 -->
<g id="Node000008" class="node">
<title>Node8</title>
<g id="a_Node000008"><a xlink:href="namespacenusol__.html#a526c0e4a558a1201624ea0b639bc747c" target="_top" xlink:title=" ">
<polygon fill="white" stroke="#666666" points="228,-431 118,-431 118,-412 228,-412 228,-431"/>
<text text-anchor="middle" x="173" y="-419" font-family="Helvetica,sans-Serif" font-size="10.00">nusol_::BaseMatrix</text>
</a>
</g>
</g>
<!-- Node1&#45;&gt;Node8 -->
<g id="edge7_Node000001_Node000008" class="edge">
<title>Node1&#45;&gt;Node8</title>
<g id="a_edge7_Node000001_Node000008"><a xlink:title=" ">
<path fill="none" stroke="#63b8ff" d="M44.6,-822.75C61.49,-769.56 142.55,-514.25 165.77,-441.12"/>
<polygon fill="#63b8ff" stroke="#63b8ff" points="169.18,-441.94 168.87,-431.35 162.51,-439.82 169.18,-441.94"/>
</a>
</g>
</g>
<!-- Node18 -->
<g id="Node000018" class="node">
<title>Node18</title>
<g id="a_Node000018"><a xlink:href="namespacenusol__.html#a2cdd92aeb32c05137ebc7ef96c47a3da" target="_top" xlink:title=" ">
<polygon fill="white" stroke="#666666" points="229,-730 117,-730 117,-711 229,-711 229,-730"/>
<text text-anchor="middle" x="173" y="-718" font-family="Helvetica,sans-Serif" font-size="10.00">nusol_::Intersection</text>
</a>
</g>
</g>
<!-- Node1&#45;&gt;Node18 -->
<g id="edge26_Node000001_Node000018" class="edge">
<title>Node1&#45;&gt;Node18</title>
<g id="a_edge26_Node000001_Node000018"><a xlink:title=" ">
<path fill="none" stroke="#63b8ff" d="M52.63,-822.95C74.97,-803.77 125.51,-760.4 153.13,-736.7"/>
<polygon fill="#63b8ff" stroke="#63b8ff" points="155.59,-739.19 160.9,-730.02 151.03,-733.88 155.59,-739.19"/>
</a>
</g>
</g>
<!-- Node24 -->
<g id="Node000024" class="node">
<title>Node24</title>
<g id="a_Node000024"><a xlink:href="nusol_2tensor_2nusol_8cxx.html#a28531a30b80ecbd780392279d8a8adf3" target="_top" xlink:title=" ">
<polygon fill="white" stroke="#666666" points="202,-148 144,-148 144,-129 202,-129 202,-148"/>
<text text-anchor="middle" x="173" y="-136" font-family="Helvetica,sans-Serif" font-size="10.00">Rotation</text>
</a>
</g>
</g>
<!-- Node1&#45;&gt;Node24 -->
<g id="edge35_Node000001_Node000024" class="edge">
<title>Node1&#45;&gt;Node24</title>
<g id="a_edge35_Node000001_Node000024"><a xlink:title=" ">
<path fill="none" stroke="#63b8ff" d="M43.09,-822.79C50.74,-776.14 84.79,-570.35 117,-402.5 134.61,-310.72 158.2,-201.55 167.74,-157.92"/>
<polygon fill="#63b8ff" stroke="#63b8ff" points="171.17,-158.58 169.89,-148.07 164.33,-157.09 171.17,-158.58"/>
</a>
</g>
</g>
<!-- Node5 -->
<g id="Node000005" class="node">
<title>Node5</title>
<g id="a_Node000005"><a xlink:href="namespaceoperators__.html#aaf20282e41ff4961e01d222feb86bc47" target="_top" xlink:title="Computes the inverse of a matrix.">
<polygon fill="white" stroke="#666666" points="388,-824 278,-824 278,-805 388,-805 388,-824"/>
<text text-anchor="middle" x="333" y="-812" font-family="Helvetica,sans-Serif" font-size="10.00">operators_::Inverse</text>
</a>
</g>
</g>
<!-- Node4&#45;&gt;Node5 -->
<g id="edge4_Node000004_Node000005" class="edge">
<title>Node4&#45;&gt;Node5</title>
<g id="a_edge4_Node000004_Node000005"><a xlink:title=" ">
<path fill="none" stroke="#63b8ff" d="M187.75,-813.59C205.61,-813.7 238.03,-813.91 267.61,-814.09"/>
<polygon fill="#63b8ff" stroke="#63b8ff" points="267.91,-817.59 277.93,-814.16 267.95,-810.59 267.91,-817.59"/>
</a>
</g>
</g>
<!-- Node4&#45;&gt;Node6 -->
<g id="edge5_Node000004_Node000006" class="edge">
<title>Node4&#45;&gt;Node6</title>
<g id="a_edge5_Node000004_Node000006"><a xlink:title=" ">
<path fill="none" stroke="#63b8ff" d="M187.75,-816.81C212.44,-822.75 264.96,-835.38 299.34,-843.65"/>
<polygon fill="#63b8ff" stroke="#63b8ff" points="298.84,-847.13 309.38,-846.06 300.48,-840.32 298.84,-847.13"/>
</a>
</g>
</g>
<!-- Node6&#45;&gt;Node7 -->
<g id="edge6_Node000006_Node000007" class="edge">
<title>Node6&#45;&gt;Node7</title>
<g id="a_edge6_Node000006_Node000007"><a xlink:title=" ">
<path fill="none" stroke="#63b8ff" d="M356.51,-850.36C370.73,-848.55 388.69,-844.12 401,-833.5 453.23,-788.42 473.1,-703.75 479.66,-665.34"/>
<polygon fill="#63b8ff" stroke="#63b8ff" points="483.19,-665.43 481.29,-655 476.28,-664.34 483.19,-665.43"/>
</a>
</g>
</g>
<!-- Node8&#45;&gt;Node7 -->
<g id="edge21_Node000008_Node000007" class="edge">
<title>Node8&#45;&gt;Node7</title>
<g id="a_edge21_Node000008_Node000007"><a xlink:title=" ">
<path fill="none" stroke="#63b8ff" d="M182.88,-431.02C198.18,-446.87 231.12,-478.68 265,-496.5 320.65,-525.78 349.32,-499.67 401,-535.5 435.33,-559.3 460.94,-602.28 473.62,-626.88"/>
<polygon fill="#63b8ff" stroke="#63b8ff" points="470.52,-628.51 478.11,-635.9 476.79,-625.39 470.52,-628.51"/>
</a>
</g>
</g>
<!-- Node9 -->
<g id="Node000009" class="node">
<title>Node9</title>
<g id="a_Node000009"><a xlink:href="nusol_2tensor_2nusol_8cxx.html#ac73ce1484f270adbb1791bd876e80dfa" target="_top" xlink:title=" ">
<polygon fill="white" stroke="#666666" points="350,-487 316,-487 316,-468 350,-468 350,-487"/>
<text text-anchor="middle" x="333" y="-475" font-family="Helvetica,sans-Serif" font-size="10.00">_x0</text>
</a>
</g>
</g>
<!-- Node8&#45;&gt;Node9 -->
<g id="edge8_Node000008_Node000009" class="edge">
<title>Node8&#45;&gt;Node9</title>
<g id="a_edge8_Node000008_Node000009"><a xlink:title=" ">
<path fill="none" stroke="#63b8ff" d="M194.66,-431.06C212.91,-439.27 240.37,-451.09 265,-459.5 278.36,-464.06 293.53,-468.22 306.05,-471.39"/>
<polygon fill="#63b8ff" stroke="#63b8ff" points="305.3,-474.81 315.85,-473.8 306.97,-468.01 305.3,-474.81"/>
</a>
</g>
</g>
<!-- Node10 -->
<g id="Node000010" class="node">
<title>Node10</title>
<g id="a_Node000010"><a xlink:href="namespacephysics__.html#a3123f743b9c22850e7346d5f56a4441b" target="_top" xlink:title="Computes the beta factor.">
<polygon fill="white" stroke="#666666" points="527,-261 440,-261 440,-242 527,-242 527,-261"/>
<text text-anchor="middle" x="483.5" y="-249" font-family="Helvetica,sans-Serif" font-size="10.00">physics_::Beta</text>
</a>
</g>
</g>
<!-- Node8&#45;&gt;Node10 -->
<g id="edge9_Node000008_Node000010" class="edge">
<title>Node8&#45;&gt;Node10</title>
<g id="a_edge9_Node000008_Node000010"><a xlink:title=" ">
<path fill="none" stroke="#63b8ff" d="M177.28,-411.94C186.53,-386.53 215.43,-317.14 265,-285.5 314.42,-253.96 382.71,-248.01 429.51,-248.31"/>
<polygon fill="#63b8ff" stroke="#63b8ff" points="429.68,-251.81 439.74,-248.47 429.8,-244.81 429.68,-251.81"/>
</a>
</g>
</g>
<!-- Node12 -->
<g id="Node000012" class="node">
<title>Node12</title>
<g id="a_Node000012"><a xlink:href="namespacephysics__.html#aace12d6d7317cd102e5059781d724151" target="_top" xlink:title="Computes the square of the beta factor.">
<polygon fill="white" stroke="#666666" points="530,-392 437,-392 437,-373 530,-373 530,-392"/>
<text text-anchor="middle" x="483.5" y="-380" font-family="Helvetica,sans-Serif" font-size="10.00">physics_::Beta2</text>
</a>
</g>
</g>
<!-- Node8&#45;&gt;Node12 -->
<g id="edge12_Node000008_Node000012" class="edge">
<title>Node8&#45;&gt;Node12</title>
<g id="a_edge12_Node000008_Node000012"><a xlink:title=" ">
<path fill="none" stroke="#63b8ff" d="M228.09,-414.66C283.73,-407.63 369.99,-396.72 426.37,-389.6"/>
<polygon fill="#63b8ff" stroke="#63b8ff" points="427.05,-393.04 436.53,-388.31 426.17,-386.09 427.05,-393.04"/>
</a>
</g>
</g>
<!-- Node13 -->
<g id="Node000013" class="node">
<title>Node13</title>
<g id="a_Node000013"><a xlink:href="namespaceoperators__.html#af012532b8e034b7d6cb733360e14f8d7" target="_top" xlink:title="Computes the cosine of the angle between two vectors.">
<polygon fill="white" stroke="#666666" points="393,-374 273,-374 273,-355 393,-355 393,-374"/>
<text text-anchor="middle" x="333" y="-362" font-family="Helvetica,sans-Serif" font-size="10.00">operators_::CosTheta</text>
</a>
</g>
</g>
<!-- Node8&#45;&gt;Node13 -->
<g id="edge15_Node000008_Node000013" class="edge">
<title>Node8&#45;&gt;Node13</title>
<g id="a_edge15_Node000008_Node000013"><a xlink:title=" ">
<path fill="none" stroke="#63b8ff" d="M200.27,-411.94C218.44,-405.34 243.18,-396.36 265,-388.5 274.94,-384.92 285.71,-381.05 295.65,-377.49"/>
<polygon fill="#63b8ff" stroke="#63b8ff" points="297.02,-380.72 305.26,-374.05 294.66,-374.13 297.02,-380.72"/>
</a>
</g>
</g>
<!-- Node14 -->
<g id="Node000014" class="node">
<title>Node14</title>
<g id="a_Node000014"><a xlink:href="nusol_2tensor_2nusol_8cxx.html#a2df29a032d35ff73a0646b3c6f522ff1" target="_top" xlink:title=" ">
<polygon fill="white" stroke="#666666" points="368.5,-450 297.5,-450 297.5,-431 368.5,-431 368.5,-450"/>
<text text-anchor="middle" x="333" y="-438" font-family="Helvetica,sans-Serif" font-size="10.00">GetMasses</text>
</a>
</g>
</g>
<!-- Node8&#45;&gt;Node14 -->
<g id="edge16_Node000008_Node000014" class="edge">
<title>Node8&#45;&gt;Node14</title>
<g id="a_edge16_Node000008_Node000014"><a xlink:title=" ">
<path fill="none" stroke="#63b8ff" d="M228.37,-428.04C247.57,-430.35 268.91,-432.91 287.22,-435.12"/>
<polygon fill="#63b8ff" stroke="#63b8ff" points="286.98,-438.61 297.33,-436.33 287.82,-431.66 286.98,-438.61"/>
</a>
</g>
</g>
<!-- Node15 -->
<g id="Node000015" class="node">
<title>Node15</title>
<g id="a_Node000015"><a xlink:href="namespacephysics__.html#a7787594305d4a156c31be581401b0b0b" target="_top" xlink:title="Computes the square of the invariant mass.">
<polygon fill="white" stroke="#666666" points="523.5,-316 443.5,-316 443.5,-297 523.5,-297 523.5,-316"/>
<text text-anchor="middle" x="483.5" y="-304" font-family="Helvetica,sans-Serif" font-size="10.00">physics_::M2</text>
</a>
</g>
</g>
<!-- Node8&#45;&gt;Node15 -->
<g id="edge18_Node000008_Node000015" class="edge">
<title>Node8&#45;&gt;Node15</title>
<g id="a_edge18_Node000008_Node000015"><a xlink:title=" ">
<path fill="none" stroke="#63b8ff" d="M178.17,-411.84C188.72,-388.78 218.98,-330.79 265,-308.5 318.08,-282.79 387.35,-287.71 433.3,-295.45"/>
<polygon fill="#63b8ff" stroke="#63b8ff" points="432.85,-298.93 443.31,-297.24 434.08,-292.04 432.85,-298.93"/>
</a>
</g>
</g>
<!-- Node16 -->
<g id="Node000016" class="node">
<title>Node16</title>
<g id="a_Node000016"><a xlink:href="namespacephysics__.html#ac12a78b1943348345b940e510930f420" target="_top" xlink:title="Computes the momentum magnitude.">
<polygon fill="white" stroke="#666666" points="519,-206 448,-206 448,-187 519,-187 519,-206"/>
<text text-anchor="middle" x="483.5" y="-194" font-family="Helvetica,sans-Serif" font-size="10.00">physics_::P</text>
</a>
</g>
</g>
<!-- Node8&#45;&gt;Node16 -->
<g id="edge22_Node000008_Node000016" class="edge">
<title>Node8&#45;&gt;Node16</title>
<g id="a_edge22_Node000008_Node000016"><a xlink:title=" ">
<path fill="none" stroke="#63b8ff" d="M176.03,-411.64C182.75,-381.52 207.28,-290.07 265,-245.5 315.13,-206.79 390.03,-197.55 437.56,-195.91"/>
<polygon fill="#63b8ff" stroke="#63b8ff" points="437.94,-199.41 447.85,-195.67 437.77,-192.41 437.94,-199.41"/>
</a>
</g>
</g>
<!-- Node17 -->
<g id="Node000017" class="node">
<title>Node17</title>
<g id="a_Node000017"><a xlink:href="namespaceoperators__.html#a0335a4a853f7cff5faa4bc7bc68e3a8a" target="_top" xlink:title="Computes the sine of the angle between two vectors.">
<polygon fill="white" stroke="#666666" points="391.5,-563 274.5,-563 274.5,-544 391.5,-544 391.5,-563"/>
<text text-anchor="middle" x="333" y="-551" font-family="Helvetica,sans-Serif" font-size="10.00">operators_::SinTheta</text>
</a>
</g>
</g>
<!-- Node8&#45;&gt;Node17 -->
<g id="edge25_Node000008_Node000017" class="edge">
<title>Node8&#45;&gt;Node17</title>
<g id="a_edge25_Node000008_Node000017"><a xlink:title=" ">
<path fill="none" stroke="#63b8ff" d="M179.57,-431.04C192.17,-451.84 224.93,-501.66 265,-529.5 271.07,-533.72 277.96,-537.27 284.96,-540.25"/>
<polygon fill="#63b8ff" stroke="#63b8ff" points="283.91,-543.6 294.5,-543.95 286.44,-537.07 283.91,-543.6"/>
</a>
</g>
</g>
<!-- Node10&#45;&gt;Node10 -->
<g id="edge10_Node000010_Node000010" class="edge">
<title>Node10&#45;&gt;Node10</title>
<g id="a_edge10_Node000010_Node000010"><a xlink:title=" ">
<path fill="none" stroke="#63b8ff" d="M467.16,-261.08C459.21,-269.73 464.66,-279 483.5,-279 495.27,-279 501.82,-275.38 503.13,-270.55"/>
<polygon fill="#63b8ff" stroke="#63b8ff" points="506.43,-269.38 499.84,-261.08 499.81,-271.68 506.43,-269.38"/>
</a>
</g>
</g>
<!-- Node11 -->
<g id="Node000011" class="node">
<title>Node11</title>
<g id="a_Node000011"><a xlink:href="utils_8cxx.html#a9c1cdc6384bce6bdc92ca917b3f656bf" target="_top" xlink:title=" ">
<polygon fill="white" stroke="#666666" points="616,-288 566,-288 566,-269 616,-269 616,-288"/>
<text text-anchor="middle" x="591" y="-276" font-family="Helvetica,sans-Serif" font-size="10.00">format</text>
</a>
</g>
</g>
<!-- Node10&#45;&gt;Node11 -->
<g id="edge11_Node000010_Node000011" class="edge">
<title>Node10&#45;&gt;Node11</title>
<g id="a_edge11_Node000010_Node000011"><a xlink:title=" ">
<path fill="none" stroke="#63b8ff" d="M521.7,-261.02C532.96,-263.9 545.26,-267.05 556.29,-269.87"/>
<polygon fill="#63b8ff" stroke="#63b8ff" points="555.43,-273.26 565.98,-272.35 557.16,-266.48 555.43,-273.26"/>
</a>
</g>
</g>
<!-- Node12&#45;&gt;Node11 -->
<g id="edge14_Node000012_Node000011" class="edge">
<title>Node12&#45;&gt;Node11</title>
<g id="a_edge14_Node000012_Node000011"><a xlink:title=" ">
<path fill="none" stroke="#63b8ff" d="M495.99,-372.93C505.36,-365.01 518.82,-353.33 530,-342.5 545.62,-327.38 562.47,-309.22 574.33,-296.12"/>
<polygon fill="#63b8ff" stroke="#63b8ff" points="577.26,-298.1 581.34,-288.32 572.05,-293.42 577.26,-298.1"/>
</a>
</g>
</g>
<!-- Node12&#45;&gt;Node12 -->
<g id="edge13_Node000012_Node000012" class="edge">
<title>Node12&#45;&gt;Node12</title>
<g id="a_edge13_Node000012_Node000012"><a xlink:title=" ">
<path fill="none" stroke="#63b8ff" d="M467.16,-392.08C459.21,-400.73 464.66,-410 483.5,-410 495.27,-410 501.82,-406.38 503.13,-401.55"/>
<polygon fill="#63b8ff" stroke="#63b8ff" points="506.43,-400.38 499.84,-392.08 499.81,-402.68 506.43,-400.38"/>
</a>
</g>
</g>
<!-- Node14&#45;&gt;Node7 -->
<g id="edge17_Node000014_Node000007" class="edge">
<title>Node14&#45;&gt;Node7</title>
<g id="a_edge17_Node000014_Node000007"><a xlink:title=" ">
<path fill="none" stroke="#63b8ff" d="M368.51,-444.3C379.91,-447.01 391.98,-451.63 401,-459.5 452.29,-504.22 472.57,-587.25 479.44,-625.39"/>
<polygon fill="#63b8ff" stroke="#63b8ff" points="476.06,-626.41 481.16,-635.7 482.97,-625.26 476.06,-626.41"/>
</a>
</g>
</g>
<!-- Node15&#45;&gt;Node11 -->
<g id="edge19_Node000015_Node000011" class="edge">
<title>Node15&#45;&gt;Node11</title>
<g id="a_edge19_Node000015_Node000011"><a xlink:title=" ">
<path fill="none" stroke="#63b8ff" d="M520.51,-296.94C531.94,-293.91 544.53,-290.57 555.82,-287.57"/>
<polygon fill="#63b8ff" stroke="#63b8ff" points="556.99,-290.88 565.76,-284.93 555.19,-284.12 556.99,-290.88"/>
</a>
</g>
</g>
<!-- Node15&#45;&gt;Node15 -->
<g id="edge20_Node000015_Node000015" class="edge">
<title>Node15&#45;&gt;Node15</title>
<g id="a_edge20_Node000015_Node000015"><a xlink:title=" ">
<path fill="none" stroke="#63b8ff" d="M467.16,-316.08C459.21,-324.73 464.66,-334 483.5,-334 495.27,-334 501.82,-330.38 503.13,-325.55"/>
<polygon fill="#63b8ff" stroke="#63b8ff" points="506.43,-324.38 499.84,-316.08 499.81,-326.68 506.43,-324.38"/>
</a>
</g>
</g>
<!-- Node16&#45;&gt;Node11 -->
<g id="edge23_Node000016_Node000011" class="edge">
<title>Node16&#45;&gt;Node11</title>
<g id="a_edge23_Node000016_Node000011"><a xlink:title=" ">
<path fill="none" stroke="#63b8ff" d="M497.02,-206.23C514.86,-220.1 547.83,-245.73 569.34,-262.44"/>
<polygon fill="#63b8ff" stroke="#63b8ff" points="567.46,-265.41 577.5,-268.78 571.75,-259.88 567.46,-265.41"/>
</a>
</g>
</g>
<!-- Node16&#45;&gt;Node16 -->
<g id="edge24_Node000016_Node000016" class="edge">
<title>Node16&#45;&gt;Node16</title>
<g id="a_edge24_Node000016_Node000016"><a xlink:title=" ">
<path fill="none" stroke="#63b8ff" d="M467.16,-206.08C459.21,-214.73 464.66,-224 483.5,-224 495.27,-224 501.82,-220.38 503.13,-215.55"/>
<polygon fill="#63b8ff" stroke="#63b8ff" points="506.43,-214.38 499.84,-206.08 499.81,-216.68 506.43,-214.38"/>
</a>
</g>
</g>
<!-- Node18&#45;&gt;Node5 -->
<g id="edge31_Node000018_Node000005" class="edge">
<title>Node18&#45;&gt;Node5</title>
<g id="a_edge31_Node000018_Node000005"><a xlink:title=" ">
<path fill="none" stroke="#63b8ff" d="M184.17,-730.07C200.24,-744.76 232.99,-773.02 265,-790.5 272.64,-794.67 281.15,-798.36 289.47,-801.53"/>
<polygon fill="#63b8ff" stroke="#63b8ff" points="288.49,-804.89 299.08,-804.99 290.86,-798.31 288.49,-804.89"/>
</a>
</g>
</g>
<!-- Node18&#45;&gt;Node7 -->
<g id="edge32_Node000018_Node000007" class="edge">
<title>Node18&#45;&gt;Node7</title>
<g id="a_edge32_Node000018_Node000007"><a xlink:title=" ">
<path fill="none" stroke="#63b8ff" d="M191.32,-730.08C230.82,-750.55 329.65,-793.82 401,-757.5 439.41,-737.95 463.98,-690.88 475.27,-664.41"/>
<polygon fill="#63b8ff" stroke="#63b8ff" points="478.54,-665.65 479.06,-655.07 472.06,-663.01 478.54,-665.65"/>
</a>
</g>
</g>
<!-- Node19 -->
<g id="Node000019" class="node">
<title>Node19</title>
<g id="a_Node000019"><a xlink:href="namespaceoperators__.html#a3d017da3c5169dfb4e1ca5da7cae0703" target="_top" xlink:title="Computes the cofactor matrix of a given matrix.">
<polygon fill="white" stroke="#666666" points="394,-748 272,-748 272,-729 394,-729 394,-748"/>
<text text-anchor="middle" x="333" y="-736" font-family="Helvetica,sans-Serif" font-size="10.00">operators_::CoFactors</text>
</a>
</g>
</g>
<!-- Node18&#45;&gt;Node19 -->
<g id="edge27_Node000018_Node000019" class="edge">
<title>Node18&#45;&gt;Node19</title>
<g id="a_edge27_Node000018_Node000019"><a xlink:title=" ">
<path fill="none" stroke="#63b8ff" d="M229.26,-726.8C239.82,-728 251.01,-729.27 261.96,-730.52"/>
<polygon fill="#63b8ff" stroke="#63b8ff" points="261.59,-734 271.93,-731.66 262.39,-727.05 261.59,-734"/>
</a>
</g>
</g>
<!-- Node20 -->
<g id="Node000020" class="node">
<title>Node20</title>
<g id="a_Node000020"><a xlink:href="namespaceoperators__.html#a123a2d44cfea06825875800ebf21ae0d" target="_top" xlink:title="Computes the determinant of a matrix.">
<polygon fill="white" stroke="#666666" points="401,-711 265,-711 265,-692 401,-692 401,-711"/>
<text text-anchor="middle" x="333" y="-699" font-family="Helvetica,sans-Serif" font-size="10.00">operators_::Determinant</text>
</a>
</g>
</g>
<!-- Node18&#45;&gt;Node20 -->
<g id="edge28_Node000018_Node000020" class="edge">
<title>Node18&#45;&gt;Node20</title>
<g id="a_edge28_Node000018_Node000020"><a xlink:title=" ">
<path fill="none" stroke="#63b8ff" d="M229.26,-713.85C237.51,-712.86 246.14,-711.82 254.75,-710.79"/>
<polygon fill="#63b8ff" stroke="#63b8ff" points="255.3,-714.25 264.81,-709.58 254.46,-707.3 255.3,-714.25"/>
</a>
</g>
</g>
<!-- Node21 -->
<g id="Node000021" class="node">
<title>Node21</title>
<g id="a_Node000021"><a xlink:href="nusol_2tensor_2nusol_8cxx.html#aae1454f2383ba884c21b646a772061b0" target="_top" xlink:title=" ">
<polygon fill="white" stroke="#666666" points="385,-674 281,-674 281,-655 385,-655 385,-674"/>
<text text-anchor="middle" x="333" y="-662" font-family="Helvetica,sans-Serif" font-size="10.00">HorizontalVertical</text>
</a>
</g>
</g>
<!-- Node18&#45;&gt;Node21 -->
<g id="edge29_Node000018_Node000021" class="edge">
<title>Node18&#45;&gt;Node21</title>
<g id="a_edge29_Node000018_Node000021"><a xlink:title=" ">
<path fill="none" stroke="#63b8ff" d="M195.81,-710.84C214.09,-702.94 240.97,-691.76 265,-683.5 271.61,-681.23 278.64,-679.01 285.58,-676.95"/>
<polygon fill="#63b8ff" stroke="#63b8ff" points="286.98,-680.18 295.61,-674.03 285.03,-673.46 286.98,-680.18"/>
</a>
</g>
</g>
<!-- Node22 -->
<g id="Node000022" class="node">
<title>Node22</title>
<g id="a_Node000022"><a xlink:href="nusol_2tensor_2nusol_8cxx.html#acf51fdc50b75894636c847810af38706" target="_top" xlink:title=" ">
<polygon fill="white" stroke="#666666" points="370,-637 296,-637 296,-618 370,-618 370,-637"/>
<text text-anchor="middle" x="333" y="-625" font-family="Helvetica,sans-Serif" font-size="10.00">Intersecting</text>
</a>
</g>
</g>
<!-- Node18&#45;&gt;Node22 -->
<g id="edge30_Node000018_Node000022" class="edge">
<title>Node18&#45;&gt;Node22</title>
<g id="a_edge30_Node000018_Node000022"><a xlink:title=" ">
<path fill="none" stroke="#63b8ff" d="M183.15,-710.85C198.59,-695.12 231.4,-663.97 265,-646.5 271.56,-643.09 278.82,-640.22 286.06,-637.83"/>
<polygon fill="#63b8ff" stroke="#63b8ff" points="287.29,-641.12 295.85,-634.87 285.27,-634.42 287.29,-641.12"/>
</a>
</g>
</g>
<!-- Node23 -->
<g id="Node000023" class="node">
<title>Node23</title>
<g id="a_Node000023"><a xlink:href="nusol_2tensor_2nusol_8cxx.html#af09f8e81392582428eefa4b074f3f098" target="_top" xlink:title=" ">
<polygon fill="white" stroke="#666666" points="359.5,-600 306.5,-600 306.5,-581 359.5,-581 359.5,-600"/>
<text text-anchor="middle" x="333" y="-588" font-family="Helvetica,sans-Serif" font-size="10.00">Parallel</text>
</a>
</g>
</g>
<!-- Node18&#45;&gt;Node23 -->
<g id="edge33_Node000018_Node000023" class="edge">
<title>Node18&#45;&gt;Node23</title>
<g id="a_edge33_Node000018_Node000023"><a xlink:title=" ">
<path fill="none" stroke="#63b8ff" d="M179.17,-710.81C191.22,-689.2 223.32,-636.82 265,-609.5 274.35,-603.37 285.68,-599.19 296.35,-596.35"/>
<polygon fill="#63b8ff" stroke="#63b8ff" points="297.35,-599.71 306.29,-594.02 295.75,-592.9 297.35,-599.71"/>
</a>
</g>
</g>
<!-- Node25 -->
<g id="Node000025" class="node">
<title>Node25</title>
<g id="a_Node000025"><a xlink:href="namespacetransform__.html#aa90019603231f23c1e857b5f5832b587" target="_top" xlink:title="Computes the azimuthal angle (Phi) from a momentum tensor.">
<polygon fill="white" stroke="#666666" points="378.5,-56 287.5,-56 287.5,-37 378.5,-37 378.5,-56"/>
<text text-anchor="middle" x="333" y="-44" font-family="Helvetica,sans-Serif" font-size="10.00">transform_::Phi</text>
</a>
</g>
</g>
<!-- Node24&#45;&gt;Node25 -->
<g id="edge36_Node000024_Node000025" class="edge">
<title>Node24&#45;&gt;Node25</title>
<g id="a_edge36_Node000024_Node000025"><a xlink:title=" ">
<path fill="none" stroke="#63b8ff" d="M188.97,-128.91C206.87,-117.54 237.83,-98.14 265,-82.5 277.73,-75.17 292.05,-67.41 304.18,-60.98"/>
<polygon fill="#63b8ff" stroke="#63b8ff" points="306.14,-63.9 313.35,-56.14 302.88,-57.71 306.14,-63.9"/>
</a>
</g>
</g>
<!-- Node27 -->
<g id="Node000027" class="node">
<title>Node27</title>
<g id="a_Node000027"><a xlink:href="nusol_2tensor_2nusol_8cxx.html#acf38ad4d8eeaff43568c7ef70cf2b815" target="_top" xlink:title=" ">
<polygon fill="white" stroke="#666666" points="351.5,-337 314.5,-337 314.5,-318 351.5,-318 351.5,-337"/>
<text text-anchor="middle" x="333" y="-325" font-family="Helvetica,sans-Serif" font-size="10.00">Pi_2</text>
</a>
</g>
</g>
<!-- Node24&#45;&gt;Node27 -->
<g id="edge39_Node000024_Node000027" class="edge">
<title>Node24&#45;&gt;Node27</title>
<g id="a_edge39_Node000024_Node000027"><a xlink:title=" ">
<path fill="none" stroke="#63b8ff" d="M182.05,-148.13C207.19,-178.2 284.49,-270.67 317.17,-309.76"/>
<polygon fill="#63b8ff" stroke="#63b8ff" points="314.68,-312.23 323.77,-317.66 320.05,-307.74 314.68,-312.23"/>
</a>
</g>
</g>
<!-- Node28 -->
<g id="Node000028" class="node">
<title>Node28</title>
<g id="a_Node000028"><a xlink:href="namespaceoperators__.html#a7ce1f1b4f84306a157386ac5fd54ea1a" target="_top" xlink:title="Computes the rotation matrix around the X&#45;axis.">
<polygon fill="white" stroke="#666666" points="376.5,-19 289.5,-19 289.5,0 376.5,0 376.5,-19"/>
<text text-anchor="middle" x="333" y="-7" font-family="Helvetica,sans-Serif" font-size="10.00">operators_::Rx</text>
</a>
</g>
</g>
<!-- Node24&#45;&gt;Node28 -->
<g id="edge41_Node000024_Node000028" class="edge">
<title>Node24&#45;&gt;Node28</title>
<g id="a_edge41_Node000024_Node000028"><a xlink:title=" ">
<path fill="none" stroke="#63b8ff" d="M179.15,-128.77C191.14,-107.08 223.13,-54.53 265,-27.5 269.55,-24.56 274.58,-22.1 279.76,-20.04"/>
<polygon fill="#63b8ff" stroke="#63b8ff" points="280.92,-23.34 289.21,-16.74 278.61,-16.73 280.92,-23.34"/>
</a>
</g>
</g>
<!-- Node29 -->
<g id="Node000029" class="node">
<title>Node29</title>
<g id="a_Node000029"><a xlink:href="namespaceoperators__.html#a7f4dbc7ab056202b3b43d621f6c8df50" target="_top" xlink:title="Computes the rotation matrix around the Y&#45;axis.">
<polygon fill="white" stroke="#666666" points="376.5,-148 289.5,-148 289.5,-129 376.5,-129 376.5,-148"/>
<text text-anchor="middle" x="333" y="-136" font-family="Helvetica,sans-Serif" font-size="10.00">operators_::Ry</text>
</a>
</g>
</g>
<!-- Node24&#45;&gt;Node29 -->
<g id="edge42_Node000024_Node000029" class="edge">
<title>Node24&#45;&gt;Node29</title>
<g id="a_edge42_Node000024_Node000029"><a xlink:title=" ">
<path fill="none" stroke="#63b8ff" d="M202.25,-138.5C223.64,-138.5 253.64,-138.5 279.41,-138.5"/>
<polygon fill="#63b8ff" stroke="#63b8ff" points="279.42,-142 289.42,-138.5 279.42,-135 279.42,-142"/>
</a>
</g>
</g>
<!-- Node30 -->
<g id="Node000030" class="node">
<title>Node30</title>
<g id="a_Node000030"><a xlink:href="namespaceoperators__.html#a38a28124e97111d3a1f2809ce2039769" target="_top" xlink:title="Computes the rotation matrix around the Z&#45;axis.">
<polygon fill="white" stroke="#666666" points="376,-111 290,-111 290,-92 376,-92 376,-111"/>
<text text-anchor="middle" x="333" y="-99" font-family="Helvetica,sans-Serif" font-size="10.00">operators_::Rz</text>
</a>
</g>
</g>
<!-- Node24&#45;&gt;Node30 -->
<g id="edge43_Node000024_Node000030" class="edge">
<title>Node24&#45;&gt;Node30</title>
<g id="a_edge43_Node000024_Node000030"><a xlink:title=" ">
<path fill="none" stroke="#63b8ff" d="M202.25,-131.89C224.21,-126.74 255.24,-119.48 281.45,-113.34"/>
<polygon fill="#63b8ff" stroke="#63b8ff" points="282.29,-116.74 291.23,-111.05 280.69,-109.92 282.29,-116.74"/>
</a>
</g>
</g>
<!-- Node31 -->
<g id="Node000031" class="node">
<title>Node31</title>
<g id="a_Node000031"><a xlink:href="namespacephysics__.html#a6d323b672a05eb19edce0b4d818bdb7f" target="_top" xlink:title="Computes the polar angle theta.">
<polygon fill="white" stroke="#666666" points="379,-185 287,-185 287,-166 379,-166 379,-185"/>
<text text-anchor="middle" x="333" y="-173" font-family="Helvetica,sans-Serif" font-size="10.00">physics_::Theta</text>
</a>
</g>
</g>
<!-- Node24&#45;&gt;Node31 -->
<g id="edge44_Node000024_Node000031" class="edge">
<title>Node24&#45;&gt;Node31</title>
<g id="a_edge44_Node000024_Node000031"><a xlink:title=" ">
<path fill="none" stroke="#63b8ff" d="M202.25,-145.11C224.21,-150.26 255.24,-157.52 281.45,-163.66"/>
<polygon fill="#63b8ff" stroke="#63b8ff" points="280.69,-167.08 291.23,-165.95 282.29,-160.26 280.69,-167.08"/>
</a>
</g>
</g>
<!-- Node25&#45;&gt;Node25 -->
<g id="edge38_Node000025_Node000025" class="edge">
<title>Node25&#45;&gt;Node25</title>
<g id="a_edge38_Node000025_Node000025"><a xlink:title=" ">
<path fill="none" stroke="#63b8ff" d="M309.88,-56.08C298.63,-64.73 306.34,-74 333,-74 350.5,-74 359.83,-70.01 361,-64.82"/>
<polygon fill="#63b8ff" stroke="#63b8ff" points="364.05,-63.11 356.12,-56.08 357.94,-66.52 364.05,-63.11"/>
</a>
</g>
</g>
<!-- Node26 -->
<g id="Node000026" class="node">
<title>Node26</title>
<g id="a_Node000026"><a xlink:href="utils_8cxx.html#aaec9ca2d20716add3c686abd989934d0" target="_top" xlink:title=" ">
<polygon fill="white" stroke="#666666" points="500.5,-56 466.5,-56 466.5,-37 500.5,-37 500.5,-56"/>
<text text-anchor="middle" x="483.5" y="-44" font-family="Helvetica,sans-Serif" font-size="10.00">clip</text>
</a>
</g>
</g>
<!-- Node25&#45;&gt;Node26 -->
<g id="edge37_Node000025_Node000026" class="edge">
<title>Node25&#45;&gt;Node26</title>
<g id="a_edge37_Node000025_Node000026"><a xlink:title=" ">
<path fill="none" stroke="#63b8ff" d="M378.55,-46.5C403.99,-46.5 434.99,-46.5 456.48,-46.5"/>
<polygon fill="#63b8ff" stroke="#63b8ff" points="456.49,-50 466.49,-46.5 456.49,-43 456.49,-50"/>
</a>
</g>
</g>
<!-- Node27&#45;&gt;Node7 -->
<g id="edge40_Node000027_Node000007" class="edge">
<title>Node27&#45;&gt;Node7</title>
<g id="a_edge40_Node000027_Node000007"><a xlink:title=" ">
<path fill="none" stroke="#63b8ff" d="M351.77,-327.6C366.85,-328.65 388.04,-332.57 401,-345.5 441.57,-385.96 470.9,-565.66 479.73,-625.81"/>
<polygon fill="#63b8ff" stroke="#63b8ff" points="476.3,-626.48 481.18,-635.88 483.22,-625.48 476.3,-626.48"/>
</a>
</g>
</g>
<!-- Node31&#45;&gt;Node16 -->
<g id="edge45_Node000031_Node000016" class="edge">
<title>Node31&#45;&gt;Node16</title>
<g id="a_edge45_Node000031_Node000016"><a xlink:title=" ">
<path fill="none" stroke="#63b8ff" d="M379.36,-181.91C397.93,-184.54 419.35,-187.57 437.85,-190.19"/>
<polygon fill="#63b8ff" stroke="#63b8ff" points="437.39,-193.66 447.78,-191.59 438.37,-186.72 437.39,-193.66"/>
</a>
</g>
</g>
</g>
</svg>
