<?xml version="1.0" encoding="UTF-8" standalone="no"?>
<!DOCTYPE svg PUBLIC "-//W3C//DTD SVG 1.1//EN"
 "http://www.w3.org/Graphics/SVG/1.1/DTD/svg11.dtd">
<!-- Generated by graphviz version 2.43.0 (0)
 -->
<!-- Title: graph_::edge_aggregation Pages: 1 -->
<!--zoomable 390 -->

<svg id="main" version="1.1" xmlns="http://www.w3.org/2000/svg" xmlns:xlink="http://www.w3.org/1999/xlink" xml:space="preserve" onload="init(evt)">
<style type="text/css"><![CDATA[
.node, .edge {opacity: 0.7;}
.node.selected, .edge.selected {opacity: 1;}
.edge:hover path { stroke: red; }
.edge:hover polygon { stroke: red; fill: red; }
]]></style>

<defs>
  <circle id="rim" cx="0" cy="0" r="7"/>
  <circle id="rim2" cx="0" cy="0" r="3.5"/>
  <g id="zoomPlus">
    <use xlink:href="#rim" fill="#404040"><set attributeName="fill" to="#808080" begin="zoomplus.mouseover" end="zoomplus.mouseout"/></use>
    <path d="M-4,0h8M0,-4v8" fill="none" stroke="white" stroke-width="1.5" pointer-events="none"/>
  </g>
  <g id="zoomMin">
    <use xlink:href="#rim" fill="#404040"><set attributeName="fill" to="#808080" begin="zoomminus.mouseover" end="zoomminus.mouseout"/></use>
    <path d="M-4,0h8" fill="none" stroke="white" stroke-width="1.5" pointer-events="none"/>
  </g>
  <g id="arrowUp" transform="translate(30 24)">
    <use xlink:href="#rim"/>
    <path pointer-events="none" fill="none" stroke="white" stroke-width="1.5" d="M0,-3.0v7 M-2.5,-0.5L0,-3.0L2.5,-0.5"/>
  </g>
  <g id="arrowRight" transform="rotate(90) translate(36 -43)">
    <use xlink:href="#rim"/>
    <path pointer-events="none" fill="none" stroke="white" stroke-width="1.5" d="M0,-3.0v7 M-2.5,-0.5L0,-3.0L2.5,-0.5"/>
  </g>
  <g id="arrowDown" transform="rotate(180) translate(-30 -48)">
    <use xlink:href="#rim"/>
    <path pointer-events="none" fill="none" stroke="white" stroke-width="1.5" d="M0,-3.0v7 M-2.5,-0.5L0,-3.0L2.5,-0.5"/>
  </g>
  <g id="arrowLeft" transform="rotate(270) translate(-36 17)">
    <use xlink:href="#rim"/>
    <path pointer-events="none" fill="none" stroke="white" stroke-width="1.5" d="M0,-3.0v7 M-2.5,-0.5L0,-3.0L2.5,-0.5"/>
  </g>
  <g id="resetDef">
    <use xlink:href="#rim2" fill="#404040"><set attributeName="fill" to="#808080" begin="reset.mouseover" end="reset.mouseout"/></use>
  </g>
</defs>
<script type="application/ecmascript">
var viewWidth = 741;
var viewHeight = 390;
var sectionId = 'dynsection-1';
</script>
<script type="application/ecmascript" xlink:href="svg.min.js"/>
<svg id="graph" class="graph">
<g id="viewport">
<title>graph_::edge_aggregation</title>
<!-- Node1 -->
<g id="Node000001" class="node">
<title>Node1</title>
<g id="a_Node000001"><a xlink:title=" ">
<polygon fill="#999999" stroke="#666666" points="733,-187.5 590,-187.5 590,-168.5 733,-168.5 733,-187.5"/>
<text text-anchor="middle" x="661.5" y="-175.5" font-family="Helvetica,sans-Serif" font-size="10.00">graph_::edge_aggregation</text>
</a>
</g>
</g>
<!-- Node2 -->
<g id="Node000002" class="node">
<title>Node2</title>
<g id="a_Node000002"><a xlink:href="namespacepyc_1_1graph.html#aa28a4253050413ec67a3313635a699ad" target="_top" xlink:title=" ">
<polygon fill="white" stroke="#666666" points="554,-326.5 393,-326.5 393,-307.5 554,-307.5 554,-326.5"/>
<text text-anchor="middle" x="473.5" y="-314.5" font-family="Helvetica,sans-Serif" font-size="10.00">pyc::graph::edge_aggregation</text>
</a>
</g>
</g>
<!-- Node1&#45;&gt;Node2 -->
<g id="edge1_Node000001_Node000002" class="edge">
<title>Node1&#45;&gt;Node2</title>
<g id="a_edge1_Node000001_Node000002"><a xlink:title=" ">
<path fill="none" stroke="#63b8ff" d="M649.51,-196.28C632.5,-222.94 597.2,-272.12 554,-298 547.55,-301.87 540.36,-304.94 533.02,-307.4"/>
<polygon fill="#63b8ff" stroke="#63b8ff" points="652.62,-197.9 654.93,-187.56 646.68,-194.21 652.62,-197.9"/>
</a>
</g>
</g>
<!-- Node9 -->
<g id="Node000009" class="node">
<title>Node9</title>
<g id="a_Node000009"><a xlink:href="namespacepyc_1_1graph_1_1cartesian.html#a0c4efe06c06429b730d408323dcaf302" target="_top" xlink:title=" ">
<polygon fill="white" stroke="#666666" points="533,-289 414,-289 414,-259 533,-259 533,-289"/>
<text text-anchor="start" x="422" y="-277" font-family="Helvetica,sans-Serif" font-size="10.00">pyc::graph::cartesian</text>
<text text-anchor="middle" x="473.5" y="-266" font-family="Helvetica,sans-Serif" font-size="10.00">::edge_aggregation</text>
</a>
</g>
</g>
<!-- Node1&#45;&gt;Node9 -->
<g id="edge12_Node000001_Node000009" class="edge">
<title>Node1&#45;&gt;Node9</title>
<g id="a_edge12_Node000001_Node000009"><a xlink:title=" ">
<path fill="none" stroke="#63b8ff" d="M640.79,-194.01C620.21,-210.07 586.45,-234.57 554,-250 546.97,-253.34 539.37,-256.34 531.75,-259"/>
<polygon fill="#63b8ff" stroke="#63b8ff" points="643.1,-196.65 648.77,-187.7 638.75,-191.16 643.1,-196.65"/>
</a>
</g>
</g>
<!-- Node10 -->
<g id="Node000010" class="node">
<title>Node10</title>
<g id="a_Node000010"><a xlink:href="namespacepyc_1_1graph_1_1polar.html#ab00a9b5d4070afc2aac6fd639d82c46b" target="_top" xlink:title=" ">
<polygon fill="white" stroke="#666666" points="525.5,-241 421.5,-241 421.5,-211 525.5,-211 525.5,-241"/>
<text text-anchor="start" x="429.5" y="-229" font-family="Helvetica,sans-Serif" font-size="10.00">pyc::graph::polar::</text>
<text text-anchor="middle" x="473.5" y="-218" font-family="Helvetica,sans-Serif" font-size="10.00">edge_aggregation</text>
</a>
</g>
</g>
<!-- Node1&#45;&gt;Node10 -->
<g id="edge13_Node000001_Node000010" class="edge">
<title>Node1&#45;&gt;Node10</title>
<g id="a_edge13_Node000001_Node000010"><a xlink:title=" ">
<path fill="none" stroke="#63b8ff" d="M613.41,-190.15C586.65,-197.06 553.13,-205.71 525.72,-212.78"/>
<polygon fill="#63b8ff" stroke="#63b8ff" points="614.5,-193.49 623.31,-187.6 612.75,-186.71 614.5,-193.49"/>
</a>
</g>
</g>
<!-- Node11 -->
<g id="Node000011" class="node">
<title>Node11</title>
<g id="a_Node000011"><a xlink:href="namespacepyc_1_1graph_1_1polar.html#a4892c3989bd8b62a5f02688d030e92d5" target="_top" xlink:title=" ">
<polygon fill="white" stroke="#666666" points="525.5,-193 421.5,-193 421.5,-163 525.5,-163 525.5,-193"/>
<text text-anchor="start" x="429.5" y="-181" font-family="Helvetica,sans-Serif" font-size="10.00">pyc::graph::polar::</text>
<text text-anchor="middle" x="473.5" y="-170" font-family="Helvetica,sans-Serif" font-size="10.00">edge_aggregation</text>
</a>
</g>
</g>
<!-- Node1&#45;&gt;Node11 -->
<g id="edge14_Node000001_Node000011" class="edge">
<title>Node1&#45;&gt;Node11</title>
<g id="a_edge14_Node000001_Node000011"><a xlink:title=" ">
<path fill="none" stroke="#63b8ff" d="M579.79,-178C561.41,-178 542.38,-178 525.64,-178"/>
<polygon fill="#63b8ff" stroke="#63b8ff" points="579.92,-181.5 589.92,-178 579.92,-174.5 579.92,-181.5"/>
</a>
</g>
</g>
<!-- Node12 -->
<g id="Node000012" class="node">
<title>Node12</title>
<g id="a_Node000012"><a xlink:href="namespacepyc_1_1graph_1_1cartesian.html#a84c64361a1b6ab23b56915ab7f7290a0" target="_top" xlink:title=" ">
<polygon fill="white" stroke="#666666" points="533,-145 414,-145 414,-115 533,-115 533,-145"/>
<text text-anchor="start" x="422" y="-133" font-family="Helvetica,sans-Serif" font-size="10.00">pyc::graph::cartesian</text>
<text text-anchor="middle" x="473.5" y="-122" font-family="Helvetica,sans-Serif" font-size="10.00">::edge_aggregation</text>
</a>
</g>
</g>
<!-- Node1&#45;&gt;Node12 -->
<g id="edge15_Node000001_Node000012" class="edge">
<title>Node1&#45;&gt;Node12</title>
<g id="a_edge15_Node000001_Node000012"><a xlink:title=" ">
<path fill="none" stroke="#63b8ff" d="M613.53,-165.88C589.04,-159.56 558.85,-151.77 532.87,-145.06"/>
<polygon fill="#63b8ff" stroke="#63b8ff" points="612.75,-169.29 623.31,-168.4 614.5,-162.51 612.75,-169.29"/>
</a>
</g>
</g>
<!-- Node13 -->
<g id="Node000013" class="node">
<title>Node13</title>
<g id="a_Node000013"><a xlink:href="namespacegraph__.html#af76bc3bdcf60cb8a46bdd978e5097376" target="_top" xlink:title=" ">
<polygon fill="white" stroke="#666666" points="545,-96.5 402,-96.5 402,-77.5 545,-77.5 545,-96.5"/>
<text text-anchor="middle" x="473.5" y="-84.5" font-family="Helvetica,sans-Serif" font-size="10.00">graph_::node_aggregation</text>
</a>
</g>
</g>
<!-- Node1&#45;&gt;Node13 -->
<g id="edge16_Node000001_Node000013" class="edge">
<title>Node1&#45;&gt;Node13</title>
<g id="a_edge16_Node000001_Node000013"><a xlink:title=" ">
<path fill="none" stroke="#63b8ff" d="M641.31,-161.86C620.9,-145.49 587.07,-120.55 554,-106 545.3,-102.17 535.7,-99.04 526.28,-96.52"/>
<polygon fill="#63b8ff" stroke="#63b8ff" points="639.23,-164.68 649.19,-168.29 643.66,-159.26 639.23,-164.68"/>
</a>
</g>
</g>
<!-- Node18 -->
<g id="Node000018" class="node">
<title>Node18</title>
<g id="a_Node000018"><a xlink:href="namespacepyc_1_1graph_1_1polar.html#a4b8251423b7ede00df4fbda3ab664485" target="_top" xlink:title=" ">
<polygon fill="white" stroke="#666666" points="525.5,-59 421.5,-59 421.5,-29 525.5,-29 525.5,-59"/>
<text text-anchor="start" x="429.5" y="-47" font-family="Helvetica,sans-Serif" font-size="10.00">pyc::graph::polar::</text>
<text text-anchor="middle" x="473.5" y="-36" font-family="Helvetica,sans-Serif" font-size="10.00">node_aggregation</text>
</a>
</g>
</g>
<!-- Node1&#45;&gt;Node18 -->
<g id="edge21_Node000001_Node000018" class="edge">
<title>Node1&#45;&gt;Node18</title>
<g id="a_edge21_Node000001_Node000018"><a xlink:title=" ">
<path fill="none" stroke="#63b8ff" d="M647.57,-160.05C629.32,-135.97 593.78,-93.43 554,-69 545.37,-63.7 535.52,-59.43 525.75,-56.02"/>
<polygon fill="#63b8ff" stroke="#63b8ff" points="644.91,-162.35 653.68,-168.29 650.54,-158.18 644.91,-162.35"/>
</a>
</g>
</g>
<!-- Node3 -->
<g id="Node000003" class="node">
<title>Node3</title>
<g id="a_Node000003"><a xlink:href="classmetrics.html#adb34703cb499689522741aa2ceed61e3" target="_top" xlink:title=" ">
<polygon fill="white" stroke="#666666" points="343.5,-381.5 209.5,-381.5 209.5,-362.5 343.5,-362.5 343.5,-381.5"/>
<text text-anchor="middle" x="276.5" y="-369.5" font-family="Helvetica,sans-Serif" font-size="10.00">metrics::add_th1f_mass</text>
</a>
</g>
</g>
<!-- Node2&#45;&gt;Node3 -->
<g id="edge2_Node000002_Node000003" class="edge">
<title>Node2&#45;&gt;Node3</title>
<g id="a_edge2_Node000002_Node000003"><a xlink:title=" ">
<path fill="none" stroke="#63b8ff" d="M435.64,-329.72C413.08,-337.27 383.54,-346.76 357,-354 345.94,-357.02 333.92,-359.93 322.66,-362.5"/>
<polygon fill="#63b8ff" stroke="#63b8ff" points="436.81,-333.01 445.16,-326.5 434.57,-326.38 436.81,-333.01"/>
</a>
</g>
</g>
<!-- Node5 -->
<g id="Node000005" class="node">
<title>Node5</title>
<g id="a_Node000005"><a xlink:href="classgrift.html#a72f7575fbd1d744d4f9053e5b8b7ee38" target="_top" xlink:title="Virtual forward pass method for a single graph.">
<polygon fill="white" stroke="#666666" points="316.5,-326.5 236.5,-326.5 236.5,-307.5 316.5,-307.5 316.5,-326.5"/>
<text text-anchor="middle" x="276.5" y="-314.5" font-family="Helvetica,sans-Serif" font-size="10.00">grift::forward</text>
</a>
</g>
</g>
<!-- Node2&#45;&gt;Node5 -->
<g id="edge4_Node000002_Node000005" class="edge">
<title>Node2&#45;&gt;Node5</title>
<g id="a_edge4_Node000002_Node000005"><a xlink:title=" ">
<path fill="none" stroke="#63b8ff" d="M382.65,-317C359.43,-317 335.62,-317 316.55,-317"/>
<polygon fill="#63b8ff" stroke="#63b8ff" points="382.9,-320.5 392.9,-317 382.9,-313.5 382.9,-320.5"/>
</a>
</g>
</g>
<!-- Node7 -->
<g id="Node000007" class="node">
<title>Node7</title>
<g id="a_Node000007"><a xlink:href="classrecursivegraphneuralnetwork.html#a4b09bc8de8d9ecd0b4ff1ffa94deea98" target="_top" xlink:title="Virtual forward pass method for a single graph.">
<polygon fill="white" stroke="#666666" points="356.5,-271 196.5,-271 196.5,-241 356.5,-241 356.5,-271"/>
<text text-anchor="start" x="204.5" y="-259" font-family="Helvetica,sans-Serif" font-size="10.00">recursivegraphneuralnetwork</text>
<text text-anchor="middle" x="276.5" y="-248" font-family="Helvetica,sans-Serif" font-size="10.00">::forward</text>
</a>
</g>
</g>
<!-- Node2&#45;&gt;Node7 -->
<g id="edge8_Node000002_Node000007" class="edge">
<title>Node2&#45;&gt;Node7</title>
<g id="a_edge8_Node000002_Node000007"><a xlink:title=" ">
<path fill="none" stroke="#63b8ff" d="M418.55,-304.99C409.96,-302.82 401.21,-300.46 393,-298 366.74,-290.12 337.74,-279.56 315.37,-271.01"/>
<polygon fill="#63b8ff" stroke="#63b8ff" points="417.98,-308.45 428.52,-307.44 419.65,-301.65 417.98,-308.45"/>
</a>
</g>
</g>
<!-- Node4 -->
<g id="Node000004" class="node">
<title>Node4</title>
<g id="a_Node000004"><a xlink:href="classmetrics.html#a24531660bf7917f489a6b67ceed12cdd" target="_top" xlink:title="Captures metrics from the current epoch.">
<polygon fill="white" stroke="#666666" points="128,-381.5 32,-381.5 32,-362.5 128,-362.5 128,-381.5"/>
<text text-anchor="middle" x="80" y="-369.5" font-family="Helvetica,sans-Serif" font-size="10.00">metrics::capture</text>
</a>
</g>
</g>
<!-- Node3&#45;&gt;Node4 -->
<g id="edge3_Node000003_Node000004" class="edge">
<title>Node3&#45;&gt;Node4</title>
<g id="a_edge3_Node000003_Node000004"><a xlink:title=" ">
<path fill="none" stroke="#63b8ff" d="M199.24,-372C175.28,-372 149.54,-372 128.22,-372"/>
<polygon fill="#63b8ff" stroke="#63b8ff" points="199.38,-375.5 209.38,-372 199.38,-368.5 199.38,-375.5"/>
</a>
</g>
</g>
<!-- Node5&#45;&gt;Node5 -->
<g id="edge5_Node000005_Node000005" class="edge">
<title>Node5&#45;&gt;Node5</title>
<g id="a_edge5_Node000005_Node000005"><a xlink:title=" ">
<path fill="none" stroke="#63b8ff" d="M313.25,-334.19C313.24,-339.92 300.99,-344.5 276.5,-344.5 241.66,-344.5 231.59,-335.23 246.29,-326.58"/>
<polygon fill="#63b8ff" stroke="#63b8ff" points="315.88,-331.88 306.71,-326.58 310.57,-336.45 315.88,-331.88"/>
</a>
</g>
</g>
<!-- Node6 -->
<g id="Node000006" class="node">
<title>Node6</title>
<g id="a_Node000006"><a xlink:href="classgrift.html#ad610edcd0cab14b57197a846ab8a8caf" target="_top" xlink:title=" ">
<polygon fill="white" stroke="#666666" points="123,-326.5 37,-326.5 37,-307.5 123,-307.5 123,-326.5"/>
<text text-anchor="middle" x="80" y="-314.5" font-family="Helvetica,sans-Serif" font-size="10.00">grift::message</text>
</a>
</g>
</g>
<!-- Node5&#45;&gt;Node6 -->
<g id="edge6_Node000005_Node000006" class="edge">
<title>Node5&#45;&gt;Node6</title>
<g id="a_edge6_Node000005_Node000006"><a xlink:title=" ">
<path fill="none" stroke="#63b8ff" d="M225.76,-311.02C194.08,-309.9 153.47,-310 123.33,-311.32"/>
<polygon fill="#63b8ff" stroke="#63b8ff" points="226,-314.54 236.14,-311.45 226.29,-307.54 226,-314.54"/>
</a>
</g>
</g>
<!-- Node6&#45;&gt;Node5 -->
<g id="edge7_Node000006_Node000005" class="edge">
<title>Node6&#45;&gt;Node5</title>
<g id="a_edge7_Node000006_Node000005"><a xlink:title=" ">
<path fill="none" stroke="#63b8ff" d="M133.51,-323.07C165.83,-324.13 206.59,-323.95 236.14,-322.55"/>
<polygon fill="#63b8ff" stroke="#63b8ff" points="133.46,-319.57 123.33,-322.68 133.19,-326.56 133.46,-319.57"/>
</a>
</g>
</g>
<!-- Node7&#45;&gt;Node7 -->
<g id="edge9_Node000007_Node000007" class="edge">
<title>Node7&#45;&gt;Node7</title>
<g id="a_edge9_Node000007_Node000007"><a xlink:title=" ">
<path fill="none" stroke="#63b8ff" d="M310.81,-281.6C306.12,-285.97 294.68,-289 276.5,-289 245.88,-289 234.39,-280.41 242.05,-271.28"/>
<polygon fill="#63b8ff" stroke="#63b8ff" points="314.31,-281.32 310.95,-271.28 307.31,-281.22 314.31,-281.32"/>
</a>
</g>
</g>
<!-- Node8 -->
<g id="Node000008" class="node">
<title>Node8</title>
<g id="a_Node000008"><a xlink:href="classrecursivegraphneuralnetwork.html#a7c83216c5899b14dcc03ccf368209ee1" target="_top" xlink:title=" ">
<polygon fill="white" stroke="#666666" points="160,-271 0,-271 0,-241 160,-241 160,-271"/>
<text text-anchor="start" x="8" y="-259" font-family="Helvetica,sans-Serif" font-size="10.00">recursivegraphneuralnetwork</text>
<text text-anchor="middle" x="80" y="-248" font-family="Helvetica,sans-Serif" font-size="10.00">::message</text>
</a>
</g>
</g>
<!-- Node7&#45;&gt;Node8 -->
<g id="edge10_Node000007_Node000008" class="edge">
<title>Node7&#45;&gt;Node8</title>
<g id="a_edge10_Node000007_Node000008"><a xlink:title=" ">
<path fill="none" stroke="#63b8ff" d="M186.2,-249.27C177.47,-249.23 168.66,-249.25 160.04,-249.36"/>
<polygon fill="#63b8ff" stroke="#63b8ff" points="186.36,-252.77 196.39,-249.36 186.42,-245.77 186.36,-252.77"/>
</a>
</g>
</g>
<!-- Node8&#45;&gt;Node7 -->
<g id="edge11_Node000008_Node000007" class="edge">
<title>Node8&#45;&gt;Node7</title>
<g id="a_edge11_Node000008_Node000007"><a xlink:title=" ">
<path fill="none" stroke="#63b8ff" d="M170.23,-262.73C178.96,-262.77 187.77,-262.75 196.39,-262.64"/>
<polygon fill="#63b8ff" stroke="#63b8ff" points="170.07,-259.23 160.04,-262.64 170.01,-266.23 170.07,-259.23"/>
</a>
</g>
</g>
<!-- Node14 -->
<g id="Node000014" class="node">
<title>Node14</title>
<g id="a_Node000014"><a xlink:href="namespacepyc_1_1graph.html#a122f7af31a0d3d53790f3389ffef5073" target="_top" xlink:title=" ">
<polygon fill="white" stroke="#666666" points="357,-163.5 196,-163.5 196,-144.5 357,-144.5 357,-163.5"/>
<text text-anchor="middle" x="276.5" y="-151.5" font-family="Helvetica,sans-Serif" font-size="10.00">pyc::graph::node_aggregation</text>
</a>
</g>
</g>
<!-- Node13&#45;&gt;Node14 -->
<g id="edge17_Node000013_Node000014" class="edge">
<title>Node13&#45;&gt;Node14</title>
<g id="a_edge17_Node000013_Node000014"><a xlink:title=" ">
<path fill="none" stroke="#63b8ff" d="M408.58,-99.59C403.2,-101.45 397.94,-103.58 393,-106 374.56,-115.05 375.44,-125.95 357,-135 349.1,-138.88 340.37,-141.99 331.66,-144.48"/>
<polygon fill="#63b8ff" stroke="#63b8ff" points="409.85,-102.86 418.34,-96.52 407.75,-96.18 409.85,-102.86"/>
</a>
</g>
</g>
<!-- Node15 -->
<g id="Node000015" class="node">
<title>Node15</title>
<g id="a_Node000015"><a xlink:href="namespacepyc_1_1graph_1_1cartesian.html#a876b2614216840138fb428e66f4938b8" target="_top" xlink:title=" ">
<polygon fill="white" stroke="#666666" points="336,-126 217,-126 217,-96 336,-96 336,-126"/>
<text text-anchor="start" x="225" y="-114" font-family="Helvetica,sans-Serif" font-size="10.00">pyc::graph::cartesian</text>
<text text-anchor="middle" x="276.5" y="-103" font-family="Helvetica,sans-Serif" font-size="10.00">::node_aggregation</text>
</a>
</g>
</g>
<!-- Node13&#45;&gt;Node15 -->
<g id="edge18_Node000013_Node000015" class="edge">
<title>Node13&#45;&gt;Node15</title>
<g id="a_edge18_Node000013_Node000015"><a xlink:title=" ">
<path fill="none" stroke="#63b8ff" d="M391.85,-96.93C373.15,-99.23 353.61,-101.63 336.08,-103.79"/>
<polygon fill="#63b8ff" stroke="#63b8ff" points="392.33,-100.39 401.82,-95.7 391.47,-93.45 392.33,-100.39"/>
</a>
</g>
</g>
<!-- Node16 -->
<g id="Node000016" class="node">
<title>Node16</title>
<g id="a_Node000016"><a xlink:href="namespacepyc_1_1graph_1_1polar.html#a2214179747b4d328f815a532e6d4fdcf" target="_top" xlink:title=" ">
<polygon fill="white" stroke="#666666" points="328.5,-78 224.5,-78 224.5,-48 328.5,-48 328.5,-78"/>
<text text-anchor="start" x="232.5" y="-66" font-family="Helvetica,sans-Serif" font-size="10.00">pyc::graph::polar::</text>
<text text-anchor="middle" x="276.5" y="-55" font-family="Helvetica,sans-Serif" font-size="10.00">node_aggregation</text>
</a>
</g>
</g>
<!-- Node13&#45;&gt;Node16 -->
<g id="edge19_Node000013_Node000016" class="edge">
<title>Node13&#45;&gt;Node16</title>
<g id="a_edge19_Node000013_Node000016"><a xlink:title=" ">
<path fill="none" stroke="#63b8ff" d="M391.78,-77.07C370.44,-74.44 347.98,-71.67 328.69,-69.3"/>
<polygon fill="#63b8ff" stroke="#63b8ff" points="391.47,-80.55 401.82,-78.3 392.33,-73.61 391.47,-80.55"/>
</a>
</g>
</g>
<!-- Node17 -->
<g id="Node000017" class="node">
<title>Node17</title>
<g id="a_Node000017"><a xlink:href="namespacepyc_1_1graph_1_1cartesian.html#a6a2ffe369ee9d484a004f40351db4215" target="_top" xlink:title=" ">
<polygon fill="white" stroke="#666666" points="336,-30 217,-30 217,0 336,0 336,-30"/>
<text text-anchor="start" x="225" y="-18" font-family="Helvetica,sans-Serif" font-size="10.00">pyc::graph::cartesian</text>
<text text-anchor="middle" x="276.5" y="-7" font-family="Helvetica,sans-Serif" font-size="10.00">::node_aggregation</text>
</a>
</g>
</g>
<!-- Node13&#45;&gt;Node17 -->
<g id="edge20_Node000013_Node000017" class="edge">
<title>Node13&#45;&gt;Node17</title>
<g id="a_edge20_Node000013_Node000017"><a xlink:title=" ">
<path fill="none" stroke="#63b8ff" d="M408.58,-74.41C403.2,-72.55 397.94,-70.42 393,-68 374.56,-58.95 375.17,-48.59 357,-39 350.5,-35.57 343.43,-32.55 336.28,-29.92"/>
<polygon fill="#63b8ff" stroke="#63b8ff" points="407.75,-77.82 418.34,-77.48 409.85,-71.14 407.75,-77.82"/>
</a>
</g>
</g>
</g>
</svg>

<g id="navigator" transform="translate(0 0)" fill="#404254">
  <rect fill="#f2f5e9" fill-opacity="0.5" stroke="#606060" stroke-width=".5" x="0" y="0" width="60" height="60"/>
  <use id="zoomplus" xlink:href="#zoomPlus" x="17" y="9" onmousedown="handleZoom(evt,'in')"/>
  <use id="zoomminus" xlink:href="#zoomMin" x="42" y="9" onmousedown="handleZoom(evt,'out')"/>
  <use id="reset" xlink:href="#resetDef" x="30" y="36" onmousedown="handleReset()"/>
   <use id="arrowup" xlink:href="#arrowUp" x="0" y="0" onmousedown="handlePan(0,-1)"/>
  <use id="arrowright" xlink:href="#arrowRight" x="0" y="0" onmousedown="handlePan(1,0)"/>
  <use id="arrowdown" xlink:href="#arrowDown" x="0" y="0" onmousedown="handlePan(0,1)"/>
  <use id="arrowleft" xlink:href="#arrowLeft" x="0" y="0" onmousedown="handlePan(-1,0)"/>
</g>
<svg viewBox="0 0 15 15" width="100%" height="30px" preserveAspectRatio="xMaxYMin meet">
 <g id="arrow_out" transform="scale(0.3 0.3)">
  <a xlink:href="namespacegraph___a7249186f32a05a8ff1601bff5deabdef_icgraph_org.svg" target="_base">
   <rect id="button" ry="5" rx="5" y="6" x="6" height="38" width="38"
        fill="#f2f5e9" fill-opacity="0.5" stroke="#606060" stroke-width="1.0"/>
   <path id="arrow"
     d="M 11.500037,31.436501 C 11.940474,20.09759 22.043105,11.32322 32.158766,21.979434 L 37.068811,17.246167 C 37.068811,17.246167 37.088388,32 37.088388,32 L 22.160133,31.978069 C 22.160133,31.978069 26.997745,27.140456 26.997745,27.140456 C 18.528582,18.264221 13.291696,25.230495 11.500037,31.436501 z"
     style="fill:#404040;"/>
  </a>
 </g>
</svg>

<style type='text/css'>
<![CDATA[
[data-mouse-over-selected='false'] { opacity: 0.7; }
[data-mouse-over-selected='true']  { opacity: 1.0; }
]]>
</style>
<script type="application/ecmascript"><![CDATA[
document.addEventListener('DOMContentLoaded', (event) => {
  highlightEdges();
  highlightAdjacentNodes();
});
]]></script>
</svg>
