<?xml version="1.0" encoding="UTF-8" standalone="no"?>
<!DOCTYPE svg PUBLIC "-//W3C//DTD SVG 1.1//EN"
 "http://www.w3.org/Graphics/SVG/1.1/DTD/svg11.dtd">
<!-- Generated by graphviz version 2.43.0 (0)
 -->
<!-- Title: pyc::graph::polar::node_aggregation Pages: 1 -->
<svg width="594pt" height="161pt"
 viewBox="0.00 0.00 594.00 161.00" xmlns="http://www.w3.org/2000/svg" xmlns:xlink="http://www.w3.org/1999/xlink">
<g id="graph0" class="graph" transform="scale(1 1) rotate(0) translate(4 157)">
<title>pyc::graph::polar::node_aggregation</title>
<!-- Node1 -->
<g id="Node000001" class="node">
<title>Node1</title>
<g id="a_Node000001"><a xlink:title=" ">
<polygon fill="#999999" stroke="#666666" points="104,-102.5 0,-102.5 0,-72.5 104,-72.5 104,-102.5"/>
<text text-anchor="start" x="8" y="-90.5" font-family="Helvetica,sans-Serif" font-size="10.00">pyc::graph::polar::</text>
<text text-anchor="middle" x="52" y="-79.5" font-family="Helvetica,sans-Serif" font-size="10.00">node_aggregation</text>
</a>
</g>
</g>
<!-- Node2 -->
<g id="Node000002" class="node">
<title>Node2</title>
<g id="a_Node000002"><a xlink:href="utils_8cxx.html#a123aed6d73594e07c6401a7a6c587808" target="_top" xlink:title=" ">
<polygon fill="white" stroke="#666666" points="246.5,-153 176.5,-153 176.5,-134 246.5,-134 246.5,-153"/>
<text text-anchor="middle" x="211.5" y="-141" font-family="Helvetica,sans-Serif" font-size="10.00">changedev</text>
</a>
</g>
</g>
<!-- Node1&#45;&gt;Node2 -->
<g id="edge1_Node000001_Node000002" class="edge">
<title>Node1&#45;&gt;Node2</title>
<g id="a_edge1_Node000001_Node000002"><a xlink:title=" ">
<path fill="none" stroke="#63b8ff" d="M84.33,-102.65C100.67,-110.18 121.14,-119.02 140,-125.5 148.51,-128.42 157.74,-131.11 166.63,-133.47"/>
<polygon fill="#63b8ff" stroke="#63b8ff" points="165.91,-136.9 176.46,-135.99 167.64,-130.12 165.91,-136.9"/>
</a>
</g>
</g>
<!-- Node3 -->
<g id="Node000003" class="node">
<title>Node3</title>
<g id="a_Node000003"><a xlink:href="namespacegraph__.html#af76bc3bdcf60cb8a46bdd978e5097376" target="_top" xlink:title=" ">
<polygon fill="white" stroke="#666666" points="283,-116 140,-116 140,-97 283,-97 283,-116"/>
<text text-anchor="middle" x="211.5" y="-104" font-family="Helvetica,sans-Serif" font-size="10.00">graph_::node_aggregation</text>
</a>
</g>
</g>
<!-- Node1&#45;&gt;Node3 -->
<g id="edge2_Node000001_Node000003" class="edge">
<title>Node1&#45;&gt;Node3</title>
<g id="a_edge2_Node000001_Node000003"><a xlink:title=" ">
<path fill="none" stroke="#63b8ff" d="M104.14,-93.67C112.33,-94.66 120.99,-95.7 129.68,-96.75"/>
<polygon fill="#63b8ff" stroke="#63b8ff" points="129.53,-100.26 139.87,-97.98 130.36,-93.31 129.53,-100.26"/>
</a>
</g>
</g>
<!-- Node6 -->
<g id="Node000006" class="node">
<title>Node6</title>
<g id="a_Node000006"><a xlink:href="namespacetransform__.html#a87dc88421ea78ec3b9c73c86cc5ade19" target="_top" xlink:title="Computes the 4&#45;momentum (Px, Py, Pz, E).">
<polygon fill="white" stroke="#666666" points="270,-79 153,-79 153,-60 270,-60 270,-79"/>
<text text-anchor="middle" x="211.5" y="-67" font-family="Helvetica,sans-Serif" font-size="10.00">transform_::PxPyPzE</text>
</a>
</g>
</g>
<!-- Node1&#45;&gt;Node6 -->
<g id="edge5_Node000001_Node000006" class="edge">
<title>Node1&#45;&gt;Node6</title>
<g id="a_edge5_Node000001_Node000006"><a xlink:title=" ">
<path fill="none" stroke="#63b8ff" d="M104.14,-81.66C116.4,-80.25 129.68,-78.74 142.57,-77.26"/>
<polygon fill="#63b8ff" stroke="#63b8ff" points="143.26,-80.71 152.8,-76.09 142.46,-73.75 143.26,-80.71"/>
</a>
</g>
</g>
<!-- Node11 -->
<g id="Node000011" class="node">
<title>Node11</title>
<g id="a_Node000011"><a xlink:href="namespacepyc.html#ab174cc51f6efef06bdb0ba47ec3fe3bf" target="_top" xlink:title=" ">
<polygon fill="white" stroke="#666666" points="258,-42 165,-42 165,-23 258,-23 258,-42"/>
<text text-anchor="middle" x="211.5" y="-30" font-family="Helvetica,sans-Serif" font-size="10.00">pyc::std_to_dict</text>
</a>
</g>
</g>
<!-- Node1&#45;&gt;Node11 -->
<g id="edge10_Node000001_Node000011" class="edge">
<title>Node1&#45;&gt;Node11</title>
<g id="a_edge10_Node000001_Node000011"><a xlink:title=" ">
<path fill="none" stroke="#63b8ff" d="M86.49,-72.45C102.5,-65.57 122.05,-57.6 140,-51.5 146.93,-49.14 154.32,-46.88 161.61,-44.8"/>
<polygon fill="#63b8ff" stroke="#63b8ff" points="162.75,-48.11 171.44,-42.06 160.87,-41.37 162.75,-48.11"/>
</a>
</g>
</g>
<!-- Node4 -->
<g id="Node000004" class="node">
<title>Node4</title>
<g id="a_Node000004"><a xlink:href="namespacegraph__.html#a7249186f32a05a8ff1601bff5deabdef" target="_top" xlink:title=" ">
<polygon fill="white" stroke="#666666" points="462,-120 319,-120 319,-101 462,-101 462,-120"/>
<text text-anchor="middle" x="390.5" y="-108" font-family="Helvetica,sans-Serif" font-size="10.00">graph_::edge_aggregation</text>
</a>
</g>
</g>
<!-- Node3&#45;&gt;Node4 -->
<g id="edge3_Node000003_Node000004" class="edge">
<title>Node3&#45;&gt;Node4</title>
<g id="a_edge3_Node000003_Node000004"><a xlink:title=" ">
<path fill="none" stroke="#63b8ff" d="M283.22,-108.1C291.57,-108.29 300.14,-108.48 308.62,-108.67"/>
<polygon fill="#63b8ff" stroke="#63b8ff" points="308.82,-112.18 318.89,-108.9 308.98,-105.18 308.82,-112.18"/>
</a>
</g>
</g>
<!-- Node5 -->
<g id="Node000005" class="node">
<title>Node5</title>
<g id="a_Node000005"><a xlink:href="utils_8cxx.html#a1652e53abd2299dd0f10e093948e4fa3" target="_top" xlink:title=" ">
<polygon fill="white" stroke="#666666" points="570,-130 514,-130 514,-111 570,-111 570,-130"/>
<text text-anchor="middle" x="542" y="-118" font-family="Helvetica,sans-Serif" font-size="10.00">MakeOp</text>
</a>
</g>
</g>
<!-- Node4&#45;&gt;Node5 -->
<g id="edge4_Node000004_Node000005" class="edge">
<title>Node4&#45;&gt;Node5</title>
<g id="a_edge4_Node000004_Node000005"><a xlink:title=" ">
<path fill="none" stroke="#63b8ff" d="M462.31,-115.24C476.58,-116.19 491.04,-117.16 503.6,-118"/>
<polygon fill="#63b8ff" stroke="#63b8ff" points="503.46,-121.5 513.67,-118.67 503.92,-114.51 503.46,-121.5"/>
</a>
</g>
</g>
<!-- Node7 -->
<g id="Node000007" class="node">
<title>Node7</title>
<g id="a_Node000007"><a xlink:href="namespacetransform__.html#aa38819d479d31edd3f79b4f8e96ef8be" target="_top" xlink:title="Computes the 3&#45;momentum (Px, Py, Pz).">
<polygon fill="white" stroke="#666666" points="446,-74 335,-74 335,-55 446,-55 446,-74"/>
<text text-anchor="middle" x="390.5" y="-62" font-family="Helvetica,sans-Serif" font-size="10.00">transform_::PxPyPz</text>
</a>
</g>
</g>
<!-- Node6&#45;&gt;Node7 -->
<g id="edge6_Node000006_Node000007" class="edge">
<title>Node6&#45;&gt;Node7</title>
<g id="a_edge6_Node000006_Node000007"><a xlink:title=" ">
<path fill="none" stroke="#63b8ff" d="M270.46,-67.86C287.73,-67.37 306.78,-66.84 324.48,-66.34"/>
<polygon fill="#63b8ff" stroke="#63b8ff" points="324.82,-69.83 334.72,-66.05 324.62,-62.83 324.82,-69.83"/>
</a>
</g>
</g>
<!-- Node8 -->
<g id="Node000008" class="node">
<title>Node8</title>
<g id="a_Node000008"><a xlink:href="namespacetransform__.html#a4573dda96168ebbd38a408e64cc3d5ff" target="_top" xlink:title="Computes the x&#45;component of momentum (Px).">
<polygon fill="white" stroke="#666666" points="586,-93 498,-93 498,-74 586,-74 586,-93"/>
<text text-anchor="middle" x="542" y="-81" font-family="Helvetica,sans-Serif" font-size="10.00">transform_::Px</text>
</a>
</g>
</g>
<!-- Node7&#45;&gt;Node8 -->
<g id="edge7_Node000007_Node000008" class="edge">
<title>Node7&#45;&gt;Node8</title>
<g id="a_edge7_Node000007_Node000008"><a xlink:title=" ">
<path fill="none" stroke="#63b8ff" d="M446.32,-71.47C459.87,-73.19 474.36,-75.03 487.82,-76.74"/>
<polygon fill="#63b8ff" stroke="#63b8ff" points="487.53,-80.23 497.89,-78.02 488.41,-73.29 487.53,-80.23"/>
</a>
</g>
</g>
<!-- Node9 -->
<g id="Node000009" class="node">
<title>Node9</title>
<g id="a_Node000009"><a xlink:href="namespacetransform__.html#a51363ab29a6390a86a8ea75573a7a196" target="_top" xlink:title="Computes the y&#45;component of momentum (Py).">
<polygon fill="white" stroke="#666666" points="586,-56 498,-56 498,-37 586,-37 586,-56"/>
<text text-anchor="middle" x="542" y="-44" font-family="Helvetica,sans-Serif" font-size="10.00">transform_::Py</text>
</a>
</g>
</g>
<!-- Node7&#45;&gt;Node9 -->
<g id="edge8_Node000007_Node000009" class="edge">
<title>Node7&#45;&gt;Node9</title>
<g id="a_edge8_Node000007_Node000009"><a xlink:title=" ">
<path fill="none" stroke="#63b8ff" d="M446.32,-57.9C459.87,-56.27 474.36,-54.52 487.82,-52.9"/>
<polygon fill="#63b8ff" stroke="#63b8ff" points="488.38,-56.36 497.89,-51.69 487.54,-49.41 488.38,-56.36"/>
</a>
</g>
</g>
<!-- Node10 -->
<g id="Node000010" class="node">
<title>Node10</title>
<g id="a_Node000010"><a xlink:href="namespacetransform__.html#a28be39b0041a97b1667ccd1ff301f784" target="_top" xlink:title="Computes the z&#45;component of momentum (Pz).">
<polygon fill="white" stroke="#666666" points="585.5,-19 498.5,-19 498.5,0 585.5,0 585.5,-19"/>
<text text-anchor="middle" x="542" y="-7" font-family="Helvetica,sans-Serif" font-size="10.00">transform_::Pz</text>
</a>
</g>
</g>
<!-- Node7&#45;&gt;Node10 -->
<g id="edge9_Node000007_Node000010" class="edge">
<title>Node7&#45;&gt;Node10</title>
<g id="a_edge9_Node000007_Node000010"><a xlink:title=" ">
<path fill="none" stroke="#63b8ff" d="M417.54,-54.92C441.9,-45.96 478.5,-32.49 505.52,-22.55"/>
<polygon fill="#63b8ff" stroke="#63b8ff" points="506.83,-25.8 515.01,-19.06 504.41,-19.23 506.83,-25.8"/>
</a>
</g>
</g>
</g>
</svg>
