<?xml version="1.0" encoding="UTF-8" standalone="no"?>
<!DOCTYPE svg PUBLIC "-//W3C//DTD SVG 1.1//EN"
 "http://www.w3.org/Graphics/SVG/1.1/DTD/svg11.dtd">
<!-- Generated by graphviz version 2.43.0 (0)
 -->
<!-- Title: physics_::Beta2 Pages: 1 -->
<svg width="300pt" height="45pt"
 viewBox="0.00 0.00 300.00 45.00" xmlns="http://www.w3.org/2000/svg" xmlns:xlink="http://www.w3.org/1999/xlink">
<g id="graph0" class="graph" transform="scale(1 1) rotate(0) translate(4 41)">
<title>physics_::Beta2</title>
<!-- Node1 -->
<g id="Node000001" class="node">
<title>Node1</title>
<g id="a_Node000001"><a xlink:title="Computes the square of the beta factor from a momentum tensor.">
<polygon fill="#999999" stroke="#666666" points="93,-19 0,-19 0,0 93,0 93,-19"/>
<text text-anchor="middle" x="46.5" y="-7" font-family="Helvetica,sans-Serif" font-size="10.00">physics_::Beta2</text>
</a>
</g>
</g>
<!-- Node2 -->
<g id="Node000002" class="node">
<title>Node2</title>
<g id="a_Node000002"><a xlink:href="namespacephysics__.html#ae22e22a969315629a6ae7549f7344805" target="_top" xlink:title="Computes the square of the momentum magnitude.">
<polygon fill="white" stroke="#666666" points="206,-19 129,-19 129,0 206,0 206,-19"/>
<text text-anchor="middle" x="167.5" y="-7" font-family="Helvetica,sans-Serif" font-size="10.00">physics_::P2</text>
</a>
</g>
</g>
<!-- Node1&#45;&gt;Node2 -->
<g id="edge1_Node000001_Node000002" class="edge">
<title>Node1&#45;&gt;Node2</title>
<g id="a_edge1_Node000001_Node000002"><a xlink:title=" ">
<path fill="none" stroke="#63b8ff" d="M93.17,-9.5C101.56,-9.5 110.33,-9.5 118.78,-9.5"/>
<polygon fill="#63b8ff" stroke="#63b8ff" points="118.87,-13 128.87,-9.5 118.87,-6 118.87,-13"/>
</a>
</g>
</g>
<!-- Node2&#45;&gt;Node2 -->
<g id="edge3_Node000002_Node000002" class="edge">
<title>Node2&#45;&gt;Node2</title>
<g id="a_edge3_Node000002_Node000002"><a xlink:title=" ">
<path fill="none" stroke="#63b8ff" d="M152.4,-19.08C145.05,-27.73 150.08,-37 167.5,-37 178.11,-37 184.13,-33.56 185.55,-28.91"/>
<polygon fill="#63b8ff" stroke="#63b8ff" points="188.83,-27.66 182.6,-19.08 182.12,-29.67 188.83,-27.66"/>
</a>
</g>
</g>
<!-- Node3 -->
<g id="Node000003" class="node">
<title>Node3</title>
<g id="a_Node000003"><a xlink:href="utils_8cxx.html#a9c1cdc6384bce6bdc92ca917b3f656bf" target="_top" xlink:title=" ">
<polygon fill="white" stroke="#666666" points="292,-19 242,-19 242,0 292,0 292,-19"/>
<text text-anchor="middle" x="267" y="-7" font-family="Helvetica,sans-Serif" font-size="10.00">format</text>
</a>
</g>
</g>
<!-- Node2&#45;&gt;Node3 -->
<g id="edge2_Node000002_Node000003" class="edge">
<title>Node2&#45;&gt;Node3</title>
<g id="a_edge2_Node000002_Node000003"><a xlink:title=" ">
<path fill="none" stroke="#63b8ff" d="M206.2,-9.5C214.64,-9.5 223.54,-9.5 231.83,-9.5"/>
<polygon fill="#63b8ff" stroke="#63b8ff" points="231.91,-13 241.91,-9.5 231.91,-6 231.91,-13"/>
</a>
</g>
</g>
</g>
</svg>
