<?xml version="1.0" encoding="UTF-8" standalone="no"?>
<!DOCTYPE svg PUBLIC "-//W3C//DTD SVG 1.1//EN"
 "http://www.w3.org/Graphics/SVG/1.1/DTD/svg11.dtd">
<!-- Generated by graphviz version 2.43.0 (0)
 -->
<!-- Title: pyc::nusol::NuNu Pages: 1 -->
<svg width="906pt" height="982pt"
 viewBox="0.00 0.00 906.00 982.00" xmlns="http://www.w3.org/2000/svg" xmlns:xlink="http://www.w3.org/1999/xlink">
<g id="graph0" class="graph" transform="scale(1 1) rotate(0) translate(4 978)">
<title>pyc::nusol::NuNu</title>
<!-- Node1 -->
<g id="Node000001" class="node">
<title>Node1</title>
<g id="a_Node000001"><a xlink:title=" ">
<polygon fill="#999999" stroke="#666666" points="99,-767 0,-767 0,-748 99,-748 99,-767"/>
<text text-anchor="middle" x="49.5" y="-755" font-family="Helvetica,sans-Serif" font-size="10.00">pyc::nusol::NuNu</text>
</a>
</g>
</g>
<!-- Node2 -->
<g id="Node000002" class="node">
<title>Node2</title>
<g id="a_Node000002"><a xlink:href="namespacepyc_1_1nusol.html#a9650527ae538fa27121bedfb79a1fbe6" target="_top" xlink:title=" ">
<polygon fill="white" stroke="#666666" points="234,-786 135,-786 135,-767 234,-767 234,-786"/>
<text text-anchor="middle" x="184.5" y="-774" font-family="Helvetica,sans-Serif" font-size="10.00">pyc::nusol::NuNu</text>
</a>
</g>
</g>
<!-- Node1&#45;&gt;Node2 -->
<g id="edge1_Node000001_Node000002" class="edge">
<title>Node1&#45;&gt;Node2</title>
<g id="a_edge1_Node000001_Node000002"><a xlink:title=" ">
<path fill="none" stroke="#63b8ff" d="M99.27,-764.47C107.58,-765.65 116.29,-766.9 124.83,-768.12"/>
<polygon fill="#63b8ff" stroke="#63b8ff" points="124.34,-771.58 134.74,-769.53 125.33,-764.65 124.34,-771.58"/>
</a>
</g>
</g>
<!-- Node36 -->
<g id="Node000036" class="node">
<title>Node36</title>
<g id="a_Node000036"><a xlink:href="namespacepyc.html#a4f5d1f0a2f00b40eb63b5d3592cc4d46" target="_top" xlink:title=" ">
<polygon fill="white" stroke="#666666" points="222.5,-749 146.5,-749 146.5,-730 222.5,-730 222.5,-749"/>
<text text-anchor="middle" x="184.5" y="-737" font-family="Helvetica,sans-Serif" font-size="10.00">pyc::to_pmc</text>
</a>
</g>
</g>
<!-- Node1&#45;&gt;Node36 -->
<g id="edge51_Node000001_Node000036" class="edge">
<title>Node1&#45;&gt;Node36</title>
<g id="a_edge51_Node000001_Node000036"><a xlink:title=" ">
<path fill="none" stroke="#63b8ff" d="M99.27,-750.9C111.31,-749.27 124.19,-747.53 136.16,-745.91"/>
<polygon fill="#63b8ff" stroke="#63b8ff" points="136.96,-749.33 146.41,-744.52 136.03,-742.39 136.96,-749.33"/>
</a>
</g>
</g>
<!-- Node3 -->
<g id="Node000003" class="node">
<title>Node3</title>
<g id="a_Node000003"><a xlink:href="utils_8cxx.html#a123aed6d73594e07c6401a7a6c587808" target="_top" xlink:title=" ">
<polygon fill="white" stroke="#666666" points="351.5,-768 281.5,-768 281.5,-749 351.5,-749 351.5,-768"/>
<text text-anchor="middle" x="316.5" y="-756" font-family="Helvetica,sans-Serif" font-size="10.00">changedev</text>
</a>
</g>
</g>
<!-- Node2&#45;&gt;Node3 -->
<g id="edge2_Node000002_Node000003" class="edge">
<title>Node2&#45;&gt;Node3</title>
<g id="a_edge2_Node000002_Node000003"><a xlink:title=" ">
<path fill="none" stroke="#63b8ff" d="M234.28,-769.75C246.42,-768.06 259.38,-766.27 271.29,-764.62"/>
<polygon fill="#63b8ff" stroke="#63b8ff" points="272.02,-768.05 281.45,-763.21 271.06,-761.12 272.02,-768.05"/>
</a>
</g>
</g>
<!-- Node4 -->
<g id="Node000004" class="node">
<title>Node4</title>
<g id="a_Node000004"><a xlink:href="namespacenusol__.html#ac849ef3564c5ac968727dce36494fd0a" target="_top" xlink:title=" ">
<polygon fill="white" stroke="#666666" points="357,-842 276,-842 276,-823 357,-823 357,-842"/>
<text text-anchor="middle" x="316.5" y="-830" font-family="Helvetica,sans-Serif" font-size="10.00">nusol_::NuNu</text>
</a>
</g>
</g>
<!-- Node2&#45;&gt;Node4 -->
<g id="edge3_Node000002_Node000004" class="edge">
<title>Node2&#45;&gt;Node4</title>
<g id="a_edge3_Node000002_Node000004"><a xlink:title=" ">
<path fill="none" stroke="#63b8ff" d="M206.99,-786.03C224.04,-793.56 248.5,-804.31 270,-813.5 274.19,-815.29 278.6,-817.16 282.96,-818.99"/>
<polygon fill="#63b8ff" stroke="#63b8ff" points="281.74,-822.28 292.32,-822.91 284.45,-815.82 281.74,-822.28"/>
</a>
</g>
</g>
<!-- Node35 -->
<g id="Node000035" class="node">
<title>Node35</title>
<g id="a_Node000035"><a xlink:href="namespacepyc.html#ab174cc51f6efef06bdb0ba47ec3fe3bf" target="_top" xlink:title=" ">
<polygon fill="white" stroke="#666666" points="363,-805 270,-805 270,-786 363,-786 363,-805"/>
<text text-anchor="middle" x="316.5" y="-793" font-family="Helvetica,sans-Serif" font-size="10.00">pyc::std_to_dict</text>
</a>
</g>
</g>
<!-- Node2&#45;&gt;Node35 -->
<g id="edge50_Node000002_Node000035" class="edge">
<title>Node2&#45;&gt;Node35</title>
<g id="a_edge50_Node000002_Node000035"><a xlink:title=" ">
<path fill="none" stroke="#63b8ff" d="M234.28,-783.63C242.67,-784.86 251.44,-786.14 259.99,-787.39"/>
<polygon fill="#63b8ff" stroke="#63b8ff" points="259.49,-790.85 269.89,-788.83 260.5,-783.92 259.49,-790.85"/>
</a>
</g>
</g>
<!-- Node5 -->
<g id="Node000005" class="node">
<title>Node5</title>
<g id="a_Node000005"><a xlink:href="nusol_2tensor_2nusol_8cxx.html#a8bbfd6699dae11189c40dfc0035fd99c" target="_top" xlink:title=" ">
<polygon fill="white" stroke="#666666" points="483,-974 427,-974 427,-955 483,-955 483,-974"/>
<text text-anchor="middle" x="455" y="-962" font-family="Helvetica,sans-Serif" font-size="10.00">_H_perp</text>
</a>
</g>
</g>
<!-- Node4&#45;&gt;Node5 -->
<g id="edge4_Node000004_Node000005" class="edge">
<title>Node4&#45;&gt;Node5</title>
<g id="a_edge4_Node000004_Node000005"><a xlink:title=" ">
<path fill="none" stroke="#63b8ff" d="M321.92,-842.21C332.27,-863.9 360.18,-916.64 399,-945.5 404.5,-949.59 410.95,-952.85 417.46,-955.42"/>
<polygon fill="#63b8ff" stroke="#63b8ff" points="416.34,-958.74 426.93,-958.73 418.65,-952.13 416.34,-958.74"/>
</a>
</g>
</g>
<!-- Node6 -->
<g id="Node000006" class="node">
<title>Node6</title>
<g id="a_Node000006"><a xlink:href="nusol_2tensor_2nusol_8cxx.html#aa2f3034bed6ef5a865741a89972d44d8" target="_top" xlink:title=" ">
<polygon fill="white" stroke="#666666" points="475.5,-937 434.5,-937 434.5,-918 475.5,-918 475.5,-937"/>
<text text-anchor="middle" x="455" y="-925" font-family="Helvetica,sans-Serif" font-size="10.00">_met</text>
</a>
</g>
</g>
<!-- Node4&#45;&gt;Node6 -->
<g id="edge5_Node000004_Node000006" class="edge">
<title>Node4&#45;&gt;Node6</title>
<g id="a_edge5_Node000004_Node000006"><a xlink:title=" ">
<path fill="none" stroke="#63b8ff" d="M326.76,-842.29C341.12,-857.06 370.14,-885.24 399,-903.5 407.06,-908.6 416.39,-913.12 425.05,-916.82"/>
<polygon fill="#63b8ff" stroke="#63b8ff" points="423.86,-920.12 434.44,-920.65 426.5,-913.64 423.86,-920.12"/>
</a>
</g>
</g>
<!-- Node7 -->
<g id="Node000007" class="node">
<title>Node7</title>
<g id="a_Node000007"><a xlink:href="nusol_2tensor_2nusol_8cxx.html#a154959ee15ff2420eef7a772682767b7" target="_top" xlink:title=" ">
<polygon fill="white" stroke="#666666" points="469.5,-823 440.5,-823 440.5,-804 469.5,-804 469.5,-823"/>
<text text-anchor="middle" x="455" y="-811" font-family="Helvetica,sans-Serif" font-size="10.00">_N</text>
</a>
</g>
</g>
<!-- Node4&#45;&gt;Node7 -->
<g id="edge6_Node000004_Node000007" class="edge">
<title>Node4&#45;&gt;Node7</title>
<g id="a_edge6_Node000004_Node000007"><a xlink:title=" ">
<path fill="none" stroke="#63b8ff" d="M357.35,-826.95C380.99,-823.66 410.15,-819.6 430.23,-816.81"/>
<polygon fill="#63b8ff" stroke="#63b8ff" points="430.93,-820.25 440.35,-815.4 429.96,-813.31 430.93,-820.25"/>
</a>
</g>
</g>
<!-- Node9 -->
<g id="Node000009" class="node">
<title>Node9</title>
<g id="a_Node000009"><a xlink:href="nusol_2tensor_2nusol_8cxx.html#a695a1b065a09564a65159bac242c506c" target="_top" xlink:title=" ">
<polygon fill="white" stroke="#666666" points="638.5,-861 591.5,-861 591.5,-842 638.5,-842 638.5,-861"/>
<text text-anchor="middle" x="615" y="-849" font-family="Helvetica,sans-Serif" font-size="10.00">Shape</text>
</a>
</g>
</g>
<!-- Node4&#45;&gt;Node9 -->
<g id="edge49_Node000004_Node000009" class="edge">
<title>Node4&#45;&gt;Node9</title>
<g id="a_edge49_Node000004_Node000009"><a xlink:title=" ">
<path fill="none" stroke="#63b8ff" d="M357.18,-835.04C416.21,-838.83 526.07,-845.87 580.98,-849.38"/>
<polygon fill="#63b8ff" stroke="#63b8ff" points="580.99,-852.89 591.19,-850.04 581.44,-845.91 580.99,-852.89"/>
</a>
</g>
</g>
<!-- Node10 -->
<g id="Node000010" class="node">
<title>Node10</title>
<g id="a_Node000010"><a xlink:href="utils_8cxx.html#a1652e53abd2299dd0f10e093948e4fa3" target="_top" xlink:title=" ">
<polygon fill="white" stroke="#666666" points="793.5,-655 737.5,-655 737.5,-636 793.5,-636 793.5,-655"/>
<text text-anchor="middle" x="765.5" y="-643" font-family="Helvetica,sans-Serif" font-size="10.00">MakeOp</text>
</a>
</g>
</g>
<!-- Node4&#45;&gt;Node10 -->
<g id="edge37_Node000004_Node000010" class="edge">
<title>Node4&#45;&gt;Node10</title>
<g id="a_edge37_Node000004_Node000010"><a xlink:title=" ">
<path fill="none" stroke="#63b8ff" d="M335.96,-842.08C393.43,-870.43 571.98,-947.24 683,-869.5 751.12,-821.79 762.52,-710.94 764.26,-665.49"/>
<polygon fill="#63b8ff" stroke="#63b8ff" points="767.77,-665.51 764.53,-655.42 760.77,-665.32 767.77,-665.51"/>
</a>
</g>
</g>
<!-- Node11 -->
<g id="Node000011" class="node">
<title>Node11</title>
<g id="a_Node000011"><a xlink:href="namespacenusol__.html#a526c0e4a558a1201624ea0b639bc747c" target="_top" xlink:title=" ">
<polygon fill="white" stroke="#666666" points="510,-431 400,-431 400,-412 510,-412 510,-431"/>
<text text-anchor="middle" x="455" y="-419" font-family="Helvetica,sans-Serif" font-size="10.00">nusol_::BaseMatrix</text>
</a>
</g>
</g>
<!-- Node4&#45;&gt;Node11 -->
<g id="edge10_Node000004_Node000011" class="edge">
<title>Node4&#45;&gt;Node11</title>
<g id="a_edge10_Node000004_Node000011"><a xlink:title=" ">
<path fill="none" stroke="#63b8ff" d="M351.3,-822.79C355.71,-820.34 359.8,-817.29 363,-813.5 387.77,-784.19 437.06,-516.42 450.53,-441.12"/>
<polygon fill="#63b8ff" stroke="#63b8ff" points="454,-441.56 452.31,-431.1 447.11,-440.34 454,-441.56"/>
</a>
</g>
</g>
<!-- Node21 -->
<g id="Node000021" class="node">
<title>Node21</title>
<g id="a_Node000021"><a xlink:href="namespacenusol__.html#a2cdd92aeb32c05137ebc7ef96c47a3da" target="_top" xlink:title=" ">
<polygon fill="white" stroke="#666666" points="511,-730 399,-730 399,-711 511,-711 511,-730"/>
<text text-anchor="middle" x="455" y="-718" font-family="Helvetica,sans-Serif" font-size="10.00">nusol_::Intersection</text>
</a>
</g>
</g>
<!-- Node4&#45;&gt;Node21 -->
<g id="edge29_Node000004_Node000021" class="edge">
<title>Node4&#45;&gt;Node21</title>
<g id="a_edge29_Node000004_Node000021"><a xlink:title=" ">
<path fill="none" stroke="#63b8ff" d="M345.36,-822.95C351.42,-820.31 357.62,-817.15 363,-813.5 394.57,-792.09 424.09,-758.46 440.52,-738.04"/>
<polygon fill="#63b8ff" stroke="#63b8ff" points="443.28,-740.2 446.73,-730.18 437.79,-735.86 443.28,-740.2"/>
</a>
</g>
</g>
<!-- Node27 -->
<g id="Node000027" class="node">
<title>Node27</title>
<g id="a_Node000027"><a xlink:href="nusol_2tensor_2nusol_8cxx.html#a28531a30b80ecbd780392279d8a8adf3" target="_top" xlink:title=" ">
<polygon fill="white" stroke="#666666" points="484,-148 426,-148 426,-129 484,-129 484,-148"/>
<text text-anchor="middle" x="455" y="-136" font-family="Helvetica,sans-Serif" font-size="10.00">Rotation</text>
</a>
</g>
</g>
<!-- Node4&#45;&gt;Node27 -->
<g id="edge38_Node000004_Node000027" class="edge">
<title>Node4&#45;&gt;Node27</title>
<g id="a_edge38_Node000004_Node000027"><a xlink:title=" ">
<path fill="none" stroke="#63b8ff" d="M352.24,-822.92C356.4,-820.46 360.17,-817.37 363,-813.5 417.11,-739.49 385.63,-493.2 399,-402.5 412.63,-310.04 438.45,-201.25 449.16,-157.82"/>
<polygon fill="#63b8ff" stroke="#63b8ff" points="452.58,-158.57 451.59,-148.02 445.78,-156.88 452.58,-158.57"/>
</a>
</g>
</g>
<!-- Node8 -->
<g id="Node000008" class="node">
<title>Node8</title>
<g id="a_Node000008"><a xlink:href="namespaceoperators__.html#aaf20282e41ff4961e01d222feb86bc47" target="_top" xlink:title="Computes the inverse of a matrix.">
<polygon fill="white" stroke="#666666" points="670,-824 560,-824 560,-805 670,-805 670,-824"/>
<text text-anchor="middle" x="615" y="-812" font-family="Helvetica,sans-Serif" font-size="10.00">operators_::Inverse</text>
</a>
</g>
</g>
<!-- Node7&#45;&gt;Node8 -->
<g id="edge7_Node000007_Node000008" class="edge">
<title>Node7&#45;&gt;Node8</title>
<g id="a_edge7_Node000007_Node000008"><a xlink:title=" ">
<path fill="none" stroke="#63b8ff" d="M469.75,-813.59C487.61,-813.7 520.03,-813.91 549.61,-814.09"/>
<polygon fill="#63b8ff" stroke="#63b8ff" points="549.91,-817.59 559.93,-814.16 549.95,-810.59 549.91,-817.59"/>
</a>
</g>
</g>
<!-- Node7&#45;&gt;Node9 -->
<g id="edge8_Node000007_Node000009" class="edge">
<title>Node7&#45;&gt;Node9</title>
<g id="a_edge8_Node000007_Node000009"><a xlink:title=" ">
<path fill="none" stroke="#63b8ff" d="M469.75,-816.81C494.44,-822.75 546.96,-835.38 581.34,-843.65"/>
<polygon fill="#63b8ff" stroke="#63b8ff" points="580.84,-847.13 591.38,-846.06 582.48,-840.32 580.84,-847.13"/>
</a>
</g>
</g>
<!-- Node9&#45;&gt;Node10 -->
<g id="edge9_Node000009_Node000010" class="edge">
<title>Node9&#45;&gt;Node10</title>
<g id="a_edge9_Node000009_Node000010"><a xlink:title=" ">
<path fill="none" stroke="#63b8ff" d="M638.52,-849.98C652.75,-847.94 670.71,-843.24 683,-832.5 734.48,-787.52 754.66,-704.05 761.48,-665.71"/>
<polygon fill="#63b8ff" stroke="#63b8ff" points="765.01,-665.79 763.18,-655.35 758.1,-664.65 765.01,-665.79"/>
</a>
</g>
</g>
<!-- Node11&#45;&gt;Node10 -->
<g id="edge24_Node000011_Node000010" class="edge">
<title>Node11&#45;&gt;Node10</title>
<g id="a_edge24_Node000011_Node000010"><a xlink:title=" ">
<path fill="none" stroke="#63b8ff" d="M465.16,-431.14C480.6,-446.85 513.42,-477.98 547,-495.5 602.75,-524.59 631.4,-498.56 683,-534.5 717.48,-558.52 743.04,-601.89 755.67,-626.71"/>
<polygon fill="#63b8ff" stroke="#63b8ff" points="752.59,-628.38 760.14,-635.81 758.87,-625.29 752.59,-628.38"/>
</a>
</g>
</g>
<!-- Node12 -->
<g id="Node000012" class="node">
<title>Node12</title>
<g id="a_Node000012"><a xlink:href="nusol_2tensor_2nusol_8cxx.html#ac73ce1484f270adbb1791bd876e80dfa" target="_top" xlink:title=" ">
<polygon fill="white" stroke="#666666" points="632,-487 598,-487 598,-468 632,-468 632,-487"/>
<text text-anchor="middle" x="615" y="-475" font-family="Helvetica,sans-Serif" font-size="10.00">_x0</text>
</a>
</g>
</g>
<!-- Node11&#45;&gt;Node12 -->
<g id="edge11_Node000011_Node000012" class="edge">
<title>Node11&#45;&gt;Node12</title>
<g id="a_edge11_Node000011_Node000012"><a xlink:title=" ">
<path fill="none" stroke="#63b8ff" d="M477.81,-431.16C496.09,-439.06 522.97,-450.24 547,-458.5 560.4,-463.11 575.57,-467.48 588.08,-470.86"/>
<polygon fill="#63b8ff" stroke="#63b8ff" points="587.31,-474.28 597.87,-473.46 589.1,-467.51 587.31,-474.28"/>
</a>
</g>
</g>
<!-- Node13 -->
<g id="Node000013" class="node">
<title>Node13</title>
<g id="a_Node000013"><a xlink:href="namespacephysics__.html#a3123f743b9c22850e7346d5f56a4441b" target="_top" xlink:title="Computes the beta factor.">
<polygon fill="white" stroke="#666666" points="809,-261 722,-261 722,-242 809,-242 809,-261"/>
<text text-anchor="middle" x="765.5" y="-249" font-family="Helvetica,sans-Serif" font-size="10.00">physics_::Beta</text>
</a>
</g>
</g>
<!-- Node11&#45;&gt;Node13 -->
<g id="edge12_Node000011_Node000013" class="edge">
<title>Node11&#45;&gt;Node13</title>
<g id="a_edge12_Node000011_Node000013"><a xlink:title=" ">
<path fill="none" stroke="#63b8ff" d="M459.28,-411.94C468.53,-386.53 497.43,-317.14 547,-285.5 596.42,-253.96 664.71,-248.01 711.51,-248.31"/>
<polygon fill="#63b8ff" stroke="#63b8ff" points="711.68,-251.81 721.74,-248.47 711.8,-244.81 711.68,-251.81"/>
</a>
</g>
</g>
<!-- Node15 -->
<g id="Node000015" class="node">
<title>Node15</title>
<g id="a_Node000015"><a xlink:href="namespacephysics__.html#aace12d6d7317cd102e5059781d724151" target="_top" xlink:title="Computes the square of the beta factor.">
<polygon fill="white" stroke="#666666" points="812,-392 719,-392 719,-373 812,-373 812,-392"/>
<text text-anchor="middle" x="765.5" y="-380" font-family="Helvetica,sans-Serif" font-size="10.00">physics_::Beta2</text>
</a>
</g>
</g>
<!-- Node11&#45;&gt;Node15 -->
<g id="edge15_Node000011_Node000015" class="edge">
<title>Node11&#45;&gt;Node15</title>
<g id="a_edge15_Node000011_Node000015"><a xlink:title=" ">
<path fill="none" stroke="#63b8ff" d="M510.09,-414.66C565.73,-407.63 651.99,-396.72 708.37,-389.6"/>
<polygon fill="#63b8ff" stroke="#63b8ff" points="709.05,-393.04 718.53,-388.31 708.17,-386.09 709.05,-393.04"/>
</a>
</g>
</g>
<!-- Node16 -->
<g id="Node000016" class="node">
<title>Node16</title>
<g id="a_Node000016"><a xlink:href="namespaceoperators__.html#af012532b8e034b7d6cb733360e14f8d7" target="_top" xlink:title="Computes the cosine of the angle between two vectors.">
<polygon fill="white" stroke="#666666" points="675,-374 555,-374 555,-355 675,-355 675,-374"/>
<text text-anchor="middle" x="615" y="-362" font-family="Helvetica,sans-Serif" font-size="10.00">operators_::CosTheta</text>
</a>
</g>
</g>
<!-- Node11&#45;&gt;Node16 -->
<g id="edge18_Node000011_Node000016" class="edge">
<title>Node11&#45;&gt;Node16</title>
<g id="a_edge18_Node000011_Node000016"><a xlink:title=" ">
<path fill="none" stroke="#63b8ff" d="M482.27,-411.94C500.44,-405.34 525.18,-396.36 547,-388.5 556.94,-384.92 567.71,-381.05 577.65,-377.49"/>
<polygon fill="#63b8ff" stroke="#63b8ff" points="579.02,-380.72 587.26,-374.05 576.66,-374.13 579.02,-380.72"/>
</a>
</g>
</g>
<!-- Node17 -->
<g id="Node000017" class="node">
<title>Node17</title>
<g id="a_Node000017"><a xlink:href="nusol_2tensor_2nusol_8cxx.html#a2df29a032d35ff73a0646b3c6f522ff1" target="_top" xlink:title=" ">
<polygon fill="white" stroke="#666666" points="650.5,-450 579.5,-450 579.5,-431 650.5,-431 650.5,-450"/>
<text text-anchor="middle" x="615" y="-438" font-family="Helvetica,sans-Serif" font-size="10.00">GetMasses</text>
</a>
</g>
</g>
<!-- Node11&#45;&gt;Node17 -->
<g id="edge19_Node000011_Node000017" class="edge">
<title>Node11&#45;&gt;Node17</title>
<g id="a_edge19_Node000011_Node000017"><a xlink:title=" ">
<path fill="none" stroke="#63b8ff" d="M510.37,-428.04C529.57,-430.35 550.91,-432.91 569.22,-435.12"/>
<polygon fill="#63b8ff" stroke="#63b8ff" points="568.98,-438.61 579.33,-436.33 569.82,-431.66 568.98,-438.61"/>
</a>
</g>
</g>
<!-- Node18 -->
<g id="Node000018" class="node">
<title>Node18</title>
<g id="a_Node000018"><a xlink:href="namespacephysics__.html#a7787594305d4a156c31be581401b0b0b" target="_top" xlink:title="Computes the square of the invariant mass.">
<polygon fill="white" stroke="#666666" points="805.5,-316 725.5,-316 725.5,-297 805.5,-297 805.5,-316"/>
<text text-anchor="middle" x="765.5" y="-304" font-family="Helvetica,sans-Serif" font-size="10.00">physics_::M2</text>
</a>
</g>
</g>
<!-- Node11&#45;&gt;Node18 -->
<g id="edge21_Node000011_Node000018" class="edge">
<title>Node11&#45;&gt;Node18</title>
<g id="a_edge21_Node000011_Node000018"><a xlink:title=" ">
<path fill="none" stroke="#63b8ff" d="M460.17,-411.84C470.72,-388.78 500.98,-330.79 547,-308.5 600.08,-282.79 669.35,-287.71 715.3,-295.45"/>
<polygon fill="#63b8ff" stroke="#63b8ff" points="714.85,-298.93 725.31,-297.24 716.08,-292.04 714.85,-298.93"/>
</a>
</g>
</g>
<!-- Node19 -->
<g id="Node000019" class="node">
<title>Node19</title>
<g id="a_Node000019"><a xlink:href="namespacephysics__.html#ac12a78b1943348345b940e510930f420" target="_top" xlink:title="Computes the momentum magnitude.">
<polygon fill="white" stroke="#666666" points="801,-206 730,-206 730,-187 801,-187 801,-206"/>
<text text-anchor="middle" x="765.5" y="-194" font-family="Helvetica,sans-Serif" font-size="10.00">physics_::P</text>
</a>
</g>
</g>
<!-- Node11&#45;&gt;Node19 -->
<g id="edge25_Node000011_Node000019" class="edge">
<title>Node11&#45;&gt;Node19</title>
<g id="a_edge25_Node000011_Node000019"><a xlink:title=" ">
<path fill="none" stroke="#63b8ff" d="M458.03,-411.64C464.75,-381.52 489.28,-290.07 547,-245.5 597.13,-206.79 672.03,-197.55 719.56,-195.91"/>
<polygon fill="#63b8ff" stroke="#63b8ff" points="719.94,-199.41 729.85,-195.67 719.77,-192.41 719.94,-199.41"/>
</a>
</g>
</g>
<!-- Node20 -->
<g id="Node000020" class="node">
<title>Node20</title>
<g id="a_Node000020"><a xlink:href="namespaceoperators__.html#a0335a4a853f7cff5faa4bc7bc68e3a8a" target="_top" xlink:title="Computes the sine of the angle between two vectors.">
<polygon fill="white" stroke="#666666" points="673.5,-563 556.5,-563 556.5,-544 673.5,-544 673.5,-563"/>
<text text-anchor="middle" x="615" y="-551" font-family="Helvetica,sans-Serif" font-size="10.00">operators_::SinTheta</text>
</a>
</g>
</g>
<!-- Node11&#45;&gt;Node20 -->
<g id="edge28_Node000011_Node000020" class="edge">
<title>Node11&#45;&gt;Node20</title>
<g id="a_edge28_Node000011_Node000020"><a xlink:title=" ">
<path fill="none" stroke="#63b8ff" d="M461.57,-431.04C474.17,-451.84 506.93,-501.66 547,-529.5 553.07,-533.72 559.96,-537.27 566.96,-540.25"/>
<polygon fill="#63b8ff" stroke="#63b8ff" points="565.91,-543.6 576.5,-543.95 568.44,-537.07 565.91,-543.6"/>
</a>
</g>
</g>
<!-- Node13&#45;&gt;Node13 -->
<g id="edge13_Node000013_Node000013" class="edge">
<title>Node13&#45;&gt;Node13</title>
<g id="a_edge13_Node000013_Node000013"><a xlink:title=" ">
<path fill="none" stroke="#63b8ff" d="M749.16,-261.08C741.21,-269.73 746.66,-279 765.5,-279 777.27,-279 783.82,-275.38 785.13,-270.55"/>
<polygon fill="#63b8ff" stroke="#63b8ff" points="788.43,-269.38 781.84,-261.08 781.81,-271.68 788.43,-269.38"/>
</a>
</g>
</g>
<!-- Node14 -->
<g id="Node000014" class="node">
<title>Node14</title>
<g id="a_Node000014"><a xlink:href="utils_8cxx.html#a9c1cdc6384bce6bdc92ca917b3f656bf" target="_top" xlink:title=" ">
<polygon fill="white" stroke="#666666" points="898,-288 848,-288 848,-269 898,-269 898,-288"/>
<text text-anchor="middle" x="873" y="-276" font-family="Helvetica,sans-Serif" font-size="10.00">format</text>
</a>
</g>
</g>
<!-- Node13&#45;&gt;Node14 -->
<g id="edge14_Node000013_Node000014" class="edge">
<title>Node13&#45;&gt;Node14</title>
<g id="a_edge14_Node000013_Node000014"><a xlink:title=" ">
<path fill="none" stroke="#63b8ff" d="M803.7,-261.02C814.96,-263.9 827.26,-267.05 838.29,-269.87"/>
<polygon fill="#63b8ff" stroke="#63b8ff" points="837.43,-273.26 847.98,-272.35 839.16,-266.48 837.43,-273.26"/>
</a>
</g>
</g>
<!-- Node15&#45;&gt;Node14 -->
<g id="edge17_Node000015_Node000014" class="edge">
<title>Node15&#45;&gt;Node14</title>
<g id="a_edge17_Node000015_Node000014"><a xlink:title=" ">
<path fill="none" stroke="#63b8ff" d="M777.99,-372.93C787.36,-365.01 800.82,-353.33 812,-342.5 827.62,-327.38 844.47,-309.22 856.33,-296.12"/>
<polygon fill="#63b8ff" stroke="#63b8ff" points="859.26,-298.1 863.34,-288.32 854.05,-293.42 859.26,-298.1"/>
</a>
</g>
</g>
<!-- Node15&#45;&gt;Node15 -->
<g id="edge16_Node000015_Node000015" class="edge">
<title>Node15&#45;&gt;Node15</title>
<g id="a_edge16_Node000015_Node000015"><a xlink:title=" ">
<path fill="none" stroke="#63b8ff" d="M749.16,-392.08C741.21,-400.73 746.66,-410 765.5,-410 777.27,-410 783.82,-406.38 785.13,-401.55"/>
<polygon fill="#63b8ff" stroke="#63b8ff" points="788.43,-400.38 781.84,-392.08 781.81,-402.68 788.43,-400.38"/>
</a>
</g>
</g>
<!-- Node17&#45;&gt;Node10 -->
<g id="edge20_Node000017_Node000010" class="edge">
<title>Node17&#45;&gt;Node10</title>
<g id="a_edge20_Node000017_Node000010"><a xlink:title=" ">
<path fill="none" stroke="#63b8ff" d="M650.84,-443.8C662.14,-446.35 674.06,-450.8 683,-458.5 735.02,-503.31 754.99,-587.49 761.62,-625.72"/>
<polygon fill="#63b8ff" stroke="#63b8ff" points="758.17,-626.29 763.21,-635.61 765.08,-625.18 758.17,-626.29"/>
</a>
</g>
</g>
<!-- Node18&#45;&gt;Node14 -->
<g id="edge22_Node000018_Node000014" class="edge">
<title>Node18&#45;&gt;Node14</title>
<g id="a_edge22_Node000018_Node000014"><a xlink:title=" ">
<path fill="none" stroke="#63b8ff" d="M802.51,-296.94C813.94,-293.91 826.53,-290.57 837.82,-287.57"/>
<polygon fill="#63b8ff" stroke="#63b8ff" points="838.99,-290.88 847.76,-284.93 837.19,-284.12 838.99,-290.88"/>
</a>
</g>
</g>
<!-- Node18&#45;&gt;Node18 -->
<g id="edge23_Node000018_Node000018" class="edge">
<title>Node18&#45;&gt;Node18</title>
<g id="a_edge23_Node000018_Node000018"><a xlink:title=" ">
<path fill="none" stroke="#63b8ff" d="M749.16,-316.08C741.21,-324.73 746.66,-334 765.5,-334 777.27,-334 783.82,-330.38 785.13,-325.55"/>
<polygon fill="#63b8ff" stroke="#63b8ff" points="788.43,-324.38 781.84,-316.08 781.81,-326.68 788.43,-324.38"/>
</a>
</g>
</g>
<!-- Node19&#45;&gt;Node14 -->
<g id="edge26_Node000019_Node000014" class="edge">
<title>Node19&#45;&gt;Node14</title>
<g id="a_edge26_Node000019_Node000014"><a xlink:title=" ">
<path fill="none" stroke="#63b8ff" d="M779.02,-206.23C796.86,-220.1 829.83,-245.73 851.34,-262.44"/>
<polygon fill="#63b8ff" stroke="#63b8ff" points="849.46,-265.41 859.5,-268.78 853.75,-259.88 849.46,-265.41"/>
</a>
</g>
</g>
<!-- Node19&#45;&gt;Node19 -->
<g id="edge27_Node000019_Node000019" class="edge">
<title>Node19&#45;&gt;Node19</title>
<g id="a_edge27_Node000019_Node000019"><a xlink:title=" ">
<path fill="none" stroke="#63b8ff" d="M749.16,-206.08C741.21,-214.73 746.66,-224 765.5,-224 777.27,-224 783.82,-220.38 785.13,-215.55"/>
<polygon fill="#63b8ff" stroke="#63b8ff" points="788.43,-214.38 781.84,-206.08 781.81,-216.68 788.43,-214.38"/>
</a>
</g>
</g>
<!-- Node21&#45;&gt;Node8 -->
<g id="edge34_Node000021_Node000008" class="edge">
<title>Node21&#45;&gt;Node8</title>
<g id="a_edge34_Node000021_Node000008"><a xlink:title=" ">
<path fill="none" stroke="#63b8ff" d="M466.17,-730.07C482.24,-744.76 514.99,-773.02 547,-790.5 554.64,-794.67 563.15,-798.36 571.47,-801.53"/>
<polygon fill="#63b8ff" stroke="#63b8ff" points="570.49,-804.89 581.08,-804.99 572.86,-798.31 570.49,-804.89"/>
</a>
</g>
</g>
<!-- Node21&#45;&gt;Node10 -->
<g id="edge35_Node000021_Node000010" class="edge">
<title>Node21&#45;&gt;Node10</title>
<g id="a_edge35_Node000021_Node000010"><a xlink:title=" ">
<path fill="none" stroke="#63b8ff" d="M473.61,-730.09C513.3,-750.3 611.8,-792.55 683,-756.5 721.04,-737.24 745.63,-690.95 757.05,-664.63"/>
<polygon fill="#63b8ff" stroke="#63b8ff" points="760.31,-665.9 760.9,-655.32 753.85,-663.22 760.31,-665.9"/>
</a>
</g>
</g>
<!-- Node22 -->
<g id="Node000022" class="node">
<title>Node22</title>
<g id="a_Node000022"><a xlink:href="namespaceoperators__.html#a3d017da3c5169dfb4e1ca5da7cae0703" target="_top" xlink:title="Computes the cofactor matrix of a given matrix.">
<polygon fill="white" stroke="#666666" points="676,-748 554,-748 554,-729 676,-729 676,-748"/>
<text text-anchor="middle" x="615" y="-736" font-family="Helvetica,sans-Serif" font-size="10.00">operators_::CoFactors</text>
</a>
</g>
</g>
<!-- Node21&#45;&gt;Node22 -->
<g id="edge30_Node000021_Node000022" class="edge">
<title>Node21&#45;&gt;Node22</title>
<g id="a_edge30_Node000021_Node000022"><a xlink:title=" ">
<path fill="none" stroke="#63b8ff" d="M511.26,-726.8C521.82,-728 533.01,-729.27 543.96,-730.52"/>
<polygon fill="#63b8ff" stroke="#63b8ff" points="543.59,-734 553.93,-731.66 544.39,-727.05 543.59,-734"/>
</a>
</g>
</g>
<!-- Node23 -->
<g id="Node000023" class="node">
<title>Node23</title>
<g id="a_Node000023"><a xlink:href="namespaceoperators__.html#a123a2d44cfea06825875800ebf21ae0d" target="_top" xlink:title="Computes the determinant of a matrix.">
<polygon fill="white" stroke="#666666" points="683,-711 547,-711 547,-692 683,-692 683,-711"/>
<text text-anchor="middle" x="615" y="-699" font-family="Helvetica,sans-Serif" font-size="10.00">operators_::Determinant</text>
</a>
</g>
</g>
<!-- Node21&#45;&gt;Node23 -->
<g id="edge31_Node000021_Node000023" class="edge">
<title>Node21&#45;&gt;Node23</title>
<g id="a_edge31_Node000021_Node000023"><a xlink:title=" ">
<path fill="none" stroke="#63b8ff" d="M511.26,-713.85C519.51,-712.86 528.14,-711.82 536.75,-710.79"/>
<polygon fill="#63b8ff" stroke="#63b8ff" points="537.3,-714.25 546.81,-709.58 536.46,-707.3 537.3,-714.25"/>
</a>
</g>
</g>
<!-- Node24 -->
<g id="Node000024" class="node">
<title>Node24</title>
<g id="a_Node000024"><a xlink:href="nusol_2tensor_2nusol_8cxx.html#aae1454f2383ba884c21b646a772061b0" target="_top" xlink:title=" ">
<polygon fill="white" stroke="#666666" points="667,-674 563,-674 563,-655 667,-655 667,-674"/>
<text text-anchor="middle" x="615" y="-662" font-family="Helvetica,sans-Serif" font-size="10.00">HorizontalVertical</text>
</a>
</g>
</g>
<!-- Node21&#45;&gt;Node24 -->
<g id="edge32_Node000021_Node000024" class="edge">
<title>Node21&#45;&gt;Node24</title>
<g id="a_edge32_Node000021_Node000024"><a xlink:title=" ">
<path fill="none" stroke="#63b8ff" d="M476.66,-710.94C494.91,-702.73 522.37,-690.91 547,-682.5 552.91,-680.48 559.17,-678.54 565.41,-676.73"/>
<polygon fill="#63b8ff" stroke="#63b8ff" points="566.44,-680.08 575.12,-674.01 564.54,-673.34 566.44,-680.08"/>
</a>
</g>
</g>
<!-- Node25 -->
<g id="Node000025" class="node">
<title>Node25</title>
<g id="a_Node000025"><a xlink:href="nusol_2tensor_2nusol_8cxx.html#acf51fdc50b75894636c847810af38706" target="_top" xlink:title=" ">
<polygon fill="white" stroke="#666666" points="652,-637 578,-637 578,-618 652,-618 652,-637"/>
<text text-anchor="middle" x="615" y="-625" font-family="Helvetica,sans-Serif" font-size="10.00">Intersecting</text>
</a>
</g>
</g>
<!-- Node21&#45;&gt;Node25 -->
<g id="edge33_Node000021_Node000025" class="edge">
<title>Node21&#45;&gt;Node25</title>
<g id="a_edge33_Node000021_Node000025"><a xlink:title=" ">
<path fill="none" stroke="#63b8ff" d="M464.85,-710.91C480.1,-694.97 512.97,-663.04 547,-645.5 553.55,-642.12 560.8,-639.33 568.03,-637.04"/>
<polygon fill="#63b8ff" stroke="#63b8ff" points="569.19,-640.35 577.83,-634.22 567.25,-633.62 569.19,-640.35"/>
</a>
</g>
</g>
<!-- Node26 -->
<g id="Node000026" class="node">
<title>Node26</title>
<g id="a_Node000026"><a xlink:href="nusol_2tensor_2nusol_8cxx.html#af09f8e81392582428eefa4b074f3f098" target="_top" xlink:title=" ">
<polygon fill="white" stroke="#666666" points="641.5,-600 588.5,-600 588.5,-581 641.5,-581 641.5,-600"/>
<text text-anchor="middle" x="615" y="-588" font-family="Helvetica,sans-Serif" font-size="10.00">Parallel</text>
</a>
</g>
</g>
<!-- Node21&#45;&gt;Node26 -->
<g id="edge36_Node000021_Node000026" class="edge">
<title>Node21&#45;&gt;Node26</title>
<g id="a_edge36_Node000021_Node000026"><a xlink:title=" ">
<path fill="none" stroke="#63b8ff" d="M461.12,-710.68C473.07,-688.79 504.96,-635.77 547,-608.5 556.34,-602.44 567.67,-598.41 578.34,-595.73"/>
<polygon fill="#63b8ff" stroke="#63b8ff" points="579.26,-599.12 588.28,-593.56 577.76,-592.28 579.26,-599.12"/>
</a>
</g>
</g>
<!-- Node28 -->
<g id="Node000028" class="node">
<title>Node28</title>
<g id="a_Node000028"><a xlink:href="namespacetransform__.html#aa90019603231f23c1e857b5f5832b587" target="_top" xlink:title="Computes the azimuthal angle (Phi) from a momentum tensor.">
<polygon fill="white" stroke="#666666" points="660.5,-56 569.5,-56 569.5,-37 660.5,-37 660.5,-56"/>
<text text-anchor="middle" x="615" y="-44" font-family="Helvetica,sans-Serif" font-size="10.00">transform_::Phi</text>
</a>
</g>
</g>
<!-- Node27&#45;&gt;Node28 -->
<g id="edge39_Node000027_Node000028" class="edge">
<title>Node27&#45;&gt;Node28</title>
<g id="a_edge39_Node000027_Node000028"><a xlink:title=" ">
<path fill="none" stroke="#63b8ff" d="M470.97,-128.91C488.87,-117.54 519.83,-98.14 547,-82.5 559.73,-75.17 574.05,-67.41 586.18,-60.98"/>
<polygon fill="#63b8ff" stroke="#63b8ff" points="588.14,-63.9 595.35,-56.14 584.88,-57.71 588.14,-63.9"/>
</a>
</g>
</g>
<!-- Node30 -->
<g id="Node000030" class="node">
<title>Node30</title>
<g id="a_Node000030"><a xlink:href="nusol_2tensor_2nusol_8cxx.html#acf38ad4d8eeaff43568c7ef70cf2b815" target="_top" xlink:title=" ">
<polygon fill="white" stroke="#666666" points="633.5,-337 596.5,-337 596.5,-318 633.5,-318 633.5,-337"/>
<text text-anchor="middle" x="615" y="-325" font-family="Helvetica,sans-Serif" font-size="10.00">Pi_2</text>
</a>
</g>
</g>
<!-- Node27&#45;&gt;Node30 -->
<g id="edge42_Node000027_Node000030" class="edge">
<title>Node27&#45;&gt;Node30</title>
<g id="a_edge42_Node000027_Node000030"><a xlink:title=" ">
<path fill="none" stroke="#63b8ff" d="M464.05,-148.13C489.19,-178.2 566.49,-270.67 599.17,-309.76"/>
<polygon fill="#63b8ff" stroke="#63b8ff" points="596.68,-312.23 605.77,-317.66 602.05,-307.74 596.68,-312.23"/>
</a>
</g>
</g>
<!-- Node31 -->
<g id="Node000031" class="node">
<title>Node31</title>
<g id="a_Node000031"><a xlink:href="namespaceoperators__.html#a7ce1f1b4f84306a157386ac5fd54ea1a" target="_top" xlink:title="Computes the rotation matrix around the X&#45;axis.">
<polygon fill="white" stroke="#666666" points="658.5,-19 571.5,-19 571.5,0 658.5,0 658.5,-19"/>
<text text-anchor="middle" x="615" y="-7" font-family="Helvetica,sans-Serif" font-size="10.00">operators_::Rx</text>
</a>
</g>
</g>
<!-- Node27&#45;&gt;Node31 -->
<g id="edge44_Node000027_Node000031" class="edge">
<title>Node27&#45;&gt;Node31</title>
<g id="a_edge44_Node000027_Node000031"><a xlink:title=" ">
<path fill="none" stroke="#63b8ff" d="M461.15,-128.77C473.14,-107.08 505.13,-54.53 547,-27.5 551.55,-24.56 556.58,-22.1 561.76,-20.04"/>
<polygon fill="#63b8ff" stroke="#63b8ff" points="562.92,-23.34 571.21,-16.74 560.61,-16.73 562.92,-23.34"/>
</a>
</g>
</g>
<!-- Node32 -->
<g id="Node000032" class="node">
<title>Node32</title>
<g id="a_Node000032"><a xlink:href="namespaceoperators__.html#a7f4dbc7ab056202b3b43d621f6c8df50" target="_top" xlink:title="Computes the rotation matrix around the Y&#45;axis.">
<polygon fill="white" stroke="#666666" points="658.5,-148 571.5,-148 571.5,-129 658.5,-129 658.5,-148"/>
<text text-anchor="middle" x="615" y="-136" font-family="Helvetica,sans-Serif" font-size="10.00">operators_::Ry</text>
</a>
</g>
</g>
<!-- Node27&#45;&gt;Node32 -->
<g id="edge45_Node000027_Node000032" class="edge">
<title>Node27&#45;&gt;Node32</title>
<g id="a_edge45_Node000027_Node000032"><a xlink:title=" ">
<path fill="none" stroke="#63b8ff" d="M484.25,-138.5C505.64,-138.5 535.64,-138.5 561.41,-138.5"/>
<polygon fill="#63b8ff" stroke="#63b8ff" points="561.42,-142 571.42,-138.5 561.42,-135 561.42,-142"/>
</a>
</g>
</g>
<!-- Node33 -->
<g id="Node000033" class="node">
<title>Node33</title>
<g id="a_Node000033"><a xlink:href="namespaceoperators__.html#a38a28124e97111d3a1f2809ce2039769" target="_top" xlink:title="Computes the rotation matrix around the Z&#45;axis.">
<polygon fill="white" stroke="#666666" points="658,-111 572,-111 572,-92 658,-92 658,-111"/>
<text text-anchor="middle" x="615" y="-99" font-family="Helvetica,sans-Serif" font-size="10.00">operators_::Rz</text>
</a>
</g>
</g>
<!-- Node27&#45;&gt;Node33 -->
<g id="edge46_Node000027_Node000033" class="edge">
<title>Node27&#45;&gt;Node33</title>
<g id="a_edge46_Node000027_Node000033"><a xlink:title=" ">
<path fill="none" stroke="#63b8ff" d="M484.25,-131.89C506.21,-126.74 537.24,-119.48 563.45,-113.34"/>
<polygon fill="#63b8ff" stroke="#63b8ff" points="564.29,-116.74 573.23,-111.05 562.69,-109.92 564.29,-116.74"/>
</a>
</g>
</g>
<!-- Node34 -->
<g id="Node000034" class="node">
<title>Node34</title>
<g id="a_Node000034"><a xlink:href="namespacephysics__.html#a6d323b672a05eb19edce0b4d818bdb7f" target="_top" xlink:title="Computes the polar angle theta.">
<polygon fill="white" stroke="#666666" points="661,-185 569,-185 569,-166 661,-166 661,-185"/>
<text text-anchor="middle" x="615" y="-173" font-family="Helvetica,sans-Serif" font-size="10.00">physics_::Theta</text>
</a>
</g>
</g>
<!-- Node27&#45;&gt;Node34 -->
<g id="edge47_Node000027_Node000034" class="edge">
<title>Node27&#45;&gt;Node34</title>
<g id="a_edge47_Node000027_Node000034"><a xlink:title=" ">
<path fill="none" stroke="#63b8ff" d="M484.25,-145.11C506.21,-150.26 537.24,-157.52 563.45,-163.66"/>
<polygon fill="#63b8ff" stroke="#63b8ff" points="562.69,-167.08 573.23,-165.95 564.29,-160.26 562.69,-167.08"/>
</a>
</g>
</g>
<!-- Node28&#45;&gt;Node28 -->
<g id="edge41_Node000028_Node000028" class="edge">
<title>Node28&#45;&gt;Node28</title>
<g id="a_edge41_Node000028_Node000028"><a xlink:title=" ">
<path fill="none" stroke="#63b8ff" d="M591.88,-56.08C580.63,-64.73 588.34,-74 615,-74 632.5,-74 641.83,-70.01 643,-64.82"/>
<polygon fill="#63b8ff" stroke="#63b8ff" points="646.05,-63.11 638.12,-56.08 639.94,-66.52 646.05,-63.11"/>
</a>
</g>
</g>
<!-- Node29 -->
<g id="Node000029" class="node">
<title>Node29</title>
<g id="a_Node000029"><a xlink:href="utils_8cxx.html#aaec9ca2d20716add3c686abd989934d0" target="_top" xlink:title=" ">
<polygon fill="white" stroke="#666666" points="782.5,-56 748.5,-56 748.5,-37 782.5,-37 782.5,-56"/>
<text text-anchor="middle" x="765.5" y="-44" font-family="Helvetica,sans-Serif" font-size="10.00">clip</text>
</a>
</g>
</g>
<!-- Node28&#45;&gt;Node29 -->
<g id="edge40_Node000028_Node000029" class="edge">
<title>Node28&#45;&gt;Node29</title>
<g id="a_edge40_Node000028_Node000029"><a xlink:title=" ">
<path fill="none" stroke="#63b8ff" d="M660.55,-46.5C685.99,-46.5 716.99,-46.5 738.48,-46.5"/>
<polygon fill="#63b8ff" stroke="#63b8ff" points="738.49,-50 748.49,-46.5 738.49,-43 738.49,-50"/>
</a>
</g>
</g>
<!-- Node30&#45;&gt;Node10 -->
<g id="edge43_Node000030_Node000010" class="edge">
<title>Node30&#45;&gt;Node10</title>
<g id="a_edge43_Node000030_Node000010"><a xlink:title=" ">
<path fill="none" stroke="#63b8ff" d="M633.77,-327.6C648.85,-328.65 670.04,-332.57 683,-345.5 723.57,-385.96 752.9,-565.66 761.73,-625.81"/>
<polygon fill="#63b8ff" stroke="#63b8ff" points="758.3,-626.48 763.18,-635.88 765.22,-625.48 758.3,-626.48"/>
</a>
</g>
</g>
<!-- Node34&#45;&gt;Node19 -->
<g id="edge48_Node000034_Node000019" class="edge">
<title>Node34&#45;&gt;Node19</title>
<g id="a_edge48_Node000034_Node000019"><a xlink:title=" ">
<path fill="none" stroke="#63b8ff" d="M661.36,-181.91C679.93,-184.54 701.35,-187.57 719.85,-190.19"/>
<polygon fill="#63b8ff" stroke="#63b8ff" points="719.39,-193.66 729.78,-191.59 720.37,-186.72 719.39,-193.66"/>
</a>
</g>
</g>
<!-- Node37 -->
<g id="Node000037" class="node">
<title>Node37</title>
<g id="a_Node000037"><a xlink:href="namespacepyc.html#ad6781dc5753b7540e035175db11bb0e2" target="_top" xlink:title=" ">
<polygon fill="white" stroke="#666666" points="355,-731 278,-731 278,-712 355,-712 355,-731"/>
<text text-anchor="middle" x="316.5" y="-719" font-family="Helvetica,sans-Serif" font-size="10.00">pyc::as_pmc</text>
</a>
</g>
</g>
<!-- Node36&#45;&gt;Node37 -->
<g id="edge52_Node000036_Node000037" class="edge">
<title>Node36&#45;&gt;Node37</title>
<g id="a_edge52_Node000036_Node000037"><a xlink:title=" ">
<path fill="none" stroke="#63b8ff" d="M222.75,-734.34C236.77,-732.4 252.92,-730.17 267.76,-728.11"/>
<polygon fill="#63b8ff" stroke="#63b8ff" points="268.37,-731.56 277.79,-726.72 267.41,-724.63 268.37,-731.56"/>
</a>
</g>
</g>
</g>
</svg>
