<?xml version="1.0" encoding="UTF-8" standalone="no"?>
<!DOCTYPE svg PUBLIC "-//W3C//DTD SVG 1.1//EN"
 "http://www.w3.org/Graphics/SVG/1.1/DTD/svg11.dtd">
<!-- Generated by graphviz version 2.43.0 (0)
 -->
<!-- Title: pyc::transform::combined::Eta Pages: 1 -->
<svg width="370pt" height="82pt"
 viewBox="0.00 0.00 370.00 82.00" xmlns="http://www.w3.org/2000/svg" xmlns:xlink="http://www.w3.org/1999/xlink">
<g id="graph0" class="graph" transform="scale(1 1) rotate(0) translate(4 78)">
<title>pyc::transform::combined::Eta</title>
<!-- Node1 -->
<g id="Node000001" class="node">
<title>Node1</title>
<g id="a_Node000001"><a xlink:title=" ">
<polygon fill="#999999" stroke="#666666" points="164,-46 0,-46 0,-27 164,-27 164,-46"/>
<text text-anchor="middle" x="82" y="-34" font-family="Helvetica,sans-Serif" font-size="10.00">pyc::transform::combined::Eta</text>
</a>
</g>
</g>
<!-- Node2 -->
<g id="Node000002" class="node">
<title>Node2</title>
<g id="a_Node000002"><a xlink:href="utils_8cxx.html#a123aed6d73594e07c6401a7a6c587808" target="_top" xlink:title=" ">
<polygon fill="white" stroke="#666666" points="281,-74 211,-74 211,-55 281,-55 281,-74"/>
<text text-anchor="middle" x="246" y="-62" font-family="Helvetica,sans-Serif" font-size="10.00">changedev</text>
</a>
</g>
</g>
<!-- Node1&#45;&gt;Node2 -->
<g id="edge1_Node000001_Node000002" class="edge">
<title>Node1&#45;&gt;Node2</title>
<g id="a_edge1_Node000001_Node000002"><a xlink:title=" ">
<path fill="none" stroke="#63b8ff" d="M138.3,-46.06C158.65,-49.58 181.43,-53.51 200.69,-56.84"/>
<polygon fill="#63b8ff" stroke="#63b8ff" points="200.25,-60.32 210.7,-58.57 201.44,-53.42 200.25,-60.32"/>
</a>
</g>
</g>
<!-- Node3 -->
<g id="Node000003" class="node">
<title>Node3</title>
<g id="a_Node000003"><a xlink:href="namespacetransform__.html#a82aaa223736b57490a8639752180e5ec" target="_top" xlink:title="Computes the pseudorapidity (Eta) from a momentum tensor.">
<polygon fill="white" stroke="#666666" points="292,-19 200,-19 200,0 292,0 292,-19"/>
<text text-anchor="middle" x="246" y="-7" font-family="Helvetica,sans-Serif" font-size="10.00">transform_::Eta</text>
</a>
</g>
</g>
<!-- Node1&#45;&gt;Node3 -->
<g id="edge2_Node000001_Node000003" class="edge">
<title>Node1&#45;&gt;Node3</title>
<g id="a_edge2_Node000001_Node000003"><a xlink:title=" ">
<path fill="none" stroke="#63b8ff" d="M140.12,-26.98C156.18,-24.3 173.62,-21.4 189.59,-18.74"/>
<polygon fill="#63b8ff" stroke="#63b8ff" points="190.55,-22.12 199.84,-17.03 189.4,-15.22 190.55,-22.12"/>
</a>
</g>
</g>
<!-- Node3&#45;&gt;Node3 -->
<g id="edge4_Node000003_Node000003" class="edge">
<title>Node3&#45;&gt;Node3</title>
<g id="a_edge4_Node000003_Node000003"><a xlink:title=" ">
<path fill="none" stroke="#63b8ff" d="M230.9,-19.08C223.55,-27.73 228.58,-37 246,-37 256.61,-37 262.63,-33.56 264.05,-28.91"/>
<polygon fill="#63b8ff" stroke="#63b8ff" points="267.33,-27.66 261.1,-19.08 260.62,-29.67 267.33,-27.66"/>
</a>
</g>
</g>
<!-- Node4 -->
<g id="Node000004" class="node">
<title>Node4</title>
<g id="a_Node000004"><a xlink:href="utils_8cxx.html#aaec9ca2d20716add3c686abd989934d0" target="_top" xlink:title=" ">
<polygon fill="white" stroke="#666666" points="362,-19 328,-19 328,0 362,0 362,-19"/>
<text text-anchor="middle" x="345" y="-7" font-family="Helvetica,sans-Serif" font-size="10.00">clip</text>
</a>
</g>
</g>
<!-- Node3&#45;&gt;Node4 -->
<g id="edge3_Node000003_Node000004" class="edge">
<title>Node3&#45;&gt;Node4</title>
<g id="a_edge3_Node000003_Node000004"><a xlink:title=" ">
<path fill="none" stroke="#63b8ff" d="M292.09,-9.5C300.8,-9.5 309.65,-9.5 317.53,-9.5"/>
<polygon fill="#63b8ff" stroke="#63b8ff" points="317.55,-13 327.55,-9.5 317.55,-6 317.55,-13"/>
</a>
</g>
</g>
</g>
</svg>
