<?xml version="1.0" encoding="UTF-8" standalone="no"?>
<!DOCTYPE svg PUBLIC "-//W3C//DTD SVG 1.1//EN"
 "http://www.w3.org/Graphics/SVG/1.1/DTD/svg11.dtd">
<!-- Generated by graphviz version 2.43.0 (0)
 -->
<!-- Title: physics_::P Pages: 1 -->
<!--zoomable 428 -->

<svg id="main" version="1.1" xmlns="http://www.w3.org/2000/svg" xmlns:xlink="http://www.w3.org/1999/xlink" xml:space="preserve" onload="init(evt)">
<style type="text/css"><![CDATA[
.node, .edge {opacity: 0.7;}
.node.selected, .edge.selected {opacity: 1;}
.edge:hover path { stroke: red; }
.edge:hover polygon { stroke: red; fill: red; }
]]></style>

<defs>
  <circle id="rim" cx="0" cy="0" r="7"/>
  <circle id="rim2" cx="0" cy="0" r="3.5"/>
  <g id="zoomPlus">
    <use xlink:href="#rim" fill="#404040"><set attributeName="fill" to="#808080" begin="zoomplus.mouseover" end="zoomplus.mouseout"/></use>
    <path d="M-4,0h8M0,-4v8" fill="none" stroke="white" stroke-width="1.5" pointer-events="none"/>
  </g>
  <g id="zoomMin">
    <use xlink:href="#rim" fill="#404040"><set attributeName="fill" to="#808080" begin="zoomminus.mouseover" end="zoomminus.mouseout"/></use>
    <path d="M-4,0h8" fill="none" stroke="white" stroke-width="1.5" pointer-events="none"/>
  </g>
  <g id="arrowUp" transform="translate(30 24)">
    <use xlink:href="#rim"/>
    <path pointer-events="none" fill="none" stroke="white" stroke-width="1.5" d="M0,-3.0v7 M-2.5,-0.5L0,-3.0L2.5,-0.5"/>
  </g>
  <g id="arrowRight" transform="rotate(90) translate(36 -43)">
    <use xlink:href="#rim"/>
    <path pointer-events="none" fill="none" stroke="white" stroke-width="1.5" d="M0,-3.0v7 M-2.5,-0.5L0,-3.0L2.5,-0.5"/>
  </g>
  <g id="arrowDown" transform="rotate(180) translate(-30 -48)">
    <use xlink:href="#rim"/>
    <path pointer-events="none" fill="none" stroke="white" stroke-width="1.5" d="M0,-3.0v7 M-2.5,-0.5L0,-3.0L2.5,-0.5"/>
  </g>
  <g id="arrowLeft" transform="rotate(270) translate(-36 17)">
    <use xlink:href="#rim"/>
    <path pointer-events="none" fill="none" stroke="white" stroke-width="1.5" d="M0,-3.0v7 M-2.5,-0.5L0,-3.0L2.5,-0.5"/>
  </g>
  <g id="resetDef">
    <use xlink:href="#rim2" fill="#404040"><set attributeName="fill" to="#808080" begin="reset.mouseover" end="reset.mouseout"/></use>
  </g>
</defs>
<script type="application/ecmascript">
var viewWidth = 1031;
var viewHeight = 428;
var sectionId = 'dynsection-20';
</script>
<script type="application/ecmascript" xlink:href="svg.min.js"/>
<svg id="graph" class="graph">
<g id="viewport">
<title>physics_::P</title>
<!-- Node1 -->
<g id="Node000001" class="node">
<title>Node1</title>
<g id="a_Node000001"><a xlink:title="Computes the momentum magnitude.">
<polygon fill="#999999" stroke="#666666" points="1023,-182 952,-182 952,-163 1023,-163 1023,-182"/>
<text text-anchor="middle" x="987.5" y="-170" font-family="Helvetica,sans-Serif" font-size="10.00">physics_::P</text>
</a>
</g>
</g>
<!-- Node1&#45;&gt;Node1 -->
<g id="edge15_Node000001_Node000001" class="edge">
<title>Node1&#45;&gt;Node1</title>
<g id="a_edge15_Node000001_Node000001"><a xlink:title=" ">
<path fill="none" stroke="#63b8ff" d="M1012.43,-191.19C1011.07,-196.2 1002.76,-200 987.5,-200 963.68,-200 956.8,-190.73 966.85,-182.08"/>
<polygon fill="#63b8ff" stroke="#63b8ff" points="1015.57,-189.65 1008.15,-182.08 1009.23,-192.62 1015.57,-189.65"/>
</a>
</g>
</g>
<!-- Node2 -->
<g id="Node000002" class="node">
<title>Node2</title>
<g id="a_Node000002"><a xlink:href="namespacenusol__.html#a526c0e4a558a1201624ea0b639bc747c" target="_top" xlink:title=" ">
<polygon fill="white" stroke="#666666" points="743,-420 633,-420 633,-401 743,-401 743,-420"/>
<text text-anchor="middle" x="688" y="-408" font-family="Helvetica,sans-Serif" font-size="10.00">nusol_::BaseMatrix</text>
</a>
</g>
</g>
<!-- Node1&#45;&gt;Node2 -->
<g id="edge1_Node000001_Node000002" class="edge">
<title>Node1&#45;&gt;Node2</title>
<g id="a_edge1_Node000001_Node000002"><a xlink:title=" ">
<path fill="none" stroke="#63b8ff" d="M979.2,-191.72C968.54,-217.78 946.61,-264.61 916,-295.5 856.55,-355.49 829.42,-357.74 752,-391.5 743.73,-395.11 734.56,-398.3 725.84,-400.99"/>
<polygon fill="#63b8ff" stroke="#63b8ff" points="982.53,-192.81 982.96,-182.23 976.02,-190.24 982.53,-192.81"/>
</a>
</g>
</g>
<!-- Node15 -->
<g id="Node000015" class="node">
<title>Node15</title>
<g id="a_Node000015"><a xlink:href="namespacephysics__.html#a9ea85f47a64c014bc999d9c2015fec4f" target="_top" xlink:title="Computes the beta factor from a momentum tensor.">
<polygon fill="white" stroke="#666666" points="895.5,-249 808.5,-249 808.5,-230 895.5,-230 895.5,-249"/>
<text text-anchor="middle" x="852" y="-237" font-family="Helvetica,sans-Serif" font-size="10.00">physics_::Beta</text>
</a>
</g>
</g>
<!-- Node1&#45;&gt;Node15 -->
<g id="edge14_Node000001_Node000015" class="edge">
<title>Node1&#45;&gt;Node15</title>
<g id="a_edge14_Node000001_Node000015"><a xlink:title=" ">
<path fill="none" stroke="#63b8ff" d="M966.58,-188.5C952.98,-198.79 934.2,-211.81 916,-220.5 908.27,-224.19 899.66,-227.35 891.35,-229.97"/>
<polygon fill="#63b8ff" stroke="#63b8ff" points="968.95,-191.09 974.71,-182.2 964.66,-185.56 968.95,-191.09"/>
</a>
</g>
</g>
<!-- Node16 -->
<g id="Node000016" class="node">
<title>Node16</title>
<g id="a_Node000016"><a xlink:href="namespacepyc_1_1physics_1_1cartesian_1_1combined.html#a8d18df9edaf934cad512b70852a5a813" target="_top" xlink:title=" ">
<polygon fill="white" stroke="#666666" points="916,-211.5 788,-211.5 788,-181.5 916,-181.5 916,-211.5"/>
<text text-anchor="start" x="796" y="-199.5" font-family="Helvetica,sans-Serif" font-size="10.00">pyc::physics::cartesian</text>
<text text-anchor="middle" x="852" y="-188.5" font-family="Helvetica,sans-Serif" font-size="10.00">::combined::P</text>
</a>
</g>
</g>
<!-- Node1&#45;&gt;Node16 -->
<g id="edge16_Node000001_Node000016" class="edge">
<title>Node1&#45;&gt;Node16</title>
<g id="a_edge16_Node000001_Node000016"><a xlink:title=" ">
<path fill="none" stroke="#63b8ff" d="M941.92,-180.51C933.6,-182.01 924.76,-183.6 916.01,-185.17"/>
<polygon fill="#63b8ff" stroke="#63b8ff" points="942.55,-183.96 951.77,-178.74 941.31,-177.07 942.55,-183.96"/>
</a>
</g>
</g>
<!-- Node17 -->
<g id="Node000017" class="node">
<title>Node17</title>
<g id="a_Node000017"><a xlink:href="namespacepyc_1_1physics_1_1polar_1_1combined.html#a5760f3a249756acd268a9c66fdf53b17" target="_top" xlink:title=" ">
<polygon fill="white" stroke="#666666" points="905.5,-163.5 798.5,-163.5 798.5,-133.5 905.5,-133.5 905.5,-163.5"/>
<text text-anchor="start" x="806.5" y="-151.5" font-family="Helvetica,sans-Serif" font-size="10.00">pyc::physics::polar</text>
<text text-anchor="middle" x="852" y="-140.5" font-family="Helvetica,sans-Serif" font-size="10.00">::combined::P</text>
</a>
</g>
</g>
<!-- Node1&#45;&gt;Node17 -->
<g id="edge17_Node000001_Node000017" class="edge">
<title>Node1&#45;&gt;Node17</title>
<g id="a_edge17_Node000001_Node000017"><a xlink:title=" ">
<path fill="none" stroke="#63b8ff" d="M941.87,-164.48C930.27,-162.39 917.66,-160.12 905.68,-157.97"/>
<polygon fill="#63b8ff" stroke="#63b8ff" points="941.31,-167.93 951.77,-166.26 942.55,-161.04 941.31,-167.93"/>
</a>
</g>
</g>
<!-- Node18 -->
<g id="Node000018" class="node">
<title>Node18</title>
<g id="a_Node000018"><a xlink:href="namespacepyc_1_1physics_1_1polar_1_1separate.html#a4de18b7ee3dff64515722df522605c7f" target="_top" xlink:title=" ">
<polygon fill="white" stroke="#666666" points="905.5,-115.5 798.5,-115.5 798.5,-85.5 905.5,-85.5 905.5,-115.5"/>
<text text-anchor="start" x="806.5" y="-103.5" font-family="Helvetica,sans-Serif" font-size="10.00">pyc::physics::polar</text>
<text text-anchor="middle" x="852" y="-92.5" font-family="Helvetica,sans-Serif" font-size="10.00">::separate::P</text>
</a>
</g>
</g>
<!-- Node1&#45;&gt;Node18 -->
<g id="edge18_Node000001_Node000018" class="edge">
<title>Node1&#45;&gt;Node18</title>
<g id="a_edge18_Node000001_Node000018"><a xlink:title=" ">
<path fill="none" stroke="#63b8ff" d="M965.87,-156.56C952.23,-146.5 933.66,-133.71 916,-124.5 909.88,-121.31 903.23,-118.31 896.63,-115.59"/>
<polygon fill="#63b8ff" stroke="#63b8ff" points="963.97,-159.51 974.07,-162.71 968.17,-153.91 963.97,-159.51"/>
</a>
</g>
</g>
<!-- Node19 -->
<g id="Node000019" class="node">
<title>Node19</title>
<g id="a_Node000019"><a xlink:href="namespacepyc_1_1physics_1_1cartesian_1_1separate.html#a3505dc653842be9622feb9094a0aa8cc" target="_top" xlink:title=" ">
<polygon fill="white" stroke="#666666" points="916,-67.5 788,-67.5 788,-37.5 916,-37.5 916,-67.5"/>
<text text-anchor="start" x="796" y="-55.5" font-family="Helvetica,sans-Serif" font-size="10.00">pyc::physics::cartesian</text>
<text text-anchor="middle" x="852" y="-44.5" font-family="Helvetica,sans-Serif" font-size="10.00">::separate::P</text>
</a>
</g>
</g>
<!-- Node1&#45;&gt;Node19 -->
<g id="edge19_Node000001_Node000019" class="edge">
<title>Node1&#45;&gt;Node19</title>
<g id="a_edge19_Node000001_Node000019"><a xlink:title=" ">
<path fill="none" stroke="#63b8ff" d="M977.1,-153.86C965.45,-132.45 943.7,-97.58 916,-76.5 911.53,-73.1 906.52,-70.13 901.33,-67.55"/>
<polygon fill="#63b8ff" stroke="#63b8ff" points="974.11,-155.68 981.86,-162.91 980.31,-152.43 974.11,-155.68"/>
</a>
</g>
</g>
<!-- Node20 -->
<g id="Node000020" class="node">
<title>Node20</title>
<g id="a_Node000020"><a xlink:href="namespacephysics__.html#a6d323b672a05eb19edce0b4d818bdb7f" target="_top" xlink:title="Computes the polar angle theta.">
<polygon fill="white" stroke="#666666" points="898,-286 806,-286 806,-267 898,-267 898,-286"/>
<text text-anchor="middle" x="852" y="-274" font-family="Helvetica,sans-Serif" font-size="10.00">physics_::Theta</text>
</a>
</g>
</g>
<!-- Node1&#45;&gt;Node20 -->
<g id="edge20_Node000001_Node000020" class="edge">
<title>Node1&#45;&gt;Node20</title>
<g id="a_edge20_Node000001_Node000020"><a xlink:title=" ">
<path fill="none" stroke="#63b8ff" d="M976.2,-190.74C964.22,-210.34 942.62,-241.01 916,-258.5 910.58,-262.06 904.45,-264.93 898.2,-267.23"/>
<polygon fill="#63b8ff" stroke="#63b8ff" points="979.22,-192.51 981.29,-182.12 973.19,-188.95 979.22,-192.51"/>
</a>
</g>
</g>
<!-- Node27 -->
<g id="Node000027" class="node">
<title>Node27</title>
<g id="a_Node000027"><a xlink:href="namespacephysics__.html#a6e76ad80e9f8bade6a2014ecb7580a76" target="_top" xlink:title="Computes the polar angle theta.">
<polygon fill="white" stroke="#666666" points="898,-19 806,-19 806,0 898,0 898,-19"/>
<text text-anchor="middle" x="852" y="-7" font-family="Helvetica,sans-Serif" font-size="10.00">physics_::Theta</text>
</a>
</g>
</g>
<!-- Node1&#45;&gt;Node27 -->
<g id="edge30_Node000001_Node000027" class="edge">
<title>Node1&#45;&gt;Node27</title>
<g id="a_edge30_Node000001_Node000027"><a xlink:title=" ">
<path fill="none" stroke="#63b8ff" d="M982.22,-152.79C974.45,-121.78 955.11,-61.72 916,-28.5 910.78,-24.06 904.54,-20.66 898.05,-18.05"/>
<polygon fill="#63b8ff" stroke="#63b8ff" points="978.87,-153.86 984.57,-162.79 985.69,-152.26 978.87,-153.86"/>
</a>
</g>
</g>
<!-- Node3 -->
<g id="Node000003" class="node">
<title>Node3</title>
<g id="a_Node000003"><a xlink:href="nusol_2tensor_2nusol_8cxx.html#ab477f38adf15df486af1a3311204aa26" target="_top" xlink:title=" ">
<polygon fill="white" stroke="#666666" points="544.5,-337 503.5,-337 503.5,-318 544.5,-318 544.5,-337"/>
<text text-anchor="middle" x="524" y="-325" font-family="Helvetica,sans-Serif" font-size="10.00">_xNu</text>
</a>
</g>
</g>
<!-- Node2&#45;&gt;Node3 -->
<g id="edge2_Node000002_Node000003" class="edge">
<title>Node2&#45;&gt;Node3</title>
<g id="a_edge2_Node000002_Node000003"><a xlink:title=" ">
<path fill="none" stroke="#63b8ff" d="M634.61,-397.13C630.92,-395.46 627.34,-393.59 624,-391.5 604,-378.99 607.45,-365.85 588,-352.5 574.71,-343.38 557.6,-336.86 544.57,-332.77"/>
<polygon fill="#63b8ff" stroke="#63b8ff" points="633.39,-400.41 643.97,-400.9 636,-393.92 633.39,-400.41"/>
</a>
</g>
</g>
<!-- Node6 -->
<g id="Node000006" class="node">
<title>Node6</title>
<g id="a_Node000006"><a xlink:href="namespacepyc_1_1nusol.html#a66ad18c125df47cd81fd3043ab4cc2f3" target="_top" xlink:title=" ">
<polygon fill="white" stroke="#666666" points="588,-420 460,-420 460,-401 588,-401 588,-420"/>
<text text-anchor="middle" x="524" y="-408" font-family="Helvetica,sans-Serif" font-size="10.00">pyc::nusol::BaseMatrix</text>
</a>
</g>
</g>
<!-- Node2&#45;&gt;Node6 -->
<g id="edge5_Node000002_Node000006" class="edge">
<title>Node2&#45;&gt;Node6</title>
<g id="a_edge5_Node000002_Node000006"><a xlink:title=" ">
<path fill="none" stroke="#63b8ff" d="M622.41,-410.5C611.15,-410.5 599.44,-410.5 588.21,-410.5"/>
<polygon fill="#63b8ff" stroke="#63b8ff" points="622.61,-414 632.61,-410.5 622.61,-407 622.61,-414"/>
</a>
</g>
</g>
<!-- Node7 -->
<g id="Node000007" class="node">
<title>Node7</title>
<g id="a_Node000007"><a xlink:href="namespacenusol__.html#a3aacd3a83799d6a470d6188008fd069a" target="_top" xlink:title=" ">
<polygon fill="white" stroke="#666666" points="565.5,-380 482.5,-380 482.5,-361 565.5,-361 565.5,-380"/>
<text text-anchor="middle" x="524" y="-368" font-family="Helvetica,sans-Serif" font-size="10.00">nusol_::Hperp</text>
</a>
</g>
</g>
<!-- Node2&#45;&gt;Node7 -->
<g id="edge6_Node000002_Node000007" class="edge">
<title>Node2&#45;&gt;Node7</title>
<g id="a_edge6_Node000002_Node000007"><a xlink:title=" ">
<path fill="none" stroke="#63b8ff" d="M638.24,-398.46C614.3,-392.55 585.87,-385.53 563.49,-380"/>
<polygon fill="#63b8ff" stroke="#63b8ff" points="637.65,-401.92 648.2,-400.92 639.33,-395.12 637.65,-401.92"/>
</a>
</g>
</g>
<!-- Node8 -->
<g id="Node000008" class="node">
<title>Node8</title>
<g id="a_Node000008"><a xlink:href="namespacenusol__.html#ac849ef3564c5ac968727dce36494fd0a" target="_top" xlink:title=" ">
<polygon fill="white" stroke="#666666" points="564.5,-297 483.5,-297 483.5,-278 564.5,-278 564.5,-297"/>
<text text-anchor="middle" x="524" y="-285" font-family="Helvetica,sans-Serif" font-size="10.00">nusol_::NuNu</text>
</a>
</g>
</g>
<!-- Node2&#45;&gt;Node8 -->
<g id="edge7_Node000002_Node000008" class="edge">
<title>Node2&#45;&gt;Node8</title>
<g id="a_edge7_Node000002_Node000008"><a xlink:title=" ">
<path fill="none" stroke="#63b8ff" d="M629.66,-395.83C627.67,-394.51 625.77,-393.07 624,-391.5 594.21,-365.11 617.22,-336.53 588,-309.5 581.45,-303.44 573.14,-299.04 564.73,-295.84"/>
<polygon fill="#63b8ff" stroke="#63b8ff" points="628.44,-399.15 638.89,-400.89 631.81,-393.02 628.44,-399.15"/>
</a>
</g>
</g>
<!-- Node4 -->
<g id="Node000004" class="node">
<title>Node4</title>
<g id="a_Node000004"><a xlink:href="namespacenusol__.html#a6f05175e14627bd3c34ffa61686b7da4" target="_top" xlink:title=" ">
<polygon fill="white" stroke="#666666" points="408.5,-337 340.5,-337 340.5,-318 408.5,-318 408.5,-337"/>
<text text-anchor="middle" x="374.5" y="-325" font-family="Helvetica,sans-Serif" font-size="10.00">nusol_::Nu</text>
</a>
</g>
</g>
<!-- Node3&#45;&gt;Node4 -->
<g id="edge3_Node000003_Node000004" class="edge">
<title>Node3&#45;&gt;Node4</title>
<g id="a_edge3_Node000003_Node000004"><a xlink:title=" ">
<path fill="none" stroke="#63b8ff" d="M493.28,-327.5C468.81,-327.5 434.13,-327.5 408.74,-327.5"/>
<polygon fill="#63b8ff" stroke="#63b8ff" points="493.41,-331 503.41,-327.5 493.41,-324 493.41,-331"/>
</a>
</g>
</g>
<!-- Node5 -->
<g id="Node000005" class="node">
<title>Node5</title>
<g id="a_Node000005"><a xlink:href="namespacepyc_1_1nusol.html#a991cfa801400211ccf412bd1a85b7b69" target="_top" xlink:title=" ">
<polygon fill="white" stroke="#666666" points="261.5,-337 175.5,-337 175.5,-318 261.5,-318 261.5,-337"/>
<text text-anchor="middle" x="218.5" y="-325" font-family="Helvetica,sans-Serif" font-size="10.00">pyc::nusol::Nu</text>
</a>
</g>
</g>
<!-- Node4&#45;&gt;Node5 -->
<g id="edge4_Node000004_Node000005" class="edge">
<title>Node4&#45;&gt;Node5</title>
<g id="a_edge4_Node000004_Node000005"><a xlink:title=" ">
<path fill="none" stroke="#63b8ff" d="M330.3,-327.5C308.8,-327.5 282.92,-327.5 261.58,-327.5"/>
<polygon fill="#63b8ff" stroke="#63b8ff" points="330.46,-331 340.46,-327.5 330.46,-324 330.46,-331"/>
</a>
</g>
</g>
<!-- Node9 -->
<g id="Node000009" class="node">
<title>Node9</title>
<g id="a_Node000009"><a xlink:href="namespacepyc_1_1nusol.html#af7bb509b120cb3314695cecd70bc5c11" target="_top" xlink:title=" ">
<polygon fill="white" stroke="#666666" points="424,-299 325,-299 325,-280 424,-280 424,-299"/>
<text text-anchor="middle" x="374.5" y="-287" font-family="Helvetica,sans-Serif" font-size="10.00">pyc::nusol::NuNu</text>
</a>
</g>
</g>
<!-- Node8&#45;&gt;Node9 -->
<g id="edge8_Node000008_Node000009" class="edge">
<title>Node8&#45;&gt;Node9</title>
<g id="a_edge8_Node000008_Node000009"><a xlink:title=" ">
<path fill="none" stroke="#63b8ff" d="M473.32,-288.17C457.44,-288.39 439.89,-288.63 424.09,-288.84"/>
<polygon fill="#63b8ff" stroke="#63b8ff" points="473.52,-291.67 483.47,-288.04 473.43,-284.67 473.52,-291.67"/>
</a>
</g>
</g>
<!-- Node10 -->
<g id="Node000010" class="node">
<title>Node10</title>
<g id="a_Node000010"><a xlink:href="namespacepyc_1_1nusol.html#a9650527ae538fa27121bedfb79a1fbe6" target="_top" xlink:title=" ">
<polygon fill="white" stroke="#666666" points="424,-262 325,-262 325,-243 424,-243 424,-262"/>
<text text-anchor="middle" x="374.5" y="-250" font-family="Helvetica,sans-Serif" font-size="10.00">pyc::nusol::NuNu</text>
</a>
</g>
</g>
<!-- Node8&#45;&gt;Node10 -->
<g id="edge9_Node000008_Node000010" class="edge">
<title>Node8&#45;&gt;Node10</title>
<g id="a_edge9_Node000008_Node000010"><a xlink:title=" ">
<path fill="none" stroke="#63b8ff" d="M473.58,-275.77C454.74,-271.3 433.52,-266.27 415.65,-262.03"/>
<polygon fill="#63b8ff" stroke="#63b8ff" points="472.93,-279.22 483.47,-278.12 474.55,-272.41 472.93,-279.22"/>
</a>
</g>
</g>
<!-- Node11 -->
<g id="Node000011" class="node">
<title>Node11</title>
<g id="a_Node000011"><a xlink:href="namespacepyc_1_1nusol.html#aaaf252028ed63bf2d561dffcd76916e2" target="_top" xlink:title=" ">
<polygon fill="white" stroke="#666666" points="268,-225 169,-225 169,-206 268,-206 268,-225"/>
<text text-anchor="middle" x="218.5" y="-213" font-family="Helvetica,sans-Serif" font-size="10.00">pyc::nusol::NuNu</text>
</a>
</g>
</g>
<!-- Node10&#45;&gt;Node11 -->
<g id="edge10_Node000010_Node000011" class="edge">
<title>Node10&#45;&gt;Node11</title>
<g id="a_edge10_Node000010_Node000011"><a xlink:title=" ">
<path fill="none" stroke="#63b8ff" d="M323.87,-240.57C302.97,-235.56 278.99,-229.79 259.29,-225.06"/>
<polygon fill="#63b8ff" stroke="#63b8ff" points="323.3,-244.04 333.84,-242.97 324.94,-237.23 323.3,-244.04"/>
</a>
</g>
</g>
<!-- Node12 -->
<g id="Node000012" class="node">
<title>Node12</title>
<g id="a_Node000012"><a xlink:href="namespacepyc_1_1nusol.html#af88804c21a54435a41be99cbc03faf30" target="_top" xlink:title=" ">
<polygon fill="white" stroke="#666666" points="268,-299 169,-299 169,-280 268,-280 268,-299"/>
<text text-anchor="middle" x="218.5" y="-287" font-family="Helvetica,sans-Serif" font-size="10.00">pyc::nusol::NuNu</text>
</a>
</g>
</g>
<!-- Node10&#45;&gt;Node12 -->
<g id="edge11_Node000010_Node000012" class="edge">
<title>Node10&#45;&gt;Node12</title>
<g id="a_edge11_Node000010_Node000012"><a xlink:title=" ">
<path fill="none" stroke="#63b8ff" d="M323.87,-264.43C302.97,-269.44 278.99,-275.21 259.29,-279.94"/>
<polygon fill="#63b8ff" stroke="#63b8ff" points="324.94,-267.77 333.84,-262.03 323.3,-260.96 324.94,-267.77"/>
</a>
</g>
</g>
<!-- Node13 -->
<g id="Node000013" class="node">
<title>Node13</title>
<g id="a_Node000013"><a xlink:href="classvalidation.html#aa436b348c281a3d676910cf7b7d575eb" target="_top" xlink:title=" ">
<polygon fill="white" stroke="#666666" points="289,-262 148,-262 148,-243 289,-243 289,-262"/>
<text text-anchor="middle" x="218.5" y="-250" font-family="Helvetica,sans-Serif" font-size="10.00">validation::reconstruction</text>
</a>
</g>
</g>
<!-- Node10&#45;&gt;Node13 -->
<g id="edge12_Node000010_Node000013" class="edge">
<title>Node10&#45;&gt;Node13</title>
<g id="a_edge12_Node000010_Node000013"><a xlink:title=" ">
<path fill="none" stroke="#63b8ff" d="M314.71,-252.5C306.3,-252.5 297.59,-252.5 289.01,-252.5"/>
<polygon fill="#63b8ff" stroke="#63b8ff" points="314.77,-256 324.77,-252.5 314.77,-249 314.77,-256"/>
</a>
</g>
</g>
<!-- Node14 -->
<g id="Node000014" class="node">
<title>Node14</title>
<g id="a_Node000014"><a xlink:href="classvalidation.html#af388ba0e867008a75602581fdc2ed0f3" target="_top" xlink:title="Alternative selection strategy method.">
<polygon fill="white" stroke="#666666" points="112,-262 0,-262 0,-243 112,-243 112,-262"/>
<text text-anchor="middle" x="56" y="-250" font-family="Helvetica,sans-Serif" font-size="10.00">validation::strategy</text>
</a>
</g>
</g>
<!-- Node13&#45;&gt;Node14 -->
<g id="edge13_Node000013_Node000014" class="edge">
<title>Node13&#45;&gt;Node14</title>
<g id="a_edge13_Node000013_Node000014"><a xlink:title=" ">
<path fill="none" stroke="#63b8ff" d="M137.54,-252.5C128.98,-252.5 120.41,-252.5 112.23,-252.5"/>
<polygon fill="#63b8ff" stroke="#63b8ff" points="137.57,-256 147.57,-252.5 137.57,-249 137.57,-256"/>
</a>
</g>
</g>
<!-- Node21 -->
<g id="Node000021" class="node">
<title>Node21</title>
<g id="a_Node000021"><a xlink:href="nusol_2tensor_2nusol_8cxx.html#a28531a30b80ecbd780392279d8a8adf3" target="_top" xlink:title=" ">
<polygon fill="white" stroke="#666666" points="717,-286 659,-286 659,-267 717,-267 717,-286"/>
<text text-anchor="middle" x="688" y="-274" font-family="Helvetica,sans-Serif" font-size="10.00">Rotation</text>
</a>
</g>
</g>
<!-- Node20&#45;&gt;Node21 -->
<g id="edge21_Node000020_Node000021" class="edge">
<title>Node20&#45;&gt;Node21</title>
<g id="a_edge21_Node000020_Node000021"><a xlink:title=" ">
<path fill="none" stroke="#63b8ff" d="M795.59,-276.5C769.16,-276.5 738.68,-276.5 717.1,-276.5"/>
<polygon fill="#63b8ff" stroke="#63b8ff" points="795.87,-280 805.87,-276.5 795.87,-273 795.87,-280"/>
</a>
</g>
</g>
<!-- Node22 -->
<g id="Node000022" class="node">
<title>Node22</title>
<g id="a_Node000022"><a xlink:href="namespacepyc_1_1operators.html#a5c947d6968337f95f86e6925acc63dfa" target="_top" xlink:title=" ">
<polygon fill="white" stroke="#666666" points="740,-200 636,-200 636,-181 740,-181 740,-200"/>
<text text-anchor="middle" x="688" y="-188" font-family="Helvetica,sans-Serif" font-size="10.00">pyc::operators::RT</text>
</a>
</g>
</g>
<!-- Node20&#45;&gt;Node22 -->
<g id="edge25_Node000020_Node000022" class="edge">
<title>Node20&#45;&gt;Node22</title>
<g id="a_edge25_Node000020_Node000022"><a xlink:title=" ">
<path fill="none" stroke="#63b8ff" d="M796.63,-263.58C793.61,-262.07 790.71,-260.38 788,-258.5 765.82,-243.07 774.07,-225.09 752,-209.5 746.49,-205.61 740.18,-202.51 733.72,-200.03"/>
<polygon fill="#63b8ff" stroke="#63b8ff" points="795.39,-266.86 805.96,-267.61 798.17,-260.43 795.39,-266.86"/>
</a>
</g>
</g>
<!-- Node23 -->
<g id="Node000023" class="node">
<title>Node23</title>
<g id="a_Node000023"><a xlink:href="namespacepyc_1_1physics_1_1cartesian_1_1combined.html#aefe1c7cb2cb523ab1118a6d1cabbfe69" target="_top" xlink:title=" ">
<polygon fill="white" stroke="#666666" points="752,-162.5 624,-162.5 624,-132.5 752,-132.5 752,-162.5"/>
<text text-anchor="start" x="632" y="-150.5" font-family="Helvetica,sans-Serif" font-size="10.00">pyc::physics::cartesian</text>
<text text-anchor="middle" x="688" y="-139.5" font-family="Helvetica,sans-Serif" font-size="10.00">::combined::Theta</text>
</a>
</g>
</g>
<!-- Node20&#45;&gt;Node23 -->
<g id="edge26_Node000020_Node000023" class="edge">
<title>Node20&#45;&gt;Node23</title>
<g id="a_edge26_Node000020_Node000023"><a xlink:title=" ">
<path fill="none" stroke="#63b8ff" d="M796.63,-264.66C793.54,-262.88 790.63,-260.84 788,-258.5 756.77,-230.64 782.01,-200.67 752,-171.5 748.48,-168.07 744.41,-165.13 740.08,-162.59"/>
<polygon fill="#63b8ff" stroke="#63b8ff" points="795.18,-267.85 805.72,-268.99 798.2,-261.53 795.18,-267.85"/>
</a>
</g>
</g>
<!-- Node24 -->
<g id="Node000024" class="node">
<title>Node24</title>
<g id="a_Node000024"><a xlink:href="namespacepyc_1_1physics_1_1polar_1_1combined.html#a6169c98dd89c2571d2871582b3fb1279" target="_top" xlink:title=" ">
<polygon fill="white" stroke="#666666" points="741.5,-382.5 634.5,-382.5 634.5,-352.5 741.5,-352.5 741.5,-382.5"/>
<text text-anchor="start" x="642.5" y="-370.5" font-family="Helvetica,sans-Serif" font-size="10.00">pyc::physics::polar</text>
<text text-anchor="middle" x="688" y="-359.5" font-family="Helvetica,sans-Serif" font-size="10.00">::combined::Theta</text>
</a>
</g>
</g>
<!-- Node20&#45;&gt;Node24 -->
<g id="edge27_Node000020_Node000024" class="edge">
<title>Node20&#45;&gt;Node24</title>
<g id="a_edge27_Node000020_Node000024"><a xlink:title=" ">
<path fill="none" stroke="#63b8ff" d="M830.67,-292.32C811.24,-306.93 780.74,-328.56 752,-343.5 745.87,-346.69 739.22,-349.68 732.62,-352.4"/>
<polygon fill="#63b8ff" stroke="#63b8ff" points="832.93,-294.99 838.77,-286.15 828.69,-289.43 832.93,-294.99"/>
</a>
</g>
</g>
<!-- Node25 -->
<g id="Node000025" class="node">
<title>Node25</title>
<g id="a_Node000025"><a xlink:href="namespacepyc_1_1physics_1_1polar_1_1separate.html#a40b284f030bc35051fe4ceb68e0b560e" target="_top" xlink:title=" ">
<polygon fill="white" stroke="#666666" points="741.5,-334.5 634.5,-334.5 634.5,-304.5 741.5,-304.5 741.5,-334.5"/>
<text text-anchor="start" x="642.5" y="-322.5" font-family="Helvetica,sans-Serif" font-size="10.00">pyc::physics::polar</text>
<text text-anchor="middle" x="688" y="-311.5" font-family="Helvetica,sans-Serif" font-size="10.00">::separate::Theta</text>
</a>
</g>
</g>
<!-- Node20&#45;&gt;Node25 -->
<g id="edge28_Node000020_Node000025" class="edge">
<title>Node20&#45;&gt;Node25</title>
<g id="a_edge28_Node000020_Node000025"><a xlink:title=" ">
<path fill="none" stroke="#63b8ff" d="M805.35,-288.62C785.57,-293.87 762.29,-300.05 741.77,-305.49"/>
<polygon fill="#63b8ff" stroke="#63b8ff" points="806.28,-291.99 815.05,-286.04 804.48,-285.23 806.28,-291.99"/>
</a>
</g>
</g>
<!-- Node26 -->
<g id="Node000026" class="node">
<title>Node26</title>
<g id="a_Node000026"><a xlink:href="namespacepyc_1_1physics_1_1cartesian_1_1separate.html#a82aecb485f9b6534ebcf8921b03c1bbc" target="_top" xlink:title=" ">
<polygon fill="white" stroke="#666666" points="752,-248.5 624,-248.5 624,-218.5 752,-218.5 752,-248.5"/>
<text text-anchor="start" x="632" y="-236.5" font-family="Helvetica,sans-Serif" font-size="10.00">pyc::physics::cartesian</text>
<text text-anchor="middle" x="688" y="-225.5" font-family="Helvetica,sans-Serif" font-size="10.00">::separate::Theta</text>
</a>
</g>
</g>
<!-- Node20&#45;&gt;Node26 -->
<g id="edge29_Node000020_Node000026" class="edge">
<title>Node20&#45;&gt;Node26</title>
<g id="a_edge29_Node000020_Node000026"><a xlink:title=" ">
<path fill="none" stroke="#63b8ff" d="M805.36,-264.38C786.78,-259.45 765.1,-253.7 745.54,-248.51"/>
<polygon fill="#63b8ff" stroke="#63b8ff" points="804.48,-267.77 815.05,-266.96 806.28,-261.01 804.48,-267.77"/>
</a>
</g>
</g>
<!-- Node21&#45;&gt;Node3 -->
<g id="edge22_Node000021_Node000003" class="edge">
<title>Node21&#45;&gt;Node3</title>
<g id="a_edge22_Node000021_Node000003"><a xlink:title=" ">
<path fill="none" stroke="#63b8ff" d="M648.96,-287.84C640.72,-290.33 632.06,-292.98 624,-295.5 596.41,-304.12 564.64,-314.46 544.69,-321.01"/>
<polygon fill="#63b8ff" stroke="#63b8ff" points="650.17,-291.13 658.74,-284.89 648.15,-284.43 650.17,-291.13"/>
</a>
</g>
</g>
<!-- Node21&#45;&gt;Node7 -->
<g id="edge23_Node000021_Node000007" class="edge">
<title>Node21&#45;&gt;Node7</title>
<g id="a_edge23_Node000021_Node000007"><a xlink:title=" ">
<path fill="none" stroke="#63b8ff" d="M649.1,-283.52C640.33,-286.3 631.41,-290.16 624,-295.5 601.49,-311.72 609.92,-329.49 588,-346.5 580.05,-352.67 570.33,-357.41 560.93,-360.97"/>
<polygon fill="#63b8ff" stroke="#63b8ff" points="650.15,-286.87 658.85,-280.82 648.28,-280.12 650.15,-286.87"/>
</a>
</g>
</g>
<!-- Node21&#45;&gt;Node8 -->
<g id="edge24_Node000021_Node000008" class="edge">
<title>Node21&#45;&gt;Node8</title>
<g id="a_edge24_Node000021_Node000008"><a xlink:title=" ">
<path fill="none" stroke="#63b8ff" d="M648.8,-279.09C623.49,-280.81 590.35,-283.06 564.73,-284.8"/>
<polygon fill="#63b8ff" stroke="#63b8ff" points="649.04,-282.59 658.78,-278.42 648.57,-275.6 649.04,-282.59"/>
</a>
</g>
</g>
</g>
</svg>

<g id="navigator" transform="translate(0 0)" fill="#404254">
  <rect fill="#f2f5e9" fill-opacity="0.5" stroke="#606060" stroke-width=".5" x="0" y="0" width="60" height="60"/>
  <use id="zoomplus" xlink:href="#zoomPlus" x="17" y="9" onmousedown="handleZoom(evt,'in')"/>
  <use id="zoomminus" xlink:href="#zoomMin" x="42" y="9" onmousedown="handleZoom(evt,'out')"/>
  <use id="reset" xlink:href="#resetDef" x="30" y="36" onmousedown="handleReset()"/>
   <use id="arrowup" xlink:href="#arrowUp" x="0" y="0" onmousedown="handlePan(0,-1)"/>
  <use id="arrowright" xlink:href="#arrowRight" x="0" y="0" onmousedown="handlePan(1,0)"/>
  <use id="arrowdown" xlink:href="#arrowDown" x="0" y="0" onmousedown="handlePan(0,1)"/>
  <use id="arrowleft" xlink:href="#arrowLeft" x="0" y="0" onmousedown="handlePan(-1,0)"/>
</g>
<svg viewBox="0 0 15 15" width="100%" height="30px" preserveAspectRatio="xMaxYMin meet">
 <g id="arrow_out" transform="scale(0.3 0.3)">
  <a xlink:href="namespacephysics___ac12a78b1943348345b940e510930f420_icgraph_org.svg" target="_base">
   <rect id="button" ry="5" rx="5" y="6" x="6" height="38" width="38"
        fill="#f2f5e9" fill-opacity="0.5" stroke="#606060" stroke-width="1.0"/>
   <path id="arrow"
     d="M 11.500037,31.436501 C 11.940474,20.09759 22.043105,11.32322 32.158766,21.979434 L 37.068811,17.246167 C 37.068811,17.246167 37.088388,32 37.088388,32 L 22.160133,31.978069 C 22.160133,31.978069 26.997745,27.140456 26.997745,27.140456 C 18.528582,18.264221 13.291696,25.230495 11.500037,31.436501 z"
     style="fill:#404040;"/>
  </a>
 </g>
</svg>

<style type='text/css'>
<![CDATA[
[data-mouse-over-selected='false'] { opacity: 0.7; }
[data-mouse-over-selected='true']  { opacity: 1.0; }
]]>
</style>
<script type="application/ecmascript"><![CDATA[
document.addEventListener('DOMContentLoaded', (event) => {
  highlightEdges();
  highlightAdjacentNodes();
});
]]></script>
</svg>
