<?xml version="1.0" encoding="UTF-8" standalone="no"?>
<!DOCTYPE svg PUBLIC "-//W3C//DTD SVG 1.1//EN"
 "http://www.w3.org/Graphics/SVG/1.1/DTD/svg11.dtd">
<!-- Generated by graphviz version 2.43.0 (0)
 -->
<!-- Title: pyc::transform::separate::PtEtaPhi Pages: 1 -->
<svg width="367pt" height="82pt"
 viewBox="0.00 0.00 367.00 82.00" xmlns="http://www.w3.org/2000/svg" xmlns:xlink="http://www.w3.org/1999/xlink">

<svg id="main" version="1.1" xmlns="http://www.w3.org/2000/svg" xmlns:xlink="http://www.w3.org/1999/xlink" xml:space="preserve" onload="init(evt)">
<style type="text/css"><![CDATA[
.node, .edge {opacity: 0.7;}
.node.selected, .edge.selected {opacity: 1;}
.edge:hover path { stroke: red; }
.edge:hover polygon { stroke: red; fill: red; }
]]></style>
<script type="application/ecmascript" xlink:href="svg.min.js"/>
<svg id="graph" class="graph">
<g id="graph0" class="graph" transform="scale(1 1) rotate(0) translate(4 78)">
<title>pyc::transform::separate::PtEtaPhi</title>
<!-- Node1 -->
<g id="Node000001" class="node">
<title>Node1</title>
<g id="a_Node000001"><a xlink:title=" ">
<polygon fill="#999999" stroke="#666666" points="137,-51.5 0,-51.5 0,-21.5 137,-21.5 137,-51.5"/>
<text text-anchor="start" x="8" y="-39.5" font-family="Helvetica,sans-Serif" font-size="10.00">pyc::transform::separate</text>
<text text-anchor="middle" x="68.5" y="-28.5" font-family="Helvetica,sans-Serif" font-size="10.00">::PtEtaPhi</text>
</a>
</g>
</g>
<!-- Node2 -->
<g id="Node000002" class="node">
<title>Node2</title>
<g id="a_Node000002"><a xlink:href="utils_8cxx.html#a123aed6d73594e07c6401a7a6c587808" target="_top" xlink:title=" ">
<polygon fill="white" stroke="#666666" points="266,-74 196,-74 196,-55 266,-55 266,-74"/>
<text text-anchor="middle" x="231" y="-62" font-family="Helvetica,sans-Serif" font-size="10.00">changedev</text>
</a>
</g>
</g>
<!-- Node1&#45;&gt;Node2 -->
<g id="edge1_Node000001_Node000002" class="edge">
<title>Node1&#45;&gt;Node2</title>
<g id="a_edge1_Node000001_Node000002"><a xlink:title=" ">
<path fill="none" stroke="#63b8ff" d="M137.1,-48.29C153.53,-51.16 170.68,-54.15 185.71,-56.77"/>
<polygon fill="#63b8ff" stroke="#63b8ff" points="185.29,-60.25 195.74,-58.52 186.49,-53.36 185.29,-60.25"/>
</a>
</g>
</g>
<!-- Node3 -->
<g id="Node000003" class="node">
<title>Node3</title>
<g id="a_Node000003"><a xlink:href="namespacetransform__.html#adf008ef1e94217cd7a7dae8c53a127a6" target="_top" xlink:title="Computes the transverse momentum (Pt), pseudorapidity (Eta), and azimuthal angle (Phi) from a momentu...">
<polygon fill="white" stroke="#666666" points="289,-19 173,-19 173,0 289,0 289,-19"/>
<text text-anchor="middle" x="231" y="-7" font-family="Helvetica,sans-Serif" font-size="10.00">transform_::PtEtaPhi</text>
</a>
</g>
</g>
<!-- Node1&#45;&gt;Node3 -->
<g id="edge2_Node000001_Node000003" class="edge">
<title>Node1&#45;&gt;Node3</title>
<g id="a_edge2_Node000001_Node000003"><a xlink:title=" ">
<path fill="none" stroke="#63b8ff" d="M137.1,-25.13C145.72,-23.68 154.54,-22.19 163.15,-20.75"/>
<polygon fill="#63b8ff" stroke="#63b8ff" points="163.85,-24.18 173.13,-19.07 162.69,-17.27 163.85,-24.18"/>
</a>
</g>
</g>
<!-- Node3&#45;&gt;Node3 -->
<g id="edge4_Node000003_Node000003" class="edge">
<title>Node3&#45;&gt;Node3</title>
<g id="a_edge4_Node000003_Node000003"><a xlink:title=" ">
<path fill="none" stroke="#63b8ff" d="M214.05,-19.08C205.8,-27.73 211.45,-37 231,-37 243.22,-37 250.01,-33.38 251.37,-28.55"/>
<polygon fill="#63b8ff" stroke="#63b8ff" points="254.64,-27.3 247.95,-19.08 248.05,-29.68 254.64,-27.3"/>
</a>
</g>
</g>
<!-- Node4 -->
<g id="Node000004" class="node">
<title>Node4</title>
<g id="a_Node000004"><a xlink:href="utils_8cxx.html#aaec9ca2d20716add3c686abd989934d0" target="_top" xlink:title=" ">
<polygon fill="white" stroke="#666666" points="359,-19 325,-19 325,0 359,0 359,-19"/>
<text text-anchor="middle" x="342" y="-7" font-family="Helvetica,sans-Serif" font-size="10.00">clip</text>
</a>
</g>
</g>
<!-- Node3&#45;&gt;Node4 -->
<g id="edge3_Node000003_Node000004" class="edge">
<title>Node3&#45;&gt;Node4</title>
<g id="a_edge3_Node000003_Node000004"><a xlink:title=" ">
<path fill="none" stroke="#63b8ff" d="M289.05,-9.5C298.02,-9.5 306.89,-9.5 314.69,-9.5"/>
<polygon fill="#63b8ff" stroke="#63b8ff" points="314.92,-13 324.92,-9.5 314.92,-6 314.92,-13"/>
</a>
</g>
</g>
</g>
</svg>
</svg>

<style type='text/css'>
<![CDATA[
[data-mouse-over-selected='false'] { opacity: 0.7; }
[data-mouse-over-selected='true']  { opacity: 1.0; }
]]>
</style>
<script type="application/ecmascript"><![CDATA[
document.addEventListener('DOMContentLoaded', (event) => {
  highlightEdges();
  highlightAdjacentNodes();
});
]]></script>
</svg>
