<?xml version="1.0" encoding="UTF-8" standalone="no"?>
<!DOCTYPE svg PUBLIC "-//W3C//DTD SVG 1.1//EN"
 "http://www.w3.org/Graphics/SVG/1.1/DTD/svg11.dtd">
<!-- Generated by graphviz version 2.43.0 (0)
 -->
<!-- Title: pyc::transform::combined::PtEtaPhi Pages: 1 -->
<svg width="372pt" height="82pt"
 viewBox="0.00 0.00 372.00 82.00" xmlns="http://www.w3.org/2000/svg" xmlns:xlink="http://www.w3.org/1999/xlink">

<svg id="main" version="1.1" xmlns="http://www.w3.org/2000/svg" xmlns:xlink="http://www.w3.org/1999/xlink" xml:space="preserve" onload="init(evt)">
<style type="text/css"><![CDATA[
.node, .edge {opacity: 0.7;}
.node.selected, .edge.selected {opacity: 1;}
.edge:hover path { stroke: red; }
.edge:hover polygon { stroke: red; fill: red; }
]]></style>
<script type="application/ecmascript" xlink:href="svg.min.js"/>
<svg id="graph" class="graph">
<g id="graph0" class="graph" transform="scale(1 1) rotate(0) translate(4 78)">
<title>pyc::transform::combined::PtEtaPhi</title>
<!-- Node1 -->
<g id="Node000001" class="node">
<title>Node1</title>
<g id="a_Node000001"><a xlink:title=" ">
<polygon fill="#999999" stroke="#666666" points="142,-51.5 0,-51.5 0,-21.5 142,-21.5 142,-51.5"/>
<text text-anchor="start" x="8" y="-39.5" font-family="Helvetica,sans-Serif" font-size="10.00">pyc::transform::combined</text>
<text text-anchor="middle" x="71" y="-28.5" font-family="Helvetica,sans-Serif" font-size="10.00">::PtEtaPhi</text>
</a>
</g>
</g>
<!-- Node2 -->
<g id="Node000002" class="node">
<title>Node2</title>
<g id="a_Node000002"><a xlink:href="utils_8cxx.html#a123aed6d73594e07c6401a7a6c587808" target="_top" xlink:title=" ">
<polygon fill="white" stroke="#666666" points="271,-74 201,-74 201,-55 271,-55 271,-74"/>
<text text-anchor="middle" x="236" y="-62" font-family="Helvetica,sans-Serif" font-size="10.00">changedev</text>
</a>
</g>
</g>
<!-- Node1&#45;&gt;Node2 -->
<g id="edge1_Node000001_Node000002" class="edge">
<title>Node1&#45;&gt;Node2</title>
<g id="a_edge1_Node000001_Node000002"><a xlink:title=" ">
<path fill="none" stroke="#63b8ff" d="M142.07,-48.54C158.62,-51.38 175.8,-54.33 190.83,-56.91"/>
<polygon fill="#63b8ff" stroke="#63b8ff" points="190.41,-60.39 200.85,-58.63 191.59,-53.49 190.41,-60.39"/>
</a>
</g>
</g>
<!-- Node3 -->
<g id="Node000003" class="node">
<title>Node3</title>
<g id="a_Node000003"><a xlink:href="namespacetransform__.html#adf008ef1e94217cd7a7dae8c53a127a6" target="_top" xlink:title="Computes the transverse momentum (Pt), pseudorapidity (Eta), and azimuthal angle (Phi) from a momentu...">
<polygon fill="white" stroke="#666666" points="294,-19 178,-19 178,0 294,0 294,-19"/>
<text text-anchor="middle" x="236" y="-7" font-family="Helvetica,sans-Serif" font-size="10.00">transform_::PtEtaPhi</text>
</a>
</g>
</g>
<!-- Node1&#45;&gt;Node3 -->
<g id="edge2_Node000001_Node000003" class="edge">
<title>Node1&#45;&gt;Node3</title>
<g id="a_edge2_Node000001_Node000003"><a xlink:title=" ">
<path fill="none" stroke="#63b8ff" d="M142.07,-24.89C150.69,-23.46 159.49,-22.01 168.06,-20.59"/>
<polygon fill="#63b8ff" stroke="#63b8ff" points="168.7,-24.03 178,-18.94 167.56,-17.12 168.7,-24.03"/>
</a>
</g>
</g>
<!-- Node3&#45;&gt;Node3 -->
<g id="edge4_Node000003_Node000003" class="edge">
<title>Node3&#45;&gt;Node3</title>
<g id="a_edge4_Node000003_Node000003"><a xlink:title=" ">
<path fill="none" stroke="#63b8ff" d="M219.05,-19.08C210.8,-27.73 216.45,-37 236,-37 248.22,-37 255.01,-33.38 256.37,-28.55"/>
<polygon fill="#63b8ff" stroke="#63b8ff" points="259.64,-27.3 252.95,-19.08 253.05,-29.68 259.64,-27.3"/>
</a>
</g>
</g>
<!-- Node4 -->
<g id="Node000004" class="node">
<title>Node4</title>
<g id="a_Node000004"><a xlink:href="utils_8cxx.html#aaec9ca2d20716add3c686abd989934d0" target="_top" xlink:title=" ">
<polygon fill="white" stroke="#666666" points="364,-19 330,-19 330,0 364,0 364,-19"/>
<text text-anchor="middle" x="347" y="-7" font-family="Helvetica,sans-Serif" font-size="10.00">clip</text>
</a>
</g>
</g>
<!-- Node3&#45;&gt;Node4 -->
<g id="edge3_Node000003_Node000004" class="edge">
<title>Node3&#45;&gt;Node4</title>
<g id="a_edge3_Node000003_Node000004"><a xlink:title=" ">
<path fill="none" stroke="#63b8ff" d="M294.05,-9.5C303.02,-9.5 311.89,-9.5 319.69,-9.5"/>
<polygon fill="#63b8ff" stroke="#63b8ff" points="319.92,-13 329.92,-9.5 319.92,-6 319.92,-13"/>
</a>
</g>
</g>
</g>
</svg>
</svg>

<style type='text/css'>
<![CDATA[
[data-mouse-over-selected='false'] { opacity: 0.7; }
[data-mouse-over-selected='true']  { opacity: 1.0; }
]]>
</style>
<script type="application/ecmascript"><![CDATA[
document.addEventListener('DOMContentLoaded', (event) => {
  highlightEdges();
  highlightAdjacentNodes();
});
]]></script>
</svg>
