<?xml version="1.0" encoding="UTF-8" standalone="no"?>
<!DOCTYPE svg PUBLIC "-//W3C//DTD SVG 1.1//EN"
 "http://www.w3.org/Graphics/SVG/1.1/DTD/svg11.dtd">
<!-- Generated by graphviz version 2.43.0 (0)
 -->
<!-- Title: pyc::graph::polar::edge_aggregation Pages: 1 -->
<!--zoomable 138 -->

<svg id="main" version="1.1" xmlns="http://www.w3.org/2000/svg" xmlns:xlink="http://www.w3.org/1999/xlink" xml:space="preserve" onload="init(evt)">
<style type="text/css"><![CDATA[
.node, .edge {opacity: 0.7;}
.node.selected, .edge.selected {opacity: 1;}
.edge:hover path { stroke: red; }
.edge:hover polygon { stroke: red; fill: red; }
]]></style>

<defs>
  <circle id="rim" cx="0" cy="0" r="7"/>
  <circle id="rim2" cx="0" cy="0" r="3.5"/>
  <g id="zoomPlus">
    <use xlink:href="#rim" fill="#404040"><set attributeName="fill" to="#808080" begin="zoomplus.mouseover" end="zoomplus.mouseout"/></use>
    <path d="M-4,0h8M0,-4v8" fill="none" stroke="white" stroke-width="1.5" pointer-events="none"/>
  </g>
  <g id="zoomMin">
    <use xlink:href="#rim" fill="#404040"><set attributeName="fill" to="#808080" begin="zoomminus.mouseover" end="zoomminus.mouseout"/></use>
    <path d="M-4,0h8" fill="none" stroke="white" stroke-width="1.5" pointer-events="none"/>
  </g>
  <g id="arrowUp" transform="translate(30 24)">
    <use xlink:href="#rim"/>
    <path pointer-events="none" fill="none" stroke="white" stroke-width="1.5" d="M0,-3.0v7 M-2.5,-0.5L0,-3.0L2.5,-0.5"/>
  </g>
  <g id="arrowRight" transform="rotate(90) translate(36 -43)">
    <use xlink:href="#rim"/>
    <path pointer-events="none" fill="none" stroke="white" stroke-width="1.5" d="M0,-3.0v7 M-2.5,-0.5L0,-3.0L2.5,-0.5"/>
  </g>
  <g id="arrowDown" transform="rotate(180) translate(-30 -48)">
    <use xlink:href="#rim"/>
    <path pointer-events="none" fill="none" stroke="white" stroke-width="1.5" d="M0,-3.0v7 M-2.5,-0.5L0,-3.0L2.5,-0.5"/>
  </g>
  <g id="arrowLeft" transform="rotate(270) translate(-36 17)">
    <use xlink:href="#rim"/>
    <path pointer-events="none" fill="none" stroke="white" stroke-width="1.5" d="M0,-3.0v7 M-2.5,-0.5L0,-3.0L2.5,-0.5"/>
  </g>
  <g id="resetDef">
    <use xlink:href="#rim2" fill="#404040"><set attributeName="fill" to="#808080" begin="reset.mouseover" end="reset.mouseout"/></use>
  </g>
</defs>
<script type="application/ecmascript">
var viewWidth = 562;
var viewHeight = 138;
var sectionId = 'dynsection-1';
</script>
<script type="application/ecmascript" xlink:href="svg.min.js"/>
<svg id="graph" class="graph">
<g id="viewport">
<title>pyc::graph::polar::edge_aggregation</title>
<!-- Node1 -->
<g id="Node000001" class="node">
<title>Node1</title>
<g id="a_Node000001"><a xlink:title=" ">
<polygon fill="#999999" stroke="#666666" points="104,-79.5 0,-79.5 0,-49.5 104,-49.5 104,-79.5"/>
<text text-anchor="start" x="8" y="-67.5" font-family="Helvetica,sans-Serif" font-size="10.00">pyc::graph::polar::</text>
<text text-anchor="middle" x="52" y="-56.5" font-family="Helvetica,sans-Serif" font-size="10.00">edge_aggregation</text>
</a>
</g>
</g>
<!-- Node2 -->
<g id="Node000002" class="node">
<title>Node2</title>
<g id="a_Node000002"><a xlink:href="utils_8cxx.html#a123aed6d73594e07c6401a7a6c587808" target="_top" xlink:title=" ">
<polygon fill="white" stroke="#666666" points="246.5,-130 176.5,-130 176.5,-111 246.5,-111 246.5,-130"/>
<text text-anchor="middle" x="211.5" y="-118" font-family="Helvetica,sans-Serif" font-size="10.00">changedev</text>
</a>
</g>
</g>
<!-- Node1&#45;&gt;Node2 -->
<g id="edge1_Node000001_Node000002" class="edge">
<title>Node1&#45;&gt;Node2</title>
<g id="a_edge1_Node000001_Node000002"><a xlink:title=" ">
<path fill="none" stroke="#63b8ff" d="M84.33,-79.65C100.67,-87.18 121.14,-96.02 140,-102.5 148.51,-105.42 157.74,-108.11 166.63,-110.47"/>
<polygon fill="#63b8ff" stroke="#63b8ff" points="165.91,-113.9 176.46,-112.99 167.64,-107.12 165.91,-113.9"/>
</a>
</g>
</g>
<!-- Node3 -->
<g id="Node000003" class="node">
<title>Node3</title>
<g id="a_Node000003"><a xlink:href="namespacegraph__.html#a7249186f32a05a8ff1601bff5deabdef" target="_top" xlink:title=" ">
<polygon fill="white" stroke="#666666" points="283,-93 140,-93 140,-74 283,-74 283,-93"/>
<text text-anchor="middle" x="211.5" y="-81" font-family="Helvetica,sans-Serif" font-size="10.00">graph_::edge_aggregation</text>
</a>
</g>
</g>
<!-- Node1&#45;&gt;Node3 -->
<g id="edge2_Node000001_Node000003" class="edge">
<title>Node1&#45;&gt;Node3</title>
<g id="a_edge2_Node000001_Node000003"><a xlink:title=" ">
<path fill="none" stroke="#63b8ff" d="M104.14,-70.67C112.33,-71.66 120.99,-72.7 129.68,-73.75"/>
<polygon fill="#63b8ff" stroke="#63b8ff" points="129.53,-77.26 139.87,-74.98 130.36,-70.31 129.53,-77.26"/>
</a>
</g>
</g>
<!-- Node5 -->
<g id="Node000005" class="node">
<title>Node5</title>
<g id="a_Node000005"><a xlink:href="namespacetransform__.html#a87dc88421ea78ec3b9c73c86cc5ade19" target="_top" xlink:title="Computes the 4&#45;momentum (Px, Py, Pz, E).">
<polygon fill="white" stroke="#666666" points="270,-56 153,-56 153,-37 270,-37 270,-56"/>
<text text-anchor="middle" x="211.5" y="-44" font-family="Helvetica,sans-Serif" font-size="10.00">transform_::PxPyPzE</text>
</a>
</g>
</g>
<!-- Node1&#45;&gt;Node5 -->
<g id="edge4_Node000001_Node000005" class="edge">
<title>Node1&#45;&gt;Node5</title>
<g id="a_edge4_Node000001_Node000005"><a xlink:title=" ">
<path fill="none" stroke="#63b8ff" d="M104.14,-58.66C116.4,-57.25 129.68,-55.74 142.57,-54.26"/>
<polygon fill="#63b8ff" stroke="#63b8ff" points="143.26,-57.71 152.8,-53.09 142.46,-50.75 143.26,-57.71"/>
</a>
</g>
</g>
<!-- Node10 -->
<g id="Node000010" class="node">
<title>Node10</title>
<g id="a_Node000010"><a xlink:href="namespacepyc.html#ab174cc51f6efef06bdb0ba47ec3fe3bf" target="_top" xlink:title=" ">
<polygon fill="white" stroke="#666666" points="258,-19 165,-19 165,0 258,0 258,-19"/>
<text text-anchor="middle" x="211.5" y="-7" font-family="Helvetica,sans-Serif" font-size="10.00">pyc::std_to_dict</text>
</a>
</g>
</g>
<!-- Node1&#45;&gt;Node10 -->
<g id="edge9_Node000001_Node000010" class="edge">
<title>Node1&#45;&gt;Node10</title>
<g id="a_edge9_Node000001_Node000010"><a xlink:title=" ">
<path fill="none" stroke="#63b8ff" d="M86.49,-49.45C102.5,-42.57 122.05,-34.6 140,-28.5 146.93,-26.14 154.32,-23.88 161.61,-21.8"/>
<polygon fill="#63b8ff" stroke="#63b8ff" points="162.75,-25.11 171.44,-19.06 160.87,-18.37 162.75,-25.11"/>
</a>
</g>
</g>
<!-- Node4 -->
<g id="Node000004" class="node">
<title>Node4</title>
<g id="a_Node000004"><a xlink:href="utils_8cxx.html#a1652e53abd2299dd0f10e093948e4fa3" target="_top" xlink:title=" ">
<polygon fill="white" stroke="#666666" points="402.5,-93 346.5,-93 346.5,-74 402.5,-74 402.5,-93"/>
<text text-anchor="middle" x="374.5" y="-81" font-family="Helvetica,sans-Serif" font-size="10.00">MakeOp</text>
</a>
</g>
</g>
<!-- Node3&#45;&gt;Node4 -->
<g id="edge3_Node000003_Node000004" class="edge">
<title>Node3&#45;&gt;Node4</title>
<g id="a_edge3_Node000003_Node000004"><a xlink:title=" ">
<path fill="none" stroke="#63b8ff" d="M283.12,-83.5C301.24,-83.5 320.04,-83.5 335.77,-83.5"/>
<polygon fill="#63b8ff" stroke="#63b8ff" points="336.13,-87 346.13,-83.5 336.13,-80 336.13,-87"/>
</a>
</g>
</g>
<!-- Node6 -->
<g id="Node000006" class="node">
<title>Node6</title>
<g id="a_Node000006"><a xlink:href="namespacetransform__.html#aa38819d479d31edd3f79b4f8e96ef8be" target="_top" xlink:title="Computes the 3&#45;momentum (Px, Py, Pz).">
<polygon fill="white" stroke="#666666" points="430,-56 319,-56 319,-37 430,-37 430,-56"/>
<text text-anchor="middle" x="374.5" y="-44" font-family="Helvetica,sans-Serif" font-size="10.00">transform_::PxPyPz</text>
</a>
</g>
</g>
<!-- Node5&#45;&gt;Node6 -->
<g id="edge5_Node000005_Node000006" class="edge">
<title>Node5&#45;&gt;Node6</title>
<g id="a_edge5_Node000005_Node000006"><a xlink:title=" ">
<path fill="none" stroke="#63b8ff" d="M270.17,-46.5C282.7,-46.5 296.04,-46.5 308.82,-46.5"/>
<polygon fill="#63b8ff" stroke="#63b8ff" points="308.92,-50 318.92,-46.5 308.92,-43 308.92,-50"/>
</a>
</g>
</g>
<!-- Node7 -->
<g id="Node000007" class="node">
<title>Node7</title>
<g id="a_Node000007"><a xlink:href="namespacetransform__.html#a4573dda96168ebbd38a408e64cc3d5ff" target="_top" xlink:title="Computes the x&#45;component of momentum (Px).">
<polygon fill="white" stroke="#666666" points="554,-93 466,-93 466,-74 554,-74 554,-93"/>
<text text-anchor="middle" x="510" y="-81" font-family="Helvetica,sans-Serif" font-size="10.00">transform_::Px</text>
</a>
</g>
</g>
<!-- Node6&#45;&gt;Node7 -->
<g id="edge6_Node000006_Node000007" class="edge">
<title>Node6&#45;&gt;Node7</title>
<g id="a_edge6_Node000006_Node000007"><a xlink:title=" ">
<path fill="none" stroke="#63b8ff" d="M409.88,-56.03C426.41,-60.61 446.44,-66.16 464.15,-71.07"/>
<polygon fill="#63b8ff" stroke="#63b8ff" points="463.7,-74.58 474.27,-73.88 465.57,-67.83 463.7,-74.58"/>
</a>
</g>
</g>
<!-- Node8 -->
<g id="Node000008" class="node">
<title>Node8</title>
<g id="a_Node000008"><a xlink:href="namespacetransform__.html#a51363ab29a6390a86a8ea75573a7a196" target="_top" xlink:title="Computes the y&#45;component of momentum (Py).">
<polygon fill="white" stroke="#666666" points="554,-56 466,-56 466,-37 554,-37 554,-56"/>
<text text-anchor="middle" x="510" y="-44" font-family="Helvetica,sans-Serif" font-size="10.00">transform_::Py</text>
</a>
</g>
</g>
<!-- Node6&#45;&gt;Node8 -->
<g id="edge7_Node000006_Node000008" class="edge">
<title>Node6&#45;&gt;Node8</title>
<g id="a_edge7_Node000006_Node000008"><a xlink:title=" ">
<path fill="none" stroke="#63b8ff" d="M430.18,-46.5C438.58,-46.5 447.24,-46.5 455.61,-46.5"/>
<polygon fill="#63b8ff" stroke="#63b8ff" points="455.63,-50 465.63,-46.5 455.63,-43 455.63,-50"/>
</a>
</g>
</g>
<!-- Node9 -->
<g id="Node000009" class="node">
<title>Node9</title>
<g id="a_Node000009"><a xlink:href="namespacetransform__.html#a28be39b0041a97b1667ccd1ff301f784" target="_top" xlink:title="Computes the z&#45;component of momentum (Pz).">
<polygon fill="white" stroke="#666666" points="553.5,-19 466.5,-19 466.5,0 553.5,0 553.5,-19"/>
<text text-anchor="middle" x="510" y="-7" font-family="Helvetica,sans-Serif" font-size="10.00">transform_::Pz</text>
</a>
</g>
</g>
<!-- Node6&#45;&gt;Node9 -->
<g id="edge8_Node000006_Node000009" class="edge">
<title>Node6&#45;&gt;Node9</title>
<g id="a_edge8_Node000006_Node000009"><a xlink:title=" ">
<path fill="none" stroke="#63b8ff" d="M409.88,-36.97C426.41,-32.39 446.44,-26.84 464.15,-21.93"/>
<polygon fill="#63b8ff" stroke="#63b8ff" points="465.57,-25.17 474.27,-19.12 463.7,-18.42 465.57,-25.17"/>
</a>
</g>
</g>
</g>
</svg>

<g id="navigator" transform="translate(0 0)" fill="#404254">
  <rect fill="#f2f5e9" fill-opacity="0.5" stroke="#606060" stroke-width=".5" x="0" y="0" width="60" height="60"/>
  <use id="zoomplus" xlink:href="#zoomPlus" x="17" y="9" onmousedown="handleZoom(evt,'in')"/>
  <use id="zoomminus" xlink:href="#zoomMin" x="42" y="9" onmousedown="handleZoom(evt,'out')"/>
  <use id="reset" xlink:href="#resetDef" x="30" y="36" onmousedown="handleReset()"/>
   <use id="arrowup" xlink:href="#arrowUp" x="0" y="0" onmousedown="handlePan(0,-1)"/>
  <use id="arrowright" xlink:href="#arrowRight" x="0" y="0" onmousedown="handlePan(1,0)"/>
  <use id="arrowdown" xlink:href="#arrowDown" x="0" y="0" onmousedown="handlePan(0,1)"/>
  <use id="arrowleft" xlink:href="#arrowLeft" x="0" y="0" onmousedown="handlePan(-1,0)"/>
</g>
<svg viewBox="0 0 15 15" width="100%" height="30px" preserveAspectRatio="xMaxYMin meet">
 <g id="arrow_out" transform="scale(0.3 0.3)">
  <a xlink:href="namespacepyc_1_1graph_1_1polar_a4892c3989bd8b62a5f02688d030e92d5_cgraph_org.svg" target="_base">
   <rect id="button" ry="5" rx="5" y="6" x="6" height="38" width="38"
        fill="#f2f5e9" fill-opacity="0.5" stroke="#606060" stroke-width="1.0"/>
   <path id="arrow"
     d="M 11.500037,31.436501 C 11.940474,20.09759 22.043105,11.32322 32.158766,21.979434 L 37.068811,17.246167 C 37.068811,17.246167 37.088388,32 37.088388,32 L 22.160133,31.978069 C 22.160133,31.978069 26.997745,27.140456 26.997745,27.140456 C 18.528582,18.264221 13.291696,25.230495 11.500037,31.436501 z"
     style="fill:#404040;"/>
  </a>
 </g>
</svg>

<style type='text/css'>
<![CDATA[
[data-mouse-over-selected='false'] { opacity: 0.7; }
[data-mouse-over-selected='true']  { opacity: 1.0; }
]]>
</style>
<script type="application/ecmascript"><![CDATA[
document.addEventListener('DOMContentLoaded', (event) => {
  highlightEdges();
  highlightAdjacentNodes();
});
]]></script>
</svg>
