<?xml version="1.0" encoding="UTF-8" standalone="no"?>
<!DOCTYPE svg PUBLIC "-//W3C//DTD SVG 1.1//EN"
 "http://www.w3.org/Graphics/SVG/1.1/DTD/svg11.dtd">
<!-- Generated by graphviz version 2.43.0 (0)
 -->
<!-- Title: physics_::M Pages: 1 -->
<svg width="284pt" height="45pt"
 viewBox="0.00 0.00 284.00 45.00" xmlns="http://www.w3.org/2000/svg" xmlns:xlink="http://www.w3.org/1999/xlink">
<g id="graph0" class="graph" transform="scale(1 1) rotate(0) translate(4 41)">
<title>physics_::M</title>
<!-- Node1 -->
<g id="Node000001" class="node">
<title>Node1</title>
<g id="a_Node000001"><a xlink:title="Computes the invariant mass from a momentum tensor.">
<polygon fill="#999999" stroke="#666666" points="74,-19 0,-19 0,0 74,0 74,-19"/>
<text text-anchor="middle" x="37" y="-7" font-family="Helvetica,sans-Serif" font-size="10.00">physics_::M</text>
</a>
</g>
</g>
<!-- Node2 -->
<g id="Node000002" class="node">
<title>Node2</title>
<g id="a_Node000002"><a xlink:href="namespacephysics__.html#a7787594305d4a156c31be581401b0b0b" target="_top" xlink:title="Computes the square of the invariant mass.">
<polygon fill="white" stroke="#666666" points="190,-19 110,-19 110,0 190,0 190,-19"/>
<text text-anchor="middle" x="150" y="-7" font-family="Helvetica,sans-Serif" font-size="10.00">physics_::M2</text>
</a>
</g>
</g>
<!-- Node1&#45;&gt;Node2 -->
<g id="edge1_Node000001_Node000002" class="edge">
<title>Node1&#45;&gt;Node2</title>
<g id="a_edge1_Node000001_Node000002"><a xlink:title=" ">
<path fill="none" stroke="#63b8ff" d="M74.04,-9.5C82.14,-9.5 90.87,-9.5 99.42,-9.5"/>
<polygon fill="#63b8ff" stroke="#63b8ff" points="99.69,-13 109.69,-9.5 99.69,-6 99.69,-13"/>
</a>
</g>
</g>
<!-- Node2&#45;&gt;Node2 -->
<g id="edge3_Node000002_Node000002" class="edge">
<title>Node2&#45;&gt;Node2</title>
<g id="a_edge3_Node000002_Node000002"><a xlink:title=" ">
<path fill="none" stroke="#63b8ff" d="M134.59,-19.08C127.09,-27.73 132.23,-37 150,-37 160.83,-37 166.97,-33.56 168.42,-28.91"/>
<polygon fill="#63b8ff" stroke="#63b8ff" points="171.68,-27.62 165.41,-19.08 164.99,-29.67 171.68,-27.62"/>
</a>
</g>
</g>
<!-- Node3 -->
<g id="Node000003" class="node">
<title>Node3</title>
<g id="a_Node000003"><a xlink:href="utils_8cxx.html#a9c1cdc6384bce6bdc92ca917b3f656bf" target="_top" xlink:title=" ">
<polygon fill="white" stroke="#666666" points="276,-19 226,-19 226,0 276,0 276,-19"/>
<text text-anchor="middle" x="251" y="-7" font-family="Helvetica,sans-Serif" font-size="10.00">format</text>
</a>
</g>
</g>
<!-- Node2&#45;&gt;Node3 -->
<g id="edge2_Node000002_Node000003" class="edge">
<title>Node2&#45;&gt;Node3</title>
<g id="a_edge2_Node000002_Node000003"><a xlink:title=" ">
<path fill="none" stroke="#63b8ff" d="M190.13,-9.5C198.64,-9.5 207.58,-9.5 215.88,-9.5"/>
<polygon fill="#63b8ff" stroke="#63b8ff" points="215.97,-13 225.97,-9.5 215.97,-6 215.97,-13"/>
</a>
</g>
</g>
</g>
</svg>
