<?xml version="1.0" encoding="UTF-8" standalone="no"?>
<!DOCTYPE svg PUBLIC "-//W3C//DTD SVG 1.1//EN"
 "http://www.w3.org/Graphics/SVG/1.1/DTD/svg11.dtd">
<!-- Generated by graphviz version 2.43.0 (0)
 -->
<!-- Title: pyc::graph::PageRankReconstruction Pages: 1 -->
<svg width="440pt" height="45pt"
 viewBox="0.00 0.00 440.00 45.00" xmlns="http://www.w3.org/2000/svg" xmlns:xlink="http://www.w3.org/1999/xlink">

<svg id="main" version="1.1" xmlns="http://www.w3.org/2000/svg" xmlns:xlink="http://www.w3.org/1999/xlink" xml:space="preserve" onload="init(evt)">
<style type="text/css"><![CDATA[
.node, .edge {opacity: 0.7;}
.node.selected, .edge.selected {opacity: 1;}
.edge:hover path { stroke: red; }
.edge:hover polygon { stroke: red; fill: red; }
]]></style>
<script type="application/ecmascript" xlink:href="svg.min.js"/>
<svg id="graph" class="graph">
<g id="graph0" class="graph" transform="scale(1 1) rotate(0) translate(4 41)">
<title>pyc::graph::PageRankReconstruction</title>
<!-- Node1 -->
<g id="Node000001" class="node">
<title>Node1</title>
<g id="a_Node000001"><a xlink:title=" ">
<polygon fill="#999999" stroke="#666666" points="432,-19 238,-19 238,0 432,0 432,-19"/>
<text text-anchor="middle" x="335" y="-7" font-family="Helvetica,sans-Serif" font-size="10.00">pyc::graph::PageRankReconstruction</text>
</a>
</g>
</g>
<!-- Node2 -->
<g id="Node000002" class="node">
<title>Node2</title>
<g id="a_Node000002"><a xlink:href="classgrift.html#a72f7575fbd1d744d4f9053e5b8b7ee38" target="_top" xlink:title="Virtual forward pass method for a single graph.">
<polygon fill="white" stroke="#666666" points="202,-19 122,-19 122,0 202,0 202,-19"/>
<text text-anchor="middle" x="162" y="-7" font-family="Helvetica,sans-Serif" font-size="10.00">grift::forward</text>
</a>
</g>
</g>
<!-- Node1&#45;&gt;Node2 -->
<g id="edge1_Node000001_Node000002" class="edge">
<title>Node1&#45;&gt;Node2</title>
<g id="a_edge1_Node000001_Node000002"><a xlink:title=" ">
<path fill="none" stroke="#63b8ff" d="M227.41,-9.5C218.56,-9.5 210.04,-9.5 202.25,-9.5"/>
<polygon fill="#63b8ff" stroke="#63b8ff" points="227.51,-13 237.51,-9.5 227.51,-6 227.51,-13"/>
</a>
</g>
</g>
<!-- Node2&#45;&gt;Node2 -->
<g id="edge2_Node000002_Node000002" class="edge">
<title>Node2&#45;&gt;Node2</title>
<g id="a_edge2_Node000002_Node000002"><a xlink:title=" ">
<path fill="none" stroke="#63b8ff" d="M183.85,-28.55C182.39,-33.38 175.11,-37 162,-37 141.03,-37 134.96,-27.73 143.81,-19.08"/>
<polygon fill="#63b8ff" stroke="#63b8ff" points="187.06,-27.15 180.19,-19.08 180.53,-29.67 187.06,-27.15"/>
</a>
</g>
</g>
<!-- Node3 -->
<g id="Node000003" class="node">
<title>Node3</title>
<g id="a_Node000003"><a xlink:href="classgrift.html#ad610edcd0cab14b57197a846ab8a8caf" target="_top" xlink:title=" ">
<polygon fill="white" stroke="#666666" points="86,-19 0,-19 0,0 86,0 86,-19"/>
<text text-anchor="middle" x="43" y="-7" font-family="Helvetica,sans-Serif" font-size="10.00">grift::message</text>
</a>
</g>
</g>
<!-- Node2&#45;&gt;Node3 -->
<g id="edge3_Node000002_Node000003" class="edge">
<title>Node2&#45;&gt;Node3</title>
<g id="a_edge3_Node000002_Node000003"><a xlink:title=" ">
<path fill="none" stroke="#63b8ff" d="M111.59,-2.82C103.14,-2.69 94.43,-2.74 86.19,-2.99"/>
<polygon fill="#63b8ff" stroke="#63b8ff" points="111.63,-6.33 121.72,-3.08 111.81,0.67 111.63,-6.33"/>
</a>
</g>
</g>
<!-- Node3&#45;&gt;Node2 -->
<g id="edge4_Node000003_Node000002" class="edge">
<title>Node3&#45;&gt;Node2</title>
<g id="a_edge4_Node000003_Node000002"><a xlink:title=" ">
<path fill="none" stroke="#63b8ff" d="M96.42,-16.22C104.92,-16.31 113.6,-16.21 121.72,-15.92"/>
<polygon fill="#63b8ff" stroke="#63b8ff" points="96.26,-12.71 86.19,-16.01 96.12,-19.71 96.26,-12.71"/>
</a>
</g>
</g>
</g>
</svg>
</svg>

<style type='text/css'>
<![CDATA[
[data-mouse-over-selected='false'] { opacity: 0.7; }
[data-mouse-over-selected='true']  { opacity: 1.0; }
]]>
</style>
<script type="application/ecmascript"><![CDATA[
document.addEventListener('DOMContentLoaded', (event) => {
  highlightEdges();
  highlightAdjacentNodes();
});
]]></script>
</svg>
