<?xml version="1.0" encoding="UTF-8" standalone="no"?>
<!DOCTYPE svg PUBLIC "-//W3C//DTD SVG 1.1//EN"
 "http://www.w3.org/Graphics/SVG/1.1/DTD/svg11.dtd">
<!-- Generated by graphviz version 2.43.0 (0)
 -->
<!-- Title: transform_::PtEtaPhiE Pages: 1 -->
<svg width="352pt" height="45pt"
 viewBox="0.00 0.00 352.00 45.00" xmlns="http://www.w3.org/2000/svg" xmlns:xlink="http://www.w3.org/1999/xlink">
<g id="graph0" class="graph" transform="scale(1 1) rotate(0) translate(4 41)">
<title>transform_::PtEtaPhiE</title>
<!-- Node1 -->
<g id="Node000001" class="node">
<title>Node1</title>
<g id="a_Node000001"><a xlink:title="Computes the transverse momentum (Pt), pseudorapidity (Eta), azimuthal angle (Phi),...">
<polygon fill="#999999" stroke="#666666" points="122,-19 0,-19 0,0 122,0 122,-19"/>
<text text-anchor="middle" x="61" y="-7" font-family="Helvetica,sans-Serif" font-size="10.00">transform_::PtEtaPhiE</text>
</a>
</g>
</g>
<!-- Node2 -->
<g id="Node000002" class="node">
<title>Node2</title>
<g id="a_Node000002"><a xlink:href="namespacetransform__.html#adf008ef1e94217cd7a7dae8c53a127a6" target="_top" xlink:title="Computes the transverse momentum (Pt), pseudorapidity (Eta), and azimuthal angle (Phi) from a momentu...">
<polygon fill="white" stroke="#666666" points="274,-19 158,-19 158,0 274,0 274,-19"/>
<text text-anchor="middle" x="216" y="-7" font-family="Helvetica,sans-Serif" font-size="10.00">transform_::PtEtaPhi</text>
</a>
</g>
</g>
<!-- Node1&#45;&gt;Node2 -->
<g id="edge1_Node000001_Node000002" class="edge">
<title>Node1&#45;&gt;Node2</title>
<g id="a_edge1_Node000001_Node000002"><a xlink:title=" ">
<path fill="none" stroke="#63b8ff" d="M122.03,-9.5C130.36,-9.5 138.97,-9.5 147.43,-9.5"/>
<polygon fill="#63b8ff" stroke="#63b8ff" points="147.64,-13 157.64,-9.5 147.64,-6 147.64,-13"/>
</a>
</g>
</g>
<!-- Node2&#45;&gt;Node2 -->
<g id="edge3_Node000002_Node000002" class="edge">
<title>Node2&#45;&gt;Node2</title>
<g id="a_edge3_Node000002_Node000002"><a xlink:title=" ">
<path fill="none" stroke="#63b8ff" d="M199.05,-19.08C190.8,-27.73 196.45,-37 216,-37 228.22,-37 235.01,-33.38 236.37,-28.55"/>
<polygon fill="#63b8ff" stroke="#63b8ff" points="239.64,-27.3 232.95,-19.08 233.05,-29.68 239.64,-27.3"/>
</a>
</g>
</g>
<!-- Node3 -->
<g id="Node000003" class="node">
<title>Node3</title>
<g id="a_Node000003"><a xlink:href="utils_8cxx.html#aaec9ca2d20716add3c686abd989934d0" target="_top" xlink:title=" ">
<polygon fill="white" stroke="#666666" points="344,-19 310,-19 310,0 344,0 344,-19"/>
<text text-anchor="middle" x="327" y="-7" font-family="Helvetica,sans-Serif" font-size="10.00">clip</text>
</a>
</g>
</g>
<!-- Node2&#45;&gt;Node3 -->
<g id="edge2_Node000002_Node000003" class="edge">
<title>Node2&#45;&gt;Node3</title>
<g id="a_edge2_Node000002_Node000003"><a xlink:title=" ">
<path fill="none" stroke="#63b8ff" d="M274.05,-9.5C283.02,-9.5 291.89,-9.5 299.69,-9.5"/>
<polygon fill="#63b8ff" stroke="#63b8ff" points="299.92,-13 309.92,-9.5 299.92,-6 299.92,-13"/>
</a>
</g>
</g>
</g>
</svg>
