<?xml version="1.0" encoding="UTF-8" standalone="no"?>
<!DOCTYPE svg PUBLIC "-//W3C//DTD SVG 1.1//EN"
 "http://www.w3.org/Graphics/SVG/1.1/DTD/svg11.dtd">
<!-- Generated by graphviz version 2.43.0 (0)
 -->
<!-- Title: pyc::nusol::combinatorial Pages: 1 -->
<!--zoomable 271 -->

<svg id="main" version="1.1" xmlns="http://www.w3.org/2000/svg" xmlns:xlink="http://www.w3.org/1999/xlink" xml:space="preserve" onload="init(evt)">
<style type="text/css"><![CDATA[
.node, .edge {opacity: 0.7;}
.node.selected, .edge.selected {opacity: 1;}
.edge:hover path { stroke: red; }
.edge:hover polygon { stroke: red; fill: red; }
]]></style>

<defs>
  <circle id="rim" cx="0" cy="0" r="7"/>
  <circle id="rim2" cx="0" cy="0" r="3.5"/>
  <g id="zoomPlus">
    <use xlink:href="#rim" fill="#404040"><set attributeName="fill" to="#808080" begin="zoomplus.mouseover" end="zoomplus.mouseout"/></use>
    <path d="M-4,0h8M0,-4v8" fill="none" stroke="white" stroke-width="1.5" pointer-events="none"/>
  </g>
  <g id="zoomMin">
    <use xlink:href="#rim" fill="#404040"><set attributeName="fill" to="#808080" begin="zoomminus.mouseover" end="zoomminus.mouseout"/></use>
    <path d="M-4,0h8" fill="none" stroke="white" stroke-width="1.5" pointer-events="none"/>
  </g>
  <g id="arrowUp" transform="translate(30 24)">
    <use xlink:href="#rim"/>
    <path pointer-events="none" fill="none" stroke="white" stroke-width="1.5" d="M0,-3.0v7 M-2.5,-0.5L0,-3.0L2.5,-0.5"/>
  </g>
  <g id="arrowRight" transform="rotate(90) translate(36 -43)">
    <use xlink:href="#rim"/>
    <path pointer-events="none" fill="none" stroke="white" stroke-width="1.5" d="M0,-3.0v7 M-2.5,-0.5L0,-3.0L2.5,-0.5"/>
  </g>
  <g id="arrowDown" transform="rotate(180) translate(-30 -48)">
    <use xlink:href="#rim"/>
    <path pointer-events="none" fill="none" stroke="white" stroke-width="1.5" d="M0,-3.0v7 M-2.5,-0.5L0,-3.0L2.5,-0.5"/>
  </g>
  <g id="arrowLeft" transform="rotate(270) translate(-36 17)">
    <use xlink:href="#rim"/>
    <path pointer-events="none" fill="none" stroke="white" stroke-width="1.5" d="M0,-3.0v7 M-2.5,-0.5L0,-3.0L2.5,-0.5"/>
  </g>
  <g id="resetDef">
    <use xlink:href="#rim2" fill="#404040"><set attributeName="fill" to="#808080" begin="reset.mouseover" end="reset.mouseout"/></use>
  </g>
</defs>
<script type="application/ecmascript">
var viewWidth = 592;
var viewHeight = 271;
var sectionId = 'dynsection-1';
</script>
<script type="application/ecmascript" xlink:href="svg.min.js"/>
<svg id="graph" class="graph">
<g id="viewport">
<title>pyc::nusol::combinatorial</title>
<!-- Node1 -->
<g id="Node000001" class="node">
<title>Node1</title>
<g id="a_Node000001"><a xlink:title=" ">
<polygon fill="#999999" stroke="#666666" points="140,-150 0,-150 0,-131 140,-131 140,-150"/>
<text text-anchor="middle" x="70" y="-138" font-family="Helvetica,sans-Serif" font-size="10.00">pyc::nusol::combinatorial</text>
</a>
</g>
</g>
<!-- Node2 -->
<g id="Node000002" class="node">
<title>Node2</title>
<g id="a_Node000002"><a xlink:href="utils_8cxx.html#a123aed6d73594e07c6401a7a6c587808" target="_top" xlink:title=" ">
<polygon fill="white" stroke="#666666" points="451,-225 381,-225 381,-206 451,-206 451,-225"/>
<text text-anchor="middle" x="416" y="-213" font-family="Helvetica,sans-Serif" font-size="10.00">changedev</text>
</a>
</g>
</g>
<!-- Node1&#45;&gt;Node2 -->
<g id="edge1_Node000001_Node000002" class="edge">
<title>Node1&#45;&gt;Node2</title>
<g id="a_edge1_Node000001_Node000002"><a xlink:title=" ">
<path fill="none" stroke="#63b8ff" d="M84.47,-150.05C103.73,-163.13 140.71,-186.17 176,-196.5 241.88,-215.77 322.05,-218.1 370.77,-217.32"/>
<polygon fill="#63b8ff" stroke="#63b8ff" points="371.05,-220.81 380.97,-217.1 370.9,-213.81 371.05,-220.81"/>
</a>
</g>
</g>
<!-- Node3 -->
<g id="Node000003" class="node">
<title>Node3</title>
<g id="a_Node000003"><a xlink:href="namespacepyc_1_1nusol.html#a0b618f866aa33e16c704d828744335e1" target="_top" xlink:title=" ">
<polygon fill="white" stroke="#666666" points="323.5,-263 183.5,-263 183.5,-244 323.5,-244 323.5,-263"/>
<text text-anchor="middle" x="253.5" y="-251" font-family="Helvetica,sans-Serif" font-size="10.00">pyc::nusol::combinatorial</text>
</a>
</g>
</g>
<!-- Node1&#45;&gt;Node3 -->
<g id="edge2_Node000001_Node000003" class="edge">
<title>Node1&#45;&gt;Node3</title>
<g id="a_edge2_Node000001_Node000003"><a xlink:title=" ">
<path fill="none" stroke="#63b8ff" d="M79.87,-150.26C96.84,-168.37 135.81,-207.36 176,-229.5 184.06,-233.94 193.05,-237.69 201.97,-240.8"/>
<polygon fill="#63b8ff" stroke="#63b8ff" points="200.97,-244.16 211.56,-243.94 203.14,-237.5 200.97,-244.16"/>
</a>
</g>
</g>
<!-- Node5 -->
<g id="Node000005" class="node">
<title>Node5</title>
<g id="a_Node000005"><a xlink:href="interface_8cxx.html#a60ca392438931d5a5ec65ee6f882d6c6" target="_top" xlink:title=" ">
<polygon fill="white" stroke="#666666" points="305.5,-113 201.5,-113 201.5,-94 305.5,-94 305.5,-113"/>
<text text-anchor="middle" x="253.5" y="-101" font-family="Helvetica,sans-Serif" font-size="10.00">construct_particle</text>
</a>
</g>
</g>
<!-- Node1&#45;&gt;Node5 -->
<g id="edge5_Node000001_Node000005" class="edge">
<title>Node1&#45;&gt;Node5</title>
<g id="a_edge5_Node000001_Node000005"><a xlink:title=" ">
<path fill="none" stroke="#63b8ff" d="M117.74,-130.97C141.47,-126.14 170.49,-120.22 195.51,-115.12"/>
<polygon fill="#63b8ff" stroke="#63b8ff" points="196.5,-118.49 205.6,-113.06 195.1,-111.63 196.5,-118.49"/>
</a>
</g>
</g>
<!-- Node7 -->
<g id="Node000007" class="node">
<title>Node7</title>
<g id="a_Node000007"><a xlink:href="vector__cast_8h.html#a9888ed684385b240692f6cb6e4c6b82e" target="_top" xlink:title=" ">
<polygon fill="white" stroke="#666666" points="465,-76 367,-76 367,-57 465,-57 465,-76"/>
<text text-anchor="middle" x="416" y="-64" font-family="Helvetica,sans-Serif" font-size="10.00">tensor_to_vector</text>
</a>
</g>
</g>
<!-- Node1&#45;&gt;Node7 -->
<g id="edge15_Node000001_Node000007" class="edge">
<title>Node1&#45;&gt;Node7</title>
<g id="a_edge15_Node000001_Node000007"><a xlink:title=" ">
<path fill="none" stroke="#63b8ff" d="M84.47,-130.93C103.72,-117.82 140.68,-94.75 176,-84.5 235.88,-67.12 307.54,-63.92 356.68,-64.25"/>
<polygon fill="#63b8ff" stroke="#63b8ff" points="356.77,-67.75 366.81,-64.37 356.85,-60.75 356.77,-67.75"/>
</a>
</g>
</g>
<!-- Node9 -->
<g id="Node000009" class="node">
<title>Node9</title>
<g id="a_Node000009"><a xlink:href="namespacepyc_1_1transform_1_1separate.html#a8707538e9073094f20ba7f80bf98757b" target="_top" xlink:title=" ">
<polygon fill="white" stroke="#666666" points="331,-187 176,-187 176,-168 331,-168 331,-187"/>
<text text-anchor="middle" x="253.5" y="-175" font-family="Helvetica,sans-Serif" font-size="10.00">pyc::transform::separate::Px</text>
</a>
</g>
</g>
<!-- Node1&#45;&gt;Node9 -->
<g id="edge9_Node000001_Node000009" class="edge">
<title>Node1&#45;&gt;Node9</title>
<g id="a_edge9_Node000001_Node000009"><a xlink:title=" ">
<path fill="none" stroke="#63b8ff" d="M117.74,-150.03C141.47,-154.86 170.49,-160.78 195.51,-165.88"/>
<polygon fill="#63b8ff" stroke="#63b8ff" points="195.1,-169.37 205.6,-167.94 196.5,-162.51 195.1,-169.37"/>
</a>
</g>
</g>
<!-- Node11 -->
<g id="Node000011" class="node">
<title>Node11</title>
<g id="a_Node000011"><a xlink:href="namespacepyc_1_1transform_1_1separate.html#a213b45f87684e873b719a628675b3382" target="_top" xlink:title=" ">
<polygon fill="white" stroke="#666666" points="331,-150 176,-150 176,-131 331,-131 331,-150"/>
<text text-anchor="middle" x="253.5" y="-138" font-family="Helvetica,sans-Serif" font-size="10.00">pyc::transform::separate::Py</text>
</a>
</g>
</g>
<!-- Node1&#45;&gt;Node11 -->
<g id="edge12_Node000001_Node000011" class="edge">
<title>Node1&#45;&gt;Node11</title>
<g id="a_edge12_Node000001_Node000011"><a xlink:title=" ">
<path fill="none" stroke="#63b8ff" d="M140.14,-140.5C148.56,-140.5 157.25,-140.5 165.89,-140.5"/>
<polygon fill="#63b8ff" stroke="#63b8ff" points="165.98,-144 175.98,-140.5 165.98,-137 165.98,-144"/>
</a>
</g>
</g>
<!-- Node13 -->
<g id="Node000013" class="node">
<title>Node13</title>
<g id="a_Node000013"><a xlink:href="namespacepyc.html#a78a6e4f2cbb1ffc7ceb42ce358f0fa3e" target="_top" xlink:title=" ">
<polygon fill="white" stroke="#666666" points="296,-19 211,-19 211,0 296,0 296,-19"/>
<text text-anchor="middle" x="253.5" y="-7" font-family="Helvetica,sans-Serif" font-size="10.00">pyc::tensorize</text>
</a>
</g>
</g>
<!-- Node1&#45;&gt;Node13 -->
<g id="edge16_Node000001_Node000013" class="edge">
<title>Node1&#45;&gt;Node13</title>
<g id="a_edge16_Node000001_Node000013"><a xlink:title=" ">
<path fill="none" stroke="#63b8ff" d="M80.88,-130.93C98.87,-113.79 138.59,-77.23 176,-51.5 190.95,-41.22 208.66,-31.36 223.27,-23.79"/>
<polygon fill="#63b8ff" stroke="#63b8ff" points="225.04,-26.81 232.36,-19.15 221.86,-20.57 225.04,-26.81"/>
</a>
</g>
</g>
<!-- Node3&#45;&gt;Node2 -->
<g id="edge3_Node000003_Node000002" class="edge">
<title>Node3&#45;&gt;Node2</title>
<g id="a_edge3_Node000003_Node000002"><a xlink:title=" ">
<path fill="none" stroke="#63b8ff" d="M295,-243.91C318.16,-238.43 347.23,-231.55 370.95,-225.93"/>
<polygon fill="#63b8ff" stroke="#63b8ff" points="371.83,-229.32 380.76,-223.61 370.22,-222.5 371.83,-229.32"/>
</a>
</g>
</g>
<!-- Node4 -->
<g id="Node000004" class="node">
<title>Node4</title>
<g id="a_Node000004"><a xlink:href="namespacepyc.html#ab174cc51f6efef06bdb0ba47ec3fe3bf" target="_top" xlink:title=" ">
<polygon fill="white" stroke="#666666" points="462.5,-263 369.5,-263 369.5,-244 462.5,-244 462.5,-263"/>
<text text-anchor="middle" x="416" y="-251" font-family="Helvetica,sans-Serif" font-size="10.00">pyc::std_to_dict</text>
</a>
</g>
</g>
<!-- Node3&#45;&gt;Node4 -->
<g id="edge4_Node000003_Node000004" class="edge">
<title>Node3&#45;&gt;Node4</title>
<g id="a_edge4_Node000003_Node000004"><a xlink:title=" ">
<path fill="none" stroke="#63b8ff" d="M323.96,-253.5C335.64,-253.5 347.63,-253.5 358.91,-253.5"/>
<polygon fill="#63b8ff" stroke="#63b8ff" points="359.04,-257 369.04,-253.5 359.04,-250 359.04,-257"/>
</a>
</g>
</g>
<!-- Node6 -->
<g id="Node000006" class="node">
<title>Node6</title>
<g id="a_Node000006"><a xlink:href="typecasting_8cxx.html#af402b36c82dfb4b1a34d90e26494da67" target="_top" xlink:title=" ">
<polygon fill="white" stroke="#666666" points="452,-113 380,-113 380,-94 452,-94 452,-113"/>
<text text-anchor="middle" x="416" y="-101" font-family="Helvetica,sans-Serif" font-size="10.00">tensor_size</text>
</a>
</g>
</g>
<!-- Node5&#45;&gt;Node6 -->
<g id="edge6_Node000005_Node000006" class="edge">
<title>Node5&#45;&gt;Node6</title>
<g id="a_edge6_Node000005_Node000006"><a xlink:title=" ">
<path fill="none" stroke="#63b8ff" d="M305.72,-103.5C326.35,-103.5 349.93,-103.5 369.89,-103.5"/>
<polygon fill="#63b8ff" stroke="#63b8ff" points="369.97,-107 379.97,-103.5 369.97,-100 369.97,-107"/>
</a>
</g>
</g>
<!-- Node5&#45;&gt;Node7 -->
<g id="edge7_Node000005_Node000007" class="edge">
<title>Node5&#45;&gt;Node7</title>
<g id="a_edge7_Node000005_Node000007"><a xlink:title=" ">
<path fill="none" stroke="#63b8ff" d="M295.83,-93.97C316.53,-89.2 341.79,-83.38 363.72,-78.32"/>
<polygon fill="#63b8ff" stroke="#63b8ff" points="364.57,-81.72 373.53,-76.06 363,-74.9 364.57,-81.72"/>
</a>
</g>
</g>
<!-- Node8 -->
<g id="Node000008" class="node">
<title>Node8</title>
<g id="a_Node000008"><a xlink:href="vector__cast_8h.html#adc5ffd895fb49094059fd9dc0af67de9" target="_top" xlink:title=" ">
<polygon fill="white" stroke="#666666" points="584,-76 501,-76 501,-57 584,-57 584,-76"/>
<text text-anchor="middle" x="542.5" y="-64" font-family="Helvetica,sans-Serif" font-size="10.00">tensor_vector</text>
</a>
</g>
</g>
<!-- Node7&#45;&gt;Node8 -->
<g id="edge8_Node000007_Node000008" class="edge">
<title>Node7&#45;&gt;Node8</title>
<g id="a_edge8_Node000007_Node000008"><a xlink:title=" ">
<path fill="none" stroke="#63b8ff" d="M465.13,-66.5C473.5,-66.5 482.23,-66.5 490.67,-66.5"/>
<polygon fill="#63b8ff" stroke="#63b8ff" points="490.77,-70 500.77,-66.5 490.77,-63 490.77,-70"/>
</a>
</g>
</g>
<!-- Node9&#45;&gt;Node2 -->
<g id="edge10_Node000009_Node000002" class="edge">
<title>Node9&#45;&gt;Node2</title>
<g id="a_edge10_Node000009_Node000002"><a xlink:title=" ">
<path fill="none" stroke="#63b8ff" d="M295,-187.09C318.16,-192.57 347.23,-199.45 370.95,-205.07"/>
<polygon fill="#63b8ff" stroke="#63b8ff" points="370.22,-208.5 380.76,-207.39 371.83,-201.68 370.22,-208.5"/>
</a>
</g>
</g>
<!-- Node10 -->
<g id="Node000010" class="node">
<title>Node10</title>
<g id="a_Node000010"><a xlink:href="namespacetransform__.html#a4573dda96168ebbd38a408e64cc3d5ff" target="_top" xlink:title="Computes the x&#45;component of momentum (Px).">
<polygon fill="white" stroke="#666666" points="460,-187 372,-187 372,-168 460,-168 460,-187"/>
<text text-anchor="middle" x="416" y="-175" font-family="Helvetica,sans-Serif" font-size="10.00">transform_::Px</text>
</a>
</g>
</g>
<!-- Node9&#45;&gt;Node10 -->
<g id="edge11_Node000009_Node000010" class="edge">
<title>Node9&#45;&gt;Node10</title>
<g id="a_edge11_Node000009_Node000010"><a xlink:title=" ">
<path fill="none" stroke="#63b8ff" d="M331.46,-177.5C341.62,-177.5 351.85,-177.5 361.5,-177.5"/>
<polygon fill="#63b8ff" stroke="#63b8ff" points="361.72,-181 371.72,-177.5 361.72,-174 361.72,-181"/>
</a>
</g>
</g>
<!-- Node11&#45;&gt;Node2 -->
<g id="edge13_Node000011_Node000002" class="edge">
<title>Node11&#45;&gt;Node2</title>
<g id="a_edge13_Node000011_Node000002"><a xlink:title=" ">
<path fill="none" stroke="#63b8ff" d="M309.05,-150.05C316.69,-152.52 324.24,-155.62 331,-159.5 350.9,-170.93 347.91,-183.77 367,-196.5 369.76,-198.34 372.72,-200.04 375.78,-201.61"/>
<polygon fill="#63b8ff" stroke="#63b8ff" points="374.54,-204.9 385.08,-205.92 377.48,-198.55 374.54,-204.9"/>
</a>
</g>
</g>
<!-- Node12 -->
<g id="Node000012" class="node">
<title>Node12</title>
<g id="a_Node000012"><a xlink:href="namespacetransform__.html#a51363ab29a6390a86a8ea75573a7a196" target="_top" xlink:title="Computes the y&#45;component of momentum (Py).">
<polygon fill="white" stroke="#666666" points="460,-150 372,-150 372,-131 460,-131 460,-150"/>
<text text-anchor="middle" x="416" y="-138" font-family="Helvetica,sans-Serif" font-size="10.00">transform_::Py</text>
</a>
</g>
</g>
<!-- Node11&#45;&gt;Node12 -->
<g id="edge14_Node000011_Node000012" class="edge">
<title>Node11&#45;&gt;Node12</title>
<g id="a_edge14_Node000011_Node000012"><a xlink:title=" ">
<path fill="none" stroke="#63b8ff" d="M331.46,-140.5C341.62,-140.5 351.85,-140.5 361.5,-140.5"/>
<polygon fill="#63b8ff" stroke="#63b8ff" points="361.72,-144 371.72,-140.5 361.72,-137 361.72,-144"/>
</a>
</g>
</g>
<!-- Node13&#45;&gt;Node13 -->
<g id="edge17_Node000013_Node000013" class="edge">
<title>Node13&#45;&gt;Node13</title>
<g id="a_edge17_Node000013_Node000013"><a xlink:title=" ">
<path fill="none" stroke="#63b8ff" d="M228.53,-19.08C216.38,-27.73 224.71,-37 253.5,-37 272.4,-37 282.48,-33.01 283.74,-27.82"/>
<polygon fill="#63b8ff" stroke="#63b8ff" points="286.63,-25.84 278.47,-19.08 280.64,-29.45 286.63,-25.84"/>
</a>
</g>
</g>
</g>
</svg>

<g id="navigator" transform="translate(0 0)" fill="#404254">
  <rect fill="#f2f5e9" fill-opacity="0.5" stroke="#606060" stroke-width=".5" x="0" y="0" width="60" height="60"/>
  <use id="zoomplus" xlink:href="#zoomPlus" x="17" y="9" onmousedown="handleZoom(evt,'in')"/>
  <use id="zoomminus" xlink:href="#zoomMin" x="42" y="9" onmousedown="handleZoom(evt,'out')"/>
  <use id="reset" xlink:href="#resetDef" x="30" y="36" onmousedown="handleReset()"/>
   <use id="arrowup" xlink:href="#arrowUp" x="0" y="0" onmousedown="handlePan(0,-1)"/>
  <use id="arrowright" xlink:href="#arrowRight" x="0" y="0" onmousedown="handlePan(1,0)"/>
  <use id="arrowdown" xlink:href="#arrowDown" x="0" y="0" onmousedown="handlePan(0,1)"/>
  <use id="arrowleft" xlink:href="#arrowLeft" x="0" y="0" onmousedown="handlePan(-1,0)"/>
</g>
<svg viewBox="0 0 15 15" width="100%" height="30px" preserveAspectRatio="xMaxYMin meet">
 <g id="arrow_out" transform="scale(0.3 0.3)">
  <a xlink:href="namespacepyc_1_1nusol_ad4035a04640174f1d5f9cdc307a3ad0a_cgraph_org.svg" target="_base">
   <rect id="button" ry="5" rx="5" y="6" x="6" height="38" width="38"
        fill="#f2f5e9" fill-opacity="0.5" stroke="#606060" stroke-width="1.0"/>
   <path id="arrow"
     d="M 11.500037,31.436501 C 11.940474,20.09759 22.043105,11.32322 32.158766,21.979434 L 37.068811,17.246167 C 37.068811,17.246167 37.088388,32 37.088388,32 L 22.160133,31.978069 C 22.160133,31.978069 26.997745,27.140456 26.997745,27.140456 C 18.528582,18.264221 13.291696,25.230495 11.500037,31.436501 z"
     style="fill:#404040;"/>
  </a>
 </g>
</svg>

<style type='text/css'>
<![CDATA[
[data-mouse-over-selected='false'] { opacity: 0.7; }
[data-mouse-over-selected='true']  { opacity: 1.0; }
]]>
</style>
<script type="application/ecmascript"><![CDATA[
document.addEventListener('DOMContentLoaded', (event) => {
  highlightEdges();
  highlightAdjacentNodes();
});
]]></script>
</svg>
