<?xml version="1.0" encoding="UTF-8" standalone="no"?>
<!DOCTYPE svg PUBLIC "-//W3C//DTD SVG 1.1//EN"
 "http://www.w3.org/Graphics/SVG/1.1/DTD/svg11.dtd">
<!-- Generated by graphviz version 2.43.0 (0)
 -->
<!-- Title: physics_::P2 Pages: 1 -->
<svg width="249pt" height="294pt"
 viewBox="0.00 0.00 249.00 293.50" xmlns="http://www.w3.org/2000/svg" xmlns:xlink="http://www.w3.org/1999/xlink">

<svg id="main" version="1.1" xmlns="http://www.w3.org/2000/svg" xmlns:xlink="http://www.w3.org/1999/xlink" xml:space="preserve" onload="init(evt)">
<style type="text/css"><![CDATA[
.node, .edge {opacity: 0.7;}
.node.selected, .edge.selected {opacity: 1;}
.edge:hover path { stroke: red; }
.edge:hover polygon { stroke: red; fill: red; }
]]></style>
<script type="application/ecmascript" xlink:href="svg.min.js"/>
<svg id="graph" class="graph">
<g id="graph0" class="graph" transform="scale(1 1) rotate(0) translate(4 289.5)">
<title>physics_::P2</title>
<!-- Node1 -->
<g id="Node000001" class="node">
<title>Node1</title>
<g id="a_Node000001"><a xlink:title="Computes the square of the momentum magnitude.">
<polygon fill="#999999" stroke="#666666" points="241,-168.5 164,-168.5 164,-149.5 241,-149.5 241,-168.5"/>
<text text-anchor="middle" x="202.5" y="-156.5" font-family="Helvetica,sans-Serif" font-size="10.00">physics_::P2</text>
</a>
</g>
</g>
<!-- Node1&#45;&gt;Node1 -->
<g id="edge4_Node000001_Node000001" class="edge">
<title>Node1&#45;&gt;Node1</title>
<g id="a_edge4_Node000001_Node000001"><a xlink:title=" ">
<path fill="none" stroke="#63b8ff" d="M228.17,-177.69C226.77,-182.7 218.21,-186.5 202.5,-186.5 177.97,-186.5 170.88,-177.23 181.23,-168.58"/>
<polygon fill="#63b8ff" stroke="#63b8ff" points="231.27,-176.06 223.77,-168.58 224.97,-179.11 231.27,-176.06"/>
</a>
</g>
</g>
<!-- Node2 -->
<g id="Node000002" class="node">
<title>Node2</title>
<g id="a_Node000002"><a xlink:href="namespacephysics__.html#a5b55715f9b9c607241139bf3541b03ab" target="_top" xlink:title="Computes the square of the beta factor from a momentum tensor.">
<polygon fill="white" stroke="#666666" points="110.5,-285.5 17.5,-285.5 17.5,-266.5 110.5,-266.5 110.5,-285.5"/>
<text text-anchor="middle" x="64" y="-273.5" font-family="Helvetica,sans-Serif" font-size="10.00">physics_::Beta2</text>
</a>
</g>
</g>
<!-- Node1&#45;&gt;Node2 -->
<g id="edge1_Node000001_Node000002" class="edge">
<title>Node1&#45;&gt;Node2</title>
<g id="a_edge1_Node000001_Node000002"><a xlink:title=" ">
<path fill="none" stroke="#63b8ff" d="M192.49,-177.67C180.74,-200.07 158.07,-237.19 128,-258 122.76,-261.62 116.8,-264.52 110.68,-266.84"/>
<polygon fill="#63b8ff" stroke="#63b8ff" points="195.73,-179.03 197.11,-168.53 189.48,-175.88 195.73,-179.03"/>
</a>
</g>
</g>
<!-- Node3 -->
<g id="Node000003" class="node">
<title>Node3</title>
<g id="a_Node000003"><a xlink:href="namespacephysics__.html#a941b75f458038a6d86dc28328606999c" target="_top" xlink:title="Computes the square of the invariant mass from a momentum tensor.">
<polygon fill="white" stroke="#666666" points="104,-248.5 24,-248.5 24,-229.5 104,-229.5 104,-248.5"/>
<text text-anchor="middle" x="64" y="-236.5" font-family="Helvetica,sans-Serif" font-size="10.00">physics_::M2</text>
</a>
</g>
</g>
<!-- Node1&#45;&gt;Node3 -->
<g id="edge2_Node000001_Node000003" class="edge">
<title>Node1&#45;&gt;Node3</title>
<g id="a_edge2_Node000001_Node000003"><a xlink:title=" ">
<path fill="none" stroke="#63b8ff" d="M185.16,-176.37C171.19,-190.27 149.92,-209.32 128,-221 120.67,-224.9 112.4,-228.05 104.32,-230.54"/>
<polygon fill="#63b8ff" stroke="#63b8ff" points="188,-178.47 192.49,-168.87 183,-173.57 188,-178.47"/>
</a>
</g>
</g>
<!-- Node4 -->
<g id="Node000004" class="node">
<title>Node4</title>
<g id="a_Node000004"><a xlink:href="namespacephysics__.html#ab5a156a8862434e86693193360d27847" target="_top" xlink:title="Computes the momentum magnitude from a momentum tensor.">
<polygon fill="white" stroke="#666666" points="99.5,-211.5 28.5,-211.5 28.5,-192.5 99.5,-192.5 99.5,-211.5"/>
<text text-anchor="middle" x="64" y="-199.5" font-family="Helvetica,sans-Serif" font-size="10.00">physics_::P</text>
</a>
</g>
</g>
<!-- Node1&#45;&gt;Node4 -->
<g id="edge3_Node000001_Node000004" class="edge">
<title>Node1&#45;&gt;Node4</title>
<g id="a_edge3_Node000001_Node000004"><a xlink:title=" ">
<path fill="none" stroke="#63b8ff" d="M163,-171.75C151.74,-175.43 139.39,-179.42 128,-183 117.97,-186.15 107.02,-189.49 97.09,-192.47"/>
<polygon fill="#63b8ff" stroke="#63b8ff" points="164.16,-175.06 172.57,-168.61 161.98,-168.4 164.16,-175.06"/>
</a>
</g>
</g>
<!-- Node5 -->
<g id="Node000005" class="node">
<title>Node5</title>
<g id="a_Node000005"><a xlink:href="namespacepyc_1_1physics_1_1cartesian_1_1combined.html#aba7856741341e1db62a5a4db61dbb953" target="_top" xlink:title=" ">
<polygon fill="white" stroke="#666666" points="128,-174 0,-174 0,-144 128,-144 128,-174"/>
<text text-anchor="start" x="8" y="-162" font-family="Helvetica,sans-Serif" font-size="10.00">pyc::physics::cartesian</text>
<text text-anchor="middle" x="64" y="-151" font-family="Helvetica,sans-Serif" font-size="10.00">::combined::P2</text>
</a>
</g>
</g>
<!-- Node1&#45;&gt;Node5 -->
<g id="edge5_Node000001_Node000005" class="edge">
<title>Node1&#45;&gt;Node5</title>
<g id="a_edge5_Node000001_Node000005"><a xlink:title=" ">
<path fill="none" stroke="#63b8ff" d="M153.68,-159C145.45,-159 136.78,-159 128.21,-159"/>
<polygon fill="#63b8ff" stroke="#63b8ff" points="153.84,-162.5 163.84,-159 153.84,-155.5 153.84,-162.5"/>
</a>
</g>
</g>
<!-- Node6 -->
<g id="Node000006" class="node">
<title>Node6</title>
<g id="a_Node000006"><a xlink:href="namespacepyc_1_1physics_1_1polar_1_1combined.html#a61c93f07eede4e32cdcf303a8a508946" target="_top" xlink:title=" ">
<polygon fill="white" stroke="#666666" points="117.5,-126 10.5,-126 10.5,-96 117.5,-96 117.5,-126"/>
<text text-anchor="start" x="18.5" y="-114" font-family="Helvetica,sans-Serif" font-size="10.00">pyc::physics::polar</text>
<text text-anchor="middle" x="64" y="-103" font-family="Helvetica,sans-Serif" font-size="10.00">::combined::P2</text>
</a>
</g>
</g>
<!-- Node1&#45;&gt;Node6 -->
<g id="edge6_Node000001_Node000006" class="edge">
<title>Node1&#45;&gt;Node6</title>
<g id="a_edge6_Node000001_Node000006"><a xlink:title=" ">
<path fill="none" stroke="#63b8ff" d="M164.37,-145.94C146.9,-139.8 125.97,-132.44 107.84,-126.06"/>
<polygon fill="#63b8ff" stroke="#63b8ff" points="163.61,-149.39 174.21,-149.4 165.93,-142.78 163.61,-149.39"/>
</a>
</g>
</g>
<!-- Node7 -->
<g id="Node000007" class="node">
<title>Node7</title>
<g id="a_Node000007"><a xlink:href="namespacepyc_1_1physics_1_1polar_1_1separate.html#a164422e673f81c41b4a16f950beb8cdd" target="_top" xlink:title=" ">
<polygon fill="white" stroke="#666666" points="117.5,-78 10.5,-78 10.5,-48 117.5,-48 117.5,-78"/>
<text text-anchor="start" x="18.5" y="-66" font-family="Helvetica,sans-Serif" font-size="10.00">pyc::physics::polar</text>
<text text-anchor="middle" x="64" y="-55" font-family="Helvetica,sans-Serif" font-size="10.00">::separate::P2</text>
</a>
</g>
</g>
<!-- Node1&#45;&gt;Node7 -->
<g id="edge7_Node000001_Node000007" class="edge">
<title>Node1&#45;&gt;Node7</title>
<g id="a_edge7_Node000001_Node000007"><a xlink:title=" ">
<path fill="none" stroke="#63b8ff" d="M187.16,-141.27C173.41,-125.25 151.35,-101.95 128,-87 122.78,-83.65 117.01,-80.67 111.16,-78.03"/>
<polygon fill="#63b8ff" stroke="#63b8ff" points="184.8,-143.9 193.9,-149.32 190.16,-139.41 184.8,-143.9"/>
</a>
</g>
</g>
<!-- Node8 -->
<g id="Node000008" class="node">
<title>Node8</title>
<g id="a_Node000008"><a xlink:href="namespacepyc_1_1physics_1_1cartesian_1_1separate.html#a8cb63afce970e51324566b39dd3ca54a" target="_top" xlink:title=" ">
<polygon fill="white" stroke="#666666" points="128,-30 0,-30 0,0 128,0 128,-30"/>
<text text-anchor="start" x="8" y="-18" font-family="Helvetica,sans-Serif" font-size="10.00">pyc::physics::cartesian</text>
<text text-anchor="middle" x="64" y="-7" font-family="Helvetica,sans-Serif" font-size="10.00">::separate::P2</text>
</a>
</g>
</g>
<!-- Node1&#45;&gt;Node8 -->
<g id="edge8_Node000001_Node000008" class="edge">
<title>Node1&#45;&gt;Node8</title>
<g id="a_edge8_Node000001_Node000008"><a xlink:title=" ">
<path fill="none" stroke="#63b8ff" d="M194.43,-139.9C183.81,-113.69 161.38,-66.7 128,-39 123.86,-35.56 119.17,-32.58 114.26,-30.01"/>
<polygon fill="#63b8ff" stroke="#63b8ff" points="191.25,-141.39 198.14,-149.44 197.77,-138.85 191.25,-141.39"/>
</a>
</g>
</g>
</g>
</svg>
</svg>

<style type='text/css'>
<![CDATA[
[data-mouse-over-selected='false'] { opacity: 0.7; }
[data-mouse-over-selected='true']  { opacity: 1.0; }
]]>
</style>
<script type="application/ecmascript"><![CDATA[
document.addEventListener('DOMContentLoaded', (event) => {
  highlightEdges();
  highlightAdjacentNodes();
});
]]></script>
</svg>
