<?xml version="1.0" encoding="UTF-8" standalone="no"?>
<!DOCTYPE svg PUBLIC "-//W3C//DTD SVG 1.1//EN"
 "http://www.w3.org/Graphics/SVG/1.1/DTD/svg11.dtd">
<!-- Generated by graphviz version 2.43.0 (0)
 -->
<!-- Title: transform_::PtEtaPhi Pages: 1 -->
<svg width="331pt" height="119pt"
 viewBox="0.00 0.00 331.00 119.00" xmlns="http://www.w3.org/2000/svg" xmlns:xlink="http://www.w3.org/1999/xlink">

<svg id="main" version="1.1" xmlns="http://www.w3.org/2000/svg" xmlns:xlink="http://www.w3.org/1999/xlink" xml:space="preserve" onload="init(evt)">
<style type="text/css"><![CDATA[
.node, .edge {opacity: 0.7;}
.node.selected, .edge.selected {opacity: 1;}
.edge:hover path { stroke: red; }
.edge:hover polygon { stroke: red; fill: red; }
]]></style>
<script type="application/ecmascript" xlink:href="svg.min.js"/>
<svg id="graph" class="graph">
<g id="graph0" class="graph" transform="scale(1 1) rotate(0) translate(4 115)">
<title>transform_::PtEtaPhi</title>
<!-- Node1 -->
<g id="Node000001" class="node">
<title>Node1</title>
<g id="a_Node000001"><a xlink:title="Computes the transverse momentum (Pt), pseudorapidity (Eta), and azimuthal angle (Phi) from x,...">
<polygon fill="#999999" stroke="#666666" points="116,-56 0,-56 0,-37 116,-37 116,-56"/>
<text text-anchor="middle" x="58" y="-44" font-family="Helvetica,sans-Serif" font-size="10.00">transform_::PtEtaPhi</text>
</a>
</g>
</g>
<!-- Node2 -->
<g id="Node000002" class="node">
<title>Node2</title>
<g id="a_Node000002"><a xlink:href="namespacetransform__.html#aa90019603231f23c1e857b5f5832b587" target="_top" xlink:title="Computes the azimuthal angle (Phi) from a momentum tensor.">
<polygon fill="white" stroke="#666666" points="248,-93 157,-93 157,-74 248,-74 248,-93"/>
<text text-anchor="middle" x="202.5" y="-81" font-family="Helvetica,sans-Serif" font-size="10.00">transform_::Phi</text>
</a>
</g>
</g>
<!-- Node1&#45;&gt;Node2 -->
<g id="edge1_Node000001_Node000002" class="edge">
<title>Node1&#45;&gt;Node2</title>
<g id="a_edge1_Node000001_Node000002"><a xlink:title=" ">
<path fill="none" stroke="#63b8ff" d="M95.7,-56.03C113.67,-60.7 135.52,-66.37 154.69,-71.35"/>
<polygon fill="#63b8ff" stroke="#63b8ff" points="153.87,-74.75 164.43,-73.88 155.63,-67.97 153.87,-74.75"/>
</a>
</g>
</g>
<!-- Node4 -->
<g id="Node000004" class="node">
<title>Node4</title>
<g id="a_Node000004"><a xlink:href="namespacetransform__.html#a7e398b6292d5d34c81497445060ec752" target="_top" xlink:title="Computes the transverse momentum (Pt).">
<polygon fill="white" stroke="#666666" points="245.5,-56 159.5,-56 159.5,-37 245.5,-37 245.5,-56"/>
<text text-anchor="middle" x="202.5" y="-44" font-family="Helvetica,sans-Serif" font-size="10.00">transform_::Pt</text>
</a>
</g>
</g>
<!-- Node1&#45;&gt;Node4 -->
<g id="edge4_Node000001_Node000004" class="edge">
<title>Node1&#45;&gt;Node4</title>
<g id="a_edge4_Node000001_Node000004"><a xlink:title=" ">
<path fill="none" stroke="#63b8ff" d="M116.14,-46.5C127.05,-46.5 138.43,-46.5 149.18,-46.5"/>
<polygon fill="#63b8ff" stroke="#63b8ff" points="149.27,-50 159.27,-46.5 149.27,-43 149.27,-50"/>
</a>
</g>
</g>
<!-- Node5 -->
<g id="Node000005" class="node">
<title>Node5</title>
<g id="a_Node000005"><a xlink:href="namespacetransform__.html#a86e364c3bd4a1a8785a3cdfb0a1e1573" target="_top" xlink:title="Computes the transverse momentum (Pt) and pseudorapidity (Eta).">
<polygon fill="white" stroke="#666666" points="253,-19 152,-19 152,0 253,0 253,-19"/>
<text text-anchor="middle" x="202.5" y="-7" font-family="Helvetica,sans-Serif" font-size="10.00">transform_::PtEta</text>
</a>
</g>
</g>
<!-- Node1&#45;&gt;Node5 -->
<g id="edge5_Node000001_Node000005" class="edge">
<title>Node1&#45;&gt;Node5</title>
<g id="a_edge5_Node000001_Node000005"><a xlink:title=" ">
<path fill="none" stroke="#63b8ff" d="M95.7,-36.97C113.67,-32.3 135.52,-26.63 154.69,-21.65"/>
<polygon fill="#63b8ff" stroke="#63b8ff" points="155.63,-25.03 164.43,-19.12 153.87,-18.25 155.63,-25.03"/>
</a>
</g>
</g>
<!-- Node2&#45;&gt;Node2 -->
<g id="edge3_Node000002_Node000002" class="edge">
<title>Node2&#45;&gt;Node2</title>
<g id="a_edge3_Node000002_Node000002"><a xlink:title=" ">
<path fill="none" stroke="#63b8ff" d="M186.78,-93.08C179.13,-101.73 184.37,-111 202.5,-111 213.55,-111 219.81,-107.56 221.28,-102.91"/>
<polygon fill="#63b8ff" stroke="#63b8ff" points="224.54,-101.59 218.22,-93.08 217.85,-103.67 224.54,-101.59"/>
</a>
</g>
</g>
<!-- Node3 -->
<g id="Node000003" class="node">
<title>Node3</title>
<g id="a_Node000003"><a xlink:href="utils_8cxx.html#aaec9ca2d20716add3c686abd989934d0" target="_top" xlink:title=" ">
<polygon fill="white" stroke="#666666" points="323,-93 289,-93 289,-74 323,-74 323,-93"/>
<text text-anchor="middle" x="306" y="-81" font-family="Helvetica,sans-Serif" font-size="10.00">clip</text>
</a>
</g>
</g>
<!-- Node2&#45;&gt;Node3 -->
<g id="edge2_Node000002_Node000003" class="edge">
<title>Node2&#45;&gt;Node3</title>
<g id="a_edge2_Node000002_Node000003"><a xlink:title=" ">
<path fill="none" stroke="#63b8ff" d="M248.02,-83.5C258.43,-83.5 269.2,-83.5 278.54,-83.5"/>
<polygon fill="#63b8ff" stroke="#63b8ff" points="278.73,-87 288.73,-83.5 278.73,-80 278.73,-87"/>
</a>
</g>
</g>
</g>
</svg>
</svg>

<style type='text/css'>
<![CDATA[
[data-mouse-over-selected='false'] { opacity: 0.7; }
[data-mouse-over-selected='true']  { opacity: 1.0; }
]]>
</style>
<script type="application/ecmascript"><![CDATA[
document.addEventListener('DOMContentLoaded', (event) => {
  highlightEdges();
  highlightAdjacentNodes();
});
]]></script>
</svg>
