<?xml version="1.0" encoding="UTF-8" standalone="no"?>
<!DOCTYPE svg PUBLIC "-//W3C//DTD SVG 1.1//EN"
 "http://www.w3.org/Graphics/SVG/1.1/DTD/svg11.dtd">
<!-- Generated by graphviz version 2.43.0 (0)
 -->
<!-- Title: physics_::Theta Pages: 1 -->
<!--zoomable 294 -->

<svg id="main" version="1.1" xmlns="http://www.w3.org/2000/svg" xmlns:xlink="http://www.w3.org/1999/xlink" xml:space="preserve" onload="init(evt)">
<style type="text/css"><![CDATA[
.node, .edge {opacity: 0.7;}
.node.selected, .edge.selected {opacity: 1;}
.edge:hover path { stroke: red; }
.edge:hover polygon { stroke: red; fill: red; }
]]></style>

<defs>
  <circle id="rim" cx="0" cy="0" r="7"/>
  <circle id="rim2" cx="0" cy="0" r="3.5"/>
  <g id="zoomPlus">
    <use xlink:href="#rim" fill="#404040"><set attributeName="fill" to="#808080" begin="zoomplus.mouseover" end="zoomplus.mouseout"/></use>
    <path d="M-4,0h8M0,-4v8" fill="none" stroke="white" stroke-width="1.5" pointer-events="none"/>
  </g>
  <g id="zoomMin">
    <use xlink:href="#rim" fill="#404040"><set attributeName="fill" to="#808080" begin="zoomminus.mouseover" end="zoomminus.mouseout"/></use>
    <path d="M-4,0h8" fill="none" stroke="white" stroke-width="1.5" pointer-events="none"/>
  </g>
  <g id="arrowUp" transform="translate(30 24)">
    <use xlink:href="#rim"/>
    <path pointer-events="none" fill="none" stroke="white" stroke-width="1.5" d="M0,-3.0v7 M-2.5,-0.5L0,-3.0L2.5,-0.5"/>
  </g>
  <g id="arrowRight" transform="rotate(90) translate(36 -43)">
    <use xlink:href="#rim"/>
    <path pointer-events="none" fill="none" stroke="white" stroke-width="1.5" d="M0,-3.0v7 M-2.5,-0.5L0,-3.0L2.5,-0.5"/>
  </g>
  <g id="arrowDown" transform="rotate(180) translate(-30 -48)">
    <use xlink:href="#rim"/>
    <path pointer-events="none" fill="none" stroke="white" stroke-width="1.5" d="M0,-3.0v7 M-2.5,-0.5L0,-3.0L2.5,-0.5"/>
  </g>
  <g id="arrowLeft" transform="rotate(270) translate(-36 17)">
    <use xlink:href="#rim"/>
    <path pointer-events="none" fill="none" stroke="white" stroke-width="1.5" d="M0,-3.0v7 M-2.5,-0.5L0,-3.0L2.5,-0.5"/>
  </g>
  <g id="resetDef">
    <use xlink:href="#rim2" fill="#404040"><set attributeName="fill" to="#808080" begin="reset.mouseover" end="reset.mouseout"/></use>
  </g>
</defs>
<script type="application/ecmascript">
var viewWidth = 843;
var viewHeight = 294;
var sectionId = 'dynsection-24';
</script>
<script type="application/ecmascript" xlink:href="svg.min.js"/>
<svg id="graph" class="graph">
<g id="viewport">
<title>physics_::Theta</title>
<!-- Node1 -->
<g id="Node000001" class="node">
<title>Node1</title>
<g id="a_Node000001"><a xlink:title="Computes the polar angle theta.">
<polygon fill="#999999" stroke="#666666" points="835,-144.5 743,-144.5 743,-125.5 835,-125.5 835,-144.5"/>
<text text-anchor="middle" x="789" y="-132.5" font-family="Helvetica,sans-Serif" font-size="10.00">physics_::Theta</text>
</a>
</g>
</g>
<!-- Node2 -->
<g id="Node000002" class="node">
<title>Node2</title>
<g id="a_Node000002"><a xlink:href="nusol_2tensor_2nusol_8cxx.html#a28531a30b80ecbd780392279d8a8adf3" target="_top" xlink:title=" ">
<polygon fill="white" stroke="#666666" points="672,-248.5 614,-248.5 614,-229.5 672,-229.5 672,-248.5"/>
<text text-anchor="middle" x="643" y="-236.5" font-family="Helvetica,sans-Serif" font-size="10.00">Rotation</text>
</a>
</g>
</g>
<!-- Node1&#45;&gt;Node2 -->
<g id="edge1_Node000001_Node000002" class="edge">
<title>Node1&#45;&gt;Node2</title>
<g id="a_edge1_Node000001_Node000002"><a xlink:title=" ">
<path fill="none" stroke="#63b8ff" d="M775.72,-152.94C761.43,-172.48 736.04,-203.32 707,-221 696.51,-227.39 683.65,-231.59 672.3,-234.31"/>
<polygon fill="#63b8ff" stroke="#63b8ff" points="778.71,-154.78 781.65,-144.6 773.01,-150.72 778.71,-154.78"/>
</a>
</g>
</g>
<!-- Node14 -->
<g id="Node000014" class="node">
<title>Node14</title>
<g id="a_Node000014"><a xlink:href="namespacepyc_1_1operators.html#a5c947d6968337f95f86e6925acc63dfa" target="_top" xlink:title=" ">
<polygon fill="white" stroke="#666666" points="695,-211.5 591,-211.5 591,-192.5 695,-192.5 695,-211.5"/>
<text text-anchor="middle" x="643" y="-199.5" font-family="Helvetica,sans-Serif" font-size="10.00">pyc::operators::RT</text>
</a>
</g>
</g>
<!-- Node1&#45;&gt;Node14 -->
<g id="edge13_Node000001_Node000014" class="edge">
<title>Node1&#45;&gt;Node14</title>
<g id="a_edge13_Node000001_Node000014"><a xlink:title=" ">
<path fill="none" stroke="#63b8ff" d="M765.66,-150.24C749.82,-160.54 727.77,-173.88 707,-183 698.84,-186.58 689.81,-189.75 681.19,-192.41"/>
<polygon fill="#63b8ff" stroke="#63b8ff" points="767.81,-153.02 774.22,-144.58 763.95,-147.18 767.81,-153.02"/>
</a>
</g>
</g>
<!-- Node15 -->
<g id="Node000015" class="node">
<title>Node15</title>
<g id="a_Node000015"><a xlink:href="namespacepyc_1_1physics_1_1cartesian_1_1combined.html#aefe1c7cb2cb523ab1118a6d1cabbfe69" target="_top" xlink:title=" ">
<polygon fill="white" stroke="#666666" points="707,-174 579,-174 579,-144 707,-144 707,-174"/>
<text text-anchor="start" x="587" y="-162" font-family="Helvetica,sans-Serif" font-size="10.00">pyc::physics::cartesian</text>
<text text-anchor="middle" x="643" y="-151" font-family="Helvetica,sans-Serif" font-size="10.00">::combined::Theta</text>
</a>
</g>
</g>
<!-- Node1&#45;&gt;Node15 -->
<g id="edge14_Node000001_Node000015" class="edge">
<title>Node1&#45;&gt;Node15</title>
<g id="a_edge14_Node000001_Node000015"><a xlink:title=" ">
<path fill="none" stroke="#63b8ff" d="M732.81,-144.2C724.43,-145.59 715.74,-147.04 707.21,-148.47"/>
<polygon fill="#63b8ff" stroke="#63b8ff" points="733.54,-147.62 742.83,-142.53 732.39,-140.72 733.54,-147.62"/>
</a>
</g>
</g>
<!-- Node16 -->
<g id="Node000016" class="node">
<title>Node16</title>
<g id="a_Node000016"><a xlink:href="namespacepyc_1_1physics_1_1polar_1_1combined.html#a6169c98dd89c2571d2871582b3fb1279" target="_top" xlink:title=" ">
<polygon fill="white" stroke="#666666" points="696.5,-126 589.5,-126 589.5,-96 696.5,-96 696.5,-126"/>
<text text-anchor="start" x="597.5" y="-114" font-family="Helvetica,sans-Serif" font-size="10.00">pyc::physics::polar</text>
<text text-anchor="middle" x="643" y="-103" font-family="Helvetica,sans-Serif" font-size="10.00">::combined::Theta</text>
</a>
</g>
</g>
<!-- Node1&#45;&gt;Node16 -->
<g id="edge15_Node000001_Node000016" class="edge">
<title>Node1&#45;&gt;Node16</title>
<g id="a_edge15_Node000001_Node000016"><a xlink:title=" ">
<path fill="none" stroke="#63b8ff" d="M732.62,-125.77C720.78,-123.8 708.29,-121.72 696.56,-119.76"/>
<polygon fill="#63b8ff" stroke="#63b8ff" points="732.39,-129.28 742.83,-127.47 733.54,-122.38 732.39,-129.28"/>
</a>
</g>
</g>
<!-- Node17 -->
<g id="Node000017" class="node">
<title>Node17</title>
<g id="a_Node000017"><a xlink:href="namespacepyc_1_1physics_1_1polar_1_1separate.html#a40b284f030bc35051fe4ceb68e0b560e" target="_top" xlink:title=" ">
<polygon fill="white" stroke="#666666" points="696.5,-78 589.5,-78 589.5,-48 696.5,-48 696.5,-78"/>
<text text-anchor="start" x="597.5" y="-66" font-family="Helvetica,sans-Serif" font-size="10.00">pyc::physics::polar</text>
<text text-anchor="middle" x="643" y="-55" font-family="Helvetica,sans-Serif" font-size="10.00">::separate::Theta</text>
</a>
</g>
</g>
<!-- Node1&#45;&gt;Node17 -->
<g id="edge16_Node000001_Node000017" class="edge">
<title>Node1&#45;&gt;Node17</title>
<g id="a_edge16_Node000001_Node000017"><a xlink:title=" ">
<path fill="none" stroke="#63b8ff" d="M764.87,-119.86C748.98,-109.81 727.18,-96.74 707,-87 700.46,-83.85 693.4,-80.81 686.44,-78.03"/>
<polygon fill="#63b8ff" stroke="#63b8ff" points="763.18,-122.93 773.49,-125.37 766.95,-117.03 763.18,-122.93"/>
</a>
</g>
</g>
<!-- Node18 -->
<g id="Node000018" class="node">
<title>Node18</title>
<g id="a_Node000018"><a xlink:href="namespacepyc_1_1physics_1_1cartesian_1_1separate.html#a82aecb485f9b6534ebcf8921b03c1bbc" target="_top" xlink:title=" ">
<polygon fill="white" stroke="#666666" points="707,-30 579,-30 579,0 707,0 707,-30"/>
<text text-anchor="start" x="587" y="-18" font-family="Helvetica,sans-Serif" font-size="10.00">pyc::physics::cartesian</text>
<text text-anchor="middle" x="643" y="-7" font-family="Helvetica,sans-Serif" font-size="10.00">::separate::Theta</text>
</a>
</g>
</g>
<!-- Node1&#45;&gt;Node18 -->
<g id="edge17_Node000001_Node000018" class="edge">
<title>Node1&#45;&gt;Node18</title>
<g id="a_edge17_Node000001_Node000018"><a xlink:title=" ">
<path fill="none" stroke="#63b8ff" d="M776.92,-116.99C762.99,-95.69 737.21,-60.43 707,-39 702.23,-35.61 696.91,-32.64 691.46,-30.03"/>
<polygon fill="#63b8ff" stroke="#63b8ff" points="773.98,-118.88 782.3,-125.44 779.88,-115.12 773.98,-118.88"/>
</a>
</g>
</g>
<!-- Node3 -->
<g id="Node000003" class="node">
<title>Node3</title>
<g id="a_Node000003"><a xlink:href="nusol_2tensor_2nusol_8cxx.html#ab477f38adf15df486af1a3311204aa26" target="_top" xlink:title=" ">
<polygon fill="white" stroke="#666666" points="522,-285.5 481,-285.5 481,-266.5 522,-266.5 522,-285.5"/>
<text text-anchor="middle" x="501.5" y="-273.5" font-family="Helvetica,sans-Serif" font-size="10.00">_xNu</text>
</a>
</g>
</g>
<!-- Node2&#45;&gt;Node3 -->
<g id="edge2_Node000002_Node000003" class="edge">
<title>Node2&#45;&gt;Node3</title>
<g id="a_edge2_Node000002_Node000003"><a xlink:title=" ">
<path fill="none" stroke="#63b8ff" d="M604.05,-249.07C577.58,-256.09 543.34,-265.17 522.15,-270.79"/>
<polygon fill="#63b8ff" stroke="#63b8ff" points="605,-252.43 613.77,-246.49 603.21,-245.67 605,-252.43"/>
</a>
</g>
</g>
<!-- Node6 -->
<g id="Node000006" class="node">
<title>Node6</title>
<g id="a_Node000006"><a xlink:href="namespacenusol__.html#a3aacd3a83799d6a470d6188008fd069a" target="_top" xlink:title=" ">
<polygon fill="white" stroke="#666666" points="543,-248.5 460,-248.5 460,-229.5 543,-229.5 543,-248.5"/>
<text text-anchor="middle" x="501.5" y="-236.5" font-family="Helvetica,sans-Serif" font-size="10.00">nusol_::Hperp</text>
</a>
</g>
</g>
<!-- Node2&#45;&gt;Node6 -->
<g id="edge5_Node000002_Node000006" class="edge">
<title>Node2&#45;&gt;Node6</title>
<g id="a_edge5_Node000002_Node000006"><a xlink:title=" ">
<path fill="none" stroke="#63b8ff" d="M603.76,-239C584.94,-239 562.25,-239 543.12,-239"/>
<polygon fill="#63b8ff" stroke="#63b8ff" points="603.77,-242.5 613.77,-239 603.77,-235.5 603.77,-242.5"/>
</a>
</g>
</g>
<!-- Node7 -->
<g id="Node000007" class="node">
<title>Node7</title>
<g id="a_Node000007"><a xlink:href="namespacenusol__.html#ac849ef3564c5ac968727dce36494fd0a" target="_top" xlink:title=" ">
<polygon fill="white" stroke="#666666" points="542,-211.5 461,-211.5 461,-192.5 542,-192.5 542,-211.5"/>
<text text-anchor="middle" x="501.5" y="-199.5" font-family="Helvetica,sans-Serif" font-size="10.00">nusol_::NuNu</text>
</a>
</g>
</g>
<!-- Node2&#45;&gt;Node7 -->
<g id="edge6_Node000002_Node000007" class="edge">
<title>Node2&#45;&gt;Node7</title>
<g id="a_edge6_Node000002_Node000007"><a xlink:title=" ">
<path fill="none" stroke="#63b8ff" d="M603.86,-228.88C583.45,-223.47 558.45,-216.84 538.39,-211.52"/>
<polygon fill="#63b8ff" stroke="#63b8ff" points="603.21,-232.33 613.77,-231.51 605,-225.57 603.21,-232.33"/>
</a>
</g>
</g>
<!-- Node4 -->
<g id="Node000004" class="node">
<title>Node4</title>
<g id="a_Node000004"><a xlink:href="namespacenusol__.html#a6f05175e14627bd3c34ffa61686b7da4" target="_top" xlink:title=" ">
<polygon fill="white" stroke="#666666" points="408.5,-285.5 340.5,-285.5 340.5,-266.5 408.5,-266.5 408.5,-285.5"/>
<text text-anchor="middle" x="374.5" y="-273.5" font-family="Helvetica,sans-Serif" font-size="10.00">nusol_::Nu</text>
</a>
</g>
</g>
<!-- Node3&#45;&gt;Node4 -->
<g id="edge3_Node000003_Node000004" class="edge">
<title>Node3&#45;&gt;Node4</title>
<g id="a_edge3_Node000003_Node000004"><a xlink:title=" ">
<path fill="none" stroke="#63b8ff" d="M470.92,-276C452.17,-276 427.88,-276 408.51,-276"/>
<polygon fill="#63b8ff" stroke="#63b8ff" points="470.97,-279.5 480.97,-276 470.97,-272.5 470.97,-279.5"/>
</a>
</g>
</g>
<!-- Node5 -->
<g id="Node000005" class="node">
<title>Node5</title>
<g id="a_Node000005"><a xlink:href="namespacepyc_1_1nusol.html#a991cfa801400211ccf412bd1a85b7b69" target="_top" xlink:title=" ">
<polygon fill="white" stroke="#666666" points="261.5,-285.5 175.5,-285.5 175.5,-266.5 261.5,-266.5 261.5,-285.5"/>
<text text-anchor="middle" x="218.5" y="-273.5" font-family="Helvetica,sans-Serif" font-size="10.00">pyc::nusol::Nu</text>
</a>
</g>
</g>
<!-- Node4&#45;&gt;Node5 -->
<g id="edge4_Node000004_Node000005" class="edge">
<title>Node4&#45;&gt;Node5</title>
<g id="a_edge4_Node000004_Node000005"><a xlink:title=" ">
<path fill="none" stroke="#63b8ff" d="M330.3,-276C308.8,-276 282.92,-276 261.58,-276"/>
<polygon fill="#63b8ff" stroke="#63b8ff" points="330.46,-279.5 340.46,-276 330.46,-272.5 330.46,-279.5"/>
</a>
</g>
</g>
<!-- Node8 -->
<g id="Node000008" class="node">
<title>Node8</title>
<g id="a_Node000008"><a xlink:href="namespacepyc_1_1nusol.html#af7bb509b120cb3314695cecd70bc5c11" target="_top" xlink:title=" ">
<polygon fill="white" stroke="#666666" points="424,-230.5 325,-230.5 325,-211.5 424,-211.5 424,-230.5"/>
<text text-anchor="middle" x="374.5" y="-218.5" font-family="Helvetica,sans-Serif" font-size="10.00">pyc::nusol::NuNu</text>
</a>
</g>
</g>
<!-- Node7&#45;&gt;Node8 -->
<g id="edge7_Node000007_Node000008" class="edge">
<title>Node7&#45;&gt;Node8</title>
<g id="a_edge7_Node000007_Node000008"><a xlink:title=" ">
<path fill="none" stroke="#63b8ff" d="M450.8,-209.55C441.98,-210.9 432.8,-212.29 424.01,-213.63"/>
<polygon fill="#63b8ff" stroke="#63b8ff" points="451.59,-212.97 460.95,-208.01 450.54,-206.05 451.59,-212.97"/>
</a>
</g>
</g>
<!-- Node9 -->
<g id="Node000009" class="node">
<title>Node9</title>
<g id="a_Node000009"><a xlink:href="namespacepyc_1_1nusol.html#a9650527ae538fa27121bedfb79a1fbe6" target="_top" xlink:title=" ">
<polygon fill="white" stroke="#666666" points="424,-193.5 325,-193.5 325,-174.5 424,-174.5 424,-193.5"/>
<text text-anchor="middle" x="374.5" y="-181.5" font-family="Helvetica,sans-Serif" font-size="10.00">pyc::nusol::NuNu</text>
</a>
</g>
</g>
<!-- Node7&#45;&gt;Node9 -->
<g id="edge8_Node000007_Node000009" class="edge">
<title>Node7&#45;&gt;Node9</title>
<g id="a_edge8_Node000007_Node000009"><a xlink:title=" ">
<path fill="none" stroke="#63b8ff" d="M450.8,-194.84C441.98,-193.57 432.8,-192.25 424.01,-190.99"/>
<polygon fill="#63b8ff" stroke="#63b8ff" points="450.55,-198.34 460.95,-196.3 451.55,-191.42 450.55,-198.34"/>
</a>
</g>
</g>
<!-- Node10 -->
<g id="Node000010" class="node">
<title>Node10</title>
<g id="a_Node000010"><a xlink:href="namespacepyc_1_1nusol.html#aaaf252028ed63bf2d561dffcd76916e2" target="_top" xlink:title=" ">
<polygon fill="white" stroke="#666666" points="268,-230.5 169,-230.5 169,-211.5 268,-211.5 268,-230.5"/>
<text text-anchor="middle" x="218.5" y="-218.5" font-family="Helvetica,sans-Serif" font-size="10.00">pyc::nusol::NuNu</text>
</a>
</g>
</g>
<!-- Node9&#45;&gt;Node10 -->
<g id="edge9_Node000009_Node000010" class="edge">
<title>Node9&#45;&gt;Node10</title>
<g id="a_edge9_Node000009_Node000010"><a xlink:title=" ">
<path fill="none" stroke="#63b8ff" d="M323.87,-195.93C302.97,-200.94 278.99,-206.71 259.29,-211.44"/>
<polygon fill="#63b8ff" stroke="#63b8ff" points="324.94,-199.27 333.84,-193.53 323.3,-192.46 324.94,-199.27"/>
</a>
</g>
</g>
<!-- Node11 -->
<g id="Node000011" class="node">
<title>Node11</title>
<g id="a_Node000011"><a xlink:href="namespacepyc_1_1nusol.html#af88804c21a54435a41be99cbc03faf30" target="_top" xlink:title=" ">
<polygon fill="white" stroke="#666666" points="268,-193.5 169,-193.5 169,-174.5 268,-174.5 268,-193.5"/>
<text text-anchor="middle" x="218.5" y="-181.5" font-family="Helvetica,sans-Serif" font-size="10.00">pyc::nusol::NuNu</text>
</a>
</g>
</g>
<!-- Node9&#45;&gt;Node11 -->
<g id="edge10_Node000009_Node000011" class="edge">
<title>Node9&#45;&gt;Node11</title>
<g id="a_edge10_Node000009_Node000011"><a xlink:title=" ">
<path fill="none" stroke="#63b8ff" d="M314.39,-184C299.12,-184 282.85,-184 268.17,-184"/>
<polygon fill="#63b8ff" stroke="#63b8ff" points="314.77,-187.5 324.77,-184 314.77,-180.5 314.77,-187.5"/>
</a>
</g>
</g>
<!-- Node12 -->
<g id="Node000012" class="node">
<title>Node12</title>
<g id="a_Node000012"><a xlink:href="classvalidation.html#aa436b348c281a3d676910cf7b7d575eb" target="_top" xlink:title=" ">
<polygon fill="white" stroke="#666666" points="289,-156.5 148,-156.5 148,-137.5 289,-137.5 289,-156.5"/>
<text text-anchor="middle" x="218.5" y="-144.5" font-family="Helvetica,sans-Serif" font-size="10.00">validation::reconstruction</text>
</a>
</g>
</g>
<!-- Node9&#45;&gt;Node12 -->
<g id="edge11_Node000009_Node000012" class="edge">
<title>Node9&#45;&gt;Node12</title>
<g id="a_edge11_Node000009_Node000012"><a xlink:title=" ">
<path fill="none" stroke="#63b8ff" d="M323.87,-172.07C302.97,-167.06 278.99,-161.29 259.29,-156.56"/>
<polygon fill="#63b8ff" stroke="#63b8ff" points="323.3,-175.54 333.84,-174.47 324.94,-168.73 323.3,-175.54"/>
</a>
</g>
</g>
<!-- Node13 -->
<g id="Node000013" class="node">
<title>Node13</title>
<g id="a_Node000013"><a xlink:href="classvalidation.html#af388ba0e867008a75602581fdc2ed0f3" target="_top" xlink:title="Alternative selection strategy method.">
<polygon fill="white" stroke="#666666" points="112,-156.5 0,-156.5 0,-137.5 112,-137.5 112,-156.5"/>
<text text-anchor="middle" x="56" y="-144.5" font-family="Helvetica,sans-Serif" font-size="10.00">validation::strategy</text>
</a>
</g>
</g>
<!-- Node12&#45;&gt;Node13 -->
<g id="edge12_Node000012_Node000013" class="edge">
<title>Node12&#45;&gt;Node13</title>
<g id="a_edge12_Node000012_Node000013"><a xlink:title=" ">
<path fill="none" stroke="#63b8ff" d="M137.54,-147C128.98,-147 120.41,-147 112.23,-147"/>
<polygon fill="#63b8ff" stroke="#63b8ff" points="137.57,-150.5 147.57,-147 137.57,-143.5 137.57,-150.5"/>
</a>
</g>
</g>
</g>
</svg>

<g id="navigator" transform="translate(0 0)" fill="#404254">
  <rect fill="#f2f5e9" fill-opacity="0.5" stroke="#606060" stroke-width=".5" x="0" y="0" width="60" height="60"/>
  <use id="zoomplus" xlink:href="#zoomPlus" x="17" y="9" onmousedown="handleZoom(evt,'in')"/>
  <use id="zoomminus" xlink:href="#zoomMin" x="42" y="9" onmousedown="handleZoom(evt,'out')"/>
  <use id="reset" xlink:href="#resetDef" x="30" y="36" onmousedown="handleReset()"/>
   <use id="arrowup" xlink:href="#arrowUp" x="0" y="0" onmousedown="handlePan(0,-1)"/>
  <use id="arrowright" xlink:href="#arrowRight" x="0" y="0" onmousedown="handlePan(1,0)"/>
  <use id="arrowdown" xlink:href="#arrowDown" x="0" y="0" onmousedown="handlePan(0,1)"/>
  <use id="arrowleft" xlink:href="#arrowLeft" x="0" y="0" onmousedown="handlePan(-1,0)"/>
</g>
<svg viewBox="0 0 15 15" width="100%" height="30px" preserveAspectRatio="xMaxYMin meet">
 <g id="arrow_out" transform="scale(0.3 0.3)">
  <a xlink:href="namespacephysics___a6d323b672a05eb19edce0b4d818bdb7f_icgraph_org.svg" target="_base">
   <rect id="button" ry="5" rx="5" y="6" x="6" height="38" width="38"
        fill="#f2f5e9" fill-opacity="0.5" stroke="#606060" stroke-width="1.0"/>
   <path id="arrow"
     d="M 11.500037,31.436501 C 11.940474,20.09759 22.043105,11.32322 32.158766,21.979434 L 37.068811,17.246167 C 37.068811,17.246167 37.088388,32 37.088388,32 L 22.160133,31.978069 C 22.160133,31.978069 26.997745,27.140456 26.997745,27.140456 C 18.528582,18.264221 13.291696,25.230495 11.500037,31.436501 z"
     style="fill:#404040;"/>
  </a>
 </g>
</svg>

<style type='text/css'>
<![CDATA[
[data-mouse-over-selected='false'] { opacity: 0.7; }
[data-mouse-over-selected='true']  { opacity: 1.0; }
]]>
</style>
<script type="application/ecmascript"><![CDATA[
document.addEventListener('DOMContentLoaded', (event) => {
  highlightEdges();
  highlightAdjacentNodes();
});
]]></script>
</svg>
