<?xml version="1.0" encoding="UTF-8" standalone="no"?>
<!DOCTYPE svg PUBLIC "-//W3C//DTD SVG 1.1//EN"
 "http://www.w3.org/Graphics/SVG/1.1/DTD/svg11.dtd">
<!-- Generated by graphviz version 2.43.0 (0)
 -->
<!-- Title: transform_::Pt Pages: 1 -->
<svg width="288pt" height="138pt"
 viewBox="0.00 0.00 288.00 138.00" xmlns="http://www.w3.org/2000/svg" xmlns:xlink="http://www.w3.org/1999/xlink">
<g id="graph0" class="graph" transform="scale(1 1) rotate(0) translate(4 134)">
<title>transform_::Pt</title>
<!-- Node1 -->
<g id="Node000001" class="node">
<title>Node1</title>
<g id="a_Node000001"><a xlink:title="Computes the transverse momentum (Pt).">
<polygon fill="#999999" stroke="#666666" points="280,-74 194,-74 194,-55 280,-55 280,-74"/>
<text text-anchor="middle" x="237" y="-62" font-family="Helvetica,sans-Serif" font-size="10.00">transform_::Pt</text>
</a>
</g>
</g>
<!-- Node2 -->
<g id="Node000002" class="node">
<title>Node2</title>
<g id="a_Node000002"><a xlink:href="namespacetransform__.html#acc7eba6662ac0e84d9810a61be60b0ef" target="_top" xlink:title="Computes the pseudorapidity (Eta) from x, y, and z components of momentum.">
<polygon fill="white" stroke="#666666" points="125,-130 33,-130 33,-111 125,-111 125,-130"/>
<text text-anchor="middle" x="79" y="-118" font-family="Helvetica,sans-Serif" font-size="10.00">transform_::Eta</text>
</a>
</g>
</g>
<!-- Node1&#45;&gt;Node2 -->
<g id="edge1_Node000001_Node000002" class="edge">
<title>Node1&#45;&gt;Node2</title>
<g id="a_edge1_Node000001_Node000002"><a xlink:title=" ">
<path fill="none" stroke="#63b8ff" d="M210.04,-78.99C195.17,-86.82 175.94,-96.15 158,-102.5 147.52,-106.21 135.97,-109.36 125.05,-111.93"/>
<polygon fill="#63b8ff" stroke="#63b8ff" points="211.98,-81.92 219.13,-74.11 208.67,-75.75 211.98,-81.92"/>
</a>
</g>
</g>
<!-- Node3 -->
<g id="Node000003" class="node">
<title>Node3</title>
<g id="a_Node000003"><a xlink:href="namespacepyc_1_1transform_1_1combined.html#a680febec023c0411595f222171f74104" target="_top" xlink:title=" ">
<polygon fill="white" stroke="#666666" points="158,-93 0,-93 0,-74 158,-74 158,-93"/>
<text text-anchor="middle" x="79" y="-81" font-family="Helvetica,sans-Serif" font-size="10.00">pyc::transform::combined::Pt</text>
</a>
</g>
</g>
<!-- Node1&#45;&gt;Node3 -->
<g id="edge2_Node000001_Node000003" class="edge">
<title>Node1&#45;&gt;Node3</title>
<g id="a_edge2_Node000001_Node000003"><a xlink:title=" ">
<path fill="none" stroke="#63b8ff" d="M183.61,-70.88C175.36,-71.89 166.69,-72.94 158.02,-74"/>
<polygon fill="#63b8ff" stroke="#63b8ff" points="184.28,-74.33 193.78,-69.64 183.43,-67.38 184.28,-74.33"/>
</a>
</g>
</g>
<!-- Node4 -->
<g id="Node000004" class="node">
<title>Node4</title>
<g id="a_Node000004"><a xlink:href="namespacepyc_1_1transform_1_1separate.html#ac39ab15060137d8530e03df90843e6b3" target="_top" xlink:title=" ">
<polygon fill="white" stroke="#666666" points="155,-56 3,-56 3,-37 155,-37 155,-56"/>
<text text-anchor="middle" x="79" y="-44" font-family="Helvetica,sans-Serif" font-size="10.00">pyc::transform::separate::Pt</text>
</a>
</g>
</g>
<!-- Node1&#45;&gt;Node4 -->
<g id="edge3_Node000001_Node000004" class="edge">
<title>Node1&#45;&gt;Node4</title>
<g id="a_edge3_Node000001_Node000004"><a xlink:title=" ">
<path fill="none" stroke="#63b8ff" d="M183.65,-58.46C174.44,-57.4 164.69,-56.27 155.01,-55.16"/>
<polygon fill="#63b8ff" stroke="#63b8ff" points="183.45,-61.96 193.78,-59.63 184.25,-55.01 183.45,-61.96"/>
</a>
</g>
</g>
<!-- Node5 -->
<g id="Node000005" class="node">
<title>Node5</title>
<g id="a_Node000005"><a xlink:href="namespacetransform__.html#a8d2ad529d804087c315e151410e4a7a1" target="_top" xlink:title="Computes the transverse momentum (Pt), pseudorapidity (Eta), and azimuthal angle (Phi) from x,...">
<polygon fill="white" stroke="#666666" points="137,-19 21,-19 21,0 137,0 137,-19"/>
<text text-anchor="middle" x="79" y="-7" font-family="Helvetica,sans-Serif" font-size="10.00">transform_::PtEtaPhi</text>
</a>
</g>
</g>
<!-- Node1&#45;&gt;Node5 -->
<g id="edge4_Node000001_Node000005" class="edge">
<title>Node1&#45;&gt;Node5</title>
<g id="a_edge4_Node000001_Node000005"><a xlink:title=" ">
<path fill="none" stroke="#63b8ff" d="M208.76,-50.35C194.02,-43.1 175.33,-34.55 158,-28.5 147.74,-24.92 136.48,-21.76 125.8,-19.09"/>
<polygon fill="#63b8ff" stroke="#63b8ff" points="207.31,-53.54 217.82,-54.89 210.45,-47.28 207.31,-53.54"/>
</a>
</g>
</g>
</g>
</svg>
