<?xml version="1.0" encoding="UTF-8" standalone="no"?>
<!DOCTYPE svg PUBLIC "-//W3C//DTD SVG 1.1//EN"
 "http://www.w3.org/Graphics/SVG/1.1/DTD/svg11.dtd">
<!-- Generated by graphviz version 2.43.0 (0)
 -->
<!-- Title: pyc::physics::polar::separate::Mt Pages: 1 -->
<svg width="357pt" height="101pt"
 viewBox="0.00 0.00 357.00 101.00" xmlns="http://www.w3.org/2000/svg" xmlns:xlink="http://www.w3.org/1999/xlink">
<g id="graph0" class="graph" transform="scale(1 1) rotate(0) translate(4 97)">
<title>pyc::physics::polar::separate::Mt</title>
<!-- Node1 -->
<g id="Node000001" class="node">
<title>Node1</title>
<g id="a_Node000001"><a xlink:title=" ">
<polygon fill="#999999" stroke="#666666" points="107,-61.5 0,-61.5 0,-31.5 107,-31.5 107,-61.5"/>
<text text-anchor="start" x="8" y="-49.5" font-family="Helvetica,sans-Serif" font-size="10.00">pyc::physics::polar</text>
<text text-anchor="middle" x="53.5" y="-38.5" font-family="Helvetica,sans-Serif" font-size="10.00">::separate::Mt</text>
</a>
</g>
</g>
<!-- Node2 -->
<g id="Node000002" class="node">
<title>Node2</title>
<g id="a_Node000002"><a xlink:href="utils_8cxx.html#a123aed6d73594e07c6401a7a6c587808" target="_top" xlink:title=" ">
<polygon fill="white" stroke="#666666" points="221.5,-93 151.5,-93 151.5,-74 221.5,-74 221.5,-93"/>
<text text-anchor="middle" x="186.5" y="-81" font-family="Helvetica,sans-Serif" font-size="10.00">changedev</text>
</a>
</g>
</g>
<!-- Node1&#45;&gt;Node2 -->
<g id="edge1_Node000001_Node000002" class="edge">
<title>Node1&#45;&gt;Node2</title>
<g id="a_edge1_Node000001_Node000002"><a xlink:title=" ">
<path fill="none" stroke="#63b8ff" d="M107.03,-61.34C118.58,-64.6 130.7,-68.02 141.86,-71.17"/>
<polygon fill="#63b8ff" stroke="#63b8ff" points="141.22,-74.63 151.79,-73.98 143.12,-67.89 141.22,-74.63"/>
</a>
</g>
</g>
<!-- Node3 -->
<g id="Node000003" class="node">
<title>Node3</title>
<g id="a_Node000003"><a xlink:href="namespacephysics__.html#af5fecf9c76889e0e996dc44793e67153" target="_top" xlink:title="Computes the transverse mass.">
<polygon fill="white" stroke="#666666" points="225,-56 148,-56 148,-37 225,-37 225,-56"/>
<text text-anchor="middle" x="186.5" y="-44" font-family="Helvetica,sans-Serif" font-size="10.00">physics_::Mt</text>
</a>
</g>
</g>
<!-- Node1&#45;&gt;Node3 -->
<g id="edge2_Node000001_Node000003" class="edge">
<title>Node1&#45;&gt;Node3</title>
<g id="a_edge2_Node000001_Node000003"><a xlink:title=" ">
<path fill="none" stroke="#63b8ff" d="M107.03,-46.5C117.17,-46.5 127.75,-46.5 137.73,-46.5"/>
<polygon fill="#63b8ff" stroke="#63b8ff" points="137.87,-50 147.87,-46.5 137.87,-43 137.87,-50"/>
</a>
</g>
</g>
<!-- Node5 -->
<g id="Node000005" class="node">
<title>Node5</title>
<g id="a_Node000005"><a xlink:href="namespacetransform__.html#a28be39b0041a97b1667ccd1ff301f784" target="_top" xlink:title="Computes the z&#45;component of momentum (Pz).">
<polygon fill="white" stroke="#666666" points="230,-19 143,-19 143,0 230,0 230,-19"/>
<text text-anchor="middle" x="186.5" y="-7" font-family="Helvetica,sans-Serif" font-size="10.00">transform_::Pz</text>
</a>
</g>
</g>
<!-- Node1&#45;&gt;Node5 -->
<g id="edge4_Node000001_Node000005" class="edge">
<title>Node1&#45;&gt;Node5</title>
<g id="a_edge4_Node000001_Node000005"><a xlink:title=" ">
<path fill="none" stroke="#63b8ff" d="M107.03,-31.66C118.58,-28.4 130.7,-24.98 141.86,-21.83"/>
<polygon fill="#63b8ff" stroke="#63b8ff" points="143.12,-25.11 151.79,-19.02 141.22,-18.37 143.12,-25.11"/>
</a>
</g>
</g>
<!-- Node4 -->
<g id="Node000004" class="node">
<title>Node4</title>
<g id="a_Node000004"><a xlink:href="namespacephysics__.html#a3d421991e1f29e21ba3d495c6ae6c93d" target="_top" xlink:title="Computes the square of the transverse mass.">
<polygon fill="white" stroke="#666666" points="349,-56 266,-56 266,-37 349,-37 349,-56"/>
<text text-anchor="middle" x="307.5" y="-44" font-family="Helvetica,sans-Serif" font-size="10.00">physics_::Mt2</text>
</a>
</g>
</g>
<!-- Node3&#45;&gt;Node4 -->
<g id="edge3_Node000003_Node000004" class="edge">
<title>Node3&#45;&gt;Node4</title>
<g id="a_edge3_Node000003_Node000004"><a xlink:title=" ">
<path fill="none" stroke="#63b8ff" d="M225.15,-46.5C234.86,-46.5 245.46,-46.5 255.71,-46.5"/>
<polygon fill="#63b8ff" stroke="#63b8ff" points="255.8,-50 265.8,-46.5 255.8,-43 255.8,-50"/>
</a>
</g>
</g>
</g>
</svg>
