<?xml version="1.0" encoding="UTF-8" standalone="no"?>
<!DOCTYPE svg PUBLIC "-//W3C//DTD SVG 1.1//EN"
 "http://www.w3.org/Graphics/SVG/1.1/DTD/svg11.dtd">
<!-- Generated by graphviz version 2.43.0 (0)
 -->
<!-- Title: transform_::Py Pages: 1 -->
<!--zoomable 875 -->

<svg id="main" version="1.1" xmlns="http://www.w3.org/2000/svg" xmlns:xlink="http://www.w3.org/1999/xlink" xml:space="preserve" onload="init(evt)">
<style type="text/css"><![CDATA[
.node, .edge {opacity: 0.7;}
.node.selected, .edge.selected {opacity: 1;}
.edge:hover path { stroke: red; }
.edge:hover polygon { stroke: red; fill: red; }
]]></style>

<defs>
  <circle id="rim" cx="0" cy="0" r="7"/>
  <circle id="rim2" cx="0" cy="0" r="3.5"/>
  <g id="zoomPlus">
    <use xlink:href="#rim" fill="#404040"><set attributeName="fill" to="#808080" begin="zoomplus.mouseover" end="zoomplus.mouseout"/></use>
    <path d="M-4,0h8M0,-4v8" fill="none" stroke="white" stroke-width="1.5" pointer-events="none"/>
  </g>
  <g id="zoomMin">
    <use xlink:href="#rim" fill="#404040"><set attributeName="fill" to="#808080" begin="zoomminus.mouseover" end="zoomminus.mouseout"/></use>
    <path d="M-4,0h8" fill="none" stroke="white" stroke-width="1.5" pointer-events="none"/>
  </g>
  <g id="arrowUp" transform="translate(30 24)">
    <use xlink:href="#rim"/>
    <path pointer-events="none" fill="none" stroke="white" stroke-width="1.5" d="M0,-3.0v7 M-2.5,-0.5L0,-3.0L2.5,-0.5"/>
  </g>
  <g id="arrowRight" transform="rotate(90) translate(36 -43)">
    <use xlink:href="#rim"/>
    <path pointer-events="none" fill="none" stroke="white" stroke-width="1.5" d="M0,-3.0v7 M-2.5,-0.5L0,-3.0L2.5,-0.5"/>
  </g>
  <g id="arrowDown" transform="rotate(180) translate(-30 -48)">
    <use xlink:href="#rim"/>
    <path pointer-events="none" fill="none" stroke="white" stroke-width="1.5" d="M0,-3.0v7 M-2.5,-0.5L0,-3.0L2.5,-0.5"/>
  </g>
  <g id="arrowLeft" transform="rotate(270) translate(-36 17)">
    <use xlink:href="#rim"/>
    <path pointer-events="none" fill="none" stroke="white" stroke-width="1.5" d="M0,-3.0v7 M-2.5,-0.5L0,-3.0L2.5,-0.5"/>
  </g>
  <g id="resetDef">
    <use xlink:href="#rim2" fill="#404040"><set attributeName="fill" to="#808080" begin="reset.mouseover" end="reset.mouseout"/></use>
  </g>
</defs>
<script type="application/ecmascript">
var viewWidth = 1040;
var viewHeight = 875;
var sectionId = 'dynsection-20';
</script>
<script type="application/ecmascript" xlink:href="svg.min.js"/>
<svg id="graph" class="graph">
<g id="viewport">
<title>transform_::Py</title>
<!-- Node1 -->
<g id="Node000001" class="node">
<title>Node1</title>
<g id="a_Node000001"><a xlink:title="Computes the y&#45;component of momentum (Py).">
<polygon fill="#999999" stroke="#666666" points="1032,-309 944,-309 944,-290 1032,-290 1032,-309"/>
<text text-anchor="middle" x="988" y="-297" font-family="Helvetica,sans-Serif" font-size="10.00">transform_::Py</text>
</a>
</g>
</g>
<!-- Node2 -->
<g id="Node000002" class="node">
<title>Node2</title>
<g id="a_Node000002"><a xlink:href="namespacetransform__.html#aa38819d479d31edd3f79b4f8e96ef8be" target="_top" xlink:title="Computes the 3&#45;momentum (Px, Py, Pz).">
<polygon fill="white" stroke="#666666" points="883.5,-568 772.5,-568 772.5,-549 883.5,-549 883.5,-568"/>
<text text-anchor="middle" x="828" y="-556" font-family="Helvetica,sans-Serif" font-size="10.00">transform_::PxPyPz</text>
</a>
</g>
</g>
<!-- Node1&#45;&gt;Node2 -->
<g id="edge1_Node000001_Node000002" class="edge">
<title>Node1&#45;&gt;Node2</title>
<g id="a_edge1_Node000001_Node000002"><a xlink:title=" ">
<path fill="none" stroke="#63b8ff" d="M975.93,-317.65C944.97,-368.4 858.23,-510.58 834.86,-548.89"/>
<polygon fill="#63b8ff" stroke="#63b8ff" points="978.97,-319.38 981.19,-309.03 972.99,-315.74 978.97,-319.38"/>
</a>
</g>
</g>
<!-- Node34 -->
<g id="Node000034" class="node">
<title>Node34</title>
<g id="a_Node000034"><a xlink:href="namespacetransform__.html#aba5f46ef65e5c3ed8a6f7e5075552aa2" target="_top" xlink:title="Computes the 4&#45;momentum (Px, Py, Pz, E) from a 4&#45;momentum tensor.">
<polygon fill="white" stroke="#666666" points="886.5,-328 769.5,-328 769.5,-309 886.5,-309 886.5,-328"/>
<text text-anchor="middle" x="828" y="-316" font-family="Helvetica,sans-Serif" font-size="10.00">transform_::PxPyPzE</text>
</a>
</g>
</g>
<!-- Node1&#45;&gt;Node34 -->
<g id="edge37_Node000001_Node000034" class="edge">
<title>Node1&#45;&gt;Node34</title>
<g id="a_edge37_Node000001_Node000034"><a xlink:title=" ">
<path fill="none" stroke="#63b8ff" d="M933.62,-305.92C918.51,-307.74 901.99,-309.72 886.64,-311.57"/>
<polygon fill="#63b8ff" stroke="#63b8ff" points="934.32,-309.36 943.83,-304.69 933.48,-302.41 934.32,-309.36"/>
</a>
</g>
</g>
<!-- Node35 -->
<g id="Node000035" class="node">
<title>Node35</title>
<g id="a_Node000035"><a xlink:href="namespacepyc_1_1transform_1_1combined.html#a07b48a29b544cd257e6a018bd42d665a" target="_top" xlink:title=" ">
<polygon fill="white" stroke="#666666" points="908,-291 748,-291 748,-272 908,-272 908,-291"/>
<text text-anchor="middle" x="828" y="-279" font-family="Helvetica,sans-Serif" font-size="10.00">pyc::transform::combined::Py</text>
</a>
</g>
</g>
<!-- Node1&#45;&gt;Node35 -->
<g id="edge38_Node000001_Node000035" class="edge">
<title>Node1&#45;&gt;Node35</title>
<g id="a_edge38_Node000001_Node000035"><a xlink:title=" ">
<path fill="none" stroke="#63b8ff" d="M933.7,-293.43C925.5,-292.49 916.89,-291.51 908.27,-290.53"/>
<polygon fill="#63b8ff" stroke="#63b8ff" points="933.49,-296.93 943.83,-294.58 934.29,-289.97 933.49,-296.93"/>
</a>
</g>
</g>
<!-- Node36 -->
<g id="Node000036" class="node">
<title>Node36</title>
<g id="a_Node000036"><a xlink:href="namespacepyc_1_1transform_1_1separate.html#a213b45f87684e873b719a628675b3382" target="_top" xlink:title=" ">
<polygon fill="white" stroke="#666666" points="905.5,-75 750.5,-75 750.5,-56 905.5,-56 905.5,-75"/>
<text text-anchor="middle" x="828" y="-63" font-family="Helvetica,sans-Serif" font-size="10.00">pyc::transform::separate::Py</text>
</a>
</g>
</g>
<!-- Node1&#45;&gt;Node36 -->
<g id="edge39_Node000001_Node000036" class="edge">
<title>Node1&#45;&gt;Node36</title>
<g id="a_edge39_Node000001_Node000036"><a xlink:title=" ">
<path fill="none" stroke="#63b8ff" d="M974.62,-281.17C942.86,-234.13 859.29,-110.37 835.44,-75.04"/>
<polygon fill="#63b8ff" stroke="#63b8ff" points="971.92,-283.41 980.41,-289.74 977.72,-279.5 971.92,-283.41"/>
</a>
</g>
</g>
<!-- Node3 -->
<g id="Node000003" class="node">
<title>Node3</title>
<g id="a_Node000003"><a xlink:href="namespacepyc_1_1physics_1_1polar_1_1combined.html#a5760f3a249756acd268a9c66fdf53b17" target="_top" xlink:title=" ">
<polygon fill="white" stroke="#666666" points="694.5,-803.5 587.5,-803.5 587.5,-773.5 694.5,-773.5 694.5,-803.5"/>
<text text-anchor="start" x="595.5" y="-791.5" font-family="Helvetica,sans-Serif" font-size="10.00">pyc::physics::polar</text>
<text text-anchor="middle" x="641" y="-780.5" font-family="Helvetica,sans-Serif" font-size="10.00">::combined::P</text>
</a>
</g>
</g>
<!-- Node2&#45;&gt;Node3 -->
<g id="edge2_Node000002_Node000003" class="edge">
<title>Node2&#45;&gt;Node3</title>
<g id="a_edge2_Node000002_Node000003"><a xlink:title=" ">
<path fill="none" stroke="#63b8ff" d="M821.35,-578.07C808.62,-618.72 773.91,-712.78 712,-764.5 706.87,-768.78 700.94,-772.32 694.74,-775.23"/>
<polygon fill="#63b8ff" stroke="#63b8ff" points="824.75,-578.9 824.3,-568.31 818.05,-576.87 824.75,-578.9"/>
</a>
</g>
</g>
<!-- Node4 -->
<g id="Node000004" class="node">
<title>Node4</title>
<g id="a_Node000004"><a xlink:href="namespacepyc_1_1physics_1_1polar_1_1separate.html#a4de18b7ee3dff64515722df522605c7f" target="_top" xlink:title=" ">
<polygon fill="white" stroke="#666666" points="694.5,-755.5 587.5,-755.5 587.5,-725.5 694.5,-725.5 694.5,-755.5"/>
<text text-anchor="start" x="595.5" y="-743.5" font-family="Helvetica,sans-Serif" font-size="10.00">pyc::physics::polar</text>
<text text-anchor="middle" x="641" y="-732.5" font-family="Helvetica,sans-Serif" font-size="10.00">::separate::P</text>
</a>
</g>
</g>
<!-- Node2&#45;&gt;Node4 -->
<g id="edge3_Node000002_Node000004" class="edge">
<title>Node2&#45;&gt;Node4</title>
<g id="a_edge3_Node000002_Node000004"><a xlink:title=" ">
<path fill="none" stroke="#63b8ff" d="M818.2,-577.26C801.85,-610.15 763.7,-678.33 712,-716.5 706.73,-720.39 700.78,-723.69 694.63,-726.46"/>
<polygon fill="#63b8ff" stroke="#63b8ff" points="821.35,-578.79 822.56,-568.26 815.05,-575.73 821.35,-578.79"/>
</a>
</g>
</g>
<!-- Node5 -->
<g id="Node000005" class="node">
<title>Node5</title>
<g id="a_Node000005"><a xlink:href="namespacepyc_1_1physics_1_1polar_1_1combined.html#a61c93f07eede4e32cdcf303a8a508946" target="_top" xlink:title=" ">
<polygon fill="white" stroke="#666666" points="694.5,-707.5 587.5,-707.5 587.5,-677.5 694.5,-677.5 694.5,-707.5"/>
<text text-anchor="start" x="595.5" y="-695.5" font-family="Helvetica,sans-Serif" font-size="10.00">pyc::physics::polar</text>
<text text-anchor="middle" x="641" y="-684.5" font-family="Helvetica,sans-Serif" font-size="10.00">::combined::P2</text>
</a>
</g>
</g>
<!-- Node2&#45;&gt;Node5 -->
<g id="edge4_Node000002_Node000005" class="edge">
<title>Node2&#45;&gt;Node5</title>
<g id="a_edge4_Node000002_Node000005"><a xlink:title=" ">
<path fill="none" stroke="#63b8ff" d="M812.92,-576.1C792.86,-600.11 753.83,-643.04 712,-668.5 706.51,-671.84 700.5,-674.79 694.37,-677.38"/>
<polygon fill="#63b8ff" stroke="#63b8ff" points="815.78,-578.13 819.42,-568.18 810.37,-573.69 815.78,-578.13"/>
</a>
</g>
</g>
<!-- Node6 -->
<g id="Node000006" class="node">
<title>Node6</title>
<g id="a_Node000006"><a xlink:href="namespacepyc_1_1physics_1_1polar_1_1separate.html#a164422e673f81c41b4a16f950beb8cdd" target="_top" xlink:title=" ">
<polygon fill="white" stroke="#666666" points="694.5,-659.5 587.5,-659.5 587.5,-629.5 694.5,-629.5 694.5,-659.5"/>
<text text-anchor="start" x="595.5" y="-647.5" font-family="Helvetica,sans-Serif" font-size="10.00">pyc::physics::polar</text>
<text text-anchor="middle" x="641" y="-636.5" font-family="Helvetica,sans-Serif" font-size="10.00">::separate::P2</text>
</a>
</g>
</g>
<!-- Node2&#45;&gt;Node6 -->
<g id="edge5_Node000002_Node000006" class="edge">
<title>Node2&#45;&gt;Node6</title>
<g id="a_edge5_Node000002_Node000006"><a xlink:title=" ">
<path fill="none" stroke="#63b8ff" d="M802.33,-573.34C779.43,-586.73 744.14,-606.44 712,-620.5 704.82,-623.64 697.09,-626.65 689.47,-629.41"/>
<polygon fill="#63b8ff" stroke="#63b8ff" points="804.21,-576.29 811.04,-568.19 800.65,-570.26 804.21,-576.29"/>
</a>
</g>
</g>
<!-- Node7 -->
<g id="Node000007" class="node">
<title>Node7</title>
<g id="a_Node000007"><a xlink:href="namespacetransform__.html#a3cdf10dcac51733e3b2fb18cb2e6ff6e" target="_top" xlink:title="Computes the 3&#45;momentum (Px, Py, Pz) from a 4&#45;momentum tensor.">
<polygon fill="white" stroke="#666666" points="696.5,-611 585.5,-611 585.5,-592 696.5,-592 696.5,-611"/>
<text text-anchor="middle" x="641" y="-599" font-family="Helvetica,sans-Serif" font-size="10.00">transform_::PxPyPz</text>
</a>
</g>
</g>
<!-- Node2&#45;&gt;Node7 -->
<g id="edge6_Node000002_Node000007" class="edge">
<title>Node2&#45;&gt;Node7</title>
<g id="a_edge6_Node000002_Node000007"><a xlink:title=" ">
<path fill="none" stroke="#63b8ff" d="M775.9,-570.38C746.61,-577.19 710.34,-585.62 682.94,-591.98"/>
<polygon fill="#63b8ff" stroke="#63b8ff" points="776.99,-573.72 785.94,-568.04 775.41,-566.9 776.99,-573.72"/>
</a>
</g>
</g>
<!-- Node8 -->
<g id="Node000008" class="node">
<title>Node8</title>
<g id="a_Node000008"><a xlink:href="namespacepyc_1_1transform_1_1combined.html#a8482b4b93214aac74261dddc72a2d9d5" target="_top" xlink:title=" ">
<polygon fill="white" stroke="#666666" points="712,-573.5 570,-573.5 570,-543.5 712,-543.5 712,-573.5"/>
<text text-anchor="start" x="578" y="-561.5" font-family="Helvetica,sans-Serif" font-size="10.00">pyc::transform::combined</text>
<text text-anchor="middle" x="641" y="-550.5" font-family="Helvetica,sans-Serif" font-size="10.00">::PxPyPz</text>
</a>
</g>
</g>
<!-- Node2&#45;&gt;Node8 -->
<g id="edge7_Node000002_Node000008" class="edge">
<title>Node2&#45;&gt;Node8</title>
<g id="a_edge7_Node000002_Node000008"><a xlink:title=" ">
<path fill="none" stroke="#63b8ff" d="M762.1,-558.5C745.98,-558.5 728.63,-558.5 712.26,-558.5"/>
<polygon fill="#63b8ff" stroke="#63b8ff" points="762.49,-562 772.49,-558.5 762.49,-555 762.49,-562"/>
</a>
</g>
</g>
<!-- Node9 -->
<g id="Node000009" class="node">
<title>Node9</title>
<g id="a_Node000009"><a xlink:href="namespacepyc_1_1transform_1_1separate.html#a334c379394a6e0947d8e32c62e8ccb91" target="_top" xlink:title=" ">
<polygon fill="white" stroke="#666666" points="709.5,-525.5 572.5,-525.5 572.5,-495.5 709.5,-495.5 709.5,-525.5"/>
<text text-anchor="start" x="580.5" y="-513.5" font-family="Helvetica,sans-Serif" font-size="10.00">pyc::transform::separate</text>
<text text-anchor="middle" x="641" y="-502.5" font-family="Helvetica,sans-Serif" font-size="10.00">::PxPyPz</text>
</a>
</g>
</g>
<!-- Node2&#45;&gt;Node9 -->
<g id="edge8_Node000002_Node000009" class="edge">
<title>Node2&#45;&gt;Node9</title>
<g id="a_edge8_Node000002_Node000009"><a xlink:title=" ">
<path fill="none" stroke="#63b8ff" d="M780.29,-546.38C755.93,-540.06 725.9,-532.27 700.06,-525.56"/>
<polygon fill="#63b8ff" stroke="#63b8ff" points="779.45,-549.78 790.01,-548.9 781.21,-543 779.45,-549.78"/>
</a>
</g>
</g>
<!-- Node10 -->
<g id="Node000010" class="node">
<title>Node10</title>
<g id="a_Node000010"><a xlink:href="namespacetransform__.html#a87dc88421ea78ec3b9c73c86cc5ade19" target="_top" xlink:title="Computes the 4&#45;momentum (Px, Py, Pz, E).">
<polygon fill="white" stroke="#666666" points="699.5,-477 582.5,-477 582.5,-458 699.5,-458 699.5,-477"/>
<text text-anchor="middle" x="641" y="-465" font-family="Helvetica,sans-Serif" font-size="10.00">transform_::PxPyPzE</text>
</a>
</g>
</g>
<!-- Node2&#45;&gt;Node10 -->
<g id="edge9_Node000002_Node000010" class="edge">
<title>Node2&#45;&gt;Node10</title>
<g id="a_edge9_Node000002_Node000010"><a xlink:title=" ">
<path fill="none" stroke="#63b8ff" d="M806.26,-542.87C784,-526.74 747.09,-501.84 712,-486.5 703.58,-482.82 694.27,-479.69 685.26,-477.1"/>
<polygon fill="#63b8ff" stroke="#63b8ff" points="804.45,-545.88 814.58,-548.99 808.6,-540.24 804.45,-545.88"/>
</a>
</g>
</g>
<!-- Node32 -->
<g id="Node000032" class="node">
<title>Node32</title>
<g id="a_Node000032"><a xlink:href="namespacepyc_1_1physics_1_1polar_1_1combined.html#a6169c98dd89c2571d2871582b3fb1279" target="_top" xlink:title=" ">
<polygon fill="white" stroke="#666666" points="694.5,-439.5 587.5,-439.5 587.5,-409.5 694.5,-409.5 694.5,-439.5"/>
<text text-anchor="start" x="595.5" y="-427.5" font-family="Helvetica,sans-Serif" font-size="10.00">pyc::physics::polar</text>
<text text-anchor="middle" x="641" y="-416.5" font-family="Helvetica,sans-Serif" font-size="10.00">::combined::Theta</text>
</a>
</g>
</g>
<!-- Node2&#45;&gt;Node32 -->
<g id="edge35_Node000002_Node000032" class="edge">
<title>Node2&#45;&gt;Node32</title>
<g id="a_edge35_Node000002_Node000032"><a xlink:title=" ">
<path fill="none" stroke="#63b8ff" d="M812.84,-541.14C792.68,-517.45 753.54,-475.02 712,-449.5 705.84,-445.72 699.03,-442.39 692.14,-439.51"/>
<polygon fill="#63b8ff" stroke="#63b8ff" points="810.27,-543.53 819.37,-548.96 815.64,-539.04 810.27,-543.53"/>
</a>
</g>
</g>
<!-- Node33 -->
<g id="Node000033" class="node">
<title>Node33</title>
<g id="a_Node000033"><a xlink:href="namespacepyc_1_1physics_1_1polar_1_1separate.html#a40b284f030bc35051fe4ceb68e0b560e" target="_top" xlink:title=" ">
<polygon fill="white" stroke="#666666" points="694.5,-391.5 587.5,-391.5 587.5,-361.5 694.5,-361.5 694.5,-391.5"/>
<text text-anchor="start" x="595.5" y="-379.5" font-family="Helvetica,sans-Serif" font-size="10.00">pyc::physics::polar</text>
<text text-anchor="middle" x="641" y="-368.5" font-family="Helvetica,sans-Serif" font-size="10.00">::separate::Theta</text>
</a>
</g>
</g>
<!-- Node2&#45;&gt;Node33 -->
<g id="edge36_Node000002_Node000033" class="edge">
<title>Node2&#45;&gt;Node33</title>
<g id="a_edge36_Node000002_Node000033"><a xlink:title=" ">
<path fill="none" stroke="#63b8ff" d="M818.2,-539.74C801.85,-506.85 763.7,-438.67 712,-400.5 706.73,-396.61 700.78,-393.31 694.63,-390.54"/>
<polygon fill="#63b8ff" stroke="#63b8ff" points="815.05,-541.27 822.56,-548.74 821.35,-538.21 815.05,-541.27"/>
</a>
</g>
</g>
<!-- Node11 -->
<g id="Node000011" class="node">
<title>Node11</title>
<g id="a_Node000011"><a xlink:href="namespacepyc_1_1physics_1_1polar_1_1combined.html#a0150f0dac00fdc96ee3021c48c912f5a" target="_top" xlink:title=" ">
<polygon fill="white" stroke="#666666" points="516.5,-866.5 409.5,-866.5 409.5,-836.5 516.5,-836.5 516.5,-866.5"/>
<text text-anchor="start" x="417.5" y="-854.5" font-family="Helvetica,sans-Serif" font-size="10.00">pyc::physics::polar</text>
<text text-anchor="middle" x="463" y="-843.5" font-family="Helvetica,sans-Serif" font-size="10.00">::combined::Beta</text>
</a>
</g>
</g>
<!-- Node10&#45;&gt;Node11 -->
<g id="edge10_Node000010_Node000011" class="edge">
<title>Node10&#45;&gt;Node11</title>
<g id="a_edge10_Node000010_Node000011"><a xlink:title=" ">
<path fill="none" stroke="#63b8ff" d="M573.79,-482.63C572.45,-483.83 571.18,-485.12 570,-486.5 471.19,-602.52 628.98,-708.32 534,-827.5 529.36,-833.33 523.22,-837.75 516.51,-841.1"/>
<polygon fill="#63b8ff" stroke="#63b8ff" points="576.06,-485.31 582.22,-476.69 572.03,-479.59 576.06,-485.31"/>
</a>
</g>
</g>
<!-- Node12 -->
<g id="Node000012" class="node">
<title>Node12</title>
<g id="a_Node000012"><a xlink:href="namespacepyc_1_1physics_1_1polar_1_1separate.html#a49811b3e193170bb3f8d0a185b4fc07d" target="_top" xlink:title=" ">
<polygon fill="white" stroke="#666666" points="516.5,-818.5 409.5,-818.5 409.5,-788.5 516.5,-788.5 516.5,-818.5"/>
<text text-anchor="start" x="417.5" y="-806.5" font-family="Helvetica,sans-Serif" font-size="10.00">pyc::physics::polar</text>
<text text-anchor="middle" x="463" y="-795.5" font-family="Helvetica,sans-Serif" font-size="10.00">::separate::Beta</text>
</a>
</g>
</g>
<!-- Node10&#45;&gt;Node12 -->
<g id="edge11_Node000010_Node000012" class="edge">
<title>Node10&#45;&gt;Node12</title>
<g id="a_edge11_Node000010_Node000012"><a xlink:title=" ">
<path fill="none" stroke="#63b8ff" d="M573.82,-482.66C572.47,-483.85 571.19,-485.13 570,-486.5 484.08,-585.65 616.64,-677.59 534,-779.5 529.39,-785.19 523.36,-789.53 516.77,-792.85"/>
<polygon fill="#63b8ff" stroke="#63b8ff" points="576.09,-485.34 582.29,-476.75 572.09,-479.6 576.09,-485.34"/>
</a>
</g>
</g>
<!-- Node13 -->
<g id="Node000013" class="node">
<title>Node13</title>
<g id="a_Node000013"><a xlink:href="namespacepyc_1_1physics_1_1polar_1_1combined.html#a20e7dc61ab62ab57496a8fc22f68a630" target="_top" xlink:title=" ">
<polygon fill="white" stroke="#666666" points="516.5,-770.5 409.5,-770.5 409.5,-740.5 516.5,-740.5 516.5,-770.5"/>
<text text-anchor="start" x="417.5" y="-758.5" font-family="Helvetica,sans-Serif" font-size="10.00">pyc::physics::polar</text>
<text text-anchor="middle" x="463" y="-747.5" font-family="Helvetica,sans-Serif" font-size="10.00">::combined::Beta2</text>
</a>
</g>
</g>
<!-- Node10&#45;&gt;Node13 -->
<g id="edge12_Node000010_Node000013" class="edge">
<title>Node10&#45;&gt;Node13</title>
<g id="a_edge12_Node000010_Node000013"><a xlink:title=" ">
<path fill="none" stroke="#63b8ff" d="M573.87,-482.69C572.5,-483.87 571.21,-485.14 570,-486.5 496.95,-568.82 604.33,-646.84 534,-731.5 529.32,-737.13 523.25,-741.45 516.65,-744.75"/>
<polygon fill="#63b8ff" stroke="#63b8ff" points="576.13,-485.39 582.39,-476.84 572.17,-479.61 576.13,-485.39"/>
</a>
</g>
</g>
<!-- Node14 -->
<g id="Node000014" class="node">
<title>Node14</title>
<g id="a_Node000014"><a xlink:href="namespacepyc_1_1physics_1_1polar_1_1separate.html#a49c21afa9d65d851f1cfe13e35875ea3" target="_top" xlink:title=" ">
<polygon fill="white" stroke="#666666" points="516.5,-722.5 409.5,-722.5 409.5,-692.5 516.5,-692.5 516.5,-722.5"/>
<text text-anchor="start" x="417.5" y="-710.5" font-family="Helvetica,sans-Serif" font-size="10.00">pyc::physics::polar</text>
<text text-anchor="middle" x="463" y="-699.5" font-family="Helvetica,sans-Serif" font-size="10.00">::separate::Beta2</text>
</a>
</g>
</g>
<!-- Node10&#45;&gt;Node14 -->
<g id="edge13_Node000010_Node000014" class="edge">
<title>Node10&#45;&gt;Node14</title>
<g id="a_edge13_Node000010_Node000014"><a xlink:title=" ">
<path fill="none" stroke="#63b8ff" d="M573.83,-482.83C572.48,-483.97 571.2,-485.19 570,-486.5 509.77,-552.03 592.06,-616.04 534,-683.5 529.31,-688.95 523.32,-693.17 516.82,-696.43"/>
<polygon fill="#63b8ff" stroke="#63b8ff" points="575.89,-485.66 582.2,-477.15 571.96,-479.87 575.89,-485.66"/>
</a>
</g>
</g>
<!-- Node15 -->
<g id="Node000015" class="node">
<title>Node15</title>
<g id="a_Node000015"><a xlink:href="namespacepyc_1_1graph_1_1polar.html#ab00a9b5d4070afc2aac6fd639d82c46b" target="_top" xlink:title=" ">
<polygon fill="white" stroke="#666666" points="515,-674.5 411,-674.5 411,-644.5 515,-644.5 515,-674.5"/>
<text text-anchor="start" x="419" y="-662.5" font-family="Helvetica,sans-Serif" font-size="10.00">pyc::graph::polar::</text>
<text text-anchor="middle" x="463" y="-651.5" font-family="Helvetica,sans-Serif" font-size="10.00">edge_aggregation</text>
</a>
</g>
</g>
<!-- Node10&#45;&gt;Node15 -->
<g id="edge14_Node000010_Node000015" class="edge">
<title>Node10&#45;&gt;Node15</title>
<g id="a_edge14_Node000010_Node000015"><a xlink:title=" ">
<path fill="none" stroke="#63b8ff" d="M574.53,-482.45C572.93,-483.7 571.42,-485.04 570,-486.5 522.5,-535.34 579.88,-585.13 534,-635.5 528.81,-641.2 522.21,-645.54 515.14,-648.86"/>
<polygon fill="#63b8ff" stroke="#63b8ff" points="576.53,-485.32 583.1,-477.01 572.78,-479.41 576.53,-485.32"/>
</a>
</g>
</g>
<!-- Node16 -->
<g id="Node000016" class="node">
<title>Node16</title>
<g id="a_Node000016"><a xlink:href="namespacepyc_1_1graph_1_1polar.html#a4892c3989bd8b62a5f02688d030e92d5" target="_top" xlink:title=" ">
<polygon fill="white" stroke="#666666" points="515,-626.5 411,-626.5 411,-596.5 515,-596.5 515,-626.5"/>
<text text-anchor="start" x="419" y="-614.5" font-family="Helvetica,sans-Serif" font-size="10.00">pyc::graph::polar::</text>
<text text-anchor="middle" x="463" y="-603.5" font-family="Helvetica,sans-Serif" font-size="10.00">edge_aggregation</text>
</a>
</g>
</g>
<!-- Node10&#45;&gt;Node16 -->
<g id="edge15_Node000010_Node000016" class="edge">
<title>Node10&#45;&gt;Node16</title>
<g id="a_edge15_Node000010_Node000016"><a xlink:title=" ">
<path fill="none" stroke="#63b8ff" d="M575.39,-482.18C573.49,-483.5 571.69,-484.94 570,-486.5 535.02,-518.87 567.9,-554.01 534,-587.5 528.7,-592.74 522.21,-596.83 515.34,-600.04"/>
<polygon fill="#63b8ff" stroke="#63b8ff" points="577.29,-485.13 584.2,-477.1 573.79,-479.06 577.29,-485.13"/>
</a>
</g>
</g>
<!-- Node17 -->
<g id="Node000017" class="node">
<title>Node17</title>
<g id="a_Node000017"><a xlink:href="namespacepyc_1_1physics_1_1polar_1_1combined.html#a03ec955a2641ce4f53ade06bff9ebaae" target="_top" xlink:title=" ">
<polygon fill="white" stroke="#666666" points="516.5,-578.5 409.5,-578.5 409.5,-548.5 516.5,-548.5 516.5,-578.5"/>
<text text-anchor="start" x="417.5" y="-566.5" font-family="Helvetica,sans-Serif" font-size="10.00">pyc::physics::polar</text>
<text text-anchor="middle" x="463" y="-555.5" font-family="Helvetica,sans-Serif" font-size="10.00">::combined::M</text>
</a>
</g>
</g>
<!-- Node10&#45;&gt;Node17 -->
<g id="edge16_Node000010_Node000017" class="edge">
<title>Node10&#45;&gt;Node17</title>
<g id="a_edge16_Node000010_Node000017"><a xlink:title=" ">
<path fill="none" stroke="#63b8ff" d="M578.65,-481.26C575.62,-482.82 572.72,-484.56 570,-486.5 546.82,-503.04 556.63,-522.22 534,-539.5 528.79,-543.48 522.88,-546.82 516.76,-549.63"/>
<polygon fill="#63b8ff" stroke="#63b8ff" points="580.3,-484.35 588.01,-477.08 577.45,-477.96 580.3,-484.35"/>
</a>
</g>
</g>
<!-- Node18 -->
<g id="Node000018" class="node">
<title>Node18</title>
<g id="a_Node000018"><a xlink:href="namespacepyc_1_1physics_1_1polar_1_1separate.html#aaab901d4c62535312b57336a324c3461" target="_top" xlink:title=" ">
<polygon fill="white" stroke="#666666" points="516.5,-530.5 409.5,-530.5 409.5,-500.5 516.5,-500.5 516.5,-530.5"/>
<text text-anchor="start" x="417.5" y="-518.5" font-family="Helvetica,sans-Serif" font-size="10.00">pyc::physics::polar</text>
<text text-anchor="middle" x="463" y="-507.5" font-family="Helvetica,sans-Serif" font-size="10.00">::separate::M</text>
</a>
</g>
</g>
<!-- Node10&#45;&gt;Node18 -->
<g id="edge17_Node000010_Node000018" class="edge">
<title>Node10&#45;&gt;Node18</title>
<g id="a_edge17_Node000010_Node000018"><a xlink:title=" ">
<path fill="none" stroke="#63b8ff" d="M594.85,-479.74C586.59,-481.99 578.03,-484.31 570,-486.5 552.6,-491.24 533.61,-496.43 516.56,-501.1"/>
<polygon fill="#63b8ff" stroke="#63b8ff" points="596.01,-483.05 604.74,-477.05 594.18,-476.3 596.01,-483.05"/>
</a>
</g>
</g>
<!-- Node19 -->
<g id="Node000019" class="node">
<title>Node19</title>
<g id="a_Node000019"><a xlink:href="namespacepyc_1_1physics_1_1polar_1_1combined.html#aa79557e9e58fc548b41444667ebb1b62" target="_top" xlink:title=" ">
<polygon fill="white" stroke="#666666" points="516.5,-482.5 409.5,-482.5 409.5,-452.5 516.5,-452.5 516.5,-482.5"/>
<text text-anchor="start" x="417.5" y="-470.5" font-family="Helvetica,sans-Serif" font-size="10.00">pyc::physics::polar</text>
<text text-anchor="middle" x="463" y="-459.5" font-family="Helvetica,sans-Serif" font-size="10.00">::combined::M2</text>
</a>
</g>
</g>
<!-- Node10&#45;&gt;Node19 -->
<g id="edge18_Node000010_Node000019" class="edge">
<title>Node10&#45;&gt;Node19</title>
<g id="a_edge18_Node000010_Node000019"><a xlink:title=" ">
<path fill="none" stroke="#63b8ff" d="M572.28,-467.5C553.85,-467.5 534.16,-467.5 516.7,-467.5"/>
<polygon fill="#63b8ff" stroke="#63b8ff" points="572.37,-471 582.37,-467.5 572.37,-464 572.37,-471"/>
</a>
</g>
</g>
<!-- Node20 -->
<g id="Node000020" class="node">
<title>Node20</title>
<g id="a_Node000020"><a xlink:href="namespacepyc_1_1physics_1_1polar_1_1separate.html#a5166df2f83d8ea10350011307d165ed2" target="_top" xlink:title=" ">
<polygon fill="white" stroke="#666666" points="516.5,-434.5 409.5,-434.5 409.5,-404.5 516.5,-404.5 516.5,-434.5"/>
<text text-anchor="start" x="417.5" y="-422.5" font-family="Helvetica,sans-Serif" font-size="10.00">pyc::physics::polar</text>
<text text-anchor="middle" x="463" y="-411.5" font-family="Helvetica,sans-Serif" font-size="10.00">::separate::M2</text>
</a>
</g>
</g>
<!-- Node10&#45;&gt;Node20 -->
<g id="edge19_Node000010_Node000020" class="edge">
<title>Node10&#45;&gt;Node20</title>
<g id="a_edge19_Node000010_Node000020"><a xlink:title=" ">
<path fill="none" stroke="#63b8ff" d="M594.85,-455.26C586.59,-453.01 578.03,-450.69 570,-448.5 552.6,-443.76 533.61,-438.57 516.56,-433.9"/>
<polygon fill="#63b8ff" stroke="#63b8ff" points="594.18,-458.7 604.74,-457.95 596.01,-451.95 594.18,-458.7"/>
</a>
</g>
</g>
<!-- Node21 -->
<g id="Node000021" class="node">
<title>Node21</title>
<g id="a_Node000021"><a xlink:href="namespacepyc_1_1physics_1_1polar_1_1combined.html#acbeb9c6012612bd77cab7fe7871f0ccf" target="_top" xlink:title=" ">
<polygon fill="white" stroke="#666666" points="516.5,-386.5 409.5,-386.5 409.5,-356.5 516.5,-356.5 516.5,-386.5"/>
<text text-anchor="start" x="417.5" y="-374.5" font-family="Helvetica,sans-Serif" font-size="10.00">pyc::physics::polar</text>
<text text-anchor="middle" x="463" y="-363.5" font-family="Helvetica,sans-Serif" font-size="10.00">::combined::Mt</text>
</a>
</g>
</g>
<!-- Node10&#45;&gt;Node21 -->
<g id="edge20_Node000010_Node000021" class="edge">
<title>Node10&#45;&gt;Node21</title>
<g id="a_edge20_Node000010_Node000021"><a xlink:title=" ">
<path fill="none" stroke="#63b8ff" d="M578.65,-453.74C575.62,-452.18 572.72,-450.44 570,-448.5 546.82,-431.96 556.63,-412.78 534,-395.5 528.79,-391.52 522.88,-388.18 516.76,-385.37"/>
<polygon fill="#63b8ff" stroke="#63b8ff" points="577.45,-457.04 588.01,-457.92 580.3,-450.65 577.45,-457.04"/>
</a>
</g>
</g>
<!-- Node22 -->
<g id="Node000022" class="node">
<title>Node22</title>
<g id="a_Node000022"><a xlink:href="namespacepyc_1_1physics_1_1polar_1_1combined.html#acc5e59b1f7549ce950cab57976edfd79" target="_top" xlink:title=" ">
<polygon fill="white" stroke="#666666" points="516.5,-338.5 409.5,-338.5 409.5,-308.5 516.5,-308.5 516.5,-338.5"/>
<text text-anchor="start" x="417.5" y="-326.5" font-family="Helvetica,sans-Serif" font-size="10.00">pyc::physics::polar</text>
<text text-anchor="middle" x="463" y="-315.5" font-family="Helvetica,sans-Serif" font-size="10.00">::combined::Mt2</text>
</a>
</g>
</g>
<!-- Node10&#45;&gt;Node22 -->
<g id="edge21_Node000010_Node000022" class="edge">
<title>Node10&#45;&gt;Node22</title>
<g id="a_edge21_Node000010_Node000022"><a xlink:title=" ">
<path fill="none" stroke="#63b8ff" d="M575.39,-452.82C573.49,-451.5 571.69,-450.06 570,-448.5 535.02,-416.13 567.9,-380.99 534,-347.5 529.06,-342.62 523.1,-338.74 516.75,-335.64"/>
<polygon fill="#63b8ff" stroke="#63b8ff" points="573.79,-455.94 584.2,-457.9 577.29,-449.87 573.79,-455.94"/>
</a>
</g>
</g>
<!-- Node23 -->
<g id="Node000023" class="node">
<title>Node23</title>
<g id="a_Node000023"><a xlink:href="namespacepyc_1_1graph_1_1polar.html#a4b8251423b7ede00df4fbda3ab664485" target="_top" xlink:title=" ">
<polygon fill="white" stroke="#666666" points="515,-290.5 411,-290.5 411,-260.5 515,-260.5 515,-290.5"/>
<text text-anchor="start" x="419" y="-278.5" font-family="Helvetica,sans-Serif" font-size="10.00">pyc::graph::polar::</text>
<text text-anchor="middle" x="463" y="-267.5" font-family="Helvetica,sans-Serif" font-size="10.00">node_aggregation</text>
</a>
</g>
</g>
<!-- Node10&#45;&gt;Node23 -->
<g id="edge22_Node000010_Node000023" class="edge">
<title>Node10&#45;&gt;Node23</title>
<g id="a_edge22_Node000010_Node000023"><a xlink:title=" ">
<path fill="none" stroke="#63b8ff" d="M574.53,-452.55C572.93,-451.3 571.42,-449.96 570,-448.5 522.5,-399.66 579.88,-349.87 534,-299.5 528.81,-293.8 522.21,-289.46 515.14,-286.14"/>
<polygon fill="#63b8ff" stroke="#63b8ff" points="572.78,-455.59 583.1,-457.99 576.53,-449.68 572.78,-455.59"/>
</a>
</g>
</g>
<!-- Node24 -->
<g id="Node000024" class="node">
<title>Node24</title>
<g id="a_Node000024"><a xlink:href="namespacepyc_1_1graph_1_1polar.html#a2214179747b4d328f815a532e6d4fdcf" target="_top" xlink:title=" ">
<polygon fill="white" stroke="#666666" points="515,-242.5 411,-242.5 411,-212.5 515,-212.5 515,-242.5"/>
<text text-anchor="start" x="419" y="-230.5" font-family="Helvetica,sans-Serif" font-size="10.00">pyc::graph::polar::</text>
<text text-anchor="middle" x="463" y="-219.5" font-family="Helvetica,sans-Serif" font-size="10.00">node_aggregation</text>
</a>
</g>
</g>
<!-- Node10&#45;&gt;Node24 -->
<g id="edge23_Node000010_Node000024" class="edge">
<title>Node10&#45;&gt;Node24</title>
<g id="a_edge23_Node000010_Node000024"><a xlink:title=" ">
<path fill="none" stroke="#63b8ff" d="M573.83,-452.17C572.48,-451.03 571.2,-449.81 570,-448.5 509.77,-382.97 592.06,-318.96 534,-251.5 528.89,-245.56 522.24,-241.09 515.07,-237.72"/>
<polygon fill="#63b8ff" stroke="#63b8ff" points="571.96,-455.13 582.2,-457.85 575.89,-449.34 571.96,-455.13"/>
</a>
</g>
</g>
<!-- Node25 -->
<g id="Node000025" class="node">
<title>Node25</title>
<g id="a_Node000025"><a xlink:href="namespacepyc_1_1transform_1_1combined.html#a04bb607bea9c08f7133e6bcebf230076" target="_top" xlink:title=" ">
<polygon fill="white" stroke="#666666" points="534,-194.5 392,-194.5 392,-164.5 534,-164.5 534,-194.5"/>
<text text-anchor="start" x="400" y="-182.5" font-family="Helvetica,sans-Serif" font-size="10.00">pyc::transform::combined</text>
<text text-anchor="middle" x="463" y="-171.5" font-family="Helvetica,sans-Serif" font-size="10.00">::PxPyPzE</text>
</a>
</g>
</g>
<!-- Node10&#45;&gt;Node25 -->
<g id="edge24_Node000010_Node000025" class="edge">
<title>Node10&#45;&gt;Node25</title>
<g id="a_edge24_Node000010_Node000025"><a xlink:title=" ">
<path fill="none" stroke="#63b8ff" d="M573.87,-452.31C572.5,-451.13 571.21,-449.86 570,-448.5 496.95,-366.18 604.33,-288.16 534,-203.5 531.13,-200.04 527.73,-197.08 524.01,-194.54"/>
<polygon fill="#63b8ff" stroke="#63b8ff" points="572.17,-455.39 582.39,-458.16 576.13,-449.61 572.17,-455.39"/>
</a>
</g>
</g>
<!-- Node27 -->
<g id="Node000027" class="node">
<title>Node27</title>
<g id="a_Node000027"><a xlink:href="namespacepyc_1_1transform_1_1separate.html#a720f165f6c3acc7c6ed1b33dd2c369bb" target="_top" xlink:title=" ">
<polygon fill="white" stroke="#666666" points="531.5,-146.5 394.5,-146.5 394.5,-116.5 531.5,-116.5 531.5,-146.5"/>
<text text-anchor="start" x="402.5" y="-134.5" font-family="Helvetica,sans-Serif" font-size="10.00">pyc::transform::separate</text>
<text text-anchor="middle" x="463" y="-123.5" font-family="Helvetica,sans-Serif" font-size="10.00">::PxPyPzE</text>
</a>
</g>
</g>
<!-- Node10&#45;&gt;Node27 -->
<g id="edge26_Node000010_Node000027" class="edge">
<title>Node10&#45;&gt;Node27</title>
<g id="a_edge26_Node000010_Node000027"><a xlink:title=" ">
<path fill="none" stroke="#63b8ff" d="M573.82,-452.34C572.47,-451.15 571.19,-449.87 570,-448.5 484.08,-349.35 616.64,-257.41 534,-155.5 531.25,-152.11 527.99,-149.19 524.42,-146.69"/>
<polygon fill="#63b8ff" stroke="#63b8ff" points="572.09,-455.4 582.29,-458.25 576.09,-449.66 572.09,-455.4"/>
</a>
</g>
</g>
<!-- Node26 -->
<g id="Node000026" class="node">
<title>Node26</title>
<g id="a_Node000026"><a xlink:href="classmetrics.html#a24531660bf7917f489a6b67ceed12cdd" target="_top" xlink:title="Captures metrics from the current epoch.">
<polygon fill="white" stroke="#666666" points="324,-201 228,-201 228,-182 324,-182 324,-201"/>
<text text-anchor="middle" x="276" y="-189" font-family="Helvetica,sans-Serif" font-size="10.00">metrics::capture</text>
</a>
</g>
</g>
<!-- Node25&#45;&gt;Node26 -->
<g id="edge25_Node000025_Node000026" class="edge">
<title>Node25&#45;&gt;Node26</title>
<g id="a_edge25_Node000025_Node000026"><a xlink:title=" ">
<path fill="none" stroke="#63b8ff" d="M381.63,-184.71C362.03,-185.98 341.68,-187.3 324.2,-188.44"/>
<polygon fill="#63b8ff" stroke="#63b8ff" points="382.04,-188.19 391.8,-184.05 381.59,-181.21 382.04,-188.19"/>
</a>
</g>
</g>
<!-- Node28 -->
<g id="Node000028" class="node">
<title>Node28</title>
<g id="a_Node000028"><a xlink:href="classgrift.html#a72f7575fbd1d744d4f9053e5b8b7ee38" target="_top" xlink:title="Virtual forward pass method for a single graph.">
<polygon fill="white" stroke="#666666" points="316,-146 236,-146 236,-127 316,-127 316,-146"/>
<text text-anchor="middle" x="276" y="-134" font-family="Helvetica,sans-Serif" font-size="10.00">grift::forward</text>
</a>
</g>
</g>
<!-- Node27&#45;&gt;Node28 -->
<g id="edge27_Node000027_Node000028" class="edge">
<title>Node27&#45;&gt;Node28</title>
<g id="a_edge27_Node000027_Node000028"><a xlink:title=" ">
<path fill="none" stroke="#63b8ff" d="M384.12,-133.6C360.68,-134.24 335.95,-134.91 316.16,-135.44"/>
<polygon fill="#63b8ff" stroke="#63b8ff" points="384.52,-137.1 394.43,-133.33 384.33,-130.1 384.52,-137.1"/>
</a>
</g>
</g>
<!-- Node30 -->
<g id="Node000030" class="node">
<title>Node30</title>
<g id="a_Node000030"><a xlink:href="classrecursivegraphneuralnetwork.html#a4b09bc8de8d9ecd0b4ff1ffa94deea98" target="_top" xlink:title="Virtual forward pass method for a single graph.">
<polygon fill="white" stroke="#666666" points="356,-90.5 196,-90.5 196,-60.5 356,-60.5 356,-90.5"/>
<text text-anchor="start" x="204" y="-78.5" font-family="Helvetica,sans-Serif" font-size="10.00">recursivegraphneuralnetwork</text>
<text text-anchor="middle" x="276" y="-67.5" font-family="Helvetica,sans-Serif" font-size="10.00">::forward</text>
</a>
</g>
</g>
<!-- Node27&#45;&gt;Node30 -->
<g id="edge31_Node000027_Node000030" class="edge">
<title>Node27&#45;&gt;Node30</title>
<g id="a_edge31_Node000027_Node000030"><a xlink:title=" ">
<path fill="none" stroke="#63b8ff" d="M402.54,-113.5C378.07,-106.09 350.06,-97.62 326.71,-90.55"/>
<polygon fill="#63b8ff" stroke="#63b8ff" points="401.84,-116.95 412.42,-116.49 403.87,-110.25 401.84,-116.95"/>
</a>
</g>
</g>
<!-- Node28&#45;&gt;Node28 -->
<g id="edge28_Node000028_Node000028" class="edge">
<title>Node28&#45;&gt;Node28</title>
<g id="a_edge28_Node000028_Node000028"><a xlink:title=" ">
<path fill="none" stroke="#63b8ff" d="M310.86,-154.07C310.35,-159.62 298.73,-164 276,-164 242.94,-164 233.39,-154.73 247.33,-146.08"/>
<polygon fill="#63b8ff" stroke="#63b8ff" points="313.56,-151.84 304.67,-146.08 308.03,-156.13 313.56,-151.84"/>
</a>
</g>
</g>
<!-- Node29 -->
<g id="Node000029" class="node">
<title>Node29</title>
<g id="a_Node000029"><a xlink:href="classgrift.html#ad610edcd0cab14b57197a846ab8a8caf" target="_top" xlink:title=" ">
<polygon fill="white" stroke="#666666" points="123,-146 37,-146 37,-127 123,-127 123,-146"/>
<text text-anchor="middle" x="80" y="-134" font-family="Helvetica,sans-Serif" font-size="10.00">grift::message</text>
</a>
</g>
</g>
<!-- Node28&#45;&gt;Node29 -->
<g id="edge29_Node000028_Node000029" class="edge">
<title>Node28&#45;&gt;Node29</title>
<g id="a_edge29_Node000028_Node000029"><a xlink:title=" ">
<path fill="none" stroke="#63b8ff" d="M225.39,-130.52C193.79,-129.4 153.29,-129.5 123.23,-130.82"/>
<polygon fill="#63b8ff" stroke="#63b8ff" points="225.61,-134.04 235.74,-130.95 225.89,-127.04 225.61,-134.04"/>
</a>
</g>
</g>
<!-- Node29&#45;&gt;Node28 -->
<g id="edge30_Node000029_Node000028" class="edge">
<title>Node29&#45;&gt;Node28</title>
<g id="a_edge30_Node000029_Node000028"><a xlink:title=" ">
<path fill="none" stroke="#63b8ff" d="M133.37,-142.57C165.62,-143.63 206.27,-143.45 235.74,-142.05"/>
<polygon fill="#63b8ff" stroke="#63b8ff" points="133.35,-139.07 123.23,-142.18 133.09,-146.06 133.35,-139.07"/>
</a>
</g>
</g>
<!-- Node30&#45;&gt;Node30 -->
<g id="edge32_Node000030_Node000030" class="edge">
<title>Node30&#45;&gt;Node30</title>
<g id="a_edge32_Node000030_Node000030"><a xlink:title=" ">
<path fill="none" stroke="#63b8ff" d="M308.56,-101.1C304.11,-105.47 293.26,-108.5 276,-108.5 246.94,-108.5 236.04,-99.91 243.3,-90.78"/>
<polygon fill="#63b8ff" stroke="#63b8ff" points="312.06,-100.82 308.7,-90.78 305.06,-100.73 312.06,-100.82"/>
</a>
</g>
</g>
<!-- Node31 -->
<g id="Node000031" class="node">
<title>Node31</title>
<g id="a_Node000031"><a xlink:href="classrecursivegraphneuralnetwork.html#a7c83216c5899b14dcc03ccf368209ee1" target="_top" xlink:title=" ">
<polygon fill="white" stroke="#666666" points="160,-90.5 0,-90.5 0,-60.5 160,-60.5 160,-90.5"/>
<text text-anchor="start" x="8" y="-78.5" font-family="Helvetica,sans-Serif" font-size="10.00">recursivegraphneuralnetwork</text>
<text text-anchor="middle" x="80" y="-67.5" font-family="Helvetica,sans-Serif" font-size="10.00">::message</text>
</a>
</g>
</g>
<!-- Node30&#45;&gt;Node31 -->
<g id="edge33_Node000030_Node000031" class="edge">
<title>Node30&#45;&gt;Node31</title>
<g id="a_edge33_Node000030_Node000031"><a xlink:title=" ">
<path fill="none" stroke="#63b8ff" d="M185.56,-68.77C177.12,-68.73 168.59,-68.76 160.25,-68.85"/>
<polygon fill="#63b8ff" stroke="#63b8ff" points="185.78,-72.27 195.81,-68.85 185.84,-65.27 185.78,-72.27"/>
</a>
</g>
</g>
<!-- Node31&#45;&gt;Node30 -->
<g id="edge34_Node000031_Node000030" class="edge">
<title>Node31&#45;&gt;Node30</title>
<g id="a_edge34_Node000031_Node000030"><a xlink:title=" ">
<path fill="none" stroke="#63b8ff" d="M170.5,-82.23C178.95,-82.27 187.47,-82.24 195.81,-82.15"/>
<polygon fill="#63b8ff" stroke="#63b8ff" points="170.28,-78.73 160.25,-82.15 170.22,-85.73 170.28,-78.73"/>
</a>
</g>
</g>
<!-- Node36&#45;&gt;Node30 -->
<g id="edge41_Node000036_Node000030" class="edge">
<title>Node36&#45;&gt;Node30</title>
<g id="a_edge41_Node000036_Node000030"><a xlink:title=" ">
<path fill="none" stroke="#63b8ff" d="M739.94,-67.08C634.43,-69 458.18,-72.21 356.3,-74.06"/>
<polygon fill="#63b8ff" stroke="#63b8ff" points="740.3,-70.58 750.24,-66.9 740.17,-63.58 740.3,-70.58"/>
</a>
</g>
</g>
<!-- Node37 -->
<g id="Node000037" class="node">
<title>Node37</title>
<g id="a_Node000037"><a xlink:href="namespacepyc_1_1nusol.html#ad4035a04640174f1d5f9cdc307a3ad0a" target="_top" xlink:title=" ">
<polygon fill="white" stroke="#666666" points="711,-56 571,-56 571,-37 711,-37 711,-56"/>
<text text-anchor="middle" x="641" y="-44" font-family="Helvetica,sans-Serif" font-size="10.00">pyc::nusol::combinatorial</text>
</a>
</g>
</g>
<!-- Node36&#45;&gt;Node37 -->
<g id="edge40_Node000036_Node000037" class="edge">
<title>Node36&#45;&gt;Node37</title>
<g id="a_edge40_Node000036_Node000037"><a xlink:title=" ">
<path fill="none" stroke="#63b8ff" d="M740.28,-56.59C730.5,-55.59 720.64,-54.58 711.13,-53.6"/>
<polygon fill="#63b8ff" stroke="#63b8ff" points="740.11,-60.09 750.42,-57.63 740.83,-53.13 740.11,-60.09"/>
</a>
</g>
</g>
<!-- Node38 -->
<g id="Node000038" class="node">
<title>Node38</title>
<g id="a_Node000038"><a xlink:href="namespacepyc_1_1nusol.html#af88804c21a54435a41be99cbc03faf30" target="_top" xlink:title=" ">
<polygon fill="white" stroke="#666666" points="690.5,-19 591.5,-19 591.5,0 690.5,0 690.5,-19"/>
<text text-anchor="middle" x="641" y="-7" font-family="Helvetica,sans-Serif" font-size="10.00">pyc::nusol::NuNu</text>
</a>
</g>
</g>
<!-- Node36&#45;&gt;Node38 -->
<g id="edge42_Node000036_Node000038" class="edge">
<title>Node36&#45;&gt;Node38</title>
<g id="a_edge42_Node000036_Node000038"><a xlink:title=" ">
<path fill="none" stroke="#63b8ff" d="M790.25,-52.66C767.77,-44.97 738.36,-35.24 712,-27.5 702.01,-24.57 691.13,-21.64 681,-19.03"/>
<polygon fill="#63b8ff" stroke="#63b8ff" points="789.15,-55.98 799.74,-55.92 791.43,-49.36 789.15,-55.98"/>
</a>
</g>
</g>
</g>
</svg>

<g id="navigator" transform="translate(0 0)" fill="#404254">
  <rect fill="#f2f5e9" fill-opacity="0.5" stroke="#606060" stroke-width=".5" x="0" y="0" width="60" height="60"/>
  <use id="zoomplus" xlink:href="#zoomPlus" x="17" y="9" onmousedown="handleZoom(evt,'in')"/>
  <use id="zoomminus" xlink:href="#zoomMin" x="42" y="9" onmousedown="handleZoom(evt,'out')"/>
  <use id="reset" xlink:href="#resetDef" x="30" y="36" onmousedown="handleReset()"/>
   <use id="arrowup" xlink:href="#arrowUp" x="0" y="0" onmousedown="handlePan(0,-1)"/>
  <use id="arrowright" xlink:href="#arrowRight" x="0" y="0" onmousedown="handlePan(1,0)"/>
  <use id="arrowdown" xlink:href="#arrowDown" x="0" y="0" onmousedown="handlePan(0,1)"/>
  <use id="arrowleft" xlink:href="#arrowLeft" x="0" y="0" onmousedown="handlePan(-1,0)"/>
</g>
<svg viewBox="0 0 15 15" width="100%" height="30px" preserveAspectRatio="xMaxYMin meet">
 <g id="arrow_out" transform="scale(0.3 0.3)">
  <a xlink:href="namespacetransform___a51363ab29a6390a86a8ea75573a7a196_icgraph_org.svg" target="_base">
   <rect id="button" ry="5" rx="5" y="6" x="6" height="38" width="38"
        fill="#f2f5e9" fill-opacity="0.5" stroke="#606060" stroke-width="1.0"/>
   <path id="arrow"
     d="M 11.500037,31.436501 C 11.940474,20.09759 22.043105,11.32322 32.158766,21.979434 L 37.068811,17.246167 C 37.068811,17.246167 37.088388,32 37.088388,32 L 22.160133,31.978069 C 22.160133,31.978069 26.997745,27.140456 26.997745,27.140456 C 18.528582,18.264221 13.291696,25.230495 11.500037,31.436501 z"
     style="fill:#404040;"/>
  </a>
 </g>
</svg>

<style type='text/css'>
<![CDATA[
[data-mouse-over-selected='false'] { opacity: 0.7; }
[data-mouse-over-selected='true']  { opacity: 1.0; }
]]>
</style>
<script type="application/ecmascript"><![CDATA[
document.addEventListener('DOMContentLoaded', (event) => {
  highlightEdges();
  highlightAdjacentNodes();
});
]]></script>
</svg>
