<?xml version="1.0" encoding="UTF-8" standalone="no"?>
<!DOCTYPE svg PUBLIC "-//W3C//DTD SVG 1.1//EN"
 "http://www.w3.org/Graphics/SVG/1.1/DTD/svg11.dtd">
<!-- Generated by graphviz version 2.43.0 (0)
 -->
<!-- Title: pyc::physics::cartesian::combined::Mt2 Pages: 1 -->
<svg width="255pt" height="64pt"
 viewBox="0.00 0.00 255.00 64.00" xmlns="http://www.w3.org/2000/svg" xmlns:xlink="http://www.w3.org/1999/xlink">
<g id="graph0" class="graph" transform="scale(1 1) rotate(0) translate(4 60)">
<title>pyc::physics::cartesian::combined::Mt2</title>
<!-- Node1 -->
<g id="Node000001" class="node">
<title>Node1</title>
<g id="a_Node000001"><a xlink:title=" ">
<polygon fill="#999999" stroke="#666666" points="128,-42.5 0,-42.5 0,-12.5 128,-12.5 128,-42.5"/>
<text text-anchor="start" x="8" y="-30.5" font-family="Helvetica,sans-Serif" font-size="10.00">pyc::physics::cartesian</text>
<text text-anchor="middle" x="64" y="-19.5" font-family="Helvetica,sans-Serif" font-size="10.00">::combined::Mt2</text>
</a>
</g>
</g>
<!-- Node2 -->
<g id="Node000002" class="node">
<title>Node2</title>
<g id="a_Node000002"><a xlink:href="utils_8cxx.html#a123aed6d73594e07c6401a7a6c587808" target="_top" xlink:title=" ">
<polygon fill="white" stroke="#666666" points="240.5,-56 170.5,-56 170.5,-37 240.5,-37 240.5,-56"/>
<text text-anchor="middle" x="205.5" y="-44" font-family="Helvetica,sans-Serif" font-size="10.00">changedev</text>
</a>
</g>
</g>
<!-- Node1&#45;&gt;Node2 -->
<g id="edge1_Node000001_Node000002" class="edge">
<title>Node1&#45;&gt;Node2</title>
<g id="a_edge1_Node000001_Node000002"><a xlink:title=" ">
<path fill="none" stroke="#63b8ff" d="M128.22,-36.11C139.14,-37.6 150.28,-39.11 160.55,-40.51"/>
<polygon fill="#63b8ff" stroke="#63b8ff" points="160.11,-43.99 170.49,-41.87 161.05,-37.05 160.11,-43.99"/>
</a>
</g>
</g>
<!-- Node3 -->
<g id="Node000003" class="node">
<title>Node3</title>
<g id="a_Node000003"><a xlink:href="namespacephysics__.html#a3d421991e1f29e21ba3d495c6ae6c93d" target="_top" xlink:title="Computes the square of the transverse mass.">
<polygon fill="white" stroke="#666666" points="247,-19 164,-19 164,0 247,0 247,-19"/>
<text text-anchor="middle" x="205.5" y="-7" font-family="Helvetica,sans-Serif" font-size="10.00">physics_::Mt2</text>
</a>
</g>
</g>
<!-- Node1&#45;&gt;Node3 -->
<g id="edge2_Node000001_Node000003" class="edge">
<title>Node1&#45;&gt;Node3</title>
<g id="a_edge2_Node000001_Node000003"><a xlink:title=" ">
<path fill="none" stroke="#63b8ff" d="M128.22,-19.34C136.83,-18.23 145.57,-17.1 153.92,-16.03"/>
<polygon fill="#63b8ff" stroke="#63b8ff" points="154.4,-19.49 163.87,-14.74 153.5,-12.55 154.4,-19.49"/>
</a>
</g>
</g>
</g>
</svg>
