<?xml version="1.0" encoding="UTF-8" standalone="no"?>
<!DOCTYPE svg PUBLIC "-//W3C//DTD SVG 1.1//EN"
 "http://www.w3.org/Graphics/SVG/1.1/DTD/svg11.dtd">
<!-- Generated by graphviz version 2.43.0 (0)
 -->
<!-- Title: physics_::Beta Pages: 1 -->
<svg width="883pt" height="276pt"
 viewBox="0.00 0.00 883.00 275.50" xmlns="http://www.w3.org/2000/svg" xmlns:xlink="http://www.w3.org/1999/xlink">
<g id="graph0" class="graph" transform="scale(1 1) rotate(0) translate(4 271.5)">
<title>physics_::Beta</title>
<!-- Node1 -->
<g id="Node000001" class="node">
<title>Node1</title>
<g id="a_Node000001"><a xlink:title="Computes the beta factor.">
<polygon fill="#999999" stroke="#666666" points="875,-120.5 788,-120.5 788,-101.5 875,-101.5 875,-120.5"/>
<text text-anchor="middle" x="831.5" y="-108.5" font-family="Helvetica,sans-Serif" font-size="10.00">physics_::Beta</text>
</a>
</g>
</g>
<!-- Node1&#45;&gt;Node1 -->
<g id="edge14_Node000001_Node000001" class="edge">
<title>Node1&#45;&gt;Node1</title>
<g id="a_edge14_Node000001_Node000001"><a xlink:title=" ">
<path fill="none" stroke="#63b8ff" d="M857.91,-129.69C856.47,-134.7 847.67,-138.5 831.5,-138.5 806.26,-138.5 798.97,-129.23 809.61,-120.58"/>
<polygon fill="#63b8ff" stroke="#63b8ff" points="860.97,-127.98 853.39,-120.58 854.7,-131.1 860.97,-127.98"/>
</a>
</g>
</g>
<!-- Node2 -->
<g id="Node000002" class="node">
<title>Node2</title>
<g id="a_Node000002"><a xlink:href="namespacenusol__.html#a526c0e4a558a1201624ea0b639bc747c" target="_top" xlink:title=" ">
<polygon fill="white" stroke="#666666" points="743,-211.5 633,-211.5 633,-192.5 743,-192.5 743,-211.5"/>
<text text-anchor="middle" x="688" y="-199.5" font-family="Helvetica,sans-Serif" font-size="10.00">nusol_::BaseMatrix</text>
</a>
</g>
</g>
<!-- Node1&#45;&gt;Node2 -->
<g id="edge1_Node000001_Node000002" class="edge">
<title>Node1&#45;&gt;Node2</title>
<g id="a_edge1_Node000001_Node000002"><a xlink:title=" ">
<path fill="none" stroke="#63b8ff" d="M815.59,-128.63C800.94,-144.9 777.18,-168.66 752,-183 745.35,-186.79 737.86,-189.89 730.44,-192.42"/>
<polygon fill="#63b8ff" stroke="#63b8ff" points="818.42,-130.71 822.38,-120.89 813.16,-126.1 818.42,-130.71"/>
</a>
</g>
</g>
<!-- Node15 -->
<g id="Node000015" class="node">
<title>Node15</title>
<g id="a_Node000015"><a xlink:href="namespacepyc_1_1physics_1_1cartesian_1_1combined.html#af5c9256b89e17319365e9c7841627e7a" target="_top" xlink:title=" ">
<polygon fill="white" stroke="#666666" points="752,-174 624,-174 624,-144 752,-144 752,-174"/>
<text text-anchor="start" x="632" y="-162" font-family="Helvetica,sans-Serif" font-size="10.00">pyc::physics::cartesian</text>
<text text-anchor="middle" x="688" y="-151" font-family="Helvetica,sans-Serif" font-size="10.00">::combined::Beta</text>
</a>
</g>
</g>
<!-- Node1&#45;&gt;Node15 -->
<g id="edge15_Node000001_Node000015" class="edge">
<title>Node1&#45;&gt;Node15</title>
<g id="a_edge15_Node000001_Node000015"><a xlink:title=" ">
<path fill="none" stroke="#63b8ff" d="M792.51,-123.89C774.31,-130.06 752.38,-137.5 733.4,-143.94"/>
<polygon fill="#63b8ff" stroke="#63b8ff" points="793.86,-127.13 802.21,-120.6 791.61,-120.5 793.86,-127.13"/>
</a>
</g>
</g>
<!-- Node16 -->
<g id="Node000016" class="node">
<title>Node16</title>
<g id="a_Node000016"><a xlink:href="namespacepyc_1_1physics_1_1polar_1_1combined.html#a0150f0dac00fdc96ee3021c48c912f5a" target="_top" xlink:title=" ">
<polygon fill="white" stroke="#666666" points="741.5,-126 634.5,-126 634.5,-96 741.5,-96 741.5,-126"/>
<text text-anchor="start" x="642.5" y="-114" font-family="Helvetica,sans-Serif" font-size="10.00">pyc::physics::polar</text>
<text text-anchor="middle" x="688" y="-103" font-family="Helvetica,sans-Serif" font-size="10.00">::combined::Beta</text>
</a>
</g>
</g>
<!-- Node1&#45;&gt;Node16 -->
<g id="edge16_Node000001_Node000016" class="edge">
<title>Node1&#45;&gt;Node16</title>
<g id="a_edge16_Node000001_Node000016"><a xlink:title=" ">
<path fill="none" stroke="#63b8ff" d="M777.57,-111C765.84,-111 753.41,-111 741.69,-111"/>
<polygon fill="#63b8ff" stroke="#63b8ff" points="777.66,-114.5 787.66,-111 777.66,-107.5 777.66,-114.5"/>
</a>
</g>
</g>
<!-- Node17 -->
<g id="Node000017" class="node">
<title>Node17</title>
<g id="a_Node000017"><a xlink:href="namespacepyc_1_1physics_1_1polar_1_1separate.html#a49811b3e193170bb3f8d0a185b4fc07d" target="_top" xlink:title=" ">
<polygon fill="white" stroke="#666666" points="741.5,-78 634.5,-78 634.5,-48 741.5,-48 741.5,-78"/>
<text text-anchor="start" x="642.5" y="-66" font-family="Helvetica,sans-Serif" font-size="10.00">pyc::physics::polar</text>
<text text-anchor="middle" x="688" y="-55" font-family="Helvetica,sans-Serif" font-size="10.00">::separate::Beta</text>
</a>
</g>
</g>
<!-- Node1&#45;&gt;Node17 -->
<g id="edge17_Node000001_Node000017" class="edge">
<title>Node1&#45;&gt;Node17</title>
<g id="a_edge17_Node000001_Node000017"><a xlink:title=" ">
<path fill="none" stroke="#63b8ff" d="M792.51,-98.11C774.31,-91.94 752.38,-84.5 733.4,-78.06"/>
<polygon fill="#63b8ff" stroke="#63b8ff" points="791.61,-101.5 802.21,-101.4 793.86,-94.87 791.61,-101.5"/>
</a>
</g>
</g>
<!-- Node18 -->
<g id="Node000018" class="node">
<title>Node18</title>
<g id="a_Node000018"><a xlink:href="namespacepyc_1_1physics_1_1cartesian_1_1separate.html#ab7fc9bc713e9578278cf535b7d296d99" target="_top" xlink:title=" ">
<polygon fill="white" stroke="#666666" points="752,-30 624,-30 624,0 752,0 752,-30"/>
<text text-anchor="start" x="632" y="-18" font-family="Helvetica,sans-Serif" font-size="10.00">pyc::physics::cartesian</text>
<text text-anchor="middle" x="688" y="-7" font-family="Helvetica,sans-Serif" font-size="10.00">::separate::Beta</text>
</a>
</g>
</g>
<!-- Node1&#45;&gt;Node18 -->
<g id="edge18_Node000001_Node000018" class="edge">
<title>Node1&#45;&gt;Node18</title>
<g id="a_edge18_Node000001_Node000018"><a xlink:title=" ">
<path fill="none" stroke="#63b8ff" d="M815.36,-93.77C800.54,-77.78 776.66,-54.22 752,-39 746.62,-35.68 740.71,-32.69 734.73,-30.05"/>
<polygon fill="#63b8ff" stroke="#63b8ff" points="812.93,-96.3 822.24,-101.36 818.11,-91.6 812.93,-96.3"/>
</a>
</g>
</g>
<!-- Node3 -->
<g id="Node000003" class="node">
<title>Node3</title>
<g id="a_Node000003"><a xlink:href="nusol_2tensor_2nusol_8cxx.html#ab477f38adf15df486af1a3311204aa26" target="_top" xlink:title=" ">
<polygon fill="white" stroke="#666666" points="544.5,-267.5 503.5,-267.5 503.5,-248.5 544.5,-248.5 544.5,-267.5"/>
<text text-anchor="middle" x="524" y="-255.5" font-family="Helvetica,sans-Serif" font-size="10.00">_xNu</text>
</a>
</g>
</g>
<!-- Node2&#45;&gt;Node3 -->
<g id="edge2_Node000002_Node000003" class="edge">
<title>Node2&#45;&gt;Node3</title>
<g id="a_edge2_Node000002_Node000003"><a xlink:title=" ">
<path fill="none" stroke="#63b8ff" d="M654.14,-215.45C635,-223.07 610.3,-232.55 588,-240 573.65,-244.79 557.21,-249.46 544.72,-252.85"/>
<polygon fill="#63b8ff" stroke="#63b8ff" points="655.63,-218.62 663.61,-211.65 653.02,-212.13 655.63,-218.62"/>
</a>
</g>
</g>
<!-- Node6 -->
<g id="Node000006" class="node">
<title>Node6</title>
<g id="a_Node000006"><a xlink:href="namespacepyc_1_1nusol.html#a66ad18c125df47cd81fd3043ab4cc2f3" target="_top" xlink:title=" ">
<polygon fill="white" stroke="#666666" points="588,-230.5 460,-230.5 460,-211.5 588,-211.5 588,-230.5"/>
<text text-anchor="middle" x="524" y="-218.5" font-family="Helvetica,sans-Serif" font-size="10.00">pyc::nusol::BaseMatrix</text>
</a>
</g>
</g>
<!-- Node2&#45;&gt;Node6 -->
<g id="edge5_Node000002_Node000006" class="edge">
<title>Node2&#45;&gt;Node6</title>
<g id="a_edge5_Node000002_Node000006"><a xlink:title=" ">
<path fill="none" stroke="#63b8ff" d="M622.41,-209.58C611.15,-210.9 599.44,-212.27 588.21,-213.59"/>
<polygon fill="#63b8ff" stroke="#63b8ff" points="623.08,-213.02 632.61,-208.38 622.27,-206.07 623.08,-213.02"/>
</a>
</g>
</g>
<!-- Node7 -->
<g id="Node000007" class="node">
<title>Node7</title>
<g id="a_Node000007"><a xlink:href="namespacenusol__.html#a3aacd3a83799d6a470d6188008fd069a" target="_top" xlink:title=" ">
<polygon fill="white" stroke="#666666" points="565.5,-193.5 482.5,-193.5 482.5,-174.5 565.5,-174.5 565.5,-193.5"/>
<text text-anchor="middle" x="524" y="-181.5" font-family="Helvetica,sans-Serif" font-size="10.00">nusol_::Hperp</text>
</a>
</g>
</g>
<!-- Node2&#45;&gt;Node7 -->
<g id="edge6_Node000002_Node000007" class="edge">
<title>Node2&#45;&gt;Node7</title>
<g id="a_edge6_Node000002_Node000007"><a xlink:title=" ">
<path fill="none" stroke="#63b8ff" d="M622.43,-194.83C603.28,-192.7 582.85,-190.43 565.67,-188.52"/>
<polygon fill="#63b8ff" stroke="#63b8ff" points="622.28,-198.33 632.61,-195.96 623.05,-191.37 622.28,-198.33"/>
</a>
</g>
</g>
<!-- Node8 -->
<g id="Node000008" class="node">
<title>Node8</title>
<g id="a_Node000008"><a xlink:href="namespacenusol__.html#ac849ef3564c5ac968727dce36494fd0a" target="_top" xlink:title=" ">
<polygon fill="white" stroke="#666666" points="564.5,-156.5 483.5,-156.5 483.5,-137.5 564.5,-137.5 564.5,-156.5"/>
<text text-anchor="middle" x="524" y="-144.5" font-family="Helvetica,sans-Serif" font-size="10.00">nusol_::NuNu</text>
</a>
</g>
</g>
<!-- Node2&#45;&gt;Node8 -->
<g id="edge7_Node000002_Node000008" class="edge">
<title>Node2&#45;&gt;Node8</title>
<g id="a_edge7_Node000002_Node000008"><a xlink:title=" ">
<path fill="none" stroke="#63b8ff" d="M642.36,-189.44C636.15,-187.43 629.88,-185.26 624,-183 607.48,-176.65 604.52,-172.35 588,-166 579.04,-162.56 569.18,-159.33 559.97,-156.54"/>
<polygon fill="#63b8ff" stroke="#63b8ff" points="641.44,-192.82 652.03,-192.46 643.53,-186.13 641.44,-192.82"/>
</a>
</g>
</g>
<!-- Node4 -->
<g id="Node000004" class="node">
<title>Node4</title>
<g id="a_Node000004"><a xlink:href="namespacenusol__.html#a6f05175e14627bd3c34ffa61686b7da4" target="_top" xlink:title=" ">
<polygon fill="white" stroke="#666666" points="408.5,-267.5 340.5,-267.5 340.5,-248.5 408.5,-248.5 408.5,-267.5"/>
<text text-anchor="middle" x="374.5" y="-255.5" font-family="Helvetica,sans-Serif" font-size="10.00">nusol_::Nu</text>
</a>
</g>
</g>
<!-- Node3&#45;&gt;Node4 -->
<g id="edge3_Node000003_Node000004" class="edge">
<title>Node3&#45;&gt;Node4</title>
<g id="a_edge3_Node000003_Node000004"><a xlink:title=" ">
<path fill="none" stroke="#63b8ff" d="M493.28,-258C468.81,-258 434.13,-258 408.74,-258"/>
<polygon fill="#63b8ff" stroke="#63b8ff" points="493.41,-261.5 503.41,-258 493.41,-254.5 493.41,-261.5"/>
</a>
</g>
</g>
<!-- Node5 -->
<g id="Node000005" class="node">
<title>Node5</title>
<g id="a_Node000005"><a xlink:href="namespacepyc_1_1nusol.html#a991cfa801400211ccf412bd1a85b7b69" target="_top" xlink:title=" ">
<polygon fill="white" stroke="#666666" points="261.5,-267.5 175.5,-267.5 175.5,-248.5 261.5,-248.5 261.5,-267.5"/>
<text text-anchor="middle" x="218.5" y="-255.5" font-family="Helvetica,sans-Serif" font-size="10.00">pyc::nusol::Nu</text>
</a>
</g>
</g>
<!-- Node4&#45;&gt;Node5 -->
<g id="edge4_Node000004_Node000005" class="edge">
<title>Node4&#45;&gt;Node5</title>
<g id="a_edge4_Node000004_Node000005"><a xlink:title=" ">
<path fill="none" stroke="#63b8ff" d="M330.3,-258C308.8,-258 282.92,-258 261.58,-258"/>
<polygon fill="#63b8ff" stroke="#63b8ff" points="330.46,-261.5 340.46,-258 330.46,-254.5 330.46,-261.5"/>
</a>
</g>
</g>
<!-- Node9 -->
<g id="Node000009" class="node">
<title>Node9</title>
<g id="a_Node000009"><a xlink:href="namespacepyc_1_1nusol.html#af7bb509b120cb3314695cecd70bc5c11" target="_top" xlink:title=" ">
<polygon fill="white" stroke="#666666" points="424,-175.5 325,-175.5 325,-156.5 424,-156.5 424,-175.5"/>
<text text-anchor="middle" x="374.5" y="-163.5" font-family="Helvetica,sans-Serif" font-size="10.00">pyc::nusol::NuNu</text>
</a>
</g>
</g>
<!-- Node8&#45;&gt;Node9 -->
<g id="edge8_Node000008_Node000009" class="edge">
<title>Node8&#45;&gt;Node9</title>
<g id="a_edge8_Node000008_Node000009"><a xlink:title=" ">
<path fill="none" stroke="#63b8ff" d="M473.32,-153.4C457.44,-155.45 439.89,-157.71 424.09,-159.74"/>
<polygon fill="#63b8ff" stroke="#63b8ff" points="474,-156.84 483.47,-152.09 473.11,-149.9 474,-156.84"/>
</a>
</g>
</g>
<!-- Node10 -->
<g id="Node000010" class="node">
<title>Node10</title>
<g id="a_Node000010"><a xlink:href="namespacepyc_1_1nusol.html#a9650527ae538fa27121bedfb79a1fbe6" target="_top" xlink:title=" ">
<polygon fill="white" stroke="#666666" points="424,-138.5 325,-138.5 325,-119.5 424,-119.5 424,-138.5"/>
<text text-anchor="middle" x="374.5" y="-126.5" font-family="Helvetica,sans-Serif" font-size="10.00">pyc::nusol::NuNu</text>
</a>
</g>
</g>
<!-- Node8&#45;&gt;Node10 -->
<g id="edge9_Node000008_Node000010" class="edge">
<title>Node8&#45;&gt;Node10</title>
<g id="a_edge9_Node000008_Node000010"><a xlink:title=" ">
<path fill="none" stroke="#63b8ff" d="M473.32,-140.94C457.44,-139 439.89,-136.86 424.09,-134.93"/>
<polygon fill="#63b8ff" stroke="#63b8ff" points="473.12,-144.44 483.47,-142.18 473.97,-137.49 473.12,-144.44"/>
</a>
</g>
</g>
<!-- Node11 -->
<g id="Node000011" class="node">
<title>Node11</title>
<g id="a_Node000011"><a xlink:href="namespacepyc_1_1nusol.html#aaaf252028ed63bf2d561dffcd76916e2" target="_top" xlink:title=" ">
<polygon fill="white" stroke="#666666" points="268,-175.5 169,-175.5 169,-156.5 268,-156.5 268,-175.5"/>
<text text-anchor="middle" x="218.5" y="-163.5" font-family="Helvetica,sans-Serif" font-size="10.00">pyc::nusol::NuNu</text>
</a>
</g>
</g>
<!-- Node10&#45;&gt;Node11 -->
<g id="edge10_Node000010_Node000011" class="edge">
<title>Node10&#45;&gt;Node11</title>
<g id="a_edge10_Node000010_Node000011"><a xlink:title=" ">
<path fill="none" stroke="#63b8ff" d="M323.87,-140.93C302.97,-145.94 278.99,-151.71 259.29,-156.44"/>
<polygon fill="#63b8ff" stroke="#63b8ff" points="324.94,-144.27 333.84,-138.53 323.3,-137.46 324.94,-144.27"/>
</a>
</g>
</g>
<!-- Node12 -->
<g id="Node000012" class="node">
<title>Node12</title>
<g id="a_Node000012"><a xlink:href="namespacepyc_1_1nusol.html#af88804c21a54435a41be99cbc03faf30" target="_top" xlink:title=" ">
<polygon fill="white" stroke="#666666" points="268,-138.5 169,-138.5 169,-119.5 268,-119.5 268,-138.5"/>
<text text-anchor="middle" x="218.5" y="-126.5" font-family="Helvetica,sans-Serif" font-size="10.00">pyc::nusol::NuNu</text>
</a>
</g>
</g>
<!-- Node10&#45;&gt;Node12 -->
<g id="edge11_Node000010_Node000012" class="edge">
<title>Node10&#45;&gt;Node12</title>
<g id="a_edge11_Node000010_Node000012"><a xlink:title=" ">
<path fill="none" stroke="#63b8ff" d="M314.39,-129C299.12,-129 282.85,-129 268.17,-129"/>
<polygon fill="#63b8ff" stroke="#63b8ff" points="314.77,-132.5 324.77,-129 314.77,-125.5 314.77,-132.5"/>
</a>
</g>
</g>
<!-- Node13 -->
<g id="Node000013" class="node">
<title>Node13</title>
<g id="a_Node000013"><a xlink:href="classvalidation.html#aa436b348c281a3d676910cf7b7d575eb" target="_top" xlink:title=" ">
<polygon fill="white" stroke="#666666" points="289,-101.5 148,-101.5 148,-82.5 289,-82.5 289,-101.5"/>
<text text-anchor="middle" x="218.5" y="-89.5" font-family="Helvetica,sans-Serif" font-size="10.00">validation::reconstruction</text>
</a>
</g>
</g>
<!-- Node10&#45;&gt;Node13 -->
<g id="edge12_Node000010_Node000013" class="edge">
<title>Node10&#45;&gt;Node13</title>
<g id="a_edge12_Node000010_Node000013"><a xlink:title=" ">
<path fill="none" stroke="#63b8ff" d="M323.87,-117.07C302.97,-112.06 278.99,-106.29 259.29,-101.56"/>
<polygon fill="#63b8ff" stroke="#63b8ff" points="323.3,-120.54 333.84,-119.47 324.94,-113.73 323.3,-120.54"/>
</a>
</g>
</g>
<!-- Node14 -->
<g id="Node000014" class="node">
<title>Node14</title>
<g id="a_Node000014"><a xlink:href="classvalidation.html#af388ba0e867008a75602581fdc2ed0f3" target="_top" xlink:title="Alternative selection strategy method.">
<polygon fill="white" stroke="#666666" points="112,-101.5 0,-101.5 0,-82.5 112,-82.5 112,-101.5"/>
<text text-anchor="middle" x="56" y="-89.5" font-family="Helvetica,sans-Serif" font-size="10.00">validation::strategy</text>
</a>
</g>
</g>
<!-- Node13&#45;&gt;Node14 -->
<g id="edge13_Node000013_Node000014" class="edge">
<title>Node13&#45;&gt;Node14</title>
<g id="a_edge13_Node000013_Node000014"><a xlink:title=" ">
<path fill="none" stroke="#63b8ff" d="M137.54,-92C128.98,-92 120.41,-92 112.23,-92"/>
<polygon fill="#63b8ff" stroke="#63b8ff" points="137.57,-95.5 147.57,-92 137.57,-88.5 137.57,-95.5"/>
</a>
</g>
</g>
</g>
</svg>
