<?xml version="1.0" encoding="UTF-8" standalone="no"?>
<!DOCTYPE svg PUBLIC "-//W3C//DTD SVG 1.1//EN"
 "http://www.w3.org/Graphics/SVG/1.1/DTD/svg11.dtd">
<!-- Generated by graphviz version 2.43.0 (0)
 -->
<!-- Title: pyc::graph::cartesian::edge_aggregation Pages: 1 -->
<svg width="398pt" height="101pt"
 viewBox="0.00 0.00 398.00 101.00" xmlns="http://www.w3.org/2000/svg" xmlns:xlink="http://www.w3.org/1999/xlink">

<svg id="main" version="1.1" xmlns="http://www.w3.org/2000/svg" xmlns:xlink="http://www.w3.org/1999/xlink" xml:space="preserve" onload="init(evt)">
<style type="text/css"><![CDATA[
.node, .edge {opacity: 0.7;}
.node.selected, .edge.selected {opacity: 1;}
.edge:hover path { stroke: red; }
.edge:hover polygon { stroke: red; fill: red; }
]]></style>
<script type="application/ecmascript" xlink:href="svg.min.js"/>
<svg id="graph" class="graph">
<g id="graph0" class="graph" transform="scale(1 1) rotate(0) translate(4 97)">
<title>pyc::graph::cartesian::edge_aggregation</title>
<!-- Node1 -->
<g id="Node000001" class="node">
<title>Node1</title>
<g id="a_Node000001"><a xlink:title=" ">
<polygon fill="#999999" stroke="#666666" points="119,-61.5 0,-61.5 0,-31.5 119,-31.5 119,-61.5"/>
<text text-anchor="start" x="8" y="-49.5" font-family="Helvetica,sans-Serif" font-size="10.00">pyc::graph::cartesian</text>
<text text-anchor="middle" x="59.5" y="-38.5" font-family="Helvetica,sans-Serif" font-size="10.00">::edge_aggregation</text>
</a>
</g>
</g>
<!-- Node2 -->
<g id="Node000002" class="node">
<title>Node2</title>
<g id="a_Node000002"><a xlink:href="utils_8cxx.html#a123aed6d73594e07c6401a7a6c587808" target="_top" xlink:title=" ">
<polygon fill="white" stroke="#666666" points="261.5,-93 191.5,-93 191.5,-74 261.5,-74 261.5,-93"/>
<text text-anchor="middle" x="226.5" y="-81" font-family="Helvetica,sans-Serif" font-size="10.00">changedev</text>
</a>
</g>
</g>
<!-- Node1&#45;&gt;Node2 -->
<g id="edge1_Node000001_Node000002" class="edge">
<title>Node1&#45;&gt;Node2</title>
<g id="a_edge1_Node000001_Node000002"><a xlink:title=" ">
<path fill="none" stroke="#63b8ff" d="M119.14,-59.65C139.55,-64.23 162.1,-69.28 181.16,-73.56"/>
<polygon fill="#63b8ff" stroke="#63b8ff" points="180.54,-77.01 191.07,-75.78 182.08,-70.18 180.54,-77.01"/>
</a>
</g>
</g>
<!-- Node3 -->
<g id="Node000003" class="node">
<title>Node3</title>
<g id="a_Node000003"><a xlink:href="namespacegraph__.html#a7249186f32a05a8ff1601bff5deabdef" target="_top" xlink:title=" ">
<polygon fill="white" stroke="#666666" points="298,-56 155,-56 155,-37 298,-37 298,-56"/>
<text text-anchor="middle" x="226.5" y="-44" font-family="Helvetica,sans-Serif" font-size="10.00">graph_::edge_aggregation</text>
</a>
</g>
</g>
<!-- Node1&#45;&gt;Node3 -->
<g id="edge2_Node000001_Node000003" class="edge">
<title>Node1&#45;&gt;Node3</title>
<g id="a_edge2_Node000001_Node000003"><a xlink:title=" ">
<path fill="none" stroke="#63b8ff" d="M119.14,-46.5C127.46,-46.5 136.14,-46.5 144.79,-46.5"/>
<polygon fill="#63b8ff" stroke="#63b8ff" points="144.91,-50 154.91,-46.5 144.91,-43 144.91,-50"/>
</a>
</g>
</g>
<!-- Node5 -->
<g id="Node000005" class="node">
<title>Node5</title>
<g id="a_Node000005"><a xlink:href="namespacepyc.html#ab174cc51f6efef06bdb0ba47ec3fe3bf" target="_top" xlink:title=" ">
<polygon fill="white" stroke="#666666" points="273,-19 180,-19 180,0 273,0 273,-19"/>
<text text-anchor="middle" x="226.5" y="-7" font-family="Helvetica,sans-Serif" font-size="10.00">pyc::std_to_dict</text>
</a>
</g>
</g>
<!-- Node1&#45;&gt;Node5 -->
<g id="edge4_Node000001_Node000005" class="edge">
<title>Node1&#45;&gt;Node5</title>
<g id="a_edge4_Node000001_Node000005"><a xlink:title=" ">
<path fill="none" stroke="#63b8ff" d="M119.14,-33.35C136.79,-29.39 156.04,-25.08 173.25,-21.22"/>
<polygon fill="#63b8ff" stroke="#63b8ff" points="174.13,-24.61 183.12,-19 172.6,-17.78 174.13,-24.61"/>
</a>
</g>
</g>
<!-- Node4 -->
<g id="Node000004" class="node">
<title>Node4</title>
<g id="a_Node000004"><a xlink:href="utils_8cxx.html#a1652e53abd2299dd0f10e093948e4fa3" target="_top" xlink:title=" ">
<polygon fill="white" stroke="#666666" points="390,-56 334,-56 334,-37 390,-37 390,-56"/>
<text text-anchor="middle" x="362" y="-44" font-family="Helvetica,sans-Serif" font-size="10.00">MakeOp</text>
</a>
</g>
</g>
<!-- Node3&#45;&gt;Node4 -->
<g id="edge3_Node000003_Node000004" class="edge">
<title>Node3&#45;&gt;Node4</title>
<g id="a_edge3_Node000003_Node000004"><a xlink:title=" ">
<path fill="none" stroke="#63b8ff" d="M298.16,-46.5C307.03,-46.5 315.81,-46.5 323.87,-46.5"/>
<polygon fill="#63b8ff" stroke="#63b8ff" points="323.99,-50 333.99,-46.5 323.99,-43 323.99,-50"/>
</a>
</g>
</g>
</g>
</svg>
</svg>

<style type='text/css'>
<![CDATA[
[data-mouse-over-selected='false'] { opacity: 0.7; }
[data-mouse-over-selected='true']  { opacity: 1.0; }
]]>
</style>
<script type="application/ecmascript"><![CDATA[
document.addEventListener('DOMContentLoaded', (event) => {
  highlightEdges();
  highlightAdjacentNodes();
});
]]></script>
</svg>
