<?xml version="1.0" encoding="UTF-8" standalone="no"?>
<!DOCTYPE svg PUBLIC "-//W3C//DTD SVG 1.1//EN"
 "http://www.w3.org/Graphics/SVG/1.1/DTD/svg11.dtd">
<!-- Generated by graphviz version 2.43.0 (0)
 -->
<!-- Title: pyc::physics::cartesian::separate::P Pages: 1 -->
<svg width="329pt" height="82pt"
 viewBox="0.00 0.00 329.00 82.00" xmlns="http://www.w3.org/2000/svg" xmlns:xlink="http://www.w3.org/1999/xlink">
<g id="graph0" class="graph" transform="scale(1 1) rotate(0) translate(4 78)">
<title>pyc::physics::cartesian::separate::P</title>
<!-- Node1 -->
<g id="Node000001" class="node">
<title>Node1</title>
<g id="a_Node000001"><a xlink:title=" ">
<polygon fill="#999999" stroke="#666666" points="128,-51.5 0,-51.5 0,-21.5 128,-21.5 128,-51.5"/>
<text text-anchor="start" x="8" y="-39.5" font-family="Helvetica,sans-Serif" font-size="10.00">pyc::physics::cartesian</text>
<text text-anchor="middle" x="64" y="-28.5" font-family="Helvetica,sans-Serif" font-size="10.00">::separate::P</text>
</a>
</g>
</g>
<!-- Node2 -->
<g id="Node000002" class="node">
<title>Node2</title>
<g id="a_Node000002"><a xlink:href="utils_8cxx.html#a123aed6d73594e07c6401a7a6c587808" target="_top" xlink:title=" ">
<polygon fill="white" stroke="#666666" points="234.5,-74 164.5,-74 164.5,-55 234.5,-55 234.5,-74"/>
<text text-anchor="middle" x="199.5" y="-62" font-family="Helvetica,sans-Serif" font-size="10.00">changedev</text>
</a>
</g>
</g>
<!-- Node1&#45;&gt;Node2 -->
<g id="edge1_Node000001_Node000002" class="edge">
<title>Node1&#45;&gt;Node2</title>
<g id="a_edge1_Node000001_Node000002"><a xlink:title=" ">
<path fill="none" stroke="#63b8ff" d="M128.23,-49.76C137.05,-51.61 145.95,-53.48 154.31,-55.23"/>
<polygon fill="#63b8ff" stroke="#63b8ff" points="153.7,-58.68 164.2,-57.31 155.13,-51.83 153.7,-58.68"/>
</a>
</g>
</g>
<!-- Node3 -->
<g id="Node000003" class="node">
<title>Node3</title>
<g id="a_Node000003"><a xlink:href="namespacephysics__.html#ac12a78b1943348345b940e510930f420" target="_top" xlink:title="Computes the momentum magnitude.">
<polygon fill="white" stroke="#666666" points="235,-19 164,-19 164,0 235,0 235,-19"/>
<text text-anchor="middle" x="199.5" y="-7" font-family="Helvetica,sans-Serif" font-size="10.00">physics_::P</text>
</a>
</g>
</g>
<!-- Node1&#45;&gt;Node3 -->
<g id="edge2_Node000001_Node000003" class="edge">
<title>Node1&#45;&gt;Node3</title>
<g id="a_edge2_Node000001_Node000003"><a xlink:title=" ">
<path fill="none" stroke="#63b8ff" d="M128.23,-23.71C136.95,-21.95 145.75,-20.17 154.04,-18.49"/>
<polygon fill="#63b8ff" stroke="#63b8ff" points="154.73,-21.92 163.84,-16.51 153.35,-15.06 154.73,-21.92"/>
</a>
</g>
</g>
<!-- Node3&#45;&gt;Node3 -->
<g id="edge4_Node000003_Node000003" class="edge">
<title>Node3&#45;&gt;Node3</title>
<g id="a_edge4_Node000003_Node000003"><a xlink:title=" ">
<path fill="none" stroke="#63b8ff" d="M184.7,-19.08C177.51,-27.73 182.44,-37 199.5,-37 209.9,-37 215.79,-33.56 217.18,-28.91"/>
<polygon fill="#63b8ff" stroke="#63b8ff" points="220.47,-27.69 214.3,-19.08 213.75,-29.66 220.47,-27.69"/>
</a>
</g>
</g>
<!-- Node4 -->
<g id="Node000004" class="node">
<title>Node4</title>
<g id="a_Node000004"><a xlink:href="utils_8cxx.html#a9c1cdc6384bce6bdc92ca917b3f656bf" target="_top" xlink:title=" ">
<polygon fill="white" stroke="#666666" points="321,-19 271,-19 271,0 321,0 321,-19"/>
<text text-anchor="middle" x="296" y="-7" font-family="Helvetica,sans-Serif" font-size="10.00">format</text>
</a>
</g>
</g>
<!-- Node3&#45;&gt;Node4 -->
<g id="edge3_Node000003_Node000004" class="edge">
<title>Node3&#45;&gt;Node4</title>
<g id="a_edge3_Node000003_Node000004"><a xlink:title=" ">
<path fill="none" stroke="#63b8ff" d="M235.15,-9.5C243.52,-9.5 252.46,-9.5 260.81,-9.5"/>
<polygon fill="#63b8ff" stroke="#63b8ff" points="260.98,-13 270.98,-9.5 260.98,-6 260.98,-13"/>
</a>
</g>
</g>
</g>
</svg>
