<?xml version="1.0" encoding="UTF-8" standalone="no"?>
<!DOCTYPE svg PUBLIC "-//W3C//DTD SVG 1.1//EN"
 "http://www.w3.org/Graphics/SVG/1.1/DTD/svg11.dtd">
<!-- Generated by graphviz version 2.43.0 (0)
 -->
<!-- Title: nusol_::BaseMatrix Pages: 1 -->
<svg width="742pt" height="193pt"
 viewBox="0.00 0.00 742.00 193.00" xmlns="http://www.w3.org/2000/svg" xmlns:xlink="http://www.w3.org/1999/xlink">
<g id="graph0" class="graph" transform="scale(1 1) rotate(0) translate(4 189)">
<title>nusol_::BaseMatrix</title>
<!-- Node1 -->
<g id="Node000001" class="node">
<title>Node1</title>
<g id="a_Node000001"><a xlink:title=" ">
<polygon fill="#999999" stroke="#666666" points="734,-129 624,-129 624,-110 734,-110 734,-129"/>
<text text-anchor="middle" x="679" y="-117" font-family="Helvetica,sans-Serif" font-size="10.00">nusol_::BaseMatrix</text>
</a>
</g>
</g>
<!-- Node2 -->
<g id="Node000002" class="node">
<title>Node2</title>
<g id="a_Node000002"><a xlink:href="nusol_2tensor_2nusol_8cxx.html#ab477f38adf15df486af1a3311204aa26" target="_top" xlink:title=" ">
<polygon fill="white" stroke="#666666" points="544.5,-185 503.5,-185 503.5,-166 544.5,-166 544.5,-185"/>
<text text-anchor="middle" x="524" y="-173" font-family="Helvetica,sans-Serif" font-size="10.00">_xNu</text>
</a>
</g>
</g>
<!-- Node1&#45;&gt;Node2 -->
<g id="edge1_Node000001_Node000002" class="edge">
<title>Node1&#45;&gt;Node2</title>
<g id="a_edge1_Node000001_Node000002"><a xlink:title=" ">
<path fill="none" stroke="#63b8ff" d="M647.63,-133.41C630.35,-141.05 608.19,-150.38 588,-157.5 573.73,-162.53 557.28,-167.19 544.77,-170.51"/>
<polygon fill="#63b8ff" stroke="#63b8ff" points="649.49,-136.41 657.19,-129.14 646.63,-130.02 649.49,-136.41"/>
</a>
</g>
</g>
<!-- Node5 -->
<g id="Node000005" class="node">
<title>Node5</title>
<g id="a_Node000005"><a xlink:href="namespacepyc_1_1nusol.html#a66ad18c125df47cd81fd3043ab4cc2f3" target="_top" xlink:title=" ">
<polygon fill="white" stroke="#666666" points="588,-148 460,-148 460,-129 588,-129 588,-148"/>
<text text-anchor="middle" x="524" y="-136" font-family="Helvetica,sans-Serif" font-size="10.00">pyc::nusol::BaseMatrix</text>
</a>
</g>
</g>
<!-- Node1&#45;&gt;Node5 -->
<g id="edge4_Node000001_Node000005" class="edge">
<title>Node1&#45;&gt;Node5</title>
<g id="a_edge4_Node000001_Node000005"><a xlink:title=" ">
<path fill="none" stroke="#63b8ff" d="M613.49,-127.51C605.08,-128.56 596.47,-129.63 588.08,-130.67"/>
<polygon fill="#63b8ff" stroke="#63b8ff" points="614.13,-130.96 623.63,-126.25 613.27,-124.01 614.13,-130.96"/>
</a>
</g>
</g>
<!-- Node6 -->
<g id="Node000006" class="node">
<title>Node6</title>
<g id="a_Node000006"><a xlink:href="namespacenusol__.html#a3aacd3a83799d6a470d6188008fd069a" target="_top" xlink:title=" ">
<polygon fill="white" stroke="#666666" points="565.5,-111 482.5,-111 482.5,-92 565.5,-92 565.5,-111"/>
<text text-anchor="middle" x="524" y="-99" font-family="Helvetica,sans-Serif" font-size="10.00">nusol_::Hperp</text>
</a>
</g>
</g>
<!-- Node1&#45;&gt;Node6 -->
<g id="edge5_Node000001_Node000006" class="edge">
<title>Node1&#45;&gt;Node6</title>
<g id="a_edge5_Node000001_Node000006"><a xlink:title=" ">
<path fill="none" stroke="#63b8ff" d="M613.64,-111.93C597.41,-110.02 580.43,-108.02 565.73,-106.29"/>
<polygon fill="#63b8ff" stroke="#63b8ff" points="613.29,-115.41 623.63,-113.1 614.1,-108.46 613.29,-115.41"/>
</a>
</g>
</g>
<!-- Node7 -->
<g id="Node000007" class="node">
<title>Node7</title>
<g id="a_Node000007"><a xlink:href="namespacenusol__.html#ac849ef3564c5ac968727dce36494fd0a" target="_top" xlink:title=" ">
<polygon fill="white" stroke="#666666" points="564.5,-74 483.5,-74 483.5,-55 564.5,-55 564.5,-74"/>
<text text-anchor="middle" x="524" y="-62" font-family="Helvetica,sans-Serif" font-size="10.00">nusol_::NuNu</text>
</a>
</g>
</g>
<!-- Node1&#45;&gt;Node7 -->
<g id="edge6_Node000001_Node000007" class="edge">
<title>Node1&#45;&gt;Node7</title>
<g id="a_edge6_Node000001_Node000007"><a xlink:title=" ">
<path fill="none" stroke="#63b8ff" d="M646.14,-105.96C629.04,-98.9 607.52,-90.33 588,-83.5 578.51,-80.18 568.1,-76.9 558.53,-74.02"/>
<polygon fill="#63b8ff" stroke="#63b8ff" points="645.07,-109.31 655.64,-109.92 647.76,-102.85 645.07,-109.31"/>
</a>
</g>
</g>
<!-- Node3 -->
<g id="Node000003" class="node">
<title>Node3</title>
<g id="a_Node000003"><a xlink:href="namespacenusol__.html#a6f05175e14627bd3c34ffa61686b7da4" target="_top" xlink:title=" ">
<polygon fill="white" stroke="#666666" points="408.5,-185 340.5,-185 340.5,-166 408.5,-166 408.5,-185"/>
<text text-anchor="middle" x="374.5" y="-173" font-family="Helvetica,sans-Serif" font-size="10.00">nusol_::Nu</text>
</a>
</g>
</g>
<!-- Node2&#45;&gt;Node3 -->
<g id="edge2_Node000002_Node000003" class="edge">
<title>Node2&#45;&gt;Node3</title>
<g id="a_edge2_Node000002_Node000003"><a xlink:title=" ">
<path fill="none" stroke="#63b8ff" d="M493.28,-175.5C468.81,-175.5 434.13,-175.5 408.74,-175.5"/>
<polygon fill="#63b8ff" stroke="#63b8ff" points="493.41,-179 503.41,-175.5 493.41,-172 493.41,-179"/>
</a>
</g>
</g>
<!-- Node4 -->
<g id="Node000004" class="node">
<title>Node4</title>
<g id="a_Node000004"><a xlink:href="namespacepyc_1_1nusol.html#a991cfa801400211ccf412bd1a85b7b69" target="_top" xlink:title=" ">
<polygon fill="white" stroke="#666666" points="261.5,-185 175.5,-185 175.5,-166 261.5,-166 261.5,-185"/>
<text text-anchor="middle" x="218.5" y="-173" font-family="Helvetica,sans-Serif" font-size="10.00">pyc::nusol::Nu</text>
</a>
</g>
</g>
<!-- Node3&#45;&gt;Node4 -->
<g id="edge3_Node000003_Node000004" class="edge">
<title>Node3&#45;&gt;Node4</title>
<g id="a_edge3_Node000003_Node000004"><a xlink:title=" ">
<path fill="none" stroke="#63b8ff" d="M330.3,-175.5C308.8,-175.5 282.92,-175.5 261.58,-175.5"/>
<polygon fill="#63b8ff" stroke="#63b8ff" points="330.46,-179 340.46,-175.5 330.46,-172 330.46,-179"/>
</a>
</g>
</g>
<!-- Node8 -->
<g id="Node000008" class="node">
<title>Node8</title>
<g id="a_Node000008"><a xlink:href="namespacepyc_1_1nusol.html#af7bb509b120cb3314695cecd70bc5c11" target="_top" xlink:title=" ">
<polygon fill="white" stroke="#666666" points="424,-93 325,-93 325,-74 424,-74 424,-93"/>
<text text-anchor="middle" x="374.5" y="-81" font-family="Helvetica,sans-Serif" font-size="10.00">pyc::nusol::NuNu</text>
</a>
</g>
</g>
<!-- Node7&#45;&gt;Node8 -->
<g id="edge7_Node000007_Node000008" class="edge">
<title>Node7&#45;&gt;Node8</title>
<g id="a_edge7_Node000007_Node000008"><a xlink:title=" ">
<path fill="none" stroke="#63b8ff" d="M473.32,-70.9C457.44,-72.95 439.89,-75.21 424.09,-77.24"/>
<polygon fill="#63b8ff" stroke="#63b8ff" points="474,-74.34 483.47,-69.59 473.11,-67.4 474,-74.34"/>
</a>
</g>
</g>
<!-- Node9 -->
<g id="Node000009" class="node">
<title>Node9</title>
<g id="a_Node000009"><a xlink:href="namespacepyc_1_1nusol.html#a9650527ae538fa27121bedfb79a1fbe6" target="_top" xlink:title=" ">
<polygon fill="white" stroke="#666666" points="424,-56 325,-56 325,-37 424,-37 424,-56"/>
<text text-anchor="middle" x="374.5" y="-44" font-family="Helvetica,sans-Serif" font-size="10.00">pyc::nusol::NuNu</text>
</a>
</g>
</g>
<!-- Node7&#45;&gt;Node9 -->
<g id="edge8_Node000007_Node000009" class="edge">
<title>Node7&#45;&gt;Node9</title>
<g id="a_edge8_Node000007_Node000009"><a xlink:title=" ">
<path fill="none" stroke="#63b8ff" d="M473.32,-58.44C457.44,-56.5 439.89,-54.36 424.09,-52.43"/>
<polygon fill="#63b8ff" stroke="#63b8ff" points="473.12,-61.94 483.47,-59.68 473.97,-54.99 473.12,-61.94"/>
</a>
</g>
</g>
<!-- Node10 -->
<g id="Node000010" class="node">
<title>Node10</title>
<g id="a_Node000010"><a xlink:href="namespacepyc_1_1nusol.html#aaaf252028ed63bf2d561dffcd76916e2" target="_top" xlink:title=" ">
<polygon fill="white" stroke="#666666" points="268,-93 169,-93 169,-74 268,-74 268,-93"/>
<text text-anchor="middle" x="218.5" y="-81" font-family="Helvetica,sans-Serif" font-size="10.00">pyc::nusol::NuNu</text>
</a>
</g>
</g>
<!-- Node9&#45;&gt;Node10 -->
<g id="edge9_Node000009_Node000010" class="edge">
<title>Node9&#45;&gt;Node10</title>
<g id="a_edge9_Node000009_Node000010"><a xlink:title=" ">
<path fill="none" stroke="#63b8ff" d="M323.87,-58.43C302.97,-63.44 278.99,-69.21 259.29,-73.94"/>
<polygon fill="#63b8ff" stroke="#63b8ff" points="324.94,-61.77 333.84,-56.03 323.3,-54.96 324.94,-61.77"/>
</a>
</g>
</g>
<!-- Node11 -->
<g id="Node000011" class="node">
<title>Node11</title>
<g id="a_Node000011"><a xlink:href="namespacepyc_1_1nusol.html#af88804c21a54435a41be99cbc03faf30" target="_top" xlink:title=" ">
<polygon fill="white" stroke="#666666" points="268,-56 169,-56 169,-37 268,-37 268,-56"/>
<text text-anchor="middle" x="218.5" y="-44" font-family="Helvetica,sans-Serif" font-size="10.00">pyc::nusol::NuNu</text>
</a>
</g>
</g>
<!-- Node9&#45;&gt;Node11 -->
<g id="edge10_Node000009_Node000011" class="edge">
<title>Node9&#45;&gt;Node11</title>
<g id="a_edge10_Node000009_Node000011"><a xlink:title=" ">
<path fill="none" stroke="#63b8ff" d="M314.39,-46.5C299.12,-46.5 282.85,-46.5 268.17,-46.5"/>
<polygon fill="#63b8ff" stroke="#63b8ff" points="314.77,-50 324.77,-46.5 314.77,-43 314.77,-50"/>
</a>
</g>
</g>
<!-- Node12 -->
<g id="Node000012" class="node">
<title>Node12</title>
<g id="a_Node000012"><a xlink:href="classvalidation.html#aa436b348c281a3d676910cf7b7d575eb" target="_top" xlink:title=" ">
<polygon fill="white" stroke="#666666" points="289,-19 148,-19 148,0 289,0 289,-19"/>
<text text-anchor="middle" x="218.5" y="-7" font-family="Helvetica,sans-Serif" font-size="10.00">validation::reconstruction</text>
</a>
</g>
</g>
<!-- Node9&#45;&gt;Node12 -->
<g id="edge11_Node000009_Node000012" class="edge">
<title>Node9&#45;&gt;Node12</title>
<g id="a_edge11_Node000009_Node000012"><a xlink:title=" ">
<path fill="none" stroke="#63b8ff" d="M323.87,-34.57C302.97,-29.56 278.99,-23.79 259.29,-19.06"/>
<polygon fill="#63b8ff" stroke="#63b8ff" points="323.3,-38.04 333.84,-36.97 324.94,-31.23 323.3,-38.04"/>
</a>
</g>
</g>
<!-- Node13 -->
<g id="Node000013" class="node">
<title>Node13</title>
<g id="a_Node000013"><a xlink:href="classvalidation.html#af388ba0e867008a75602581fdc2ed0f3" target="_top" xlink:title="Alternative selection strategy method.">
<polygon fill="white" stroke="#666666" points="112,-19 0,-19 0,0 112,0 112,-19"/>
<text text-anchor="middle" x="56" y="-7" font-family="Helvetica,sans-Serif" font-size="10.00">validation::strategy</text>
</a>
</g>
</g>
<!-- Node12&#45;&gt;Node13 -->
<g id="edge12_Node000012_Node000013" class="edge">
<title>Node12&#45;&gt;Node13</title>
<g id="a_edge12_Node000012_Node000013"><a xlink:title=" ">
<path fill="none" stroke="#63b8ff" d="M137.54,-9.5C128.98,-9.5 120.41,-9.5 112.23,-9.5"/>
<polygon fill="#63b8ff" stroke="#63b8ff" points="137.57,-13 147.57,-9.5 137.57,-6 137.57,-13"/>
</a>
</g>
</g>
</g>
</svg>
