<?xml version="1.0" encoding="UTF-8" standalone="no"?>
<!DOCTYPE svg PUBLIC "-//W3C//DTD SVG 1.1//EN"
 "http://www.w3.org/Graphics/SVG/1.1/DTD/svg11.dtd">
<!-- Generated by graphviz version 2.43.0 (0)
 -->
<!-- Title: pyc::as_pmc Pages: 1 -->
<svg width="396pt" height="64pt"
 viewBox="0.00 0.00 396.00 64.00" xmlns="http://www.w3.org/2000/svg" xmlns:xlink="http://www.w3.org/1999/xlink">
<g id="graph0" class="graph" transform="scale(1 1) rotate(0) translate(4 60)">
<title>pyc::as_pmc</title>
<!-- Node1 -->
<g id="Node000001" class="node">
<title>Node1</title>
<g id="a_Node000001"><a xlink:title=" ">
<polygon fill="#999999" stroke="#666666" points="388,-37 311,-37 311,-18 388,-18 388,-37"/>
<text text-anchor="middle" x="349.5" y="-25" font-family="Helvetica,sans-Serif" font-size="10.00">pyc::as_pmc</text>
</a>
</g>
</g>
<!-- Node2 -->
<g id="Node000002" class="node">
<title>Node2</title>
<g id="a_Node000002"><a xlink:href="namespacepyc_1_1nusol.html#a40d24df283b4dac4dcc8c52ec45d0008" target="_top" xlink:title=" ">
<polygon fill="white" stroke="#666666" points="275,-56 135,-56 135,-37 275,-37 275,-56"/>
<text text-anchor="middle" x="205" y="-44" font-family="Helvetica,sans-Serif" font-size="10.00">pyc::nusol::combinatorial</text>
</a>
</g>
</g>
<!-- Node1&#45;&gt;Node2 -->
<g id="edge1_Node000001_Node000002" class="edge">
<title>Node1&#45;&gt;Node2</title>
<g id="a_edge1_Node000001_Node000002"><a xlink:title=" ">
<path fill="none" stroke="#63b8ff" d="M300.6,-33.89C292.4,-34.98 283.75,-36.13 275.14,-37.28"/>
<polygon fill="#63b8ff" stroke="#63b8ff" points="301.24,-37.33 310.69,-32.54 300.31,-30.39 301.24,-37.33"/>
</a>
</g>
</g>
<!-- Node3 -->
<g id="Node000003" class="node">
<title>Node3</title>
<g id="a_Node000003"><a xlink:href="namespacepyc.html#a4f5d1f0a2f00b40eb63b5d3592cc4d46" target="_top" xlink:title=" ">
<polygon fill="white" stroke="#666666" points="243,-19 167,-19 167,0 243,0 243,-19"/>
<text text-anchor="middle" x="205" y="-7" font-family="Helvetica,sans-Serif" font-size="10.00">pyc::to_pmc</text>
</a>
</g>
</g>
<!-- Node1&#45;&gt;Node3 -->
<g id="edge2_Node000001_Node000003" class="edge">
<title>Node1&#45;&gt;Node3</title>
<g id="a_edge2_Node000001_Node000003"><a xlink:title=" ">
<path fill="none" stroke="#63b8ff" d="M300.54,-21.44C281.77,-19.07 260.56,-16.39 243,-14.17"/>
<polygon fill="#63b8ff" stroke="#63b8ff" points="300.33,-24.94 310.69,-22.72 301.2,-18 300.33,-24.94"/>
</a>
</g>
</g>
<!-- Node4 -->
<g id="Node000004" class="node">
<title>Node4</title>
<g id="a_Node000004"><a xlink:href="namespacepyc_1_1nusol.html#aaaf252028ed63bf2d561dffcd76916e2" target="_top" xlink:title=" ">
<polygon fill="white" stroke="#666666" points="99,-19 0,-19 0,0 99,0 99,-19"/>
<text text-anchor="middle" x="49.5" y="-7" font-family="Helvetica,sans-Serif" font-size="10.00">pyc::nusol::NuNu</text>
</a>
</g>
</g>
<!-- Node3&#45;&gt;Node4 -->
<g id="edge3_Node000003_Node000004" class="edge">
<title>Node3&#45;&gt;Node4</title>
<g id="a_edge3_Node000003_Node000004"><a xlink:title=" ">
<path fill="none" stroke="#63b8ff" d="M156.72,-9.5C138.47,-9.5 117.6,-9.5 99.22,-9.5"/>
<polygon fill="#63b8ff" stroke="#63b8ff" points="156.84,-13 166.84,-9.5 156.84,-6 156.84,-13"/>
</a>
</g>
</g>
</g>
</svg>
