<?xml version="1.0" encoding="UTF-8" standalone="no"?>
<!DOCTYPE svg PUBLIC "-//W3C//DTD SVG 1.1//EN"
 "http://www.w3.org/Graphics/SVG/1.1/DTD/svg11.dtd">
<!-- Generated by graphviz version 2.43.0 (0)
 -->
<!-- Title: pyc::physics::polar::separate::M Pages: 1 -->
<svg width="539pt" height="156pt"
 viewBox="0.00 0.00 539.00 156.00" xmlns="http://www.w3.org/2000/svg" xmlns:xlink="http://www.w3.org/1999/xlink">
<g id="graph0" class="graph" transform="scale(1 1) rotate(0) translate(4 152)">
<title>pyc::physics::polar::separate::M</title>
<!-- Node1 -->
<g id="Node000001" class="node">
<title>Node1</title>
<g id="a_Node000001"><a xlink:title=" ">
<polygon fill="#999999" stroke="#666666" points="107,-98.5 0,-98.5 0,-68.5 107,-68.5 107,-98.5"/>
<text text-anchor="start" x="8" y="-86.5" font-family="Helvetica,sans-Serif" font-size="10.00">pyc::physics::polar</text>
<text text-anchor="middle" x="53.5" y="-75.5" font-family="Helvetica,sans-Serif" font-size="10.00">::separate::M</text>
</a>
</g>
</g>
<!-- Node2 -->
<g id="Node000002" class="node">
<title>Node2</title>
<g id="a_Node000002"><a xlink:href="utils_8cxx.html#a123aed6d73594e07c6401a7a6c587808" target="_top" xlink:title=" ">
<polygon fill="white" stroke="#666666" points="236.5,-148 166.5,-148 166.5,-129 236.5,-129 236.5,-148"/>
<text text-anchor="middle" x="201.5" y="-136" font-family="Helvetica,sans-Serif" font-size="10.00">changedev</text>
</a>
</g>
</g>
<!-- Node1&#45;&gt;Node2 -->
<g id="edge1_Node000001_Node000002" class="edge">
<title>Node1&#45;&gt;Node2</title>
<g id="a_edge1_Node000001_Node000002"><a xlink:title=" ">
<path fill="none" stroke="#63b8ff" d="M88.67,-98.66C104.98,-105.66 124.85,-113.88 143,-120.5 147.91,-122.29 153.09,-124.07 158.26,-125.77"/>
<polygon fill="#63b8ff" stroke="#63b8ff" points="157.5,-129.2 168.09,-128.93 159.64,-122.54 157.5,-129.2"/>
</a>
</g>
</g>
<!-- Node3 -->
<g id="Node000003" class="node">
<title>Node3</title>
<g id="a_Node000003"><a xlink:href="namespacephysics__.html#a64e8e583c57246f52851c0bff4137ebc" target="_top" xlink:title="Computes the invariant mass.">
<polygon fill="white" stroke="#666666" points="238.5,-93 164.5,-93 164.5,-74 238.5,-74 238.5,-93"/>
<text text-anchor="middle" x="201.5" y="-81" font-family="Helvetica,sans-Serif" font-size="10.00">physics_::M</text>
</a>
</g>
</g>
<!-- Node1&#45;&gt;Node3 -->
<g id="edge2_Node000001_Node000003" class="edge">
<title>Node1&#45;&gt;Node3</title>
<g id="a_edge2_Node000001_Node000003"><a xlink:title=" ">
<path fill="none" stroke="#63b8ff" d="M107.21,-83.5C122.61,-83.5 139.31,-83.5 154.27,-83.5"/>
<polygon fill="#63b8ff" stroke="#63b8ff" points="154.32,-87 164.32,-83.5 154.32,-80 154.32,-87"/>
</a>
</g>
</g>
<!-- Node5 -->
<g id="Node000005" class="node">
<title>Node5</title>
<g id="a_Node000005"><a xlink:href="namespacetransform__.html#a87dc88421ea78ec3b9c73c86cc5ade19" target="_top" xlink:title="Computes the 4&#45;momentum (Px, Py, Pz, E).">
<polygon fill="white" stroke="#666666" points="260,-56 143,-56 143,-37 260,-37 260,-56"/>
<text text-anchor="middle" x="201.5" y="-44" font-family="Helvetica,sans-Serif" font-size="10.00">transform_::PxPyPzE</text>
</a>
</g>
</g>
<!-- Node1&#45;&gt;Node5 -->
<g id="edge5_Node000001_Node000005" class="edge">
<title>Node1&#45;&gt;Node5</title>
<g id="a_edge5_Node000001_Node000005"><a xlink:title=" ">
<path fill="none" stroke="#63b8ff" d="M107.21,-70.14C122.21,-66.34 138.45,-62.23 153.11,-58.51"/>
<polygon fill="#63b8ff" stroke="#63b8ff" points="154.14,-61.86 162.97,-56.01 152.42,-55.07 154.14,-61.86"/>
</a>
</g>
</g>
<!-- Node3&#45;&gt;Node3 -->
<g id="edge4_Node000003_Node000003" class="edge">
<title>Node3&#45;&gt;Node3</title>
<g id="a_edge4_Node000003_Node000003"><a xlink:title=" ">
<path fill="none" stroke="#63b8ff" d="M178.69,-93.08C167.59,-101.73 175.2,-111 201.5,-111 218.35,-111 227.53,-107.2 229.03,-102.19"/>
<polygon fill="#63b8ff" stroke="#63b8ff" points="232.02,-100.35 224.31,-93.08 225.8,-103.57 232.02,-100.35"/>
</a>
</g>
</g>
<!-- Node4 -->
<g id="Node000004" class="node">
<title>Node4</title>
<g id="a_Node000004"><a xlink:href="utils_8cxx.html#a9c1cdc6384bce6bdc92ca917b3f656bf" target="_top" xlink:title=" ">
<polygon fill="white" stroke="#666666" points="376.5,-93 326.5,-93 326.5,-74 376.5,-74 376.5,-93"/>
<text text-anchor="middle" x="351.5" y="-81" font-family="Helvetica,sans-Serif" font-size="10.00">format</text>
</a>
</g>
</g>
<!-- Node3&#45;&gt;Node4 -->
<g id="edge3_Node000003_Node000004" class="edge">
<title>Node3&#45;&gt;Node4</title>
<g id="a_edge3_Node000003_Node000004"><a xlink:title=" ">
<path fill="none" stroke="#63b8ff" d="M238.7,-83.5C262.3,-83.5 292.91,-83.5 316.14,-83.5"/>
<polygon fill="#63b8ff" stroke="#63b8ff" points="316.23,-87 326.23,-83.5 316.23,-80 316.23,-87"/>
</a>
</g>
</g>
<!-- Node6 -->
<g id="Node000006" class="node">
<title>Node6</title>
<g id="a_Node000006"><a xlink:href="namespacetransform__.html#aa38819d479d31edd3f79b4f8e96ef8be" target="_top" xlink:title="Computes the 3&#45;momentum (Px, Py, Pz).">
<polygon fill="white" stroke="#666666" points="407,-56 296,-56 296,-37 407,-37 407,-56"/>
<text text-anchor="middle" x="351.5" y="-44" font-family="Helvetica,sans-Serif" font-size="10.00">transform_::PxPyPz</text>
</a>
</g>
</g>
<!-- Node5&#45;&gt;Node6 -->
<g id="edge6_Node000005_Node000006" class="edge">
<title>Node5&#45;&gt;Node6</title>
<g id="a_edge6_Node000005_Node000006"><a xlink:title=" ">
<path fill="none" stroke="#63b8ff" d="M260.14,-46.5C268.45,-46.5 277.05,-46.5 285.49,-46.5"/>
<polygon fill="#63b8ff" stroke="#63b8ff" points="285.68,-50 295.68,-46.5 285.68,-43 285.68,-50"/>
</a>
</g>
</g>
<!-- Node7 -->
<g id="Node000007" class="node">
<title>Node7</title>
<g id="a_Node000007"><a xlink:href="namespacetransform__.html#a4573dda96168ebbd38a408e64cc3d5ff" target="_top" xlink:title="Computes the x&#45;component of momentum (Px).">
<polygon fill="white" stroke="#666666" points="531,-93 443,-93 443,-74 531,-74 531,-93"/>
<text text-anchor="middle" x="487" y="-81" font-family="Helvetica,sans-Serif" font-size="10.00">transform_::Px</text>
</a>
</g>
</g>
<!-- Node6&#45;&gt;Node7 -->
<g id="edge7_Node000006_Node000007" class="edge">
<title>Node6&#45;&gt;Node7</title>
<g id="a_edge7_Node000006_Node000007"><a xlink:title=" ">
<path fill="none" stroke="#63b8ff" d="M386.88,-56.03C403.41,-60.61 423.44,-66.16 441.15,-71.07"/>
<polygon fill="#63b8ff" stroke="#63b8ff" points="440.7,-74.58 451.27,-73.88 442.57,-67.83 440.7,-74.58"/>
</a>
</g>
</g>
<!-- Node8 -->
<g id="Node000008" class="node">
<title>Node8</title>
<g id="a_Node000008"><a xlink:href="namespacetransform__.html#a51363ab29a6390a86a8ea75573a7a196" target="_top" xlink:title="Computes the y&#45;component of momentum (Py).">
<polygon fill="white" stroke="#666666" points="531,-56 443,-56 443,-37 531,-37 531,-56"/>
<text text-anchor="middle" x="487" y="-44" font-family="Helvetica,sans-Serif" font-size="10.00">transform_::Py</text>
</a>
</g>
</g>
<!-- Node6&#45;&gt;Node8 -->
<g id="edge8_Node000006_Node000008" class="edge">
<title>Node6&#45;&gt;Node8</title>
<g id="a_edge8_Node000006_Node000008"><a xlink:title=" ">
<path fill="none" stroke="#63b8ff" d="M407.18,-46.5C415.58,-46.5 424.24,-46.5 432.61,-46.5"/>
<polygon fill="#63b8ff" stroke="#63b8ff" points="432.63,-50 442.63,-46.5 432.63,-43 432.63,-50"/>
</a>
</g>
</g>
<!-- Node9 -->
<g id="Node000009" class="node">
<title>Node9</title>
<g id="a_Node000009"><a xlink:href="namespacetransform__.html#a28be39b0041a97b1667ccd1ff301f784" target="_top" xlink:title="Computes the z&#45;component of momentum (Pz).">
<polygon fill="white" stroke="#666666" points="530.5,-19 443.5,-19 443.5,0 530.5,0 530.5,-19"/>
<text text-anchor="middle" x="487" y="-7" font-family="Helvetica,sans-Serif" font-size="10.00">transform_::Pz</text>
</a>
</g>
</g>
<!-- Node6&#45;&gt;Node9 -->
<g id="edge9_Node000006_Node000009" class="edge">
<title>Node6&#45;&gt;Node9</title>
<g id="a_edge9_Node000006_Node000009"><a xlink:title=" ">
<path fill="none" stroke="#63b8ff" d="M386.88,-36.97C403.41,-32.39 423.44,-26.84 441.15,-21.93"/>
<polygon fill="#63b8ff" stroke="#63b8ff" points="442.57,-25.17 451.27,-19.12 440.7,-18.42 442.57,-25.17"/>
</a>
</g>
</g>
</g>
</svg>
