<?xml version="1.0" encoding="UTF-8" standalone="no"?>
<!DOCTYPE svg PUBLIC "-//W3C//DTD SVG 1.1//EN"
 "http://www.w3.org/Graphics/SVG/1.1/DTD/svg11.dtd">
<!-- Generated by graphviz version 2.43.0 (0)
 -->
<!-- Title: physics_::M2 Pages: 1 -->
<svg width="876pt" height="313pt"
 viewBox="0.00 0.00 876.00 312.50" xmlns="http://www.w3.org/2000/svg" xmlns:xlink="http://www.w3.org/1999/xlink">
<g id="graph0" class="graph" transform="scale(1 1) rotate(0) translate(4 308.5)">
<title>physics_::M2</title>
<!-- Node1 -->
<g id="Node000001" class="node">
<title>Node1</title>
<g id="a_Node000001"><a xlink:title="Computes the square of the invariant mass.">
<polygon fill="#999999" stroke="#666666" points="868,-144.5 788,-144.5 788,-125.5 868,-125.5 868,-144.5"/>
<text text-anchor="middle" x="828" y="-132.5" font-family="Helvetica,sans-Serif" font-size="10.00">physics_::M2</text>
</a>
</g>
</g>
<!-- Node1&#45;&gt;Node1 -->
<g id="edge15_Node000001_Node000001" class="edge">
<title>Node1&#45;&gt;Node1</title>
<g id="a_edge15_Node000001_Node000001"><a xlink:title=" ">
<path fill="none" stroke="#63b8ff" d="M854.04,-153.69C852.62,-158.7 843.94,-162.5 828,-162.5 803.12,-162.5 795.92,-153.23 806.42,-144.58"/>
<polygon fill="#63b8ff" stroke="#63b8ff" points="857.12,-152.02 849.58,-144.58 850.84,-155.1 857.12,-152.02"/>
</a>
</g>
</g>
<!-- Node2 -->
<g id="Node000002" class="node">
<title>Node2</title>
<g id="a_Node000002"><a xlink:href="namespacenusol__.html#a526c0e4a558a1201624ea0b639bc747c" target="_top" xlink:title=" ">
<polygon fill="white" stroke="#666666" points="743,-248.5 633,-248.5 633,-229.5 743,-229.5 743,-248.5"/>
<text text-anchor="middle" x="688" y="-236.5" font-family="Helvetica,sans-Serif" font-size="10.00">nusol_::BaseMatrix</text>
</a>
</g>
</g>
<!-- Node1&#45;&gt;Node2 -->
<g id="edge1_Node000001_Node000002" class="edge">
<title>Node1&#45;&gt;Node2</title>
<g id="a_edge1_Node000001_Node000002"><a xlink:title=" ">
<path fill="none" stroke="#63b8ff" d="M815.77,-153.23C802.77,-172.81 779.59,-203.47 752,-221 746.62,-224.42 740.58,-227.2 734.43,-229.46"/>
<polygon fill="#63b8ff" stroke="#63b8ff" points="818.84,-154.92 821.3,-144.61 812.95,-151.14 818.84,-154.92"/>
</a>
</g>
</g>
<!-- Node15 -->
<g id="Node000015" class="node">
<title>Node15</title>
<g id="a_Node000015"><a xlink:href="namespacephysics__.html#a87db235f0b9b1b2a8c3696b4b7d4c009" target="_top" xlink:title="Computes the invariant mass from a momentum tensor.">
<polygon fill="white" stroke="#666666" points="725,-211.5 651,-211.5 651,-192.5 725,-192.5 725,-211.5"/>
<text text-anchor="middle" x="688" y="-199.5" font-family="Helvetica,sans-Serif" font-size="10.00">physics_::M</text>
</a>
</g>
</g>
<!-- Node1&#45;&gt;Node15 -->
<g id="edge14_Node000001_Node000015" class="edge">
<title>Node1&#45;&gt;Node15</title>
<g id="a_edge14_Node000001_Node000015"><a xlink:title=" ">
<path fill="none" stroke="#63b8ff" d="M806.07,-150.63C791.51,-160.94 771.31,-174.12 752,-183 743.59,-186.87 734.2,-190.19 725.28,-192.92"/>
<polygon fill="#63b8ff" stroke="#63b8ff" points="808.29,-153.34 814.35,-144.65 804.2,-147.67 808.29,-153.34"/>
</a>
</g>
</g>
<!-- Node16 -->
<g id="Node000016" class="node">
<title>Node16</title>
<g id="a_Node000016"><a xlink:href="namespacepyc_1_1physics_1_1cartesian_1_1combined.html#a2288acf9d44eb7c8f537dc732381967d" target="_top" xlink:title=" ">
<polygon fill="white" stroke="#666666" points="752,-174 624,-174 624,-144 752,-144 752,-174"/>
<text text-anchor="start" x="632" y="-162" font-family="Helvetica,sans-Serif" font-size="10.00">pyc::physics::cartesian</text>
<text text-anchor="middle" x="688" y="-151" font-family="Helvetica,sans-Serif" font-size="10.00">::combined::M2</text>
</a>
</g>
</g>
<!-- Node1&#45;&gt;Node16 -->
<g id="edge16_Node000001_Node000016" class="edge">
<title>Node1&#45;&gt;Node16</title>
<g id="a_edge16_Node000001_Node000016"><a xlink:title=" ">
<path fill="none" stroke="#63b8ff" d="M777.86,-143.55C769.49,-145 760.7,-146.53 752.03,-148.04"/>
<polygon fill="#63b8ff" stroke="#63b8ff" points="778.57,-146.97 787.82,-141.81 777.37,-140.08 778.57,-146.97"/>
</a>
</g>
</g>
<!-- Node17 -->
<g id="Node000017" class="node">
<title>Node17</title>
<g id="a_Node000017"><a xlink:href="namespacepyc_1_1physics_1_1polar_1_1combined.html#aa79557e9e58fc548b41444667ebb1b62" target="_top" xlink:title=" ">
<polygon fill="white" stroke="#666666" points="741.5,-126 634.5,-126 634.5,-96 741.5,-96 741.5,-126"/>
<text text-anchor="start" x="642.5" y="-114" font-family="Helvetica,sans-Serif" font-size="10.00">pyc::physics::polar</text>
<text text-anchor="middle" x="688" y="-103" font-family="Helvetica,sans-Serif" font-size="10.00">::combined::M2</text>
</a>
</g>
</g>
<!-- Node1&#45;&gt;Node17 -->
<g id="edge17_Node000001_Node000017" class="edge">
<title>Node1&#45;&gt;Node17</title>
<g id="a_edge17_Node000001_Node000017"><a xlink:title=" ">
<path fill="none" stroke="#63b8ff" d="M777.79,-126.44C766.08,-124.4 753.53,-122.22 741.68,-120.16"/>
<polygon fill="#63b8ff" stroke="#63b8ff" points="777.37,-129.92 787.82,-128.19 778.57,-123.03 777.37,-129.92"/>
</a>
</g>
</g>
<!-- Node18 -->
<g id="Node000018" class="node">
<title>Node18</title>
<g id="a_Node000018"><a xlink:href="namespacepyc_1_1physics_1_1polar_1_1separate.html#a5166df2f83d8ea10350011307d165ed2" target="_top" xlink:title=" ">
<polygon fill="white" stroke="#666666" points="741.5,-78 634.5,-78 634.5,-48 741.5,-48 741.5,-78"/>
<text text-anchor="start" x="642.5" y="-66" font-family="Helvetica,sans-Serif" font-size="10.00">pyc::physics::polar</text>
<text text-anchor="middle" x="688" y="-55" font-family="Helvetica,sans-Serif" font-size="10.00">::separate::M2</text>
</a>
</g>
</g>
<!-- Node1&#45;&gt;Node18 -->
<g id="edge18_Node000001_Node000018" class="edge">
<title>Node1&#45;&gt;Node18</title>
<g id="a_edge18_Node000001_Node000018"><a xlink:title=" ">
<path fill="none" stroke="#63b8ff" d="M805.59,-119.62C790.96,-109.54 770.87,-96.5 752,-87 745.73,-83.84 738.94,-80.84 732.21,-78.11"/>
<polygon fill="#63b8ff" stroke="#63b8ff" points="803.74,-122.6 813.94,-125.47 807.76,-116.87 803.74,-122.6"/>
</a>
</g>
</g>
<!-- Node19 -->
<g id="Node000019" class="node">
<title>Node19</title>
<g id="a_Node000019"><a xlink:href="namespacepyc_1_1physics_1_1cartesian_1_1separate.html#a822811be563d9cfe703ffc1c1688d343" target="_top" xlink:title=" ">
<polygon fill="white" stroke="#666666" points="752,-30 624,-30 624,0 752,0 752,-30"/>
<text text-anchor="start" x="632" y="-18" font-family="Helvetica,sans-Serif" font-size="10.00">pyc::physics::cartesian</text>
<text text-anchor="middle" x="688" y="-7" font-family="Helvetica,sans-Serif" font-size="10.00">::separate::M2</text>
</a>
</g>
</g>
<!-- Node1&#45;&gt;Node19 -->
<g id="edge19_Node000001_Node000019" class="edge">
<title>Node1&#45;&gt;Node19</title>
<g id="a_edge19_Node000001_Node000019"><a xlink:title=" ">
<path fill="none" stroke="#63b8ff" d="M816.89,-116.67C804.26,-95.31 780.78,-60.24 752,-39 747.39,-35.59 742.23,-32.61 736.91,-30.02"/>
<polygon fill="#63b8ff" stroke="#63b8ff" points="813.9,-118.48 821.91,-125.42 819.97,-115 813.9,-118.48"/>
</a>
</g>
</g>
<!-- Node3 -->
<g id="Node000003" class="node">
<title>Node3</title>
<g id="a_Node000003"><a xlink:href="nusol_2tensor_2nusol_8cxx.html#ab477f38adf15df486af1a3311204aa26" target="_top" xlink:title=" ">
<polygon fill="white" stroke="#666666" points="544.5,-304.5 503.5,-304.5 503.5,-285.5 544.5,-285.5 544.5,-304.5"/>
<text text-anchor="middle" x="524" y="-292.5" font-family="Helvetica,sans-Serif" font-size="10.00">_xNu</text>
</a>
</g>
</g>
<!-- Node2&#45;&gt;Node3 -->
<g id="edge2_Node000002_Node000003" class="edge">
<title>Node2&#45;&gt;Node3</title>
<g id="a_edge2_Node000002_Node000003"><a xlink:title=" ">
<path fill="none" stroke="#63b8ff" d="M654.14,-252.45C635,-260.07 610.3,-269.55 588,-277 573.65,-281.79 557.21,-286.46 544.72,-289.85"/>
<polygon fill="#63b8ff" stroke="#63b8ff" points="655.63,-255.62 663.61,-248.65 653.02,-249.13 655.63,-255.62"/>
</a>
</g>
</g>
<!-- Node6 -->
<g id="Node000006" class="node">
<title>Node6</title>
<g id="a_Node000006"><a xlink:href="namespacepyc_1_1nusol.html#a66ad18c125df47cd81fd3043ab4cc2f3" target="_top" xlink:title=" ">
<polygon fill="white" stroke="#666666" points="588,-267.5 460,-267.5 460,-248.5 588,-248.5 588,-267.5"/>
<text text-anchor="middle" x="524" y="-255.5" font-family="Helvetica,sans-Serif" font-size="10.00">pyc::nusol::BaseMatrix</text>
</a>
</g>
</g>
<!-- Node2&#45;&gt;Node6 -->
<g id="edge5_Node000002_Node000006" class="edge">
<title>Node2&#45;&gt;Node6</title>
<g id="a_edge5_Node000002_Node000006"><a xlink:title=" ">
<path fill="none" stroke="#63b8ff" d="M622.41,-246.58C611.15,-247.9 599.44,-249.27 588.21,-250.59"/>
<polygon fill="#63b8ff" stroke="#63b8ff" points="623.08,-250.02 632.61,-245.38 622.27,-243.07 623.08,-250.02"/>
</a>
</g>
</g>
<!-- Node7 -->
<g id="Node000007" class="node">
<title>Node7</title>
<g id="a_Node000007"><a xlink:href="namespacenusol__.html#a3aacd3a83799d6a470d6188008fd069a" target="_top" xlink:title=" ">
<polygon fill="white" stroke="#666666" points="565.5,-230.5 482.5,-230.5 482.5,-211.5 565.5,-211.5 565.5,-230.5"/>
<text text-anchor="middle" x="524" y="-218.5" font-family="Helvetica,sans-Serif" font-size="10.00">nusol_::Hperp</text>
</a>
</g>
</g>
<!-- Node2&#45;&gt;Node7 -->
<g id="edge6_Node000002_Node000007" class="edge">
<title>Node2&#45;&gt;Node7</title>
<g id="a_edge6_Node000002_Node000007"><a xlink:title=" ">
<path fill="none" stroke="#63b8ff" d="M622.43,-231.83C603.28,-229.7 582.85,-227.43 565.67,-225.52"/>
<polygon fill="#63b8ff" stroke="#63b8ff" points="622.28,-235.33 632.61,-232.96 623.05,-228.37 622.28,-235.33"/>
</a>
</g>
</g>
<!-- Node8 -->
<g id="Node000008" class="node">
<title>Node8</title>
<g id="a_Node000008"><a xlink:href="namespacenusol__.html#ac849ef3564c5ac968727dce36494fd0a" target="_top" xlink:title=" ">
<polygon fill="white" stroke="#666666" points="564.5,-193.5 483.5,-193.5 483.5,-174.5 564.5,-174.5 564.5,-193.5"/>
<text text-anchor="middle" x="524" y="-181.5" font-family="Helvetica,sans-Serif" font-size="10.00">nusol_::NuNu</text>
</a>
</g>
</g>
<!-- Node2&#45;&gt;Node8 -->
<g id="edge7_Node000002_Node000008" class="edge">
<title>Node2&#45;&gt;Node8</title>
<g id="a_edge7_Node000002_Node000008"><a xlink:title=" ">
<path fill="none" stroke="#63b8ff" d="M639.72,-226.53C634.37,-224.81 629.04,-222.96 624,-221 607.33,-214.51 604.62,-209.61 588,-203 579.19,-199.5 569.47,-196.27 560.35,-193.51"/>
<polygon fill="#63b8ff" stroke="#63b8ff" points="638.72,-229.88 649.31,-229.47 640.78,-223.19 638.72,-229.88"/>
</a>
</g>
</g>
<!-- Node4 -->
<g id="Node000004" class="node">
<title>Node4</title>
<g id="a_Node000004"><a xlink:href="namespacenusol__.html#a6f05175e14627bd3c34ffa61686b7da4" target="_top" xlink:title=" ">
<polygon fill="white" stroke="#666666" points="408.5,-304.5 340.5,-304.5 340.5,-285.5 408.5,-285.5 408.5,-304.5"/>
<text text-anchor="middle" x="374.5" y="-292.5" font-family="Helvetica,sans-Serif" font-size="10.00">nusol_::Nu</text>
</a>
</g>
</g>
<!-- Node3&#45;&gt;Node4 -->
<g id="edge3_Node000003_Node000004" class="edge">
<title>Node3&#45;&gt;Node4</title>
<g id="a_edge3_Node000003_Node000004"><a xlink:title=" ">
<path fill="none" stroke="#63b8ff" d="M493.28,-295C468.81,-295 434.13,-295 408.74,-295"/>
<polygon fill="#63b8ff" stroke="#63b8ff" points="493.41,-298.5 503.41,-295 493.41,-291.5 493.41,-298.5"/>
</a>
</g>
</g>
<!-- Node5 -->
<g id="Node000005" class="node">
<title>Node5</title>
<g id="a_Node000005"><a xlink:href="namespacepyc_1_1nusol.html#a991cfa801400211ccf412bd1a85b7b69" target="_top" xlink:title=" ">
<polygon fill="white" stroke="#666666" points="261.5,-304.5 175.5,-304.5 175.5,-285.5 261.5,-285.5 261.5,-304.5"/>
<text text-anchor="middle" x="218.5" y="-292.5" font-family="Helvetica,sans-Serif" font-size="10.00">pyc::nusol::Nu</text>
</a>
</g>
</g>
<!-- Node4&#45;&gt;Node5 -->
<g id="edge4_Node000004_Node000005" class="edge">
<title>Node4&#45;&gt;Node5</title>
<g id="a_edge4_Node000004_Node000005"><a xlink:title=" ">
<path fill="none" stroke="#63b8ff" d="M330.3,-295C308.8,-295 282.92,-295 261.58,-295"/>
<polygon fill="#63b8ff" stroke="#63b8ff" points="330.46,-298.5 340.46,-295 330.46,-291.5 330.46,-298.5"/>
</a>
</g>
</g>
<!-- Node9 -->
<g id="Node000009" class="node">
<title>Node9</title>
<g id="a_Node000009"><a xlink:href="namespacepyc_1_1nusol.html#af7bb509b120cb3314695cecd70bc5c11" target="_top" xlink:title=" ">
<polygon fill="white" stroke="#666666" points="424,-212.5 325,-212.5 325,-193.5 424,-193.5 424,-212.5"/>
<text text-anchor="middle" x="374.5" y="-200.5" font-family="Helvetica,sans-Serif" font-size="10.00">pyc::nusol::NuNu</text>
</a>
</g>
</g>
<!-- Node8&#45;&gt;Node9 -->
<g id="edge8_Node000008_Node000009" class="edge">
<title>Node8&#45;&gt;Node9</title>
<g id="a_edge8_Node000008_Node000009"><a xlink:title=" ">
<path fill="none" stroke="#63b8ff" d="M473.32,-190.4C457.44,-192.45 439.89,-194.71 424.09,-196.74"/>
<polygon fill="#63b8ff" stroke="#63b8ff" points="474,-193.84 483.47,-189.09 473.11,-186.9 474,-193.84"/>
</a>
</g>
</g>
<!-- Node10 -->
<g id="Node000010" class="node">
<title>Node10</title>
<g id="a_Node000010"><a xlink:href="namespacepyc_1_1nusol.html#a9650527ae538fa27121bedfb79a1fbe6" target="_top" xlink:title=" ">
<polygon fill="white" stroke="#666666" points="424,-175.5 325,-175.5 325,-156.5 424,-156.5 424,-175.5"/>
<text text-anchor="middle" x="374.5" y="-163.5" font-family="Helvetica,sans-Serif" font-size="10.00">pyc::nusol::NuNu</text>
</a>
</g>
</g>
<!-- Node8&#45;&gt;Node10 -->
<g id="edge9_Node000008_Node000010" class="edge">
<title>Node8&#45;&gt;Node10</title>
<g id="a_edge9_Node000008_Node000010"><a xlink:title=" ">
<path fill="none" stroke="#63b8ff" d="M473.32,-177.94C457.44,-176 439.89,-173.86 424.09,-171.93"/>
<polygon fill="#63b8ff" stroke="#63b8ff" points="473.12,-181.44 483.47,-179.18 473.97,-174.49 473.12,-181.44"/>
</a>
</g>
</g>
<!-- Node11 -->
<g id="Node000011" class="node">
<title>Node11</title>
<g id="a_Node000011"><a xlink:href="namespacepyc_1_1nusol.html#aaaf252028ed63bf2d561dffcd76916e2" target="_top" xlink:title=" ">
<polygon fill="white" stroke="#666666" points="268,-212.5 169,-212.5 169,-193.5 268,-193.5 268,-212.5"/>
<text text-anchor="middle" x="218.5" y="-200.5" font-family="Helvetica,sans-Serif" font-size="10.00">pyc::nusol::NuNu</text>
</a>
</g>
</g>
<!-- Node10&#45;&gt;Node11 -->
<g id="edge10_Node000010_Node000011" class="edge">
<title>Node10&#45;&gt;Node11</title>
<g id="a_edge10_Node000010_Node000011"><a xlink:title=" ">
<path fill="none" stroke="#63b8ff" d="M323.87,-177.93C302.97,-182.94 278.99,-188.71 259.29,-193.44"/>
<polygon fill="#63b8ff" stroke="#63b8ff" points="324.94,-181.27 333.84,-175.53 323.3,-174.46 324.94,-181.27"/>
</a>
</g>
</g>
<!-- Node12 -->
<g id="Node000012" class="node">
<title>Node12</title>
<g id="a_Node000012"><a xlink:href="namespacepyc_1_1nusol.html#af88804c21a54435a41be99cbc03faf30" target="_top" xlink:title=" ">
<polygon fill="white" stroke="#666666" points="268,-175.5 169,-175.5 169,-156.5 268,-156.5 268,-175.5"/>
<text text-anchor="middle" x="218.5" y="-163.5" font-family="Helvetica,sans-Serif" font-size="10.00">pyc::nusol::NuNu</text>
</a>
</g>
</g>
<!-- Node10&#45;&gt;Node12 -->
<g id="edge11_Node000010_Node000012" class="edge">
<title>Node10&#45;&gt;Node12</title>
<g id="a_edge11_Node000010_Node000012"><a xlink:title=" ">
<path fill="none" stroke="#63b8ff" d="M314.39,-166C299.12,-166 282.85,-166 268.17,-166"/>
<polygon fill="#63b8ff" stroke="#63b8ff" points="314.77,-169.5 324.77,-166 314.77,-162.5 314.77,-169.5"/>
</a>
</g>
</g>
<!-- Node13 -->
<g id="Node000013" class="node">
<title>Node13</title>
<g id="a_Node000013"><a xlink:href="classvalidation.html#aa436b348c281a3d676910cf7b7d575eb" target="_top" xlink:title=" ">
<polygon fill="white" stroke="#666666" points="289,-138.5 148,-138.5 148,-119.5 289,-119.5 289,-138.5"/>
<text text-anchor="middle" x="218.5" y="-126.5" font-family="Helvetica,sans-Serif" font-size="10.00">validation::reconstruction</text>
</a>
</g>
</g>
<!-- Node10&#45;&gt;Node13 -->
<g id="edge12_Node000010_Node000013" class="edge">
<title>Node10&#45;&gt;Node13</title>
<g id="a_edge12_Node000010_Node000013"><a xlink:title=" ">
<path fill="none" stroke="#63b8ff" d="M323.87,-154.07C302.97,-149.06 278.99,-143.29 259.29,-138.56"/>
<polygon fill="#63b8ff" stroke="#63b8ff" points="323.3,-157.54 333.84,-156.47 324.94,-150.73 323.3,-157.54"/>
</a>
</g>
</g>
<!-- Node14 -->
<g id="Node000014" class="node">
<title>Node14</title>
<g id="a_Node000014"><a xlink:href="classvalidation.html#af388ba0e867008a75602581fdc2ed0f3" target="_top" xlink:title="Alternative selection strategy method.">
<polygon fill="white" stroke="#666666" points="112,-138.5 0,-138.5 0,-119.5 112,-119.5 112,-138.5"/>
<text text-anchor="middle" x="56" y="-126.5" font-family="Helvetica,sans-Serif" font-size="10.00">validation::strategy</text>
</a>
</g>
</g>
<!-- Node13&#45;&gt;Node14 -->
<g id="edge13_Node000013_Node000014" class="edge">
<title>Node13&#45;&gt;Node14</title>
<g id="a_edge13_Node000013_Node000014"><a xlink:title=" ">
<path fill="none" stroke="#63b8ff" d="M137.54,-129C128.98,-129 120.41,-129 112.23,-129"/>
<polygon fill="#63b8ff" stroke="#63b8ff" points="137.57,-132.5 147.57,-129 137.57,-125.5 137.57,-132.5"/>
</a>
</g>
</g>
</g>
</svg>
