<?xml version="1.0" encoding="UTF-8" standalone="no"?>
<!DOCTYPE svg PUBLIC "-//W3C//DTD SVG 1.1//EN"
 "http://www.w3.org/Graphics/SVG/1.1/DTD/svg11.dtd">
<!-- Generated by graphviz version 2.43.0 (0)
 -->
<!-- Title: nusol_::BaseMatrix Pages: 1 -->
<svg width="366pt" height="397pt"
 viewBox="0.00 0.00 366.00 397.00" xmlns="http://www.w3.org/2000/svg" xmlns:xlink="http://www.w3.org/1999/xlink">

<svg id="main" version="1.1" xmlns="http://www.w3.org/2000/svg" xmlns:xlink="http://www.w3.org/1999/xlink" xml:space="preserve" onload="init(evt)">
<style type="text/css"><![CDATA[
.node, .edge {opacity: 0.7;}
.node.selected, .edge.selected {opacity: 1;}
.edge:hover path { stroke: red; }
.edge:hover polygon { stroke: red; fill: red; }
]]></style>
<script type="application/ecmascript" xlink:href="svg.min.js"/>
<svg id="graph" class="graph">
<g id="graph0" class="graph" transform="scale(1 1) rotate(0) translate(4 393)">
<title>nusol_::BaseMatrix</title>
<!-- Node1 -->
<g id="Node000001" class="node">
<title>Node1</title>
<g id="a_Node000001"><a xlink:title=" ">
<polygon fill="#999999" stroke="#666666" points="110,-187 0,-187 0,-168 110,-168 110,-187"/>
<text text-anchor="middle" x="55" y="-175" font-family="Helvetica,sans-Serif" font-size="10.00">nusol_::BaseMatrix</text>
</a>
</g>
</g>
<!-- Node2 -->
<g id="Node000002" class="node">
<title>Node2</title>
<g id="a_Node000002"><a xlink:href="nusol_2tensor_2nusol_8cxx.html#ac73ce1484f270adbb1791bd876e80dfa" target="_top" xlink:title=" ">
<polygon fill="white" stroke="#666666" points="223,-389 189,-389 189,-370 223,-370 223,-389"/>
<text text-anchor="middle" x="206" y="-377" font-family="Helvetica,sans-Serif" font-size="10.00">_x0</text>
</a>
</g>
</g>
<!-- Node1&#45;&gt;Node2 -->
<g id="edge1_Node000001_Node000002" class="edge">
<title>Node1&#45;&gt;Node2</title>
<g id="a_edge1_Node000001_Node000002"><a xlink:title=" ">
<path fill="none" stroke="#63b8ff" d="M57.89,-187.17C64.33,-217.61 88.36,-312.36 146,-361.5 155.14,-369.29 167.6,-373.71 178.71,-376.22"/>
<polygon fill="#63b8ff" stroke="#63b8ff" points="178.33,-379.71 188.8,-378.08 179.6,-372.82 178.33,-379.71"/>
</a>
</g>
</g>
<!-- Node3 -->
<g id="Node000003" class="node">
<title>Node3</title>
<g id="a_Node000003"><a xlink:href="namespacephysics__.html#a3123f743b9c22850e7346d5f56a4441b" target="_top" xlink:title="Computes the beta factor.">
<polygon fill="white" stroke="#666666" points="249.5,-334 162.5,-334 162.5,-315 249.5,-315 249.5,-334"/>
<text text-anchor="middle" x="206" y="-322" font-family="Helvetica,sans-Serif" font-size="10.00">physics_::Beta</text>
</a>
</g>
</g>
<!-- Node1&#45;&gt;Node3 -->
<g id="edge2_Node000001_Node000003" class="edge">
<title>Node1&#45;&gt;Node3</title>
<g id="a_edge2_Node000001_Node000003"><a xlink:title=" ">
<path fill="none" stroke="#63b8ff" d="M60.06,-187.25C70.55,-211.27 100.95,-273.73 146,-306.5 148.24,-308.13 150.62,-309.61 153.11,-310.96"/>
<polygon fill="#63b8ff" stroke="#63b8ff" points="151.88,-314.25 162.42,-315.29 154.83,-307.9 151.88,-314.25"/>
</a>
</g>
</g>
<!-- Node5 -->
<g id="Node000005" class="node">
<title>Node5</title>
<g id="a_Node000005"><a xlink:href="namespacephysics__.html#aace12d6d7317cd102e5059781d724151" target="_top" xlink:title="Computes the square of the beta factor.">
<polygon fill="white" stroke="#666666" points="252.5,-279 159.5,-279 159.5,-260 252.5,-260 252.5,-279"/>
<text text-anchor="middle" x="206" y="-267" font-family="Helvetica,sans-Serif" font-size="10.00">physics_::Beta2</text>
</a>
</g>
</g>
<!-- Node1&#45;&gt;Node5 -->
<g id="edge5_Node000001_Node000005" class="edge">
<title>Node1&#45;&gt;Node5</title>
<g id="a_edge5_Node000001_Node000005"><a xlink:title=" ">
<path fill="none" stroke="#63b8ff" d="M65.07,-187.09C80.36,-202.71 112.84,-233.72 146,-251.5 149.31,-253.27 152.82,-254.9 156.41,-256.38"/>
<polygon fill="#63b8ff" stroke="#63b8ff" points="155.44,-259.76 166.04,-259.99 157.9,-253.21 155.44,-259.76"/>
</a>
</g>
</g>
<!-- Node6 -->
<g id="Node000006" class="node">
<title>Node6</title>
<g id="a_Node000006"><a xlink:href="namespaceoperators__.html#af012532b8e034b7d6cb733360e14f8d7" target="_top" xlink:title="Computes the cosine of the angle between two vectors.">
<polygon fill="white" stroke="#666666" points="266,-242 146,-242 146,-223 266,-223 266,-242"/>
<text text-anchor="middle" x="206" y="-230" font-family="Helvetica,sans-Serif" font-size="10.00">operators_::CosTheta</text>
</a>
</g>
</g>
<!-- Node1&#45;&gt;Node6 -->
<g id="edge8_Node000001_Node000006" class="edge">
<title>Node1&#45;&gt;Node6</title>
<g id="a_edge8_Node000001_Node000006"><a xlink:title=" ">
<path fill="none" stroke="#63b8ff" d="M77.6,-187.05C95.7,-194.89 122.3,-206.03 146,-214.5 151.17,-216.35 156.63,-218.17 162.07,-219.92"/>
<polygon fill="#63b8ff" stroke="#63b8ff" points="161.15,-223.3 171.74,-222.95 163.25,-216.62 161.15,-223.3"/>
</a>
</g>
</g>
<!-- Node7 -->
<g id="Node000007" class="node">
<title>Node7</title>
<g id="a_Node000007"><a xlink:href="nusol_2tensor_2nusol_8cxx.html#a2df29a032d35ff73a0646b3c6f522ff1" target="_top" xlink:title=" ">
<polygon fill="white" stroke="#666666" points="241.5,-95 170.5,-95 170.5,-76 241.5,-76 241.5,-95"/>
<text text-anchor="middle" x="206" y="-83" font-family="Helvetica,sans-Serif" font-size="10.00">GetMasses</text>
</a>
</g>
</g>
<!-- Node1&#45;&gt;Node7 -->
<g id="edge9_Node000001_Node000007" class="edge">
<title>Node1&#45;&gt;Node7</title>
<g id="a_edge9_Node000001_Node000007"><a xlink:title=" ">
<path fill="none" stroke="#63b8ff" d="M65.63,-167.61C81.2,-152.13 113.45,-122.13 146,-104.5 150.61,-102 155.61,-99.76 160.67,-97.78"/>
<polygon fill="#63b8ff" stroke="#63b8ff" points="162.19,-100.96 170.42,-94.28 159.82,-94.37 162.19,-100.96"/>
</a>
</g>
</g>
<!-- Node8 -->
<g id="Node000008" class="node">
<title>Node8</title>
<g id="a_Node000008"><a xlink:href="utils_8cxx.html#a1652e53abd2299dd0f10e093948e4fa3" target="_top" xlink:title=" ">
<polygon fill="white" stroke="#666666" points="358,-76 302,-76 302,-57 358,-57 358,-76"/>
<text text-anchor="middle" x="330" y="-64" font-family="Helvetica,sans-Serif" font-size="10.00">MakeOp</text>
</a>
</g>
</g>
<!-- Node1&#45;&gt;Node8 -->
<g id="edge14_Node000001_Node000008" class="edge">
<title>Node1&#45;&gt;Node8</title>
<g id="a_edge14_Node000001_Node000008"><a xlink:title=" ">
<path fill="none" stroke="#63b8ff" d="M60.13,-167.98C70.58,-145.27 100.54,-88.17 146,-66.5 192.4,-44.39 253.24,-50.22 291.74,-57.51"/>
<polygon fill="#63b8ff" stroke="#63b8ff" points="291.48,-61.03 301.98,-59.59 292.87,-54.17 291.48,-61.03"/>
</a>
</g>
</g>
<!-- Node9 -->
<g id="Node000009" class="node">
<title>Node9</title>
<g id="a_Node000009"><a xlink:href="namespacephysics__.html#a7787594305d4a156c31be581401b0b0b" target="_top" xlink:title="Computes the square of the invariant mass.">
<polygon fill="white" stroke="#666666" points="246,-187 166,-187 166,-168 246,-168 246,-187"/>
<text text-anchor="middle" x="206" y="-175" font-family="Helvetica,sans-Serif" font-size="10.00">physics_::M2</text>
</a>
</g>
</g>
<!-- Node1&#45;&gt;Node9 -->
<g id="edge11_Node000001_Node000009" class="edge">
<title>Node1&#45;&gt;Node9</title>
<g id="a_edge11_Node000001_Node000009"><a xlink:title=" ">
<path fill="none" stroke="#63b8ff" d="M110.21,-177.5C125.08,-177.5 141.11,-177.5 155.68,-177.5"/>
<polygon fill="#63b8ff" stroke="#63b8ff" points="156,-181 166,-177.5 156,-174 156,-181"/>
</a>
</g>
</g>
<!-- Node10 -->
<g id="Node000010" class="node">
<title>Node10</title>
<g id="a_Node000010"><a xlink:href="namespacephysics__.html#ac12a78b1943348345b940e510930f420" target="_top" xlink:title="Computes the momentum magnitude.">
<polygon fill="white" stroke="#666666" points="241.5,-132 170.5,-132 170.5,-113 241.5,-113 241.5,-132"/>
<text text-anchor="middle" x="206" y="-120" font-family="Helvetica,sans-Serif" font-size="10.00">physics_::P</text>
</a>
</g>
</g>
<!-- Node1&#45;&gt;Node10 -->
<g id="edge15_Node000001_Node000010" class="edge">
<title>Node1&#45;&gt;Node10</title>
<g id="a_edge15_Node000001_Node000010"><a xlink:title=" ">
<path fill="none" stroke="#63b8ff" d="M81.95,-167.92C106.24,-158.96 142.71,-145.49 169.64,-135.55"/>
<polygon fill="#63b8ff" stroke="#63b8ff" points="170.92,-138.81 179.09,-132.06 168.5,-132.24 170.92,-138.81"/>
</a>
</g>
</g>
<!-- Node11 -->
<g id="Node000011" class="node">
<title>Node11</title>
<g id="a_Node000011"><a xlink:href="namespaceoperators__.html#a0335a4a853f7cff5faa4bc7bc68e3a8a" target="_top" xlink:title="Computes the sine of the angle between two vectors.">
<polygon fill="white" stroke="#666666" points="264.5,-19 147.5,-19 147.5,0 264.5,0 264.5,-19"/>
<text text-anchor="middle" x="206" y="-7" font-family="Helvetica,sans-Serif" font-size="10.00">operators_::SinTheta</text>
</a>
</g>
</g>
<!-- Node1&#45;&gt;Node11 -->
<g id="edge18_Node000001_Node000011" class="edge">
<title>Node1&#45;&gt;Node11</title>
<g id="a_edge18_Node000001_Node000011"><a xlink:title=" ">
<path fill="none" stroke="#63b8ff" d="M59.64,-167.64C69.57,-142.01 99.52,-72.59 146,-33.5 150.66,-29.58 156.05,-26.23 161.64,-23.4"/>
<polygon fill="#63b8ff" stroke="#63b8ff" points="163.47,-26.41 171.13,-19.1 160.58,-20.04 163.47,-26.41"/>
</a>
</g>
</g>
<!-- Node3&#45;&gt;Node3 -->
<g id="edge3_Node000003_Node000003" class="edge">
<title>Node3&#45;&gt;Node3</title>
<g id="a_edge3_Node000003_Node000003"><a xlink:title=" ">
<path fill="none" stroke="#63b8ff" d="M187.2,-334.08C178.05,-342.73 184.32,-352 206,-352 219.55,-352 227.08,-348.38 228.59,-343.55"/>
<polygon fill="#63b8ff" stroke="#63b8ff" points="231.77,-342.07 224.8,-334.08 225.27,-344.67 231.77,-342.07"/>
</a>
</g>
</g>
<!-- Node4 -->
<g id="Node000004" class="node">
<title>Node4</title>
<g id="a_Node000004"><a xlink:href="utils_8cxx.html#a9c1cdc6384bce6bdc92ca917b3f656bf" target="_top" xlink:title=" ">
<polygon fill="white" stroke="#666666" points="355,-233 305,-233 305,-214 355,-214 355,-233"/>
<text text-anchor="middle" x="330" y="-221" font-family="Helvetica,sans-Serif" font-size="10.00">format</text>
</a>
</g>
</g>
<!-- Node3&#45;&gt;Node4 -->
<g id="edge4_Node000003_Node000004" class="edge">
<title>Node3&#45;&gt;Node4</title>
<g id="a_edge4_Node000003_Node000004"><a xlink:title=" ">
<path fill="none" stroke="#63b8ff" d="M249.76,-314.99C255.49,-312.72 261.08,-309.93 266,-306.5 290.14,-289.67 309.03,-260.72 319.61,-241.85"/>
<polygon fill="#63b8ff" stroke="#63b8ff" points="322.7,-243.48 324.36,-233.01 316.54,-240.16 322.7,-243.48"/>
</a>
</g>
</g>
<!-- Node5&#45;&gt;Node4 -->
<g id="edge7_Node000005_Node000004" class="edge">
<title>Node5&#45;&gt;Node4</title>
<g id="a_edge7_Node000005_Node000004"><a xlink:title=" ">
<path fill="none" stroke="#63b8ff" d="M240.93,-259.92C249.2,-257.38 257.97,-254.5 266,-251.5 277.25,-247.3 289.35,-242.1 299.92,-237.32"/>
<polygon fill="#63b8ff" stroke="#63b8ff" points="301.49,-240.44 309.11,-233.09 298.57,-234.08 301.49,-240.44"/>
</a>
</g>
</g>
<!-- Node5&#45;&gt;Node5 -->
<g id="edge6_Node000005_Node000005" class="edge">
<title>Node5&#45;&gt;Node5</title>
<g id="a_edge6_Node000005_Node000005"><a xlink:title=" ">
<path fill="none" stroke="#63b8ff" d="M187.2,-279.08C178.05,-287.73 184.32,-297 206,-297 219.55,-297 227.08,-293.38 228.59,-288.55"/>
<polygon fill="#63b8ff" stroke="#63b8ff" points="231.77,-287.07 224.8,-279.08 225.27,-289.67 231.77,-287.07"/>
</a>
</g>
</g>
<!-- Node7&#45;&gt;Node8 -->
<g id="edge10_Node000007_Node000008" class="edge">
<title>Node7&#45;&gt;Node8</title>
<g id="a_edge10_Node000007_Node000008"><a xlink:title=" ">
<path fill="none" stroke="#63b8ff" d="M241.63,-80.11C257.24,-77.68 275.69,-74.8 291.61,-72.32"/>
<polygon fill="#63b8ff" stroke="#63b8ff" points="292.3,-75.76 301.64,-70.76 291.23,-68.84 292.3,-75.76"/>
</a>
</g>
</g>
<!-- Node9&#45;&gt;Node4 -->
<g id="edge12_Node000009_Node000004" class="edge">
<title>Node9&#45;&gt;Node4</title>
<g id="a_edge12_Node000009_Node000004"><a xlink:title=" ">
<path fill="none" stroke="#63b8ff" d="M232.28,-187.03C250.63,-193.95 275.65,-203.38 295.64,-210.92"/>
<polygon fill="#63b8ff" stroke="#63b8ff" points="294.41,-214.2 305,-214.45 296.88,-207.65 294.41,-214.2"/>
</a>
</g>
</g>
<!-- Node9&#45;&gt;Node9 -->
<g id="edge13_Node000009_Node000009" class="edge">
<title>Node9&#45;&gt;Node9</title>
<g id="a_edge13_Node000009_Node000009"><a xlink:title=" ">
<path fill="none" stroke="#63b8ff" d="M187.2,-187.08C178.05,-195.73 184.32,-205 206,-205 219.55,-205 227.08,-201.38 228.59,-196.55"/>
<polygon fill="#63b8ff" stroke="#63b8ff" points="231.77,-195.07 224.8,-187.08 225.27,-197.67 231.77,-195.07"/>
</a>
</g>
</g>
<!-- Node10&#45;&gt;Node4 -->
<g id="edge16_Node000010_Node000004" class="edge">
<title>Node10&#45;&gt;Node4</title>
<g id="a_edge16_Node000010_Node000004"><a xlink:title=" ">
<path fill="none" stroke="#63b8ff" d="M224.5,-132.03C236.63,-138.97 252.9,-148.98 266,-159.5 283.72,-173.73 301.68,-192.5 313.87,-206.03"/>
<polygon fill="#63b8ff" stroke="#63b8ff" points="311.4,-208.53 320.66,-213.69 316.64,-203.89 311.4,-208.53"/>
</a>
</g>
</g>
<!-- Node10&#45;&gt;Node10 -->
<g id="edge17_Node000010_Node000010" class="edge">
<title>Node10&#45;&gt;Node10</title>
<g id="a_edge17_Node000010_Node000010"><a xlink:title=" ">
<path fill="none" stroke="#63b8ff" d="M187.2,-132.08C178.05,-140.73 184.32,-150 206,-150 219.55,-150 227.08,-146.38 228.59,-141.55"/>
<polygon fill="#63b8ff" stroke="#63b8ff" points="231.77,-140.07 224.8,-132.08 225.27,-142.67 231.77,-140.07"/>
</a>
</g>
</g>
</g>
</svg>
</svg>

<style type='text/css'>
<![CDATA[
[data-mouse-over-selected='false'] { opacity: 0.7; }
[data-mouse-over-selected='true']  { opacity: 1.0; }
]]>
</style>
<script type="application/ecmascript"><![CDATA[
document.addEventListener('DOMContentLoaded', (event) => {
  highlightEdges();
  highlightAdjacentNodes();
});
]]></script>
</svg>
