<?xml version="1.0" encoding="UTF-8" standalone="no"?>
<!DOCTYPE svg PUBLIC "-//W3C//DTD SVG 1.1//EN"
 "http://www.w3.org/Graphics/SVG/1.1/DTD/svg11.dtd">
<!-- Generated by graphviz version 2.43.0 (0)
 -->
<!-- Title: transform_::PtEtaPhi Pages: 1 -->
<svg width="694pt" height="275pt"
 viewBox="0.00 0.00 694.00 274.50" xmlns="http://www.w3.org/2000/svg" xmlns:xlink="http://www.w3.org/1999/xlink">
<g id="graph0" class="graph" transform="scale(1 1) rotate(0) translate(4 270.5)">
<title>transform_::PtEtaPhi</title>
<!-- Node1 -->
<g id="Node000001" class="node">
<title>Node1</title>
<g id="a_Node000001"><a xlink:title="Computes the transverse momentum (Pt), pseudorapidity (Eta), and azimuthal angle (Phi) from a momentu...">
<polygon fill="#999999" stroke="#666666" points="686,-123 570,-123 570,-104 686,-104 686,-123"/>
<text text-anchor="middle" x="628" y="-111" font-family="Helvetica,sans-Serif" font-size="10.00">transform_::PtEtaPhi</text>
</a>
</g>
</g>
<!-- Node1&#45;&gt;Node1 -->
<g id="edge7_Node000001_Node000001" class="edge">
<title>Node1&#45;&gt;Node1</title>
<g id="a_edge7_Node000001_Node000001"><a xlink:title=" ">
<path fill="none" stroke="#63b8ff" d="M658.61,-131.82C657.33,-137.01 647.13,-141 628,-141 598.85,-141 590.43,-131.73 602.72,-123.08"/>
<polygon fill="#63b8ff" stroke="#63b8ff" points="661.48,-129.79 653.28,-123.08 655.5,-133.44 661.48,-129.79"/>
</a>
</g>
</g>
<!-- Node2 -->
<g id="Node000002" class="node">
<title>Node2</title>
<g id="a_Node000002"><a xlink:href="namespacepyc_1_1physics_1_1cartesian_1_1combined.html#ada89277d3b7f28e15501e5c943516fe0" target="_top" xlink:title=" ">
<polygon fill="white" stroke="#666666" points="527,-248.5 399,-248.5 399,-218.5 527,-218.5 527,-248.5"/>
<text text-anchor="start" x="407" y="-236.5" font-family="Helvetica,sans-Serif" font-size="10.00">pyc::physics::cartesian</text>
<text text-anchor="middle" x="463" y="-225.5" font-family="Helvetica,sans-Serif" font-size="10.00">::combined::DeltaR</text>
</a>
</g>
</g>
<!-- Node1&#45;&gt;Node2 -->
<g id="edge1_Node000001_Node000002" class="edge">
<title>Node1&#45;&gt;Node2</title>
<g id="a_edge1_Node000001_Node000002"><a xlink:title=" ">
<path fill="none" stroke="#63b8ff" d="M614.02,-131.33C597.61,-152.7 567.42,-188.27 534,-209.5 528.69,-212.87 522.84,-215.84 516.86,-218.42"/>
<polygon fill="#63b8ff" stroke="#63b8ff" points="616.98,-133.22 620.18,-123.12 611.38,-129.02 616.98,-133.22"/>
</a>
</g>
</g>
<!-- Node5 -->
<g id="Node000005" class="node">
<title>Node5</title>
<g id="a_Node000005"><a xlink:href="namespacepyc_1_1physics_1_1cartesian_1_1separate.html#adbd2ec240755f1bf46b2c157f0325669" target="_top" xlink:title=" ">
<polygon fill="white" stroke="#666666" points="527,-200.5 399,-200.5 399,-170.5 527,-170.5 527,-200.5"/>
<text text-anchor="start" x="407" y="-188.5" font-family="Helvetica,sans-Serif" font-size="10.00">pyc::physics::cartesian</text>
<text text-anchor="middle" x="463" y="-177.5" font-family="Helvetica,sans-Serif" font-size="10.00">::separate::DeltaR</text>
</a>
</g>
</g>
<!-- Node1&#45;&gt;Node5 -->
<g id="edge6_Node000001_Node000005" class="edge">
<title>Node1&#45;&gt;Node5</title>
<g id="a_edge6_Node000001_Node000005"><a xlink:title=" ">
<path fill="none" stroke="#63b8ff" d="M601.3,-128.06C582.89,-138.16 557.34,-151.54 534,-161.5 526.67,-164.63 518.79,-167.65 511.05,-170.43"/>
<polygon fill="#63b8ff" stroke="#63b8ff" points="603.17,-131.02 610.22,-123.11 599.78,-124.9 603.17,-131.02"/>
</a>
</g>
</g>
<!-- Node6 -->
<g id="Node000006" class="node">
<title>Node6</title>
<g id="a_Node000006"><a xlink:href="namespacepyc_1_1transform_1_1combined.html#aef62cf52a35f4aef17136491672c9caa" target="_top" xlink:title=" ">
<polygon fill="white" stroke="#666666" points="534,-152.5 392,-152.5 392,-122.5 534,-122.5 534,-152.5"/>
<text text-anchor="start" x="400" y="-140.5" font-family="Helvetica,sans-Serif" font-size="10.00">pyc::transform::combined</text>
<text text-anchor="middle" x="463" y="-129.5" font-family="Helvetica,sans-Serif" font-size="10.00">::PtEtaPhi</text>
</a>
</g>
</g>
<!-- Node1&#45;&gt;Node6 -->
<g id="edge8_Node000001_Node000006" class="edge">
<title>Node1&#45;&gt;Node6</title>
<g id="a_edge8_Node000001_Node000006"><a xlink:title=" ">
<path fill="none" stroke="#63b8ff" d="M560.08,-123.35C551.53,-124.61 542.77,-125.9 534.17,-127.17"/>
<polygon fill="#63b8ff" stroke="#63b8ff" points="560.61,-126.81 569.99,-121.89 559.59,-119.89 560.61,-126.81"/>
</a>
</g>
</g>
<!-- Node7 -->
<g id="Node000007" class="node">
<title>Node7</title>
<g id="a_Node000007"><a xlink:href="namespacepyc_1_1transform_1_1separate.html#ad60db4e9ce774257d24304aa205418a8" target="_top" xlink:title=" ">
<polygon fill="white" stroke="#666666" points="531.5,-104.5 394.5,-104.5 394.5,-74.5 531.5,-74.5 531.5,-104.5"/>
<text text-anchor="start" x="402.5" y="-92.5" font-family="Helvetica,sans-Serif" font-size="10.00">pyc::transform::separate</text>
<text text-anchor="middle" x="463" y="-81.5" font-family="Helvetica,sans-Serif" font-size="10.00">::PtEtaPhi</text>
</a>
</g>
</g>
<!-- Node1&#45;&gt;Node7 -->
<g id="edge9_Node000001_Node000007" class="edge">
<title>Node1&#45;&gt;Node7</title>
<g id="a_edge9_Node000001_Node000007"><a xlink:title=" ">
<path fill="none" stroke="#63b8ff" d="M559.96,-103.63C550.6,-102.25 540.98,-100.83 531.61,-99.46"/>
<polygon fill="#63b8ff" stroke="#63b8ff" points="559.59,-107.11 569.99,-105.11 560.61,-100.19 559.59,-107.11"/>
</a>
</g>
</g>
<!-- Node8 -->
<g id="Node000008" class="node">
<title>Node8</title>
<g id="a_Node000008"><a xlink:href="namespacetransform__.html#a59a9589e3d78c302e6f52b2fcd5ceedb" target="_top" xlink:title="Computes the transverse momentum (Pt), pseudorapidity (Eta), azimuthal angle (Phi),...">
<polygon fill="white" stroke="#666666" points="524,-56 402,-56 402,-37 524,-37 524,-56"/>
<text text-anchor="middle" x="463" y="-44" font-family="Helvetica,sans-Serif" font-size="10.00">transform_::PtEtaPhiE</text>
</a>
</g>
</g>
<!-- Node1&#45;&gt;Node8 -->
<g id="edge10_Node000001_Node000008" class="edge">
<title>Node1&#45;&gt;Node8</title>
<g id="a_edge10_Node000001_Node000008"><a xlink:title=" ">
<path fill="none" stroke="#63b8ff" d="M602.16,-98.84C583.8,-88.47 557.94,-74.81 534,-65.5 524.73,-61.9 514.51,-58.71 504.82,-56.02"/>
<polygon fill="#63b8ff" stroke="#63b8ff" points="600.61,-101.99 611.02,-103.93 604.09,-95.92 600.61,-101.99"/>
</a>
</g>
</g>
<!-- Node11 -->
<g id="Node000011" class="node">
<title>Node11</title>
<g id="a_Node000011"><a xlink:href="namespacetransform__.html#a0564930def9a67318624f21aa822860e" target="_top" xlink:title="Computes the transverse momentum (Pt), pseudorapidity (Eta), azimuthal angle (Phi),...">
<polygon fill="white" stroke="#666666" points="524,-19 402,-19 402,0 524,0 524,-19"/>
<text text-anchor="middle" x="463" y="-7" font-family="Helvetica,sans-Serif" font-size="10.00">transform_::PtEtaPhiE</text>
</a>
</g>
</g>
<!-- Node1&#45;&gt;Node11 -->
<g id="edge13_Node000001_Node000011" class="edge">
<title>Node1&#45;&gt;Node11</title>
<g id="a_edge13_Node000001_Node000011"><a xlink:title=" ">
<path fill="none" stroke="#63b8ff" d="M612.51,-95.99C595.61,-76.68 565.89,-46.04 534,-28.5 527.05,-24.68 519.28,-21.59 511.52,-19.1"/>
<polygon fill="#63b8ff" stroke="#63b8ff" points="609.98,-98.41 619.14,-103.74 615.3,-93.86 609.98,-98.41"/>
</a>
</g>
</g>
<!-- Node3 -->
<g id="Node000003" class="node">
<title>Node3</title>
<g id="a_Node000003"><a xlink:href="classrecursivegraphneuralnetwork.html#a7c83216c5899b14dcc03ccf368209ee1" target="_top" xlink:title=" ">
<polygon fill="white" stroke="#666666" points="356,-248.5 196,-248.5 196,-218.5 356,-218.5 356,-248.5"/>
<text text-anchor="start" x="204" y="-236.5" font-family="Helvetica,sans-Serif" font-size="10.00">recursivegraphneuralnetwork</text>
<text text-anchor="middle" x="276" y="-225.5" font-family="Helvetica,sans-Serif" font-size="10.00">::message</text>
</a>
</g>
</g>
<!-- Node2&#45;&gt;Node3 -->
<g id="edge2_Node000002_Node000003" class="edge">
<title>Node2&#45;&gt;Node3</title>
<g id="a_edge2_Node000002_Node000003"><a xlink:title=" ">
<path fill="none" stroke="#63b8ff" d="M388.74,-233.5C378.06,-233.5 367.02,-233.5 356.22,-233.5"/>
<polygon fill="#63b8ff" stroke="#63b8ff" points="388.85,-237 398.85,-233.5 388.85,-230 388.85,-237"/>
</a>
</g>
</g>
<!-- Node4 -->
<g id="Node000004" class="node">
<title>Node4</title>
<g id="a_Node000004"><a xlink:href="classrecursivegraphneuralnetwork.html#a4b09bc8de8d9ecd0b4ff1ffa94deea98" target="_top" xlink:title="Virtual forward pass method for a single graph.">
<polygon fill="white" stroke="#666666" points="160,-248.5 0,-248.5 0,-218.5 160,-218.5 160,-248.5"/>
<text text-anchor="start" x="8" y="-236.5" font-family="Helvetica,sans-Serif" font-size="10.00">recursivegraphneuralnetwork</text>
<text text-anchor="middle" x="80" y="-225.5" font-family="Helvetica,sans-Serif" font-size="10.00">::forward</text>
</a>
</g>
</g>
<!-- Node3&#45;&gt;Node4 -->
<g id="edge3_Node000003_Node000004" class="edge">
<title>Node3&#45;&gt;Node4</title>
<g id="a_edge3_Node000003_Node000004"><a xlink:title=" ">
<path fill="none" stroke="#63b8ff" d="M185.56,-226.77C177.12,-226.73 168.59,-226.76 160.25,-226.85"/>
<polygon fill="#63b8ff" stroke="#63b8ff" points="185.78,-230.27 195.81,-226.85 185.84,-223.27 185.78,-230.27"/>
</a>
</g>
</g>
<!-- Node4&#45;&gt;Node3 -->
<g id="edge5_Node000004_Node000003" class="edge">
<title>Node4&#45;&gt;Node3</title>
<g id="a_edge5_Node000004_Node000003"><a xlink:title=" ">
<path fill="none" stroke="#63b8ff" d="M170.5,-240.23C178.95,-240.27 187.47,-240.24 195.81,-240.15"/>
<polygon fill="#63b8ff" stroke="#63b8ff" points="170.28,-236.73 160.25,-240.15 170.22,-243.73 170.28,-236.73"/>
</a>
</g>
</g>
<!-- Node4&#45;&gt;Node4 -->
<g id="edge4_Node000004_Node000004" class="edge">
<title>Node4&#45;&gt;Node4</title>
<g id="a_edge4_Node000004_Node000004"><a xlink:title=" ">
<path fill="none" stroke="#63b8ff" d="M114.31,-259.1C109.62,-263.47 98.18,-266.5 80,-266.5 49.38,-266.5 37.89,-257.91 45.55,-248.78"/>
<polygon fill="#63b8ff" stroke="#63b8ff" points="117.81,-258.82 114.45,-248.78 110.81,-258.72 117.81,-258.82"/>
</a>
</g>
</g>
<!-- Node9 -->
<g id="Node000009" class="node">
<title>Node9</title>
<g id="a_Node000009"><a xlink:href="namespacepyc_1_1transform_1_1combined.html#a540024e0d49fe477d984815f6844ea5a" target="_top" xlink:title=" ">
<polygon fill="white" stroke="#666666" points="347,-85.5 205,-85.5 205,-55.5 347,-55.5 347,-85.5"/>
<text text-anchor="start" x="213" y="-73.5" font-family="Helvetica,sans-Serif" font-size="10.00">pyc::transform::combined</text>
<text text-anchor="middle" x="276" y="-62.5" font-family="Helvetica,sans-Serif" font-size="10.00">::PtEtaPhiE</text>
</a>
</g>
</g>
<!-- Node8&#45;&gt;Node9 -->
<g id="edge11_Node000008_Node000009" class="edge">
<title>Node8&#45;&gt;Node9</title>
<g id="a_edge11_Node000008_Node000009"><a xlink:title=" ">
<path fill="none" stroke="#63b8ff" d="M391.92,-55.59C377.23,-57.5 361.74,-59.51 347.06,-61.41"/>
<polygon fill="#63b8ff" stroke="#63b8ff" points="392.47,-59.05 401.94,-54.29 391.57,-52.11 392.47,-59.05"/>
</a>
</g>
</g>
<!-- Node10 -->
<g id="Node000010" class="node">
<title>Node10</title>
<g id="a_Node000010"><a xlink:href="namespacepyc_1_1transform_1_1separate.html#aa89702a61f7eecf64504a32f99b2f9af" target="_top" xlink:title=" ">
<polygon fill="white" stroke="#666666" points="344.5,-37.5 207.5,-37.5 207.5,-7.5 344.5,-7.5 344.5,-37.5"/>
<text text-anchor="start" x="215.5" y="-25.5" font-family="Helvetica,sans-Serif" font-size="10.00">pyc::transform::separate</text>
<text text-anchor="middle" x="276" y="-14.5" font-family="Helvetica,sans-Serif" font-size="10.00">::PtEtaPhiE</text>
</a>
</g>
</g>
<!-- Node8&#45;&gt;Node10 -->
<g id="edge12_Node000008_Node000010" class="edge">
<title>Node8&#45;&gt;Node10</title>
<g id="a_edge12_Node000008_Node000010"><a xlink:title=" ">
<path fill="none" stroke="#63b8ff" d="M391.93,-37.41C376.48,-35.41 360.14,-33.29 344.78,-31.29"/>
<polygon fill="#63b8ff" stroke="#63b8ff" points="391.57,-40.89 401.94,-38.71 392.47,-33.95 391.57,-40.89"/>
</a>
</g>
</g>
</g>
</svg>
