<?xml version="1.0" encoding="UTF-8" standalone="no"?>
<!DOCTYPE svg PUBLIC "-//W3C//DTD SVG 1.1//EN"
 "http://www.w3.org/Graphics/SVG/1.1/DTD/svg11.dtd">
<!-- Generated by graphviz version 2.43.0 (0)
 -->
<!-- Title: physics_::Theta Pages: 1 -->
<svg width="293pt" height="45pt"
 viewBox="0.00 0.00 293.00 45.00" xmlns="http://www.w3.org/2000/svg" xmlns:xlink="http://www.w3.org/1999/xlink">
<g id="graph0" class="graph" transform="scale(1 1) rotate(0) translate(4 41)">
<title>physics_::Theta</title>
<!-- Node1 -->
<g id="Node000001" class="node">
<title>Node1</title>
<g id="a_Node000001"><a xlink:title="Computes the polar angle theta.">
<polygon fill="#999999" stroke="#666666" points="92,-19 0,-19 0,0 92,0 92,-19"/>
<text text-anchor="middle" x="46" y="-7" font-family="Helvetica,sans-Serif" font-size="10.00">physics_::Theta</text>
</a>
</g>
</g>
<!-- Node2 -->
<g id="Node000002" class="node">
<title>Node2</title>
<g id="a_Node000002"><a xlink:href="namespacephysics__.html#ac12a78b1943348345b940e510930f420" target="_top" xlink:title="Computes the momentum magnitude.">
<polygon fill="white" stroke="#666666" points="199,-19 128,-19 128,0 199,0 199,-19"/>
<text text-anchor="middle" x="163.5" y="-7" font-family="Helvetica,sans-Serif" font-size="10.00">physics_::P</text>
</a>
</g>
</g>
<!-- Node1&#45;&gt;Node2 -->
<g id="edge1_Node000001_Node000002" class="edge">
<title>Node1&#45;&gt;Node2</title>
<g id="a_edge1_Node000001_Node000002"><a xlink:title=" ">
<path fill="none" stroke="#63b8ff" d="M92.32,-9.5C100.58,-9.5 109.2,-9.5 117.46,-9.5"/>
<polygon fill="#63b8ff" stroke="#63b8ff" points="117.67,-13 127.67,-9.5 117.67,-6 117.67,-13"/>
</a>
</g>
</g>
<!-- Node2&#45;&gt;Node2 -->
<g id="edge3_Node000002_Node000002" class="edge">
<title>Node2&#45;&gt;Node2</title>
<g id="a_edge3_Node000002_Node000002"><a xlink:title=" ">
<path fill="none" stroke="#63b8ff" d="M148.7,-19.08C141.51,-27.73 146.44,-37 163.5,-37 173.9,-37 179.79,-33.56 181.18,-28.91"/>
<polygon fill="#63b8ff" stroke="#63b8ff" points="184.47,-27.69 178.3,-19.08 177.75,-29.66 184.47,-27.69"/>
</a>
</g>
</g>
<!-- Node3 -->
<g id="Node000003" class="node">
<title>Node3</title>
<g id="a_Node000003"><a xlink:href="utils_8cxx.html#a9c1cdc6384bce6bdc92ca917b3f656bf" target="_top" xlink:title=" ">
<polygon fill="white" stroke="#666666" points="285,-19 235,-19 235,0 285,0 285,-19"/>
<text text-anchor="middle" x="260" y="-7" font-family="Helvetica,sans-Serif" font-size="10.00">format</text>
</a>
</g>
</g>
<!-- Node2&#45;&gt;Node3 -->
<g id="edge2_Node000002_Node000003" class="edge">
<title>Node2&#45;&gt;Node3</title>
<g id="a_edge2_Node000002_Node000003"><a xlink:title=" ">
<path fill="none" stroke="#63b8ff" d="M199.15,-9.5C207.52,-9.5 216.46,-9.5 224.81,-9.5"/>
<polygon fill="#63b8ff" stroke="#63b8ff" points="224.98,-13 234.98,-9.5 224.98,-6 224.98,-13"/>
</a>
</g>
</g>
</g>
</svg>
