<?xml version="1.0" encoding="UTF-8" standalone="no"?>
<!DOCTYPE svg PUBLIC "-//W3C//DTD SVG 1.1//EN"
 "http://www.w3.org/Graphics/SVG/1.1/DTD/svg11.dtd">
<!-- Generated by graphviz version 2.43.0 (0)
 -->
<!-- Title: pyc::physics::polar::separate::P Pages: 1 -->
<svg width="386pt" height="183pt"
 viewBox="0.00 0.00 386.00 183.00" xmlns="http://www.w3.org/2000/svg" xmlns:xlink="http://www.w3.org/1999/xlink">
<g id="graph0" class="graph" transform="scale(1 1) rotate(0) translate(4 179)">
<title>pyc::physics::polar::separate::P</title>
<!-- Node1 -->
<g id="Node000001" class="node">
<title>Node1</title>
<g id="a_Node000001"><a xlink:title=" ">
<polygon fill="#999999" stroke="#666666" points="107,-125.5 0,-125.5 0,-95.5 107,-95.5 107,-125.5"/>
<text text-anchor="start" x="8" y="-113.5" font-family="Helvetica,sans-Serif" font-size="10.00">pyc::physics::polar</text>
<text text-anchor="middle" x="53.5" y="-102.5" font-family="Helvetica,sans-Serif" font-size="10.00">::separate::P</text>
</a>
</g>
</g>
<!-- Node2 -->
<g id="Node000002" class="node">
<title>Node2</title>
<g id="a_Node000002"><a xlink:href="utils_8cxx.html#a123aed6d73594e07c6401a7a6c587808" target="_top" xlink:title=" ">
<polygon fill="white" stroke="#666666" points="233.5,-175 163.5,-175 163.5,-156 233.5,-156 233.5,-175"/>
<text text-anchor="middle" x="198.5" y="-163" font-family="Helvetica,sans-Serif" font-size="10.00">changedev</text>
</a>
</g>
</g>
<!-- Node1&#45;&gt;Node2 -->
<g id="edge1_Node000001_Node000002" class="edge">
<title>Node1&#45;&gt;Node2</title>
<g id="a_edge1_Node000001_Node000002"><a xlink:title=" ">
<path fill="none" stroke="#63b8ff" d="M88.72,-125.53C105.04,-132.51 124.9,-140.74 143,-147.5 147.6,-149.22 152.45,-150.94 157.28,-152.61"/>
<polygon fill="#63b8ff" stroke="#63b8ff" points="156.49,-156.03 167.09,-155.91 158.73,-149.4 156.49,-156.03"/>
</a>
</g>
</g>
<!-- Node3 -->
<g id="Node000003" class="node">
<title>Node3</title>
<g id="a_Node000003"><a xlink:href="namespacephysics__.html#ac12a78b1943348345b940e510930f420" target="_top" xlink:title="Computes the momentum magnitude.">
<polygon fill="white" stroke="#666666" points="234,-120 163,-120 163,-101 234,-101 234,-120"/>
<text text-anchor="middle" x="198.5" y="-108" font-family="Helvetica,sans-Serif" font-size="10.00">physics_::P</text>
</a>
</g>
</g>
<!-- Node1&#45;&gt;Node3 -->
<g id="edge2_Node000001_Node000003" class="edge">
<title>Node1&#45;&gt;Node3</title>
<g id="a_edge2_Node000001_Node000003"><a xlink:title=" ">
<path fill="none" stroke="#63b8ff" d="M107.34,-110.5C122.19,-110.5 138.2,-110.5 152.55,-110.5"/>
<polygon fill="#63b8ff" stroke="#63b8ff" points="152.66,-114 162.66,-110.5 152.66,-107 152.66,-114"/>
</a>
</g>
</g>
<!-- Node5 -->
<g id="Node000005" class="node">
<title>Node5</title>
<g id="a_Node000005"><a xlink:href="namespacetransform__.html#aa38819d479d31edd3f79b4f8e96ef8be" target="_top" xlink:title="Computes the 3&#45;momentum (Px, Py, Pz).">
<polygon fill="white" stroke="#666666" points="254,-74 143,-74 143,-55 254,-55 254,-74"/>
<text text-anchor="middle" x="198.5" y="-62" font-family="Helvetica,sans-Serif" font-size="10.00">transform_::PxPyPz</text>
</a>
</g>
</g>
<!-- Node1&#45;&gt;Node5 -->
<g id="edge5_Node000001_Node000005" class="edge">
<title>Node1&#45;&gt;Node5</title>
<g id="a_edge5_Node000001_Node000005"><a xlink:title=" ">
<path fill="none" stroke="#63b8ff" d="M101.32,-95.44C119.57,-89.57 140.26,-82.91 157.77,-77.28"/>
<polygon fill="#63b8ff" stroke="#63b8ff" points="159.22,-80.49 167.66,-74.1 157.07,-73.83 159.22,-80.49"/>
</a>
</g>
</g>
<!-- Node3&#45;&gt;Node3 -->
<g id="edge4_Node000003_Node000003" class="edge">
<title>Node3&#45;&gt;Node3</title>
<g id="a_edge4_Node000003_Node000003"><a xlink:title=" ">
<path fill="none" stroke="#63b8ff" d="M177.85,-120.08C167.8,-128.73 174.68,-138 198.5,-138 213.76,-138 222.07,-134.2 223.43,-129.19"/>
<polygon fill="#63b8ff" stroke="#63b8ff" points="226.57,-127.65 219.15,-120.08 220.23,-130.62 226.57,-127.65"/>
</a>
</g>
</g>
<!-- Node4 -->
<g id="Node000004" class="node">
<title>Node4</title>
<g id="a_Node000004"><a xlink:href="utils_8cxx.html#a9c1cdc6384bce6bdc92ca917b3f656bf" target="_top" xlink:title=" ">
<polygon fill="white" stroke="#666666" points="359,-130 309,-130 309,-111 359,-111 359,-130"/>
<text text-anchor="middle" x="334" y="-118" font-family="Helvetica,sans-Serif" font-size="10.00">format</text>
</a>
</g>
</g>
<!-- Node3&#45;&gt;Node4 -->
<g id="edge3_Node000003_Node000004" class="edge">
<title>Node3&#45;&gt;Node4</title>
<g id="a_edge3_Node000003_Node000004"><a xlink:title=" ">
<path fill="none" stroke="#63b8ff" d="M234.23,-113.1C254.14,-114.59 279.02,-116.46 298.84,-117.94"/>
<polygon fill="#63b8ff" stroke="#63b8ff" points="298.74,-121.44 308.97,-118.7 299.26,-114.46 298.74,-121.44"/>
</a>
</g>
</g>
<!-- Node6 -->
<g id="Node000006" class="node">
<title>Node6</title>
<g id="a_Node000006"><a xlink:href="namespacetransform__.html#a4573dda96168ebbd38a408e64cc3d5ff" target="_top" xlink:title="Computes the x&#45;component of momentum (Px).">
<polygon fill="white" stroke="#666666" points="378,-93 290,-93 290,-74 378,-74 378,-93"/>
<text text-anchor="middle" x="334" y="-81" font-family="Helvetica,sans-Serif" font-size="10.00">transform_::Px</text>
</a>
</g>
</g>
<!-- Node5&#45;&gt;Node6 -->
<g id="edge6_Node000005_Node000006" class="edge">
<title>Node5&#45;&gt;Node6</title>
<g id="a_edge6_Node000005_Node000006"><a xlink:title=" ">
<path fill="none" stroke="#63b8ff" d="M254.18,-72.28C262.58,-73.48 271.24,-74.71 279.61,-75.9"/>
<polygon fill="#63b8ff" stroke="#63b8ff" points="279.24,-79.38 289.63,-77.33 280.22,-72.45 279.24,-79.38"/>
</a>
</g>
</g>
<!-- Node7 -->
<g id="Node000007" class="node">
<title>Node7</title>
<g id="a_Node000007"><a xlink:href="namespacetransform__.html#a51363ab29a6390a86a8ea75573a7a196" target="_top" xlink:title="Computes the y&#45;component of momentum (Py).">
<polygon fill="white" stroke="#666666" points="378,-56 290,-56 290,-37 378,-37 378,-56"/>
<text text-anchor="middle" x="334" y="-44" font-family="Helvetica,sans-Serif" font-size="10.00">transform_::Py</text>
</a>
</g>
</g>
<!-- Node5&#45;&gt;Node7 -->
<g id="edge7_Node000005_Node000007" class="edge">
<title>Node5&#45;&gt;Node7</title>
<g id="a_edge7_Node000005_Node000007"><a xlink:title=" ">
<path fill="none" stroke="#63b8ff" d="M254.18,-57.13C262.58,-55.99 271.24,-54.83 279.61,-53.7"/>
<polygon fill="#63b8ff" stroke="#63b8ff" points="280.19,-57.15 289.63,-52.35 279.25,-50.22 280.19,-57.15"/>
</a>
</g>
</g>
<!-- Node8 -->
<g id="Node000008" class="node">
<title>Node8</title>
<g id="a_Node000008"><a xlink:href="namespacetransform__.html#a28be39b0041a97b1667ccd1ff301f784" target="_top" xlink:title="Computes the z&#45;component of momentum (Pz).">
<polygon fill="white" stroke="#666666" points="377.5,-19 290.5,-19 290.5,0 377.5,0 377.5,-19"/>
<text text-anchor="middle" x="334" y="-7" font-family="Helvetica,sans-Serif" font-size="10.00">transform_::Pz</text>
</a>
</g>
</g>
<!-- Node5&#45;&gt;Node8 -->
<g id="edge8_Node000005_Node000008" class="edge">
<title>Node5&#45;&gt;Node8</title>
<g id="a_edge8_Node000005_Node000008"><a xlink:title=" ">
<path fill="none" stroke="#63b8ff" d="M222.75,-54.92C244.16,-46.1 276.13,-32.93 300.14,-23.04"/>
<polygon fill="#63b8ff" stroke="#63b8ff" points="301.65,-26.2 309.56,-19.16 298.99,-19.73 301.65,-26.2"/>
</a>
</g>
</g>
</g>
</svg>
