<?xml version="1.0" encoding="UTF-8" standalone="no"?>
<!DOCTYPE svg PUBLIC "-//W3C//DTD SVG 1.1//EN"
 "http://www.w3.org/Graphics/SVG/1.1/DTD/svg11.dtd">
<!-- Generated by graphviz version 2.43.0 (0)
 -->
<!-- Title: transform_::Eta Pages: 1 -->
<svg width="237pt" height="64pt"
 viewBox="0.00 0.00 237.00 64.00" xmlns="http://www.w3.org/2000/svg" xmlns:xlink="http://www.w3.org/1999/xlink">
<g id="graph0" class="graph" transform="scale(1 1) rotate(0) translate(4 60)">
<title>transform_::Eta</title>
<!-- Node1 -->
<g id="Node000001" class="node">
<title>Node1</title>
<g id="a_Node000001"><a xlink:title="Computes the pseudorapidity (Eta) from x, y, and z components of momentum.">
<polygon fill="#999999" stroke="#666666" points="92,-37 0,-37 0,-18 92,-18 92,-37"/>
<text text-anchor="middle" x="46" y="-25" font-family="Helvetica,sans-Serif" font-size="10.00">transform_::Eta</text>
</a>
</g>
</g>
<!-- Node2 -->
<g id="Node000002" class="node">
<title>Node2</title>
<g id="a_Node000002"><a xlink:href="namespacetransform__.html#a7e398b6292d5d34c81497445060ec752" target="_top" xlink:title="Computes the transverse momentum (Pt).">
<polygon fill="white" stroke="#666666" points="221.5,-56 135.5,-56 135.5,-37 221.5,-37 221.5,-56"/>
<text text-anchor="middle" x="178.5" y="-44" font-family="Helvetica,sans-Serif" font-size="10.00">transform_::Pt</text>
</a>
</g>
</g>
<!-- Node1&#45;&gt;Node2 -->
<g id="edge1_Node000001_Node000002" class="edge">
<title>Node1&#45;&gt;Node2</title>
<g id="a_edge1_Node000001_Node000002"><a xlink:title=" ">
<path fill="none" stroke="#63b8ff" d="M92.28,-34.09C102.99,-35.65 114.49,-37.33 125.47,-38.92"/>
<polygon fill="#63b8ff" stroke="#63b8ff" points="124.97,-42.39 135.37,-40.37 125.98,-35.46 124.97,-42.39"/>
</a>
</g>
</g>
<!-- Node3 -->
<g id="Node000003" class="node">
<title>Node3</title>
<g id="a_Node000003"><a xlink:href="namespacetransform__.html#a86e364c3bd4a1a8785a3cdfb0a1e1573" target="_top" xlink:title="Computes the transverse momentum (Pt) and pseudorapidity (Eta).">
<polygon fill="white" stroke="#666666" points="229,-19 128,-19 128,0 229,0 229,-19"/>
<text text-anchor="middle" x="178.5" y="-7" font-family="Helvetica,sans-Serif" font-size="10.00">transform_::PtEta</text>
</a>
</g>
</g>
<!-- Node1&#45;&gt;Node3 -->
<g id="edge2_Node000001_Node000003" class="edge">
<title>Node1&#45;&gt;Node3</title>
<g id="a_edge2_Node000001_Node000003"><a xlink:title=" ">
<path fill="none" stroke="#63b8ff" d="M92.28,-21.25C100.53,-20.12 109.26,-18.91 117.85,-17.73"/>
<polygon fill="#63b8ff" stroke="#63b8ff" points="118.42,-21.18 127.85,-16.35 117.46,-14.25 118.42,-21.18"/>
</a>
</g>
</g>
</g>
</svg>
