<?xml version="1.0" encoding="UTF-8" standalone="no"?>
<!DOCTYPE svg PUBLIC "-//W3C//DTD SVG 1.1//EN"
 "http://www.w3.org/Graphics/SVG/1.1/DTD/svg11.dtd">
<!-- Generated by graphviz version 2.43.0 (0)
 -->
<!-- Title: physics_::Mt Pages: 1 -->
<svg width="249pt" height="182pt"
 viewBox="0.00 0.00 249.00 182.00" xmlns="http://www.w3.org/2000/svg" xmlns:xlink="http://www.w3.org/1999/xlink">
<g id="graph0" class="graph" transform="scale(1 1) rotate(0) translate(4 178)">
<title>physics_::Mt</title>
<!-- Node1 -->
<g id="Node000001" class="node">
<title>Node1</title>
<g id="a_Node000001"><a xlink:title="Computes the transverse mass.">
<polygon fill="#999999" stroke="#666666" points="241,-96.5 164,-96.5 164,-77.5 241,-77.5 241,-96.5"/>
<text text-anchor="middle" x="202.5" y="-84.5" font-family="Helvetica,sans-Serif" font-size="10.00">physics_::Mt</text>
</a>
</g>
</g>
<!-- Node2 -->
<g id="Node000002" class="node">
<title>Node2</title>
<g id="a_Node000002"><a xlink:href="namespacepyc_1_1physics_1_1cartesian_1_1combined.html#aaf8cf1904c15a733221a1b44039989ce" target="_top" xlink:title=" ">
<polygon fill="white" stroke="#666666" points="128,-174 0,-174 0,-144 128,-144 128,-174"/>
<text text-anchor="start" x="8" y="-162" font-family="Helvetica,sans-Serif" font-size="10.00">pyc::physics::cartesian</text>
<text text-anchor="middle" x="64" y="-151" font-family="Helvetica,sans-Serif" font-size="10.00">::combined::Mt</text>
</a>
</g>
</g>
<!-- Node1&#45;&gt;Node2 -->
<g id="edge1_Node000001_Node000002" class="edge">
<title>Node1&#45;&gt;Node2</title>
<g id="a_edge1_Node000001_Node000002"><a xlink:title=" ">
<path fill="none" stroke="#63b8ff" d="M180.57,-102.41C166.24,-112.51 146.55,-125.55 128,-135 121.74,-138.19 114.96,-141.2 108.24,-143.94"/>
<polygon fill="#63b8ff" stroke="#63b8ff" points="182.64,-105.23 188.73,-96.56 178.57,-99.53 182.64,-105.23"/>
</a>
</g>
</g>
<!-- Node3 -->
<g id="Node000003" class="node">
<title>Node3</title>
<g id="a_Node000003"><a xlink:href="namespacepyc_1_1physics_1_1polar_1_1combined.html#acbeb9c6012612bd77cab7fe7871f0ccf" target="_top" xlink:title=" ">
<polygon fill="white" stroke="#666666" points="117.5,-126 10.5,-126 10.5,-96 117.5,-96 117.5,-126"/>
<text text-anchor="start" x="18.5" y="-114" font-family="Helvetica,sans-Serif" font-size="10.00">pyc::physics::polar</text>
<text text-anchor="middle" x="64" y="-103" font-family="Helvetica,sans-Serif" font-size="10.00">::combined::Mt</text>
</a>
</g>
</g>
<!-- Node1&#45;&gt;Node3 -->
<g id="edge2_Node000001_Node000003" class="edge">
<title>Node1&#45;&gt;Node3</title>
<g id="a_edge2_Node000001_Node000003"><a xlink:title=" ">
<path fill="none" stroke="#63b8ff" d="M153.82,-95.38C142.12,-97.44 129.53,-99.65 117.61,-101.75"/>
<polygon fill="#63b8ff" stroke="#63b8ff" points="154.6,-98.8 163.84,-93.62 153.38,-91.91 154.6,-98.8"/>
</a>
</g>
</g>
<!-- Node4 -->
<g id="Node000004" class="node">
<title>Node4</title>
<g id="a_Node000004"><a xlink:href="namespacepyc_1_1physics_1_1polar_1_1separate.html#ab979af5143b4e4c7ad9abacf21ef9544" target="_top" xlink:title=" ">
<polygon fill="white" stroke="#666666" points="117.5,-78 10.5,-78 10.5,-48 117.5,-48 117.5,-78"/>
<text text-anchor="start" x="18.5" y="-66" font-family="Helvetica,sans-Serif" font-size="10.00">pyc::physics::polar</text>
<text text-anchor="middle" x="64" y="-55" font-family="Helvetica,sans-Serif" font-size="10.00">::separate::Mt</text>
</a>
</g>
</g>
<!-- Node1&#45;&gt;Node4 -->
<g id="edge3_Node000001_Node000004" class="edge">
<title>Node1&#45;&gt;Node4</title>
<g id="a_edge3_Node000001_Node000004"><a xlink:title=" ">
<path fill="none" stroke="#63b8ff" d="M153.82,-78.62C142.12,-76.56 129.53,-74.35 117.61,-72.25"/>
<polygon fill="#63b8ff" stroke="#63b8ff" points="153.38,-82.09 163.84,-80.38 154.6,-75.2 153.38,-82.09"/>
</a>
</g>
</g>
<!-- Node5 -->
<g id="Node000005" class="node">
<title>Node5</title>
<g id="a_Node000005"><a xlink:href="namespacepyc_1_1physics_1_1cartesian_1_1separate.html#a28a5bc1982da9a36e87ce2e3e979a464" target="_top" xlink:title=" ">
<polygon fill="white" stroke="#666666" points="128,-30 0,-30 0,0 128,0 128,-30"/>
<text text-anchor="start" x="8" y="-18" font-family="Helvetica,sans-Serif" font-size="10.00">pyc::physics::cartesian</text>
<text text-anchor="middle" x="64" y="-7" font-family="Helvetica,sans-Serif" font-size="10.00">::separate::Mt</text>
</a>
</g>
</g>
<!-- Node1&#45;&gt;Node5 -->
<g id="edge4_Node000001_Node000005" class="edge">
<title>Node1&#45;&gt;Node5</title>
<g id="a_edge4_Node000001_Node000005"><a xlink:title=" ">
<path fill="none" stroke="#63b8ff" d="M180.57,-71.59C166.24,-61.49 146.55,-48.45 128,-39 121.74,-35.81 114.96,-32.8 108.24,-30.06"/>
<polygon fill="#63b8ff" stroke="#63b8ff" points="178.57,-74.47 188.73,-77.44 182.64,-68.77 178.57,-74.47"/>
</a>
</g>
</g>
</g>
</svg>
