<?xml version="1.0" encoding="UTF-8" standalone="no"?>
<!DOCTYPE svg PUBLIC "-//W3C//DTD SVG 1.1//EN"
 "http://www.w3.org/Graphics/SVG/1.1/DTD/svg11.dtd">
<!-- Generated by graphviz version 2.43.0 (0)
 -->
<!-- Title: transform_::PxPyPzE Pages: 1 -->
<svg width="695pt" height="822pt"
 viewBox="0.00 0.00 695.00 822.00" xmlns="http://www.w3.org/2000/svg" xmlns:xlink="http://www.w3.org/1999/xlink">
<g id="graph0" class="graph" transform="scale(1 1) rotate(0) translate(4 818)">
<title>transform_::PxPyPzE</title>
<!-- Node1 -->
<g id="Node000001" class="node">
<title>Node1</title>
<g id="a_Node000001"><a xlink:title="Computes the 4&#45;momentum (Px, Py, Pz, E).">
<polygon fill="#999999" stroke="#666666" points="687,-448.5 570,-448.5 570,-429.5 687,-429.5 687,-448.5"/>
<text text-anchor="middle" x="628.5" y="-436.5" font-family="Helvetica,sans-Serif" font-size="10.00">transform_::PxPyPzE</text>
</a>
</g>
</g>
<!-- Node2 -->
<g id="Node000002" class="node">
<title>Node2</title>
<g id="a_Node000002"><a xlink:href="namespacepyc_1_1physics_1_1polar_1_1combined.html#a0150f0dac00fdc96ee3021c48c912f5a" target="_top" xlink:title=" ">
<polygon fill="white" stroke="#666666" points="516.5,-814 409.5,-814 409.5,-784 516.5,-784 516.5,-814"/>
<text text-anchor="start" x="417.5" y="-802" font-family="Helvetica,sans-Serif" font-size="10.00">pyc::physics::polar</text>
<text text-anchor="middle" x="463" y="-791" font-family="Helvetica,sans-Serif" font-size="10.00">::combined::Beta</text>
</a>
</g>
</g>
<!-- Node1&#45;&gt;Node2 -->
<g id="edge1_Node000001_Node000002" class="edge">
<title>Node1&#45;&gt;Node2</title>
<g id="a_edge1_Node000001_Node000002"><a xlink:title=" ">
<path fill="none" stroke="#63b8ff" d="M627.98,-458.66C628.27,-515.6 621.24,-682.47 534,-775 529.15,-780.14 523.16,-784.18 516.73,-787.36"/>
<polygon fill="#63b8ff" stroke="#63b8ff" points="631.47,-458.47 627.84,-448.52 624.48,-458.56 631.47,-458.47"/>
</a>
</g>
</g>
<!-- Node3 -->
<g id="Node000003" class="node">
<title>Node3</title>
<g id="a_Node000003"><a xlink:href="namespacepyc_1_1physics_1_1polar_1_1separate.html#a49811b3e193170bb3f8d0a185b4fc07d" target="_top" xlink:title=" ">
<polygon fill="white" stroke="#666666" points="516.5,-766 409.5,-766 409.5,-736 516.5,-736 516.5,-766"/>
<text text-anchor="start" x="417.5" y="-754" font-family="Helvetica,sans-Serif" font-size="10.00">pyc::physics::polar</text>
<text text-anchor="middle" x="463" y="-743" font-family="Helvetica,sans-Serif" font-size="10.00">::separate::Beta</text>
</a>
</g>
</g>
<!-- Node1&#45;&gt;Node3 -->
<g id="edge2_Node000001_Node000003" class="edge">
<title>Node1&#45;&gt;Node3</title>
<g id="a_edge2_Node000001_Node000003"><a xlink:title=" ">
<path fill="none" stroke="#63b8ff" d="M626.88,-458.89C624.2,-510.46 609.92,-649.83 534,-727 529.04,-732.04 522.99,-736.02 516.53,-739.16"/>
<polygon fill="#63b8ff" stroke="#63b8ff" points="630.38,-458.9 627.31,-448.76 623.39,-458.6 630.38,-458.9"/>
</a>
</g>
</g>
<!-- Node4 -->
<g id="Node000004" class="node">
<title>Node4</title>
<g id="a_Node000004"><a xlink:href="namespacepyc_1_1physics_1_1polar_1_1combined.html#a20e7dc61ab62ab57496a8fc22f68a630" target="_top" xlink:title=" ">
<polygon fill="white" stroke="#666666" points="516.5,-718 409.5,-718 409.5,-688 516.5,-688 516.5,-718"/>
<text text-anchor="start" x="417.5" y="-706" font-family="Helvetica,sans-Serif" font-size="10.00">pyc::physics::polar</text>
<text text-anchor="middle" x="463" y="-695" font-family="Helvetica,sans-Serif" font-size="10.00">::combined::Beta2</text>
</a>
</g>
</g>
<!-- Node1&#45;&gt;Node4 -->
<g id="edge3_Node000001_Node000004" class="edge">
<title>Node1&#45;&gt;Node4</title>
<g id="a_edge3_Node000001_Node000004"><a xlink:title=" ">
<path fill="none" stroke="#63b8ff" d="M625.38,-458.88C619.5,-504.34 598.84,-616.78 534,-679 528.99,-683.8 522.99,-687.65 516.62,-690.73"/>
<polygon fill="#63b8ff" stroke="#63b8ff" points="628.87,-459.18 626.58,-448.83 621.92,-458.35 628.87,-459.18"/>
</a>
</g>
</g>
<!-- Node5 -->
<g id="Node000005" class="node">
<title>Node5</title>
<g id="a_Node000005"><a xlink:href="namespacepyc_1_1physics_1_1polar_1_1separate.html#a49c21afa9d65d851f1cfe13e35875ea3" target="_top" xlink:title=" ">
<polygon fill="white" stroke="#666666" points="516.5,-670 409.5,-670 409.5,-640 516.5,-640 516.5,-670"/>
<text text-anchor="start" x="417.5" y="-658" font-family="Helvetica,sans-Serif" font-size="10.00">pyc::physics::polar</text>
<text text-anchor="middle" x="463" y="-647" font-family="Helvetica,sans-Serif" font-size="10.00">::separate::Beta2</text>
</a>
</g>
</g>
<!-- Node1&#45;&gt;Node5 -->
<g id="edge4_Node000001_Node000005" class="edge">
<title>Node1&#45;&gt;Node5</title>
<g id="a_edge4_Node000001_Node000005"><a xlink:title=" ">
<path fill="none" stroke="#63b8ff" d="M623.3,-458.49C614,-496.98 588.1,-583.17 534,-631 528.9,-635.51 522.91,-639.18 516.62,-642.17"/>
<polygon fill="#63b8ff" stroke="#63b8ff" points="626.75,-459.09 625.58,-448.56 619.93,-457.53 626.75,-459.09"/>
</a>
</g>
</g>
<!-- Node6 -->
<g id="Node000006" class="node">
<title>Node6</title>
<g id="a_Node000006"><a xlink:href="namespacepyc_1_1graph_1_1polar.html#ab00a9b5d4070afc2aac6fd639d82c46b" target="_top" xlink:title=" ">
<polygon fill="white" stroke="#666666" points="515,-622 411,-622 411,-592 515,-592 515,-622"/>
<text text-anchor="start" x="419" y="-610" font-family="Helvetica,sans-Serif" font-size="10.00">pyc::graph::polar::</text>
<text text-anchor="middle" x="463" y="-599" font-family="Helvetica,sans-Serif" font-size="10.00">edge_aggregation</text>
</a>
</g>
</g>
<!-- Node1&#45;&gt;Node6 -->
<g id="edge5_Node000001_Node000006" class="edge">
<title>Node1&#45;&gt;Node6</title>
<g id="a_edge5_Node000001_Node000006"><a xlink:title=" ">
<path fill="none" stroke="#63b8ff" d="M619.98,-458.17C607,-488.87 577.51,-549.05 534,-583 528.33,-587.43 521.79,-591.06 515.03,-594.05"/>
<polygon fill="#63b8ff" stroke="#63b8ff" points="623.34,-459.22 623.88,-448.64 616.86,-456.57 623.34,-459.22"/>
</a>
</g>
</g>
<!-- Node7 -->
<g id="Node000007" class="node">
<title>Node7</title>
<g id="a_Node000007"><a xlink:href="namespacepyc_1_1graph_1_1polar.html#a4892c3989bd8b62a5f02688d030e92d5" target="_top" xlink:title=" ">
<polygon fill="white" stroke="#666666" points="515,-574 411,-574 411,-544 515,-544 515,-574"/>
<text text-anchor="start" x="419" y="-562" font-family="Helvetica,sans-Serif" font-size="10.00">pyc::graph::polar::</text>
<text text-anchor="middle" x="463" y="-551" font-family="Helvetica,sans-Serif" font-size="10.00">edge_aggregation</text>
</a>
</g>
</g>
<!-- Node1&#45;&gt;Node7 -->
<g id="edge6_Node000001_Node000007" class="edge">
<title>Node1&#45;&gt;Node7</title>
<g id="a_edge6_Node000001_Node000007"><a xlink:title=" ">
<path fill="none" stroke="#63b8ff" d="M614.43,-456.82C597.91,-478.19 567.54,-513.76 534,-535 528.14,-538.71 521.64,-541.92 515.02,-544.69"/>
<polygon fill="#63b8ff" stroke="#63b8ff" points="617.39,-458.71 620.63,-448.62 611.81,-454.49 617.39,-458.71"/>
</a>
</g>
</g>
<!-- Node8 -->
<g id="Node000008" class="node">
<title>Node8</title>
<g id="a_Node000008"><a xlink:href="namespacepyc_1_1physics_1_1polar_1_1combined.html#a03ec955a2641ce4f53ade06bff9ebaae" target="_top" xlink:title=" ">
<polygon fill="white" stroke="#666666" points="516.5,-526 409.5,-526 409.5,-496 516.5,-496 516.5,-526"/>
<text text-anchor="start" x="417.5" y="-514" font-family="Helvetica,sans-Serif" font-size="10.00">pyc::physics::polar</text>
<text text-anchor="middle" x="463" y="-503" font-family="Helvetica,sans-Serif" font-size="10.00">::combined::M</text>
</a>
</g>
</g>
<!-- Node1&#45;&gt;Node8 -->
<g id="edge7_Node000001_Node000008" class="edge">
<title>Node1&#45;&gt;Node8</title>
<g id="a_edge7_Node000001_Node000008"><a xlink:title=" ">
<path fill="none" stroke="#63b8ff" d="M601.65,-453.55C583.14,-463.65 557.45,-477.02 534,-487 526.67,-490.12 518.79,-493.13 511.04,-495.91"/>
<polygon fill="#63b8ff" stroke="#63b8ff" points="603.55,-456.49 610.62,-448.6 600.17,-450.36 603.55,-456.49"/>
</a>
</g>
</g>
<!-- Node9 -->
<g id="Node000009" class="node">
<title>Node9</title>
<g id="a_Node000009"><a xlink:href="namespacepyc_1_1physics_1_1polar_1_1separate.html#aaab901d4c62535312b57336a324c3461" target="_top" xlink:title=" ">
<polygon fill="white" stroke="#666666" points="516.5,-478 409.5,-478 409.5,-448 516.5,-448 516.5,-478"/>
<text text-anchor="start" x="417.5" y="-466" font-family="Helvetica,sans-Serif" font-size="10.00">pyc::physics::polar</text>
<text text-anchor="middle" x="463" y="-455" font-family="Helvetica,sans-Serif" font-size="10.00">::separate::M</text>
</a>
</g>
</g>
<!-- Node1&#45;&gt;Node9 -->
<g id="edge8_Node000001_Node000009" class="edge">
<title>Node1&#45;&gt;Node9</title>
<g id="a_edge8_Node000001_Node000009"><a xlink:title=" ">
<path fill="none" stroke="#63b8ff" d="M559.57,-448.97C545.28,-451.07 530.4,-453.25 516.76,-455.26"/>
<polygon fill="#63b8ff" stroke="#63b8ff" points="560.47,-452.38 569.86,-447.46 559.45,-445.45 560.47,-452.38"/>
</a>
</g>
</g>
<!-- Node10 -->
<g id="Node000010" class="node">
<title>Node10</title>
<g id="a_Node000010"><a xlink:href="namespacepyc_1_1physics_1_1polar_1_1combined.html#aa79557e9e58fc548b41444667ebb1b62" target="_top" xlink:title=" ">
<polygon fill="white" stroke="#666666" points="516.5,-430 409.5,-430 409.5,-400 516.5,-400 516.5,-430"/>
<text text-anchor="start" x="417.5" y="-418" font-family="Helvetica,sans-Serif" font-size="10.00">pyc::physics::polar</text>
<text text-anchor="middle" x="463" y="-407" font-family="Helvetica,sans-Serif" font-size="10.00">::combined::M2</text>
</a>
</g>
</g>
<!-- Node1&#45;&gt;Node10 -->
<g id="edge9_Node000001_Node000010" class="edge">
<title>Node1&#45;&gt;Node10</title>
<g id="a_edge9_Node000001_Node000010"><a xlink:title=" ">
<path fill="none" stroke="#63b8ff" d="M559.57,-429.03C545.28,-426.93 530.4,-424.75 516.76,-422.74"/>
<polygon fill="#63b8ff" stroke="#63b8ff" points="559.45,-432.55 569.86,-430.54 560.47,-425.62 559.45,-432.55"/>
</a>
</g>
</g>
<!-- Node11 -->
<g id="Node000011" class="node">
<title>Node11</title>
<g id="a_Node000011"><a xlink:href="namespacepyc_1_1physics_1_1polar_1_1separate.html#a5166df2f83d8ea10350011307d165ed2" target="_top" xlink:title=" ">
<polygon fill="white" stroke="#666666" points="516.5,-382 409.5,-382 409.5,-352 516.5,-352 516.5,-382"/>
<text text-anchor="start" x="417.5" y="-370" font-family="Helvetica,sans-Serif" font-size="10.00">pyc::physics::polar</text>
<text text-anchor="middle" x="463" y="-359" font-family="Helvetica,sans-Serif" font-size="10.00">::separate::M2</text>
</a>
</g>
</g>
<!-- Node1&#45;&gt;Node11 -->
<g id="edge10_Node000001_Node000011" class="edge">
<title>Node1&#45;&gt;Node11</title>
<g id="a_edge10_Node000001_Node000011"><a xlink:title=" ">
<path fill="none" stroke="#63b8ff" d="M601.65,-424.45C583.14,-414.35 557.45,-400.98 534,-391 526.67,-387.88 518.79,-384.87 511.04,-382.09"/>
<polygon fill="#63b8ff" stroke="#63b8ff" points="600.17,-427.64 610.62,-429.4 603.55,-421.51 600.17,-427.64"/>
</a>
</g>
</g>
<!-- Node12 -->
<g id="Node000012" class="node">
<title>Node12</title>
<g id="a_Node000012"><a xlink:href="namespacepyc_1_1physics_1_1polar_1_1combined.html#acbeb9c6012612bd77cab7fe7871f0ccf" target="_top" xlink:title=" ">
<polygon fill="white" stroke="#666666" points="516.5,-334 409.5,-334 409.5,-304 516.5,-304 516.5,-334"/>
<text text-anchor="start" x="417.5" y="-322" font-family="Helvetica,sans-Serif" font-size="10.00">pyc::physics::polar</text>
<text text-anchor="middle" x="463" y="-311" font-family="Helvetica,sans-Serif" font-size="10.00">::combined::Mt</text>
</a>
</g>
</g>
<!-- Node1&#45;&gt;Node12 -->
<g id="edge11_Node000001_Node000012" class="edge">
<title>Node1&#45;&gt;Node12</title>
<g id="a_edge11_Node000001_Node000012"><a xlink:title=" ">
<path fill="none" stroke="#63b8ff" d="M614.43,-421.18C597.91,-399.81 567.54,-364.24 534,-343 528.68,-339.63 522.83,-336.67 516.86,-334.09"/>
<polygon fill="#63b8ff" stroke="#63b8ff" points="611.81,-423.51 620.63,-429.38 617.39,-419.29 611.81,-423.51"/>
</a>
</g>
</g>
<!-- Node13 -->
<g id="Node000013" class="node">
<title>Node13</title>
<g id="a_Node000013"><a xlink:href="namespacepyc_1_1physics_1_1polar_1_1combined.html#acc5e59b1f7549ce950cab57976edfd79" target="_top" xlink:title=" ">
<polygon fill="white" stroke="#666666" points="516.5,-286 409.5,-286 409.5,-256 516.5,-256 516.5,-286"/>
<text text-anchor="start" x="417.5" y="-274" font-family="Helvetica,sans-Serif" font-size="10.00">pyc::physics::polar</text>
<text text-anchor="middle" x="463" y="-263" font-family="Helvetica,sans-Serif" font-size="10.00">::combined::Mt2</text>
</a>
</g>
</g>
<!-- Node1&#45;&gt;Node13 -->
<g id="edge12_Node000001_Node000013" class="edge">
<title>Node1&#45;&gt;Node13</title>
<g id="a_edge12_Node000001_Node000013"><a xlink:title=" ">
<path fill="none" stroke="#63b8ff" d="M619.98,-419.83C607,-389.13 577.51,-328.95 534,-295 528.83,-290.97 522.95,-287.59 516.84,-284.77"/>
<polygon fill="#63b8ff" stroke="#63b8ff" points="616.86,-421.43 623.88,-429.36 623.34,-418.78 616.86,-421.43"/>
</a>
</g>
</g>
<!-- Node14 -->
<g id="Node000014" class="node">
<title>Node14</title>
<g id="a_Node000014"><a xlink:href="namespacepyc_1_1graph_1_1polar.html#a4b8251423b7ede00df4fbda3ab664485" target="_top" xlink:title=" ">
<polygon fill="white" stroke="#666666" points="515,-238 411,-238 411,-208 515,-208 515,-238"/>
<text text-anchor="start" x="419" y="-226" font-family="Helvetica,sans-Serif" font-size="10.00">pyc::graph::polar::</text>
<text text-anchor="middle" x="463" y="-215" font-family="Helvetica,sans-Serif" font-size="10.00">node_aggregation</text>
</a>
</g>
</g>
<!-- Node1&#45;&gt;Node14 -->
<g id="edge13_Node000001_Node000014" class="edge">
<title>Node1&#45;&gt;Node14</title>
<g id="a_edge13_Node000001_Node000014"><a xlink:title=" ">
<path fill="none" stroke="#63b8ff" d="M623.3,-419.51C614,-381.02 588.1,-294.83 534,-247 528.51,-242.15 522,-238.27 515.19,-235.17"/>
<polygon fill="#63b8ff" stroke="#63b8ff" points="619.93,-420.47 625.58,-429.44 626.75,-418.91 619.93,-420.47"/>
</a>
</g>
</g>
<!-- Node15 -->
<g id="Node000015" class="node">
<title>Node15</title>
<g id="a_Node000015"><a xlink:href="namespacepyc_1_1graph_1_1polar.html#a2214179747b4d328f815a532e6d4fdcf" target="_top" xlink:title=" ">
<polygon fill="white" stroke="#666666" points="515,-190 411,-190 411,-160 515,-160 515,-190"/>
<text text-anchor="start" x="419" y="-178" font-family="Helvetica,sans-Serif" font-size="10.00">pyc::graph::polar::</text>
<text text-anchor="middle" x="463" y="-167" font-family="Helvetica,sans-Serif" font-size="10.00">node_aggregation</text>
</a>
</g>
</g>
<!-- Node1&#45;&gt;Node15 -->
<g id="edge14_Node000001_Node000015" class="edge">
<title>Node1&#45;&gt;Node15</title>
<g id="a_edge14_Node000001_Node000015"><a xlink:title=" ">
<path fill="none" stroke="#63b8ff" d="M625.38,-419.12C619.5,-373.66 598.84,-261.22 534,-199 528.62,-193.84 522.09,-189.79 515.2,-186.6"/>
<polygon fill="#63b8ff" stroke="#63b8ff" points="621.92,-419.65 626.58,-429.17 628.87,-418.82 621.92,-419.65"/>
</a>
</g>
</g>
<!-- Node16 -->
<g id="Node000016" class="node">
<title>Node16</title>
<g id="a_Node000016"><a xlink:href="namespacepyc_1_1transform_1_1combined.html#a04bb607bea9c08f7133e6bcebf230076" target="_top" xlink:title=" ">
<polygon fill="white" stroke="#666666" points="534,-142 392,-142 392,-112 534,-112 534,-142"/>
<text text-anchor="start" x="400" y="-130" font-family="Helvetica,sans-Serif" font-size="10.00">pyc::transform::combined</text>
<text text-anchor="middle" x="463" y="-119" font-family="Helvetica,sans-Serif" font-size="10.00">::PxPyPzE</text>
</a>
</g>
</g>
<!-- Node1&#45;&gt;Node16 -->
<g id="edge15_Node000001_Node000016" class="edge">
<title>Node1&#45;&gt;Node16</title>
<g id="a_edge15_Node000001_Node000016"><a xlink:title=" ">
<path fill="none" stroke="#63b8ff" d="M626.88,-419.11C624.2,-367.54 609.92,-228.17 534,-151 530.67,-147.61 526.83,-144.7 522.72,-142.2"/>
<polygon fill="#63b8ff" stroke="#63b8ff" points="623.39,-419.4 627.31,-429.24 630.38,-419.1 623.39,-419.4"/>
</a>
</g>
</g>
<!-- Node18 -->
<g id="Node000018" class="node">
<title>Node18</title>
<g id="a_Node000018"><a xlink:href="namespacepyc_1_1transform_1_1separate.html#a720f165f6c3acc7c6ed1b33dd2c369bb" target="_top" xlink:title=" ">
<polygon fill="white" stroke="#666666" points="531.5,-91 394.5,-91 394.5,-61 531.5,-61 531.5,-91"/>
<text text-anchor="start" x="402.5" y="-79" font-family="Helvetica,sans-Serif" font-size="10.00">pyc::transform::separate</text>
<text text-anchor="middle" x="463" y="-68" font-family="Helvetica,sans-Serif" font-size="10.00">::PxPyPzE</text>
</a>
</g>
</g>
<!-- Node1&#45;&gt;Node18 -->
<g id="edge17_Node000001_Node000018" class="edge">
<title>Node1&#45;&gt;Node18</title>
<g id="a_edge17_Node000001_Node000018"><a xlink:title=" ">
<path fill="none" stroke="#63b8ff" d="M627.8,-419.12C627.6,-362.24 619.28,-196.96 534,-103 529.71,-98.27 524.5,-94.37 518.87,-91.14"/>
<polygon fill="#63b8ff" stroke="#63b8ff" points="624.3,-419.25 627.76,-429.27 631.3,-419.29 624.3,-419.25"/>
</a>
</g>
</g>
<!-- Node17 -->
<g id="Node000017" class="node">
<title>Node17</title>
<g id="a_Node000017"><a xlink:href="classmetrics.html#a24531660bf7917f489a6b67ceed12cdd" target="_top" xlink:title="Captures metrics from the current epoch.">
<polygon fill="white" stroke="#666666" points="324,-140.5 228,-140.5 228,-121.5 324,-121.5 324,-140.5"/>
<text text-anchor="middle" x="276" y="-128.5" font-family="Helvetica,sans-Serif" font-size="10.00">metrics::capture</text>
</a>
</g>
</g>
<!-- Node16&#45;&gt;Node17 -->
<g id="edge16_Node000016_Node000017" class="edge">
<title>Node16&#45;&gt;Node17</title>
<g id="a_edge16_Node000016_Node000017"><a xlink:title=" ">
<path fill="none" stroke="#63b8ff" d="M381.63,-128.74C362.03,-129.16 341.68,-129.6 324.2,-129.98"/>
<polygon fill="#63b8ff" stroke="#63b8ff" points="381.87,-132.23 391.8,-128.52 381.72,-125.24 381.87,-132.23"/>
</a>
</g>
</g>
<!-- Node19 -->
<g id="Node000019" class="node">
<title>Node19</title>
<g id="a_Node000019"><a xlink:href="classgrift.html#a72f7575fbd1d744d4f9053e5b8b7ee38" target="_top" xlink:title="Virtual forward pass method for a single graph.">
<polygon fill="white" stroke="#666666" points="316,-85.5 236,-85.5 236,-66.5 316,-66.5 316,-85.5"/>
<text text-anchor="middle" x="276" y="-73.5" font-family="Helvetica,sans-Serif" font-size="10.00">grift::forward</text>
</a>
</g>
</g>
<!-- Node18&#45;&gt;Node19 -->
<g id="edge18_Node000018_Node000019" class="edge">
<title>Node18&#45;&gt;Node19</title>
<g id="a_edge18_Node000018_Node000019"><a xlink:title=" ">
<path fill="none" stroke="#63b8ff" d="M384.12,-76C360.68,-76 335.95,-76 316.16,-76"/>
<polygon fill="#63b8ff" stroke="#63b8ff" points="384.43,-79.5 394.43,-76 384.43,-72.5 384.43,-79.5"/>
</a>
</g>
</g>
<!-- Node21 -->
<g id="Node000021" class="node">
<title>Node21</title>
<g id="a_Node000021"><a xlink:href="classrecursivegraphneuralnetwork.html#a4b09bc8de8d9ecd0b4ff1ffa94deea98" target="_top" xlink:title="Virtual forward pass method for a single graph.">
<polygon fill="white" stroke="#666666" points="356,-30 196,-30 196,0 356,0 356,-30"/>
<text text-anchor="start" x="204" y="-18" font-family="Helvetica,sans-Serif" font-size="10.00">recursivegraphneuralnetwork</text>
<text text-anchor="middle" x="276" y="-7" font-family="Helvetica,sans-Serif" font-size="10.00">::forward</text>
</a>
</g>
</g>
<!-- Node18&#45;&gt;Node21 -->
<g id="edge22_Node000018_Node000021" class="edge">
<title>Node18&#45;&gt;Node21</title>
<g id="a_edge22_Node000018_Node000021"><a xlink:title=" ">
<path fill="none" stroke="#63b8ff" d="M406.63,-57.74C379.78,-48.89 347.93,-38.39 322.52,-30.01"/>
<polygon fill="#63b8ff" stroke="#63b8ff" points="405.68,-61.11 416.27,-60.92 407.87,-54.47 405.68,-61.11"/>
</a>
</g>
</g>
<!-- Node19&#45;&gt;Node19 -->
<g id="edge19_Node000019_Node000019" class="edge">
<title>Node19&#45;&gt;Node19</title>
<g id="a_edge19_Node000019_Node000019"><a xlink:title=" ">
<path fill="none" stroke="#63b8ff" d="M310.86,-93.57C310.35,-99.12 298.73,-103.5 276,-103.5 242.94,-103.5 233.39,-94.23 247.33,-85.58"/>
<polygon fill="#63b8ff" stroke="#63b8ff" points="313.56,-91.34 304.67,-85.58 308.03,-95.63 313.56,-91.34"/>
</a>
</g>
</g>
<!-- Node20 -->
<g id="Node000020" class="node">
<title>Node20</title>
<g id="a_Node000020"><a xlink:href="classgrift.html#ad610edcd0cab14b57197a846ab8a8caf" target="_top" xlink:title=" ">
<polygon fill="white" stroke="#666666" points="123,-85.5 37,-85.5 37,-66.5 123,-66.5 123,-85.5"/>
<text text-anchor="middle" x="80" y="-73.5" font-family="Helvetica,sans-Serif" font-size="10.00">grift::message</text>
</a>
</g>
</g>
<!-- Node19&#45;&gt;Node20 -->
<g id="edge20_Node000019_Node000020" class="edge">
<title>Node19&#45;&gt;Node20</title>
<g id="a_edge20_Node000019_Node000020"><a xlink:title=" ">
<path fill="none" stroke="#63b8ff" d="M225.39,-70.02C193.79,-68.9 153.29,-69 123.23,-70.32"/>
<polygon fill="#63b8ff" stroke="#63b8ff" points="225.61,-73.54 235.74,-70.45 225.89,-66.54 225.61,-73.54"/>
</a>
</g>
</g>
<!-- Node20&#45;&gt;Node19 -->
<g id="edge21_Node000020_Node000019" class="edge">
<title>Node20&#45;&gt;Node19</title>
<g id="a_edge21_Node000020_Node000019"><a xlink:title=" ">
<path fill="none" stroke="#63b8ff" d="M133.37,-82.07C165.62,-83.13 206.27,-82.95 235.74,-81.55"/>
<polygon fill="#63b8ff" stroke="#63b8ff" points="133.35,-78.57 123.23,-81.68 133.09,-85.56 133.35,-78.57"/>
</a>
</g>
</g>
<!-- Node21&#45;&gt;Node21 -->
<g id="edge23_Node000021_Node000021" class="edge">
<title>Node21&#45;&gt;Node21</title>
<g id="a_edge23_Node000021_Node000021"><a xlink:title=" ">
<path fill="none" stroke="#63b8ff" d="M308.56,-40.6C304.11,-44.97 293.26,-48 276,-48 246.94,-48 236.04,-39.41 243.3,-30.28"/>
<polygon fill="#63b8ff" stroke="#63b8ff" points="312.06,-40.32 308.7,-30.28 305.06,-40.23 312.06,-40.32"/>
</a>
</g>
</g>
<!-- Node22 -->
<g id="Node000022" class="node">
<title>Node22</title>
<g id="a_Node000022"><a xlink:href="classrecursivegraphneuralnetwork.html#a7c83216c5899b14dcc03ccf368209ee1" target="_top" xlink:title=" ">
<polygon fill="white" stroke="#666666" points="160,-30 0,-30 0,0 160,0 160,-30"/>
<text text-anchor="start" x="8" y="-18" font-family="Helvetica,sans-Serif" font-size="10.00">recursivegraphneuralnetwork</text>
<text text-anchor="middle" x="80" y="-7" font-family="Helvetica,sans-Serif" font-size="10.00">::message</text>
</a>
</g>
</g>
<!-- Node21&#45;&gt;Node22 -->
<g id="edge24_Node000021_Node000022" class="edge">
<title>Node21&#45;&gt;Node22</title>
<g id="a_edge24_Node000021_Node000022"><a xlink:title=" ">
<path fill="none" stroke="#63b8ff" d="M185.56,-8.27C177.12,-8.23 168.59,-8.26 160.25,-8.35"/>
<polygon fill="#63b8ff" stroke="#63b8ff" points="185.78,-11.77 195.81,-8.35 185.84,-4.77 185.78,-11.77"/>
</a>
</g>
</g>
<!-- Node22&#45;&gt;Node21 -->
<g id="edge25_Node000022_Node000021" class="edge">
<title>Node22&#45;&gt;Node21</title>
<g id="a_edge25_Node000022_Node000021"><a xlink:title=" ">
<path fill="none" stroke="#63b8ff" d="M170.5,-21.73C178.95,-21.77 187.47,-21.74 195.81,-21.65"/>
<polygon fill="#63b8ff" stroke="#63b8ff" points="170.28,-18.23 160.25,-21.65 170.22,-25.23 170.28,-18.23"/>
</a>
</g>
</g>
</g>
</svg>
