<?xml version="1.0" encoding="UTF-8" standalone="no"?>
<!DOCTYPE svg PUBLIC "-//W3C//DTD SVG 1.1//EN"
 "http://www.w3.org/Graphics/SVG/1.1/DTD/svg11.dtd">
<!-- Generated by graphviz version 2.43.0 (0)
 -->
<!-- Title: pyc::transform::separate::PxPyPzE Pages: 1 -->
<svg width="537pt" height="112pt"
 viewBox="0.00 0.00 537.00 111.50" xmlns="http://www.w3.org/2000/svg" xmlns:xlink="http://www.w3.org/1999/xlink">
<g id="graph0" class="graph" transform="scale(1 1) rotate(0) translate(4 107.5)">
<title>pyc::transform::separate::PxPyPzE</title>
<!-- Node1 -->
<g id="Node000001" class="node">
<title>Node1</title>
<g id="a_Node000001"><a xlink:title=" ">
<polygon fill="#999999" stroke="#666666" points="529,-60 392,-60 392,-30 529,-30 529,-60"/>
<text text-anchor="start" x="400" y="-48" font-family="Helvetica,sans-Serif" font-size="10.00">pyc::transform::separate</text>
<text text-anchor="middle" x="460.5" y="-37" font-family="Helvetica,sans-Serif" font-size="10.00">::PxPyPzE</text>
</a>
</g>
</g>
<!-- Node2 -->
<g id="Node000002" class="node">
<title>Node2</title>
<g id="a_Node000002"><a xlink:href="classgrift.html#a72f7575fbd1d744d4f9053e5b8b7ee38" target="_top" xlink:title="Virtual forward pass method for a single graph.">
<polygon fill="white" stroke="#666666" points="316,-85.5 236,-85.5 236,-66.5 316,-66.5 316,-85.5"/>
<text text-anchor="middle" x="276" y="-73.5" font-family="Helvetica,sans-Serif" font-size="10.00">grift::forward</text>
</a>
</g>
</g>
<!-- Node1&#45;&gt;Node2 -->
<g id="edge1_Node000001_Node000002" class="edge">
<title>Node1&#45;&gt;Node2</title>
<g id="a_edge1_Node000001_Node000002"><a xlink:title=" ">
<path fill="none" stroke="#63b8ff" d="M381.84,-58.19C359.2,-62.04 335.42,-66.08 316.23,-69.34"/>
<polygon fill="#63b8ff" stroke="#63b8ff" points="382.53,-61.62 391.8,-56.5 381.36,-54.72 382.53,-61.62"/>
</a>
</g>
</g>
<!-- Node4 -->
<g id="Node000004" class="node">
<title>Node4</title>
<g id="a_Node000004"><a xlink:href="classrecursivegraphneuralnetwork.html#a4b09bc8de8d9ecd0b4ff1ffa94deea98" target="_top" xlink:title="Virtual forward pass method for a single graph.">
<polygon fill="white" stroke="#666666" points="356,-30 196,-30 196,0 356,0 356,-30"/>
<text text-anchor="start" x="204" y="-18" font-family="Helvetica,sans-Serif" font-size="10.00">recursivegraphneuralnetwork</text>
<text text-anchor="middle" x="276" y="-7" font-family="Helvetica,sans-Serif" font-size="10.00">::forward</text>
</a>
</g>
</g>
<!-- Node1&#45;&gt;Node4 -->
<g id="edge5_Node000001_Node000004" class="edge">
<title>Node1&#45;&gt;Node4</title>
<g id="a_edge5_Node000001_Node000004"><a xlink:title=" ">
<path fill="none" stroke="#63b8ff" d="M381.94,-32.25C373.45,-30.85 364.8,-29.43 356.3,-28.04"/>
<polygon fill="#63b8ff" stroke="#63b8ff" points="381.37,-35.7 391.8,-33.87 382.5,-28.8 381.37,-35.7"/>
</a>
</g>
</g>
<!-- Node2&#45;&gt;Node2 -->
<g id="edge2_Node000002_Node000002" class="edge">
<title>Node2&#45;&gt;Node2</title>
<g id="a_edge2_Node000002_Node000002"><a xlink:title=" ">
<path fill="none" stroke="#63b8ff" d="M310.48,-93.57C309.98,-99.12 298.48,-103.5 276,-103.5 243.3,-103.5 233.84,-94.23 247.64,-85.58"/>
<polygon fill="#63b8ff" stroke="#63b8ff" points="313.22,-91.39 304.36,-85.58 307.66,-95.65 313.22,-91.39"/>
</a>
</g>
</g>
<!-- Node3 -->
<g id="Node000003" class="node">
<title>Node3</title>
<g id="a_Node000003"><a xlink:href="classgrift.html#ad610edcd0cab14b57197a846ab8a8caf" target="_top" xlink:title=" ">
<polygon fill="white" stroke="#666666" points="123,-85.5 37,-85.5 37,-66.5 123,-66.5 123,-85.5"/>
<text text-anchor="middle" x="80" y="-73.5" font-family="Helvetica,sans-Serif" font-size="10.00">grift::message</text>
</a>
</g>
</g>
<!-- Node2&#45;&gt;Node3 -->
<g id="edge3_Node000002_Node000003" class="edge">
<title>Node2&#45;&gt;Node3</title>
<g id="a_edge3_Node000002_Node000003"><a xlink:title=" ">
<path fill="none" stroke="#63b8ff" d="M225.39,-70.02C193.79,-68.9 153.29,-69 123.23,-70.32"/>
<polygon fill="#63b8ff" stroke="#63b8ff" points="225.61,-73.54 235.74,-70.45 225.89,-66.54 225.61,-73.54"/>
</a>
</g>
</g>
<!-- Node3&#45;&gt;Node2 -->
<g id="edge4_Node000003_Node000002" class="edge">
<title>Node3&#45;&gt;Node2</title>
<g id="a_edge4_Node000003_Node000002"><a xlink:title=" ">
<path fill="none" stroke="#63b8ff" d="M133.37,-82.07C165.62,-83.13 206.27,-82.95 235.74,-81.55"/>
<polygon fill="#63b8ff" stroke="#63b8ff" points="133.35,-78.57 123.23,-81.68 133.09,-85.56 133.35,-78.57"/>
</a>
</g>
</g>
<!-- Node4&#45;&gt;Node4 -->
<g id="edge6_Node000004_Node000004" class="edge">
<title>Node4&#45;&gt;Node4</title>
<g id="a_edge6_Node000004_Node000004"><a xlink:title=" ">
<path fill="none" stroke="#63b8ff" d="M308.21,-40.6C303.81,-44.97 293.07,-48 276,-48 247.25,-48 236.47,-39.41 243.66,-30.28"/>
<polygon fill="#63b8ff" stroke="#63b8ff" points="311.71,-40.32 308.34,-30.28 304.71,-40.23 311.71,-40.32"/>
</a>
</g>
</g>
<!-- Node5 -->
<g id="Node000005" class="node">
<title>Node5</title>
<g id="a_Node000005"><a xlink:href="classrecursivegraphneuralnetwork.html#a7c83216c5899b14dcc03ccf368209ee1" target="_top" xlink:title=" ">
<polygon fill="white" stroke="#666666" points="160,-30 0,-30 0,0 160,0 160,-30"/>
<text text-anchor="start" x="8" y="-18" font-family="Helvetica,sans-Serif" font-size="10.00">recursivegraphneuralnetwork</text>
<text text-anchor="middle" x="80" y="-7" font-family="Helvetica,sans-Serif" font-size="10.00">::message</text>
</a>
</g>
</g>
<!-- Node4&#45;&gt;Node5 -->
<g id="edge7_Node000004_Node000005" class="edge">
<title>Node4&#45;&gt;Node5</title>
<g id="a_edge7_Node000004_Node000005"><a xlink:title=" ">
<path fill="none" stroke="#63b8ff" d="M185.56,-8.27C177.12,-8.23 168.59,-8.26 160.25,-8.35"/>
<polygon fill="#63b8ff" stroke="#63b8ff" points="185.78,-11.77 195.81,-8.35 185.84,-4.77 185.78,-11.77"/>
</a>
</g>
</g>
<!-- Node5&#45;&gt;Node4 -->
<g id="edge8_Node000005_Node000004" class="edge">
<title>Node5&#45;&gt;Node4</title>
<g id="a_edge8_Node000005_Node000004"><a xlink:title=" ">
<path fill="none" stroke="#63b8ff" d="M170.5,-21.73C178.95,-21.77 187.47,-21.74 195.81,-21.65"/>
<polygon fill="#63b8ff" stroke="#63b8ff" points="170.28,-18.23 160.25,-21.65 170.22,-25.23 170.28,-18.23"/>
</a>
</g>
</g>
</g>
</svg>
