<?xml version="1.0" encoding="UTF-8" standalone="no"?>
<!DOCTYPE svg PUBLIC "-//W3C//DTD SVG 1.1//EN"
 "http://www.w3.org/Graphics/SVG/1.1/DTD/svg11.dtd">
<!-- Generated by graphviz version 2.43.0 (0)
 -->
<!-- Title: pyc::transform::separate::Phi Pages: 1 -->
<svg width="363pt" height="82pt"
 viewBox="0.00 0.00 363.00 82.00" xmlns="http://www.w3.org/2000/svg" xmlns:xlink="http://www.w3.org/1999/xlink">
<g id="graph0" class="graph" transform="scale(1 1) rotate(0) translate(4 78)">
<title>pyc::transform::separate::Phi</title>
<!-- Node1 -->
<g id="Node000001" class="node">
<title>Node1</title>
<g id="a_Node000001"><a xlink:title=" ">
<polygon fill="#999999" stroke="#666666" points="158,-46 0,-46 0,-27 158,-27 158,-46"/>
<text text-anchor="middle" x="79" y="-34" font-family="Helvetica,sans-Serif" font-size="10.00">pyc::transform::separate::Phi</text>
</a>
</g>
</g>
<!-- Node2 -->
<g id="Node000002" class="node">
<title>Node2</title>
<g id="a_Node000002"><a xlink:href="utils_8cxx.html#a123aed6d73594e07c6401a7a6c587808" target="_top" xlink:title=" ">
<polygon fill="white" stroke="#666666" points="274.5,-74 204.5,-74 204.5,-55 274.5,-55 274.5,-74"/>
<text text-anchor="middle" x="239.5" y="-62" font-family="Helvetica,sans-Serif" font-size="10.00">changedev</text>
</a>
</g>
</g>
<!-- Node1&#45;&gt;Node2 -->
<g id="edge1_Node000001_Node000002" class="edge">
<title>Node1&#45;&gt;Node2</title>
<g id="a_edge1_Node000001_Node000002"><a xlink:title=" ">
<path fill="none" stroke="#63b8ff" d="M134.1,-46.06C153.78,-49.53 175.76,-53.42 194.46,-56.72"/>
<polygon fill="#63b8ff" stroke="#63b8ff" points="194.01,-60.2 204.47,-58.49 195.23,-53.3 194.01,-60.2"/>
</a>
</g>
</g>
<!-- Node3 -->
<g id="Node000003" class="node">
<title>Node3</title>
<g id="a_Node000003"><a xlink:href="namespacetransform__.html#aa90019603231f23c1e857b5f5832b587" target="_top" xlink:title="Computes the azimuthal angle (Phi) from a momentum tensor.">
<polygon fill="white" stroke="#666666" points="285,-19 194,-19 194,0 285,0 285,-19"/>
<text text-anchor="middle" x="239.5" y="-7" font-family="Helvetica,sans-Serif" font-size="10.00">transform_::Phi</text>
</a>
</g>
</g>
<!-- Node1&#45;&gt;Node3 -->
<g id="edge2_Node000001_Node000003" class="edge">
<title>Node1&#45;&gt;Node3</title>
<g id="a_edge2_Node000001_Node000003"><a xlink:title=" ">
<path fill="none" stroke="#63b8ff" d="M135.88,-26.98C151.45,-24.33 168.35,-21.45 183.85,-18.81"/>
<polygon fill="#63b8ff" stroke="#63b8ff" points="184.54,-22.24 193.81,-17.11 183.36,-15.34 184.54,-22.24"/>
</a>
</g>
</g>
<!-- Node3&#45;&gt;Node3 -->
<g id="edge4_Node000003_Node000003" class="edge">
<title>Node3&#45;&gt;Node3</title>
<g id="a_edge4_Node000003_Node000003"><a xlink:title=" ">
<path fill="none" stroke="#63b8ff" d="M224.4,-19.08C217.05,-27.73 222.08,-37 239.5,-37 250.11,-37 256.13,-33.56 257.55,-28.91"/>
<polygon fill="#63b8ff" stroke="#63b8ff" points="260.83,-27.66 254.6,-19.08 254.12,-29.67 260.83,-27.66"/>
</a>
</g>
</g>
<!-- Node4 -->
<g id="Node000004" class="node">
<title>Node4</title>
<g id="a_Node000004"><a xlink:href="utils_8cxx.html#aaec9ca2d20716add3c686abd989934d0" target="_top" xlink:title=" ">
<polygon fill="white" stroke="#666666" points="355,-19 321,-19 321,0 355,0 355,-19"/>
<text text-anchor="middle" x="338" y="-7" font-family="Helvetica,sans-Serif" font-size="10.00">clip</text>
</a>
</g>
</g>
<!-- Node3&#45;&gt;Node4 -->
<g id="edge3_Node000003_Node000004" class="edge">
<title>Node3&#45;&gt;Node4</title>
<g id="a_edge3_Node000003_Node000004"><a xlink:title=" ">
<path fill="none" stroke="#63b8ff" d="M285.08,-9.5C293.91,-9.5 302.9,-9.5 310.86,-9.5"/>
<polygon fill="#63b8ff" stroke="#63b8ff" points="310.98,-13 320.98,-9.5 310.98,-6 310.98,-13"/>
</a>
</g>
</g>
</g>
</svg>
