<?xml version="1.0" encoding="UTF-8" standalone="no"?>
<!DOCTYPE svg PUBLIC "-//W3C//DTD SVG 1.1//EN"
 "http://www.w3.org/Graphics/SVG/1.1/DTD/svg11.dtd">
<!-- Generated by graphviz version 2.43.0 (0)
 -->
<!-- Title: pyc::physics::cartesian::separate::M2 Pages: 1 -->
<svg width="338pt" height="82pt"
 viewBox="0.00 0.00 338.00 82.00" xmlns="http://www.w3.org/2000/svg" xmlns:xlink="http://www.w3.org/1999/xlink">

<svg id="main" version="1.1" xmlns="http://www.w3.org/2000/svg" xmlns:xlink="http://www.w3.org/1999/xlink" xml:space="preserve" onload="init(evt)">
<style type="text/css"><![CDATA[
.node, .edge {opacity: 0.7;}
.node.selected, .edge.selected {opacity: 1;}
.edge:hover path { stroke: red; }
.edge:hover polygon { stroke: red; fill: red; }
]]></style>
<script type="application/ecmascript" xlink:href="svg.min.js"/>
<svg id="graph" class="graph">
<g id="graph0" class="graph" transform="scale(1 1) rotate(0) translate(4 78)">
<title>pyc::physics::cartesian::separate::M2</title>
<!-- Node1 -->
<g id="Node000001" class="node">
<title>Node1</title>
<g id="a_Node000001"><a xlink:title=" ">
<polygon fill="#999999" stroke="#666666" points="128,-51.5 0,-51.5 0,-21.5 128,-21.5 128,-51.5"/>
<text text-anchor="start" x="8" y="-39.5" font-family="Helvetica,sans-Serif" font-size="10.00">pyc::physics::cartesian</text>
<text text-anchor="middle" x="64" y="-28.5" font-family="Helvetica,sans-Serif" font-size="10.00">::separate::M2</text>
</a>
</g>
</g>
<!-- Node2 -->
<g id="Node000002" class="node">
<title>Node2</title>
<g id="a_Node000002"><a xlink:href="utils_8cxx.html#a123aed6d73594e07c6401a7a6c587808" target="_top" xlink:title=" ">
<polygon fill="white" stroke="#666666" points="239,-74 169,-74 169,-55 239,-55 239,-74"/>
<text text-anchor="middle" x="204" y="-62" font-family="Helvetica,sans-Serif" font-size="10.00">changedev</text>
</a>
</g>
</g>
<!-- Node1&#45;&gt;Node2 -->
<g id="edge1_Node000001_Node000002" class="edge">
<title>Node1&#45;&gt;Node2</title>
<g id="a_edge1_Node000001_Node000002"><a xlink:title=" ">
<path fill="none" stroke="#63b8ff" d="M128.35,-49.35C138.65,-51.44 149.13,-53.57 158.85,-55.54"/>
<polygon fill="#63b8ff" stroke="#63b8ff" points="158.16,-58.97 168.66,-57.53 159.56,-52.11 158.16,-58.97"/>
</a>
</g>
</g>
<!-- Node3 -->
<g id="Node000003" class="node">
<title>Node3</title>
<g id="a_Node000003"><a xlink:href="namespacephysics__.html#a7787594305d4a156c31be581401b0b0b" target="_top" xlink:title="Computes the square of the invariant mass.">
<polygon fill="white" stroke="#666666" points="244,-19 164,-19 164,0 244,0 244,-19"/>
<text text-anchor="middle" x="204" y="-7" font-family="Helvetica,sans-Serif" font-size="10.00">physics_::M2</text>
</a>
</g>
</g>
<!-- Node1&#45;&gt;Node3 -->
<g id="edge2_Node000001_Node000003" class="edge">
<title>Node1&#45;&gt;Node3</title>
<g id="a_edge2_Node000001_Node000003"><a xlink:title=" ">
<path fill="none" stroke="#63b8ff" d="M128.35,-24.11C136.91,-22.43 145.59,-20.73 153.85,-19.12"/>
<polygon fill="#63b8ff" stroke="#63b8ff" points="154.55,-22.55 163.69,-17.19 153.21,-15.68 154.55,-22.55"/>
</a>
</g>
</g>
<!-- Node3&#45;&gt;Node3 -->
<g id="edge4_Node000003_Node000003" class="edge">
<title>Node3&#45;&gt;Node3</title>
<g id="a_edge4_Node000003_Node000003"><a xlink:title=" ">
<path fill="none" stroke="#63b8ff" d="M188.59,-19.08C181.09,-27.73 186.23,-37 204,-37 214.83,-37 220.97,-33.56 222.42,-28.91"/>
<polygon fill="#63b8ff" stroke="#63b8ff" points="225.68,-27.62 219.41,-19.08 218.99,-29.67 225.68,-27.62"/>
</a>
</g>
</g>
<!-- Node4 -->
<g id="Node000004" class="node">
<title>Node4</title>
<g id="a_Node000004"><a xlink:href="utils_8cxx.html#a9c1cdc6384bce6bdc92ca917b3f656bf" target="_top" xlink:title=" ">
<polygon fill="white" stroke="#666666" points="330,-19 280,-19 280,0 330,0 330,-19"/>
<text text-anchor="middle" x="305" y="-7" font-family="Helvetica,sans-Serif" font-size="10.00">format</text>
</a>
</g>
</g>
<!-- Node3&#45;&gt;Node4 -->
<g id="edge3_Node000003_Node000004" class="edge">
<title>Node3&#45;&gt;Node4</title>
<g id="a_edge3_Node000003_Node000004"><a xlink:title=" ">
<path fill="none" stroke="#63b8ff" d="M244.13,-9.5C252.64,-9.5 261.58,-9.5 269.88,-9.5"/>
<polygon fill="#63b8ff" stroke="#63b8ff" points="269.97,-13 279.97,-9.5 269.97,-6 269.97,-13"/>
</a>
</g>
</g>
</g>
</svg>
</svg>

<style type='text/css'>
<![CDATA[
[data-mouse-over-selected='false'] { opacity: 0.7; }
[data-mouse-over-selected='true']  { opacity: 1.0; }
]]>
</style>
<script type="application/ecmascript"><![CDATA[
document.addEventListener('DOMContentLoaded', (event) => {
  highlightEdges();
  highlightAdjacentNodes();
});
]]></script>
</svg>
