<?xml version="1.0" encoding="UTF-8" standalone="no"?>
<!DOCTYPE svg PUBLIC "-//W3C//DTD SVG 1.1//EN"
 "http://www.w3.org/Graphics/SVG/1.1/DTD/svg11.dtd">
<!-- Generated by graphviz version 2.43.0 (0)
 -->
<!-- Title: transform_::PxPyPzE Pages: 1 -->
<svg width="396pt" height="101pt"
 viewBox="0.00 0.00 396.00 101.00" xmlns="http://www.w3.org/2000/svg" xmlns:xlink="http://www.w3.org/1999/xlink">
<g id="graph0" class="graph" transform="scale(1 1) rotate(0) translate(4 97)">
<title>transform_::PxPyPzE</title>
<!-- Node1 -->
<g id="Node000001" class="node">
<title>Node1</title>
<g id="a_Node000001"><a xlink:title="Computes the 4&#45;momentum (Px, Py, Pz, E).">
<polygon fill="#999999" stroke="#666666" points="117,-56 0,-56 0,-37 117,-37 117,-56"/>
<text text-anchor="middle" x="58.5" y="-44" font-family="Helvetica,sans-Serif" font-size="10.00">transform_::PxPyPzE</text>
</a>
</g>
</g>
<!-- Node2 -->
<g id="Node000002" class="node">
<title>Node2</title>
<g id="a_Node000002"><a xlink:href="namespacetransform__.html#aa38819d479d31edd3f79b4f8e96ef8be" target="_top" xlink:title="Computes the 3&#45;momentum (Px, Py, Pz).">
<polygon fill="white" stroke="#666666" points="264,-56 153,-56 153,-37 264,-37 264,-56"/>
<text text-anchor="middle" x="208.5" y="-44" font-family="Helvetica,sans-Serif" font-size="10.00">transform_::PxPyPz</text>
</a>
</g>
</g>
<!-- Node1&#45;&gt;Node2 -->
<g id="edge1_Node000001_Node000002" class="edge">
<title>Node1&#45;&gt;Node2</title>
<g id="a_edge1_Node000001_Node000002"><a xlink:title=" ">
<path fill="none" stroke="#63b8ff" d="M117.14,-46.5C125.45,-46.5 134.05,-46.5 142.49,-46.5"/>
<polygon fill="#63b8ff" stroke="#63b8ff" points="142.68,-50 152.68,-46.5 142.68,-43 142.68,-50"/>
</a>
</g>
</g>
<!-- Node3 -->
<g id="Node000003" class="node">
<title>Node3</title>
<g id="a_Node000003"><a xlink:href="namespacetransform__.html#a4573dda96168ebbd38a408e64cc3d5ff" target="_top" xlink:title="Computes the x&#45;component of momentum (Px).">
<polygon fill="white" stroke="#666666" points="388,-93 300,-93 300,-74 388,-74 388,-93"/>
<text text-anchor="middle" x="344" y="-81" font-family="Helvetica,sans-Serif" font-size="10.00">transform_::Px</text>
</a>
</g>
</g>
<!-- Node2&#45;&gt;Node3 -->
<g id="edge2_Node000002_Node000003" class="edge">
<title>Node2&#45;&gt;Node3</title>
<g id="a_edge2_Node000002_Node000003"><a xlink:title=" ">
<path fill="none" stroke="#63b8ff" d="M243.88,-56.03C260.41,-60.61 280.44,-66.16 298.15,-71.07"/>
<polygon fill="#63b8ff" stroke="#63b8ff" points="297.7,-74.58 308.27,-73.88 299.57,-67.83 297.7,-74.58"/>
</a>
</g>
</g>
<!-- Node4 -->
<g id="Node000004" class="node">
<title>Node4</title>
<g id="a_Node000004"><a xlink:href="namespacetransform__.html#a51363ab29a6390a86a8ea75573a7a196" target="_top" xlink:title="Computes the y&#45;component of momentum (Py).">
<polygon fill="white" stroke="#666666" points="388,-56 300,-56 300,-37 388,-37 388,-56"/>
<text text-anchor="middle" x="344" y="-44" font-family="Helvetica,sans-Serif" font-size="10.00">transform_::Py</text>
</a>
</g>
</g>
<!-- Node2&#45;&gt;Node4 -->
<g id="edge3_Node000002_Node000004" class="edge">
<title>Node2&#45;&gt;Node4</title>
<g id="a_edge3_Node000002_Node000004"><a xlink:title=" ">
<path fill="none" stroke="#63b8ff" d="M264.18,-46.5C272.58,-46.5 281.24,-46.5 289.61,-46.5"/>
<polygon fill="#63b8ff" stroke="#63b8ff" points="289.63,-50 299.63,-46.5 289.63,-43 289.63,-50"/>
</a>
</g>
</g>
<!-- Node5 -->
<g id="Node000005" class="node">
<title>Node5</title>
<g id="a_Node000005"><a xlink:href="namespacetransform__.html#a28be39b0041a97b1667ccd1ff301f784" target="_top" xlink:title="Computes the z&#45;component of momentum (Pz).">
<polygon fill="white" stroke="#666666" points="387.5,-19 300.5,-19 300.5,0 387.5,0 387.5,-19"/>
<text text-anchor="middle" x="344" y="-7" font-family="Helvetica,sans-Serif" font-size="10.00">transform_::Pz</text>
</a>
</g>
</g>
<!-- Node2&#45;&gt;Node5 -->
<g id="edge4_Node000002_Node000005" class="edge">
<title>Node2&#45;&gt;Node5</title>
<g id="a_edge4_Node000002_Node000005"><a xlink:title=" ">
<path fill="none" stroke="#63b8ff" d="M243.88,-36.97C260.41,-32.39 280.44,-26.84 298.15,-21.93"/>
<polygon fill="#63b8ff" stroke="#63b8ff" points="299.57,-25.17 308.27,-19.12 297.7,-18.42 299.57,-25.17"/>
</a>
</g>
</g>
</g>
</svg>
