<?xml version="1.0" encoding="UTF-8" standalone="no"?>
<!DOCTYPE svg PUBLIC "-//W3C//DTD SVG 1.1//EN"
 "http://www.w3.org/Graphics/SVG/1.1/DTD/svg11.dtd">
<!-- Generated by graphviz version 2.43.0 (0)
 -->
<!-- Title: graph_::node_aggregation Pages: 1 -->
<svg width="348pt" height="172pt"
 viewBox="0.00 0.00 348.00 171.50" xmlns="http://www.w3.org/2000/svg" xmlns:xlink="http://www.w3.org/1999/xlink">

<svg id="main" version="1.1" xmlns="http://www.w3.org/2000/svg" xmlns:xlink="http://www.w3.org/1999/xlink" xml:space="preserve" onload="init(evt)">
<style type="text/css"><![CDATA[
.node, .edge {opacity: 0.7;}
.node.selected, .edge.selected {opacity: 1;}
.edge:hover path { stroke: red; }
.edge:hover polygon { stroke: red; fill: red; }
]]></style>
<script type="application/ecmascript" xlink:href="svg.min.js"/>
<svg id="graph" class="graph">
<g id="graph0" class="graph" transform="scale(1 1) rotate(0) translate(4 167.5)">
<title>graph_::node_aggregation</title>
<!-- Node1 -->
<g id="Node000001" class="node">
<title>Node1</title>
<g id="a_Node000001"><a xlink:title=" ">
<polygon fill="#999999" stroke="#666666" points="340,-96.5 197,-96.5 197,-77.5 340,-77.5 340,-96.5"/>
<text text-anchor="middle" x="268.5" y="-84.5" font-family="Helvetica,sans-Serif" font-size="10.00">graph_::node_aggregation</text>
</a>
</g>
</g>
<!-- Node2 -->
<g id="Node000002" class="node">
<title>Node2</title>
<g id="a_Node000002"><a xlink:href="namespacepyc_1_1graph.html#a122f7af31a0d3d53790f3389ffef5073" target="_top" xlink:title=" ">
<polygon fill="white" stroke="#666666" points="161,-163.5 0,-163.5 0,-144.5 161,-144.5 161,-163.5"/>
<text text-anchor="middle" x="80.5" y="-151.5" font-family="Helvetica,sans-Serif" font-size="10.00">pyc::graph::node_aggregation</text>
</a>
</g>
</g>
<!-- Node1&#45;&gt;Node2 -->
<g id="edge1_Node000001_Node000002" class="edge">
<title>Node1&#45;&gt;Node2</title>
<g id="a_edge1_Node000001_Node000002"><a xlink:title=" ">
<path fill="none" stroke="#63b8ff" d="M240.03,-101.12C218.86,-111.56 188.63,-125.57 161,-135 150.52,-138.58 139.05,-141.74 128.16,-144.4"/>
<polygon fill="#63b8ff" stroke="#63b8ff" points="241.7,-104.19 249.08,-96.59 238.57,-97.93 241.7,-104.19"/>
</a>
</g>
</g>
<!-- Node3 -->
<g id="Node000003" class="node">
<title>Node3</title>
<g id="a_Node000003"><a xlink:href="namespacepyc_1_1graph_1_1cartesian.html#a876b2614216840138fb428e66f4938b8" target="_top" xlink:title=" ">
<polygon fill="white" stroke="#666666" points="140,-126 21,-126 21,-96 140,-96 140,-126"/>
<text text-anchor="start" x="29" y="-114" font-family="Helvetica,sans-Serif" font-size="10.00">pyc::graph::cartesian</text>
<text text-anchor="middle" x="80.5" y="-103" font-family="Helvetica,sans-Serif" font-size="10.00">::node_aggregation</text>
</a>
</g>
</g>
<!-- Node1&#45;&gt;Node3 -->
<g id="edge2_Node000001_Node000003" class="edge">
<title>Node1&#45;&gt;Node3</title>
<g id="a_edge2_Node000001_Node000003"><a xlink:title=" ">
<path fill="none" stroke="#63b8ff" d="M186.73,-97.42C171.09,-99.44 154.99,-101.52 140.22,-103.42"/>
<polygon fill="#63b8ff" stroke="#63b8ff" points="187.45,-100.86 196.92,-96.11 186.55,-93.92 187.45,-100.86"/>
</a>
</g>
</g>
<!-- Node4 -->
<g id="Node000004" class="node">
<title>Node4</title>
<g id="a_Node000004"><a xlink:href="namespacepyc_1_1graph_1_1polar.html#a2214179747b4d328f815a532e6d4fdcf" target="_top" xlink:title=" ">
<polygon fill="white" stroke="#666666" points="132.5,-78 28.5,-78 28.5,-48 132.5,-48 132.5,-78"/>
<text text-anchor="start" x="36.5" y="-66" font-family="Helvetica,sans-Serif" font-size="10.00">pyc::graph::polar::</text>
<text text-anchor="middle" x="80.5" y="-55" font-family="Helvetica,sans-Serif" font-size="10.00">node_aggregation</text>
</a>
</g>
</g>
<!-- Node1&#45;&gt;Node4 -->
<g id="edge3_Node000001_Node000004" class="edge">
<title>Node1&#45;&gt;Node4</title>
<g id="a_edge3_Node000001_Node000004"><a xlink:title=" ">
<path fill="none" stroke="#63b8ff" d="M186.79,-76.59C168.41,-74.21 149.38,-71.76 132.64,-69.6"/>
<polygon fill="#63b8ff" stroke="#63b8ff" points="186.55,-80.08 196.92,-77.89 187.45,-73.14 186.55,-80.08"/>
</a>
</g>
</g>
<!-- Node5 -->
<g id="Node000005" class="node">
<title>Node5</title>
<g id="a_Node000005"><a xlink:href="namespacepyc_1_1graph_1_1cartesian.html#a6a2ffe369ee9d484a004f40351db4215" target="_top" xlink:title=" ">
<polygon fill="white" stroke="#666666" points="140,-30 21,-30 21,0 140,0 140,-30"/>
<text text-anchor="start" x="29" y="-18" font-family="Helvetica,sans-Serif" font-size="10.00">pyc::graph::cartesian</text>
<text text-anchor="middle" x="80.5" y="-7" font-family="Helvetica,sans-Serif" font-size="10.00">::node_aggregation</text>
</a>
</g>
</g>
<!-- Node1&#45;&gt;Node5 -->
<g id="edge4_Node000001_Node000005" class="edge">
<title>Node1&#45;&gt;Node5</title>
<g id="a_edge4_Node000001_Node000005"><a xlink:title=" ">
<path fill="none" stroke="#63b8ff" d="M239.09,-72.98C217.88,-62.81 188.01,-49.12 161,-39 152.63,-35.87 143.65,-32.84 134.85,-30.06"/>
<polygon fill="#63b8ff" stroke="#63b8ff" points="237.66,-76.17 248.19,-77.38 240.71,-69.87 237.66,-76.17"/>
</a>
</g>
</g>
</g>
</svg>
</svg>

<style type='text/css'>
<![CDATA[
[data-mouse-over-selected='false'] { opacity: 0.7; }
[data-mouse-over-selected='true']  { opacity: 1.0; }
]]>
</style>
<script type="application/ecmascript"><![CDATA[
document.addEventListener('DOMContentLoaded', (event) => {
  highlightEdges();
  highlightAdjacentNodes();
});
]]></script>
</svg>
