<?xml version="1.0" encoding="UTF-8" standalone="no"?>
<!DOCTYPE svg PUBLIC "-//W3C//DTD SVG 1.1//EN"
 "http://www.w3.org/Graphics/SVG/1.1/DTD/svg11.dtd">
<!-- Generated by graphviz version 2.43.0 (0)
 -->
<!-- Title: pyc::transform::combined::Py Pages: 1 -->
<svg width="292pt" height="64pt"
 viewBox="0.00 0.00 292.00 64.00" xmlns="http://www.w3.org/2000/svg" xmlns:xlink="http://www.w3.org/1999/xlink">
<g id="graph0" class="graph" transform="scale(1 1) rotate(0) translate(4 60)">
<title>pyc::transform::combined::Py</title>
<!-- Node1 -->
<g id="Node000001" class="node">
<title>Node1</title>
<g id="a_Node000001"><a xlink:title=" ">
<polygon fill="#999999" stroke="#666666" points="160,-37 0,-37 0,-18 160,-18 160,-37"/>
<text text-anchor="middle" x="80" y="-25" font-family="Helvetica,sans-Serif" font-size="10.00">pyc::transform::combined::Py</text>
</a>
</g>
</g>
<!-- Node2 -->
<g id="Node000002" class="node">
<title>Node2</title>
<g id="a_Node000002"><a xlink:href="utils_8cxx.html#a123aed6d73594e07c6401a7a6c587808" target="_top" xlink:title=" ">
<polygon fill="white" stroke="#666666" points="275,-56 205,-56 205,-37 275,-37 275,-56"/>
<text text-anchor="middle" x="240" y="-44" font-family="Helvetica,sans-Serif" font-size="10.00">changedev</text>
</a>
</g>
</g>
<!-- Node1&#45;&gt;Node2 -->
<g id="edge1_Node000001_Node000002" class="edge">
<title>Node1&#45;&gt;Node2</title>
<g id="a_edge1_Node000001_Node000002"><a xlink:title=" ">
<path fill="none" stroke="#63b8ff" d="M160.46,-37.06C172.34,-38.48 184.21,-39.91 194.99,-41.21"/>
<polygon fill="#63b8ff" stroke="#63b8ff" points="194.6,-44.69 204.95,-42.41 195.44,-37.74 194.6,-44.69"/>
</a>
</g>
</g>
<!-- Node3 -->
<g id="Node000003" class="node">
<title>Node3</title>
<g id="a_Node000003"><a xlink:href="namespacetransform__.html#a51363ab29a6390a86a8ea75573a7a196" target="_top" xlink:title="Computes the y&#45;component of momentum (Py).">
<polygon fill="white" stroke="#666666" points="284,-19 196,-19 196,0 284,0 284,-19"/>
<text text-anchor="middle" x="240" y="-7" font-family="Helvetica,sans-Serif" font-size="10.00">transform_::Py</text>
</a>
</g>
</g>
<!-- Node1&#45;&gt;Node3 -->
<g id="edge2_Node000001_Node000003" class="edge">
<title>Node1&#45;&gt;Node3</title>
<g id="a_edge2_Node000001_Node000003"><a xlink:title=" ">
<path fill="none" stroke="#63b8ff" d="M160.46,-18.45C169,-17.47 177.53,-16.5 185.65,-15.58"/>
<polygon fill="#63b8ff" stroke="#63b8ff" points="186.16,-19.04 195.7,-14.43 185.36,-12.09 186.16,-19.04"/>
</a>
</g>
</g>
</g>
</svg>
