<?xml version="1.0" encoding="UTF-8" standalone="no"?>
<!DOCTYPE svg PUBLIC "-//W3C//DTD SVG 1.1//EN"
 "http://www.w3.org/Graphics/SVG/1.1/DTD/svg11.dtd">
<!-- Generated by graphviz version 2.43.0 (0)
 -->
<!-- Title: _H_perp Pages: 1 -->
<svg width="643pt" height="119pt"
 viewBox="0.00 0.00 643.00 119.00" xmlns="http://www.w3.org/2000/svg" xmlns:xlink="http://www.w3.org/1999/xlink">
<g id="graph0" class="graph" transform="scale(1 1) rotate(0) translate(4 115)">
<title>_H_perp</title>
<!-- Node1 -->
<g id="Node000001" class="node">
<title>Node1</title>
<g id="a_Node000001"><a xlink:title=" ">
<polygon fill="#999999" stroke="#666666" points="635,-92 579,-92 579,-73 635,-73 635,-92"/>
<text text-anchor="middle" x="607" y="-80" font-family="Helvetica,sans-Serif" font-size="10.00">_H_perp</text>
</a>
</g>
</g>
<!-- Node2 -->
<g id="Node000002" class="node">
<title>Node2</title>
<g id="a_Node000002"><a xlink:href="namespacenusol__.html#a3aacd3a83799d6a470d6188008fd069a" target="_top" xlink:title=" ">
<polygon fill="white" stroke="#666666" points="543,-111 460,-111 460,-92 543,-92 543,-111"/>
<text text-anchor="middle" x="501.5" y="-99" font-family="Helvetica,sans-Serif" font-size="10.00">nusol_::Hperp</text>
</a>
</g>
</g>
<!-- Node1&#45;&gt;Node2 -->
<g id="edge1_Node000001_Node000002" class="edge">
<title>Node1&#45;&gt;Node2</title>
<g id="a_edge1_Node000001_Node000002"><a xlink:title=" ">
<path fill="none" stroke="#63b8ff" d="M568.95,-89.3C560.58,-90.84 551.66,-92.48 543.15,-94.04"/>
<polygon fill="#63b8ff" stroke="#63b8ff" points="569.6,-92.74 578.81,-87.49 568.34,-85.86 569.6,-92.74"/>
</a>
</g>
</g>
<!-- Node3 -->
<g id="Node000003" class="node">
<title>Node3</title>
<g id="a_Node000003"><a xlink:href="namespacenusol__.html#ac849ef3564c5ac968727dce36494fd0a" target="_top" xlink:title=" ">
<polygon fill="white" stroke="#666666" points="542,-74 461,-74 461,-55 542,-55 542,-74"/>
<text text-anchor="middle" x="501.5" y="-62" font-family="Helvetica,sans-Serif" font-size="10.00">nusol_::NuNu</text>
</a>
</g>
</g>
<!-- Node1&#45;&gt;Node3 -->
<g id="edge2_Node000001_Node000003" class="edge">
<title>Node1&#45;&gt;Node3</title>
<g id="a_edge2_Node000001_Node000003"><a xlink:title=" ">
<path fill="none" stroke="#63b8ff" d="M568.72,-76.02C560.16,-74.53 551.03,-72.94 542.36,-71.43"/>
<polygon fill="#63b8ff" stroke="#63b8ff" points="568.35,-79.51 578.81,-77.77 569.55,-72.61 568.35,-79.51"/>
</a>
</g>
</g>
<!-- Node4 -->
<g id="Node000004" class="node">
<title>Node4</title>
<g id="a_Node000004"><a xlink:href="namespacepyc_1_1nusol.html#af7bb509b120cb3314695cecd70bc5c11" target="_top" xlink:title=" ">
<polygon fill="white" stroke="#666666" points="424,-93 325,-93 325,-74 424,-74 424,-93"/>
<text text-anchor="middle" x="374.5" y="-81" font-family="Helvetica,sans-Serif" font-size="10.00">pyc::nusol::NuNu</text>
</a>
</g>
</g>
<!-- Node3&#45;&gt;Node4 -->
<g id="edge3_Node000003_Node000004" class="edge">
<title>Node3&#45;&gt;Node4</title>
<g id="a_edge3_Node000003_Node000004"><a xlink:title=" ">
<path fill="none" stroke="#63b8ff" d="M450.8,-72.05C441.98,-73.4 432.8,-74.79 424.01,-76.13"/>
<polygon fill="#63b8ff" stroke="#63b8ff" points="451.59,-75.47 460.95,-70.51 450.54,-68.55 451.59,-75.47"/>
</a>
</g>
</g>
<!-- Node5 -->
<g id="Node000005" class="node">
<title>Node5</title>
<g id="a_Node000005"><a xlink:href="namespacepyc_1_1nusol.html#a9650527ae538fa27121bedfb79a1fbe6" target="_top" xlink:title=" ">
<polygon fill="white" stroke="#666666" points="424,-56 325,-56 325,-37 424,-37 424,-56"/>
<text text-anchor="middle" x="374.5" y="-44" font-family="Helvetica,sans-Serif" font-size="10.00">pyc::nusol::NuNu</text>
</a>
</g>
</g>
<!-- Node3&#45;&gt;Node5 -->
<g id="edge4_Node000003_Node000005" class="edge">
<title>Node3&#45;&gt;Node5</title>
<g id="a_edge4_Node000003_Node000005"><a xlink:title=" ">
<path fill="none" stroke="#63b8ff" d="M450.8,-57.34C441.98,-56.07 432.8,-54.75 424.01,-53.49"/>
<polygon fill="#63b8ff" stroke="#63b8ff" points="450.55,-60.84 460.95,-58.8 451.55,-53.92 450.55,-60.84"/>
</a>
</g>
</g>
<!-- Node6 -->
<g id="Node000006" class="node">
<title>Node6</title>
<g id="a_Node000006"><a xlink:href="namespacepyc_1_1nusol.html#aaaf252028ed63bf2d561dffcd76916e2" target="_top" xlink:title=" ">
<polygon fill="white" stroke="#666666" points="268,-93 169,-93 169,-74 268,-74 268,-93"/>
<text text-anchor="middle" x="218.5" y="-81" font-family="Helvetica,sans-Serif" font-size="10.00">pyc::nusol::NuNu</text>
</a>
</g>
</g>
<!-- Node5&#45;&gt;Node6 -->
<g id="edge5_Node000005_Node000006" class="edge">
<title>Node5&#45;&gt;Node6</title>
<g id="a_edge5_Node000005_Node000006"><a xlink:title=" ">
<path fill="none" stroke="#63b8ff" d="M323.87,-58.43C302.97,-63.44 278.99,-69.21 259.29,-73.94"/>
<polygon fill="#63b8ff" stroke="#63b8ff" points="324.94,-61.77 333.84,-56.03 323.3,-54.96 324.94,-61.77"/>
</a>
</g>
</g>
<!-- Node7 -->
<g id="Node000007" class="node">
<title>Node7</title>
<g id="a_Node000007"><a xlink:href="namespacepyc_1_1nusol.html#af88804c21a54435a41be99cbc03faf30" target="_top" xlink:title=" ">
<polygon fill="white" stroke="#666666" points="268,-56 169,-56 169,-37 268,-37 268,-56"/>
<text text-anchor="middle" x="218.5" y="-44" font-family="Helvetica,sans-Serif" font-size="10.00">pyc::nusol::NuNu</text>
</a>
</g>
</g>
<!-- Node5&#45;&gt;Node7 -->
<g id="edge6_Node000005_Node000007" class="edge">
<title>Node5&#45;&gt;Node7</title>
<g id="a_edge6_Node000005_Node000007"><a xlink:title=" ">
<path fill="none" stroke="#63b8ff" d="M314.39,-46.5C299.12,-46.5 282.85,-46.5 268.17,-46.5"/>
<polygon fill="#63b8ff" stroke="#63b8ff" points="314.77,-50 324.77,-46.5 314.77,-43 314.77,-50"/>
</a>
</g>
</g>
<!-- Node8 -->
<g id="Node000008" class="node">
<title>Node8</title>
<g id="a_Node000008"><a xlink:href="classvalidation.html#aa436b348c281a3d676910cf7b7d575eb" target="_top" xlink:title=" ">
<polygon fill="white" stroke="#666666" points="289,-19 148,-19 148,0 289,0 289,-19"/>
<text text-anchor="middle" x="218.5" y="-7" font-family="Helvetica,sans-Serif" font-size="10.00">validation::reconstruction</text>
</a>
</g>
</g>
<!-- Node5&#45;&gt;Node8 -->
<g id="edge7_Node000005_Node000008" class="edge">
<title>Node5&#45;&gt;Node8</title>
<g id="a_edge7_Node000005_Node000008"><a xlink:title=" ">
<path fill="none" stroke="#63b8ff" d="M323.87,-34.57C302.97,-29.56 278.99,-23.79 259.29,-19.06"/>
<polygon fill="#63b8ff" stroke="#63b8ff" points="323.3,-38.04 333.84,-36.97 324.94,-31.23 323.3,-38.04"/>
</a>
</g>
</g>
<!-- Node9 -->
<g id="Node000009" class="node">
<title>Node9</title>
<g id="a_Node000009"><a xlink:href="classvalidation.html#af388ba0e867008a75602581fdc2ed0f3" target="_top" xlink:title="Alternative selection strategy method.">
<polygon fill="white" stroke="#666666" points="112,-19 0,-19 0,0 112,0 112,-19"/>
<text text-anchor="middle" x="56" y="-7" font-family="Helvetica,sans-Serif" font-size="10.00">validation::strategy</text>
</a>
</g>
</g>
<!-- Node8&#45;&gt;Node9 -->
<g id="edge8_Node000008_Node000009" class="edge">
<title>Node8&#45;&gt;Node9</title>
<g id="a_edge8_Node000008_Node000009"><a xlink:title=" ">
<path fill="none" stroke="#63b8ff" d="M137.54,-9.5C128.98,-9.5 120.41,-9.5 112.23,-9.5"/>
<polygon fill="#63b8ff" stroke="#63b8ff" points="137.57,-13 147.57,-9.5 137.57,-6 137.57,-13"/>
</a>
</g>
</g>
</g>
</svg>
