<?xml version="1.0" encoding="UTF-8" standalone="no"?>
<!DOCTYPE svg PUBLIC "-//W3C//DTD SVG 1.1//EN"
 "http://www.w3.org/Graphics/SVG/1.1/DTD/svg11.dtd">
<!-- Generated by graphviz version 2.43.0 (0)
 -->
<!-- Title: Pi_2 Pages: 1 -->
<svg width="718pt" height="156pt"
 viewBox="0.00 0.00 718.00 156.00" xmlns="http://www.w3.org/2000/svg" xmlns:xlink="http://www.w3.org/1999/xlink">
<g id="graph0" class="graph" transform="scale(1 1) rotate(0) translate(4 152)">
<title>Pi_2</title>
<!-- Node1 -->
<g id="Node000001" class="node">
<title>Node1</title>
<g id="a_Node000001"><a xlink:title=" ">
<polygon fill="#999999" stroke="#666666" points="710,-129 673,-129 673,-110 710,-110 710,-129"/>
<text text-anchor="middle" x="691.5" y="-117" font-family="Helvetica,sans-Serif" font-size="10.00">Pi_2</text>
</a>
</g>
</g>
<!-- Node2 -->
<g id="Node000002" class="node">
<title>Node2</title>
<g id="a_Node000002"><a xlink:href="nusol_2tensor_2nusol_8cxx.html#ab477f38adf15df486af1a3311204aa26" target="_top" xlink:title=" ">
<polygon fill="white" stroke="#666666" points="522,-148 481,-148 481,-129 522,-129 522,-148"/>
<text text-anchor="middle" x="501.5" y="-136" font-family="Helvetica,sans-Serif" font-size="10.00">_xNu</text>
</a>
</g>
</g>
<!-- Node1&#45;&gt;Node2 -->
<g id="edge1_Node000001_Node000002" class="edge">
<title>Node1&#45;&gt;Node2</title>
<g id="a_edge1_Node000001_Node000002"><a xlink:title=" ">
<path fill="none" stroke="#63b8ff" d="M662.83,-122.3C624.43,-126.18 555.89,-133.1 522.24,-136.5"/>
<polygon fill="#63b8ff" stroke="#63b8ff" points="663.22,-125.78 672.81,-121.29 662.51,-118.81 663.22,-125.78"/>
</a>
</g>
</g>
<!-- Node5 -->
<g id="Node000005" class="node">
<title>Node5</title>
<g id="a_Node000005"><a xlink:href="nusol_2tensor_2nusol_8cxx.html#a28531a30b80ecbd780392279d8a8adf3" target="_top" xlink:title=" ">
<polygon fill="white" stroke="#666666" points="637,-110 579,-110 579,-91 637,-91 637,-110"/>
<text text-anchor="middle" x="608" y="-98" font-family="Helvetica,sans-Serif" font-size="10.00">Rotation</text>
</a>
</g>
</g>
<!-- Node1&#45;&gt;Node5 -->
<g id="edge4_Node000001_Node000005" class="edge">
<title>Node1&#45;&gt;Node5</title>
<g id="a_edge4_Node000001_Node000005"><a xlink:title=" ">
<path fill="none" stroke="#63b8ff" d="M662.89,-113.06C654.62,-111.13 645.54,-109.02 637.22,-107.08"/>
<polygon fill="#63b8ff" stroke="#63b8ff" points="662.28,-116.52 672.82,-115.38 663.87,-109.7 662.28,-116.52"/>
</a>
</g>
</g>
<!-- Node3 -->
<g id="Node000003" class="node">
<title>Node3</title>
<g id="a_Node000003"><a xlink:href="namespacenusol__.html#a6f05175e14627bd3c34ffa61686b7da4" target="_top" xlink:title=" ">
<polygon fill="white" stroke="#666666" points="408.5,-148 340.5,-148 340.5,-129 408.5,-129 408.5,-148"/>
<text text-anchor="middle" x="374.5" y="-136" font-family="Helvetica,sans-Serif" font-size="10.00">nusol_::Nu</text>
</a>
</g>
</g>
<!-- Node2&#45;&gt;Node3 -->
<g id="edge2_Node000002_Node000003" class="edge">
<title>Node2&#45;&gt;Node3</title>
<g id="a_edge2_Node000002_Node000003"><a xlink:title=" ">
<path fill="none" stroke="#63b8ff" d="M470.92,-138.5C452.17,-138.5 427.88,-138.5 408.51,-138.5"/>
<polygon fill="#63b8ff" stroke="#63b8ff" points="470.97,-142 480.97,-138.5 470.97,-135 470.97,-142"/>
</a>
</g>
</g>
<!-- Node4 -->
<g id="Node000004" class="node">
<title>Node4</title>
<g id="a_Node000004"><a xlink:href="namespacepyc_1_1nusol.html#a991cfa801400211ccf412bd1a85b7b69" target="_top" xlink:title=" ">
<polygon fill="white" stroke="#666666" points="261.5,-148 175.5,-148 175.5,-129 261.5,-129 261.5,-148"/>
<text text-anchor="middle" x="218.5" y="-136" font-family="Helvetica,sans-Serif" font-size="10.00">pyc::nusol::Nu</text>
</a>
</g>
</g>
<!-- Node3&#45;&gt;Node4 -->
<g id="edge3_Node000003_Node000004" class="edge">
<title>Node3&#45;&gt;Node4</title>
<g id="a_edge3_Node000003_Node000004"><a xlink:title=" ">
<path fill="none" stroke="#63b8ff" d="M330.3,-138.5C308.8,-138.5 282.92,-138.5 261.58,-138.5"/>
<polygon fill="#63b8ff" stroke="#63b8ff" points="330.46,-142 340.46,-138.5 330.46,-135 330.46,-142"/>
</a>
</g>
</g>
<!-- Node5&#45;&gt;Node2 -->
<g id="edge5_Node000005_Node000002" class="edge">
<title>Node5&#45;&gt;Node2</title>
<g id="a_edge5_Node000005_Node000002"><a xlink:title=" ">
<path fill="none" stroke="#63b8ff" d="M570.85,-113.65C554.55,-119.57 535.95,-126.34 522.26,-131.31"/>
<polygon fill="#63b8ff" stroke="#63b8ff" points="572.43,-116.8 580.63,-110.09 570.04,-110.22 572.43,-116.8"/>
</a>
</g>
</g>
<!-- Node6 -->
<g id="Node000006" class="node">
<title>Node6</title>
<g id="a_Node000006"><a xlink:href="namespacenusol__.html#a3aacd3a83799d6a470d6188008fd069a" target="_top" xlink:title=" ">
<polygon fill="white" stroke="#666666" points="543,-111 460,-111 460,-92 543,-92 543,-111"/>
<text text-anchor="middle" x="501.5" y="-99" font-family="Helvetica,sans-Serif" font-size="10.00">nusol_::Hperp</text>
</a>
</g>
</g>
<!-- Node5&#45;&gt;Node6 -->
<g id="edge6_Node000005_Node000006" class="edge">
<title>Node5&#45;&gt;Node6</title>
<g id="a_edge6_Node000005_Node000006"><a xlink:title=" ">
<path fill="none" stroke="#63b8ff" d="M568.78,-100.87C560.44,-100.95 551.59,-101.03 543.16,-101.11"/>
<polygon fill="#63b8ff" stroke="#63b8ff" points="569.03,-104.36 579,-100.77 568.96,-97.36 569.03,-104.36"/>
</a>
</g>
</g>
<!-- Node7 -->
<g id="Node000007" class="node">
<title>Node7</title>
<g id="a_Node000007"><a xlink:href="namespacenusol__.html#ac849ef3564c5ac968727dce36494fd0a" target="_top" xlink:title=" ">
<polygon fill="white" stroke="#666666" points="542,-74 461,-74 461,-55 542,-55 542,-74"/>
<text text-anchor="middle" x="501.5" y="-62" font-family="Helvetica,sans-Serif" font-size="10.00">nusol_::NuNu</text>
</a>
</g>
</g>
<!-- Node5&#45;&gt;Node7 -->
<g id="edge7_Node000005_Node000007" class="edge">
<title>Node5&#45;&gt;Node7</title>
<g id="a_edge7_Node000005_Node000007"><a xlink:title=" ">
<path fill="none" stroke="#63b8ff" d="M569.68,-87.64C556.72,-83.18 542.42,-78.25 530.36,-74.1"/>
<polygon fill="#63b8ff" stroke="#63b8ff" points="568.68,-91 579.27,-90.95 570.96,-84.38 568.68,-91"/>
</a>
</g>
</g>
<!-- Node8 -->
<g id="Node000008" class="node">
<title>Node8</title>
<g id="a_Node000008"><a xlink:href="namespacepyc_1_1nusol.html#af7bb509b120cb3314695cecd70bc5c11" target="_top" xlink:title=" ">
<polygon fill="white" stroke="#666666" points="424,-93 325,-93 325,-74 424,-74 424,-93"/>
<text text-anchor="middle" x="374.5" y="-81" font-family="Helvetica,sans-Serif" font-size="10.00">pyc::nusol::NuNu</text>
</a>
</g>
</g>
<!-- Node7&#45;&gt;Node8 -->
<g id="edge8_Node000007_Node000008" class="edge">
<title>Node7&#45;&gt;Node8</title>
<g id="a_edge8_Node000007_Node000008"><a xlink:title=" ">
<path fill="none" stroke="#63b8ff" d="M450.8,-72.05C441.98,-73.4 432.8,-74.79 424.01,-76.13"/>
<polygon fill="#63b8ff" stroke="#63b8ff" points="451.59,-75.47 460.95,-70.51 450.54,-68.55 451.59,-75.47"/>
</a>
</g>
</g>
<!-- Node9 -->
<g id="Node000009" class="node">
<title>Node9</title>
<g id="a_Node000009"><a xlink:href="namespacepyc_1_1nusol.html#a9650527ae538fa27121bedfb79a1fbe6" target="_top" xlink:title=" ">
<polygon fill="white" stroke="#666666" points="424,-56 325,-56 325,-37 424,-37 424,-56"/>
<text text-anchor="middle" x="374.5" y="-44" font-family="Helvetica,sans-Serif" font-size="10.00">pyc::nusol::NuNu</text>
</a>
</g>
</g>
<!-- Node7&#45;&gt;Node9 -->
<g id="edge9_Node000007_Node000009" class="edge">
<title>Node7&#45;&gt;Node9</title>
<g id="a_edge9_Node000007_Node000009"><a xlink:title=" ">
<path fill="none" stroke="#63b8ff" d="M450.8,-57.34C441.98,-56.07 432.8,-54.75 424.01,-53.49"/>
<polygon fill="#63b8ff" stroke="#63b8ff" points="450.55,-60.84 460.95,-58.8 451.55,-53.92 450.55,-60.84"/>
</a>
</g>
</g>
<!-- Node10 -->
<g id="Node000010" class="node">
<title>Node10</title>
<g id="a_Node000010"><a xlink:href="namespacepyc_1_1nusol.html#aaaf252028ed63bf2d561dffcd76916e2" target="_top" xlink:title=" ">
<polygon fill="white" stroke="#666666" points="268,-93 169,-93 169,-74 268,-74 268,-93"/>
<text text-anchor="middle" x="218.5" y="-81" font-family="Helvetica,sans-Serif" font-size="10.00">pyc::nusol::NuNu</text>
</a>
</g>
</g>
<!-- Node9&#45;&gt;Node10 -->
<g id="edge10_Node000009_Node000010" class="edge">
<title>Node9&#45;&gt;Node10</title>
<g id="a_edge10_Node000009_Node000010"><a xlink:title=" ">
<path fill="none" stroke="#63b8ff" d="M323.87,-58.43C302.97,-63.44 278.99,-69.21 259.29,-73.94"/>
<polygon fill="#63b8ff" stroke="#63b8ff" points="324.94,-61.77 333.84,-56.03 323.3,-54.96 324.94,-61.77"/>
</a>
</g>
</g>
<!-- Node11 -->
<g id="Node000011" class="node">
<title>Node11</title>
<g id="a_Node000011"><a xlink:href="namespacepyc_1_1nusol.html#af88804c21a54435a41be99cbc03faf30" target="_top" xlink:title=" ">
<polygon fill="white" stroke="#666666" points="268,-56 169,-56 169,-37 268,-37 268,-56"/>
<text text-anchor="middle" x="218.5" y="-44" font-family="Helvetica,sans-Serif" font-size="10.00">pyc::nusol::NuNu</text>
</a>
</g>
</g>
<!-- Node9&#45;&gt;Node11 -->
<g id="edge11_Node000009_Node000011" class="edge">
<title>Node9&#45;&gt;Node11</title>
<g id="a_edge11_Node000009_Node000011"><a xlink:title=" ">
<path fill="none" stroke="#63b8ff" d="M314.39,-46.5C299.12,-46.5 282.85,-46.5 268.17,-46.5"/>
<polygon fill="#63b8ff" stroke="#63b8ff" points="314.77,-50 324.77,-46.5 314.77,-43 314.77,-50"/>
</a>
</g>
</g>
<!-- Node12 -->
<g id="Node000012" class="node">
<title>Node12</title>
<g id="a_Node000012"><a xlink:href="classvalidation.html#aa436b348c281a3d676910cf7b7d575eb" target="_top" xlink:title=" ">
<polygon fill="white" stroke="#666666" points="289,-19 148,-19 148,0 289,0 289,-19"/>
<text text-anchor="middle" x="218.5" y="-7" font-family="Helvetica,sans-Serif" font-size="10.00">validation::reconstruction</text>
</a>
</g>
</g>
<!-- Node9&#45;&gt;Node12 -->
<g id="edge12_Node000009_Node000012" class="edge">
<title>Node9&#45;&gt;Node12</title>
<g id="a_edge12_Node000009_Node000012"><a xlink:title=" ">
<path fill="none" stroke="#63b8ff" d="M323.87,-34.57C302.97,-29.56 278.99,-23.79 259.29,-19.06"/>
<polygon fill="#63b8ff" stroke="#63b8ff" points="323.3,-38.04 333.84,-36.97 324.94,-31.23 323.3,-38.04"/>
</a>
</g>
</g>
<!-- Node13 -->
<g id="Node000013" class="node">
<title>Node13</title>
<g id="a_Node000013"><a xlink:href="classvalidation.html#af388ba0e867008a75602581fdc2ed0f3" target="_top" xlink:title="Alternative selection strategy method.">
<polygon fill="white" stroke="#666666" points="112,-19 0,-19 0,0 112,0 112,-19"/>
<text text-anchor="middle" x="56" y="-7" font-family="Helvetica,sans-Serif" font-size="10.00">validation::strategy</text>
</a>
</g>
</g>
<!-- Node12&#45;&gt;Node13 -->
<g id="edge13_Node000012_Node000013" class="edge">
<title>Node12&#45;&gt;Node13</title>
<g id="a_edge13_Node000012_Node000013"><a xlink:title=" ">
<path fill="none" stroke="#63b8ff" d="M137.54,-9.5C128.98,-9.5 120.41,-9.5 112.23,-9.5"/>
<polygon fill="#63b8ff" stroke="#63b8ff" points="137.57,-13 147.57,-9.5 137.57,-6 137.57,-13"/>
</a>
</g>
</g>
</g>
</svg>
