<?xml version="1.0" encoding="UTF-8" standalone="no"?>
<!DOCTYPE svg PUBLIC "-//W3C//DTD SVG 1.1//EN"
 "http://www.w3.org/Graphics/SVG/1.1/DTD/svg11.dtd">
<!-- Generated by graphviz version 2.43.0 (0)
 -->
<!-- Title: Shape Pages: 1 -->
<!--zoomable 121 -->

<svg id="main" version="1.1" xmlns="http://www.w3.org/2000/svg" xmlns:xlink="http://www.w3.org/1999/xlink" xml:space="preserve" onload="init(evt)">
<style type="text/css"><![CDATA[
.node, .edge {opacity: 0.7;}
.node.selected, .edge.selected {opacity: 1;}
.edge:hover path { stroke: red; }
.edge:hover polygon { stroke: red; fill: red; }
]]></style>

<defs>
  <circle id="rim" cx="0" cy="0" r="7"/>
  <circle id="rim2" cx="0" cy="0" r="3.5"/>
  <g id="zoomPlus">
    <use xlink:href="#rim" fill="#404040"><set attributeName="fill" to="#808080" begin="zoomplus.mouseover" end="zoomplus.mouseout"/></use>
    <path d="M-4,0h8M0,-4v8" fill="none" stroke="white" stroke-width="1.5" pointer-events="none"/>
  </g>
  <g id="zoomMin">
    <use xlink:href="#rim" fill="#404040"><set attributeName="fill" to="#808080" begin="zoomminus.mouseover" end="zoomminus.mouseout"/></use>
    <path d="M-4,0h8" fill="none" stroke="white" stroke-width="1.5" pointer-events="none"/>
  </g>
  <g id="arrowUp" transform="translate(30 24)">
    <use xlink:href="#rim"/>
    <path pointer-events="none" fill="none" stroke="white" stroke-width="1.5" d="M0,-3.0v7 M-2.5,-0.5L0,-3.0L2.5,-0.5"/>
  </g>
  <g id="arrowRight" transform="rotate(90) translate(36 -43)">
    <use xlink:href="#rim"/>
    <path pointer-events="none" fill="none" stroke="white" stroke-width="1.5" d="M0,-3.0v7 M-2.5,-0.5L0,-3.0L2.5,-0.5"/>
  </g>
  <g id="arrowDown" transform="rotate(180) translate(-30 -48)">
    <use xlink:href="#rim"/>
    <path pointer-events="none" fill="none" stroke="white" stroke-width="1.5" d="M0,-3.0v7 M-2.5,-0.5L0,-3.0L2.5,-0.5"/>
  </g>
  <g id="arrowLeft" transform="rotate(270) translate(-36 17)">
    <use xlink:href="#rim"/>
    <path pointer-events="none" fill="none" stroke="white" stroke-width="1.5" d="M0,-3.0v7 M-2.5,-0.5L0,-3.0L2.5,-0.5"/>
  </g>
  <g id="resetDef">
    <use xlink:href="#rim2" fill="#404040"><set attributeName="fill" to="#808080" begin="reset.mouseover" end="reset.mouseout"/></use>
  </g>
</defs>
<script type="application/ecmascript">
var viewWidth = 709;
var viewHeight = 121;
var sectionId = 'dynsection-18';
</script>
<script type="application/ecmascript" xlink:href="svg.min.js"/>
<svg id="graph" class="graph">
<g id="viewport">
<title>Shape</title>
<!-- Node1 -->
<g id="Node000001" class="node">
<title>Node1</title>
<g id="a_Node000001"><a xlink:title=" ">
<polygon fill="#999999" stroke="#666666" points="701,-56 654,-56 654,-37 701,-37 701,-56"/>
<text text-anchor="middle" x="677.5" y="-44" font-family="Helvetica,sans-Serif" font-size="10.00">Shape</text>
</a>
</g>
</g>
<!-- Node2 -->
<g id="Node000002" class="node">
<title>Node2</title>
<g id="a_Node000002"><a xlink:href="nusol_2tensor_2nusol_8cxx.html#a154959ee15ff2420eef7a772682767b7" target="_top" xlink:title=" ">
<polygon fill="white" stroke="#666666" points="612,-113 583,-113 583,-94 612,-94 612,-113"/>
<text text-anchor="middle" x="597.5" y="-101" font-family="Helvetica,sans-Serif" font-size="10.00">_N</text>
</a>
</g>
</g>
<!-- Node1&#45;&gt;Node2 -->
<g id="edge1_Node000001_Node000002" class="edge">
<title>Node1&#45;&gt;Node2</title>
<g id="a_edge1_Node000001_Node000002"><a xlink:title=" ">
<path fill="none" stroke="#63b8ff" d="M655.16,-62.09C641.2,-72.29 623.42,-85.29 611.54,-93.97"/>
<polygon fill="#63b8ff" stroke="#63b8ff" points="657.26,-64.9 663.27,-56.17 653.13,-59.24 657.26,-64.9"/>
</a>
</g>
</g>
<!-- Node3 -->
<g id="Node000003" class="node">
<title>Node3</title>
<g id="a_Node000003"><a xlink:href="namespacenusol__.html#ac849ef3564c5ac968727dce36494fd0a" target="_top" xlink:title=" ">
<polygon fill="white" stroke="#666666" points="541,-88 460,-88 460,-69 541,-69 541,-88"/>
<text text-anchor="middle" x="500.5" y="-76" font-family="Helvetica,sans-Serif" font-size="10.00">nusol_::NuNu</text>
</a>
</g>
</g>
<!-- Node1&#45;&gt;Node3 -->
<g id="edge13_Node000001_Node000003" class="edge">
<title>Node1&#45;&gt;Node3</title>
<g id="a_edge13_Node000001_Node000003"><a xlink:title=" ">
<path fill="none" stroke="#63b8ff" d="M643.94,-52.45C614.91,-57.76 572.33,-65.55 541.29,-71.22"/>
<polygon fill="#63b8ff" stroke="#63b8ff" points="644.77,-55.86 653.98,-50.62 643.51,-48.97 644.77,-55.86"/>
</a>
</g>
</g>
<!-- Node10 -->
<g id="Node000010" class="node">
<title>Node10</title>
<g id="a_Node000010"><a xlink:href="nusol_2tensor_2nusol_8cxx.html#ab477f38adf15df486af1a3311204aa26" target="_top" xlink:title=" ">
<polygon fill="white" stroke="#666666" points="618,-37 577,-37 577,-18 618,-18 618,-37"/>
<text text-anchor="middle" x="597.5" y="-25" font-family="Helvetica,sans-Serif" font-size="10.00">_xNu</text>
</a>
</g>
</g>
<!-- Node1&#45;&gt;Node10 -->
<g id="edge9_Node000001_Node000010" class="edge">
<title>Node1&#45;&gt;Node10</title>
<g id="a_edge9_Node000001_Node000010"><a xlink:title=" ">
<path fill="none" stroke="#63b8ff" d="M643.94,-38.57C635.16,-36.43 625.93,-34.18 618.1,-32.27"/>
<polygon fill="#63b8ff" stroke="#63b8ff" points="643.39,-42.04 653.94,-41 645.05,-35.24 643.39,-42.04"/>
</a>
</g>
</g>
<!-- Node11 -->
<g id="Node000011" class="node">
<title>Node11</title>
<g id="a_Node000011"><a xlink:href="namespacenusol__.html#a6f05175e14627bd3c34ffa61686b7da4" target="_top" xlink:title=" ">
<polygon fill="white" stroke="#666666" points="534.5,-19 466.5,-19 466.5,0 534.5,0 534.5,-19"/>
<text text-anchor="middle" x="500.5" y="-7" font-family="Helvetica,sans-Serif" font-size="10.00">nusol_::Nu</text>
</a>
</g>
</g>
<!-- Node1&#45;&gt;Node11 -->
<g id="edge12_Node000001_Node000011" class="edge">
<title>Node1&#45;&gt;Node11</title>
<g id="a_edge12_Node000001_Node000011"><a xlink:title=" ">
<path fill="none" stroke="#63b8ff" d="M657.95,-30.46C647.09,-22.14 632.66,-12.84 618,-8.5 590.75,-0.43 558.32,-1.52 534.61,-4.14"/>
<polygon fill="#63b8ff" stroke="#63b8ff" points="655.84,-33.26 665.83,-36.8 660.23,-27.8 655.84,-33.26"/>
</a>
</g>
</g>
<!-- Node2&#45;&gt;Node3 -->
<g id="edge2_Node000002_Node000003" class="edge">
<title>Node2&#45;&gt;Node3</title>
<g id="a_edge2_Node000002_Node000003"><a xlink:title=" ">
<path fill="none" stroke="#63b8ff" d="M573.07,-97.33C562.39,-94.52 549.51,-91.13 537.63,-88.01"/>
<polygon fill="#63b8ff" stroke="#63b8ff" points="572.33,-100.76 582.89,-99.92 574.11,-93.99 572.33,-100.76"/>
</a>
</g>
</g>
<!-- Node4 -->
<g id="Node000004" class="node">
<title>Node4</title>
<g id="a_Node000004"><a xlink:href="namespacepyc_1_1nusol.html#af7bb509b120cb3314695cecd70bc5c11" target="_top" xlink:title=" ">
<polygon fill="white" stroke="#666666" points="424,-102 325,-102 325,-83 424,-83 424,-102"/>
<text text-anchor="middle" x="374.5" y="-90" font-family="Helvetica,sans-Serif" font-size="10.00">pyc::nusol::NuNu</text>
</a>
</g>
</g>
<!-- Node3&#45;&gt;Node4 -->
<g id="edge3_Node000003_Node000004" class="edge">
<title>Node3&#45;&gt;Node4</title>
<g id="a_edge3_Node000003_Node000004"><a xlink:title=" ">
<path fill="none" stroke="#63b8ff" d="M449.84,-84.11C441.42,-85.06 432.67,-86.05 424.26,-86.99"/>
<polygon fill="#63b8ff" stroke="#63b8ff" points="450.38,-87.57 459.92,-82.97 449.6,-80.61 450.38,-87.57"/>
</a>
</g>
</g>
<!-- Node5 -->
<g id="Node000005" class="node">
<title>Node5</title>
<g id="a_Node000005"><a xlink:href="namespacepyc_1_1nusol.html#a9650527ae538fa27121bedfb79a1fbe6" target="_top" xlink:title=" ">
<polygon fill="white" stroke="#666666" points="424,-65 325,-65 325,-46 424,-46 424,-65"/>
<text text-anchor="middle" x="374.5" y="-53" font-family="Helvetica,sans-Serif" font-size="10.00">pyc::nusol::NuNu</text>
</a>
</g>
</g>
<!-- Node3&#45;&gt;Node5 -->
<g id="edge4_Node000003_Node000005" class="edge">
<title>Node3&#45;&gt;Node5</title>
<g id="a_edge4_Node000003_Node000005"><a xlink:title=" ">
<path fill="none" stroke="#63b8ff" d="M449.84,-69.29C441.42,-67.73 432.67,-66.1 424.26,-64.54"/>
<polygon fill="#63b8ff" stroke="#63b8ff" points="449.45,-72.78 459.92,-71.16 450.73,-65.89 449.45,-72.78"/>
</a>
</g>
</g>
<!-- Node6 -->
<g id="Node000006" class="node">
<title>Node6</title>
<g id="a_Node000006"><a xlink:href="namespacepyc_1_1nusol.html#aaaf252028ed63bf2d561dffcd76916e2" target="_top" xlink:title=" ">
<polygon fill="white" stroke="#666666" points="268,-102 169,-102 169,-83 268,-83 268,-102"/>
<text text-anchor="middle" x="218.5" y="-90" font-family="Helvetica,sans-Serif" font-size="10.00">pyc::nusol::NuNu</text>
</a>
</g>
</g>
<!-- Node5&#45;&gt;Node6 -->
<g id="edge5_Node000005_Node000006" class="edge">
<title>Node5&#45;&gt;Node6</title>
<g id="a_edge5_Node000005_Node000006"><a xlink:title=" ">
<path fill="none" stroke="#63b8ff" d="M323.87,-67.43C302.97,-72.44 278.99,-78.21 259.29,-82.94"/>
<polygon fill="#63b8ff" stroke="#63b8ff" points="324.94,-70.77 333.84,-65.03 323.3,-63.96 324.94,-70.77"/>
</a>
</g>
</g>
<!-- Node7 -->
<g id="Node000007" class="node">
<title>Node7</title>
<g id="a_Node000007"><a xlink:href="namespacepyc_1_1nusol.html#af88804c21a54435a41be99cbc03faf30" target="_top" xlink:title=" ">
<polygon fill="white" stroke="#666666" points="268,-65 169,-65 169,-46 268,-46 268,-65"/>
<text text-anchor="middle" x="218.5" y="-53" font-family="Helvetica,sans-Serif" font-size="10.00">pyc::nusol::NuNu</text>
</a>
</g>
</g>
<!-- Node5&#45;&gt;Node7 -->
<g id="edge6_Node000005_Node000007" class="edge">
<title>Node5&#45;&gt;Node7</title>
<g id="a_edge6_Node000005_Node000007"><a xlink:title=" ">
<path fill="none" stroke="#63b8ff" d="M314.39,-55.5C299.12,-55.5 282.85,-55.5 268.17,-55.5"/>
<polygon fill="#63b8ff" stroke="#63b8ff" points="314.77,-59 324.77,-55.5 314.77,-52 314.77,-59"/>
</a>
</g>
</g>
<!-- Node8 -->
<g id="Node000008" class="node">
<title>Node8</title>
<g id="a_Node000008"><a xlink:href="classvalidation.html#aa436b348c281a3d676910cf7b7d575eb" target="_top" xlink:title=" ">
<polygon fill="white" stroke="#666666" points="289,-28 148,-28 148,-9 289,-9 289,-28"/>
<text text-anchor="middle" x="218.5" y="-16" font-family="Helvetica,sans-Serif" font-size="10.00">validation::reconstruction</text>
</a>
</g>
</g>
<!-- Node5&#45;&gt;Node8 -->
<g id="edge7_Node000005_Node000008" class="edge">
<title>Node5&#45;&gt;Node8</title>
<g id="a_edge7_Node000005_Node000008"><a xlink:title=" ">
<path fill="none" stroke="#63b8ff" d="M323.87,-43.57C302.97,-38.56 278.99,-32.79 259.29,-28.06"/>
<polygon fill="#63b8ff" stroke="#63b8ff" points="323.3,-47.04 333.84,-45.97 324.94,-40.23 323.3,-47.04"/>
</a>
</g>
</g>
<!-- Node9 -->
<g id="Node000009" class="node">
<title>Node9</title>
<g id="a_Node000009"><a xlink:href="classvalidation.html#af388ba0e867008a75602581fdc2ed0f3" target="_top" xlink:title="Alternative selection strategy method.">
<polygon fill="white" stroke="#666666" points="112,-28 0,-28 0,-9 112,-9 112,-28"/>
<text text-anchor="middle" x="56" y="-16" font-family="Helvetica,sans-Serif" font-size="10.00">validation::strategy</text>
</a>
</g>
</g>
<!-- Node8&#45;&gt;Node9 -->
<g id="edge8_Node000008_Node000009" class="edge">
<title>Node8&#45;&gt;Node9</title>
<g id="a_edge8_Node000008_Node000009"><a xlink:title=" ">
<path fill="none" stroke="#63b8ff" d="M137.54,-18.5C128.98,-18.5 120.41,-18.5 112.23,-18.5"/>
<polygon fill="#63b8ff" stroke="#63b8ff" points="137.57,-22 147.57,-18.5 137.57,-15 137.57,-22"/>
</a>
</g>
</g>
<!-- Node10&#45;&gt;Node11 -->
<g id="edge10_Node000010_Node000011" class="edge">
<title>Node10&#45;&gt;Node11</title>
<g id="a_edge10_Node000010_Node000011"><a xlink:title=" ">
<path fill="none" stroke="#63b8ff" d="M566.75,-21.86C556.55,-19.93 545.07,-17.76 534.63,-15.78"/>
<polygon fill="#63b8ff" stroke="#63b8ff" points="566.34,-25.35 576.82,-23.77 567.64,-18.47 566.34,-25.35"/>
</a>
</g>
</g>
<!-- Node12 -->
<g id="Node000012" class="node">
<title>Node12</title>
<g id="a_Node000012"><a xlink:href="namespacepyc_1_1nusol.html#a991cfa801400211ccf412bd1a85b7b69" target="_top" xlink:title=" ">
<polygon fill="white" stroke="#666666" points="417.5,-19 331.5,-19 331.5,0 417.5,0 417.5,-19"/>
<text text-anchor="middle" x="374.5" y="-7" font-family="Helvetica,sans-Serif" font-size="10.00">pyc::nusol::Nu</text>
</a>
</g>
</g>
<!-- Node11&#45;&gt;Node12 -->
<g id="edge11_Node000011_Node000012" class="edge">
<title>Node11&#45;&gt;Node12</title>
<g id="a_edge11_Node000011_Node000012"><a xlink:title=" ">
<path fill="none" stroke="#63b8ff" d="M456.12,-9.5C443.66,-9.5 430.1,-9.5 417.72,-9.5"/>
<polygon fill="#63b8ff" stroke="#63b8ff" points="456.27,-13 466.27,-9.5 456.27,-6 456.27,-13"/>
</a>
</g>
</g>
</g>
</svg>

<g id="navigator" transform="translate(0 0)" fill="#404254">
  <rect fill="#f2f5e9" fill-opacity="0.5" stroke="#606060" stroke-width=".5" x="0" y="0" width="60" height="60"/>
  <use id="zoomplus" xlink:href="#zoomPlus" x="17" y="9" onmousedown="handleZoom(evt,'in')"/>
  <use id="zoomminus" xlink:href="#zoomMin" x="42" y="9" onmousedown="handleZoom(evt,'out')"/>
  <use id="reset" xlink:href="#resetDef" x="30" y="36" onmousedown="handleReset()"/>
   <use id="arrowup" xlink:href="#arrowUp" x="0" y="0" onmousedown="handlePan(0,-1)"/>
  <use id="arrowright" xlink:href="#arrowRight" x="0" y="0" onmousedown="handlePan(1,0)"/>
  <use id="arrowdown" xlink:href="#arrowDown" x="0" y="0" onmousedown="handlePan(0,1)"/>
  <use id="arrowleft" xlink:href="#arrowLeft" x="0" y="0" onmousedown="handlePan(-1,0)"/>
</g>
<svg viewBox="0 0 15 15" width="100%" height="30px" preserveAspectRatio="xMaxYMin meet">
 <g id="arrow_out" transform="scale(0.3 0.3)">
  <a xlink:href="nusol_2tensor_2nusol_8cxx_a695a1b065a09564a65159bac242c506c_icgraph_org.svg" target="_base">
   <rect id="button" ry="5" rx="5" y="6" x="6" height="38" width="38"
        fill="#f2f5e9" fill-opacity="0.5" stroke="#606060" stroke-width="1.0"/>
   <path id="arrow"
     d="M 11.500037,31.436501 C 11.940474,20.09759 22.043105,11.32322 32.158766,21.979434 L 37.068811,17.246167 C 37.068811,17.246167 37.088388,32 37.088388,32 L 22.160133,31.978069 C 22.160133,31.978069 26.997745,27.140456 26.997745,27.140456 C 18.528582,18.264221 13.291696,25.230495 11.500037,31.436501 z"
     style="fill:#404040;"/>
  </a>
 </g>
</svg>

<style type='text/css'>
<![CDATA[
[data-mouse-over-selected='false'] { opacity: 0.7; }
[data-mouse-over-selected='true']  { opacity: 1.0; }
]]>
</style>
<script type="application/ecmascript"><![CDATA[
document.addEventListener('DOMContentLoaded', (event) => {
  highlightEdges();
  highlightAdjacentNodes();
});
]]></script>
</svg>
