<?xml version="1.0" encoding="UTF-8" standalone="no"?>
<!DOCTYPE svg PUBLIC "-//W3C//DTD SVG 1.1//EN"
 "http://www.w3.org/Graphics/SVG/1.1/DTD/svg11.dtd">
<!-- Generated by graphviz version 2.43.0 (0)
 -->
<!-- Title: nusol.cxx Pages: 1 -->
<svg width="638pt" height="137pt"
 viewBox="0.00 0.00 638.00 137.00" xmlns="http://www.w3.org/2000/svg" xmlns:xlink="http://www.w3.org/1999/xlink">
<g id="graph0" class="graph" transform="scale(1 1) rotate(0) translate(4 133)">
<title>nusol.cxx</title>
<!-- Node1 -->
<g id="Node000001" class="node">
<title>Node1</title>
<g id="a_Node000001"><a xlink:title=" ">
<polygon fill="#999999" stroke="#666666" points="366.5,-129 303.5,-129 303.5,-110 366.5,-110 366.5,-129"/>
<text text-anchor="middle" x="335" y="-117" font-family="Helvetica,sans-Serif" font-size="10.00">nusol.cxx</text>
</a>
</g>
</g>
<!-- Node2 -->
<g id="Node000002" class="node">
<title>Node2</title>
<g id="a_Node000002"><a xlink:href="operators_8h.html" target="_top" xlink:title="Provides operator functions for mathematical operations in C++.">
<polygon fill="white" stroke="#666666" points="122,-74 0,-74 0,-55 122,-55 122,-74"/>
<text text-anchor="middle" x="61" y="-62" font-family="Helvetica,sans-Serif" font-size="10.00">operators/operators.h</text>
</a>
</g>
</g>
<!-- Node1&#45;&gt;Node2 -->
<g id="edge1_Node000001_Node000002" class="edge">
<title>Node1&#45;&gt;Node2</title>
<g id="a_edge1_Node000001_Node000002"><a xlink:title=" ">
<path fill="none" stroke="#63b8ff" d="M303.3,-112.37C257.28,-103.47 171.35,-86.85 115.17,-75.98"/>
<polygon fill="#63b8ff" stroke="#63b8ff" points="115.53,-72.48 105.04,-74.02 114.2,-79.35 115.53,-72.48"/>
</a>
</g>
</g>
<!-- Node4 -->
<g id="Node000004" class="node">
<title>Node4</title>
<g id="a_Node000004"><a xlink:href="transform_8h.html" target="_top" xlink:title="Provides transformation functions for momentum calculations in C++.">
<polygon fill="white" stroke="#666666" points="265.5,-74 140.5,-74 140.5,-55 265.5,-55 265.5,-74"/>
<text text-anchor="middle" x="203" y="-62" font-family="Helvetica,sans-Serif" font-size="10.00">transform/transform.h</text>
</a>
</g>
</g>
<!-- Node1&#45;&gt;Node4 -->
<g id="edge3_Node000001_Node000004" class="edge">
<title>Node1&#45;&gt;Node4</title>
<g id="a_edge3_Node000001_Node000004"><a xlink:title=" ">
<path fill="none" stroke="#63b8ff" d="M313.79,-109.98C292.27,-101.34 258.72,-87.87 234.17,-78.02"/>
<polygon fill="#63b8ff" stroke="#63b8ff" points="235.18,-74.65 224.59,-74.17 232.57,-81.14 235.18,-74.65"/>
</a>
</g>
</g>
<!-- Node5 -->
<g id="Node000005" class="node">
<title>Node5</title>
<g id="a_Node000005"><a xlink:href="physics_8h.html" target="_top" xlink:title="Provides physics&#45;related functions for C++ operations.">
<polygon fill="white" stroke="#666666" points="386,-74 284,-74 284,-55 386,-55 386,-74"/>
<text text-anchor="middle" x="335" y="-62" font-family="Helvetica,sans-Serif" font-size="10.00">physics/physics.h</text>
</a>
</g>
</g>
<!-- Node1&#45;&gt;Node5 -->
<g id="edge5_Node000001_Node000005" class="edge">
<title>Node1&#45;&gt;Node5</title>
<g id="a_edge5_Node000001_Node000005"><a xlink:title=" ">
<path fill="none" stroke="#63b8ff" d="M335,-109.75C335,-102.8 335,-92.85 335,-84.13"/>
<polygon fill="#63b8ff" stroke="#63b8ff" points="338.5,-84.09 335,-74.09 331.5,-84.09 338.5,-84.09"/>
</a>
</g>
</g>
<!-- Node6 -->
<g id="Node000006" class="node">
<title>Node6</title>
<g id="a_Node000006"><a xlink:href="utils_8h.html" target="_top" xlink:title="Header file for utility functions.">
<polygon fill="white" stroke="#666666" points="475.5,-74 404.5,-74 404.5,-55 475.5,-55 475.5,-74"/>
<text text-anchor="middle" x="440" y="-62" font-family="Helvetica,sans-Serif" font-size="10.00">utils/utils.h</text>
</a>
</g>
</g>
<!-- Node1&#45;&gt;Node6 -->
<g id="edge7_Node000001_Node000006" class="edge">
<title>Node1&#45;&gt;Node6</title>
<g id="a_edge7_Node000001_Node000006"><a xlink:title=" ">
<path fill="none" stroke="#63b8ff" d="M351.87,-109.98C368.61,-101.54 394.5,-88.47 413.89,-78.68"/>
<polygon fill="#63b8ff" stroke="#63b8ff" points="415.47,-81.8 422.82,-74.17 412.32,-75.55 415.47,-81.8"/>
</a>
</g>
</g>
<!-- Node8 -->
<g id="Node000008" class="node">
<title>Node8</title>
<g id="a_Node000008"><a xlink:href="nusol_8h.html" target="_top" xlink:title=" ">
<polygon fill="white" stroke="#666666" points="574.5,-74 493.5,-74 493.5,-55 574.5,-55 574.5,-74"/>
<text text-anchor="middle" x="534" y="-62" font-family="Helvetica,sans-Serif" font-size="10.00">nusol/nusol.h</text>
</a>
</g>
</g>
<!-- Node1&#45;&gt;Node8 -->
<g id="edge10_Node000001_Node000008" class="edge">
<title>Node1&#45;&gt;Node8</title>
<g id="a_edge10_Node000001_Node000008"><a xlink:title=" ">
<path fill="none" stroke="#63b8ff" d="M366.53,-110.1C400.39,-101.08 454.37,-86.71 491.85,-76.73"/>
<polygon fill="#63b8ff" stroke="#63b8ff" points="493.19,-79.99 501.96,-74.03 491.39,-73.23 493.19,-79.99"/>
</a>
</g>
</g>
<!-- Node3 -->
<g id="Node000003" class="node">
<title>Node3</title>
<g id="a_Node000003"><a xlink:title=" ">
<polygon fill="#e0e0e0" stroke="#999999" points="374,-19 296,-19 296,0 374,0 374,-19"/>
<text text-anchor="middle" x="335" y="-7" font-family="Helvetica,sans-Serif" font-size="10.00">torch/torch.h</text>
</a>
</g>
</g>
<!-- Node2&#45;&gt;Node3 -->
<g id="edge2_Node000002_Node000003" class="edge">
<title>Node2&#45;&gt;Node3</title>
<g id="a_edge2_Node000002_Node000003"><a xlink:title=" ">
<path fill="none" stroke="#63b8ff" d="M105.02,-54.98C154.52,-45.41 234.67,-29.91 286.09,-19.96"/>
<polygon fill="#63b8ff" stroke="#63b8ff" points="286.81,-23.39 295.97,-18.05 285.48,-16.51 286.81,-23.39"/>
</a>
</g>
</g>
<!-- Node4&#45;&gt;Node3 -->
<g id="edge4_Node000004_Node000003" class="edge">
<title>Node4&#45;&gt;Node3</title>
<g id="a_edge4_Node000004_Node000003"><a xlink:title=" ">
<path fill="none" stroke="#63b8ff" d="M224.21,-54.98C245.73,-46.34 279.28,-32.87 303.83,-23.02"/>
<polygon fill="#63b8ff" stroke="#63b8ff" points="305.43,-26.14 313.41,-19.17 302.82,-19.65 305.43,-26.14"/>
</a>
</g>
</g>
<!-- Node5&#45;&gt;Node3 -->
<g id="edge6_Node000005_Node000003" class="edge">
<title>Node5&#45;&gt;Node3</title>
<g id="a_edge6_Node000005_Node000003"><a xlink:title=" ">
<path fill="none" stroke="#63b8ff" d="M335,-54.75C335,-47.8 335,-37.85 335,-29.13"/>
<polygon fill="#63b8ff" stroke="#63b8ff" points="338.5,-29.09 335,-19.09 331.5,-29.09 338.5,-29.09"/>
</a>
</g>
</g>
<!-- Node6&#45;&gt;Node3 -->
<g id="edge8_Node000006_Node000003" class="edge">
<title>Node6&#45;&gt;Node3</title>
<g id="a_edge8_Node000006_Node000003"><a xlink:title=" ">
<path fill="none" stroke="#63b8ff" d="M423.13,-54.98C406.39,-46.54 380.5,-33.47 361.11,-23.68"/>
<polygon fill="#63b8ff" stroke="#63b8ff" points="362.68,-20.55 352.18,-19.17 359.53,-26.8 362.68,-20.55"/>
</a>
</g>
</g>
<!-- Node7 -->
<g id="Node000007" class="node">
<title>Node7</title>
<g id="a_Node000007"><a xlink:title=" ">
<polygon fill="#e0e0e0" stroke="#999999" points="451.5,-19 404.5,-19 404.5,0 451.5,0 451.5,-19"/>
<text text-anchor="middle" x="428" y="-7" font-family="Helvetica,sans-Serif" font-size="10.00">vector</text>
</a>
</g>
</g>
<!-- Node6&#45;&gt;Node7 -->
<g id="edge9_Node000006_Node000007" class="edge">
<title>Node6&#45;&gt;Node7</title>
<g id="a_edge9_Node000006_Node000007"><a xlink:title=" ">
<path fill="none" stroke="#63b8ff" d="M438.02,-54.75C436.43,-47.72 434.14,-37.62 432.15,-28.84"/>
<polygon fill="#63b8ff" stroke="#63b8ff" points="435.57,-28.07 429.94,-19.09 428.74,-29.62 435.57,-28.07"/>
</a>
</g>
</g>
<!-- Node8&#45;&gt;Node3 -->
<g id="edge14_Node000008_Node000003" class="edge">
<title>Node8&#45;&gt;Node3</title>
<g id="a_edge14_Node000008_Node000003"><a xlink:title=" ">
<path fill="none" stroke="#63b8ff" d="M502.03,-54.98C468.18,-45.97 414.6,-31.7 377.29,-21.76"/>
<polygon fill="#63b8ff" stroke="#63b8ff" points="377.79,-18.27 367.22,-19.08 375.99,-25.04 377.79,-18.27"/>
</a>
</g>
</g>
<!-- Node9 -->
<g id="Node000009" class="node">
<title>Node9</title>
<g id="a_Node000009"><a xlink:title=" ">
<polygon fill="#e0e0e0" stroke="#999999" points="508,-19 470,-19 470,0 508,0 508,-19"/>
<text text-anchor="middle" x="489" y="-7" font-family="Helvetica,sans-Serif" font-size="10.00">map</text>
</a>
</g>
</g>
<!-- Node8&#45;&gt;Node9 -->
<g id="edge11_Node000008_Node000009" class="edge">
<title>Node8&#45;&gt;Node9</title>
<g id="a_edge11_Node000008_Node000009"><a xlink:title=" ">
<path fill="none" stroke="#63b8ff" d="M526.57,-54.75C520.15,-47.18 510.69,-36.05 502.88,-26.84"/>
<polygon fill="#63b8ff" stroke="#63b8ff" points="505.43,-24.45 496.29,-19.09 500.1,-28.98 505.43,-24.45"/>
</a>
</g>
</g>
<!-- Node10 -->
<g id="Node000010" class="node">
<title>Node10</title>
<g id="a_Node000010"><a xlink:title=" ">
<polygon fill="#e0e0e0" stroke="#999999" points="567.5,-19 526.5,-19 526.5,0 567.5,0 567.5,-19"/>
<text text-anchor="middle" x="547" y="-7" font-family="Helvetica,sans-Serif" font-size="10.00">tuple</text>
</a>
</g>
</g>
<!-- Node8&#45;&gt;Node10 -->
<g id="edge12_Node000008_Node000010" class="edge">
<title>Node8&#45;&gt;Node10</title>
<g id="a_edge12_Node000008_Node000010"><a xlink:title=" ">
<path fill="none" stroke="#63b8ff" d="M536.15,-54.75C537.87,-47.72 540.35,-37.62 542.5,-28.84"/>
<polygon fill="#63b8ff" stroke="#63b8ff" points="545.91,-29.63 544.89,-19.09 539.11,-27.97 545.91,-29.63"/>
</a>
</g>
</g>
<!-- Node11 -->
<g id="Node000011" class="node">
<title>Node11</title>
<g id="a_Node000011"><a xlink:title=" ">
<polygon fill="#e0e0e0" stroke="#999999" points="630,-19 586,-19 586,0 630,0 630,-19"/>
<text text-anchor="middle" x="608" y="-7" font-family="Helvetica,sans-Serif" font-size="10.00">string</text>
</a>
</g>
</g>
<!-- Node8&#45;&gt;Node11 -->
<g id="edge13_Node000008_Node000011" class="edge">
<title>Node8&#45;&gt;Node11</title>
<g id="a_edge13_Node000008_Node000011"><a xlink:title=" ">
<path fill="none" stroke="#63b8ff" d="M545.89,-54.98C557.15,-46.92 574.29,-34.65 587.71,-25.03"/>
<polygon fill="#63b8ff" stroke="#63b8ff" points="589.8,-27.84 595.89,-19.17 585.73,-22.15 589.8,-27.84"/>
</a>
</g>
</g>
</g>
</svg>
