<?xml version="1.0" encoding="UTF-8" standalone="no"?>
<!DOCTYPE svg PUBLIC "-//W3C//DTD SVG 1.1//EN"
 "http://www.w3.org/Graphics/SVG/1.1/DTD/svg11.dtd">
<!-- Generated by graphviz version 2.43.0 (0)
 -->
<!-- Title: particle_template.h Pages: 1 -->
<svg width="1109pt" height="247pt"
 viewBox="0.00 0.00 1109.24 247.00" xmlns="http://www.w3.org/2000/svg" xmlns:xlink="http://www.w3.org/1999/xlink">
<g id="graph0" class="graph" transform="scale(1 1) rotate(0) translate(4 243)">
<title>particle_template.h</title>
<!-- Node1 -->
<g id="Node000001" class="node">
<title>Node1</title>
<g id="a_Node000001"><a xlink:title="Defines the particle_template base class for physics particle representations.">
<polygon fill="#999999" stroke="#666666" points="667.74,-239 555.74,-239 555.74,-220 667.74,-220 667.74,-239"/>
<text text-anchor="middle" x="611.74" y="-227" font-family="Helvetica,sans-Serif" font-size="10.00">particle_template.h</text>
</a>
</g>
</g>
<!-- Node2 -->
<g id="Node000002" class="node">
<title>Node2</title>
<g id="a_Node000002"><a xlink:href="modules_2structs_2include_2structs_2particles_8h.html" target="_top" xlink:title=" ">
<polygon fill="white" stroke="#666666" points="284.74,-74 180.74,-74 180.74,-55 284.74,-55 284.74,-74"/>
<text text-anchor="middle" x="232.74" y="-62" font-family="Helvetica,sans-Serif" font-size="10.00">structs/particles.h</text>
</a>
</g>
</g>
<!-- Node1&#45;&gt;Node2 -->
<g id="edge1_Node000001_Node000002" class="edge">
<title>Node1&#45;&gt;Node2</title>
<g id="a_edge1_Node000001_Node000002"><a xlink:title=" ">
<path fill="none" stroke="#63b8ff" d="M555.67,-223.72C487.2,-217.13 376.03,-203.79 339.74,-184 295.09,-159.65 259.48,-109.34 242.89,-82.78"/>
<polygon fill="#63b8ff" stroke="#63b8ff" points="245.84,-80.9 237.65,-74.17 239.86,-84.53 245.84,-80.9"/>
</a>
</g>
</g>
<!-- Node3 -->
<g id="Node000003" class="node">
<title>Node3</title>
<g id="a_Node000003"><a xlink:title=" ">
<polygon fill="#e0e0e0" stroke="#999999" points="254.74,-19 210.74,-19 210.74,0 254.74,0 254.74,-19"/>
<text text-anchor="middle" x="232.74" y="-7" font-family="Helvetica,sans-Serif" font-size="10.00">string</text>
</a>
</g>
</g>
<!-- Node1&#45;&gt;Node3 -->
<g id="edge44_Node000001_Node000003" class="edge">
<title>Node1&#45;&gt;Node3</title>
<g id="a_edge44_Node000001_Node000003"><a xlink:title=" ">
<path fill="none" stroke="#63b8ff" d="M555.55,-228.55C414.1,-228.09 52,-223.07 15.74,-184 -27.53,-137.38 27.29,-93.75 77.74,-55 113.9,-27.22 166.79,-16.78 200.49,-12.85"/>
<polygon fill="#63b8ff" stroke="#63b8ff" points="201.12,-16.31 210.71,-11.8 200.4,-9.35 201.12,-16.31"/>
</a>
</g>
</g>
<!-- Node6 -->
<g id="Node000006" class="node">
<title>Node6</title>
<g id="a_Node000006"><a xlink:href="property_8h.html" target="_top" xlink:title="Defines the cproperty template class for property&#45;based access patterns.">
<polygon fill="white" stroke="#666666" points="126.24,-184 25.24,-184 25.24,-165 126.24,-165 126.24,-184"/>
<text text-anchor="middle" x="75.74" y="-172" font-family="Helvetica,sans-Serif" font-size="10.00">structs/property.h</text>
</a>
</g>
</g>
<!-- Node1&#45;&gt;Node6 -->
<g id="edge5_Node000001_Node000006" class="edge">
<title>Node1&#45;&gt;Node6</title>
<g id="a_edge5_Node000001_Node000006"><a xlink:title=" ">
<path fill="none" stroke="#63b8ff" d="M555.49,-223.84C467.09,-216.37 290.31,-200.84 140.74,-184 139.44,-183.85 138.12,-183.7 136.79,-183.55"/>
<polygon fill="#63b8ff" stroke="#63b8ff" points="136.81,-180.03 126.46,-182.31 135.97,-186.98 136.81,-180.03"/>
</a>
</g>
</g>
<!-- Node8 -->
<g id="Node000008" class="node">
<title>Node8</title>
<g id="a_Node000008"><a xlink:href="element_8h.html" target="_top" xlink:title=" ">
<polygon fill="white" stroke="#666666" points="662.74,-184 560.74,-184 560.74,-165 662.74,-165 662.74,-184"/>
<text text-anchor="middle" x="611.74" y="-172" font-family="Helvetica,sans-Serif" font-size="10.00">structs/element.h</text>
</a>
</g>
</g>
<!-- Node1&#45;&gt;Node8 -->
<g id="edge8_Node000001_Node000008" class="edge">
<title>Node1&#45;&gt;Node8</title>
<g id="a_edge8_Node000001_Node000008"><a xlink:title=" ">
<path fill="none" stroke="#63b8ff" d="M611.74,-219.75C611.74,-212.8 611.74,-202.85 611.74,-194.13"/>
<polygon fill="#63b8ff" stroke="#63b8ff" points="615.24,-194.09 611.74,-184.09 608.24,-194.09 615.24,-194.09"/>
</a>
</g>
</g>
<!-- Node18 -->
<g id="Node000018" class="node">
<title>Node18</title>
<g id="a_Node000018"><a xlink:title=" ">
<polygon fill="#e0e0e0" stroke="#999999" points="877.74,-19 817.74,-19 817.74,0 877.74,0 877.74,-19"/>
<text text-anchor="middle" x="847.74" y="-7" font-family="Helvetica,sans-Serif" font-size="10.00">iostream</text>
</a>
</g>
</g>
<!-- Node1&#45;&gt;Node18 -->
<g id="edge42_Node000001_Node000018" class="edge">
<title>Node1&#45;&gt;Node18</title>
<g id="a_edge42_Node000001_Node000018"><a xlink:title=" ">
<path fill="none" stroke="#63b8ff" d="M652.56,-219.95C753.75,-198.59 1008.9,-143.51 1020.74,-129 1041.54,-103.51 1042.94,-80.97 1022.74,-55 1006.37,-33.95 934.47,-21.22 888.07,-15.06"/>
<polygon fill="#63b8ff" stroke="#63b8ff" points="888.38,-11.57 878.02,-13.77 887.49,-18.51 888.38,-11.57"/>
</a>
</g>
</g>
<!-- Node22 -->
<g id="Node000022" class="node">
<title>Node22</title>
<g id="a_Node000022"><a xlink:href="tools_8h.html" target="_top" xlink:title="Defines the tools class that provides general utility functions for the AnalysisG framework.">
<polygon fill="white" stroke="#666666" points="380.24,-74 303.24,-74 303.24,-55 380.24,-55 380.24,-74"/>
<text text-anchor="middle" x="341.74" y="-62" font-family="Helvetica,sans-Serif" font-size="10.00">tools/tools.h</text>
</a>
</g>
</g>
<!-- Node1&#45;&gt;Node22 -->
<g id="edge36_Node000001_Node000022" class="edge">
<title>Node1&#45;&gt;Node22</title>
<g id="a_edge36_Node000001_Node000022"><a xlink:title=" ">
<path fill="none" stroke="#63b8ff" d="M555.56,-228.63C484.05,-225.4 362.95,-207.76 305.74,-129 294.53,-113.57 308.94,-94.34 322.72,-81.11"/>
<polygon fill="#63b8ff" stroke="#63b8ff" points="325.45,-83.37 330.56,-74.09 320.78,-78.15 325.45,-83.37"/>
</a>
</g>
</g>
<!-- Node24 -->
<g id="Node000024" class="node">
<title>Node24</title>
<g id="a_Node000024"><a xlink:title=" ">
<polygon fill="#e0e0e0" stroke="#999999" points="968.74,-184 912.74,-184 912.74,-165 968.74,-165 968.74,-184"/>
<text text-anchor="middle" x="940.74" y="-172" font-family="Helvetica,sans-Serif" font-size="10.00">sstream</text>
</a>
</g>
</g>
<!-- Node1&#45;&gt;Node24 -->
<g id="edge43_Node000001_Node000024" class="edge">
<title>Node1&#45;&gt;Node24</title>
<g id="a_edge43_Node000001_Node000024"><a xlink:title=" ">
<path fill="none" stroke="#63b8ff" d="M667.96,-220.56C725.91,-212.19 818.83,-198.27 898.74,-184 899.84,-183.8 900.95,-183.6 902.08,-183.39"/>
<polygon fill="#63b8ff" stroke="#63b8ff" points="903.14,-186.75 912.31,-181.44 901.83,-179.88 903.14,-186.75"/>
</a>
</g>
</g>
<!-- Node25 -->
<g id="Node000025" class="node">
<title>Node25</title>
<g id="a_Node000025"><a xlink:title=" ">
<polygon fill="#e0e0e0" stroke="#999999" points="1036.24,-184 987.24,-184 987.24,-165 1036.24,-165 1036.24,-184"/>
<text text-anchor="middle" x="1011.74" y="-172" font-family="Helvetica,sans-Serif" font-size="10.00">cstdlib</text>
</a>
</g>
</g>
<!-- Node1&#45;&gt;Node25 -->
<g id="edge45_Node000001_Node000025" class="edge">
<title>Node1&#45;&gt;Node25</title>
<g id="a_edge45_Node000001_Node000025"><a xlink:title=" ">
<path fill="none" stroke="#63b8ff" d="M667.87,-223.85C737.95,-217.57 861.6,-204.89 976.88,-183.93"/>
<polygon fill="#63b8ff" stroke="#63b8ff" points="977.74,-187.33 986.94,-182.08 976.47,-180.45 977.74,-187.33"/>
</a>
</g>
</g>
<!-- Node26 -->
<g id="Node000026" class="node">
<title>Node26</title>
<g id="a_Node000026"><a xlink:title=" ">
<polygon fill="#e0e0e0" stroke="#999999" points="1101.24,-184 1054.24,-184 1054.24,-165 1101.24,-165 1101.24,-184"/>
<text text-anchor="middle" x="1077.74" y="-172" font-family="Helvetica,sans-Serif" font-size="10.00">cmath</text>
</a>
</g>
</g>
<!-- Node1&#45;&gt;Node26 -->
<g id="edge46_Node000001_Node000026" class="edge">
<title>Node1&#45;&gt;Node26</title>
<g id="a_edge46_Node000001_Node000026"><a xlink:title=" ">
<path fill="none" stroke="#63b8ff" d="M667.98,-225.57C749.16,-220.71 903.97,-209.12 1044.01,-184.06"/>
<polygon fill="#63b8ff" stroke="#63b8ff" points="1044.86,-187.46 1054.07,-182.23 1043.6,-180.58 1044.86,-187.46"/>
</a>
</g>
</g>
<!-- Node2&#45;&gt;Node3 -->
<g id="edge2_Node000002_Node000003" class="edge">
<title>Node2&#45;&gt;Node3</title>
<g id="a_edge2_Node000002_Node000003"><a xlink:title=" ">
<path fill="none" stroke="#63b8ff" d="M232.74,-54.75C232.74,-47.8 232.74,-37.85 232.74,-29.13"/>
<polygon fill="#63b8ff" stroke="#63b8ff" points="236.24,-29.09 232.74,-19.09 229.24,-29.09 236.24,-29.09"/>
</a>
</g>
</g>
<!-- Node4 -->
<g id="Node000004" class="node">
<title>Node4</title>
<g id="a_Node000004"><a xlink:title=" ">
<polygon fill="#e0e0e0" stroke="#999999" points="605.24,-19 558.24,-19 558.24,0 605.24,0 605.24,-19"/>
<text text-anchor="middle" x="581.74" y="-7" font-family="Helvetica,sans-Serif" font-size="10.00">vector</text>
</a>
</g>
</g>
<!-- Node2&#45;&gt;Node4 -->
<g id="edge3_Node000002_Node000004" class="edge">
<title>Node2&#45;&gt;Node4</title>
<g id="a_edge3_Node000002_Node000004"><a xlink:title=" ">
<path fill="none" stroke="#63b8ff" d="M284.91,-56.27C371.09,-44.32 535,-21.49 547.74,-19 547.85,-18.98 547.95,-18.96 548.06,-18.94"/>
<polygon fill="#63b8ff" stroke="#63b8ff" points="549.01,-22.31 558.03,-16.76 547.52,-15.47 549.01,-22.31"/>
</a>
</g>
</g>
<!-- Node5 -->
<g id="Node000005" class="node">
<title>Node5</title>
<g id="a_Node000005"><a xlink:title=" ">
<polygon fill="#e0e0e0" stroke="#999999" points="424.74,-19 386.74,-19 386.74,0 424.74,0 424.74,-19"/>
<text text-anchor="middle" x="405.74" y="-7" font-family="Helvetica,sans-Serif" font-size="10.00">map</text>
</a>
</g>
</g>
<!-- Node2&#45;&gt;Node5 -->
<g id="edge4_Node000002_Node000005" class="edge">
<title>Node2&#45;&gt;Node5</title>
<g id="a_edge4_Node000002_Node000005"><a xlink:title=" ">
<path fill="none" stroke="#63b8ff" d="M260.54,-54.98C292.43,-45.22 344.47,-29.27 376.82,-19.36"/>
<polygon fill="#63b8ff" stroke="#63b8ff" points="378.05,-22.64 386.58,-16.37 376,-15.95 378.05,-22.64"/>
</a>
</g>
</g>
<!-- Node6&#45;&gt;Node3 -->
<g id="edge7_Node000006_Node000003" class="edge">
<title>Node6&#45;&gt;Node3</title>
<g id="a_edge7_Node000006_Node000003"><a xlink:title=" ">
<path fill="none" stroke="#63b8ff" d="M67.94,-164.95C57.53,-152.43 41.51,-128.58 51.74,-110 82.43,-54.29 157.49,-28.01 200.69,-17.13"/>
<polygon fill="#63b8ff" stroke="#63b8ff" points="201.78,-20.47 210.69,-14.74 200.15,-13.66 201.78,-20.47"/>
</a>
</g>
</g>
<!-- Node7 -->
<g id="Node000007" class="node">
<title>Node7</title>
<g id="a_Node000007"><a xlink:title=" ">
<polygon fill="#e0e0e0" stroke="#999999" points="126.24,-129 61.24,-129 61.24,-110 126.24,-110 126.24,-129"/>
<text text-anchor="middle" x="93.74" y="-117" font-family="Helvetica,sans-Serif" font-size="10.00">functional</text>
</a>
</g>
</g>
<!-- Node6&#45;&gt;Node7 -->
<g id="edge6_Node000006_Node000007" class="edge">
<title>Node6&#45;&gt;Node7</title>
<g id="a_edge6_Node000006_Node000007"><a xlink:title=" ">
<path fill="none" stroke="#63b8ff" d="M78.71,-164.75C81.1,-157.72 84.53,-147.62 87.51,-138.84"/>
<polygon fill="#63b8ff" stroke="#63b8ff" points="90.92,-139.68 90.82,-129.09 84.29,-137.43 90.92,-139.68"/>
</a>
</g>
</g>
<!-- Node8&#45;&gt;Node3 -->
<g id="edge33_Node000008_Node000003" class="edge">
<title>Node8&#45;&gt;Node3</title>
<g id="a_edge33_Node000008_Node000003"><a xlink:title=" ">
<path fill="none" stroke="#63b8ff" d="M560.46,-170.38C453.91,-162.64 214.87,-138.32 171.74,-74 158.78,-54.67 182.81,-35.87 204.42,-23.81"/>
<polygon fill="#63b8ff" stroke="#63b8ff" points="206.2,-26.83 213.42,-19.07 202.94,-20.63 206.2,-26.83"/>
</a>
</g>
</g>
<!-- Node8&#45;&gt;Node4 -->
<g id="edge34_Node000008_Node000004" class="edge">
<title>Node8&#45;&gt;Node4</title>
<g id="a_edge34_Node000008_Node000004"><a xlink:title=" ">
<path fill="none" stroke="#63b8ff" d="M663.11,-173.6C785.45,-172.19 1077.22,-158.25 984.74,-55 960.26,-27.67 708.35,-15.34 615.69,-11.7"/>
<polygon fill="#63b8ff" stroke="#63b8ff" points="615.59,-8.2 605.46,-11.31 615.32,-15.19 615.59,-8.2"/>
</a>
</g>
</g>
<!-- Node8&#45;&gt;Node5 -->
<g id="edge35_Node000008_Node000005" class="edge">
<title>Node8&#45;&gt;Node5</title>
<g id="a_edge35_Node000008_Node000005"><a xlink:title=" ">
<path fill="none" stroke="#63b8ff" d="M560.72,-173.41C485.22,-172.06 349.35,-164.6 318.74,-129 286.08,-91 355.09,-117.36 389.74,-74 399.83,-61.37 403.65,-43.18 405.05,-29.5"/>
<polygon fill="#63b8ff" stroke="#63b8ff" points="408.56,-29.51 405.74,-19.3 401.57,-29.04 408.56,-29.51"/>
</a>
</g>
</g>
<!-- Node9 -->
<g id="Node000009" class="node">
<title>Node9</title>
<g id="a_Node000009"><a xlink:title=" ">
<polygon fill="#e0e0e0" stroke="#999999" points="384.24,-129 335.24,-129 335.24,-110 384.24,-110 384.24,-129"/>
<text text-anchor="middle" x="359.74" y="-117" font-family="Helvetica,sans-Serif" font-size="10.00">TFile.h</text>
</a>
</g>
</g>
<!-- Node8&#45;&gt;Node9 -->
<g id="edge9_Node000008_Node000009" class="edge">
<title>Node8&#45;&gt;Node9</title>
<g id="a_edge9_Node000008_Node000009"><a xlink:title=" ">
<path fill="none" stroke="#63b8ff" d="M566.94,-164.95C524.94,-156.8 460.16,-143.89 394.68,-129.13"/>
<polygon fill="#63b8ff" stroke="#63b8ff" points="395.12,-125.64 384.59,-126.85 393.57,-132.47 395.12,-125.64"/>
</a>
</g>
</g>
<!-- Node10 -->
<g id="Node000010" class="node">
<title>Node10</title>
<g id="a_Node000010"><a xlink:title=" ">
<polygon fill="#e0e0e0" stroke="#999999" points="975.74,-74 923.74,-74 923.74,-55 975.74,-55 975.74,-74"/>
<text text-anchor="middle" x="949.74" y="-62" font-family="Helvetica,sans-Serif" font-size="10.00">TTree.h</text>
</a>
</g>
</g>
<!-- Node8&#45;&gt;Node10 -->
<g id="edge10_Node000008_Node000010" class="edge">
<title>Node8&#45;&gt;Node10</title>
<g id="a_edge10_Node000008_Node000010"><a xlink:title=" ">
<path fill="none" stroke="#63b8ff" d="M662.87,-174.35C747.12,-174.55 909.53,-169.51 946.74,-129 957.58,-117.2 957.09,-98.36 954.63,-84.26"/>
<polygon fill="#63b8ff" stroke="#63b8ff" points="957.99,-83.21 952.42,-74.19 951.15,-84.71 957.99,-83.21"/>
</a>
</g>
</g>
<!-- Node11 -->
<g id="Node000011" class="node">
<title>Node11</title>
<g id="a_Node000011"><a xlink:title=" ">
<polygon fill="#e0e0e0" stroke="#999999" points="467.24,-129 402.24,-129 402.24,-110 467.24,-110 467.24,-129"/>
<text text-anchor="middle" x="434.74" y="-117" font-family="Helvetica,sans-Serif" font-size="10.00">TBranch.h</text>
</a>
</g>
</g>
<!-- Node8&#45;&gt;Node11 -->
<g id="edge11_Node000008_Node000011" class="edge">
<title>Node8&#45;&gt;Node11</title>
<g id="a_edge11_Node000008_Node000011"><a xlink:title=" ">
<path fill="none" stroke="#63b8ff" d="M583.3,-164.98C553.46,-156.05 506.36,-141.94 473.21,-132.02"/>
<polygon fill="#63b8ff" stroke="#63b8ff" points="473.99,-128.6 463.4,-129.08 471.98,-135.3 473.99,-128.6"/>
</a>
</g>
</g>
<!-- Node12 -->
<g id="Node000012" class="node">
<title>Node12</title>
<g id="a_Node000012"><a xlink:title=" ">
<polygon fill="#e0e0e0" stroke="#999999" points="537.74,-129 485.74,-129 485.74,-110 537.74,-110 537.74,-129"/>
<text text-anchor="middle" x="511.74" y="-117" font-family="Helvetica,sans-Serif" font-size="10.00">TLeaf.h</text>
</a>
</g>
</g>
<!-- Node8&#45;&gt;Node12 -->
<g id="edge12_Node000008_Node000012" class="edge">
<title>Node8&#45;&gt;Node12</title>
<g id="a_edge12_Node000008_Node000012"><a xlink:title=" ">
<path fill="none" stroke="#63b8ff" d="M595.67,-164.98C579.88,-156.61 555.52,-143.7 537.11,-133.95"/>
<polygon fill="#63b8ff" stroke="#63b8ff" points="538.58,-130.76 528.1,-129.17 535.3,-136.95 538.58,-130.76"/>
</a>
</g>
</g>
<!-- Node13 -->
<g id="Node000013" class="node">
<title>Node13</title>
<g id="a_Node000013"><a xlink:title=" ">
<polygon fill="#e0e0e0" stroke="#999999" points="667.24,-129 556.24,-129 556.24,-110 667.24,-110 667.24,-129"/>
<text text-anchor="middle" x="611.74" y="-117" font-family="Helvetica,sans-Serif" font-size="10.00">TTreeReaderArray.h</text>
</a>
</g>
</g>
<!-- Node8&#45;&gt;Node13 -->
<g id="edge13_Node000008_Node000013" class="edge">
<title>Node8&#45;&gt;Node13</title>
<g id="a_edge13_Node000008_Node000013"><a xlink:title=" ">
<path fill="none" stroke="#63b8ff" d="M611.74,-164.75C611.74,-157.8 611.74,-147.85 611.74,-139.13"/>
<polygon fill="#63b8ff" stroke="#63b8ff" points="615.24,-139.09 611.74,-129.09 608.24,-139.09 615.24,-139.09"/>
</a>
</g>
</g>
<!-- Node14 -->
<g id="Node000014" class="node">
<title>Node14</title>
<g id="a_Node000014"><a xlink:title=" ">
<polygon fill="#e0e0e0" stroke="#999999" points="771.74,-129 685.74,-129 685.74,-110 771.74,-110 771.74,-129"/>
<text text-anchor="middle" x="728.74" y="-117" font-family="Helvetica,sans-Serif" font-size="10.00">TTreeReader.h</text>
</a>
</g>
</g>
<!-- Node8&#45;&gt;Node14 -->
<g id="edge14_Node000008_Node000014" class="edge">
<title>Node8&#45;&gt;Node14</title>
<g id="a_edge14_Node000008_Node000014"><a xlink:title=" ">
<path fill="none" stroke="#63b8ff" d="M630.54,-164.98C649.36,-156.46 678.56,-143.23 700.24,-133.41"/>
<polygon fill="#63b8ff" stroke="#63b8ff" points="701.94,-136.48 709.6,-129.17 699.05,-130.11 701.94,-136.48"/>
</a>
</g>
</g>
<!-- Node15 -->
<g id="Node000015" class="node">
<title>Node15</title>
<g id="a_Node000015"><a xlink:href="vector__cast_8h.html" target="_top" xlink:title=" ">
<polygon fill="white" stroke="#666666" points="937.24,-129 828.24,-129 828.24,-110 937.24,-110 937.24,-129"/>
<text text-anchor="middle" x="882.74" y="-117" font-family="Helvetica,sans-Serif" font-size="10.00">tools/vector_cast.h</text>
</a>
</g>
</g>
<!-- Node8&#45;&gt;Node15 -->
<g id="edge15_Node000008_Node000015" class="edge">
<title>Node8&#45;&gt;Node15</title>
<g id="a_edge15_Node000008_Node000015"><a xlink:title=" ">
<path fill="none" stroke="#63b8ff" d="M655.28,-164.98C702.55,-155.74 778.09,-140.97 829.02,-131.01"/>
<polygon fill="#63b8ff" stroke="#63b8ff" points="829.72,-134.44 838.86,-129.08 828.37,-127.57 829.72,-134.44"/>
</a>
</g>
</g>
<!-- Node17 -->
<g id="Node000017" class="node">
<title>Node17</title>
<g id="a_Node000017"><a xlink:href="structs_2include_2structs_2meta_8h.html" target="_top" xlink:title="Defines metadata structures for physics analysis datasets.">
<polygon fill="white" stroke="#666666" points="627.24,-74 540.24,-74 540.24,-55 627.24,-55 627.24,-74"/>
<text text-anchor="middle" x="583.74" y="-62" font-family="Helvetica,sans-Serif" font-size="10.00">structs/meta.h</text>
</a>
</g>
</g>
<!-- Node8&#45;&gt;Node17 -->
<g id="edge31_Node000008_Node000017" class="edge">
<title>Node8&#45;&gt;Node17</title>
<g id="a_edge31_Node000008_Node000017"><a xlink:title=" ">
<path fill="none" stroke="#63b8ff" d="M662.87,-171.26C724.22,-166.67 814.84,-152.66 780.74,-110 771.72,-98.72 692.73,-83.53 637.55,-74.13"/>
<polygon fill="#63b8ff" stroke="#63b8ff" points="637.99,-70.66 627.55,-72.45 636.83,-77.56 637.99,-70.66"/>
</a>
</g>
</g>
<!-- Node8&#45;&gt;Node18 -->
<g id="edge32_Node000008_Node000018" class="edge">
<title>Node8&#45;&gt;Node18</title>
<g id="a_edge32_Node000008_Node000018"><a xlink:title=" ">
<path fill="none" stroke="#63b8ff" d="M662.83,-171.27C763.11,-166.38 977.96,-153.18 1000.74,-129 1023.31,-105.04 1023.57,-81.27 1003.74,-55 989.78,-36.5 929.31,-23.4 887.89,-16.4"/>
<polygon fill="#63b8ff" stroke="#63b8ff" points="888.25,-12.91 877.81,-14.75 887.12,-19.82 888.25,-12.91"/>
</a>
</g>
</g>
<!-- Node19 -->
<g id="Node000019" class="node">
<title>Node19</title>
<g id="a_Node000019"><a xlink:href="modules_2structs_2include_2structs_2base_8h.html" target="_top" xlink:title="Defines fundamental data structures and type handling for the AnalysisG framework.">
<polygon fill="white" stroke="#666666" points="522.24,-74 437.24,-74 437.24,-55 522.24,-55 522.24,-74"/>
<text text-anchor="middle" x="479.74" y="-62" font-family="Helvetica,sans-Serif" font-size="10.00">structs/base.h</text>
</a>
</g>
</g>
<!-- Node8&#45;&gt;Node19 -->
<g id="edge30_Node000008_Node000019" class="edge">
<title>Node8&#45;&gt;Node19</title>
<g id="a_edge30_Node000008_Node000019"><a xlink:title=" ">
<path fill="none" stroke="#63b8ff" d="M560.58,-173.15C486.84,-171.44 356.25,-163.48 326.74,-129 321.25,-122.58 321.67,-116.75 326.74,-110 338.96,-93.72 387.71,-81.45 426.94,-73.96"/>
<polygon fill="#63b8ff" stroke="#63b8ff" points="427.74,-77.37 436.94,-72.11 426.47,-70.49 427.74,-77.37"/>
</a>
</g>
</g>
<!-- Node15&#45;&gt;Node4 -->
<g id="edge29_Node000015_Node000004" class="edge">
<title>Node15&#45;&gt;Node4</title>
<g id="a_edge29_Node000015_Node000004"><a xlink:title=" ">
<path fill="none" stroke="#63b8ff" d="M827.98,-112.68C784.98,-106.73 724.3,-95.24 674.74,-74 646.17,-61.76 617.22,-40.23 599.38,-25.67"/>
<polygon fill="#63b8ff" stroke="#63b8ff" points="601.48,-22.87 591.56,-19.16 597,-28.25 601.48,-22.87"/>
</a>
</g>
</g>
<!-- Node15&#45;&gt;Node10 -->
<g id="edge28_Node000015_Node000010" class="edge">
<title>Node15&#45;&gt;Node10</title>
<g id="a_edge28_Node000015_Node000010"><a xlink:title=" ">
<path fill="none" stroke="#63b8ff" d="M893.51,-109.98C903.51,-102.07 918.63,-90.11 930.67,-80.58"/>
<polygon fill="#63b8ff" stroke="#63b8ff" points="933.11,-83.12 938.78,-74.17 928.77,-77.63 933.11,-83.12"/>
</a>
</g>
</g>
<!-- Node16 -->
<g id="Node000016" class="node">
<title>Node16</title>
<g id="a_Node000016"><a xlink:title=" ">
<polygon fill="#e0e0e0" stroke="#999999" points="809.74,-74 683.74,-74 683.74,-55 809.74,-55 809.74,-74"/>
<text text-anchor="middle" x="746.74" y="-62" font-family="Helvetica,sans-Serif" font-size="10.00">c10/core/DeviceType.h</text>
</a>
</g>
</g>
<!-- Node15&#45;&gt;Node16 -->
<g id="edge16_Node000015_Node000016" class="edge">
<title>Node15&#45;&gt;Node16</title>
<g id="a_edge16_Node000015_Node000016"><a xlink:title=" ">
<path fill="none" stroke="#63b8ff" d="M860.89,-109.98C838.62,-101.3 803.84,-87.75 778.52,-77.88"/>
<polygon fill="#63b8ff" stroke="#63b8ff" points="779.58,-74.54 768.99,-74.17 777.04,-81.06 779.58,-74.54"/>
</a>
</g>
</g>
<!-- Node15&#45;&gt;Node17 -->
<g id="edge17_Node000015_Node000017" class="edge">
<title>Node15&#45;&gt;Node17</title>
<g id="a_edge17_Node000015_Node000017"><a xlink:title=" ">
<path fill="none" stroke="#63b8ff" d="M834.7,-109.98C780.78,-100.43 693.5,-84.96 637.39,-75.01"/>
<polygon fill="#63b8ff" stroke="#63b8ff" points="637.74,-71.52 627.29,-73.22 636.52,-78.41 637.74,-71.52"/>
</a>
</g>
</g>
<!-- Node15&#45;&gt;Node19 -->
<g id="edge22_Node000015_Node000019" class="edge">
<title>Node15&#45;&gt;Node19</title>
<g id="a_edge22_Node000015_Node000019"><a xlink:title=" ">
<path fill="none" stroke="#63b8ff" d="M827.94,-112.17C760.83,-104.28 643.43,-90.03 532.33,-74.04"/>
<polygon fill="#63b8ff" stroke="#63b8ff" points="532.69,-70.55 522.29,-72.58 531.68,-77.48 532.69,-70.55"/>
</a>
</g>
</g>
<!-- Node21 -->
<g id="Node000021" class="node">
<title>Node21</title>
<g id="a_Node000021"><a xlink:title=" ">
<polygon fill="#e0e0e0" stroke="#999999" points="905.74,-74 827.74,-74 827.74,-55 905.74,-55 905.74,-74"/>
<text text-anchor="middle" x="866.74" y="-62" font-family="Helvetica,sans-Serif" font-size="10.00">torch/torch.h</text>
</a>
</g>
</g>
<!-- Node15&#45;&gt;Node21 -->
<g id="edge27_Node000015_Node000021" class="edge">
<title>Node15&#45;&gt;Node21</title>
<g id="a_edge27_Node000015_Node000021"><a xlink:title=" ">
<path fill="none" stroke="#63b8ff" d="M880.1,-109.75C877.98,-102.72 874.93,-92.62 872.28,-83.84"/>
<polygon fill="#63b8ff" stroke="#63b8ff" points="875.57,-82.65 869.33,-74.09 868.87,-84.67 875.57,-82.65"/>
</a>
</g>
</g>
<!-- Node17&#45;&gt;Node3 -->
<g id="edge19_Node000017_Node000003" class="edge">
<title>Node17&#45;&gt;Node3</title>
<g id="a_edge19_Node000017_Node000003"><a xlink:title=" ">
<path fill="none" stroke="#63b8ff" d="M540.06,-56.31C537.24,-55.86 534.45,-55.42 531.74,-55 434.76,-39.86 319.89,-23.09 265.04,-15.15"/>
<polygon fill="#63b8ff" stroke="#63b8ff" points="265.29,-11.65 254.89,-13.69 264.29,-18.58 265.29,-11.65"/>
</a>
</g>
</g>
<!-- Node17&#45;&gt;Node4 -->
<g id="edge20_Node000017_Node000004" class="edge">
<title>Node17&#45;&gt;Node4</title>
<g id="a_edge20_Node000017_Node000004"><a xlink:title=" ">
<path fill="none" stroke="#63b8ff" d="M583.41,-54.75C583.15,-47.8 582.77,-37.85 582.44,-29.13"/>
<polygon fill="#63b8ff" stroke="#63b8ff" points="585.94,-28.95 582.07,-19.09 578.94,-29.21 585.94,-28.95"/>
</a>
</g>
</g>
<!-- Node17&#45;&gt;Node5 -->
<g id="edge21_Node000017_Node000005" class="edge">
<title>Node17&#45;&gt;Node5</title>
<g id="a_edge21_Node000017_Node000005"><a xlink:title=" ">
<path fill="none" stroke="#63b8ff" d="M555.14,-54.98C522.15,-45.16 468.2,-29.1 434.96,-19.2"/>
<polygon fill="#63b8ff" stroke="#63b8ff" points="435.53,-15.72 424.94,-16.22 433.53,-22.43 435.53,-15.72"/>
</a>
</g>
</g>
<!-- Node17&#45;&gt;Node18 -->
<g id="edge18_Node000017_Node000018" class="edge">
<title>Node17&#45;&gt;Node18</title>
<g id="a_edge18_Node000017_Node000018"><a xlink:title=" ">
<path fill="none" stroke="#63b8ff" d="M626.16,-54.98C676.1,-44.96 758.43,-28.43 807.43,-18.59"/>
<polygon fill="#63b8ff" stroke="#63b8ff" points="808.25,-22 817.36,-16.6 806.87,-15.14 808.25,-22"/>
</a>
</g>
</g>
<!-- Node19&#45;&gt;Node3 -->
<g id="edge23_Node000019_Node000003" class="edge">
<title>Node19&#45;&gt;Node3</title>
<g id="a_edge23_Node000019_Node000003"><a xlink:title=" ">
<path fill="none" stroke="#63b8ff" d="M440.06,-54.98C391.35,-44.53 309.71,-27.01 264.78,-17.38"/>
<polygon fill="#63b8ff" stroke="#63b8ff" points="265.5,-13.95 254.99,-15.27 264.03,-20.79 265.5,-13.95"/>
</a>
</g>
</g>
<!-- Node19&#45;&gt;Node4 -->
<g id="edge24_Node000019_Node000004" class="edge">
<title>Node19&#45;&gt;Node4</title>
<g id="a_edge24_Node000019_Node000004"><a xlink:title=" ">
<path fill="none" stroke="#63b8ff" d="M496.13,-54.98C512.32,-46.57 537.31,-33.59 556.12,-23.81"/>
<polygon fill="#63b8ff" stroke="#63b8ff" points="557.8,-26.89 565.05,-19.17 554.57,-20.68 557.8,-26.89"/>
</a>
</g>
</g>
<!-- Node19&#45;&gt;Node5 -->
<g id="edge25_Node000019_Node000005" class="edge">
<title>Node19&#45;&gt;Node5</title>
<g id="a_edge25_Node000019_Node000005"><a xlink:title=" ">
<path fill="none" stroke="#63b8ff" d="M467.85,-54.98C456.59,-46.92 439.45,-34.65 426.03,-25.03"/>
<polygon fill="#63b8ff" stroke="#63b8ff" points="428.01,-22.15 417.85,-19.17 423.94,-27.84 428.01,-22.15"/>
</a>
</g>
</g>
<!-- Node20 -->
<g id="Node000020" class="node">
<title>Node20</title>
<g id="a_Node000020"><a xlink:href="enums_8h.html" target="_top" xlink:title=" ">
<polygon fill="white" stroke="#666666" points="538.24,-19 443.24,-19 443.24,0 538.24,0 538.24,-19"/>
<text text-anchor="middle" x="490.74" y="-7" font-family="Helvetica,sans-Serif" font-size="10.00">structs/enums.h</text>
</a>
</g>
</g>
<!-- Node19&#45;&gt;Node20 -->
<g id="edge26_Node000019_Node000020" class="edge">
<title>Node19&#45;&gt;Node20</title>
<g id="a_edge26_Node000019_Node000020"><a xlink:title=" ">
<path fill="none" stroke="#63b8ff" d="M481.56,-54.75C483,-47.8 485.07,-37.85 486.87,-29.13"/>
<polygon fill="#63b8ff" stroke="#63b8ff" points="490.35,-29.59 488.96,-19.09 483.5,-28.17 490.35,-29.59"/>
</a>
</g>
</g>
<!-- Node22&#45;&gt;Node3 -->
<g id="edge38_Node000022_Node000003" class="edge">
<title>Node22&#45;&gt;Node3</title>
<g id="a_edge38_Node000022_Node000003"><a xlink:title=" ">
<path fill="none" stroke="#63b8ff" d="M324.23,-54.98C306.77,-46.5 279.73,-33.35 259.57,-23.54"/>
<polygon fill="#63b8ff" stroke="#63b8ff" points="261.1,-20.4 250.57,-19.17 258.04,-26.69 261.1,-20.4"/>
</a>
</g>
</g>
<!-- Node22&#45;&gt;Node4 -->
<g id="edge39_Node000022_Node000004" class="edge">
<title>Node22&#45;&gt;Node4</title>
<g id="a_edge39_Node000022_Node000004"><a xlink:title=" ">
<path fill="none" stroke="#63b8ff" d="M380.55,-55.51C422.02,-46.87 489.66,-32.53 547.74,-19 547.84,-18.98 547.95,-18.95 548.05,-18.93"/>
<polygon fill="#63b8ff" stroke="#63b8ff" points="549.08,-22.28 557.99,-16.54 547.45,-15.47 549.08,-22.28"/>
</a>
</g>
</g>
<!-- Node22&#45;&gt;Node5 -->
<g id="edge41_Node000022_Node000005" class="edge">
<title>Node22&#45;&gt;Node5</title>
<g id="a_edge41_Node000022_Node000005"><a xlink:title=" ">
<path fill="none" stroke="#63b8ff" d="M352.02,-54.98C361.58,-47.07 376.02,-35.11 387.53,-25.58"/>
<polygon fill="#63b8ff" stroke="#63b8ff" points="389.8,-28.24 395.27,-19.17 385.34,-22.85 389.8,-28.24"/>
</a>
</g>
</g>
<!-- Node22&#45;&gt;Node18 -->
<g id="edge37_Node000022_Node000018" class="edge">
<title>Node22&#45;&gt;Node18</title>
<g id="a_edge37_Node000022_Node000018"><a xlink:title=" ">
<path fill="none" stroke="#63b8ff" d="M380.61,-59.43C474.4,-49.6 712.43,-24.67 807.56,-14.71"/>
<polygon fill="#63b8ff" stroke="#63b8ff" points="808.06,-18.18 817.64,-13.65 807.33,-11.21 808.06,-18.18"/>
</a>
</g>
</g>
<!-- Node23 -->
<g id="Node000023" class="node">
<title>Node23</title>
<g id="a_Node000023"><a xlink:title=" ">
<polygon fill="#e0e0e0" stroke="#999999" points="366.74,-19 316.74,-19 316.74,0 366.74,0 366.74,-19"/>
<text text-anchor="middle" x="341.74" y="-7" font-family="Helvetica,sans-Serif" font-size="10.00">cstdint</text>
</a>
</g>
</g>
<!-- Node22&#45;&gt;Node23 -->
<g id="edge40_Node000022_Node000023" class="edge">
<title>Node22&#45;&gt;Node23</title>
<g id="a_edge40_Node000022_Node000023"><a xlink:title=" ">
<path fill="none" stroke="#63b8ff" d="M341.74,-54.75C341.74,-47.8 341.74,-37.85 341.74,-29.13"/>
<polygon fill="#63b8ff" stroke="#63b8ff" points="345.24,-29.09 341.74,-19.09 338.24,-29.09 345.24,-29.09"/>
</a>
</g>
</g>
</g>
</svg>
