<?xml version="1.0" encoding="UTF-8" standalone="no"?>
<!DOCTYPE svg PUBLIC "-//W3C//DTD SVG 1.1//EN"
 "http://www.w3.org/Graphics/SVG/1.1/DTD/svg11.dtd">
<!-- Generated by graphviz version 2.43.0 (0)
 -->
<!-- Title: plotting.h Pages: 1 -->
<svg width="1139pt" height="192pt"
 viewBox="0.00 0.00 1138.50 192.00" xmlns="http://www.w3.org/2000/svg" xmlns:xlink="http://www.w3.org/1999/xlink">
<g id="graph0" class="graph" transform="scale(1 1) rotate(0) translate(4 188)">
<title>plotting.h</title>
<!-- Node1 -->
<g id="Node000001" class="node">
<title>Node1</title>
<g id="a_Node000001"><a xlink:title="Defines the plotting class for creating and managing visualizations.">
<polygon fill="#999999" stroke="#666666" points="812,-184 749,-184 749,-165 812,-165 812,-184"/>
<text text-anchor="middle" x="780.5" y="-172" font-family="Helvetica,sans-Serif" font-size="10.00">plotting.h</text>
</a>
</g>
</g>
<!-- Node2 -->
<g id="Node000002" class="node">
<title>Node2</title>
<g id="a_Node000002"><a xlink:href="metric__template_8h.html" target="_top" xlink:title=" ">
<polygon fill="white" stroke="#666666" points="780,-129 673,-129 673,-110 780,-110 780,-129"/>
<text text-anchor="middle" x="726.5" y="-117" font-family="Helvetica,sans-Serif" font-size="10.00">metric_template.h</text>
</a>
</g>
</g>
<!-- Node1&#45;&gt;Node2 -->
<g id="edge1_Node000001_Node000002" class="edge">
<title>Node1&#45;&gt;Node2</title>
<g id="a_edge1_Node000001_Node000002"><a xlink:title=" ">
<path fill="none" stroke="#63b8ff" d="M764.22,-157.52C754.7,-148.18 743.06,-136.75 735.25,-129.09"/>
<polygon fill="#63b8ff" stroke="#63b8ff" points="761.99,-160.24 771.58,-164.75 766.9,-155.25 761.99,-160.24"/>
</a>
</g>
</g>
<!-- Node21 -->
<g id="Node000021" class="node">
<title>Node21</title>
<g id="a_Node000021"><a xlink:href="plotting_8cxx.html" target="_top" xlink:title="Implementation of plotting utilities.">
<polygon fill="white" stroke="#666666" points="872.5,-129 798.5,-129 798.5,-110 872.5,-110 872.5,-129"/>
<text text-anchor="middle" x="835.5" y="-117" font-family="Helvetica,sans-Serif" font-size="10.00">plotting.cxx</text>
</a>
</g>
</g>
<!-- Node1&#45;&gt;Node21 -->
<g id="edge20_Node000001_Node000021" class="edge">
<title>Node1&#45;&gt;Node21</title>
<g id="a_edge20_Node000001_Node000021"><a xlink:title=" ">
<path fill="none" stroke="#63b8ff" d="M796.79,-157.8C806.54,-148.41 818.55,-136.83 826.59,-129.09"/>
<polygon fill="#63b8ff" stroke="#63b8ff" points="794.35,-155.29 789.58,-164.75 799.21,-160.33 794.35,-155.29"/>
</a>
</g>
</g>
<!-- Node3 -->
<g id="Node000003" class="node">
<title>Node3</title>
<g id="a_Node000003"><a xlink:href="accuracy_8h.html" target="_top" xlink:title=" ">
<polygon fill="white" stroke="#666666" points="304.5,-74 236.5,-74 236.5,-55 304.5,-55 304.5,-74"/>
<text text-anchor="middle" x="270.5" y="-62" font-family="Helvetica,sans-Serif" font-size="10.00">accuracy.h</text>
</a>
</g>
</g>
<!-- Node2&#45;&gt;Node3 -->
<g id="edge2_Node000002_Node000003" class="edge">
<title>Node2&#45;&gt;Node3</title>
<g id="a_edge2_Node000002_Node000003"><a xlink:title=" ">
<path fill="none" stroke="#63b8ff" d="M662.78,-111.09C564.79,-99.7 380.49,-78.28 304.54,-69.46"/>
<polygon fill="#63b8ff" stroke="#63b8ff" points="662.51,-114.59 672.85,-112.26 663.32,-107.63 662.51,-114.59"/>
</a>
</g>
</g>
<!-- Node5 -->
<g id="Node000005" class="node">
<title>Node5</title>
<g id="a_Node000005"><a xlink:href="analysis_8h.html" target="_top" xlink:title="Defines the analysis class, the central orchestrator for physics analysis tasks.">
<polygon fill="white" stroke="#666666" points="562.5,-74 496.5,-74 496.5,-55 562.5,-55 562.5,-74"/>
<text text-anchor="middle" x="529.5" y="-62" font-family="Helvetica,sans-Serif" font-size="10.00">analysis.h</text>
</a>
</g>
</g>
<!-- Node2&#45;&gt;Node5 -->
<g id="edge4_Node000002_Node000005" class="edge">
<title>Node2&#45;&gt;Node5</title>
<g id="a_edge4_Node000002_Node000005"><a xlink:title=" ">
<path fill="none" stroke="#63b8ff" d="M684.91,-107.31C648.05,-97.39 595,-83.12 561.4,-74.08"/>
<polygon fill="#63b8ff" stroke="#63b8ff" points="684.28,-110.77 694.85,-109.98 686.1,-104.01 684.28,-110.77"/>
</a>
</g>
</g>
<!-- Node14 -->
<g id="Node000014" class="node">
<title>Node14</title>
<g id="a_Node000014"><a xlink:href="metric_2cxx_2base_8cxx.html" target="_top" xlink:title=" ">
<polygon fill="white" stroke="#666666" points="640.5,-74 580.5,-74 580.5,-55 640.5,-55 640.5,-74"/>
<text text-anchor="middle" x="610.5" y="-62" font-family="Helvetica,sans-Serif" font-size="10.00">base.cxx</text>
</a>
</g>
</g>
<!-- Node2&#45;&gt;Node14 -->
<g id="edge13_Node000002_Node000014" class="edge">
<title>Node2&#45;&gt;Node14</title>
<g id="a_edge13_Node000002_Node000014"><a xlink:title=" ">
<path fill="none" stroke="#63b8ff" d="M698.63,-105.77C677.23,-95.99 648.26,-82.75 629.48,-74.17"/>
<polygon fill="#63b8ff" stroke="#63b8ff" points="697.31,-109.01 707.86,-109.98 700.22,-102.65 697.31,-109.01"/>
</a>
</g>
</g>
<!-- Node15 -->
<g id="Node000015" class="node">
<title>Node15</title>
<g id="a_Node000015"><a xlink:href="link_8cxx.html" target="_top" xlink:title=" ">
<polygon fill="white" stroke="#666666" points="714,-74 659,-74 659,-55 714,-55 714,-74"/>
<text text-anchor="middle" x="686.5" y="-62" font-family="Helvetica,sans-Serif" font-size="10.00">link.cxx</text>
</a>
</g>
</g>
<!-- Node2&#45;&gt;Node15 -->
<g id="edge14_Node000002_Node000015" class="edge">
<title>Node2&#45;&gt;Node15</title>
<g id="a_edge14_Node000002_Node000015"><a xlink:title=" ">
<path fill="none" stroke="#63b8ff" d="M713.8,-101.67C706.87,-92.5 698.59,-81.52 692.98,-74.09"/>
<polygon fill="#63b8ff" stroke="#63b8ff" points="711.08,-103.87 719.89,-109.75 716.66,-99.66 711.08,-103.87"/>
</a>
</g>
</g>
<!-- Node16 -->
<g id="Node000016" class="node">
<title>Node16</title>
<g id="a_Node000016"><a xlink:href="metric_8cxx.html" target="_top" xlink:title=" ">
<polygon fill="white" stroke="#666666" points="800.5,-74 732.5,-74 732.5,-55 800.5,-55 800.5,-74"/>
<text text-anchor="middle" x="766.5" y="-62" font-family="Helvetica,sans-Serif" font-size="10.00">metric.cxx</text>
</a>
</g>
</g>
<!-- Node2&#45;&gt;Node16 -->
<g id="edge15_Node000002_Node000016" class="edge">
<title>Node2&#45;&gt;Node16</title>
<g id="a_edge15_Node000002_Node000016"><a xlink:title=" ">
<path fill="none" stroke="#63b8ff" d="M739.2,-101.67C746.13,-92.5 754.41,-81.52 760.02,-74.09"/>
<polygon fill="#63b8ff" stroke="#63b8ff" points="736.34,-99.66 733.11,-109.75 741.92,-103.87 736.34,-99.66"/>
</a>
</g>
</g>
<!-- Node17 -->
<g id="Node000017" class="node">
<title>Node17</title>
<g id="a_Node000017"><a xlink:href="metric__template_8cxx.html" target="_top" xlink:title=" ">
<polygon fill="white" stroke="#666666" points="936.5,-74 818.5,-74 818.5,-55 936.5,-55 936.5,-74"/>
<text text-anchor="middle" x="877.5" y="-62" font-family="Helvetica,sans-Serif" font-size="10.00">metric_template.cxx</text>
</a>
</g>
</g>
<!-- Node2&#45;&gt;Node17 -->
<g id="edge16_Node000002_Node000017" class="edge">
<title>Node2&#45;&gt;Node17</title>
<g id="a_edge16_Node000002_Node000017"><a xlink:title=" ">
<path fill="none" stroke="#63b8ff" d="M760.55,-106.55C788.59,-96.71 827.68,-82.98 852.8,-74.17"/>
<polygon fill="#63b8ff" stroke="#63b8ff" points="759.04,-103.37 750.76,-109.98 761.36,-109.98 759.04,-103.37"/>
</a>
</g>
</g>
<!-- Node18 -->
<g id="Node000018" class="node">
<title>Node18</title>
<g id="a_Node000018"><a xlink:href="pagerank_8h.html" target="_top" xlink:title=" ">
<polygon fill="white" stroke="#666666" points="1026,-74 955,-74 955,-55 1026,-55 1026,-74"/>
<text text-anchor="middle" x="990.5" y="-62" font-family="Helvetica,sans-Serif" font-size="10.00">pagerank.h</text>
</a>
</g>
</g>
<!-- Node2&#45;&gt;Node18 -->
<g id="edge17_Node000002_Node000018" class="edge">
<title>Node2&#45;&gt;Node18</title>
<g id="a_edge17_Node000002_Node000018"><a xlink:title=" ">
<path fill="none" stroke="#63b8ff" d="M778.98,-107.96C831.14,-97.49 909.7,-81.72 954.96,-72.63"/>
<polygon fill="#63b8ff" stroke="#63b8ff" points="778.03,-104.58 768.92,-109.98 779.41,-111.45 778.03,-104.58"/>
</a>
</g>
</g>
<!-- Node20 -->
<g id="Node000020" class="node">
<title>Node20</title>
<g id="a_Node000020"><a xlink:href="metric_2cxx_2properties_8cxx.html" target="_top" xlink:title=" ">
<polygon fill="white" stroke="#666666" points="1130.5,-74 1044.5,-74 1044.5,-55 1130.5,-55 1130.5,-74"/>
<text text-anchor="middle" x="1087.5" y="-62" font-family="Helvetica,sans-Serif" font-size="10.00">properties.cxx</text>
</a>
</g>
</g>
<!-- Node2&#45;&gt;Node20 -->
<g id="edge19_Node000002_Node000020" class="edge">
<title>Node2&#45;&gt;Node20</title>
<g id="a_edge19_Node000002_Node000020"><a xlink:title=" ">
<path fill="none" stroke="#63b8ff" d="M790.24,-109.68C852.75,-100.95 950.76,-87.03 1035.5,-74 1038.39,-73.56 1041.38,-73.09 1044.38,-72.61"/>
<polygon fill="#63b8ff" stroke="#63b8ff" points="789.56,-106.24 780.14,-111.09 790.52,-113.18 789.56,-106.24"/>
</a>
</g>
</g>
<!-- Node4 -->
<g id="Node000004" class="node">
<title>Node4</title>
<g id="a_Node000004"><a xlink:href="accuracy_8cxx.html" target="_top" xlink:title=" ">
<polygon fill="white" stroke="#666666" points="79,-19 0,-19 0,0 79,0 79,-19"/>
<text text-anchor="middle" x="39.5" y="-7" font-family="Helvetica,sans-Serif" font-size="10.00">accuracy.cxx</text>
</a>
</g>
</g>
<!-- Node3&#45;&gt;Node4 -->
<g id="edge3_Node000003_Node000004" class="edge">
<title>Node3&#45;&gt;Node4</title>
<g id="a_edge3_Node000003_Node000004"><a xlink:title=" ">
<path fill="none" stroke="#63b8ff" d="M226.44,-53.39C183.09,-43.45 117.64,-28.43 76.79,-19.06"/>
<polygon fill="#63b8ff" stroke="#63b8ff" points="225.89,-56.85 236.42,-55.68 227.45,-50.03 225.89,-56.85"/>
</a>
</g>
</g>
<!-- Node6 -->
<g id="Node000006" class="node">
<title>Node6</title>
<g id="a_Node000006"><a xlink:href="analysis_8cxx.html" target="_top" xlink:title=" ">
<polygon fill="white" stroke="#666666" points="174,-19 97,-19 97,0 174,0 174,-19"/>
<text text-anchor="middle" x="135.5" y="-7" font-family="Helvetica,sans-Serif" font-size="10.00">analysis.cxx</text>
</a>
</g>
</g>
<!-- Node5&#45;&gt;Node6 -->
<g id="edge5_Node000005_Node000006" class="edge">
<title>Node5&#45;&gt;Node6</title>
<g id="a_edge5_Node000005_Node000006"><a xlink:title=" ">
<path fill="none" stroke="#63b8ff" d="M486.04,-58.58C420.38,-51 292.04,-35.58 183.5,-19 180.49,-18.54 177.37,-18.04 174.25,-17.52"/>
<polygon fill="#63b8ff" stroke="#63b8ff" points="485.69,-62.06 496.03,-59.73 486.49,-55.11 485.69,-62.06"/>
</a>
</g>
</g>
<!-- Node7 -->
<g id="Node000007" class="node">
<title>Node7</title>
<g id="a_Node000007"><a xlink:href="event__build_8cxx.html" target="_top" xlink:title=" ">
<polygon fill="white" stroke="#666666" points="286.5,-19 192.5,-19 192.5,0 286.5,0 286.5,-19"/>
<text text-anchor="middle" x="239.5" y="-7" font-family="Helvetica,sans-Serif" font-size="10.00">event_build.cxx</text>
</a>
</g>
</g>
<!-- Node5&#45;&gt;Node7 -->
<g id="edge6_Node000005_Node000007" class="edge">
<title>Node5&#45;&gt;Node7</title>
<g id="a_edge6_Node000005_Node000007"><a xlink:title=" ">
<path fill="none" stroke="#63b8ff" d="M486.35,-55.61C432.7,-45.81 341.47,-29.14 286.22,-19.04"/>
<polygon fill="#63b8ff" stroke="#63b8ff" points="485.77,-59.07 496.23,-57.42 487.03,-52.18 485.77,-59.07"/>
</a>
</g>
</g>
<!-- Node8 -->
<g id="Node000008" class="node">
<title>Node8</title>
<g id="a_Node000008"><a xlink:href="graph__build_8cxx.html" target="_top" xlink:title=" ">
<polygon fill="white" stroke="#666666" points="398.5,-19 304.5,-19 304.5,0 398.5,0 398.5,-19"/>
<text text-anchor="middle" x="351.5" y="-7" font-family="Helvetica,sans-Serif" font-size="10.00">graph_build.cxx</text>
</a>
</g>
</g>
<!-- Node5&#45;&gt;Node8 -->
<g id="edge7_Node000005_Node000008" class="edge">
<title>Node5&#45;&gt;Node8</title>
<g id="a_edge7_Node000005_Node000008"><a xlink:title=" ">
<path fill="none" stroke="#63b8ff" d="M491.06,-52.06C457.8,-42.15 410.42,-28.04 380.32,-19.08"/>
<polygon fill="#63b8ff" stroke="#63b8ff" points="490.32,-55.49 500.9,-54.98 492.32,-48.78 490.32,-55.49"/>
</a>
</g>
</g>
<!-- Node9 -->
<g id="Node000009" class="node">
<title>Node9</title>
<g id="a_Node000009"><a xlink:href="inference__build_8cxx.html" target="_top" xlink:title=" ">
<polygon fill="white" stroke="#666666" points="528.5,-19 416.5,-19 416.5,0 528.5,0 528.5,-19"/>
<text text-anchor="middle" x="472.5" y="-7" font-family="Helvetica,sans-Serif" font-size="10.00">inference_build.cxx</text>
</a>
</g>
</g>
<!-- Node5&#45;&gt;Node9 -->
<g id="edge8_Node000005_Node000009" class="edge">
<title>Node5&#45;&gt;Node9</title>
<g id="a_edge8_Node000005_Node000009"><a xlink:title=" ">
<path fill="none" stroke="#63b8ff" d="M512.88,-48.04C502.77,-38.64 490.22,-26.98 481.82,-19.17"/>
<polygon fill="#63b8ff" stroke="#63b8ff" points="510.64,-50.74 520.34,-54.98 515.4,-45.61 510.64,-50.74"/>
</a>
</g>
</g>
<!-- Node10 -->
<g id="Node000010" class="node">
<title>Node10</title>
<g id="a_Node000010"><a xlink:href="methods_8cxx.html" target="_top" xlink:title=" ">
<polygon fill="white" stroke="#666666" points="626.5,-19 546.5,-19 546.5,0 626.5,0 626.5,-19"/>
<text text-anchor="middle" x="586.5" y="-7" font-family="Helvetica,sans-Serif" font-size="10.00">methods.cxx</text>
</a>
</g>
</g>
<!-- Node5&#45;&gt;Node10 -->
<g id="edge9_Node000005_Node000010" class="edge">
<title>Node5&#45;&gt;Node10</title>
<g id="a_edge9_Node000005_Node000010"><a xlink:title=" ">
<path fill="none" stroke="#63b8ff" d="M546.12,-48.04C556.23,-38.64 568.78,-26.98 577.18,-19.17"/>
<polygon fill="#63b8ff" stroke="#63b8ff" points="543.6,-45.61 538.66,-54.98 548.36,-50.74 543.6,-45.61"/>
</a>
</g>
</g>
<!-- Node11 -->
<g id="Node000011" class="node">
<title>Node11</title>
<g id="a_Node000011"><a xlink:href="metric__build_8cxx.html" target="_top" xlink:title=" ">
<polygon fill="white" stroke="#666666" points="742.5,-19 644.5,-19 644.5,0 742.5,0 742.5,-19"/>
<text text-anchor="middle" x="693.5" y="-7" font-family="Helvetica,sans-Serif" font-size="10.00">metric_build.cxx</text>
</a>
</g>
</g>
<!-- Node5&#45;&gt;Node11 -->
<g id="edge10_Node000005_Node000011" class="edge">
<title>Node5&#45;&gt;Node11</title>
<g id="a_edge10_Node000005_Node000011"><a xlink:title=" ">
<path fill="none" stroke="#63b8ff" d="M565.71,-51.8C596.32,-41.91 639.45,-27.97 666.94,-19.08"/>
<polygon fill="#63b8ff" stroke="#63b8ff" points="564.29,-48.58 555.85,-54.98 566.44,-55.24 564.29,-48.58"/>
</a>
</g>
</g>
<!-- Node12 -->
<g id="Node000012" class="node">
<title>Node12</title>
<g id="a_Node000012"><a xlink:href="optimizer__build_8cxx.html" target="_top" xlink:title="Implementation of model session creation and management in the analysis class.">
<polygon fill="white" stroke="#666666" points="874,-19 761,-19 761,0 874,0 874,-19"/>
<text text-anchor="middle" x="817.5" y="-7" font-family="Helvetica,sans-Serif" font-size="10.00">optimizer_build.cxx</text>
</a>
</g>
</g>
<!-- Node5&#45;&gt;Node12 -->
<g id="edge11_Node000005_Node000012" class="edge">
<title>Node5&#45;&gt;Node12</title>
<g id="a_edge11_Node000005_Node000012"><a xlink:title=" ">
<path fill="none" stroke="#63b8ff" d="M572.46,-54.85C646.44,-40.73 720.88,-27.44 768.44,-19.07"/>
<polygon fill="#63b8ff" stroke="#63b8ff" points="571.67,-51.44 562.5,-56.75 572.98,-58.31 571.67,-51.44"/>
</a>
</g>
</g>
<!-- Node13 -->
<g id="Node000013" class="node">
<title>Node13</title>
<g id="a_Node000013"><a xlink:href="selection__build_8cxx.html" target="_top" xlink:title=" ">
<polygon fill="white" stroke="#666666" points="1002.5,-19 892.5,-19 892.5,0 1002.5,0 1002.5,-19"/>
<text text-anchor="middle" x="947.5" y="-7" font-family="Helvetica,sans-Serif" font-size="10.00">selection_build.cxx</text>
</a>
</g>
</g>
<!-- Node5&#45;&gt;Node13 -->
<g id="edge12_Node000005_Node000013" class="edge">
<title>Node5&#45;&gt;Node13</title>
<g id="a_edge12_Node000005_Node000013"><a xlink:title=" ">
<path fill="none" stroke="#63b8ff" d="M573.04,-54.87C711.09,-33.27 748.22,-35.79 883.5,-19 886.39,-18.64 889.36,-18.27 892.35,-17.89"/>
<polygon fill="#63b8ff" stroke="#63b8ff" points="572.26,-51.45 562.92,-56.47 573.35,-58.37 572.26,-51.45"/>
</a>
</g>
</g>
<!-- Node19 -->
<g id="Node000019" class="node">
<title>Node19</title>
<g id="a_Node000019"><a xlink:href="pagerank_8cxx.html" target="_top" xlink:title=" ">
<polygon fill="white" stroke="#666666" points="1104,-19 1021,-19 1021,0 1104,0 1104,-19"/>
<text text-anchor="middle" x="1062.5" y="-7" font-family="Helvetica,sans-Serif" font-size="10.00">pagerank.cxx</text>
</a>
</g>
</g>
<!-- Node18&#45;&gt;Node19 -->
<g id="edge18_Node000018_Node000019" class="edge">
<title>Node18&#45;&gt;Node19</title>
<g id="a_edge18_Node000018_Node000019"><a xlink:title=" ">
<path fill="none" stroke="#63b8ff" d="M1010.37,-48.88C1023.32,-39.34 1039.8,-27.21 1050.72,-19.17"/>
<polygon fill="#63b8ff" stroke="#63b8ff" points="1008.05,-46.24 1002.07,-54.98 1012.2,-51.88 1008.05,-46.24"/>
</a>
</g>
</g>
</g>
</svg>
