<?xml version="1.0" encoding="UTF-8" standalone="no"?>
<!DOCTYPE svg PUBLIC "-//W3C//DTD SVG 1.1//EN"
 "http://www.w3.org/Graphics/SVG/1.1/DTD/svg11.dtd">
<!-- Generated by graphviz version 2.43.0 (0)
 -->
<!-- Title: plotting.h Pages: 1 -->
<svg width="535pt" height="137pt"
 viewBox="0.00 0.00 535.00 137.00" xmlns="http://www.w3.org/2000/svg" xmlns:xlink="http://www.w3.org/1999/xlink">
<g id="graph0" class="graph" transform="scale(1 1) rotate(0) translate(4 133)">
<title>plotting.h</title>
<!-- Node1 -->
<g id="Node000001" class="node">
<title>Node1</title>
<g id="a_Node000001"><a xlink:title="Defines the plotting class for creating and managing visualizations.">
<polygon fill="#999999" stroke="#666666" points="384,-129 321,-129 321,-110 384,-110 384,-129"/>
<text text-anchor="middle" x="352.5" y="-117" font-family="Helvetica,sans-Serif" font-size="10.00">plotting.h</text>
</a>
</g>
</g>
<!-- Node2 -->
<g id="Node000002" class="node">
<title>Node2</title>
<g id="a_Node000002"><a xlink:href="notification_8h.html" target="_top" xlink:title="Defines the notification class for logging and messaging functionality.">
<polygon fill="white" stroke="#666666" points="295.5,-74 157.5,-74 157.5,-55 295.5,-55 295.5,-74"/>
<text text-anchor="middle" x="226.5" y="-62" font-family="Helvetica,sans-Serif" font-size="10.00">notification/notification.h</text>
</a>
</g>
</g>
<!-- Node1&#45;&gt;Node2 -->
<g id="edge1_Node000001_Node000002" class="edge">
<title>Node1&#45;&gt;Node2</title>
<g id="a_edge1_Node000001_Node000002"><a xlink:title=" ">
<path fill="none" stroke="#63b8ff" d="M332.26,-109.98C311.8,-101.38 279.97,-87.99 256.57,-78.15"/>
<polygon fill="#63b8ff" stroke="#63b8ff" points="257.69,-74.82 247.11,-74.17 254.97,-81.27 257.69,-74.82"/>
</a>
</g>
</g>
<!-- Node3 -->
<g id="Node000003" class="node">
<title>Node3</title>
<g id="a_Node000003"><a xlink:title=" ">
<polygon fill="#e0e0e0" stroke="#999999" points="172.5,-19 128.5,-19 128.5,0 172.5,0 172.5,-19"/>
<text text-anchor="middle" x="150.5" y="-7" font-family="Helvetica,sans-Serif" font-size="10.00">string</text>
</a>
</g>
</g>
<!-- Node1&#45;&gt;Node3 -->
<g id="edge14_Node000001_Node000003" class="edge">
<title>Node1&#45;&gt;Node3</title>
<g id="a_edge14_Node000001_Node000003"><a xlink:title=" ">
<path fill="none" stroke="#63b8ff" d="M320.66,-116.3C268.81,-111.97 169.76,-100.4 148.5,-74 138.56,-61.66 140.41,-43.19 143.94,-29.34"/>
<polygon fill="#63b8ff" stroke="#63b8ff" points="147.39,-30.02 146.94,-19.43 140.69,-27.99 147.39,-30.02"/>
</a>
</g>
</g>
<!-- Node5 -->
<g id="Node000005" class="node">
<title>Node5</title>
<g id="a_Node000005"><a xlink:href="property_8h.html" target="_top" xlink:title="Defines the cproperty template class for property&#45;based access patterns.">
<polygon fill="white" stroke="#666666" points="101,-74 0,-74 0,-55 101,-55 101,-74"/>
<text text-anchor="middle" x="50.5" y="-62" font-family="Helvetica,sans-Serif" font-size="10.00">structs/property.h</text>
</a>
</g>
</g>
<!-- Node1&#45;&gt;Node5 -->
<g id="edge4_Node000001_Node000005" class="edge">
<title>Node1&#45;&gt;Node5</title>
<g id="a_edge4_Node000001_Node000005"><a xlink:title=" ">
<path fill="none" stroke="#63b8ff" d="M320.75,-112.93C270.69,-104.14 172.6,-86.93 109.38,-75.83"/>
<polygon fill="#63b8ff" stroke="#63b8ff" points="109.62,-72.32 99.16,-74.04 108.41,-79.22 109.62,-72.32"/>
</a>
</g>
</g>
<!-- Node7 -->
<g id="Node000007" class="node">
<title>Node7</title>
<g id="a_Node000007"><a xlink:href="tools_8h.html" target="_top" xlink:title="Defines the tools class that provides general utility functions for the AnalysisG framework.">
<polygon fill="white" stroke="#666666" points="391,-74 314,-74 314,-55 391,-55 391,-74"/>
<text text-anchor="middle" x="352.5" y="-62" font-family="Helvetica,sans-Serif" font-size="10.00">tools/tools.h</text>
</a>
</g>
</g>
<!-- Node1&#45;&gt;Node7 -->
<g id="edge7_Node000001_Node000007" class="edge">
<title>Node1&#45;&gt;Node7</title>
<g id="a_edge7_Node000001_Node000007"><a xlink:title=" ">
<path fill="none" stroke="#63b8ff" d="M352.5,-109.75C352.5,-102.8 352.5,-92.85 352.5,-84.13"/>
<polygon fill="#63b8ff" stroke="#63b8ff" points="356,-84.09 352.5,-74.09 349,-84.09 356,-84.09"/>
</a>
</g>
</g>
<!-- Node8 -->
<g id="Node000008" class="node">
<title>Node8</title>
<g id="a_Node000008"><a xlink:title=" ">
<polygon fill="#e0e0e0" stroke="#999999" points="420,-19 373,-19 373,0 420,0 420,-19"/>
<text text-anchor="middle" x="396.5" y="-7" font-family="Helvetica,sans-Serif" font-size="10.00">vector</text>
</a>
</g>
</g>
<!-- Node1&#45;&gt;Node8 -->
<g id="edge16_Node000001_Node000008" class="edge">
<title>Node1&#45;&gt;Node8</title>
<g id="a_edge16_Node000001_Node000008"><a xlink:title=" ">
<path fill="none" stroke="#63b8ff" d="M366.87,-109.96C378.37,-102.21 393.68,-89.62 400.5,-74 406.71,-59.76 404.89,-42.01 401.99,-28.89"/>
<polygon fill="#63b8ff" stroke="#63b8ff" points="405.36,-27.94 399.45,-19.15 398.59,-29.71 405.36,-27.94"/>
</a>
</g>
</g>
<!-- Node10 -->
<g id="Node000010" class="node">
<title>Node10</title>
<g id="a_Node000010"><a xlink:title=" ">
<polygon fill="#e0e0e0" stroke="#999999" points="476.5,-19 438.5,-19 438.5,0 476.5,0 476.5,-19"/>
<text text-anchor="middle" x="457.5" y="-7" font-family="Helvetica,sans-Serif" font-size="10.00">map</text>
</a>
</g>
</g>
<!-- Node1&#45;&gt;Node10 -->
<g id="edge13_Node000001_Node000010" class="edge">
<title>Node1&#45;&gt;Node10</title>
<g id="a_edge13_Node000001_Node000010"><a xlink:title=" ">
<path fill="none" stroke="#63b8ff" d="M368.26,-109.92C382.06,-101.88 402.11,-88.89 416.5,-74 429.73,-60.31 441.12,-41.75 448.52,-28.24"/>
<polygon fill="#63b8ff" stroke="#63b8ff" points="451.8,-29.52 453.36,-19.04 445.61,-26.26 451.8,-29.52"/>
</a>
</g>
</g>
<!-- Node11 -->
<g id="Node000011" class="node">
<title>Node11</title>
<g id="a_Node000011"><a xlink:title=" ">
<polygon fill="#e0e0e0" stroke="#999999" points="527,-74 486,-74 486,-55 527,-55 527,-74"/>
<text text-anchor="middle" x="506.5" y="-62" font-family="Helvetica,sans-Serif" font-size="10.00">tuple</text>
</a>
</g>
</g>
<!-- Node1&#45;&gt;Node11 -->
<g id="edge15_Node000001_Node000011" class="edge">
<title>Node1&#45;&gt;Node11</title>
<g id="a_edge15_Node000001_Node000011"><a xlink:title=" ">
<path fill="none" stroke="#63b8ff" d="M377.24,-109.98C404.17,-100.72 447.23,-85.9 476.17,-75.94"/>
<polygon fill="#63b8ff" stroke="#63b8ff" points="477.45,-79.2 485.77,-72.63 475.17,-72.58 477.45,-79.2"/>
</a>
</g>
</g>
<!-- Node2&#45;&gt;Node3 -->
<g id="edge2_Node000002_Node000003" class="edge">
<title>Node2&#45;&gt;Node3</title>
<g id="a_edge2_Node000002_Node000003"><a xlink:title=" ">
<path fill="none" stroke="#63b8ff" d="M214.29,-54.98C202.72,-46.92 185.12,-34.65 171.34,-25.03"/>
<polygon fill="#63b8ff" stroke="#63b8ff" points="173.14,-22.02 162.93,-19.17 169.13,-27.76 173.14,-22.02"/>
</a>
</g>
</g>
<!-- Node4 -->
<g id="Node000004" class="node">
<title>Node4</title>
<g id="a_Node000004"><a xlink:title=" ">
<polygon fill="#e0e0e0" stroke="#999999" points="271.5,-19 211.5,-19 211.5,0 271.5,0 271.5,-19"/>
<text text-anchor="middle" x="241.5" y="-7" font-family="Helvetica,sans-Serif" font-size="10.00">iostream</text>
</a>
</g>
</g>
<!-- Node2&#45;&gt;Node4 -->
<g id="edge3_Node000002_Node000004" class="edge">
<title>Node2&#45;&gt;Node4</title>
<g id="a_edge3_Node000002_Node000004"><a xlink:title=" ">
<path fill="none" stroke="#63b8ff" d="M228.98,-54.75C230.96,-47.72 233.82,-37.62 236.31,-28.84"/>
<polygon fill="#63b8ff" stroke="#63b8ff" points="239.71,-29.66 239.07,-19.09 232.98,-27.76 239.71,-29.66"/>
</a>
</g>
</g>
<!-- Node5&#45;&gt;Node3 -->
<g id="edge6_Node000005_Node000003" class="edge">
<title>Node5&#45;&gt;Node3</title>
<g id="a_edge6_Node000005_Node000003"><a xlink:title=" ">
<path fill="none" stroke="#63b8ff" d="M66.57,-54.98C82.36,-46.61 106.72,-33.7 125.13,-23.95"/>
<polygon fill="#63b8ff" stroke="#63b8ff" points="126.94,-26.95 134.14,-19.17 123.67,-20.76 126.94,-26.95"/>
</a>
</g>
</g>
<!-- Node6 -->
<g id="Node000006" class="node">
<title>Node6</title>
<g id="a_Node000006"><a xlink:title=" ">
<polygon fill="#e0e0e0" stroke="#999999" points="83,-19 18,-19 18,0 83,0 83,-19"/>
<text text-anchor="middle" x="50.5" y="-7" font-family="Helvetica,sans-Serif" font-size="10.00">functional</text>
</a>
</g>
</g>
<!-- Node5&#45;&gt;Node6 -->
<g id="edge5_Node000005_Node000006" class="edge">
<title>Node5&#45;&gt;Node6</title>
<g id="a_edge5_Node000005_Node000006"><a xlink:title=" ">
<path fill="none" stroke="#63b8ff" d="M50.5,-54.75C50.5,-47.8 50.5,-37.85 50.5,-29.13"/>
<polygon fill="#63b8ff" stroke="#63b8ff" points="54,-29.09 50.5,-19.09 47,-29.09 54,-29.09"/>
</a>
</g>
</g>
<!-- Node7&#45;&gt;Node3 -->
<g id="edge9_Node000007_Node000003" class="edge">
<title>Node7&#45;&gt;Node3</title>
<g id="a_edge9_Node000007_Node000003"><a xlink:title=" ">
<path fill="none" stroke="#63b8ff" d="M320.05,-54.98C282.23,-45.06 220.13,-28.77 182.5,-18.9"/>
<polygon fill="#63b8ff" stroke="#63b8ff" points="183.14,-15.45 172.58,-16.29 181.36,-22.22 183.14,-15.45"/>
</a>
</g>
</g>
<!-- Node7&#45;&gt;Node4 -->
<g id="edge8_Node000007_Node000004" class="edge">
<title>Node7&#45;&gt;Node4</title>
<g id="a_edge8_Node000007_Node000004"><a xlink:title=" ">
<path fill="none" stroke="#63b8ff" d="M334.67,-54.98C316.89,-46.5 289.35,-33.35 268.82,-23.54"/>
<polygon fill="#63b8ff" stroke="#63b8ff" points="270.19,-20.32 259.66,-19.17 267.17,-26.64 270.19,-20.32"/>
</a>
</g>
</g>
<!-- Node7&#45;&gt;Node8 -->
<g id="edge10_Node000007_Node000008" class="edge">
<title>Node7&#45;&gt;Node8</title>
<g id="a_edge10_Node000007_Node000008"><a xlink:title=" ">
<path fill="none" stroke="#63b8ff" d="M359.77,-54.75C366.04,-47.18 375.29,-36.05 382.93,-26.84"/>
<polygon fill="#63b8ff" stroke="#63b8ff" points="385.67,-29.02 389.37,-19.09 380.29,-24.55 385.67,-29.02"/>
</a>
</g>
</g>
<!-- Node9 -->
<g id="Node000009" class="node">
<title>Node9</title>
<g id="a_Node000009"><a xlink:title=" ">
<polygon fill="#e0e0e0" stroke="#999999" points="354.5,-19 304.5,-19 304.5,0 354.5,0 354.5,-19"/>
<text text-anchor="middle" x="329.5" y="-7" font-family="Helvetica,sans-Serif" font-size="10.00">cstdint</text>
</a>
</g>
</g>
<!-- Node7&#45;&gt;Node9 -->
<g id="edge11_Node000007_Node000009" class="edge">
<title>Node7&#45;&gt;Node9</title>
<g id="a_edge11_Node000007_Node000009"><a xlink:title=" ">
<path fill="none" stroke="#63b8ff" d="M348.7,-54.75C345.59,-47.57 341.08,-37.18 337.21,-28.27"/>
<polygon fill="#63b8ff" stroke="#63b8ff" points="340.42,-26.87 333.23,-19.09 334,-29.66 340.42,-26.87"/>
</a>
</g>
</g>
<!-- Node7&#45;&gt;Node10 -->
<g id="edge12_Node000007_Node000010" class="edge">
<title>Node7&#45;&gt;Node10</title>
<g id="a_edge12_Node000007_Node000010"><a xlink:title=" ">
<path fill="none" stroke="#63b8ff" d="M369.37,-54.98C386.11,-46.54 412,-33.47 431.39,-23.68"/>
<polygon fill="#63b8ff" stroke="#63b8ff" points="432.97,-26.8 440.32,-19.17 429.82,-20.55 432.97,-26.8"/>
</a>
</g>
</g>
</g>
</svg>
