<?xml version="1.0" encoding="UTF-8" standalone="no"?>
<!DOCTYPE svg PUBLIC "-//W3C//DTD SVG 1.1//EN"
 "http://www.w3.org/Graphics/SVG/1.1/DTD/svg11.dtd">
<!-- Generated by graphviz version 2.43.0 (0)
 -->
<!-- Title: pyc.h Pages: 1 -->
<svg width="1268pt" height="357pt"
 viewBox="0.00 0.00 1268.16 357.00" xmlns="http://www.w3.org/2000/svg" xmlns:xlink="http://www.w3.org/1999/xlink">
<g id="graph0" class="graph" transform="scale(1 1) rotate(0) translate(4 353)">
<title>pyc.h</title>
<!-- Node1 -->
<g id="Node000001" class="node">
<title>Node1</title>
<g id="a_Node000001"><a xlink:title=" ">
<polygon fill="#999999" stroke="#666666" points="722.66,-349 679.66,-349 679.66,-330 722.66,-330 722.66,-349"/>
<text text-anchor="middle" x="701.16" y="-337" font-family="Helvetica,sans-Serif" font-size="10.00">pyc.h</text>
</a>
</g>
</g>
<!-- Node2 -->
<g id="Node000002" class="node">
<title>Node2</title>
<g id="a_Node000002"><a xlink:href="RecursiveGraphNeuralNetwork_8cxx.html" target="_top" xlink:title=" ">
<polygon fill="white" stroke="#666666" points="198.16,-294 10.16,-294 10.16,-275 198.16,-275 198.16,-294"/>
<text text-anchor="middle" x="104.16" y="-282" font-family="Helvetica,sans-Serif" font-size="10.00">RecursiveGraphNeuralNetwork.cxx</text>
</a>
</g>
</g>
<!-- Node1&#45;&gt;Node2 -->
<g id="edge1_Node000001_Node000002" class="edge">
<title>Node1&#45;&gt;Node2</title>
<g id="a_edge1_Node000001_Node000002"><a xlink:title=" ">
<path fill="none" stroke="#63b8ff" d="M669.48,-335.69C582.1,-327.93 335.12,-306 198.3,-293.86"/>
<polygon fill="#63b8ff" stroke="#63b8ff" points="669.29,-339.18 679.56,-336.58 669.91,-332.21 669.29,-339.18"/>
</a>
</g>
</g>
<!-- Node3 -->
<g id="Node000003" class="node">
<title>Node3</title>
<g id="a_Node000003"><a xlink:href="combinatorial_8cxx.html" target="_top" xlink:title=" ">
<polygon fill="white" stroke="#666666" points="320.16,-294 216.16,-294 216.16,-275 320.16,-275 320.16,-294"/>
<text text-anchor="middle" x="268.16" y="-282" font-family="Helvetica,sans-Serif" font-size="10.00">combinatorial.cxx</text>
</a>
</g>
</g>
<!-- Node1&#45;&gt;Node3 -->
<g id="edge2_Node000001_Node000003" class="edge">
<title>Node1&#45;&gt;Node3</title>
<g id="a_edge2_Node000001_Node000003"><a xlink:title=" ">
<path fill="none" stroke="#63b8ff" d="M669.03,-334.87C604.54,-327.53 454.78,-310.26 329.16,-294 326.3,-293.63 323.36,-293.24 320.4,-292.85"/>
<polygon fill="#63b8ff" stroke="#63b8ff" points="669.01,-338.39 679.34,-336.04 669.8,-331.43 669.01,-338.39"/>
</a>
</g>
</g>
<!-- Node4 -->
<g id="Node000004" class="node">
<title>Node4</title>
<g id="a_Node000004"><a xlink:href="pyc_2interface_2graph_8cxx.html" target="_top" xlink:title=" ">
<polygon fill="white" stroke="#666666" points="403.66,-294 338.66,-294 338.66,-275 403.66,-275 403.66,-294"/>
<text text-anchor="middle" x="371.16" y="-282" font-family="Helvetica,sans-Serif" font-size="10.00">graph.cxx</text>
</a>
</g>
</g>
<!-- Node1&#45;&gt;Node4 -->
<g id="edge3_Node000001_Node000004" class="edge">
<title>Node1&#45;&gt;Node4</title>
<g id="a_edge3_Node000001_Node000004"><a xlink:title=" ">
<path fill="none" stroke="#63b8ff" d="M669.15,-334.12C615.75,-326.69 505.17,-310.79 412.16,-294 409.44,-293.51 406.63,-292.98 403.81,-292.43"/>
<polygon fill="#63b8ff" stroke="#63b8ff" points="668.96,-337.63 679.35,-335.53 669.92,-330.69 668.96,-337.63"/>
</a>
</g>
</g>
<!-- Node5 -->
<g id="Node000005" class="node">
<title>Node5</title>
<g id="a_Node000005"><a xlink:href="graph__template_8h.html" target="_top" xlink:title="Defines the graph_template class and graph_t structure for graph&#45;based analysis.">
<polygon fill="white" stroke="#666666" points="524.66,-294 421.66,-294 421.66,-275 524.66,-275 524.66,-294"/>
<text text-anchor="middle" x="473.16" y="-282" font-family="Helvetica,sans-Serif" font-size="10.00">graph_template.h</text>
</a>
</g>
</g>
<!-- Node1&#45;&gt;Node5 -->
<g id="edge4_Node000001_Node000005" class="edge">
<title>Node1&#45;&gt;Node5</title>
<g id="a_edge4_Node000001_Node000005"><a xlink:title=" ">
<path fill="none" stroke="#63b8ff" d="M669.38,-331.11C627.52,-321.38 554.07,-304.31 509.89,-294.04"/>
<polygon fill="#63b8ff" stroke="#63b8ff" points="668.77,-334.56 679.3,-333.42 670.35,-327.74 668.77,-334.56"/>
</a>
</g>
</g>
<!-- Node32 -->
<g id="Node000032" class="node">
<title>Node32</title>
<g id="a_Node000032"><a xlink:href="grift_8cxx.html" target="_top" xlink:title=" ">
<polygon fill="white" stroke="#666666" points="599.16,-294 543.16,-294 543.16,-275 599.16,-275 599.16,-294"/>
<text text-anchor="middle" x="571.16" y="-282" font-family="Helvetica,sans-Serif" font-size="10.00">grift.cxx</text>
</a>
</g>
</g>
<!-- Node1&#45;&gt;Node32 -->
<g id="edge35_Node000001_Node000032" class="edge">
<title>Node1&#45;&gt;Node32</title>
<g id="a_edge35_Node000001_Node000032"><a xlink:title=" ">
<path fill="none" stroke="#63b8ff" d="M670.89,-326.16C646.83,-316.35 613.76,-302.87 592.43,-294.17"/>
<polygon fill="#63b8ff" stroke="#63b8ff" points="669.69,-329.45 680.28,-329.98 672.34,-322.97 669.69,-329.45"/>
</a>
</g>
</g>
<!-- Node33 -->
<g id="Node000033" class="node">
<title>Node33</title>
<g id="a_Node000033"><a xlink:href="interface_8cxx.html" target="_top" xlink:title=" ">
<polygon fill="white" stroke="#666666" points="697.16,-294 617.16,-294 617.16,-275 697.16,-275 697.16,-294"/>
<text text-anchor="middle" x="657.16" y="-282" font-family="Helvetica,sans-Serif" font-size="10.00">interface.cxx</text>
</a>
</g>
</g>
<!-- Node1&#45;&gt;Node33 -->
<g id="edge36_Node000001_Node000033" class="edge">
<title>Node1&#45;&gt;Node33</title>
<g id="a_edge36_Node000001_Node000033"><a xlink:title=" ">
<path fill="none" stroke="#63b8ff" d="M687.43,-321.96C679.76,-312.72 670.53,-301.6 664.29,-294.09"/>
<polygon fill="#63b8ff" stroke="#63b8ff" points="684.82,-324.29 693.9,-329.75 690.2,-319.82 684.82,-324.29"/>
</a>
</g>
</g>
<!-- Node34 -->
<g id="Node000034" class="node">
<title>Node34</title>
<g id="a_Node000034"><a xlink:href="metrics_8h.html" target="_top" xlink:title="Header file for the metrics class.">
<polygon fill="white" stroke="#666666" points="777.16,-294 715.16,-294 715.16,-275 777.16,-275 777.16,-294"/>
<text text-anchor="middle" x="746.16" y="-282" font-family="Helvetica,sans-Serif" font-size="10.00">metrics.h</text>
</a>
</g>
</g>
<!-- Node1&#45;&gt;Node34 -->
<g id="edge37_Node000001_Node000034" class="edge">
<title>Node1&#45;&gt;Node34</title>
<g id="a_edge37_Node000001_Node000034"><a xlink:title=" ">
<path fill="none" stroke="#63b8ff" d="M715.21,-321.96C723.05,-312.72 732.49,-301.6 738.87,-294.09"/>
<polygon fill="#63b8ff" stroke="#63b8ff" points="712.4,-319.86 708.59,-329.75 717.73,-324.39 712.4,-319.86"/>
</a>
</g>
</g>
<!-- Node38 -->
<g id="Node000038" class="node">
<title>Node38</title>
<g id="a_Node000038"><a xlink:href="interface_2nusol_8cxx.html" target="_top" xlink:title=" ">
<polygon fill="white" stroke="#666666" points="858.66,-294 795.66,-294 795.66,-275 858.66,-275 858.66,-294"/>
<text text-anchor="middle" x="827.16" y="-282" font-family="Helvetica,sans-Serif" font-size="10.00">nusol.cxx</text>
</a>
</g>
</g>
<!-- Node1&#45;&gt;Node38 -->
<g id="edge42_Node000001_Node000038" class="edge">
<title>Node1&#45;&gt;Node38</title>
<g id="a_edge42_Node000001_Node000038"><a xlink:title=" ">
<path fill="none" stroke="#63b8ff" d="M730.81,-326.03C754.11,-316.23 785.96,-302.83 806.55,-294.17"/>
<polygon fill="#63b8ff" stroke="#63b8ff" points="729.27,-322.88 721.41,-329.98 731.98,-329.33 729.27,-322.88"/>
</a>
</g>
</g>
<!-- Node39 -->
<g id="Node000039" class="node">
<title>Node39</title>
<g id="a_Node000039"><a xlink:href="interface_2operators_8cxx.html" target="_top" xlink:title=" ">
<polygon fill="white" stroke="#666666" points="959.66,-294 876.66,-294 876.66,-275 959.66,-275 959.66,-294"/>
<text text-anchor="middle" x="918.16" y="-282" font-family="Helvetica,sans-Serif" font-size="10.00">operators.cxx</text>
</a>
</g>
</g>
<!-- Node1&#45;&gt;Node39 -->
<g id="edge43_Node000001_Node000039" class="edge">
<title>Node1&#45;&gt;Node39</title>
<g id="a_edge43_Node000001_Node000039"><a xlink:title=" ">
<path fill="none" stroke="#63b8ff" d="M732.51,-330.84C772.49,-321.08 841.44,-304.24 883.12,-294.06"/>
<polygon fill="#63b8ff" stroke="#63b8ff" points="731.65,-327.45 722.76,-333.22 733.31,-334.25 731.65,-327.45"/>
</a>
</g>
</g>
<!-- Node40 -->
<g id="Node000040" class="node">
<title>Node40</title>
<g id="a_Node000040"><a xlink:href="pyc_2interface_2physics_8cxx.html" target="_top" xlink:title=" ">
<polygon fill="white" stroke="#666666" points="1052.16,-294 978.16,-294 978.16,-275 1052.16,-275 1052.16,-294"/>
<text text-anchor="middle" x="1015.16" y="-282" font-family="Helvetica,sans-Serif" font-size="10.00">physics.cxx</text>
</a>
</g>
</g>
<!-- Node1&#45;&gt;Node40 -->
<g id="edge44_Node000001_Node000040" class="edge">
<title>Node1&#45;&gt;Node40</title>
<g id="a_edge44_Node000001_Node000040"><a xlink:title=" ">
<path fill="none" stroke="#63b8ff" d="M732.62,-333.47C782.72,-325.41 883.72,-308.99 969.16,-294 972.04,-293.49 975.02,-292.96 978.02,-292.42"/>
<polygon fill="#63b8ff" stroke="#63b8ff" points="732.04,-330.01 722.72,-335.06 733.15,-336.93 732.04,-330.01"/>
</a>
</g>
</g>
<!-- Node41 -->
<g id="Node000041" class="node">
<title>Node41</title>
<g id="a_Node000041"><a xlink:href="interface_2transform_8cxx.html" target="_top" xlink:title=" ">
<polygon fill="white" stroke="#666666" points="1155.66,-294 1070.66,-294 1070.66,-275 1155.66,-275 1155.66,-294"/>
<text text-anchor="middle" x="1113.16" y="-282" font-family="Helvetica,sans-Serif" font-size="10.00">transform.cxx</text>
</a>
</g>
</g>
<!-- Node1&#45;&gt;Node41 -->
<g id="edge45_Node000001_Node000041" class="edge">
<title>Node1&#45;&gt;Node41</title>
<g id="a_edge45_Node000001_Node000041"><a xlink:title=" ">
<path fill="none" stroke="#63b8ff" d="M732.75,-335.02C795.45,-328.01 940.06,-311.38 1061.16,-294 1064.24,-293.56 1067.42,-293.08 1070.62,-292.59"/>
<polygon fill="#63b8ff" stroke="#63b8ff" points="732.26,-331.55 722.71,-336.13 733.03,-338.51 732.26,-331.55"/>
</a>
</g>
</g>
<!-- Node42 -->
<g id="Node000042" class="node">
<title>Node42</title>
<g id="a_Node000042"><a xlink:href="validation_8cxx.html" target="_top" xlink:title=" ">
<polygon fill="white" stroke="#666666" points="1260.16,-294 1174.16,-294 1174.16,-275 1260.16,-275 1260.16,-294"/>
<text text-anchor="middle" x="1217.16" y="-282" font-family="Helvetica,sans-Serif" font-size="10.00">validation.cxx</text>
</a>
</g>
</g>
<!-- Node1&#45;&gt;Node42 -->
<g id="edge46_Node000001_Node000042" class="edge">
<title>Node1&#45;&gt;Node42</title>
<g id="a_edge46_Node000001_Node000042"><a xlink:title=" ">
<path fill="none" stroke="#63b8ff" d="M733.21,-336.16C808.67,-330.5 1003.38,-314.96 1165.16,-294 1168.07,-293.62 1171.05,-293.21 1174.06,-292.77"/>
<polygon fill="#63b8ff" stroke="#63b8ff" points="732.67,-332.69 722.96,-336.93 733.19,-339.67 732.67,-332.69"/>
</a>
</g>
</g>
<!-- Node6 -->
<g id="Node000006" class="node">
<title>Node6</title>
<g id="a_Node000006"><a xlink:href="analysis_8h.html" target="_top" xlink:title="Defines the analysis class, the central orchestrator for physics analysis tasks.">
<polygon fill="white" stroke="#666666" points="582.16,-74 516.16,-74 516.16,-55 582.16,-55 582.16,-74"/>
<text text-anchor="middle" x="549.16" y="-62" font-family="Helvetica,sans-Serif" font-size="10.00">analysis.h</text>
</a>
</g>
</g>
<!-- Node5&#45;&gt;Node6 -->
<g id="edge5_Node000005_Node000006" class="edge">
<title>Node5&#45;&gt;Node6</title>
<g id="a_edge5_Node000005_Node000006"><a xlink:title=" ">
<path fill="none" stroke="#63b8ff" d="M535.05,-274.79C595.35,-265.67 679.36,-251.03 689.16,-239 725.38,-194.56 723.01,-156.28 689.16,-110 664.85,-76.76 615.49,-67.75 582.37,-65.62"/>
<polygon fill="#63b8ff" stroke="#63b8ff" points="534.21,-271.37 524.84,-276.31 535.24,-278.3 534.21,-271.37"/>
</a>
</g>
</g>
<!-- Node15 -->
<g id="Node000015" class="node">
<title>Node15</title>
<g id="a_Node000015"><a xlink:href="container_8h.html" target="_top" xlink:title=" ">
<polygon fill="white" stroke="#666666" points="218.66,-184 147.66,-184 147.66,-165 218.66,-165 218.66,-184"/>
<text text-anchor="middle" x="183.16" y="-172" font-family="Helvetica,sans-Serif" font-size="10.00">container.h</text>
</a>
</g>
</g>
<!-- Node5&#45;&gt;Node15 -->
<g id="edge14_Node000005_Node000015" class="edge">
<title>Node5&#45;&gt;Node15</title>
<g id="a_edge14_Node000005_Node000015"><a xlink:title=" ">
<path fill="none" stroke="#63b8ff" d="M411.31,-275.24C334.95,-270.04 37.96,-270.49 9.16,-239 -32.29,-193.68 84.97,-180.64 147.19,-176.94"/>
<polygon fill="#63b8ff" stroke="#63b8ff" points="411.34,-278.76 421.6,-276.13 411.94,-271.78 411.34,-278.76"/>
</a>
</g>
</g>
<!-- Node20 -->
<g id="Node000020" class="node">
<title>Node20</title>
<g id="a_Node000020"><a xlink:href="dataloader_8h.html" target="_top" xlink:title=" ">
<polygon fill="white" stroke="#666666" points="547.66,-239 470.66,-239 470.66,-220 547.66,-220 547.66,-239"/>
<text text-anchor="middle" x="509.16" y="-227" font-family="Helvetica,sans-Serif" font-size="10.00">dataloader.h</text>
</a>
</g>
</g>
<!-- Node5&#45;&gt;Node20 -->
<g id="edge20_Node000005_Node000020" class="edge">
<title>Node5&#45;&gt;Node20</title>
<g id="a_edge20_Node000005_Node000020"><a xlink:title=" ">
<path fill="none" stroke="#63b8ff" d="M484.79,-266.39C490.98,-257.27 498.33,-246.45 503.33,-239.09"/>
<polygon fill="#63b8ff" stroke="#63b8ff" points="481.83,-264.51 479.11,-274.75 487.62,-268.44 481.83,-264.51"/>
</a>
</g>
</g>
<!-- Node26 -->
<g id="Node000026" class="node">
<title>Node26</title>
<g id="a_Node000026"><a xlink:href="graph__template_8cxx.html" target="_top" xlink:title=" ">
<polygon fill="white" stroke="#666666" points="680.16,-239 566.16,-239 566.16,-220 680.16,-220 680.16,-239"/>
<text text-anchor="middle" x="623.16" y="-227" font-family="Helvetica,sans-Serif" font-size="10.00">graph_template.cxx</text>
</a>
</g>
</g>
<!-- Node5&#45;&gt;Node26 -->
<g id="edge29_Node000005_Node000026" class="edge">
<title>Node5&#45;&gt;Node26</title>
<g id="a_edge29_Node000005_Node000026"><a xlink:title=" ">
<path fill="none" stroke="#63b8ff" d="M506.98,-271.55C534.84,-261.71 573.68,-247.98 598.62,-239.17"/>
<polygon fill="#63b8ff" stroke="#63b8ff" points="505.52,-268.35 497.26,-274.98 507.86,-274.95 505.52,-268.35"/>
</a>
</g>
</g>
<!-- Node27 -->
<g id="Node000027" class="node">
<title>Node27</title>
<g id="a_Node000027"><a xlink:href="bsm__4tops_2include_2bsm__4tops_2graphs_8h.html" target="_top" xlink:title=" ">
<polygon fill="white" stroke="#666666" points="77.66,-239 18.66,-239 18.66,-220 77.66,-220 77.66,-239"/>
<text text-anchor="middle" x="48.16" y="-227" font-family="Helvetica,sans-Serif" font-size="10.00">graphs.h</text>
</a>
</g>
</g>
<!-- Node5&#45;&gt;Node27 -->
<g id="edge30_Node000005_Node000027" class="edge">
<title>Node5&#45;&gt;Node27</title>
<g id="a_edge30_Node000005_Node000027"><a xlink:title=" ">
<path fill="none" stroke="#63b8ff" d="M411.38,-274.95C265.77,-257.19 226.72,-262.41 86.16,-239 83.49,-238.56 80.73,-238.04 77.97,-237.49"/>
<polygon fill="#63b8ff" stroke="#63b8ff" points="411.24,-278.46 421.59,-276.21 412.1,-271.51 411.24,-278.46"/>
</a>
</g>
</g>
<!-- Node28 -->
<g id="Node000028" class="node">
<title>Node28</title>
<g id="a_Node000028"><a xlink:href="exp__mc20_2include_2exp__mc20_2graphs_8h.html" target="_top" xlink:title=" ">
<polygon fill="white" stroke="#666666" points="154.66,-239 95.66,-239 95.66,-220 154.66,-220 154.66,-239"/>
<text text-anchor="middle" x="125.16" y="-227" font-family="Helvetica,sans-Serif" font-size="10.00">graphs.h</text>
</a>
</g>
</g>
<!-- Node5&#45;&gt;Node28 -->
<g id="edge31_Node000005_Node000028" class="edge">
<title>Node5&#45;&gt;Node28</title>
<g id="a_edge31_Node000005_Node000028"><a xlink:title=" ">
<path fill="none" stroke="#63b8ff" d="M411.43,-274.9C328.03,-263.24 187,-243.37 163.16,-239 160.5,-238.51 157.75,-237.97 154.99,-237.4"/>
<polygon fill="#63b8ff" stroke="#63b8ff" points="411.16,-278.4 421.55,-276.31 412.13,-271.46 411.16,-278.4"/>
</a>
</g>
</g>
<!-- Node29 -->
<g id="Node000029" class="node">
<title>Node29</title>
<g id="a_Node000029"><a xlink:href="ssml__mc20_2include_2ssml__mc20_2graphs_8h.html" target="_top" xlink:title=" ">
<polygon fill="white" stroke="#666666" points="231.66,-239 172.66,-239 172.66,-220 231.66,-220 231.66,-239"/>
<text text-anchor="middle" x="202.16" y="-227" font-family="Helvetica,sans-Serif" font-size="10.00">graphs.h</text>
</a>
</g>
</g>
<!-- Node5&#45;&gt;Node29 -->
<g id="edge32_Node000005_Node000029" class="edge">
<title>Node5&#45;&gt;Node29</title>
<g id="a_edge32_Node000005_Node000029"><a xlink:title=" ">
<path fill="none" stroke="#63b8ff" d="M416.89,-273.11C369.86,-264.34 301.05,-251.27 241.16,-239 238.18,-238.39 235.06,-237.74 231.96,-237.07"/>
<polygon fill="#63b8ff" stroke="#63b8ff" points="416.4,-276.58 426.88,-274.98 417.69,-269.7 416.4,-276.58"/>
</a>
</g>
</g>
<!-- Node30 -->
<g id="Node000030" class="node">
<title>Node30</title>
<g id="a_Node000030"><a xlink:href="graph_2cxx_2properties_8cxx.html" target="_top" xlink:title=" ">
<polygon fill="white" stroke="#666666" points="336.16,-239 250.16,-239 250.16,-220 336.16,-220 336.16,-239"/>
<text text-anchor="middle" x="293.16" y="-227" font-family="Helvetica,sans-Serif" font-size="10.00">properties.cxx</text>
</a>
</g>
</g>
<!-- Node5&#45;&gt;Node30 -->
<g id="edge33_Node000005_Node000030" class="edge">
<title>Node5&#45;&gt;Node30</title>
<g id="a_edge33_Node000005_Node000030"><a xlink:title=" ">
<path fill="none" stroke="#63b8ff" d="M434.29,-272.06C400.65,-262.15 352.75,-248.04 322.31,-239.08"/>
<polygon fill="#63b8ff" stroke="#63b8ff" points="433.66,-275.52 444.24,-274.98 435.64,-268.8 433.66,-275.52"/>
</a>
</g>
</g>
<!-- Node31 -->
<g id="Node000031" class="node">
<title>Node31</title>
<g id="a_Node000031"><a xlink:href="struct__graph_8cxx.html" target="_top" xlink:title=" ">
<polygon fill="white" stroke="#666666" points="452.16,-239 354.16,-239 354.16,-220 452.16,-220 452.16,-239"/>
<text text-anchor="middle" x="403.16" y="-227" font-family="Helvetica,sans-Serif" font-size="10.00">struct_graph.cxx</text>
</a>
</g>
</g>
<!-- Node5&#45;&gt;Node31 -->
<g id="edge34_Node000005_Node000031" class="edge">
<title>Node5&#45;&gt;Node31</title>
<g id="a_edge34_Node000005_Node000031"><a xlink:title=" ">
<path fill="none" stroke="#63b8ff" d="M453.85,-268.88C441.25,-259.34 425.23,-247.21 414.61,-239.17"/>
<polygon fill="#63b8ff" stroke="#63b8ff" points="451.83,-271.74 461.92,-274.98 456.06,-266.16 451.83,-271.74"/>
</a>
</g>
</g>
<!-- Node7 -->
<g id="Node000007" class="node">
<title>Node7</title>
<g id="a_Node000007"><a xlink:href="analysis_8cxx.html" target="_top" xlink:title=" ">
<polygon fill="white" stroke="#666666" points="193.66,-19 116.66,-19 116.66,0 193.66,0 193.66,-19"/>
<text text-anchor="middle" x="155.16" y="-7" font-family="Helvetica,sans-Serif" font-size="10.00">analysis.cxx</text>
</a>
</g>
</g>
<!-- Node6&#45;&gt;Node7 -->
<g id="edge6_Node000006_Node000007" class="edge">
<title>Node6&#45;&gt;Node7</title>
<g id="a_edge6_Node000006_Node000007"><a xlink:title=" ">
<path fill="none" stroke="#63b8ff" d="M505.7,-58.58C440.05,-51 311.71,-35.58 203.16,-19 200.15,-18.54 197.04,-18.04 193.91,-17.52"/>
<polygon fill="#63b8ff" stroke="#63b8ff" points="505.35,-62.06 515.69,-59.73 506.15,-55.11 505.35,-62.06"/>
</a>
</g>
</g>
<!-- Node8 -->
<g id="Node000008" class="node">
<title>Node8</title>
<g id="a_Node000008"><a xlink:href="event__build_8cxx.html" target="_top" xlink:title=" ">
<polygon fill="white" stroke="#666666" points="306.16,-19 212.16,-19 212.16,0 306.16,0 306.16,-19"/>
<text text-anchor="middle" x="259.16" y="-7" font-family="Helvetica,sans-Serif" font-size="10.00">event_build.cxx</text>
</a>
</g>
</g>
<!-- Node6&#45;&gt;Node8 -->
<g id="edge7_Node000006_Node000008" class="edge">
<title>Node6&#45;&gt;Node8</title>
<g id="a_edge7_Node000006_Node000008"><a xlink:title=" ">
<path fill="none" stroke="#63b8ff" d="M506.01,-55.61C452.36,-45.81 361.14,-29.14 305.88,-19.04"/>
<polygon fill="#63b8ff" stroke="#63b8ff" points="505.43,-59.07 515.9,-57.42 506.69,-52.18 505.43,-59.07"/>
</a>
</g>
</g>
<!-- Node9 -->
<g id="Node000009" class="node">
<title>Node9</title>
<g id="a_Node000009"><a xlink:href="graph__build_8cxx.html" target="_top" xlink:title=" ">
<polygon fill="white" stroke="#666666" points="418.16,-19 324.16,-19 324.16,0 418.16,0 418.16,-19"/>
<text text-anchor="middle" x="371.16" y="-7" font-family="Helvetica,sans-Serif" font-size="10.00">graph_build.cxx</text>
</a>
</g>
</g>
<!-- Node6&#45;&gt;Node9 -->
<g id="edge8_Node000006_Node000009" class="edge">
<title>Node6&#45;&gt;Node9</title>
<g id="a_edge8_Node000006_Node000009"><a xlink:title=" ">
<path fill="none" stroke="#63b8ff" d="M510.73,-52.06C477.46,-42.15 430.08,-28.04 399.99,-19.08"/>
<polygon fill="#63b8ff" stroke="#63b8ff" points="509.98,-55.49 520.56,-54.98 511.98,-48.78 509.98,-55.49"/>
</a>
</g>
</g>
<!-- Node10 -->
<g id="Node000010" class="node">
<title>Node10</title>
<g id="a_Node000010"><a xlink:href="inference__build_8cxx.html" target="_top" xlink:title=" ">
<polygon fill="white" stroke="#666666" points="548.16,-19 436.16,-19 436.16,0 548.16,0 548.16,-19"/>
<text text-anchor="middle" x="492.16" y="-7" font-family="Helvetica,sans-Serif" font-size="10.00">inference_build.cxx</text>
</a>
</g>
</g>
<!-- Node6&#45;&gt;Node10 -->
<g id="edge9_Node000006_Node000010" class="edge">
<title>Node6&#45;&gt;Node10</title>
<g id="a_edge9_Node000006_Node000010"><a xlink:title=" ">
<path fill="none" stroke="#63b8ff" d="M532.54,-48.04C522.43,-38.64 509.89,-26.98 501.49,-19.17"/>
<polygon fill="#63b8ff" stroke="#63b8ff" points="530.3,-50.74 540,-54.98 535.06,-45.61 530.3,-50.74"/>
</a>
</g>
</g>
<!-- Node11 -->
<g id="Node000011" class="node">
<title>Node11</title>
<g id="a_Node000011"><a xlink:href="methods_8cxx.html" target="_top" xlink:title=" ">
<polygon fill="white" stroke="#666666" points="646.16,-19 566.16,-19 566.16,0 646.16,0 646.16,-19"/>
<text text-anchor="middle" x="606.16" y="-7" font-family="Helvetica,sans-Serif" font-size="10.00">methods.cxx</text>
</a>
</g>
</g>
<!-- Node6&#45;&gt;Node11 -->
<g id="edge10_Node000006_Node000011" class="edge">
<title>Node6&#45;&gt;Node11</title>
<g id="a_edge10_Node000006_Node000011"><a xlink:title=" ">
<path fill="none" stroke="#63b8ff" d="M565.78,-48.04C575.9,-38.64 588.44,-26.98 596.84,-19.17"/>
<polygon fill="#63b8ff" stroke="#63b8ff" points="563.26,-45.61 558.32,-54.98 568.03,-50.74 563.26,-45.61"/>
</a>
</g>
</g>
<!-- Node12 -->
<g id="Node000012" class="node">
<title>Node12</title>
<g id="a_Node000012"><a xlink:href="metric__build_8cxx.html" target="_top" xlink:title=" ">
<polygon fill="white" stroke="#666666" points="762.16,-19 664.16,-19 664.16,0 762.16,0 762.16,-19"/>
<text text-anchor="middle" x="713.16" y="-7" font-family="Helvetica,sans-Serif" font-size="10.00">metric_build.cxx</text>
</a>
</g>
</g>
<!-- Node6&#45;&gt;Node12 -->
<g id="edge11_Node000006_Node000012" class="edge">
<title>Node6&#45;&gt;Node12</title>
<g id="a_edge11_Node000006_Node000012"><a xlink:title=" ">
<path fill="none" stroke="#63b8ff" d="M585.37,-51.8C615.98,-41.91 659.11,-27.97 686.61,-19.08"/>
<polygon fill="#63b8ff" stroke="#63b8ff" points="583.95,-48.58 575.51,-54.98 586.1,-55.24 583.95,-48.58"/>
</a>
</g>
</g>
<!-- Node13 -->
<g id="Node000013" class="node">
<title>Node13</title>
<g id="a_Node000013"><a xlink:href="optimizer__build_8cxx.html" target="_top" xlink:title="Implementation of model session creation and management in the analysis class.">
<polygon fill="white" stroke="#666666" points="893.66,-19 780.66,-19 780.66,0 893.66,0 893.66,-19"/>
<text text-anchor="middle" x="837.16" y="-7" font-family="Helvetica,sans-Serif" font-size="10.00">optimizer_build.cxx</text>
</a>
</g>
</g>
<!-- Node6&#45;&gt;Node13 -->
<g id="edge12_Node000006_Node000013" class="edge">
<title>Node6&#45;&gt;Node13</title>
<g id="a_edge12_Node000006_Node000013"><a xlink:title=" ">
<path fill="none" stroke="#63b8ff" d="M592.35,-55.55C645.67,-45.74 736.01,-29.12 790.77,-19.04"/>
<polygon fill="#63b8ff" stroke="#63b8ff" points="591.4,-52.17 582.2,-57.42 592.67,-59.05 591.4,-52.17"/>
</a>
</g>
</g>
<!-- Node14 -->
<g id="Node000014" class="node">
<title>Node14</title>
<g id="a_Node000014"><a xlink:href="selection__build_8cxx.html" target="_top" xlink:title=" ">
<polygon fill="white" stroke="#666666" points="1022.16,-19 912.16,-19 912.16,0 1022.16,0 1022.16,-19"/>
<text text-anchor="middle" x="967.16" y="-7" font-family="Helvetica,sans-Serif" font-size="10.00">selection_build.cxx</text>
</a>
</g>
</g>
<!-- Node6&#45;&gt;Node14 -->
<g id="edge13_Node000006_Node000014" class="edge">
<title>Node6&#45;&gt;Node14</title>
<g id="a_edge13_Node000006_Node000014"><a xlink:title=" ">
<path fill="none" stroke="#63b8ff" d="M592.5,-58.15C659.24,-49.89 791.2,-33.47 903.16,-19 906.05,-18.63 909.02,-18.24 912.01,-17.85"/>
<polygon fill="#63b8ff" stroke="#63b8ff" points="591.85,-54.7 582.36,-59.41 592.71,-61.65 591.85,-54.7"/>
</a>
</g>
</g>
<!-- Node16 -->
<g id="Node000016" class="node">
<title>Node16</title>
<g id="a_Node000016"><a xlink:href="container_8cxx.html" target="_top" xlink:title=" ">
<polygon fill="white" stroke="#666666" points="368.16,-129 286.16,-129 286.16,-110 368.16,-110 368.16,-129"/>
<text text-anchor="middle" x="327.16" y="-117" font-family="Helvetica,sans-Serif" font-size="10.00">container.cxx</text>
</a>
</g>
</g>
<!-- Node15&#45;&gt;Node16 -->
<g id="edge15_Node000015_Node000016" class="edge">
<title>Node15&#45;&gt;Node16</title>
<g id="a_edge15_Node000015_Node000016"><a xlink:title=" ">
<path fill="none" stroke="#63b8ff" d="M215.98,-161.42C242.7,-151.59 279.76,-137.95 303.61,-129.17"/>
<polygon fill="#63b8ff" stroke="#63b8ff" points="214.47,-158.25 206.3,-164.98 216.89,-164.82 214.47,-158.25"/>
</a>
</g>
</g>
<!-- Node17 -->
<g id="Node000017" class="node">
<title>Node17</title>
<g id="a_Node000017"><a xlink:href="entries_8cxx.html" target="_top" xlink:title=" ">
<polygon fill="white" stroke="#666666" points="267.66,-129 196.66,-129 196.66,-110 267.66,-110 267.66,-129"/>
<text text-anchor="middle" x="232.16" y="-117" font-family="Helvetica,sans-Serif" font-size="10.00">entries.cxx</text>
</a>
</g>
</g>
<!-- Node15&#45;&gt;Node17 -->
<g id="edge16_Node000015_Node000017" class="edge">
<title>Node15&#45;&gt;Node17</title>
<g id="a_edge16_Node000015_Node000017"><a xlink:title=" ">
<path fill="none" stroke="#63b8ff" d="M198.2,-157.24C206.78,-147.95 217.21,-136.68 224.22,-129.09"/>
<polygon fill="#63b8ff" stroke="#63b8ff" points="195.47,-155.03 191.25,-164.75 200.61,-159.78 195.47,-155.03"/>
</a>
</g>
</g>
<!-- Node18 -->
<g id="Node000018" class="node">
<title>Node18</title>
<g id="a_Node000018"><a xlink:href="sampletracer_8h.html" target="_top" xlink:title=" ">
<polygon fill="white" stroke="#666666" points="178.66,-129 89.66,-129 89.66,-110 178.66,-110 178.66,-129"/>
<text text-anchor="middle" x="134.16" y="-117" font-family="Helvetica,sans-Serif" font-size="10.00">sampletracer.h</text>
</a>
</g>
</g>
<!-- Node15&#45;&gt;Node18 -->
<g id="edge17_Node000015_Node000018" class="edge">
<title>Node15&#45;&gt;Node18</title>
<g id="a_edge17_Node000015_Node000018"><a xlink:title=" ">
<path fill="none" stroke="#63b8ff" d="M168.13,-157.24C159.54,-147.95 149.12,-136.68 142.1,-129.09"/>
<polygon fill="#63b8ff" stroke="#63b8ff" points="165.71,-159.78 175.07,-164.75 170.85,-155.03 165.71,-159.78"/>
</a>
</g>
</g>
<!-- Node18&#45;&gt;Node6 -->
<g id="edge18_Node000018_Node000006" class="edge">
<title>Node18&#45;&gt;Node6</title>
<g id="a_edge18_Node000018_Node000006"><a xlink:title=" ">
<path fill="none" stroke="#63b8ff" d="M188.92,-109.79C315.38,-92.04 453.41,-76.17 515.67,-69.2"/>
<polygon fill="#63b8ff" stroke="#63b8ff" points="188.09,-106.38 178.68,-111.24 189.07,-113.31 188.09,-106.38"/>
</a>
</g>
</g>
<!-- Node19 -->
<g id="Node000019" class="node">
<title>Node19</title>
<g id="a_Node000019"><a xlink:href="sampletracer_8cxx.html" target="_top" xlink:title="Implementation of the sampletracer class for parallel data processing.">
<polygon fill="white" stroke="#666666" points="184.66,-74 83.66,-74 83.66,-55 184.66,-55 184.66,-74"/>
<text text-anchor="middle" x="134.16" y="-62" font-family="Helvetica,sans-Serif" font-size="10.00">sampletracer.cxx</text>
</a>
</g>
</g>
<!-- Node18&#45;&gt;Node19 -->
<g id="edge19_Node000018_Node000019" class="edge">
<title>Node18&#45;&gt;Node19</title>
<g id="a_edge19_Node000018_Node000019"><a xlink:title=" ">
<path fill="none" stroke="#63b8ff" d="M134.16,-99.66C134.16,-90.93 134.16,-80.99 134.16,-74.09"/>
<polygon fill="#63b8ff" stroke="#63b8ff" points="130.66,-99.75 134.16,-109.75 137.66,-99.75 130.66,-99.75"/>
</a>
</g>
</g>
<!-- Node20&#45;&gt;Node6 -->
<g id="edge21_Node000020_Node000006" class="edge">
<title>Node20&#45;&gt;Node6</title>
<g id="a_edge21_Node000020_Node000006"><a xlink:title=" ">
<path fill="none" stroke="#63b8ff" d="M513.74,-209.83C522.37,-174.67 540.72,-99.9 547,-74.31"/>
<polygon fill="#63b8ff" stroke="#63b8ff" points="510.3,-209.19 511.31,-219.74 517.1,-210.86 510.3,-209.19"/>
</a>
</g>
</g>
<!-- Node20&#45;&gt;Node15 -->
<g id="edge23_Node000020_Node000015" class="edge">
<title>Node20&#45;&gt;Node15</title>
<g id="a_edge23_Node000020_Node000015"><a xlink:title=" ">
<path fill="none" stroke="#63b8ff" d="M460.41,-219.91C356.12,-202.78 328.31,-201.19 228.16,-184 225.18,-183.49 222.1,-182.94 219,-182.38"/>
<polygon fill="#63b8ff" stroke="#63b8ff" points="459.97,-223.38 470.4,-221.56 461.11,-216.48 459.97,-223.38"/>
</a>
</g>
</g>
<!-- Node21 -->
<g id="Node000021" class="node">
<title>Node21</title>
<g id="a_Node000021"><a xlink:href="cache_8cxx.html" target="_top" xlink:title=" ">
<polygon fill="white" stroke="#666666" points="394.66,-184 329.66,-184 329.66,-165 394.66,-165 394.66,-184"/>
<text text-anchor="middle" x="362.16" y="-172" font-family="Helvetica,sans-Serif" font-size="10.00">cache.cxx</text>
</a>
</g>
</g>
<!-- Node20&#45;&gt;Node21 -->
<g id="edge22_Node000020_Node000021" class="edge">
<title>Node20&#45;&gt;Node21</title>
<g id="a_edge22_Node000020_Node000021"><a xlink:title=" ">
<path fill="none" stroke="#63b8ff" d="M476.02,-216.55C448.72,-206.71 410.66,-192.98 386.21,-184.17"/>
<polygon fill="#63b8ff" stroke="#63b8ff" points="474.95,-219.89 485.54,-219.98 477.32,-213.3 474.95,-219.89"/>
</a>
</g>
</g>
<!-- Node22 -->
<g id="Node000022" class="node">
<title>Node22</title>
<g id="a_Node000022"><a xlink:href="dataloader_8cxx.html" target="_top" xlink:title=" ">
<polygon fill="white" stroke="#666666" points="501.66,-184 412.66,-184 412.66,-165 501.66,-165 501.66,-184"/>
<text text-anchor="middle" x="457.16" y="-172" font-family="Helvetica,sans-Serif" font-size="10.00">dataloader.cxx</text>
</a>
</g>
</g>
<!-- Node20&#45;&gt;Node22 -->
<g id="edge24_Node000020_Node000022" class="edge">
<title>Node20&#45;&gt;Node22</title>
<g id="a_edge24_Node000020_Node000022"><a xlink:title=" ">
<path fill="none" stroke="#63b8ff" d="M493.48,-212.52C484.32,-203.18 473.11,-191.75 465.59,-184.09"/>
<polygon fill="#63b8ff" stroke="#63b8ff" points="491.07,-215.06 500.58,-219.75 496.07,-210.16 491.07,-215.06"/>
</a>
</g>
</g>
<!-- Node23 -->
<g id="Node000023" class="node">
<title>Node23</title>
<g id="a_Node000023"><a xlink:href="dataset_8cxx.html" target="_top" xlink:title=" ">
<polygon fill="white" stroke="#666666" points="311.16,-184 237.16,-184 237.16,-165 311.16,-165 311.16,-184"/>
<text text-anchor="middle" x="274.16" y="-172" font-family="Helvetica,sans-Serif" font-size="10.00">dataset.cxx</text>
</a>
</g>
</g>
<!-- Node20&#45;&gt;Node23 -->
<g id="edge25_Node000020_Node000023" class="edge">
<title>Node20&#45;&gt;Node23</title>
<g id="a_edge25_Node000020_Node000023"><a xlink:title=" ">
<path fill="none" stroke="#63b8ff" d="M461.45,-217.74C417.13,-207.74 352.05,-193.07 311.44,-183.91"/>
<polygon fill="#63b8ff" stroke="#63b8ff" points="460.88,-221.2 471.41,-219.98 462.42,-214.37 460.88,-221.2"/>
</a>
</g>
</g>
<!-- Node24 -->
<g id="Node000024" class="node">
<title>Node24</title>
<g id="a_Node000024"><a xlink:href="optimizer_2include_2generators_2optimizer_8h.html" target="_top" xlink:title=" ">
<polygon fill="white" stroke="#666666" points="651.66,-184 580.66,-184 580.66,-165 651.66,-165 651.66,-184"/>
<text text-anchor="middle" x="616.16" y="-172" font-family="Helvetica,sans-Serif" font-size="10.00">optimizer.h</text>
</a>
</g>
</g>
<!-- Node20&#45;&gt;Node24 -->
<g id="edge26_Node000020_Node000024" class="edge">
<title>Node20&#45;&gt;Node24</title>
<g id="a_edge26_Node000020_Node000024"><a xlink:title=" ">
<path fill="none" stroke="#63b8ff" d="M535.41,-215.5C555.09,-205.75 581.49,-192.68 598.66,-184.17"/>
<polygon fill="#63b8ff" stroke="#63b8ff" points="533.76,-212.41 526.35,-219.98 536.87,-218.68 533.76,-212.41"/>
</a>
</g>
</g>
<!-- Node24&#45;&gt;Node6 -->
<g id="edge27_Node000024_Node000006" class="edge">
<title>Node24&#45;&gt;Node6</title>
<g id="a_edge27_Node000024_Node000006"><a xlink:title=" ">
<path fill="none" stroke="#63b8ff" d="M604.75,-156.32C599.34,-148.1 592.84,-138.09 587.16,-129 575.05,-109.61 561.41,-86.48 554.22,-74.19"/>
<polygon fill="#63b8ff" stroke="#63b8ff" points="601.85,-158.29 610.28,-164.7 607.69,-154.43 601.85,-158.29"/>
</a>
</g>
</g>
<!-- Node25 -->
<g id="Node000025" class="node">
<title>Node25</title>
<g id="a_Node000025"><a xlink:href="optimizer_2cxx_2optimizer_8cxx.html" target="_top" xlink:title=" ">
<polygon fill="white" stroke="#666666" points="679.66,-129 596.66,-129 596.66,-110 679.66,-110 679.66,-129"/>
<text text-anchor="middle" x="638.16" y="-117" font-family="Helvetica,sans-Serif" font-size="10.00">optimizer.cxx</text>
</a>
</g>
</g>
<!-- Node24&#45;&gt;Node25 -->
<g id="edge28_Node000024_Node000025" class="edge">
<title>Node24&#45;&gt;Node25</title>
<g id="a_edge28_Node000024_Node000025"><a xlink:title=" ">
<path fill="none" stroke="#63b8ff" d="M623.74,-155.24C627.42,-146.37 631.67,-136.14 634.6,-129.09"/>
<polygon fill="#63b8ff" stroke="#63b8ff" points="620.4,-154.17 619.79,-164.75 626.86,-156.85 620.4,-154.17"/>
</a>
</g>
</g>
<!-- Node34&#45;&gt;Node24 -->
<g id="edge41_Node000034_Node000024" class="edge">
<title>Node34&#45;&gt;Node24</title>
<g id="a_edge41_Node000034_Node000024"><a xlink:title=" ">
<path fill="none" stroke="#63b8ff" d="M733.57,-266.97C722.73,-253.38 706.17,-234.14 689.16,-220 671.58,-205.39 648.74,-192.25 633.32,-184.11"/>
<polygon fill="#63b8ff" stroke="#63b8ff" points="730.91,-269.24 739.83,-274.97 736.43,-264.93 730.91,-269.24"/>
</a>
</g>
</g>
<!-- Node35 -->
<g id="Node000035" class="node">
<title>Node35</title>
<g id="a_Node000035"><a xlink:href="loss__plots_8cxx.html" target="_top" xlink:title=" ">
<polygon fill="white" stroke="#666666" points="1062.16,-239 976.16,-239 976.16,-220 1062.16,-220 1062.16,-239"/>
<text text-anchor="middle" x="1019.16" y="-227" font-family="Helvetica,sans-Serif" font-size="10.00">loss_plots.cxx</text>
</a>
</g>
</g>
<!-- Node34&#45;&gt;Node35 -->
<g id="edge38_Node000034_Node000035" class="edge">
<title>Node34&#45;&gt;Node35</title>
<g id="a_edge38_Node000034_Node000035"><a xlink:title=" ">
<path fill="none" stroke="#63b8ff" d="M787.66,-274.93C859.72,-260.59 931.41,-246.97 975.94,-238.59"/>
<polygon fill="#63b8ff" stroke="#63b8ff" points="786.61,-271.57 777.49,-276.95 787.98,-278.43 786.61,-271.57"/>
</a>
</g>
</g>
<!-- Node36 -->
<g id="Node000036" class="node">
<title>Node36</title>
<g id="a_Node000036"><a xlink:href="mass__plots_8cxx.html" target="_top" xlink:title="Implements mass plot generation and related utilities.">
<polygon fill="white" stroke="#666666" points="866.16,-239 774.16,-239 774.16,-220 866.16,-220 866.16,-239"/>
<text text-anchor="middle" x="820.16" y="-227" font-family="Helvetica,sans-Serif" font-size="10.00">mass_plots.cxx</text>
</a>
</g>
</g>
<!-- Node34&#45;&gt;Node36 -->
<g id="edge39_Node000034_Node000036" class="edge">
<title>Node34&#45;&gt;Node36</title>
<g id="a_edge39_Node000034_Node000036"><a xlink:title=" ">
<path fill="none" stroke="#63b8ff" d="M766.2,-269.15C779.57,-259.57 796.72,-247.29 808.06,-239.17"/>
<polygon fill="#63b8ff" stroke="#63b8ff" points="764.14,-266.32 758.05,-274.98 768.22,-272.01 764.14,-266.32"/>
</a>
</g>
</g>
<!-- Node37 -->
<g id="Node000037" class="node">
<title>Node37</title>
<g id="a_Node000037"><a xlink:href="metrics_8cxx.html" target="_top" xlink:title="Implementation of the metrics class methods.">
<polygon fill="white" stroke="#666666" points="958.16,-239 884.16,-239 884.16,-220 958.16,-220 958.16,-239"/>
<text text-anchor="middle" x="921.16" y="-227" font-family="Helvetica,sans-Serif" font-size="10.00">metrics.cxx</text>
</a>
</g>
</g>
<!-- Node34&#45;&gt;Node37 -->
<g id="edge40_Node000034_Node000037" class="edge">
<title>Node34&#45;&gt;Node37</title>
<g id="a_edge40_Node000034_Node000037"><a xlink:title=" ">
<path fill="none" stroke="#63b8ff" d="M783.95,-272.06C816.66,-262.15 863.23,-248.04 892.82,-239.08"/>
<polygon fill="#63b8ff" stroke="#63b8ff" points="782.84,-268.74 774.28,-274.98 784.86,-275.44 782.84,-268.74"/>
</a>
</g>
</g>
</g>
</svg>
