<?xml version="1.0" encoding="UTF-8" standalone="no"?>
<!DOCTYPE svg PUBLIC "-//W3C//DTD SVG 1.1//EN"
 "http://www.w3.org/Graphics/SVG/1.1/DTD/svg11.dtd">
<!-- Generated by graphviz version 2.43.0 (0)
 -->
<!-- Title: graph.cxx Pages: 1 -->
<svg width="1543pt" height="368pt"
 viewBox="0.00 0.00 1543.00 368.00" xmlns="http://www.w3.org/2000/svg" xmlns:xlink="http://www.w3.org/1999/xlink">
<g id="graph0" class="graph" transform="scale(1 1) rotate(0) translate(4 364)">
<title>graph.cxx</title>
<!-- Node1 -->
<g id="Node000001" class="node">
<title>Node1</title>
<g id="a_Node000001"><a xlink:title=" ">
<polygon fill="#999999" stroke="#666666" points="1408,-360 1343,-360 1343,-341 1408,-341 1408,-360"/>
<text text-anchor="middle" x="1375.5" y="-348" font-family="Helvetica,sans-Serif" font-size="10.00">graph.cxx</text>
</a>
</g>
</g>
<!-- Node2 -->
<g id="Node000002" class="node">
<title>Node2</title>
<g id="a_Node000002"><a xlink:href="pyc_8h.html" target="_top" xlink:title=" ">
<polygon fill="white" stroke="#666666" points="523,-305 460,-305 460,-286 523,-286 523,-305"/>
<text text-anchor="middle" x="491.5" y="-293" font-family="Helvetica,sans-Serif" font-size="10.00">pyc/pyc.h</text>
</a>
</g>
</g>
<!-- Node1&#45;&gt;Node2 -->
<g id="edge1_Node000001_Node000002" class="edge">
<title>Node1&#45;&gt;Node2</title>
<g id="a_edge1_Node000001_Node000002"><a xlink:title=" ">
<path fill="none" stroke="#63b8ff" d="M1342.99,-347.55C1207.32,-339.42 686.29,-308.18 533.71,-299.03"/>
<polygon fill="#63b8ff" stroke="#63b8ff" points="533.57,-295.52 523.37,-298.41 533.15,-302.5 533.57,-295.52"/>
</a>
</g>
</g>
<!-- Node31 -->
<g id="Node000031" class="node">
<title>Node31</title>
<g id="a_Node000031"><a xlink:href="utils_8h.html" target="_top" xlink:title="Header file for utility functions.">
<polygon fill="white" stroke="#666666" points="1535,-129 1464,-129 1464,-110 1535,-110 1535,-129"/>
<text text-anchor="middle" x="1499.5" y="-117" font-family="Helvetica,sans-Serif" font-size="10.00">utils/utils.h</text>
</a>
</g>
</g>
<!-- Node1&#45;&gt;Node31 -->
<g id="edge51_Node000001_Node000031" class="edge">
<title>Node1&#45;&gt;Node31</title>
<g id="a_edge51_Node000001_Node000031"><a xlink:title=" ">
<path fill="none" stroke="#63b8ff" d="M1408.24,-346.87C1435.91,-342.74 1474.06,-332.15 1493.5,-305 1529.53,-254.68 1514.62,-175.3 1505.12,-139.33"/>
<polygon fill="#63b8ff" stroke="#63b8ff" points="1508.36,-137.95 1502.29,-129.27 1501.62,-139.84 1508.36,-137.95"/>
</a>
</g>
</g>
<!-- Node32 -->
<g id="Node000032" class="node">
<title>Node32</title>
<g id="a_Node000032"><a xlink:href="transform_8h.html" target="_top" xlink:title="Provides transformation functions for momentum calculations in C++.">
<polygon fill="white" stroke="#666666" points="1484,-305 1359,-305 1359,-286 1484,-286 1484,-305"/>
<text text-anchor="middle" x="1421.5" y="-293" font-family="Helvetica,sans-Serif" font-size="10.00">transform/transform.h</text>
</a>
</g>
</g>
<!-- Node1&#45;&gt;Node32 -->
<g id="edge54_Node000001_Node000032" class="edge">
<title>Node1&#45;&gt;Node32</title>
<g id="a_edge54_Node000001_Node000032"><a xlink:title=" ">
<path fill="none" stroke="#63b8ff" d="M1383.1,-340.75C1389.66,-333.18 1399.32,-322.05 1407.31,-312.84"/>
<polygon fill="#63b8ff" stroke="#63b8ff" points="1410.13,-314.94 1414.05,-305.09 1404.85,-310.35 1410.13,-314.94"/>
</a>
</g>
</g>
<!-- Node33 -->
<g id="Node000033" class="node">
<title>Node33</title>
<g id="a_Node000033"><a xlink:href="graph_8h.html" target="_top" xlink:title=" ">
<polygon fill="white" stroke="#666666" points="1407.5,-129 1323.5,-129 1323.5,-110 1407.5,-110 1407.5,-129"/>
<text text-anchor="middle" x="1365.5" y="-117" font-family="Helvetica,sans-Serif" font-size="10.00">graph/graph.h</text>
</a>
</g>
</g>
<!-- Node1&#45;&gt;Node33 -->
<g id="edge56_Node000001_Node000033" class="edge">
<title>Node1&#45;&gt;Node33</title>
<g id="a_edge56_Node000001_Node000033"><a xlink:title=" ">
<path fill="none" stroke="#63b8ff" d="M1368.87,-340.88C1362.74,-332.32 1354.04,-318.54 1350.5,-305 1335,-245.78 1350.87,-172.55 1360.01,-138.94"/>
<polygon fill="#63b8ff" stroke="#63b8ff" points="1363.43,-139.71 1362.79,-129.14 1356.69,-137.8 1363.43,-139.71"/>
</a>
</g>
</g>
<!-- Node3 -->
<g id="Node000003" class="node">
<title>Node3</title>
<g id="a_Node000003"><a xlink:title=" ">
<polygon fill="#e0e0e0" stroke="#999999" points="389,-244.5 348,-244.5 348,-225.5 389,-225.5 389,-244.5"/>
<text text-anchor="middle" x="368.5" y="-232.5" font-family="Helvetica,sans-Serif" font-size="10.00">tuple</text>
</a>
</g>
</g>
<!-- Node2&#45;&gt;Node3 -->
<g id="edge2_Node000002_Node000003" class="edge">
<title>Node2&#45;&gt;Node3</title>
<g id="a_edge2_Node000002_Node000003"><a xlink:title=" ">
<path fill="none" stroke="#63b8ff" d="M473.61,-285.99C453.12,-276.25 419.31,-260.16 395.58,-248.88"/>
<polygon fill="#63b8ff" stroke="#63b8ff" points="396.94,-245.65 386.41,-244.52 393.93,-251.97 396.94,-245.65"/>
</a>
</g>
</g>
<!-- Node4 -->
<g id="Node000004" class="node">
<title>Node4</title>
<g id="a_Node000004"><a xlink:title=" ">
<polygon fill="#e0e0e0" stroke="#999999" points="472,-244.5 407,-244.5 407,-225.5 472,-225.5 472,-244.5"/>
<text text-anchor="middle" x="439.5" y="-232.5" font-family="Helvetica,sans-Serif" font-size="10.00">torch/all.h</text>
</a>
</g>
</g>
<!-- Node2&#45;&gt;Node4 -->
<g id="edge3_Node000002_Node000004" class="edge">
<title>Node2&#45;&gt;Node4</title>
<g id="a_edge3_Node000002_Node000004"><a xlink:title=" ">
<path fill="none" stroke="#63b8ff" d="M483.83,-285.87C475.99,-277.05 463.64,-263.16 453.96,-252.27"/>
<polygon fill="#63b8ff" stroke="#63b8ff" points="456.46,-249.82 447.2,-244.67 451.23,-254.47 456.46,-249.82"/>
</a>
</g>
</g>
<!-- Node5 -->
<g id="Node000005" class="node">
<title>Node5</title>
<g id="a_Node000005"><a xlink:href="particle__template_8h.html" target="_top" xlink:title="Defines the particle_template base class for physics particle representations.">
<polygon fill="white" stroke="#666666" points="596.5,-250 490.5,-250 490.5,-220 596.5,-220 596.5,-250"/>
<text text-anchor="start" x="498.5" y="-238" font-family="Helvetica,sans-Serif" font-size="10.00">templates/particle</text>
<text text-anchor="middle" x="543.5" y="-227" font-family="Helvetica,sans-Serif" font-size="10.00">_template.h</text>
</a>
</g>
</g>
<!-- Node2&#45;&gt;Node5 -->
<g id="edge4_Node000002_Node000005" class="edge">
<title>Node2&#45;&gt;Node5</title>
<g id="a_edge4_Node000002_Node000005"><a xlink:title=" ">
<path fill="none" stroke="#63b8ff" d="M499.17,-285.87C505.77,-278.44 515.57,-267.42 524.28,-257.62"/>
<polygon fill="#63b8ff" stroke="#63b8ff" points="526.93,-259.91 530.95,-250.11 521.69,-255.26 526.93,-259.91"/>
</a>
</g>
</g>
<!-- Node6 -->
<g id="Node000006" class="node">
<title>Node6</title>
<g id="a_Node000006"><a xlink:href="modules_2structs_2include_2structs_2particles_8h.html" target="_top" xlink:title=" ">
<polygon fill="white" stroke="#666666" points="1261.5,-74 1157.5,-74 1157.5,-55 1261.5,-55 1261.5,-74"/>
<text text-anchor="middle" x="1209.5" y="-62" font-family="Helvetica,sans-Serif" font-size="10.00">structs/particles.h</text>
</a>
</g>
</g>
<!-- Node5&#45;&gt;Node6 -->
<g id="edge5_Node000005_Node000006" class="edge">
<title>Node5&#45;&gt;Node6</title>
<g id="a_edge5_Node000005_Node000006"><a xlink:title=" ">
<path fill="none" stroke="#63b8ff" d="M596.57,-228.9C695.44,-218.3 913.56,-189.61 1087.5,-129 1124.33,-116.17 1163.82,-93.86 1187.59,-79.4"/>
<polygon fill="#63b8ff" stroke="#63b8ff" points="1189.51,-82.32 1196.18,-74.09 1185.83,-76.37 1189.51,-82.32"/>
</a>
</g>
</g>
<!-- Node7 -->
<g id="Node000007" class="node">
<title>Node7</title>
<g id="a_Node000007"><a xlink:title=" ">
<polygon fill="#e0e0e0" stroke="#999999" points="687.5,-19 643.5,-19 643.5,0 687.5,0 687.5,-19"/>
<text text-anchor="middle" x="665.5" y="-7" font-family="Helvetica,sans-Serif" font-size="10.00">string</text>
</a>
</g>
</g>
<!-- Node5&#45;&gt;Node7 -->
<g id="edge48_Node000005_Node000007" class="edge">
<title>Node5&#45;&gt;Node7</title>
<g id="a_edge48_Node000005_Node000007"><a xlink:title=" ">
<path fill="none" stroke="#63b8ff" d="M490.47,-221.64C487.44,-221.05 484.44,-220.5 481.5,-220 413.35,-208.37 232.18,-218.89 172.5,-184 140.22,-165.13 108.78,-138.9 132.5,-110 148.7,-90.26 520.41,-32.49 633.29,-15.35"/>
<polygon fill="#63b8ff" stroke="#63b8ff" points="634.02,-18.78 643.38,-13.82 632.97,-11.86 634.02,-18.78"/>
</a>
</g>
</g>
<!-- Node10 -->
<g id="Node000010" class="node">
<title>Node10</title>
<g id="a_Node000010"><a xlink:href="property_8h.html" target="_top" xlink:title="Defines the cproperty template class for property&#45;based access patterns.">
<polygon fill="white" stroke="#666666" points="283,-184 182,-184 182,-165 283,-165 283,-184"/>
<text text-anchor="middle" x="232.5" y="-172" font-family="Helvetica,sans-Serif" font-size="10.00">structs/property.h</text>
</a>
</g>
</g>
<!-- Node5&#45;&gt;Node10 -->
<g id="edge9_Node000005_Node000010" class="edge">
<title>Node5&#45;&gt;Node10</title>
<g id="a_edge9_Node000005_Node000010"><a xlink:title=" ">
<path fill="none" stroke="#63b8ff" d="M490.43,-221.85C487.41,-221.21 484.42,-220.59 481.5,-220 417.47,-207.06 343.78,-194.13 293.28,-185.57"/>
<polygon fill="#63b8ff" stroke="#63b8ff" points="293.62,-182.08 283.18,-183.87 292.46,-188.98 293.62,-182.08"/>
</a>
</g>
</g>
<!-- Node12 -->
<g id="Node000012" class="node">
<title>Node12</title>
<g id="a_Node000012"><a xlink:href="element_8h.html" target="_top" xlink:title=" ">
<polygon fill="white" stroke="#666666" points="790.5,-184 688.5,-184 688.5,-165 790.5,-165 790.5,-184"/>
<text text-anchor="middle" x="739.5" y="-172" font-family="Helvetica,sans-Serif" font-size="10.00">structs/element.h</text>
</a>
</g>
</g>
<!-- Node5&#45;&gt;Node12 -->
<g id="edge12_Node000005_Node000012" class="edge">
<title>Node5&#45;&gt;Node12</title>
<g id="a_edge12_Node000005_Node000012"><a xlink:title=" ">
<path fill="none" stroke="#63b8ff" d="M590.45,-219.99C624.27,-209.89 669.36,-196.44 701.05,-186.98"/>
<polygon fill="#63b8ff" stroke="#63b8ff" points="702.26,-190.27 710.84,-184.05 700.26,-183.56 702.26,-190.27"/>
</a>
</g>
</g>
<!-- Node22 -->
<g id="Node000022" class="node">
<title>Node22</title>
<g id="a_Node000022"><a xlink:title=" ">
<polygon fill="#e0e0e0" stroke="#999999" points="411.5,-19 351.5,-19 351.5,0 411.5,0 411.5,-19"/>
<text text-anchor="middle" x="381.5" y="-7" font-family="Helvetica,sans-Serif" font-size="10.00">iostream</text>
</a>
</g>
</g>
<!-- Node5&#45;&gt;Node22 -->
<g id="edge46_Node000005_Node000022" class="edge">
<title>Node5&#45;&gt;Node22</title>
<g id="a_edge46_Node000005_Node000022"><a xlink:title=" ">
<path fill="none" stroke="#63b8ff" d="M490.48,-221.6C487.45,-221.02 484.44,-220.49 481.5,-220 406.54,-207.61 201.72,-230.33 141.5,-184 114.4,-163.15 101.1,-138.15 120.5,-110 170.46,-37.48 280.88,-17.78 340.84,-12.45"/>
<polygon fill="#63b8ff" stroke="#63b8ff" points="341.38,-15.92 351.07,-11.64 340.82,-8.94 341.38,-15.92"/>
</a>
</g>
</g>
<!-- Node26 -->
<g id="Node000026" class="node">
<title>Node26</title>
<g id="a_Node000026"><a xlink:href="tools_8h.html" target="_top" xlink:title="Defines the tools class that provides general utility functions for the AnalysisG framework.">
<polygon fill="white" stroke="#666666" points="601,-74 524,-74 524,-55 601,-55 601,-74"/>
<text text-anchor="middle" x="562.5" y="-62" font-family="Helvetica,sans-Serif" font-size="10.00">tools/tools.h</text>
</a>
</g>
</g>
<!-- Node5&#45;&gt;Node26 -->
<g id="edge40_Node000005_Node000026" class="edge">
<title>Node5&#45;&gt;Node26</title>
<g id="a_edge40_Node000005_Node000026"><a xlink:title=" ">
<path fill="none" stroke="#63b8ff" d="M503.04,-219.89C446.9,-199.4 350.04,-160.42 330.5,-129 326.04,-121.83 325.12,-116.51 330.5,-110 353.28,-82.43 452.71,-71.77 513.77,-67.78"/>
<polygon fill="#63b8ff" stroke="#63b8ff" points="514.19,-71.26 523.96,-67.15 513.76,-64.27 514.19,-71.26"/>
</a>
</g>
</g>
<!-- Node28 -->
<g id="Node000028" class="node">
<title>Node28</title>
<g id="a_Node000028"><a xlink:title=" ">
<polygon fill="#e0e0e0" stroke="#999999" points="1206.5,-184 1150.5,-184 1150.5,-165 1206.5,-165 1206.5,-184"/>
<text text-anchor="middle" x="1178.5" y="-172" font-family="Helvetica,sans-Serif" font-size="10.00">sstream</text>
</a>
</g>
</g>
<!-- Node5&#45;&gt;Node28 -->
<g id="edge47_Node000005_Node000028" class="edge">
<title>Node5&#45;&gt;Node28</title>
<g id="a_edge47_Node000005_Node000028"><a xlink:title=" ">
<path fill="none" stroke="#63b8ff" d="M596.89,-231.57C701.07,-226.37 938.59,-212.27 1136.5,-184 1137.6,-183.84 1138.72,-183.67 1139.85,-183.5"/>
<polygon fill="#63b8ff" stroke="#63b8ff" points="1140.86,-186.87 1150.11,-181.71 1139.66,-179.98 1140.86,-186.87"/>
</a>
</g>
</g>
<!-- Node29 -->
<g id="Node000029" class="node">
<title>Node29</title>
<g id="a_Node000029"><a xlink:title=" ">
<polygon fill="#e0e0e0" stroke="#999999" points="1274,-184 1225,-184 1225,-165 1274,-165 1274,-184"/>
<text text-anchor="middle" x="1249.5" y="-172" font-family="Helvetica,sans-Serif" font-size="10.00">cstdlib</text>
</a>
</g>
</g>
<!-- Node5&#45;&gt;Node29 -->
<g id="edge49_Node000005_Node000029" class="edge">
<title>Node5&#45;&gt;Node29</title>
<g id="a_edge49_Node000005_Node000029"><a xlink:title=" ">
<path fill="none" stroke="#63b8ff" d="M596.57,-233.12C708.96,-230.6 979.3,-221.05 1214.6,-183.84"/>
<polygon fill="#63b8ff" stroke="#63b8ff" points="1215.4,-187.25 1224.72,-182.21 1214.29,-180.34 1215.4,-187.25"/>
</a>
</g>
</g>
<!-- Node30 -->
<g id="Node000030" class="node">
<title>Node30</title>
<g id="a_Node000030"><a xlink:title=" ">
<polygon fill="#e0e0e0" stroke="#999999" points="47,-184 0,-184 0,-165 47,-165 47,-184"/>
<text text-anchor="middle" x="23.5" y="-172" font-family="Helvetica,sans-Serif" font-size="10.00">cmath</text>
</a>
</g>
</g>
<!-- Node5&#45;&gt;Node30 -->
<g id="edge50_Node000005_Node000030" class="edge">
<title>Node5&#45;&gt;Node30</title>
<g id="a_edge50_Node000005_Node000030"><a xlink:title=" ">
<path fill="none" stroke="#63b8ff" d="M490.49,-221.53C487.46,-220.97 484.44,-220.46 481.5,-220 296.36,-191.3 246.67,-212.51 61.5,-184 60.04,-183.77 58.55,-183.53 57.05,-183.26"/>
<polygon fill="#63b8ff" stroke="#63b8ff" points="57.61,-179.8 47.12,-181.3 56.26,-186.67 57.61,-179.8"/>
</a>
</g>
</g>
<!-- Node6&#45;&gt;Node7 -->
<g id="edge6_Node000006_Node000007" class="edge">
<title>Node6&#45;&gt;Node7</title>
<g id="a_edge6_Node000006_Node000007"><a xlink:title=" ">
<path fill="none" stroke="#63b8ff" d="M1157.28,-56.06C1154.31,-55.69 1151.37,-55.33 1148.5,-55 979.13,-35.41 775.53,-18.97 697.8,-12.95"/>
<polygon fill="#63b8ff" stroke="#63b8ff" points="697.92,-9.45 687.68,-12.17 697.39,-16.43 697.92,-9.45"/>
</a>
</g>
</g>
<!-- Node8 -->
<g id="Node000008" class="node">
<title>Node8</title>
<g id="a_Node000008"><a xlink:title=" ">
<polygon fill="#e0e0e0" stroke="#999999" points="1233,-19 1186,-19 1186,0 1233,0 1233,-19"/>
<text text-anchor="middle" x="1209.5" y="-7" font-family="Helvetica,sans-Serif" font-size="10.00">vector</text>
</a>
</g>
</g>
<!-- Node6&#45;&gt;Node8 -->
<g id="edge7_Node000006_Node000008" class="edge">
<title>Node6&#45;&gt;Node8</title>
<g id="a_edge7_Node000006_Node000008"><a xlink:title=" ">
<path fill="none" stroke="#63b8ff" d="M1209.5,-54.75C1209.5,-47.8 1209.5,-37.85 1209.5,-29.13"/>
<polygon fill="#63b8ff" stroke="#63b8ff" points="1213,-29.09 1209.5,-19.09 1206,-29.09 1213,-29.09"/>
</a>
</g>
</g>
<!-- Node9 -->
<g id="Node000009" class="node">
<title>Node9</title>
<g id="a_Node000009"><a xlink:title=" ">
<polygon fill="#e0e0e0" stroke="#999999" points="911.5,-19 873.5,-19 873.5,0 911.5,0 911.5,-19"/>
<text text-anchor="middle" x="892.5" y="-7" font-family="Helvetica,sans-Serif" font-size="10.00">map</text>
</a>
</g>
</g>
<!-- Node6&#45;&gt;Node9 -->
<g id="edge8_Node000006_Node000009" class="edge">
<title>Node6&#45;&gt;Node9</title>
<g id="a_edge8_Node000006_Node000009"><a xlink:title=" ">
<path fill="none" stroke="#63b8ff" d="M1158.57,-54.98C1091.46,-43.76 975.64,-24.4 921.71,-15.38"/>
<polygon fill="#63b8ff" stroke="#63b8ff" points="922.22,-11.92 911.78,-13.72 921.07,-18.82 922.22,-11.92"/>
</a>
</g>
</g>
<!-- Node10&#45;&gt;Node7 -->
<g id="edge11_Node000010_Node000007" class="edge">
<title>Node10&#45;&gt;Node7</title>
<g id="a_edge11_Node000010_Node000007"><a xlink:title=" ">
<path fill="none" stroke="#63b8ff" d="M242.46,-164.89C258.5,-151.41 291.52,-125.3 323.5,-110 431.34,-58.41 571.33,-28 633.42,-16.2"/>
<polygon fill="#63b8ff" stroke="#63b8ff" points="634.21,-19.61 643.4,-14.33 632.92,-12.73 634.21,-19.61"/>
</a>
</g>
</g>
<!-- Node11 -->
<g id="Node000011" class="node">
<title>Node11</title>
<g id="a_Node000011"><a xlink:title=" ">
<polygon fill="#e0e0e0" stroke="#999999" points="207,-129 142,-129 142,-110 207,-110 207,-129"/>
<text text-anchor="middle" x="174.5" y="-117" font-family="Helvetica,sans-Serif" font-size="10.00">functional</text>
</a>
</g>
</g>
<!-- Node10&#45;&gt;Node11 -->
<g id="edge10_Node000010_Node000011" class="edge">
<title>Node10&#45;&gt;Node11</title>
<g id="a_edge10_Node000010_Node000011"><a xlink:title=" ">
<path fill="none" stroke="#63b8ff" d="M223.18,-164.98C214.69,-157.23 201.94,-145.58 191.62,-136.14"/>
<polygon fill="#63b8ff" stroke="#63b8ff" points="193.73,-133.33 183.99,-129.17 189.01,-138.5 193.73,-133.33"/>
</a>
</g>
</g>
<!-- Node12&#45;&gt;Node7 -->
<g id="edge37_Node000012_Node000007" class="edge">
<title>Node12&#45;&gt;Node7</title>
<g id="a_edge37_Node000012_Node000007"><a xlink:title=" ">
<path fill="none" stroke="#63b8ff" d="M704.87,-164.91C686.08,-158.33 664.33,-147.21 652.5,-129 632.47,-98.17 646.49,-53.08 656.96,-28.35"/>
<polygon fill="#63b8ff" stroke="#63b8ff" points="660.21,-29.66 661.12,-19.1 653.82,-26.79 660.21,-29.66"/>
</a>
</g>
</g>
<!-- Node12&#45;&gt;Node8 -->
<g id="edge38_Node000012_Node000008" class="edge">
<title>Node12&#45;&gt;Node8</title>
<g id="a_edge38_Node000012_Node000008"><a xlink:title=" ">
<path fill="none" stroke="#63b8ff" d="M790.66,-172.55C914.93,-169.01 1226.87,-152.34 1286.5,-74 1302.93,-52.42 1270.47,-33.48 1242.77,-22.03"/>
<polygon fill="#63b8ff" stroke="#63b8ff" points="1243.85,-18.7 1233.26,-18.3 1241.29,-25.21 1243.85,-18.7"/>
</a>
</g>
</g>
<!-- Node12&#45;&gt;Node9 -->
<g id="edge39_Node000012_Node000009" class="edge">
<title>Node12&#45;&gt;Node9</title>
<g id="a_edge39_Node000012_Node000009"><a xlink:title=" ">
<path fill="none" stroke="#63b8ff" d="M747.1,-164.88C754.3,-156.32 764.96,-142.54 771.5,-129 786.37,-98.22 770.1,-80.83 792.5,-55 810.77,-33.93 840.96,-22.39 863.39,-16.38"/>
<polygon fill="#63b8ff" stroke="#63b8ff" points="864.51,-19.71 873.39,-13.93 862.84,-12.91 864.51,-19.71"/>
</a>
</g>
</g>
<!-- Node13 -->
<g id="Node000013" class="node">
<title>Node13</title>
<g id="a_Node000013"><a xlink:title=" ">
<polygon fill="#e0e0e0" stroke="#999999" points="1056,-129 1007,-129 1007,-110 1056,-110 1056,-129"/>
<text text-anchor="middle" x="1031.5" y="-117" font-family="Helvetica,sans-Serif" font-size="10.00">TFile.h</text>
</a>
</g>
</g>
<!-- Node12&#45;&gt;Node13 -->
<g id="edge13_Node000012_Node000013" class="edge">
<title>Node12&#45;&gt;Node13</title>
<g id="a_edge13_Node000012_Node000013"><a xlink:title=" ">
<path fill="none" stroke="#63b8ff" d="M790.85,-165.95C841.12,-158.27 920.09,-145.45 996.85,-129.22"/>
<polygon fill="#63b8ff" stroke="#63b8ff" points="997.64,-132.64 1006.69,-127.12 996.17,-125.79 997.64,-132.64"/>
</a>
</g>
</g>
<!-- Node14 -->
<g id="Node000014" class="node">
<title>Node14</title>
<g id="a_Node000014"><a xlink:title=" ">
<polygon fill="#e0e0e0" stroke="#999999" points="853.5,-74 801.5,-74 801.5,-55 853.5,-55 853.5,-74"/>
<text text-anchor="middle" x="827.5" y="-62" font-family="Helvetica,sans-Serif" font-size="10.00">TTree.h</text>
</a>
</g>
</g>
<!-- Node12&#45;&gt;Node14 -->
<g id="edge14_Node000012_Node000014" class="edge">
<title>Node12&#45;&gt;Node14</title>
<g id="a_edge14_Node000012_Node000014"><a xlink:title=" ">
<path fill="none" stroke="#63b8ff" d="M775.79,-164.94C794.71,-158.44 816.2,-147.38 827.5,-129 835.71,-115.65 834.8,-97.54 832.37,-84.08"/>
<polygon fill="#63b8ff" stroke="#63b8ff" points="835.73,-83.06 830.13,-74.07 828.9,-84.59 835.73,-83.06"/>
</a>
</g>
</g>
<!-- Node15 -->
<g id="Node000015" class="node">
<title>Node15</title>
<g id="a_Node000015"><a xlink:title=" ">
<polygon fill="#e0e0e0" stroke="#999999" points="405,-129 340,-129 340,-110 405,-110 405,-129"/>
<text text-anchor="middle" x="372.5" y="-117" font-family="Helvetica,sans-Serif" font-size="10.00">TBranch.h</text>
</a>
</g>
</g>
<!-- Node12&#45;&gt;Node15 -->
<g id="edge15_Node000012_Node000015" class="edge">
<title>Node12&#45;&gt;Node15</title>
<g id="a_edge15_Node000012_Node000015"><a xlink:title=" ">
<path fill="none" stroke="#63b8ff" d="M688.4,-167.52C626.26,-160.03 517.97,-146.24 414.97,-128.98"/>
<polygon fill="#63b8ff" stroke="#63b8ff" points="415.46,-125.51 405.02,-127.29 414.3,-132.41 415.46,-125.51"/>
</a>
</g>
</g>
<!-- Node16 -->
<g id="Node000016" class="node">
<title>Node16</title>
<g id="a_Node000016"><a xlink:title=" ">
<polygon fill="#e0e0e0" stroke="#999999" points="475.5,-129 423.5,-129 423.5,-110 475.5,-110 475.5,-129"/>
<text text-anchor="middle" x="449.5" y="-117" font-family="Helvetica,sans-Serif" font-size="10.00">TLeaf.h</text>
</a>
</g>
</g>
<!-- Node12&#45;&gt;Node16 -->
<g id="edge16_Node000012_Node000016" class="edge">
<title>Node12&#45;&gt;Node16</title>
<g id="a_edge16_Node000012_Node000016"><a xlink:title=" ">
<path fill="none" stroke="#63b8ff" d="M688.25,-165.42C638.94,-157.45 562.07,-144.49 485.61,-128.91"/>
<polygon fill="#63b8ff" stroke="#63b8ff" points="486.31,-125.48 475.81,-126.9 484.9,-132.34 486.31,-125.48"/>
</a>
</g>
</g>
<!-- Node17 -->
<g id="Node000017" class="node">
<title>Node17</title>
<g id="a_Node000017"><a xlink:title=" ">
<polygon fill="#e0e0e0" stroke="#999999" points="605,-129 494,-129 494,-110 605,-110 605,-129"/>
<text text-anchor="middle" x="549.5" y="-117" font-family="Helvetica,sans-Serif" font-size="10.00">TTreeReaderArray.h</text>
</a>
</g>
</g>
<!-- Node12&#45;&gt;Node17 -->
<g id="edge17_Node000012_Node000017" class="edge">
<title>Node12&#45;&gt;Node17</title>
<g id="a_edge17_Node000012_Node000017"><a xlink:title=" ">
<path fill="none" stroke="#63b8ff" d="M708.97,-164.98C676.8,-156.01 625.94,-141.82 590.33,-131.89"/>
<polygon fill="#63b8ff" stroke="#63b8ff" points="590.84,-128.4 580.27,-129.08 588.96,-135.14 590.84,-128.4"/>
</a>
</g>
</g>
<!-- Node18 -->
<g id="Node000018" class="node">
<title>Node18</title>
<g id="a_Node000018"><a xlink:title=" ">
<polygon fill="#e0e0e0" stroke="#999999" points="747.5,-129 661.5,-129 661.5,-110 747.5,-110 747.5,-129"/>
<text text-anchor="middle" x="704.5" y="-117" font-family="Helvetica,sans-Serif" font-size="10.00">TTreeReader.h</text>
</a>
</g>
</g>
<!-- Node12&#45;&gt;Node18 -->
<g id="edge18_Node000012_Node000018" class="edge">
<title>Node12&#45;&gt;Node18</title>
<g id="a_edge18_Node000012_Node000018"><a xlink:title=" ">
<path fill="none" stroke="#63b8ff" d="M733.72,-164.75C728.88,-157.42 721.82,-146.73 715.86,-137.7"/>
<polygon fill="#63b8ff" stroke="#63b8ff" points="718.6,-135.5 710.17,-129.09 712.76,-139.36 718.6,-135.5"/>
</a>
</g>
</g>
<!-- Node19 -->
<g id="Node000019" class="node">
<title>Node19</title>
<g id="a_Node000019"><a xlink:href="vector__cast_8h.html" target="_top" xlink:title=" ">
<polygon fill="white" stroke="#666666" points="989,-129 880,-129 880,-110 989,-110 989,-129"/>
<text text-anchor="middle" x="934.5" y="-117" font-family="Helvetica,sans-Serif" font-size="10.00">tools/vector_cast.h</text>
</a>
</g>
</g>
<!-- Node12&#45;&gt;Node19 -->
<g id="edge19_Node000012_Node000019" class="edge">
<title>Node12&#45;&gt;Node19</title>
<g id="a_edge19_Node000012_Node000019"><a xlink:title=" ">
<path fill="none" stroke="#63b8ff" d="M770.83,-164.98C803.99,-155.97 856.5,-141.7 893.06,-131.76"/>
<polygon fill="#63b8ff" stroke="#63b8ff" points="894.19,-135.08 902.92,-129.08 892.36,-128.33 894.19,-135.08"/>
</a>
</g>
</g>
<!-- Node21 -->
<g id="Node000021" class="node">
<title>Node21</title>
<g id="a_Node000021"><a xlink:href="structs_2include_2structs_2meta_8h.html" target="_top" xlink:title="Defines metadata structures for physics analysis datasets.">
<polygon fill="white" stroke="#666666" points="745,-74 658,-74 658,-55 745,-55 745,-74"/>
<text text-anchor="middle" x="701.5" y="-62" font-family="Helvetica,sans-Serif" font-size="10.00">structs/meta.h</text>
</a>
</g>
</g>
<!-- Node12&#45;&gt;Node21 -->
<g id="edge35_Node000012_Node000021" class="edge">
<title>Node12&#45;&gt;Node21</title>
<g id="a_edge35_Node000012_Node000021"><a xlink:title=" ">
<path fill="none" stroke="#63b8ff" d="M745.44,-164.94C753.35,-152.4 765.35,-128.54 756.5,-110 750.41,-97.23 738.66,-86.94 727.58,-79.49"/>
<polygon fill="#63b8ff" stroke="#63b8ff" points="729.3,-76.43 718.96,-74.12 725.6,-82.38 729.3,-76.43"/>
</a>
</g>
</g>
<!-- Node12&#45;&gt;Node22 -->
<g id="edge36_Node000012_Node000022" class="edge">
<title>Node12&#45;&gt;Node22</title>
<g id="a_edge36_Node000012_Node000022"><a xlink:title=" ">
<path fill="none" stroke="#63b8ff" d="M688.48,-171.69C584.11,-167.45 354.02,-155.22 330.5,-129 303.1,-98.46 341.02,-50.96 364.82,-26.4"/>
<polygon fill="#63b8ff" stroke="#63b8ff" points="367.34,-28.82 371.94,-19.28 362.39,-23.87 367.34,-28.82"/>
</a>
</g>
</g>
<!-- Node23 -->
<g id="Node000023" class="node">
<title>Node23</title>
<g id="a_Node000023"><a xlink:href="modules_2structs_2include_2structs_2base_8h.html" target="_top" xlink:title="Defines fundamental data structures and type handling for the AnalysisG framework.">
<polygon fill="white" stroke="#666666" points="1139,-74 1054,-74 1054,-55 1139,-55 1139,-74"/>
<text text-anchor="middle" x="1096.5" y="-62" font-family="Helvetica,sans-Serif" font-size="10.00">structs/base.h</text>
</a>
</g>
</g>
<!-- Node12&#45;&gt;Node23 -->
<g id="edge34_Node000012_Node000023" class="edge">
<title>Node12&#45;&gt;Node23</title>
<g id="a_edge34_Node000012_Node000023"><a xlink:title=" ">
<path fill="none" stroke="#63b8ff" d="M790.61,-172.29C871.1,-169.44 1022.63,-160.01 1065.5,-129 1080.23,-118.34 1088.3,-98.74 1092.48,-84.12"/>
<polygon fill="#63b8ff" stroke="#63b8ff" points="1095.94,-84.7 1094.96,-74.15 1089.15,-83.01 1095.94,-84.7"/>
</a>
</g>
</g>
<!-- Node19&#45;&gt;Node8 -->
<g id="edge33_Node000019_Node000008" class="edge">
<title>Node19&#45;&gt;Node8</title>
<g id="a_edge33_Node000019_Node000008"><a xlink:title=" ">
<path fill="none" stroke="#63b8ff" d="M989.31,-111.22C992.42,-110.81 995.5,-110.4 998.5,-110 1058.94,-101.99 1230.31,-119.85 1270.5,-74 1286.17,-56.11 1260.27,-36.52 1237.54,-23.89"/>
<polygon fill="#63b8ff" stroke="#63b8ff" points="1238.91,-20.66 1228.44,-19.1 1235.65,-26.86 1238.91,-20.66"/>
</a>
</g>
</g>
<!-- Node19&#45;&gt;Node14 -->
<g id="edge32_Node000019_Node000014" class="edge">
<title>Node19&#45;&gt;Node14</title>
<g id="a_edge32_Node000019_Node000014"><a xlink:title=" ">
<path fill="none" stroke="#63b8ff" d="M917.31,-109.98C900.25,-101.54 873.87,-88.47 854.1,-78.68"/>
<polygon fill="#63b8ff" stroke="#63b8ff" points="855.52,-75.47 845,-74.17 852.41,-81.75 855.52,-75.47"/>
</a>
</g>
</g>
<!-- Node20 -->
<g id="Node000020" class="node">
<title>Node20</title>
<g id="a_Node000020"><a xlink:title=" ">
<polygon fill="#e0e0e0" stroke="#999999" points="997.5,-74 871.5,-74 871.5,-55 997.5,-55 997.5,-74"/>
<text text-anchor="middle" x="934.5" y="-62" font-family="Helvetica,sans-Serif" font-size="10.00">c10/core/DeviceType.h</text>
</a>
</g>
</g>
<!-- Node19&#45;&gt;Node20 -->
<g id="edge20_Node000019_Node000020" class="edge">
<title>Node19&#45;&gt;Node20</title>
<g id="a_edge20_Node000019_Node000020"><a xlink:title=" ">
<path fill="none" stroke="#63b8ff" d="M934.5,-109.75C934.5,-102.8 934.5,-92.85 934.5,-84.13"/>
<polygon fill="#63b8ff" stroke="#63b8ff" points="938,-84.09 934.5,-74.09 931,-84.09 938,-84.09"/>
</a>
</g>
</g>
<!-- Node19&#45;&gt;Node21 -->
<g id="edge21_Node000019_Node000021" class="edge">
<title>Node19&#45;&gt;Node21</title>
<g id="a_edge21_Node000019_Node000021"><a xlink:title=" ">
<path fill="none" stroke="#63b8ff" d="M897.06,-109.98C856.85,-100.84 792.82,-86.27 749.06,-76.32"/>
<polygon fill="#63b8ff" stroke="#63b8ff" points="749.76,-72.89 739.23,-74.08 748.2,-79.71 749.76,-72.89"/>
</a>
</g>
</g>
<!-- Node19&#45;&gt;Node23 -->
<g id="edge26_Node000019_Node000023" class="edge">
<title>Node19&#45;&gt;Node23</title>
<g id="a_edge26_Node000019_Node000023"><a xlink:title=" ">
<path fill="none" stroke="#63b8ff" d="M960.53,-109.98C987.61,-101.13 1030.21,-87.19 1060.51,-77.28"/>
<polygon fill="#63b8ff" stroke="#63b8ff" points="1061.85,-80.52 1070.27,-74.08 1059.68,-73.87 1061.85,-80.52"/>
</a>
</g>
</g>
<!-- Node25 -->
<g id="Node000025" class="node">
<title>Node25</title>
<g id="a_Node000025"><a xlink:title=" ">
<polygon fill="#e0e0e0" stroke="#999999" points="1471.5,-74 1393.5,-74 1393.5,-55 1471.5,-55 1471.5,-74"/>
<text text-anchor="middle" x="1432.5" y="-62" font-family="Helvetica,sans-Serif" font-size="10.00">torch/torch.h</text>
</a>
</g>
</g>
<!-- Node19&#45;&gt;Node25 -->
<g id="edge31_Node000019_Node000025" class="edge">
<title>Node19&#45;&gt;Node25</title>
<g id="a_edge31_Node000019_Node000025"><a xlink:title=" ">
<path fill="none" stroke="#63b8ff" d="M989.3,-111.11C992.41,-110.73 995.49,-110.35 998.5,-110 1137.62,-93.63 1302.25,-77.69 1382.91,-70.1"/>
<polygon fill="#63b8ff" stroke="#63b8ff" points="1383.63,-73.55 1393.26,-69.13 1382.98,-66.58 1383.63,-73.55"/>
</a>
</g>
</g>
<!-- Node21&#45;&gt;Node7 -->
<g id="edge23_Node000021_Node000007" class="edge">
<title>Node21&#45;&gt;Node7</title>
<g id="a_edge23_Node000021_Node000007"><a xlink:title=" ">
<path fill="none" stroke="#63b8ff" d="M695.56,-54.75C690.52,-47.34 683.16,-36.5 676.99,-27.41"/>
<polygon fill="#63b8ff" stroke="#63b8ff" points="679.85,-25.39 671.33,-19.09 674.06,-29.33 679.85,-25.39"/>
</a>
</g>
</g>
<!-- Node21&#45;&gt;Node8 -->
<g id="edge24_Node000021_Node000008" class="edge">
<title>Node21&#45;&gt;Node8</title>
<g id="a_edge24_Node000021_Node000008"><a xlink:title=" ">
<path fill="none" stroke="#63b8ff" d="M745.32,-59.32C850.91,-49.22 1113.65,-23.98 1153.5,-19 1160.73,-18.1 1168.46,-17 1175.81,-15.91"/>
<polygon fill="#63b8ff" stroke="#63b8ff" points="1176.48,-19.35 1185.83,-14.37 1175.42,-12.43 1176.48,-19.35"/>
</a>
</g>
</g>
<!-- Node21&#45;&gt;Node9 -->
<g id="edge25_Node000021_Node000009" class="edge">
<title>Node21&#45;&gt;Node9</title>
<g id="a_edge25_Node000021_Node000009"><a xlink:title=" ">
<path fill="none" stroke="#63b8ff" d="M732.19,-54.98C768.47,-44.92 828.37,-28.29 863.78,-18.47"/>
<polygon fill="#63b8ff" stroke="#63b8ff" points="864.8,-21.82 873.5,-15.77 862.92,-15.07 864.8,-21.82"/>
</a>
</g>
</g>
<!-- Node21&#45;&gt;Node22 -->
<g id="edge22_Node000021_Node000022" class="edge">
<title>Node21&#45;&gt;Node22</title>
<g id="a_edge22_Node000021_Node000022"><a xlink:title=" ">
<path fill="none" stroke="#63b8ff" d="M657.68,-56.24C595.38,-45.92 482.1,-27.16 421.8,-17.17"/>
<polygon fill="#63b8ff" stroke="#63b8ff" points="422.32,-13.71 411.88,-15.53 421.18,-20.62 422.32,-13.71"/>
</a>
</g>
</g>
<!-- Node23&#45;&gt;Node7 -->
<g id="edge27_Node000023_Node000007" class="edge">
<title>Node23&#45;&gt;Node7</title>
<g id="a_edge27_Node000023_Node000007"><a xlink:title=" ">
<path fill="none" stroke="#63b8ff" d="M1053.88,-57C1049.03,-56.31 1044.16,-55.62 1039.5,-55 913.34,-38.09 762.79,-21.17 697.89,-14.03"/>
<polygon fill="#63b8ff" stroke="#63b8ff" points="698.19,-10.54 687.87,-12.93 697.43,-17.5 698.19,-10.54"/>
</a>
</g>
</g>
<!-- Node23&#45;&gt;Node8 -->
<g id="edge28_Node000023_Node000008" class="edge">
<title>Node23&#45;&gt;Node8</title>
<g id="a_edge28_Node000023_Node000008"><a xlink:title=" ">
<path fill="none" stroke="#63b8ff" d="M1114.66,-54.98C1132.75,-46.5 1160.78,-33.35 1181.69,-23.54"/>
<polygon fill="#63b8ff" stroke="#63b8ff" points="1183.45,-26.59 1191.01,-19.17 1180.47,-20.25 1183.45,-26.59"/>
</a>
</g>
</g>
<!-- Node23&#45;&gt;Node9 -->
<g id="edge29_Node000023_Node000009" class="edge">
<title>Node23&#45;&gt;Node9</title>
<g id="a_edge29_Node000023_Node000009"><a xlink:title=" ">
<path fill="none" stroke="#63b8ff" d="M1063.72,-54.98C1024.4,-44.77 959.08,-27.8 921.51,-18.04"/>
<polygon fill="#63b8ff" stroke="#63b8ff" points="922.25,-14.61 911.69,-15.49 920.49,-21.39 922.25,-14.61"/>
</a>
</g>
</g>
<!-- Node24 -->
<g id="Node000024" class="node">
<title>Node24</title>
<g id="a_Node000024"><a xlink:href="enums_8h.html" target="_top" xlink:title=" ">
<polygon fill="white" stroke="#666666" points="1144,-19 1049,-19 1049,0 1144,0 1144,-19"/>
<text text-anchor="middle" x="1096.5" y="-7" font-family="Helvetica,sans-Serif" font-size="10.00">structs/enums.h</text>
</a>
</g>
</g>
<!-- Node23&#45;&gt;Node24 -->
<g id="edge30_Node000023_Node000024" class="edge">
<title>Node23&#45;&gt;Node24</title>
<g id="a_edge30_Node000023_Node000024"><a xlink:title=" ">
<path fill="none" stroke="#63b8ff" d="M1096.5,-54.75C1096.5,-47.8 1096.5,-37.85 1096.5,-29.13"/>
<polygon fill="#63b8ff" stroke="#63b8ff" points="1100,-29.09 1096.5,-19.09 1093,-29.09 1100,-29.09"/>
</a>
</g>
</g>
<!-- Node26&#45;&gt;Node7 -->
<g id="edge42_Node000026_Node000007" class="edge">
<title>Node26&#45;&gt;Node7</title>
<g id="a_edge42_Node000026_Node000007"><a xlink:title=" ">
<path fill="none" stroke="#63b8ff" d="M579.05,-54.98C595.39,-46.57 620.63,-33.59 639.63,-23.81"/>
<polygon fill="#63b8ff" stroke="#63b8ff" points="641.36,-26.86 648.65,-19.17 638.16,-20.63 641.36,-26.86"/>
</a>
</g>
</g>
<!-- Node26&#45;&gt;Node8 -->
<g id="edge43_Node000026_Node000008" class="edge">
<title>Node26&#45;&gt;Node8</title>
<g id="a_edge43_Node000026_Node000008"><a xlink:title=" ">
<path fill="none" stroke="#63b8ff" d="M601.03,-59.52C616.13,-58.01 633.62,-56.34 649.5,-55 873.27,-36.08 930.31,-43.87 1153.5,-19 1160.74,-18.19 1168.48,-17.14 1175.82,-16.05"/>
<polygon fill="#63b8ff" stroke="#63b8ff" points="1176.5,-19.49 1185.85,-14.52 1175.43,-12.57 1176.5,-19.49"/>
</a>
</g>
</g>
<!-- Node26&#45;&gt;Node9 -->
<g id="edge45_Node000026_Node000009" class="edge">
<title>Node26&#45;&gt;Node9</title>
<g id="a_edge45_Node000026_Node000009"><a xlink:title=" ">
<path fill="none" stroke="#63b8ff" d="M601,-57.32C667.75,-46.6 803.51,-24.79 863.21,-15.2"/>
<polygon fill="#63b8ff" stroke="#63b8ff" points="864.12,-18.6 873.44,-13.56 863.01,-11.69 864.12,-18.6"/>
</a>
</g>
</g>
<!-- Node26&#45;&gt;Node22 -->
<g id="edge41_Node000026_Node000022" class="edge">
<title>Node26&#45;&gt;Node22</title>
<g id="a_edge41_Node000026_Node000022"><a xlink:title=" ">
<path fill="none" stroke="#63b8ff" d="M533.42,-54.98C502.9,-46.05 454.74,-31.94 420.84,-22.02"/>
<polygon fill="#63b8ff" stroke="#63b8ff" points="421.39,-18.53 410.81,-19.08 419.42,-25.25 421.39,-18.53"/>
</a>
</g>
</g>
<!-- Node27 -->
<g id="Node000027" class="node">
<title>Node27</title>
<g id="a_Node000027"><a xlink:title=" ">
<polygon fill="#e0e0e0" stroke="#999999" points="587.5,-19 537.5,-19 537.5,0 587.5,0 587.5,-19"/>
<text text-anchor="middle" x="562.5" y="-7" font-family="Helvetica,sans-Serif" font-size="10.00">cstdint</text>
</a>
</g>
</g>
<!-- Node26&#45;&gt;Node27 -->
<g id="edge44_Node000026_Node000027" class="edge">
<title>Node26&#45;&gt;Node27</title>
<g id="a_edge44_Node000026_Node000027"><a xlink:title=" ">
<path fill="none" stroke="#63b8ff" d="M562.5,-54.75C562.5,-47.8 562.5,-37.85 562.5,-29.13"/>
<polygon fill="#63b8ff" stroke="#63b8ff" points="566,-29.09 562.5,-19.09 559,-29.09 566,-29.09"/>
</a>
</g>
</g>
<!-- Node31&#45;&gt;Node8 -->
<g id="edge53_Node000031_Node000008" class="edge">
<title>Node31&#45;&gt;Node8</title>
<g id="a_edge53_Node000031_Node000008"><a xlink:title=" ">
<path fill="none" stroke="#63b8ff" d="M1499.61,-109.57C1499.26,-95.67 1496.4,-68.98 1480.5,-55 1445.74,-24.43 1307.78,-14.63 1243.19,-11.68"/>
<polygon fill="#63b8ff" stroke="#63b8ff" points="1243.25,-8.18 1233.11,-11.25 1242.95,-15.18 1243.25,-8.18"/>
</a>
</g>
</g>
<!-- Node31&#45;&gt;Node25 -->
<g id="edge52_Node000031_Node000025" class="edge">
<title>Node31&#45;&gt;Node25</title>
<g id="a_edge52_Node000031_Node000025"><a xlink:title=" ">
<path fill="none" stroke="#63b8ff" d="M1488.74,-109.98C1478.73,-102.07 1463.61,-90.11 1451.57,-80.58"/>
<polygon fill="#63b8ff" stroke="#63b8ff" points="1453.47,-77.63 1443.46,-74.17 1449.13,-83.12 1453.47,-77.63"/>
</a>
</g>
</g>
<!-- Node32&#45;&gt;Node25 -->
<g id="edge55_Node000032_Node000025" class="edge">
<title>Node32&#45;&gt;Node25</title>
<g id="a_edge55_Node000032_Node000025"><a xlink:title=" ">
<path fill="none" stroke="#63b8ff" d="M1421.92,-285.8C1423.53,-252.29 1429.35,-131.08 1431.6,-84.2"/>
<polygon fill="#63b8ff" stroke="#63b8ff" points="1435.1,-84.36 1432.08,-74.21 1428.11,-84.03 1435.1,-84.36"/>
</a>
</g>
</g>
<!-- Node33&#45;&gt;Node7 -->
<g id="edge58_Node000033_Node000007" class="edge">
<title>Node33&#45;&gt;Node7</title>
<g id="a_edge58_Node000033_Node000007"><a xlink:title=" ">
<path fill="none" stroke="#63b8ff" d="M1323.43,-116.86C1261.38,-113.5 1142.21,-103.47 1045.5,-74 1027.06,-68.38 1024.97,-60.54 1006.5,-55 896.45,-21.97 759.16,-13.45 697.77,-11.26"/>
<polygon fill="#63b8ff" stroke="#63b8ff" points="697.66,-7.75 687.55,-10.93 697.43,-14.75 697.66,-7.75"/>
</a>
</g>
</g>
<!-- Node33&#45;&gt;Node9 -->
<g id="edge57_Node000033_Node000009" class="edge">
<title>Node33&#45;&gt;Node9</title>
<g id="a_edge57_Node000033_Node000009"><a xlink:title=" ">
<path fill="none" stroke="#63b8ff" d="M1356.1,-109.94C1339.95,-95.8 1305.31,-67.83 1270.5,-55 1206.4,-31.37 999.24,-16.88 921.94,-12.18"/>
<polygon fill="#63b8ff" stroke="#63b8ff" points="922.12,-8.69 911.93,-11.58 921.7,-15.67 922.12,-8.69"/>
</a>
</g>
</g>
<!-- Node33&#45;&gt;Node25 -->
<g id="edge59_Node000033_Node000025" class="edge">
<title>Node33&#45;&gt;Node25</title>
<g id="a_edge59_Node000033_Node000025"><a xlink:title=" ">
<path fill="none" stroke="#63b8ff" d="M1376.26,-109.98C1386.27,-102.07 1401.39,-90.11 1413.43,-80.58"/>
<polygon fill="#63b8ff" stroke="#63b8ff" points="1415.87,-83.12 1421.54,-74.17 1411.53,-77.63 1415.87,-83.12"/>
</a>
</g>
</g>
</g>
</svg>
