<?xml version="1.0" encoding="UTF-8" standalone="no"?>
<!DOCTYPE svg PUBLIC "-//W3C//DTD SVG 1.1//EN"
 "http://www.w3.org/Graphics/SVG/1.1/DTD/svg11.dtd">
<!-- Generated by graphviz version 2.43.0 (0)
 -->
<!-- Title: pyc.h Pages: 1 -->
<svg width="1109pt" height="313pt"
 viewBox="0.00 0.00 1109.32 313.00" xmlns="http://www.w3.org/2000/svg" xmlns:xlink="http://www.w3.org/1999/xlink">
<g id="graph0" class="graph" transform="scale(1 1) rotate(0) translate(4 309)">
<title>pyc.h</title>
<!-- Node1 -->
<g id="Node000001" class="node">
<title>Node1</title>
<g id="a_Node000001"><a xlink:title=" ">
<polygon fill="#999999" stroke="#666666" points="529.32,-305 486.32,-305 486.32,-286 529.32,-286 529.32,-305"/>
<text text-anchor="middle" x="507.82" y="-293" font-family="Helvetica,sans-Serif" font-size="10.00">pyc.h</text>
</a>
</g>
</g>
<!-- Node2 -->
<g id="Node000002" class="node">
<title>Node2</title>
<g id="a_Node000002"><a xlink:title=" ">
<polygon fill="#e0e0e0" stroke="#999999" points="457.32,-244.5 416.32,-244.5 416.32,-225.5 457.32,-225.5 457.32,-244.5"/>
<text text-anchor="middle" x="436.82" y="-232.5" font-family="Helvetica,sans-Serif" font-size="10.00">tuple</text>
</a>
</g>
</g>
<!-- Node1&#45;&gt;Node2 -->
<g id="edge1_Node000001_Node000002" class="edge">
<title>Node1&#45;&gt;Node2</title>
<g id="a_edge1_Node000001_Node000002"><a xlink:title=" ">
<path fill="none" stroke="#63b8ff" d="M497.34,-285.87C486.33,-276.8 468.78,-262.34 455.41,-251.32"/>
<polygon fill="#63b8ff" stroke="#63b8ff" points="457.28,-248.33 447.34,-244.67 452.83,-253.73 457.28,-248.33"/>
</a>
</g>
</g>
<!-- Node3 -->
<g id="Node000003" class="node">
<title>Node3</title>
<g id="a_Node000003"><a xlink:title=" ">
<polygon fill="#e0e0e0" stroke="#999999" points="540.32,-244.5 475.32,-244.5 475.32,-225.5 540.32,-225.5 540.32,-244.5"/>
<text text-anchor="middle" x="507.82" y="-232.5" font-family="Helvetica,sans-Serif" font-size="10.00">torch/all.h</text>
</a>
</g>
</g>
<!-- Node1&#45;&gt;Node3 -->
<g id="edge2_Node000001_Node000003" class="edge">
<title>Node1&#45;&gt;Node3</title>
<g id="a_edge2_Node000001_Node000003"><a xlink:title=" ">
<path fill="none" stroke="#63b8ff" d="M507.82,-285.87C507.82,-277.75 507.82,-265.31 507.82,-254.89"/>
<polygon fill="#63b8ff" stroke="#63b8ff" points="511.32,-254.67 507.82,-244.67 504.32,-254.67 511.32,-254.67"/>
</a>
</g>
</g>
<!-- Node4 -->
<g id="Node000004" class="node">
<title>Node4</title>
<g id="a_Node000004"><a xlink:href="particle__template_8h.html" target="_top" xlink:title="Defines the particle_template base class for physics particle representations.">
<polygon fill="white" stroke="#666666" points="664.82,-250 558.82,-250 558.82,-220 664.82,-220 664.82,-250"/>
<text text-anchor="start" x="566.82" y="-238" font-family="Helvetica,sans-Serif" font-size="10.00">templates/particle</text>
<text text-anchor="middle" x="611.82" y="-227" font-family="Helvetica,sans-Serif" font-size="10.00">_template.h</text>
</a>
</g>
</g>
<!-- Node1&#45;&gt;Node4 -->
<g id="edge3_Node000001_Node000004" class="edge">
<title>Node1&#45;&gt;Node4</title>
<g id="a_edge3_Node000001_Node000004"><a xlink:title=" ">
<path fill="none" stroke="#63b8ff" d="M523.16,-285.87C537.53,-277.78 559.51,-265.42 577.98,-255.03"/>
<polygon fill="#63b8ff" stroke="#63b8ff" points="579.72,-258.07 586.72,-250.11 576.29,-251.97 579.72,-258.07"/>
</a>
</g>
</g>
<!-- Node5 -->
<g id="Node000005" class="node">
<title>Node5</title>
<g id="a_Node000005"><a xlink:href="modules_2structs_2include_2structs_2particles_8h.html" target="_top" xlink:title=" ">
<polygon fill="white" stroke="#666666" points="284.82,-74 180.82,-74 180.82,-55 284.82,-55 284.82,-74"/>
<text text-anchor="middle" x="232.82" y="-62" font-family="Helvetica,sans-Serif" font-size="10.00">structs/particles.h</text>
</a>
</g>
</g>
<!-- Node4&#45;&gt;Node5 -->
<g id="edge4_Node000004_Node000005" class="edge">
<title>Node4&#45;&gt;Node5</title>
<g id="a_edge4_Node000004_Node000005"><a xlink:title=" ">
<path fill="none" stroke="#63b8ff" d="M558.72,-221.97C555.71,-221.3 552.73,-220.64 549.82,-220 475.24,-203.59 452.29,-213.41 381.82,-184 325.12,-160.34 272.2,-108.56 247.47,-81.97"/>
<polygon fill="#63b8ff" stroke="#63b8ff" points="249.78,-79.32 240.46,-74.29 244.61,-84.04 249.78,-79.32"/>
</a>
</g>
</g>
<!-- Node6 -->
<g id="Node000006" class="node">
<title>Node6</title>
<g id="a_Node000006"><a xlink:title=" ">
<polygon fill="#e0e0e0" stroke="#999999" points="254.82,-19 210.82,-19 210.82,0 254.82,0 254.82,-19"/>
<text text-anchor="middle" x="232.82" y="-7" font-family="Helvetica,sans-Serif" font-size="10.00">string</text>
</a>
</g>
</g>
<!-- Node4&#45;&gt;Node6 -->
<g id="edge47_Node000004_Node000006" class="edge">
<title>Node4&#45;&gt;Node6</title>
<g id="a_edge47_Node000004_Node000006"><a xlink:title=" ">
<path fill="none" stroke="#63b8ff" d="M558.48,-221.41C555.56,-220.89 552.66,-220.41 549.82,-220 490.97,-211.43 56.43,-227.44 15.82,-184 -27.63,-137.53 27.37,-93.75 77.82,-55 113.98,-27.22 166.87,-16.78 200.56,-12.85"/>
<polygon fill="#63b8ff" stroke="#63b8ff" points="201.19,-16.31 210.78,-11.8 200.47,-9.35 201.19,-16.31"/>
</a>
</g>
</g>
<!-- Node9 -->
<g id="Node000009" class="node">
<title>Node9</title>
<g id="a_Node000009"><a xlink:href="property_8h.html" target="_top" xlink:title="Defines the cproperty template class for property&#45;based access patterns.">
<polygon fill="white" stroke="#666666" points="126.32,-184 25.32,-184 25.32,-165 126.32,-165 126.32,-184"/>
<text text-anchor="middle" x="75.82" y="-172" font-family="Helvetica,sans-Serif" font-size="10.00">structs/property.h</text>
</a>
</g>
</g>
<!-- Node4&#45;&gt;Node9 -->
<g id="edge8_Node000004_Node000009" class="edge">
<title>Node4&#45;&gt;Node9</title>
<g id="a_edge8_Node000004_Node000009"><a xlink:title=" ">
<path fill="none" stroke="#63b8ff" d="M558.81,-221.54C555.77,-220.98 552.76,-220.46 549.82,-220 369.52,-191.84 322.22,-203.84 140.82,-184 139.51,-183.86 138.19,-183.71 136.86,-183.56"/>
<polygon fill="#63b8ff" stroke="#63b8ff" points="136.87,-180.04 126.53,-182.34 136.05,-186.99 136.87,-180.04"/>
</a>
</g>
</g>
<!-- Node11 -->
<g id="Node000011" class="node">
<title>Node11</title>
<g id="a_Node000011"><a xlink:href="element_8h.html" target="_top" xlink:title=" ">
<polygon fill="white" stroke="#666666" points="662.82,-184 560.82,-184 560.82,-165 662.82,-165 662.82,-184"/>
<text text-anchor="middle" x="611.82" y="-172" font-family="Helvetica,sans-Serif" font-size="10.00">structs/element.h</text>
</a>
</g>
</g>
<!-- Node4&#45;&gt;Node11 -->
<g id="edge11_Node000004_Node000011" class="edge">
<title>Node4&#45;&gt;Node11</title>
<g id="a_edge11_Node000004_Node000011"><a xlink:title=" ">
<path fill="none" stroke="#63b8ff" d="M611.82,-219.84C611.82,-212.21 611.82,-202.7 611.82,-194.45"/>
<polygon fill="#63b8ff" stroke="#63b8ff" points="615.32,-194.27 611.82,-184.27 608.32,-194.27 615.32,-194.27"/>
</a>
</g>
</g>
<!-- Node21 -->
<g id="Node000021" class="node">
<title>Node21</title>
<g id="a_Node000021"><a xlink:title=" ">
<polygon fill="#e0e0e0" stroke="#999999" points="877.82,-19 817.82,-19 817.82,0 877.82,0 877.82,-19"/>
<text text-anchor="middle" x="847.82" y="-7" font-family="Helvetica,sans-Serif" font-size="10.00">iostream</text>
</a>
</g>
</g>
<!-- Node4&#45;&gt;Node21 -->
<g id="edge45_Node000004_Node000021" class="edge">
<title>Node4&#45;&gt;Node21</title>
<g id="a_edge45_Node000004_Node000021"><a xlink:title=" ">
<path fill="none" stroke="#63b8ff" d="M664.82,-221.26C774.18,-194.86 1015.13,-136.06 1020.82,-129 1041.45,-103.37 1043.01,-80.97 1022.82,-55 1006.45,-33.95 934.54,-21.22 888.15,-15.06"/>
<polygon fill="#63b8ff" stroke="#63b8ff" points="888.46,-11.57 878.1,-13.77 887.57,-18.51 888.46,-11.57"/>
</a>
</g>
</g>
<!-- Node25 -->
<g id="Node000025" class="node">
<title>Node25</title>
<g id="a_Node000025"><a xlink:href="tools_8h.html" target="_top" xlink:title="Defines the tools class that provides general utility functions for the AnalysisG framework.">
<polygon fill="white" stroke="#666666" points="380.32,-74 303.32,-74 303.32,-55 380.32,-55 380.32,-74"/>
<text text-anchor="middle" x="341.82" y="-62" font-family="Helvetica,sans-Serif" font-size="10.00">tools/tools.h</text>
</a>
</g>
</g>
<!-- Node4&#45;&gt;Node25 -->
<g id="edge39_Node000004_Node000025" class="edge">
<title>Node4&#45;&gt;Node25</title>
<g id="a_edge39_Node000004_Node000025"><a xlink:title=" ">
<path fill="none" stroke="#63b8ff" d="M560.77,-219.98C477.74,-196.67 321.1,-150.4 305.82,-129 294.73,-113.48 309.12,-94.27 322.86,-81.06"/>
<polygon fill="#63b8ff" stroke="#63b8ff" points="325.56,-83.34 330.68,-74.06 320.89,-78.13 325.56,-83.34"/>
</a>
</g>
</g>
<!-- Node27 -->
<g id="Node000027" class="node">
<title>Node27</title>
<g id="a_Node000027"><a xlink:title=" ">
<polygon fill="#e0e0e0" stroke="#999999" points="968.82,-184 912.82,-184 912.82,-165 968.82,-165 968.82,-184"/>
<text text-anchor="middle" x="940.82" y="-172" font-family="Helvetica,sans-Serif" font-size="10.00">sstream</text>
</a>
</g>
</g>
<!-- Node4&#45;&gt;Node27 -->
<g id="edge46_Node000004_Node000027" class="edge">
<title>Node4&#45;&gt;Node27</title>
<g id="a_edge46_Node000004_Node000027"><a xlink:title=" ">
<path fill="none" stroke="#63b8ff" d="M665.05,-225.17C722.73,-215.5 817.43,-199.32 898.82,-184 899.91,-183.79 901.02,-183.58 902.15,-183.37"/>
<polygon fill="#63b8ff" stroke="#63b8ff" points="903.23,-186.72 912.37,-181.37 901.88,-179.85 903.23,-186.72"/>
</a>
</g>
</g>
<!-- Node28 -->
<g id="Node000028" class="node">
<title>Node28</title>
<g id="a_Node000028"><a xlink:title=" ">
<polygon fill="#e0e0e0" stroke="#999999" points="1036.32,-184 987.32,-184 987.32,-165 1036.32,-165 1036.32,-184"/>
<text text-anchor="middle" x="1011.82" y="-172" font-family="Helvetica,sans-Serif" font-size="10.00">cstdlib</text>
</a>
</g>
</g>
<!-- Node4&#45;&gt;Node28 -->
<g id="edge48_Node000004_Node000028" class="edge">
<title>Node4&#45;&gt;Node28</title>
<g id="a_edge48_Node000004_Node000028"><a xlink:title=" ">
<path fill="none" stroke="#63b8ff" d="M664.84,-228.6C734.35,-221.1 860.18,-206.14 977.16,-183.93"/>
<polygon fill="#63b8ff" stroke="#63b8ff" points="977.84,-187.36 987,-182.04 976.52,-180.49 977.84,-187.36"/>
</a>
</g>
</g>
<!-- Node29 -->
<g id="Node000029" class="node">
<title>Node29</title>
<g id="a_Node000029"><a xlink:title=" ">
<polygon fill="#e0e0e0" stroke="#999999" points="1101.32,-184 1054.32,-184 1054.32,-165 1101.32,-165 1101.32,-184"/>
<text text-anchor="middle" x="1077.82" y="-172" font-family="Helvetica,sans-Serif" font-size="10.00">cmath</text>
</a>
</g>
</g>
<!-- Node4&#45;&gt;Node29 -->
<g id="edge49_Node000004_Node000029" class="edge">
<title>Node4&#45;&gt;Node29</title>
<g id="a_edge49_Node000004_Node000029"><a xlink:title=" ">
<path fill="none" stroke="#63b8ff" d="M664.97,-230.37C745.23,-224.34 902.23,-210.43 1043.96,-184.11"/>
<polygon fill="#63b8ff" stroke="#63b8ff" points="1044.96,-187.49 1054.14,-182.2 1043.66,-180.61 1044.96,-187.49"/>
</a>
</g>
</g>
<!-- Node5&#45;&gt;Node6 -->
<g id="edge5_Node000005_Node000006" class="edge">
<title>Node5&#45;&gt;Node6</title>
<g id="a_edge5_Node000005_Node000006"><a xlink:title=" ">
<path fill="none" stroke="#63b8ff" d="M232.82,-54.75C232.82,-47.8 232.82,-37.85 232.82,-29.13"/>
<polygon fill="#63b8ff" stroke="#63b8ff" points="236.32,-29.09 232.82,-19.09 229.32,-29.09 236.32,-29.09"/>
</a>
</g>
</g>
<!-- Node7 -->
<g id="Node000007" class="node">
<title>Node7</title>
<g id="a_Node000007"><a xlink:title=" ">
<polygon fill="#e0e0e0" stroke="#999999" points="605.32,-19 558.32,-19 558.32,0 605.32,0 605.32,-19"/>
<text text-anchor="middle" x="581.82" y="-7" font-family="Helvetica,sans-Serif" font-size="10.00">vector</text>
</a>
</g>
</g>
<!-- Node5&#45;&gt;Node7 -->
<g id="edge6_Node000005_Node000007" class="edge">
<title>Node5&#45;&gt;Node7</title>
<g id="a_edge6_Node000005_Node000007"><a xlink:title=" ">
<path fill="none" stroke="#63b8ff" d="M284.99,-56.27C371.17,-44.32 535.08,-21.49 547.82,-19 547.92,-18.98 548.03,-18.96 548.13,-18.94"/>
<polygon fill="#63b8ff" stroke="#63b8ff" points="549.08,-22.31 558.11,-16.76 547.59,-15.47 549.08,-22.31"/>
</a>
</g>
</g>
<!-- Node8 -->
<g id="Node000008" class="node">
<title>Node8</title>
<g id="a_Node000008"><a xlink:title=" ">
<polygon fill="#e0e0e0" stroke="#999999" points="424.82,-19 386.82,-19 386.82,0 424.82,0 424.82,-19"/>
<text text-anchor="middle" x="405.82" y="-7" font-family="Helvetica,sans-Serif" font-size="10.00">map</text>
</a>
</g>
</g>
<!-- Node5&#45;&gt;Node8 -->
<g id="edge7_Node000005_Node000008" class="edge">
<title>Node5&#45;&gt;Node8</title>
<g id="a_edge7_Node000005_Node000008"><a xlink:title=" ">
<path fill="none" stroke="#63b8ff" d="M260.61,-54.98C292.5,-45.22 344.54,-29.27 376.9,-19.36"/>
<polygon fill="#63b8ff" stroke="#63b8ff" points="378.12,-22.64 386.66,-16.37 376.07,-15.95 378.12,-22.64"/>
</a>
</g>
</g>
<!-- Node9&#45;&gt;Node6 -->
<g id="edge10_Node000009_Node000006" class="edge">
<title>Node9&#45;&gt;Node6</title>
<g id="a_edge10_Node000009_Node000006"><a xlink:title=" ">
<path fill="none" stroke="#63b8ff" d="M68.02,-164.95C57.6,-152.43 41.58,-128.58 51.82,-110 82.51,-54.29 157.56,-28.01 200.77,-17.13"/>
<polygon fill="#63b8ff" stroke="#63b8ff" points="201.85,-20.47 210.76,-14.74 200.22,-13.66 201.85,-20.47"/>
</a>
</g>
</g>
<!-- Node10 -->
<g id="Node000010" class="node">
<title>Node10</title>
<g id="a_Node000010"><a xlink:title=" ">
<polygon fill="#e0e0e0" stroke="#999999" points="126.32,-129 61.32,-129 61.32,-110 126.32,-110 126.32,-129"/>
<text text-anchor="middle" x="93.82" y="-117" font-family="Helvetica,sans-Serif" font-size="10.00">functional</text>
</a>
</g>
</g>
<!-- Node9&#45;&gt;Node10 -->
<g id="edge9_Node000009_Node000010" class="edge">
<title>Node9&#45;&gt;Node10</title>
<g id="a_edge9_Node000009_Node000010"><a xlink:title=" ">
<path fill="none" stroke="#63b8ff" d="M78.79,-164.75C81.17,-157.72 84.6,-147.62 87.59,-138.84"/>
<polygon fill="#63b8ff" stroke="#63b8ff" points="91,-139.68 90.9,-129.09 84.37,-137.43 91,-139.68"/>
</a>
</g>
</g>
<!-- Node11&#45;&gt;Node6 -->
<g id="edge36_Node000011_Node000006" class="edge">
<title>Node11&#45;&gt;Node6</title>
<g id="a_edge36_Node000011_Node000006"><a xlink:title=" ">
<path fill="none" stroke="#63b8ff" d="M560.54,-170.38C453.99,-162.64 214.94,-138.32 171.82,-74 158.85,-54.67 182.89,-35.87 204.49,-23.81"/>
<polygon fill="#63b8ff" stroke="#63b8ff" points="206.27,-26.83 213.49,-19.07 203.01,-20.63 206.27,-26.83"/>
</a>
</g>
</g>
<!-- Node11&#45;&gt;Node7 -->
<g id="edge37_Node000011_Node000007" class="edge">
<title>Node11&#45;&gt;Node7</title>
<g id="a_edge37_Node000011_Node000007"><a xlink:title=" ">
<path fill="none" stroke="#63b8ff" d="M663.18,-173.6C785.53,-172.19 1077.29,-158.25 984.82,-55 960.34,-27.67 708.42,-15.34 615.77,-11.7"/>
<polygon fill="#63b8ff" stroke="#63b8ff" points="615.66,-8.2 605.54,-11.31 615.4,-15.19 615.66,-8.2"/>
</a>
</g>
</g>
<!-- Node11&#45;&gt;Node8 -->
<g id="edge38_Node000011_Node000008" class="edge">
<title>Node11&#45;&gt;Node8</title>
<g id="a_edge38_Node000011_Node000008"><a xlink:title=" ">
<path fill="none" stroke="#63b8ff" d="M560.8,-173.41C485.3,-172.06 349.42,-164.6 318.82,-129 286.15,-91 355.17,-117.36 389.82,-74 399.91,-61.37 403.72,-43.18 405.12,-29.5"/>
<polygon fill="#63b8ff" stroke="#63b8ff" points="408.63,-29.51 405.82,-19.3 401.65,-29.04 408.63,-29.51"/>
</a>
</g>
</g>
<!-- Node12 -->
<g id="Node000012" class="node">
<title>Node12</title>
<g id="a_Node000012"><a xlink:title=" ">
<polygon fill="#e0e0e0" stroke="#999999" points="384.32,-129 335.32,-129 335.32,-110 384.32,-110 384.32,-129"/>
<text text-anchor="middle" x="359.82" y="-117" font-family="Helvetica,sans-Serif" font-size="10.00">TFile.h</text>
</a>
</g>
</g>
<!-- Node11&#45;&gt;Node12 -->
<g id="edge12_Node000011_Node000012" class="edge">
<title>Node11&#45;&gt;Node12</title>
<g id="a_edge12_Node000011_Node000012"><a xlink:title=" ">
<path fill="none" stroke="#63b8ff" d="M567.02,-164.95C525.02,-156.8 460.23,-143.89 394.75,-129.13"/>
<polygon fill="#63b8ff" stroke="#63b8ff" points="395.19,-125.64 384.67,-126.85 393.65,-132.47 395.19,-125.64"/>
</a>
</g>
</g>
<!-- Node13 -->
<g id="Node000013" class="node">
<title>Node13</title>
<g id="a_Node000013"><a xlink:title=" ">
<polygon fill="#e0e0e0" stroke="#999999" points="975.82,-74 923.82,-74 923.82,-55 975.82,-55 975.82,-74"/>
<text text-anchor="middle" x="949.82" y="-62" font-family="Helvetica,sans-Serif" font-size="10.00">TTree.h</text>
</a>
</g>
</g>
<!-- Node11&#45;&gt;Node13 -->
<g id="edge13_Node000011_Node000013" class="edge">
<title>Node11&#45;&gt;Node13</title>
<g id="a_edge13_Node000011_Node000013"><a xlink:title=" ">
<path fill="none" stroke="#63b8ff" d="M662.94,-174.35C747.2,-174.55 909.61,-169.51 946.82,-129 957.66,-117.2 957.17,-98.36 954.71,-84.26"/>
<polygon fill="#63b8ff" stroke="#63b8ff" points="958.06,-83.21 952.5,-74.19 951.23,-84.71 958.06,-83.21"/>
</a>
</g>
</g>
<!-- Node14 -->
<g id="Node000014" class="node">
<title>Node14</title>
<g id="a_Node000014"><a xlink:title=" ">
<polygon fill="#e0e0e0" stroke="#999999" points="467.32,-129 402.32,-129 402.32,-110 467.32,-110 467.32,-129"/>
<text text-anchor="middle" x="434.82" y="-117" font-family="Helvetica,sans-Serif" font-size="10.00">TBranch.h</text>
</a>
</g>
</g>
<!-- Node11&#45;&gt;Node14 -->
<g id="edge14_Node000011_Node000014" class="edge">
<title>Node11&#45;&gt;Node14</title>
<g id="a_edge14_Node000011_Node000014"><a xlink:title=" ">
<path fill="none" stroke="#63b8ff" d="M583.38,-164.98C553.53,-156.05 506.43,-141.94 473.28,-132.02"/>
<polygon fill="#63b8ff" stroke="#63b8ff" points="474.06,-128.6 463.48,-129.08 472.05,-135.3 474.06,-128.6"/>
</a>
</g>
</g>
<!-- Node15 -->
<g id="Node000015" class="node">
<title>Node15</title>
<g id="a_Node000015"><a xlink:title=" ">
<polygon fill="#e0e0e0" stroke="#999999" points="537.82,-129 485.82,-129 485.82,-110 537.82,-110 537.82,-129"/>
<text text-anchor="middle" x="511.82" y="-117" font-family="Helvetica,sans-Serif" font-size="10.00">TLeaf.h</text>
</a>
</g>
</g>
<!-- Node11&#45;&gt;Node15 -->
<g id="edge15_Node000011_Node000015" class="edge">
<title>Node11&#45;&gt;Node15</title>
<g id="a_edge15_Node000011_Node000015"><a xlink:title=" ">
<path fill="none" stroke="#63b8ff" d="M595.75,-164.98C579.95,-156.61 555.6,-143.7 537.19,-133.95"/>
<polygon fill="#63b8ff" stroke="#63b8ff" points="538.65,-130.76 528.17,-129.17 535.37,-136.95 538.65,-130.76"/>
</a>
</g>
</g>
<!-- Node16 -->
<g id="Node000016" class="node">
<title>Node16</title>
<g id="a_Node000016"><a xlink:title=" ">
<polygon fill="#e0e0e0" stroke="#999999" points="667.32,-129 556.32,-129 556.32,-110 667.32,-110 667.32,-129"/>
<text text-anchor="middle" x="611.82" y="-117" font-family="Helvetica,sans-Serif" font-size="10.00">TTreeReaderArray.h</text>
</a>
</g>
</g>
<!-- Node11&#45;&gt;Node16 -->
<g id="edge16_Node000011_Node000016" class="edge">
<title>Node11&#45;&gt;Node16</title>
<g id="a_edge16_Node000011_Node000016"><a xlink:title=" ">
<path fill="none" stroke="#63b8ff" d="M611.82,-164.75C611.82,-157.8 611.82,-147.85 611.82,-139.13"/>
<polygon fill="#63b8ff" stroke="#63b8ff" points="615.32,-139.09 611.82,-129.09 608.32,-139.09 615.32,-139.09"/>
</a>
</g>
</g>
<!-- Node17 -->
<g id="Node000017" class="node">
<title>Node17</title>
<g id="a_Node000017"><a xlink:title=" ">
<polygon fill="#e0e0e0" stroke="#999999" points="771.82,-129 685.82,-129 685.82,-110 771.82,-110 771.82,-129"/>
<text text-anchor="middle" x="728.82" y="-117" font-family="Helvetica,sans-Serif" font-size="10.00">TTreeReader.h</text>
</a>
</g>
</g>
<!-- Node11&#45;&gt;Node17 -->
<g id="edge17_Node000011_Node000017" class="edge">
<title>Node11&#45;&gt;Node17</title>
<g id="a_edge17_Node000011_Node000017"><a xlink:title=" ">
<path fill="none" stroke="#63b8ff" d="M630.61,-164.98C649.44,-156.46 678.64,-143.23 700.31,-133.41"/>
<polygon fill="#63b8ff" stroke="#63b8ff" points="702.01,-136.48 709.68,-129.17 699.12,-130.11 702.01,-136.48"/>
</a>
</g>
</g>
<!-- Node18 -->
<g id="Node000018" class="node">
<title>Node18</title>
<g id="a_Node000018"><a xlink:href="vector__cast_8h.html" target="_top" xlink:title=" ">
<polygon fill="white" stroke="#666666" points="937.32,-129 828.32,-129 828.32,-110 937.32,-110 937.32,-129"/>
<text text-anchor="middle" x="882.82" y="-117" font-family="Helvetica,sans-Serif" font-size="10.00">tools/vector_cast.h</text>
</a>
</g>
</g>
<!-- Node11&#45;&gt;Node18 -->
<g id="edge18_Node000011_Node000018" class="edge">
<title>Node11&#45;&gt;Node18</title>
<g id="a_edge18_Node000011_Node000018"><a xlink:title=" ">
<path fill="none" stroke="#63b8ff" d="M655.36,-164.98C702.63,-155.74 778.17,-140.97 829.09,-131.01"/>
<polygon fill="#63b8ff" stroke="#63b8ff" points="829.79,-134.44 838.93,-129.08 828.45,-127.57 829.79,-134.44"/>
</a>
</g>
</g>
<!-- Node20 -->
<g id="Node000020" class="node">
<title>Node20</title>
<g id="a_Node000020"><a xlink:href="structs_2include_2structs_2meta_8h.html" target="_top" xlink:title="Defines metadata structures for physics analysis datasets.">
<polygon fill="white" stroke="#666666" points="627.32,-74 540.32,-74 540.32,-55 627.32,-55 627.32,-74"/>
<text text-anchor="middle" x="583.82" y="-62" font-family="Helvetica,sans-Serif" font-size="10.00">structs/meta.h</text>
</a>
</g>
</g>
<!-- Node11&#45;&gt;Node20 -->
<g id="edge34_Node000011_Node000020" class="edge">
<title>Node11&#45;&gt;Node20</title>
<g id="a_edge34_Node000011_Node000020"><a xlink:title=" ">
<path fill="none" stroke="#63b8ff" d="M662.94,-171.26C724.3,-166.67 814.92,-152.66 780.82,-110 771.8,-98.72 692.8,-83.53 637.63,-74.13"/>
<polygon fill="#63b8ff" stroke="#63b8ff" points="638.07,-70.66 627.63,-72.45 636.91,-77.56 638.07,-70.66"/>
</a>
</g>
</g>
<!-- Node11&#45;&gt;Node21 -->
<g id="edge35_Node000011_Node000021" class="edge">
<title>Node11&#45;&gt;Node21</title>
<g id="a_edge35_Node000011_Node000021"><a xlink:title=" ">
<path fill="none" stroke="#63b8ff" d="M662.91,-171.27C763.18,-166.38 978.03,-153.18 1000.82,-129 1023.39,-105.04 1023.64,-81.27 1003.82,-55 989.86,-36.5 929.39,-23.4 887.97,-16.4"/>
<polygon fill="#63b8ff" stroke="#63b8ff" points="888.32,-12.91 877.89,-14.75 887.19,-19.82 888.32,-12.91"/>
</a>
</g>
</g>
<!-- Node22 -->
<g id="Node000022" class="node">
<title>Node22</title>
<g id="a_Node000022"><a xlink:href="modules_2structs_2include_2structs_2base_8h.html" target="_top" xlink:title="Defines fundamental data structures and type handling for the AnalysisG framework.">
<polygon fill="white" stroke="#666666" points="522.32,-74 437.32,-74 437.32,-55 522.32,-55 522.32,-74"/>
<text text-anchor="middle" x="479.82" y="-62" font-family="Helvetica,sans-Serif" font-size="10.00">structs/base.h</text>
</a>
</g>
</g>
<!-- Node11&#45;&gt;Node22 -->
<g id="edge33_Node000011_Node000022" class="edge">
<title>Node11&#45;&gt;Node22</title>
<g id="a_edge33_Node000011_Node000022"><a xlink:title=" ">
<path fill="none" stroke="#63b8ff" d="M560.66,-173.15C486.91,-171.44 356.33,-163.48 326.82,-129 321.32,-122.58 321.75,-116.75 326.82,-110 339.04,-93.72 387.78,-81.45 427.01,-73.96"/>
<polygon fill="#63b8ff" stroke="#63b8ff" points="427.81,-77.37 437.01,-72.11 426.54,-70.49 427.81,-77.37"/>
</a>
</g>
</g>
<!-- Node18&#45;&gt;Node7 -->
<g id="edge32_Node000018_Node000007" class="edge">
<title>Node18&#45;&gt;Node7</title>
<g id="a_edge32_Node000018_Node000007"><a xlink:title=" ">
<path fill="none" stroke="#63b8ff" d="M828.06,-112.68C785.06,-106.73 724.37,-95.24 674.82,-74 646.25,-61.76 617.29,-40.23 599.45,-25.67"/>
<polygon fill="#63b8ff" stroke="#63b8ff" points="601.56,-22.87 591.64,-19.16 597.08,-28.25 601.56,-22.87"/>
</a>
</g>
</g>
<!-- Node18&#45;&gt;Node13 -->
<g id="edge31_Node000018_Node000013" class="edge">
<title>Node18&#45;&gt;Node13</title>
<g id="a_edge31_Node000018_Node000013"><a xlink:title=" ">
<path fill="none" stroke="#63b8ff" d="M893.58,-109.98C903.58,-102.07 918.7,-90.11 930.75,-80.58"/>
<polygon fill="#63b8ff" stroke="#63b8ff" points="933.18,-83.12 938.86,-74.17 928.84,-77.63 933.18,-83.12"/>
</a>
</g>
</g>
<!-- Node19 -->
<g id="Node000019" class="node">
<title>Node19</title>
<g id="a_Node000019"><a xlink:title=" ">
<polygon fill="#e0e0e0" stroke="#999999" points="809.82,-74 683.82,-74 683.82,-55 809.82,-55 809.82,-74"/>
<text text-anchor="middle" x="746.82" y="-62" font-family="Helvetica,sans-Serif" font-size="10.00">c10/core/DeviceType.h</text>
</a>
</g>
</g>
<!-- Node18&#45;&gt;Node19 -->
<g id="edge19_Node000018_Node000019" class="edge">
<title>Node18&#45;&gt;Node19</title>
<g id="a_edge19_Node000018_Node000019"><a xlink:title=" ">
<path fill="none" stroke="#63b8ff" d="M860.97,-109.98C838.69,-101.3 803.91,-87.75 778.6,-77.88"/>
<polygon fill="#63b8ff" stroke="#63b8ff" points="779.65,-74.54 769.06,-74.17 777.11,-81.06 779.65,-74.54"/>
</a>
</g>
</g>
<!-- Node18&#45;&gt;Node20 -->
<g id="edge20_Node000018_Node000020" class="edge">
<title>Node18&#45;&gt;Node20</title>
<g id="a_edge20_Node000018_Node000020"><a xlink:title=" ">
<path fill="none" stroke="#63b8ff" d="M834.78,-109.98C780.85,-100.43 693.58,-84.96 637.46,-75.01"/>
<polygon fill="#63b8ff" stroke="#63b8ff" points="637.82,-71.52 627.36,-73.22 636.6,-78.41 637.82,-71.52"/>
</a>
</g>
</g>
<!-- Node18&#45;&gt;Node22 -->
<g id="edge25_Node000018_Node000022" class="edge">
<title>Node18&#45;&gt;Node22</title>
<g id="a_edge25_Node000018_Node000022"><a xlink:title=" ">
<path fill="none" stroke="#63b8ff" d="M828.02,-112.17C760.9,-104.28 643.51,-90.03 532.4,-74.04"/>
<polygon fill="#63b8ff" stroke="#63b8ff" points="532.76,-70.55 522.36,-72.58 531.76,-77.48 532.76,-70.55"/>
</a>
</g>
</g>
<!-- Node24 -->
<g id="Node000024" class="node">
<title>Node24</title>
<g id="a_Node000024"><a xlink:title=" ">
<polygon fill="#e0e0e0" stroke="#999999" points="905.82,-74 827.82,-74 827.82,-55 905.82,-55 905.82,-74"/>
<text text-anchor="middle" x="866.82" y="-62" font-family="Helvetica,sans-Serif" font-size="10.00">torch/torch.h</text>
</a>
</g>
</g>
<!-- Node18&#45;&gt;Node24 -->
<g id="edge30_Node000018_Node000024" class="edge">
<title>Node18&#45;&gt;Node24</title>
<g id="a_edge30_Node000018_Node000024"><a xlink:title=" ">
<path fill="none" stroke="#63b8ff" d="M880.17,-109.75C878.05,-102.72 875,-92.62 872.35,-83.84"/>
<polygon fill="#63b8ff" stroke="#63b8ff" points="875.65,-82.65 869.41,-74.09 868.95,-84.67 875.65,-82.65"/>
</a>
</g>
</g>
<!-- Node20&#45;&gt;Node6 -->
<g id="edge22_Node000020_Node000006" class="edge">
<title>Node20&#45;&gt;Node6</title>
<g id="a_edge22_Node000020_Node000006"><a xlink:title=" ">
<path fill="none" stroke="#63b8ff" d="M540.13,-56.31C537.32,-55.86 534.53,-55.42 531.82,-55 434.83,-39.86 319.97,-23.09 265.11,-15.15"/>
<polygon fill="#63b8ff" stroke="#63b8ff" points="265.36,-11.65 254.96,-13.69 264.36,-18.58 265.36,-11.65"/>
</a>
</g>
</g>
<!-- Node20&#45;&gt;Node7 -->
<g id="edge23_Node000020_Node000007" class="edge">
<title>Node20&#45;&gt;Node7</title>
<g id="a_edge23_Node000020_Node000007"><a xlink:title=" ">
<path fill="none" stroke="#63b8ff" d="M583.49,-54.75C583.22,-47.8 582.85,-37.85 582.52,-29.13"/>
<polygon fill="#63b8ff" stroke="#63b8ff" points="586.01,-28.95 582.14,-19.09 579.02,-29.21 586.01,-28.95"/>
</a>
</g>
</g>
<!-- Node20&#45;&gt;Node8 -->
<g id="edge24_Node000020_Node000008" class="edge">
<title>Node20&#45;&gt;Node8</title>
<g id="a_edge24_Node000020_Node000008"><a xlink:title=" ">
<path fill="none" stroke="#63b8ff" d="M555.22,-54.98C522.23,-45.16 468.28,-29.1 435.03,-19.2"/>
<polygon fill="#63b8ff" stroke="#63b8ff" points="435.6,-15.72 425.02,-16.22 433.6,-22.43 435.6,-15.72"/>
</a>
</g>
</g>
<!-- Node20&#45;&gt;Node21 -->
<g id="edge21_Node000020_Node000021" class="edge">
<title>Node20&#45;&gt;Node21</title>
<g id="a_edge21_Node000020_Node000021"><a xlink:title=" ">
<path fill="none" stroke="#63b8ff" d="M626.23,-54.98C676.17,-44.96 758.5,-28.43 807.51,-18.59"/>
<polygon fill="#63b8ff" stroke="#63b8ff" points="808.32,-22 817.44,-16.6 806.94,-15.14 808.32,-22"/>
</a>
</g>
</g>
<!-- Node22&#45;&gt;Node6 -->
<g id="edge26_Node000022_Node000006" class="edge">
<title>Node22&#45;&gt;Node6</title>
<g id="a_edge26_Node000022_Node000006"><a xlink:title=" ">
<path fill="none" stroke="#63b8ff" d="M440.13,-54.98C391.42,-44.53 309.78,-27.01 264.86,-17.38"/>
<polygon fill="#63b8ff" stroke="#63b8ff" points="265.58,-13.95 255.06,-15.27 264.11,-20.79 265.58,-13.95"/>
</a>
</g>
</g>
<!-- Node22&#45;&gt;Node7 -->
<g id="edge27_Node000022_Node000007" class="edge">
<title>Node22&#45;&gt;Node7</title>
<g id="a_edge27_Node000022_Node000007"><a xlink:title=" ">
<path fill="none" stroke="#63b8ff" d="M496.2,-54.98C512.39,-46.57 537.39,-33.59 556.2,-23.81"/>
<polygon fill="#63b8ff" stroke="#63b8ff" points="557.87,-26.89 565.13,-19.17 554.64,-20.68 557.87,-26.89"/>
</a>
</g>
</g>
<!-- Node22&#45;&gt;Node8 -->
<g id="edge28_Node000022_Node000008" class="edge">
<title>Node22&#45;&gt;Node8</title>
<g id="a_edge28_Node000022_Node000008"><a xlink:title=" ">
<path fill="none" stroke="#63b8ff" d="M467.93,-54.98C456.67,-46.92 439.53,-34.65 426.11,-25.03"/>
<polygon fill="#63b8ff" stroke="#63b8ff" points="428.09,-22.15 417.92,-19.17 424.01,-27.84 428.09,-22.15"/>
</a>
</g>
</g>
<!-- Node23 -->
<g id="Node000023" class="node">
<title>Node23</title>
<g id="a_Node000023"><a xlink:href="enums_8h.html" target="_top" xlink:title=" ">
<polygon fill="white" stroke="#666666" points="538.32,-19 443.32,-19 443.32,0 538.32,0 538.32,-19"/>
<text text-anchor="middle" x="490.82" y="-7" font-family="Helvetica,sans-Serif" font-size="10.00">structs/enums.h</text>
</a>
</g>
</g>
<!-- Node22&#45;&gt;Node23 -->
<g id="edge29_Node000022_Node000023" class="edge">
<title>Node22&#45;&gt;Node23</title>
<g id="a_edge29_Node000022_Node000023"><a xlink:title=" ">
<path fill="none" stroke="#63b8ff" d="M481.63,-54.75C483.07,-47.8 485.14,-37.85 486.95,-29.13"/>
<polygon fill="#63b8ff" stroke="#63b8ff" points="490.43,-29.59 489.03,-19.09 483.57,-28.17 490.43,-29.59"/>
</a>
</g>
</g>
<!-- Node25&#45;&gt;Node6 -->
<g id="edge41_Node000025_Node000006" class="edge">
<title>Node25&#45;&gt;Node6</title>
<g id="a_edge41_Node000025_Node000006"><a xlink:title=" ">
<path fill="none" stroke="#63b8ff" d="M324.3,-54.98C306.85,-46.5 279.81,-33.35 259.64,-23.54"/>
<polygon fill="#63b8ff" stroke="#63b8ff" points="261.17,-20.4 250.65,-19.17 258.11,-26.69 261.17,-20.4"/>
</a>
</g>
</g>
<!-- Node25&#45;&gt;Node7 -->
<g id="edge42_Node000025_Node000007" class="edge">
<title>Node25&#45;&gt;Node7</title>
<g id="a_edge42_Node000025_Node000007"><a xlink:title=" ">
<path fill="none" stroke="#63b8ff" d="M380.63,-55.51C422.1,-46.87 489.73,-32.53 547.82,-19 547.92,-18.98 548.02,-18.95 548.13,-18.93"/>
<polygon fill="#63b8ff" stroke="#63b8ff" points="549.15,-22.28 558.06,-16.54 547.52,-15.47 549.15,-22.28"/>
</a>
</g>
</g>
<!-- Node25&#45;&gt;Node8 -->
<g id="edge44_Node000025_Node000008" class="edge">
<title>Node25&#45;&gt;Node8</title>
<g id="a_edge44_Node000025_Node000008"><a xlink:title=" ">
<path fill="none" stroke="#63b8ff" d="M352.1,-54.98C361.65,-47.07 376.1,-35.11 387.6,-25.58"/>
<polygon fill="#63b8ff" stroke="#63b8ff" points="389.88,-28.24 395.35,-19.17 385.41,-22.85 389.88,-28.24"/>
</a>
</g>
</g>
<!-- Node25&#45;&gt;Node21 -->
<g id="edge40_Node000025_Node000021" class="edge">
<title>Node25&#45;&gt;Node21</title>
<g id="a_edge40_Node000025_Node000021"><a xlink:title=" ">
<path fill="none" stroke="#63b8ff" d="M380.68,-59.43C474.48,-49.6 712.5,-24.67 807.63,-14.71"/>
<polygon fill="#63b8ff" stroke="#63b8ff" points="808.13,-18.18 817.71,-13.65 807.4,-11.21 808.13,-18.18"/>
</a>
</g>
</g>
<!-- Node26 -->
<g id="Node000026" class="node">
<title>Node26</title>
<g id="a_Node000026"><a xlink:title=" ">
<polygon fill="#e0e0e0" stroke="#999999" points="366.82,-19 316.82,-19 316.82,0 366.82,0 366.82,-19"/>
<text text-anchor="middle" x="341.82" y="-7" font-family="Helvetica,sans-Serif" font-size="10.00">cstdint</text>
</a>
</g>
</g>
<!-- Node25&#45;&gt;Node26 -->
<g id="edge43_Node000025_Node000026" class="edge">
<title>Node25&#45;&gt;Node26</title>
<g id="a_edge43_Node000025_Node000026"><a xlink:title=" ">
<path fill="none" stroke="#63b8ff" d="M341.82,-54.75C341.82,-47.8 341.82,-37.85 341.82,-29.13"/>
<polygon fill="#63b8ff" stroke="#63b8ff" points="345.32,-29.09 341.82,-19.09 338.32,-29.09 345.32,-29.09"/>
</a>
</g>
</g>
</g>
</svg>
