<?xml version="1.0" encoding="UTF-8" standalone="no"?>
<!DOCTYPE svg PUBLIC "-//W3C//DTD SVG 1.1//EN"
 "http://www.w3.org/Graphics/SVG/1.1/DTD/svg11.dtd">
<!-- Generated by graphviz version 2.43.0 (0)
 -->
<!-- Title: physics.cxx Pages: 1 -->
<svg width="1657pt" height="368pt"
 viewBox="0.00 0.00 1656.57 368.00" xmlns="http://www.w3.org/2000/svg" xmlns:xlink="http://www.w3.org/1999/xlink">
<g id="graph0" class="graph" transform="scale(1 1) rotate(0) translate(4 364)">
<title>physics.cxx</title>
<!-- Node1 -->
<g id="Node000001" class="node">
<title>Node1</title>
<g id="a_Node000001"><a xlink:title=" ">
<polygon fill="#999999" stroke="#666666" points="1451.07,-360 1377.07,-360 1377.07,-341 1451.07,-341 1451.07,-360"/>
<text text-anchor="middle" x="1414.07" y="-348" font-family="Helvetica,sans-Serif" font-size="10.00">physics.cxx</text>
</a>
</g>
</g>
<!-- Node2 -->
<g id="Node000002" class="node">
<title>Node2</title>
<g id="a_Node000002"><a xlink:href="pyc_8h.html" target="_top" xlink:title=" ">
<polygon fill="white" stroke="#666666" points="301.57,-305 238.57,-305 238.57,-286 301.57,-286 301.57,-305"/>
<text text-anchor="middle" x="270.07" y="-293" font-family="Helvetica,sans-Serif" font-size="10.00">pyc/pyc.h</text>
</a>
</g>
</g>
<!-- Node1&#45;&gt;Node2 -->
<g id="edge1_Node000001_Node000002" class="edge">
<title>Node1&#45;&gt;Node2</title>
<g id="a_edge1_Node000001_Node000002"><a xlink:title=" ">
<path fill="none" stroke="#63b8ff" d="M1376.98,-347.78C1205.78,-339.85 492.57,-306.81 311.84,-298.44"/>
<polygon fill="#63b8ff" stroke="#63b8ff" points="311.83,-294.93 301.68,-297.96 311.51,-301.92 311.83,-294.93"/>
</a>
</g>
</g>
<!-- Node31 -->
<g id="Node000031" class="node">
<title>Node31</title>
<g id="a_Node000031"><a xlink:href="utils_8h.html" target="_top" xlink:title="Header file for utility functions.">
<polygon fill="white" stroke="#666666" points="1449.57,-129 1378.57,-129 1378.57,-110 1449.57,-110 1449.57,-129"/>
<text text-anchor="middle" x="1414.07" y="-117" font-family="Helvetica,sans-Serif" font-size="10.00">utils/utils.h</text>
</a>
</g>
</g>
<!-- Node1&#45;&gt;Node31 -->
<g id="edge51_Node000001_Node000031" class="edge">
<title>Node1&#45;&gt;Node31</title>
<g id="a_edge51_Node000001_Node000031"><a xlink:title=" ">
<path fill="none" stroke="#63b8ff" d="M1408.76,-340.68C1403.84,-331.97 1396.88,-318.09 1394.07,-305 1381.21,-245 1398.56,-172.15 1408.28,-138.78"/>
<polygon fill="#63b8ff" stroke="#63b8ff" points="1411.68,-139.64 1411.23,-129.06 1404.98,-137.61 1411.68,-139.64"/>
</a>
</g>
</g>
<!-- Node32 -->
<g id="Node000032" class="node">
<title>Node32</title>
<g id="a_Node000032"><a xlink:href="physics_8h.html" target="_top" xlink:title="Provides physics&#45;related functions for C++ operations.">
<polygon fill="white" stroke="#666666" points="1505.07,-305 1403.07,-305 1403.07,-286 1505.07,-286 1505.07,-305"/>
<text text-anchor="middle" x="1454.07" y="-293" font-family="Helvetica,sans-Serif" font-size="10.00">physics/physics.h</text>
</a>
</g>
</g>
<!-- Node1&#45;&gt;Node32 -->
<g id="edge54_Node000001_Node000032" class="edge">
<title>Node1&#45;&gt;Node32</title>
<g id="a_edge54_Node000001_Node000032"><a xlink:title=" ">
<path fill="none" stroke="#63b8ff" d="M1420.68,-340.75C1426.33,-333.26 1434.62,-322.28 1441.52,-313.13"/>
<polygon fill="#63b8ff" stroke="#63b8ff" points="1444.36,-315.18 1447.59,-305.09 1438.77,-310.96 1444.36,-315.18"/>
</a>
</g>
</g>
<!-- Node33 -->
<g id="Node000033" class="node">
<title>Node33</title>
<g id="a_Node000033"><a xlink:href="transform_8h.html" target="_top" xlink:title="Provides transformation functions for momentum calculations in C++.">
<polygon fill="white" stroke="#666666" points="1648.57,-305 1523.57,-305 1523.57,-286 1648.57,-286 1648.57,-305"/>
<text text-anchor="middle" x="1586.07" y="-293" font-family="Helvetica,sans-Serif" font-size="10.00">transform/transform.h</text>
</a>
</g>
</g>
<!-- Node1&#45;&gt;Node33 -->
<g id="edge56_Node000001_Node000033" class="edge">
<title>Node1&#45;&gt;Node33</title>
<g id="a_edge56_Node000001_Node000033"><a xlink:title=" ">
<path fill="none" stroke="#63b8ff" d="M1441.71,-340.98C1470.58,-332.09 1516.08,-318.07 1548.28,-308.15"/>
<polygon fill="#63b8ff" stroke="#63b8ff" points="1549.7,-311.37 1558.22,-305.08 1547.63,-304.68 1549.7,-311.37"/>
</a>
</g>
</g>
<!-- Node3 -->
<g id="Node000003" class="node">
<title>Node3</title>
<g id="a_Node000003"><a xlink:title=" ">
<polygon fill="#e0e0e0" stroke="#999999" points="167.57,-244.5 126.57,-244.5 126.57,-225.5 167.57,-225.5 167.57,-244.5"/>
<text text-anchor="middle" x="147.07" y="-232.5" font-family="Helvetica,sans-Serif" font-size="10.00">tuple</text>
</a>
</g>
</g>
<!-- Node2&#45;&gt;Node3 -->
<g id="edge2_Node000002_Node000003" class="edge">
<title>Node2&#45;&gt;Node3</title>
<g id="a_edge2_Node000002_Node000003"><a xlink:title=" ">
<path fill="none" stroke="#63b8ff" d="M251.68,-285.84C232.72,-276.91 202.3,-262.54 176.07,-250 175.39,-249.67 174.7,-249.34 174.01,-249.01"/>
<polygon fill="#63b8ff" stroke="#63b8ff" points="175.38,-245.79 164.85,-244.61 172.35,-252.1 175.38,-245.79"/>
</a>
</g>
</g>
<!-- Node4 -->
<g id="Node000004" class="node">
<title>Node4</title>
<g id="a_Node000004"><a xlink:title=" ">
<polygon fill="#e0e0e0" stroke="#999999" points="250.57,-244.5 185.57,-244.5 185.57,-225.5 250.57,-225.5 250.57,-244.5"/>
<text text-anchor="middle" x="218.07" y="-232.5" font-family="Helvetica,sans-Serif" font-size="10.00">torch/all.h</text>
</a>
</g>
</g>
<!-- Node2&#45;&gt;Node4 -->
<g id="edge3_Node000002_Node000004" class="edge">
<title>Node2&#45;&gt;Node4</title>
<g id="a_edge3_Node000002_Node000004"><a xlink:title=" ">
<path fill="none" stroke="#63b8ff" d="M262.4,-285.87C254.57,-277.05 242.21,-263.16 232.54,-252.27"/>
<polygon fill="#63b8ff" stroke="#63b8ff" points="235.04,-249.82 225.78,-244.67 229.8,-254.47 235.04,-249.82"/>
</a>
</g>
</g>
<!-- Node5 -->
<g id="Node000005" class="node">
<title>Node5</title>
<g id="a_Node000005"><a xlink:href="particle__template_8h.html" target="_top" xlink:title="Defines the particle_template base class for physics particle representations.">
<polygon fill="white" stroke="#666666" points="375.07,-250 269.07,-250 269.07,-220 375.07,-220 375.07,-250"/>
<text text-anchor="start" x="277.07" y="-238" font-family="Helvetica,sans-Serif" font-size="10.00">templates/particle</text>
<text text-anchor="middle" x="322.07" y="-227" font-family="Helvetica,sans-Serif" font-size="10.00">_template.h</text>
</a>
</g>
</g>
<!-- Node2&#45;&gt;Node5 -->
<g id="edge4_Node000002_Node000005" class="edge">
<title>Node2&#45;&gt;Node5</title>
<g id="a_edge4_Node000002_Node000005"><a xlink:title=" ">
<path fill="none" stroke="#63b8ff" d="M277.75,-285.87C284.34,-278.44 294.15,-267.42 302.86,-257.62"/>
<polygon fill="#63b8ff" stroke="#63b8ff" points="305.5,-259.91 309.53,-250.11 300.27,-255.26 305.5,-259.91"/>
</a>
</g>
</g>
<!-- Node6 -->
<g id="Node000006" class="node">
<title>Node6</title>
<g id="a_Node000006"><a xlink:href="modules_2structs_2include_2structs_2particles_8h.html" target="_top" xlink:title=" ">
<polygon fill="white" stroke="#666666" points="712.07,-74 608.07,-74 608.07,-55 712.07,-55 712.07,-74"/>
<text text-anchor="middle" x="660.07" y="-62" font-family="Helvetica,sans-Serif" font-size="10.00">structs/particles.h</text>
</a>
</g>
</g>
<!-- Node5&#45;&gt;Node6 -->
<g id="edge5_Node000005_Node000006" class="edge">
<title>Node5&#45;&gt;Node6</title>
<g id="a_edge5_Node000005_Node000006"><a xlink:title=" ">
<path fill="none" stroke="#63b8ff" d="M350.31,-219.92C414.62,-187.86 571.23,-109.79 633.71,-78.64"/>
<polygon fill="#63b8ff" stroke="#63b8ff" points="635.51,-81.66 642.9,-74.06 632.39,-75.39 635.51,-81.66"/>
</a>
</g>
</g>
<!-- Node7 -->
<g id="Node000007" class="node">
<title>Node7</title>
<g id="a_Node000007"><a xlink:title=" ">
<polygon fill="#e0e0e0" stroke="#999999" points="498.07,-19 454.07,-19 454.07,0 498.07,0 498.07,-19"/>
<text text-anchor="middle" x="476.07" y="-7" font-family="Helvetica,sans-Serif" font-size="10.00">string</text>
</a>
</g>
</g>
<!-- Node5&#45;&gt;Node7 -->
<g id="edge48_Node000005_Node000007" class="edge">
<title>Node5&#45;&gt;Node7</title>
<g id="a_edge48_Node000005_Node000007"><a xlink:title=" ">
<path fill="none" stroke="#63b8ff" d="M268.83,-222.02C265.53,-221.32 262.26,-220.64 259.07,-220 215.24,-211.15 89.73,-218.33 61.07,-184 45.81,-165.72 59.23,-128.46 79.07,-110 199.42,1.92 279.72,-58.9 443.83,-19.19"/>
<polygon fill="#63b8ff" stroke="#63b8ff" points="444.9,-22.53 453.74,-16.69 443.19,-15.74 444.9,-22.53"/>
</a>
</g>
</g>
<!-- Node10 -->
<g id="Node000010" class="node">
<title>Node10</title>
<g id="a_Node000010"><a xlink:href="property_8h.html" target="_top" xlink:title="Defines the cproperty template class for property&#45;based access patterns.">
<polygon fill="white" stroke="#666666" points="171.57,-184 70.57,-184 70.57,-165 171.57,-165 171.57,-184"/>
<text text-anchor="middle" x="121.07" y="-172" font-family="Helvetica,sans-Serif" font-size="10.00">structs/property.h</text>
</a>
</g>
</g>
<!-- Node5&#45;&gt;Node10 -->
<g id="edge9_Node000005_Node000010" class="edge">
<title>Node5&#45;&gt;Node10</title>
<g id="a_edge9_Node000005_Node000010"><a xlink:title=" ">
<path fill="none" stroke="#63b8ff" d="M273.93,-219.99C239.09,-209.85 192.61,-196.32 160.08,-186.85"/>
<polygon fill="#63b8ff" stroke="#63b8ff" points="161.04,-183.49 150.46,-184.05 159.09,-190.21 161.04,-183.49"/>
</a>
</g>
</g>
<!-- Node12 -->
<g id="Node000012" class="node">
<title>Node12</title>
<g id="a_Node000012"><a xlink:href="element_8h.html" target="_top" xlink:title=" ">
<polygon fill="white" stroke="#666666" points="875.07,-184 773.07,-184 773.07,-165 875.07,-165 875.07,-184"/>
<text text-anchor="middle" x="824.07" y="-172" font-family="Helvetica,sans-Serif" font-size="10.00">structs/element.h</text>
</a>
</g>
</g>
<!-- Node5&#45;&gt;Node12 -->
<g id="edge12_Node000005_Node000012" class="edge">
<title>Node5&#45;&gt;Node12</title>
<g id="a_edge12_Node000005_Node000012"><a xlink:title=" ">
<path fill="none" stroke="#63b8ff" d="M375.32,-227.79C469.15,-216.86 663.38,-194.23 762.69,-182.65"/>
<polygon fill="#63b8ff" stroke="#63b8ff" points="763.34,-186.1 772.87,-181.47 762.53,-179.15 763.34,-186.1"/>
</a>
</g>
</g>
<!-- Node22 -->
<g id="Node000022" class="node">
<title>Node22</title>
<g id="a_Node000022"><a xlink:title=" ">
<polygon fill="#e0e0e0" stroke="#999999" points="368.07,-19 308.07,-19 308.07,0 368.07,0 368.07,-19"/>
<text text-anchor="middle" x="338.07" y="-7" font-family="Helvetica,sans-Serif" font-size="10.00">iostream</text>
</a>
</g>
</g>
<!-- Node5&#45;&gt;Node22 -->
<g id="edge46_Node000005_Node000022" class="edge">
<title>Node5&#45;&gt;Node22</title>
<g id="a_edge46_Node000005_Node000022"><a xlink:title=" ">
<path fill="none" stroke="#63b8ff" d="M268.85,-221.92C265.54,-221.25 262.27,-220.6 259.07,-220 208.02,-210.36 61.86,-223.46 28.07,-184 -9.22,-140.45 -9.48,-98.33 28.07,-55 62.51,-15.27 221.85,-10.17 297.71,-10.05"/>
<polygon fill="#63b8ff" stroke="#63b8ff" points="297.83,-13.55 307.84,-10.07 297.84,-6.55 297.83,-13.55"/>
</a>
</g>
</g>
<!-- Node26 -->
<g id="Node000026" class="node">
<title>Node26</title>
<g id="a_Node000026"><a xlink:href="tools_8h.html" target="_top" xlink:title="Defines the tools class that provides general utility functions for the AnalysisG framework.">
<polygon fill="white" stroke="#666666" points="445.57,-74 368.57,-74 368.57,-55 445.57,-55 445.57,-74"/>
<text text-anchor="middle" x="407.07" y="-62" font-family="Helvetica,sans-Serif" font-size="10.00">tools/tools.h</text>
</a>
</g>
</g>
<!-- Node5&#45;&gt;Node26 -->
<g id="edge40_Node000005_Node000026" class="edge">
<title>Node5&#45;&gt;Node26</title>
<g id="a_edge40_Node000005_Node000026"><a xlink:title=" ">
<path fill="none" stroke="#63b8ff" d="M348.84,-219.9C362.44,-211.34 377.98,-199.13 387.07,-184 405.81,-152.82 408.3,-109.13 407.99,-84.45"/>
<polygon fill="#63b8ff" stroke="#63b8ff" points="411.48,-84.16 407.68,-74.27 404.48,-84.37 411.48,-84.16"/>
</a>
</g>
</g>
<!-- Node28 -->
<g id="Node000028" class="node">
<title>Node28</title>
<g id="a_Node000028"><a xlink:title=" ">
<polygon fill="#e0e0e0" stroke="#999999" points="246.07,-184 190.07,-184 190.07,-165 246.07,-165 246.07,-184"/>
<text text-anchor="middle" x="218.07" y="-172" font-family="Helvetica,sans-Serif" font-size="10.00">sstream</text>
</a>
</g>
</g>
<!-- Node5&#45;&gt;Node28 -->
<g id="edge47_Node000005_Node000028" class="edge">
<title>Node5&#45;&gt;Node28</title>
<g id="a_edge47_Node000005_Node000028"><a xlink:title=" ">
<path fill="none" stroke="#63b8ff" d="M297.16,-219.99C280.59,-210.66 258.91,-198.47 242.45,-189.21"/>
<polygon fill="#63b8ff" stroke="#63b8ff" points="243.86,-185.99 233.43,-184.14 240.43,-192.09 243.86,-185.99"/>
</a>
</g>
</g>
<!-- Node29 -->
<g id="Node000029" class="node">
<title>Node29</title>
<g id="a_Node000029"><a xlink:title=" ">
<polygon fill="#e0e0e0" stroke="#999999" points="313.57,-184 264.57,-184 264.57,-165 313.57,-165 313.57,-184"/>
<text text-anchor="middle" x="289.07" y="-172" font-family="Helvetica,sans-Serif" font-size="10.00">cstdlib</text>
</a>
</g>
</g>
<!-- Node5&#45;&gt;Node29 -->
<g id="edge49_Node000005_Node000029" class="edge">
<title>Node5&#45;&gt;Node29</title>
<g id="a_edge49_Node000005_Node000029"><a xlink:title=" ">
<path fill="none" stroke="#63b8ff" d="M314.08,-219.84C309.54,-211.78 303.81,-201.62 298.98,-193.06"/>
<polygon fill="#63b8ff" stroke="#63b8ff" points="301.98,-191.26 294.02,-184.27 295.88,-194.7 301.98,-191.26"/>
</a>
</g>
</g>
<!-- Node30 -->
<g id="Node000030" class="node">
<title>Node30</title>
<g id="a_Node000030"><a xlink:title=" ">
<polygon fill="#e0e0e0" stroke="#999999" points="378.57,-184 331.57,-184 331.57,-165 378.57,-165 378.57,-184"/>
<text text-anchor="middle" x="355.07" y="-172" font-family="Helvetica,sans-Serif" font-size="10.00">cmath</text>
</a>
</g>
</g>
<!-- Node5&#45;&gt;Node30 -->
<g id="edge50_Node000005_Node000030" class="edge">
<title>Node5&#45;&gt;Node30</title>
<g id="a_edge50_Node000005_Node000030"><a xlink:title=" ">
<path fill="none" stroke="#63b8ff" d="M330.06,-219.84C334.61,-211.78 340.34,-201.62 345.17,-193.06"/>
<polygon fill="#63b8ff" stroke="#63b8ff" points="348.26,-194.7 350.13,-184.27 342.17,-191.26 348.26,-194.7"/>
</a>
</g>
</g>
<!-- Node6&#45;&gt;Node7 -->
<g id="edge6_Node000006_Node000007" class="edge">
<title>Node6&#45;&gt;Node7</title>
<g id="a_edge6_Node000006_Node000007"><a xlink:title=" ">
<path fill="none" stroke="#63b8ff" d="M630.51,-54.98C597.09,-45.36 542.86,-29.74 508.36,-19.8"/>
<polygon fill="#63b8ff" stroke="#63b8ff" points="508.91,-16.32 498.33,-16.91 506.97,-23.04 508.91,-16.32"/>
</a>
</g>
</g>
<!-- Node8 -->
<g id="Node000008" class="node">
<title>Node8</title>
<g id="a_Node000008"><a xlink:title=" ">
<polygon fill="#e0e0e0" stroke="#999999" points="1003.57,-19 956.57,-19 956.57,0 1003.57,0 1003.57,-19"/>
<text text-anchor="middle" x="980.07" y="-7" font-family="Helvetica,sans-Serif" font-size="10.00">vector</text>
</a>
</g>
</g>
<!-- Node6&#45;&gt;Node8 -->
<g id="edge7_Node000006_Node000008" class="edge">
<title>Node6&#45;&gt;Node8</title>
<g id="a_edge7_Node000006_Node000008"><a xlink:title=" ">
<path fill="none" stroke="#63b8ff" d="M711.49,-54.98C777.54,-44.04 890.36,-25.36 946.41,-16.08"/>
<polygon fill="#63b8ff" stroke="#63b8ff" points="947.22,-19.49 956.51,-14.4 946.08,-12.58 947.22,-19.49"/>
</a>
</g>
</g>
<!-- Node9 -->
<g id="Node000009" class="node">
<title>Node9</title>
<g id="a_Node000009"><a xlink:title=" ">
<polygon fill="#e0e0e0" stroke="#999999" points="679.07,-19 641.07,-19 641.07,0 679.07,0 679.07,-19"/>
<text text-anchor="middle" x="660.07" y="-7" font-family="Helvetica,sans-Serif" font-size="10.00">map</text>
</a>
</g>
</g>
<!-- Node6&#45;&gt;Node9 -->
<g id="edge8_Node000006_Node000009" class="edge">
<title>Node6&#45;&gt;Node9</title>
<g id="a_edge8_Node000006_Node000009"><a xlink:title=" ">
<path fill="none" stroke="#63b8ff" d="M660.07,-54.75C660.07,-47.8 660.07,-37.85 660.07,-29.13"/>
<polygon fill="#63b8ff" stroke="#63b8ff" points="663.57,-29.09 660.07,-19.09 656.57,-29.09 663.57,-29.09"/>
</a>
</g>
</g>
<!-- Node10&#45;&gt;Node7 -->
<g id="edge11_Node000010_Node000007" class="edge">
<title>Node10&#45;&gt;Node7</title>
<g id="a_edge11_Node000010_Node000007"><a xlink:title=" ">
<path fill="none" stroke="#63b8ff" d="M136.97,-164.9C174.86,-144.56 273.66,-92.4 359.07,-55 387.47,-42.57 420.54,-30.18 444.26,-21.64"/>
<polygon fill="#63b8ff" stroke="#63b8ff" points="445.58,-24.89 453.82,-18.23 443.22,-18.29 445.58,-24.89"/>
</a>
</g>
</g>
<!-- Node11 -->
<g id="Node000011" class="node">
<title>Node11</title>
<g id="a_Node000011"><a xlink:title=" ">
<polygon fill="#e0e0e0" stroke="#999999" points="153.57,-129 88.57,-129 88.57,-110 153.57,-110 153.57,-129"/>
<text text-anchor="middle" x="121.07" y="-117" font-family="Helvetica,sans-Serif" font-size="10.00">functional</text>
</a>
</g>
</g>
<!-- Node10&#45;&gt;Node11 -->
<g id="edge10_Node000010_Node000011" class="edge">
<title>Node10&#45;&gt;Node11</title>
<g id="a_edge10_Node000010_Node000011"><a xlink:title=" ">
<path fill="none" stroke="#63b8ff" d="M121.07,-164.75C121.07,-157.8 121.07,-147.85 121.07,-139.13"/>
<polygon fill="#63b8ff" stroke="#63b8ff" points="124.57,-139.09 121.07,-129.09 117.57,-139.09 124.57,-139.09"/>
</a>
</g>
</g>
<!-- Node12&#45;&gt;Node7 -->
<g id="edge37_Node000012_Node000007" class="edge">
<title>Node12&#45;&gt;Node7</title>
<g id="a_edge37_Node000012_Node000007"><a xlink:title=" ">
<path fill="none" stroke="#63b8ff" d="M772.84,-167C727.6,-160.35 660.3,-148.25 604.07,-129 551.98,-111.17 527.96,-116.6 493.07,-74 482.79,-61.45 478.69,-43.25 477.07,-29.55"/>
<polygon fill="#63b8ff" stroke="#63b8ff" points="480.54,-29 476.21,-19.32 473.56,-29.58 480.54,-29"/>
</a>
</g>
</g>
<!-- Node12&#45;&gt;Node8 -->
<g id="edge38_Node000012_Node000008" class="edge">
<title>Node12&#45;&gt;Node8</title>
<g id="a_edge38_Node000012_Node000008"><a xlink:title=" ">
<path fill="none" stroke="#63b8ff" d="M875.09,-172.63C993.89,-170.09 1281.16,-160.68 1310.07,-129 1315.77,-122.76 1315.11,-116.78 1310.07,-110 1300.95,-97.72 1095.81,-41.56 1013.65,-19.47"/>
<polygon fill="#63b8ff" stroke="#63b8ff" points="1014.38,-16.04 1003.81,-16.83 1012.56,-22.8 1014.38,-16.04"/>
</a>
</g>
</g>
<!-- Node12&#45;&gt;Node9 -->
<g id="edge39_Node000012_Node000009" class="edge">
<title>Node12&#45;&gt;Node9</title>
<g id="a_edge39_Node000012_Node000009"><a xlink:title=" ">
<path fill="none" stroke="#63b8ff" d="M772.79,-168.23C747.37,-162.73 718.83,-151.58 703.07,-129 683.71,-101.24 736.41,-85.17 721.07,-55 714.05,-41.18 700.49,-30.63 687.94,-23.28"/>
<polygon fill="#63b8ff" stroke="#63b8ff" points="689.54,-20.17 679.08,-18.49 686.21,-26.32 689.54,-20.17"/>
</a>
</g>
</g>
<!-- Node13 -->
<g id="Node000013" class="node">
<title>Node13</title>
<g id="a_Node000013"><a xlink:title=" ">
<polygon fill="#e0e0e0" stroke="#999999" points="896.57,-129 847.57,-129 847.57,-110 896.57,-110 896.57,-129"/>
<text text-anchor="middle" x="872.07" y="-117" font-family="Helvetica,sans-Serif" font-size="10.00">TFile.h</text>
</a>
</g>
</g>
<!-- Node12&#45;&gt;Node13 -->
<g id="edge13_Node000012_Node000013" class="edge">
<title>Node12&#45;&gt;Node13</title>
<g id="a_edge13_Node000012_Node000013"><a xlink:title=" ">
<path fill="none" stroke="#63b8ff" d="M832,-164.75C838.92,-157.11 849.14,-145.82 857.52,-136.56"/>
<polygon fill="#63b8ff" stroke="#63b8ff" points="860.18,-138.85 864.29,-129.09 854.99,-134.15 860.18,-138.85"/>
</a>
</g>
</g>
<!-- Node14 -->
<g id="Node000014" class="node">
<title>Node14</title>
<g id="a_Node000014"><a xlink:title=" ">
<polygon fill="#e0e0e0" stroke="#999999" points="820.07,-74 768.07,-74 768.07,-55 820.07,-55 820.07,-74"/>
<text text-anchor="middle" x="794.07" y="-62" font-family="Helvetica,sans-Serif" font-size="10.00">TTree.h</text>
</a>
</g>
</g>
<!-- Node12&#45;&gt;Node14 -->
<g id="edge14_Node000012_Node000014" class="edge">
<title>Node12&#45;&gt;Node14</title>
<g id="a_edge14_Node000012_Node000014"><a xlink:title=" ">
<path fill="none" stroke="#63b8ff" d="M772.88,-166.5C749.97,-160.53 725.02,-149.48 711.07,-129 695.2,-105.69 729.2,-87.28 758.36,-76.41"/>
<polygon fill="#63b8ff" stroke="#63b8ff" points="759.72,-79.64 767.98,-73.02 757.39,-73.04 759.72,-79.64"/>
</a>
</g>
</g>
<!-- Node15 -->
<g id="Node000015" class="node">
<title>Node15</title>
<g id="a_Node000015"><a xlink:title=" ">
<polygon fill="#e0e0e0" stroke="#999999" points="979.57,-129 914.57,-129 914.57,-110 979.57,-110 979.57,-129"/>
<text text-anchor="middle" x="947.07" y="-117" font-family="Helvetica,sans-Serif" font-size="10.00">TBranch.h</text>
</a>
</g>
</g>
<!-- Node12&#45;&gt;Node15 -->
<g id="edge15_Node000012_Node000015" class="edge">
<title>Node12&#45;&gt;Node15</title>
<g id="a_edge15_Node000012_Node000015"><a xlink:title=" ">
<path fill="none" stroke="#63b8ff" d="M843.83,-164.98C863.8,-156.38 894.88,-142.99 917.72,-133.15"/>
<polygon fill="#63b8ff" stroke="#63b8ff" points="919.15,-136.34 926.95,-129.17 916.38,-129.91 919.15,-136.34"/>
</a>
</g>
</g>
<!-- Node16 -->
<g id="Node000016" class="node">
<title>Node16</title>
<g id="a_Node000016"><a xlink:title=" ">
<polygon fill="#e0e0e0" stroke="#999999" points="1050.07,-129 998.07,-129 998.07,-110 1050.07,-110 1050.07,-129"/>
<text text-anchor="middle" x="1024.07" y="-117" font-family="Helvetica,sans-Serif" font-size="10.00">TLeaf.h</text>
</a>
</g>
</g>
<!-- Node12&#45;&gt;Node16 -->
<g id="edge16_Node000012_Node000016" class="edge">
<title>Node12&#45;&gt;Node16</title>
<g id="a_edge16_Node000012_Node000016"><a xlink:title=" ">
<path fill="none" stroke="#63b8ff" d="M856.21,-164.98C892.24,-155.44 950.53,-139.99 988.07,-130.04"/>
<polygon fill="#63b8ff" stroke="#63b8ff" points="989.3,-133.34 998.07,-127.39 987.51,-126.57 989.3,-133.34"/>
</a>
</g>
</g>
<!-- Node17 -->
<g id="Node000017" class="node">
<title>Node17</title>
<g id="a_Node000017"><a xlink:title=" ">
<polygon fill="#e0e0e0" stroke="#999999" points="1179.57,-129 1068.57,-129 1068.57,-110 1179.57,-110 1179.57,-129"/>
<text text-anchor="middle" x="1124.07" y="-117" font-family="Helvetica,sans-Serif" font-size="10.00">TTreeReaderArray.h</text>
</a>
</g>
</g>
<!-- Node12&#45;&gt;Node17 -->
<g id="edge17_Node000012_Node000017" class="edge">
<title>Node12&#45;&gt;Node17</title>
<g id="a_edge17_Node000012_Node000017"><a xlink:title=" ">
<path fill="none" stroke="#63b8ff" d="M872.27,-164.98C924.82,-155.7 1008.93,-140.84 1065.3,-130.88"/>
<polygon fill="#63b8ff" stroke="#63b8ff" points="1066.26,-134.27 1075.49,-129.08 1065.04,-127.38 1066.26,-134.27"/>
</a>
</g>
</g>
<!-- Node18 -->
<g id="Node000018" class="node">
<title>Node18</title>
<g id="a_Node000018"><a xlink:title=" ">
<polygon fill="#e0e0e0" stroke="#999999" points="1284.07,-129 1198.07,-129 1198.07,-110 1284.07,-110 1284.07,-129"/>
<text text-anchor="middle" x="1241.07" y="-117" font-family="Helvetica,sans-Serif" font-size="10.00">TTreeReader.h</text>
</a>
</g>
</g>
<!-- Node12&#45;&gt;Node18 -->
<g id="edge18_Node000012_Node000018" class="edge">
<title>Node12&#45;&gt;Node18</title>
<g id="a_edge18_Node000012_Node000018"><a xlink:title=" ">
<path fill="none" stroke="#63b8ff" d="M875.09,-167.87C945.57,-159.96 1076.65,-144.74 1188.07,-129 1188.17,-128.99 1188.27,-128.97 1188.38,-128.96"/>
<polygon fill="#63b8ff" stroke="#63b8ff" points="1188.61,-132.46 1197.99,-127.55 1187.59,-125.53 1188.61,-132.46"/>
</a>
</g>
</g>
<!-- Node19 -->
<g id="Node000019" class="node">
<title>Node19</title>
<g id="a_Node000019"><a xlink:href="vector__cast_8h.html" target="_top" xlink:title=" ">
<polygon fill="white" stroke="#666666" points="829.57,-129 720.57,-129 720.57,-110 829.57,-110 829.57,-129"/>
<text text-anchor="middle" x="775.07" y="-117" font-family="Helvetica,sans-Serif" font-size="10.00">tools/vector_cast.h</text>
</a>
</g>
</g>
<!-- Node12&#45;&gt;Node19 -->
<g id="edge19_Node000012_Node000019" class="edge">
<title>Node12&#45;&gt;Node19</title>
<g id="a_edge19_Node000012_Node000019"><a xlink:title=" ">
<path fill="none" stroke="#63b8ff" d="M815.98,-164.75C808.92,-157.11 798.49,-145.82 789.92,-136.56"/>
<polygon fill="#63b8ff" stroke="#63b8ff" points="792.37,-134.06 783.01,-129.09 787.23,-138.81 792.37,-134.06"/>
</a>
</g>
</g>
<!-- Node21 -->
<g id="Node000021" class="node">
<title>Node21</title>
<g id="a_Node000021"><a xlink:href="structs_2include_2structs_2meta_8h.html" target="_top" xlink:title="Defines metadata structures for physics analysis datasets.">
<polygon fill="white" stroke="#666666" points="589.57,-74 502.57,-74 502.57,-55 589.57,-55 589.57,-74"/>
<text text-anchor="middle" x="546.07" y="-62" font-family="Helvetica,sans-Serif" font-size="10.00">structs/meta.h</text>
</a>
</g>
</g>
<!-- Node12&#45;&gt;Node21 -->
<g id="edge35_Node000012_Node000021" class="edge">
<title>Node12&#45;&gt;Node21</title>
<g id="a_edge35_Node000012_Node000021"><a xlink:title=" ">
<path fill="none" stroke="#63b8ff" d="M772.9,-166.17C735.08,-159.56 682.92,-147.91 640.07,-129 611.43,-116.36 582.11,-94.93 564,-80.5"/>
<polygon fill="#63b8ff" stroke="#63b8ff" points="566.03,-77.64 556.06,-74.05 561.62,-83.07 566.03,-77.64"/>
</a>
</g>
</g>
<!-- Node12&#45;&gt;Node22 -->
<g id="edge36_Node000012_Node000022" class="edge">
<title>Node12&#45;&gt;Node22</title>
<g id="a_edge36_Node000012_Node000022"><a xlink:title=" ">
<path fill="none" stroke="#63b8ff" d="M772.68,-169.34C664.3,-159.52 417.51,-131.29 359.07,-74 347.04,-62.2 341.9,-43.36 339.7,-29.26"/>
<polygon fill="#63b8ff" stroke="#63b8ff" points="343.16,-28.71 338.5,-19.19 336.21,-29.54 343.16,-28.71"/>
</a>
</g>
</g>
<!-- Node23 -->
<g id="Node000023" class="node">
<title>Node23</title>
<g id="a_Node000023"><a xlink:href="modules_2structs_2include_2structs_2base_8h.html" target="_top" xlink:title="Defines fundamental data structures and type handling for the AnalysisG framework.">
<polygon fill="white" stroke="#666666" points="1067.57,-74 982.57,-74 982.57,-55 1067.57,-55 1067.57,-74"/>
<text text-anchor="middle" x="1025.07" y="-62" font-family="Helvetica,sans-Serif" font-size="10.00">structs/base.h</text>
</a>
</g>
</g>
<!-- Node12&#45;&gt;Node23 -->
<g id="edge34_Node000012_Node000023" class="edge">
<title>Node12&#45;&gt;Node23</title>
<g id="a_edge34_Node000012_Node000023"><a xlink:title=" ">
<path fill="none" stroke="#63b8ff" d="M875.45,-172.44C991.38,-169.52 1265.38,-159.44 1293.07,-129 1298.76,-122.75 1298.53,-116.44 1293.07,-110 1266.06,-78.13 1148.09,-69.06 1077.99,-66.49"/>
<polygon fill="#63b8ff" stroke="#63b8ff" points="1077.7,-62.98 1067.59,-66.15 1077.47,-69.98 1077.7,-62.98"/>
</a>
</g>
</g>
<!-- Node19&#45;&gt;Node8 -->
<g id="edge33_Node000019_Node000008" class="edge">
<title>Node19&#45;&gt;Node8</title>
<g id="a_edge33_Node000019_Node000008"><a xlink:title=" ">
<path fill="none" stroke="#63b8ff" d="M829.83,-110.86C916.08,-98.76 1074.07,-76.32 1076.07,-74 1081.59,-67.61 1080.62,-62.12 1076.07,-55 1068.78,-43.59 1038.05,-30.56 1013.29,-21.56"/>
<polygon fill="#63b8ff" stroke="#63b8ff" points="1014.42,-18.25 1003.82,-18.21 1012.08,-24.85 1014.42,-18.25"/>
</a>
</g>
</g>
<!-- Node19&#45;&gt;Node14 -->
<g id="edge32_Node000019_Node000014" class="edge">
<title>Node19&#45;&gt;Node14</title>
<g id="a_edge32_Node000019_Node000014"><a xlink:title=" ">
<path fill="none" stroke="#63b8ff" d="M778.21,-109.75C780.76,-102.65 784.43,-92.4 787.6,-83.56"/>
<polygon fill="#63b8ff" stroke="#63b8ff" points="790.91,-84.68 790.99,-74.09 784.32,-82.32 790.91,-84.68"/>
</a>
</g>
</g>
<!-- Node20 -->
<g id="Node000020" class="node">
<title>Node20</title>
<g id="a_Node000020"><a xlink:title=" ">
<polygon fill="#e0e0e0" stroke="#999999" points="964.07,-74 838.07,-74 838.07,-55 964.07,-55 964.07,-74"/>
<text text-anchor="middle" x="901.07" y="-62" font-family="Helvetica,sans-Serif" font-size="10.00">c10/core/DeviceType.h</text>
</a>
</g>
</g>
<!-- Node19&#45;&gt;Node20 -->
<g id="edge20_Node000019_Node000020" class="edge">
<title>Node19&#45;&gt;Node20</title>
<g id="a_edge20_Node000019_Node000020"><a xlink:title=" ">
<path fill="none" stroke="#63b8ff" d="M795.32,-109.98C815.77,-101.38 847.6,-87.99 871.01,-78.15"/>
<polygon fill="#63b8ff" stroke="#63b8ff" points="872.6,-81.27 880.46,-74.17 869.89,-74.82 872.6,-81.27"/>
</a>
</g>
</g>
<!-- Node19&#45;&gt;Node21 -->
<g id="edge21_Node000019_Node000021" class="edge">
<title>Node19&#45;&gt;Node21</title>
<g id="a_edge21_Node000019_Node000021"><a xlink:title=" ">
<path fill="none" stroke="#63b8ff" d="M738.28,-109.98C698.83,-100.86 636.09,-86.33 593.09,-76.38"/>
<polygon fill="#63b8ff" stroke="#63b8ff" points="593.69,-72.93 583.15,-74.08 592.11,-79.75 593.69,-72.93"/>
</a>
</g>
</g>
<!-- Node19&#45;&gt;Node23 -->
<g id="edge26_Node000019_Node000023" class="edge">
<title>Node19&#45;&gt;Node23</title>
<g id="a_edge26_Node000019_Node000023"><a xlink:title=" ">
<path fill="none" stroke="#63b8ff" d="M815.24,-109.98C858.57,-100.8 927.67,-86.15 974.63,-76.19"/>
<polygon fill="#63b8ff" stroke="#63b8ff" points="975.53,-79.58 984.59,-74.08 974.08,-72.73 975.53,-79.58"/>
</a>
</g>
</g>
<!-- Node25 -->
<g id="Node000025" class="node">
<title>Node25</title>
<g id="a_Node000025"><a xlink:title=" ">
<polygon fill="#e0e0e0" stroke="#999999" points="1511.07,-74 1433.07,-74 1433.07,-55 1511.07,-55 1511.07,-74"/>
<text text-anchor="middle" x="1472.07" y="-62" font-family="Helvetica,sans-Serif" font-size="10.00">torch/torch.h</text>
</a>
</g>
</g>
<!-- Node19&#45;&gt;Node25 -->
<g id="edge31_Node000019_Node000025" class="edge">
<title>Node19&#45;&gt;Node25</title>
<g id="a_edge31_Node000019_Node000025"><a xlink:title=" ">
<path fill="none" stroke="#63b8ff" d="M829.68,-110.91C832.52,-110.59 835.33,-110.28 838.07,-110 1055.58,-87.72 1316.21,-73.27 1422.9,-67.88"/>
<polygon fill="#63b8ff" stroke="#63b8ff" points="1423.23,-71.36 1433.04,-67.37 1422.88,-64.37 1423.23,-71.36"/>
</a>
</g>
</g>
<!-- Node21&#45;&gt;Node7 -->
<g id="edge23_Node000021_Node000007" class="edge">
<title>Node21&#45;&gt;Node7</title>
<g id="a_edge23_Node000021_Node000007"><a xlink:title=" ">
<path fill="none" stroke="#63b8ff" d="M534.83,-54.98C524.28,-47 508.27,-34.88 495.63,-25.31"/>
<polygon fill="#63b8ff" stroke="#63b8ff" points="497.61,-22.42 487.52,-19.17 493.38,-28 497.61,-22.42"/>
</a>
</g>
</g>
<!-- Node21&#45;&gt;Node8 -->
<g id="edge24_Node000021_Node000008" class="edge">
<title>Node21&#45;&gt;Node8</title>
<g id="a_edge24_Node000021_Node000008"><a xlink:title=" ">
<path fill="none" stroke="#63b8ff" d="M589.72,-56.35C592.89,-55.88 596.03,-55.42 599.07,-55 726.86,-37.3 879.41,-20.91 946.08,-13.98"/>
<polygon fill="#63b8ff" stroke="#63b8ff" points="946.81,-17.42 956.4,-12.91 946.09,-10.46 946.81,-17.42"/>
</a>
</g>
</g>
<!-- Node21&#45;&gt;Node9 -->
<g id="edge25_Node000021_Node000009" class="edge">
<title>Node21&#45;&gt;Node9</title>
<g id="a_edge25_Node000021_Node000009"><a xlink:title=" ">
<path fill="none" stroke="#63b8ff" d="M564.39,-54.98C582.73,-46.46 611.18,-33.23 632.3,-23.41"/>
<polygon fill="#63b8ff" stroke="#63b8ff" points="633.83,-26.56 641.42,-19.17 630.88,-20.21 633.83,-26.56"/>
</a>
</g>
</g>
<!-- Node21&#45;&gt;Node22 -->
<g id="edge22_Node000021_Node000022" class="edge">
<title>Node21&#45;&gt;Node22</title>
<g id="a_edge22_Node000021_Node000022"><a xlink:title=" ">
<path fill="none" stroke="#63b8ff" d="M512.65,-54.98C476,-45.64 417.19,-30.66 378.1,-20.7"/>
<polygon fill="#63b8ff" stroke="#63b8ff" points="378.92,-17.3 368.36,-18.22 377.19,-24.08 378.92,-17.3"/>
</a>
</g>
</g>
<!-- Node23&#45;&gt;Node7 -->
<g id="edge27_Node000023_Node000007" class="edge">
<title>Node23&#45;&gt;Node7</title>
<g id="a_edge27_Node000023_Node000007"><a xlink:title=" ">
<path fill="none" stroke="#63b8ff" d="M982.54,-56.29C979.34,-55.83 976.16,-55.39 973.07,-55 798.64,-32.96 588.41,-17.9 508.78,-12.6"/>
<polygon fill="#63b8ff" stroke="#63b8ff" points="508.63,-9.08 498.43,-11.92 508.17,-16.07 508.63,-9.08"/>
</a>
</g>
</g>
<!-- Node23&#45;&gt;Node8 -->
<g id="edge28_Node000023_Node000008" class="edge">
<title>Node23&#45;&gt;Node8</title>
<g id="a_edge28_Node000023_Node000008"><a xlink:title=" ">
<path fill="none" stroke="#63b8ff" d="M1017.64,-54.75C1011.22,-47.18 1001.77,-36.05 993.95,-26.84"/>
<polygon fill="#63b8ff" stroke="#63b8ff" points="996.51,-24.45 987.37,-19.09 991.17,-28.98 996.51,-24.45"/>
</a>
</g>
</g>
<!-- Node23&#45;&gt;Node9 -->
<g id="edge29_Node000023_Node000009" class="edge">
<title>Node23&#45;&gt;Node9</title>
<g id="a_edge29_Node000023_Node000009"><a xlink:title=" ">
<path fill="none" stroke="#63b8ff" d="M982.52,-56.47C979.32,-55.96 976.15,-55.47 973.07,-55 868.8,-39.07 744.68,-21.98 689.28,-14.45"/>
<polygon fill="#63b8ff" stroke="#63b8ff" points="689.53,-10.95 679.15,-13.07 688.59,-17.88 689.53,-10.95"/>
</a>
</g>
</g>
<!-- Node24 -->
<g id="Node000024" class="node">
<title>Node24</title>
<g id="a_Node000024"><a xlink:href="enums_8h.html" target="_top" xlink:title=" ">
<polygon fill="white" stroke="#666666" points="1116.57,-19 1021.57,-19 1021.57,0 1116.57,0 1116.57,-19"/>
<text text-anchor="middle" x="1069.07" y="-7" font-family="Helvetica,sans-Serif" font-size="10.00">structs/enums.h</text>
</a>
</g>
</g>
<!-- Node23&#45;&gt;Node24 -->
<g id="edge30_Node000023_Node000024" class="edge">
<title>Node23&#45;&gt;Node24</title>
<g id="a_edge30_Node000023_Node000024"><a xlink:title=" ">
<path fill="none" stroke="#63b8ff" d="M1032.34,-54.75C1038.62,-47.18 1047.86,-36.05 1055.5,-26.84"/>
<polygon fill="#63b8ff" stroke="#63b8ff" points="1058.25,-29.02 1061.94,-19.09 1052.86,-24.55 1058.25,-29.02"/>
</a>
</g>
</g>
<!-- Node26&#45;&gt;Node7 -->
<g id="edge42_Node000026_Node000007" class="edge">
<title>Node26&#45;&gt;Node7</title>
<g id="a_edge42_Node000026_Node000007"><a xlink:title=" ">
<path fill="none" stroke="#63b8ff" d="M418.16,-54.98C428.56,-47 444.33,-34.88 456.79,-25.31"/>
<polygon fill="#63b8ff" stroke="#63b8ff" points="458.99,-28.04 464.79,-19.17 454.72,-22.49 458.99,-28.04"/>
</a>
</g>
</g>
<!-- Node26&#45;&gt;Node8 -->
<g id="edge43_Node000026_Node000008" class="edge">
<title>Node26&#45;&gt;Node8</title>
<g id="a_edge43_Node000026_Node000008"><a xlink:title=" ">
<path fill="none" stroke="#63b8ff" d="M445.6,-59.63C460.43,-58.16 477.54,-56.48 493.07,-55 663.2,-38.82 866.86,-20.57 946.15,-13.51"/>
<polygon fill="#63b8ff" stroke="#63b8ff" points="946.85,-16.96 956.5,-12.59 946.23,-9.99 946.85,-16.96"/>
</a>
</g>
</g>
<!-- Node26&#45;&gt;Node9 -->
<g id="edge45_Node000026_Node000009" class="edge">
<title>Node26&#45;&gt;Node9</title>
<g id="a_edge45_Node000026_Node000009"><a xlink:title=" ">
<path fill="none" stroke="#63b8ff" d="M445.77,-55.39C496.76,-44.71 585.28,-26.17 630.96,-16.6"/>
<polygon fill="#63b8ff" stroke="#63b8ff" points="631.74,-20.01 640.81,-14.53 630.31,-13.16 631.74,-20.01"/>
</a>
</g>
</g>
<!-- Node26&#45;&gt;Node22 -->
<g id="edge41_Node000026_Node000022" class="edge">
<title>Node26&#45;&gt;Node22</title>
<g id="a_edge41_Node000026_Node000022"><a xlink:title=" ">
<path fill="none" stroke="#63b8ff" d="M395.99,-54.98C385.59,-47 369.81,-34.88 357.35,-25.31"/>
<polygon fill="#63b8ff" stroke="#63b8ff" points="359.42,-22.49 349.36,-19.17 355.16,-28.04 359.42,-22.49"/>
</a>
</g>
</g>
<!-- Node27 -->
<g id="Node000027" class="node">
<title>Node27</title>
<g id="a_Node000027"><a xlink:title=" ">
<polygon fill="#e0e0e0" stroke="#999999" points="436.07,-19 386.07,-19 386.07,0 436.07,0 436.07,-19"/>
<text text-anchor="middle" x="411.07" y="-7" font-family="Helvetica,sans-Serif" font-size="10.00">cstdint</text>
</a>
</g>
</g>
<!-- Node26&#45;&gt;Node27 -->
<g id="edge44_Node000026_Node000027" class="edge">
<title>Node26&#45;&gt;Node27</title>
<g id="a_edge44_Node000026_Node000027"><a xlink:title=" ">
<path fill="none" stroke="#63b8ff" d="M407.73,-54.75C408.26,-47.8 409.01,-37.85 409.67,-29.13"/>
<polygon fill="#63b8ff" stroke="#63b8ff" points="413.16,-29.32 410.42,-19.09 406.18,-28.8 413.16,-29.32"/>
</a>
</g>
</g>
<!-- Node31&#45;&gt;Node8 -->
<g id="edge53_Node000031_Node000008" class="edge">
<title>Node31&#45;&gt;Node8</title>
<g id="a_edge53_Node000031_Node000008"><a xlink:title=" ">
<path fill="none" stroke="#63b8ff" d="M1410.03,-109.67C1402.97,-95.4 1386.94,-67.58 1364.07,-55 1297.73,-18.51 1104.5,-32.02 1013.77,-18.88"/>
<polygon fill="#63b8ff" stroke="#63b8ff" points="1014.18,-15.4 1003.74,-17.23 1013.05,-22.31 1014.18,-15.4"/>
</a>
</g>
</g>
<!-- Node31&#45;&gt;Node25 -->
<g id="edge52_Node000031_Node000025" class="edge">
<title>Node31&#45;&gt;Node25</title>
<g id="a_edge52_Node000031_Node000025"><a xlink:title=" ">
<path fill="none" stroke="#63b8ff" d="M1423.39,-109.98C1431.88,-102.23 1444.63,-90.58 1454.95,-81.14"/>
<polygon fill="#63b8ff" stroke="#63b8ff" points="1457.56,-83.5 1462.58,-74.17 1452.84,-78.33 1457.56,-83.5"/>
</a>
</g>
</g>
<!-- Node32&#45;&gt;Node25 -->
<g id="edge55_Node000032_Node000025" class="edge">
<title>Node32&#45;&gt;Node25</title>
<g id="a_edge55_Node000032_Node000025"><a xlink:title=" ">
<path fill="none" stroke="#63b8ff" d="M1454.76,-285.8C1457.39,-252.29 1466.92,-131.08 1470.6,-84.2"/>
<polygon fill="#63b8ff" stroke="#63b8ff" points="1474.09,-84.45 1471.39,-74.21 1467.12,-83.9 1474.09,-84.45"/>
</a>
</g>
</g>
<!-- Node33&#45;&gt;Node25 -->
<g id="edge57_Node000033_Node000025" class="edge">
<title>Node33&#45;&gt;Node25</title>
<g id="a_edge57_Node000033_Node000025"><a xlink:title=" ">
<path fill="none" stroke="#63b8ff" d="M1581.74,-285.8C1564.95,-252.08 1503.95,-129.54 1480.94,-83.31"/>
<polygon fill="#63b8ff" stroke="#63b8ff" points="1484,-81.6 1476.41,-74.21 1477.73,-84.72 1484,-81.6"/>
</a>
</g>
</g>
</g>
</svg>
