<?xml version="1.0" encoding="UTF-8" standalone="no"?>
<!DOCTYPE svg PUBLIC "-//W3C//DTD SVG 1.1//EN"
 "http://www.w3.org/Graphics/SVG/1.1/DTD/svg11.dtd">
<!-- Generated by graphviz version 2.43.0 (0)
 -->
<!-- Title: selection_template.h Pages: 1 -->
<svg width="2609pt" height="247pt"
 viewBox="0.00 0.00 2609.00 247.00" xmlns="http://www.w3.org/2000/svg" xmlns:xlink="http://www.w3.org/1999/xlink">
<g id="graph0" class="graph" transform="scale(1 1) rotate(0) translate(4 243)">
<title>selection_template.h</title>
<!-- Node1 -->
<g id="Node000001" class="node">
<title>Node1</title>
<g id="a_Node000001"><a xlink:title="Defines the selection_template base class for event selection criteria.">
<polygon fill="#999999" stroke="#666666" points="1492,-239 1373,-239 1373,-220 1492,-220 1492,-239"/>
<text text-anchor="middle" x="1432.5" y="-227" font-family="Helvetica,sans-Serif" font-size="10.00">selection_template.h</text>
</a>
</g>
</g>
<!-- Node2 -->
<g id="Node000002" class="node">
<title>Node2</title>
<g id="a_Node000002"><a xlink:href="analysis_8h.html" target="_top" xlink:title="Defines the analysis class, the central orchestrator for physics analysis tasks.">
<polygon fill="white" stroke="#666666" points="465.5,-74 399.5,-74 399.5,-55 465.5,-55 465.5,-74"/>
<text text-anchor="middle" x="432.5" y="-62" font-family="Helvetica,sans-Serif" font-size="10.00">analysis.h</text>
</a>
</g>
</g>
<!-- Node1&#45;&gt;Node2 -->
<g id="edge1_Node000001_Node000002" class="edge">
<title>Node1&#45;&gt;Node2</title>
<g id="a_edge1_Node000001_Node000002"><a xlink:title=" ">
<path fill="none" stroke="#63b8ff" d="M1362.54,-228.39C1107.46,-227.66 239.82,-222.36 195.5,-184 170.41,-162.28 164.21,-135.46 185.5,-110 212.4,-77.82 338.51,-68.88 399.41,-66.42"/>
<polygon fill="#63b8ff" stroke="#63b8ff" points="1362.78,-231.89 1372.79,-228.41 1362.8,-224.89 1362.78,-231.89"/>
</a>
</g>
</g>
<!-- Node11 -->
<g id="Node000011" class="node">
<title>Node11</title>
<g id="a_Node000011"><a xlink:href="childrenkinematics_8h.html" target="_top" xlink:title=" ">
<polygon fill="white" stroke="#666666" points="324,-184 205,-184 205,-165 324,-165 324,-184"/>
<text text-anchor="middle" x="264.5" y="-172" font-family="Helvetica,sans-Serif" font-size="10.00">childrenkinematics.h</text>
</a>
</g>
</g>
<!-- Node1&#45;&gt;Node11 -->
<g id="edge10_Node000001_Node000011" class="edge">
<title>Node1&#45;&gt;Node11</title>
<g id="a_edge10_Node000001_Node000011"><a xlink:title=" ">
<path fill="none" stroke="#63b8ff" d="M1362.88,-225.75C1198.17,-219.19 771.66,-201.82 415.5,-184 385.34,-182.49 351.81,-180.62 324.02,-179.02"/>
<polygon fill="#63b8ff" stroke="#63b8ff" points="1362.75,-229.25 1372.88,-226.15 1363.03,-222.26 1362.75,-229.25"/>
</a>
</g>
</g>
<!-- Node13 -->
<g id="Node000013" class="node">
<title>Node13</title>
<g id="a_Node000013"><a xlink:href="combinatorial_8h.html" target="_top" xlink:title=" ">
<polygon fill="white" stroke="#666666" points="518,-184 425,-184 425,-165 518,-165 518,-184"/>
<text text-anchor="middle" x="471.5" y="-172" font-family="Helvetica,sans-Serif" font-size="10.00">combinatorial.h</text>
</a>
</g>
</g>
<!-- Node1&#45;&gt;Node13 -->
<g id="edge12_Node000001_Node000013" class="edge">
<title>Node1&#45;&gt;Node13</title>
<g id="a_edge12_Node000001_Node000013"><a xlink:title=" ">
<path fill="none" stroke="#63b8ff" d="M1362.66,-224.99C1220.12,-217.76 885.43,-200.53 604.5,-184 575.86,-182.32 543.76,-180.27 518.27,-178.61"/>
<polygon fill="#63b8ff" stroke="#63b8ff" points="1362.83,-228.5 1373,-225.51 1363.19,-221.51 1362.83,-228.5"/>
</a>
</g>
</g>
<!-- Node15 -->
<g id="Node000015" class="node">
<title>Node15</title>
<g id="a_Node000015"><a xlink:href="container_8h.html" target="_top" xlink:title=" ">
<polygon fill="white" stroke="#666666" points="685,-184 614,-184 614,-165 685,-165 685,-184"/>
<text text-anchor="middle" x="649.5" y="-172" font-family="Helvetica,sans-Serif" font-size="10.00">container.h</text>
</a>
</g>
</g>
<!-- Node1&#45;&gt;Node15 -->
<g id="edge14_Node000001_Node000015" class="edge">
<title>Node1&#45;&gt;Node15</title>
<g id="a_edge14_Node000001_Node000015"><a xlink:title=" ">
<path fill="none" stroke="#63b8ff" d="M1362.69,-224.04C1240.99,-216.23 982.1,-199.42 763.5,-184 737.27,-182.15 707.65,-179.94 685.18,-178.23"/>
<polygon fill="#63b8ff" stroke="#63b8ff" points="1362.77,-227.55 1372.97,-224.7 1363.22,-220.57 1362.77,-227.55"/>
</a>
</g>
</g>
<!-- Node20 -->
<g id="Node000020" class="node">
<title>Node20</title>
<g id="a_Node000020"><a xlink:href="decaymodes_8h.html" target="_top" xlink:title=" ">
<polygon fill="white" stroke="#666666" points="860.5,-184 772.5,-184 772.5,-165 860.5,-165 860.5,-184"/>
<text text-anchor="middle" x="816.5" y="-172" font-family="Helvetica,sans-Serif" font-size="10.00">decaymodes.h</text>
</a>
</g>
</g>
<!-- Node1&#45;&gt;Node20 -->
<g id="edge19_Node000001_Node000020" class="edge">
<title>Node1&#45;&gt;Node20</title>
<g id="a_edge19_Node000001_Node000020"><a xlink:title=" ">
<path fill="none" stroke="#63b8ff" d="M1362.64,-224.03C1257.77,-217.05 1053.51,-202.45 880.5,-184 874.04,-183.31 867.22,-182.5 860.53,-181.65"/>
<polygon fill="#63b8ff" stroke="#63b8ff" points="1362.57,-227.53 1372.78,-224.7 1363.03,-220.55 1362.57,-227.53"/>
</a>
</g>
</g>
<!-- Node22 -->
<g id="Node000022" class="node">
<title>Node22</title>
<g id="a_Node000022"><a xlink:href="selections_2mc16_2event_2event_8h.html" target="_top" xlink:title=" ">
<polygon fill="white" stroke="#666666" points="943,-184 890,-184 890,-165 943,-165 943,-184"/>
<text text-anchor="middle" x="916.5" y="-172" font-family="Helvetica,sans-Serif" font-size="10.00">event.h</text>
</a>
</g>
</g>
<!-- Node1&#45;&gt;Node22 -->
<g id="edge21_Node000001_Node000022" class="edge">
<title>Node1&#45;&gt;Node22</title>
<g id="a_edge21_Node000001_Node000022"><a xlink:title=" ">
<path fill="none" stroke="#63b8ff" d="M1362.51,-224.38C1269.6,-218.36 1100.6,-205.47 957.5,-184 952.9,-183.31 948.04,-182.43 943.33,-181.51"/>
<polygon fill="#63b8ff" stroke="#63b8ff" points="1362.43,-227.88 1372.63,-225.03 1362.87,-220.9 1362.43,-227.88"/>
</a>
</g>
</g>
<!-- Node24 -->
<g id="Node000024" class="node">
<title>Node24</title>
<g id="a_Node000024"><a xlink:href="matching_8h.html" target="_top" xlink:title=" ">
<polygon fill="white" stroke="#666666" points="1038,-184 967,-184 967,-165 1038,-165 1038,-184"/>
<text text-anchor="middle" x="1002.5" y="-172" font-family="Helvetica,sans-Serif" font-size="10.00">matching.h</text>
</a>
</g>
</g>
<!-- Node1&#45;&gt;Node24 -->
<g id="edge23_Node000001_Node000024" class="edge">
<title>Node1&#45;&gt;Node24</title>
<g id="a_edge23_Node000001_Node000024"><a xlink:title=" ">
<path fill="none" stroke="#63b8ff" d="M1362.68,-222.06C1285.2,-214.55 1156.57,-200.95 1046.5,-184 1043.73,-183.57 1040.87,-183.1 1038,-182.6"/>
<polygon fill="#63b8ff" stroke="#63b8ff" points="1362.51,-225.56 1372.8,-223.04 1363.18,-218.6 1362.51,-225.56"/>
</a>
</g>
</g>
<!-- Node29 -->
<g id="Node000029" class="node">
<title>Node29</title>
<g id="a_Node000029"><a xlink:href="met_8h.html" target="_top" xlink:title=" ">
<polygon fill="white" stroke="#666666" points="1101,-184 1056,-184 1056,-165 1101,-165 1101,-184"/>
<text text-anchor="middle" x="1078.5" y="-172" font-family="Helvetica,sans-Serif" font-size="10.00">met.h</text>
</a>
</g>
</g>
<!-- Node1&#45;&gt;Node29 -->
<g id="edge28_Node000001_Node000029" class="edge">
<title>Node1&#45;&gt;Node29</title>
<g id="a_edge28_Node000001_Node000029"><a xlink:title=" ">
<path fill="none" stroke="#63b8ff" d="M1362.63,-221.54C1296.91,-214.37 1195.95,-201.73 1109.5,-184 1106.77,-183.44 1103.92,-182.77 1101.1,-182.07"/>
<polygon fill="#63b8ff" stroke="#63b8ff" points="1362.55,-225.05 1372.87,-222.65 1363.3,-218.09 1362.55,-225.05"/>
</a>
</g>
</g>
<!-- Node31 -->
<g id="Node000031" class="node">
<title>Node31</title>
<g id="a_Node000031"><a xlink:href="parton_8h.html" target="_top" xlink:title=" ">
<polygon fill="white" stroke="#666666" points="1176,-184 1119,-184 1119,-165 1176,-165 1176,-184"/>
<text text-anchor="middle" x="1147.5" y="-172" font-family="Helvetica,sans-Serif" font-size="10.00">parton.h</text>
</a>
</g>
</g>
<!-- Node1&#45;&gt;Node31 -->
<g id="edge30_Node000001_Node000031" class="edge">
<title>Node1&#45;&gt;Node31</title>
<g id="a_edge30_Node000001_Node000031"><a xlink:title=" ">
<path fill="none" stroke="#63b8ff" d="M1371.75,-218.28C1321.67,-209.69 1248.83,-196.78 1185.5,-184 1182.45,-183.38 1179.27,-182.72 1176.11,-182.03"/>
<polygon fill="#63b8ff" stroke="#63b8ff" points="1371.32,-221.76 1381.77,-220 1372.5,-214.86 1371.32,-221.76"/>
</a>
</g>
</g>
<!-- Node33 -->
<g id="Node000033" class="node">
<title>Node33</title>
<g id="a_Node000033"><a xlink:href="selection_2cxx_2properties_8cxx.html" target="_top" xlink:title=" ">
<polygon fill="white" stroke="#666666" points="1280.5,-184 1194.5,-184 1194.5,-165 1280.5,-165 1280.5,-184"/>
<text text-anchor="middle" x="1237.5" y="-172" font-family="Helvetica,sans-Serif" font-size="10.00">properties.cxx</text>
</a>
</g>
</g>
<!-- Node1&#45;&gt;Node33 -->
<g id="edge32_Node000001_Node000033" class="edge">
<title>Node1&#45;&gt;Node33</title>
<g id="a_edge32_Node000001_Node000033"><a xlink:title=" ">
<path fill="none" stroke="#63b8ff" d="M1391.33,-217.31C1354.84,-207.39 1302.33,-193.12 1269.08,-184.08"/>
<polygon fill="#63b8ff" stroke="#63b8ff" points="1390.6,-220.74 1401.17,-219.98 1392.44,-213.98 1390.6,-220.74"/>
</a>
</g>
</g>
<!-- Node34 -->
<g id="Node000034" class="node">
<title>Node34</title>
<g id="a_Node000034"><a xlink:href="regions_8h.html" target="_top" xlink:title=" ">
<polygon fill="white" stroke="#666666" points="1360.5,-184 1298.5,-184 1298.5,-165 1360.5,-165 1360.5,-184"/>
<text text-anchor="middle" x="1329.5" y="-172" font-family="Helvetica,sans-Serif" font-size="10.00">regions.h</text>
</a>
</g>
</g>
<!-- Node1&#45;&gt;Node34 -->
<g id="edge33_Node000001_Node000034" class="edge">
<title>Node1&#45;&gt;Node34</title>
<g id="a_edge33_Node000001_Node000034"><a xlink:title=" ">
<path fill="none" stroke="#63b8ff" d="M1406.98,-215.37C1388.06,-205.63 1362.8,-192.64 1346.35,-184.17"/>
<polygon fill="#63b8ff" stroke="#63b8ff" points="1405.46,-218.52 1415.95,-219.98 1408.66,-212.3 1405.46,-218.52"/>
</a>
</g>
</g>
<!-- Node36 -->
<g id="Node000036" class="node">
<title>Node36</title>
<g id="a_Node000036"><a xlink:href="selection__core_8cxx.html" target="_top" xlink:title=" ">
<polygon fill="white" stroke="#666666" points="1486,-184 1379,-184 1379,-165 1486,-165 1486,-184"/>
<text text-anchor="middle" x="1432.5" y="-172" font-family="Helvetica,sans-Serif" font-size="10.00">selection_core.cxx</text>
</a>
</g>
</g>
<!-- Node1&#45;&gt;Node36 -->
<g id="edge35_Node000001_Node000036" class="edge">
<title>Node1&#45;&gt;Node36</title>
<g id="a_edge35_Node000001_Node000036"><a xlink:title=" ">
<path fill="none" stroke="#63b8ff" d="M1432.5,-209.66C1432.5,-200.93 1432.5,-190.99 1432.5,-184.09"/>
<polygon fill="#63b8ff" stroke="#63b8ff" points="1429,-209.75 1432.5,-219.75 1436,-209.75 1429,-209.75"/>
</a>
</g>
</g>
<!-- Node37 -->
<g id="Node000037" class="node">
<title>Node37</title>
<g id="a_Node000037"><a xlink:href="selection__template_8cxx.html" target="_top" xlink:title=" ">
<polygon fill="white" stroke="#666666" points="1635,-184 1504,-184 1504,-165 1635,-165 1635,-184"/>
<text text-anchor="middle" x="1569.5" y="-172" font-family="Helvetica,sans-Serif" font-size="10.00">selection_template.cxx</text>
</a>
</g>
</g>
<!-- Node1&#45;&gt;Node37 -->
<g id="edge36_Node000001_Node000037" class="edge">
<title>Node1&#45;&gt;Node37</title>
<g id="a_edge36_Node000001_Node000037"><a xlink:title=" ">
<path fill="none" stroke="#63b8ff" d="M1464.06,-216.29C1489.45,-206.47 1524.5,-192.91 1547.09,-184.17"/>
<polygon fill="#63b8ff" stroke="#63b8ff" points="1462.58,-213.11 1454.51,-219.98 1465.1,-219.64 1462.58,-213.11"/>
</a>
</g>
</g>
<!-- Node38 -->
<g id="Node000038" class="node">
<title>Node38</title>
<g id="a_Node000038"><a xlink:href="topefficiency_8h.html" target="_top" xlink:title="Top efficiency selection class.">
<polygon fill="white" stroke="#666666" points="1740,-184 1653,-184 1653,-165 1740,-165 1740,-184"/>
<text text-anchor="middle" x="1696.5" y="-172" font-family="Helvetica,sans-Serif" font-size="10.00">topefficiency.h</text>
</a>
</g>
</g>
<!-- Node1&#45;&gt;Node38 -->
<g id="edge37_Node000001_Node000038" class="edge">
<title>Node1&#45;&gt;Node38</title>
<g id="a_edge37_Node000001_Node000038"><a xlink:title=" ">
<path fill="none" stroke="#63b8ff" d="M1484.79,-218C1534.28,-208.07 1607.67,-193.33 1653.75,-184.08"/>
<polygon fill="#63b8ff" stroke="#63b8ff" points="1484.03,-214.58 1474.92,-219.98 1485.41,-221.45 1484.03,-214.58"/>
</a>
</g>
</g>
<!-- Node40 -->
<g id="Node000040" class="node">
<title>Node40</title>
<g id="a_Node000040"><a xlink:href="topjets_8h.html" target="_top" xlink:title=" ">
<polygon fill="white" stroke="#666666" points="1817,-184 1758,-184 1758,-165 1817,-165 1817,-184"/>
<text text-anchor="middle" x="1787.5" y="-172" font-family="Helvetica,sans-Serif" font-size="10.00">topjets.h</text>
</a>
</g>
</g>
<!-- Node1&#45;&gt;Node40 -->
<g id="edge39_Node000001_Node000040" class="edge">
<title>Node1&#45;&gt;Node40</title>
<g id="a_edge39_Node000001_Node000040"><a xlink:title=" ">
<path fill="none" stroke="#63b8ff" d="M1502.12,-220.21C1566.31,-212.21 1664.12,-199.11 1748.5,-184 1751.5,-183.46 1754.62,-182.86 1757.74,-182.23"/>
<polygon fill="#63b8ff" stroke="#63b8ff" points="1501.61,-216.75 1492.12,-221.45 1502.47,-223.7 1501.61,-216.75"/>
</a>
</g>
</g>
<!-- Node42 -->
<g id="Node000042" class="node">
<title>Node42</title>
<g id="a_Node000042"><a xlink:href="mc20_2topkinematics_2topkinematics_8h.html" target="_top" xlink:title=" ">
<polygon fill="white" stroke="#666666" points="1930,-184 1835,-184 1835,-165 1930,-165 1930,-184"/>
<text text-anchor="middle" x="1882.5" y="-172" font-family="Helvetica,sans-Serif" font-size="10.00">topkinematics.h</text>
</a>
</g>
</g>
<!-- Node1&#45;&gt;Node42 -->
<g id="edge41_Node000001_Node000042" class="edge">
<title>Node1&#45;&gt;Node42</title>
<g id="a_edge41_Node000001_Node000042"><a xlink:title=" ">
<path fill="none" stroke="#63b8ff" d="M1502.44,-221.33C1581.1,-213.1 1712.62,-198.8 1825.5,-184 1828.58,-183.6 1831.74,-183.17 1834.93,-182.72"/>
<polygon fill="#63b8ff" stroke="#63b8ff" points="1501.75,-217.89 1492.17,-222.41 1502.48,-224.85 1501.75,-217.89"/>
</a>
</g>
</g>
<!-- Node44 -->
<g id="Node000044" class="node">
<title>Node44</title>
<g id="a_Node000044"><a xlink:href="mc16_2topkinematics_2topkinematics_8h.html" target="_top" xlink:title=" ">
<polygon fill="white" stroke="#666666" points="2043,-184 1948,-184 1948,-165 2043,-165 2043,-184"/>
<text text-anchor="middle" x="1995.5" y="-172" font-family="Helvetica,sans-Serif" font-size="10.00">topkinematics.h</text>
</a>
</g>
</g>
<!-- Node1&#45;&gt;Node44 -->
<g id="edge43_Node000001_Node000044" class="edge">
<title>Node1&#45;&gt;Node44</title>
<g id="a_edge43_Node000001_Node000044"><a xlink:title=" ">
<path fill="none" stroke="#63b8ff" d="M1502.4,-223.77C1600.32,-216.82 1783.8,-202.63 1939.5,-184 1942.23,-183.67 1945.04,-183.32 1947.87,-182.94"/>
<polygon fill="#63b8ff" stroke="#63b8ff" points="1502.06,-220.28 1492.33,-224.48 1502.56,-227.26 1502.06,-220.28"/>
</a>
</g>
</g>
<!-- Node46 -->
<g id="Node000046" class="node">
<title>Node46</title>
<g id="a_Node000046"><a xlink:href="mc16_2topmatching_2topmatching_8h.html" target="_top" xlink:title=" ">
<polygon fill="#fff0f0" stroke="red" points="2148,-184 2061,-184 2061,-165 2148,-165 2148,-184"/>
<text text-anchor="middle" x="2104.5" y="-172" font-family="Helvetica,sans-Serif" font-size="10.00">topmatching.h</text>
</a>
</g>
</g>
<!-- Node1&#45;&gt;Node46 -->
<g id="edge45_Node000001_Node000046" class="edge">
<title>Node1&#45;&gt;Node46</title>
<g id="a_edge45_Node000001_Node000046"><a xlink:title=" ">
<path fill="none" stroke="#63b8ff" d="M1502.16,-225.56C1617.08,-220.24 1853.52,-207.35 2052.5,-184 2055.23,-183.68 2058.03,-183.32 2060.85,-182.93"/>
<polygon fill="#63b8ff" stroke="#63b8ff" points="1501.92,-222.06 1492.09,-226.02 1502.24,-229.06 1501.92,-222.06"/>
</a>
</g>
</g>
<!-- Node48 -->
<g id="Node000048" class="node">
<title>Node48</title>
<g id="a_Node000048"><a xlink:href="mc20_2topmatching_2topmatching_8h.html" target="_top" xlink:title=" ">
<polygon fill="#fff0f0" stroke="red" points="2253,-184 2166,-184 2166,-165 2253,-165 2253,-184"/>
<text text-anchor="middle" x="2209.5" y="-172" font-family="Helvetica,sans-Serif" font-size="10.00">topmatching.h</text>
</a>
</g>
</g>
<!-- Node1&#45;&gt;Node48 -->
<g id="edge46_Node000001_Node000048" class="edge">
<title>Node1&#45;&gt;Node48</title>
<g id="a_edge46_Node000001_Node000048"><a xlink:title=" ">
<path fill="none" stroke="#63b8ff" d="M1502.54,-226.55C1632.15,-222.41 1918.05,-210.85 2157.5,-184 2160.23,-183.69 2163.03,-183.34 2165.85,-182.96"/>
<polygon fill="#63b8ff" stroke="#63b8ff" points="1502.24,-223.05 1492.35,-226.87 1502.46,-230.05 1502.24,-223.05"/>
</a>
</g>
</g>
<!-- Node50 -->
<g id="Node000050" class="node">
<title>Node50</title>
<g id="a_Node000050"><a xlink:href="toptruthjets_8h.html" target="_top" xlink:title=" ">
<polygon fill="#fff0f0" stroke="red" points="2354,-184 2271,-184 2271,-165 2354,-165 2354,-184"/>
<text text-anchor="middle" x="2312.5" y="-172" font-family="Helvetica,sans-Serif" font-size="10.00">toptruthjets.h</text>
</a>
</g>
</g>
<!-- Node1&#45;&gt;Node50 -->
<g id="edge47_Node000001_Node000050" class="edge">
<title>Node1&#45;&gt;Node50</title>
<g id="a_edge47_Node000001_Node000050"><a xlink:title=" ">
<path fill="none" stroke="#63b8ff" d="M1502.45,-227.46C1645.56,-224.73 1981.97,-215.26 2262.5,-184 2265.21,-183.7 2268,-183.34 2270.81,-182.96"/>
<polygon fill="#63b8ff" stroke="#63b8ff" points="1502.01,-223.97 1492.07,-227.65 1502.14,-230.96 1502.01,-223.97"/>
</a>
</g>
</g>
<!-- Node52 -->
<g id="Node000052" class="node">
<title>Node52</title>
<g id="a_Node000052"><a xlink:href="validation_8h.html" target="_top" xlink:title=" ">
<polygon fill="#fff0f0" stroke="red" points="2446.5,-184 2372.5,-184 2372.5,-165 2446.5,-165 2446.5,-184"/>
<text text-anchor="middle" x="2409.5" y="-172" font-family="Helvetica,sans-Serif" font-size="10.00">validation.h</text>
</a>
</g>
</g>
<!-- Node1&#45;&gt;Node52 -->
<g id="edge48_Node000001_Node000052" class="edge">
<title>Node1&#45;&gt;Node52</title>
<g id="a_edge48_Node000001_Node000052"><a xlink:title=" ">
<path fill="none" stroke="#63b8ff" d="M1502.43,-228.37C1657.81,-227.39 2043.34,-221.06 2363.5,-184 2366.4,-183.66 2369.4,-183.25 2372.41,-182.8"/>
<polygon fill="#63b8ff" stroke="#63b8ff" points="1502.07,-224.88 1492.09,-228.43 1502.11,-231.88 1502.07,-224.88"/>
</a>
</g>
</g>
<!-- Node54 -->
<g id="Node000054" class="node">
<title>Node54</title>
<g id="a_Node000054"><a xlink:href="mc16_2zprime_2zprime_8h.html" target="_top" xlink:title=" ">
<polygon fill="#fff0f0" stroke="red" points="2524,-184 2465,-184 2465,-165 2524,-165 2524,-184"/>
<text text-anchor="middle" x="2494.5" y="-172" font-family="Helvetica,sans-Serif" font-size="10.00">zprime.h</text>
</a>
</g>
</g>
<!-- Node1&#45;&gt;Node54 -->
<g id="edge49_Node000001_Node000054" class="edge">
<title>Node1&#45;&gt;Node54</title>
<g id="a_edge49_Node000001_Node000054"><a xlink:title=" ">
<path fill="none" stroke="#63b8ff" d="M1502.21,-227.02C1701.39,-222.56 2270.52,-208 2455.5,-184 2458.52,-183.61 2461.66,-183.1 2464.78,-182.53"/>
<polygon fill="#63b8ff" stroke="#63b8ff" points="1502.08,-223.52 1492.16,-227.25 1502.24,-230.52 1502.08,-223.52"/>
</a>
</g>
</g>
<!-- Node56 -->
<g id="Node000056" class="node">
<title>Node56</title>
<g id="a_Node000056"><a xlink:href="mc20_2zprime_2zprime_8h.html" target="_top" xlink:title=" ">
<polygon fill="#fff0f0" stroke="red" points="2601,-184 2542,-184 2542,-165 2601,-165 2601,-184"/>
<text text-anchor="middle" x="2571.5" y="-172" font-family="Helvetica,sans-Serif" font-size="10.00">zprime.h</text>
</a>
</g>
</g>
<!-- Node1&#45;&gt;Node56 -->
<g id="edge50_Node000001_Node000056" class="edge">
<title>Node1&#45;&gt;Node56</title>
<g id="a_edge50_Node000001_Node000056"><a xlink:title=" ">
<path fill="none" stroke="#63b8ff" d="M1502.4,-227.32C1711.95,-223.51 2332.86,-210.28 2533.5,-184 2536.18,-183.65 2538.95,-183.2 2541.72,-182.69"/>
<polygon fill="#63b8ff" stroke="#63b8ff" points="1502.07,-223.82 1492.14,-227.5 1502.2,-230.82 1502.07,-223.82"/>
</a>
</g>
</g>
<!-- Node3 -->
<g id="Node000003" class="node">
<title>Node3</title>
<g id="a_Node000003"><a xlink:href="analysis_8cxx.html" target="_top" xlink:title=" ">
<polygon fill="white" stroke="#666666" points="77,-19 0,-19 0,0 77,0 77,-19"/>
<text text-anchor="middle" x="38.5" y="-7" font-family="Helvetica,sans-Serif" font-size="10.00">analysis.cxx</text>
</a>
</g>
</g>
<!-- Node2&#45;&gt;Node3 -->
<g id="edge2_Node000002_Node000003" class="edge">
<title>Node2&#45;&gt;Node3</title>
<g id="a_edge2_Node000002_Node000003"><a xlink:title=" ">
<path fill="none" stroke="#63b8ff" d="M389.04,-58.58C323.38,-51 195.04,-35.58 86.5,-19 83.49,-18.54 80.37,-18.04 77.25,-17.52"/>
<polygon fill="#63b8ff" stroke="#63b8ff" points="388.69,-62.06 399.03,-59.73 389.49,-55.11 388.69,-62.06"/>
</a>
</g>
</g>
<!-- Node4 -->
<g id="Node000004" class="node">
<title>Node4</title>
<g id="a_Node000004"><a xlink:href="event__build_8cxx.html" target="_top" xlink:title=" ">
<polygon fill="white" stroke="#666666" points="189.5,-19 95.5,-19 95.5,0 189.5,0 189.5,-19"/>
<text text-anchor="middle" x="142.5" y="-7" font-family="Helvetica,sans-Serif" font-size="10.00">event_build.cxx</text>
</a>
</g>
</g>
<!-- Node2&#45;&gt;Node4 -->
<g id="edge3_Node000002_Node000004" class="edge">
<title>Node2&#45;&gt;Node4</title>
<g id="a_edge3_Node000002_Node000004"><a xlink:title=" ">
<path fill="none" stroke="#63b8ff" d="M389.35,-55.61C335.7,-45.81 244.47,-29.14 189.22,-19.04"/>
<polygon fill="#63b8ff" stroke="#63b8ff" points="388.77,-59.07 399.23,-57.42 390.03,-52.18 388.77,-59.07"/>
</a>
</g>
</g>
<!-- Node5 -->
<g id="Node000005" class="node">
<title>Node5</title>
<g id="a_Node000005"><a xlink:href="graph__build_8cxx.html" target="_top" xlink:title=" ">
<polygon fill="white" stroke="#666666" points="301.5,-19 207.5,-19 207.5,0 301.5,0 301.5,-19"/>
<text text-anchor="middle" x="254.5" y="-7" font-family="Helvetica,sans-Serif" font-size="10.00">graph_build.cxx</text>
</a>
</g>
</g>
<!-- Node2&#45;&gt;Node5 -->
<g id="edge4_Node000002_Node000005" class="edge">
<title>Node2&#45;&gt;Node5</title>
<g id="a_edge4_Node000002_Node000005"><a xlink:title=" ">
<path fill="none" stroke="#63b8ff" d="M394.06,-52.06C360.8,-42.15 313.42,-28.04 283.32,-19.08"/>
<polygon fill="#63b8ff" stroke="#63b8ff" points="393.32,-55.49 403.9,-54.98 395.32,-48.78 393.32,-55.49"/>
</a>
</g>
</g>
<!-- Node6 -->
<g id="Node000006" class="node">
<title>Node6</title>
<g id="a_Node000006"><a xlink:href="inference__build_8cxx.html" target="_top" xlink:title=" ">
<polygon fill="white" stroke="#666666" points="431.5,-19 319.5,-19 319.5,0 431.5,0 431.5,-19"/>
<text text-anchor="middle" x="375.5" y="-7" font-family="Helvetica,sans-Serif" font-size="10.00">inference_build.cxx</text>
</a>
</g>
</g>
<!-- Node2&#45;&gt;Node6 -->
<g id="edge5_Node000002_Node000006" class="edge">
<title>Node2&#45;&gt;Node6</title>
<g id="a_edge5_Node000002_Node000006"><a xlink:title=" ">
<path fill="none" stroke="#63b8ff" d="M415.88,-48.04C405.77,-38.64 393.22,-26.98 384.82,-19.17"/>
<polygon fill="#63b8ff" stroke="#63b8ff" points="413.64,-50.74 423.34,-54.98 418.4,-45.61 413.64,-50.74"/>
</a>
</g>
</g>
<!-- Node7 -->
<g id="Node000007" class="node">
<title>Node7</title>
<g id="a_Node000007"><a xlink:href="methods_8cxx.html" target="_top" xlink:title=" ">
<polygon fill="white" stroke="#666666" points="529.5,-19 449.5,-19 449.5,0 529.5,0 529.5,-19"/>
<text text-anchor="middle" x="489.5" y="-7" font-family="Helvetica,sans-Serif" font-size="10.00">methods.cxx</text>
</a>
</g>
</g>
<!-- Node2&#45;&gt;Node7 -->
<g id="edge6_Node000002_Node000007" class="edge">
<title>Node2&#45;&gt;Node7</title>
<g id="a_edge6_Node000002_Node000007"><a xlink:title=" ">
<path fill="none" stroke="#63b8ff" d="M449.12,-48.04C459.23,-38.64 471.78,-26.98 480.18,-19.17"/>
<polygon fill="#63b8ff" stroke="#63b8ff" points="446.6,-45.61 441.66,-54.98 451.36,-50.74 446.6,-45.61"/>
</a>
</g>
</g>
<!-- Node8 -->
<g id="Node000008" class="node">
<title>Node8</title>
<g id="a_Node000008"><a xlink:href="metric__build_8cxx.html" target="_top" xlink:title=" ">
<polygon fill="white" stroke="#666666" points="645.5,-19 547.5,-19 547.5,0 645.5,0 645.5,-19"/>
<text text-anchor="middle" x="596.5" y="-7" font-family="Helvetica,sans-Serif" font-size="10.00">metric_build.cxx</text>
</a>
</g>
</g>
<!-- Node2&#45;&gt;Node8 -->
<g id="edge7_Node000002_Node000008" class="edge">
<title>Node2&#45;&gt;Node8</title>
<g id="a_edge7_Node000002_Node000008"><a xlink:title=" ">
<path fill="none" stroke="#63b8ff" d="M468.71,-51.8C499.32,-41.91 542.45,-27.97 569.94,-19.08"/>
<polygon fill="#63b8ff" stroke="#63b8ff" points="467.29,-48.58 458.85,-54.98 469.44,-55.24 467.29,-48.58"/>
</a>
</g>
</g>
<!-- Node9 -->
<g id="Node000009" class="node">
<title>Node9</title>
<g id="a_Node000009"><a xlink:href="optimizer__build_8cxx.html" target="_top" xlink:title="Implementation of model session creation and management in the analysis class.">
<polygon fill="white" stroke="#666666" points="777,-19 664,-19 664,0 777,0 777,-19"/>
<text text-anchor="middle" x="720.5" y="-7" font-family="Helvetica,sans-Serif" font-size="10.00">optimizer_build.cxx</text>
</a>
</g>
</g>
<!-- Node2&#45;&gt;Node9 -->
<g id="edge8_Node000002_Node000009" class="edge">
<title>Node2&#45;&gt;Node9</title>
<g id="a_edge8_Node000002_Node000009"><a xlink:title=" ">
<path fill="none" stroke="#63b8ff" d="M475.69,-55.55C529.01,-45.74 619.34,-29.12 674.1,-19.04"/>
<polygon fill="#63b8ff" stroke="#63b8ff" points="474.74,-52.17 465.54,-57.42 476.01,-59.05 474.74,-52.17"/>
</a>
</g>
</g>
<!-- Node10 -->
<g id="Node000010" class="node">
<title>Node10</title>
<g id="a_Node000010"><a xlink:href="selection__build_8cxx.html" target="_top" xlink:title=" ">
<polygon fill="white" stroke="#666666" points="905.5,-19 795.5,-19 795.5,0 905.5,0 905.5,-19"/>
<text text-anchor="middle" x="850.5" y="-7" font-family="Helvetica,sans-Serif" font-size="10.00">selection_build.cxx</text>
</a>
</g>
</g>
<!-- Node2&#45;&gt;Node10 -->
<g id="edge9_Node000002_Node000010" class="edge">
<title>Node2&#45;&gt;Node10</title>
<g id="a_edge9_Node000002_Node000010"><a xlink:title=" ">
<path fill="none" stroke="#63b8ff" d="M475.71,-58.12C542.26,-49.82 673.84,-33.34 785.5,-19 788.66,-18.59 791.91,-18.18 795.18,-17.75"/>
<polygon fill="#63b8ff" stroke="#63b8ff" points="475.09,-54.67 465.6,-59.38 475.96,-61.61 475.09,-54.67"/>
</a>
</g>
</g>
<!-- Node12 -->
<g id="Node000012" class="node">
<title>Node12</title>
<g id="a_Node000012"><a xlink:href="childrenkinematics_8cxx.html" target="_top" xlink:title=" ">
<polygon fill="white" stroke="#666666" points="324.5,-129 194.5,-129 194.5,-110 324.5,-110 324.5,-129"/>
<text text-anchor="middle" x="259.5" y="-117" font-family="Helvetica,sans-Serif" font-size="10.00">childrenkinematics.cxx</text>
</a>
</g>
</g>
<!-- Node11&#45;&gt;Node12 -->
<g id="edge11_Node000011_Node000012" class="edge">
<title>Node11&#45;&gt;Node12</title>
<g id="a_edge11_Node000011_Node000012"><a xlink:title=" ">
<path fill="none" stroke="#63b8ff" d="M262.72,-154.66C261.9,-145.93 260.96,-135.99 260.31,-129.09"/>
<polygon fill="#63b8ff" stroke="#63b8ff" points="259.25,-155.12 263.67,-164.75 266.22,-154.46 259.25,-155.12"/>
</a>
</g>
</g>
<!-- Node14 -->
<g id="Node000014" class="node">
<title>Node14</title>
<g id="a_Node000014"><a xlink:href="combinatorial_8cxx.html" target="_top" xlink:title=" ">
<polygon fill="white" stroke="#666666" points="446.5,-129 342.5,-129 342.5,-110 446.5,-110 446.5,-129"/>
<text text-anchor="middle" x="394.5" y="-117" font-family="Helvetica,sans-Serif" font-size="10.00">combinatorial.cxx</text>
</a>
</g>
</g>
<!-- Node13&#45;&gt;Node14 -->
<g id="edge13_Node000013_Node000014" class="edge">
<title>Node13&#45;&gt;Node14</title>
<g id="a_edge13_Node000013_Node000014"><a xlink:title=" ">
<path fill="none" stroke="#63b8ff" d="M450.65,-159.15C436.74,-149.57 418.89,-137.29 407.1,-129.17"/>
<polygon fill="#63b8ff" stroke="#63b8ff" points="448.91,-162.2 459.13,-164.98 452.88,-156.43 448.91,-162.2"/>
</a>
</g>
</g>
<!-- Node16 -->
<g id="Node000016" class="node">
<title>Node16</title>
<g id="a_Node000016"><a xlink:href="container_8cxx.html" target="_top" xlink:title=" ">
<polygon fill="white" stroke="#666666" points="546.5,-129 464.5,-129 464.5,-110 546.5,-110 546.5,-129"/>
<text text-anchor="middle" x="505.5" y="-117" font-family="Helvetica,sans-Serif" font-size="10.00">container.cxx</text>
</a>
</g>
</g>
<!-- Node15&#45;&gt;Node16 -->
<g id="edge15_Node000015_Node000016" class="edge">
<title>Node15&#45;&gt;Node16</title>
<g id="a_edge15_Node000015_Node000016"><a xlink:title=" ">
<path fill="none" stroke="#63b8ff" d="M616.68,-161.42C589.97,-151.59 552.9,-137.95 529.06,-129.17"/>
<polygon fill="#63b8ff" stroke="#63b8ff" points="615.77,-164.82 626.36,-164.98 618.19,-158.25 615.77,-164.82"/>
</a>
</g>
</g>
<!-- Node17 -->
<g id="Node000017" class="node">
<title>Node17</title>
<g id="a_Node000017"><a xlink:href="entries_8cxx.html" target="_top" xlink:title=" ">
<polygon fill="white" stroke="#666666" points="636,-129 565,-129 565,-110 636,-110 636,-129"/>
<text text-anchor="middle" x="600.5" y="-117" font-family="Helvetica,sans-Serif" font-size="10.00">entries.cxx</text>
</a>
</g>
</g>
<!-- Node15&#45;&gt;Node17 -->
<g id="edge16_Node000015_Node000017" class="edge">
<title>Node15&#45;&gt;Node17</title>
<g id="a_edge16_Node000015_Node000017"><a xlink:title=" ">
<path fill="none" stroke="#63b8ff" d="M634.47,-157.24C625.88,-147.95 615.46,-136.68 608.44,-129.09"/>
<polygon fill="#63b8ff" stroke="#63b8ff" points="632.05,-159.78 641.41,-164.75 637.19,-155.03 632.05,-159.78"/>
</a>
</g>
</g>
<!-- Node18 -->
<g id="Node000018" class="node">
<title>Node18</title>
<g id="a_Node000018"><a xlink:href="sampletracer_8h.html" target="_top" xlink:title=" ">
<polygon fill="#fff0f0" stroke="red" points="743,-129 654,-129 654,-110 743,-110 743,-129"/>
<text text-anchor="middle" x="698.5" y="-117" font-family="Helvetica,sans-Serif" font-size="10.00">sampletracer.h</text>
</a>
</g>
</g>
<!-- Node15&#45;&gt;Node18 -->
<g id="edge17_Node000015_Node000018" class="edge">
<title>Node15&#45;&gt;Node18</title>
<g id="a_edge17_Node000015_Node000018"><a xlink:title=" ">
<path fill="none" stroke="#63b8ff" d="M664.53,-157.24C673.12,-147.95 683.54,-136.68 690.56,-129.09"/>
<polygon fill="#63b8ff" stroke="#63b8ff" points="661.81,-155.03 657.59,-164.75 666.95,-159.78 661.81,-155.03"/>
</a>
</g>
</g>
<!-- Node18&#45;&gt;Node2 -->
<g id="edge18_Node000018_Node000002" class="edge">
<title>Node18&#45;&gt;Node2</title>
<g id="a_edge18_Node000018_Node000002"><a xlink:title=" ">
<path fill="none" stroke="#63b8ff" d="M645.78,-108C592.28,-97.34 511.08,-81.16 465.87,-72.15"/>
<polygon fill="#63b8ff" stroke="#63b8ff" points="645.27,-111.46 655.76,-109.98 646.64,-104.6 645.27,-111.46"/>
</a>
</g>
</g>
<!-- Node21 -->
<g id="Node000021" class="node">
<title>Node21</title>
<g id="a_Node000021"><a xlink:href="decaymodes_8cxx.html" target="_top" xlink:title=" ">
<polygon fill="white" stroke="#666666" points="860,-129 761,-129 761,-110 860,-110 860,-129"/>
<text text-anchor="middle" x="810.5" y="-117" font-family="Helvetica,sans-Serif" font-size="10.00">decaymodes.cxx</text>
</a>
</g>
</g>
<!-- Node20&#45;&gt;Node21 -->
<g id="edge20_Node000020_Node000021" class="edge">
<title>Node20&#45;&gt;Node21</title>
<g id="a_edge20_Node000020_Node000021"><a xlink:title=" ">
<path fill="none" stroke="#63b8ff" d="M814.37,-154.66C813.38,-145.93 812.25,-135.99 811.47,-129.09"/>
<polygon fill="#63b8ff" stroke="#63b8ff" points="810.91,-155.21 815.51,-164.75 817.86,-154.42 810.91,-155.21"/>
</a>
</g>
</g>
<!-- Node23 -->
<g id="Node000023" class="node">
<title>Node23</title>
<g id="a_Node000023"><a xlink:href="selections_2mc16_2event_2event_8cxx.html" target="_top" xlink:title=" ">
<polygon fill="white" stroke="#666666" points="943,-129 878,-129 878,-110 943,-110 943,-129"/>
<text text-anchor="middle" x="910.5" y="-117" font-family="Helvetica,sans-Serif" font-size="10.00">event.cxx</text>
</a>
</g>
</g>
<!-- Node22&#45;&gt;Node23 -->
<g id="edge22_Node000022_Node000023" class="edge">
<title>Node22&#45;&gt;Node23</title>
<g id="a_edge22_Node000022_Node000023"><a xlink:title=" ">
<path fill="none" stroke="#63b8ff" d="M914.37,-154.66C913.38,-145.93 912.25,-135.99 911.47,-129.09"/>
<polygon fill="#63b8ff" stroke="#63b8ff" points="910.91,-155.21 915.51,-164.75 917.86,-154.42 910.91,-155.21"/>
</a>
</g>
</g>
<!-- Node25 -->
<g id="Node000025" class="node">
<title>Node25</title>
<g id="a_Node000025"><a xlink:href="matching_8cxx.html" target="_top" xlink:title=" ">
<polygon fill="white" stroke="#666666" points="1044,-129 961,-129 961,-110 1044,-110 1044,-129"/>
<text text-anchor="middle" x="1002.5" y="-117" font-family="Helvetica,sans-Serif" font-size="10.00">matching.cxx</text>
</a>
</g>
</g>
<!-- Node24&#45;&gt;Node25 -->
<g id="edge24_Node000024_Node000025" class="edge">
<title>Node24&#45;&gt;Node25</title>
<g id="a_edge24_Node000024_Node000025"><a xlink:title=" ">
<path fill="none" stroke="#63b8ff" d="M1002.5,-154.66C1002.5,-145.93 1002.5,-135.99 1002.5,-129.09"/>
<polygon fill="#63b8ff" stroke="#63b8ff" points="999,-154.75 1002.5,-164.75 1006,-154.75 999,-154.75"/>
</a>
</g>
</g>
<!-- Node26 -->
<g id="Node000026" class="node">
<title>Node26</title>
<g id="a_Node000026"><a xlink:href="mc16__ref_8cxx.html" target="_top" xlink:title=" ">
<polygon fill="white" stroke="#666666" points="1144.5,-129 1062.5,-129 1062.5,-110 1144.5,-110 1144.5,-129"/>
<text text-anchor="middle" x="1103.5" y="-117" font-family="Helvetica,sans-Serif" font-size="10.00">mc16_ref.cxx</text>
</a>
</g>
</g>
<!-- Node24&#45;&gt;Node26 -->
<g id="edge25_Node000024_Node000026" class="edge">
<title>Node24&#45;&gt;Node26</title>
<g id="a_edge25_Node000024_Node000026"><a xlink:title=" ">
<path fill="none" stroke="#63b8ff" d="M1027.78,-160.23C1046.3,-150.51 1070.92,-137.6 1086.98,-129.17"/>
<polygon fill="#63b8ff" stroke="#63b8ff" points="1025.96,-157.24 1018.73,-164.98 1029.21,-163.44 1025.96,-157.24"/>
</a>
</g>
</g>
<!-- Node27 -->
<g id="Node000027" class="node">
<title>Node27</title>
<g id="a_Node000027"><a xlink:href="mc20__exp_8cxx.html" target="_top" xlink:title=" ">
<polygon fill="white" stroke="#666666" points="1250,-129 1163,-129 1163,-110 1250,-110 1250,-129"/>
<text text-anchor="middle" x="1206.5" y="-117" font-family="Helvetica,sans-Serif" font-size="10.00">mc20_exp.cxx</text>
</a>
</g>
</g>
<!-- Node24&#45;&gt;Node27 -->
<g id="edge26_Node000024_Node000027" class="edge">
<title>Node24&#45;&gt;Node27</title>
<g id="a_edge26_Node000024_Node000027"><a xlink:title=" ">
<path fill="none" stroke="#63b8ff" d="M1045.08,-162.44C1083.27,-152.52 1138.52,-138.16 1173.47,-129.08"/>
<polygon fill="#63b8ff" stroke="#63b8ff" points="1044.07,-159.08 1035.28,-164.98 1045.83,-165.86 1044.07,-159.08"/>
</a>
</g>
</g>
<!-- Node28 -->
<g id="Node000028" class="node">
<title>Node28</title>
<g id="a_Node000028"><a xlink:href="mc20__ref_8cxx.html" target="_top" xlink:title=" ">
<polygon fill="white" stroke="#666666" points="1350.5,-129 1268.5,-129 1268.5,-110 1350.5,-110 1350.5,-129"/>
<text text-anchor="middle" x="1309.5" y="-117" font-family="Helvetica,sans-Serif" font-size="10.00">mc20_ref.cxx</text>
</a>
</g>
</g>
<!-- Node24&#45;&gt;Node28 -->
<g id="edge27_Node000024_Node000028" class="edge">
<title>Node24&#45;&gt;Node28</title>
<g id="a_edge27_Node000024_Node000028"><a xlink:title=" ">
<path fill="none" stroke="#63b8ff" d="M1047.9,-164.8C1090.18,-157.37 1205.95,-137.89 1268.5,-127.38"/>
<polygon fill="#63b8ff" stroke="#63b8ff" points="1047.26,-161.36 1038.03,-166.56 1048.49,-168.25 1047.26,-161.36"/>
</a>
</g>
</g>
<!-- Node30 -->
<g id="Node000030" class="node">
<title>Node30</title>
<g id="a_Node000030"><a xlink:href="met_8cxx.html" target="_top" xlink:title=" ">
<polygon fill="white" stroke="#666666" points="1424.5,-129 1368.5,-129 1368.5,-110 1424.5,-110 1424.5,-129"/>
<text text-anchor="middle" x="1396.5" y="-117" font-family="Helvetica,sans-Serif" font-size="10.00">met.cxx</text>
</a>
</g>
</g>
<!-- Node29&#45;&gt;Node30 -->
<g id="edge29_Node000029_Node000030" class="edge">
<title>Node29&#45;&gt;Node30</title>
<g id="a_edge29_Node000029_Node000030"><a xlink:title=" ">
<path fill="none" stroke="#63b8ff" d="M1110.95,-164.92C1221.15,-142.51 1252.27,-149 1359.5,-129 1362.35,-128.47 1365.31,-127.87 1368.27,-127.24"/>
<polygon fill="#63b8ff" stroke="#63b8ff" points="1110.19,-161.5 1101.11,-166.95 1111.61,-168.35 1110.19,-161.5"/>
</a>
</g>
</g>
<!-- Node32 -->
<g id="Node000032" class="node">
<title>Node32</title>
<g id="a_Node000032"><a xlink:href="parton_8cxx.html" target="_top" xlink:title=" ">
<polygon fill="white" stroke="#666666" points="1510.5,-129 1442.5,-129 1442.5,-110 1510.5,-110 1510.5,-129"/>
<text text-anchor="middle" x="1476.5" y="-117" font-family="Helvetica,sans-Serif" font-size="10.00">parton.cxx</text>
</a>
</g>
</g>
<!-- Node31&#45;&gt;Node32 -->
<g id="edge31_Node000031_Node000032" class="edge">
<title>Node31&#45;&gt;Node32</title>
<g id="a_edge31_Node000031_Node000032"><a xlink:title=" ">
<path fill="none" stroke="#63b8ff" d="M1185.98,-165.05C1296.73,-144.98 1326.83,-147.27 1433.5,-129 1436.35,-128.51 1439.3,-127.98 1442.26,-127.43"/>
<polygon fill="#63b8ff" stroke="#63b8ff" points="1185.29,-161.62 1176.09,-166.86 1186.55,-168.5 1185.29,-161.62"/>
</a>
</g>
</g>
<!-- Node35 -->
<g id="Node000035" class="node">
<title>Node35</title>
<g id="a_Node000035"><a xlink:href="regions_8cxx.html" target="_top" xlink:title=" ">
<polygon fill="white" stroke="#666666" points="1602,-129 1529,-129 1529,-110 1602,-110 1602,-129"/>
<text text-anchor="middle" x="1565.5" y="-117" font-family="Helvetica,sans-Serif" font-size="10.00">regions.cxx</text>
</a>
</g>
</g>
<!-- Node34&#45;&gt;Node35 -->
<g id="edge34_Node000034_Node000035" class="edge">
<title>Node34&#45;&gt;Node35</title>
<g id="a_edge34_Node000034_Node000035"><a xlink:title=" ">
<path fill="none" stroke="#63b8ff" d="M1370.79,-164.23C1415.53,-154.18 1486.22,-138.3 1528.99,-128.7"/>
<polygon fill="#63b8ff" stroke="#63b8ff" points="1369.83,-160.86 1360.84,-166.46 1371.36,-167.69 1369.83,-160.86"/>
</a>
</g>
</g>
<!-- Node39 -->
<g id="Node000039" class="node">
<title>Node39</title>
<g id="a_Node000039"><a xlink:href="topefficiency_8cxx.html" target="_top" xlink:title="Implementation of the topefficiency class methods.">
<polygon fill="white" stroke="#666666" points="1727.5,-129 1629.5,-129 1629.5,-110 1727.5,-110 1727.5,-129"/>
<text text-anchor="middle" x="1678.5" y="-117" font-family="Helvetica,sans-Serif" font-size="10.00">topefficiency.cxx</text>
</a>
</g>
</g>
<!-- Node38&#45;&gt;Node39 -->
<g id="edge38_Node000038_Node000039" class="edge">
<title>Node38&#45;&gt;Node39</title>
<g id="a_edge38_Node000038_Node000039"><a xlink:title=" ">
<path fill="none" stroke="#63b8ff" d="M1690.3,-155.24C1687.29,-146.37 1683.81,-136.14 1681.42,-129.09"/>
<polygon fill="#63b8ff" stroke="#63b8ff" points="1687,-156.4 1693.53,-164.75 1693.63,-154.15 1687,-156.4"/>
</a>
</g>
</g>
<!-- Node41 -->
<g id="Node000041" class="node">
<title>Node41</title>
<g id="a_Node000041"><a xlink:href="topjets_8cxx.html" target="_top" xlink:title=" ">
<polygon fill="white" stroke="#666666" points="1817,-129 1746,-129 1746,-110 1817,-110 1817,-129"/>
<text text-anchor="middle" x="1781.5" y="-117" font-family="Helvetica,sans-Serif" font-size="10.00">topjets.cxx</text>
</a>
</g>
</g>
<!-- Node40&#45;&gt;Node41 -->
<g id="edge40_Node000040_Node000041" class="edge">
<title>Node40&#45;&gt;Node41</title>
<g id="a_edge40_Node000040_Node000041"><a xlink:title=" ">
<path fill="none" stroke="#63b8ff" d="M1785.37,-154.66C1784.38,-145.93 1783.25,-135.99 1782.47,-129.09"/>
<polygon fill="#63b8ff" stroke="#63b8ff" points="1781.91,-155.21 1786.51,-164.75 1788.86,-154.42 1781.91,-155.21"/>
</a>
</g>
</g>
<!-- Node43 -->
<g id="Node000043" class="node">
<title>Node43</title>
<g id="a_Node000043"><a xlink:href="mc20_2topkinematics_2topkinematics_8cxx.html" target="_top" xlink:title=" ">
<polygon fill="white" stroke="#666666" points="1942,-129 1835,-129 1835,-110 1942,-110 1942,-129"/>
<text text-anchor="middle" x="1888.5" y="-117" font-family="Helvetica,sans-Serif" font-size="10.00">topkinematics.cxx</text>
</a>
</g>
</g>
<!-- Node42&#45;&gt;Node43 -->
<g id="edge42_Node000042_Node000043" class="edge">
<title>Node42&#45;&gt;Node43</title>
<g id="a_edge42_Node000042_Node000043"><a xlink:title=" ">
<path fill="none" stroke="#63b8ff" d="M1884.63,-154.66C1885.62,-145.93 1886.75,-135.99 1887.53,-129.09"/>
<polygon fill="#63b8ff" stroke="#63b8ff" points="1881.14,-154.42 1883.49,-164.75 1888.09,-155.21 1881.14,-154.42"/>
</a>
</g>
</g>
<!-- Node45 -->
<g id="Node000045" class="node">
<title>Node45</title>
<g id="a_Node000045"><a xlink:href="mc16_2topkinematics_2topkinematics_8cxx.html" target="_top" xlink:title=" ">
<polygon fill="white" stroke="#666666" points="2067,-129 1960,-129 1960,-110 2067,-110 2067,-129"/>
<text text-anchor="middle" x="2013.5" y="-117" font-family="Helvetica,sans-Serif" font-size="10.00">topkinematics.cxx</text>
</a>
</g>
</g>
<!-- Node44&#45;&gt;Node45 -->
<g id="edge44_Node000044_Node000045" class="edge">
<title>Node44&#45;&gt;Node45</title>
<g id="a_edge44_Node000044_Node000045"><a xlink:title=" ">
<path fill="none" stroke="#63b8ff" d="M2001.7,-155.24C2004.71,-146.37 2008.19,-136.14 2010.58,-129.09"/>
<polygon fill="#63b8ff" stroke="#63b8ff" points="1998.37,-154.15 1998.47,-164.75 2005,-156.4 1998.37,-154.15"/>
</a>
</g>
</g>
</g>
</svg>
