<?xml version="1.0" encoding="UTF-8" standalone="no"?>
<!DOCTYPE svg PUBLIC "-//W3C//DTD SVG 1.1//EN"
 "http://www.w3.org/Graphics/SVG/1.1/DTD/svg11.dtd">
<!-- Generated by graphviz version 2.43.0 (0)
 -->
<!-- Title: settings.h Pages: 1 -->
<!--zoomable 302 -->

<svg id="main" version="1.1" xmlns="http://www.w3.org/2000/svg" xmlns:xlink="http://www.w3.org/1999/xlink" xml:space="preserve" onload="init(evt)">
<style type="text/css"><![CDATA[
.node, .edge {opacity: 0.7;}
.node.selected, .edge.selected {opacity: 1;}
.edge:hover path { stroke: red; }
.edge:hover polygon { stroke: red; fill: red; }
]]></style>

<defs>
  <circle id="rim" cx="0" cy="0" r="7"/>
  <circle id="rim2" cx="0" cy="0" r="3.5"/>
  <g id="zoomPlus">
    <use xlink:href="#rim" fill="#404040"><set attributeName="fill" to="#808080" begin="zoomplus.mouseover" end="zoomplus.mouseout"/></use>
    <path d="M-4,0h8M0,-4v8" fill="none" stroke="white" stroke-width="1.5" pointer-events="none"/>
  </g>
  <g id="zoomMin">
    <use xlink:href="#rim" fill="#404040"><set attributeName="fill" to="#808080" begin="zoomminus.mouseover" end="zoomminus.mouseout"/></use>
    <path d="M-4,0h8" fill="none" stroke="white" stroke-width="1.5" pointer-events="none"/>
  </g>
  <g id="arrowUp" transform="translate(30 24)">
    <use xlink:href="#rim"/>
    <path pointer-events="none" fill="none" stroke="white" stroke-width="1.5" d="M0,-3.0v7 M-2.5,-0.5L0,-3.0L2.5,-0.5"/>
  </g>
  <g id="arrowRight" transform="rotate(90) translate(36 -43)">
    <use xlink:href="#rim"/>
    <path pointer-events="none" fill="none" stroke="white" stroke-width="1.5" d="M0,-3.0v7 M-2.5,-0.5L0,-3.0L2.5,-0.5"/>
  </g>
  <g id="arrowDown" transform="rotate(180) translate(-30 -48)">
    <use xlink:href="#rim"/>
    <path pointer-events="none" fill="none" stroke="white" stroke-width="1.5" d="M0,-3.0v7 M-2.5,-0.5L0,-3.0L2.5,-0.5"/>
  </g>
  <g id="arrowLeft" transform="rotate(270) translate(-36 17)">
    <use xlink:href="#rim"/>
    <path pointer-events="none" fill="none" stroke="white" stroke-width="1.5" d="M0,-3.0v7 M-2.5,-0.5L0,-3.0L2.5,-0.5"/>
  </g>
  <g id="resetDef">
    <use xlink:href="#rim2" fill="#404040"><set attributeName="fill" to="#808080" begin="reset.mouseover" end="reset.mouseout"/></use>
  </g>
</defs>
<script type="application/ecmascript">
var viewWidth = 1229;
var viewHeight = 302;
var sectionId = 'dynsection-1';
</script>
<script type="application/ecmascript" xlink:href="svg.min.js"/>
<svg id="graph" class="graph">
<g id="viewport">
<title>settings.h</title>
<!-- Node1 -->
<g id="Node000001" class="node">
<title>Node1</title>
<g id="a_Node000001"><a xlink:title="Defines the settings_t structure for global configuration of the AnalysisG framework.">
<polygon fill="#999999" stroke="#666666" points="575,-294 510,-294 510,-275 575,-275 575,-294"/>
<text text-anchor="middle" x="542.5" y="-282" font-family="Helvetica,sans-Serif" font-size="10.00">settings.h</text>
</a>
</g>
</g>
<!-- Node2 -->
<g id="Node000002" class="node">
<title>Node2</title>
<g id="a_Node000002"><a xlink:href="analysis_8h.html" target="_top" xlink:title="Defines the analysis class, the central orchestrator for physics analysis tasks.">
<polygon fill="white" stroke="#666666" points="465.5,-74 399.5,-74 399.5,-55 465.5,-55 465.5,-74"/>
<text text-anchor="middle" x="432.5" y="-62" font-family="Helvetica,sans-Serif" font-size="10.00">analysis.h</text>
</a>
</g>
</g>
<!-- Node1&#45;&gt;Node2 -->
<g id="edge1_Node000001_Node000002" class="edge">
<title>Node1&#45;&gt;Node2</title>
<g id="a_edge1_Node000001_Node000002"><a xlink:title=" ">
<path fill="none" stroke="#63b8ff" d="M499.77,-281.63C390.05,-275.83 102.98,-254.13 45.5,-184 1.99,-130.92 22.74,-150.81 139.5,-110 245.47,-72.97 278.84,-92.89 389.5,-74 392.65,-73.46 395.92,-72.87 399.2,-72.26"/>
<polygon fill="#63b8ff" stroke="#63b8ff" points="499.65,-285.13 509.82,-282.14 500.01,-278.13 499.65,-285.13"/>
</a>
</g>
</g>
<!-- Node11 -->
<g id="Node000011" class="node">
<title>Node11</title>
<g id="a_Node000011"><a xlink:href="dataloader_8h.html" target="_top" xlink:title=" ">
<polygon fill="white" stroke="#666666" points="407,-239 330,-239 330,-220 407,-220 407,-239"/>
<text text-anchor="middle" x="368.5" y="-227" font-family="Helvetica,sans-Serif" font-size="10.00">dataloader.h</text>
</a>
</g>
</g>
<!-- Node1&#45;&gt;Node11 -->
<g id="edge10_Node000001_Node000011" class="edge">
<title>Node1&#45;&gt;Node11</title>
<g id="a_edge10_Node000001_Node000011"><a xlink:title=" ">
<path fill="none" stroke="#63b8ff" d="M504.93,-272.06C472.41,-262.15 426.1,-248.04 396.68,-239.08"/>
<polygon fill="#63b8ff" stroke="#63b8ff" points="503.96,-275.42 514.54,-274.98 506,-268.72 503.96,-275.42"/>
</a>
</g>
</g>
<!-- Node20 -->
<g id="Node000020" class="node">
<title>Node20</title>
<g id="a_Node000020"><a xlink:href="optimizer_2include_2generators_2optimizer_8h.html" target="_top" xlink:title=" ">
<polygon fill="white" stroke="#666666" points="578,-184 507,-184 507,-165 578,-165 578,-184"/>
<text text-anchor="middle" x="542.5" y="-172" font-family="Helvetica,sans-Serif" font-size="10.00">optimizer.h</text>
</a>
</g>
</g>
<!-- Node1&#45;&gt;Node20 -->
<g id="edge37_Node000001_Node000020" class="edge">
<title>Node1&#45;&gt;Node20</title>
<g id="a_edge37_Node000001_Node000020"><a xlink:title=" ">
<path fill="none" stroke="#63b8ff" d="M542.5,-264.48C542.5,-240.84 542.5,-201.5 542.5,-184.16"/>
<polygon fill="#63b8ff" stroke="#63b8ff" points="539,-264.66 542.5,-274.66 546,-264.66 539,-264.66"/>
</a>
</g>
</g>
<!-- Node22 -->
<g id="Node000022" class="node">
<title>Node22</title>
<g id="a_Node000022"><a xlink:href="io_8h.html" target="_top" xlink:title="Defines the io class for handling input/output operations, primarily with ROOT and HDF5 files.">
<polygon fill="white" stroke="#666666" points="653,-239 618,-239 618,-220 653,-220 653,-239"/>
<text text-anchor="middle" x="635.5" y="-227" font-family="Helvetica,sans-Serif" font-size="10.00">io.h</text>
</a>
</g>
</g>
<!-- Node1&#45;&gt;Node22 -->
<g id="edge24_Node000001_Node000022" class="edge">
<title>Node1&#45;&gt;Node22</title>
<g id="a_edge24_Node000001_Node000022"><a xlink:title=" ">
<path fill="none" stroke="#63b8ff" d="M566.25,-269.97C583.25,-260.28 605.63,-247.52 620.29,-239.17"/>
<polygon fill="#63b8ff" stroke="#63b8ff" points="564.4,-266.99 557.44,-274.98 567.86,-273.07 564.4,-266.99"/>
</a>
</g>
</g>
<!-- Node27 -->
<g id="Node000027" class="node">
<title>Node27</title>
<g id="a_Node000027"><a xlink:href="metrics_8h.html" target="_top" xlink:title="Header file for the metrics class.">
<polygon fill="white" stroke="#666666" points="1006.5,-239 944.5,-239 944.5,-220 1006.5,-220 1006.5,-239"/>
<text text-anchor="middle" x="975.5" y="-227" font-family="Helvetica,sans-Serif" font-size="10.00">metrics.h</text>
</a>
</g>
</g>
<!-- Node1&#45;&gt;Node27 -->
<g id="edge32_Node000001_Node000027" class="edge">
<title>Node1&#45;&gt;Node27</title>
<g id="a_edge32_Node000001_Node000027"><a xlink:title=" ">
<path fill="none" stroke="#63b8ff" d="M585.09,-278.29C672.02,-267.65 868.08,-243.65 944.34,-234.31"/>
<polygon fill="#63b8ff" stroke="#63b8ff" points="584.55,-274.83 575.05,-279.52 585.4,-281.78 584.55,-274.83"/>
</a>
</g>
</g>
<!-- Node3 -->
<g id="Node000003" class="node">
<title>Node3</title>
<g id="a_Node000003"><a xlink:href="analysis_8cxx.html" target="_top" xlink:title=" ">
<polygon fill="white" stroke="#666666" points="77,-19 0,-19 0,0 77,0 77,-19"/>
<text text-anchor="middle" x="38.5" y="-7" font-family="Helvetica,sans-Serif" font-size="10.00">analysis.cxx</text>
</a>
</g>
</g>
<!-- Node2&#45;&gt;Node3 -->
<g id="edge2_Node000002_Node000003" class="edge">
<title>Node2&#45;&gt;Node3</title>
<g id="a_edge2_Node000002_Node000003"><a xlink:title=" ">
<path fill="none" stroke="#63b8ff" d="M389.29,-55.1C253.86,-34.06 217.51,-38.37 86.5,-19 83.49,-18.55 80.37,-18.07 77.24,-17.56"/>
<polygon fill="#63b8ff" stroke="#63b8ff" points="388.79,-58.56 399.21,-56.66 389.88,-51.65 388.79,-58.56"/>
</a>
</g>
</g>
<!-- Node4 -->
<g id="Node000004" class="node">
<title>Node4</title>
<g id="a_Node000004"><a xlink:href="event__build_8cxx.html" target="_top" xlink:title=" ">
<polygon fill="white" stroke="#666666" points="189.5,-19 95.5,-19 95.5,0 189.5,0 189.5,-19"/>
<text text-anchor="middle" x="142.5" y="-7" font-family="Helvetica,sans-Serif" font-size="10.00">event_build.cxx</text>
</a>
</g>
</g>
<!-- Node2&#45;&gt;Node4 -->
<g id="edge3_Node000002_Node000004" class="edge">
<title>Node2&#45;&gt;Node4</title>
<g id="a_edge3_Node000002_Node000004"><a xlink:title=" ">
<path fill="none" stroke="#63b8ff" d="M388.98,-54.93C313.28,-40.68 237.51,-27.18 189.9,-18.79"/>
<polygon fill="#63b8ff" stroke="#63b8ff" points="388.7,-58.44 399.18,-56.85 390,-51.56 388.7,-58.44"/>
</a>
</g>
</g>
<!-- Node5 -->
<g id="Node000005" class="node">
<title>Node5</title>
<g id="a_Node000005"><a xlink:href="graph__build_8cxx.html" target="_top" xlink:title=" ">
<polygon fill="white" stroke="#666666" points="301.5,-19 207.5,-19 207.5,0 301.5,0 301.5,-19"/>
<text text-anchor="middle" x="254.5" y="-7" font-family="Helvetica,sans-Serif" font-size="10.00">graph_build.cxx</text>
</a>
</g>
</g>
<!-- Node2&#45;&gt;Node5 -->
<g id="edge4_Node000002_Node000005" class="edge">
<title>Node2&#45;&gt;Node5</title>
<g id="a_edge4_Node000002_Node000005"><a xlink:title=" ">
<path fill="none" stroke="#63b8ff" d="M394.06,-52.06C360.8,-42.15 313.42,-28.04 283.32,-19.08"/>
<polygon fill="#63b8ff" stroke="#63b8ff" points="393.32,-55.49 403.9,-54.98 395.32,-48.78 393.32,-55.49"/>
</a>
</g>
</g>
<!-- Node6 -->
<g id="Node000006" class="node">
<title>Node6</title>
<g id="a_Node000006"><a xlink:href="inference__build_8cxx.html" target="_top" xlink:title=" ">
<polygon fill="white" stroke="#666666" points="431.5,-19 319.5,-19 319.5,0 431.5,0 431.5,-19"/>
<text text-anchor="middle" x="375.5" y="-7" font-family="Helvetica,sans-Serif" font-size="10.00">inference_build.cxx</text>
</a>
</g>
</g>
<!-- Node2&#45;&gt;Node6 -->
<g id="edge5_Node000002_Node000006" class="edge">
<title>Node2&#45;&gt;Node6</title>
<g id="a_edge5_Node000002_Node000006"><a xlink:title=" ">
<path fill="none" stroke="#63b8ff" d="M415.88,-48.04C405.77,-38.64 393.22,-26.98 384.82,-19.17"/>
<polygon fill="#63b8ff" stroke="#63b8ff" points="413.64,-50.74 423.34,-54.98 418.4,-45.61 413.64,-50.74"/>
</a>
</g>
</g>
<!-- Node7 -->
<g id="Node000007" class="node">
<title>Node7</title>
<g id="a_Node000007"><a xlink:href="methods_8cxx.html" target="_top" xlink:title=" ">
<polygon fill="white" stroke="#666666" points="529.5,-19 449.5,-19 449.5,0 529.5,0 529.5,-19"/>
<text text-anchor="middle" x="489.5" y="-7" font-family="Helvetica,sans-Serif" font-size="10.00">methods.cxx</text>
</a>
</g>
</g>
<!-- Node2&#45;&gt;Node7 -->
<g id="edge6_Node000002_Node000007" class="edge">
<title>Node2&#45;&gt;Node7</title>
<g id="a_edge6_Node000002_Node000007"><a xlink:title=" ">
<path fill="none" stroke="#63b8ff" d="M449.12,-48.04C459.23,-38.64 471.78,-26.98 480.18,-19.17"/>
<polygon fill="#63b8ff" stroke="#63b8ff" points="446.6,-45.61 441.66,-54.98 451.36,-50.74 446.6,-45.61"/>
</a>
</g>
</g>
<!-- Node8 -->
<g id="Node000008" class="node">
<title>Node8</title>
<g id="a_Node000008"><a xlink:href="metric__build_8cxx.html" target="_top" xlink:title=" ">
<polygon fill="white" stroke="#666666" points="645.5,-19 547.5,-19 547.5,0 645.5,0 645.5,-19"/>
<text text-anchor="middle" x="596.5" y="-7" font-family="Helvetica,sans-Serif" font-size="10.00">metric_build.cxx</text>
</a>
</g>
</g>
<!-- Node2&#45;&gt;Node8 -->
<g id="edge7_Node000002_Node000008" class="edge">
<title>Node2&#45;&gt;Node8</title>
<g id="a_edge7_Node000002_Node000008"><a xlink:title=" ">
<path fill="none" stroke="#63b8ff" d="M468.71,-51.8C499.32,-41.91 542.45,-27.97 569.94,-19.08"/>
<polygon fill="#63b8ff" stroke="#63b8ff" points="467.29,-48.58 458.85,-54.98 469.44,-55.24 467.29,-48.58"/>
</a>
</g>
</g>
<!-- Node9 -->
<g id="Node000009" class="node">
<title>Node9</title>
<g id="a_Node000009"><a xlink:href="optimizer__build_8cxx.html" target="_top" xlink:title="Implementation of model session creation and management in the analysis class.">
<polygon fill="white" stroke="#666666" points="777,-19 664,-19 664,0 777,0 777,-19"/>
<text text-anchor="middle" x="720.5" y="-7" font-family="Helvetica,sans-Serif" font-size="10.00">optimizer_build.cxx</text>
</a>
</g>
</g>
<!-- Node2&#45;&gt;Node9 -->
<g id="edge8_Node000002_Node000009" class="edge">
<title>Node2&#45;&gt;Node9</title>
<g id="a_edge8_Node000002_Node000009"><a xlink:title=" ">
<path fill="none" stroke="#63b8ff" d="M475.69,-55.55C529.01,-45.74 619.34,-29.12 674.1,-19.04"/>
<polygon fill="#63b8ff" stroke="#63b8ff" points="474.74,-52.17 465.54,-57.42 476.01,-59.05 474.74,-52.17"/>
</a>
</g>
</g>
<!-- Node10 -->
<g id="Node000010" class="node">
<title>Node10</title>
<g id="a_Node000010"><a xlink:href="selection__build_8cxx.html" target="_top" xlink:title=" ">
<polygon fill="white" stroke="#666666" points="905.5,-19 795.5,-19 795.5,0 905.5,0 905.5,-19"/>
<text text-anchor="middle" x="850.5" y="-7" font-family="Helvetica,sans-Serif" font-size="10.00">selection_build.cxx</text>
</a>
</g>
</g>
<!-- Node2&#45;&gt;Node10 -->
<g id="edge9_Node000002_Node000010" class="edge">
<title>Node2&#45;&gt;Node10</title>
<g id="a_edge9_Node000002_Node000010"><a xlink:title=" ">
<path fill="none" stroke="#63b8ff" d="M475.71,-58.12C542.26,-49.82 673.84,-33.34 785.5,-19 788.66,-18.59 791.91,-18.18 795.18,-17.75"/>
<polygon fill="#63b8ff" stroke="#63b8ff" points="475.09,-54.67 465.6,-59.38 475.96,-61.61 475.09,-54.67"/>
</a>
</g>
</g>
<!-- Node11&#45;&gt;Node2 -->
<g id="edge11_Node000011_Node000002" class="edge">
<title>Node11&#45;&gt;Node2</title>
<g id="a_edge11_Node000011_Node000002"><a xlink:title=" ">
<path fill="none" stroke="#63b8ff" d="M319.77,-220.68C241.44,-206.13 101.34,-170.72 153.5,-110 188.07,-69.76 337.24,-83.15 389.5,-74 392.65,-73.45 395.92,-72.85 399.19,-72.23"/>
<polygon fill="#63b8ff" stroke="#63b8ff" points="319.46,-224.18 329.92,-222.52 320.71,-217.29 319.46,-224.18"/>
</a>
</g>
</g>
<!-- Node12 -->
<g id="Node000012" class="node">
<title>Node12</title>
<g id="a_Node000012"><a xlink:href="cache_8cxx.html" target="_top" xlink:title=" ">
<polygon fill="white" stroke="#666666" points="489,-184 424,-184 424,-165 489,-165 489,-184"/>
<text text-anchor="middle" x="456.5" y="-172" font-family="Helvetica,sans-Serif" font-size="10.00">cache.cxx</text>
</a>
</g>
</g>
<!-- Node11&#45;&gt;Node12 -->
<g id="edge12_Node000011_Node000012" class="edge">
<title>Node11&#45;&gt;Node12</title>
<g id="a_edge12_Node000011_Node000012"><a xlink:title=" ">
<path fill="none" stroke="#63b8ff" d="M391.42,-214.7C407.45,-205.04 428.37,-192.44 442.1,-184.17"/>
<polygon fill="#63b8ff" stroke="#63b8ff" points="389.4,-211.83 382.64,-219.98 393.01,-217.82 389.4,-211.83"/>
</a>
</g>
</g>
<!-- Node13 -->
<g id="Node000013" class="node">
<title>Node13</title>
<g id="a_Node000013"><a xlink:href="container_8h.html" target="_top" xlink:title=" ">
<polygon fill="white" stroke="#666666" points="313,-184 242,-184 242,-165 313,-165 313,-184"/>
<text text-anchor="middle" x="277.5" y="-172" font-family="Helvetica,sans-Serif" font-size="10.00">container.h</text>
</a>
</g>
</g>
<!-- Node11&#45;&gt;Node13 -->
<g id="edge13_Node000011_Node000013" class="edge">
<title>Node11&#45;&gt;Node13</title>
<g id="a_edge13_Node000011_Node000013"><a xlink:title=" ">
<path fill="none" stroke="#63b8ff" d="M344.8,-214.7C328.22,-205.04 306.59,-192.44 292.39,-184.17"/>
<polygon fill="#63b8ff" stroke="#63b8ff" points="343.48,-217.98 353.88,-219.98 347,-211.93 343.48,-217.98"/>
</a>
</g>
</g>
<!-- Node18 -->
<g id="Node000018" class="node">
<title>Node18</title>
<g id="a_Node000018"><a xlink:href="dataloader_8cxx.html" target="_top" xlink:title=" ">
<polygon fill="white" stroke="#666666" points="144,-184 55,-184 55,-165 144,-165 144,-184"/>
<text text-anchor="middle" x="99.5" y="-172" font-family="Helvetica,sans-Serif" font-size="10.00">dataloader.cxx</text>
</a>
</g>
</g>
<!-- Node11&#45;&gt;Node18 -->
<g id="edge19_Node000011_Node000018" class="edge">
<title>Node11&#45;&gt;Node18</title>
<g id="a_edge19_Node000011_Node000018"><a xlink:title=" ">
<path fill="none" stroke="#63b8ff" d="M319.95,-218.93C269.5,-209 191.31,-193.59 142.87,-184.05"/>
<polygon fill="#63b8ff" stroke="#63b8ff" points="319.47,-222.41 329.96,-220.91 320.82,-215.54 319.47,-222.41"/>
</a>
</g>
</g>
<!-- Node19 -->
<g id="Node000019" class="node">
<title>Node19</title>
<g id="a_Node000019"><a xlink:href="dataset_8cxx.html" target="_top" xlink:title=" ">
<polygon fill="white" stroke="#666666" points="405.5,-184 331.5,-184 331.5,-165 405.5,-165 405.5,-184"/>
<text text-anchor="middle" x="368.5" y="-172" font-family="Helvetica,sans-Serif" font-size="10.00">dataset.cxx</text>
</a>
</g>
</g>
<!-- Node11&#45;&gt;Node19 -->
<g id="edge20_Node000011_Node000019" class="edge">
<title>Node11&#45;&gt;Node19</title>
<g id="a_edge20_Node000011_Node000019"><a xlink:title=" ">
<path fill="none" stroke="#63b8ff" d="M368.5,-209.66C368.5,-200.93 368.5,-190.99 368.5,-184.09"/>
<polygon fill="#63b8ff" stroke="#63b8ff" points="365,-209.75 368.5,-219.75 372,-209.75 365,-209.75"/>
</a>
</g>
</g>
<!-- Node11&#45;&gt;Node20 -->
<g id="edge21_Node000011_Node000020" class="edge">
<title>Node11&#45;&gt;Node20</title>
<g id="a_edge21_Node000011_Node000020"><a xlink:title=" ">
<path fill="none" stroke="#63b8ff" d="M406.07,-217.06C438.59,-207.15 484.9,-193.04 514.32,-184.08"/>
<polygon fill="#63b8ff" stroke="#63b8ff" points="405,-213.72 396.46,-219.98 407.04,-220.42 405,-213.72"/>
</a>
</g>
</g>
<!-- Node14 -->
<g id="Node000014" class="node">
<title>Node14</title>
<g id="a_Node000014"><a xlink:href="container_8cxx.html" target="_top" xlink:title=" ">
<polygon fill="white" stroke="#666666" points="244.5,-129 162.5,-129 162.5,-110 244.5,-110 244.5,-129"/>
<text text-anchor="middle" x="203.5" y="-117" font-family="Helvetica,sans-Serif" font-size="10.00">container.cxx</text>
</a>
</g>
</g>
<!-- Node13&#45;&gt;Node14 -->
<g id="edge14_Node000013_Node000014" class="edge">
<title>Node13&#45;&gt;Node14</title>
<g id="a_edge14_Node000013_Node000014"><a xlink:title=" ">
<path fill="none" stroke="#63b8ff" d="M257.47,-159.15C244.09,-149.57 226.94,-137.29 215.61,-129.17"/>
<polygon fill="#63b8ff" stroke="#63b8ff" points="255.44,-162.01 265.61,-164.98 259.52,-156.32 255.44,-162.01"/>
</a>
</g>
</g>
<!-- Node15 -->
<g id="Node000015" class="node">
<title>Node15</title>
<g id="a_Node000015"><a xlink:href="entries_8cxx.html" target="_top" xlink:title=" ">
<polygon fill="white" stroke="#666666" points="334,-129 263,-129 263,-110 334,-110 334,-129"/>
<text text-anchor="middle" x="298.5" y="-117" font-family="Helvetica,sans-Serif" font-size="10.00">entries.cxx</text>
</a>
</g>
</g>
<!-- Node13&#45;&gt;Node15 -->
<g id="edge15_Node000013_Node000015" class="edge">
<title>Node13&#45;&gt;Node15</title>
<g id="a_edge15_Node000013_Node000015"><a xlink:title=" ">
<path fill="none" stroke="#63b8ff" d="M284.74,-155.24C288.25,-146.37 292.3,-136.14 295.1,-129.09"/>
<polygon fill="#63b8ff" stroke="#63b8ff" points="281.4,-154.16 280.97,-164.75 287.91,-156.74 281.4,-154.16"/>
</a>
</g>
</g>
<!-- Node16 -->
<g id="Node000016" class="node">
<title>Node16</title>
<g id="a_Node000016"><a xlink:href="sampletracer_8h.html" target="_top" xlink:title=" ">
<polygon fill="white" stroke="#666666" points="441,-129 352,-129 352,-110 441,-110 441,-129"/>
<text text-anchor="middle" x="396.5" y="-117" font-family="Helvetica,sans-Serif" font-size="10.00">sampletracer.h</text>
</a>
</g>
</g>
<!-- Node13&#45;&gt;Node16 -->
<g id="edge16_Node000013_Node000016" class="edge">
<title>Node13&#45;&gt;Node16</title>
<g id="a_edge16_Node000013_Node000016"><a xlink:title=" ">
<path fill="none" stroke="#63b8ff" d="M305.8,-160.9C327.78,-151.11 357.68,-137.79 377.03,-129.17"/>
<polygon fill="#63b8ff" stroke="#63b8ff" points="304.33,-157.72 296.62,-164.98 307.18,-164.11 304.33,-157.72"/>
</a>
</g>
</g>
<!-- Node16&#45;&gt;Node2 -->
<g id="edge17_Node000016_Node000002" class="edge">
<title>Node16&#45;&gt;Node2</title>
<g id="a_edge17_Node000016_Node000002"><a xlink:title=" ">
<path fill="none" stroke="#63b8ff" d="M408.12,-101.39C414.32,-92.27 421.67,-81.45 426.67,-74.09"/>
<polygon fill="#63b8ff" stroke="#63b8ff" points="405.17,-99.51 402.44,-109.75 410.96,-103.44 405.17,-99.51"/>
</a>
</g>
</g>
<!-- Node17 -->
<g id="Node000017" class="node">
<title>Node17</title>
<g id="a_Node000017"><a xlink:href="sampletracer_8cxx.html" target="_top" xlink:title="Implementation of the sampletracer class for parallel data processing.">
<polygon fill="white" stroke="#666666" points="381,-74 280,-74 280,-55 381,-55 381,-74"/>
<text text-anchor="middle" x="330.5" y="-62" font-family="Helvetica,sans-Serif" font-size="10.00">sampletracer.cxx</text>
</a>
</g>
</g>
<!-- Node16&#45;&gt;Node17 -->
<g id="edge18_Node000016_Node000017" class="edge">
<title>Node16&#45;&gt;Node17</title>
<g id="a_edge18_Node000016_Node000017"><a xlink:title=" ">
<path fill="none" stroke="#63b8ff" d="M377.95,-103.6C366.12,-94.11 351.21,-82.13 341.3,-74.17"/>
<polygon fill="#63b8ff" stroke="#63b8ff" points="375.91,-106.45 385.9,-109.98 380.29,-100.99 375.91,-106.45"/>
</a>
</g>
</g>
<!-- Node20&#45;&gt;Node2 -->
<g id="edge22_Node000020_Node000002" class="edge">
<title>Node20&#45;&gt;Node2</title>
<g id="a_edge22_Node000020_Node000002"><a xlink:title=" ">
<path fill="none" stroke="#63b8ff" d="M522.73,-158.45C512.22,-150.14 499.28,-139.42 488.5,-129 469.48,-110.61 449.52,-86.69 439.35,-74.1"/>
<polygon fill="#63b8ff" stroke="#63b8ff" points="520.84,-161.41 530.88,-164.8 525.14,-155.89 520.84,-161.41"/>
</a>
</g>
</g>
<!-- Node21 -->
<g id="Node000021" class="node">
<title>Node21</title>
<g id="a_Node000021"><a xlink:href="optimizer_2cxx_2optimizer_8cxx.html" target="_top" xlink:title=" ">
<polygon fill="white" stroke="#666666" points="581,-129 498,-129 498,-110 581,-110 581,-129"/>
<text text-anchor="middle" x="539.5" y="-117" font-family="Helvetica,sans-Serif" font-size="10.00">optimizer.cxx</text>
</a>
</g>
</g>
<!-- Node20&#45;&gt;Node21 -->
<g id="edge23_Node000020_Node000021" class="edge">
<title>Node20&#45;&gt;Node21</title>
<g id="a_edge23_Node000020_Node000021"><a xlink:title=" ">
<path fill="none" stroke="#63b8ff" d="M541.43,-154.66C540.94,-145.93 540.38,-135.99 539.99,-129.09"/>
<polygon fill="#63b8ff" stroke="#63b8ff" points="537.94,-154.96 542,-164.75 544.93,-154.57 537.94,-154.96"/>
</a>
</g>
</g>
<!-- Node22&#45;&gt;Node2 -->
<g id="edge25_Node000022_Node000002" class="edge">
<title>Node22&#45;&gt;Node2</title>
<g id="a_edge25_Node000022_Node000002"><a xlink:title=" ">
<path fill="none" stroke="#63b8ff" d="M630.5,-209.96C622.12,-180.24 604.7,-123.83 589.5,-110 555.24,-78.82 500.7,-69.32 465.76,-66.52"/>
<polygon fill="#63b8ff" stroke="#63b8ff" points="627.21,-211.2 633.24,-219.91 633.95,-209.34 627.21,-211.2"/>
</a>
</g>
</g>
<!-- Node22&#45;&gt;Node12 -->
<g id="edge26_Node000022_Node000012" class="edge">
<title>Node22&#45;&gt;Node12</title>
<g id="a_edge26_Node000022_Node000012"><a xlink:title=" ">
<path fill="none" stroke="#63b8ff" d="M607.73,-220.28C574.49,-210.44 519.13,-194.04 485.4,-184.06"/>
<polygon fill="#63b8ff" stroke="#63b8ff" points="607.1,-223.74 617.68,-223.22 609.09,-217.03 607.1,-223.74"/>
</a>
</g>
</g>
<!-- Node22&#45;&gt;Node19 -->
<g id="edge27_Node000022_Node000019" class="edge">
<title>Node22&#45;&gt;Node19</title>
<g id="a_edge27_Node000022_Node000019"><a xlink:title=" ">
<path fill="none" stroke="#63b8ff" d="M607.96,-223.03C559.68,-213.45 459.78,-193.62 405.52,-182.85"/>
<polygon fill="#63b8ff" stroke="#63b8ff" points="607.49,-226.51 617.98,-225.02 608.85,-219.64 607.49,-226.51"/>
</a>
</g>
</g>
<!-- Node23 -->
<g id="Node000023" class="node">
<title>Node23</title>
<g id="a_Node000023"><a xlink:href="hdf5_8cxx.html" target="_top" xlink:title=" ">
<polygon fill="white" stroke="#666666" points="694,-184 635,-184 635,-165 694,-165 694,-184"/>
<text text-anchor="middle" x="664.5" y="-172" font-family="Helvetica,sans-Serif" font-size="10.00">hdf5.cxx</text>
</a>
</g>
</g>
<!-- Node22&#45;&gt;Node23 -->
<g id="edge28_Node000022_Node000023" class="edge">
<title>Node22&#45;&gt;Node23</title>
<g id="a_edge28_Node000022_Node000023"><a xlink:title=" ">
<path fill="none" stroke="#63b8ff" d="M645.18,-210.82C650.1,-201.82 655.86,-191.29 659.8,-184.09"/>
<polygon fill="#63b8ff" stroke="#63b8ff" points="642.02,-209.3 640.29,-219.75 648.16,-212.66 642.02,-209.3"/>
</a>
</g>
</g>
<!-- Node24 -->
<g id="Node000024" class="node">
<title>Node24</title>
<g id="a_Node000024"><a xlink:href="io_2cxx_2io_8cxx.html" target="_top" xlink:title="Implementation of the io class methods.">
<polygon fill="white" stroke="#666666" points="758.5,-184 712.5,-184 712.5,-165 758.5,-165 758.5,-184"/>
<text text-anchor="middle" x="735.5" y="-172" font-family="Helvetica,sans-Serif" font-size="10.00">io.cxx</text>
</a>
</g>
</g>
<!-- Node22&#45;&gt;Node24 -->
<g id="edge29_Node000022_Node000024" class="edge">
<title>Node22&#45;&gt;Node24</title>
<g id="a_edge29_Node000022_Node000024"><a xlink:title=" ">
<path fill="none" stroke="#63b8ff" d="M660.53,-215.23C678.87,-205.51 703.24,-192.6 719.14,-184.17"/>
<polygon fill="#63b8ff" stroke="#63b8ff" points="658.76,-212.21 651.57,-219.98 662.04,-218.39 658.76,-212.21"/>
</a>
</g>
</g>
<!-- Node25 -->
<g id="Node000025" class="node">
<title>Node25</title>
<g id="a_Node000025"><a xlink:href="io_2cxx_2root_8cxx.html" target="_top" xlink:title=" ">
<polygon fill="white" stroke="#666666" points="832.5,-184 776.5,-184 776.5,-165 832.5,-165 832.5,-184"/>
<text text-anchor="middle" x="804.5" y="-172" font-family="Helvetica,sans-Serif" font-size="10.00">root.cxx</text>
</a>
</g>
</g>
<!-- Node22&#45;&gt;Node25 -->
<g id="edge30_Node000022_Node000025" class="edge">
<title>Node22&#45;&gt;Node25</title>
<g id="a_edge30_Node000022_Node000025"><a xlink:title=" ">
<path fill="none" stroke="#63b8ff" d="M663.15,-219.83C694.68,-209.94 745.91,-193.87 777.27,-184.04"/>
<polygon fill="#63b8ff" stroke="#63b8ff" points="661.76,-216.6 653.27,-222.93 663.86,-223.28 661.76,-216.6"/>
</a>
</g>
</g>
<!-- Node26 -->
<g id="Node000026" class="node">
<title>Node26</title>
<g id="a_Node000026"><a xlink:href="types_8cxx.html" target="_top" xlink:title=" ">
<polygon fill="white" stroke="#666666" points="914.5,-184 850.5,-184 850.5,-165 914.5,-165 914.5,-184"/>
<text text-anchor="middle" x="882.5" y="-172" font-family="Helvetica,sans-Serif" font-size="10.00">types.cxx</text>
</a>
</g>
</g>
<!-- Node22&#45;&gt;Node26 -->
<g id="edge31_Node000022_Node000026" class="edge">
<title>Node22&#45;&gt;Node26</title>
<g id="a_edge31_Node000022_Node000026"><a xlink:title=" ">
<path fill="none" stroke="#63b8ff" d="M663.13,-222.57C709.12,-212.7 801.14,-192.96 850.11,-182.45"/>
<polygon fill="#63b8ff" stroke="#63b8ff" points="662.31,-219.17 653.26,-224.69 663.78,-226.01 662.31,-219.17"/>
</a>
</g>
</g>
<!-- Node27&#45;&gt;Node20 -->
<g id="edge36_Node000027_Node000020" class="edge">
<title>Node27&#45;&gt;Node20</title>
<g id="a_edge36_Node000027_Node000020"><a xlink:title=" ">
<path fill="none" stroke="#63b8ff" d="M934.36,-223.46C849.81,-213.11 657.78,-189.61 578.14,-179.86"/>
<polygon fill="#63b8ff" stroke="#63b8ff" points="934.01,-226.95 944.36,-224.69 934.86,-220 934.01,-226.95"/>
</a>
</g>
</g>
<!-- Node28 -->
<g id="Node000028" class="node">
<title>Node28</title>
<g id="a_Node000028"><a xlink:href="loss__plots_8cxx.html" target="_top" xlink:title=" ">
<polygon fill="white" stroke="#666666" points="1018.5,-184 932.5,-184 932.5,-165 1018.5,-165 1018.5,-184"/>
<text text-anchor="middle" x="975.5" y="-172" font-family="Helvetica,sans-Serif" font-size="10.00">loss_plots.cxx</text>
</a>
</g>
</g>
<!-- Node27&#45;&gt;Node28 -->
<g id="edge33_Node000027_Node000028" class="edge">
<title>Node27&#45;&gt;Node28</title>
<g id="a_edge33_Node000027_Node000028"><a xlink:title=" ">
<path fill="none" stroke="#63b8ff" d="M975.5,-209.66C975.5,-200.93 975.5,-190.99 975.5,-184.09"/>
<polygon fill="#63b8ff" stroke="#63b8ff" points="972,-209.75 975.5,-219.75 979,-209.75 972,-209.75"/>
</a>
</g>
</g>
<!-- Node29 -->
<g id="Node000029" class="node">
<title>Node29</title>
<g id="a_Node000029"><a xlink:href="mass__plots_8cxx.html" target="_top" xlink:title="Implements mass plot generation and related utilities.">
<polygon fill="white" stroke="#666666" points="1128.5,-184 1036.5,-184 1036.5,-165 1128.5,-165 1128.5,-184"/>
<text text-anchor="middle" x="1082.5" y="-172" font-family="Helvetica,sans-Serif" font-size="10.00">mass_plots.cxx</text>
</a>
</g>
</g>
<!-- Node27&#45;&gt;Node29 -->
<g id="edge34_Node000027_Node000029" class="edge">
<title>Node27&#45;&gt;Node29</title>
<g id="a_edge34_Node000027_Node000029"><a xlink:title=" ">
<path fill="none" stroke="#63b8ff" d="M1001.74,-215.5C1021.43,-205.75 1047.82,-192.68 1065,-184.17"/>
<polygon fill="#63b8ff" stroke="#63b8ff" points="1000.1,-212.41 992.69,-219.98 1003.21,-218.68 1000.1,-212.41"/>
</a>
</g>
</g>
<!-- Node30 -->
<g id="Node000030" class="node">
<title>Node30</title>
<g id="a_Node000030"><a xlink:href="metrics_8cxx.html" target="_top" xlink:title="Implementation of the metrics class methods.">
<polygon fill="white" stroke="#666666" points="1220.5,-184 1146.5,-184 1146.5,-165 1220.5,-165 1220.5,-184"/>
<text text-anchor="middle" x="1183.5" y="-172" font-family="Helvetica,sans-Serif" font-size="10.00">metrics.cxx</text>
</a>
</g>
</g>
<!-- Node27&#45;&gt;Node30 -->
<g id="edge35_Node000027_Node000030" class="edge">
<title>Node27&#45;&gt;Node30</title>
<g id="a_edge35_Node000027_Node000030"><a xlink:title=" ">
<path fill="none" stroke="#63b8ff" d="M1016.63,-218.02C1055.72,-208.06 1113.77,-193.27 1150.08,-184.02"/>
<polygon fill="#63b8ff" stroke="#63b8ff" points="1015.47,-214.7 1006.64,-220.57 1017.19,-221.49 1015.47,-214.7"/>
</a>
</g>
</g>
</g>
</svg>

<g id="navigator" transform="translate(0 0)" fill="#404254">
  <rect fill="#f2f5e9" fill-opacity="0.5" stroke="#606060" stroke-width=".5" x="0" y="0" width="60" height="60"/>
  <use id="zoomplus" xlink:href="#zoomPlus" x="17" y="9" onmousedown="handleZoom(evt,'in')"/>
  <use id="zoomminus" xlink:href="#zoomMin" x="42" y="9" onmousedown="handleZoom(evt,'out')"/>
  <use id="reset" xlink:href="#resetDef" x="30" y="36" onmousedown="handleReset()"/>
   <use id="arrowup" xlink:href="#arrowUp" x="0" y="0" onmousedown="handlePan(0,-1)"/>
  <use id="arrowright" xlink:href="#arrowRight" x="0" y="0" onmousedown="handlePan(1,0)"/>
  <use id="arrowdown" xlink:href="#arrowDown" x="0" y="0" onmousedown="handlePan(0,1)"/>
  <use id="arrowleft" xlink:href="#arrowLeft" x="0" y="0" onmousedown="handlePan(-1,0)"/>
</g>
<svg viewBox="0 0 15 15" width="100%" height="30px" preserveAspectRatio="xMaxYMin meet">
 <g id="arrow_out" transform="scale(0.3 0.3)">
  <a xlink:href="settings_8h__dep__incl_org.svg" target="_base">
   <rect id="button" ry="5" rx="5" y="6" x="6" height="38" width="38"
        fill="#f2f5e9" fill-opacity="0.5" stroke="#606060" stroke-width="1.0"/>
   <path id="arrow"
     d="M 11.500037,31.436501 C 11.940474,20.09759 22.043105,11.32322 32.158766,21.979434 L 37.068811,17.246167 C 37.068811,17.246167 37.088388,32 37.088388,32 L 22.160133,31.978069 C 22.160133,31.978069 26.997745,27.140456 26.997745,27.140456 C 18.528582,18.264221 13.291696,25.230495 11.500037,31.436501 z"
     style="fill:#404040;"/>
  </a>
 </g>
</svg>

<style type='text/css'>
<![CDATA[
[data-mouse-over-selected='false'] { opacity: 0.7; }
[data-mouse-over-selected='true']  { opacity: 1.0; }
]]>
</style>
<script type="application/ecmascript"><![CDATA[
document.addEventListener('DOMContentLoaded', (event) => {
  highlightEdges();
  highlightAdjacentNodes();
});
]]></script>
</svg>
