<?xml version="1.0" encoding="UTF-8" standalone="no"?>
<!DOCTYPE svg PUBLIC "-//W3C//DTD SVG 1.1//EN"
 "http://www.w3.org/Graphics/SVG/1.1/DTD/svg11.dtd">
<!-- Generated by graphviz version 2.43.0 (0)
 -->
<!-- Title: graph_t::get_edge_index Pages: 1 -->
<svg width="526pt" height="45pt"
 viewBox="0.00 0.00 526.00 45.00" xmlns="http://www.w3.org/2000/svg" xmlns:xlink="http://www.w3.org/1999/xlink">
<g id="graph0" class="graph" transform="scale(1 1) rotate(0) translate(4 41)">
<title>graph_t::get_edge_index</title>
<!-- Node1 -->
<g id="Node000001" class="node">
<title>Node1</title>
<g id="a_Node000001"><a xlink:title="Get edge index tensor.">
<polygon fill="#999999" stroke="#666666" points="137,-19 0,-19 0,0 137,0 137,-19"/>
<text text-anchor="middle" x="68.5" y="-7" font-family="Helvetica,sans-Serif" font-size="10.00">graph_t::get_edge_index</text>
</a>
</g>
</g>
<!-- Node2 -->
<g id="Node000002" class="node">
<title>Node2</title>
<g id="a_Node000002"><a xlink:href="structgraph__t.html#a9a07fbb8428e15bedd7fa89c8e1a1dc7" target="_top" xlink:title="Check if a feature exists and get its tensor.">
<polygon fill="white" stroke="#666666" points="290,-19 173,-19 173,0 290,0 290,-19"/>
<text text-anchor="middle" x="231.5" y="-7" font-family="Helvetica,sans-Serif" font-size="10.00">graph_t::has_feature</text>
</a>
</g>
</g>
<!-- Node1&#45;&gt;Node2 -->
<g id="edge1_Node000001_Node000002" class="edge">
<title>Node1&#45;&gt;Node2</title>
<g id="a_edge1_Node000001_Node000002"><a xlink:title=" ">
<path fill="none" stroke="#63b8ff" d="M137.31,-9.5C145.74,-9.5 154.36,-9.5 162.79,-9.5"/>
<polygon fill="#63b8ff" stroke="#63b8ff" points="162.96,-13 172.96,-9.5 162.96,-6 162.96,-13"/>
</a>
</g>
</g>
<!-- Node3 -->
<g id="Node000003" class="node">
<title>Node3</title>
<g id="a_Node000003"><a xlink:href="structgraph__t.html#a1e282caadefc079e39a6c29a8092325f" target="_top" xlink:title=" ">
<polygon fill="white" stroke="#666666" points="438,-19 326,-19 326,0 438,0 438,-19"/>
<text text-anchor="middle" x="382" y="-7" font-family="Helvetica,sans-Serif" font-size="10.00">graph_t::return_any</text>
</a>
</g>
</g>
<!-- Node2&#45;&gt;Node3 -->
<g id="edge2_Node000002_Node000003" class="edge">
<title>Node2&#45;&gt;Node3</title>
<g id="a_edge2_Node000002_Node000003"><a xlink:title=" ">
<path fill="none" stroke="#63b8ff" d="M290.34,-9.5C298.68,-9.5 307.3,-9.5 315.77,-9.5"/>
<polygon fill="#63b8ff" stroke="#63b8ff" points="315.99,-13 325.99,-9.5 315.99,-6 315.99,-13"/>
</a>
</g>
</g>
<!-- Node4 -->
<g id="Node000004" class="node">
<title>Node4</title>
<g id="a_Node000004"><a xlink:href="structs_2cxx_2base_8cxx.html#a4eee7b291ed2cdcd4e3c2496c603c48c" target="_top" xlink:title="Counts occurrences of a substring in a string.">
<polygon fill="white" stroke="#666666" points="518,-19 474,-19 474,0 518,0 518,-19"/>
<text text-anchor="middle" x="496" y="-7" font-family="Helvetica,sans-Serif" font-size="10.00">count</text>
</a>
</g>
</g>
<!-- Node3&#45;&gt;Node4 -->
<g id="edge3_Node000003_Node000004" class="edge">
<title>Node3&#45;&gt;Node4</title>
<g id="a_edge3_Node000003_Node000004"><a xlink:title=" ">
<path fill="none" stroke="#63b8ff" d="M438.02,-9.5C446.76,-9.5 455.54,-9.5 463.5,-9.5"/>
<polygon fill="#63b8ff" stroke="#63b8ff" points="463.76,-13 473.76,-9.5 463.76,-6 463.76,-13"/>
</a>
</g>
</g>
<!-- Node4&#45;&gt;Node4 -->
<g id="edge4_Node000004_Node000004" class="edge">
<title>Node4&#45;&gt;Node4</title>
<g id="a_edge4_Node000004_Node000004"><a xlink:title=" ">
<path fill="none" stroke="#63b8ff" d="M478.74,-19.08C470.34,-27.73 476.09,-37 496,-37 508.44,-37 515.35,-33.38 516.74,-28.55"/>
<polygon fill="#63b8ff" stroke="#63b8ff" points="519.99,-27.26 513.26,-19.08 513.42,-29.68 519.99,-27.26"/>
</a>
</g>
</g>
</g>
</svg>
