<?xml version="1.0" encoding="UTF-8" standalone="no"?>
<!DOCTYPE svg PUBLIC "-//W3C//DTD SVG 1.1//EN"
 "http://www.w3.org/Graphics/SVG/1.1/DTD/svg11.dtd">
<!-- Generated by graphviz version 2.43.0 (0)
 -->
<!-- Title: model_settings_t Pages: 1 -->
<!--zoomable 450 -->

<svg id="main" version="1.1" xmlns="http://www.w3.org/2000/svg" xmlns:xlink="http://www.w3.org/1999/xlink" xml:space="preserve" onload="init(evt)">
<style type="text/css"><![CDATA[
.node, .edge {opacity: 0.7;}
.node.selected, .edge.selected {opacity: 1;}
.edge:hover path { stroke: red; }
.edge:hover polygon { stroke: red; fill: red; }
]]></style>

<defs>
  <circle id="rim" cx="0" cy="0" r="7"/>
  <circle id="rim2" cx="0" cy="0" r="3.5"/>
  <g id="zoomPlus">
    <use xlink:href="#rim" fill="#404040"><set attributeName="fill" to="#808080" begin="zoomplus.mouseover" end="zoomplus.mouseout"/></use>
    <path d="M-4,0h8M0,-4v8" fill="none" stroke="white" stroke-width="1.5" pointer-events="none"/>
  </g>
  <g id="zoomMin">
    <use xlink:href="#rim" fill="#404040"><set attributeName="fill" to="#808080" begin="zoomminus.mouseover" end="zoomminus.mouseout"/></use>
    <path d="M-4,0h8" fill="none" stroke="white" stroke-width="1.5" pointer-events="none"/>
  </g>
  <g id="arrowUp" transform="translate(30 24)">
    <use xlink:href="#rim"/>
    <path pointer-events="none" fill="none" stroke="white" stroke-width="1.5" d="M0,-3.0v7 M-2.5,-0.5L0,-3.0L2.5,-0.5"/>
  </g>
  <g id="arrowRight" transform="rotate(90) translate(36 -43)">
    <use xlink:href="#rim"/>
    <path pointer-events="none" fill="none" stroke="white" stroke-width="1.5" d="M0,-3.0v7 M-2.5,-0.5L0,-3.0L2.5,-0.5"/>
  </g>
  <g id="arrowDown" transform="rotate(180) translate(-30 -48)">
    <use xlink:href="#rim"/>
    <path pointer-events="none" fill="none" stroke="white" stroke-width="1.5" d="M0,-3.0v7 M-2.5,-0.5L0,-3.0L2.5,-0.5"/>
  </g>
  <g id="arrowLeft" transform="rotate(270) translate(-36 17)">
    <use xlink:href="#rim"/>
    <path pointer-events="none" fill="none" stroke="white" stroke-width="1.5" d="M0,-3.0v7 M-2.5,-0.5L0,-3.0L2.5,-0.5"/>
  </g>
  <g id="resetDef">
    <use xlink:href="#rim2" fill="#404040"><set attributeName="fill" to="#808080" begin="reset.mouseover" end="reset.mouseout"/></use>
  </g>
</defs>
<script type="application/ecmascript">
var viewWidth = 853;
var viewHeight = 450;
var sectionId = 'dynsection-0';
</script>
<script type="application/ecmascript" xlink:href="svg.min.js"/>
<svg id="graph" class="graph">
<g id="viewport">
<title>model_settings_t</title>
<!-- Node1 -->
<g id="Node000001" class="node">
<title>Node1</title>
<g id="a_Node000001"><a xlink:title="Structure for storing model configuration settings.">
<polygon fill="#999999" stroke="transparent" points="369,-49 274,-49 274,0 369,0 369,-49"/>
<text text-anchor="start" x="279.5" y="-36.5" font-family="Helvetica,sans-Serif" font-size="10.00">model_settings_t</text>
<text text-anchor="start" x="320" y="-21.5" font-family="Helvetica,sans-Serif" font-size="10.00"> </text>
<text text-anchor="start" x="285" y="-6.5" font-family="Helvetica,sans-Serif" font-size="10.00">+</text>
<text text-anchor="start" x="304.5" y="-6.5" font-family="Helvetica,sans-Serif" font-size="10.00">validate()</text>
<polygon fill="#666666" stroke="#666666" points="274.5,-31.5 274.5,-31.5 369.5,-31.5 369.5,-31.5 274.5,-31.5"/>
<polygon fill="#666666" stroke="#666666" points="274.5,-16.5 274.5,-16.5 369.5,-16.5 369.5,-16.5 274.5,-16.5"/>
<polygon fill="none" stroke="#666666" points="274,0 274,-49 369,-49 369,0 274,0"/>
</a>
</g>
</g>
<!-- Node2 -->
<g id="Node000002" class="node">
<title>Node2</title>
<g id="a_Node000002"><a xlink:title=" ">
<polygon fill="white" stroke="transparent" points="59,-219.5 0,-219.5 0,-170.5 59,-170.5 59,-219.5"/>
<text text-anchor="start" x="5.5" y="-207" font-family="Helvetica,sans-Serif" font-size="10.00">opt_enum</text>
<text text-anchor="start" x="28" y="-192" font-family="Helvetica,sans-Serif" font-size="10.00"> </text>
<text text-anchor="start" x="28" y="-177" font-family="Helvetica,sans-Serif" font-size="10.00"> </text>
<polygon fill="#666666" stroke="#666666" points="0.5,-202 0.5,-202 59.5,-202 59.5,-202 0.5,-202"/>
<polygon fill="#666666" stroke="#666666" points="0.5,-187 0.5,-187 59.5,-187 59.5,-187 0.5,-187"/>
<polygon fill="none" stroke="#666666" points="0,-170.5 0,-219.5 59,-219.5 59,-170.5 0,-170.5"/>
</a>
</g>
</g>
<!-- Node2&#45;&gt;Node1 -->
<g id="edge1_Node000001_Node000002" class="edge">
<title>Node2&#45;&gt;Node1</title>
<g id="a_edge1_Node000001_Node000002"><a xlink:title=" ">
<path fill="none" stroke="#63b8ff" d="M21.41,-170.19C13.48,-141.96 5.83,-95.22 30.5,-67 59.93,-33.34 185.43,-26.32 261.68,-25.23"/>
<polygon fill="none" stroke="#63b8ff" points="261.94,-25.23 267.89,-21.17 273.94,-25.11 267.98,-29.17 261.94,-25.23"/>
</a>
</g>
<text text-anchor="middle" x="56.5" y="-103" font-family="Helvetica,sans-Serif" font-size="10.00" fill="grey"> +e_optim</text>
</g>
<!-- Node3 -->
<g id="Node000003" class="node">
<title>Node3</title>
<g id="a_Node000003"><a xlink:title=" ">
<polygon fill="white" stroke="transparent" points="341,-335 282,-335 282,-286 341,-286 341,-335"/>
<text text-anchor="start" x="287.5" y="-322.5" font-family="Helvetica,sans-Serif" font-size="10.00">std::string</text>
<text text-anchor="start" x="310" y="-307.5" font-family="Helvetica,sans-Serif" font-size="10.00"> </text>
<text text-anchor="start" x="310" y="-292.5" font-family="Helvetica,sans-Serif" font-size="10.00"> </text>
<polygon fill="#666666" stroke="#666666" points="282.5,-317.5 282.5,-317.5 341.5,-317.5 341.5,-317.5 282.5,-317.5"/>
<polygon fill="#666666" stroke="#666666" points="282.5,-302.5 282.5,-302.5 341.5,-302.5 341.5,-302.5 282.5,-302.5"/>
<polygon fill="none" stroke="#666666" points="282,-286 282,-335 341,-335 341,-286 282,-286"/>
</a>
</g>
</g>
<!-- Node3&#45;&gt;Node1 -->
<g id="edge2_Node000001_Node000003" class="edge">
<title>Node3&#45;&gt;Node1</title>
<g id="a_edge2_Node000001_Node000003"><a xlink:title=" ">
<path fill="none" stroke="#63b8ff" d="M281.98,-307.75C235.27,-303.2 145.5,-286.84 105.5,-228 89.01,-203.74 92.17,-188.13 105.5,-162 136.79,-100.65 209.58,-63.51 262.02,-43.78"/>
<polygon fill="none" stroke="#63b8ff" points="262.26,-43.69 266.53,-37.88 273.54,-39.59 269.26,-45.4 262.26,-43.69"/>
</a>
</g>
<text text-anchor="middle" x="169.5" y="-220" font-family="Helvetica,sans-Serif" font-size="10.00" fill="grey"> +model_checkpoint_path</text>
<text text-anchor="middle" x="169.5" y="-209" font-family="Helvetica,sans-Serif" font-size="10.00" fill="grey">+model_device</text>
<text text-anchor="middle" x="169.5" y="-198" font-family="Helvetica,sans-Serif" font-size="10.00" fill="grey">+model_name</text>
<text text-anchor="middle" x="169.5" y="-187" font-family="Helvetica,sans-Serif" font-size="10.00" fill="grey">+s_optim</text>
<text text-anchor="middle" x="169.5" y="-176" font-family="Helvetica,sans-Serif" font-size="10.00" fill="grey">+tree_name</text>
<text text-anchor="middle" x="169.5" y="-165" font-family="Helvetica,sans-Serif" font-size="10.00" fill="grey">+weight_name</text>
</g>
<!-- Node6 -->
<g id="Node000006" class="node">
<title>Node6</title>
<g id="a_Node000006"><a xlink:title=" ">
<polygon fill="white" stroke="transparent" points="545.5,-225 429.5,-225 429.5,-165 545.5,-165 545.5,-225"/>
<text text-anchor="start" x="434.5" y="-213" font-family="Helvetica,sans-Serif" font-size="10.00">std::map&lt; std::string,</text>
<text text-anchor="start" x="455.5" y="-202" font-family="Helvetica,sans-Serif" font-size="10.00"> std::string &gt;</text>
<text text-anchor="start" x="485.5" y="-187" font-family="Helvetica,sans-Serif" font-size="10.00"> </text>
<text text-anchor="start" x="485.5" y="-172" font-family="Helvetica,sans-Serif" font-size="10.00"> </text>
<polygon fill="#666666" stroke="#666666" points="429.5,-197 429.5,-197 545.5,-197 545.5,-197 429.5,-197"/>
<polygon fill="#666666" stroke="#666666" points="429.5,-182 429.5,-182 545.5,-182 545.5,-182 429.5,-182"/>
<polygon fill="none" stroke="#666666" points="429.5,-165 429.5,-225 545.5,-225 545.5,-165 429.5,-165"/>
</a>
</g>
</g>
<!-- Node3&#45;&gt;Node6 -->
<g id="edge6_Node000006_Node000003" class="edge">
<title>Node3&#45;&gt;Node6</title>
<g id="a_edge6_Node000006_Node000003"><a xlink:title=" ">
<path fill="none" stroke="#63b8ff" d="M341.16,-302C363.87,-295.37 395.31,-284.21 419.5,-268 421.64,-266.57 436.67,-250.7 452.06,-234.23"/>
<polygon fill="none" stroke="#63b8ff" points="452.38,-233.88 453.55,-226.77 460.56,-225.11 459.4,-232.22 452.38,-233.88"/>
</a>
</g>
<text text-anchor="middle" x="468.5" y="-260" font-family="Helvetica,sans-Serif" font-size="10.00" fill="grey"> +elements</text>
<text text-anchor="middle" x="468.5" y="-249" font-family="Helvetica,sans-Serif" font-size="10.00" fill="grey">+keys</text>
</g>
<!-- Node10 -->
<g id="Node000010" class="node">
<title>Node10</title>
<g id="a_Node000010"><a xlink:title=" ">
<polygon fill="white" stroke="transparent" points="717.5,-225 601.5,-225 601.5,-165 717.5,-165 717.5,-225"/>
<text text-anchor="start" x="606.5" y="-213" font-family="Helvetica,sans-Serif" font-size="10.00">std::map&lt; std::string,</text>
<text text-anchor="start" x="645.5" y="-202" font-family="Helvetica,sans-Serif" font-size="10.00"> int &gt;</text>
<text text-anchor="start" x="657.5" y="-187" font-family="Helvetica,sans-Serif" font-size="10.00"> </text>
<text text-anchor="start" x="657.5" y="-172" font-family="Helvetica,sans-Serif" font-size="10.00"> </text>
<polygon fill="#666666" stroke="#666666" points="601.5,-197 601.5,-197 717.5,-197 717.5,-197 601.5,-197"/>
<polygon fill="#666666" stroke="#666666" points="601.5,-182 601.5,-182 717.5,-182 717.5,-182 601.5,-182"/>
<polygon fill="none" stroke="#666666" points="601.5,-165 601.5,-225 717.5,-225 717.5,-165 601.5,-165"/>
</a>
</g>
</g>
<!-- Node3&#45;&gt;Node10 -->
<g id="edge11_Node000010_Node000003" class="edge">
<title>Node3&#45;&gt;Node10</title>
<g id="a_edge11_Node000010_Node000003"><a xlink:title=" ">
<path fill="none" stroke="#63b8ff" d="M341.2,-304.87C372.38,-300.04 422.86,-292.31 466.5,-286 524.67,-277.6 545.87,-296.08 597.5,-268 611.91,-260.16 624.47,-247.55 634.46,-235.06"/>
<polygon fill="none" stroke="#63b8ff" points="634.69,-234.75 635.1,-227.55 641.9,-225.16 641.49,-232.36 634.69,-234.75"/>
</a>
</g>
<text text-anchor="middle" x="640.5" y="-254.5" font-family="Helvetica,sans-Serif" font-size="10.00" fill="grey"> +keys</text>
</g>
<!-- Node12 -->
<g id="Node000012" class="node">
<title>Node12</title>
<g id="a_Node000012"><a xlink:title=" ">
<polygon fill="white" stroke="transparent" points="408.5,-225 292.5,-225 292.5,-165 408.5,-165 408.5,-225"/>
<text text-anchor="start" x="297.5" y="-213" font-family="Helvetica,sans-Serif" font-size="10.00">std::map&lt; std::string,</text>
<text text-anchor="start" x="332" y="-202" font-family="Helvetica,sans-Serif" font-size="10.00"> float &gt;</text>
<text text-anchor="start" x="348.5" y="-187" font-family="Helvetica,sans-Serif" font-size="10.00"> </text>
<text text-anchor="start" x="348.5" y="-172" font-family="Helvetica,sans-Serif" font-size="10.00"> </text>
<polygon fill="#666666" stroke="#666666" points="292.5,-197 292.5,-197 408.5,-197 408.5,-197 292.5,-197"/>
<polygon fill="#666666" stroke="#666666" points="292.5,-182 292.5,-182 408.5,-182 408.5,-182 292.5,-182"/>
<polygon fill="none" stroke="#666666" points="292.5,-165 292.5,-225 408.5,-225 408.5,-165 292.5,-165"/>
</a>
</g>
</g>
<!-- Node3&#45;&gt;Node12 -->
<g id="edge15_Node000012_Node000003" class="edge">
<title>Node3&#45;&gt;Node12</title>
<g id="a_edge15_Node000012_Node000003"><a xlink:title=" ">
<path fill="none" stroke="#63b8ff" d="M281.79,-291.98C265.15,-279.81 249.56,-262.8 259.5,-246 261.26,-243.03 270.1,-237.36 281.64,-230.88"/>
<polygon fill="none" stroke="#63b8ff" points="281.84,-230.77 285.18,-224.39 292.36,-225.02 289.02,-231.41 281.84,-230.77"/>
</a>
</g>
<text text-anchor="middle" x="276.5" y="-254.5" font-family="Helvetica,sans-Serif" font-size="10.00" fill="grey"> +keys</text>
</g>
<!-- Node4 -->
<g id="Node000004" class="node">
<title>Node4</title>
<g id="a_Node000004"><a xlink:title=" ">
<polygon fill="white" stroke="transparent" points="360.5,-442 262.5,-442 262.5,-382 360.5,-382 360.5,-442"/>
<text text-anchor="start" x="267.5" y="-430" font-family="Helvetica,sans-Serif" font-size="10.00">std::basic_string&lt;</text>
<text text-anchor="start" x="293" y="-419" font-family="Helvetica,sans-Serif" font-size="10.00"> Char &gt;</text>
<text text-anchor="start" x="309.5" y="-404" font-family="Helvetica,sans-Serif" font-size="10.00"> </text>
<text text-anchor="start" x="309.5" y="-389" font-family="Helvetica,sans-Serif" font-size="10.00"> </text>
<polygon fill="#666666" stroke="#666666" points="262.5,-414 262.5,-414 360.5,-414 360.5,-414 262.5,-414"/>
<polygon fill="#666666" stroke="#666666" points="262.5,-399 262.5,-399 360.5,-399 360.5,-399 262.5,-399"/>
<polygon fill="none" stroke="#666666" points="262.5,-382 262.5,-442 360.5,-442 360.5,-382 262.5,-382"/>
</a>
</g>
</g>
<!-- Node4&#45;&gt;Node3 -->
<g id="edge3_Node000003_Node000004" class="edge">
<title>Node4&#45;&gt;Node3</title>
<g id="a_edge3_Node000003_Node000004"><a xlink:title=" ">
<path fill="none" stroke="#63b8ff" d="M311.5,-371.8C311.5,-359.38 311.5,-346.03 311.5,-335.06"/>
<polygon fill="none" stroke="#63b8ff" points="308,-371.95 311.5,-381.95 315,-371.95 308,-371.95"/>
</a>
</g>
</g>
<!-- Node5 -->
<g id="Node000005" class="node">
<title>Node5</title>
<g id="a_Node000005"><a xlink:title=" ">
<polygon fill="white" stroke="transparent" points="274.5,-219.5 242.5,-219.5 242.5,-170.5 274.5,-170.5 274.5,-219.5"/>
<text text-anchor="start" x="247.5" y="-207" font-family="Helvetica,sans-Serif" font-size="10.00">bool</text>
<text text-anchor="start" x="256.5" y="-192" font-family="Helvetica,sans-Serif" font-size="10.00"> </text>
<text text-anchor="start" x="256.5" y="-177" font-family="Helvetica,sans-Serif" font-size="10.00"> </text>
<polygon fill="#666666" stroke="#666666" points="242.5,-202 242.5,-202 274.5,-202 274.5,-202 242.5,-202"/>
<polygon fill="#666666" stroke="#666666" points="242.5,-187 242.5,-187 274.5,-187 274.5,-187 242.5,-187"/>
<polygon fill="none" stroke="#666666" points="242.5,-170.5 242.5,-219.5 274.5,-219.5 274.5,-170.5 242.5,-170.5"/>
</a>
</g>
</g>
<!-- Node5&#45;&gt;Node1 -->
<g id="edge4_Node000001_Node000005" class="edge">
<title>Node5&#45;&gt;Node1</title>
<g id="a_edge4_Node000001_Node000005"><a xlink:title=" ">
<path fill="none" stroke="#63b8ff" d="M249.93,-170.24C241.79,-143.32 233.25,-99.04 251.5,-67 254.78,-61.25 259.2,-56.21 264.24,-51.82"/>
<polygon fill="none" stroke="#63b8ff" points="264.27,-51.8 266.67,-44.99 273.87,-44.59 271.47,-51.39 264.27,-51.8"/>
</a>
</g>
<text text-anchor="middle" x="307.5" y="-103" font-family="Helvetica,sans-Serif" font-size="10.00" fill="grey"> +binary_classification</text>
</g>
<!-- Node6&#45;&gt;Node1 -->
<g id="edge5_Node000001_Node000006" class="edge">
<title>Node6&#45;&gt;Node1</title>
<g id="a_edge5_Node000001_Node000006"><a xlink:title=" ">
<path fill="none" stroke="#63b8ff" d="M487.4,-164.94C485.73,-136.39 478.76,-93.37 453.5,-67 434.64,-47.31 406.55,-36.92 381.12,-31.45"/>
<polygon fill="none" stroke="#63b8ff" points="381.08,-31.45 374.44,-34.26 369.29,-29.21 375.93,-26.4 381.08,-31.45"/>
</a>
</g>
<text text-anchor="middle" x="531.5" y="-136" font-family="Helvetica,sans-Serif" font-size="10.00" fill="grey"> +i_edge_features</text>
<text text-anchor="middle" x="531.5" y="-125" font-family="Helvetica,sans-Serif" font-size="10.00" fill="grey">+i_graph_features</text>
<text text-anchor="middle" x="531.5" y="-114" font-family="Helvetica,sans-Serif" font-size="10.00" fill="grey">+i_node_features</text>
<text text-anchor="middle" x="531.5" y="-103" font-family="Helvetica,sans-Serif" font-size="10.00" fill="grey">+model_strings</text>
<text text-anchor="middle" x="531.5" y="-92" font-family="Helvetica,sans-Serif" font-size="10.00" fill="grey">+o_edge_features</text>
<text text-anchor="middle" x="531.5" y="-81" font-family="Helvetica,sans-Serif" font-size="10.00" fill="grey">+o_graph_features</text>
<text text-anchor="middle" x="531.5" y="-70" font-family="Helvetica,sans-Serif" font-size="10.00" fill="grey">+o_node_features</text>
</g>
<!-- Node7 -->
<g id="Node000007" class="node">
<title>Node7</title>
<g id="a_Node000007"><a xlink:title=" ">
<polygon fill="white" stroke="transparent" points="570,-335 475,-335 475,-286 570,-286 570,-335"/>
<text text-anchor="start" x="480.5" y="-322.5" font-family="Helvetica,sans-Serif" font-size="10.00">std::map&lt; K, T &gt;</text>
<text text-anchor="start" x="521" y="-307.5" font-family="Helvetica,sans-Serif" font-size="10.00"> </text>
<text text-anchor="start" x="521" y="-292.5" font-family="Helvetica,sans-Serif" font-size="10.00"> </text>
<polygon fill="#666666" stroke="#666666" points="475.5,-317.5 475.5,-317.5 570.5,-317.5 570.5,-317.5 475.5,-317.5"/>
<polygon fill="#666666" stroke="#666666" points="475.5,-302.5 475.5,-302.5 570.5,-302.5 570.5,-302.5 475.5,-302.5"/>
<polygon fill="none" stroke="#666666" points="475,-286 475,-335 570,-335 570,-286 475,-286"/>
</a>
</g>
</g>
<!-- Node7&#45;&gt;Node6 -->
<g id="edge7_Node000006_Node000007" class="edge">
<title>Node7&#45;&gt;Node6</title>
<g id="a_edge7_Node000006_Node000007"><a xlink:title=" ">
<path fill="none" stroke="orange" d="M512.28,-276.35C507.28,-260.13 501.31,-240.78 496.48,-225.14"/>
<polygon fill="orange" stroke="orange" points="508.96,-277.46 515.25,-285.98 515.65,-275.4 508.96,-277.46"/>
</a>
</g>
<text text-anchor="start" x="508.5" y="-260" font-family="Helvetica,sans-Serif" font-size="10.00" fill="grey"> &lt; std::string, std</text>
<text text-anchor="middle" x="551" y="-249" font-family="Helvetica,sans-Serif" font-size="10.00" fill="grey">::string &gt;</text>
</g>
<!-- Node7&#45;&gt;Node10 -->
<g id="edge13_Node000010_Node000007" class="edge">
<title>Node7&#45;&gt;Node10</title>
<g id="a_edge13_Node000010_Node000007"><a xlink:title=" ">
<path fill="none" stroke="orange" d="M580.29,-299.97C615.2,-292.9 654.94,-282.06 665.5,-268 674.54,-255.96 673.79,-239.39 670.43,-225.18"/>
<polygon fill="orange" stroke="orange" points="579.27,-296.6 570.13,-301.95 580.61,-303.47 579.27,-296.6"/>
</a>
</g>
<text text-anchor="middle" x="719.5" y="-254.5" font-family="Helvetica,sans-Serif" font-size="10.00" fill="grey"> &lt; std::string, int &gt;</text>
</g>
<!-- Node7&#45;&gt;Node12 -->
<g id="edge17_Node000012_Node000007" class="edge">
<title>Node7&#45;&gt;Node12</title>
<g id="a_edge17_Node000012_Node000007"><a xlink:title=" ">
<path fill="none" stroke="orange" d="M464.63,-301.63C407.06,-293.22 325.93,-279.52 316.5,-268 306.17,-255.38 312.58,-239.09 322.5,-225.21"/>
<polygon fill="orange" stroke="orange" points="464.33,-305.13 474.73,-303.09 465.33,-298.2 464.33,-305.13"/>
</a>
</g>
<text text-anchor="middle" x="368" y="-254.5" font-family="Helvetica,sans-Serif" font-size="10.00" fill="grey"> &lt; std::string, float &gt;</text>
</g>
<!-- Node8 -->
<g id="Node000008" class="node">
<title>Node8</title>
<g id="a_Node000008"><a xlink:title=" ">
<polygon fill="white" stroke="transparent" points="571,-436.5 554,-436.5 554,-387.5 571,-387.5 571,-436.5"/>
<text text-anchor="start" x="559.5" y="-424" font-family="Helvetica,sans-Serif" font-size="10.00">K</text>
<text text-anchor="start" x="561" y="-409" font-family="Helvetica,sans-Serif" font-size="10.00"> </text>
<text text-anchor="start" x="561" y="-394" font-family="Helvetica,sans-Serif" font-size="10.00"> </text>
<polygon fill="#666666" stroke="#666666" points="554.5,-419 554.5,-419 571.5,-419 571.5,-419 554.5,-419"/>
<polygon fill="#666666" stroke="#666666" points="554.5,-404 554.5,-404 571.5,-404 571.5,-404 554.5,-404"/>
<polygon fill="none" stroke="#666666" points="554,-387.5 554,-436.5 571,-436.5 571,-387.5 554,-387.5"/>
</a>
</g>
</g>
<!-- Node8&#45;&gt;Node7 -->
<g id="edge8_Node000007_Node000008" class="edge">
<title>Node8&#45;&gt;Node7</title>
<g id="a_edge8_Node000007_Node000008"><a xlink:title=" ">
<path fill="none" stroke="#63b8ff" d="M553.97,-387.76C549.99,-377.12 545.12,-364.37 540.5,-353 539.61,-350.82 538.69,-348.58 537.74,-346.32"/>
<polygon fill="none" stroke="#63b8ff" points="537.68,-346.16 531.64,-342.21 532.97,-335.12 539,-339.07 537.68,-346.16"/>
</a>
</g>
<text text-anchor="middle" x="560.5" y="-356" font-family="Helvetica,sans-Serif" font-size="10.00" fill="grey"> +keys</text>
</g>
<!-- Node9 -->
<g id="Node000009" class="node">
<title>Node9</title>
<g id="a_Node000009"><a xlink:title=" ">
<polygon fill="white" stroke="transparent" points="490,-436.5 473,-436.5 473,-387.5 490,-387.5 490,-436.5"/>
<text text-anchor="start" x="478.5" y="-424" font-family="Helvetica,sans-Serif" font-size="10.00">T</text>
<text text-anchor="start" x="480" y="-409" font-family="Helvetica,sans-Serif" font-size="10.00"> </text>
<text text-anchor="start" x="480" y="-394" font-family="Helvetica,sans-Serif" font-size="10.00"> </text>
<polygon fill="#666666" stroke="#666666" points="473.5,-419 473.5,-419 490.5,-419 490.5,-419 473.5,-419"/>
<polygon fill="#666666" stroke="#666666" points="473.5,-404 473.5,-404 490.5,-404 490.5,-404 473.5,-404"/>
<polygon fill="none" stroke="#666666" points="473,-387.5 473,-436.5 490,-436.5 490,-387.5 473,-387.5"/>
</a>
</g>
</g>
<!-- Node9&#45;&gt;Node7 -->
<g id="edge9_Node000007_Node000009" class="edge">
<title>Node9&#45;&gt;Node7</title>
<g id="a_edge9_Node000007_Node000009"><a xlink:title=" ">
<path fill="none" stroke="#63b8ff" d="M475.59,-387.29C474.05,-376.43 473.91,-363.65 478.5,-353 479.74,-350.13 481.28,-347.37 483.04,-344.73"/>
<polygon fill="none" stroke="#63b8ff" points="483.22,-344.51 483.86,-337.33 490.74,-335.16 490.1,-342.35 483.22,-344.51"/>
</a>
</g>
<text text-anchor="middle" x="507.5" y="-356" font-family="Helvetica,sans-Serif" font-size="10.00" fill="grey"> +elements</text>
</g>
<!-- Node10&#45;&gt;Node1 -->
<g id="edge10_Node000001_Node000010" class="edge">
<title>Node10&#45;&gt;Node1</title>
<g id="a_edge10_Node000001_Node000010"><a xlink:title=" ">
<path fill="none" stroke="#63b8ff" d="M650.11,-164.9C638.93,-135.24 617.28,-90.37 582.5,-67 550.46,-45.47 447.77,-34.31 381.15,-29.19"/>
<polygon fill="none" stroke="#63b8ff" points="381.12,-29.19 374.85,-32.74 369.16,-28.31 375.44,-24.76 381.12,-29.19"/>
</a>
</g>
<text text-anchor="middle" x="683.5" y="-103" font-family="Helvetica,sans-Serif" font-size="10.00" fill="grey"> +model_integers</text>
</g>
<!-- Node11 -->
<g id="Node000011" class="node">
<title>Node11</title>
<g id="a_Node000011"><a xlink:title=" ">
<polygon fill="white" stroke="transparent" points="816,-335 793,-335 793,-286 816,-286 816,-335"/>
<text text-anchor="start" x="798.5" y="-322.5" font-family="Helvetica,sans-Serif" font-size="10.00">int</text>
<text text-anchor="start" x="803" y="-307.5" font-family="Helvetica,sans-Serif" font-size="10.00"> </text>
<text text-anchor="start" x="803" y="-292.5" font-family="Helvetica,sans-Serif" font-size="10.00"> </text>
<polygon fill="#666666" stroke="#666666" points="793.5,-317.5 793.5,-317.5 816.5,-317.5 816.5,-317.5 793.5,-317.5"/>
<polygon fill="#666666" stroke="#666666" points="793.5,-302.5 793.5,-302.5 816.5,-302.5 816.5,-302.5 793.5,-302.5"/>
<polygon fill="none" stroke="#666666" points="793,-286 793,-335 816,-335 816,-286 793,-286"/>
</a>
</g>
</g>
<!-- Node11&#45;&gt;Node10 -->
<g id="edge12_Node000010_Node000011" class="edge">
<title>Node11&#45;&gt;Node10</title>
<g id="a_edge12_Node000010_Node000011"><a xlink:title=" ">
<path fill="none" stroke="#63b8ff" d="M796.27,-285.94C790.7,-272.8 782.2,-256.92 770.5,-246 758.62,-234.91 743.86,-225.97 729.03,-218.89"/>
<polygon fill="none" stroke="#63b8ff" points="728.67,-218.73 721.56,-219.93 717.71,-213.83 724.82,-212.63 728.67,-218.73"/>
</a>
</g>
<text text-anchor="middle" x="815.5" y="-254.5" font-family="Helvetica,sans-Serif" font-size="10.00" fill="grey"> +elements</text>
</g>
<!-- Node12&#45;&gt;Node1 -->
<g id="edge14_Node000001_Node000012" class="edge">
<title>Node12&#45;&gt;Node1</title>
<g id="a_edge14_Node000001_Node000012"><a xlink:title=" ">
<path fill="none" stroke="#63b8ff" d="M362.98,-164.75C372.38,-138.16 381.46,-98.4 367.5,-67 366.24,-64.16 364.68,-61.44 362.9,-58.83"/>
<polygon fill="none" stroke="#63b8ff" points="362.77,-58.68 355.87,-56.6 355.14,-49.43 362.04,-51.51 362.77,-58.68"/>
</a>
</g>
<text text-anchor="middle" x="412" y="-103" font-family="Helvetica,sans-Serif" font-size="10.00" fill="grey"> +model_floats</text>
</g>
<!-- Node13 -->
<g id="Node000013" class="node">
<title>Node13</title>
<g id="a_Node000013"><a xlink:title=" ">
<polygon fill="white" stroke="transparent" points="39.5,-335 7.5,-335 7.5,-286 39.5,-286 39.5,-335"/>
<text text-anchor="start" x="12.5" y="-322.5" font-family="Helvetica,sans-Serif" font-size="10.00">float</text>
<text text-anchor="start" x="21.5" y="-307.5" font-family="Helvetica,sans-Serif" font-size="10.00"> </text>
<text text-anchor="start" x="21.5" y="-292.5" font-family="Helvetica,sans-Serif" font-size="10.00"> </text>
<polygon fill="#666666" stroke="#666666" points="7.5,-317.5 7.5,-317.5 39.5,-317.5 39.5,-317.5 7.5,-317.5"/>
<polygon fill="#666666" stroke="#666666" points="7.5,-302.5 7.5,-302.5 39.5,-302.5 39.5,-302.5 7.5,-302.5"/>
<polygon fill="none" stroke="#666666" points="7.5,-286 7.5,-335 39.5,-335 39.5,-286 7.5,-286"/>
</a>
</g>
</g>
<!-- Node13&#45;&gt;Node12 -->
<g id="edge16_Node000012_Node000013" class="edge">
<title>Node13&#45;&gt;Node12</title>
<g id="a_edge16_Node000012_Node000013"><a xlink:title=" ">
<path fill="none" stroke="#63b8ff" d="M39.62,-302.49C69.48,-289.72 135.63,-262.48 193.5,-246 229.36,-235.79 242.52,-239.97 280.87,-228.48"/>
<polygon fill="none" stroke="#63b8ff" points="280.96,-228.45 285.46,-222.82 292.39,-224.8 287.89,-230.44 280.96,-228.45"/>
</a>
</g>
<text text-anchor="middle" x="222.5" y="-254.5" font-family="Helvetica,sans-Serif" font-size="10.00" fill="grey"> +elements</text>
</g>
</g>
</svg>

<g id="navigator" transform="translate(0 0)" fill="#404254">
  <rect fill="#f2f5e9" fill-opacity="0.5" stroke="#606060" stroke-width=".5" x="0" y="0" width="60" height="60"/>
  <use id="zoomplus" xlink:href="#zoomPlus" x="17" y="9" onmousedown="handleZoom(evt,'in')"/>
  <use id="zoomminus" xlink:href="#zoomMin" x="42" y="9" onmousedown="handleZoom(evt,'out')"/>
  <use id="reset" xlink:href="#resetDef" x="30" y="36" onmousedown="handleReset()"/>
   <use id="arrowup" xlink:href="#arrowUp" x="0" y="0" onmousedown="handlePan(0,-1)"/>
  <use id="arrowright" xlink:href="#arrowRight" x="0" y="0" onmousedown="handlePan(1,0)"/>
  <use id="arrowdown" xlink:href="#arrowDown" x="0" y="0" onmousedown="handlePan(0,1)"/>
  <use id="arrowleft" xlink:href="#arrowLeft" x="0" y="0" onmousedown="handlePan(-1,0)"/>
</g>
<svg viewBox="0 0 15 15" width="100%" height="30px" preserveAspectRatio="xMaxYMin meet">
 <g id="arrow_out" transform="scale(0.3 0.3)">
  <a xlink:href="structmodel__settings__t__coll__graph_org.svg" target="_base">
   <rect id="button" ry="5" rx="5" y="6" x="6" height="38" width="38"
        fill="#f2f5e9" fill-opacity="0.5" stroke="#606060" stroke-width="1.0"/>
   <path id="arrow"
     d="M 11.500037,31.436501 C 11.940474,20.09759 22.043105,11.32322 32.158766,21.979434 L 37.068811,17.246167 C 37.068811,17.246167 37.088388,32 37.088388,32 L 22.160133,31.978069 C 22.160133,31.978069 26.997745,27.140456 26.997745,27.140456 C 18.528582,18.264221 13.291696,25.230495 11.500037,31.436501 z"
     style="fill:#404040;"/>
  </a>
 </g>
</svg>

<style type='text/css'>
<![CDATA[
[data-mouse-over-selected='false'] { opacity: 0.7; }
[data-mouse-over-selected='true']  { opacity: 1.0; }
]]>
</style>
<script type="application/ecmascript"><![CDATA[
document.addEventListener('DOMContentLoaded', (event) => {
  highlightEdges();
  highlightAdjacentNodes();
});
]]></script>
</svg>
