<?xml version="1.0" encoding="UTF-8" standalone="no"?>
<!DOCTYPE svg PUBLIC "-//W3C//DTD SVG 1.1//EN"
 "http://www.w3.org/Graphics/SVG/1.1/DTD/svg11.dtd">
<!-- Generated by graphviz version 2.43.0 (0)
 -->
<!-- Title: data_t Pages: 1 -->
<svg width="975pt" height="536pt"
 viewBox="0.00 0.00 974.57 536.00" xmlns="http://www.w3.org/2000/svg" xmlns:xlink="http://www.w3.org/1999/xlink">
<g id="graph0" class="graph" transform="scale(1 1) rotate(0) translate(4 532)">
<title>data_t</title>
<!-- Node1 -->
<g id="Node000001" class="node">
<title>Node1</title>
<g id="a_Node000001"><a xlink:title=" ">
<polygon fill="#999999" stroke="transparent" points="489.57,-154 401.57,-154 401.57,0 489.57,0 489.57,-154"/>
<text text-anchor="start" x="430.07" y="-142" font-family="Helvetica,sans-Serif" font-size="10.00">data_t</text>
<text text-anchor="start" x="443.57" y="-127" font-family="Helvetica,sans-Serif" font-size="10.00"> </text>
<text text-anchor="start" x="405.57" y="-112" font-family="Helvetica,sans-Serif" font-size="10.00">+</text>
<text text-anchor="start" x="418.57" y="-112" font-family="Helvetica,sans-Serif" font-size="10.00">data_t()</text>
<text text-anchor="start" x="405.57" y="-97" font-family="Helvetica,sans-Serif" font-size="10.00">+</text>
<text text-anchor="start" x="418.57" y="-97" font-family="Helvetica,sans-Serif" font-size="10.00">~data_t()</text>
<text text-anchor="start" x="405.57" y="-82" font-family="Helvetica,sans-Serif" font-size="10.00">+</text>
<text text-anchor="start" x="418.57" y="-82" font-family="Helvetica,sans-Serif" font-size="10.00">initialize()</text>
<text text-anchor="start" x="405.57" y="-67" font-family="Helvetica,sans-Serif" font-size="10.00">+</text>
<text text-anchor="start" x="418.57" y="-67" font-family="Helvetica,sans-Serif" font-size="10.00">flush()</text>
<text text-anchor="start" x="405.57" y="-52" font-family="Helvetica,sans-Serif" font-size="10.00">+</text>
<text text-anchor="start" x="418.57" y="-52" font-family="Helvetica,sans-Serif" font-size="10.00">next()</text>
<text text-anchor="start" x="408.07" y="-37" font-family="Helvetica,sans-Serif" font-size="10.00">&#45;</text>
<text text-anchor="start" x="418.57" y="-37" font-family="Helvetica,sans-Serif" font-size="10.00">fetch_buffer()</text>
<text text-anchor="start" x="408.07" y="-22" font-family="Helvetica,sans-Serif" font-size="10.00">&#45;</text>
<text text-anchor="start" x="418.57" y="-22" font-family="Helvetica,sans-Serif" font-size="10.00">string_type()</text>
<text text-anchor="start" x="408.07" y="-7" font-family="Helvetica,sans-Serif" font-size="10.00">&#45;</text>
<text text-anchor="start" x="418.57" y="-7" font-family="Helvetica,sans-Serif" font-size="10.00">fetch_buffer()</text>
<polygon fill="#666666" stroke="#666666" points="401.57,-137 401.57,-137 489.57,-137 489.57,-137 401.57,-137"/>
<polygon fill="#666666" stroke="#666666" points="401.57,-122 401.57,-122 489.57,-122 489.57,-122 401.57,-122"/>
<polygon fill="none" stroke="#666666" points="401.57,0 401.57,-154 489.57,-154 489.57,0 401.57,0"/>
</a>
</g>
</g>
<!-- Node2 -->
<g id="Node000002" class="node">
<title>Node2</title>
<g id="a_Node000002"><a xlink:href="classbsc__t.html" target="_top" xlink:title="Basic structure class that provides type translation and buffer management.">
<polygon fill="white" stroke="transparent" points="234.57,-325 110.57,-325 110.57,-201 234.57,-201 234.57,-325"/>
<text text-anchor="start" x="159.57" y="-313" font-family="Helvetica,sans-Serif" font-size="10.00">bsc_t</text>
<text text-anchor="start" x="170.57" y="-298" font-family="Helvetica,sans-Serif" font-size="10.00"> </text>
<text text-anchor="start" x="114.57" y="-283" font-family="Helvetica,sans-Serif" font-size="10.00">+</text>
<text text-anchor="start" x="127.57" y="-283" font-family="Helvetica,sans-Serif" font-size="10.00">bsc_t()</text>
<text text-anchor="start" x="114.57" y="-268" font-family="Helvetica,sans-Serif" font-size="10.00">+</text>
<text text-anchor="start" x="127.57" y="-268" font-family="Helvetica,sans-Serif" font-size="10.00">~bsc_t()</text>
<text text-anchor="start" x="114.57" y="-253" font-family="Helvetica,sans-Serif" font-size="10.00">+</text>
<text text-anchor="start" x="127.57" y="-253" font-family="Helvetica,sans-Serif" font-size="10.00">root_type_translate()</text>
<text text-anchor="start" x="114.57" y="-238" font-family="Helvetica,sans-Serif" font-size="10.00">+</text>
<text text-anchor="start" x="127.57" y="-238" font-family="Helvetica,sans-Serif" font-size="10.00">as_string()</text>
<text text-anchor="start" x="114.57" y="-223" font-family="Helvetica,sans-Serif" font-size="10.00">+</text>
<text text-anchor="start" x="127.57" y="-223" font-family="Helvetica,sans-Serif" font-size="10.00">scan_buffer()</text>
<text text-anchor="start" x="114.57" y="-208" font-family="Helvetica,sans-Serif" font-size="10.00">+</text>
<text text-anchor="start" x="127.57" y="-208" font-family="Helvetica,sans-Serif" font-size="10.00">flush_buffer()</text>
<polygon fill="#666666" stroke="#666666" points="110.57,-308 110.57,-308 234.57,-308 234.57,-308 110.57,-308"/>
<polygon fill="#666666" stroke="#666666" points="110.57,-293 110.57,-293 234.57,-293 234.57,-293 110.57,-293"/>
<polygon fill="none" stroke="#666666" points="110.57,-201 110.57,-325 234.57,-325 234.57,-201 110.57,-201"/>
</a>
</g>
</g>
<!-- Node2&#45;&gt;Node1 -->
<g id="edge1_Node000001_Node000002" class="edge">
<title>Node2&#45;&gt;Node1</title>
<g id="a_edge1_Node000001_Node000002"><a xlink:title=" ">
<path fill="none" stroke="#63b8ff" d="M243.03,-201.4C243.21,-201.26 243.39,-201.13 243.57,-201 295.55,-163.23 359.47,-125.67 401.3,-102.18"/>
<polygon fill="none" stroke="#63b8ff" points="240.73,-198.74 234.84,-207.54 244.94,-204.34 240.73,-198.74"/>
</a>
</g>
</g>
<!-- Node3 -->
<g id="Node000003" class="node">
<title>Node3</title>
<g id="a_Node000003"><a xlink:title=" ">
<polygon fill="white" stroke="transparent" points="202.07,-421 143.07,-421 143.07,-372 202.07,-372 202.07,-421"/>
<text text-anchor="start" x="148.57" y="-408.5" font-family="Helvetica,sans-Serif" font-size="10.00">std::string</text>
<text text-anchor="start" x="171.07" y="-393.5" font-family="Helvetica,sans-Serif" font-size="10.00"> </text>
<text text-anchor="start" x="171.07" y="-378.5" font-family="Helvetica,sans-Serif" font-size="10.00"> </text>
<polygon fill="#666666" stroke="#666666" points="143.57,-403.5 143.57,-403.5 202.57,-403.5 202.57,-403.5 143.57,-403.5"/>
<polygon fill="#666666" stroke="#666666" points="143.57,-388.5 143.57,-388.5 202.57,-388.5 202.57,-388.5 143.57,-388.5"/>
<polygon fill="none" stroke="#666666" points="143.07,-372 143.07,-421 202.07,-421 202.07,-372 143.07,-372"/>
</a>
</g>
</g>
<!-- Node3&#45;&gt;Node1 -->
<g id="edge4_Node000001_Node000003" class="edge">
<title>Node3&#45;&gt;Node1</title>
<g id="a_edge4_Node000001_Node000003"><a xlink:title=" ">
<path fill="none" stroke="#63b8ff" d="M142.86,-391.02C107.43,-383.91 49.75,-366.35 23.57,-325 -5.91,-278.44 -9.5,-245.09 23.57,-201 67.74,-142.12 284.97,-102.13 389.36,-86"/>
<polygon fill="none" stroke="#63b8ff" points="389.64,-85.96 394.97,-81.1 401.51,-84.15 396.18,-89.01 389.64,-85.96"/>
</a>
</g>
<text text-anchor="middle" x="62.57" y="-288" font-family="Helvetica,sans-Serif" font-size="10.00" fill="grey"> +branch_name</text>
<text text-anchor="middle" x="62.57" y="-277" font-family="Helvetica,sans-Serif" font-size="10.00" fill="grey">+fname</text>
<text text-anchor="middle" x="62.57" y="-266" font-family="Helvetica,sans-Serif" font-size="10.00" fill="grey">+leaf_name</text>
<text text-anchor="middle" x="62.57" y="-255" font-family="Helvetica,sans-Serif" font-size="10.00" fill="grey">+leaf_type</text>
<text text-anchor="middle" x="62.57" y="-244" font-family="Helvetica,sans-Serif" font-size="10.00" fill="grey">+path</text>
<text text-anchor="middle" x="62.57" y="-233" font-family="Helvetica,sans-Serif" font-size="10.00" fill="grey">+tree_name</text>
</g>
<!-- Node3&#45;&gt;Node2 -->
<g id="edge2_Node000002_Node000003" class="edge">
<title>Node3&#45;&gt;Node2</title>
<g id="a_edge2_Node000002_Node000003"><a xlink:title=" ">
<path fill="none" stroke="#63b8ff" d="M172.57,-371.99C172.57,-362.03 172.57,-349.82 172.57,-337.24"/>
<polygon fill="none" stroke="#63b8ff" points="172.57,-337.12 168.57,-331.12 172.57,-325.12 176.57,-331.12 172.57,-337.12"/>
</a>
</g>
<text text-anchor="middle" x="192.57" y="-346" font-family="Helvetica,sans-Serif" font-size="10.00" fill="grey"> +buffer</text>
</g>
<!-- Node10 -->
<g id="Node000010" class="node">
<title>Node10</title>
<g id="a_Node000010"><a xlink:title=" ">
<polygon fill="white" stroke="transparent" points="696.57,-287.5 562.57,-287.5 562.57,-238.5 696.57,-238.5 696.57,-287.5"/>
<text text-anchor="start" x="567.57" y="-275" font-family="Helvetica,sans-Serif" font-size="10.00">std::vector&lt; std::string &gt;</text>
<text text-anchor="start" x="627.57" y="-260" font-family="Helvetica,sans-Serif" font-size="10.00"> </text>
<text text-anchor="start" x="627.57" y="-245" font-family="Helvetica,sans-Serif" font-size="10.00"> </text>
<polygon fill="#666666" stroke="#666666" points="562.57,-270 562.57,-270 696.57,-270 696.57,-270 562.57,-270"/>
<polygon fill="#666666" stroke="#666666" points="562.57,-255 562.57,-255 696.57,-255 696.57,-255 562.57,-255"/>
<polygon fill="none" stroke="#666666" points="562.57,-238.5 562.57,-287.5 696.57,-287.5 696.57,-238.5 562.57,-238.5"/>
</a>
</g>
</g>
<!-- Node3&#45;&gt;Node10 -->
<g id="edge11_Node000010_Node000003" class="edge">
<title>Node3&#45;&gt;Node10</title>
<g id="a_edge11_Node000010_Node000003"><a xlink:title=" ">
<path fill="none" stroke="#63b8ff" d="M202.22,-394.88C268.33,-392.49 431.57,-380.9 553.57,-325 569.26,-317.81 584.51,-306.67 597.18,-295.86"/>
<polygon fill="none" stroke="#63b8ff" points="597.36,-295.7 599.19,-288.73 606.33,-287.73 604.5,-294.71 597.36,-295.7"/>
</a>
</g>
<text text-anchor="middle" x="533.57" y="-346" font-family="Helvetica,sans-Serif" font-size="10.00" fill="grey"> +elements</text>
</g>
<!-- Node4 -->
<g id="Node000004" class="node">
<title>Node4</title>
<g id="a_Node000004"><a xlink:title=" ">
<polygon fill="white" stroke="transparent" points="221.57,-528 123.57,-528 123.57,-468 221.57,-468 221.57,-528"/>
<text text-anchor="start" x="128.57" y="-516" font-family="Helvetica,sans-Serif" font-size="10.00">std::basic_string&lt;</text>
<text text-anchor="start" x="154.07" y="-505" font-family="Helvetica,sans-Serif" font-size="10.00"> Char &gt;</text>
<text text-anchor="start" x="170.57" y="-490" font-family="Helvetica,sans-Serif" font-size="10.00"> </text>
<text text-anchor="start" x="170.57" y="-475" font-family="Helvetica,sans-Serif" font-size="10.00"> </text>
<polygon fill="#666666" stroke="#666666" points="123.57,-500 123.57,-500 221.57,-500 221.57,-500 123.57,-500"/>
<polygon fill="#666666" stroke="#666666" points="123.57,-485 123.57,-485 221.57,-485 221.57,-485 123.57,-485"/>
<polygon fill="none" stroke="#666666" points="123.57,-468 123.57,-528 221.57,-528 221.57,-468 123.57,-468"/>
</a>
</g>
</g>
<!-- Node4&#45;&gt;Node3 -->
<g id="edge3_Node000003_Node000004" class="edge">
<title>Node4&#45;&gt;Node3</title>
<g id="a_edge3_Node000003_Node000004"><a xlink:title=" ">
<path fill="none" stroke="#63b8ff" d="M172.57,-457.8C172.57,-445.38 172.57,-432.03 172.57,-421.06"/>
<polygon fill="none" stroke="#63b8ff" points="169.07,-457.95 172.57,-467.95 176.07,-457.95 169.07,-457.95"/>
</a>
</g>
</g>
<!-- Node5 -->
<g id="Node000005" class="node">
<title>Node5</title>
<g id="a_Node000005"><a xlink:title=" ">
<polygon fill="white" stroke="transparent" points="298.57,-287.5 252.57,-287.5 252.57,-238.5 298.57,-238.5 298.57,-287.5"/>
<text text-anchor="start" x="257.57" y="-275" font-family="Helvetica,sans-Serif" font-size="10.00">TLeaf *</text>
<text text-anchor="start" x="273.57" y="-260" font-family="Helvetica,sans-Serif" font-size="10.00"> </text>
<text text-anchor="start" x="273.57" y="-245" font-family="Helvetica,sans-Serif" font-size="10.00"> </text>
<polygon fill="#666666" stroke="#666666" points="252.57,-270 252.57,-270 298.57,-270 298.57,-270 252.57,-270"/>
<polygon fill="#666666" stroke="#666666" points="252.57,-255 252.57,-255 298.57,-255 298.57,-255 252.57,-255"/>
<polygon fill="none" stroke="#666666" points="252.57,-238.5 252.57,-287.5 298.57,-287.5 298.57,-238.5 252.57,-238.5"/>
</a>
</g>
</g>
<!-- Node5&#45;&gt;Node1 -->
<g id="edge5_Node000001_Node000005" class="edge">
<title>Node5&#45;&gt;Node1</title>
<g id="a_edge5_Node000001_Node000005"><a xlink:title=" ">
<path fill="none" stroke="#63b8ff" d="M286.14,-238.33C291.94,-226.56 299.74,-212.44 308.57,-201 332.42,-170.1 364.68,-140.7 391.91,-118.39"/>
<polygon fill="none" stroke="#63b8ff" points="391.97,-118.34 394.13,-111.46 401.31,-110.8 399.15,-117.69 391.97,-118.34"/>
</a>
</g>
<text text-anchor="middle" x="346.07" y="-175" font-family="Helvetica,sans-Serif" font-size="10.00" fill="grey"> +leaf</text>
</g>
<!-- Node6 -->
<g id="Node000006" class="node">
<title>Node6</title>
<g id="a_Node000006"><a xlink:title=" ">
<polygon fill="white" stroke="transparent" points="376.07,-287.5 317.07,-287.5 317.07,-238.5 376.07,-238.5 376.07,-287.5"/>
<text text-anchor="start" x="322.57" y="-275" font-family="Helvetica,sans-Serif" font-size="10.00">TBranch *</text>
<text text-anchor="start" x="345.07" y="-260" font-family="Helvetica,sans-Serif" font-size="10.00"> </text>
<text text-anchor="start" x="345.07" y="-245" font-family="Helvetica,sans-Serif" font-size="10.00"> </text>
<polygon fill="#666666" stroke="#666666" points="317.57,-270 317.57,-270 376.57,-270 376.57,-270 317.57,-270"/>
<polygon fill="#666666" stroke="#666666" points="317.57,-255 317.57,-255 376.57,-255 376.57,-255 317.57,-255"/>
<polygon fill="none" stroke="#666666" points="317.07,-238.5 317.07,-287.5 376.07,-287.5 376.07,-238.5 317.07,-238.5"/>
</a>
</g>
</g>
<!-- Node6&#45;&gt;Node1 -->
<g id="edge6_Node000001_Node000006" class="edge">
<title>Node6&#45;&gt;Node1</title>
<g id="a_edge6_Node000001_Node000006"><a xlink:title=" ">
<path fill="none" stroke="#63b8ff" d="M353.38,-238.36C359.16,-219.78 368.31,-193.53 379.57,-172 384.07,-163.39 389.24,-154.66 394.68,-146.16"/>
<polygon fill="none" stroke="#63b8ff" points="394.81,-145.96 394.76,-138.75 401.4,-135.93 401.45,-143.14 394.81,-145.96"/>
</a>
</g>
<text text-anchor="middle" x="402.07" y="-175" font-family="Helvetica,sans-Serif" font-size="10.00" fill="grey"> +branch</text>
</g>
<!-- Node7 -->
<g id="Node000007" class="node">
<title>Node7</title>
<g id="a_Node000007"><a xlink:title=" ">
<polygon fill="white" stroke="transparent" points="439.07,-287.5 394.07,-287.5 394.07,-238.5 439.07,-238.5 439.07,-287.5"/>
<text text-anchor="start" x="399.57" y="-275" font-family="Helvetica,sans-Serif" font-size="10.00">TTree *</text>
<text text-anchor="start" x="415.07" y="-260" font-family="Helvetica,sans-Serif" font-size="10.00"> </text>
<text text-anchor="start" x="415.07" y="-245" font-family="Helvetica,sans-Serif" font-size="10.00"> </text>
<polygon fill="#666666" stroke="#666666" points="394.57,-270 394.57,-270 439.57,-270 439.57,-270 394.57,-270"/>
<polygon fill="#666666" stroke="#666666" points="394.57,-255 394.57,-255 439.57,-255 439.57,-255 394.57,-255"/>
<polygon fill="none" stroke="#666666" points="394.07,-238.5 394.07,-287.5 439.07,-287.5 439.07,-238.5 394.07,-238.5"/>
</a>
</g>
</g>
<!-- Node7&#45;&gt;Node1 -->
<g id="edge7_Node000001_Node000007" class="edge">
<title>Node7&#45;&gt;Node1</title>
<g id="a_edge7_Node000001_Node000007"><a xlink:title=" ">
<path fill="none" stroke="#63b8ff" d="M420.23,-238.31C423.04,-220.16 427.02,-194.49 430.57,-172 430.87,-170.1 431.17,-168.18 431.48,-166.24"/>
<polygon fill="none" stroke="#63b8ff" points="431.51,-166.03 428.5,-159.48 433.39,-154.18 436.4,-160.73 431.51,-166.03"/>
</a>
</g>
<text text-anchor="middle" x="446.07" y="-175" font-family="Helvetica,sans-Serif" font-size="10.00" fill="grey"> +tree</text>
</g>
<!-- Node8 -->
<g id="Node000008" class="node">
<title>Node8</title>
<g id="a_Node000008"><a xlink:title=" ">
<polygon fill="white" stroke="transparent" points="528.57,-421 486.57,-421 486.57,-372 528.57,-372 528.57,-421"/>
<text text-anchor="start" x="491.57" y="-408.5" font-family="Helvetica,sans-Serif" font-size="10.00">TFile *</text>
<text text-anchor="start" x="505.57" y="-393.5" font-family="Helvetica,sans-Serif" font-size="10.00"> </text>
<text text-anchor="start" x="505.57" y="-378.5" font-family="Helvetica,sans-Serif" font-size="10.00"> </text>
<polygon fill="#666666" stroke="#666666" points="486.57,-403.5 486.57,-403.5 528.57,-403.5 528.57,-403.5 486.57,-403.5"/>
<polygon fill="#666666" stroke="#666666" points="486.57,-388.5 486.57,-388.5 528.57,-388.5 528.57,-388.5 486.57,-388.5"/>
<polygon fill="none" stroke="#666666" points="486.57,-372 486.57,-421 528.57,-421 528.57,-372 486.57,-372"/>
</a>
</g>
</g>
<!-- Node8&#45;&gt;Node1 -->
<g id="edge8_Node000001_Node000008" class="edge">
<title>Node8&#45;&gt;Node1</title>
<g id="a_edge8_Node000001_Node000008"><a xlink:title=" ">
<path fill="none" stroke="#63b8ff" d="M499.26,-371.92C494.71,-358.33 489.27,-340.86 485.57,-325 469.94,-257.97 472.68,-239.93 461.57,-172 461.26,-170.1 460.94,-168.17 460.62,-166.23"/>
<polygon fill="none" stroke="#63b8ff" points="460.58,-166.01 455.66,-160.74 458.62,-154.17 463.55,-159.43 460.58,-166.01"/>
</a>
</g>
<text text-anchor="middle" x="499.07" y="-260.5" font-family="Helvetica,sans-Serif" font-size="10.00" fill="grey"> +file</text>
</g>
<!-- Node15 -->
<g id="Node000015" class="node">
<title>Node15</title>
<g id="a_Node000015"><a xlink:title=" ">
<polygon fill="white" stroke="transparent" points="830.57,-287.5 714.57,-287.5 714.57,-238.5 830.57,-238.5 830.57,-287.5"/>
<text text-anchor="start" x="719.57" y="-275" font-family="Helvetica,sans-Serif" font-size="10.00">std::vector&lt; TFile * &gt;</text>
<text text-anchor="start" x="770.57" y="-260" font-family="Helvetica,sans-Serif" font-size="10.00"> </text>
<text text-anchor="start" x="770.57" y="-245" font-family="Helvetica,sans-Serif" font-size="10.00"> </text>
<polygon fill="#666666" stroke="#666666" points="714.57,-270 714.57,-270 830.57,-270 830.57,-270 714.57,-270"/>
<polygon fill="#666666" stroke="#666666" points="714.57,-255 714.57,-255 830.57,-255 830.57,-255 714.57,-255"/>
<polygon fill="none" stroke="#666666" points="714.57,-238.5 714.57,-287.5 830.57,-287.5 830.57,-238.5 714.57,-238.5"/>
</a>
</g>
</g>
<!-- Node8&#45;&gt;Node15 -->
<g id="edge18_Node000015_Node000008" class="edge">
<title>Node8&#45;&gt;Node15</title>
<g id="a_edge18_Node000015_Node000008"><a xlink:title=" ">
<path fill="none" stroke="#63b8ff" d="M528.88,-382.36C549.17,-370.41 580.94,-353.13 610.57,-343 651.23,-329.1 667.12,-344.19 705.57,-325 719.64,-317.98 732.95,-307.13 743.93,-296.52"/>
<polygon fill="none" stroke="#63b8ff" points="744.15,-296.3 745.52,-289.22 752.58,-287.76 751.21,-294.84 744.15,-296.3"/>
</a>
</g>
<text text-anchor="middle" x="639.57" y="-346" font-family="Helvetica,sans-Serif" font-size="10.00" fill="grey"> +elements</text>
</g>
<!-- Node9 -->
<g id="Node000009" class="node">
<title>Node9</title>
<g id="a_Node000009"><a xlink:title=" ">
<polygon fill="white" stroke="transparent" points="544.07,-287.5 521.07,-287.5 521.07,-238.5 544.07,-238.5 544.07,-287.5"/>
<text text-anchor="start" x="526.57" y="-275" font-family="Helvetica,sans-Serif" font-size="10.00">int</text>
<text text-anchor="start" x="531.07" y="-260" font-family="Helvetica,sans-Serif" font-size="10.00"> </text>
<text text-anchor="start" x="531.07" y="-245" font-family="Helvetica,sans-Serif" font-size="10.00"> </text>
<polygon fill="#666666" stroke="#666666" points="521.57,-270 521.57,-270 544.57,-270 544.57,-270 521.57,-270"/>
<polygon fill="#666666" stroke="#666666" points="521.57,-255 521.57,-255 544.57,-255 544.57,-255 521.57,-255"/>
<polygon fill="none" stroke="#666666" points="521.07,-238.5 521.07,-287.5 544.07,-287.5 544.07,-238.5 521.07,-238.5"/>
</a>
</g>
</g>
<!-- Node9&#45;&gt;Node1 -->
<g id="edge9_Node000001_Node000009" class="edge">
<title>Node9&#45;&gt;Node1</title>
<g id="a_edge9_Node000001_Node000009"><a xlink:title=" ">
<path fill="none" stroke="#63b8ff" d="M522.88,-238.4C518.12,-227.03 512.2,-213.23 506.57,-201 501.19,-189.31 495.36,-177.09 489.52,-165.07"/>
<polygon fill="none" stroke="#63b8ff" points="489.43,-164.89 483.21,-161.26 484.16,-154.11 490.39,-157.74 489.43,-164.89"/>
</a>
</g>
<text text-anchor="middle" x="526.07" y="-175" font-family="Helvetica,sans-Serif" font-size="10.00" fill="grey"> +file_index</text>
</g>
<!-- Node10&#45;&gt;Node1 -->
<g id="edge10_Node000001_Node000010" class="edge">
<title>Node10&#45;&gt;Node1</title>
<g id="a_edge10_Node000001_Node000010"><a xlink:title=" ">
<path fill="none" stroke="#63b8ff" d="M613.33,-238.29C599.92,-219.44 579.85,-192.87 559.57,-172 541.13,-153.03 519.05,-134.09 499.25,-118.23"/>
<polygon fill="none" stroke="#63b8ff" points="499.15,-118.16 491.96,-117.57 489.74,-110.71 496.93,-111.3 499.15,-118.16"/>
</a>
</g>
<text text-anchor="middle" x="589.07" y="-175" font-family="Helvetica,sans-Serif" font-size="10.00" fill="grey"> +files_s</text>
</g>
<!-- Node11 -->
<g id="Node000011" class="node">
<title>Node11</title>
<g id="a_Node000011"><a xlink:title=" ">
<polygon fill="white" stroke="transparent" points="807.07,-421 716.07,-421 716.07,-372 807.07,-372 807.07,-421"/>
<text text-anchor="start" x="721.57" y="-408.5" font-family="Helvetica,sans-Serif" font-size="10.00">std::vector&lt; T &gt;</text>
<text text-anchor="start" x="760.07" y="-393.5" font-family="Helvetica,sans-Serif" font-size="10.00"> </text>
<text text-anchor="start" x="760.07" y="-378.5" font-family="Helvetica,sans-Serif" font-size="10.00"> </text>
<polygon fill="#666666" stroke="#666666" points="716.57,-403.5 716.57,-403.5 807.57,-403.5 807.57,-403.5 716.57,-403.5"/>
<polygon fill="#666666" stroke="#666666" points="716.57,-388.5 716.57,-388.5 807.57,-388.5 807.57,-388.5 716.57,-388.5"/>
<polygon fill="none" stroke="#666666" points="716.07,-372 716.07,-421 807.07,-421 807.07,-372 716.07,-372"/>
</a>
</g>
</g>
<!-- Node11&#45;&gt;Node10 -->
<g id="edge12_Node000010_Node000011" class="edge">
<title>Node11&#45;&gt;Node10</title>
<g id="a_edge12_Node000010_Node000011"><a xlink:title=" ">
<path fill="none" stroke="orange" d="M706.92,-371.96C698.21,-366.81 689.72,-360.81 682.57,-354 662.88,-335.24 648.06,-307.56 639.17,-287.86"/>
<polygon fill="orange" stroke="orange" points="705.24,-375.03 715.68,-376.85 708.65,-368.92 705.24,-375.03"/>
</a>
</g>
<text text-anchor="middle" x="720.07" y="-346" font-family="Helvetica,sans-Serif" font-size="10.00" fill="grey"> &lt; std::string &gt;</text>
</g>
<!-- Node13 -->
<g id="Node000013" class="node">
<title>Node13</title>
<g id="a_Node000013"><a xlink:title=" ">
<polygon fill="white" stroke="transparent" points="954.57,-287.5 848.57,-287.5 848.57,-238.5 954.57,-238.5 954.57,-287.5"/>
<text text-anchor="start" x="853.57" y="-275" font-family="Helvetica,sans-Serif" font-size="10.00">std::vector&lt; long &gt;</text>
<text text-anchor="start" x="899.57" y="-260" font-family="Helvetica,sans-Serif" font-size="10.00"> </text>
<text text-anchor="start" x="899.57" y="-245" font-family="Helvetica,sans-Serif" font-size="10.00"> </text>
<polygon fill="#666666" stroke="#666666" points="848.57,-270 848.57,-270 954.57,-270 954.57,-270 848.57,-270"/>
<polygon fill="#666666" stroke="#666666" points="848.57,-255 848.57,-255 954.57,-255 954.57,-255 848.57,-255"/>
<polygon fill="none" stroke="#666666" points="848.57,-238.5 848.57,-287.5 954.57,-287.5 954.57,-238.5 848.57,-238.5"/>
</a>
</g>
</g>
<!-- Node11&#45;&gt;Node13 -->
<g id="edge16_Node000013_Node000011" class="edge">
<title>Node11&#45;&gt;Node13</title>
<g id="a_edge16_Node000013_Node000011"><a xlink:title=" ">
<path fill="none" stroke="orange" d="M806.2,-365.74C811.18,-361.95 816.07,-357.99 820.57,-354 843.85,-333.36 867.28,-306.5 882.91,-287.52"/>
<polygon fill="orange" stroke="orange" points="803.77,-363.19 797.81,-371.94 807.93,-368.82 803.77,-363.19"/>
</a>
</g>
<text text-anchor="middle" x="853.07" y="-346" font-family="Helvetica,sans-Serif" font-size="10.00" fill="grey"> &lt; long &gt;</text>
</g>
<!-- Node11&#45;&gt;Node15 -->
<g id="edge19_Node000015_Node000011" class="edge">
<title>Node11&#45;&gt;Node15</title>
<g id="a_edge19_Node000015_Node000011"><a xlink:title=" ">
<path fill="none" stroke="orange" d="M761.68,-361.76C761.85,-355.52 762.13,-349.06 762.57,-343 763.92,-324.39 766.63,-303.43 768.88,-287.79"/>
<polygon fill="orange" stroke="orange" points="758.18,-361.89 761.48,-371.95 765.17,-362.02 758.18,-361.89"/>
</a>
</g>
<text text-anchor="middle" x="791.57" y="-346" font-family="Helvetica,sans-Serif" font-size="10.00" fill="grey"> &lt; TFile * &gt;</text>
</g>
<!-- Node12 -->
<g id="Node000012" class="node">
<title>Node12</title>
<g id="a_Node000012"><a xlink:title=" ">
<polygon fill="white" stroke="transparent" points="770.07,-522.5 753.07,-522.5 753.07,-473.5 770.07,-473.5 770.07,-522.5"/>
<text text-anchor="start" x="758.57" y="-510" font-family="Helvetica,sans-Serif" font-size="10.00">T</text>
<text text-anchor="start" x="760.07" y="-495" font-family="Helvetica,sans-Serif" font-size="10.00"> </text>
<text text-anchor="start" x="760.07" y="-480" font-family="Helvetica,sans-Serif" font-size="10.00"> </text>
<polygon fill="#666666" stroke="#666666" points="753.57,-505 753.57,-505 770.57,-505 770.57,-505 753.57,-505"/>
<polygon fill="#666666" stroke="#666666" points="753.57,-490 753.57,-490 770.57,-490 770.57,-490 753.57,-490"/>
<polygon fill="none" stroke="#666666" points="753.07,-473.5 753.07,-522.5 770.07,-522.5 770.07,-473.5 753.07,-473.5"/>
</a>
</g>
</g>
<!-- Node12&#45;&gt;Node11 -->
<g id="edge13_Node000011_Node000012" class="edge">
<title>Node12&#45;&gt;Node11</title>
<g id="a_edge13_Node000011_Node000012"><a xlink:title=" ">
<path fill="none" stroke="#63b8ff" d="M761.57,-473.42C761.57,-461.49 761.57,-446.75 761.57,-433.44"/>
<polygon fill="none" stroke="#63b8ff" points="761.57,-433.26 757.57,-427.26 761.57,-421.26 765.57,-427.26 761.57,-433.26"/>
</a>
</g>
<text text-anchor="middle" x="790.57" y="-442" font-family="Helvetica,sans-Serif" font-size="10.00" fill="grey"> +elements</text>
</g>
<!-- Node13&#45;&gt;Node1 -->
<g id="edge14_Node000001_Node000013" class="edge">
<title>Node13&#45;&gt;Node1</title>
<g id="a_edge14_Node000001_Node000013"><a xlink:title=" ">
<path fill="none" stroke="#63b8ff" d="M882.47,-238.35C871.16,-225.71 855.89,-210.78 839.57,-201 729.88,-135.26 581.66,-101.4 501.93,-86.93"/>
<polygon fill="none" stroke="#63b8ff" points="501.56,-86.86 494.95,-89.75 489.74,-84.77 496.35,-81.87 501.56,-86.86"/>
</a>
</g>
<text text-anchor="middle" x="819.57" y="-175" font-family="Helvetica,sans-Serif" font-size="10.00" fill="grey"> +files_i</text>
</g>
<!-- Node14 -->
<g id="Node000014" class="node">
<title>Node14</title>
<g id="a_Node000014"><a xlink:title=" ">
<polygon fill="white" stroke="transparent" points="928.57,-421 896.57,-421 896.57,-372 928.57,-372 928.57,-421"/>
<text text-anchor="start" x="901.57" y="-408.5" font-family="Helvetica,sans-Serif" font-size="10.00">long</text>
<text text-anchor="start" x="910.57" y="-393.5" font-family="Helvetica,sans-Serif" font-size="10.00"> </text>
<text text-anchor="start" x="910.57" y="-378.5" font-family="Helvetica,sans-Serif" font-size="10.00"> </text>
<polygon fill="#666666" stroke="#666666" points="896.57,-403.5 896.57,-403.5 928.57,-403.5 928.57,-403.5 896.57,-403.5"/>
<polygon fill="#666666" stroke="#666666" points="896.57,-388.5 896.57,-388.5 928.57,-388.5 928.57,-388.5 896.57,-388.5"/>
<polygon fill="none" stroke="#666666" points="896.57,-372 896.57,-421 928.57,-421 928.57,-372 896.57,-372"/>
</a>
</g>
</g>
<!-- Node14&#45;&gt;Node13 -->
<g id="edge15_Node000013_Node000014" class="edge">
<title>Node14&#45;&gt;Node13</title>
<g id="a_edge15_Node000013_Node000014"><a xlink:title=" ">
<path fill="none" stroke="#63b8ff" d="M910.6,-371.99C908.92,-351.92 906.48,-322.74 904.56,-299.77"/>
<polygon fill="none" stroke="#63b8ff" points="904.56,-299.71 900.07,-294.06 903.56,-287.75 908.04,-293.4 904.56,-299.71"/>
</a>
</g>
<text text-anchor="middle" x="937.57" y="-346" font-family="Helvetica,sans-Serif" font-size="10.00" fill="grey"> +elements</text>
</g>
<!-- Node15&#45;&gt;Node1 -->
<g id="edge17_Node000001_Node000015" class="edge">
<title>Node15&#45;&gt;Node1</title>
<g id="a_edge17_Node000001_Node000015"><a xlink:title=" ">
<path fill="none" stroke="#63b8ff" d="M750.12,-238.43C737.74,-226.27 721.64,-211.77 705.57,-201 639.86,-156.98 555.94,-120.35 501.49,-98.82"/>
<polygon fill="none" stroke="#63b8ff" points="501.18,-98.69 494.13,-100.23 490,-94.32 497.05,-92.78 501.18,-98.69"/>
</a>
</g>
<text text-anchor="middle" x="692.07" y="-175" font-family="Helvetica,sans-Serif" font-size="10.00" fill="grey"> +files_t</text>
</g>
</g>
</svg>
