<?xml version="1.0" encoding="UTF-8" standalone="no"?>
<!DOCTYPE svg PUBLIC "-//W3C//DTD SVG 1.1//EN"
 "http://www.w3.org/Graphics/SVG/1.1/DTD/svg11.dtd">
<!-- Generated by graphviz version 2.43.0 (0)
 -->
<!-- Title: graph_t::get_batched_events Pages: 1 -->
<svg width="508pt" height="51pt"
 viewBox="0.00 0.00 508.00 50.50" xmlns="http://www.w3.org/2000/svg" xmlns:xlink="http://www.w3.org/1999/xlink">
<g id="graph0" class="graph" transform="scale(1 1) rotate(0) translate(4 46.5)">
<title>graph_t::get_batched_events</title>
<!-- Node1 -->
<g id="Node000001" class="node">
<title>Node1</title>
<g id="a_Node000001"><a xlink:title="Get tensor of batched event indices.">
<polygon fill="#999999" stroke="#666666" points="119,-30 0,-30 0,0 119,0 119,-30"/>
<text text-anchor="start" x="8" y="-18" font-family="Helvetica,sans-Serif" font-size="10.00">graph_t::get_batched</text>
<text text-anchor="middle" x="59.5" y="-7" font-family="Helvetica,sans-Serif" font-size="10.00">_events</text>
</a>
</g>
</g>
<!-- Node2 -->
<g id="Node000002" class="node">
<title>Node2</title>
<g id="a_Node000002"><a xlink:href="structgraph__t.html#a9a07fbb8428e15bedd7fa89c8e1a1dc7" target="_top" xlink:title="Check if a feature exists and get its tensor.">
<polygon fill="white" stroke="#666666" points="272,-24.5 155,-24.5 155,-5.5 272,-5.5 272,-24.5"/>
<text text-anchor="middle" x="213.5" y="-12.5" font-family="Helvetica,sans-Serif" font-size="10.00">graph_t::has_feature</text>
</a>
</g>
</g>
<!-- Node1&#45;&gt;Node2 -->
<g id="edge1_Node000001_Node000002" class="edge">
<title>Node1&#45;&gt;Node2</title>
<g id="a_edge1_Node000001_Node000002"><a xlink:title=" ">
<path fill="none" stroke="#63b8ff" d="M119.27,-15C127.58,-15 136.19,-15 144.66,-15"/>
<polygon fill="#63b8ff" stroke="#63b8ff" points="144.89,-18.5 154.89,-15 144.89,-11.5 144.89,-18.5"/>
</a>
</g>
</g>
<!-- Node3 -->
<g id="Node000003" class="node">
<title>Node3</title>
<g id="a_Node000003"><a xlink:href="structgraph__t.html#a1e282caadefc079e39a6c29a8092325f" target="_top" xlink:title=" ">
<polygon fill="white" stroke="#666666" points="420,-24.5 308,-24.5 308,-5.5 420,-5.5 420,-24.5"/>
<text text-anchor="middle" x="364" y="-12.5" font-family="Helvetica,sans-Serif" font-size="10.00">graph_t::return_any</text>
</a>
</g>
</g>
<!-- Node2&#45;&gt;Node3 -->
<g id="edge2_Node000002_Node000003" class="edge">
<title>Node2&#45;&gt;Node3</title>
<g id="a_edge2_Node000002_Node000003"><a xlink:title=" ">
<path fill="none" stroke="#63b8ff" d="M272.34,-15C280.68,-15 289.3,-15 297.77,-15"/>
<polygon fill="#63b8ff" stroke="#63b8ff" points="297.99,-18.5 307.99,-15 297.99,-11.5 297.99,-18.5"/>
</a>
</g>
</g>
<!-- Node4 -->
<g id="Node000004" class="node">
<title>Node4</title>
<g id="a_Node000004"><a xlink:href="structs_2cxx_2base_8cxx.html#a4eee7b291ed2cdcd4e3c2496c603c48c" target="_top" xlink:title="Counts occurrences of a substring in a string.">
<polygon fill="white" stroke="#666666" points="500,-24.5 456,-24.5 456,-5.5 500,-5.5 500,-24.5"/>
<text text-anchor="middle" x="478" y="-12.5" font-family="Helvetica,sans-Serif" font-size="10.00">count</text>
</a>
</g>
</g>
<!-- Node3&#45;&gt;Node4 -->
<g id="edge3_Node000003_Node000004" class="edge">
<title>Node3&#45;&gt;Node4</title>
<g id="a_edge3_Node000003_Node000004"><a xlink:title=" ">
<path fill="none" stroke="#63b8ff" d="M420.02,-15C428.76,-15 437.54,-15 445.5,-15"/>
<polygon fill="#63b8ff" stroke="#63b8ff" points="445.76,-18.5 455.76,-15 445.76,-11.5 445.76,-18.5"/>
</a>
</g>
</g>
<!-- Node4&#45;&gt;Node4 -->
<g id="edge4_Node000004_Node000004" class="edge">
<title>Node4&#45;&gt;Node4</title>
<g id="a_edge4_Node000004_Node000004"><a xlink:title=" ">
<path fill="none" stroke="#63b8ff" d="M460.74,-24.58C452.34,-33.23 458.09,-42.5 478,-42.5 490.44,-42.5 497.35,-38.88 498.74,-34.05"/>
<polygon fill="#63b8ff" stroke="#63b8ff" points="501.99,-32.76 495.26,-24.58 495.42,-35.18 501.99,-32.76"/>
</a>
</g>
</g>
</g>
</svg>
