<?xml version="1.0" encoding="UTF-8" standalone="no"?>
<!DOCTYPE svg PUBLIC "-//W3C//DTD SVG 1.1//EN"
 "http://www.w3.org/Graphics/SVG/1.1/DTD/svg11.dtd">
<!-- Generated by graphviz version 2.43.0 (0)
 -->
<!-- Title: element_t Pages: 1 -->
<svg width="1262pt" height="795pt"
 viewBox="0.00 0.00 1262.00 795.00" xmlns="http://www.w3.org/2000/svg" xmlns:xlink="http://www.w3.org/1999/xlink">
<g id="graph0" class="graph" transform="scale(1 1) rotate(0) translate(4 791)">
<title>element_t</title>
<!-- Node1 -->
<g id="Node000001" class="node">
<title>Node1</title>
<g id="a_Node000001"><a xlink:title=" ">
<polygon fill="#999999" stroke="transparent" points="1008.5,-94 933.5,-94 933.5,0 1008.5,0 1008.5,-94"/>
<text text-anchor="start" x="946.5" y="-82" font-family="Helvetica,sans-Serif" font-size="10.00">element_t</text>
<text text-anchor="start" x="969.5" y="-67" font-family="Helvetica,sans-Serif" font-size="10.00"> </text>
<text text-anchor="start" x="938" y="-52" font-family="Helvetica,sans-Serif" font-size="10.00">+</text>
<text text-anchor="start" x="951" y="-52" font-family="Helvetica,sans-Serif" font-size="10.00">next()</text>
<text text-anchor="start" x="938" y="-37" font-family="Helvetica,sans-Serif" font-size="10.00">+</text>
<text text-anchor="start" x="951" y="-37" font-family="Helvetica,sans-Serif" font-size="10.00">set_meta()</text>
<text text-anchor="start" x="938" y="-22" font-family="Helvetica,sans-Serif" font-size="10.00">+</text>
<text text-anchor="start" x="951" y="-22" font-family="Helvetica,sans-Serif" font-size="10.00">boundary()</text>
<text text-anchor="start" x="938" y="-7" font-family="Helvetica,sans-Serif" font-size="10.00">+</text>
<text text-anchor="start" x="951" y="-7" font-family="Helvetica,sans-Serif" font-size="10.00">get()</text>
<polygon fill="#666666" stroke="#666666" points="934,-77 934,-77 1009,-77 1009,-77 934,-77"/>
<polygon fill="#666666" stroke="#666666" points="934,-62 934,-62 1009,-62 1009,-62 934,-62"/>
<polygon fill="none" stroke="#666666" points="933.5,0 933.5,-94 1008.5,-94 1008.5,0 933.5,0"/>
</a>
</g>
</g>
<!-- Node2 -->
<g id="Node000002" class="node">
<title>Node2</title>
<g id="a_Node000002"><a xlink:title=" ">
<polygon fill="white" stroke="transparent" points="953.5,-680 894.5,-680 894.5,-631 953.5,-631 953.5,-680"/>
<text text-anchor="start" x="900" y="-667.5" font-family="Helvetica,sans-Serif" font-size="10.00">std::string</text>
<text text-anchor="start" x="922.5" y="-652.5" font-family="Helvetica,sans-Serif" font-size="10.00"> </text>
<text text-anchor="start" x="922.5" y="-637.5" font-family="Helvetica,sans-Serif" font-size="10.00"> </text>
<polygon fill="#666666" stroke="#666666" points="895,-662.5 895,-662.5 954,-662.5 954,-662.5 895,-662.5"/>
<polygon fill="#666666" stroke="#666666" points="895,-647.5 895,-647.5 954,-647.5 954,-647.5 895,-647.5"/>
<polygon fill="none" stroke="#666666" points="894.5,-631 894.5,-680 953.5,-680 953.5,-631 894.5,-631"/>
</a>
</g>
</g>
<!-- Node2&#45;&gt;Node1 -->
<g id="edge1_Node000001_Node000002" class="edge">
<title>Node2&#45;&gt;Node1</title>
<g id="a_edge1_Node000001_Node000002"><a xlink:title=" ">
<path fill="none" stroke="#63b8ff" d="M953.52,-641.41C992.7,-621.8 1057,-580.8 1057,-523 1057,-523 1057,-523 1057,-170 1057,-138.46 1037.56,-109.33 1017.16,-87.45"/>
<polygon fill="none" stroke="#63b8ff" points="1017.12,-87.4 1010.06,-85.91 1008.72,-78.83 1015.78,-80.32 1017.12,-87.4"/>
</a>
</g>
<text text-anchor="middle" x="1084.5" y="-328" font-family="Helvetica,sans-Serif" font-size="10.00" fill="grey"> +filename</text>
<text text-anchor="middle" x="1084.5" y="-317" font-family="Helvetica,sans-Serif" font-size="10.00" fill="grey">+tree</text>
</g>
<!-- Node5 -->
<g id="Node000005" class="node">
<title>Node5</title>
<g id="a_Node000005"><a xlink:title=" ">
<polygon fill="white" stroke="transparent" points="1029,-201 913,-201 913,-141 1029,-141 1029,-201"/>
<text text-anchor="start" x="918" y="-189" font-family="Helvetica,sans-Serif" font-size="10.00">std::map&lt; std::string,</text>
<text text-anchor="start" x="944" y="-178" font-family="Helvetica,sans-Serif" font-size="10.00"> data_t * &gt;</text>
<text text-anchor="start" x="969" y="-163" font-family="Helvetica,sans-Serif" font-size="10.00"> </text>
<text text-anchor="start" x="969" y="-148" font-family="Helvetica,sans-Serif" font-size="10.00"> </text>
<polygon fill="#666666" stroke="#666666" points="913,-173 913,-173 1029,-173 1029,-173 913,-173"/>
<polygon fill="#666666" stroke="#666666" points="913,-158 913,-158 1029,-158 1029,-158 913,-158"/>
<polygon fill="none" stroke="#666666" points="913,-141 913,-201 1029,-201 1029,-141 913,-141"/>
</a>
</g>
</g>
<!-- Node2&#45;&gt;Node5 -->
<g id="edge5_Node000005_Node000002" class="edge">
<title>Node2&#45;&gt;Node5</title>
<g id="a_edge5_Node000005_Node000002"><a xlink:title=" ">
<path fill="none" stroke="#63b8ff" d="M953.76,-634.48C969.39,-622.04 986.92,-604.53 995,-584 1021.21,-517.38 991.87,-303.69 977.74,-213.15"/>
<polygon fill="none" stroke="#63b8ff" points="977.73,-213.07 972.84,-207.77 975.85,-201.22 980.74,-206.52 977.73,-213.07"/>
</a>
</g>
<text text-anchor="middle" x="1021" y="-428.5" font-family="Helvetica,sans-Serif" font-size="10.00" fill="grey"> +keys</text>
</g>
<!-- Node6 -->
<g id="Node000006" class="node">
<title>Node6</title>
<g id="a_Node000006"><a xlink:href="structdata__t.html" target="_top" xlink:title=" ">
<polygon fill="white" stroke="transparent" points="606,-402 518,-402 518,-248 606,-248 606,-402"/>
<text text-anchor="start" x="546.5" y="-390" font-family="Helvetica,sans-Serif" font-size="10.00">data_t</text>
<text text-anchor="start" x="560" y="-375" font-family="Helvetica,sans-Serif" font-size="10.00"> </text>
<text text-anchor="start" x="522" y="-360" font-family="Helvetica,sans-Serif" font-size="10.00">+</text>
<text text-anchor="start" x="535" y="-360" font-family="Helvetica,sans-Serif" font-size="10.00">data_t()</text>
<text text-anchor="start" x="522" y="-345" font-family="Helvetica,sans-Serif" font-size="10.00">+</text>
<text text-anchor="start" x="535" y="-345" font-family="Helvetica,sans-Serif" font-size="10.00">~data_t()</text>
<text text-anchor="start" x="522" y="-330" font-family="Helvetica,sans-Serif" font-size="10.00">+</text>
<text text-anchor="start" x="535" y="-330" font-family="Helvetica,sans-Serif" font-size="10.00">initialize()</text>
<text text-anchor="start" x="522" y="-315" font-family="Helvetica,sans-Serif" font-size="10.00">+</text>
<text text-anchor="start" x="535" y="-315" font-family="Helvetica,sans-Serif" font-size="10.00">flush()</text>
<text text-anchor="start" x="522" y="-300" font-family="Helvetica,sans-Serif" font-size="10.00">+</text>
<text text-anchor="start" x="535" y="-300" font-family="Helvetica,sans-Serif" font-size="10.00">next()</text>
<text text-anchor="start" x="524.5" y="-285" font-family="Helvetica,sans-Serif" font-size="10.00">&#45;</text>
<text text-anchor="start" x="535" y="-285" font-family="Helvetica,sans-Serif" font-size="10.00">fetch_buffer()</text>
<text text-anchor="start" x="524.5" y="-270" font-family="Helvetica,sans-Serif" font-size="10.00">&#45;</text>
<text text-anchor="start" x="535" y="-270" font-family="Helvetica,sans-Serif" font-size="10.00">string_type()</text>
<text text-anchor="start" x="524.5" y="-255" font-family="Helvetica,sans-Serif" font-size="10.00">&#45;</text>
<text text-anchor="start" x="535" y="-255" font-family="Helvetica,sans-Serif" font-size="10.00">fetch_buffer()</text>
<polygon fill="#666666" stroke="#666666" points="518,-385 518,-385 606,-385 606,-385 518,-385"/>
<polygon fill="#666666" stroke="#666666" points="518,-370 518,-370 606,-370 606,-370 518,-370"/>
<polygon fill="none" stroke="#666666" points="518,-248 518,-402 606,-402 606,-248 518,-248"/>
</a>
</g>
</g>
<!-- Node2&#45;&gt;Node6 -->
<g id="edge9_Node000006_Node000002" class="edge">
<title>Node2&#45;&gt;Node6</title>
<g id="a_edge9_Node000006_Node000002"><a xlink:title=" ">
<path fill="none" stroke="#63b8ff" d="M894.28,-651.09C828.08,-642.9 671.34,-620.11 634,-584 621.36,-571.78 598.52,-483.94 581.95,-414.1"/>
<polygon fill="none" stroke="#63b8ff" points="581.89,-413.86 576.62,-408.94 579.14,-402.18 584.41,-407.1 581.89,-413.86"/>
</a>
</g>
<text text-anchor="middle" x="673" y="-547" font-family="Helvetica,sans-Serif" font-size="10.00" fill="grey"> +branch_name</text>
<text text-anchor="middle" x="673" y="-536" font-family="Helvetica,sans-Serif" font-size="10.00" fill="grey">+fname</text>
<text text-anchor="middle" x="673" y="-525" font-family="Helvetica,sans-Serif" font-size="10.00" fill="grey">+leaf_name</text>
<text text-anchor="middle" x="673" y="-514" font-family="Helvetica,sans-Serif" font-size="10.00" fill="grey">+leaf_type</text>
<text text-anchor="middle" x="673" y="-503" font-family="Helvetica,sans-Serif" font-size="10.00" fill="grey">+path</text>
<text text-anchor="middle" x="673" y="-492" font-family="Helvetica,sans-Serif" font-size="10.00" fill="grey">+tree_name</text>
</g>
<!-- Node7 -->
<g id="Node000007" class="node">
<title>Node7</title>
<g id="a_Node000007"><a xlink:href="classbsc__t.html" target="_top" xlink:title="Basic structure class that provides type translation and buffer management.">
<polygon fill="white" stroke="transparent" points="986,-584 862,-584 862,-460 986,-460 986,-584"/>
<text text-anchor="start" x="911" y="-572" font-family="Helvetica,sans-Serif" font-size="10.00">bsc_t</text>
<text text-anchor="start" x="922" y="-557" font-family="Helvetica,sans-Serif" font-size="10.00"> </text>
<text text-anchor="start" x="866" y="-542" font-family="Helvetica,sans-Serif" font-size="10.00">+</text>
<text text-anchor="start" x="879" y="-542" font-family="Helvetica,sans-Serif" font-size="10.00">bsc_t()</text>
<text text-anchor="start" x="866" y="-527" font-family="Helvetica,sans-Serif" font-size="10.00">+</text>
<text text-anchor="start" x="879" y="-527" font-family="Helvetica,sans-Serif" font-size="10.00">~bsc_t()</text>
<text text-anchor="start" x="866" y="-512" font-family="Helvetica,sans-Serif" font-size="10.00">+</text>
<text text-anchor="start" x="879" y="-512" font-family="Helvetica,sans-Serif" font-size="10.00">root_type_translate()</text>
<text text-anchor="start" x="866" y="-497" font-family="Helvetica,sans-Serif" font-size="10.00">+</text>
<text text-anchor="start" x="879" y="-497" font-family="Helvetica,sans-Serif" font-size="10.00">as_string()</text>
<text text-anchor="start" x="866" y="-482" font-family="Helvetica,sans-Serif" font-size="10.00">+</text>
<text text-anchor="start" x="879" y="-482" font-family="Helvetica,sans-Serif" font-size="10.00">scan_buffer()</text>
<text text-anchor="start" x="866" y="-467" font-family="Helvetica,sans-Serif" font-size="10.00">+</text>
<text text-anchor="start" x="879" y="-467" font-family="Helvetica,sans-Serif" font-size="10.00">flush_buffer()</text>
<polygon fill="#666666" stroke="#666666" points="862,-567 862,-567 986,-567 986,-567 862,-567"/>
<polygon fill="#666666" stroke="#666666" points="862,-552 862,-552 986,-552 986,-552 862,-552"/>
<polygon fill="none" stroke="#666666" points="862,-460 862,-584 986,-584 986,-460 862,-460"/>
</a>
</g>
</g>
<!-- Node2&#45;&gt;Node7 -->
<g id="edge8_Node000007_Node000002" class="edge">
<title>Node2&#45;&gt;Node7</title>
<g id="a_edge8_Node000007_Node000002"><a xlink:title=" ">
<path fill="none" stroke="#63b8ff" d="M924,-630.99C924,-621.03 924,-608.82 924,-596.24"/>
<polygon fill="none" stroke="#63b8ff" points="924,-596.12 920,-590.12 924,-584.12 928,-590.12 924,-596.12"/>
</a>
</g>
<text text-anchor="middle" x="944" y="-605" font-family="Helvetica,sans-Serif" font-size="10.00" fill="grey"> +buffer</text>
</g>
<!-- Node13 -->
<g id="Node000013" class="node">
<title>Node13</title>
<g id="a_Node000013"><a xlink:title=" ">
<polygon fill="white" stroke="transparent" points="484,-546.5 350,-546.5 350,-497.5 484,-497.5 484,-546.5"/>
<text text-anchor="start" x="355" y="-534" font-family="Helvetica,sans-Serif" font-size="10.00">std::vector&lt; std::string &gt;</text>
<text text-anchor="start" x="415" y="-519" font-family="Helvetica,sans-Serif" font-size="10.00"> </text>
<text text-anchor="start" x="415" y="-504" font-family="Helvetica,sans-Serif" font-size="10.00"> </text>
<polygon fill="#666666" stroke="#666666" points="350,-529 350,-529 484,-529 484,-529 350,-529"/>
<polygon fill="#666666" stroke="#666666" points="350,-514 350,-514 484,-514 484,-514 350,-514"/>
<polygon fill="none" stroke="#666666" points="350,-497.5 350,-546.5 484,-546.5 484,-497.5 350,-497.5"/>
</a>
</g>
</g>
<!-- Node2&#45;&gt;Node13 -->
<g id="edge16_Node000013_Node000002" class="edge">
<title>Node2&#45;&gt;Node13</title>
<g id="a_edge16_Node000013_Node000002"><a xlink:title=" ">
<path fill="none" stroke="#63b8ff" d="M894.11,-653.23C833.16,-650.14 690.45,-640.38 574,-613 536.78,-604.25 526.37,-602.67 493,-584 478.55,-575.92 464.05,-565.1 451.64,-554.82"/>
<polygon fill="none" stroke="#63b8ff" points="451.31,-554.54 444.15,-553.7 442.18,-546.76 449.34,-547.61 451.31,-554.54"/>
</a>
</g>
<text text-anchor="middle" x="603" y="-605" font-family="Helvetica,sans-Serif" font-size="10.00" fill="grey"> +elements</text>
</g>
<!-- Node3 -->
<g id="Node000003" class="node">
<title>Node3</title>
<g id="a_Node000003"><a xlink:title=" ">
<polygon fill="white" stroke="transparent" points="973,-787 875,-787 875,-727 973,-727 973,-787"/>
<text text-anchor="start" x="880" y="-775" font-family="Helvetica,sans-Serif" font-size="10.00">std::basic_string&lt;</text>
<text text-anchor="start" x="905.5" y="-764" font-family="Helvetica,sans-Serif" font-size="10.00"> Char &gt;</text>
<text text-anchor="start" x="922" y="-749" font-family="Helvetica,sans-Serif" font-size="10.00"> </text>
<text text-anchor="start" x="922" y="-734" font-family="Helvetica,sans-Serif" font-size="10.00"> </text>
<polygon fill="#666666" stroke="#666666" points="875,-759 875,-759 973,-759 973,-759 875,-759"/>
<polygon fill="#666666" stroke="#666666" points="875,-744 875,-744 973,-744 973,-744 875,-744"/>
<polygon fill="none" stroke="#666666" points="875,-727 875,-787 973,-787 973,-727 875,-727"/>
</a>
</g>
</g>
<!-- Node3&#45;&gt;Node2 -->
<g id="edge2_Node000002_Node000003" class="edge">
<title>Node3&#45;&gt;Node2</title>
<g id="a_edge2_Node000002_Node000003"><a xlink:title=" ">
<path fill="none" stroke="#63b8ff" d="M924,-716.8C924,-704.38 924,-691.03 924,-680.06"/>
<polygon fill="none" stroke="#63b8ff" points="920.5,-716.95 924,-726.95 927.5,-716.95 920.5,-716.95"/>
</a>
</g>
</g>
<!-- Node4 -->
<g id="Node000004" class="node">
<title>Node4</title>
<g id="a_Node000004"><a xlink:title=" ">
<polygon fill="white" stroke="transparent" points="57,-680 25,-680 25,-631 57,-631 57,-680"/>
<text text-anchor="start" x="30" y="-667.5" font-family="Helvetica,sans-Serif" font-size="10.00">long</text>
<text text-anchor="start" x="39" y="-652.5" font-family="Helvetica,sans-Serif" font-size="10.00"> </text>
<text text-anchor="start" x="39" y="-637.5" font-family="Helvetica,sans-Serif" font-size="10.00"> </text>
<polygon fill="#666666" stroke="#666666" points="25,-662.5 25,-662.5 57,-662.5 57,-662.5 25,-662.5"/>
<polygon fill="#666666" stroke="#666666" points="25,-647.5 25,-647.5 57,-647.5 57,-647.5 25,-647.5"/>
<polygon fill="none" stroke="#666666" points="25,-631 25,-680 57,-680 57,-631 25,-631"/>
</a>
</g>
</g>
<!-- Node4&#45;&gt;Node1 -->
<g id="edge3_Node000001_Node000004" class="edge">
<title>Node4&#45;&gt;Node1</title>
<g id="a_edge3_Node000001_Node000004"><a xlink:title=" ">
<path fill="none" stroke="#63b8ff" d="M28.92,-630.95C16.83,-605.16 0,-562.22 0,-523 0,-523 0,-523 0,-170 0,-76.18 722.91,-53.43 921.21,-48.96"/>
<polygon fill="none" stroke="#63b8ff" points="921.24,-48.96 927.15,-44.83 933.23,-48.7 927.32,-52.83 921.24,-48.96"/>
</a>
</g>
<text text-anchor="middle" x="36" y="-322.5" font-family="Helvetica,sans-Serif" font-size="10.00" fill="grey"> +event_index</text>
</g>
<!-- Node16 -->
<g id="Node000016" class="node">
<title>Node16</title>
<g id="a_Node000016"><a xlink:title=" ">
<polygon fill="white" stroke="transparent" points="134,-546.5 28,-546.5 28,-497.5 134,-497.5 134,-546.5"/>
<text text-anchor="start" x="33" y="-534" font-family="Helvetica,sans-Serif" font-size="10.00">std::vector&lt; long &gt;</text>
<text text-anchor="start" x="79" y="-519" font-family="Helvetica,sans-Serif" font-size="10.00"> </text>
<text text-anchor="start" x="79" y="-504" font-family="Helvetica,sans-Serif" font-size="10.00"> </text>
<polygon fill="#666666" stroke="#666666" points="28,-529 28,-529 134,-529 134,-529 28,-529"/>
<polygon fill="#666666" stroke="#666666" points="28,-514 28,-514 134,-514 134,-514 28,-514"/>
<polygon fill="none" stroke="#666666" points="28,-497.5 28,-546.5 134,-546.5 134,-497.5 28,-497.5"/>
</a>
</g>
</g>
<!-- Node4&#45;&gt;Node16 -->
<g id="edge20_Node000016_Node000004" class="edge">
<title>Node4&#45;&gt;Node16</title>
<g id="a_edge20_Node000016_Node000004"><a xlink:title=" ">
<path fill="none" stroke="#63b8ff" d="M48.15,-630.99C54.28,-610.83 63.21,-581.47 70.22,-558.45"/>
<polygon fill="none" stroke="#63b8ff" points="70.28,-558.23 68.2,-551.33 73.78,-546.75 75.86,-553.65 70.28,-558.23"/>
</a>
</g>
<text text-anchor="middle" x="86" y="-605" font-family="Helvetica,sans-Serif" font-size="10.00" fill="grey"> +elements</text>
</g>
<!-- Node5&#45;&gt;Node1 -->
<g id="edge4_Node000001_Node000005" class="edge">
<title>Node5&#45;&gt;Node1</title>
<g id="a_edge4_Node000001_Node000005"><a xlink:title=" ">
<path fill="none" stroke="#63b8ff" d="M971,-140.78C971,-130.42 971,-118.36 971,-106.44"/>
<polygon fill="none" stroke="#63b8ff" points="971,-106.14 967,-100.14 971,-94.14 975,-100.14 971,-106.14"/>
</a>
</g>
<text text-anchor="middle" x="993.5" y="-115" font-family="Helvetica,sans-Serif" font-size="10.00" fill="grey"> +handle</text>
</g>
<!-- Node6&#45;&gt;Node5 -->
<g id="edge6_Node000005_Node000006" class="edge">
<title>Node6&#45;&gt;Node5</title>
<g id="a_edge6_Node000005_Node000006"><a xlink:title=" ">
<path fill="none" stroke="#63b8ff" d="M606.16,-307.59C677.15,-281.2 817.24,-229.14 901.67,-197.77"/>
<polygon fill="none" stroke="#63b8ff" points="901.7,-197.76 905.93,-191.92 912.94,-193.58 908.71,-199.42 901.7,-197.76"/>
</a>
</g>
<text text-anchor="middle" x="868" y="-222" font-family="Helvetica,sans-Serif" font-size="10.00" fill="grey"> +elements</text>
</g>
<!-- Node7&#45;&gt;Node6 -->
<g id="edge7_Node000006_Node000007" class="edge">
<title>Node7&#45;&gt;Node6</title>
<g id="a_edge7_Node000006_Node000007"><a xlink:title=" ">
<path fill="none" stroke="#63b8ff" d="M853.91,-454.9C838.5,-442.31 821.76,-429.97 805,-420 740.07,-381.39 656.44,-353.15 606.15,-338.19"/>
<polygon fill="none" stroke="#63b8ff" points="851.91,-457.8 861.84,-461.5 856.39,-452.42 851.91,-457.8"/>
</a>
</g>
</g>
<!-- Node8 -->
<g id="Node000008" class="node">
<title>Node8</title>
<g id="a_Node000008"><a xlink:title=" ">
<polygon fill="white" stroke="transparent" points="332,-546.5 286,-546.5 286,-497.5 332,-497.5 332,-546.5"/>
<text text-anchor="start" x="291" y="-534" font-family="Helvetica,sans-Serif" font-size="10.00">TLeaf *</text>
<text text-anchor="start" x="307" y="-519" font-family="Helvetica,sans-Serif" font-size="10.00"> </text>
<text text-anchor="start" x="307" y="-504" font-family="Helvetica,sans-Serif" font-size="10.00"> </text>
<polygon fill="#666666" stroke="#666666" points="286,-529 286,-529 332,-529 332,-529 286,-529"/>
<polygon fill="#666666" stroke="#666666" points="286,-514 286,-514 332,-514 332,-514 286,-514"/>
<polygon fill="none" stroke="#666666" points="286,-497.5 286,-546.5 332,-546.5 332,-497.5 286,-497.5"/>
</a>
</g>
</g>
<!-- Node8&#45;&gt;Node6 -->
<g id="edge10_Node000006_Node000008" class="edge">
<title>Node8&#45;&gt;Node6</title>
<g id="a_edge10_Node000006_Node000008"><a xlink:title=" ">
<path fill="none" stroke="#63b8ff" d="M318.28,-497.43C323.75,-485.41 331.46,-471.04 341,-460 386.31,-407.55 457.4,-369.61 506.67,-347.77"/>
<polygon fill="none" stroke="#63b8ff" points="506.75,-347.73 510.66,-341.67 517.76,-342.95 513.85,-349.01 506.75,-347.73"/>
</a>
</g>
<text text-anchor="middle" x="397.5" y="-428.5" font-family="Helvetica,sans-Serif" font-size="10.00" fill="grey"> +leaf</text>
</g>
<!-- Node9 -->
<g id="Node000009" class="node">
<title>Node9</title>
<g id="a_Node000009"><a xlink:title=" ">
<polygon fill="white" stroke="transparent" points="780.5,-546.5 721.5,-546.5 721.5,-497.5 780.5,-497.5 780.5,-546.5"/>
<text text-anchor="start" x="727" y="-534" font-family="Helvetica,sans-Serif" font-size="10.00">TBranch *</text>
<text text-anchor="start" x="749.5" y="-519" font-family="Helvetica,sans-Serif" font-size="10.00"> </text>
<text text-anchor="start" x="749.5" y="-504" font-family="Helvetica,sans-Serif" font-size="10.00"> </text>
<polygon fill="#666666" stroke="#666666" points="722,-529 722,-529 781,-529 781,-529 722,-529"/>
<polygon fill="#666666" stroke="#666666" points="722,-514 722,-514 781,-514 781,-514 722,-514"/>
<polygon fill="none" stroke="#666666" points="721.5,-497.5 721.5,-546.5 780.5,-546.5 780.5,-497.5 721.5,-497.5"/>
</a>
</g>
</g>
<!-- Node9&#45;&gt;Node6 -->
<g id="edge11_Node000006_Node000009" class="edge">
<title>Node9&#45;&gt;Node6</title>
<g id="a_edge11_Node000006_Node000009"><a xlink:title=" ">
<path fill="none" stroke="#63b8ff" d="M735.54,-497.28C727.53,-485.63 717.3,-471.63 707,-460 678.82,-428.19 643.93,-395.76 615.43,-370.77"/>
<polygon fill="none" stroke="#63b8ff" points="615.09,-370.47 607.93,-369.55 606.03,-362.59 613.18,-363.51 615.09,-370.47"/>
</a>
</g>
<text text-anchor="middle" x="711.5" y="-428.5" font-family="Helvetica,sans-Serif" font-size="10.00" fill="grey"> +branch</text>
</g>
<!-- Node10 -->
<g id="Node000010" class="node">
<title>Node10</title>
<g id="a_Node000010"><a xlink:title=" ">
<polygon fill="white" stroke="transparent" points="843.5,-546.5 798.5,-546.5 798.5,-497.5 843.5,-497.5 843.5,-546.5"/>
<text text-anchor="start" x="804" y="-534" font-family="Helvetica,sans-Serif" font-size="10.00">TTree *</text>
<text text-anchor="start" x="819.5" y="-519" font-family="Helvetica,sans-Serif" font-size="10.00"> </text>
<text text-anchor="start" x="819.5" y="-504" font-family="Helvetica,sans-Serif" font-size="10.00"> </text>
<polygon fill="#666666" stroke="#666666" points="799,-529 799,-529 844,-529 844,-529 799,-529"/>
<polygon fill="#666666" stroke="#666666" points="799,-514 799,-514 844,-514 844,-514 799,-514"/>
<polygon fill="none" stroke="#666666" points="798.5,-497.5 798.5,-546.5 843.5,-546.5 843.5,-497.5 798.5,-497.5"/>
</a>
</g>
</g>
<!-- Node10&#45;&gt;Node6 -->
<g id="edge12_Node000006_Node000010" class="edge">
<title>Node10&#45;&gt;Node6</title>
<g id="a_edge12_Node000006_Node000010"><a xlink:title=" ">
<path fill="none" stroke="#63b8ff" d="M811.41,-497.28C805.92,-485.36 798.26,-471.12 789,-460 743.12,-404.91 668.39,-367.07 617.3,-345.99"/>
<polygon fill="none" stroke="#63b8ff" points="617.27,-345.98 610.21,-347.45 606.13,-341.49 613.19,-340.02 617.27,-345.98"/>
</a>
</g>
<text text-anchor="middle" x="785.5" y="-428.5" font-family="Helvetica,sans-Serif" font-size="10.00" fill="grey"> +tree</text>
</g>
<!-- Node11 -->
<g id="Node000011" class="node">
<title>Node11</title>
<g id="a_Node000011"><a xlink:title=" ">
<polygon fill="white" stroke="transparent" points="523,-680 481,-680 481,-631 523,-631 523,-680"/>
<text text-anchor="start" x="486" y="-667.5" font-family="Helvetica,sans-Serif" font-size="10.00">TFile *</text>
<text text-anchor="start" x="500" y="-652.5" font-family="Helvetica,sans-Serif" font-size="10.00"> </text>
<text text-anchor="start" x="500" y="-637.5" font-family="Helvetica,sans-Serif" font-size="10.00"> </text>
<polygon fill="#666666" stroke="#666666" points="481,-662.5 481,-662.5 523,-662.5 523,-662.5 481,-662.5"/>
<polygon fill="#666666" stroke="#666666" points="481,-647.5 481,-647.5 523,-647.5 523,-647.5 481,-647.5"/>
<polygon fill="none" stroke="#666666" points="481,-631 481,-680 523,-680 523,-631 481,-631"/>
</a>
</g>
</g>
<!-- Node11&#45;&gt;Node6 -->
<g id="edge13_Node000006_Node000011" class="edge">
<title>Node11&#45;&gt;Node6</title>
<g id="a_edge13_Node000006_Node000011"><a xlink:title=" ">
<path fill="none" stroke="#63b8ff" d="M515.08,-630.74C521.83,-617.39 529.57,-600.21 534,-584 549.11,-528.8 556.11,-464.86 559.34,-414.44"/>
<polygon fill="none" stroke="#63b8ff" points="559.35,-414.23 555.72,-408.01 560.07,-402.26 563.7,-408.48 559.35,-414.23"/>
</a>
</g>
<text text-anchor="middle" x="569.5" y="-519.5" font-family="Helvetica,sans-Serif" font-size="10.00" fill="grey"> +file</text>
</g>
<!-- Node17 -->
<g id="Node000017" class="node">
<title>Node17</title>
<g id="a_Node000017"><a xlink:title=" ">
<polygon fill="white" stroke="transparent" points="268,-546.5 152,-546.5 152,-497.5 268,-497.5 268,-546.5"/>
<text text-anchor="start" x="157" y="-534" font-family="Helvetica,sans-Serif" font-size="10.00">std::vector&lt; TFile * &gt;</text>
<text text-anchor="start" x="208" y="-519" font-family="Helvetica,sans-Serif" font-size="10.00"> </text>
<text text-anchor="start" x="208" y="-504" font-family="Helvetica,sans-Serif" font-size="10.00"> </text>
<polygon fill="#666666" stroke="#666666" points="152,-529 152,-529 268,-529 268,-529 152,-529"/>
<polygon fill="#666666" stroke="#666666" points="152,-514 152,-514 268,-514 268,-514 152,-514"/>
<polygon fill="none" stroke="#666666" points="152,-497.5 152,-546.5 268,-546.5 268,-497.5 152,-497.5"/>
</a>
</g>
</g>
<!-- Node11&#45;&gt;Node17 -->
<g id="edge23_Node000017_Node000011" class="edge">
<title>Node11&#45;&gt;Node17</title>
<g id="a_edge23_Node000017_Node000011"><a xlink:title=" ">
<path fill="none" stroke="#63b8ff" d="M480.76,-634.46C467.28,-622.97 448.87,-609.4 430,-602 366.25,-577.01 339.3,-612.41 277,-584 262.32,-577.31 248.64,-566.18 237.53,-555.25"/>
<polygon fill="none" stroke="#63b8ff" points="237.53,-555.25 230.48,-553.71 229.19,-546.62 236.24,-548.16 237.53,-555.25"/>
</a>
</g>
<text text-anchor="middle" x="479" y="-605" font-family="Helvetica,sans-Serif" font-size="10.00" fill="grey"> +elements</text>
</g>
<!-- Node12 -->
<g id="Node000012" class="node">
<title>Node12</title>
<g id="a_Node000012"><a xlink:title=" ">
<polygon fill="white" stroke="transparent" points="525.5,-546.5 502.5,-546.5 502.5,-497.5 525.5,-497.5 525.5,-546.5"/>
<text text-anchor="start" x="508" y="-534" font-family="Helvetica,sans-Serif" font-size="10.00">int</text>
<text text-anchor="start" x="512.5" y="-519" font-family="Helvetica,sans-Serif" font-size="10.00"> </text>
<text text-anchor="start" x="512.5" y="-504" font-family="Helvetica,sans-Serif" font-size="10.00"> </text>
<polygon fill="#666666" stroke="#666666" points="503,-529 503,-529 526,-529 526,-529 503,-529"/>
<polygon fill="#666666" stroke="#666666" points="503,-514 503,-514 526,-514 526,-514 503,-514"/>
<polygon fill="none" stroke="#666666" points="502.5,-497.5 502.5,-546.5 525.5,-546.5 525.5,-497.5 502.5,-497.5"/>
</a>
</g>
</g>
<!-- Node12&#45;&gt;Node6 -->
<g id="edge14_Node000006_Node000012" class="edge">
<title>Node12&#45;&gt;Node6</title>
<g id="a_edge14_Node000006_Node000012"><a xlink:title=" ">
<path fill="none" stroke="#63b8ff" d="M505.67,-497.45C499.06,-478.29 490.66,-452.73 489,-442 487.51,-432.34 485.83,-429.25 489,-420 493.76,-406.1 501.51,-392.68 510.22,-380.53"/>
<polygon fill="none" stroke="#63b8ff" points="510.46,-380.21 510.9,-373.01 517.71,-370.64 517.27,-377.84 510.46,-380.21"/>
</a>
</g>
<text text-anchor="middle" x="518.5" y="-428.5" font-family="Helvetica,sans-Serif" font-size="10.00" fill="grey"> +file_index</text>
</g>
<!-- Node13&#45;&gt;Node6 -->
<g id="edge15_Node000006_Node000013" class="edge">
<title>Node13&#45;&gt;Node6</title>
<g id="a_edge15_Node000006_Node000013"><a xlink:title=" ">
<path fill="none" stroke="#63b8ff" d="M418.2,-497.21C420.27,-475.56 425.88,-443.49 441,-420 457.55,-394.28 483.65,-372.7 507.37,-356.73"/>
<polygon fill="none" stroke="#63b8ff" points="507.65,-356.55 510.5,-349.93 517.71,-350.01 514.86,-356.64 507.65,-356.55"/>
</a>
</g>
<text text-anchor="middle" x="462.5" y="-428.5" font-family="Helvetica,sans-Serif" font-size="10.00" fill="grey"> +files_s</text>
</g>
<!-- Node14 -->
<g id="Node000014" class="node">
<title>Node14</title>
<g id="a_Node000014"><a xlink:title=" ">
<polygon fill="white" stroke="transparent" points="355.5,-680 264.5,-680 264.5,-631 355.5,-631 355.5,-680"/>
<text text-anchor="start" x="270" y="-667.5" font-family="Helvetica,sans-Serif" font-size="10.00">std::vector&lt; T &gt;</text>
<text text-anchor="start" x="308.5" y="-652.5" font-family="Helvetica,sans-Serif" font-size="10.00"> </text>
<text text-anchor="start" x="308.5" y="-637.5" font-family="Helvetica,sans-Serif" font-size="10.00"> </text>
<polygon fill="#666666" stroke="#666666" points="265,-662.5 265,-662.5 356,-662.5 356,-662.5 265,-662.5"/>
<polygon fill="#666666" stroke="#666666" points="265,-647.5 265,-647.5 356,-647.5 356,-647.5 265,-647.5"/>
<polygon fill="none" stroke="#666666" points="264.5,-631 264.5,-680 355.5,-680 355.5,-631 264.5,-631"/>
</a>
</g>
</g>
<!-- Node14&#45;&gt;Node13 -->
<g id="edge17_Node000013_Node000014" class="edge">
<title>Node14&#45;&gt;Node13</title>
<g id="a_edge17_Node000013_Node000014"><a xlink:title=" ">
<path fill="none" stroke="orange" d="M335.58,-623.07C354.65,-599.63 380.3,-568.1 397.68,-546.75"/>
<polygon fill="orange" stroke="orange" points="332.73,-621.02 329.13,-630.99 338.16,-625.44 332.73,-621.02"/>
</a>
</g>
<text text-anchor="middle" x="388.5" y="-605" font-family="Helvetica,sans-Serif" font-size="10.00" fill="grey"> &lt; std::string &gt;</text>
</g>
<!-- Node14&#45;&gt;Node16 -->
<g id="edge21_Node000016_Node000014" class="edge">
<title>Node14&#45;&gt;Node16</title>
<g id="a_edge21_Node000016_Node000014"><a xlink:title=" ">
<path fill="none" stroke="orange" d="M254.71,-637.12C220.86,-625.07 177.55,-607.05 143,-584 127.42,-573.61 112.39,-558.97 101.03,-546.64"/>
<polygon fill="orange" stroke="orange" points="253.85,-640.53 264.45,-640.52 256.16,-633.92 253.85,-640.53"/>
</a>
</g>
<text text-anchor="middle" x="219.5" y="-605" font-family="Helvetica,sans-Serif" font-size="10.00" fill="grey"> &lt; long &gt;</text>
</g>
<!-- Node14&#45;&gt;Node17 -->
<g id="edge24_Node000017_Node000014" class="edge">
<title>Node14&#45;&gt;Node17</title>
<g id="a_edge24_Node000017_Node000014"><a xlink:title=" ">
<path fill="none" stroke="orange" d="M285.46,-622.75C282.94,-619.46 280.42,-616.16 278,-613 260.89,-590.58 241.51,-564.91 227.83,-546.73"/>
<polygon fill="orange" stroke="orange" points="282.81,-625.04 291.68,-630.83 288.36,-620.77 282.81,-625.04"/>
</a>
</g>
<text text-anchor="middle" x="307" y="-605" font-family="Helvetica,sans-Serif" font-size="10.00" fill="grey"> &lt; TFile * &gt;</text>
</g>
<!-- Node15 -->
<g id="Node000015" class="node">
<title>Node15</title>
<g id="a_Node000015"><a xlink:title=" ">
<polygon fill="white" stroke="transparent" points="1039.5,-781.5 1022.5,-781.5 1022.5,-732.5 1039.5,-732.5 1039.5,-781.5"/>
<text text-anchor="start" x="1028" y="-769" font-family="Helvetica,sans-Serif" font-size="10.00">T</text>
<text text-anchor="start" x="1029.5" y="-754" font-family="Helvetica,sans-Serif" font-size="10.00"> </text>
<text text-anchor="start" x="1029.5" y="-739" font-family="Helvetica,sans-Serif" font-size="10.00"> </text>
<polygon fill="#666666" stroke="#666666" points="1023,-764 1023,-764 1040,-764 1040,-764 1023,-764"/>
<polygon fill="#666666" stroke="#666666" points="1023,-749 1023,-749 1040,-749 1040,-749 1023,-749"/>
<polygon fill="none" stroke="#666666" points="1022.5,-732.5 1022.5,-781.5 1039.5,-781.5 1039.5,-732.5 1022.5,-732.5"/>
</a>
</g>
</g>
<!-- Node15&#45;&gt;Node14 -->
<g id="edge18_Node000014_Node000015" class="edge">
<title>Node15&#45;&gt;Node14</title>
<g id="a_edge18_Node000014_Node000015"><a xlink:title=" ">
<path fill="none" stroke="#63b8ff" d="M1022.19,-749.14C1012.81,-742.24 997.24,-731.93 982,-727 765.44,-656.88 698.04,-706.79 472,-680 437.24,-675.88 398.44,-670.29 367.52,-665.59"/>
<polygon fill="none" stroke="#63b8ff" points="367.52,-665.59 360.98,-668.63 355.65,-663.77 362.19,-660.73 367.52,-665.59"/>
</a>
</g>
<text text-anchor="middle" x="939" y="-701" font-family="Helvetica,sans-Serif" font-size="10.00" fill="grey"> +elements</text>
</g>
<!-- Node18 -->
<g id="Node000018" class="node">
<title>Node18</title>
<g id="a_Node000018"><a xlink:title=" ">
<polygon fill="white" stroke="transparent" points="1180.5,-680 1085.5,-680 1085.5,-631 1180.5,-631 1180.5,-680"/>
<text text-anchor="start" x="1091" y="-667.5" font-family="Helvetica,sans-Serif" font-size="10.00">std::map&lt; K, T &gt;</text>
<text text-anchor="start" x="1131.5" y="-652.5" font-family="Helvetica,sans-Serif" font-size="10.00"> </text>
<text text-anchor="start" x="1131.5" y="-637.5" font-family="Helvetica,sans-Serif" font-size="10.00"> </text>
<polygon fill="#666666" stroke="#666666" points="1086,-662.5 1086,-662.5 1181,-662.5 1181,-662.5 1086,-662.5"/>
<polygon fill="#666666" stroke="#666666" points="1086,-647.5 1086,-647.5 1181,-647.5 1181,-647.5 1086,-647.5"/>
<polygon fill="none" stroke="#666666" points="1085.5,-631 1085.5,-680 1180.5,-680 1180.5,-631 1085.5,-631"/>
</a>
</g>
</g>
<!-- Node15&#45;&gt;Node18 -->
<g id="edge27_Node000018_Node000015" class="edge">
<title>Node15&#45;&gt;Node18</title>
<g id="a_edge27_Node000018_Node000015"><a xlink:title=" ">
<path fill="none" stroke="#63b8ff" d="M1039.62,-740.28C1046.91,-727.88 1058.2,-710.63 1071,-698 1074.79,-694.27 1078.95,-690.66 1083.28,-687.25"/>
<polygon fill="none" stroke="#63b8ff" points="1083.29,-687.24 1085.72,-680.45 1092.92,-680.08 1090.49,-686.87 1083.29,-687.24"/>
</a>
</g>
<text text-anchor="middle" x="1100" y="-701" font-family="Helvetica,sans-Serif" font-size="10.00" fill="grey"> +elements</text>
</g>
<!-- Node16&#45;&gt;Node6 -->
<g id="edge19_Node000006_Node000016" class="edge">
<title>Node16&#45;&gt;Node6</title>
<g id="a_edge19_Node000006_Node000016"><a xlink:title=" ">
<path fill="none" stroke="#63b8ff" d="M100.95,-497.24C112.29,-484.88 127.33,-470.24 143,-460 259.23,-384.04 421.7,-348.38 506.11,-334.1"/>
<polygon fill="none" stroke="#63b8ff" points="506.14,-334.09 511.41,-329.17 517.98,-332.14 512.71,-337.07 506.14,-334.09"/>
</a>
</g>
<text text-anchor="middle" x="226" y="-428.5" font-family="Helvetica,sans-Serif" font-size="10.00" fill="grey"> +files_i</text>
</g>
<!-- Node17&#45;&gt;Node6 -->
<g id="edge22_Node000006_Node000017" class="edge">
<title>Node17&#45;&gt;Node6</title>
<g id="a_edge22_Node000006_Node000017"><a xlink:title=" ">
<path fill="none" stroke="#63b8ff" d="M229.78,-497.35C249.62,-474.89 282.04,-441.44 316,-420 376.26,-381.96 454.33,-355.4 506.18,-340.44"/>
<polygon fill="none" stroke="#63b8ff" points="506.26,-340.42 510.94,-334.93 517.8,-337.15 513.12,-342.63 506.26,-340.42"/>
</a>
</g>
<text text-anchor="middle" x="336.5" y="-428.5" font-family="Helvetica,sans-Serif" font-size="10.00" fill="grey"> +files_t</text>
</g>
<!-- Node18&#45;&gt;Node5 -->
<g id="edge25_Node000005_Node000018" class="edge">
<title>Node18&#45;&gt;Node5</title>
<g id="a_edge25_Node000005_Node000018"><a xlink:title=" ">
<path fill="none" stroke="orange" d="M1142,-620.82C1159.74,-546.74 1191.3,-366.8 1116,-248 1096.6,-217.39 1060.56,-198.42 1029.26,-187.09"/>
<polygon fill="orange" stroke="orange" points="1138.6,-620.01 1139.6,-630.56 1145.4,-621.68 1138.6,-620.01"/>
</a>
</g>
<text text-anchor="start" x="1163" y="-434" font-family="Helvetica,sans-Serif" font-size="10.00" fill="grey"> &lt; std::string, data</text>
<text text-anchor="middle" x="1208.5" y="-423" font-family="Helvetica,sans-Serif" font-size="10.00" fill="grey">_t * &gt;</text>
</g>
<!-- Node19 -->
<g id="Node000019" class="node">
<title>Node19</title>
<g id="a_Node000019"><a xlink:title=" ">
<polygon fill="white" stroke="transparent" points="1141.5,-781.5 1124.5,-781.5 1124.5,-732.5 1141.5,-732.5 1141.5,-781.5"/>
<text text-anchor="start" x="1130" y="-769" font-family="Helvetica,sans-Serif" font-size="10.00">K</text>
<text text-anchor="start" x="1131.5" y="-754" font-family="Helvetica,sans-Serif" font-size="10.00"> </text>
<text text-anchor="start" x="1131.5" y="-739" font-family="Helvetica,sans-Serif" font-size="10.00"> </text>
<polygon fill="#666666" stroke="#666666" points="1125,-764 1125,-764 1142,-764 1142,-764 1125,-764"/>
<polygon fill="#666666" stroke="#666666" points="1125,-749 1125,-749 1142,-749 1142,-749 1125,-749"/>
<polygon fill="none" stroke="#666666" points="1124.5,-732.5 1124.5,-781.5 1141.5,-781.5 1141.5,-732.5 1124.5,-732.5"/>
</a>
</g>
</g>
<!-- Node19&#45;&gt;Node18 -->
<g id="edge26_Node000018_Node000019" class="edge">
<title>Node19&#45;&gt;Node18</title>
<g id="a_edge26_Node000018_Node000019"><a xlink:title=" ">
<path fill="none" stroke="#63b8ff" d="M1133,-732.42C1133,-720.49 1133,-705.75 1133,-692.44"/>
<polygon fill="none" stroke="#63b8ff" points="1133,-692.26 1129,-686.26 1133,-680.26 1137,-686.26 1133,-692.26"/>
</a>
</g>
<text text-anchor="middle" x="1150" y="-701" font-family="Helvetica,sans-Serif" font-size="10.00" fill="grey"> +keys</text>
</g>
</g>
</svg>
