<?xml version="1.0" encoding="UTF-8" standalone="no"?>
<!DOCTYPE svg PUBLIC "-//W3C//DTD SVG 1.1//EN"
 "http://www.w3.org/Graphics/SVG/1.1/DTD/svg11.dtd">
<!-- Generated by graphviz version 2.43.0 (0)
 -->
<!-- Title: data_t::fetch_buffer Pages: 1 -->
<svg width="362pt" height="45pt"
 viewBox="0.00 0.00 362.00 45.00" xmlns="http://www.w3.org/2000/svg" xmlns:xlink="http://www.w3.org/1999/xlink">
<g id="graph0" class="graph" transform="scale(1 1) rotate(0) translate(4 41)">
<title>data_t::fetch_buffer</title>
<!-- Node1 -->
<g id="Node000001" class="node">
<title>Node1</title>
<g id="a_Node000001"><a xlink:title=" ">
<polygon fill="#999999" stroke="#666666" points="354,-19 242,-19 242,0 354,0 354,-19"/>
<text text-anchor="middle" x="298" y="-7" font-family="Helvetica,sans-Serif" font-size="10.00">data_t::fetch_buffer</text>
</a>
</g>
</g>
<!-- Node1&#45;&gt;Node1 -->
<g id="edge1_Node000001_Node000001" class="edge">
<title>Node1&#45;&gt;Node1</title>
<g id="a_edge1_Node000001_Node000001"><a xlink:title=" ">
<path fill="none" stroke="#63b8ff" d="M323.67,-28.19C322.27,-33.2 313.71,-37 298,-37 273.47,-37 266.38,-27.73 276.73,-19.08"/>
<polygon fill="#63b8ff" stroke="#63b8ff" points="326.77,-26.56 319.27,-19.08 320.47,-29.61 326.77,-26.56"/>
</a>
</g>
</g>
<!-- Node2 -->
<g id="Node000002" class="node">
<title>Node2</title>
<g id="a_Node000002"><a xlink:href="structdata__t.html#a1e32c6e18a54f7e31f6491ec52deaeff" target="_top" xlink:title=" ">
<polygon fill="white" stroke="#666666" points="206,-19 111,-19 111,0 206,0 206,-19"/>
<text text-anchor="middle" x="158.5" y="-7" font-family="Helvetica,sans-Serif" font-size="10.00">data_t::initialize</text>
</a>
</g>
</g>
<!-- Node1&#45;&gt;Node2 -->
<g id="edge2_Node000001_Node000002" class="edge">
<title>Node1&#45;&gt;Node2</title>
<g id="a_edge2_Node000001_Node000002"><a xlink:title=" ">
<path fill="none" stroke="#63b8ff" d="M231.81,-9.5C223.18,-9.5 214.48,-9.5 206.25,-9.5"/>
<polygon fill="#63b8ff" stroke="#63b8ff" points="231.87,-13 241.87,-9.5 231.87,-6 231.87,-13"/>
</a>
</g>
</g>
<!-- Node3 -->
<g id="Node000003" class="node">
<title>Node3</title>
<g id="a_Node000003"><a xlink:href="structdata__t.html#ac443d1828779a2aaf4be06b575567a9e" target="_top" xlink:title=" ">
<polygon fill="white" stroke="#666666" points="75,-19 0,-19 0,0 75,0 75,-19"/>
<text text-anchor="middle" x="37.5" y="-7" font-family="Helvetica,sans-Serif" font-size="10.00">data_t::next</text>
</a>
</g>
</g>
<!-- Node2&#45;&gt;Node3 -->
<g id="edge3_Node000002_Node000003" class="edge">
<title>Node2&#45;&gt;Node3</title>
<g id="a_edge3_Node000002_Node000003"><a xlink:title=" ">
<path fill="none" stroke="#63b8ff" d="M100.69,-9.5C91.99,-9.5 83.23,-9.5 75.13,-9.5"/>
<polygon fill="#63b8ff" stroke="#63b8ff" points="100.81,-13 110.81,-9.5 100.81,-6 100.81,-13"/>
</a>
</g>
</g>
</g>
</svg>
