<?xml version="1.0" encoding="UTF-8" standalone="no"?>
<!DOCTYPE svg PUBLIC "-//W3C//DTD SVG 1.1//EN"
 "http://www.w3.org/Graphics/SVG/1.1/DTD/svg11.dtd">
<!-- Generated by graphviz version 2.43.0 (0)
 -->
<!-- Title: perms_t Pages: 1 -->
<svg width="114pt" height="197pt"
 viewBox="0.00 0.00 114.00 197.00" xmlns="http://www.w3.org/2000/svg" xmlns:xlink="http://www.w3.org/1999/xlink">
<g id="graph0" class="graph" transform="scale(1 1) rotate(0) translate(4 193)">
<title>perms_t</title>
<!-- Node1 -->
<g id="Node000001" class="node">
<title>Node1</title>
<g id="a_Node000001"><a xlink:title=" ">
<polygon fill="#999999" stroke="transparent" points="66,-49 16,-49 16,0 66,0 66,-49"/>
<text text-anchor="start" x="21" y="-36.5" font-family="Helvetica,sans-Serif" font-size="10.00">perms_t</text>
<text text-anchor="start" x="39" y="-21.5" font-family="Helvetica,sans-Serif" font-size="10.00"> </text>
<text text-anchor="start" x="39" y="-6.5" font-family="Helvetica,sans-Serif" font-size="10.00"> </text>
<polygon fill="#666666" stroke="#666666" points="16,-31.5 16,-31.5 66,-31.5 66,-31.5 16,-31.5"/>
<polygon fill="#666666" stroke="#666666" points="16,-16.5 16,-16.5 66,-16.5 66,-16.5 16,-16.5"/>
<polygon fill="none" stroke="#666666" points="16,0 16,-49 66,-49 66,0 16,0"/>
</a>
</g>
</g>
<!-- Node2 -->
<g id="Node000002" class="node">
<title>Node2</title>
<g id="a_Node000002"><a xlink:title=" ">
<polygon fill="white" stroke="transparent" points="32,-189 0,-189 0,-140 32,-140 32,-189"/>
<text text-anchor="start" x="5" y="-176.5" font-family="Helvetica,sans-Serif" font-size="10.00">bool</text>
<text text-anchor="start" x="14" y="-161.5" font-family="Helvetica,sans-Serif" font-size="10.00"> </text>
<text text-anchor="start" x="14" y="-146.5" font-family="Helvetica,sans-Serif" font-size="10.00"> </text>
<polygon fill="#666666" stroke="#666666" points="0,-171.5 0,-171.5 32,-171.5 32,-171.5 0,-171.5"/>
<polygon fill="#666666" stroke="#666666" points="0,-156.5 0,-156.5 32,-156.5 32,-156.5 0,-156.5"/>
<polygon fill="none" stroke="#666666" points="0,-140 0,-189 32,-189 32,-140 0,-140"/>
</a>
</g>
</g>
<!-- Node2&#45;&gt;Node1 -->
<g id="edge1_Node000001_Node000002" class="edge">
<title>Node2&#45;&gt;Node1</title>
<g id="a_edge1_Node000001_Node000002"><a xlink:title=" ">
<path fill="none" stroke="#63b8ff" d="M13.78,-139.67C12.63,-119.87 12.6,-91.14 19,-67 19.57,-64.85 20.27,-62.68 21.06,-60.53"/>
<polygon fill="none" stroke="#63b8ff" points="21.17,-60.29 19.94,-53.18 26.02,-49.31 27.26,-56.42 21.17,-60.29"/>
</a>
</g>
<text text-anchor="middle" x="31.5" y="-114" font-family="Helvetica,sans-Serif" font-size="10.00" fill="grey"> +CT</text>
<text text-anchor="middle" x="31.5" y="-103" font-family="Helvetica,sans-Serif" font-size="10.00" fill="grey">+FT</text>
<text text-anchor="middle" x="31.5" y="-92" font-family="Helvetica,sans-Serif" font-size="10.00" fill="grey">+RR</text>
<text text-anchor="middle" x="31.5" y="-81" font-family="Helvetica,sans-Serif" font-size="10.00" fill="grey">+RS</text>
<text text-anchor="middle" x="31.5" y="-70" font-family="Helvetica,sans-Serif" font-size="10.00" fill="grey">+SS</text>
</g>
<!-- Node3 -->
<g id="Node000003" class="node">
<title>Node3</title>
<g id="a_Node000003"><a xlink:title=" ">
<polygon fill="white" stroke="transparent" points="82,-189 50,-189 50,-140 82,-140 82,-189"/>
<text text-anchor="start" x="55" y="-176.5" font-family="Helvetica,sans-Serif" font-size="10.00">float</text>
<text text-anchor="start" x="64" y="-161.5" font-family="Helvetica,sans-Serif" font-size="10.00"> </text>
<text text-anchor="start" x="64" y="-146.5" font-family="Helvetica,sans-Serif" font-size="10.00"> </text>
<polygon fill="#666666" stroke="#666666" points="50,-171.5 50,-171.5 82,-171.5 82,-171.5 50,-171.5"/>
<polygon fill="#666666" stroke="#666666" points="50,-156.5 50,-156.5 82,-156.5 82,-156.5 50,-156.5"/>
<polygon fill="none" stroke="#666666" points="50,-140 50,-189 82,-189 82,-140 50,-140"/>
</a>
</g>
</g>
<!-- Node3&#45;&gt;Node1 -->
<g id="edge2_Node000001_Node000003" class="edge">
<title>Node3&#45;&gt;Node1</title>
<g id="a_edge2_Node000001_Node000003"><a xlink:title=" ">
<path fill="none" stroke="#63b8ff" d="M61.7,-139.78C57.8,-118.25 52,-86.2 47.52,-61.52"/>
<polygon fill="none" stroke="#63b8ff" points="47.46,-61.18 42.46,-55.99 45.33,-49.38 50.33,-54.57 47.46,-61.18"/>
</a>
</g>
<text text-anchor="middle" x="81.5" y="-108.5" font-family="Helvetica,sans-Serif" font-size="10.00" fill="grey"> +delta_R</text>
<text text-anchor="middle" x="81.5" y="-97.5" font-family="Helvetica,sans-Serif" font-size="10.00" fill="grey">+mass</text>
<text text-anchor="middle" x="81.5" y="-86.5" font-family="Helvetica,sans-Serif" font-size="10.00" fill="grey">+top_e</text>
<text text-anchor="middle" x="81.5" y="-75.5" font-family="Helvetica,sans-Serif" font-size="10.00" fill="grey">+top_pt</text>
</g>
</g>
</svg>
