<?xml version="1.0" encoding="UTF-8" standalone="no"?>
<!DOCTYPE svg PUBLIC "-//W3C//DTD SVG 1.1//EN"
 "http://www.w3.org/Graphics/SVG/1.1/DTD/svg11.dtd">
<!-- Generated by graphviz version 2.43.0 (0)
 -->
<!-- Title: graph_t::get_truth_graph Pages: 1 -->
<svg width="493pt" height="51pt"
 viewBox="0.00 0.00 493.00 50.50" xmlns="http://www.w3.org/2000/svg" xmlns:xlink="http://www.w3.org/1999/xlink">
<g id="graph0" class="graph" transform="scale(1 1) rotate(0) translate(4 46.5)">
<title>graph_t::get_truth_graph</title>
<!-- Node1 -->
<g id="Node000001" class="node">
<title>Node1</title>
<g id="a_Node000001"><a xlink:title="Get truth features for the entire graph.">
<polygon fill="#999999" stroke="#666666" points="104,-30 0,-30 0,0 104,0 104,-30"/>
<text text-anchor="start" x="8" y="-18" font-family="Helvetica,sans-Serif" font-size="10.00">graph_t::get_truth</text>
<text text-anchor="middle" x="52" y="-7" font-family="Helvetica,sans-Serif" font-size="10.00">_graph</text>
</a>
</g>
</g>
<!-- Node2 -->
<g id="Node000002" class="node">
<title>Node2</title>
<g id="a_Node000002"><a xlink:href="structgraph__t.html#a9a07fbb8428e15bedd7fa89c8e1a1dc7" target="_top" xlink:title="Check if a feature exists and get its tensor.">
<polygon fill="white" stroke="#666666" points="257,-24.5 140,-24.5 140,-5.5 257,-5.5 257,-24.5"/>
<text text-anchor="middle" x="198.5" y="-12.5" font-family="Helvetica,sans-Serif" font-size="10.00">graph_t::has_feature</text>
</a>
</g>
</g>
<!-- Node1&#45;&gt;Node2 -->
<g id="edge1_Node000001_Node000002" class="edge">
<title>Node1&#45;&gt;Node2</title>
<g id="a_edge1_Node000001_Node000002"><a xlink:title=" ">
<path fill="none" stroke="#63b8ff" d="M104.35,-15C112.63,-15 121.31,-15 129.9,-15"/>
<polygon fill="#63b8ff" stroke="#63b8ff" points="129.92,-18.5 139.92,-15 129.92,-11.5 129.92,-18.5"/>
</a>
</g>
</g>
<!-- Node3 -->
<g id="Node000003" class="node">
<title>Node3</title>
<g id="a_Node000003"><a xlink:href="structgraph__t.html#a1e282caadefc079e39a6c29a8092325f" target="_top" xlink:title=" ">
<polygon fill="white" stroke="#666666" points="405,-24.5 293,-24.5 293,-5.5 405,-5.5 405,-24.5"/>
<text text-anchor="middle" x="349" y="-12.5" font-family="Helvetica,sans-Serif" font-size="10.00">graph_t::return_any</text>
</a>
</g>
</g>
<!-- Node2&#45;&gt;Node3 -->
<g id="edge2_Node000002_Node000003" class="edge">
<title>Node2&#45;&gt;Node3</title>
<g id="a_edge2_Node000002_Node000003"><a xlink:title=" ">
<path fill="none" stroke="#63b8ff" d="M257.34,-15C265.68,-15 274.3,-15 282.77,-15"/>
<polygon fill="#63b8ff" stroke="#63b8ff" points="282.99,-18.5 292.99,-15 282.99,-11.5 282.99,-18.5"/>
</a>
</g>
</g>
<!-- Node4 -->
<g id="Node000004" class="node">
<title>Node4</title>
<g id="a_Node000004"><a xlink:href="structs_2cxx_2base_8cxx.html#a4eee7b291ed2cdcd4e3c2496c603c48c" target="_top" xlink:title="Counts occurrences of a substring in a string.">
<polygon fill="white" stroke="#666666" points="485,-24.5 441,-24.5 441,-5.5 485,-5.5 485,-24.5"/>
<text text-anchor="middle" x="463" y="-12.5" font-family="Helvetica,sans-Serif" font-size="10.00">count</text>
</a>
</g>
</g>
<!-- Node3&#45;&gt;Node4 -->
<g id="edge3_Node000003_Node000004" class="edge">
<title>Node3&#45;&gt;Node4</title>
<g id="a_edge3_Node000003_Node000004"><a xlink:title=" ">
<path fill="none" stroke="#63b8ff" d="M405.02,-15C413.76,-15 422.54,-15 430.5,-15"/>
<polygon fill="#63b8ff" stroke="#63b8ff" points="430.76,-18.5 440.76,-15 430.76,-11.5 430.76,-18.5"/>
</a>
</g>
</g>
<!-- Node4&#45;&gt;Node4 -->
<g id="edge4_Node000004_Node000004" class="edge">
<title>Node4&#45;&gt;Node4</title>
<g id="a_edge4_Node000004_Node000004"><a xlink:title=" ">
<path fill="none" stroke="#63b8ff" d="M445.74,-24.58C437.34,-33.23 443.09,-42.5 463,-42.5 475.44,-42.5 482.35,-38.88 483.74,-34.05"/>
<polygon fill="#63b8ff" stroke="#63b8ff" points="486.99,-32.76 480.26,-24.58 480.42,-35.18 486.99,-32.76"/>
</a>
</g>
</g>
</g>
</svg>
