<?xml version="1.0" encoding="UTF-8" standalone="no"?>
<!DOCTYPE svg PUBLIC "-//W3C//DTD SVG 1.1//EN"
 "http://www.w3.org/Graphics/SVG/1.1/DTD/svg11.dtd">
<!-- Generated by graphviz version 2.43.0 (0)
 -->
<!-- Title: data_t::initialize Pages: 1 -->
<svg width="512pt" height="137pt"
 viewBox="0.00 0.00 511.70 137.00" xmlns="http://www.w3.org/2000/svg" xmlns:xlink="http://www.w3.org/1999/xlink">
<g id="graph0" class="graph" transform="scale(1 1) rotate(0) translate(4 133)">
<title>data_t::initialize</title>
<!-- Node1 -->
<g id="Node000001" class="node">
<title>Node1</title>
<g id="a_Node000001"><a xlink:title=" ">
<polygon fill="#999999" stroke="#666666" points="95,-56 0,-56 0,-37 95,-37 95,-56"/>
<text text-anchor="middle" x="47.5" y="-44" font-family="Helvetica,sans-Serif" font-size="10.00">data_t::initialize</text>
</a>
</g>
</g>
<!-- Node2 -->
<g id="Node000002" class="node">
<title>Node2</title>
<g id="a_Node000002"><a xlink:href="structdata__t.html#aa6c840c74575c1d154b3e17ef67511cc" target="_top" xlink:title=" ">
<polygon fill="white" stroke="#666666" points="243,-111 131,-111 131,-92 243,-92 243,-111"/>
<text text-anchor="middle" x="187" y="-99" font-family="Helvetica,sans-Serif" font-size="10.00">data_t::fetch_buffer</text>
</a>
</g>
</g>
<!-- Node1&#45;&gt;Node2 -->
<g id="edge1_Node000001_Node000002" class="edge">
<title>Node1&#45;&gt;Node2</title>
<g id="a_edge1_Node000001_Node000002"><a xlink:title=" ">
<path fill="none" stroke="#63b8ff" d="M68.26,-56.07C84.82,-63.91 109.18,-75.07 131,-83.5 135.56,-85.26 140.38,-87.01 145.19,-88.68"/>
<polygon fill="#63b8ff" stroke="#63b8ff" points="144.37,-92.09 154.96,-91.97 146.61,-85.46 144.37,-92.09"/>
</a>
</g>
</g>
<!-- Node3 -->
<g id="Node000003" class="node">
<title>Node3</title>
<g id="a_Node000003"><a xlink:href="classbsc__t.html#a953a8bb68bdd6acd9c97d4c0eb965319" target="_top" xlink:title="Clears the internal buffer.">
<polygon fill="white" stroke="#666666" points="239.5,-56 134.5,-56 134.5,-37 239.5,-37 239.5,-56"/>
<text text-anchor="middle" x="187" y="-44" font-family="Helvetica,sans-Serif" font-size="10.00">bsc_t::flush_buffer</text>
</a>
</g>
</g>
<!-- Node1&#45;&gt;Node3 -->
<g id="edge3_Node000001_Node000003" class="edge">
<title>Node1&#45;&gt;Node3</title>
<g id="a_edge3_Node000001_Node000003"><a xlink:title=" ">
<path fill="none" stroke="#63b8ff" d="M95.05,-46.5C104.42,-46.5 114.4,-46.5 124.2,-46.5"/>
<polygon fill="#63b8ff" stroke="#63b8ff" points="124.3,-50 134.3,-46.5 124.3,-43 124.3,-50"/>
</a>
</g>
</g>
<!-- Node4 -->
<g id="Node000004" class="node">
<title>Node4</title>
<g id="a_Node000004"><a xlink:href="structdata__t.html#a34a71707a145e9bccadd9844f79701ad" target="_top" xlink:title=" ">
<polygon fill="white" stroke="#666666" points="241,-19 133,-19 133,0 241,0 241,-19"/>
<text text-anchor="middle" x="187" y="-7" font-family="Helvetica,sans-Serif" font-size="10.00">data_t::string_type</text>
</a>
</g>
</g>
<!-- Node1&#45;&gt;Node4 -->
<g id="edge5_Node000001_Node000004" class="edge">
<title>Node1&#45;&gt;Node4</title>
<g id="a_edge5_Node000001_Node000004"><a xlink:title=" ">
<path fill="none" stroke="#63b8ff" d="M83.91,-36.97C101.1,-32.35 121.95,-26.73 140.32,-21.79"/>
<polygon fill="#63b8ff" stroke="#63b8ff" points="141.49,-25.1 150.23,-19.12 139.67,-18.34 141.49,-25.1"/>
</a>
</g>
</g>
<!-- Node2&#45;&gt;Node2 -->
<g id="edge2_Node000002_Node000002" class="edge">
<title>Node2&#45;&gt;Node2</title>
<g id="a_edge2_Node000002_Node000002"><a xlink:title=" ">
<path fill="none" stroke="#63b8ff" d="M165.73,-111.08C155.38,-119.73 162.47,-129 187,-129 202.71,-129 211.27,-125.2 212.67,-120.19"/>
<polygon fill="#63b8ff" stroke="#63b8ff" points="215.77,-118.56 208.27,-111.08 209.47,-121.61 215.77,-118.56"/>
</a>
</g>
</g>
<!-- Node3&#45;&gt;Node3 -->
<g id="edge4_Node000003_Node000003" class="edge">
<title>Node3&#45;&gt;Node3</title>
<g id="a_edge4_Node000003_Node000003"><a xlink:title=" ">
<path fill="none" stroke="#63b8ff" d="M165.73,-56.08C155.38,-64.73 162.47,-74 187,-74 202.71,-74 211.27,-70.2 212.67,-65.19"/>
<polygon fill="#63b8ff" stroke="#63b8ff" points="215.77,-63.56 208.27,-56.08 209.47,-66.61 215.77,-63.56"/>
</a>
</g>
</g>
<!-- Node5 -->
<g id="Node000005" class="node">
<title>Node5</title>
<g id="a_Node000005"><a xlink:href="classbsc__t.html#a39907da14ea4fb20f71b47d0724bf1f2" target="_top" xlink:title="Translates a ROOT type string to an internal data enumeration.">
<polygon fill="white" stroke="#666666" points="422,-19 279,-19 279,0 422,0 422,-19"/>
<text text-anchor="middle" x="350.5" y="-7" font-family="Helvetica,sans-Serif" font-size="10.00">bsc_t::root_type_translate</text>
</a>
</g>
</g>
<!-- Node4&#45;&gt;Node5 -->
<g id="edge6_Node000004_Node000005" class="edge">
<title>Node4&#45;&gt;Node5</title>
<g id="a_edge6_Node000004_Node000005"><a xlink:title=" ">
<path fill="none" stroke="#63b8ff" d="M241.33,-9.5C250.17,-9.5 259.5,-9.5 268.84,-9.5"/>
<polygon fill="#63b8ff" stroke="#63b8ff" points="268.94,-13 278.94,-9.5 268.94,-6 268.94,-13"/>
</a>
</g>
</g>
<!-- Node6 -->
<g id="Node000006" class="node">
<title>Node6</title>
<g id="a_Node000006"><a xlink:href="structs_2cxx_2base_8cxx.html#a4eee7b291ed2cdcd4e3c2496c603c48c" target="_top" xlink:title="Counts occurrences of a substring within a string.">
<polygon fill="white" stroke="#666666" points="502,-19 458,-19 458,0 502,0 502,-19"/>
<text text-anchor="middle" x="480" y="-7" font-family="Helvetica,sans-Serif" font-size="10.00">count</text>
</a>
</g>
</g>
<!-- Node5&#45;&gt;Node6 -->
<g id="edge7_Node000005_Node000006" class="edge">
<title>Node5&#45;&gt;Node6</title>
<g id="a_edge7_Node000005_Node000006"><a xlink:title=" ">
<path fill="none" stroke="#63b8ff" d="M422.33,-9.5C431.24,-9.5 439.96,-9.5 447.78,-9.5"/>
<polygon fill="#63b8ff" stroke="#63b8ff" points="447.84,-13 457.84,-9.5 447.84,-6 447.84,-13"/>
</a>
</g>
</g>
<!-- Node6&#45;&gt;Node6 -->
<g id="edge8_Node000006_Node000006" class="edge">
<title>Node6&#45;&gt;Node6</title>
<g id="a_edge8_Node000006_Node000006"><a xlink:title=" ">
<path fill="none" stroke="#63b8ff" d="M460.27,-19.08C450.67,-27.73 457.25,-37 480,-37 494.22,-37 502.12,-33.38 503.7,-28.55"/>
<polygon fill="#63b8ff" stroke="#63b8ff" points="506.83,-26.95 499.73,-19.08 500.37,-29.66 506.83,-26.95"/>
</a>
</g>
</g>
</g>
</svg>
