<?xml version="1.0" encoding="UTF-8" standalone="no"?>
<!DOCTYPE svg PUBLIC "-//W3C//DTD SVG 1.1//EN"
 "http://www.w3.org/Graphics/SVG/1.1/DTD/svg11.dtd">
<!-- Generated by graphviz version 2.43.0 (0)
 -->
<!-- Title: data_t Pages: 1 -->
<svg width="132pt" height="517pt"
 viewBox="0.00 0.00 132.00 517.00" xmlns="http://www.w3.org/2000/svg" xmlns:xlink="http://www.w3.org/1999/xlink">
<g id="graph0" class="graph" transform="scale(1 1) rotate(0) translate(4 513)">
<title>data_t</title>
<!-- Node1 -->
<g id="Node000001" class="node">
<title>Node1</title>
<g id="a_Node000001"><a xlink:title=" ">
<polygon fill="#999999" stroke="transparent" points="106,-349 18,-349 18,0 106,0 106,-349"/>
<text text-anchor="start" x="46.5" y="-336.5" font-family="Helvetica,sans-Serif" font-size="10.00">data_t</text>
<text text-anchor="start" x="22" y="-321.5" font-family="Helvetica,sans-Serif" font-size="10.00">+</text>
<text text-anchor="start" x="35" y="-321.5" font-family="Helvetica,sans-Serif" font-size="10.00">leaf_name</text>
<text text-anchor="start" x="22" y="-306.5" font-family="Helvetica,sans-Serif" font-size="10.00">+</text>
<text text-anchor="start" x="35" y="-306.5" font-family="Helvetica,sans-Serif" font-size="10.00">branch_name</text>
<text text-anchor="start" x="22" y="-291.5" font-family="Helvetica,sans-Serif" font-size="10.00">+</text>
<text text-anchor="start" x="35" y="-291.5" font-family="Helvetica,sans-Serif" font-size="10.00">tree_name</text>
<text text-anchor="start" x="22" y="-276.5" font-family="Helvetica,sans-Serif" font-size="10.00">+</text>
<text text-anchor="start" x="35" y="-276.5" font-family="Helvetica,sans-Serif" font-size="10.00">leaf_type</text>
<text text-anchor="start" x="22" y="-261.5" font-family="Helvetica,sans-Serif" font-size="10.00">+</text>
<text text-anchor="start" x="35" y="-261.5" font-family="Helvetica,sans-Serif" font-size="10.00">path</text>
<text text-anchor="start" x="22" y="-246.5" font-family="Helvetica,sans-Serif" font-size="10.00">+</text>
<text text-anchor="start" x="35" y="-246.5" font-family="Helvetica,sans-Serif" font-size="10.00">fname</text>
<text text-anchor="start" x="22" y="-231.5" font-family="Helvetica,sans-Serif" font-size="10.00">+</text>
<text text-anchor="start" x="35" y="-231.5" font-family="Helvetica,sans-Serif" font-size="10.00">leaf</text>
<text text-anchor="start" x="22" y="-216.5" font-family="Helvetica,sans-Serif" font-size="10.00">+</text>
<text text-anchor="start" x="35" y="-216.5" font-family="Helvetica,sans-Serif" font-size="10.00">branch</text>
<text text-anchor="start" x="22" y="-201.5" font-family="Helvetica,sans-Serif" font-size="10.00">+</text>
<text text-anchor="start" x="35" y="-201.5" font-family="Helvetica,sans-Serif" font-size="10.00">tree</text>
<text text-anchor="start" x="22" y="-186.5" font-family="Helvetica,sans-Serif" font-size="10.00">+</text>
<text text-anchor="start" x="35" y="-186.5" font-family="Helvetica,sans-Serif" font-size="10.00">file</text>
<text text-anchor="start" x="22" y="-171.5" font-family="Helvetica,sans-Serif" font-size="10.00">+</text>
<text text-anchor="start" x="35" y="-171.5" font-family="Helvetica,sans-Serif" font-size="10.00">file_index</text>
<text text-anchor="start" x="22" y="-156.5" font-family="Helvetica,sans-Serif" font-size="10.00">+</text>
<text text-anchor="start" x="35" y="-156.5" font-family="Helvetica,sans-Serif" font-size="10.00">files_s</text>
<text text-anchor="start" x="22" y="-141.5" font-family="Helvetica,sans-Serif" font-size="10.00">+</text>
<text text-anchor="start" x="35" y="-141.5" font-family="Helvetica,sans-Serif" font-size="10.00">files_i</text>
<text text-anchor="start" x="22" y="-126.5" font-family="Helvetica,sans-Serif" font-size="10.00">+</text>
<text text-anchor="start" x="35" y="-126.5" font-family="Helvetica,sans-Serif" font-size="10.00">files_t</text>
<text text-anchor="start" x="22" y="-111.5" font-family="Helvetica,sans-Serif" font-size="10.00">+</text>
<text text-anchor="start" x="35" y="-111.5" font-family="Helvetica,sans-Serif" font-size="10.00">data_t()</text>
<text text-anchor="start" x="22" y="-96.5" font-family="Helvetica,sans-Serif" font-size="10.00">+</text>
<text text-anchor="start" x="35" y="-96.5" font-family="Helvetica,sans-Serif" font-size="10.00">~data_t()</text>
<text text-anchor="start" x="22" y="-81.5" font-family="Helvetica,sans-Serif" font-size="10.00">+</text>
<text text-anchor="start" x="35" y="-81.5" font-family="Helvetica,sans-Serif" font-size="10.00">initialize()</text>
<text text-anchor="start" x="22" y="-66.5" font-family="Helvetica,sans-Serif" font-size="10.00">+</text>
<text text-anchor="start" x="35" y="-66.5" font-family="Helvetica,sans-Serif" font-size="10.00">flush()</text>
<text text-anchor="start" x="22" y="-51.5" font-family="Helvetica,sans-Serif" font-size="10.00">+</text>
<text text-anchor="start" x="35" y="-51.5" font-family="Helvetica,sans-Serif" font-size="10.00">next()</text>
<text text-anchor="start" x="24.5" y="-36.5" font-family="Helvetica,sans-Serif" font-size="10.00">&#45;</text>
<text text-anchor="start" x="35" y="-36.5" font-family="Helvetica,sans-Serif" font-size="10.00">fetch_buffer()</text>
<text text-anchor="start" x="24.5" y="-21.5" font-family="Helvetica,sans-Serif" font-size="10.00">&#45;</text>
<text text-anchor="start" x="35" y="-21.5" font-family="Helvetica,sans-Serif" font-size="10.00">string_type()</text>
<text text-anchor="start" x="24.5" y="-6.5" font-family="Helvetica,sans-Serif" font-size="10.00">&#45;</text>
<text text-anchor="start" x="35" y="-6.5" font-family="Helvetica,sans-Serif" font-size="10.00">fetch_buffer()</text>
<polygon fill="#666666" stroke="#666666" points="18,-331.5 18,-331.5 106,-331.5 106,-331.5 18,-331.5"/>
<polygon fill="#666666" stroke="#666666" points="18,-121.5 18,-121.5 33,-121.5 33,-121.5 18,-121.5"/>
<polygon fill="#666666" stroke="#666666" points="33,-121.5 33,-121.5 106,-121.5 106,-121.5 33,-121.5"/>
<polygon fill="none" stroke="#666666" points="18,0 18,-349 106,-349 106,0 18,0"/>
</a>
</g>
</g>
<!-- Node2 -->
<g id="Node000002" class="node">
<title>Node2</title>
<g id="a_Node000002"><a xlink:href="classbsc__t.html" target="_top" xlink:title="Basic structure class that provides type translation and buffer management.">
<polygon fill="white" stroke="transparent" points="124,-509 0,-509 0,-385 124,-385 124,-509"/>
<text text-anchor="start" x="49" y="-497" font-family="Helvetica,sans-Serif" font-size="10.00">bsc_t</text>
<text text-anchor="start" x="4" y="-482" font-family="Helvetica,sans-Serif" font-size="10.00">+</text>
<text text-anchor="start" x="17" y="-482" font-family="Helvetica,sans-Serif" font-size="10.00">buffer</text>
<text text-anchor="start" x="4" y="-467" font-family="Helvetica,sans-Serif" font-size="10.00">+</text>
<text text-anchor="start" x="17" y="-467" font-family="Helvetica,sans-Serif" font-size="10.00">bsc_t()</text>
<text text-anchor="start" x="4" y="-452" font-family="Helvetica,sans-Serif" font-size="10.00">+</text>
<text text-anchor="start" x="17" y="-452" font-family="Helvetica,sans-Serif" font-size="10.00">~bsc_t()</text>
<text text-anchor="start" x="4" y="-437" font-family="Helvetica,sans-Serif" font-size="10.00">+</text>
<text text-anchor="start" x="17" y="-437" font-family="Helvetica,sans-Serif" font-size="10.00">root_type_translate()</text>
<text text-anchor="start" x="4" y="-422" font-family="Helvetica,sans-Serif" font-size="10.00">+</text>
<text text-anchor="start" x="17" y="-422" font-family="Helvetica,sans-Serif" font-size="10.00">as_string()</text>
<text text-anchor="start" x="4" y="-407" font-family="Helvetica,sans-Serif" font-size="10.00">+</text>
<text text-anchor="start" x="17" y="-407" font-family="Helvetica,sans-Serif" font-size="10.00">scan_buffer()</text>
<text text-anchor="start" x="4" y="-392" font-family="Helvetica,sans-Serif" font-size="10.00">+</text>
<text text-anchor="start" x="17" y="-392" font-family="Helvetica,sans-Serif" font-size="10.00">flush_buffer()</text>
<polygon fill="#666666" stroke="#666666" points="0,-492 0,-492 124,-492 124,-492 0,-492"/>
<polygon fill="#666666" stroke="#666666" points="0,-477 0,-477 15,-477 15,-477 0,-477"/>
<polygon fill="#666666" stroke="#666666" points="15,-477 15,-477 124,-477 124,-477 15,-477"/>
<polygon fill="none" stroke="#666666" points="0,-385 0,-509 124,-509 124,-385 0,-385"/>
</a>
</g>
</g>
<!-- Node2&#45;&gt;Node1 -->
<g id="edge1_Node000001_Node000002" class="edge">
<title>Node2&#45;&gt;Node1</title>
<g id="a_edge1_Node000001_Node000002"><a xlink:title=" ">
<path fill="none" stroke="#63b8ff" d="M62,-374.79C62,-366.58 62,-357.96 62,-349.1"/>
<polygon fill="none" stroke="#63b8ff" points="58.5,-374.96 62,-384.96 65.5,-374.96 58.5,-374.96"/>
</a>
</g>
</g>
</g>
</svg>
