<?xml version="1.0" encoding="UTF-8" standalone="no"?>
<!DOCTYPE svg PUBLIC "-//W3C//DTD SVG 1.1//EN"
 "http://www.w3.org/Graphics/SVG/1.1/DTD/svg11.dtd">
<!-- Generated by graphviz version 2.43.0 (0)
 -->
<!-- Title: graph_t::add_content Pages: 1 -->
<svg width="300pt" height="224pt"
 viewBox="0.00 0.00 300.00 224.00" xmlns="http://www.w3.org/2000/svg" xmlns:xlink="http://www.w3.org/1999/xlink">
<g id="graph0" class="graph" transform="scale(1 1) rotate(0) translate(4 220)">
<title>graph_t::add_content</title>
<!-- Node1 -->
<g id="Node000001" class="node">
<title>Node1</title>
<g id="a_Node000001"><a xlink:title=" ">
<polygon fill="#999999" stroke="#666666" points="292,-123 173,-123 173,-104 292,-104 292,-123"/>
<text text-anchor="middle" x="232.5" y="-111" font-family="Helvetica,sans-Serif" font-size="10.00">graph_t::add_content</text>
</a>
</g>
</g>
<!-- Node2 -->
<g id="Node000002" class="node">
<title>Node2</title>
<g id="a_Node000002"><a xlink:href="structgraph__t.html#a3bd07dc62caec3b38fef61bc198c16e7" target="_top" xlink:title="Add edge&#45;level data features.">
<polygon fill="white" stroke="#666666" points="135.5,-216 1.5,-216 1.5,-197 135.5,-197 135.5,-216"/>
<text text-anchor="middle" x="68.5" y="-204" font-family="Helvetica,sans-Serif" font-size="10.00">graph_t::add_data_edge</text>
</a>
</g>
</g>
<!-- Node1&#45;&gt;Node2 -->
<g id="edge1_Node000001_Node000002" class="edge">
<title>Node1&#45;&gt;Node2</title>
<g id="a_edge1_Node000001_Node000002"><a xlink:title=" ">
<path fill="none" stroke="#63b8ff" d="M214.95,-130.19C197.17,-147.22 167.35,-173.25 137,-188.5 130.28,-191.88 122.86,-194.67 115.46,-196.97"/>
<polygon fill="#63b8ff" stroke="#63b8ff" points="217.53,-132.57 222.23,-123.08 212.64,-127.56 217.53,-132.57"/>
</a>
</g>
</g>
<!-- Node3 -->
<g id="Node000003" class="node">
<title>Node3</title>
<g id="a_Node000003"><a xlink:href="structgraph__t.html#ab96d9f7d4e64882fb6527ffb5a12a80f" target="_top" xlink:title="Add graph&#45;level data features.">
<polygon fill="white" stroke="#666666" points="137,-179 0,-179 0,-160 137,-160 137,-179"/>
<text text-anchor="middle" x="68.5" y="-167" font-family="Helvetica,sans-Serif" font-size="10.00">graph_t::add_data_graph</text>
</a>
</g>
</g>
<!-- Node1&#45;&gt;Node3 -->
<g id="edge2_Node000001_Node000003" class="edge">
<title>Node1&#45;&gt;Node3</title>
<g id="a_edge2_Node000001_Node000003"><a xlink:title=" ">
<path fill="none" stroke="#63b8ff" d="M200.72,-126.98C182.41,-134.72 158.62,-144.3 137,-151.5 127.91,-154.53 118,-157.4 108.65,-159.93"/>
<polygon fill="#63b8ff" stroke="#63b8ff" points="202.19,-130.16 210.01,-123.01 199.44,-123.72 202.19,-130.16"/>
</a>
</g>
</g>
<!-- Node4 -->
<g id="Node000004" class="node">
<title>Node4</title>
<g id="a_Node000004"><a xlink:href="structgraph__t.html#ada25cd27a1b91c458f6994b7369f5b3c" target="_top" xlink:title="Add node&#45;level data features.">
<polygon fill="white" stroke="#666666" points="135.5,-142 1.5,-142 1.5,-123 135.5,-123 135.5,-142"/>
<text text-anchor="middle" x="68.5" y="-130" font-family="Helvetica,sans-Serif" font-size="10.00">graph_t::add_data_node</text>
</a>
</g>
</g>
<!-- Node1&#45;&gt;Node4 -->
<g id="edge3_Node000001_Node000004" class="edge">
<title>Node1&#45;&gt;Node4</title>
<g id="a_edge3_Node000001_Node000004"><a xlink:title=" ">
<path fill="none" stroke="#63b8ff" d="M162.55,-121.59C153.59,-122.64 144.44,-123.71 135.53,-124.76"/>
<polygon fill="#63b8ff" stroke="#63b8ff" points="163.03,-125.05 172.56,-120.41 162.22,-118.1 163.03,-125.05"/>
</a>
</g>
</g>
<!-- Node5 -->
<g id="Node000005" class="node">
<title>Node5</title>
<g id="a_Node000005"><a xlink:href="structgraph__t.html#ab2957c1a4e2e35dcec6d85b9c5cd289f" target="_top" xlink:title="Add edge&#45;level truth features.">
<polygon fill="white" stroke="#666666" points="136,-105 1,-105 1,-86 136,-86 136,-105"/>
<text text-anchor="middle" x="68.5" y="-93" font-family="Helvetica,sans-Serif" font-size="10.00">graph_t::add_truth_edge</text>
</a>
</g>
</g>
<!-- Node1&#45;&gt;Node5 -->
<g id="edge4_Node000001_Node000005" class="edge">
<title>Node1&#45;&gt;Node5</title>
<g id="a_edge4_Node000001_Node000005"><a xlink:title=" ">
<path fill="none" stroke="#63b8ff" d="M162.42,-105.82C153.69,-104.85 144.77,-103.86 136.08,-102.9"/>
<polygon fill="#63b8ff" stroke="#63b8ff" points="162.23,-109.32 172.56,-106.95 163,-102.37 162.23,-109.32"/>
</a>
</g>
</g>
<!-- Node6 -->
<g id="Node000006" class="node">
<title>Node6</title>
<g id="a_Node000006"><a xlink:href="structgraph__t.html#a240e5e6342673e9436f7e02606e051a9" target="_top" xlink:title="Add graph&#45;level truth features.">
<polygon fill="white" stroke="#666666" points="121.5,-67.5 15.5,-67.5 15.5,-37.5 121.5,-37.5 121.5,-67.5"/>
<text text-anchor="start" x="23.5" y="-55.5" font-family="Helvetica,sans-Serif" font-size="10.00">graph_t::add_truth</text>
<text text-anchor="middle" x="68.5" y="-44.5" font-family="Helvetica,sans-Serif" font-size="10.00">_graph</text>
</a>
</g>
</g>
<!-- Node1&#45;&gt;Node6 -->
<g id="edge5_Node000001_Node000006" class="edge">
<title>Node1&#45;&gt;Node6</title>
<g id="a_edge5_Node000001_Node000006"><a xlink:title=" ">
<path fill="none" stroke="#63b8ff" d="M197.19,-100.34C179.27,-93.49 156.97,-85 137,-77.5 128.34,-74.25 119.05,-70.79 110.21,-67.51"/>
<polygon fill="#63b8ff" stroke="#63b8ff" points="196.06,-103.66 206.65,-103.96 198.56,-97.12 196.06,-103.66"/>
</a>
</g>
</g>
<!-- Node7 -->
<g id="Node000007" class="node">
<title>Node7</title>
<g id="a_Node000007"><a xlink:href="structgraph__t.html#a8b35caee94522d24ccf73316cf42d6fa" target="_top" xlink:title="Add node&#45;level truth features.">
<polygon fill="white" stroke="#666666" points="136,-19 1,-19 1,0 136,0 136,-19"/>
<text text-anchor="middle" x="68.5" y="-7" font-family="Helvetica,sans-Serif" font-size="10.00">graph_t::add_truth_node</text>
</a>
</g>
</g>
<!-- Node1&#45;&gt;Node7 -->
<g id="edge6_Node000001_Node000007" class="edge">
<title>Node1&#45;&gt;Node7</title>
<g id="a_edge6_Node000001_Node000007"><a xlink:title=" ">
<path fill="none" stroke="#63b8ff" d="M216.69,-96.05C199.43,-76.81 169.16,-46.21 137,-28.5 130.07,-24.68 122.31,-21.58 114.58,-19.07"/>
<polygon fill="#63b8ff" stroke="#63b8ff" points="214.23,-98.56 223.46,-103.78 219.5,-93.95 214.23,-98.56"/>
</a>
</g>
</g>
</g>
</svg>
