<?xml version="1.0" encoding="UTF-8" standalone="no"?>
<!DOCTYPE svg PUBLIC "-//W3C//DTD SVG 1.1//EN"
 "http://www.w3.org/Graphics/SVG/1.1/DTD/svg11.dtd">
<!-- Generated by graphviz version 2.43.0 (0)
 -->
<!-- Title: misc_t Pages: 1 -->
<svg width="212pt" height="282pt"
 viewBox="0.00 0.00 211.84 282.00" xmlns="http://www.w3.org/2000/svg" xmlns:xlink="http://www.w3.org/1999/xlink">
<g id="graph0" class="graph" transform="scale(1 1) rotate(0) translate(4 278)">
<title>misc_t</title>
<!-- Node1 -->
<g id="Node000001" class="node">
<title>Node1</title>
<g id="a_Node000001"><a xlink:title=" ">
<polygon fill="#999999" stroke="transparent" points="141.34,-49 98.34,-49 98.34,0 141.34,0 141.34,-49"/>
<text text-anchor="start" x="103.84" y="-36.5" font-family="Helvetica,sans-Serif" font-size="10.00">misc_t</text>
<text text-anchor="start" x="118.34" y="-21.5" font-family="Helvetica,sans-Serif" font-size="10.00"> </text>
<text text-anchor="start" x="118.34" y="-6.5" font-family="Helvetica,sans-Serif" font-size="10.00"> </text>
<polygon fill="#666666" stroke="#666666" points="98.84,-31.5 98.84,-31.5 141.84,-31.5 141.84,-31.5 98.84,-31.5"/>
<polygon fill="#666666" stroke="#666666" points="98.84,-16.5 98.84,-16.5 141.84,-16.5 141.84,-16.5 98.84,-16.5"/>
<polygon fill="none" stroke="#666666" points="98.34,0 98.34,-49 141.34,-49 141.34,0 98.34,0"/>
</a>
</g>
</g>
<!-- Node2 -->
<g id="Node000002" class="node">
<title>Node2</title>
<g id="a_Node000002"><a xlink:href="structkinematic__t.html" target="_top" xlink:title=" ">
<polygon fill="white" stroke="transparent" points="153.84,-145 85.84,-145 85.84,-96 153.84,-96 153.84,-145"/>
<text text-anchor="start" x="90.84" y="-132.5" font-family="Helvetica,sans-Serif" font-size="10.00">kinematic_t</text>
<text text-anchor="start" x="117.84" y="-117.5" font-family="Helvetica,sans-Serif" font-size="10.00"> </text>
<text text-anchor="start" x="117.84" y="-102.5" font-family="Helvetica,sans-Serif" font-size="10.00"> </text>
<polygon fill="#666666" stroke="#666666" points="85.84,-127.5 85.84,-127.5 153.84,-127.5 153.84,-127.5 85.84,-127.5"/>
<polygon fill="#666666" stroke="#666666" points="85.84,-112.5 85.84,-112.5 153.84,-112.5 153.84,-112.5 85.84,-112.5"/>
<polygon fill="none" stroke="#666666" points="85.84,-96 85.84,-145 153.84,-145 153.84,-96 85.84,-96"/>
</a>
</g>
</g>
<!-- Node2&#45;&gt;Node1 -->
<g id="edge1_Node000001_Node000002" class="edge">
<title>Node2&#45;&gt;Node1</title>
<g id="a_edge1_Node000001_Node000002"><a xlink:title=" ">
<path fill="none" stroke="#63b8ff" d="M119.84,-95.78C119.84,-85.32 119.84,-72.79 119.84,-61.23"/>
<polygon fill="none" stroke="#63b8ff" points="119.84,-61.21 115.84,-55.21 119.84,-49.21 123.84,-55.21 119.84,-61.21"/>
</a>
</g>
<text text-anchor="middle" x="133.34" y="-70" font-family="Helvetica,sans-Serif" font-size="10.00" fill="grey"> +kin</text>
</g>
<!-- Node3 -->
<g id="Node000003" class="node">
<title>Node3</title>
<g id="a_Node000003"><a xlink:title=" ">
<polygon fill="white" stroke="transparent" points="36.84,-274 4.84,-274 4.84,-225 36.84,-225 36.84,-274"/>
<text text-anchor="start" x="9.84" y="-261.5" font-family="Helvetica,sans-Serif" font-size="10.00">float</text>
<text text-anchor="start" x="18.84" y="-246.5" font-family="Helvetica,sans-Serif" font-size="10.00"> </text>
<text text-anchor="start" x="18.84" y="-231.5" font-family="Helvetica,sans-Serif" font-size="10.00"> </text>
<polygon fill="#666666" stroke="#666666" points="4.84,-256.5 4.84,-256.5 36.84,-256.5 36.84,-256.5 4.84,-256.5"/>
<polygon fill="#666666" stroke="#666666" points="4.84,-241.5 4.84,-241.5 36.84,-241.5 36.84,-241.5 4.84,-241.5"/>
<polygon fill="none" stroke="#666666" points="4.84,-225 4.84,-274 36.84,-274 36.84,-225 4.84,-225"/>
</a>
</g>
</g>
<!-- Node3&#45;&gt;Node1 -->
<g id="edge5_Node000001_Node000003" class="edge">
<title>Node3&#45;&gt;Node1</title>
<g id="a_edge5_Node000001_Node000003"><a xlink:title=" ">
<path fill="none" stroke="#63b8ff" d="M12.42,-224.9C2.72,-193.43 -9.22,-136.96 12.84,-96 28.42,-67.09 61.61,-48.08 86.92,-37.16"/>
<polygon fill="none" stroke="#63b8ff" points="87.13,-37.08 91.19,-31.12 98.25,-32.58 94.19,-38.54 87.13,-37.08"/>
</a>
</g>
<text text-anchor="middle" x="44.84" y="-134.5" font-family="Helvetica,sans-Serif" font-size="10.00" fill="grey"> +delta_R</text>
<text text-anchor="middle" x="44.84" y="-123.5" font-family="Helvetica,sans-Serif" font-size="10.00" fill="grey">+frc_energy</text>
<text text-anchor="middle" x="44.84" y="-112.5" font-family="Helvetica,sans-Serif" font-size="10.00" fill="grey">+frc_pt</text>
<text text-anchor="middle" x="44.84" y="-101.5" font-family="Helvetica,sans-Serif" font-size="10.00" fill="grey">+mass_clust</text>
</g>
<!-- Node3&#45;&gt;Node2 -->
<g id="edge2_Node000002_Node000003" class="edge">
<title>Node3&#45;&gt;Node2</title>
<g id="a_edge2_Node000002_Node000003"><a xlink:title=" ">
<path fill="none" stroke="#63b8ff" d="M31.48,-224.93C40.28,-206.89 53.88,-181.99 69.84,-163 72.57,-159.75 75.59,-156.56 78.73,-153.48"/>
<polygon fill="none" stroke="#63b8ff" points="78.99,-153.24 80.72,-146.24 87.85,-145.14 86.12,-152.14 78.99,-153.24"/>
</a>
</g>
<text text-anchor="middle" x="92.84" y="-199" font-family="Helvetica,sans-Serif" font-size="10.00" fill="grey"> +energy</text>
<text text-anchor="middle" x="92.84" y="-188" font-family="Helvetica,sans-Serif" font-size="10.00" fill="grey">+eta</text>
<text text-anchor="middle" x="92.84" y="-177" font-family="Helvetica,sans-Serif" font-size="10.00" fill="grey">+phi</text>
<text text-anchor="middle" x="92.84" y="-166" font-family="Helvetica,sans-Serif" font-size="10.00" fill="grey">+pt</text>
</g>
<!-- Node4 -->
<g id="Node000004" class="node">
<title>Node4</title>
<g id="a_Node000004"><a xlink:title=" ">
<polygon fill="white" stroke="transparent" points="131.34,-274 108.34,-274 108.34,-225 131.34,-225 131.34,-274"/>
<text text-anchor="start" x="113.84" y="-261.5" font-family="Helvetica,sans-Serif" font-size="10.00">int</text>
<text text-anchor="start" x="118.34" y="-246.5" font-family="Helvetica,sans-Serif" font-size="10.00"> </text>
<text text-anchor="start" x="118.34" y="-231.5" font-family="Helvetica,sans-Serif" font-size="10.00"> </text>
<polygon fill="#666666" stroke="#666666" points="108.84,-256.5 108.84,-256.5 131.84,-256.5 131.84,-256.5 108.84,-256.5"/>
<polygon fill="#666666" stroke="#666666" points="108.84,-241.5 108.84,-241.5 131.84,-241.5 131.84,-241.5 108.84,-241.5"/>
<polygon fill="none" stroke="#666666" points="108.34,-225 108.34,-274 131.34,-274 131.34,-225 108.34,-225"/>
</a>
</g>
</g>
<!-- Node4&#45;&gt;Node2 -->
<g id="edge3_Node000002_Node000004" class="edge">
<title>Node4&#45;&gt;Node2</title>
<g id="a_edge3_Node000002_Node000004"><a xlink:title=" ">
<path fill="none" stroke="#63b8ff" d="M119.84,-224.91C119.84,-205.96 119.84,-179.04 119.84,-157.41"/>
<polygon fill="none" stroke="#63b8ff" points="119.84,-157.39 115.84,-151.39 119.84,-145.39 123.84,-151.39 119.84,-157.39"/>
</a>
</g>
<text text-anchor="middle" x="139.34" y="-182.5" font-family="Helvetica,sans-Serif" font-size="10.00" fill="grey"> +pdgid</text>
</g>
<!-- Node5 -->
<g id="Node000005" class="node">
<title>Node5</title>
<g id="a_Node000005"><a xlink:title=" ">
<polygon fill="white" stroke="transparent" points="203.84,-145 171.84,-145 171.84,-96 203.84,-96 203.84,-145"/>
<text text-anchor="start" x="176.84" y="-132.5" font-family="Helvetica,sans-Serif" font-size="10.00">bool</text>
<text text-anchor="start" x="185.84" y="-117.5" font-family="Helvetica,sans-Serif" font-size="10.00"> </text>
<text text-anchor="start" x="185.84" y="-102.5" font-family="Helvetica,sans-Serif" font-size="10.00"> </text>
<polygon fill="#666666" stroke="#666666" points="171.84,-127.5 171.84,-127.5 203.84,-127.5 203.84,-127.5 171.84,-127.5"/>
<polygon fill="#666666" stroke="#666666" points="171.84,-112.5 171.84,-112.5 203.84,-112.5 203.84,-112.5 171.84,-112.5"/>
<polygon fill="none" stroke="#666666" points="171.84,-96 171.84,-145 203.84,-145 203.84,-96 171.84,-96"/>
</a>
</g>
</g>
<!-- Node5&#45;&gt;Node1 -->
<g id="edge4_Node000001_Node000005" class="edge">
<title>Node5&#45;&gt;Node1</title>
<g id="a_edge4_Node000001_Node000005"><a xlink:title=" ">
<path fill="none" stroke="#63b8ff" d="M171.77,-96.4C165.32,-87.21 157.78,-76.57 150.84,-67 148.93,-64.36 146.93,-61.64 144.92,-58.91"/>
<polygon fill="none" stroke="#63b8ff" points="144.81,-58.76 138.02,-56.32 137.66,-49.12 144.45,-51.55 144.81,-58.76"/>
</a>
</g>
<text text-anchor="middle" x="177.84" y="-70" font-family="Helvetica,sans-Serif" font-size="10.00" fill="grey"> +is_lep</text>
</g>
</g>
</svg>
