<?xml version="1.0" encoding="UTF-8" standalone="no"?>
<!DOCTYPE svg PUBLIC "-//W3C//DTD SVG 1.1//EN"
 "http://www.w3.org/Graphics/SVG/1.1/DTD/svg11.dtd">
<!-- Generated by graphviz version 2.43.0 (0)
 -->
<!-- Title: weights_t Pages: 1 -->
<svg width="468pt" height="384pt"
 viewBox="0.00 0.00 467.50 384.00" xmlns="http://www.w3.org/2000/svg" xmlns:xlink="http://www.w3.org/1999/xlink">

<svg id="main" version="1.1" xmlns="http://www.w3.org/2000/svg" xmlns:xlink="http://www.w3.org/1999/xlink" xml:space="preserve" onload="init(evt)">
<style type="text/css"><![CDATA[
.node, .edge {opacity: 0.7;}
.node.selected, .edge.selected {opacity: 1;}
.edge:hover path { stroke: red; }
.edge:hover polygon { stroke: red; fill: red; }
]]></style>
<script type="application/ecmascript" xlink:href="svg.min.js"/>
<svg id="graph" class="graph">
<g id="graph0" class="graph" transform="scale(1 1) rotate(0) translate(4 380)">
<title>weights_t</title>
<!-- Node1 -->
<g id="Node000001" class="node">
<title>Node1</title>
<g id="a_Node000001"><a xlink:title="Structure to hold weight&#45;related information for events.">
<polygon fill="#999999" stroke="transparent" points="149.5,-49 91.5,-49 91.5,0 149.5,0 149.5,-49"/>
<text text-anchor="start" x="96.5" y="-36.5" font-family="Helvetica,sans-Serif" font-size="10.00">weights_t</text>
<text text-anchor="start" x="118.5" y="-21.5" font-family="Helvetica,sans-Serif" font-size="10.00"> </text>
<text text-anchor="start" x="118.5" y="-6.5" font-family="Helvetica,sans-Serif" font-size="10.00"> </text>
<polygon fill="#666666" stroke="#666666" points="91.5,-31.5 91.5,-31.5 149.5,-31.5 149.5,-31.5 91.5,-31.5"/>
<polygon fill="#666666" stroke="#666666" points="91.5,-16.5 91.5,-16.5 149.5,-16.5 149.5,-16.5 91.5,-16.5"/>
<polygon fill="none" stroke="#666666" points="91.5,0 91.5,-49 149.5,-49 149.5,0 91.5,0"/>
</a>
</g>
</g>
<!-- Node2 -->
<g id="Node000002" class="node">
<title>Node2</title>
<g id="a_Node000002"><a xlink:title=" ">
<polygon fill="white" stroke="transparent" points="23,-159 0,-159 0,-110 23,-110 23,-159"/>
<text text-anchor="start" x="5.5" y="-146.5" font-family="Helvetica,sans-Serif" font-size="10.00">int</text>
<text text-anchor="start" x="10" y="-131.5" font-family="Helvetica,sans-Serif" font-size="10.00"> </text>
<text text-anchor="start" x="10" y="-116.5" font-family="Helvetica,sans-Serif" font-size="10.00"> </text>
<polygon fill="#666666" stroke="#666666" points="0.5,-141.5 0.5,-141.5 23.5,-141.5 23.5,-141.5 0.5,-141.5"/>
<polygon fill="#666666" stroke="#666666" points="0.5,-126.5 0.5,-126.5 23.5,-126.5 23.5,-126.5 0.5,-126.5"/>
<polygon fill="none" stroke="#666666" points="0,-110 0,-159 23,-159 23,-110 0,-110"/>
</a>
</g>
</g>
<!-- Node2&#45;&gt;Node1 -->
<g id="edge1_Node000001_Node000002" class="edge">
<title>Node2&#45;&gt;Node1</title>
<g id="a_edge1_Node000001_Node000002"><a xlink:title=" ">
<path fill="none" stroke="#63b8ff" d="M12.52,-109.97C14.24,-96.09 18.46,-78.95 28.5,-67 41.54,-51.48 61.57,-41.51 79.62,-35.25"/>
<polygon fill="none" stroke="#63b8ff" points="79.65,-35.24 84.18,-29.63 91.1,-31.65 86.58,-37.26 79.65,-35.24"/>
</a>
</g>
<text text-anchor="middle" x="44.5" y="-70" font-family="Helvetica,sans-Serif" font-size="10.00" fill="grey"> +dsid</text>
</g>
<!-- Node3 -->
<g id="Node000003" class="node">
<title>Node3</title>
<g id="a_Node000003"><a xlink:title=" ">
<polygon fill="white" stroke="transparent" points="82.5,-159 50.5,-159 50.5,-110 82.5,-110 82.5,-159"/>
<text text-anchor="start" x="55.5" y="-146.5" font-family="Helvetica,sans-Serif" font-size="10.00">bool</text>
<text text-anchor="start" x="64.5" y="-131.5" font-family="Helvetica,sans-Serif" font-size="10.00"> </text>
<text text-anchor="start" x="64.5" y="-116.5" font-family="Helvetica,sans-Serif" font-size="10.00"> </text>
<polygon fill="#666666" stroke="#666666" points="50.5,-141.5 50.5,-141.5 82.5,-141.5 82.5,-141.5 50.5,-141.5"/>
<polygon fill="#666666" stroke="#666666" points="50.5,-126.5 50.5,-126.5 82.5,-126.5 82.5,-126.5 50.5,-126.5"/>
<polygon fill="none" stroke="#666666" points="50.5,-110 50.5,-159 82.5,-159 82.5,-110 50.5,-110"/>
</a>
</g>
</g>
<!-- Node3&#45;&gt;Node1 -->
<g id="edge2_Node000001_Node000003" class="edge">
<title>Node3&#45;&gt;Node1</title>
<g id="a_edge2_Node000001_Node000003"><a xlink:title=" ">
<path fill="none" stroke="#63b8ff" d="M62.04,-109.87C60.68,-96.6 60.98,-80.13 67.5,-67 70.91,-60.13 76.05,-54.06 81.82,-48.82"/>
<polygon fill="none" stroke="#63b8ff" points="81.86,-48.79 84.05,-41.91 91.23,-41.29 89.05,-48.16 81.86,-48.79"/>
</a>
</g>
<text text-anchor="middle" x="87" y="-70" font-family="Helvetica,sans-Serif" font-size="10.00" fill="grey"> +isAFII</text>
</g>
<!-- Node4 -->
<g id="Node000004" class="node">
<title>Node4</title>
<g id="a_Node000004"><a xlink:title=" ">
<polygon fill="white" stroke="transparent" points="415,-269 356,-269 356,-220 415,-220 415,-269"/>
<text text-anchor="start" x="361.5" y="-256.5" font-family="Helvetica,sans-Serif" font-size="10.00">std::string</text>
<text text-anchor="start" x="384" y="-241.5" font-family="Helvetica,sans-Serif" font-size="10.00"> </text>
<text text-anchor="start" x="384" y="-226.5" font-family="Helvetica,sans-Serif" font-size="10.00"> </text>
<polygon fill="#666666" stroke="#666666" points="356.5,-251.5 356.5,-251.5 415.5,-251.5 415.5,-251.5 356.5,-251.5"/>
<polygon fill="#666666" stroke="#666666" points="356.5,-236.5 356.5,-236.5 415.5,-236.5 415.5,-236.5 356.5,-236.5"/>
<polygon fill="none" stroke="#666666" points="356,-220 356,-269 415,-269 415,-220 356,-220"/>
</a>
</g>
</g>
<!-- Node4&#45;&gt;Node1 -->
<g id="edge3_Node000001_Node000004" class="edge">
<title>Node4&#45;&gt;Node1</title>
<g id="a_edge3_Node000001_Node000004"><a xlink:title=" ">
<path fill="none" stroke="#63b8ff" d="M393.56,-219.79C402.85,-187.59 413.3,-130.16 383.5,-96 354.53,-62.78 228.21,-40.55 161.74,-30.92"/>
<polygon fill="none" stroke="#63b8ff" points="161.56,-30.9 155.06,-34.02 149.68,-29.22 156.18,-26.1 161.56,-30.9"/>
</a>
</g>
<text text-anchor="middle" x="431.5" y="-137.5" font-family="Helvetica,sans-Serif" font-size="10.00" fill="grey"> +ami_tag</text>
<text text-anchor="middle" x="431.5" y="-126.5" font-family="Helvetica,sans-Serif" font-size="10.00" fill="grey">+generator</text>
</g>
<!-- Node7 -->
<g id="Node000007" class="node">
<title>Node7</title>
<g id="a_Node000007"><a xlink:title=" ">
<polygon fill="white" stroke="transparent" points="374.5,-164.5 258.5,-164.5 258.5,-104.5 374.5,-104.5 374.5,-164.5"/>
<text text-anchor="start" x="263.5" y="-152.5" font-family="Helvetica,sans-Serif" font-size="10.00">std::map&lt; std::string,</text>
<text text-anchor="start" x="298" y="-141.5" font-family="Helvetica,sans-Serif" font-size="10.00"> float &gt;</text>
<text text-anchor="start" x="314.5" y="-126.5" font-family="Helvetica,sans-Serif" font-size="10.00"> </text>
<text text-anchor="start" x="314.5" y="-111.5" font-family="Helvetica,sans-Serif" font-size="10.00"> </text>
<polygon fill="#666666" stroke="#666666" points="258.5,-136.5 258.5,-136.5 374.5,-136.5 374.5,-136.5 258.5,-136.5"/>
<polygon fill="#666666" stroke="#666666" points="258.5,-121.5 258.5,-121.5 374.5,-121.5 374.5,-121.5 258.5,-121.5"/>
<polygon fill="none" stroke="#666666" points="258.5,-104.5 258.5,-164.5 374.5,-164.5 374.5,-104.5 258.5,-104.5"/>
</a>
</g>
</g>
<!-- Node4&#45;&gt;Node7 -->
<g id="edge7_Node000007_Node000004" class="edge">
<title>Node4&#45;&gt;Node7</title>
<g id="a_edge7_Node000007_Node000004"><a xlink:title=" ">
<path fill="none" stroke="#63b8ff" d="M370.36,-219.8C361.91,-206.58 351.18,-189.78 341.52,-174.66"/>
<polygon fill="none" stroke="#63b8ff" points="341.51,-174.64 334.91,-171.74 335.05,-164.53 341.65,-167.43 341.51,-174.64"/>
</a>
</g>
<text text-anchor="middle" x="374.5" y="-194" font-family="Helvetica,sans-Serif" font-size="10.00" fill="grey"> +keys</text>
</g>
<!-- Node5 -->
<g id="Node000005" class="node">
<title>Node5</title>
<g id="a_Node000005"><a xlink:title=" ">
<polygon fill="white" stroke="transparent" points="434.5,-376 336.5,-376 336.5,-316 434.5,-316 434.5,-376"/>
<text text-anchor="start" x="341.5" y="-364" font-family="Helvetica,sans-Serif" font-size="10.00">std::basic_string&lt;</text>
<text text-anchor="start" x="367" y="-353" font-family="Helvetica,sans-Serif" font-size="10.00"> Char &gt;</text>
<text text-anchor="start" x="383.5" y="-338" font-family="Helvetica,sans-Serif" font-size="10.00"> </text>
<text text-anchor="start" x="383.5" y="-323" font-family="Helvetica,sans-Serif" font-size="10.00"> </text>
<polygon fill="#666666" stroke="#666666" points="336.5,-348 336.5,-348 434.5,-348 434.5,-348 336.5,-348"/>
<polygon fill="#666666" stroke="#666666" points="336.5,-333 336.5,-333 434.5,-333 434.5,-333 336.5,-333"/>
<polygon fill="none" stroke="#666666" points="336.5,-316 336.5,-376 434.5,-376 434.5,-316 336.5,-316"/>
</a>
</g>
</g>
<!-- Node5&#45;&gt;Node4 -->
<g id="edge4_Node000004_Node000005" class="edge">
<title>Node5&#45;&gt;Node4</title>
<g id="a_edge4_Node000004_Node000005"><a xlink:title=" ">
<path fill="none" stroke="#63b8ff" d="M385.5,-305.8C385.5,-293.38 385.5,-280.03 385.5,-269.06"/>
<polygon fill="none" stroke="#63b8ff" points="382,-305.95 385.5,-315.95 389,-305.95 382,-305.95"/>
</a>
</g>
</g>
<!-- Node6 -->
<g id="Node000006" class="node">
<title>Node6</title>
<g id="a_Node000006"><a xlink:title=" ">
<polygon fill="white" stroke="transparent" points="153.5,-269 121.5,-269 121.5,-220 153.5,-220 153.5,-269"/>
<text text-anchor="start" x="126.5" y="-256.5" font-family="Helvetica,sans-Serif" font-size="10.00">float</text>
<text text-anchor="start" x="135.5" y="-241.5" font-family="Helvetica,sans-Serif" font-size="10.00"> </text>
<text text-anchor="start" x="135.5" y="-226.5" font-family="Helvetica,sans-Serif" font-size="10.00"> </text>
<polygon fill="#666666" stroke="#666666" points="121.5,-251.5 121.5,-251.5 153.5,-251.5 153.5,-251.5 121.5,-251.5"/>
<polygon fill="#666666" stroke="#666666" points="121.5,-236.5 121.5,-236.5 153.5,-236.5 153.5,-236.5 121.5,-236.5"/>
<polygon fill="none" stroke="#666666" points="121.5,-220 121.5,-269 153.5,-269 153.5,-220 121.5,-220"/>
</a>
</g>
</g>
<!-- Node6&#45;&gt;Node1 -->
<g id="edge5_Node000001_Node000006" class="edge">
<title>Node6&#45;&gt;Node1</title>
<g id="a_edge5_Node000001_Node000006"><a xlink:title=" ">
<path fill="none" stroke="#63b8ff" d="M134.49,-219.71C132.84,-206.06 130.86,-188.58 129.5,-173 126.18,-134.93 123.68,-91.22 122.16,-61.33"/>
<polygon fill="none" stroke="#63b8ff" points="122.15,-61.02 117.86,-55.22 121.56,-49.03 125.85,-54.83 122.15,-61.02"/>
</a>
</g>
<text text-anchor="middle" x="189.5" y="-165" font-family="Helvetica,sans-Serif" font-size="10.00" fill="grey"> +processed_events</text>
<text text-anchor="start" x="129.5" y="-154" font-family="Helvetica,sans-Serif" font-size="10.00" fill="grey">+processed_events</text>
<text text-anchor="middle" x="189.5" y="-143" font-family="Helvetica,sans-Serif" font-size="10.00" fill="grey">_weighted</text>
<text text-anchor="start" x="129.5" y="-132" font-family="Helvetica,sans-Serif" font-size="10.00" fill="grey">+processed_events</text>
<text text-anchor="middle" x="189.5" y="-121" font-family="Helvetica,sans-Serif" font-size="10.00" fill="grey">_weighted_squared</text>
<text text-anchor="middle" x="189.5" y="-110" font-family="Helvetica,sans-Serif" font-size="10.00" fill="grey">+total_events</text>
<text text-anchor="middle" x="189.5" y="-99" font-family="Helvetica,sans-Serif" font-size="10.00" fill="grey">+total_events_weighted</text>
</g>
<!-- Node6&#45;&gt;Node7 -->
<g id="edge8_Node000007_Node000006" class="edge">
<title>Node6&#45;&gt;Node7</title>
<g id="a_edge8_Node000007_Node000006"><a xlink:title=" ">
<path fill="none" stroke="#63b8ff" d="M152.14,-219.75C159.5,-209.57 169.26,-198.35 180.5,-191 205.23,-174.82 217.03,-183.88 244.5,-173 247.15,-171.95 249.84,-170.83 252.53,-169.66"/>
<polygon fill="none" stroke="#63b8ff" points="252.68,-169.59 256.48,-163.46 263.6,-164.6 259.8,-170.74 252.68,-169.59"/>
</a>
</g>
<text text-anchor="middle" x="209.5" y="-194" font-family="Helvetica,sans-Serif" font-size="10.00" fill="grey"> +elements</text>
</g>
<!-- Node7&#45;&gt;Node1 -->
<g id="edge6_Node000001_Node000007" class="edge">
<title>Node7&#45;&gt;Node1</title>
<g id="a_edge6_Node000001_Node000007"><a xlink:title=" ">
<path fill="none" stroke="#63b8ff" d="M263.72,-104.42C231.24,-86.52 190.29,-63.95 160.5,-47.54"/>
<polygon fill="none" stroke="#63b8ff" points="160.18,-47.36 152.99,-47.97 149.67,-41.57 156.85,-40.96 160.18,-47.36"/>
</a>
</g>
<text text-anchor="middle" x="242" y="-70" font-family="Helvetica,sans-Serif" font-size="10.00" fill="grey"> +hist_data</text>
</g>
<!-- Node8 -->
<g id="Node000008" class="node">
<title>Node8</title>
<g id="a_Node000008"><a xlink:title=" ">
<polygon fill="white" stroke="transparent" points="283,-269 188,-269 188,-220 283,-220 283,-269"/>
<text text-anchor="start" x="193.5" y="-256.5" font-family="Helvetica,sans-Serif" font-size="10.00">std::map&lt; K, T &gt;</text>
<text text-anchor="start" x="234" y="-241.5" font-family="Helvetica,sans-Serif" font-size="10.00"> </text>
<text text-anchor="start" x="234" y="-226.5" font-family="Helvetica,sans-Serif" font-size="10.00"> </text>
<polygon fill="#666666" stroke="#666666" points="188.5,-251.5 188.5,-251.5 283.5,-251.5 283.5,-251.5 188.5,-251.5"/>
<polygon fill="#666666" stroke="#666666" points="188.5,-236.5 188.5,-236.5 283.5,-236.5 283.5,-236.5 188.5,-236.5"/>
<polygon fill="none" stroke="#666666" points="188,-220 188,-269 283,-269 283,-220 188,-220"/>
</a>
</g>
</g>
<!-- Node8&#45;&gt;Node7 -->
<g id="edge9_Node000007_Node000008" class="edge">
<title>Node8&#45;&gt;Node7</title>
<g id="a_edge9_Node000007_Node000008"><a xlink:title=" ">
<path fill="none" stroke="orange" d="M238.95,-209.83C240.59,-203.27 243,-196.67 246.5,-191 252.61,-181.1 261.15,-172.24 270.17,-164.66"/>
<polygon fill="orange" stroke="orange" points="235.45,-209.5 236.94,-219.99 242.31,-210.86 235.45,-209.5"/>
</a>
</g>
<text text-anchor="middle" x="298" y="-194" font-family="Helvetica,sans-Serif" font-size="10.00" fill="grey"> &lt; std::string, float &gt;</text>
</g>
<!-- Node9 -->
<g id="Node000009" class="node">
<title>Node9</title>
<g id="a_Node000009"><a xlink:title=" ">
<polygon fill="white" stroke="transparent" points="215,-370.5 198,-370.5 198,-321.5 215,-321.5 215,-370.5"/>
<text text-anchor="start" x="203.5" y="-358" font-family="Helvetica,sans-Serif" font-size="10.00">K</text>
<text text-anchor="start" x="205" y="-343" font-family="Helvetica,sans-Serif" font-size="10.00"> </text>
<text text-anchor="start" x="205" y="-328" font-family="Helvetica,sans-Serif" font-size="10.00"> </text>
<polygon fill="#666666" stroke="#666666" points="198.5,-353 198.5,-353 215.5,-353 215.5,-353 198.5,-353"/>
<polygon fill="#666666" stroke="#666666" points="198.5,-338 198.5,-338 215.5,-338 215.5,-338 198.5,-338"/>
<polygon fill="none" stroke="#666666" points="198,-321.5 198,-370.5 215,-370.5 215,-321.5 198,-321.5"/>
</a>
</g>
</g>
<!-- Node9&#45;&gt;Node8 -->
<g id="edge10_Node000008_Node000009" class="edge">
<title>Node9&#45;&gt;Node8</title>
<g id="a_edge10_Node000008_Node000009"><a xlink:title=" ">
<path fill="none" stroke="#63b8ff" d="M205.63,-321.39C205.87,-310.68 207.04,-297.97 210.5,-287 211.25,-284.62 212.16,-282.23 213.19,-279.87"/>
<polygon fill="none" stroke="#63b8ff" points="213.2,-279.85 212.37,-272.69 218.65,-269.16 219.49,-276.32 213.2,-279.85"/>
</a>
</g>
<text text-anchor="middle" x="227.5" y="-290" font-family="Helvetica,sans-Serif" font-size="10.00" fill="grey"> +keys</text>
</g>
<!-- Node10 -->
<g id="Node000010" class="node">
<title>Node10</title>
<g id="a_Node000010"><a xlink:title=" ">
<polygon fill="white" stroke="transparent" points="272,-370.5 255,-370.5 255,-321.5 272,-321.5 272,-370.5"/>
<text text-anchor="start" x="260.5" y="-358" font-family="Helvetica,sans-Serif" font-size="10.00">T</text>
<text text-anchor="start" x="262" y="-343" font-family="Helvetica,sans-Serif" font-size="10.00"> </text>
<text text-anchor="start" x="262" y="-328" font-family="Helvetica,sans-Serif" font-size="10.00"> </text>
<polygon fill="#666666" stroke="#666666" points="255.5,-353 255.5,-353 272.5,-353 272.5,-353 255.5,-353"/>
<polygon fill="#666666" stroke="#666666" points="255.5,-338 255.5,-338 272.5,-338 272.5,-338 255.5,-338"/>
<polygon fill="none" stroke="#666666" points="255,-321.5 255,-370.5 272,-370.5 272,-321.5 255,-321.5"/>
</a>
</g>
</g>
<!-- Node10&#45;&gt;Node8 -->
<g id="edge11_Node000008_Node000010" class="edge">
<title>Node10&#45;&gt;Node8</title>
<g id="a_edge11_Node000008_Node000010"><a xlink:title=" ">
<path fill="none" stroke="#63b8ff" d="M256.86,-321.42C253.47,-309.36 249.27,-294.44 245.5,-281.03"/>
<polygon fill="none" stroke="#63b8ff" points="245.44,-280.81 239.96,-276.11 242.19,-269.26 247.66,-273.95 245.44,-280.81"/>
</a>
</g>
<text text-anchor="middle" x="278.5" y="-290" font-family="Helvetica,sans-Serif" font-size="10.00" fill="grey"> +elements</text>
</g>
</g>
</svg>
</svg>

<style type='text/css'>
<![CDATA[
[data-mouse-over-selected='false'] { opacity: 0.7; }
[data-mouse-over-selected='true']  { opacity: 1.0; }
]]>
</style>
<script type="application/ecmascript"><![CDATA[
document.addEventListener('DOMContentLoaded', (event) => {
  highlightEdges();
  highlightAdjacentNodes();
});
]]></script>
</svg>
