<?xml version="1.0" encoding="UTF-8" standalone="no"?>
<!DOCTYPE svg PUBLIC "-//W3C//DTD SVG 1.1//EN"
 "http://www.w3.org/Graphics/SVG/1.1/DTD/svg11.dtd">
<!-- Generated by graphviz version 2.43.0 (0)
 -->
<!-- Title: settings_t Pages: 1 -->
<svg width="675pt" height="516pt"
 viewBox="0.00 0.00 675.08 516.00" xmlns="http://www.w3.org/2000/svg" xmlns:xlink="http://www.w3.org/1999/xlink">
<g id="graph0" class="graph" transform="scale(1 1) rotate(0) translate(4 512)">
<title>settings_t</title>
<!-- Node1 -->
<g id="Node000001" class="node">
<title>Node1</title>
<g id="a_Node000001"><a xlink:title="Contains all configuration settings for an analysis session.">
<polygon fill="#999999" stroke="transparent" points="393.58,-49 334.58,-49 334.58,0 393.58,0 393.58,-49"/>
<text text-anchor="start" x="340.08" y="-36.5" font-family="Helvetica,sans-Serif" font-size="10.00">settings_t</text>
<text text-anchor="start" x="362.58" y="-21.5" font-family="Helvetica,sans-Serif" font-size="10.00"> </text>
<text text-anchor="start" x="362.58" y="-6.5" font-family="Helvetica,sans-Serif" font-size="10.00"> </text>
<polygon fill="#666666" stroke="#666666" points="335.08,-31.5 335.08,-31.5 394.08,-31.5 394.08,-31.5 335.08,-31.5"/>
<polygon fill="#666666" stroke="#666666" points="335.08,-16.5 335.08,-16.5 394.08,-16.5 394.08,-16.5 335.08,-16.5"/>
<polygon fill="none" stroke="#666666" points="334.58,0 334.58,-49 393.58,-49 393.58,0 334.58,0"/>
</a>
</g>
</g>
<!-- Node2 -->
<g id="Node000002" class="node">
<title>Node2</title>
<g id="a_Node000002"><a xlink:title=" ">
<polygon fill="white" stroke="transparent" points="387.58,-401 328.58,-401 328.58,-352 387.58,-352 387.58,-401"/>
<text text-anchor="start" x="334.08" y="-388.5" font-family="Helvetica,sans-Serif" font-size="10.00">std::string</text>
<text text-anchor="start" x="356.58" y="-373.5" font-family="Helvetica,sans-Serif" font-size="10.00"> </text>
<text text-anchor="start" x="356.58" y="-358.5" font-family="Helvetica,sans-Serif" font-size="10.00"> </text>
<polygon fill="#666666" stroke="#666666" points="329.08,-383.5 329.08,-383.5 388.08,-383.5 388.08,-383.5 329.08,-383.5"/>
<polygon fill="#666666" stroke="#666666" points="329.08,-368.5 329.08,-368.5 388.08,-368.5 388.08,-368.5 329.08,-368.5"/>
<polygon fill="none" stroke="#666666" points="328.58,-352 328.58,-401 387.58,-401 387.58,-352 328.58,-352"/>
</a>
</g>
</g>
<!-- Node2&#45;&gt;Node1 -->
<g id="edge1_Node000001_Node000002" class="edge">
<title>Node2&#45;&gt;Node1</title>
<g id="a_edge1_Node000001_Node000002"><a xlink:title=" ">
<path fill="none" stroke="#63b8ff" d="M373.88,-351.79C376.85,-346.18 379.52,-340.06 381.08,-334 410.79,-219.11 404.01,-183.43 381.08,-67 380.66,-64.86 380.13,-62.69 379.51,-60.52"/>
<polygon fill="none" stroke="#63b8ff" points="379.51,-60.5 373.77,-56.12 375.61,-49.15 381.34,-53.52 379.51,-60.5"/>
</a>
</g>
<text text-anchor="middle" x="445.08" y="-297" font-family="Helvetica,sans-Serif" font-size="10.00" fill="grey"> +graph_cache</text>
<text text-anchor="middle" x="445.08" y="-286" font-family="Helvetica,sans-Serif" font-size="10.00" fill="grey">+metacache_path</text>
<text text-anchor="middle" x="445.08" y="-275" font-family="Helvetica,sans-Serif" font-size="10.00" fill="grey">+output_path</text>
<text text-anchor="middle" x="445.08" y="-264" font-family="Helvetica,sans-Serif" font-size="10.00" fill="grey">+run_name</text>
<text text-anchor="middle" x="445.08" y="-253" font-family="Helvetica,sans-Serif" font-size="10.00" fill="grey">+sow_name</text>
<text text-anchor="middle" x="445.08" y="-242" font-family="Helvetica,sans-Serif" font-size="10.00" fill="grey">+training_dataset</text>
<text text-anchor="middle" x="445.08" y="-231" font-family="Helvetica,sans-Serif" font-size="10.00" fill="grey">+var_energy</text>
<text text-anchor="middle" x="445.08" y="-220" font-family="Helvetica,sans-Serif" font-size="10.00" fill="grey">+var_eta</text>
<text text-anchor="middle" x="445.08" y="-209" font-family="Helvetica,sans-Serif" font-size="10.00" fill="grey">+var_phi</text>
<text text-anchor="middle" x="445.08" y="-198" font-family="Helvetica,sans-Serif" font-size="10.00" fill="grey">+var_pt</text>
<text text-anchor="middle" x="445.08" y="-187" font-family="Helvetica,sans-Serif" font-size="10.00" fill="grey">...</text>
</g>
<!-- Node10 -->
<g id="Node000010" class="node">
<title>Node10</title>
<g id="a_Node000010"><a xlink:title=" ">
<polygon fill="white" stroke="transparent" points="359.08,-269 225.08,-269 225.08,-220 359.08,-220 359.08,-269"/>
<text text-anchor="start" x="230.08" y="-256.5" font-family="Helvetica,sans-Serif" font-size="10.00">std::vector&lt; std::string &gt;</text>
<text text-anchor="start" x="290.08" y="-241.5" font-family="Helvetica,sans-Serif" font-size="10.00"> </text>
<text text-anchor="start" x="290.08" y="-226.5" font-family="Helvetica,sans-Serif" font-size="10.00"> </text>
<polygon fill="#666666" stroke="#666666" points="225.08,-251.5 225.08,-251.5 359.08,-251.5 359.08,-251.5 225.08,-251.5"/>
<polygon fill="#666666" stroke="#666666" points="225.08,-236.5 225.08,-236.5 359.08,-236.5 359.08,-236.5 225.08,-236.5"/>
<polygon fill="none" stroke="#666666" points="225.08,-220 225.08,-269 359.08,-269 359.08,-220 225.08,-220"/>
</a>
</g>
</g>
<!-- Node2&#45;&gt;Node10 -->
<g id="edge11_Node000010_Node000002" class="edge">
<title>Node2&#45;&gt;Node10</title>
<g id="a_edge11_Node000010_Node000002"><a xlink:title=" ">
<path fill="none" stroke="#63b8ff" d="M335.41,-351.58C330.93,-346.08 326.54,-340.06 323.08,-334 313.6,-317.39 306.29,-297.39 301.16,-280.6"/>
<polygon fill="none" stroke="#63b8ff" points="301.15,-280.57 295.64,-275.92 297.81,-269.04 303.32,-273.69 301.15,-280.57"/>
</a>
</g>
<text text-anchor="middle" x="352.08" y="-326" font-family="Helvetica,sans-Serif" font-size="10.00" fill="grey"> +elements</text>
</g>
<!-- Node3 -->
<g id="Node000003" class="node">
<title>Node3</title>
<g id="a_Node000003"><a xlink:title=" ">
<polygon fill="white" stroke="transparent" points="407.08,-508 309.08,-508 309.08,-448 407.08,-448 407.08,-508"/>
<text text-anchor="start" x="314.08" y="-496" font-family="Helvetica,sans-Serif" font-size="10.00">std::basic_string&lt;</text>
<text text-anchor="start" x="339.58" y="-485" font-family="Helvetica,sans-Serif" font-size="10.00"> Char &gt;</text>
<text text-anchor="start" x="356.08" y="-470" font-family="Helvetica,sans-Serif" font-size="10.00"> </text>
<text text-anchor="start" x="356.08" y="-455" font-family="Helvetica,sans-Serif" font-size="10.00"> </text>
<polygon fill="#666666" stroke="#666666" points="309.08,-480 309.08,-480 407.08,-480 407.08,-480 309.08,-480"/>
<polygon fill="#666666" stroke="#666666" points="309.08,-465 309.08,-465 407.08,-465 407.08,-465 309.08,-465"/>
<polygon fill="none" stroke="#666666" points="309.08,-448 309.08,-508 407.08,-508 407.08,-448 309.08,-448"/>
</a>
</g>
</g>
<!-- Node3&#45;&gt;Node2 -->
<g id="edge2_Node000002_Node000003" class="edge">
<title>Node3&#45;&gt;Node2</title>
<g id="a_edge2_Node000002_Node000003"><a xlink:title=" ">
<path fill="none" stroke="#63b8ff" d="M358.08,-437.8C358.08,-425.38 358.08,-412.03 358.08,-401.06"/>
<polygon fill="none" stroke="#63b8ff" points="354.58,-437.95 358.08,-447.95 361.58,-437.95 354.58,-437.95"/>
</a>
</g>
</g>
<!-- Node4 -->
<g id="Node000004" class="node">
<title>Node4</title>
<g id="a_Node000004"><a xlink:title=" ">
<polygon fill="white" stroke="transparent" points="535.08,-269 503.08,-269 503.08,-220 535.08,-220 535.08,-269"/>
<text text-anchor="start" x="508.08" y="-256.5" font-family="Helvetica,sans-Serif" font-size="10.00">bool</text>
<text text-anchor="start" x="517.08" y="-241.5" font-family="Helvetica,sans-Serif" font-size="10.00"> </text>
<text text-anchor="start" x="517.08" y="-226.5" font-family="Helvetica,sans-Serif" font-size="10.00"> </text>
<polygon fill="#666666" stroke="#666666" points="503.08,-251.5 503.08,-251.5 535.08,-251.5 535.08,-251.5 503.08,-251.5"/>
<polygon fill="#666666" stroke="#666666" points="503.08,-236.5 503.08,-236.5 535.08,-236.5 535.08,-236.5 503.08,-236.5"/>
<polygon fill="none" stroke="#666666" points="503.08,-220 503.08,-269 535.08,-269 535.08,-220 503.08,-220"/>
</a>
</g>
</g>
<!-- Node4&#45;&gt;Node1 -->
<g id="edge3_Node000001_Node000004" class="edge">
<title>Node4&#45;&gt;Node1</title>
<g id="a_edge3_Node000001_Node000004"><a xlink:title=" ">
<path fill="none" stroke="#63b8ff" d="M508.1,-219.95C502.71,-208.86 495.91,-195.56 489.08,-184 457.06,-129.76 450.28,-114.66 409.08,-67 406.36,-63.85 403.42,-60.69 400.38,-57.6"/>
<polygon fill="none" stroke="#63b8ff" points="400.3,-57.52 393.21,-56.19 391.71,-49.14 398.79,-50.46 400.3,-57.52"/>
</a>
</g>
<text text-anchor="middle" x="523.08" y="-158" font-family="Helvetica,sans-Serif" font-size="10.00" fill="grey"> +build_cache</text>
<text text-anchor="middle" x="523.08" y="-147" font-family="Helvetica,sans-Serif" font-size="10.00" fill="grey">+continue_training</text>
<text text-anchor="middle" x="523.08" y="-136" font-family="Helvetica,sans-Serif" font-size="10.00" fill="grey">+debug_mode</text>
<text text-anchor="middle" x="523.08" y="-125" font-family="Helvetica,sans-Serif" font-size="10.00" fill="grey">+evaluation</text>
<text text-anchor="middle" x="523.08" y="-114" font-family="Helvetica,sans-Serif" font-size="10.00" fill="grey">+fetch_meta</text>
<text text-anchor="middle" x="523.08" y="-103" font-family="Helvetica,sans-Serif" font-size="10.00" fill="grey">+pretagevents</text>
<text text-anchor="middle" x="523.08" y="-92" font-family="Helvetica,sans-Serif" font-size="10.00" fill="grey">+selection_root</text>
<text text-anchor="middle" x="523.08" y="-81" font-family="Helvetica,sans-Serif" font-size="10.00" fill="grey">+training</text>
<text text-anchor="middle" x="523.08" y="-70" font-family="Helvetica,sans-Serif" font-size="10.00" fill="grey">+validation</text>
</g>
<!-- Node5 -->
<g id="Node000005" class="node">
<title>Node5</title>
<g id="a_Node000005"><a xlink:title=" ">
<polygon fill="white" stroke="transparent" points="36.58,-401 13.58,-401 13.58,-352 36.58,-352 36.58,-401"/>
<text text-anchor="start" x="19.08" y="-388.5" font-family="Helvetica,sans-Serif" font-size="10.00">int</text>
<text text-anchor="start" x="23.58" y="-373.5" font-family="Helvetica,sans-Serif" font-size="10.00"> </text>
<text text-anchor="start" x="23.58" y="-358.5" font-family="Helvetica,sans-Serif" font-size="10.00"> </text>
<polygon fill="#666666" stroke="#666666" points="14.08,-383.5 14.08,-383.5 37.08,-383.5 37.08,-383.5 14.08,-383.5"/>
<polygon fill="#666666" stroke="#666666" points="14.08,-368.5 14.08,-368.5 37.08,-368.5 37.08,-368.5 14.08,-368.5"/>
<polygon fill="none" stroke="#666666" points="13.58,-352 13.58,-401 36.58,-401 36.58,-352 13.58,-352"/>
</a>
</g>
</g>
<!-- Node5&#45;&gt;Node1 -->
<g id="edge4_Node000001_Node000005" class="edge">
<title>Node5&#45;&gt;Node1</title>
<g id="a_edge4_Node000001_Node000005"><a xlink:title=" ">
<path fill="none" stroke="#63b8ff" d="M16.65,-351.73C4.71,-313.79 -12.64,-238.28 16.08,-184 76.02,-70.75 243.38,-38.17 322.13,-29"/>
<polygon fill="none" stroke="#63b8ff" points="322.49,-28.96 328.02,-24.34 334.42,-27.67 328.88,-32.29 322.49,-28.96"/>
</a>
</g>
<text text-anchor="middle" x="58.08" y="-280.5" font-family="Helvetica,sans-Serif" font-size="10.00" fill="grey"> +batch_size</text>
<text text-anchor="middle" x="58.08" y="-269.5" font-family="Helvetica,sans-Serif" font-size="10.00" fill="grey">+epochs</text>
<text text-anchor="middle" x="58.08" y="-258.5" font-family="Helvetica,sans-Serif" font-size="10.00" fill="grey">+kfolds</text>
<text text-anchor="middle" x="58.08" y="-247.5" font-family="Helvetica,sans-Serif" font-size="10.00" fill="grey">+max_range</text>
<text text-anchor="middle" x="58.08" y="-236.5" font-family="Helvetica,sans-Serif" font-size="10.00" fill="grey">+nbins</text>
<text text-anchor="middle" x="58.08" y="-225.5" font-family="Helvetica,sans-Serif" font-size="10.00" fill="grey">+num_examples</text>
<text text-anchor="middle" x="58.08" y="-214.5" font-family="Helvetica,sans-Serif" font-size="10.00" fill="grey">+refresh</text>
<text text-anchor="middle" x="58.08" y="-203.5" font-family="Helvetica,sans-Serif" font-size="10.00" fill="grey">+threads</text>
</g>
<!-- Node6 -->
<g id="Node000006" class="node">
<title>Node6</title>
<g id="a_Node000006"><a xlink:title=" ">
<polygon fill="white" stroke="transparent" points="207.08,-269 109.08,-269 109.08,-220 207.08,-220 207.08,-269"/>
<text text-anchor="start" x="114.08" y="-256.5" font-family="Helvetica,sans-Serif" font-size="10.00">std::vector&lt; int &gt;</text>
<text text-anchor="start" x="156.08" y="-241.5" font-family="Helvetica,sans-Serif" font-size="10.00"> </text>
<text text-anchor="start" x="156.08" y="-226.5" font-family="Helvetica,sans-Serif" font-size="10.00"> </text>
<polygon fill="#666666" stroke="#666666" points="109.08,-251.5 109.08,-251.5 207.08,-251.5 207.08,-251.5 109.08,-251.5"/>
<polygon fill="#666666" stroke="#666666" points="109.08,-236.5 109.08,-236.5 207.08,-236.5 207.08,-236.5 109.08,-236.5"/>
<polygon fill="none" stroke="#666666" points="109.08,-220 109.08,-269 207.08,-269 207.08,-220 109.08,-220"/>
</a>
</g>
</g>
<!-- Node5&#45;&gt;Node6 -->
<g id="edge6_Node000006_Node000005" class="edge">
<title>Node5&#45;&gt;Node6</title>
<g id="a_edge6_Node000006_Node000005"><a xlink:title=" ">
<path fill="none" stroke="#63b8ff" d="M36.89,-363.96C56.45,-344.84 96.27,-305.92 124.94,-277.9"/>
<polygon fill="none" stroke="#63b8ff" points="125.23,-277.61 126.72,-270.56 133.81,-269.22 132.32,-276.28 125.23,-277.61"/>
</a>
</g>
<text text-anchor="middle" x="105.08" y="-326" font-family="Helvetica,sans-Serif" font-size="10.00" fill="grey"> +elements</text>
</g>
<!-- Node6&#45;&gt;Node1 -->
<g id="edge5_Node000001_Node000006" class="edge">
<title>Node6&#45;&gt;Node1</title>
<g id="a_edge5_Node000001_Node000006"><a xlink:title=" ">
<path fill="none" stroke="#63b8ff" d="M166.43,-219.94C180.73,-182.68 213.28,-109.98 263.08,-67 280.16,-52.26 303.18,-42.26 322.93,-35.77"/>
<polygon fill="none" stroke="#63b8ff" points="322.94,-35.77 327.51,-30.19 334.42,-32.27 329.85,-37.84 322.94,-35.77"/>
</a>
</g>
<text text-anchor="middle" x="281.58" y="-114" font-family="Helvetica,sans-Serif" font-size="10.00" fill="grey"> +kfold</text>
</g>
<!-- Node7 -->
<g id="Node000007" class="node">
<title>Node7</title>
<g id="a_Node000007"><a xlink:title=" ">
<polygon fill="white" stroke="transparent" points="235.58,-401 144.58,-401 144.58,-352 235.58,-352 235.58,-401"/>
<text text-anchor="start" x="150.08" y="-388.5" font-family="Helvetica,sans-Serif" font-size="10.00">std::vector&lt; T &gt;</text>
<text text-anchor="start" x="188.58" y="-373.5" font-family="Helvetica,sans-Serif" font-size="10.00"> </text>
<text text-anchor="start" x="188.58" y="-358.5" font-family="Helvetica,sans-Serif" font-size="10.00"> </text>
<polygon fill="#666666" stroke="#666666" points="145.08,-383.5 145.08,-383.5 236.08,-383.5 236.08,-383.5 145.08,-383.5"/>
<polygon fill="#666666" stroke="#666666" points="145.08,-368.5 145.08,-368.5 236.08,-368.5 236.08,-368.5 145.08,-368.5"/>
<polygon fill="none" stroke="#666666" points="144.58,-352 144.58,-401 235.58,-401 235.58,-352 144.58,-352"/>
</a>
</g>
</g>
<!-- Node7&#45;&gt;Node6 -->
<g id="edge7_Node000006_Node000007" class="edge">
<title>Node7&#45;&gt;Node6</title>
<g id="a_edge7_Node000006_Node000007"><a xlink:title=" ">
<path fill="none" stroke="orange" d="M164.99,-343.12C163.45,-340.15 162.11,-337.09 161.08,-334 154.03,-312.85 154.01,-287.27 155.31,-269.06"/>
<polygon fill="orange" stroke="orange" points="161.98,-344.92 170.07,-351.75 168.01,-341.36 161.98,-344.92"/>
</a>
</g>
<text text-anchor="middle" x="180.58" y="-326" font-family="Helvetica,sans-Serif" font-size="10.00" fill="grey"> &lt; int &gt;</text>
</g>
<!-- Node7&#45;&gt;Node10 -->
<g id="edge12_Node000010_Node000007" class="edge">
<title>Node7&#45;&gt;Node10</title>
<g id="a_edge12_Node000010_Node000007"><a xlink:title=" ">
<path fill="none" stroke="orange" d="M214.9,-343.87C232.94,-320.87 256.98,-290.24 273.41,-269.31"/>
<polygon fill="orange" stroke="orange" points="211.97,-341.93 208.56,-351.96 217.48,-346.25 211.97,-341.93"/>
</a>
</g>
<text text-anchor="middle" x="266.58" y="-326" font-family="Helvetica,sans-Serif" font-size="10.00" fill="grey"> &lt; std::string &gt;</text>
</g>
<!-- Node8 -->
<g id="Node000008" class="node">
<title>Node8</title>
<g id="a_Node000008"><a xlink:title=" ">
<polygon fill="white" stroke="transparent" points="198.58,-502.5 181.58,-502.5 181.58,-453.5 198.58,-453.5 198.58,-502.5"/>
<text text-anchor="start" x="187.08" y="-490" font-family="Helvetica,sans-Serif" font-size="10.00">T</text>
<text text-anchor="start" x="188.58" y="-475" font-family="Helvetica,sans-Serif" font-size="10.00"> </text>
<text text-anchor="start" x="188.58" y="-460" font-family="Helvetica,sans-Serif" font-size="10.00"> </text>
<polygon fill="#666666" stroke="#666666" points="182.08,-485 182.08,-485 199.08,-485 199.08,-485 182.08,-485"/>
<polygon fill="#666666" stroke="#666666" points="182.08,-470 182.08,-470 199.08,-470 199.08,-470 182.08,-470"/>
<polygon fill="none" stroke="#666666" points="181.58,-453.5 181.58,-502.5 198.58,-502.5 198.58,-453.5 181.58,-453.5"/>
</a>
</g>
</g>
<!-- Node8&#45;&gt;Node7 -->
<g id="edge8_Node000007_Node000008" class="edge">
<title>Node8&#45;&gt;Node7</title>
<g id="a_edge8_Node000007_Node000008"><a xlink:title=" ">
<path fill="none" stroke="#63b8ff" d="M190.08,-453.42C190.08,-441.49 190.08,-426.75 190.08,-413.44"/>
<polygon fill="none" stroke="#63b8ff" points="190.08,-413.26 186.08,-407.26 190.08,-401.26 194.08,-407.26 190.08,-413.26"/>
</a>
</g>
<text text-anchor="middle" x="219.08" y="-422" font-family="Helvetica,sans-Serif" font-size="10.00" fill="grey"> +elements</text>
</g>
<!-- Node9 -->
<g id="Node000009" class="node">
<title>Node9</title>
<g id="a_Node000009"><a xlink:title=" ">
<polygon fill="white" stroke="transparent" points="618.08,-269 586.08,-269 586.08,-220 618.08,-220 618.08,-269"/>
<text text-anchor="start" x="591.08" y="-256.5" font-family="Helvetica,sans-Serif" font-size="10.00">float</text>
<text text-anchor="start" x="600.08" y="-241.5" font-family="Helvetica,sans-Serif" font-size="10.00"> </text>
<text text-anchor="start" x="600.08" y="-226.5" font-family="Helvetica,sans-Serif" font-size="10.00"> </text>
<polygon fill="#666666" stroke="#666666" points="586.08,-251.5 586.08,-251.5 618.08,-251.5 618.08,-251.5 586.08,-251.5"/>
<polygon fill="#666666" stroke="#666666" points="586.08,-236.5 586.08,-236.5 618.08,-236.5 618.08,-236.5 586.08,-236.5"/>
<polygon fill="none" stroke="#666666" points="586.08,-220 586.08,-269 618.08,-269 618.08,-220 586.08,-220"/>
</a>
</g>
</g>
<!-- Node9&#45;&gt;Node1 -->
<g id="edge9_Node000001_Node000009" class="edge">
<title>Node9&#45;&gt;Node1</title>
<g id="a_edge9_Node000001_Node000009"><a xlink:title=" ">
<path fill="none" stroke="#63b8ff" d="M606,-219.84C610.79,-182.11 613.9,-108.35 574.08,-67 551.36,-43.41 460.37,-32.63 405.89,-28.2"/>
<polygon fill="none" stroke="#63b8ff" points="405.84,-28.2 399.55,-31.73 393.88,-27.28 400.17,-23.75 405.84,-28.2"/>
</a>
</g>
<text text-anchor="middle" x="637.58" y="-114" font-family="Helvetica,sans-Serif" font-size="10.00" fill="grey"> +train_size</text>
</g>
<!-- Node10&#45;&gt;Node1 -->
<g id="edge10_Node000001_Node000010" class="edge">
<title>Node10&#45;&gt;Node1</title>
<g id="a_edge10_Node000001_Node000010"><a xlink:title=" ">
<path fill="none" stroke="#63b8ff" d="M295.02,-219.75C299.94,-184.97 311.71,-118.73 335.08,-67 336.2,-64.53 337.47,-62.05 338.84,-59.6"/>
<polygon fill="none" stroke="#63b8ff" points="338.98,-59.37 338.75,-52.16 345.31,-49.17 345.55,-56.38 338.98,-59.37"/>
</a>
</g>
<text text-anchor="middle" x="358.08" y="-114" font-family="Helvetica,sans-Serif" font-size="10.00" fill="grey"> +targets</text>
</g>
</g>
</svg>
