<?xml version="1.0" encoding="UTF-8" standalone="no"?>
<!DOCTYPE svg PUBLIC "-//W3C//DTD SVG 1.1//EN"
 "http://www.w3.org/Graphics/SVG/1.1/DTD/svg11.dtd">
<!-- Generated by graphviz version 2.43.0 (0)
 -->
<!-- Title: data_t::next Pages: 1 -->
<svg width="623pt" height="137pt"
 viewBox="0.00 0.00 622.70 137.00" xmlns="http://www.w3.org/2000/svg" xmlns:xlink="http://www.w3.org/1999/xlink">
<g id="graph0" class="graph" transform="scale(1 1) rotate(0) translate(4 133)">
<title>data_t::next</title>
<!-- Node1 -->
<g id="Node000001" class="node">
<title>Node1</title>
<g id="a_Node000001"><a xlink:title=" ">
<polygon fill="#999999" stroke="#666666" points="75,-56 0,-56 0,-37 75,-37 75,-56"/>
<text text-anchor="middle" x="37.5" y="-44" font-family="Helvetica,sans-Serif" font-size="10.00">data_t::next</text>
</a>
</g>
</g>
<!-- Node2 -->
<g id="Node000002" class="node">
<title>Node2</title>
<g id="a_Node000002"><a xlink:href="structdata__t.html#a1e32c6e18a54f7e31f6491ec52deaeff" target="_top" xlink:title=" ">
<polygon fill="white" stroke="#666666" points="206,-56 111,-56 111,-37 206,-37 206,-56"/>
<text text-anchor="middle" x="158.5" y="-44" font-family="Helvetica,sans-Serif" font-size="10.00">data_t::initialize</text>
</a>
</g>
</g>
<!-- Node1&#45;&gt;Node2 -->
<g id="edge1_Node000001_Node000002" class="edge">
<title>Node1&#45;&gt;Node2</title>
<g id="a_edge1_Node000001_Node000002"><a xlink:title=" ">
<path fill="none" stroke="#63b8ff" d="M75.17,-46.5C83.22,-46.5 91.93,-46.5 100.57,-46.5"/>
<polygon fill="#63b8ff" stroke="#63b8ff" points="100.63,-50 110.63,-46.5 100.63,-43 100.63,-50"/>
</a>
</g>
</g>
<!-- Node3 -->
<g id="Node000003" class="node">
<title>Node3</title>
<g id="a_Node000003"><a xlink:href="structdata__t.html#aa6c840c74575c1d154b3e17ef67511cc" target="_top" xlink:title=" ">
<polygon fill="white" stroke="#666666" points="354,-111 242,-111 242,-92 354,-92 354,-111"/>
<text text-anchor="middle" x="298" y="-99" font-family="Helvetica,sans-Serif" font-size="10.00">data_t::fetch_buffer</text>
</a>
</g>
</g>
<!-- Node2&#45;&gt;Node3 -->
<g id="edge2_Node000002_Node000003" class="edge">
<title>Node2&#45;&gt;Node3</title>
<g id="a_edge2_Node000002_Node000003"><a xlink:title=" ">
<path fill="none" stroke="#63b8ff" d="M179.26,-56.07C195.82,-63.91 220.18,-75.07 242,-83.5 246.56,-85.26 251.38,-87.01 256.19,-88.68"/>
<polygon fill="#63b8ff" stroke="#63b8ff" points="255.37,-92.09 265.96,-91.97 257.61,-85.46 255.37,-92.09"/>
</a>
</g>
</g>
<!-- Node4 -->
<g id="Node000004" class="node">
<title>Node4</title>
<g id="a_Node000004"><a xlink:href="classbsc__t.html#a953a8bb68bdd6acd9c97d4c0eb965319" target="_top" xlink:title="Clears the internal buffer.">
<polygon fill="white" stroke="#666666" points="350.5,-56 245.5,-56 245.5,-37 350.5,-37 350.5,-56"/>
<text text-anchor="middle" x="298" y="-44" font-family="Helvetica,sans-Serif" font-size="10.00">bsc_t::flush_buffer</text>
</a>
</g>
</g>
<!-- Node2&#45;&gt;Node4 -->
<g id="edge4_Node000002_Node000004" class="edge">
<title>Node2&#45;&gt;Node4</title>
<g id="a_edge4_Node000002_Node000004"><a xlink:title=" ">
<path fill="none" stroke="#63b8ff" d="M206.05,-46.5C215.42,-46.5 225.4,-46.5 235.2,-46.5"/>
<polygon fill="#63b8ff" stroke="#63b8ff" points="235.3,-50 245.3,-46.5 235.3,-43 235.3,-50"/>
</a>
</g>
</g>
<!-- Node5 -->
<g id="Node000005" class="node">
<title>Node5</title>
<g id="a_Node000005"><a xlink:href="structdata__t.html#a34a71707a145e9bccadd9844f79701ad" target="_top" xlink:title=" ">
<polygon fill="white" stroke="#666666" points="352,-19 244,-19 244,0 352,0 352,-19"/>
<text text-anchor="middle" x="298" y="-7" font-family="Helvetica,sans-Serif" font-size="10.00">data_t::string_type</text>
</a>
</g>
</g>
<!-- Node2&#45;&gt;Node5 -->
<g id="edge6_Node000002_Node000005" class="edge">
<title>Node2&#45;&gt;Node5</title>
<g id="a_edge6_Node000002_Node000005"><a xlink:title=" ">
<path fill="none" stroke="#63b8ff" d="M194.91,-36.97C212.1,-32.35 232.95,-26.73 251.32,-21.79"/>
<polygon fill="#63b8ff" stroke="#63b8ff" points="252.49,-25.1 261.23,-19.12 250.67,-18.34 252.49,-25.1"/>
</a>
</g>
</g>
<!-- Node3&#45;&gt;Node3 -->
<g id="edge3_Node000003_Node000003" class="edge">
<title>Node3&#45;&gt;Node3</title>
<g id="a_edge3_Node000003_Node000003"><a xlink:title=" ">
<path fill="none" stroke="#63b8ff" d="M276.73,-111.08C266.38,-119.73 273.47,-129 298,-129 313.71,-129 322.27,-125.2 323.67,-120.19"/>
<polygon fill="#63b8ff" stroke="#63b8ff" points="326.77,-118.56 319.27,-111.08 320.47,-121.61 326.77,-118.56"/>
</a>
</g>
</g>
<!-- Node4&#45;&gt;Node4 -->
<g id="edge5_Node000004_Node000004" class="edge">
<title>Node4&#45;&gt;Node4</title>
<g id="a_edge5_Node000004_Node000004"><a xlink:title=" ">
<path fill="none" stroke="#63b8ff" d="M276.73,-56.08C266.38,-64.73 273.47,-74 298,-74 313.71,-74 322.27,-70.2 323.67,-65.19"/>
<polygon fill="#63b8ff" stroke="#63b8ff" points="326.77,-63.56 319.27,-56.08 320.47,-66.61 326.77,-63.56"/>
</a>
</g>
</g>
<!-- Node6 -->
<g id="Node000006" class="node">
<title>Node6</title>
<g id="a_Node000006"><a xlink:href="classbsc__t.html#a39907da14ea4fb20f71b47d0724bf1f2" target="_top" xlink:title="Translates a ROOT type string to an internal data enumeration.">
<polygon fill="white" stroke="#666666" points="533,-19 390,-19 390,0 533,0 533,-19"/>
<text text-anchor="middle" x="461.5" y="-7" font-family="Helvetica,sans-Serif" font-size="10.00">bsc_t::root_type_translate</text>
</a>
</g>
</g>
<!-- Node5&#45;&gt;Node6 -->
<g id="edge7_Node000005_Node000006" class="edge">
<title>Node5&#45;&gt;Node6</title>
<g id="a_edge7_Node000005_Node000006"><a xlink:title=" ">
<path fill="none" stroke="#63b8ff" d="M352.33,-9.5C361.17,-9.5 370.5,-9.5 379.84,-9.5"/>
<polygon fill="#63b8ff" stroke="#63b8ff" points="379.94,-13 389.94,-9.5 379.94,-6 379.94,-13"/>
</a>
</g>
</g>
<!-- Node7 -->
<g id="Node000007" class="node">
<title>Node7</title>
<g id="a_Node000007"><a xlink:href="structs_2cxx_2base_8cxx.html#a4eee7b291ed2cdcd4e3c2496c603c48c" target="_top" xlink:title="Counts occurrences of a substring within a string.">
<polygon fill="white" stroke="#666666" points="613,-19 569,-19 569,0 613,0 613,-19"/>
<text text-anchor="middle" x="591" y="-7" font-family="Helvetica,sans-Serif" font-size="10.00">count</text>
</a>
</g>
</g>
<!-- Node6&#45;&gt;Node7 -->
<g id="edge8_Node000006_Node000007" class="edge">
<title>Node6&#45;&gt;Node7</title>
<g id="a_edge8_Node000006_Node000007"><a xlink:title=" ">
<path fill="none" stroke="#63b8ff" d="M533.33,-9.5C542.24,-9.5 550.96,-9.5 558.78,-9.5"/>
<polygon fill="#63b8ff" stroke="#63b8ff" points="558.84,-13 568.84,-9.5 558.84,-6 558.84,-13"/>
</a>
</g>
</g>
<!-- Node7&#45;&gt;Node7 -->
<g id="edge9_Node000007_Node000007" class="edge">
<title>Node7&#45;&gt;Node7</title>
<g id="a_edge9_Node000007_Node000007"><a xlink:title=" ">
<path fill="none" stroke="#63b8ff" d="M571.27,-19.08C561.67,-27.73 568.25,-37 591,-37 605.22,-37 613.12,-33.38 614.7,-28.55"/>
<polygon fill="#63b8ff" stroke="#63b8ff" points="617.83,-26.95 610.73,-19.08 611.37,-29.66 617.83,-26.95"/>
</a>
</g>
</g>
</g>
</svg>
