<?xml version="1.0" encoding="UTF-8" standalone="no"?>
<!DOCTYPE svg PUBLIC "-//W3C//DTD SVG 1.1//EN"
 "http://www.w3.org/Graphics/SVG/1.1/DTD/svg11.dtd">
<!-- Generated by graphviz version 2.43.0 (0)
 -->
<!-- Title: graph_t::has_feature Pages: 1 -->
<svg width="298pt" height="407pt"
 viewBox="0.00 0.00 298.00 406.50" xmlns="http://www.w3.org/2000/svg" xmlns:xlink="http://www.w3.org/1999/xlink">
<g id="graph0" class="graph" transform="scale(1 1) rotate(0) translate(4 402.5)">
<title>graph_t::has_feature</title>
<!-- Node1 -->
<g id="Node000001" class="node">
<title>Node1</title>
<g id="a_Node000001"><a xlink:title="Check if a feature exists and get its tensor.">
<polygon fill="#999999" stroke="#666666" points="290,-209 173,-209 173,-190 290,-190 290,-209"/>
<text text-anchor="middle" x="231.5" y="-197" font-family="Helvetica,sans-Serif" font-size="10.00">graph_t::has_feature</text>
</a>
</g>
</g>
<!-- Node2 -->
<g id="Node000002" class="node">
<title>Node2</title>
<g id="a_Node000002"><a xlink:href="structgraph__t.html#a9b384f9d76843d534c642b926c4df564" target="_top" xlink:title="Get batch index tensor.">
<polygon fill="white" stroke="#666666" points="122,-398.5 15,-398.5 15,-368.5 122,-368.5 122,-398.5"/>
<text text-anchor="start" x="23" y="-386.5" font-family="Helvetica,sans-Serif" font-size="10.00">graph_t::get_batch</text>
<text text-anchor="middle" x="68.5" y="-375.5" font-family="Helvetica,sans-Serif" font-size="10.00">_index</text>
</a>
</g>
</g>
<!-- Node1&#45;&gt;Node2 -->
<g id="edge1_Node000001_Node000002" class="edge">
<title>Node1&#45;&gt;Node2</title>
<g id="a_edge1_Node000001_Node000002"><a xlink:title=" ">
<path fill="none" stroke="#63b8ff" d="M224.18,-218.89C212.35,-252.28 183.73,-320.79 137,-359.5 132.5,-363.23 127.37,-366.4 122.01,-369.09"/>
<polygon fill="#63b8ff" stroke="#63b8ff" points="227.52,-219.96 227.44,-209.36 220.89,-217.69 227.52,-219.96"/>
</a>
</g>
</g>
<!-- Node3 -->
<g id="Node000003" class="node">
<title>Node3</title>
<g id="a_Node000003"><a xlink:href="structgraph__t.html#abe1781d70e55bbfe8ab6b8e0822838f4" target="_top" xlink:title="Get tensor of batched event indices.">
<polygon fill="white" stroke="#666666" points="128,-350.5 9,-350.5 9,-320.5 128,-320.5 128,-350.5"/>
<text text-anchor="start" x="17" y="-338.5" font-family="Helvetica,sans-Serif" font-size="10.00">graph_t::get_batched</text>
<text text-anchor="middle" x="68.5" y="-327.5" font-family="Helvetica,sans-Serif" font-size="10.00">_events</text>
</a>
</g>
</g>
<!-- Node1&#45;&gt;Node3 -->
<g id="edge2_Node000001_Node000003" class="edge">
<title>Node1&#45;&gt;Node3</title>
<g id="a_edge2_Node000001_Node000003"><a xlink:title=" ">
<path fill="none" stroke="#63b8ff" d="M219.68,-217.78C204.25,-242.36 173.7,-285.94 137,-311.5 132.1,-314.91 126.67,-317.89 121.07,-320.47"/>
<polygon fill="#63b8ff" stroke="#63b8ff" points="222.77,-219.43 225,-209.08 216.8,-215.78 222.77,-219.43"/>
</a>
</g>
</g>
<!-- Node4 -->
<g id="Node000004" class="node">
<title>Node4</title>
<g id="a_Node000004"><a xlink:href="structgraph__t.html#abaf966dadf0b69eedee0b7b3ca12f35f" target="_top" xlink:title="Get data features for edges.">
<polygon fill="white" stroke="#666666" points="134,-302 3,-302 3,-283 134,-283 134,-302"/>
<text text-anchor="middle" x="68.5" y="-290" font-family="Helvetica,sans-Serif" font-size="10.00">graph_t::get_data_edge</text>
</a>
</g>
</g>
<!-- Node1&#45;&gt;Node4 -->
<g id="edge3_Node000001_Node000004" class="edge">
<title>Node1&#45;&gt;Node4</title>
<g id="a_edge3_Node000001_Node000004"><a xlink:title=" ">
<path fill="none" stroke="#63b8ff" d="M214.16,-216.2C196.59,-233.24 167.11,-259.27 137,-274.5 130.4,-277.84 123.11,-280.61 115.84,-282.89"/>
<polygon fill="#63b8ff" stroke="#63b8ff" points="216.71,-218.6 221.35,-209.08 211.78,-213.63 216.71,-218.6"/>
</a>
</g>
</g>
<!-- Node5 -->
<g id="Node000005" class="node">
<title>Node5</title>
<g id="a_Node000005"><a xlink:href="structgraph__t.html#aff4d59b1f531a9c2a52db5b6031786a4" target="_top" xlink:title="Get data features for the entire graph.">
<polygon fill="white" stroke="#666666" points="136,-265 1,-265 1,-246 136,-246 136,-265"/>
<text text-anchor="middle" x="68.5" y="-253" font-family="Helvetica,sans-Serif" font-size="10.00">graph_t::get_data_graph</text>
</a>
</g>
</g>
<!-- Node1&#45;&gt;Node5 -->
<g id="edge4_Node000001_Node000005" class="edge">
<title>Node1&#45;&gt;Node5</title>
<g id="a_edge4_Node000001_Node000005"><a xlink:title=" ">
<path fill="none" stroke="#63b8ff" d="M199.81,-213.11C181.73,-220.84 158.31,-230.36 137,-237.5 127.92,-240.54 118.01,-243.42 108.65,-245.95"/>
<polygon fill="#63b8ff" stroke="#63b8ff" points="201.46,-216.21 209.25,-209.03 198.68,-209.78 201.46,-216.21"/>
</a>
</g>
</g>
<!-- Node6 -->
<g id="Node000006" class="node">
<title>Node6</title>
<g id="a_Node000006"><a xlink:href="structgraph__t.html#ae55e7c4ea7a4563757d939a96afb52a3" target="_top" xlink:title="Get data features for nodes.">
<polygon fill="white" stroke="#666666" points="134,-228 3,-228 3,-209 134,-209 134,-228"/>
<text text-anchor="middle" x="68.5" y="-216" font-family="Helvetica,sans-Serif" font-size="10.00">graph_t::get_data_node</text>
</a>
</g>
</g>
<!-- Node1&#45;&gt;Node6 -->
<g id="edge5_Node000001_Node000006" class="edge">
<title>Node1&#45;&gt;Node6</title>
<g id="a_edge5_Node000001_Node000006"><a xlink:title=" ">
<path fill="none" stroke="#63b8ff" d="M162.69,-207.5C153.24,-208.62 143.54,-209.76 134.15,-210.87"/>
<polygon fill="#63b8ff" stroke="#63b8ff" points="163.31,-210.95 172.83,-206.31 162.49,-204 163.31,-210.95"/>
</a>
</g>
</g>
<!-- Node7 -->
<g id="Node000007" class="node">
<title>Node7</title>
<g id="a_Node000007"><a xlink:href="structgraph__t.html#abac5c01cde57a746f44b24eac9a34fa0" target="_top" xlink:title="Get edge index tensor.">
<polygon fill="white" stroke="#666666" points="137,-191 0,-191 0,-172 137,-172 137,-191"/>
<text text-anchor="middle" x="68.5" y="-179" font-family="Helvetica,sans-Serif" font-size="10.00">graph_t::get_edge_index</text>
</a>
</g>
</g>
<!-- Node1&#45;&gt;Node7 -->
<g id="edge6_Node000001_Node000007" class="edge">
<title>Node1&#45;&gt;Node7</title>
<g id="a_edge6_Node000001_Node000007"><a xlink:title=" ">
<path fill="none" stroke="#63b8ff" d="M162.67,-191.92C154.24,-190.97 145.62,-190.01 137.2,-189.07"/>
<polygon fill="#63b8ff" stroke="#63b8ff" points="162.5,-195.42 172.83,-193.05 163.28,-188.46 162.5,-195.42"/>
</a>
</g>
</g>
<!-- Node8 -->
<g id="Node000008" class="node">
<title>Node8</title>
<g id="a_Node000008"><a xlink:href="structgraph__t.html#a93a3b22777951e7e9237cd5bf4eca6b9" target="_top" xlink:title="Get event weight tensor.">
<polygon fill="white" stroke="#666666" points="122.5,-153.5 14.5,-153.5 14.5,-123.5 122.5,-123.5 122.5,-153.5"/>
<text text-anchor="start" x="22.5" y="-141.5" font-family="Helvetica,sans-Serif" font-size="10.00">graph_t::get_event</text>
<text text-anchor="middle" x="68.5" y="-130.5" font-family="Helvetica,sans-Serif" font-size="10.00">_weight</text>
</a>
</g>
</g>
<!-- Node1&#45;&gt;Node8 -->
<g id="edge7_Node000001_Node000008" class="edge">
<title>Node1&#45;&gt;Node8</title>
<g id="a_edge7_Node000001_Node000008"><a xlink:title=" ">
<path fill="none" stroke="#63b8ff" d="M196.56,-186.31C178.84,-179.46 156.77,-170.97 137,-163.5 128.47,-160.28 119.31,-156.86 110.58,-153.62"/>
<polygon fill="#63b8ff" stroke="#63b8ff" points="195.34,-189.59 205.93,-189.94 197.86,-183.06 195.34,-189.59"/>
</a>
</g>
</g>
<!-- Node9 -->
<g id="Node000009" class="node">
<title>Node9</title>
<g id="a_Node000009"><a xlink:href="structgraph__t.html#af1b623e3198464189dbab71222c3f3ac" target="_top" xlink:title="Get truth features for edges.">
<polygon fill="white" stroke="#666666" points="135,-105 2,-105 2,-86 135,-86 135,-105"/>
<text text-anchor="middle" x="68.5" y="-93" font-family="Helvetica,sans-Serif" font-size="10.00">graph_t::get_truth_edge</text>
</a>
</g>
</g>
<!-- Node1&#45;&gt;Node9 -->
<g id="edge8_Node000001_Node000009" class="edge">
<title>Node1&#45;&gt;Node9</title>
<g id="a_edge8_Node000001_Node000009"><a xlink:title=" ">
<path fill="none" stroke="#63b8ff" d="M215.88,-182.05C198.85,-162.79 168.92,-132.19 137,-114.5 130.08,-110.66 122.32,-107.55 114.6,-105.04"/>
<polygon fill="#63b8ff" stroke="#63b8ff" points="213.38,-184.5 222.57,-189.77 218.67,-179.92 213.38,-184.5"/>
</a>
</g>
</g>
<!-- Node10 -->
<g id="Node000010" class="node">
<title>Node10</title>
<g id="a_Node000010"><a xlink:href="structgraph__t.html#abb0d4875f7295f1db37a97f6671a6a52" target="_top" xlink:title="Get truth features for the entire graph.">
<polygon fill="white" stroke="#666666" points="120.5,-67.5 16.5,-67.5 16.5,-37.5 120.5,-37.5 120.5,-67.5"/>
<text text-anchor="start" x="24.5" y="-55.5" font-family="Helvetica,sans-Serif" font-size="10.00">graph_t::get_truth</text>
<text text-anchor="middle" x="68.5" y="-44.5" font-family="Helvetica,sans-Serif" font-size="10.00">_graph</text>
</a>
</g>
</g>
<!-- Node1&#45;&gt;Node10 -->
<g id="edge9_Node000001_Node000010" class="edge">
<title>Node1&#45;&gt;Node10</title>
<g id="a_edge9_Node000001_Node000010"><a xlink:title=" ">
<path fill="none" stroke="#63b8ff" d="M220.67,-180.78C205.87,-154.27 175.46,-105.88 137,-77.5 131.87,-73.72 126.11,-70.45 120.17,-67.64"/>
<polygon fill="#63b8ff" stroke="#63b8ff" points="217.71,-182.66 225.56,-189.78 223.86,-179.32 217.71,-182.66"/>
</a>
</g>
</g>
<!-- Node11 -->
<g id="Node000011" class="node">
<title>Node11</title>
<g id="a_Node000011"><a xlink:href="structgraph__t.html#acfe6c582dfe47bafa5cde3f4d87059a0" target="_top" xlink:title="Get truth features for nodes.">
<polygon fill="white" stroke="#666666" points="135,-19 2,-19 2,0 135,0 135,-19"/>
<text text-anchor="middle" x="68.5" y="-7" font-family="Helvetica,sans-Serif" font-size="10.00">graph_t::get_truth_node</text>
</a>
</g>
</g>
<!-- Node1&#45;&gt;Node11 -->
<g id="edge10_Node000001_Node000011" class="edge">
<title>Node1&#45;&gt;Node11</title>
<g id="a_edge10_Node000001_Node000011"><a xlink:title=" ">
<path fill="none" stroke="#63b8ff" d="M225.29,-179.93C214.78,-144.3 187.62,-68.8 137,-28.5 132.14,-24.63 126.54,-21.55 120.69,-19.1"/>
<polygon fill="#63b8ff" stroke="#63b8ff" points="221.94,-180.95 228.03,-189.63 228.68,-179.05 221.94,-180.95"/>
</a>
</g>
</g>
</g>
</svg>
