<?xml version="1.0" encoding="UTF-8" standalone="no"?>
<!DOCTYPE svg PUBLIC "-//W3C//DTD SVG 1.1//EN"
 "http://www.w3.org/Graphics/SVG/1.1/DTD/svg11.dtd">
<!-- Generated by graphviz version 2.43.0 (0)
 -->
<!-- Title: metric_t::~metric_t Pages: 1 -->
<svg width="235pt" height="45pt"
 viewBox="0.00 0.00 235.00 45.00" xmlns="http://www.w3.org/2000/svg" xmlns:xlink="http://www.w3.org/1999/xlink">
<g id="graph0" class="graph" transform="scale(1 1) rotate(0) translate(4 41)">
<title>metric_t::~metric_t</title>
<!-- Node1 -->
<g id="Node000001" class="node">
<title>Node1</title>
<g id="a_Node000001"><a xlink:title=" ">
<polygon fill="#999999" stroke="#666666" points="112,-19 0,-19 0,0 112,0 112,-19"/>
<text text-anchor="middle" x="56" y="-7" font-family="Helvetica,sans-Serif" font-size="10.00">metric_t::~metric_t</text>
</a>
</g>
</g>
<!-- Node2 -->
<g id="Node000002" class="node">
<title>Node2</title>
<g id="a_Node000002"><a xlink:href="structmetric__t.html#a66b64829633703dc3482013691e894eb" target="_top" xlink:title=" ">
<polygon fill="white" stroke="#666666" points="227,-19 148,-19 148,0 227,0 227,-19"/>
<text text-anchor="middle" x="187.5" y="-7" font-family="Helvetica,sans-Serif" font-size="10.00">metric_t::get</text>
</a>
</g>
</g>
<!-- Node1&#45;&gt;Node2 -->
<g id="edge1_Node000001_Node000002" class="edge">
<title>Node1&#45;&gt;Node2</title>
<g id="a_edge1_Node000001_Node000002"><a xlink:title=" ">
<path fill="none" stroke="#63b8ff" d="M112.3,-9.5C120.71,-9.5 129.33,-9.5 137.6,-9.5"/>
<polygon fill="#63b8ff" stroke="#63b8ff" points="137.82,-13 147.82,-9.5 137.82,-6 137.82,-13"/>
</a>
</g>
</g>
<!-- Node2&#45;&gt;Node2 -->
<g id="edge2_Node000002_Node000002" class="edge">
<title>Node2&#45;&gt;Node2</title>
<g id="a_edge2_Node000002_Node000002"><a xlink:title=" ">
<path fill="none" stroke="#63b8ff" d="M167.46,-19.08C157.72,-27.73 164.39,-37 187.5,-37 202.3,-37 210.36,-33.2 211.68,-28.19"/>
<polygon fill="#63b8ff" stroke="#63b8ff" points="214.86,-26.73 207.54,-19.08 208.49,-29.63 214.86,-26.73"/>
</a>
</g>
</g>
</g>
</svg>
