<?xml version="1.0" encoding="UTF-8" standalone="no"?>
<!DOCTYPE svg PUBLIC "-//W3C//DTD SVG 1.1//EN"
 "http://www.w3.org/Graphics/SVG/1.1/DTD/svg11.dtd">
<!-- Generated by graphviz version 2.43.0 (0)
 -->
<!-- Title: graph_hdf5_w Pages: 1 -->
<svg width="402pt" height="323pt"
 viewBox="0.00 0.00 401.50 323.00" xmlns="http://www.w3.org/2000/svg" xmlns:xlink="http://www.w3.org/1999/xlink">

<svg id="main" version="1.1" xmlns="http://www.w3.org/2000/svg" xmlns:xlink="http://www.w3.org/1999/xlink" xml:space="preserve" onload="init(evt)">
<style type="text/css"><![CDATA[
.node, .edge {opacity: 0.7;}
.node.selected, .edge.selected {opacity: 1;}
.edge:hover path { stroke: red; }
.edge:hover polygon { stroke: red; fill: red; }
]]></style>
<script type="application/ecmascript" xlink:href="svg.min.js"/>
<svg id="graph" class="graph">
<g id="graph0" class="graph" transform="scale(1 1) rotate(0) translate(4 319)">
<title>graph_hdf5_w</title>
<!-- Node1 -->
<g id="Node000001" class="node">
<title>Node1</title>
<g id="a_Node000001"><a xlink:title=" ">
<polygon fill="#999999" stroke="transparent" points="205,-109 100,-109 100,0 205,0 205,-109"/>
<text text-anchor="start" x="118.5" y="-96.5" font-family="Helvetica,sans-Serif" font-size="10.00">graph_hdf5_w</text>
<text text-anchor="start" x="104.5" y="-81.5" font-family="Helvetica,sans-Serif" font-size="10.00">+</text>
<text text-anchor="start" x="117.5" y="-81.5" font-family="Helvetica,sans-Serif" font-size="10.00">truth_map_graph</text>
<text text-anchor="start" x="104.5" y="-66.5" font-family="Helvetica,sans-Serif" font-size="10.00">+</text>
<text text-anchor="start" x="117.5" y="-66.5" font-family="Helvetica,sans-Serif" font-size="10.00">truth_map_node</text>
<text text-anchor="start" x="104.5" y="-51.5" font-family="Helvetica,sans-Serif" font-size="10.00">+</text>
<text text-anchor="start" x="117.5" y="-51.5" font-family="Helvetica,sans-Serif" font-size="10.00">truth_map_edge</text>
<text text-anchor="start" x="104.5" y="-36.5" font-family="Helvetica,sans-Serif" font-size="10.00">+</text>
<text text-anchor="start" x="117.5" y="-36.5" font-family="Helvetica,sans-Serif" font-size="10.00">truth_graph</text>
<text text-anchor="start" x="104.5" y="-21.5" font-family="Helvetica,sans-Serif" font-size="10.00">+</text>
<text text-anchor="start" x="117.5" y="-21.5" font-family="Helvetica,sans-Serif" font-size="10.00">truth_node</text>
<text text-anchor="start" x="104.5" y="-6.5" font-family="Helvetica,sans-Serif" font-size="10.00">+</text>
<text text-anchor="start" x="117.5" y="-6.5" font-family="Helvetica,sans-Serif" font-size="10.00">flush_data()</text>
<polygon fill="#666666" stroke="#666666" points="100.5,-91.5 100.5,-91.5 205.5,-91.5 205.5,-91.5 100.5,-91.5"/>
<polygon fill="#666666" stroke="#666666" points="100.5,-16.5 100.5,-16.5 115.5,-16.5 115.5,-16.5 100.5,-16.5"/>
<polygon fill="#666666" stroke="#666666" points="115.5,-16.5 115.5,-16.5 205.5,-16.5 205.5,-16.5 115.5,-16.5"/>
<polygon fill="none" stroke="#666666" points="100,0 100,-109 205,-109 205,0 100,0"/>
</a>
</g>
</g>
<!-- Node2 -->
<g id="Node000002" class="node">
<title>Node2</title>
<g id="a_Node000002"><a xlink:title=" ">
<polygon fill="white" stroke="transparent" points="23,-315 0,-315 0,-266 23,-266 23,-315"/>
<text text-anchor="start" x="5.5" y="-302.5" font-family="Helvetica,sans-Serif" font-size="10.00">int</text>
<text text-anchor="start" x="10" y="-287.5" font-family="Helvetica,sans-Serif" font-size="10.00"> </text>
<text text-anchor="start" x="10" y="-272.5" font-family="Helvetica,sans-Serif" font-size="10.00"> </text>
<polygon fill="#666666" stroke="#666666" points="0.5,-297.5 0.5,-297.5 23.5,-297.5 23.5,-297.5 0.5,-297.5"/>
<polygon fill="#666666" stroke="#666666" points="0.5,-282.5 0.5,-282.5 23.5,-282.5 23.5,-282.5 0.5,-282.5"/>
<polygon fill="none" stroke="#666666" points="0,-266 0,-315 23,-315 23,-266 0,-266"/>
</a>
</g>
</g>
<!-- Node2&#45;&gt;Node1 -->
<g id="edge1_Node000001_Node000002" class="edge">
<title>Node2&#45;&gt;Node1</title>
<g id="a_edge1_Node000001_Node000002"><a xlink:title=" ">
<path fill="none" stroke="#63b8ff" d="M6.5,-265.82C0.75,-232.12 -4.72,-169.67 22.5,-127 37.69,-103.18 63.74,-86.64 88.54,-75.52"/>
<polygon fill="none" stroke="#63b8ff" points="88.75,-75.44 92.73,-69.43 99.81,-70.79 95.83,-76.8 88.75,-75.44"/>
</a>
</g>
<text text-anchor="middle" x="56.5" y="-185" font-family="Helvetica,sans-Serif" font-size="10.00" fill="grey"> +num_nodes</text>
</g>
<!-- Node3 -->
<g id="Node000003" class="node">
<title>Node3</title>
<g id="a_Node000003"><a xlink:title=" ">
<polygon fill="white" stroke="transparent" points="124.5,-315 80.5,-315 80.5,-266 124.5,-266 124.5,-315"/>
<text text-anchor="start" x="85.5" y="-302.5" font-family="Helvetica,sans-Serif" font-size="10.00">double</text>
<text text-anchor="start" x="100.5" y="-287.5" font-family="Helvetica,sans-Serif" font-size="10.00"> </text>
<text text-anchor="start" x="100.5" y="-272.5" font-family="Helvetica,sans-Serif" font-size="10.00"> </text>
<polygon fill="#666666" stroke="#666666" points="80.5,-297.5 80.5,-297.5 124.5,-297.5 124.5,-297.5 80.5,-297.5"/>
<polygon fill="#666666" stroke="#666666" points="80.5,-282.5 80.5,-282.5 124.5,-282.5 124.5,-282.5 80.5,-282.5"/>
<polygon fill="none" stroke="#666666" points="80.5,-266 80.5,-315 124.5,-315 124.5,-266 80.5,-266"/>
</a>
</g>
</g>
<!-- Node3&#45;&gt;Node1 -->
<g id="edge2_Node000001_Node000003" class="edge">
<title>Node3&#45;&gt;Node1</title>
<g id="a_edge2_Node000001_Node000003"><a xlink:title=" ">
<path fill="none" stroke="#63b8ff" d="M98.42,-265.97C93.78,-233.76 88.62,-174.52 103.5,-127 104.21,-124.74 105.01,-122.48 105.91,-120.25"/>
<polygon fill="none" stroke="#63b8ff" points="105.97,-120.11 104.84,-112.99 110.98,-109.21 112.11,-116.34 105.97,-120.11"/>
</a>
</g>
<text text-anchor="middle" x="142.5" y="-185" font-family="Helvetica,sans-Serif" font-size="10.00" fill="grey"> +event_weight</text>
</g>
<!-- Node4 -->
<g id="Node000004" class="node">
<title>Node4</title>
<g id="a_Node000004"><a xlink:title=" ">
<polygon fill="white" stroke="transparent" points="219.5,-315 187.5,-315 187.5,-266 219.5,-266 219.5,-315"/>
<text text-anchor="start" x="192.5" y="-302.5" font-family="Helvetica,sans-Serif" font-size="10.00">long</text>
<text text-anchor="start" x="201.5" y="-287.5" font-family="Helvetica,sans-Serif" font-size="10.00"> </text>
<text text-anchor="start" x="201.5" y="-272.5" font-family="Helvetica,sans-Serif" font-size="10.00"> </text>
<polygon fill="#666666" stroke="#666666" points="187.5,-297.5 187.5,-297.5 219.5,-297.5 219.5,-297.5 187.5,-297.5"/>
<polygon fill="#666666" stroke="#666666" points="187.5,-282.5 187.5,-282.5 219.5,-282.5 219.5,-282.5 187.5,-282.5"/>
<polygon fill="none" stroke="#666666" points="187.5,-266 187.5,-315 219.5,-315 219.5,-266 187.5,-266"/>
</a>
</g>
</g>
<!-- Node4&#45;&gt;Node1 -->
<g id="edge3_Node000001_Node000004" class="edge">
<title>Node4&#45;&gt;Node1</title>
<g id="a_edge3_Node000001_Node000004"><a xlink:title=" ">
<path fill="none" stroke="#63b8ff" d="M202.17,-266C199.95,-234.07 194.38,-175.42 181.5,-127 180.97,-125 180.39,-122.98 179.78,-120.94"/>
<polygon fill="none" stroke="#63b8ff" points="179.7,-120.68 174.03,-116.22 175.97,-109.28 181.64,-113.74 179.7,-120.68"/>
</a>
</g>
<text text-anchor="middle" x="236.5" y="-185" font-family="Helvetica,sans-Serif" font-size="10.00" fill="grey"> +event_index</text>
</g>
<!-- Node5 -->
<g id="Node000005" class="node">
<title>Node5</title>
<g id="a_Node000005"><a xlink:title=" ">
<polygon fill="white" stroke="transparent" points="318.5,-315 278.5,-315 278.5,-266 318.5,-266 318.5,-315"/>
<text text-anchor="start" x="283.5" y="-302.5" font-family="Helvetica,sans-Serif" font-size="10.00">char *</text>
<text text-anchor="start" x="296.5" y="-287.5" font-family="Helvetica,sans-Serif" font-size="10.00"> </text>
<text text-anchor="start" x="296.5" y="-272.5" font-family="Helvetica,sans-Serif" font-size="10.00"> </text>
<polygon fill="#666666" stroke="#666666" points="278.5,-297.5 278.5,-297.5 318.5,-297.5 318.5,-297.5 278.5,-297.5"/>
<polygon fill="#666666" stroke="#666666" points="278.5,-282.5 278.5,-282.5 318.5,-282.5 318.5,-282.5 278.5,-282.5"/>
<polygon fill="none" stroke="#666666" points="278.5,-266 278.5,-315 318.5,-315 318.5,-266 278.5,-266"/>
</a>
</g>
</g>
<!-- Node5&#45;&gt;Node1 -->
<g id="edge4_Node000001_Node000005" class="edge">
<title>Node5&#45;&gt;Node1</title>
<g id="a_edge4_Node000001_Node000005"><a xlink:title=" ">
<path fill="none" stroke="#63b8ff" d="M301.43,-265.72C304.34,-231.9 304.9,-169.31 276.5,-127 262.04,-105.46 238.75,-89.59 216.23,-78.36"/>
<polygon fill="none" stroke="#63b8ff" points="216.14,-78.32 209.01,-79.38 205.28,-73.21 212.42,-72.14 216.14,-78.32"/>
</a>
</g>
<text text-anchor="middle" x="348" y="-240" font-family="Helvetica,sans-Serif" font-size="10.00" fill="grey"> +data_edge</text>
<text text-anchor="middle" x="348" y="-229" font-family="Helvetica,sans-Serif" font-size="10.00" fill="grey">+data_graph</text>
<text text-anchor="middle" x="348" y="-218" font-family="Helvetica,sans-Serif" font-size="10.00" fill="grey">+data_map_edge</text>
<text text-anchor="middle" x="348" y="-207" font-family="Helvetica,sans-Serif" font-size="10.00" fill="grey">+data_map_graph</text>
<text text-anchor="middle" x="348" y="-196" font-family="Helvetica,sans-Serif" font-size="10.00" fill="grey">+data_map_node</text>
<text text-anchor="middle" x="348" y="-185" font-family="Helvetica,sans-Serif" font-size="10.00" fill="grey">+data_node</text>
<text text-anchor="middle" x="348" y="-174" font-family="Helvetica,sans-Serif" font-size="10.00" fill="grey">+edge_index</text>
<text text-anchor="middle" x="348" y="-163" font-family="Helvetica,sans-Serif" font-size="10.00" fill="grey">+filename</text>
<text text-anchor="middle" x="348" y="-152" font-family="Helvetica,sans-Serif" font-size="10.00" fill="grey">+hash</text>
<text text-anchor="middle" x="348" y="-141" font-family="Helvetica,sans-Serif" font-size="10.00" fill="grey">+truth_edge</text>
<text text-anchor="middle" x="348" y="-130" font-family="Helvetica,sans-Serif" font-size="10.00" fill="grey">...</text>
</g>
</g>
</svg>
</svg>

<style type='text/css'>
<![CDATA[
[data-mouse-over-selected='false'] { opacity: 0.7; }
[data-mouse-over-selected='true']  { opacity: 1.0; }
]]>
</style>
<script type="application/ecmascript"><![CDATA[
document.addEventListener('DOMContentLoaded', (event) => {
  highlightEdges();
  highlightAdjacentNodes();
});
]]></script>
</svg>
