<?xml version="1.0" encoding="UTF-8" standalone="no"?>
<!DOCTYPE svg PUBLIC "-//W3C//DTD SVG 1.1//EN"
 "http://www.w3.org/Graphics/SVG/1.1/DTD/svg11.dtd">
<!-- Generated by graphviz version 2.43.0 (0)
 -->
<!-- Title: optimizer.cxx Pages: 1 -->
<svg width="157pt" height="192pt"
 viewBox="0.00 0.00 156.50 192.00" xmlns="http://www.w3.org/2000/svg" xmlns:xlink="http://www.w3.org/1999/xlink">
<g id="graph0" class="graph" transform="scale(1 1) rotate(0) translate(4 188)">
<title>optimizer.cxx</title>
<!-- Node1 -->
<g id="Node000001" class="node">
<title>Node1</title>
<g id="a_Node000001"><a xlink:title=" ">
<polygon fill="#999999" stroke="#666666" points="99.5,-184 16.5,-184 16.5,-165 99.5,-165 99.5,-184"/>
<text text-anchor="middle" x="58" y="-172" font-family="Helvetica,sans-Serif" font-size="10.00">optimizer.cxx</text>
</a>
</g>
</g>
<!-- Node2 -->
<g id="Node000002" class="node">
<title>Node2</title>
<g id="a_Node000002"><a xlink:href="structs_2include_2structs_2optimizer_8h.html" target="_top" xlink:title="Defines the optimizer_params_t structure for configuring model optimizers.">
<polygon fill="white" stroke="#666666" points="111.5,-129 4.5,-129 4.5,-110 111.5,-110 111.5,-129"/>
<text text-anchor="middle" x="58" y="-117" font-family="Helvetica,sans-Serif" font-size="10.00">structs/optimizer.h</text>
</a>
</g>
</g>
<!-- Node1&#45;&gt;Node2 -->
<g id="edge1_Node000001_Node000002" class="edge">
<title>Node1&#45;&gt;Node2</title>
<g id="a_edge1_Node000001_Node000002"><a xlink:title=" ">
<path fill="none" stroke="#63b8ff" d="M58,-164.75C58,-157.8 58,-147.85 58,-139.13"/>
<polygon fill="#63b8ff" stroke="#63b8ff" points="61.5,-139.09 58,-129.09 54.5,-139.09 61.5,-139.09"/>
</a>
</g>
</g>
<!-- Node3 -->
<g id="Node000003" class="node">
<title>Node3</title>
<g id="a_Node000003"><a xlink:title=" ">
<polygon fill="#e0e0e0" stroke="#999999" points="44,-19 0,-19 0,0 44,0 44,-19"/>
<text text-anchor="middle" x="22" y="-7" font-family="Helvetica,sans-Serif" font-size="10.00">string</text>
</a>
</g>
</g>
<!-- Node2&#45;&gt;Node3 -->
<g id="edge2_Node000002_Node000003" class="edge">
<title>Node2&#45;&gt;Node3</title>
<g id="a_edge2_Node000002_Node000003"><a xlink:title=" ">
<path fill="none" stroke="#63b8ff" d="M53.84,-109.78C49.71,-100.91 43.39,-86.7 39,-74 33.87,-59.15 29.34,-41.91 26.25,-29.14"/>
<polygon fill="#63b8ff" stroke="#63b8ff" points="29.62,-28.18 23.93,-19.25 22.81,-29.78 29.62,-28.18"/>
</a>
</g>
</g>
<!-- Node4 -->
<g id="Node000004" class="node">
<title>Node4</title>
<g id="a_Node000004"><a xlink:href="property_8h.html" target="_top" xlink:title="Defines the cproperty template class for property&#45;based access patterns.">
<polygon fill="white" stroke="#666666" points="148.5,-74 47.5,-74 47.5,-55 148.5,-55 148.5,-74"/>
<text text-anchor="middle" x="98" y="-62" font-family="Helvetica,sans-Serif" font-size="10.00">structs/property.h</text>
</a>
</g>
</g>
<!-- Node2&#45;&gt;Node4 -->
<g id="edge3_Node000002_Node000004" class="edge">
<title>Node2&#45;&gt;Node4</title>
<g id="a_edge3_Node000002_Node000004"><a xlink:title=" ">
<path fill="none" stroke="#63b8ff" d="M64.61,-109.75C70.26,-102.26 78.54,-91.28 85.45,-82.13"/>
<polygon fill="#63b8ff" stroke="#63b8ff" points="88.29,-84.18 91.52,-74.09 82.7,-79.96 88.29,-84.18"/>
</a>
</g>
</g>
<!-- Node4&#45;&gt;Node3 -->
<g id="edge5_Node000004_Node000003" class="edge">
<title>Node4&#45;&gt;Node3</title>
<g id="a_edge5_Node000004_Node000003"><a xlink:title=" ">
<path fill="none" stroke="#63b8ff" d="M85.79,-54.98C74.22,-46.92 56.62,-34.65 42.84,-25.03"/>
<polygon fill="#63b8ff" stroke="#63b8ff" points="44.64,-22.02 34.43,-19.17 40.63,-27.76 44.64,-22.02"/>
</a>
</g>
</g>
<!-- Node5 -->
<g id="Node000005" class="node">
<title>Node5</title>
<g id="a_Node000005"><a xlink:title=" ">
<polygon fill="#e0e0e0" stroke="#999999" points="130.5,-19 65.5,-19 65.5,0 130.5,0 130.5,-19"/>
<text text-anchor="middle" x="98" y="-7" font-family="Helvetica,sans-Serif" font-size="10.00">functional</text>
</a>
</g>
</g>
<!-- Node4&#45;&gt;Node5 -->
<g id="edge4_Node000004_Node000005" class="edge">
<title>Node4&#45;&gt;Node5</title>
<g id="a_edge4_Node000004_Node000005"><a xlink:title=" ">
<path fill="none" stroke="#63b8ff" d="M98,-54.75C98,-47.8 98,-37.85 98,-29.13"/>
<polygon fill="#63b8ff" stroke="#63b8ff" points="101.5,-29.09 98,-19.09 94.5,-29.09 101.5,-29.09"/>
</a>
</g>
</g>
</g>
</svg>
