<?xml version="1.0" encoding="UTF-8" standalone="no"?>
<!DOCTYPE svg PUBLIC "-//W3C//DTD SVG 1.1//EN"
 "http://www.w3.org/Graphics/SVG/1.1/DTD/svg11.dtd">
<!-- Generated by graphviz version 2.43.0 (0)
 -->
<!-- Title: variable_t Pages: 1 -->
<svg width="132pt" height="502pt"
 viewBox="0.00 0.00 132.00 502.00" xmlns="http://www.w3.org/2000/svg" xmlns:xlink="http://www.w3.org/1999/xlink">
<g id="graph0" class="graph" transform="scale(1 1) rotate(0) translate(4 498)">
<title>variable_t</title>
<!-- Node1 -->
<g id="Node000001" class="node">
<title>Node1</title>
<g id="a_Node000001"><a xlink:title=" ">
<polygon fill="#999999" stroke="transparent" points="109,-334 15,-334 15,0 109,0 109,-334"/>
<text text-anchor="start" x="37.5" y="-322" font-family="Helvetica,sans-Serif" font-size="10.00">variable_t</text>
<text text-anchor="start" x="19" y="-307" font-family="Helvetica,sans-Serif" font-size="10.00">+</text>
<text text-anchor="start" x="32" y="-307" font-family="Helvetica,sans-Serif" font-size="10.00">variable_name</text>
<text text-anchor="start" x="19" y="-292" font-family="Helvetica,sans-Serif" font-size="10.00">+</text>
<text text-anchor="start" x="32" y="-292" font-family="Helvetica,sans-Serif" font-size="10.00">failed_branch</text>
<text text-anchor="start" x="21.5" y="-277" font-family="Helvetica,sans-Serif" font-size="10.00">&#45;</text>
<text text-anchor="start" x="32" y="-277" font-family="Helvetica,sans-Serif" font-size="10.00">write_t</text>
<text text-anchor="start" x="21.5" y="-262" font-family="Helvetica,sans-Serif" font-size="10.00">&#45;</text>
<text text-anchor="start" x="32" y="-262" font-family="Helvetica,sans-Serif" font-size="10.00">use_external</text>
<text text-anchor="start" x="21.5" y="-247" font-family="Helvetica,sans-Serif" font-size="10.00">&#45;</text>
<text text-anchor="start" x="32" y="-247" font-family="Helvetica,sans-Serif" font-size="10.00">is_triggered</text>
<text text-anchor="start" x="21.5" y="-232" font-family="Helvetica,sans-Serif" font-size="10.00">&#45;</text>
<text text-anchor="start" x="32" y="-232" font-family="Helvetica,sans-Serif" font-size="10.00">tb</text>
<text text-anchor="start" x="21.5" y="-217" font-family="Helvetica,sans-Serif" font-size="10.00">&#45;</text>
<text text-anchor="start" x="32" y="-217" font-family="Helvetica,sans-Serif" font-size="10.00">tt</text>
<text text-anchor="start" x="21.5" y="-202" font-family="Helvetica,sans-Serif" font-size="10.00">&#45;</text>
<text text-anchor="start" x="32" y="-202" font-family="Helvetica,sans-Serif" font-size="10.00">mtx</text>
<text text-anchor="start" x="19" y="-187" font-family="Helvetica,sans-Serif" font-size="10.00">+</text>
<text text-anchor="start" x="32" y="-187" font-family="Helvetica,sans-Serif" font-size="10.00">variable_t()</text>
<text text-anchor="start" x="19" y="-172" font-family="Helvetica,sans-Serif" font-size="10.00">+</text>
<text text-anchor="start" x="32" y="-172" font-family="Helvetica,sans-Serif" font-size="10.00">variable_t()</text>
<text text-anchor="start" x="19" y="-157" font-family="Helvetica,sans-Serif" font-size="10.00">+</text>
<text text-anchor="start" x="32" y="-157" font-family="Helvetica,sans-Serif" font-size="10.00">~variable_t()</text>
<text text-anchor="start" x="19" y="-142" font-family="Helvetica,sans-Serif" font-size="10.00">+</text>
<text text-anchor="start" x="32" y="-142" font-family="Helvetica,sans-Serif" font-size="10.00">create_meta()</text>
<text text-anchor="start" x="19" y="-127" font-family="Helvetica,sans-Serif" font-size="10.00">+</text>
<text text-anchor="start" x="32" y="-127" font-family="Helvetica,sans-Serif" font-size="10.00">build_switch()</text>
<text text-anchor="start" x="19" y="-112" font-family="Helvetica,sans-Serif" font-size="10.00">+</text>
<text text-anchor="start" x="32" y="-112" font-family="Helvetica,sans-Serif" font-size="10.00">process()</text>
<text text-anchor="start" x="19" y="-97" font-family="Helvetica,sans-Serif" font-size="10.00">+</text>
<text text-anchor="start" x="32" y="-97" font-family="Helvetica,sans-Serif" font-size="10.00">process()</text>
<text text-anchor="start" x="19" y="-82" font-family="Helvetica,sans-Serif" font-size="10.00">+</text>
<text text-anchor="start" x="32" y="-82" font-family="Helvetica,sans-Serif" font-size="10.00">process()</text>
<text text-anchor="start" x="19" y="-67" font-family="Helvetica,sans-Serif" font-size="10.00">+</text>
<text text-anchor="start" x="32" y="-67" font-family="Helvetica,sans-Serif" font-size="10.00">process()</text>
<text text-anchor="start" x="19" y="-52" font-family="Helvetica,sans-Serif" font-size="10.00">+</text>
<text text-anchor="start" x="32" y="-52" font-family="Helvetica,sans-Serif" font-size="10.00">process()</text>
<text text-anchor="start" x="32" y="-37" font-family="Helvetica,sans-Serif" font-size="10.00">and 11 more...</text>
<text text-anchor="start" x="21.5" y="-22" font-family="Helvetica,sans-Serif" font-size="10.00">&#45;</text>
<text text-anchor="start" x="32" y="-22" font-family="Helvetica,sans-Serif" font-size="10.00">add_data()</text>
<text text-anchor="start" x="21.5" y="-7" font-family="Helvetica,sans-Serif" font-size="10.00">&#45;</text>
<text text-anchor="start" x="32" y="-7" font-family="Helvetica,sans-Serif" font-size="10.00">add_data()</text>
<polygon fill="#666666" stroke="#666666" points="15,-317 15,-317 109,-317 109,-317 15,-317"/>
<polygon fill="#666666" stroke="#666666" points="15,-197 15,-197 30,-197 30,-197 15,-197"/>
<polygon fill="#666666" stroke="#666666" points="30,-197 30,-197 109,-197 109,-197 30,-197"/>
<polygon fill="none" stroke="#666666" points="15,0 15,-334 109,-334 109,0 15,0"/>
</a>
</g>
</g>
<!-- Node2 -->
<g id="Node000002" class="node">
<title>Node2</title>
<g id="a_Node000002"><a xlink:href="classbsc__t.html" target="_top" xlink:title="Basic structure class that provides type translation and buffer management.">
<polygon fill="white" stroke="transparent" points="124,-494 0,-494 0,-370 124,-370 124,-494"/>
<text text-anchor="start" x="49" y="-482" font-family="Helvetica,sans-Serif" font-size="10.00">bsc_t</text>
<text text-anchor="start" x="4" y="-467" font-family="Helvetica,sans-Serif" font-size="10.00">+</text>
<text text-anchor="start" x="17" y="-467" font-family="Helvetica,sans-Serif" font-size="10.00">buffer</text>
<text text-anchor="start" x="4" y="-452" font-family="Helvetica,sans-Serif" font-size="10.00">+</text>
<text text-anchor="start" x="17" y="-452" font-family="Helvetica,sans-Serif" font-size="10.00">bsc_t()</text>
<text text-anchor="start" x="4" y="-437" font-family="Helvetica,sans-Serif" font-size="10.00">+</text>
<text text-anchor="start" x="17" y="-437" font-family="Helvetica,sans-Serif" font-size="10.00">~bsc_t()</text>
<text text-anchor="start" x="4" y="-422" font-family="Helvetica,sans-Serif" font-size="10.00">+</text>
<text text-anchor="start" x="17" y="-422" font-family="Helvetica,sans-Serif" font-size="10.00">root_type_translate()</text>
<text text-anchor="start" x="4" y="-407" font-family="Helvetica,sans-Serif" font-size="10.00">+</text>
<text text-anchor="start" x="17" y="-407" font-family="Helvetica,sans-Serif" font-size="10.00">as_string()</text>
<text text-anchor="start" x="4" y="-392" font-family="Helvetica,sans-Serif" font-size="10.00">+</text>
<text text-anchor="start" x="17" y="-392" font-family="Helvetica,sans-Serif" font-size="10.00">scan_buffer()</text>
<text text-anchor="start" x="4" y="-377" font-family="Helvetica,sans-Serif" font-size="10.00">+</text>
<text text-anchor="start" x="17" y="-377" font-family="Helvetica,sans-Serif" font-size="10.00">flush_buffer()</text>
<polygon fill="#666666" stroke="#666666" points="0,-477 0,-477 124,-477 124,-477 0,-477"/>
<polygon fill="#666666" stroke="#666666" points="0,-462 0,-462 15,-462 15,-462 0,-462"/>
<polygon fill="#666666" stroke="#666666" points="15,-462 15,-462 124,-462 124,-462 15,-462"/>
<polygon fill="none" stroke="#666666" points="0,-370 0,-494 124,-494 124,-370 0,-370"/>
</a>
</g>
</g>
<!-- Node2&#45;&gt;Node1 -->
<g id="edge1_Node000001_Node000002" class="edge">
<title>Node2&#45;&gt;Node1</title>
<g id="a_edge1_Node000001_Node000002"><a xlink:title=" ">
<path fill="none" stroke="#63b8ff" d="M62,-359.57C62,-351.41 62,-342.87 62,-334.1"/>
<polygon fill="none" stroke="#63b8ff" points="58.5,-359.67 62,-369.67 65.5,-359.67 58.5,-359.67"/>
</a>
</g>
</g>
</g>
</svg>
