<?xml version="1.0" encoding="UTF-8" standalone="no"?>
<!DOCTYPE svg PUBLIC "-//W3C//DTD SVG 1.1//EN"
 "http://www.w3.org/Graphics/SVG/1.1/DTD/svg11.dtd">
<!-- Generated by graphviz version 2.43.0 (0)
 -->
<!-- Title: buffer_t Pages: 1 -->
<!--zoomable 636 -->

<svg id="main" version="1.1" xmlns="http://www.w3.org/2000/svg" xmlns:xlink="http://www.w3.org/1999/xlink" xml:space="preserve" onload="init(evt)">
<style type="text/css"><![CDATA[
.node, .edge {opacity: 0.7;}
.node.selected, .edge.selected {opacity: 1;}
.edge:hover path { stroke: red; }
.edge:hover polygon { stroke: red; fill: red; }
]]></style>

<defs>
  <circle id="rim" cx="0" cy="0" r="7"/>
  <circle id="rim2" cx="0" cy="0" r="3.5"/>
  <g id="zoomPlus">
    <use xlink:href="#rim" fill="#404040"><set attributeName="fill" to="#808080" begin="zoomplus.mouseover" end="zoomplus.mouseout"/></use>
    <path d="M-4,0h8M0,-4v8" fill="none" stroke="white" stroke-width="1.5" pointer-events="none"/>
  </g>
  <g id="zoomMin">
    <use xlink:href="#rim" fill="#404040"><set attributeName="fill" to="#808080" begin="zoomminus.mouseover" end="zoomminus.mouseout"/></use>
    <path d="M-4,0h8" fill="none" stroke="white" stroke-width="1.5" pointer-events="none"/>
  </g>
  <g id="arrowUp" transform="translate(30 24)">
    <use xlink:href="#rim"/>
    <path pointer-events="none" fill="none" stroke="white" stroke-width="1.5" d="M0,-3.0v7 M-2.5,-0.5L0,-3.0L2.5,-0.5"/>
  </g>
  <g id="arrowRight" transform="rotate(90) translate(36 -43)">
    <use xlink:href="#rim"/>
    <path pointer-events="none" fill="none" stroke="white" stroke-width="1.5" d="M0,-3.0v7 M-2.5,-0.5L0,-3.0L2.5,-0.5"/>
  </g>
  <g id="arrowDown" transform="rotate(180) translate(-30 -48)">
    <use xlink:href="#rim"/>
    <path pointer-events="none" fill="none" stroke="white" stroke-width="1.5" d="M0,-3.0v7 M-2.5,-0.5L0,-3.0L2.5,-0.5"/>
  </g>
  <g id="arrowLeft" transform="rotate(270) translate(-36 17)">
    <use xlink:href="#rim"/>
    <path pointer-events="none" fill="none" stroke="white" stroke-width="1.5" d="M0,-3.0v7 M-2.5,-0.5L0,-3.0L2.5,-0.5"/>
  </g>
  <g id="resetDef">
    <use xlink:href="#rim2" fill="#404040"><set attributeName="fill" to="#808080" begin="reset.mouseover" end="reset.mouseout"/></use>
  </g>
</defs>
<script type="application/ecmascript">
var viewWidth = 440;
var viewHeight = 636;
var sectionId = 'dynsection-0';
</script>
<script type="application/ecmascript" xlink:href="svg.min.js"/>
<svg id="graph" class="graph">
<g id="viewport">
<title>buffer_t</title>
<!-- Node1 -->
<g id="Node000001" class="node">
<title>Node1</title>
<g id="a_Node000001"><a xlink:title=" ">
<polygon fill="#999999" stroke="transparent" points="145.5,-49 97.5,-49 97.5,0 145.5,0 145.5,-49"/>
<text text-anchor="start" x="102.5" y="-36.5" font-family="Helvetica,sans-Serif" font-size="10.00">buffer_t</text>
<text text-anchor="start" x="119.5" y="-21.5" font-family="Helvetica,sans-Serif" font-size="10.00"> </text>
<text text-anchor="start" x="119.5" y="-6.5" font-family="Helvetica,sans-Serif" font-size="10.00"> </text>
<polygon fill="#666666" stroke="#666666" points="97.5,-31.5 97.5,-31.5 145.5,-31.5 145.5,-31.5 97.5,-31.5"/>
<polygon fill="#666666" stroke="#666666" points="97.5,-16.5 97.5,-16.5 145.5,-16.5 145.5,-16.5 97.5,-16.5"/>
<polygon fill="none" stroke="#666666" points="97.5,0 97.5,-49 145.5,-49 145.5,0 97.5,0"/>
</a>
</g>
</g>
<!-- Node2 -->
<g id="Node000002" class="node">
<title>Node2</title>
<g id="a_Node000002"><a xlink:href="structobject__data__t.html" target="_top" xlink:title=" ">
<polygon fill="white" stroke="transparent" points="160,-189 83,-189 83,-140 160,-140 160,-189"/>
<text text-anchor="start" x="88.5" y="-176.5" font-family="Helvetica,sans-Serif" font-size="10.00">object_data_t</text>
<text text-anchor="start" x="120" y="-161.5" font-family="Helvetica,sans-Serif" font-size="10.00"> </text>
<text text-anchor="start" x="120" y="-146.5" font-family="Helvetica,sans-Serif" font-size="10.00"> </text>
<polygon fill="#666666" stroke="#666666" points="83.5,-171.5 83.5,-171.5 160.5,-171.5 160.5,-171.5 83.5,-171.5"/>
<polygon fill="#666666" stroke="#666666" points="83.5,-156.5 83.5,-156.5 160.5,-156.5 160.5,-156.5 83.5,-156.5"/>
<polygon fill="none" stroke="#666666" points="83,-140 83,-189 160,-189 160,-140 83,-140"/>
</a>
</g>
</g>
<!-- Node2&#45;&gt;Node1 -->
<g id="edge1_Node000001_Node000002" class="edge">
<title>Node2&#45;&gt;Node1</title>
<g id="a_edge1_Node000001_Node000002"><a xlink:title=" ">
<path fill="none" stroke="#63b8ff" d="M121.5,-139.78C121.5,-118.25 121.5,-86.2 121.5,-61.52"/>
<polygon fill="none" stroke="#63b8ff" points="121.5,-61.38 117.5,-55.38 121.5,-49.38 125.5,-55.38 121.5,-61.38"/>
</a>
</g>
<text text-anchor="middle" x="167.5" y="-114" font-family="Helvetica,sans-Serif" font-size="10.00" fill="grey"> +top_children</text>
<text text-anchor="middle" x="167.5" y="-103" font-family="Helvetica,sans-Serif" font-size="10.00" fill="grey">+top_jets_children</text>
<text text-anchor="middle" x="167.5" y="-92" font-family="Helvetica,sans-Serif" font-size="10.00" fill="grey">+top_jets_leptons</text>
<text text-anchor="middle" x="167.5" y="-81" font-family="Helvetica,sans-Serif" font-size="10.00" fill="grey">+top_partons</text>
<text text-anchor="middle" x="167.5" y="-70" font-family="Helvetica,sans-Serif" font-size="10.00" fill="grey">+top_truthjets</text>
</g>
<!-- Node3 -->
<g id="Node000003" class="node">
<title>Node3</title>
<g id="a_Node000003"><a xlink:title=" ">
<polygon fill="white" stroke="transparent" points="23,-532 0,-532 0,-483 23,-483 23,-532"/>
<text text-anchor="start" x="5.5" y="-519.5" font-family="Helvetica,sans-Serif" font-size="10.00">int</text>
<text text-anchor="start" x="10" y="-504.5" font-family="Helvetica,sans-Serif" font-size="10.00"> </text>
<text text-anchor="start" x="10" y="-489.5" font-family="Helvetica,sans-Serif" font-size="10.00"> </text>
<polygon fill="#666666" stroke="#666666" points="0.5,-514.5 0.5,-514.5 23.5,-514.5 23.5,-514.5 0.5,-514.5"/>
<polygon fill="#666666" stroke="#666666" points="0.5,-499.5 0.5,-499.5 23.5,-499.5 23.5,-499.5 0.5,-499.5"/>
<polygon fill="none" stroke="#666666" points="0,-483 0,-532 23,-532 23,-483 0,-483"/>
</a>
</g>
</g>
<!-- Node3&#45;&gt;Node2 -->
<g id="edge2_Node000002_Node000003" class="edge">
<title>Node3&#45;&gt;Node2</title>
<g id="a_edge2_Node000002_Node000003"><a xlink:title=" ">
<path fill="none" stroke="#63b8ff" d="M7.78,-482.98C3.09,-447.8 -2.57,-379.73 13.5,-325 27.91,-275.92 63.65,-228.56 90.09,-198.37"/>
<polygon fill="none" stroke="#63b8ff" points="90.3,-198.13 91.33,-191 98.31,-189.2 97.29,-196.33 90.3,-198.13"/>
</a>
</g>
<text text-anchor="middle" x="45" y="-361" font-family="Helvetica,sans-Serif" font-size="10.00" fill="grey"> +num_false</text>
<text text-anchor="middle" x="45" y="-350" font-family="Helvetica,sans-Serif" font-size="10.00" fill="grey">+num_htop</text>
<text text-anchor="middle" x="45" y="-339" font-family="Helvetica,sans-Serif" font-size="10.00" fill="grey">+num_ltop</text>
<text text-anchor="middle" x="45" y="-328" font-family="Helvetica,sans-Serif" font-size="10.00" fill="grey">+num_tops</text>
</g>
<!-- Node8 -->
<g id="Node000008" class="node">
<title>Node8</title>
<g id="a_Node000008"><a xlink:title=" ">
<polygon fill="white" stroke="transparent" points="135.5,-436 37.5,-436 37.5,-387 135.5,-387 135.5,-436"/>
<text text-anchor="start" x="42.5" y="-423.5" font-family="Helvetica,sans-Serif" font-size="10.00">std::vector&lt; int &gt;</text>
<text text-anchor="start" x="84.5" y="-408.5" font-family="Helvetica,sans-Serif" font-size="10.00"> </text>
<text text-anchor="start" x="84.5" y="-393.5" font-family="Helvetica,sans-Serif" font-size="10.00"> </text>
<polygon fill="#666666" stroke="#666666" points="37.5,-418.5 37.5,-418.5 135.5,-418.5 135.5,-418.5 37.5,-418.5"/>
<polygon fill="#666666" stroke="#666666" points="37.5,-403.5 37.5,-403.5 135.5,-403.5 135.5,-403.5 37.5,-403.5"/>
<polygon fill="none" stroke="#666666" points="37.5,-387 37.5,-436 135.5,-436 135.5,-387 37.5,-387"/>
</a>
</g>
</g>
<!-- Node3&#45;&gt;Node8 -->
<g id="edge8_Node000008_Node000003" class="edge">
<title>Node3&#45;&gt;Node8</title>
<g id="a_edge8_Node000008_Node000003"><a xlink:title=" ">
<path fill="none" stroke="#63b8ff" d="M23.15,-485.56C29.05,-475.63 36.62,-463.82 44.5,-454 46.94,-450.96 49.58,-447.91 52.31,-444.92"/>
<polygon fill="none" stroke="#63b8ff" points="52.35,-444.87 53.6,-437.77 60.64,-436.19 59.39,-443.29 52.35,-444.87"/>
</a>
</g>
<text text-anchor="middle" x="73.5" y="-457" font-family="Helvetica,sans-Serif" font-size="10.00" fill="grey"> +elements</text>
</g>
<!-- Node4 -->
<g id="Node000004" class="node">
<title>Node4</title>
<g id="a_Node000004"><a xlink:title=" ">
<polygon fill="white" stroke="transparent" points="431.5,-436 313.5,-436 313.5,-387 431.5,-387 431.5,-436"/>
<text text-anchor="start" x="318.5" y="-423.5" font-family="Helvetica,sans-Serif" font-size="10.00">std::vector&lt; double &gt;</text>
<text text-anchor="start" x="370.5" y="-408.5" font-family="Helvetica,sans-Serif" font-size="10.00"> </text>
<text text-anchor="start" x="370.5" y="-393.5" font-family="Helvetica,sans-Serif" font-size="10.00"> </text>
<polygon fill="#666666" stroke="#666666" points="313.5,-418.5 313.5,-418.5 431.5,-418.5 431.5,-418.5 313.5,-418.5"/>
<polygon fill="#666666" stroke="#666666" points="313.5,-403.5 313.5,-403.5 431.5,-403.5 431.5,-403.5 313.5,-403.5"/>
<polygon fill="none" stroke="#666666" points="313.5,-387 313.5,-436 431.5,-436 431.5,-387 313.5,-387"/>
</a>
</g>
</g>
<!-- Node4&#45;&gt;Node2 -->
<g id="edge3_Node000002_Node000004" class="edge">
<title>Node4&#45;&gt;Node2</title>
<g id="a_edge3_Node000002_Node000004"><a xlink:title=" ">
<path fill="none" stroke="#63b8ff" d="M366.25,-386.99C356.22,-352.9 333.81,-289.22 296.5,-247 263.82,-210.01 210.83,-188.61 171.71,-177.1"/>
<polygon fill="none" stroke="#63b8ff" points="171.61,-177.07 164.75,-179.31 160.05,-173.84 166.91,-171.6 171.61,-177.07"/>
</a>
</g>
<text text-anchor="middle" x="378" y="-280" font-family="Helvetica,sans-Serif" font-size="10.00" fill="grey"> +mass</text>
<text text-anchor="middle" x="378" y="-269" font-family="Helvetica,sans-Serif" font-size="10.00" fill="grey">+wrong_matched</text>
</g>
<!-- Node5 -->
<g id="Node000005" class="node">
<title>Node5</title>
<g id="a_Node000005"><a xlink:title=" ">
<polygon fill="white" stroke="transparent" points="394.5,-532 350.5,-532 350.5,-483 394.5,-483 394.5,-532"/>
<text text-anchor="start" x="355.5" y="-519.5" font-family="Helvetica,sans-Serif" font-size="10.00">double</text>
<text text-anchor="start" x="370.5" y="-504.5" font-family="Helvetica,sans-Serif" font-size="10.00"> </text>
<text text-anchor="start" x="370.5" y="-489.5" font-family="Helvetica,sans-Serif" font-size="10.00"> </text>
<polygon fill="#666666" stroke="#666666" points="350.5,-514.5 350.5,-514.5 394.5,-514.5 394.5,-514.5 350.5,-514.5"/>
<polygon fill="#666666" stroke="#666666" points="350.5,-499.5 350.5,-499.5 394.5,-499.5 394.5,-499.5 350.5,-499.5"/>
<polygon fill="none" stroke="#666666" points="350.5,-483 350.5,-532 394.5,-532 394.5,-483 350.5,-483"/>
</a>
</g>
</g>
<!-- Node5&#45;&gt;Node4 -->
<g id="edge4_Node000004_Node000005" class="edge">
<title>Node5&#45;&gt;Node4</title>
<g id="a_edge4_Node000004_Node000005"><a xlink:title=" ">
<path fill="none" stroke="#63b8ff" d="M372.5,-482.78C372.5,-472.32 372.5,-459.79 372.5,-448.23"/>
<polygon fill="none" stroke="#63b8ff" points="372.5,-448.21 368.5,-442.21 372.5,-436.21 376.5,-442.21 372.5,-448.21"/>
</a>
</g>
<text text-anchor="middle" x="401.5" y="-457" font-family="Helvetica,sans-Serif" font-size="10.00" fill="grey"> +elements</text>
</g>
<!-- Node6 -->
<g id="Node000006" class="node">
<title>Node6</title>
<g id="a_Node000006"><a xlink:title=" ">
<polygon fill="white" stroke="transparent" points="228,-532 137,-532 137,-483 228,-483 228,-532"/>
<text text-anchor="start" x="142.5" y="-519.5" font-family="Helvetica,sans-Serif" font-size="10.00">std::vector&lt; T &gt;</text>
<text text-anchor="start" x="181" y="-504.5" font-family="Helvetica,sans-Serif" font-size="10.00"> </text>
<text text-anchor="start" x="181" y="-489.5" font-family="Helvetica,sans-Serif" font-size="10.00"> </text>
<polygon fill="#666666" stroke="#666666" points="137.5,-514.5 137.5,-514.5 228.5,-514.5 228.5,-514.5 137.5,-514.5"/>
<polygon fill="#666666" stroke="#666666" points="137.5,-499.5 137.5,-499.5 228.5,-499.5 228.5,-499.5 137.5,-499.5"/>
<polygon fill="none" stroke="#666666" points="137,-483 137,-532 228,-532 228,-483 137,-483"/>
</a>
</g>
</g>
<!-- Node6&#45;&gt;Node4 -->
<g id="edge5_Node000004_Node000006" class="edge">
<title>Node6&#45;&gt;Node4</title>
<g id="a_edge5_Node000004_Node000006"><a xlink:title=" ">
<path fill="none" stroke="orange" d="M237.16,-479.46C264.82,-465.77 298.08,-449.32 324.71,-436.14"/>
<polygon fill="orange" stroke="orange" points="235.42,-476.41 228.01,-483.98 238.52,-482.69 235.42,-476.41"/>
</a>
</g>
<text text-anchor="middle" x="312" y="-457" font-family="Helvetica,sans-Serif" font-size="10.00" fill="grey"> &lt; double &gt;</text>
</g>
<!-- Node6&#45;&gt;Node8 -->
<g id="edge9_Node000008_Node000006" class="edge">
<title>Node6&#45;&gt;Node8</title>
<g id="a_edge9_Node000008_Node000006"><a xlink:title=" ">
<path fill="none" stroke="orange" d="M142.02,-476.33C137.67,-472.65 133.42,-468.83 129.5,-465 120.49,-456.18 111.5,-445.57 104.09,-436.19"/>
<polygon fill="orange" stroke="orange" points="139.93,-479.15 149.88,-482.79 144.37,-473.74 139.93,-479.15"/>
</a>
</g>
<text text-anchor="middle" x="149" y="-457" font-family="Helvetica,sans-Serif" font-size="10.00" fill="grey"> &lt; int &gt;</text>
</g>
<!-- Node9 -->
<g id="Node000009" class="node">
<title>Node9</title>
<g id="a_Node000009"><a xlink:title=" ">
<polygon fill="white" stroke="transparent" points="287,-307 162,-307 162,-247 287,-247 287,-307"/>
<text text-anchor="start" x="167.5" y="-295" font-family="Helvetica,sans-Serif" font-size="10.00">std::vector&lt; std::vector</text>
<text text-anchor="start" x="201.5" y="-284" font-family="Helvetica,sans-Serif" font-size="10.00">&lt; int &gt; &gt;</text>
<text text-anchor="start" x="223" y="-269" font-family="Helvetica,sans-Serif" font-size="10.00"> </text>
<text text-anchor="start" x="223" y="-254" font-family="Helvetica,sans-Serif" font-size="10.00"> </text>
<polygon fill="#666666" stroke="#666666" points="162.5,-279 162.5,-279 287.5,-279 287.5,-279 162.5,-279"/>
<polygon fill="#666666" stroke="#666666" points="162.5,-264 162.5,-264 287.5,-264 287.5,-264 162.5,-264"/>
<polygon fill="none" stroke="#666666" points="162,-247 162,-307 287,-307 287,-247 162,-247"/>
</a>
</g>
</g>
<!-- Node6&#45;&gt;Node9 -->
<g id="edge12_Node000009_Node000006" class="edge">
<title>Node6&#45;&gt;Node9</title>
<g id="a_edge12_Node000009_Node000006"><a xlink:title=" ">
<path fill="none" stroke="orange" d="M183.07,-472.89C183.96,-448.8 186.14,-415.68 191.5,-387 196.65,-359.4 206.24,-328.88 213.76,-307.18"/>
<polygon fill="orange" stroke="orange" points="179.57,-472.84 182.76,-482.95 186.57,-473.06 179.57,-472.84"/>
</a>
</g>
<text text-anchor="middle" x="248" y="-409" font-family="Helvetica,sans-Serif" font-size="10.00" fill="grey"> &lt; std::vector&lt; int &gt; &gt;</text>
</g>
<!-- Node7 -->
<g id="Node000007" class="node">
<title>Node7</title>
<g id="a_Node000007"><a xlink:title=" ">
<polygon fill="white" stroke="transparent" points="191,-628 174,-628 174,-579 191,-579 191,-628"/>
<text text-anchor="start" x="179.5" y="-615.5" font-family="Helvetica,sans-Serif" font-size="10.00">T</text>
<text text-anchor="start" x="181" y="-600.5" font-family="Helvetica,sans-Serif" font-size="10.00"> </text>
<text text-anchor="start" x="181" y="-585.5" font-family="Helvetica,sans-Serif" font-size="10.00"> </text>
<polygon fill="#666666" stroke="#666666" points="174.5,-610.5 174.5,-610.5 191.5,-610.5 191.5,-610.5 174.5,-610.5"/>
<polygon fill="#666666" stroke="#666666" points="174.5,-595.5 174.5,-595.5 191.5,-595.5 191.5,-595.5 174.5,-595.5"/>
<polygon fill="none" stroke="#666666" points="174,-579 174,-628 191,-628 191,-579 174,-579"/>
</a>
</g>
</g>
<!-- Node7&#45;&gt;Node6 -->
<g id="edge6_Node000006_Node000007" class="edge">
<title>Node7&#45;&gt;Node6</title>
<g id="a_edge6_Node000006_Node000007"><a xlink:title=" ">
<path fill="none" stroke="#63b8ff" d="M182.5,-578.78C182.5,-568.32 182.5,-555.79 182.5,-544.23"/>
<polygon fill="none" stroke="#63b8ff" points="182.5,-544.21 178.5,-538.21 182.5,-532.21 186.5,-538.21 182.5,-544.21"/>
</a>
</g>
<text text-anchor="middle" x="211.5" y="-553" font-family="Helvetica,sans-Serif" font-size="10.00" fill="grey"> +elements</text>
</g>
<!-- Node8&#45;&gt;Node2 -->
<g id="edge7_Node000002_Node000008" class="edge">
<title>Node8&#45;&gt;Node2</title>
<g id="a_edge7_Node000002_Node000008"><a xlink:title=" ">
<path fill="none" stroke="#63b8ff" d="M83.55,-386.92C80.21,-354.86 76.44,-295.93 86.5,-247 89.77,-231.09 96.29,-214.46 102.82,-200.4"/>
<polygon fill="none" stroke="#63b8ff" points="102.99,-200.05 102.02,-192.91 108.24,-189.26 109.21,-196.41 102.99,-200.05"/>
</a>
</g>
<text text-anchor="middle" x="120" y="-285.5" font-family="Helvetica,sans-Serif" font-size="10.00" fill="grey"> +is_hadronic</text>
<text text-anchor="middle" x="120" y="-274.5" font-family="Helvetica,sans-Serif" font-size="10.00" fill="grey">+is_leptonic</text>
<text text-anchor="middle" x="120" y="-263.5" font-family="Helvetica,sans-Serif" font-size="10.00" fill="grey">+num_jets</text>
</g>
<!-- Node8&#45;&gt;Node9 -->
<g id="edge11_Node000009_Node000008" class="edge">
<title>Node8&#45;&gt;Node9</title>
<g id="a_edge11_Node000009_Node000008"><a xlink:title=" ">
<path fill="none" stroke="#63b8ff" d="M87.62,-386.79C89.69,-367.97 95.34,-342.05 110.5,-325 112.26,-323.03 129.62,-315.58 150.29,-307.18"/>
<polygon fill="none" stroke="#63b8ff" points="150.56,-307.07 154.62,-301.12 161.68,-302.58 157.62,-308.54 150.56,-307.07"/>
</a>
</g>
<text text-anchor="middle" x="139.5" y="-344.5" font-family="Helvetica,sans-Serif" font-size="10.00" fill="grey"> +elements</text>
</g>
<!-- Node9&#45;&gt;Node2 -->
<g id="edge10_Node000002_Node000009" class="edge">
<title>Node9&#45;&gt;Node2</title>
<g id="a_edge10_Node000002_Node000009"><a xlink:title=" ">
<path fill="none" stroke="#63b8ff" d="M197.44,-246.97C183.52,-232.03 166.5,-213.78 152.1,-198.33"/>
<polygon fill="none" stroke="#63b8ff" points="151.71,-197.91 144.69,-196.25 143.53,-189.13 150.55,-190.79 151.71,-197.91"/>
</a>
</g>
<text text-anchor="middle" x="204" y="-221" font-family="Helvetica,sans-Serif" font-size="10.00" fill="grey"> +merged</text>
<text text-anchor="middle" x="204" y="-210" font-family="Helvetica,sans-Serif" font-size="10.00" fill="grey">+pdgid</text>
</g>
</g>
</svg>

<g id="navigator" transform="translate(0 0)" fill="#404254">
  <rect fill="#f2f5e9" fill-opacity="0.5" stroke="#606060" stroke-width=".5" x="0" y="0" width="60" height="60"/>
  <use id="zoomplus" xlink:href="#zoomPlus" x="17" y="9" onmousedown="handleZoom(evt,'in')"/>
  <use id="zoomminus" xlink:href="#zoomMin" x="42" y="9" onmousedown="handleZoom(evt,'out')"/>
  <use id="reset" xlink:href="#resetDef" x="30" y="36" onmousedown="handleReset()"/>
   <use id="arrowup" xlink:href="#arrowUp" x="0" y="0" onmousedown="handlePan(0,-1)"/>
  <use id="arrowright" xlink:href="#arrowRight" x="0" y="0" onmousedown="handlePan(1,0)"/>
  <use id="arrowdown" xlink:href="#arrowDown" x="0" y="0" onmousedown="handlePan(0,1)"/>
  <use id="arrowleft" xlink:href="#arrowLeft" x="0" y="0" onmousedown="handlePan(-1,0)"/>
</g>
<svg viewBox="0 0 15 15" width="100%" height="30px" preserveAspectRatio="xMaxYMin meet">
 <g id="arrow_out" transform="scale(0.3 0.3)">
  <a xlink:href="structbuffer__t__coll__graph_org.svg" target="_base">
   <rect id="button" ry="5" rx="5" y="6" x="6" height="38" width="38"
        fill="#f2f5e9" fill-opacity="0.5" stroke="#606060" stroke-width="1.0"/>
   <path id="arrow"
     d="M 11.500037,31.436501 C 11.940474,20.09759 22.043105,11.32322 32.158766,21.979434 L 37.068811,17.246167 C 37.068811,17.246167 37.088388,32 37.088388,32 L 22.160133,31.978069 C 22.160133,31.978069 26.997745,27.140456 26.997745,27.140456 C 18.528582,18.264221 13.291696,25.230495 11.500037,31.436501 z"
     style="fill:#404040;"/>
  </a>
 </g>
</svg>

<style type='text/css'>
<![CDATA[
[data-mouse-over-selected='false'] { opacity: 0.7; }
[data-mouse-over-selected='true']  { opacity: 1.0; }
]]>
</style>
<script type="application/ecmascript"><![CDATA[
document.addEventListener('DOMContentLoaded', (event) => {
  highlightEdges();
  highlightAdjacentNodes();
});
]]></script>
</svg>
