<?xml version="1.0" encoding="UTF-8" standalone="no"?>
<!DOCTYPE svg PUBLIC "-//W3C//DTD SVG 1.1//EN"
 "http://www.w3.org/Graphics/SVG/1.1/DTD/svg11.dtd">
<!-- Generated by graphviz version 2.43.0 (0)
 -->
<!-- Title: package_t Pages: 1 -->
<svg width="158pt" height="602pt"
 viewBox="0.00 0.00 158.00 602.00" xmlns="http://www.w3.org/2000/svg" xmlns:xlink="http://www.w3.org/1999/xlink">
<g id="graph0" class="graph" transform="scale(1 1) rotate(0) translate(4 598)">
<title>package_t</title>
<!-- Node1 -->
<g id="Node000001" class="node">
<title>Node1</title>
<g id="a_Node000001"><a xlink:title=" ">
<polygon fill="#999999" stroke="transparent" points="123.5,-259 0.5,-259 0.5,0 123.5,0 123.5,-259"/>
<text text-anchor="start" x="37.5" y="-246.5" font-family="Helvetica,sans-Serif" font-size="10.00">package_t</text>
<text text-anchor="start" x="5" y="-231.5" font-family="Helvetica,sans-Serif" font-size="10.00">+</text>
<text text-anchor="start" x="18" y="-231.5" font-family="Helvetica,sans-Serif" font-size="10.00">CRttbarCO2l_gstr</text>
<text text-anchor="start" x="5" y="-216.5" font-family="Helvetica,sans-Serif" font-size="10.00">+</text>
<text text-anchor="start" x="18" y="-216.5" font-family="Helvetica,sans-Serif" font-size="10.00">CRttbarCO2l_gstr_2b</text>
<text text-anchor="start" x="5" y="-201.5" font-family="Helvetica,sans-Serif" font-size="10.00">+</text>
<text text-anchor="start" x="18" y="-201.5" font-family="Helvetica,sans-Serif" font-size="10.00">VRttZ3l</text>
<text text-anchor="start" x="5" y="-186.5" font-family="Helvetica,sans-Serif" font-size="10.00">+</text>
<text text-anchor="start" x="18" y="-186.5" font-family="Helvetica,sans-Serif" font-size="10.00">VRttWCRSR</text>
<text text-anchor="start" x="5" y="-171.5" font-family="Helvetica,sans-Serif" font-size="10.00">+</text>
<text text-anchor="start" x="18" y="-171.5" font-family="Helvetica,sans-Serif" font-size="10.00">SR4b</text>
<text text-anchor="start" x="5" y="-156.5" font-family="Helvetica,sans-Serif" font-size="10.00">+</text>
<text text-anchor="start" x="18" y="-156.5" font-family="Helvetica,sans-Serif" font-size="10.00">SR2b</text>
<text text-anchor="start" x="5" y="-141.5" font-family="Helvetica,sans-Serif" font-size="10.00">+</text>
<text text-anchor="start" x="18" y="-141.5" font-family="Helvetica,sans-Serif" font-size="10.00">SR3b</text>
<text text-anchor="start" x="5" y="-126.5" font-family="Helvetica,sans-Serif" font-size="10.00">+</text>
<text text-anchor="start" x="18" y="-126.5" font-family="Helvetica,sans-Serif" font-size="10.00">SR2b2l</text>
<text text-anchor="start" x="5" y="-111.5" font-family="Helvetica,sans-Serif" font-size="10.00">+</text>
<text text-anchor="start" x="18" y="-111.5" font-family="Helvetica,sans-Serif" font-size="10.00">SR2b3l4l</text>
<text text-anchor="start" x="5" y="-96.5" font-family="Helvetica,sans-Serif" font-size="10.00">+</text>
<text text-anchor="start" x="18" y="-96.5" font-family="Helvetica,sans-Serif" font-size="10.00">SR2b4l</text>
<text text-anchor="start" x="5" y="-81.5" font-family="Helvetica,sans-Serif" font-size="10.00">+</text>
<text text-anchor="start" x="18" y="-81.5" font-family="Helvetica,sans-Serif" font-size="10.00">SR3b2l</text>
<text text-anchor="start" x="5" y="-66.5" font-family="Helvetica,sans-Serif" font-size="10.00">+</text>
<text text-anchor="start" x="18" y="-66.5" font-family="Helvetica,sans-Serif" font-size="10.00">SR3b3l4l</text>
<text text-anchor="start" x="5" y="-51.5" font-family="Helvetica,sans-Serif" font-size="10.00">+</text>
<text text-anchor="start" x="18" y="-51.5" font-family="Helvetica,sans-Serif" font-size="10.00">SR3b4l</text>
<text text-anchor="start" x="5" y="-36.5" font-family="Helvetica,sans-Serif" font-size="10.00">+</text>
<text text-anchor="start" x="18" y="-36.5" font-family="Helvetica,sans-Serif" font-size="10.00">SR4b4l</text>
<text text-anchor="start" x="5" y="-21.5" font-family="Helvetica,sans-Serif" font-size="10.00">+</text>
<text text-anchor="start" x="18" y="-21.5" font-family="Helvetica,sans-Serif" font-size="10.00">SR</text>
<text text-anchor="start" x="60.5" y="-6.5" font-family="Helvetica,sans-Serif" font-size="10.00"> </text>
<polygon fill="#666666" stroke="#666666" points="1,-241.5 1,-241.5 124,-241.5 124,-241.5 1,-241.5"/>
<polygon fill="#666666" stroke="#666666" points="1,-16.5 1,-16.5 16,-16.5 16,-16.5 1,-16.5"/>
<polygon fill="#666666" stroke="#666666" points="16,-16.5 16,-16.5 124,-16.5 124,-16.5 16,-16.5"/>
<polygon fill="none" stroke="#666666" points="0.5,0 0.5,-259 123.5,-259 123.5,0 0.5,0"/>
</a>
</g>
</g>
<!-- Node2 -->
<g id="Node000002" class="node">
<title>Node2</title>
<g id="a_Node000002"><a xlink:href="structregions__t.html" target="_top" xlink:title=" ">
<polygon fill="white" stroke="transparent" points="90,-476 34,-476 34,-427 90,-427 90,-476"/>
<text text-anchor="start" x="39" y="-463.5" font-family="Helvetica,sans-Serif" font-size="10.00">regions_t</text>
<text text-anchor="start" x="60" y="-448.5" font-family="Helvetica,sans-Serif" font-size="10.00"> </text>
<text text-anchor="start" x="60" y="-433.5" font-family="Helvetica,sans-Serif" font-size="10.00"> </text>
<polygon fill="#666666" stroke="#666666" points="34,-458.5 34,-458.5 90,-458.5 90,-458.5 34,-458.5"/>
<polygon fill="#666666" stroke="#666666" points="34,-443.5 34,-443.5 90,-443.5 90,-443.5 34,-443.5"/>
<polygon fill="none" stroke="#666666" points="34,-427 34,-476 90,-476 90,-427 34,-427"/>
</a>
</g>
</g>
<!-- Node2&#45;&gt;Node1 -->
<g id="edge1_Node000001_Node000002" class="edge">
<title>Node2&#45;&gt;Node1</title>
<g id="a_edge1_Node000001_Node000002"><a xlink:title=" ">
<path fill="none" stroke="#63b8ff" d="M62,-426.97C62,-393.82 62,-330.75 62,-271.28"/>
<polygon fill="none" stroke="#63b8ff" points="62,-271.05 58,-265.05 62,-259.05 66,-265.05 62,-271.05"/>
</a>
</g>
<text text-anchor="middle" x="106" y="-401" font-family="Helvetica,sans-Serif" font-size="10.00" fill="grey"> +CR1b3le</text>
<text text-anchor="middle" x="106" y="-390" font-family="Helvetica,sans-Serif" font-size="10.00" fill="grey">+CR1b3lem</text>
<text text-anchor="middle" x="106" y="-379" font-family="Helvetica,sans-Serif" font-size="10.00" fill="grey">+CR1b3lm</text>
<text text-anchor="middle" x="106" y="-368" font-family="Helvetica,sans-Serif" font-size="10.00" fill="grey">+CR1bminus</text>
<text text-anchor="middle" x="106" y="-357" font-family="Helvetica,sans-Serif" font-size="10.00" fill="grey">+CR1bplus</text>
<text text-anchor="middle" x="106" y="-346" font-family="Helvetica,sans-Serif" font-size="10.00" fill="grey">+CRttW2l</text>
<text text-anchor="middle" x="106" y="-335" font-family="Helvetica,sans-Serif" font-size="10.00" fill="grey">+CRttW2l_minus</text>
<text text-anchor="middle" x="106" y="-324" font-family="Helvetica,sans-Serif" font-size="10.00" fill="grey">+CRttW2l_plus</text>
<text text-anchor="middle" x="106" y="-313" font-family="Helvetica,sans-Serif" font-size="10.00" fill="grey">+CRttbarCO2l_CO</text>
<text text-anchor="start" x="62" y="-302" font-family="Helvetica,sans-Serif" font-size="10.00" fill="grey">+CRttbarCO2l_CO</text>
<text text-anchor="middle" x="106" y="-291" font-family="Helvetica,sans-Serif" font-size="10.00" fill="grey">_2b</text>
<text text-anchor="middle" x="106" y="-280" font-family="Helvetica,sans-Serif" font-size="10.00" fill="grey">...</text>
</g>
<!-- Node3 -->
<g id="Node000003" class="node">
<title>Node3</title>
<g id="a_Node000003"><a xlink:title=" ">
<polygon fill="white" stroke="transparent" points="44,-594 0,-594 0,-545 44,-545 44,-594"/>
<text text-anchor="start" x="5" y="-581.5" font-family="Helvetica,sans-Serif" font-size="10.00">double</text>
<text text-anchor="start" x="20" y="-566.5" font-family="Helvetica,sans-Serif" font-size="10.00"> </text>
<text text-anchor="start" x="20" y="-551.5" font-family="Helvetica,sans-Serif" font-size="10.00"> </text>
<polygon fill="#666666" stroke="#666666" points="0,-576.5 0,-576.5 44,-576.5 44,-576.5 0,-576.5"/>
<polygon fill="#666666" stroke="#666666" points="0,-561.5 0,-561.5 44,-561.5 44,-561.5 0,-561.5"/>
<polygon fill="none" stroke="#666666" points="0,-545 0,-594 44,-594 44,-545 0,-545"/>
</a>
</g>
</g>
<!-- Node3&#45;&gt;Node2 -->
<g id="edge2_Node000002_Node000003" class="edge">
<title>Node3&#45;&gt;Node2</title>
<g id="a_edge2_Node000002_Node000003"><a xlink:title=" ">
<path fill="none" stroke="#63b8ff" d="M18.04,-544.82C16.54,-529.73 16.51,-510.07 23,-494 24.09,-491.29 25.45,-488.66 27,-486.11"/>
<polygon fill="none" stroke="#63b8ff" points="27.16,-485.9 27.48,-478.7 34.26,-476.23 33.93,-483.43 27.16,-485.9"/>
</a>
</g>
<text text-anchor="middle" x="52" y="-519" font-family="Helvetica,sans-Serif" font-size="10.00" fill="grey"> +variable1</text>
<text text-anchor="middle" x="52" y="-508" font-family="Helvetica,sans-Serif" font-size="10.00" fill="grey">+variable2</text>
<text text-anchor="middle" x="52" y="-497" font-family="Helvetica,sans-Serif" font-size="10.00" fill="grey">+weight</text>
</g>
<!-- Node4 -->
<g id="Node000004" class="node">
<title>Node4</title>
<g id="a_Node000004"><a xlink:title=" ">
<polygon fill="white" stroke="transparent" points="119,-594 87,-594 87,-545 119,-545 119,-594"/>
<text text-anchor="start" x="92" y="-581.5" font-family="Helvetica,sans-Serif" font-size="10.00">bool</text>
<text text-anchor="start" x="101" y="-566.5" font-family="Helvetica,sans-Serif" font-size="10.00"> </text>
<text text-anchor="start" x="101" y="-551.5" font-family="Helvetica,sans-Serif" font-size="10.00"> </text>
<polygon fill="#666666" stroke="#666666" points="87,-576.5 87,-576.5 119,-576.5 119,-576.5 87,-576.5"/>
<polygon fill="#666666" stroke="#666666" points="87,-561.5 87,-561.5 119,-561.5 119,-561.5 87,-561.5"/>
<polygon fill="none" stroke="#666666" points="87,-545 87,-594 119,-594 119,-545 87,-545"/>
</a>
</g>
</g>
<!-- Node4&#45;&gt;Node2 -->
<g id="edge3_Node000002_Node000004" class="edge">
<title>Node4&#45;&gt;Node2</title>
<g id="a_edge3_Node000002_Node000004"><a xlink:title=" ">
<path fill="none" stroke="#63b8ff" d="M96.91,-544.73C92.9,-529.96 87.24,-510.67 81,-494 80.22,-491.92 79.39,-489.8 78.51,-487.67"/>
<polygon fill="none" stroke="#63b8ff" points="78.4,-487.41 72.35,-483.49 73.64,-476.39 79.69,-480.31 78.4,-487.41"/>
</a>
</g>
<text text-anchor="middle" x="114" y="-508" font-family="Helvetica,sans-Serif" font-size="10.00" fill="grey"> +passed</text>
</g>
</g>
</svg>
