<?xml version="1.0" encoding="UTF-8" standalone="no"?>
<!DOCTYPE svg PUBLIC "-//W3C//DTD SVG 1.1//EN"
 "http://www.w3.org/Graphics/SVG/1.1/DTD/svg11.dtd">
<!-- Generated by graphviz version 2.43.0 (0)
 -->
<!-- Title: variable_t::process Pages: 1 -->
<!--zoomable 193 -->

<svg id="main" version="1.1" xmlns="http://www.w3.org/2000/svg" xmlns:xlink="http://www.w3.org/1999/xlink" xml:space="preserve" onload="init(evt)">
<style type="text/css"><![CDATA[
.node, .edge {opacity: 0.7;}
.node.selected, .edge.selected {opacity: 1;}
.edge:hover path { stroke: red; }
.edge:hover polygon { stroke: red; fill: red; }
]]></style>

<defs>
  <circle id="rim" cx="0" cy="0" r="7"/>
  <circle id="rim2" cx="0" cy="0" r="3.5"/>
  <g id="zoomPlus">
    <use xlink:href="#rim" fill="#404040"><set attributeName="fill" to="#808080" begin="zoomplus.mouseover" end="zoomplus.mouseout"/></use>
    <path d="M-4,0h8M0,-4v8" fill="none" stroke="white" stroke-width="1.5" pointer-events="none"/>
  </g>
  <g id="zoomMin">
    <use xlink:href="#rim" fill="#404040"><set attributeName="fill" to="#808080" begin="zoomminus.mouseover" end="zoomminus.mouseout"/></use>
    <path d="M-4,0h8" fill="none" stroke="white" stroke-width="1.5" pointer-events="none"/>
  </g>
  <g id="arrowUp" transform="translate(30 24)">
    <use xlink:href="#rim"/>
    <path pointer-events="none" fill="none" stroke="white" stroke-width="1.5" d="M0,-3.0v7 M-2.5,-0.5L0,-3.0L2.5,-0.5"/>
  </g>
  <g id="arrowRight" transform="rotate(90) translate(36 -43)">
    <use xlink:href="#rim"/>
    <path pointer-events="none" fill="none" stroke="white" stroke-width="1.5" d="M0,-3.0v7 M-2.5,-0.5L0,-3.0L2.5,-0.5"/>
  </g>
  <g id="arrowDown" transform="rotate(180) translate(-30 -48)">
    <use xlink:href="#rim"/>
    <path pointer-events="none" fill="none" stroke="white" stroke-width="1.5" d="M0,-3.0v7 M-2.5,-0.5L0,-3.0L2.5,-0.5"/>
  </g>
  <g id="arrowLeft" transform="rotate(270) translate(-36 17)">
    <use xlink:href="#rim"/>
    <path pointer-events="none" fill="none" stroke="white" stroke-width="1.5" d="M0,-3.0v7 M-2.5,-0.5L0,-3.0L2.5,-0.5"/>
  </g>
  <g id="resetDef">
    <use xlink:href="#rim2" fill="#404040"><set attributeName="fill" to="#808080" begin="reset.mouseover" end="reset.mouseout"/></use>
  </g>
</defs>
<script type="application/ecmascript">
var viewWidth = 539;
var viewHeight = 193;
var sectionId = 'dynsection-24';
</script>
<script type="application/ecmascript" xlink:href="svg.min.js"/>
<svg id="graph" class="graph">
<g id="viewport">
<title>variable_t::process</title>
<!-- Node1 -->
<g id="Node000001" class="node">
<title>Node1</title>
<g id="a_Node000001"><a xlink:title=" ">
<polygon fill="#999999" stroke="#666666" points="109,-111 0,-111 0,-92 109,-92 109,-111"/>
<text text-anchor="middle" x="54.5" y="-99" font-family="Helvetica,sans-Serif" font-size="10.00">variable_t::process</text>
</a>
</g>
</g>
<!-- Node2 -->
<g id="Node000002" class="node">
<title>Node2</title>
<g id="a_Node000002"><a xlink:href="structvariable__t.html#a35efa1aca52f54be53701f19713efeab" target="_top" xlink:title=" ">
<polygon fill="white" stroke="#666666" points="269.5,-185 153.5,-185 153.5,-166 269.5,-166 269.5,-185"/>
<text text-anchor="middle" x="211.5" y="-173" font-family="Helvetica,sans-Serif" font-size="10.00">variable_t::add_data</text>
</a>
</g>
</g>
<!-- Node1&#45;&gt;Node2 -->
<g id="edge1_Node000001_Node000002" class="edge">
<title>Node1&#45;&gt;Node2</title>
<g id="a_edge1_Node000001_Node000002"><a xlink:title=" ">
<path fill="none" stroke="#63b8ff" d="M68.18,-111.11C84.95,-123.42 115.8,-144.68 145,-157.5 149.42,-159.44 154.11,-161.22 158.86,-162.85"/>
<polygon fill="#63b8ff" stroke="#63b8ff" points="158.05,-166.26 168.64,-165.95 160.17,-159.59 158.05,-166.26"/>
</a>
</g>
</g>
<!-- Node5 -->
<g id="Node000005" class="node">
<title>Node5</title>
<g id="a_Node000005"><a xlink:href="structvariable__t.html#a658b5e8556268b7ae507aef14a5b1adb" target="_top" xlink:title=" ">
<polygon fill="white" stroke="#666666" points="277.5,-148 145.5,-148 145.5,-129 277.5,-129 277.5,-148"/>
<text text-anchor="middle" x="211.5" y="-136" font-family="Helvetica,sans-Serif" font-size="10.00">variable_t::build_switch</text>
</a>
</g>
</g>
<!-- Node1&#45;&gt;Node5 -->
<g id="edge4_Node000001_Node000005" class="edge">
<title>Node1&#45;&gt;Node5</title>
<g id="a_edge4_Node000001_Node000005"><a xlink:title=" ">
<path fill="none" stroke="#63b8ff" d="M95.42,-111.03C115.32,-115.78 139.58,-121.57 160.69,-126.61"/>
<polygon fill="#63b8ff" stroke="#63b8ff" points="159.91,-130.02 170.45,-128.94 161.54,-123.21 159.91,-130.02"/>
</a>
</g>
</g>
<!-- Node6 -->
<g id="Node000006" class="node">
<title>Node6</title>
<g id="a_Node000006"><a xlink:href="structvariable__t.html#a2fdb004c324727113017b83666dcfb5f" target="_top" xlink:title=" ">
<polygon fill="white" stroke="#666666" points="278,-111 145,-111 145,-92 278,-92 278,-111"/>
<text text-anchor="middle" x="211.5" y="-99" font-family="Helvetica,sans-Serif" font-size="10.00">variable_t::create_meta</text>
</a>
</g>
</g>
<!-- Node1&#45;&gt;Node6 -->
<g id="edge5_Node000001_Node000006" class="edge">
<title>Node1&#45;&gt;Node6</title>
<g id="a_edge5_Node000001_Node000006"><a xlink:title=" ">
<path fill="none" stroke="#63b8ff" d="M109.28,-101.5C117.51,-101.5 126.14,-101.5 134.74,-101.5"/>
<polygon fill="#63b8ff" stroke="#63b8ff" points="134.79,-105 144.79,-101.5 134.79,-98 134.79,-105"/>
</a>
</g>
</g>
<!-- Node7 -->
<g id="Node000007" class="node">
<title>Node7</title>
<g id="a_Node000007"><a xlink:href="classbsc__t.html#a953a8bb68bdd6acd9c97d4c0eb965319" target="_top" xlink:title="Clears the internal buffer.">
<polygon fill="white" stroke="#666666" points="264,-56 159,-56 159,-37 264,-37 264,-56"/>
<text text-anchor="middle" x="211.5" y="-44" font-family="Helvetica,sans-Serif" font-size="10.00">bsc_t::flush_buffer</text>
</a>
</g>
</g>
<!-- Node1&#45;&gt;Node7 -->
<g id="edge6_Node000001_Node000007" class="edge">
<title>Node1&#45;&gt;Node7</title>
<g id="a_edge6_Node000001_Node000007"><a xlink:title=" ">
<path fill="none" stroke="#63b8ff" d="M82.5,-91.92C107.87,-82.92 146.03,-69.38 174.09,-59.42"/>
<polygon fill="#63b8ff" stroke="#63b8ff" points="175.3,-62.71 183.55,-56.06 172.96,-56.11 175.3,-62.71"/>
</a>
</g>
</g>
<!-- Node8 -->
<g id="Node000008" class="node">
<title>Node8</title>
<g id="a_Node000008"><a xlink:href="typecasting_8cxx.html#af402b36c82dfb4b1a34d90e26494da67" target="_top" xlink:title=" ">
<polygon fill="white" stroke="#666666" points="247.5,-19 175.5,-19 175.5,0 247.5,0 247.5,-19"/>
<text text-anchor="middle" x="211.5" y="-7" font-family="Helvetica,sans-Serif" font-size="10.00">tensor_size</text>
</a>
</g>
</g>
<!-- Node1&#45;&gt;Node8 -->
<g id="edge8_Node000001_Node000008" class="edge">
<title>Node1&#45;&gt;Node8</title>
<g id="a_edge8_Node000001_Node000008"><a xlink:title=" ">
<path fill="none" stroke="#63b8ff" d="M64.51,-92C79.69,-76.51 111.98,-45.83 145,-28.5 151.49,-25.1 158.66,-22.23 165.82,-19.83"/>
<polygon fill="#63b8ff" stroke="#63b8ff" points="166.97,-23.14 175.5,-16.86 164.91,-16.45 166.97,-23.14"/>
</a>
</g>
</g>
<!-- Node3 -->
<g id="Node000003" class="node">
<title>Node3</title>
<g id="a_Node000003"><a xlink:href="vector__cast_8h.html#a9888ed684385b240692f6cb6e4c6b82e" target="_top" xlink:title=" ">
<polygon fill="white" stroke="#666666" points="412,-185 314,-185 314,-166 412,-166 412,-185"/>
<text text-anchor="middle" x="363" y="-173" font-family="Helvetica,sans-Serif" font-size="10.00">tensor_to_vector</text>
</a>
</g>
</g>
<!-- Node2&#45;&gt;Node3 -->
<g id="edge2_Node000002_Node000003" class="edge">
<title>Node2&#45;&gt;Node3</title>
<g id="a_edge2_Node000002_Node000003"><a xlink:title=" ">
<path fill="none" stroke="#63b8ff" d="M269.87,-175.5C280.97,-175.5 292.61,-175.5 303.73,-175.5"/>
<polygon fill="#63b8ff" stroke="#63b8ff" points="303.77,-179 313.77,-175.5 303.77,-172 303.77,-179"/>
</a>
</g>
</g>
<!-- Node4 -->
<g id="Node000004" class="node">
<title>Node4</title>
<g id="a_Node000004"><a xlink:href="vector__cast_8h.html#adc5ffd895fb49094059fd9dc0af67de9" target="_top" xlink:title=" ">
<polygon fill="white" stroke="#666666" points="531,-185 448,-185 448,-166 531,-166 531,-185"/>
<text text-anchor="middle" x="489.5" y="-173" font-family="Helvetica,sans-Serif" font-size="10.00">tensor_vector</text>
</a>
</g>
</g>
<!-- Node3&#45;&gt;Node4 -->
<g id="edge3_Node000003_Node000004" class="edge">
<title>Node3&#45;&gt;Node4</title>
<g id="a_edge3_Node000003_Node000004"><a xlink:title=" ">
<path fill="none" stroke="#63b8ff" d="M412.13,-175.5C420.5,-175.5 429.23,-175.5 437.67,-175.5"/>
<polygon fill="#63b8ff" stroke="#63b8ff" points="437.77,-179 447.77,-175.5 437.77,-172 437.77,-179"/>
</a>
</g>
</g>
<!-- Node7&#45;&gt;Node7 -->
<g id="edge7_Node000007_Node000007" class="edge">
<title>Node7&#45;&gt;Node7</title>
<g id="a_edge7_Node000007_Node000007"><a xlink:title=" ">
<path fill="none" stroke="#63b8ff" d="M188.38,-56.08C177.13,-64.73 184.84,-74 211.5,-74 229,-74 238.33,-70.01 239.5,-64.82"/>
<polygon fill="#63b8ff" stroke="#63b8ff" points="242.55,-63.11 234.62,-56.08 236.44,-66.52 242.55,-63.11"/>
</a>
</g>
</g>
</g>
</svg>

<g id="navigator" transform="translate(0 0)" fill="#404254">
  <rect fill="#f2f5e9" fill-opacity="0.5" stroke="#606060" stroke-width=".5" x="0" y="0" width="60" height="60"/>
  <use id="zoomplus" xlink:href="#zoomPlus" x="17" y="9" onmousedown="handleZoom(evt,'in')"/>
  <use id="zoomminus" xlink:href="#zoomMin" x="42" y="9" onmousedown="handleZoom(evt,'out')"/>
  <use id="reset" xlink:href="#resetDef" x="30" y="36" onmousedown="handleReset()"/>
   <use id="arrowup" xlink:href="#arrowUp" x="0" y="0" onmousedown="handlePan(0,-1)"/>
  <use id="arrowright" xlink:href="#arrowRight" x="0" y="0" onmousedown="handlePan(1,0)"/>
  <use id="arrowdown" xlink:href="#arrowDown" x="0" y="0" onmousedown="handlePan(0,1)"/>
  <use id="arrowleft" xlink:href="#arrowLeft" x="0" y="0" onmousedown="handlePan(-1,0)"/>
</g>
<svg viewBox="0 0 15 15" width="100%" height="30px" preserveAspectRatio="xMaxYMin meet">
 <g id="arrow_out" transform="scale(0.3 0.3)">
  <a xlink:href="structvariable__t_abb328168f0e26f52e6d164f6e6aed831_cgraph_org.svg" target="_base">
   <rect id="button" ry="5" rx="5" y="6" x="6" height="38" width="38"
        fill="#f2f5e9" fill-opacity="0.5" stroke="#606060" stroke-width="1.0"/>
   <path id="arrow"
     d="M 11.500037,31.436501 C 11.940474,20.09759 22.043105,11.32322 32.158766,21.979434 L 37.068811,17.246167 C 37.068811,17.246167 37.088388,32 37.088388,32 L 22.160133,31.978069 C 22.160133,31.978069 26.997745,27.140456 26.997745,27.140456 C 18.528582,18.264221 13.291696,25.230495 11.500037,31.436501 z"
     style="fill:#404040;"/>
  </a>
 </g>
</svg>

<style type='text/css'>
<![CDATA[
[data-mouse-over-selected='false'] { opacity: 0.7; }
[data-mouse-over-selected='true']  { opacity: 1.0; }
]]>
</style>
<script type="application/ecmascript"><![CDATA[
document.addEventListener('DOMContentLoaded', (event) => {
  highlightEdges();
  highlightAdjacentNodes();
});
]]></script>
</svg>
