<?xml version="1.0" encoding="UTF-8" standalone="no"?>
<!DOCTYPE svg PUBLIC "-//W3C//DTD SVG 1.1//EN"
 "http://www.w3.org/Graphics/SVG/1.1/DTD/svg11.dtd">
<!-- Generated by graphviz version 2.43.0 (0)
 -->
<!-- Title: element_t::get Pages: 1 -->
<svg width="250pt" height="119pt"
 viewBox="0.00 0.00 250.00 119.00" xmlns="http://www.w3.org/2000/svg" xmlns:xlink="http://www.w3.org/1999/xlink">
<g id="graph0" class="graph" transform="scale(1 1) rotate(0) translate(4 115)">
<title>element_t::get</title>
<!-- Node1 -->
<g id="Node000001" class="node">
<title>Node1</title>
<g id="a_Node000001"><a xlink:title=" ">
<polygon fill="#999999" stroke="#666666" points="242,-56 154,-56 154,-37 242,-37 242,-56"/>
<text text-anchor="middle" x="198" y="-44" font-family="Helvetica,sans-Serif" font-size="10.00">element_t::get</text>
</a>
</g>
</g>
<!-- Node1&#45;&gt;Node1 -->
<g id="edge2_Node000001_Node000001" class="edge">
<title>Node1&#45;&gt;Node1</title>
<g id="a_edge2_Node000001_Node000001"><a xlink:title=" ">
<path fill="none" stroke="#63b8ff" d="M223.67,-65.19C222.27,-70.2 213.71,-74 198,-74 173.47,-74 166.38,-64.73 176.73,-56.08"/>
<polygon fill="#63b8ff" stroke="#63b8ff" points="226.77,-63.56 219.27,-56.08 220.47,-66.61 226.77,-63.56"/>
</a>
</g>
</g>
<!-- Node2 -->
<g id="Node000002" class="node">
<title>Node2</title>
<g id="a_Node000002"><a xlink:href="structelement__t.html#ab67039a7dc3d0aa9573aa49ae803329f" target="_top" xlink:title=" ">
<polygon fill="white" stroke="#666666" points="118,-111 0,-111 0,-92 118,-92 118,-111"/>
<text text-anchor="middle" x="59" y="-99" font-family="Helvetica,sans-Serif" font-size="10.00">element_t::boundary</text>
</a>
</g>
</g>
<!-- Node1&#45;&gt;Node2 -->
<g id="edge1_Node000001_Node000002" class="edge">
<title>Node1&#45;&gt;Node2</title>
<g id="a_edge1_Node000001_Node000002"><a xlink:title=" ">
<path fill="none" stroke="#63b8ff" d="M169.27,-60.63C154.3,-67.96 135.38,-76.77 118,-83.5 110.13,-86.55 101.52,-89.45 93.39,-91.99"/>
<polygon fill="#63b8ff" stroke="#63b8ff" points="171.08,-63.64 178.48,-56.06 167.97,-57.37 171.08,-63.64"/>
</a>
</g>
</g>
<!-- Node3 -->
<g id="Node000003" class="node">
<title>Node3</title>
<g id="a_Node000003"><a xlink:href="structelement__t.html#acc7bb2a70ad6b16874cebee6474a70ac" target="_top" xlink:title=" ">
<polygon fill="white" stroke="#666666" points="106,-56 12,-56 12,-37 106,-37 106,-56"/>
<text text-anchor="middle" x="59" y="-44" font-family="Helvetica,sans-Serif" font-size="10.00">element_t::next</text>
</a>
</g>
</g>
<!-- Node1&#45;&gt;Node3 -->
<g id="edge3_Node000001_Node000003" class="edge">
<title>Node1&#45;&gt;Node3</title>
<g id="a_edge3_Node000001_Node000003"><a xlink:title=" ">
<path fill="none" stroke="#63b8ff" d="M143.54,-46.5C131.27,-46.5 118.32,-46.5 106.38,-46.5"/>
<polygon fill="#63b8ff" stroke="#63b8ff" points="143.65,-50 153.65,-46.5 143.65,-43 143.65,-50"/>
</a>
</g>
</g>
<!-- Node4 -->
<g id="Node000004" class="node">
<title>Node4</title>
<g id="a_Node000004"><a xlink:href="structelement__t.html#ad1d14c6f6ff8d681e0f67e910677abdd" target="_top" xlink:title=" ">
<polygon fill="white" stroke="#666666" points="118,-19 0,-19 0,0 118,0 118,-19"/>
<text text-anchor="middle" x="59" y="-7" font-family="Helvetica,sans-Serif" font-size="10.00">element_t::set_meta</text>
</a>
</g>
</g>
<!-- Node1&#45;&gt;Node4 -->
<g id="edge5_Node000001_Node000004" class="edge">
<title>Node1&#45;&gt;Node4</title>
<g id="a_edge5_Node000001_Node000004"><a xlink:title=" ">
<path fill="none" stroke="#63b8ff" d="M151.87,-34.31C133.6,-29.38 112.81,-23.76 95.64,-19.12"/>
<polygon fill="#63b8ff" stroke="#63b8ff" points="151.15,-37.74 161.72,-36.97 152.98,-30.99 151.15,-37.74"/>
</a>
</g>
</g>
<!-- Node3&#45;&gt;Node3 -->
<g id="edge4_Node000003_Node000003" class="edge">
<title>Node3&#45;&gt;Node3</title>
<g id="a_edge4_Node000003_Node000003"><a xlink:title=" ">
<path fill="none" stroke="#63b8ff" d="M84.67,-65.19C83.27,-70.2 74.71,-74 59,-74 34.47,-74 27.38,-64.73 37.73,-56.08"/>
<polygon fill="#63b8ff" stroke="#63b8ff" points="87.77,-63.56 80.27,-56.08 81.47,-66.61 87.77,-63.56"/>
</a>
</g>
</g>
</g>
</svg>
