<?xml version="1.0" encoding="UTF-8" standalone="no"?>
<!DOCTYPE svg PUBLIC "-//W3C//DTD SVG 1.1//EN"
 "http://www.w3.org/Graphics/SVG/1.1/DTD/svg11.dtd">
<!-- Generated by graphviz version 2.43.0 (0)
 -->
<!-- Title: roc_t Pages: 1 -->
<!--zoomable 474 -->

<svg id="main" version="1.1" xmlns="http://www.w3.org/2000/svg" xmlns:xlink="http://www.w3.org/1999/xlink" xml:space="preserve" onload="init(evt)">
<style type="text/css"><![CDATA[
.node, .edge {opacity: 0.7;}
.node.selected, .edge.selected {opacity: 1;}
.edge:hover path { stroke: red; }
.edge:hover polygon { stroke: red; fill: red; }
]]></style>

<defs>
  <circle id="rim" cx="0" cy="0" r="7"/>
  <circle id="rim2" cx="0" cy="0" r="3.5"/>
  <g id="zoomPlus">
    <use xlink:href="#rim" fill="#404040"><set attributeName="fill" to="#808080" begin="zoomplus.mouseover" end="zoomplus.mouseout"/></use>
    <path d="M-4,0h8M0,-4v8" fill="none" stroke="white" stroke-width="1.5" pointer-events="none"/>
  </g>
  <g id="zoomMin">
    <use xlink:href="#rim" fill="#404040"><set attributeName="fill" to="#808080" begin="zoomminus.mouseover" end="zoomminus.mouseout"/></use>
    <path d="M-4,0h8" fill="none" stroke="white" stroke-width="1.5" pointer-events="none"/>
  </g>
  <g id="arrowUp" transform="translate(30 24)">
    <use xlink:href="#rim"/>
    <path pointer-events="none" fill="none" stroke="white" stroke-width="1.5" d="M0,-3.0v7 M-2.5,-0.5L0,-3.0L2.5,-0.5"/>
  </g>
  <g id="arrowRight" transform="rotate(90) translate(36 -43)">
    <use xlink:href="#rim"/>
    <path pointer-events="none" fill="none" stroke="white" stroke-width="1.5" d="M0,-3.0v7 M-2.5,-0.5L0,-3.0L2.5,-0.5"/>
  </g>
  <g id="arrowDown" transform="rotate(180) translate(-30 -48)">
    <use xlink:href="#rim"/>
    <path pointer-events="none" fill="none" stroke="white" stroke-width="1.5" d="M0,-3.0v7 M-2.5,-0.5L0,-3.0L2.5,-0.5"/>
  </g>
  <g id="arrowLeft" transform="rotate(270) translate(-36 17)">
    <use xlink:href="#rim"/>
    <path pointer-events="none" fill="none" stroke="white" stroke-width="1.5" d="M0,-3.0v7 M-2.5,-0.5L0,-3.0L2.5,-0.5"/>
  </g>
  <g id="resetDef">
    <use xlink:href="#rim2" fill="#404040"><set attributeName="fill" to="#808080" begin="reset.mouseover" end="reset.mouseout"/></use>
  </g>
</defs>
<script type="application/ecmascript">
var viewWidth = 705;
var viewHeight = 474;
var sectionId = 'dynsection-0';
</script>
<script type="application/ecmascript" xlink:href="svg.min.js"/>
<svg id="graph" class="graph">
<g id="viewport">
<title>roc_t</title>
<!-- Node1 -->
<g id="Node000001" class="node">
<title>Node1</title>
<g id="a_Node000001"><a xlink:title="Structure for storing Receiver Operating Characteristic (ROC) curve data.">
<polygon fill="#999999" stroke="transparent" points="254,-49 219,-49 219,0 254,0 254,-49"/>
<text text-anchor="start" x="224.5" y="-36.5" font-family="Helvetica,sans-Serif" font-size="10.00">roc_t</text>
<text text-anchor="start" x="235" y="-21.5" font-family="Helvetica,sans-Serif" font-size="10.00"> </text>
<text text-anchor="start" x="235" y="-6.5" font-family="Helvetica,sans-Serif" font-size="10.00"> </text>
<polygon fill="#666666" stroke="#666666" points="219.5,-31.5 219.5,-31.5 254.5,-31.5 254.5,-31.5 219.5,-31.5"/>
<polygon fill="#666666" stroke="#666666" points="219.5,-16.5 219.5,-16.5 254.5,-16.5 254.5,-16.5 219.5,-16.5"/>
<polygon fill="none" stroke="#666666" points="219,0 219,-49 254,-49 254,0 219,0"/>
</a>
</g>
</g>
<!-- Node2 -->
<g id="Node000002" class="node">
<title>Node2</title>
<g id="a_Node000002"><a xlink:title=" ">
<polygon fill="white" stroke="transparent" points="23,-370 0,-370 0,-321 23,-321 23,-370"/>
<text text-anchor="start" x="5.5" y="-357.5" font-family="Helvetica,sans-Serif" font-size="10.00">int</text>
<text text-anchor="start" x="10" y="-342.5" font-family="Helvetica,sans-Serif" font-size="10.00"> </text>
<text text-anchor="start" x="10" y="-327.5" font-family="Helvetica,sans-Serif" font-size="10.00"> </text>
<polygon fill="#666666" stroke="#666666" points="0.5,-352.5 0.5,-352.5 23.5,-352.5 23.5,-352.5 0.5,-352.5"/>
<polygon fill="#666666" stroke="#666666" points="0.5,-337.5 0.5,-337.5 23.5,-337.5 23.5,-337.5 0.5,-337.5"/>
<polygon fill="none" stroke="#666666" points="0,-321 0,-370 23,-370 23,-321 0,-321"/>
</a>
</g>
</g>
<!-- Node2&#45;&gt;Node1 -->
<g id="edge1_Node000001_Node000002" class="edge">
<title>Node2&#45;&gt;Node1</title>
<g id="a_edge1_Node000001_Node000002"><a xlink:title=" ">
<path fill="none" stroke="#63b8ff" d="M9.63,-320.8C8.29,-294.18 8.34,-249.99 19.5,-214 24.59,-197.58 70.69,-114.06 90.5,-96 124.84,-64.7 175.61,-44.45 207.33,-34.01"/>
<polygon fill="none" stroke="#63b8ff" points="207.43,-33.98 211.95,-28.36 218.88,-30.38 214.36,-35.99 207.43,-33.98"/>
</a>
</g>
<text text-anchor="middle" x="56.5" y="-188" font-family="Helvetica,sans-Serif" font-size="10.00" fill="grey"> +cls</text>
<text text-anchor="middle" x="56.5" y="-177" font-family="Helvetica,sans-Serif" font-size="10.00" fill="grey">+kfold</text>
</g>
<!-- Node6 -->
<g id="Node000006" class="node">
<title>Node6</title>
<g id="a_Node000006"><a xlink:title=" ">
<polygon fill="white" stroke="transparent" points="126.5,-268.5 28.5,-268.5 28.5,-219.5 126.5,-219.5 126.5,-268.5"/>
<text text-anchor="start" x="33.5" y="-256" font-family="Helvetica,sans-Serif" font-size="10.00">std::vector&lt; int &gt;</text>
<text text-anchor="start" x="75.5" y="-241" font-family="Helvetica,sans-Serif" font-size="10.00"> </text>
<text text-anchor="start" x="75.5" y="-226" font-family="Helvetica,sans-Serif" font-size="10.00"> </text>
<polygon fill="#666666" stroke="#666666" points="28.5,-251 28.5,-251 126.5,-251 126.5,-251 28.5,-251"/>
<polygon fill="#666666" stroke="#666666" points="28.5,-236 28.5,-236 126.5,-236 126.5,-236 28.5,-236"/>
<polygon fill="none" stroke="#666666" points="28.5,-219.5 28.5,-268.5 126.5,-268.5 126.5,-219.5 28.5,-219.5"/>
</a>
</g>
</g>
<!-- Node2&#45;&gt;Node6 -->
<g id="edge6_Node000006_Node000002" class="edge">
<title>Node2&#45;&gt;Node6</title>
<g id="a_edge6_Node000006_Node000002"><a xlink:title=" ">
<path fill="none" stroke="#63b8ff" d="M16.47,-320.94C19.12,-311.48 23.01,-300.77 28.5,-292 31.66,-286.96 35.48,-282.08 39.57,-277.49"/>
<polygon fill="none" stroke="#63b8ff" points="39.9,-277.16 41.19,-270.06 48.24,-268.53 46.94,-275.62 39.9,-277.16"/>
</a>
</g>
<text text-anchor="middle" x="57.5" y="-295" font-family="Helvetica,sans-Serif" font-size="10.00" fill="grey"> +elements</text>
</g>
<!-- Node3 -->
<g id="Node000003" class="node">
<title>Node3</title>
<g id="a_Node000003"><a xlink:title=" ">
<polygon fill="white" stroke="transparent" points="610,-150.5 551,-150.5 551,-101.5 610,-101.5 610,-150.5"/>
<text text-anchor="start" x="556.5" y="-138" font-family="Helvetica,sans-Serif" font-size="10.00">std::string</text>
<text text-anchor="start" x="579" y="-123" font-family="Helvetica,sans-Serif" font-size="10.00"> </text>
<text text-anchor="start" x="579" y="-108" font-family="Helvetica,sans-Serif" font-size="10.00"> </text>
<polygon fill="#666666" stroke="#666666" points="551.5,-133 551.5,-133 610.5,-133 610.5,-133 551.5,-133"/>
<polygon fill="#666666" stroke="#666666" points="551.5,-118 551.5,-118 610.5,-118 610.5,-118 551.5,-118"/>
<polygon fill="none" stroke="#666666" points="551,-101.5 551,-150.5 610,-150.5 610,-101.5 551,-101.5"/>
</a>
</g>
</g>
<!-- Node3&#45;&gt;Node1 -->
<g id="edge2_Node000001_Node000003" class="edge">
<title>Node3&#45;&gt;Node1</title>
<g id="a_edge2_Node000001_Node000003"><a xlink:title=" ">
<path fill="none" stroke="#63b8ff" d="M550.87,-116.43C485.79,-97.6 330.96,-52.82 265.99,-34.03"/>
<polygon fill="none" stroke="#63b8ff" points="265.78,-33.97 258.91,-36.14 254.25,-30.63 261.13,-28.46 265.78,-33.97"/>
</a>
</g>
<text text-anchor="middle" x="430" y="-70" font-family="Helvetica,sans-Serif" font-size="10.00" fill="grey"> +model</text>
</g>
<!-- Node4 -->
<g id="Node000004" class="node">
<title>Node4</title>
<g id="a_Node000004"><a xlink:title=" ">
<polygon fill="white" stroke="transparent" points="696.5,-274 598.5,-274 598.5,-214 696.5,-214 696.5,-274"/>
<text text-anchor="start" x="603.5" y="-262" font-family="Helvetica,sans-Serif" font-size="10.00">std::basic_string&lt;</text>
<text text-anchor="start" x="629" y="-251" font-family="Helvetica,sans-Serif" font-size="10.00"> Char &gt;</text>
<text text-anchor="start" x="645.5" y="-236" font-family="Helvetica,sans-Serif" font-size="10.00"> </text>
<text text-anchor="start" x="645.5" y="-221" font-family="Helvetica,sans-Serif" font-size="10.00"> </text>
<polygon fill="#666666" stroke="#666666" points="598.5,-246 598.5,-246 696.5,-246 696.5,-246 598.5,-246"/>
<polygon fill="#666666" stroke="#666666" points="598.5,-231 598.5,-231 696.5,-231 696.5,-231 598.5,-231"/>
<polygon fill="none" stroke="#666666" points="598.5,-214 598.5,-274 696.5,-274 696.5,-214 598.5,-214"/>
</a>
</g>
</g>
<!-- Node4&#45;&gt;Node3 -->
<g id="edge3_Node000003_Node000004" class="edge">
<title>Node4&#45;&gt;Node3</title>
<g id="a_edge3_Node000003_Node000004"><a xlink:title=" ">
<path fill="none" stroke="#63b8ff" d="M625.39,-204.72C615.11,-186.93 603.21,-166.32 594.25,-150.8"/>
<polygon fill="none" stroke="#63b8ff" points="622.56,-206.82 630.59,-213.73 628.62,-203.32 622.56,-206.82"/>
</a>
</g>
</g>
<!-- Node5 -->
<g id="Node000005" class="node">
<title>Node5</title>
<g id="a_Node000005"><a xlink:title=" ">
<polygon fill="white" stroke="transparent" points="225,-156 100,-156 100,-96 225,-96 225,-156"/>
<text text-anchor="start" x="105.5" y="-144" font-family="Helvetica,sans-Serif" font-size="10.00">std::vector&lt; std::vector</text>
<text text-anchor="start" x="139.5" y="-133" font-family="Helvetica,sans-Serif" font-size="10.00">&lt; int &gt; &gt;</text>
<text text-anchor="start" x="161" y="-118" font-family="Helvetica,sans-Serif" font-size="10.00"> </text>
<text text-anchor="start" x="161" y="-103" font-family="Helvetica,sans-Serif" font-size="10.00"> </text>
<polygon fill="#666666" stroke="#666666" points="100.5,-128 100.5,-128 225.5,-128 225.5,-128 100.5,-128"/>
<polygon fill="#666666" stroke="#666666" points="100.5,-113 100.5,-113 225.5,-113 225.5,-113 100.5,-113"/>
<polygon fill="none" stroke="#666666" points="100,-96 100,-156 225,-156 225,-96 100,-96"/>
</a>
</g>
</g>
<!-- Node5&#45;&gt;Node1 -->
<g id="edge4_Node000001_Node000005" class="edge">
<title>Node5&#45;&gt;Node1</title>
<g id="a_edge4_Node000001_Node000005"><a xlink:title=" ">
<path fill="none" stroke="#63b8ff" d="M184.1,-95.95C192.77,-84.3 202.8,-70.81 211.76,-58.76"/>
<polygon fill="none" stroke="#63b8ff" points="211.81,-58.69 212.19,-51.49 218.98,-49.06 218.61,-56.26 211.81,-58.69"/>
</a>
</g>
<text text-anchor="middle" x="222" y="-70" font-family="Helvetica,sans-Serif" font-size="10.00" fill="grey"> +truth</text>
</g>
<!-- Node6&#45;&gt;Node5 -->
<g id="edge5_Node000005_Node000006" class="edge">
<title>Node6&#45;&gt;Node5</title>
<g id="a_edge5_Node000005_Node000006"><a xlink:title=" ">
<path fill="none" stroke="#63b8ff" d="M77.42,-219.21C78.43,-205.03 81.62,-187.27 90.5,-174 92.74,-170.65 95.31,-167.48 98.11,-164.5"/>
<polygon fill="none" stroke="#63b8ff" points="98.35,-164.28 100.01,-157.26 107.13,-156.09 105.47,-163.11 98.35,-164.28"/>
</a>
</g>
<text text-anchor="middle" x="119.5" y="-182.5" font-family="Helvetica,sans-Serif" font-size="10.00" fill="grey"> +elements</text>
</g>
<!-- Node7 -->
<g id="Node000007" class="node">
<title>Node7</title>
<g id="a_Node000007"><a xlink:title=" ">
<polygon fill="white" stroke="transparent" points="282,-370 191,-370 191,-321 282,-321 282,-370"/>
<text text-anchor="start" x="196.5" y="-357.5" font-family="Helvetica,sans-Serif" font-size="10.00">std::vector&lt; T &gt;</text>
<text text-anchor="start" x="235" y="-342.5" font-family="Helvetica,sans-Serif" font-size="10.00"> </text>
<text text-anchor="start" x="235" y="-327.5" font-family="Helvetica,sans-Serif" font-size="10.00"> </text>
<polygon fill="#666666" stroke="#666666" points="191.5,-352.5 191.5,-352.5 282.5,-352.5 282.5,-352.5 191.5,-352.5"/>
<polygon fill="#666666" stroke="#666666" points="191.5,-337.5 191.5,-337.5 282.5,-337.5 282.5,-337.5 191.5,-337.5"/>
<polygon fill="none" stroke="#666666" points="191,-321 191,-370 282,-370 282,-321 191,-321"/>
</a>
</g>
</g>
<!-- Node7&#45;&gt;Node5 -->
<g id="edge9_Node000005_Node000007" class="edge">
<title>Node7&#45;&gt;Node5</title>
<g id="a_edge9_Node000005_Node000007"><a xlink:title=" ">
<path fill="none" stroke="orange" d="M203,-313.49C192.76,-302.1 182.6,-288.43 176.5,-274 160.28,-235.63 159.01,-186.74 160.25,-156.15"/>
<polygon fill="orange" stroke="orange" points="200.65,-316.1 210.05,-320.99 205.75,-311.31 200.65,-316.1"/>
</a>
</g>
<text text-anchor="middle" x="233" y="-241.5" font-family="Helvetica,sans-Serif" font-size="10.00" fill="grey"> &lt; std::vector&lt; int &gt; &gt;</text>
</g>
<!-- Node7&#45;&gt;Node6 -->
<g id="edge7_Node000006_Node000007" class="edge">
<title>Node7&#45;&gt;Node6</title>
<g id="a_edge7_Node000006_Node000007"><a xlink:title=" ">
<path fill="none" stroke="orange" d="M180.71,-335.74C156.75,-329.73 129.67,-319.69 109.5,-303 98.69,-294.06 90.92,-280.46 85.74,-268.69"/>
<polygon fill="orange" stroke="orange" points="180.23,-339.22 190.77,-338.08 181.82,-332.4 180.23,-339.22"/>
</a>
</g>
<text text-anchor="middle" x="129" y="-295" font-family="Helvetica,sans-Serif" font-size="10.00" fill="grey"> &lt; int &gt;</text>
</g>
<!-- Node9 -->
<g id="Node000009" class="node">
<title>Node9</title>
<g id="a_Node000009"><a xlink:title=" ">
<polygon fill="white" stroke="transparent" points="374,-156 249,-156 249,-96 374,-96 374,-156"/>
<text text-anchor="start" x="254.5" y="-144" font-family="Helvetica,sans-Serif" font-size="10.00">std::vector&lt; std::vector</text>
<text text-anchor="start" x="278.5" y="-133" font-family="Helvetica,sans-Serif" font-size="10.00">&lt; double &gt; &gt;</text>
<text text-anchor="start" x="310" y="-118" font-family="Helvetica,sans-Serif" font-size="10.00"> </text>
<text text-anchor="start" x="310" y="-103" font-family="Helvetica,sans-Serif" font-size="10.00"> </text>
<polygon fill="#666666" stroke="#666666" points="249.5,-128 249.5,-128 374.5,-128 374.5,-128 249.5,-128"/>
<polygon fill="#666666" stroke="#666666" points="249.5,-113 249.5,-113 374.5,-113 374.5,-113 249.5,-113"/>
<polygon fill="none" stroke="#666666" points="249,-96 249,-156 374,-156 374,-96 249,-96"/>
</a>
</g>
</g>
<!-- Node7&#45;&gt;Node9 -->
<g id="edge14_Node000009_Node000007" class="edge">
<title>Node7&#45;&gt;Node9</title>
<g id="a_edge14_Node000009_Node000007"><a xlink:title=" ">
<path fill="none" stroke="orange" d="M265.47,-312.96C274.55,-301.46 283.69,-287.87 289.5,-274 305.7,-235.32 310.2,-186.52 311.32,-156.03"/>
<polygon fill="orange" stroke="orange" points="262.57,-310.99 258.93,-320.94 267.98,-315.43 262.57,-310.99"/>
</a>
</g>
<text text-anchor="middle" x="373" y="-241.5" font-family="Helvetica,sans-Serif" font-size="10.00" fill="grey"> &lt; std::vector&lt; double &gt; &gt;</text>
</g>
<!-- Node10 -->
<g id="Node000010" class="node">
<title>Node10</title>
<g id="a_Node000010"><a xlink:title=" ">
<polygon fill="white" stroke="transparent" points="580.5,-268.5 462.5,-268.5 462.5,-219.5 580.5,-219.5 580.5,-268.5"/>
<text text-anchor="start" x="467.5" y="-256" font-family="Helvetica,sans-Serif" font-size="10.00">std::vector&lt; double &gt;</text>
<text text-anchor="start" x="519.5" y="-241" font-family="Helvetica,sans-Serif" font-size="10.00"> </text>
<text text-anchor="start" x="519.5" y="-226" font-family="Helvetica,sans-Serif" font-size="10.00"> </text>
<polygon fill="#666666" stroke="#666666" points="462.5,-251 462.5,-251 580.5,-251 580.5,-251 462.5,-251"/>
<polygon fill="#666666" stroke="#666666" points="462.5,-236 462.5,-236 580.5,-236 580.5,-236 462.5,-236"/>
<polygon fill="none" stroke="#666666" points="462.5,-219.5 462.5,-268.5 580.5,-268.5 580.5,-219.5 462.5,-219.5"/>
</a>
</g>
</g>
<!-- Node7&#45;&gt;Node10 -->
<g id="edge13_Node000010_Node000007" class="edge">
<title>Node7&#45;&gt;Node10</title>
<g id="a_edge13_Node000010_Node000007"><a xlink:title=" ">
<path fill="none" stroke="orange" d="M291.95,-327.02C334.9,-313.25 395.76,-293.23 448.5,-274 453.24,-272.27 458.14,-270.44 463.04,-268.56"/>
<polygon fill="orange" stroke="orange" points="290.71,-323.74 282.25,-330.12 292.84,-330.41 290.71,-323.74"/>
</a>
</g>
<text text-anchor="middle" x="426" y="-295" font-family="Helvetica,sans-Serif" font-size="10.00" fill="grey"> &lt; double &gt;</text>
</g>
<!-- Node8 -->
<g id="Node000008" class="node">
<title>Node8</title>
<g id="a_Node000008"><a xlink:title=" ">
<polygon fill="white" stroke="transparent" points="245,-466 228,-466 228,-417 245,-417 245,-466"/>
<text text-anchor="start" x="233.5" y="-453.5" font-family="Helvetica,sans-Serif" font-size="10.00">T</text>
<text text-anchor="start" x="235" y="-438.5" font-family="Helvetica,sans-Serif" font-size="10.00"> </text>
<text text-anchor="start" x="235" y="-423.5" font-family="Helvetica,sans-Serif" font-size="10.00"> </text>
<polygon fill="#666666" stroke="#666666" points="228.5,-448.5 228.5,-448.5 245.5,-448.5 245.5,-448.5 228.5,-448.5"/>
<polygon fill="#666666" stroke="#666666" points="228.5,-433.5 228.5,-433.5 245.5,-433.5 245.5,-433.5 228.5,-433.5"/>
<polygon fill="none" stroke="#666666" points="228,-417 228,-466 245,-466 245,-417 228,-417"/>
</a>
</g>
</g>
<!-- Node8&#45;&gt;Node7 -->
<g id="edge8_Node000007_Node000008" class="edge">
<title>Node8&#45;&gt;Node7</title>
<g id="a_edge8_Node000007_Node000008"><a xlink:title=" ">
<path fill="none" stroke="#63b8ff" d="M236.5,-416.78C236.5,-406.32 236.5,-393.79 236.5,-382.23"/>
<polygon fill="none" stroke="#63b8ff" points="236.5,-382.21 232.5,-376.21 236.5,-370.21 240.5,-376.21 236.5,-382.21"/>
</a>
</g>
<text text-anchor="middle" x="265.5" y="-391" font-family="Helvetica,sans-Serif" font-size="10.00" fill="grey"> +elements</text>
</g>
<!-- Node9&#45;&gt;Node1 -->
<g id="edge10_Node000001_Node000009" class="edge">
<title>Node9&#45;&gt;Node1</title>
<g id="a_edge10_Node000001_Node000009"><a xlink:title=" ">
<path fill="none" stroke="#63b8ff" d="M289.61,-95.95C280.76,-84.21 270.49,-70.6 261.36,-58.49"/>
<polygon fill="none" stroke="#63b8ff" points="261.24,-58.32 254.43,-55.94 254.02,-48.74 260.82,-51.12 261.24,-58.32"/>
</a>
</g>
<text text-anchor="middle" x="296" y="-70" font-family="Helvetica,sans-Serif" font-size="10.00" fill="grey"> +scores</text>
</g>
<!-- Node10&#45;&gt;Node9 -->
<g id="edge11_Node000009_Node000010" class="edge">
<title>Node10&#45;&gt;Node9</title>
<g id="a_edge11_Node000009_Node000010"><a xlink:title=" ">
<path fill="none" stroke="#63b8ff" d="M478.75,-219.39C448.88,-202.89 408.5,-180.58 374.9,-162.02"/>
<polygon fill="none" stroke="#63b8ff" points="374.75,-161.94 367.57,-162.54 364.25,-156.14 371.43,-155.54 374.75,-161.94"/>
</a>
</g>
<text text-anchor="middle" x="464.5" y="-182.5" font-family="Helvetica,sans-Serif" font-size="10.00" fill="grey"> +elements</text>
</g>
<!-- Node11 -->
<g id="Node000011" class="node">
<title>Node11</title>
<g id="a_Node000011"><a xlink:title=" ">
<polygon fill="white" stroke="transparent" points="543.5,-370 499.5,-370 499.5,-321 543.5,-321 543.5,-370"/>
<text text-anchor="start" x="504.5" y="-357.5" font-family="Helvetica,sans-Serif" font-size="10.00">double</text>
<text text-anchor="start" x="519.5" y="-342.5" font-family="Helvetica,sans-Serif" font-size="10.00"> </text>
<text text-anchor="start" x="519.5" y="-327.5" font-family="Helvetica,sans-Serif" font-size="10.00"> </text>
<polygon fill="#666666" stroke="#666666" points="499.5,-352.5 499.5,-352.5 543.5,-352.5 543.5,-352.5 499.5,-352.5"/>
<polygon fill="#666666" stroke="#666666" points="499.5,-337.5 499.5,-337.5 543.5,-337.5 543.5,-337.5 499.5,-337.5"/>
<polygon fill="none" stroke="#666666" points="499.5,-321 499.5,-370 543.5,-370 543.5,-321 499.5,-321"/>
</a>
</g>
</g>
<!-- Node11&#45;&gt;Node10 -->
<g id="edge12_Node000010_Node000011" class="edge">
<title>Node11&#45;&gt;Node10</title>
<g id="a_edge12_Node000010_Node000011"><a xlink:title=" ">
<path fill="none" stroke="#63b8ff" d="M521.5,-320.92C521.5,-308.99 521.5,-294.25 521.5,-280.94"/>
<polygon fill="none" stroke="#63b8ff" points="521.5,-280.76 517.5,-274.76 521.5,-268.76 525.5,-274.76 521.5,-280.76"/>
</a>
</g>
<text text-anchor="middle" x="550.5" y="-295" font-family="Helvetica,sans-Serif" font-size="10.00" fill="grey"> +elements</text>
</g>
</g>
</svg>

<g id="navigator" transform="translate(0 0)" fill="#404254">
  <rect fill="#f2f5e9" fill-opacity="0.5" stroke="#606060" stroke-width=".5" x="0" y="0" width="60" height="60"/>
  <use id="zoomplus" xlink:href="#zoomPlus" x="17" y="9" onmousedown="handleZoom(evt,'in')"/>
  <use id="zoomminus" xlink:href="#zoomMin" x="42" y="9" onmousedown="handleZoom(evt,'out')"/>
  <use id="reset" xlink:href="#resetDef" x="30" y="36" onmousedown="handleReset()"/>
   <use id="arrowup" xlink:href="#arrowUp" x="0" y="0" onmousedown="handlePan(0,-1)"/>
  <use id="arrowright" xlink:href="#arrowRight" x="0" y="0" onmousedown="handlePan(1,0)"/>
  <use id="arrowdown" xlink:href="#arrowDown" x="0" y="0" onmousedown="handlePan(0,1)"/>
  <use id="arrowleft" xlink:href="#arrowLeft" x="0" y="0" onmousedown="handlePan(-1,0)"/>
</g>
<svg viewBox="0 0 15 15" width="100%" height="30px" preserveAspectRatio="xMaxYMin meet">
 <g id="arrow_out" transform="scale(0.3 0.3)">
  <a xlink:href="structroc__t__coll__graph_org.svg" target="_base">
   <rect id="button" ry="5" rx="5" y="6" x="6" height="38" width="38"
        fill="#f2f5e9" fill-opacity="0.5" stroke="#606060" stroke-width="1.0"/>
   <path id="arrow"
     d="M 11.500037,31.436501 C 11.940474,20.09759 22.043105,11.32322 32.158766,21.979434 L 37.068811,17.246167 C 37.068811,17.246167 37.088388,32 37.088388,32 L 22.160133,31.978069 C 22.160133,31.978069 26.997745,27.140456 26.997745,27.140456 C 18.528582,18.264221 13.291696,25.230495 11.500037,31.436501 z"
     style="fill:#404040;"/>
  </a>
 </g>
</svg>

<style type='text/css'>
<![CDATA[
[data-mouse-over-selected='false'] { opacity: 0.7; }
[data-mouse-over-selected='true']  { opacity: 1.0; }
]]>
</style>
<script type="application/ecmascript"><![CDATA[
document.addEventListener('DOMContentLoaded', (event) => {
  highlightEdges();
  highlightAdjacentNodes();
});
]]></script>
</svg>
