<?xml version="1.0" encoding="UTF-8" standalone="no"?>
<!DOCTYPE svg PUBLIC "-//W3C//DTD SVG 1.1//EN"
 "http://www.w3.org/Graphics/SVG/1.1/DTD/svg11.dtd">
<!-- Generated by graphviz version 2.43.0 (0)
 -->
<!-- Title: variable_t::process Pages: 1 -->
<svg width="522pt" height="27pt"
 viewBox="0.00 0.00 522.00 27.00" xmlns="http://www.w3.org/2000/svg" xmlns:xlink="http://www.w3.org/1999/xlink">
<g id="graph0" class="graph" transform="scale(1 1) rotate(0) translate(4 23)">
<title>variable_t::process</title>
<!-- Node1 -->
<g id="Node000001" class="node">
<title>Node1</title>
<g id="a_Node000001"><a xlink:title=" ">
<polygon fill="#999999" stroke="#666666" points="109,-19 0,-19 0,0 109,0 109,-19"/>
<text text-anchor="middle" x="54.5" y="-7" font-family="Helvetica,sans-Serif" font-size="10.00">variable_t::process</text>
</a>
</g>
</g>
<!-- Node2 -->
<g id="Node000002" class="node">
<title>Node2</title>
<g id="a_Node000002"><a xlink:href="structvariable__t.html#a35efa1aca52f54be53701f19713efeab" target="_top" xlink:title=" ">
<polygon fill="white" stroke="#666666" points="261,-19 145,-19 145,0 261,0 261,-19"/>
<text text-anchor="middle" x="203" y="-7" font-family="Helvetica,sans-Serif" font-size="10.00">variable_t::add_data</text>
</a>
</g>
</g>
<!-- Node1&#45;&gt;Node2 -->
<g id="edge1_Node000001_Node000002" class="edge">
<title>Node1&#45;&gt;Node2</title>
<g id="a_edge1_Node000001_Node000002"><a xlink:title=" ">
<path fill="none" stroke="#63b8ff" d="M109.22,-9.5C117.46,-9.5 126.06,-9.5 134.56,-9.5"/>
<polygon fill="#63b8ff" stroke="#63b8ff" points="134.84,-13 144.84,-9.5 134.84,-6 134.84,-13"/>
</a>
</g>
</g>
<!-- Node3 -->
<g id="Node000003" class="node">
<title>Node3</title>
<g id="a_Node000003"><a xlink:href="vector__cast_8h.html#a9888ed684385b240692f6cb6e4c6b82e" target="_top" xlink:title=" ">
<polygon fill="white" stroke="#666666" points="395,-19 297,-19 297,0 395,0 395,-19"/>
<text text-anchor="middle" x="346" y="-7" font-family="Helvetica,sans-Serif" font-size="10.00">tensor_to_vector</text>
</a>
</g>
</g>
<!-- Node2&#45;&gt;Node3 -->
<g id="edge2_Node000002_Node000003" class="edge">
<title>Node2&#45;&gt;Node3</title>
<g id="a_edge2_Node000002_Node000003"><a xlink:title=" ">
<path fill="none" stroke="#63b8ff" d="M261.35,-9.5C269.7,-9.5 278.3,-9.5 286.67,-9.5"/>
<polygon fill="#63b8ff" stroke="#63b8ff" points="286.72,-13 296.72,-9.5 286.72,-6 286.72,-13"/>
</a>
</g>
</g>
<!-- Node4 -->
<g id="Node000004" class="node">
<title>Node4</title>
<g id="a_Node000004"><a xlink:href="vector__cast_8h.html#adc5ffd895fb49094059fd9dc0af67de9" target="_top" xlink:title=" ">
<polygon fill="white" stroke="#666666" points="514,-19 431,-19 431,0 514,0 514,-19"/>
<text text-anchor="middle" x="472.5" y="-7" font-family="Helvetica,sans-Serif" font-size="10.00">tensor_vector</text>
</a>
</g>
</g>
<!-- Node3&#45;&gt;Node4 -->
<g id="edge3_Node000003_Node000004" class="edge">
<title>Node3&#45;&gt;Node4</title>
<g id="a_edge3_Node000003_Node000004"><a xlink:title=" ">
<path fill="none" stroke="#63b8ff" d="M395.13,-9.5C403.5,-9.5 412.23,-9.5 420.67,-9.5"/>
<polygon fill="#63b8ff" stroke="#63b8ff" points="420.77,-13 430.77,-9.5 420.77,-6 420.77,-13"/>
</a>
</g>
</g>
</g>
</svg>
