<?xml version="1.0" encoding="UTF-8" standalone="no"?>
<!DOCTYPE svg PUBLIC "-//W3C//DTD SVG 1.1//EN"
 "http://www.w3.org/Graphics/SVG/1.1/DTD/svg11.dtd">
<!-- Generated by graphviz version 2.43.0 (0)
 -->
<!-- Title: variable_t::add_data Pages: 1 -->
<svg width="269pt" height="582pt"
 viewBox="0.00 0.00 269.00 582.00" xmlns="http://www.w3.org/2000/svg" xmlns:xlink="http://www.w3.org/1999/xlink">
<g id="graph0" class="graph" transform="scale(1 1) rotate(0) translate(4 578)">
<title>variable_t::add_data</title>
<!-- Node1 -->
<g id="Node000001" class="node">
<title>Node1</title>
<g id="a_Node000001"><a xlink:title=" ">
<polygon fill="#999999" stroke="#666666" points="261,-296 145,-296 145,-277 261,-277 261,-296"/>
<text text-anchor="middle" x="203" y="-284" font-family="Helvetica,sans-Serif" font-size="10.00">variable_t::add_data</text>
</a>
</g>
</g>
<!-- Node2 -->
<g id="Node000002" class="node">
<title>Node2</title>
<g id="a_Node000002"><a xlink:href="structvariable__t.html#a63e05c0cf2e19a41c47e350a5959dd8a" target="_top" xlink:title=" ">
<polygon fill="white" stroke="#666666" points="109,-574 0,-574 0,-555 109,-555 109,-574"/>
<text text-anchor="middle" x="54.5" y="-562" font-family="Helvetica,sans-Serif" font-size="10.00">variable_t::process</text>
</a>
</g>
</g>
<!-- Node1&#45;&gt;Node2 -->
<g id="edge1_Node000001_Node000002" class="edge">
<title>Node1&#45;&gt;Node2</title>
<g id="a_edge1_Node000001_Node000002"><a xlink:title=" ">
<path fill="none" stroke="#63b8ff" d="M200.67,-306.08C196.36,-353.97 178.69,-478.12 109,-546.5 105.5,-549.93 101.33,-552.71 96.88,-554.96"/>
<polygon fill="#63b8ff" stroke="#63b8ff" points="204.16,-306.34 201.47,-296.1 197.18,-305.79 204.16,-306.34"/>
</a>
</g>
</g>
<!-- Node3 -->
<g id="Node000003" class="node">
<title>Node3</title>
<g id="a_Node000003"><a xlink:href="structvariable__t.html#a84fe3a92f9d6fa4c53128a732cd4c358" target="_top" xlink:title=" ">
<polygon fill="white" stroke="#666666" points="109,-537 0,-537 0,-518 109,-518 109,-537"/>
<text text-anchor="middle" x="54.5" y="-525" font-family="Helvetica,sans-Serif" font-size="10.00">variable_t::process</text>
</a>
</g>
</g>
<!-- Node1&#45;&gt;Node3 -->
<g id="edge2_Node000001_Node000003" class="edge">
<title>Node1&#45;&gt;Node3</title>
<g id="a_edge2_Node000001_Node000003"><a xlink:title=" ">
<path fill="none" stroke="#63b8ff" d="M199.33,-306.15C192.44,-349.2 170.13,-452.54 109,-509.5 105.34,-512.91 101.02,-515.67 96.44,-517.91"/>
<polygon fill="#63b8ff" stroke="#63b8ff" points="202.81,-306.54 200.82,-296.13 195.88,-305.5 202.81,-306.54"/>
</a>
</g>
</g>
<!-- Node4 -->
<g id="Node000004" class="node">
<title>Node4</title>
<g id="a_Node000004"><a xlink:href="structvariable__t.html#a8d1ac4fd8d3404a956f127b5d741f184" target="_top" xlink:title=" ">
<polygon fill="white" stroke="#666666" points="109,-500 0,-500 0,-481 109,-481 109,-500"/>
<text text-anchor="middle" x="54.5" y="-488" font-family="Helvetica,sans-Serif" font-size="10.00">variable_t::process</text>
</a>
</g>
</g>
<!-- Node1&#45;&gt;Node4 -->
<g id="edge3_Node000001_Node000004" class="edge">
<title>Node1&#45;&gt;Node4</title>
<g id="a_edge3_Node000001_Node000004"><a xlink:title=" ">
<path fill="none" stroke="#63b8ff" d="M197.56,-305.94C187.97,-343.54 161.81,-426.57 109,-472.5 105.08,-475.91 100.49,-478.68 95.68,-480.92"/>
<polygon fill="#63b8ff" stroke="#63b8ff" points="200.96,-306.75 199.92,-296.21 194.16,-305.1 200.96,-306.75"/>
</a>
</g>
</g>
<!-- Node5 -->
<g id="Node000005" class="node">
<title>Node5</title>
<g id="a_Node000005"><a xlink:href="structvariable__t.html#a2b01c65dbb43444b2a355c0d2fe646c0" target="_top" xlink:title=" ">
<polygon fill="white" stroke="#666666" points="109,-463 0,-463 0,-444 109,-444 109,-463"/>
<text text-anchor="middle" x="54.5" y="-451" font-family="Helvetica,sans-Serif" font-size="10.00">variable_t::process</text>
</a>
</g>
</g>
<!-- Node1&#45;&gt;Node5 -->
<g id="edge4_Node000001_Node000005" class="edge">
<title>Node1&#45;&gt;Node5</title>
<g id="a_edge4_Node000001_Node000005"><a xlink:title=" ">
<path fill="none" stroke="#63b8ff" d="M195.1,-305.5C182.7,-337.02 153.71,-400.17 109,-435.5 104.69,-438.9 99.71,-441.68 94.56,-443.94"/>
<polygon fill="#63b8ff" stroke="#63b8ff" points="198.39,-306.69 198.67,-296.1 191.84,-304.21 198.39,-306.69"/>
</a>
</g>
</g>
<!-- Node6 -->
<g id="Node000006" class="node">
<title>Node6</title>
<g id="a_Node000006"><a xlink:href="structvariable__t.html#aee7245ebee637ddaac944179fdf6006c" target="_top" xlink:title=" ">
<polygon fill="white" stroke="#666666" points="109,-426 0,-426 0,-407 109,-407 109,-426"/>
<text text-anchor="middle" x="54.5" y="-414" font-family="Helvetica,sans-Serif" font-size="10.00">variable_t::process</text>
</a>
</g>
</g>
<!-- Node1&#45;&gt;Node6 -->
<g id="edge5_Node000001_Node000006" class="edge">
<title>Node1&#45;&gt;Node6</title>
<g id="a_edge5_Node000001_Node000006"><a xlink:title=" ">
<path fill="none" stroke="#63b8ff" d="M191.32,-304.87C176.08,-329.56 145.8,-373.26 109,-398.5 104.07,-401.88 98.45,-404.67 92.75,-406.96"/>
<polygon fill="#63b8ff" stroke="#63b8ff" points="194.43,-306.5 196.58,-296.13 188.43,-302.89 194.43,-306.5"/>
</a>
</g>
</g>
<!-- Node7 -->
<g id="Node000007" class="node">
<title>Node7</title>
<g id="a_Node000007"><a xlink:href="structvariable__t.html#adc7166efe960af387ec49f47807d61bb" target="_top" xlink:title=" ">
<polygon fill="white" stroke="#666666" points="109,-389 0,-389 0,-370 109,-370 109,-389"/>
<text text-anchor="middle" x="54.5" y="-377" font-family="Helvetica,sans-Serif" font-size="10.00">variable_t::process</text>
</a>
</g>
</g>
<!-- Node1&#45;&gt;Node7 -->
<g id="edge6_Node000001_Node000007" class="edge">
<title>Node1&#45;&gt;Node7</title>
<g id="a_edge6_Node000001_Node000007"><a xlink:title=" ">
<path fill="none" stroke="#63b8ff" d="M185.28,-303.09C167.62,-319.82 138.33,-345.41 109,-361.5 103.07,-364.75 96.45,-367.56 89.94,-369.92"/>
<polygon fill="#63b8ff" stroke="#63b8ff" points="187.76,-305.56 192.53,-296.1 182.9,-300.52 187.76,-305.56"/>
</a>
</g>
</g>
<!-- Node8 -->
<g id="Node000008" class="node">
<title>Node8</title>
<g id="a_Node000008"><a xlink:href="structvariable__t.html#a85e71650dc42bf0c016b3b96925e85c0" target="_top" xlink:title=" ">
<polygon fill="white" stroke="#666666" points="109,-352 0,-352 0,-333 109,-333 109,-352"/>
<text text-anchor="middle" x="54.5" y="-340" font-family="Helvetica,sans-Serif" font-size="10.00">variable_t::process</text>
</a>
</g>
</g>
<!-- Node1&#45;&gt;Node8 -->
<g id="edge7_Node000001_Node000008" class="edge">
<title>Node1&#45;&gt;Node8</title>
<g id="a_edge7_Node000001_Node000008"><a xlink:title=" ">
<path fill="none" stroke="#63b8ff" d="M170.22,-300.07C152.35,-307.55 129.55,-316.85 109,-324.5 101.28,-327.37 92.87,-330.3 85.05,-332.93"/>
<polygon fill="#63b8ff" stroke="#63b8ff" points="171.75,-303.22 179.61,-296.12 169.03,-296.77 171.75,-303.22"/>
</a>
</g>
</g>
<!-- Node9 -->
<g id="Node000009" class="node">
<title>Node9</title>
<g id="a_Node000009"><a xlink:href="structvariable__t.html#a56d5251c44d6a7eae549a13650b5669d" target="_top" xlink:title=" ">
<polygon fill="white" stroke="#666666" points="109,-315 0,-315 0,-296 109,-296 109,-315"/>
<text text-anchor="middle" x="54.5" y="-303" font-family="Helvetica,sans-Serif" font-size="10.00">variable_t::process</text>
</a>
</g>
</g>
<!-- Node1&#45;&gt;Node9 -->
<g id="edge8_Node000001_Node000009" class="edge">
<title>Node1&#45;&gt;Node9</title>
<g id="a_edge8_Node000001_Node000009"><a xlink:title=" ">
<path fill="none" stroke="#63b8ff" d="M134.93,-295.2C126.34,-296.31 117.63,-297.44 109.29,-298.52"/>
<polygon fill="#63b8ff" stroke="#63b8ff" points="135.47,-298.66 144.94,-293.9 134.57,-291.72 135.47,-298.66"/>
</a>
</g>
</g>
<!-- Node10 -->
<g id="Node000010" class="node">
<title>Node10</title>
<g id="a_Node000010"><a xlink:href="structvariable__t.html#a8c3b1b96e0c1d85393fade779242717d" target="_top" xlink:title=" ">
<polygon fill="white" stroke="#666666" points="109,-278 0,-278 0,-259 109,-259 109,-278"/>
<text text-anchor="middle" x="54.5" y="-266" font-family="Helvetica,sans-Serif" font-size="10.00">variable_t::process</text>
</a>
</g>
</g>
<!-- Node1&#45;&gt;Node10 -->
<g id="edge9_Node000001_Node000010" class="edge">
<title>Node1&#45;&gt;Node10</title>
<g id="a_edge9_Node000001_Node000010"><a xlink:title=" ">
<path fill="none" stroke="#63b8ff" d="M134.93,-278.26C126.34,-277.2 117.63,-276.13 109.29,-275.11"/>
<polygon fill="#63b8ff" stroke="#63b8ff" points="134.59,-281.74 144.94,-279.49 135.44,-274.8 134.59,-281.74"/>
</a>
</g>
</g>
<!-- Node11 -->
<g id="Node000011" class="node">
<title>Node11</title>
<g id="a_Node000011"><a xlink:href="structvariable__t.html#a097e8b78875c1c97af46af0592db7ceb" target="_top" xlink:title=" ">
<polygon fill="white" stroke="#666666" points="109,-241 0,-241 0,-222 109,-222 109,-241"/>
<text text-anchor="middle" x="54.5" y="-229" font-family="Helvetica,sans-Serif" font-size="10.00">variable_t::process</text>
</a>
</g>
</g>
<!-- Node1&#45;&gt;Node11 -->
<g id="edge10_Node000001_Node000011" class="edge">
<title>Node1&#45;&gt;Node11</title>
<g id="a_edge10_Node000001_Node000011"><a xlink:title=" ">
<path fill="none" stroke="#63b8ff" d="M168.66,-273.33C150.98,-266.42 128.86,-257.87 109,-250.5 100.5,-247.35 91.2,-244 82.77,-241.02"/>
<polygon fill="#63b8ff" stroke="#63b8ff" points="167.4,-276.6 177.98,-276.99 169.95,-270.08 167.4,-276.6"/>
</a>
</g>
</g>
<!-- Node12 -->
<g id="Node000012" class="node">
<title>Node12</title>
<g id="a_Node000012"><a xlink:href="structvariable__t.html#ab405e916ff12e4d03a793a4c99e33d55" target="_top" xlink:title=" ">
<polygon fill="white" stroke="#666666" points="109,-204 0,-204 0,-185 109,-185 109,-204"/>
<text text-anchor="middle" x="54.5" y="-192" font-family="Helvetica,sans-Serif" font-size="10.00">variable_t::process</text>
</a>
</g>
</g>
<!-- Node1&#45;&gt;Node12 -->
<g id="edge11_Node000001_Node000012" class="edge">
<title>Node1&#45;&gt;Node12</title>
<g id="a_edge11_Node000001_Node000012"><a xlink:title=" ">
<path fill="none" stroke="#63b8ff" d="M184.37,-269.78C166.53,-253.59 137.59,-229.24 109,-213.5 102.35,-209.84 94.86,-206.66 87.64,-204.01"/>
<polygon fill="#63b8ff" stroke="#63b8ff" points="182.46,-272.78 192.18,-277 187.21,-267.64 182.46,-272.78"/>
</a>
</g>
</g>
<!-- Node13 -->
<g id="Node000013" class="node">
<title>Node13</title>
<g id="a_Node000013"><a xlink:href="structvariable__t.html#a75bad524927bf91a007171a0355c4d63" target="_top" xlink:title=" ">
<polygon fill="white" stroke="#666666" points="109,-167 0,-167 0,-148 109,-148 109,-167"/>
<text text-anchor="middle" x="54.5" y="-155" font-family="Helvetica,sans-Serif" font-size="10.00">variable_t::process</text>
</a>
</g>
</g>
<!-- Node1&#45;&gt;Node13 -->
<g id="edge12_Node000001_Node000013" class="edge">
<title>Node1&#45;&gt;Node13</title>
<g id="a_edge12_Node000001_Node000013"><a xlink:title=" ">
<path fill="none" stroke="#63b8ff" d="M190.95,-268.19C175.47,-243.99 145.13,-201.49 109,-176.5 103.49,-172.69 97.13,-169.56 90.76,-167.02"/>
<polygon fill="#63b8ff" stroke="#63b8ff" points="188.05,-270.15 196.31,-276.78 193.99,-266.44 188.05,-270.15"/>
</a>
</g>
</g>
<!-- Node14 -->
<g id="Node000014" class="node">
<title>Node14</title>
<g id="a_Node000014"><a xlink:href="structvariable__t.html#ab2fcf3da4b0bee438f4e924f42e7f726" target="_top" xlink:title=" ">
<polygon fill="white" stroke="#666666" points="109,-130 0,-130 0,-111 109,-111 109,-130"/>
<text text-anchor="middle" x="54.5" y="-118" font-family="Helvetica,sans-Serif" font-size="10.00">variable_t::process</text>
</a>
</g>
</g>
<!-- Node1&#45;&gt;Node14 -->
<g id="edge13_Node000001_Node000014" class="edge">
<title>Node1&#45;&gt;Node14</title>
<g id="a_edge13_Node000001_Node000014"><a xlink:title=" ">
<path fill="none" stroke="#63b8ff" d="M194.78,-267.39C182.09,-236.26 152.88,-174.55 109,-139.5 104.15,-135.62 98.44,-132.51 92.6,-130.01"/>
<polygon fill="#63b8ff" stroke="#63b8ff" points="191.53,-268.67 198.45,-276.69 198.04,-266.11 191.53,-268.67"/>
</a>
</g>
</g>
<!-- Node15 -->
<g id="Node000015" class="node">
<title>Node15</title>
<g id="a_Node000015"><a xlink:href="structvariable__t.html#a848fa1b98399c95a85eaeed8f9ec4cbd" target="_top" xlink:title=" ">
<polygon fill="white" stroke="#666666" points="109,-93 0,-93 0,-74 109,-74 109,-93"/>
<text text-anchor="middle" x="54.5" y="-81" font-family="Helvetica,sans-Serif" font-size="10.00">variable_t::process</text>
</a>
</g>
</g>
<!-- Node1&#45;&gt;Node15 -->
<g id="edge14_Node000001_Node000015" class="edge">
<title>Node1&#45;&gt;Node15</title>
<g id="a_edge14_Node000001_Node000015"><a xlink:title=" ">
<path fill="none" stroke="#63b8ff" d="M197.3,-266.87C187.38,-229.58 160.85,-148.16 109,-102.5 104.64,-98.66 99.44,-95.58 94.03,-93.11"/>
<polygon fill="#63b8ff" stroke="#63b8ff" points="194,-268.1 199.85,-276.93 200.79,-266.38 194,-268.1"/>
</a>
</g>
</g>
<!-- Node16 -->
<g id="Node000016" class="node">
<title>Node16</title>
<g id="a_Node000016"><a xlink:href="structvariable__t.html#af742a3f583a554f5fcbafc54173e8ca3" target="_top" xlink:title=" ">
<polygon fill="white" stroke="#666666" points="109,-56 0,-56 0,-37 109,-37 109,-56"/>
<text text-anchor="middle" x="54.5" y="-44" font-family="Helvetica,sans-Serif" font-size="10.00">variable_t::process</text>
</a>
</g>
</g>
<!-- Node1&#45;&gt;Node16 -->
<g id="edge15_Node000001_Node000016" class="edge">
<title>Node1&#45;&gt;Node16</title>
<g id="a_edge15_Node000001_Node000016"><a xlink:title=" ">
<path fill="none" stroke="#63b8ff" d="M199.2,-267.1C192.06,-224.58 169.28,-122.44 109,-65.5 104.92,-61.64 100,-58.56 94.82,-56.1"/>
<polygon fill="#63b8ff" stroke="#63b8ff" points="195.74,-267.66 200.75,-276.99 202.66,-266.57 195.74,-267.66"/>
</a>
</g>
</g>
<!-- Node17 -->
<g id="Node000017" class="node">
<title>Node17</title>
<g id="a_Node000017"><a xlink:href="structvariable__t.html#abb328168f0e26f52e6d164f6e6aed831" target="_top" xlink:title=" ">
<polygon fill="white" stroke="#666666" points="109,-19 0,-19 0,0 109,0 109,-19"/>
<text text-anchor="middle" x="54.5" y="-7" font-family="Helvetica,sans-Serif" font-size="10.00">variable_t::process</text>
</a>
</g>
</g>
<!-- Node1&#45;&gt;Node17 -->
<g id="edge16_Node000001_Node000017" class="edge">
<title>Node1&#45;&gt;Node17</title>
<g id="a_edge16_Node000001_Node000017"><a xlink:title=" ">
<path fill="none" stroke="#63b8ff" d="M200.49,-266.52C195.8,-218.7 177.43,-96.61 109,-28.5 105.09,-24.61 100.33,-21.51 95.28,-19.04"/>
<polygon fill="#63b8ff" stroke="#63b8ff" points="197.02,-267.1 201.38,-276.76 204,-266.49 197.02,-267.1"/>
</a>
</g>
</g>
</g>
</svg>
