<?xml version="1.0" encoding="UTF-8" standalone="no"?>
<!DOCTYPE svg PUBLIC "-//W3C//DTD SVG 1.1//EN"
 "http://www.w3.org/Graphics/SVG/1.1/DTD/svg11.dtd">
<!-- Generated by graphviz version 2.43.0 (0)
 -->
<!-- Title: kinematic_t Pages: 1 -->
<svg width="121pt" height="186pt"
 viewBox="0.00 0.00 121.00 186.00" xmlns="http://www.w3.org/2000/svg" xmlns:xlink="http://www.w3.org/1999/xlink">

<svg id="main" version="1.1" xmlns="http://www.w3.org/2000/svg" xmlns:xlink="http://www.w3.org/1999/xlink" xml:space="preserve" onload="init(evt)">
<style type="text/css"><![CDATA[
.node, .edge {opacity: 0.7;}
.node.selected, .edge.selected {opacity: 1;}
.edge:hover path { stroke: red; }
.edge:hover polygon { stroke: red; fill: red; }
]]></style>
<script type="application/ecmascript" xlink:href="svg.min.js"/>
<svg id="graph" class="graph">
<g id="graph0" class="graph" transform="scale(1 1) rotate(0) translate(4 182)">
<title>kinematic_t</title>
<!-- Node1 -->
<g id="Node000001" class="node">
<title>Node1</title>
<g id="a_Node000001"><a xlink:title=" ">
<polygon fill="#999999" stroke="transparent" points="84,-49 16,-49 16,0 84,0 84,-49"/>
<text text-anchor="start" x="21" y="-36.5" font-family="Helvetica,sans-Serif" font-size="10.00">kinematic_t</text>
<text text-anchor="start" x="48" y="-21.5" font-family="Helvetica,sans-Serif" font-size="10.00"> </text>
<text text-anchor="start" x="48" y="-6.5" font-family="Helvetica,sans-Serif" font-size="10.00"> </text>
<polygon fill="#666666" stroke="#666666" points="16,-31.5 16,-31.5 84,-31.5 84,-31.5 16,-31.5"/>
<polygon fill="#666666" stroke="#666666" points="16,-16.5 16,-16.5 84,-16.5 84,-16.5 16,-16.5"/>
<polygon fill="none" stroke="#666666" points="16,0 16,-49 84,-49 84,0 16,0"/>
</a>
</g>
</g>
<!-- Node2 -->
<g id="Node000002" class="node">
<title>Node2</title>
<g id="a_Node000002"><a xlink:title=" ">
<polygon fill="white" stroke="transparent" points="32,-178 0,-178 0,-129 32,-129 32,-178"/>
<text text-anchor="start" x="5" y="-165.5" font-family="Helvetica,sans-Serif" font-size="10.00">float</text>
<text text-anchor="start" x="14" y="-150.5" font-family="Helvetica,sans-Serif" font-size="10.00"> </text>
<text text-anchor="start" x="14" y="-135.5" font-family="Helvetica,sans-Serif" font-size="10.00"> </text>
<polygon fill="#666666" stroke="#666666" points="0,-160.5 0,-160.5 32,-160.5 32,-160.5 0,-160.5"/>
<polygon fill="#666666" stroke="#666666" points="0,-145.5 0,-145.5 32,-145.5 32,-145.5 0,-145.5"/>
<polygon fill="none" stroke="#666666" points="0,-129 0,-178 32,-178 32,-129 0,-129"/>
</a>
</g>
</g>
<!-- Node2&#45;&gt;Node1 -->
<g id="edge1_Node000001_Node000002" class="edge">
<title>Node2&#45;&gt;Node1</title>
<g id="a_edge1_Node000001_Node000002"><a xlink:title=" ">
<path fill="none" stroke="#63b8ff" d="M12.25,-128.92C10.41,-111.33 9.89,-87 17,-67 17.9,-64.46 19.03,-61.96 20.32,-59.53"/>
<polygon fill="none" stroke="#63b8ff" points="20.37,-59.45 20.21,-52.24 26.81,-49.32 26.96,-56.53 20.37,-59.45"/>
</a>
</g>
<text text-anchor="middle" x="40" y="-103" font-family="Helvetica,sans-Serif" font-size="10.00" fill="grey"> +energy</text>
<text text-anchor="middle" x="40" y="-92" font-family="Helvetica,sans-Serif" font-size="10.00" fill="grey">+eta</text>
<text text-anchor="middle" x="40" y="-81" font-family="Helvetica,sans-Serif" font-size="10.00" fill="grey">+phi</text>
<text text-anchor="middle" x="40" y="-70" font-family="Helvetica,sans-Serif" font-size="10.00" fill="grey">+pt</text>
</g>
<!-- Node3 -->
<g id="Node000003" class="node">
<title>Node3</title>
<g id="a_Node000003"><a xlink:title=" ">
<polygon fill="white" stroke="transparent" points="96.5,-178 73.5,-178 73.5,-129 96.5,-129 96.5,-178"/>
<text text-anchor="start" x="79" y="-165.5" font-family="Helvetica,sans-Serif" font-size="10.00">int</text>
<text text-anchor="start" x="83.5" y="-150.5" font-family="Helvetica,sans-Serif" font-size="10.00"> </text>
<text text-anchor="start" x="83.5" y="-135.5" font-family="Helvetica,sans-Serif" font-size="10.00"> </text>
<polygon fill="#666666" stroke="#666666" points="74,-160.5 74,-160.5 97,-160.5 97,-160.5 74,-160.5"/>
<polygon fill="#666666" stroke="#666666" points="74,-145.5 74,-145.5 97,-145.5 97,-145.5 74,-145.5"/>
<polygon fill="none" stroke="#666666" points="73.5,-129 73.5,-178 96.5,-178 96.5,-129 73.5,-129"/>
</a>
</g>
</g>
<!-- Node3&#45;&gt;Node1 -->
<g id="edge2_Node000001_Node000003" class="edge">
<title>Node3&#45;&gt;Node1</title>
<g id="a_edge2_Node000001_Node000003"><a xlink:title=" ">
<path fill="none" stroke="#63b8ff" d="M79.26,-128.82C75,-111.61 68.92,-87.78 63,-67 62.43,-65 61.83,-62.96 61.22,-60.89"/>
<polygon fill="none" stroke="#63b8ff" points="61.14,-60.62 55.56,-56.04 57.64,-49.14 63.21,-53.71 61.14,-60.62"/>
</a>
</g>
<text text-anchor="middle" x="93.5" y="-86.5" font-family="Helvetica,sans-Serif" font-size="10.00" fill="grey"> +pdgid</text>
</g>
</g>
</svg>
</svg>

<style type='text/css'>
<![CDATA[
[data-mouse-over-selected='false'] { opacity: 0.7; }
[data-mouse-over-selected='true']  { opacity: 1.0; }
]]>
</style>
<script type="application/ecmascript"><![CDATA[
document.addEventListener('DOMContentLoaded', (event) => {
  highlightEdges();
  highlightAdjacentNodes();
});
]]></script>
</svg>
