<?xml version="1.0" encoding="UTF-8" standalone="no"?>
<!DOCTYPE svg PUBLIC "-//W3C//DTD SVG 1.1//EN"
 "http://www.w3.org/Graphics/SVG/1.1/DTD/svg11.dtd">
<!-- Generated by graphviz version 2.43.0 (0)
 -->
<!-- Title: transform.h Pages: 1 -->
<svg width="453pt" height="82pt"
 viewBox="0.00 0.00 453.00 82.00" xmlns="http://www.w3.org/2000/svg" xmlns:xlink="http://www.w3.org/1999/xlink">

<svg id="main" version="1.1" xmlns="http://www.w3.org/2000/svg" xmlns:xlink="http://www.w3.org/1999/xlink" xml:space="preserve" onload="init(evt)">
<style type="text/css"><![CDATA[
.node, .edge {opacity: 0.7;}
.node.selected, .edge.selected {opacity: 1;}
.edge:hover path { stroke: red; }
.edge:hover polygon { stroke: red; fill: red; }
]]></style>
<script type="application/ecmascript" xlink:href="svg.min.js"/>
<svg id="graph" class="graph">
<g id="graph0" class="graph" transform="scale(1 1) rotate(0) translate(4 78)">
<title>transform.h</title>
<!-- Node1 -->
<g id="Node000001" class="node">
<title>Node1</title>
<g id="a_Node000001"><a xlink:title="Provides transformation functions for momentum calculations in C++.">
<polygon fill="#999999" stroke="#666666" points="238.5,-74 164.5,-74 164.5,-55 238.5,-55 238.5,-74"/>
<text text-anchor="middle" x="201.5" y="-62" font-family="Helvetica,sans-Serif" font-size="10.00">transform.h</text>
</a>
</g>
</g>
<!-- Node2 -->
<g id="Node000002" class="node">
<title>Node2</title>
<g id="a_Node000002"><a xlink:href="pyc_2interface_2graph_8cxx.html" target="_top" xlink:title=" ">
<polygon fill="white" stroke="#666666" points="65,-19 0,-19 0,0 65,0 65,-19"/>
<text text-anchor="middle" x="32.5" y="-7" font-family="Helvetica,sans-Serif" font-size="10.00">graph.cxx</text>
</a>
</g>
</g>
<!-- Node1&#45;&gt;Node2 -->
<g id="edge1_Node000001_Node000002" class="edge">
<title>Node1&#45;&gt;Node2</title>
<g id="a_edge1_Node000001_Node000002"><a xlink:title=" ">
<path fill="none" stroke="#63b8ff" d="M164.6,-51.93C133.03,-42.03 88.32,-28.01 59.87,-19.08"/>
<polygon fill="#63b8ff" stroke="#63b8ff" points="163.76,-55.33 174.35,-54.98 165.85,-48.65 163.76,-55.33"/>
</a>
</g>
</g>
<!-- Node3 -->
<g id="Node000003" class="node">
<title>Node3</title>
<g id="a_Node000003"><a xlink:href="nusol_2tensor_2nusol_8cxx.html" target="_top" xlink:title=" ">
<polygon fill="white" stroke="#666666" points="146,-19 83,-19 83,0 146,0 146,-19"/>
<text text-anchor="middle" x="114.5" y="-7" font-family="Helvetica,sans-Serif" font-size="10.00">nusol.cxx</text>
</a>
</g>
</g>
<!-- Node1&#45;&gt;Node3 -->
<g id="edge2_Node000001_Node000003" class="edge">
<title>Node1&#45;&gt;Node3</title>
<g id="a_edge2_Node000001_Node000003"><a xlink:title=" ">
<path fill="none" stroke="#63b8ff" d="M178.84,-49.7C162.99,-40.04 142.31,-27.44 128.73,-19.17"/>
<polygon fill="#63b8ff" stroke="#63b8ff" points="177.16,-52.77 187.52,-54.98 180.8,-46.79 177.16,-52.77"/>
</a>
</g>
</g>
<!-- Node4 -->
<g id="Node000004" class="node">
<title>Node4</title>
<g id="a_Node000004"><a xlink:href="pyc_2interface_2physics_8cxx.html" target="_top" xlink:title=" ">
<polygon fill="white" stroke="#666666" points="238.5,-19 164.5,-19 164.5,0 238.5,0 238.5,-19"/>
<text text-anchor="middle" x="201.5" y="-7" font-family="Helvetica,sans-Serif" font-size="10.00">physics.cxx</text>
</a>
</g>
</g>
<!-- Node1&#45;&gt;Node4 -->
<g id="edge3_Node000001_Node000004" class="edge">
<title>Node1&#45;&gt;Node4</title>
<g id="a_edge3_Node000001_Node000004"><a xlink:title=" ">
<path fill="none" stroke="#63b8ff" d="M201.5,-44.66C201.5,-35.93 201.5,-25.99 201.5,-19.09"/>
<polygon fill="#63b8ff" stroke="#63b8ff" points="198,-44.75 201.5,-54.75 205,-44.75 198,-44.75"/>
</a>
</g>
</g>
<!-- Node5 -->
<g id="Node000005" class="node">
<title>Node5</title>
<g id="a_Node000005"><a xlink:href="interface_2transform_8cxx.html" target="_top" xlink:title=" ">
<polygon fill="white" stroke="#666666" points="342,-19 257,-19 257,0 342,0 342,-19"/>
<text text-anchor="middle" x="299.5" y="-7" font-family="Helvetica,sans-Serif" font-size="10.00">transform.cxx</text>
</a>
</g>
</g>
<!-- Node1&#45;&gt;Node5 -->
<g id="edge4_Node000001_Node000005" class="edge">
<title>Node1&#45;&gt;Node5</title>
<g id="a_edge4_Node000001_Node000005"><a xlink:title=" ">
<path fill="none" stroke="#63b8ff" d="M226.53,-49.97C244.44,-40.28 268.03,-27.52 283.47,-19.17"/>
<polygon fill="#63b8ff" stroke="#63b8ff" points="224.38,-47.15 217.25,-54.98 227.71,-53.31 224.38,-47.15"/>
</a>
</g>
</g>
<!-- Node6 -->
<g id="Node000006" class="node">
<title>Node6</title>
<g id="a_Node000006"><a xlink:href="transform_2transform_8cxx.html" target="_top" xlink:title="Implements transformation utilities for the AnalysisG framework.">
<polygon fill="white" stroke="#666666" points="445,-19 360,-19 360,0 445,0 445,-19"/>
<text text-anchor="middle" x="402.5" y="-7" font-family="Helvetica,sans-Serif" font-size="10.00">transform.cxx</text>
</a>
</g>
</g>
<!-- Node1&#45;&gt;Node6 -->
<g id="edge5_Node000001_Node000006" class="edge">
<title>Node1&#45;&gt;Node6</title>
<g id="a_edge5_Node000001_Node000006"><a xlink:title=" ">
<path fill="none" stroke="#63b8ff" d="M243.93,-52.31C281.54,-42.39 335.67,-28.12 369.95,-19.08"/>
<polygon fill="#63b8ff" stroke="#63b8ff" points="242.57,-49.05 233.79,-54.98 244.36,-55.82 242.57,-49.05"/>
</a>
</g>
</g>
</g>
</svg>
</svg>

<style type='text/css'>
<![CDATA[
[data-mouse-over-selected='false'] { opacity: 0.7; }
[data-mouse-over-selected='true']  { opacity: 1.0; }
]]>
</style>
<script type="application/ecmascript"><![CDATA[
document.addEventListener('DOMContentLoaded', (event) => {
  highlightEdges();
  highlightAdjacentNodes();
});
]]></script>
</svg>
