<?xml version="1.0" encoding="UTF-8" standalone="no"?>
<!DOCTYPE svg PUBLIC "-//W3C//DTD SVG 1.1//EN"
 "http://www.w3.org/Graphics/SVG/1.1/DTD/svg11.dtd">
<!-- Generated by graphviz version 2.43.0 (0)
 -->
<!-- Title: tensor_size Pages: 1 -->
<svg width="401pt" height="119pt"
 viewBox="0.00 0.00 401.00 119.00" xmlns="http://www.w3.org/2000/svg" xmlns:xlink="http://www.w3.org/1999/xlink">
<g id="graph0" class="graph" transform="scale(1 1) rotate(0) translate(4 115)">
<title>tensor_size</title>
<!-- Node1 -->
<g id="Node000001" class="node">
<title>Node1</title>
<g id="a_Node000001"><a xlink:title=" ">
<polygon fill="#999999" stroke="#666666" points="393,-56 321,-56 321,-37 393,-37 393,-56"/>
<text text-anchor="middle" x="357" y="-44" font-family="Helvetica,sans-Serif" font-size="10.00">tensor_size</text>
</a>
</g>
</g>
<!-- Node2 -->
<g id="Node000002" class="node">
<title>Node2</title>
<g id="a_Node000002"><a xlink:href="interface_8cxx.html#a60ca392438931d5a5ec65ee6f882d6c6" target="_top" xlink:title=" ">
<polygon fill="white" stroke="#666666" points="282.5,-93 178.5,-93 178.5,-74 282.5,-74 282.5,-93"/>
<text text-anchor="middle" x="230.5" y="-81" font-family="Helvetica,sans-Serif" font-size="10.00">construct_particle</text>
</a>
</g>
</g>
<!-- Node1&#45;&gt;Node2 -->
<g id="edge1_Node000001_Node000002" class="edge">
<title>Node1&#45;&gt;Node2</title>
<g id="a_edge1_Node000001_Node000002"><a xlink:title=" ">
<path fill="none" stroke="#63b8ff" d="M314.06,-58.96C297.69,-63.83 279.2,-69.32 263.89,-73.88"/>
<polygon fill="#63b8ff" stroke="#63b8ff" points="315.35,-62.23 323.94,-56.03 313.36,-55.52 315.35,-62.23"/>
</a>
</g>
</g>
<!-- Node5 -->
<g id="Node000005" class="node">
<title>Node5</title>
<g id="a_Node000005"><a xlink:href="structvariable__t.html#abb328168f0e26f52e6d164f6e6aed831" target="_top" xlink:title=" ">
<polygon fill="white" stroke="#666666" points="285,-56 176,-56 176,-37 285,-37 285,-56"/>
<text text-anchor="middle" x="230.5" y="-44" font-family="Helvetica,sans-Serif" font-size="10.00">variable_t::process</text>
</a>
</g>
</g>
<!-- Node1&#45;&gt;Node5 -->
<g id="edge4_Node000001_Node000005" class="edge">
<title>Node1&#45;&gt;Node5</title>
<g id="a_edge4_Node000001_Node000005"><a xlink:title=" ">
<path fill="none" stroke="#63b8ff" d="M310.79,-46.5C302.52,-46.5 293.82,-46.5 285.33,-46.5"/>
<polygon fill="#63b8ff" stroke="#63b8ff" points="310.99,-50 320.99,-46.5 310.99,-43 310.99,-50"/>
</a>
</g>
</g>
<!-- Node6 -->
<g id="Node000006" class="node">
<title>Node6</title>
<g id="a_Node000006"><a xlink:href="vector__cast_8h.html#a87523748db69512f07becf42d97f274e" target="_top" xlink:title=" ">
<polygon fill="white" stroke="#666666" points="279.5,-19 181.5,-19 181.5,0 279.5,0 279.5,-19"/>
<text text-anchor="middle" x="230.5" y="-7" font-family="Helvetica,sans-Serif" font-size="10.00">tensor_to_vector</text>
</a>
</g>
</g>
<!-- Node1&#45;&gt;Node6 -->
<g id="edge5_Node000001_Node000006" class="edge">
<title>Node1&#45;&gt;Node6</title>
<g id="a_edge5_Node000001_Node000006"><a xlink:title=" ">
<path fill="none" stroke="#63b8ff" d="M314.06,-34.04C297.69,-29.17 279.2,-23.68 263.89,-19.12"/>
<polygon fill="#63b8ff" stroke="#63b8ff" points="313.36,-37.48 323.94,-36.97 315.35,-30.77 313.36,-37.48"/>
</a>
</g>
</g>
<!-- Node3 -->
<g id="Node000003" class="node">
<title>Node3</title>
<g id="a_Node000003"><a xlink:href="namespacepyc_1_1nusol.html#ad4035a04640174f1d5f9cdc307a3ad0a" target="_top" xlink:title=" ">
<polygon fill="white" stroke="#666666" points="140,-111 0,-111 0,-92 140,-92 140,-111"/>
<text text-anchor="middle" x="70" y="-99" font-family="Helvetica,sans-Serif" font-size="10.00">pyc::nusol::combinatorial</text>
</a>
</g>
</g>
<!-- Node2&#45;&gt;Node3 -->
<g id="edge2_Node000002_Node000003" class="edge">
<title>Node2&#45;&gt;Node3</title>
<g id="a_edge2_Node000002_Node000003"><a xlink:title=" ">
<path fill="none" stroke="#63b8ff" d="M168.25,-90.46C159.04,-91.5 149.49,-92.59 140.13,-93.65"/>
<polygon fill="#63b8ff" stroke="#63b8ff" points="168.94,-93.9 178.48,-89.29 168.15,-86.95 168.94,-93.9"/>
</a>
</g>
</g>
<!-- Node4 -->
<g id="Node000004" class="node">
<title>Node4</title>
<g id="a_Node000004"><a xlink:href="namespacepyc_1_1nusol.html#af88804c21a54435a41be99cbc03faf30" target="_top" xlink:title=" ">
<polygon fill="white" stroke="#666666" points="119.5,-74 20.5,-74 20.5,-55 119.5,-55 119.5,-74"/>
<text text-anchor="middle" x="70" y="-62" font-family="Helvetica,sans-Serif" font-size="10.00">pyc::nusol::NuNu</text>
</a>
</g>
</g>
<!-- Node2&#45;&gt;Node4 -->
<g id="edge3_Node000002_Node000004" class="edge">
<title>Node2&#45;&gt;Node4</title>
<g id="a_edge3_Node000002_Node000004"><a xlink:title=" ">
<path fill="none" stroke="#63b8ff" d="M168.12,-76.14C152.1,-74.22 135.04,-72.18 119.77,-70.35"/>
<polygon fill="#63b8ff" stroke="#63b8ff" points="168.13,-79.67 178.48,-77.38 168.96,-72.72 168.13,-79.67"/>
</a>
</g>
</g>
</g>
</svg>
