<?xml version="1.0" encoding="UTF-8" standalone="no"?>
<!DOCTYPE svg PUBLIC "-//W3C//DTD SVG 1.1//EN"
 "http://www.w3.org/Graphics/SVG/1.1/DTD/svg11.dtd">
<!-- Generated by graphviz version 2.43.0 (0)
 -->
<!-- Title: clip Pages: 1 -->
<svg width="1112pt" height="479pt"
 viewBox="0.00 0.00 1112.00 479.00" xmlns="http://www.w3.org/2000/svg" xmlns:xlink="http://www.w3.org/1999/xlink">
<g id="graph0" class="graph" transform="scale(1 1) rotate(0) translate(4 475)">
<title>clip</title>
<!-- Node1 -->
<g id="Node000001" class="node">
<title>Node1</title>
<g id="a_Node000001"><a xlink:title=" ">
<polygon fill="#999999" stroke="#666666" points="1104,-171 1070,-171 1070,-152 1104,-152 1104,-171"/>
<text text-anchor="middle" x="1087" y="-159" font-family="Helvetica,sans-Serif" font-size="10.00">clip</text>
</a>
</g>
</g>
<!-- Node2 -->
<g id="Node000002" class="node">
<title>Node2</title>
<g id="a_Node000002"><a xlink:href="namespacetransform__.html#a82aaa223736b57490a8639752180e5ec" target="_top" xlink:title="Computes the pseudorapidity (Eta) from a momentum tensor.">
<polygon fill="white" stroke="#666666" points="1021.5,-434 929.5,-434 929.5,-415 1021.5,-415 1021.5,-434"/>
<text text-anchor="middle" x="975.5" y="-422" font-family="Helvetica,sans-Serif" font-size="10.00">transform_::Eta</text>
</a>
</g>
</g>
<!-- Node1&#45;&gt;Node2 -->
<g id="edge1_Node000001_Node000002" class="edge">
<title>Node1&#45;&gt;Node2</title>
<g id="a_edge1_Node000001_Node000002"><a xlink:title=" ">
<path fill="none" stroke="#63b8ff" d="M1083.22,-180.96C1077.64,-216.27 1063.03,-292.57 1034,-350.5 1021.17,-376.1 998.8,-401.48 986.08,-414.84"/>
<polygon fill="#63b8ff" stroke="#63b8ff" points="1086.69,-181.43 1084.73,-171.02 1079.77,-180.38 1086.69,-181.43"/>
</a>
</g>
</g>
<!-- Node5 -->
<g id="Node000005" class="node">
<title>Node5</title>
<g id="a_Node000005"><a xlink:href="namespacetransform__.html#aa90019603231f23c1e857b5f5832b587" target="_top" xlink:title="Computes the azimuthal angle (Phi) from a momentum tensor.">
<polygon fill="white" stroke="#666666" points="1021,-323 930,-323 930,-304 1021,-304 1021,-323"/>
<text text-anchor="middle" x="975.5" y="-311" font-family="Helvetica,sans-Serif" font-size="10.00">transform_::Phi</text>
</a>
</g>
</g>
<!-- Node1&#45;&gt;Node5 -->
<g id="edge5_Node000001_Node000005" class="edge">
<title>Node1&#45;&gt;Node5</title>
<g id="a_edge5_Node000001_Node000005"><a xlink:title=" ">
<path fill="none" stroke="#63b8ff" d="M1073.01,-179.53C1049.63,-211.98 1001.24,-279.15 983.35,-304"/>
<polygon fill="#63b8ff" stroke="#63b8ff" points="1076.14,-181.17 1079.15,-171.01 1070.47,-177.08 1076.14,-181.17"/>
</a>
</g>
</g>
<!-- Node22 -->
<g id="Node000022" class="node">
<title>Node22</title>
<g id="a_Node000022"><a xlink:href="namespacetransform__.html#adf008ef1e94217cd7a7dae8c53a127a6" target="_top" xlink:title="Computes the transverse momentum (Pt), pseudorapidity (Eta), and azimuthal angle (Phi) from a momentu...">
<polygon fill="white" stroke="#666666" points="1033.5,-171 917.5,-171 917.5,-152 1033.5,-152 1033.5,-171"/>
<text text-anchor="middle" x="975.5" y="-159" font-family="Helvetica,sans-Serif" font-size="10.00">transform_::PtEtaPhi</text>
</a>
</g>
</g>
<!-- Node1&#45;&gt;Node22 -->
<g id="edge23_Node000001_Node000022" class="edge">
<title>Node1&#45;&gt;Node22</title>
<g id="a_edge23_Node000001_Node000022"><a xlink:title=" ">
<path fill="none" stroke="#63b8ff" d="M1059.82,-161.5C1051.89,-161.5 1042.85,-161.5 1033.73,-161.5"/>
<polygon fill="#63b8ff" stroke="#63b8ff" points="1059.84,-165 1069.84,-161.5 1059.84,-158 1059.84,-165"/>
</a>
</g>
</g>
<!-- Node33 -->
<g id="Node000033" class="node">
<title>Node33</title>
<g id="a_Node000033"><a xlink:href="namespacetransform__.html#a3cdf10dcac51733e3b2fb18cb2e6ff6e" target="_top" xlink:title="Computes the 3&#45;momentum (Px, Py, Pz) from a 4&#45;momentum tensor.">
<polygon fill="white" stroke="#666666" points="1031,-134 920,-134 920,-115 1031,-115 1031,-134"/>
<text text-anchor="middle" x="975.5" y="-122" font-family="Helvetica,sans-Serif" font-size="10.00">transform_::PxPyPz</text>
</a>
</g>
</g>
<!-- Node1&#45;&gt;Node33 -->
<g id="edge37_Node000001_Node000033" class="edge">
<title>Node1&#45;&gt;Node33</title>
<g id="a_edge37_Node000001_Node000033"><a xlink:title=" ">
<path fill="none" stroke="#63b8ff" d="M1060.06,-152.44C1051.75,-149.56 1042.49,-146.37 1034,-143.5 1024.84,-140.4 1014.83,-137.08 1005.78,-134.09"/>
<polygon fill="#63b8ff" stroke="#63b8ff" points="1059.03,-155.79 1069.63,-155.77 1061.33,-149.18 1059.03,-155.79"/>
</a>
</g>
</g>
<!-- Node34 -->
<g id="Node000034" class="node">
<title>Node34</title>
<g id="a_Node000034"><a xlink:href="namespacetransform__.html#aba5f46ef65e5c3ed8a6f7e5075552aa2" target="_top" xlink:title="Computes the 4&#45;momentum (Px, Py, Pz, E) from a 4&#45;momentum tensor.">
<polygon fill="white" stroke="#666666" points="1034,-97 917,-97 917,-78 1034,-78 1034,-97"/>
<text text-anchor="middle" x="975.5" y="-85" font-family="Helvetica,sans-Serif" font-size="10.00">transform_::PxPyPzE</text>
</a>
</g>
</g>
<!-- Node1&#45;&gt;Node34 -->
<g id="edge38_Node000001_Node000034" class="edge">
<title>Node1&#45;&gt;Node34</title>
<g id="a_edge38_Node000001_Node000034"><a xlink:title=" ">
<path fill="none" stroke="#63b8ff" d="M1073.21,-143.94C1063.62,-131.9 1049.53,-116.37 1034,-106.5 1028.06,-102.72 1021.28,-99.62 1014.53,-97.1"/>
<polygon fill="#63b8ff" stroke="#63b8ff" points="1070.49,-146.15 1079.35,-151.96 1076.05,-141.89 1070.49,-146.15"/>
</a>
</g>
</g>
<!-- Node2&#45;&gt;Node2 -->
<g id="edge2_Node000002_Node000002" class="edge">
<title>Node2&#45;&gt;Node2</title>
<g id="a_edge2_Node000002_Node000002"><a xlink:title=" ">
<path fill="none" stroke="#63b8ff" d="M995.87,-443.55C994.51,-448.38 987.72,-452 975.5,-452 955.95,-452 950.3,-442.73 958.55,-434.08"/>
<polygon fill="#63b8ff" stroke="#63b8ff" points="999.14,-442.3 992.45,-434.08 992.55,-444.68 999.14,-442.3"/>
</a>
</g>
</g>
<!-- Node3 -->
<g id="Node000003" class="node">
<title>Node3</title>
<g id="a_Node000003"><a xlink:href="namespacepyc_1_1transform_1_1combined.html#a963033c77bf433002e2f57a5a523b839" target="_top" xlink:title=" ">
<polygon fill="white" stroke="#666666" points="881,-471 717,-471 717,-452 881,-452 881,-471"/>
<text text-anchor="middle" x="799" y="-459" font-family="Helvetica,sans-Serif" font-size="10.00">pyc::transform::combined::Eta</text>
</a>
</g>
</g>
<!-- Node2&#45;&gt;Node3 -->
<g id="edge3_Node000002_Node000003" class="edge">
<title>Node2&#45;&gt;Node3</title>
<g id="a_edge3_Node000002_Node000003"><a xlink:title=" ">
<path fill="none" stroke="#63b8ff" d="M919.55,-436.15C895.58,-441.23 867.82,-447.12 845.09,-451.94"/>
<polygon fill="#63b8ff" stroke="#63b8ff" points="920.51,-439.53 929.56,-434.03 919.05,-432.68 920.51,-439.53"/>
</a>
</g>
</g>
<!-- Node4 -->
<g id="Node000004" class="node">
<title>Node4</title>
<g id="a_Node000004"><a xlink:href="namespacepyc_1_1transform_1_1separate.html#a8f1f98e325a77ab1d04d80be80a4bc41" target="_top" xlink:title=" ">
<polygon fill="white" stroke="#666666" points="878,-434 720,-434 720,-415 878,-415 878,-434"/>
<text text-anchor="middle" x="799" y="-422" font-family="Helvetica,sans-Serif" font-size="10.00">pyc::transform::separate::Eta</text>
</a>
</g>
</g>
<!-- Node2&#45;&gt;Node4 -->
<g id="edge4_Node000002_Node000004" class="edge">
<title>Node2&#45;&gt;Node4</title>
<g id="a_edge4_Node000002_Node000004"><a xlink:title=" ">
<path fill="none" stroke="#63b8ff" d="M918.98,-424.5C906.04,-424.5 892.01,-424.5 878.28,-424.5"/>
<polygon fill="#63b8ff" stroke="#63b8ff" points="919.11,-428 929.11,-424.5 919.11,-421 919.11,-428"/>
</a>
</g>
</g>
<!-- Node5&#45;&gt;Node5 -->
<g id="edge6_Node000005_Node000005" class="edge">
<title>Node5&#45;&gt;Node5</title>
<g id="a_edge6_Node000005_Node000005"><a xlink:title=" ">
<path fill="none" stroke="#63b8ff" d="M995.87,-332.55C994.51,-337.38 987.72,-341 975.5,-341 955.95,-341 950.3,-331.73 958.55,-323.08"/>
<polygon fill="#63b8ff" stroke="#63b8ff" points="999.14,-331.3 992.45,-323.08 992.55,-333.68 999.14,-331.3"/>
</a>
</g>
</g>
<!-- Node6 -->
<g id="Node000006" class="node">
<title>Node6</title>
<g id="a_Node000006"><a xlink:href="namespacepyc_1_1transform_1_1combined.html#a4305377c534019b9f8caa15e0c5f703e" target="_top" xlink:title=" ">
<polygon fill="white" stroke="#666666" points="880.5,-397 717.5,-397 717.5,-378 880.5,-378 880.5,-397"/>
<text text-anchor="middle" x="799" y="-385" font-family="Helvetica,sans-Serif" font-size="10.00">pyc::transform::combined::Phi</text>
</a>
</g>
</g>
<!-- Node5&#45;&gt;Node6 -->
<g id="edge7_Node000005_Node000006" class="edge">
<title>Node5&#45;&gt;Node6</title>
<g id="a_edge7_Node000005_Node000006"><a xlink:title=" ">
<path fill="none" stroke="#63b8ff" d="M953.39,-328.85C935.08,-341.48 907.44,-358.97 881,-369.5 872.57,-372.86 863.38,-375.66 854.32,-377.96"/>
<polygon fill="#63b8ff" stroke="#63b8ff" points="955.41,-331.71 961.58,-323.09 951.39,-325.98 955.41,-331.71"/>
</a>
</g>
</g>
<!-- Node8 -->
<g id="Node000008" class="node">
<title>Node8</title>
<g id="a_Node000008"><a xlink:href="namespacepyc_1_1transform_1_1separate.html#a630c8f6a6ee656a92fb133cbf28a2122" target="_top" xlink:title=" ">
<polygon fill="white" stroke="#666666" points="878,-360 720,-360 720,-341 878,-341 878,-360"/>
<text text-anchor="middle" x="799" y="-348" font-family="Helvetica,sans-Serif" font-size="10.00">pyc::transform::separate::Phi</text>
</a>
</g>
</g>
<!-- Node5&#45;&gt;Node8 -->
<g id="edge9_Node000005_Node000008" class="edge">
<title>Node5&#45;&gt;Node8</title>
<g id="a_edge9_Node000005_Node000008"><a xlink:title=" ">
<path fill="none" stroke="#63b8ff" d="M919.55,-325.15C895.58,-330.23 867.82,-336.12 845.09,-340.94"/>
<polygon fill="#63b8ff" stroke="#63b8ff" points="920.51,-328.53 929.56,-323.03 919.05,-321.68 920.51,-328.53"/>
</a>
</g>
</g>
<!-- Node9 -->
<g id="Node000009" class="node">
<title>Node9</title>
<g id="a_Node000009"><a xlink:href="namespacetransform__.html#a8d2ad529d804087c315e151410e4a7a1" target="_top" xlink:title="Computes the transverse momentum (Pt), pseudorapidity (Eta), and azimuthal angle (Phi) from x,...">
<polygon fill="white" stroke="#666666" points="857,-323 741,-323 741,-304 857,-304 857,-323"/>
<text text-anchor="middle" x="799" y="-311" font-family="Helvetica,sans-Serif" font-size="10.00">transform_::PtEtaPhi</text>
</a>
</g>
</g>
<!-- Node5&#45;&gt;Node9 -->
<g id="edge10_Node000005_Node000009" class="edge">
<title>Node5&#45;&gt;Node9</title>
<g id="a_edge10_Node000005_Node000009"><a xlink:title=" ">
<path fill="none" stroke="#63b8ff" d="M919.42,-313.5C899.53,-313.5 877.05,-313.5 857,-313.5"/>
<polygon fill="#63b8ff" stroke="#63b8ff" points="919.56,-317 929.56,-313.5 919.56,-310 919.56,-317"/>
</a>
</g>
</g>
<!-- Node10 -->
<g id="Node000010" class="node">
<title>Node10</title>
<g id="a_Node000010"><a xlink:href="nusol_2tensor_2nusol_8cxx.html#a28531a30b80ecbd780392279d8a8adf3" target="_top" xlink:title=" ">
<polygon fill="white" stroke="#666666" points="828,-286 770,-286 770,-267 828,-267 828,-286"/>
<text text-anchor="middle" x="799" y="-274" font-family="Helvetica,sans-Serif" font-size="10.00">Rotation</text>
</a>
</g>
</g>
<!-- Node5&#45;&gt;Node10 -->
<g id="edge11_Node000005_Node000010" class="edge">
<title>Node5&#45;&gt;Node10</title>
<g id="a_edge11_Node000005_Node000010"><a xlink:title=" ">
<path fill="none" stroke="#63b8ff" d="M919.52,-301.84C889.16,-295.41 852.73,-287.68 828.13,-282.47"/>
<polygon fill="#63b8ff" stroke="#63b8ff" points="919.05,-305.32 929.56,-303.97 920.51,-298.47 919.05,-305.32"/>
</a>
</g>
</g>
<!-- Node7 -->
<g id="Node000007" class="node">
<title>Node7</title>
<g id="a_Node000007"><a xlink:href="namespacepyc_1_1operators.html#a5c947d6968337f95f86e6925acc63dfa" target="_top" xlink:title=" ">
<polygon fill="white" stroke="#666666" points="653,-397 549,-397 549,-378 653,-378 653,-397"/>
<text text-anchor="middle" x="601" y="-385" font-family="Helvetica,sans-Serif" font-size="10.00">pyc::operators::RT</text>
</a>
</g>
</g>
<!-- Node6&#45;&gt;Node7 -->
<g id="edge8_Node000006_Node000007" class="edge">
<title>Node6&#45;&gt;Node7</title>
<g id="a_edge8_Node000006_Node000007"><a xlink:title=" ">
<path fill="none" stroke="#63b8ff" d="M707.42,-387.5C688.77,-387.5 669.75,-387.5 653.1,-387.5"/>
<polygon fill="#63b8ff" stroke="#63b8ff" points="707.43,-391 717.43,-387.5 707.43,-384 707.43,-391"/>
</a>
</g>
</g>
<!-- Node11 -->
<g id="Node000011" class="node">
<title>Node11</title>
<g id="a_Node000011"><a xlink:href="nusol_2tensor_2nusol_8cxx.html#ab477f38adf15df486af1a3311204aa26" target="_top" xlink:title=" ">
<polygon fill="white" stroke="#666666" points="621.5,-341 580.5,-341 580.5,-322 621.5,-322 621.5,-341"/>
<text text-anchor="middle" x="601" y="-329" font-family="Helvetica,sans-Serif" font-size="10.00">_xNu</text>
</a>
</g>
</g>
<!-- Node10&#45;&gt;Node11 -->
<g id="edge12_Node000010_Node000011" class="edge">
<title>Node10&#45;&gt;Node11</title>
<g id="a_edge12_Node000010_Node000011"><a xlink:title=" ">
<path fill="none" stroke="#63b8ff" d="M759.72,-283.56C746.04,-286.58 730.64,-290.57 717,-295.5 700.18,-301.58 697.84,-307.47 681,-313.5 661.27,-320.57 637.74,-325.5 621.52,-328.4"/>
<polygon fill="#63b8ff" stroke="#63b8ff" points="760.73,-286.92 769.79,-281.43 759.28,-280.07 760.73,-286.92"/>
</a>
</g>
</g>
<!-- Node14 -->
<g id="Node000014" class="node">
<title>Node14</title>
<g id="a_Node000014"><a xlink:href="namespacenusol__.html#a3aacd3a83799d6a470d6188008fd069a" target="_top" xlink:title=" ">
<polygon fill="white" stroke="#666666" points="642.5,-304 559.5,-304 559.5,-285 642.5,-285 642.5,-304"/>
<text text-anchor="middle" x="601" y="-292" font-family="Helvetica,sans-Serif" font-size="10.00">nusol_::Hperp</text>
</a>
</g>
</g>
<!-- Node10&#45;&gt;Node14 -->
<g id="edge15_Node000010_Node000014" class="edge">
<title>Node10&#45;&gt;Node14</title>
<g id="a_edge15_Node000010_Node000014"><a xlink:title=" ">
<path fill="none" stroke="#63b8ff" d="M759.54,-280.03C725.83,-283.13 676.98,-287.61 642.64,-290.77"/>
<polygon fill="#63b8ff" stroke="#63b8ff" points="760.28,-283.48 769.92,-279.08 759.64,-276.51 760.28,-283.48"/>
</a>
</g>
</g>
<!-- Node15 -->
<g id="Node000015" class="node">
<title>Node15</title>
<g id="a_Node000015"><a xlink:href="namespacenusol__.html#ac849ef3564c5ac968727dce36494fd0a" target="_top" xlink:title=" ">
<polygon fill="white" stroke="#666666" points="641.5,-267 560.5,-267 560.5,-248 641.5,-248 641.5,-267"/>
<text text-anchor="middle" x="601" y="-255" font-family="Helvetica,sans-Serif" font-size="10.00">nusol_::NuNu</text>
</a>
</g>
</g>
<!-- Node10&#45;&gt;Node15 -->
<g id="edge16_Node000010_Node000015" class="edge">
<title>Node10&#45;&gt;Node15</title>
<g id="a_edge16_Node000010_Node000015"><a xlink:title=" ">
<path fill="none" stroke="#63b8ff" d="M759.88,-272.8C725.8,-269.5 676.06,-264.68 641.56,-261.33"/>
<polygon fill="#63b8ff" stroke="#63b8ff" points="759.63,-276.3 769.92,-273.78 760.3,-269.33 759.63,-276.3"/>
</a>
</g>
</g>
<!-- Node12 -->
<g id="Node000012" class="node">
<title>Node12</title>
<g id="a_Node000012"><a xlink:href="namespacenusol__.html#a6f05175e14627bd3c34ffa61686b7da4" target="_top" xlink:title=" ">
<polygon fill="white" stroke="#666666" points="439,-341 371,-341 371,-322 439,-322 439,-341"/>
<text text-anchor="middle" x="405" y="-329" font-family="Helvetica,sans-Serif" font-size="10.00">nusol_::Nu</text>
</a>
</g>
</g>
<!-- Node11&#45;&gt;Node12 -->
<g id="edge13_Node000011_Node000012" class="edge">
<title>Node11&#45;&gt;Node12</title>
<g id="a_edge13_Node000011_Node000012"><a xlink:title=" ">
<path fill="none" stroke="#63b8ff" d="M570.16,-331.5C534.81,-331.5 476.08,-331.5 439.29,-331.5"/>
<polygon fill="#63b8ff" stroke="#63b8ff" points="570.33,-335 580.33,-331.5 570.33,-328 570.33,-335"/>
</a>
</g>
</g>
<!-- Node13 -->
<g id="Node000013" class="node">
<title>Node13</title>
<g id="a_Node000013"><a xlink:href="namespacepyc_1_1nusol.html#a991cfa801400211ccf412bd1a85b7b69" target="_top" xlink:title=" ">
<polygon fill="white" stroke="#666666" points="261.5,-341 175.5,-341 175.5,-322 261.5,-322 261.5,-341"/>
<text text-anchor="middle" x="218.5" y="-329" font-family="Helvetica,sans-Serif" font-size="10.00">pyc::nusol::Nu</text>
</a>
</g>
</g>
<!-- Node12&#45;&gt;Node13 -->
<g id="edge14_Node000012_Node000013" class="edge">
<title>Node12&#45;&gt;Node13</title>
<g id="a_edge14_Node000012_Node000013"><a xlink:title=" ">
<path fill="none" stroke="#63b8ff" d="M360.47,-331.5C330.64,-331.5 291.29,-331.5 261.74,-331.5"/>
<polygon fill="#63b8ff" stroke="#63b8ff" points="360.59,-335 370.59,-331.5 360.59,-328 360.59,-335"/>
</a>
</g>
</g>
<!-- Node16 -->
<g id="Node000016" class="node">
<title>Node16</title>
<g id="a_Node000016"><a xlink:href="namespacepyc_1_1nusol.html#af7bb509b120cb3314695cecd70bc5c11" target="_top" xlink:title=" ">
<polygon fill="white" stroke="#666666" points="454.5,-304 355.5,-304 355.5,-285 454.5,-285 454.5,-304"/>
<text text-anchor="middle" x="405" y="-292" font-family="Helvetica,sans-Serif" font-size="10.00">pyc::nusol::NuNu</text>
</a>
</g>
</g>
<!-- Node15&#45;&gt;Node16 -->
<g id="edge17_Node000015_Node000016" class="edge">
<title>Node15&#45;&gt;Node16</title>
<g id="a_edge17_Node000015_Node000016"><a xlink:title=" ">
<path fill="none" stroke="#63b8ff" d="M550.22,-266.99C520.83,-272.6 483.8,-279.66 454.61,-285.23"/>
<polygon fill="#63b8ff" stroke="#63b8ff" points="551.11,-270.39 560.27,-265.08 549.79,-263.51 551.11,-270.39"/>
</a>
</g>
</g>
<!-- Node17 -->
<g id="Node000017" class="node">
<title>Node17</title>
<g id="a_Node000017"><a xlink:href="namespacepyc_1_1nusol.html#a9650527ae538fa27121bedfb79a1fbe6" target="_top" xlink:title=" ">
<polygon fill="white" stroke="#666666" points="454.5,-267 355.5,-267 355.5,-248 454.5,-248 454.5,-267"/>
<text text-anchor="middle" x="405" y="-255" font-family="Helvetica,sans-Serif" font-size="10.00">pyc::nusol::NuNu</text>
</a>
</g>
</g>
<!-- Node15&#45;&gt;Node17 -->
<g id="edge18_Node000015_Node000017" class="edge">
<title>Node15&#45;&gt;Node17</title>
<g id="a_edge18_Node000015_Node000017"><a xlink:title=" ">
<path fill="none" stroke="#63b8ff" d="M550.22,-257.5C520.83,-257.5 483.8,-257.5 454.61,-257.5"/>
<polygon fill="#63b8ff" stroke="#63b8ff" points="550.27,-261 560.27,-257.5 550.27,-254 550.27,-261"/>
</a>
</g>
</g>
<!-- Node18 -->
<g id="Node000018" class="node">
<title>Node18</title>
<g id="a_Node000018"><a xlink:href="namespacepyc_1_1nusol.html#aaaf252028ed63bf2d561dffcd76916e2" target="_top" xlink:title=" ">
<polygon fill="white" stroke="#666666" points="268,-304 169,-304 169,-285 268,-285 268,-304"/>
<text text-anchor="middle" x="218.5" y="-292" font-family="Helvetica,sans-Serif" font-size="10.00">pyc::nusol::NuNu</text>
</a>
</g>
</g>
<!-- Node17&#45;&gt;Node18 -->
<g id="edge19_Node000017_Node000018" class="edge">
<title>Node17&#45;&gt;Node18</title>
<g id="a_edge19_Node000017_Node000018"><a xlink:title=" ">
<path fill="none" stroke="#63b8ff" d="M346.58,-269.02C321.08,-274.13 291.42,-280.08 267.17,-284.94"/>
<polygon fill="#63b8ff" stroke="#63b8ff" points="347.37,-272.43 356.49,-267.03 345.99,-265.56 347.37,-272.43"/>
</a>
</g>
</g>
<!-- Node19 -->
<g id="Node000019" class="node">
<title>Node19</title>
<g id="a_Node000019"><a xlink:href="namespacepyc_1_1nusol.html#af88804c21a54435a41be99cbc03faf30" target="_top" xlink:title=" ">
<polygon fill="white" stroke="#666666" points="268,-267 169,-267 169,-248 268,-248 268,-267"/>
<text text-anchor="middle" x="218.5" y="-255" font-family="Helvetica,sans-Serif" font-size="10.00">pyc::nusol::NuNu</text>
</a>
</g>
</g>
<!-- Node17&#45;&gt;Node19 -->
<g id="edge20_Node000017_Node000019" class="edge">
<title>Node17&#45;&gt;Node19</title>
<g id="a_edge20_Node000017_Node000019"><a xlink:title=" ">
<path fill="none" stroke="#63b8ff" d="M345.01,-257.5C320.18,-257.5 291.63,-257.5 268.05,-257.5"/>
<polygon fill="#63b8ff" stroke="#63b8ff" points="345.04,-261 355.04,-257.5 345.04,-254 345.04,-261"/>
</a>
</g>
</g>
<!-- Node20 -->
<g id="Node000020" class="node">
<title>Node20</title>
<g id="a_Node000020"><a xlink:href="classvalidation.html#aa436b348c281a3d676910cf7b7d575eb" target="_top" xlink:title=" ">
<polygon fill="white" stroke="#666666" points="289,-230 148,-230 148,-211 289,-211 289,-230"/>
<text text-anchor="middle" x="218.5" y="-218" font-family="Helvetica,sans-Serif" font-size="10.00">validation::reconstruction</text>
</a>
</g>
</g>
<!-- Node17&#45;&gt;Node20 -->
<g id="edge21_Node000017_Node000020" class="edge">
<title>Node17&#45;&gt;Node20</title>
<g id="a_edge21_Node000017_Node000020"><a xlink:title=" ">
<path fill="none" stroke="#63b8ff" d="M346.58,-245.98C321.08,-240.87 291.42,-234.92 267.17,-230.06"/>
<polygon fill="#63b8ff" stroke="#63b8ff" points="345.99,-249.44 356.49,-247.97 347.37,-242.57 345.99,-249.44"/>
</a>
</g>
</g>
<!-- Node21 -->
<g id="Node000021" class="node">
<title>Node21</title>
<g id="a_Node000021"><a xlink:href="classvalidation.html#af388ba0e867008a75602581fdc2ed0f3" target="_top" xlink:title="Alternative selection strategy method.">
<polygon fill="white" stroke="#666666" points="112,-230 0,-230 0,-211 112,-211 112,-230"/>
<text text-anchor="middle" x="56" y="-218" font-family="Helvetica,sans-Serif" font-size="10.00">validation::strategy</text>
</a>
</g>
</g>
<!-- Node20&#45;&gt;Node21 -->
<g id="edge22_Node000020_Node000021" class="edge">
<title>Node20&#45;&gt;Node21</title>
<g id="a_edge22_Node000020_Node000021"><a xlink:title=" ">
<path fill="none" stroke="#63b8ff" d="M137.54,-220.5C128.98,-220.5 120.41,-220.5 112.23,-220.5"/>
<polygon fill="#63b8ff" stroke="#63b8ff" points="137.57,-224 147.57,-220.5 137.57,-217 137.57,-224"/>
</a>
</g>
</g>
<!-- Node22&#45;&gt;Node22 -->
<g id="edge30_Node000022_Node000022" class="edge">
<title>Node22&#45;&gt;Node22</title>
<g id="a_edge30_Node000022_Node000022"><a xlink:title=" ">
<path fill="none" stroke="#63b8ff" d="M995.87,-180.55C994.51,-185.38 987.72,-189 975.5,-189 955.95,-189 950.3,-179.73 958.55,-171.08"/>
<polygon fill="#63b8ff" stroke="#63b8ff" points="999.14,-179.3 992.45,-171.08 992.55,-181.68 999.14,-179.3"/>
</a>
</g>
</g>
<!-- Node23 -->
<g id="Node000023" class="node">
<title>Node23</title>
<g id="a_Node000023"><a xlink:href="namespacepyc_1_1physics_1_1cartesian_1_1combined.html#ada89277d3b7f28e15501e5c943516fe0" target="_top" xlink:title=" ">
<polygon fill="white" stroke="#666666" points="863,-248.5 735,-248.5 735,-218.5 863,-218.5 863,-248.5"/>
<text text-anchor="start" x="743" y="-236.5" font-family="Helvetica,sans-Serif" font-size="10.00">pyc::physics::cartesian</text>
<text text-anchor="middle" x="799" y="-225.5" font-family="Helvetica,sans-Serif" font-size="10.00">::combined::DeltaR</text>
</a>
</g>
</g>
<!-- Node22&#45;&gt;Node23 -->
<g id="edge24_Node000022_Node000023" class="edge">
<title>Node22&#45;&gt;Node23</title>
<g id="a_edge24_Node000022_Node000023"><a xlink:title=" ">
<path fill="none" stroke="#63b8ff" d="M949.11,-176.17C930.64,-186.43 904.8,-199.96 881,-209.5 872.97,-212.72 864.34,-215.73 855.81,-218.46"/>
<polygon fill="#63b8ff" stroke="#63b8ff" points="951.05,-179.09 958.05,-171.14 947.62,-172.99 951.05,-179.09"/>
</a>
</g>
</g>
<!-- Node26 -->
<g id="Node000026" class="node">
<title>Node26</title>
<g id="a_Node000026"><a xlink:href="namespacepyc_1_1physics_1_1cartesian_1_1separate.html#adbd2ec240755f1bf46b2c157f0325669" target="_top" xlink:title=" ">
<polygon fill="white" stroke="#666666" points="863,-200.5 735,-200.5 735,-170.5 863,-170.5 863,-200.5"/>
<text text-anchor="start" x="743" y="-188.5" font-family="Helvetica,sans-Serif" font-size="10.00">pyc::physics::cartesian</text>
<text text-anchor="middle" x="799" y="-177.5" font-family="Helvetica,sans-Serif" font-size="10.00">::separate::DeltaR</text>
</a>
</g>
</g>
<!-- Node22&#45;&gt;Node26 -->
<g id="edge29_Node000022_Node000026" class="edge">
<title>Node22&#45;&gt;Node26</title>
<g id="a_edge29_Node000022_Node000026"><a xlink:title=" ">
<path fill="none" stroke="#63b8ff" d="M907.05,-170.78C892.66,-172.76 877.52,-174.84 863.3,-176.79"/>
<polygon fill="#63b8ff" stroke="#63b8ff" points="907.93,-174.19 917.36,-169.36 906.98,-167.25 907.93,-174.19"/>
</a>
</g>
</g>
<!-- Node27 -->
<g id="Node000027" class="node">
<title>Node27</title>
<g id="a_Node000027"><a xlink:href="namespacepyc_1_1transform_1_1combined.html#aef62cf52a35f4aef17136491672c9caa" target="_top" xlink:title=" ">
<polygon fill="white" stroke="#666666" points="870,-152.5 728,-152.5 728,-122.5 870,-122.5 870,-152.5"/>
<text text-anchor="start" x="736" y="-140.5" font-family="Helvetica,sans-Serif" font-size="10.00">pyc::transform::combined</text>
<text text-anchor="middle" x="799" y="-129.5" font-family="Helvetica,sans-Serif" font-size="10.00">::PtEtaPhi</text>
</a>
</g>
</g>
<!-- Node22&#45;&gt;Node27 -->
<g id="edge31_Node000022_Node000027" class="edge">
<title>Node22&#45;&gt;Node27</title>
<g id="a_edge31_Node000022_Node000027"><a xlink:title=" ">
<path fill="none" stroke="#63b8ff" d="M907.27,-152.25C895.08,-150.58 882.34,-148.82 870.06,-147.14"/>
<polygon fill="#63b8ff" stroke="#63b8ff" points="906.98,-155.75 917.36,-153.64 907.93,-148.81 906.98,-155.75"/>
</a>
</g>
</g>
<!-- Node28 -->
<g id="Node000028" class="node">
<title>Node28</title>
<g id="a_Node000028"><a xlink:href="namespacepyc_1_1transform_1_1separate.html#ad60db4e9ce774257d24304aa205418a8" target="_top" xlink:title=" ">
<polygon fill="white" stroke="#666666" points="867.5,-104.5 730.5,-104.5 730.5,-74.5 867.5,-74.5 867.5,-104.5"/>
<text text-anchor="start" x="738.5" y="-92.5" font-family="Helvetica,sans-Serif" font-size="10.00">pyc::transform::separate</text>
<text text-anchor="middle" x="799" y="-81.5" font-family="Helvetica,sans-Serif" font-size="10.00">::PtEtaPhi</text>
</a>
</g>
</g>
<!-- Node22&#45;&gt;Node28 -->
<g id="edge32_Node000022_Node000028" class="edge">
<title>Node22&#45;&gt;Node28</title>
<g id="a_edge32_Node000022_Node000028"><a xlink:title=" ">
<path fill="none" stroke="#63b8ff" d="M927.14,-148.34C923.64,-146.87 920.22,-145.26 917,-143.5 898.71,-133.53 899.36,-123.33 881,-113.5 874.66,-110.11 867.79,-107.14 860.8,-104.55"/>
<polygon fill="#63b8ff" stroke="#63b8ff" points="925.92,-151.63 936.51,-151.93 928.42,-145.09 925.92,-151.63"/>
</a>
</g>
</g>
<!-- Node29 -->
<g id="Node000029" class="node">
<title>Node29</title>
<g id="a_Node000029"><a xlink:href="namespacetransform__.html#a59a9589e3d78c302e6f52b2fcd5ceedb" target="_top" xlink:title="Computes the transverse momentum (Pt), pseudorapidity (Eta), azimuthal angle (Phi),...">
<polygon fill="white" stroke="#666666" points="860,-56 738,-56 738,-37 860,-37 860,-56"/>
<text text-anchor="middle" x="799" y="-44" font-family="Helvetica,sans-Serif" font-size="10.00">transform_::PtEtaPhiE</text>
</a>
</g>
</g>
<!-- Node22&#45;&gt;Node29 -->
<g id="edge33_Node000022_Node000029" class="edge">
<title>Node22&#45;&gt;Node29</title>
<g id="a_edge33_Node000022_Node000029"><a xlink:title=" ">
<path fill="none" stroke="#63b8ff" d="M921.27,-146.83C919.78,-145.8 918.35,-144.69 917,-143.5 888.32,-118.3 910.58,-89.64 881,-65.5 874.84,-60.48 867.6,-56.74 860.01,-53.96"/>
<polygon fill="#63b8ff" stroke="#63b8ff" points="919.93,-150.1 930.36,-152 923.39,-144.01 919.93,-150.1"/>
</a>
</g>
</g>
<!-- Node32 -->
<g id="Node000032" class="node">
<title>Node32</title>
<g id="a_Node000032"><a xlink:href="namespacetransform__.html#a0564930def9a67318624f21aa822860e" target="_top" xlink:title="Computes the transverse momentum (Pt), pseudorapidity (Eta), azimuthal angle (Phi),...">
<polygon fill="white" stroke="#666666" points="860,-19 738,-19 738,0 860,0 860,-19"/>
<text text-anchor="middle" x="799" y="-7" font-family="Helvetica,sans-Serif" font-size="10.00">transform_::PtEtaPhiE</text>
</a>
</g>
</g>
<!-- Node22&#45;&gt;Node32 -->
<g id="edge36_Node000022_Node000032" class="edge">
<title>Node22&#45;&gt;Node32</title>
<g id="a_edge36_Node000022_Node000032"><a xlink:title=" ">
<path fill="none" stroke="#63b8ff" d="M920.01,-146.22C918.96,-145.36 917.96,-144.46 917,-143.5 879.13,-105.63 920.23,-64.96 881,-28.5 875.08,-22.99 867.87,-18.99 860.22,-16.09"/>
<polygon fill="#63b8ff" stroke="#63b8ff" points="918.48,-149.4 928.77,-151.9 922.29,-143.52 918.48,-149.4"/>
</a>
</g>
</g>
<!-- Node24 -->
<g id="Node000024" class="node">
<title>Node24</title>
<g id="a_Node000024"><a xlink:href="classrecursivegraphneuralnetwork.html#a7c83216c5899b14dcc03ccf368209ee1" target="_top" xlink:title=" ">
<polygon fill="white" stroke="#666666" points="681,-211.5 521,-211.5 521,-181.5 681,-181.5 681,-211.5"/>
<text text-anchor="start" x="529" y="-199.5" font-family="Helvetica,sans-Serif" font-size="10.00">recursivegraphneuralnetwork</text>
<text text-anchor="middle" x="601" y="-188.5" font-family="Helvetica,sans-Serif" font-size="10.00">::message</text>
</a>
</g>
</g>
<!-- Node23&#45;&gt;Node24 -->
<g id="edge25_Node000023_Node000024" class="edge">
<title>Node23&#45;&gt;Node24</title>
<g id="a_edge25_Node000023_Node000024"><a xlink:title=" ">
<path fill="none" stroke="#63b8ff" d="M724.7,-219.66C710.49,-216.98 695.53,-214.16 681.14,-211.44"/>
<polygon fill="#63b8ff" stroke="#63b8ff" points="724.43,-223.17 734.91,-221.59 725.73,-216.29 724.43,-223.17"/>
</a>
</g>
</g>
<!-- Node25 -->
<g id="Node000025" class="node">
<title>Node25</title>
<g id="a_Node000025"><a xlink:href="classrecursivegraphneuralnetwork.html#a4b09bc8de8d9ecd0b4ff1ffa94deea98" target="_top" xlink:title="Virtual forward pass method for a single graph.">
<polygon fill="white" stroke="#666666" points="485,-211.5 325,-211.5 325,-181.5 485,-181.5 485,-211.5"/>
<text text-anchor="start" x="333" y="-199.5" font-family="Helvetica,sans-Serif" font-size="10.00">recursivegraphneuralnetwork</text>
<text text-anchor="middle" x="405" y="-188.5" font-family="Helvetica,sans-Serif" font-size="10.00">::forward</text>
</a>
</g>
</g>
<!-- Node24&#45;&gt;Node25 -->
<g id="edge26_Node000024_Node000025" class="edge">
<title>Node24&#45;&gt;Node25</title>
<g id="a_edge26_Node000024_Node000025"><a xlink:title=" ">
<path fill="none" stroke="#63b8ff" d="M510.56,-189.77C502.12,-189.73 493.59,-189.76 485.25,-189.85"/>
<polygon fill="#63b8ff" stroke="#63b8ff" points="510.78,-193.27 520.81,-189.85 510.84,-186.27 510.78,-193.27"/>
</a>
</g>
</g>
<!-- Node25&#45;&gt;Node24 -->
<g id="edge28_Node000025_Node000024" class="edge">
<title>Node25&#45;&gt;Node24</title>
<g id="a_edge28_Node000025_Node000024"><a xlink:title=" ">
<path fill="none" stroke="#63b8ff" d="M495.5,-203.23C503.95,-203.27 512.47,-203.24 520.81,-203.15"/>
<polygon fill="#63b8ff" stroke="#63b8ff" points="495.28,-199.73 485.25,-203.15 495.22,-206.73 495.28,-199.73"/>
</a>
</g>
</g>
<!-- Node25&#45;&gt;Node25 -->
<g id="edge27_Node000025_Node000025" class="edge">
<title>Node25&#45;&gt;Node25</title>
<g id="a_edge27_Node000025_Node000025"><a xlink:title=" ">
<path fill="none" stroke="#63b8ff" d="M437.56,-222.1C433.11,-226.47 422.26,-229.5 405,-229.5 375.94,-229.5 365.04,-220.91 372.3,-211.78"/>
<polygon fill="#63b8ff" stroke="#63b8ff" points="441.06,-221.82 437.7,-211.78 434.06,-221.73 441.06,-221.82"/>
</a>
</g>
</g>
<!-- Node30 -->
<g id="Node000030" class="node">
<title>Node30</title>
<g id="a_Node000030"><a xlink:href="namespacepyc_1_1transform_1_1combined.html#a540024e0d49fe477d984815f6844ea5a" target="_top" xlink:title=" ">
<polygon fill="white" stroke="#666666" points="672,-85.5 530,-85.5 530,-55.5 672,-55.5 672,-85.5"/>
<text text-anchor="start" x="538" y="-73.5" font-family="Helvetica,sans-Serif" font-size="10.00">pyc::transform::combined</text>
<text text-anchor="middle" x="601" y="-62.5" font-family="Helvetica,sans-Serif" font-size="10.00">::PtEtaPhiE</text>
</a>
</g>
</g>
<!-- Node29&#45;&gt;Node30 -->
<g id="edge34_Node000029_Node000030" class="edge">
<title>Node29&#45;&gt;Node30</title>
<g id="a_edge34_Node000029_Node000030"><a xlink:title=" ">
<path fill="none" stroke="#63b8ff" d="M727.73,-55.1C709.72,-57.31 690.35,-59.68 672.34,-61.89"/>
<polygon fill="#63b8ff" stroke="#63b8ff" points="728.36,-58.55 737.86,-53.86 727.51,-51.61 728.36,-58.55"/>
</a>
</g>
</g>
<!-- Node31 -->
<g id="Node000031" class="node">
<title>Node31</title>
<g id="a_Node000031"><a xlink:href="namespacepyc_1_1transform_1_1separate.html#aa89702a61f7eecf64504a32f99b2f9af" target="_top" xlink:title=" ">
<polygon fill="white" stroke="#666666" points="669.5,-37.5 532.5,-37.5 532.5,-7.5 669.5,-7.5 669.5,-37.5"/>
<text text-anchor="start" x="540.5" y="-25.5" font-family="Helvetica,sans-Serif" font-size="10.00">pyc::transform::separate</text>
<text text-anchor="middle" x="601" y="-14.5" font-family="Helvetica,sans-Serif" font-size="10.00">::PtEtaPhiE</text>
</a>
</g>
</g>
<!-- Node29&#45;&gt;Node31 -->
<g id="edge35_Node000029_Node000031" class="edge">
<title>Node29&#45;&gt;Node31</title>
<g id="a_edge35_Node000029_Node000031"><a xlink:title=" ">
<path fill="none" stroke="#63b8ff" d="M727.8,-37.9C708.84,-35.58 688.37,-33.08 669.55,-30.77"/>
<polygon fill="#63b8ff" stroke="#63b8ff" points="727.51,-41.39 737.86,-39.14 728.36,-34.45 727.51,-41.39"/>
</a>
</g>
</g>
</g>
</svg>
