<?xml version="1.0" encoding="UTF-8" standalone="no"?>
<!DOCTYPE svg PUBLIC "-//W3C//DTD SVG 1.1//EN"
 "http://www.w3.org/Graphics/SVG/1.1/DTD/svg11.dtd">
<!-- Generated by graphviz version 2.43.0 (0)
 -->
<!-- Title: vector_cast.h Pages: 1 -->
<svg width="547pt" height="137pt"
 viewBox="0.00 0.00 547.00 137.00" xmlns="http://www.w3.org/2000/svg" xmlns:xlink="http://www.w3.org/1999/xlink">
<g id="graph0" class="graph" transform="scale(1 1) rotate(0) translate(4 133)">
<title>vector_cast.h</title>
<!-- Node1 -->
<g id="Node000001" class="node">
<title>Node1</title>
<g id="a_Node000001"><a xlink:title=" ">
<polygon fill="#999999" stroke="#666666" points="368,-129 286,-129 286,-110 368,-110 368,-129"/>
<text text-anchor="middle" x="327" y="-117" font-family="Helvetica,sans-Serif" font-size="10.00">vector_cast.h</text>
</a>
</g>
</g>
<!-- Node2 -->
<g id="Node000002" class="node">
<title>Node2</title>
<g id="a_Node000002"><a xlink:title=" ">
<polygon fill="#e0e0e0" stroke="#999999" points="126,-74 0,-74 0,-55 126,-55 126,-74"/>
<text text-anchor="middle" x="63" y="-62" font-family="Helvetica,sans-Serif" font-size="10.00">c10/core/DeviceType.h</text>
</a>
</g>
</g>
<!-- Node1&#45;&gt;Node2 -->
<g id="edge1_Node000001_Node000002" class="edge">
<title>Node1&#45;&gt;Node2</title>
<g id="a_edge1_Node000001_Node000002"><a xlink:title=" ">
<path fill="none" stroke="#63b8ff" d="M285.75,-110.22C239.89,-101.01 165.71,-86.12 115.69,-76.08"/>
<polygon fill="#63b8ff" stroke="#63b8ff" points="116.2,-72.61 105.71,-74.07 114.83,-79.47 116.2,-72.61"/>
</a>
</g>
</g>
<!-- Node3 -->
<g id="Node000003" class="node">
<title>Node3</title>
<g id="a_Node000003"><a xlink:href="structs_2include_2structs_2meta_8h.html" target="_top" xlink:title="Defines metadata structures for physics analysis datasets.">
<polygon fill="white" stroke="#666666" points="231.5,-74 144.5,-74 144.5,-55 231.5,-55 231.5,-74"/>
<text text-anchor="middle" x="188" y="-62" font-family="Helvetica,sans-Serif" font-size="10.00">structs/meta.h</text>
</a>
</g>
</g>
<!-- Node1&#45;&gt;Node3 -->
<g id="edge2_Node000001_Node000003" class="edge">
<title>Node1&#45;&gt;Node3</title>
<g id="a_edge2_Node000001_Node000003"><a xlink:title=" ">
<path fill="none" stroke="#63b8ff" d="M304.67,-109.98C281.8,-101.27 246.04,-87.63 220.14,-77.75"/>
<polygon fill="#63b8ff" stroke="#63b8ff" points="221.33,-74.46 210.74,-74.17 218.84,-81 221.33,-74.46"/>
</a>
</g>
</g>
<!-- Node6 -->
<g id="Node000006" class="node">
<title>Node6</title>
<g id="a_Node000006"><a xlink:title=" ">
<polygon fill="#e0e0e0" stroke="#999999" points="334.5,-19 287.5,-19 287.5,0 334.5,0 334.5,-19"/>
<text text-anchor="middle" x="311" y="-7" font-family="Helvetica,sans-Serif" font-size="10.00">vector</text>
</a>
</g>
</g>
<!-- Node1&#45;&gt;Node6 -->
<g id="edge14_Node000001_Node000006" class="edge">
<title>Node1&#45;&gt;Node6</title>
<g id="a_edge14_Node000001_Node000006"><a xlink:title=" ">
<path fill="none" stroke="#63b8ff" d="M332.55,-109.78C339.66,-97.45 350.37,-74.29 344,-55 340.54,-44.54 333.57,-34.53 326.92,-26.66"/>
<polygon fill="#63b8ff" stroke="#63b8ff" points="329.33,-24.1 320.02,-19.04 324.14,-28.8 329.33,-24.1"/>
</a>
</g>
</g>
<!-- Node8 -->
<g id="Node000008" class="node">
<title>Node8</title>
<g id="a_Node000008"><a xlink:href="modules_2structs_2include_2structs_2base_8h.html" target="_top" xlink:title="Defines fundamental data structures and type handling for the AnalysisG framework.">
<polygon fill="white" stroke="#666666" points="334.5,-74 249.5,-74 249.5,-55 334.5,-55 334.5,-74"/>
<text text-anchor="middle" x="292" y="-62" font-family="Helvetica,sans-Serif" font-size="10.00">structs/base.h</text>
</a>
</g>
</g>
<!-- Node1&#45;&gt;Node8 -->
<g id="edge7_Node000001_Node000008" class="edge">
<title>Node1&#45;&gt;Node8</title>
<g id="a_edge7_Node000001_Node000008"><a xlink:title=" ">
<path fill="none" stroke="#63b8ff" d="M321.22,-109.75C316.38,-102.42 309.32,-91.73 303.36,-82.7"/>
<polygon fill="#63b8ff" stroke="#63b8ff" points="306.1,-80.5 297.67,-74.09 300.26,-84.36 306.1,-80.5"/>
</a>
</g>
</g>
<!-- Node10 -->
<g id="Node000010" class="node">
<title>Node10</title>
<g id="a_Node000010"><a xlink:title=" ">
<polygon fill="#e0e0e0" stroke="#999999" points="469,-74 391,-74 391,-55 469,-55 469,-74"/>
<text text-anchor="middle" x="430" y="-62" font-family="Helvetica,sans-Serif" font-size="10.00">torch/torch.h</text>
</a>
</g>
</g>
<!-- Node1&#45;&gt;Node10 -->
<g id="edge12_Node000001_Node000010" class="edge">
<title>Node1&#45;&gt;Node10</title>
<g id="a_edge12_Node000001_Node000010"><a xlink:title=" ">
<path fill="none" stroke="#63b8ff" d="M343.55,-109.98C359.89,-101.57 385.13,-88.59 404.13,-78.81"/>
<polygon fill="#63b8ff" stroke="#63b8ff" points="405.86,-81.86 413.15,-74.17 402.66,-75.63 405.86,-81.86"/>
</a>
</g>
</g>
<!-- Node11 -->
<g id="Node000011" class="node">
<title>Node11</title>
<g id="a_Node000011"><a xlink:title=" ">
<polygon fill="#e0e0e0" stroke="#999999" points="539,-74 487,-74 487,-55 539,-55 539,-74"/>
<text text-anchor="middle" x="513" y="-62" font-family="Helvetica,sans-Serif" font-size="10.00">TTree.h</text>
</a>
</g>
</g>
<!-- Node1&#45;&gt;Node11 -->
<g id="edge13_Node000001_Node000011" class="edge">
<title>Node1&#45;&gt;Node11</title>
<g id="a_edge13_Node000001_Node000011"><a xlink:title=" ">
<path fill="none" stroke="#63b8ff" d="M356.88,-109.98C389.6,-100.66 442.04,-85.72 476.99,-75.76"/>
<polygon fill="#63b8ff" stroke="#63b8ff" points="478.14,-79.07 486.8,-72.97 476.22,-72.34 478.14,-79.07"/>
</a>
</g>
</g>
<!-- Node4 -->
<g id="Node000004" class="node">
<title>Node4</title>
<g id="a_Node000004"><a xlink:title=" ">
<polygon fill="#e0e0e0" stroke="#999999" points="151,-19 91,-19 91,0 151,0 151,-19"/>
<text text-anchor="middle" x="121" y="-7" font-family="Helvetica,sans-Serif" font-size="10.00">iostream</text>
</a>
</g>
</g>
<!-- Node3&#45;&gt;Node4 -->
<g id="edge3_Node000003_Node000004" class="edge">
<title>Node3&#45;&gt;Node4</title>
<g id="a_edge3_Node000003_Node000004"><a xlink:title=" ">
<path fill="none" stroke="#63b8ff" d="M177.24,-54.98C167.23,-47.07 152.11,-35.11 140.07,-25.58"/>
<polygon fill="#63b8ff" stroke="#63b8ff" points="141.97,-22.63 131.96,-19.17 137.63,-28.12 141.97,-22.63"/>
</a>
</g>
</g>
<!-- Node5 -->
<g id="Node000005" class="node">
<title>Node5</title>
<g id="a_Node000005"><a xlink:title=" ">
<polygon fill="#e0e0e0" stroke="#999999" points="269,-19 225,-19 225,0 269,0 269,-19"/>
<text text-anchor="middle" x="247" y="-7" font-family="Helvetica,sans-Serif" font-size="10.00">string</text>
</a>
</g>
</g>
<!-- Node3&#45;&gt;Node5 -->
<g id="edge4_Node000003_Node000005" class="edge">
<title>Node3&#45;&gt;Node5</title>
<g id="a_edge4_Node000003_Node000005"><a xlink:title=" ">
<path fill="none" stroke="#63b8ff" d="M197.48,-54.98C206.2,-47.15 219.34,-35.34 229.9,-25.86"/>
<polygon fill="#63b8ff" stroke="#63b8ff" points="232.25,-28.46 237.35,-19.17 227.57,-23.25 232.25,-28.46"/>
</a>
</g>
</g>
<!-- Node3&#45;&gt;Node6 -->
<g id="edge5_Node000003_Node000006" class="edge">
<title>Node3&#45;&gt;Node6</title>
<g id="a_edge5_Node000003_Node000006"><a xlink:title=" ">
<path fill="none" stroke="#63b8ff" d="M207.76,-54.98C227.73,-46.38 258.8,-32.99 281.65,-23.15"/>
<polygon fill="#63b8ff" stroke="#63b8ff" points="283.08,-26.34 290.88,-19.17 280.31,-19.91 283.08,-26.34"/>
</a>
</g>
</g>
<!-- Node7 -->
<g id="Node000007" class="node">
<title>Node7</title>
<g id="a_Node000007"><a xlink:title=" ">
<polygon fill="#e0e0e0" stroke="#999999" points="207,-19 169,-19 169,0 207,0 207,-19"/>
<text text-anchor="middle" x="188" y="-7" font-family="Helvetica,sans-Serif" font-size="10.00">map</text>
</a>
</g>
</g>
<!-- Node3&#45;&gt;Node7 -->
<g id="edge6_Node000003_Node000007" class="edge">
<title>Node3&#45;&gt;Node7</title>
<g id="a_edge6_Node000003_Node000007"><a xlink:title=" ">
<path fill="none" stroke="#63b8ff" d="M188,-54.75C188,-47.8 188,-37.85 188,-29.13"/>
<polygon fill="#63b8ff" stroke="#63b8ff" points="191.5,-29.09 188,-19.09 184.5,-29.09 191.5,-29.09"/>
</a>
</g>
</g>
<!-- Node8&#45;&gt;Node5 -->
<g id="edge8_Node000008_Node000005" class="edge">
<title>Node8&#45;&gt;Node5</title>
<g id="a_edge8_Node000008_Node000005"><a xlink:title=" ">
<path fill="none" stroke="#63b8ff" d="M284.57,-54.75C278.15,-47.18 268.69,-36.05 260.88,-26.84"/>
<polygon fill="#63b8ff" stroke="#63b8ff" points="263.43,-24.45 254.29,-19.09 258.1,-28.98 263.43,-24.45"/>
</a>
</g>
</g>
<!-- Node8&#45;&gt;Node6 -->
<g id="edge9_Node000008_Node000006" class="edge">
<title>Node8&#45;&gt;Node6</title>
<g id="a_edge9_Node000008_Node000006"><a xlink:title=" ">
<path fill="none" stroke="#63b8ff" d="M295.14,-54.75C297.68,-47.65 301.36,-37.4 304.53,-28.56"/>
<polygon fill="#63b8ff" stroke="#63b8ff" points="307.84,-29.68 307.92,-19.09 301.25,-27.32 307.84,-29.68"/>
</a>
</g>
</g>
<!-- Node8&#45;&gt;Node7 -->
<g id="edge10_Node000008_Node000007" class="edge">
<title>Node8&#45;&gt;Node7</title>
<g id="a_edge10_Node000008_Node000007"><a xlink:title=" ">
<path fill="none" stroke="#63b8ff" d="M275.29,-54.98C258.79,-46.57 233.3,-33.59 214.12,-23.81"/>
<polygon fill="#63b8ff" stroke="#63b8ff" points="215.51,-20.59 205.01,-19.17 212.33,-26.83 215.51,-20.59"/>
</a>
</g>
</g>
<!-- Node9 -->
<g id="Node000009" class="node">
<title>Node9</title>
<g id="a_Node000009"><a xlink:href="enums_8h.html" target="_top" xlink:title=" ">
<polygon fill="white" stroke="#666666" points="447.5,-19 352.5,-19 352.5,0 447.5,0 447.5,-19"/>
<text text-anchor="middle" x="400" y="-7" font-family="Helvetica,sans-Serif" font-size="10.00">structs/enums.h</text>
</a>
</g>
</g>
<!-- Node8&#45;&gt;Node9 -->
<g id="edge11_Node000008_Node000009" class="edge">
<title>Node8&#45;&gt;Node9</title>
<g id="a_edge11_Node000008_Node000009"><a xlink:title=" ">
<path fill="none" stroke="#63b8ff" d="M309.35,-54.98C326.57,-46.54 353.2,-33.47 373.15,-23.68"/>
<polygon fill="#63b8ff" stroke="#63b8ff" points="374.9,-26.72 382.33,-19.17 371.81,-20.43 374.9,-26.72"/>
</a>
</g>
</g>
</g>
</svg>
